M48
METRIC
T1C0.300
T2C0.400
T3C0.750
T4C0.800
T5C1.000
T6C3.200
%
G90
G05
T1
X83.26Y-111.322
X84.016Y-104.137
X87.877Y-107.744
X87.877Y-109.674
X87.885Y-108.752
X87.89Y-106.83
X90.925Y-109.003
X91.23Y-105.585
X91.84Y-102.842
X91.916Y-108.379
X92.037Y-104.739
T2
X59.411Y-93.617
X59.683Y-89.347
X59.869Y-100.856
X61.043Y-89.837
X62.723Y-89.897
X64.713Y-87.477
X66.743Y-88.267
X82.85Y-94.882
X84.06Y-92.542
X84.97Y-98.752
X86.0Y-89.632
X87.2Y-99.282
X87.66Y-87.922
X89.07Y-95.352
X89.13Y-92.702
T3
X65.463Y-90.777
X65.463Y-92.777
X65.463Y-94.777
X65.463Y-96.777
X65.463Y-98.777
X65.463Y-100.777
X65.463Y-102.777
X65.463Y-104.777
X65.463Y-106.777
X65.463Y-108.777
X81.03Y-90.572
X81.03Y-92.572
X81.03Y-94.572
X81.03Y-96.572
X81.03Y-98.572
X81.03Y-100.572
X81.03Y-102.572
X81.03Y-104.572
X81.03Y-106.572
X81.03Y-108.572
T4
X54.643Y-83.787
X54.643Y-85.787
X54.643Y-87.787
X54.643Y-89.787
X54.643Y-91.787
X54.643Y-93.787
X54.643Y-95.787
X54.643Y-97.787
X54.643Y-99.787
X54.643Y-101.787
X54.643Y-103.787
X54.643Y-105.787
X54.643Y-107.787
X54.643Y-109.787
X54.643Y-111.787
X54.643Y-113.787
X54.643Y-115.787
X57.503Y-83.787
X57.503Y-85.787
X57.503Y-87.787
X57.503Y-89.787
X57.503Y-91.787
X57.503Y-93.787
X57.503Y-95.787
X57.503Y-97.787
X57.503Y-99.787
X57.503Y-101.787
X57.503Y-103.787
X57.503Y-105.787
X57.503Y-107.787
X57.503Y-109.787
X57.503Y-111.787
X57.503Y-113.787
X57.503Y-115.787
X86.62Y-91.262
X86.62Y-93.802
X86.62Y-96.342
T5
X80.18Y-83.137
X80.18Y-85.677
T6
X91.35Y-83.452
X91.35Y-116.452
T0
M30
