G04 #@! TF.GenerationSoftware,KiCad,Pcbnew,(6.0.1)*
G04 #@! TF.CreationDate,2022-07-04T23:37:27-07:00*
G04 #@! TF.ProjectId,mu100-dit,6d753130-302d-4646-9974-2e6b69636164,rev?*
G04 #@! TF.SameCoordinates,Original*
G04 #@! TF.FileFunction,Soldermask,Top*
G04 #@! TF.FilePolarity,Negative*
%FSLAX46Y46*%
G04 Gerber Fmt 4.6, Leading zero omitted, Abs format (unit mm)*
G04 Created by KiCad (PCBNEW (6.0.1)) date 2022-07-04 23:37:27*
%MOMM*%
%LPD*%
G01*
G04 APERTURE LIST*
%ADD10O,1.750000X1.200000*%
%ADD11C,5.700000*%
%ADD12C,3.600000*%
%ADD13C,3.200000*%
%ADD14C,1.524000*%
%ADD15R,1.350000X1.350000*%
%ADD16O,1.350000X1.350000*%
%ADD17R,1.900000X0.800000*%
%ADD18R,1.700000X1.700000*%
%ADD19O,1.700000X1.700000*%
%ADD20O,1.800000X1.200000*%
G04 APERTURE END LIST*
G36*
G01*
X80705000Y-117702000D02*
X80705000Y-116752000D01*
G75*
G02*
X80955000Y-116502000I250000J0D01*
G01*
X81630000Y-116502000D01*
G75*
G02*
X81880000Y-116752000I0J-250000D01*
G01*
X81880000Y-117702000D01*
G75*
G02*
X81630000Y-117952000I-250000J0D01*
G01*
X80955000Y-117952000D01*
G75*
G02*
X80705000Y-117702000I0J250000D01*
G01*
G37*
G36*
G01*
X82780000Y-117702000D02*
X82780000Y-116752000D01*
G75*
G02*
X83030000Y-116502000I250000J0D01*
G01*
X83705000Y-116502000D01*
G75*
G02*
X83955000Y-116752000I0J-250000D01*
G01*
X83955000Y-117702000D01*
G75*
G02*
X83705000Y-117952000I-250000J0D01*
G01*
X83030000Y-117952000D01*
G75*
G02*
X82780000Y-117702000I0J250000D01*
G01*
G37*
G36*
G01*
X80405000Y-89972000D02*
X81655000Y-89972000D01*
G75*
G02*
X81905000Y-90222000I0J-250000D01*
G01*
X81905000Y-90922000D01*
G75*
G02*
X81655000Y-91172000I-250000J0D01*
G01*
X80405000Y-91172000D01*
G75*
G02*
X80155000Y-90922000I0J250000D01*
G01*
X80155000Y-90222000D01*
G75*
G02*
X80405000Y-89972000I250000J0D01*
G01*
G37*
D10*
X81030000Y-92572000D03*
X81030000Y-94572000D03*
X81030000Y-96572000D03*
X81030000Y-98572000D03*
X81030000Y-100572000D03*
X81030000Y-102572000D03*
X81030000Y-104572000D03*
X81030000Y-106572000D03*
X81030000Y-108572000D03*
G36*
G01*
X85002000Y-103513427D02*
X85002000Y-103313427D01*
G75*
G02*
X85102000Y-103213427I100000J0D01*
G01*
X86377000Y-103213427D01*
G75*
G02*
X86477000Y-103313427I0J-100000D01*
G01*
X86477000Y-103513427D01*
G75*
G02*
X86377000Y-103613427I-100000J0D01*
G01*
X85102000Y-103613427D01*
G75*
G02*
X85002000Y-103513427I0J100000D01*
G01*
G37*
G36*
G01*
X85002000Y-104163427D02*
X85002000Y-103963427D01*
G75*
G02*
X85102000Y-103863427I100000J0D01*
G01*
X86377000Y-103863427D01*
G75*
G02*
X86477000Y-103963427I0J-100000D01*
G01*
X86477000Y-104163427D01*
G75*
G02*
X86377000Y-104263427I-100000J0D01*
G01*
X85102000Y-104263427D01*
G75*
G02*
X85002000Y-104163427I0J100000D01*
G01*
G37*
G36*
G01*
X85002000Y-104813427D02*
X85002000Y-104613427D01*
G75*
G02*
X85102000Y-104513427I100000J0D01*
G01*
X86377000Y-104513427D01*
G75*
G02*
X86477000Y-104613427I0J-100000D01*
G01*
X86477000Y-104813427D01*
G75*
G02*
X86377000Y-104913427I-100000J0D01*
G01*
X85102000Y-104913427D01*
G75*
G02*
X85002000Y-104813427I0J100000D01*
G01*
G37*
G36*
G01*
X85002000Y-105463427D02*
X85002000Y-105263427D01*
G75*
G02*
X85102000Y-105163427I100000J0D01*
G01*
X86377000Y-105163427D01*
G75*
G02*
X86477000Y-105263427I0J-100000D01*
G01*
X86477000Y-105463427D01*
G75*
G02*
X86377000Y-105563427I-100000J0D01*
G01*
X85102000Y-105563427D01*
G75*
G02*
X85002000Y-105463427I0J100000D01*
G01*
G37*
G36*
G01*
X85002000Y-106113427D02*
X85002000Y-105913427D01*
G75*
G02*
X85102000Y-105813427I100000J0D01*
G01*
X86377000Y-105813427D01*
G75*
G02*
X86477000Y-105913427I0J-100000D01*
G01*
X86477000Y-106113427D01*
G75*
G02*
X86377000Y-106213427I-100000J0D01*
G01*
X85102000Y-106213427D01*
G75*
G02*
X85002000Y-106113427I0J100000D01*
G01*
G37*
G36*
G01*
X85002000Y-106763427D02*
X85002000Y-106563427D01*
G75*
G02*
X85102000Y-106463427I100000J0D01*
G01*
X86377000Y-106463427D01*
G75*
G02*
X86477000Y-106563427I0J-100000D01*
G01*
X86477000Y-106763427D01*
G75*
G02*
X86377000Y-106863427I-100000J0D01*
G01*
X85102000Y-106863427D01*
G75*
G02*
X85002000Y-106763427I0J100000D01*
G01*
G37*
G36*
G01*
X85002000Y-107413427D02*
X85002000Y-107213427D01*
G75*
G02*
X85102000Y-107113427I100000J0D01*
G01*
X86377000Y-107113427D01*
G75*
G02*
X86477000Y-107213427I0J-100000D01*
G01*
X86477000Y-107413427D01*
G75*
G02*
X86377000Y-107513427I-100000J0D01*
G01*
X85102000Y-107513427D01*
G75*
G02*
X85002000Y-107413427I0J100000D01*
G01*
G37*
G36*
G01*
X85002000Y-108063427D02*
X85002000Y-107863427D01*
G75*
G02*
X85102000Y-107763427I100000J0D01*
G01*
X86377000Y-107763427D01*
G75*
G02*
X86477000Y-107863427I0J-100000D01*
G01*
X86477000Y-108063427D01*
G75*
G02*
X86377000Y-108163427I-100000J0D01*
G01*
X85102000Y-108163427D01*
G75*
G02*
X85002000Y-108063427I0J100000D01*
G01*
G37*
G36*
G01*
X85002000Y-108713427D02*
X85002000Y-108513427D01*
G75*
G02*
X85102000Y-108413427I100000J0D01*
G01*
X86377000Y-108413427D01*
G75*
G02*
X86477000Y-108513427I0J-100000D01*
G01*
X86477000Y-108713427D01*
G75*
G02*
X86377000Y-108813427I-100000J0D01*
G01*
X85102000Y-108813427D01*
G75*
G02*
X85002000Y-108713427I0J100000D01*
G01*
G37*
G36*
G01*
X85002000Y-109363427D02*
X85002000Y-109163427D01*
G75*
G02*
X85102000Y-109063427I100000J0D01*
G01*
X86377000Y-109063427D01*
G75*
G02*
X86477000Y-109163427I0J-100000D01*
G01*
X86477000Y-109363427D01*
G75*
G02*
X86377000Y-109463427I-100000J0D01*
G01*
X85102000Y-109463427D01*
G75*
G02*
X85002000Y-109363427I0J100000D01*
G01*
G37*
G36*
G01*
X85002000Y-110013427D02*
X85002000Y-109813427D01*
G75*
G02*
X85102000Y-109713427I100000J0D01*
G01*
X86377000Y-109713427D01*
G75*
G02*
X86477000Y-109813427I0J-100000D01*
G01*
X86477000Y-110013427D01*
G75*
G02*
X86377000Y-110113427I-100000J0D01*
G01*
X85102000Y-110113427D01*
G75*
G02*
X85002000Y-110013427I0J100000D01*
G01*
G37*
G36*
G01*
X85002000Y-110663427D02*
X85002000Y-110463427D01*
G75*
G02*
X85102000Y-110363427I100000J0D01*
G01*
X86377000Y-110363427D01*
G75*
G02*
X86477000Y-110463427I0J-100000D01*
G01*
X86477000Y-110663427D01*
G75*
G02*
X86377000Y-110763427I-100000J0D01*
G01*
X85102000Y-110763427D01*
G75*
G02*
X85002000Y-110663427I0J100000D01*
G01*
G37*
G36*
G01*
X92427000Y-110663427D02*
X92427000Y-110463427D01*
G75*
G02*
X92527000Y-110363427I100000J0D01*
G01*
X93802000Y-110363427D01*
G75*
G02*
X93902000Y-110463427I0J-100000D01*
G01*
X93902000Y-110663427D01*
G75*
G02*
X93802000Y-110763427I-100000J0D01*
G01*
X92527000Y-110763427D01*
G75*
G02*
X92427000Y-110663427I0J100000D01*
G01*
G37*
G36*
G01*
X92427000Y-110013427D02*
X92427000Y-109813427D01*
G75*
G02*
X92527000Y-109713427I100000J0D01*
G01*
X93802000Y-109713427D01*
G75*
G02*
X93902000Y-109813427I0J-100000D01*
G01*
X93902000Y-110013427D01*
G75*
G02*
X93802000Y-110113427I-100000J0D01*
G01*
X92527000Y-110113427D01*
G75*
G02*
X92427000Y-110013427I0J100000D01*
G01*
G37*
G36*
G01*
X92427000Y-109363427D02*
X92427000Y-109163427D01*
G75*
G02*
X92527000Y-109063427I100000J0D01*
G01*
X93802000Y-109063427D01*
G75*
G02*
X93902000Y-109163427I0J-100000D01*
G01*
X93902000Y-109363427D01*
G75*
G02*
X93802000Y-109463427I-100000J0D01*
G01*
X92527000Y-109463427D01*
G75*
G02*
X92427000Y-109363427I0J100000D01*
G01*
G37*
G36*
G01*
X92427000Y-108713427D02*
X92427000Y-108513427D01*
G75*
G02*
X92527000Y-108413427I100000J0D01*
G01*
X93802000Y-108413427D01*
G75*
G02*
X93902000Y-108513427I0J-100000D01*
G01*
X93902000Y-108713427D01*
G75*
G02*
X93802000Y-108813427I-100000J0D01*
G01*
X92527000Y-108813427D01*
G75*
G02*
X92427000Y-108713427I0J100000D01*
G01*
G37*
G36*
G01*
X92427000Y-108063427D02*
X92427000Y-107863427D01*
G75*
G02*
X92527000Y-107763427I100000J0D01*
G01*
X93802000Y-107763427D01*
G75*
G02*
X93902000Y-107863427I0J-100000D01*
G01*
X93902000Y-108063427D01*
G75*
G02*
X93802000Y-108163427I-100000J0D01*
G01*
X92527000Y-108163427D01*
G75*
G02*
X92427000Y-108063427I0J100000D01*
G01*
G37*
G36*
G01*
X92427000Y-107413427D02*
X92427000Y-107213427D01*
G75*
G02*
X92527000Y-107113427I100000J0D01*
G01*
X93802000Y-107113427D01*
G75*
G02*
X93902000Y-107213427I0J-100000D01*
G01*
X93902000Y-107413427D01*
G75*
G02*
X93802000Y-107513427I-100000J0D01*
G01*
X92527000Y-107513427D01*
G75*
G02*
X92427000Y-107413427I0J100000D01*
G01*
G37*
G36*
G01*
X92427000Y-106763427D02*
X92427000Y-106563427D01*
G75*
G02*
X92527000Y-106463427I100000J0D01*
G01*
X93802000Y-106463427D01*
G75*
G02*
X93902000Y-106563427I0J-100000D01*
G01*
X93902000Y-106763427D01*
G75*
G02*
X93802000Y-106863427I-100000J0D01*
G01*
X92527000Y-106863427D01*
G75*
G02*
X92427000Y-106763427I0J100000D01*
G01*
G37*
G36*
G01*
X92427000Y-106113427D02*
X92427000Y-105913427D01*
G75*
G02*
X92527000Y-105813427I100000J0D01*
G01*
X93802000Y-105813427D01*
G75*
G02*
X93902000Y-105913427I0J-100000D01*
G01*
X93902000Y-106113427D01*
G75*
G02*
X93802000Y-106213427I-100000J0D01*
G01*
X92527000Y-106213427D01*
G75*
G02*
X92427000Y-106113427I0J100000D01*
G01*
G37*
G36*
G01*
X92427000Y-105463427D02*
X92427000Y-105263427D01*
G75*
G02*
X92527000Y-105163427I100000J0D01*
G01*
X93802000Y-105163427D01*
G75*
G02*
X93902000Y-105263427I0J-100000D01*
G01*
X93902000Y-105463427D01*
G75*
G02*
X93802000Y-105563427I-100000J0D01*
G01*
X92527000Y-105563427D01*
G75*
G02*
X92427000Y-105463427I0J100000D01*
G01*
G37*
G36*
G01*
X92427000Y-104813427D02*
X92427000Y-104613427D01*
G75*
G02*
X92527000Y-104513427I100000J0D01*
G01*
X93802000Y-104513427D01*
G75*
G02*
X93902000Y-104613427I0J-100000D01*
G01*
X93902000Y-104813427D01*
G75*
G02*
X93802000Y-104913427I-100000J0D01*
G01*
X92527000Y-104913427D01*
G75*
G02*
X92427000Y-104813427I0J100000D01*
G01*
G37*
G36*
G01*
X92427000Y-104163427D02*
X92427000Y-103963427D01*
G75*
G02*
X92527000Y-103863427I100000J0D01*
G01*
X93802000Y-103863427D01*
G75*
G02*
X93902000Y-103963427I0J-100000D01*
G01*
X93902000Y-104163427D01*
G75*
G02*
X93802000Y-104263427I-100000J0D01*
G01*
X92527000Y-104263427D01*
G75*
G02*
X92427000Y-104163427I0J100000D01*
G01*
G37*
G36*
G01*
X92427000Y-103513427D02*
X92427000Y-103313427D01*
G75*
G02*
X92527000Y-103213427I100000J0D01*
G01*
X93802000Y-103213427D01*
G75*
G02*
X93902000Y-103313427I0J-100000D01*
G01*
X93902000Y-103513427D01*
G75*
G02*
X93802000Y-103613427I-100000J0D01*
G01*
X92527000Y-103613427D01*
G75*
G02*
X92427000Y-103513427I0J100000D01*
G01*
G37*
D11*
X91350000Y-83452000D03*
D12*
X91350000Y-83452000D03*
G36*
G01*
X60122400Y-87182800D02*
X60122400Y-86232800D01*
G75*
G02*
X60372400Y-85982800I250000J0D01*
G01*
X61047400Y-85982800D01*
G75*
G02*
X61297400Y-86232800I0J-250000D01*
G01*
X61297400Y-87182800D01*
G75*
G02*
X61047400Y-87432800I-250000J0D01*
G01*
X60372400Y-87432800D01*
G75*
G02*
X60122400Y-87182800I0J250000D01*
G01*
G37*
G36*
G01*
X62197400Y-87182800D02*
X62197400Y-86232800D01*
G75*
G02*
X62447400Y-85982800I250000J0D01*
G01*
X63122400Y-85982800D01*
G75*
G02*
X63372400Y-86232800I0J-250000D01*
G01*
X63372400Y-87182800D01*
G75*
G02*
X63122400Y-87432800I-250000J0D01*
G01*
X62447400Y-87432800D01*
G75*
G02*
X62197400Y-87182800I0J250000D01*
G01*
G37*
D13*
X90430000Y-89992000D03*
X90430000Y-97612000D03*
D14*
X86620000Y-91262000D03*
X86620000Y-93802000D03*
X86620000Y-96342000D03*
G36*
G01*
X90621000Y-101615000D02*
X90621000Y-100665000D01*
G75*
G02*
X90871000Y-100415000I250000J0D01*
G01*
X91546000Y-100415000D01*
G75*
G02*
X91796000Y-100665000I0J-250000D01*
G01*
X91796000Y-101615000D01*
G75*
G02*
X91546000Y-101865000I-250000J0D01*
G01*
X90871000Y-101865000D01*
G75*
G02*
X90621000Y-101615000I0J250000D01*
G01*
G37*
G36*
G01*
X92696000Y-101615000D02*
X92696000Y-100665000D01*
G75*
G02*
X92946000Y-100415000I250000J0D01*
G01*
X93621000Y-100415000D01*
G75*
G02*
X93871000Y-100665000I0J-250000D01*
G01*
X93871000Y-101615000D01*
G75*
G02*
X93621000Y-101865000I-250000J0D01*
G01*
X92946000Y-101865000D01*
G75*
G02*
X92696000Y-101615000I0J250000D01*
G01*
G37*
D15*
X54643400Y-83787000D03*
D16*
X54643400Y-85787000D03*
X54643400Y-87787000D03*
X54643400Y-89787000D03*
X54643400Y-91787000D03*
X54643400Y-93787000D03*
X54643400Y-95787000D03*
X54643400Y-97787000D03*
X54643400Y-99787000D03*
X54643400Y-101787000D03*
X54643400Y-103787000D03*
X54643400Y-105787000D03*
X54643400Y-107787000D03*
X54643400Y-109787000D03*
X54643400Y-111787000D03*
X54643400Y-113787000D03*
X54643400Y-115787000D03*
D17*
X80830000Y-112702000D03*
X80830000Y-114602000D03*
X83830000Y-113652000D03*
G36*
G01*
X60097400Y-99720332D02*
X60097400Y-98820332D01*
G75*
G02*
X60347400Y-98570332I250000J0D01*
G01*
X61047400Y-98570332D01*
G75*
G02*
X61297400Y-98820332I0J-250000D01*
G01*
X61297400Y-99720332D01*
G75*
G02*
X61047400Y-99970332I-250000J0D01*
G01*
X60347400Y-99970332D01*
G75*
G02*
X60097400Y-99720332I0J250000D01*
G01*
G37*
G36*
G01*
X62097400Y-99720332D02*
X62097400Y-98820332D01*
G75*
G02*
X62347400Y-98570332I250000J0D01*
G01*
X63047400Y-98570332D01*
G75*
G02*
X63297400Y-98820332I0J-250000D01*
G01*
X63297400Y-99720332D01*
G75*
G02*
X63047400Y-99970332I-250000J0D01*
G01*
X62347400Y-99970332D01*
G75*
G02*
X62097400Y-99720332I0J250000D01*
G01*
G37*
G36*
G01*
X60097400Y-95873666D02*
X60097400Y-94973666D01*
G75*
G02*
X60347400Y-94723666I250000J0D01*
G01*
X61047400Y-94723666D01*
G75*
G02*
X61297400Y-94973666I0J-250000D01*
G01*
X61297400Y-95873666D01*
G75*
G02*
X61047400Y-96123666I-250000J0D01*
G01*
X60347400Y-96123666D01*
G75*
G02*
X60097400Y-95873666I0J250000D01*
G01*
G37*
G36*
G01*
X62097400Y-95873666D02*
X62097400Y-94973666D01*
G75*
G02*
X62347400Y-94723666I250000J0D01*
G01*
X63047400Y-94723666D01*
G75*
G02*
X63297400Y-94973666I0J-250000D01*
G01*
X63297400Y-95873666D01*
G75*
G02*
X63047400Y-96123666I-250000J0D01*
G01*
X62347400Y-96123666D01*
G75*
G02*
X62097400Y-95873666I0J250000D01*
G01*
G37*
G36*
G01*
X88283000Y-100665000D02*
X88283000Y-101615000D01*
G75*
G02*
X88033000Y-101865000I-250000J0D01*
G01*
X87358000Y-101865000D01*
G75*
G02*
X87108000Y-101615000I0J250000D01*
G01*
X87108000Y-100665000D01*
G75*
G02*
X87358000Y-100415000I250000J0D01*
G01*
X88033000Y-100415000D01*
G75*
G02*
X88283000Y-100665000I0J-250000D01*
G01*
G37*
G36*
G01*
X86208000Y-100665000D02*
X86208000Y-101615000D01*
G75*
G02*
X85958000Y-101865000I-250000J0D01*
G01*
X85283000Y-101865000D01*
G75*
G02*
X85033000Y-101615000I0J250000D01*
G01*
X85033000Y-100665000D01*
G75*
G02*
X85283000Y-100415000I250000J0D01*
G01*
X85958000Y-100415000D01*
G75*
G02*
X86208000Y-100665000I0J-250000D01*
G01*
G37*
G36*
G01*
X60097400Y-92027000D02*
X60097400Y-91127000D01*
G75*
G02*
X60347400Y-90877000I250000J0D01*
G01*
X61047400Y-90877000D01*
G75*
G02*
X61297400Y-91127000I0J-250000D01*
G01*
X61297400Y-92027000D01*
G75*
G02*
X61047400Y-92277000I-250000J0D01*
G01*
X60347400Y-92277000D01*
G75*
G02*
X60097400Y-92027000I0J250000D01*
G01*
G37*
G36*
G01*
X62097400Y-92027000D02*
X62097400Y-91127000D01*
G75*
G02*
X62347400Y-90877000I250000J0D01*
G01*
X63047400Y-90877000D01*
G75*
G02*
X63297400Y-91127000I0J-250000D01*
G01*
X63297400Y-92027000D01*
G75*
G02*
X63047400Y-92277000I-250000J0D01*
G01*
X62347400Y-92277000D01*
G75*
G02*
X62097400Y-92027000I0J250000D01*
G01*
G37*
D11*
X91350000Y-116452000D03*
D12*
X91350000Y-116452000D03*
G36*
G01*
X60097400Y-103567000D02*
X60097400Y-102667000D01*
G75*
G02*
X60347400Y-102417000I250000J0D01*
G01*
X61047400Y-102417000D01*
G75*
G02*
X61297400Y-102667000I0J-250000D01*
G01*
X61297400Y-103567000D01*
G75*
G02*
X61047400Y-103817000I-250000J0D01*
G01*
X60347400Y-103817000D01*
G75*
G02*
X60097400Y-103567000I0J250000D01*
G01*
G37*
G36*
G01*
X62097400Y-103567000D02*
X62097400Y-102667000D01*
G75*
G02*
X62347400Y-102417000I250000J0D01*
G01*
X63047400Y-102417000D01*
G75*
G02*
X63297400Y-102667000I0J-250000D01*
G01*
X63297400Y-103567000D01*
G75*
G02*
X63047400Y-103817000I-250000J0D01*
G01*
X62347400Y-103817000D01*
G75*
G02*
X62097400Y-103567000I0J250000D01*
G01*
G37*
D18*
X80180000Y-85677000D03*
D19*
X80180000Y-83137000D03*
G36*
G01*
X66088400Y-109377000D02*
X64838400Y-109377000D01*
G75*
G02*
X64588400Y-109127000I0J250000D01*
G01*
X64588400Y-108427000D01*
G75*
G02*
X64838400Y-108177000I250000J0D01*
G01*
X66088400Y-108177000D01*
G75*
G02*
X66338400Y-108427000I0J-250000D01*
G01*
X66338400Y-109127000D01*
G75*
G02*
X66088400Y-109377000I-250000J0D01*
G01*
G37*
D10*
X65463400Y-106777000D03*
X65463400Y-104777000D03*
X65463400Y-102777000D03*
X65463400Y-100777000D03*
X65463400Y-98777000D03*
X65463400Y-96777000D03*
X65463400Y-94777000D03*
X65463400Y-92777000D03*
X65463400Y-90777000D03*
G36*
G01*
X56853400Y-83187000D02*
X58153400Y-83187000D01*
G75*
G02*
X58403400Y-83437000I0J-250000D01*
G01*
X58403400Y-84137000D01*
G75*
G02*
X58153400Y-84387000I-250000J0D01*
G01*
X56853400Y-84387000D01*
G75*
G02*
X56603400Y-84137000I0J250000D01*
G01*
X56603400Y-83437000D01*
G75*
G02*
X56853400Y-83187000I250000J0D01*
G01*
G37*
D20*
X57503400Y-85787000D03*
X57503400Y-87787000D03*
X57503400Y-89787000D03*
X57503400Y-91787000D03*
X57503400Y-93787000D03*
X57503400Y-95787000D03*
X57503400Y-97787000D03*
X57503400Y-99787000D03*
X57503400Y-101787000D03*
X57503400Y-103787000D03*
X57503400Y-105787000D03*
X57503400Y-107787000D03*
X57503400Y-109787000D03*
X57503400Y-111787000D03*
X57503400Y-113787000D03*
X57503400Y-115787000D03*
M02*
