G04 #@! TF.GenerationSoftware,KiCad,Pcbnew,(6.0.1)*
G04 #@! TF.CreationDate,2022-07-04T23:37:27-07:00*
G04 #@! TF.ProjectId,mu100-dit,6d753130-302d-4646-9974-2e6b69636164,rev?*
G04 #@! TF.SameCoordinates,Original*
G04 #@! TF.FileFunction,Legend,Top*
G04 #@! TF.FilePolarity,Positive*
%FSLAX46Y46*%
G04 Gerber Fmt 4.6, Leading zero omitted, Abs format (unit mm)*
G04 Created by KiCad (PCBNEW (6.0.1)) date 2022-07-04 23:37:27*
%MOMM*%
%LPD*%
G01*
G04 APERTURE LIST*
%ADD10C,0.150000*%
%ADD11C,0.125000*%
%ADD12C,0.120000*%
%ADD13C,0.050000*%
%ADD14O,1.750000X1.200000*%
%ADD15C,5.700000*%
%ADD16C,3.600000*%
%ADD17C,3.200000*%
%ADD18C,1.524000*%
%ADD19R,1.350000X1.350000*%
%ADD20O,1.350000X1.350000*%
%ADD21R,1.900000X0.800000*%
%ADD22R,1.700000X1.700000*%
%ADD23O,1.700000X1.700000*%
%ADD24O,1.800000X1.200000*%
G04 APERTURE END LIST*
D10*
X79020000Y-87407000D02*
X78500000Y-88337000D01*
X79020000Y-87407000D02*
X77980000Y-87407000D01*
X77980000Y-87412000D02*
X78500000Y-88342000D01*
X82728095Y-82852000D02*
X82632857Y-82804380D01*
X82490000Y-82804380D01*
X82347142Y-82852000D01*
X82251904Y-82947238D01*
X82204285Y-83042476D01*
X82156666Y-83232952D01*
X82156666Y-83375809D01*
X82204285Y-83566285D01*
X82251904Y-83661523D01*
X82347142Y-83756761D01*
X82490000Y-83804380D01*
X82585238Y-83804380D01*
X82728095Y-83756761D01*
X82775714Y-83709142D01*
X82775714Y-83375809D01*
X82585238Y-83375809D01*
X83204285Y-83804380D02*
X83204285Y-82804380D01*
X83775714Y-83804380D01*
X83775714Y-82804380D01*
X84251904Y-83804380D02*
X84251904Y-82804380D01*
X84490000Y-82804380D01*
X84632857Y-82852000D01*
X84728095Y-82947238D01*
X84775714Y-83042476D01*
X84823333Y-83232952D01*
X84823333Y-83375809D01*
X84775714Y-83566285D01*
X84728095Y-83661523D01*
X84632857Y-83756761D01*
X84490000Y-83804380D01*
X84251904Y-83804380D01*
D11*
X66880400Y-101156752D02*
X66856590Y-101204371D01*
X66856590Y-101275800D01*
X66880400Y-101347228D01*
X66928019Y-101394847D01*
X66975638Y-101418657D01*
X67070876Y-101442466D01*
X67142304Y-101442466D01*
X67237542Y-101418657D01*
X67285161Y-101394847D01*
X67332780Y-101347228D01*
X67356590Y-101275800D01*
X67356590Y-101228180D01*
X67332780Y-101156752D01*
X67308971Y-101132942D01*
X67142304Y-101132942D01*
X67142304Y-101228180D01*
X67356590Y-100918657D02*
X66856590Y-100918657D01*
X67356590Y-100632942D01*
X66856590Y-100632942D01*
X67356590Y-100394847D02*
X66856590Y-100394847D01*
X66856590Y-100275800D01*
X66880400Y-100204371D01*
X66928019Y-100156752D01*
X66975638Y-100132942D01*
X67070876Y-100109133D01*
X67142304Y-100109133D01*
X67237542Y-100132942D01*
X67285161Y-100156752D01*
X67332780Y-100204371D01*
X67356590Y-100275800D01*
X67356590Y-100394847D01*
X67166114Y-107718657D02*
X67166114Y-107337704D01*
X67356590Y-107528180D02*
X66975638Y-107528180D01*
X66856590Y-106861514D02*
X66856590Y-107099609D01*
X67094685Y-107123419D01*
X67070876Y-107099609D01*
X67047066Y-107051990D01*
X67047066Y-106932942D01*
X67070876Y-106885323D01*
X67094685Y-106861514D01*
X67142304Y-106837704D01*
X67261352Y-106837704D01*
X67308971Y-106861514D01*
X67332780Y-106885323D01*
X67356590Y-106932942D01*
X67356590Y-107051990D01*
X67332780Y-107099609D01*
X67308971Y-107123419D01*
X66856590Y-106694847D02*
X67356590Y-106528180D01*
X66856590Y-106361514D01*
D10*
X79192142Y-81299857D02*
X79156428Y-81335571D01*
X79049285Y-81371285D01*
X78977857Y-81371285D01*
X78870714Y-81335571D01*
X78799285Y-81264142D01*
X78763571Y-81192714D01*
X78727857Y-81049857D01*
X78727857Y-80942714D01*
X78763571Y-80799857D01*
X78799285Y-80728428D01*
X78870714Y-80657000D01*
X78977857Y-80621285D01*
X79049285Y-80621285D01*
X79156428Y-80657000D01*
X79192142Y-80692714D01*
X79620714Y-81371285D02*
X79549285Y-81335571D01*
X79513571Y-81299857D01*
X79477857Y-81228428D01*
X79477857Y-81014142D01*
X79513571Y-80942714D01*
X79549285Y-80907000D01*
X79620714Y-80871285D01*
X79727857Y-80871285D01*
X79799285Y-80907000D01*
X79835000Y-80942714D01*
X79870714Y-81014142D01*
X79870714Y-81228428D01*
X79835000Y-81299857D01*
X79799285Y-81335571D01*
X79727857Y-81371285D01*
X79620714Y-81371285D01*
X80513571Y-81371285D02*
X80513571Y-80978428D01*
X80477857Y-80907000D01*
X80406428Y-80871285D01*
X80263571Y-80871285D01*
X80192142Y-80907000D01*
X80513571Y-81335571D02*
X80442142Y-81371285D01*
X80263571Y-81371285D01*
X80192142Y-81335571D01*
X80156428Y-81264142D01*
X80156428Y-81192714D01*
X80192142Y-81121285D01*
X80263571Y-81085571D01*
X80442142Y-81085571D01*
X80513571Y-81049857D01*
X80799285Y-81371285D02*
X81192142Y-80871285D01*
X80799285Y-80871285D02*
X81192142Y-81371285D01*
X82263571Y-81657000D02*
X82227857Y-81621285D01*
X82156428Y-81514142D01*
X82120714Y-81442714D01*
X82085000Y-81335571D01*
X82049285Y-81157000D01*
X82049285Y-81014142D01*
X82085000Y-80835571D01*
X82120714Y-80728428D01*
X82156428Y-80657000D01*
X82227857Y-80549857D01*
X82263571Y-80514142D01*
X82692142Y-80621285D02*
X82835000Y-80621285D01*
X82906428Y-80657000D01*
X82977857Y-80728428D01*
X83013571Y-80871285D01*
X83013571Y-81121285D01*
X82977857Y-81264142D01*
X82906428Y-81335571D01*
X82835000Y-81371285D01*
X82692142Y-81371285D01*
X82620714Y-81335571D01*
X82549285Y-81264142D01*
X82513571Y-81121285D01*
X82513571Y-80871285D01*
X82549285Y-80728428D01*
X82620714Y-80657000D01*
X82692142Y-80621285D01*
X83335000Y-81371285D02*
X83335000Y-80621285D01*
X83620714Y-80621285D01*
X83692142Y-80657000D01*
X83727857Y-80692714D01*
X83763571Y-80764142D01*
X83763571Y-80871285D01*
X83727857Y-80942714D01*
X83692142Y-80978428D01*
X83620714Y-81014142D01*
X83335000Y-81014142D01*
X83977857Y-80621285D02*
X84406428Y-80621285D01*
X84192142Y-81371285D02*
X84192142Y-80621285D01*
X84656428Y-81299857D02*
X84692142Y-81335571D01*
X84656428Y-81371285D01*
X84620714Y-81335571D01*
X84656428Y-81299857D01*
X84656428Y-81371285D01*
X84942142Y-81657000D02*
X84977857Y-81621285D01*
X85049285Y-81514142D01*
X85085000Y-81442714D01*
X85120714Y-81335571D01*
X85156428Y-81157000D01*
X85156428Y-81014142D01*
X85120714Y-80835571D01*
X85085000Y-80728428D01*
X85049285Y-80657000D01*
X84977857Y-80549857D01*
X84942142Y-80514142D01*
D11*
X67356590Y-109268657D02*
X66856590Y-109268657D01*
X67356590Y-108982942D01*
X66856590Y-108982942D01*
X67308971Y-108459133D02*
X67332780Y-108482942D01*
X67356590Y-108554371D01*
X67356590Y-108601990D01*
X67332780Y-108673419D01*
X67285161Y-108721038D01*
X67237542Y-108744847D01*
X67142304Y-108768657D01*
X67070876Y-108768657D01*
X66975638Y-108744847D01*
X66928019Y-108721038D01*
X66880400Y-108673419D01*
X66856590Y-108601990D01*
X66856590Y-108554371D01*
X66880400Y-108482942D01*
X66904209Y-108459133D01*
X66880400Y-105156752D02*
X66856590Y-105204371D01*
X66856590Y-105275800D01*
X66880400Y-105347228D01*
X66928019Y-105394847D01*
X66975638Y-105418657D01*
X67070876Y-105442466D01*
X67142304Y-105442466D01*
X67237542Y-105418657D01*
X67285161Y-105394847D01*
X67332780Y-105347228D01*
X67356590Y-105275800D01*
X67356590Y-105228180D01*
X67332780Y-105156752D01*
X67308971Y-105132942D01*
X67142304Y-105132942D01*
X67142304Y-105228180D01*
X67356590Y-104918657D02*
X66856590Y-104918657D01*
X67356590Y-104632942D01*
X66856590Y-104632942D01*
X67356590Y-104394847D02*
X66856590Y-104394847D01*
X66856590Y-104275800D01*
X66880400Y-104204371D01*
X66928019Y-104156752D01*
X66975638Y-104132942D01*
X67070876Y-104109133D01*
X67142304Y-104109133D01*
X67237542Y-104132942D01*
X67285161Y-104156752D01*
X67332780Y-104204371D01*
X67356590Y-104275800D01*
X67356590Y-104394847D01*
D10*
X59719114Y-117483190D02*
X60528638Y-117483190D01*
X60623876Y-117530809D01*
X60671495Y-117578428D01*
X60719114Y-117673666D01*
X60719114Y-117816523D01*
X60671495Y-117911761D01*
X60338161Y-117483190D02*
X60385780Y-117578428D01*
X60385780Y-117768904D01*
X60338161Y-117864142D01*
X60290542Y-117911761D01*
X60195304Y-117959380D01*
X59909590Y-117959380D01*
X59814352Y-117911761D01*
X59766733Y-117864142D01*
X59719114Y-117768904D01*
X59719114Y-117578428D01*
X59766733Y-117483190D01*
X60385780Y-117007000D02*
X59719114Y-117007000D01*
X59385780Y-117007000D02*
X59433400Y-117054619D01*
X59481019Y-117007000D01*
X59433400Y-116959380D01*
X59385780Y-117007000D01*
X59481019Y-117007000D01*
X59719114Y-116673666D02*
X59719114Y-116292714D01*
X59385780Y-116530809D02*
X60242923Y-116530809D01*
X60338161Y-116483190D01*
X60385780Y-116387952D01*
X60385780Y-116292714D01*
X60385780Y-115959380D02*
X59385780Y-115959380D01*
X60385780Y-115530809D02*
X59861971Y-115530809D01*
X59766733Y-115578428D01*
X59719114Y-115673666D01*
X59719114Y-115816523D01*
X59766733Y-115911761D01*
X59814352Y-115959380D01*
X59719114Y-114626047D02*
X60385780Y-114626047D01*
X59719114Y-115054619D02*
X60242923Y-115054619D01*
X60338161Y-115007000D01*
X60385780Y-114911761D01*
X60385780Y-114768904D01*
X60338161Y-114673666D01*
X60290542Y-114626047D01*
X60385780Y-114149857D02*
X59385780Y-114149857D01*
X59766733Y-114149857D02*
X59719114Y-114054619D01*
X59719114Y-113864142D01*
X59766733Y-113768904D01*
X59814352Y-113721285D01*
X59909590Y-113673666D01*
X60195304Y-113673666D01*
X60290542Y-113721285D01*
X60338161Y-113768904D01*
X60385780Y-113864142D01*
X60385780Y-114054619D01*
X60338161Y-114149857D01*
X60290542Y-113245095D02*
X60338161Y-113197476D01*
X60385780Y-113245095D01*
X60338161Y-113292714D01*
X60290542Y-113245095D01*
X60385780Y-113245095D01*
X60338161Y-112340333D02*
X60385780Y-112435571D01*
X60385780Y-112626047D01*
X60338161Y-112721285D01*
X60290542Y-112768904D01*
X60195304Y-112816523D01*
X59909590Y-112816523D01*
X59814352Y-112768904D01*
X59766733Y-112721285D01*
X59719114Y-112626047D01*
X59719114Y-112435571D01*
X59766733Y-112340333D01*
X60385780Y-111768904D02*
X60338161Y-111864142D01*
X60290542Y-111911761D01*
X60195304Y-111959380D01*
X59909590Y-111959380D01*
X59814352Y-111911761D01*
X59766733Y-111864142D01*
X59719114Y-111768904D01*
X59719114Y-111626047D01*
X59766733Y-111530809D01*
X59814352Y-111483190D01*
X59909590Y-111435571D01*
X60195304Y-111435571D01*
X60290542Y-111483190D01*
X60338161Y-111530809D01*
X60385780Y-111626047D01*
X60385780Y-111768904D01*
X60385780Y-111007000D02*
X59719114Y-111007000D01*
X59814352Y-111007000D02*
X59766733Y-110959380D01*
X59719114Y-110864142D01*
X59719114Y-110721285D01*
X59766733Y-110626047D01*
X59861971Y-110578428D01*
X60385780Y-110578428D01*
X59861971Y-110578428D02*
X59766733Y-110530809D01*
X59719114Y-110435571D01*
X59719114Y-110292714D01*
X59766733Y-110197476D01*
X59861971Y-110149857D01*
X60385780Y-110149857D01*
X59338161Y-108959380D02*
X60623876Y-109816523D01*
X61329114Y-117102238D02*
X61995780Y-117102238D01*
X61424352Y-117102238D02*
X61376733Y-117054619D01*
X61329114Y-116959380D01*
X61329114Y-116816523D01*
X61376733Y-116721285D01*
X61471971Y-116673666D01*
X61995780Y-116673666D01*
X61995780Y-116197476D02*
X61329114Y-116197476D01*
X60995780Y-116197476D02*
X61043400Y-116245095D01*
X61091019Y-116197476D01*
X61043400Y-116149857D01*
X60995780Y-116197476D01*
X61091019Y-116197476D01*
X61995780Y-115721285D02*
X60995780Y-115721285D01*
X61614828Y-115626047D02*
X61995780Y-115340333D01*
X61329114Y-115340333D02*
X61710066Y-115721285D01*
X61995780Y-114911761D02*
X61329114Y-114911761D01*
X60995780Y-114911761D02*
X61043400Y-114959380D01*
X61091019Y-114911761D01*
X61043400Y-114864142D01*
X60995780Y-114911761D01*
X61091019Y-114911761D01*
X61329114Y-114578428D02*
X61329114Y-114197476D01*
X60995780Y-114435571D02*
X61852923Y-114435571D01*
X61948161Y-114387952D01*
X61995780Y-114292714D01*
X61995780Y-114197476D01*
X61995780Y-113435571D02*
X61471971Y-113435571D01*
X61376733Y-113483190D01*
X61329114Y-113578428D01*
X61329114Y-113768904D01*
X61376733Y-113864142D01*
X61948161Y-113435571D02*
X61995780Y-113530809D01*
X61995780Y-113768904D01*
X61948161Y-113864142D01*
X61852923Y-113911761D01*
X61757685Y-113911761D01*
X61662447Y-113864142D01*
X61614828Y-113768904D01*
X61614828Y-113530809D01*
X61567209Y-113435571D01*
X61995780Y-112816523D02*
X61948161Y-112911761D01*
X61852923Y-112959380D01*
X60995780Y-112959380D01*
X61995780Y-112435571D02*
X61329114Y-112435571D01*
X60995780Y-112435571D02*
X61043400Y-112483190D01*
X61091019Y-112435571D01*
X61043400Y-112387952D01*
X60995780Y-112435571D01*
X61091019Y-112435571D01*
X61329114Y-112102238D02*
X61329114Y-111721285D01*
X60995780Y-111959380D02*
X61852923Y-111959380D01*
X61948161Y-111911761D01*
X61995780Y-111816523D01*
X61995780Y-111721285D01*
X61995780Y-110959380D02*
X61471971Y-110959380D01*
X61376733Y-111007000D01*
X61329114Y-111102238D01*
X61329114Y-111292714D01*
X61376733Y-111387952D01*
X61948161Y-110959380D02*
X61995780Y-111054619D01*
X61995780Y-111292714D01*
X61948161Y-111387952D01*
X61852923Y-111435571D01*
X61757685Y-111435571D01*
X61662447Y-111387952D01*
X61614828Y-111292714D01*
X61614828Y-111054619D01*
X61567209Y-110959380D01*
X60948161Y-109768904D02*
X62233876Y-110626047D01*
X63605780Y-117530809D02*
X62605780Y-117530809D01*
X63320066Y-117197476D01*
X62605780Y-116864142D01*
X63605780Y-116864142D01*
X62605780Y-116387952D02*
X63415304Y-116387952D01*
X63510542Y-116340333D01*
X63558161Y-116292714D01*
X63605780Y-116197476D01*
X63605780Y-116007000D01*
X63558161Y-115911761D01*
X63510542Y-115864142D01*
X63415304Y-115816523D01*
X62605780Y-115816523D01*
X63605780Y-114816523D02*
X63605780Y-115387952D01*
X63605780Y-115102238D02*
X62605780Y-115102238D01*
X62748638Y-115197476D01*
X62843876Y-115292714D01*
X62891495Y-115387952D01*
X62605780Y-114197476D02*
X62605780Y-114102238D01*
X62653400Y-114007000D01*
X62701019Y-113959380D01*
X62796257Y-113911761D01*
X62986733Y-113864142D01*
X63224828Y-113864142D01*
X63415304Y-113911761D01*
X63510542Y-113959380D01*
X63558161Y-114007000D01*
X63605780Y-114102238D01*
X63605780Y-114197476D01*
X63558161Y-114292714D01*
X63510542Y-114340333D01*
X63415304Y-114387952D01*
X63224828Y-114435571D01*
X62986733Y-114435571D01*
X62796257Y-114387952D01*
X62701019Y-114340333D01*
X62653400Y-114292714D01*
X62605780Y-114197476D01*
X62605780Y-113245095D02*
X62605780Y-113149857D01*
X62653400Y-113054619D01*
X62701019Y-113007000D01*
X62796257Y-112959380D01*
X62986733Y-112911761D01*
X63224828Y-112911761D01*
X63415304Y-112959380D01*
X63510542Y-113007000D01*
X63558161Y-113054619D01*
X63605780Y-113149857D01*
X63605780Y-113245095D01*
X63558161Y-113340333D01*
X63510542Y-113387952D01*
X63415304Y-113435571D01*
X63224828Y-113483190D01*
X62986733Y-113483190D01*
X62796257Y-113435571D01*
X62701019Y-113387952D01*
X62653400Y-113340333D01*
X62605780Y-113245095D01*
X63224828Y-112483190D02*
X63224828Y-111721285D01*
X63605780Y-111245095D02*
X62605780Y-111245095D01*
X62605780Y-111007000D01*
X62653400Y-110864142D01*
X62748638Y-110768904D01*
X62843876Y-110721285D01*
X63034352Y-110673666D01*
X63177209Y-110673666D01*
X63367685Y-110721285D01*
X63462923Y-110768904D01*
X63558161Y-110864142D01*
X63605780Y-111007000D01*
X63605780Y-111245095D01*
X63605780Y-110245095D02*
X62605780Y-110245095D01*
X62605780Y-109911761D02*
X62605780Y-109340333D01*
X63605780Y-109626047D02*
X62605780Y-109626047D01*
D11*
X67356590Y-103644847D02*
X66856590Y-103644847D01*
X67213733Y-103478180D01*
X66856590Y-103311514D01*
X67356590Y-103311514D01*
X67308971Y-102787704D02*
X67332780Y-102811514D01*
X67356590Y-102882942D01*
X67356590Y-102930561D01*
X67332780Y-103001990D01*
X67285161Y-103049609D01*
X67237542Y-103073419D01*
X67142304Y-103097228D01*
X67070876Y-103097228D01*
X66975638Y-103073419D01*
X66928019Y-103049609D01*
X66880400Y-103001990D01*
X66856590Y-102930561D01*
X66856590Y-102882942D01*
X66880400Y-102811514D01*
X66904209Y-102787704D01*
X67356590Y-102335323D02*
X67356590Y-102573419D01*
X66856590Y-102573419D01*
X67356590Y-102168657D02*
X66856590Y-102168657D01*
X67356590Y-101882942D02*
X67070876Y-102097228D01*
X66856590Y-101882942D02*
X67142304Y-102168657D01*
X67356590Y-91371038D02*
X67356590Y-91609133D01*
X66856590Y-91609133D01*
X67356590Y-90918657D02*
X67118495Y-91085323D01*
X67356590Y-91204371D02*
X66856590Y-91204371D01*
X66856590Y-91013895D01*
X66880400Y-90966276D01*
X66904209Y-90942466D01*
X66951828Y-90918657D01*
X67023257Y-90918657D01*
X67070876Y-90942466D01*
X67094685Y-90966276D01*
X67118495Y-91013895D01*
X67118495Y-91204371D01*
X67308971Y-90418657D02*
X67332780Y-90442466D01*
X67356590Y-90513895D01*
X67356590Y-90561514D01*
X67332780Y-90632942D01*
X67285161Y-90680561D01*
X67237542Y-90704371D01*
X67142304Y-90728180D01*
X67070876Y-90728180D01*
X66975638Y-90704371D01*
X66928019Y-90680561D01*
X66880400Y-90632942D01*
X66856590Y-90561514D01*
X66856590Y-90513895D01*
X66880400Y-90442466D01*
X66904209Y-90418657D01*
X67356590Y-90204371D02*
X66856590Y-90204371D01*
X67356590Y-89918657D02*
X67070876Y-90132942D01*
X66856590Y-89918657D02*
X67142304Y-90204371D01*
D10*
X82569047Y-86023428D02*
X82616666Y-85975809D01*
X82711904Y-85928190D01*
X82902380Y-86023428D01*
X82997619Y-85975809D01*
X83045238Y-85928190D01*
D11*
X66880400Y-97156752D02*
X66856590Y-97204371D01*
X66856590Y-97275800D01*
X66880400Y-97347228D01*
X66928019Y-97394847D01*
X66975638Y-97418657D01*
X67070876Y-97442466D01*
X67142304Y-97442466D01*
X67237542Y-97418657D01*
X67285161Y-97394847D01*
X67332780Y-97347228D01*
X67356590Y-97275800D01*
X67356590Y-97228180D01*
X67332780Y-97156752D01*
X67308971Y-97132942D01*
X67142304Y-97132942D01*
X67142304Y-97228180D01*
X67356590Y-96918657D02*
X66856590Y-96918657D01*
X67356590Y-96632942D01*
X66856590Y-96632942D01*
X67356590Y-96394847D02*
X66856590Y-96394847D01*
X66856590Y-96275800D01*
X66880400Y-96204371D01*
X66928019Y-96156752D01*
X66975638Y-96132942D01*
X67070876Y-96109133D01*
X67142304Y-96109133D01*
X67237542Y-96132942D01*
X67285161Y-96156752D01*
X67332780Y-96204371D01*
X67356590Y-96275800D01*
X67356590Y-96394847D01*
X66880400Y-93156752D02*
X66856590Y-93204371D01*
X66856590Y-93275800D01*
X66880400Y-93347228D01*
X66928019Y-93394847D01*
X66975638Y-93418657D01*
X67070876Y-93442466D01*
X67142304Y-93442466D01*
X67237542Y-93418657D01*
X67285161Y-93394847D01*
X67332780Y-93347228D01*
X67356590Y-93275800D01*
X67356590Y-93228180D01*
X67332780Y-93156752D01*
X67308971Y-93132942D01*
X67142304Y-93132942D01*
X67142304Y-93228180D01*
X67356590Y-92918657D02*
X66856590Y-92918657D01*
X67356590Y-92632942D01*
X66856590Y-92632942D01*
X67356590Y-92394847D02*
X66856590Y-92394847D01*
X66856590Y-92275800D01*
X66880400Y-92204371D01*
X66928019Y-92156752D01*
X66975638Y-92132942D01*
X67070876Y-92109133D01*
X67142304Y-92109133D01*
X67237542Y-92132942D01*
X67285161Y-92156752D01*
X67332780Y-92204371D01*
X67356590Y-92275800D01*
X67356590Y-92394847D01*
X67332780Y-99573419D02*
X67356590Y-99501990D01*
X67356590Y-99382942D01*
X67332780Y-99335323D01*
X67308971Y-99311514D01*
X67261352Y-99287704D01*
X67213733Y-99287704D01*
X67166114Y-99311514D01*
X67142304Y-99335323D01*
X67118495Y-99382942D01*
X67094685Y-99478180D01*
X67070876Y-99525800D01*
X67047066Y-99549609D01*
X66999447Y-99573419D01*
X66951828Y-99573419D01*
X66904209Y-99549609D01*
X66880400Y-99525800D01*
X66856590Y-99478180D01*
X66856590Y-99359133D01*
X66880400Y-99287704D01*
X67356590Y-99073419D02*
X66856590Y-99073419D01*
X66856590Y-98954371D01*
X66880400Y-98882942D01*
X66928019Y-98835323D01*
X66975638Y-98811514D01*
X67070876Y-98787704D01*
X67142304Y-98787704D01*
X67237542Y-98811514D01*
X67285161Y-98835323D01*
X67332780Y-98882942D01*
X67356590Y-98954371D01*
X67356590Y-99073419D01*
X67213733Y-98597228D02*
X67213733Y-98359133D01*
X67356590Y-98644847D02*
X66856590Y-98478180D01*
X67356590Y-98311514D01*
X66856590Y-98216276D02*
X66856590Y-97930561D01*
X67356590Y-98073419D02*
X66856590Y-98073419D01*
X67094685Y-95359133D02*
X67118495Y-95287704D01*
X67142304Y-95263895D01*
X67189923Y-95240085D01*
X67261352Y-95240085D01*
X67308971Y-95263895D01*
X67332780Y-95287704D01*
X67356590Y-95335323D01*
X67356590Y-95525800D01*
X66856590Y-95525800D01*
X66856590Y-95359133D01*
X66880400Y-95311514D01*
X66904209Y-95287704D01*
X66951828Y-95263895D01*
X66999447Y-95263895D01*
X67047066Y-95287704D01*
X67070876Y-95311514D01*
X67094685Y-95359133D01*
X67094685Y-95525800D01*
X67356590Y-95025800D02*
X66856590Y-95025800D01*
X67308971Y-94501990D02*
X67332780Y-94525800D01*
X67356590Y-94597228D01*
X67356590Y-94644847D01*
X67332780Y-94716276D01*
X67285161Y-94763895D01*
X67237542Y-94787704D01*
X67142304Y-94811514D01*
X67070876Y-94811514D01*
X66975638Y-94787704D01*
X66928019Y-94763895D01*
X66880400Y-94716276D01*
X66856590Y-94644847D01*
X66856590Y-94597228D01*
X66880400Y-94525800D01*
X66904209Y-94501990D01*
X67356590Y-94287704D02*
X66856590Y-94287704D01*
X67356590Y-94001990D02*
X67070876Y-94216276D01*
X66856590Y-94001990D02*
X67142304Y-94287704D01*
D12*
X82068748Y-116492000D02*
X82591252Y-116492000D01*
X82068748Y-117962000D02*
X82591252Y-117962000D01*
X79230000Y-107672000D02*
X78730000Y-107672000D01*
X78730000Y-93472000D02*
X79230000Y-93472000D01*
X78730000Y-107572000D02*
X79230000Y-107572000D01*
X78730000Y-101472000D02*
X79230000Y-101472000D01*
X80230000Y-110632000D02*
X80230000Y-110022000D01*
X82840000Y-91072000D02*
X82230000Y-91072000D01*
X78730000Y-97472000D02*
X79230000Y-97472000D01*
X79230000Y-97472000D02*
X79230000Y-97672000D01*
X79230000Y-101472000D02*
X79230000Y-101672000D01*
X78730000Y-107472000D02*
X79230000Y-107472000D01*
X79230000Y-93672000D02*
X78730000Y-93672000D01*
X79230000Y-103472000D02*
X79230000Y-103672000D01*
X78730000Y-105472000D02*
X79230000Y-105472000D01*
X78730000Y-91572000D02*
X79230000Y-91572000D01*
X79230000Y-97672000D02*
X78730000Y-97672000D01*
X79230000Y-107472000D02*
X79230000Y-107672000D01*
X78730000Y-101572000D02*
X79230000Y-101572000D01*
X78120000Y-110632000D02*
X82840000Y-110632000D01*
X82840000Y-88512000D02*
X78120000Y-88512000D01*
X78120000Y-88512000D02*
X78120000Y-110632000D01*
X79230000Y-91672000D02*
X78730000Y-91672000D01*
X83140000Y-88212000D02*
X81890000Y-88212000D01*
X81530000Y-88512000D02*
X81530000Y-89122000D01*
X78730000Y-95572000D02*
X79230000Y-95572000D01*
X79230000Y-101672000D02*
X78730000Y-101672000D01*
X79230000Y-105672000D02*
X78730000Y-105672000D01*
X78730000Y-99572000D02*
X79230000Y-99572000D01*
X78730000Y-93572000D02*
X79230000Y-93572000D01*
X78730000Y-105572000D02*
X79230000Y-105572000D01*
X79230000Y-99472000D02*
X79230000Y-99672000D01*
X78730000Y-91472000D02*
X79230000Y-91472000D01*
X79230000Y-105472000D02*
X79230000Y-105672000D01*
X78730000Y-89122000D02*
X78730000Y-110022000D01*
X79230000Y-95472000D02*
X79230000Y-95672000D01*
X79230000Y-91472000D02*
X79230000Y-91672000D01*
X78730000Y-95472000D02*
X79230000Y-95472000D01*
X82230000Y-91072000D02*
X82230000Y-89122000D01*
X79230000Y-103672000D02*
X78730000Y-103672000D01*
X83140000Y-89462000D02*
X83140000Y-88212000D01*
X83040000Y-90272000D02*
X83040000Y-89972000D01*
X80230000Y-88512000D02*
X80230000Y-89122000D01*
X78730000Y-103472000D02*
X79230000Y-103472000D01*
X81530000Y-110632000D02*
X81530000Y-110022000D01*
X78730000Y-110022000D02*
X82230000Y-110022000D01*
X82230000Y-89122000D02*
X78730000Y-89122000D01*
X79230000Y-99672000D02*
X78730000Y-99672000D01*
X79230000Y-93472000D02*
X79230000Y-93672000D01*
X78730000Y-99472000D02*
X79230000Y-99472000D01*
X82940000Y-90272000D02*
X82940000Y-89972000D01*
X82840000Y-110632000D02*
X82840000Y-88512000D01*
X82230000Y-108072000D02*
X82840000Y-108072000D01*
X79230000Y-95672000D02*
X78730000Y-95672000D01*
X78730000Y-103572000D02*
X79230000Y-103572000D01*
X78730000Y-97572000D02*
X79230000Y-97572000D01*
X82840000Y-90272000D02*
X83040000Y-90272000D01*
X82230000Y-110022000D02*
X82230000Y-108072000D01*
X83040000Y-89972000D02*
X82840000Y-89972000D01*
X89452000Y-111023427D02*
X86402000Y-111023427D01*
X89452000Y-111023427D02*
X92502000Y-111023427D01*
X89452000Y-102953427D02*
X92502000Y-102953427D01*
X89452000Y-102953427D02*
X85002000Y-102953427D01*
X61486148Y-85972800D02*
X62008652Y-85972800D01*
X61486148Y-87442800D02*
X62008652Y-87442800D01*
D13*
X95130000Y-87902000D02*
X84030000Y-87902000D01*
X84030000Y-87902000D02*
X84030000Y-99702000D01*
X84030000Y-99702000D02*
X95130000Y-99702000D01*
X95130000Y-99702000D02*
X95130000Y-87902000D01*
D12*
X91984748Y-100405000D02*
X92507252Y-100405000D01*
X91984748Y-101875000D02*
X92507252Y-101875000D01*
X55703400Y-84787000D02*
X55703400Y-116847000D01*
X53583400Y-83787000D02*
X53583400Y-82727000D01*
X53583400Y-84787000D02*
X53583400Y-116847000D01*
X53583400Y-116847000D02*
X55703400Y-116847000D01*
X53583400Y-82727000D02*
X54643400Y-82727000D01*
X53583400Y-84787000D02*
X55703400Y-84787000D01*
X83090000Y-115232000D02*
X81630000Y-115232000D01*
X83090000Y-115232000D02*
X83090000Y-114302000D01*
X83090000Y-112072000D02*
X83090000Y-113002000D01*
X83090000Y-112072000D02*
X79930000Y-112072000D01*
X61470336Y-100005332D02*
X61924464Y-100005332D01*
X61470336Y-98535332D02*
X61924464Y-98535332D01*
X61470336Y-94688666D02*
X61924464Y-94688666D01*
X61470336Y-96158666D02*
X61924464Y-96158666D01*
X86919252Y-101875000D02*
X86396748Y-101875000D01*
X86919252Y-100405000D02*
X86396748Y-100405000D01*
X61470336Y-90842000D02*
X61924464Y-90842000D01*
X61470336Y-92312000D02*
X61924464Y-92312000D01*
X61470336Y-103852000D02*
X61924464Y-103852000D01*
X61470336Y-102382000D02*
X61924464Y-102382000D01*
X81510000Y-81807000D02*
X78850000Y-81807000D01*
X81510000Y-85677000D02*
X81510000Y-87007000D01*
X78850000Y-84407000D02*
X78850000Y-81807000D01*
X81510000Y-87007000D02*
X80180000Y-87007000D01*
X81510000Y-84407000D02*
X81510000Y-81807000D01*
X81510000Y-84407000D02*
X78850000Y-84407000D01*
%LPC*%
G36*
G01*
X80705000Y-117702000D02*
X80705000Y-116752000D01*
G75*
G02*
X80955000Y-116502000I250000J0D01*
G01*
X81630000Y-116502000D01*
G75*
G02*
X81880000Y-116752000I0J-250000D01*
G01*
X81880000Y-117702000D01*
G75*
G02*
X81630000Y-117952000I-250000J0D01*
G01*
X80955000Y-117952000D01*
G75*
G02*
X80705000Y-117702000I0J250000D01*
G01*
G37*
G36*
G01*
X82780000Y-117702000D02*
X82780000Y-116752000D01*
G75*
G02*
X83030000Y-116502000I250000J0D01*
G01*
X83705000Y-116502000D01*
G75*
G02*
X83955000Y-116752000I0J-250000D01*
G01*
X83955000Y-117702000D01*
G75*
G02*
X83705000Y-117952000I-250000J0D01*
G01*
X83030000Y-117952000D01*
G75*
G02*
X82780000Y-117702000I0J250000D01*
G01*
G37*
G36*
G01*
X80405000Y-89972000D02*
X81655000Y-89972000D01*
G75*
G02*
X81905000Y-90222000I0J-250000D01*
G01*
X81905000Y-90922000D01*
G75*
G02*
X81655000Y-91172000I-250000J0D01*
G01*
X80405000Y-91172000D01*
G75*
G02*
X80155000Y-90922000I0J250000D01*
G01*
X80155000Y-90222000D01*
G75*
G02*
X80405000Y-89972000I250000J0D01*
G01*
G37*
D14*
X81030000Y-92572000D03*
X81030000Y-94572000D03*
X81030000Y-96572000D03*
X81030000Y-98572000D03*
X81030000Y-100572000D03*
X81030000Y-102572000D03*
X81030000Y-104572000D03*
X81030000Y-106572000D03*
X81030000Y-108572000D03*
G36*
G01*
X85002000Y-103513427D02*
X85002000Y-103313427D01*
G75*
G02*
X85102000Y-103213427I100000J0D01*
G01*
X86377000Y-103213427D01*
G75*
G02*
X86477000Y-103313427I0J-100000D01*
G01*
X86477000Y-103513427D01*
G75*
G02*
X86377000Y-103613427I-100000J0D01*
G01*
X85102000Y-103613427D01*
G75*
G02*
X85002000Y-103513427I0J100000D01*
G01*
G37*
G36*
G01*
X85002000Y-104163427D02*
X85002000Y-103963427D01*
G75*
G02*
X85102000Y-103863427I100000J0D01*
G01*
X86377000Y-103863427D01*
G75*
G02*
X86477000Y-103963427I0J-100000D01*
G01*
X86477000Y-104163427D01*
G75*
G02*
X86377000Y-104263427I-100000J0D01*
G01*
X85102000Y-104263427D01*
G75*
G02*
X85002000Y-104163427I0J100000D01*
G01*
G37*
G36*
G01*
X85002000Y-104813427D02*
X85002000Y-104613427D01*
G75*
G02*
X85102000Y-104513427I100000J0D01*
G01*
X86377000Y-104513427D01*
G75*
G02*
X86477000Y-104613427I0J-100000D01*
G01*
X86477000Y-104813427D01*
G75*
G02*
X86377000Y-104913427I-100000J0D01*
G01*
X85102000Y-104913427D01*
G75*
G02*
X85002000Y-104813427I0J100000D01*
G01*
G37*
G36*
G01*
X85002000Y-105463427D02*
X85002000Y-105263427D01*
G75*
G02*
X85102000Y-105163427I100000J0D01*
G01*
X86377000Y-105163427D01*
G75*
G02*
X86477000Y-105263427I0J-100000D01*
G01*
X86477000Y-105463427D01*
G75*
G02*
X86377000Y-105563427I-100000J0D01*
G01*
X85102000Y-105563427D01*
G75*
G02*
X85002000Y-105463427I0J100000D01*
G01*
G37*
G36*
G01*
X85002000Y-106113427D02*
X85002000Y-105913427D01*
G75*
G02*
X85102000Y-105813427I100000J0D01*
G01*
X86377000Y-105813427D01*
G75*
G02*
X86477000Y-105913427I0J-100000D01*
G01*
X86477000Y-106113427D01*
G75*
G02*
X86377000Y-106213427I-100000J0D01*
G01*
X85102000Y-106213427D01*
G75*
G02*
X85002000Y-106113427I0J100000D01*
G01*
G37*
G36*
G01*
X85002000Y-106763427D02*
X85002000Y-106563427D01*
G75*
G02*
X85102000Y-106463427I100000J0D01*
G01*
X86377000Y-106463427D01*
G75*
G02*
X86477000Y-106563427I0J-100000D01*
G01*
X86477000Y-106763427D01*
G75*
G02*
X86377000Y-106863427I-100000J0D01*
G01*
X85102000Y-106863427D01*
G75*
G02*
X85002000Y-106763427I0J100000D01*
G01*
G37*
G36*
G01*
X85002000Y-107413427D02*
X85002000Y-107213427D01*
G75*
G02*
X85102000Y-107113427I100000J0D01*
G01*
X86377000Y-107113427D01*
G75*
G02*
X86477000Y-107213427I0J-100000D01*
G01*
X86477000Y-107413427D01*
G75*
G02*
X86377000Y-107513427I-100000J0D01*
G01*
X85102000Y-107513427D01*
G75*
G02*
X85002000Y-107413427I0J100000D01*
G01*
G37*
G36*
G01*
X85002000Y-108063427D02*
X85002000Y-107863427D01*
G75*
G02*
X85102000Y-107763427I100000J0D01*
G01*
X86377000Y-107763427D01*
G75*
G02*
X86477000Y-107863427I0J-100000D01*
G01*
X86477000Y-108063427D01*
G75*
G02*
X86377000Y-108163427I-100000J0D01*
G01*
X85102000Y-108163427D01*
G75*
G02*
X85002000Y-108063427I0J100000D01*
G01*
G37*
G36*
G01*
X85002000Y-108713427D02*
X85002000Y-108513427D01*
G75*
G02*
X85102000Y-108413427I100000J0D01*
G01*
X86377000Y-108413427D01*
G75*
G02*
X86477000Y-108513427I0J-100000D01*
G01*
X86477000Y-108713427D01*
G75*
G02*
X86377000Y-108813427I-100000J0D01*
G01*
X85102000Y-108813427D01*
G75*
G02*
X85002000Y-108713427I0J100000D01*
G01*
G37*
G36*
G01*
X85002000Y-109363427D02*
X85002000Y-109163427D01*
G75*
G02*
X85102000Y-109063427I100000J0D01*
G01*
X86377000Y-109063427D01*
G75*
G02*
X86477000Y-109163427I0J-100000D01*
G01*
X86477000Y-109363427D01*
G75*
G02*
X86377000Y-109463427I-100000J0D01*
G01*
X85102000Y-109463427D01*
G75*
G02*
X85002000Y-109363427I0J100000D01*
G01*
G37*
G36*
G01*
X85002000Y-110013427D02*
X85002000Y-109813427D01*
G75*
G02*
X85102000Y-109713427I100000J0D01*
G01*
X86377000Y-109713427D01*
G75*
G02*
X86477000Y-109813427I0J-100000D01*
G01*
X86477000Y-110013427D01*
G75*
G02*
X86377000Y-110113427I-100000J0D01*
G01*
X85102000Y-110113427D01*
G75*
G02*
X85002000Y-110013427I0J100000D01*
G01*
G37*
G36*
G01*
X85002000Y-110663427D02*
X85002000Y-110463427D01*
G75*
G02*
X85102000Y-110363427I100000J0D01*
G01*
X86377000Y-110363427D01*
G75*
G02*
X86477000Y-110463427I0J-100000D01*
G01*
X86477000Y-110663427D01*
G75*
G02*
X86377000Y-110763427I-100000J0D01*
G01*
X85102000Y-110763427D01*
G75*
G02*
X85002000Y-110663427I0J100000D01*
G01*
G37*
G36*
G01*
X92427000Y-110663427D02*
X92427000Y-110463427D01*
G75*
G02*
X92527000Y-110363427I100000J0D01*
G01*
X93802000Y-110363427D01*
G75*
G02*
X93902000Y-110463427I0J-100000D01*
G01*
X93902000Y-110663427D01*
G75*
G02*
X93802000Y-110763427I-100000J0D01*
G01*
X92527000Y-110763427D01*
G75*
G02*
X92427000Y-110663427I0J100000D01*
G01*
G37*
G36*
G01*
X92427000Y-110013427D02*
X92427000Y-109813427D01*
G75*
G02*
X92527000Y-109713427I100000J0D01*
G01*
X93802000Y-109713427D01*
G75*
G02*
X93902000Y-109813427I0J-100000D01*
G01*
X93902000Y-110013427D01*
G75*
G02*
X93802000Y-110113427I-100000J0D01*
G01*
X92527000Y-110113427D01*
G75*
G02*
X92427000Y-110013427I0J100000D01*
G01*
G37*
G36*
G01*
X92427000Y-109363427D02*
X92427000Y-109163427D01*
G75*
G02*
X92527000Y-109063427I100000J0D01*
G01*
X93802000Y-109063427D01*
G75*
G02*
X93902000Y-109163427I0J-100000D01*
G01*
X93902000Y-109363427D01*
G75*
G02*
X93802000Y-109463427I-100000J0D01*
G01*
X92527000Y-109463427D01*
G75*
G02*
X92427000Y-109363427I0J100000D01*
G01*
G37*
G36*
G01*
X92427000Y-108713427D02*
X92427000Y-108513427D01*
G75*
G02*
X92527000Y-108413427I100000J0D01*
G01*
X93802000Y-108413427D01*
G75*
G02*
X93902000Y-108513427I0J-100000D01*
G01*
X93902000Y-108713427D01*
G75*
G02*
X93802000Y-108813427I-100000J0D01*
G01*
X92527000Y-108813427D01*
G75*
G02*
X92427000Y-108713427I0J100000D01*
G01*
G37*
G36*
G01*
X92427000Y-108063427D02*
X92427000Y-107863427D01*
G75*
G02*
X92527000Y-107763427I100000J0D01*
G01*
X93802000Y-107763427D01*
G75*
G02*
X93902000Y-107863427I0J-100000D01*
G01*
X93902000Y-108063427D01*
G75*
G02*
X93802000Y-108163427I-100000J0D01*
G01*
X92527000Y-108163427D01*
G75*
G02*
X92427000Y-108063427I0J100000D01*
G01*
G37*
G36*
G01*
X92427000Y-107413427D02*
X92427000Y-107213427D01*
G75*
G02*
X92527000Y-107113427I100000J0D01*
G01*
X93802000Y-107113427D01*
G75*
G02*
X93902000Y-107213427I0J-100000D01*
G01*
X93902000Y-107413427D01*
G75*
G02*
X93802000Y-107513427I-100000J0D01*
G01*
X92527000Y-107513427D01*
G75*
G02*
X92427000Y-107413427I0J100000D01*
G01*
G37*
G36*
G01*
X92427000Y-106763427D02*
X92427000Y-106563427D01*
G75*
G02*
X92527000Y-106463427I100000J0D01*
G01*
X93802000Y-106463427D01*
G75*
G02*
X93902000Y-106563427I0J-100000D01*
G01*
X93902000Y-106763427D01*
G75*
G02*
X93802000Y-106863427I-100000J0D01*
G01*
X92527000Y-106863427D01*
G75*
G02*
X92427000Y-106763427I0J100000D01*
G01*
G37*
G36*
G01*
X92427000Y-106113427D02*
X92427000Y-105913427D01*
G75*
G02*
X92527000Y-105813427I100000J0D01*
G01*
X93802000Y-105813427D01*
G75*
G02*
X93902000Y-105913427I0J-100000D01*
G01*
X93902000Y-106113427D01*
G75*
G02*
X93802000Y-106213427I-100000J0D01*
G01*
X92527000Y-106213427D01*
G75*
G02*
X92427000Y-106113427I0J100000D01*
G01*
G37*
G36*
G01*
X92427000Y-105463427D02*
X92427000Y-105263427D01*
G75*
G02*
X92527000Y-105163427I100000J0D01*
G01*
X93802000Y-105163427D01*
G75*
G02*
X93902000Y-105263427I0J-100000D01*
G01*
X93902000Y-105463427D01*
G75*
G02*
X93802000Y-105563427I-100000J0D01*
G01*
X92527000Y-105563427D01*
G75*
G02*
X92427000Y-105463427I0J100000D01*
G01*
G37*
G36*
G01*
X92427000Y-104813427D02*
X92427000Y-104613427D01*
G75*
G02*
X92527000Y-104513427I100000J0D01*
G01*
X93802000Y-104513427D01*
G75*
G02*
X93902000Y-104613427I0J-100000D01*
G01*
X93902000Y-104813427D01*
G75*
G02*
X93802000Y-104913427I-100000J0D01*
G01*
X92527000Y-104913427D01*
G75*
G02*
X92427000Y-104813427I0J100000D01*
G01*
G37*
G36*
G01*
X92427000Y-104163427D02*
X92427000Y-103963427D01*
G75*
G02*
X92527000Y-103863427I100000J0D01*
G01*
X93802000Y-103863427D01*
G75*
G02*
X93902000Y-103963427I0J-100000D01*
G01*
X93902000Y-104163427D01*
G75*
G02*
X93802000Y-104263427I-100000J0D01*
G01*
X92527000Y-104263427D01*
G75*
G02*
X92427000Y-104163427I0J100000D01*
G01*
G37*
G36*
G01*
X92427000Y-103513427D02*
X92427000Y-103313427D01*
G75*
G02*
X92527000Y-103213427I100000J0D01*
G01*
X93802000Y-103213427D01*
G75*
G02*
X93902000Y-103313427I0J-100000D01*
G01*
X93902000Y-103513427D01*
G75*
G02*
X93802000Y-103613427I-100000J0D01*
G01*
X92527000Y-103613427D01*
G75*
G02*
X92427000Y-103513427I0J100000D01*
G01*
G37*
D15*
X91350000Y-83452000D03*
D16*
X91350000Y-83452000D03*
G36*
G01*
X60122400Y-87182800D02*
X60122400Y-86232800D01*
G75*
G02*
X60372400Y-85982800I250000J0D01*
G01*
X61047400Y-85982800D01*
G75*
G02*
X61297400Y-86232800I0J-250000D01*
G01*
X61297400Y-87182800D01*
G75*
G02*
X61047400Y-87432800I-250000J0D01*
G01*
X60372400Y-87432800D01*
G75*
G02*
X60122400Y-87182800I0J250000D01*
G01*
G37*
G36*
G01*
X62197400Y-87182800D02*
X62197400Y-86232800D01*
G75*
G02*
X62447400Y-85982800I250000J0D01*
G01*
X63122400Y-85982800D01*
G75*
G02*
X63372400Y-86232800I0J-250000D01*
G01*
X63372400Y-87182800D01*
G75*
G02*
X63122400Y-87432800I-250000J0D01*
G01*
X62447400Y-87432800D01*
G75*
G02*
X62197400Y-87182800I0J250000D01*
G01*
G37*
D17*
X90430000Y-89992000D03*
X90430000Y-97612000D03*
D18*
X86620000Y-91262000D03*
X86620000Y-93802000D03*
X86620000Y-96342000D03*
G36*
G01*
X90621000Y-101615000D02*
X90621000Y-100665000D01*
G75*
G02*
X90871000Y-100415000I250000J0D01*
G01*
X91546000Y-100415000D01*
G75*
G02*
X91796000Y-100665000I0J-250000D01*
G01*
X91796000Y-101615000D01*
G75*
G02*
X91546000Y-101865000I-250000J0D01*
G01*
X90871000Y-101865000D01*
G75*
G02*
X90621000Y-101615000I0J250000D01*
G01*
G37*
G36*
G01*
X92696000Y-101615000D02*
X92696000Y-100665000D01*
G75*
G02*
X92946000Y-100415000I250000J0D01*
G01*
X93621000Y-100415000D01*
G75*
G02*
X93871000Y-100665000I0J-250000D01*
G01*
X93871000Y-101615000D01*
G75*
G02*
X93621000Y-101865000I-250000J0D01*
G01*
X92946000Y-101865000D01*
G75*
G02*
X92696000Y-101615000I0J250000D01*
G01*
G37*
D19*
X54643400Y-83787000D03*
D20*
X54643400Y-85787000D03*
X54643400Y-87787000D03*
X54643400Y-89787000D03*
X54643400Y-91787000D03*
X54643400Y-93787000D03*
X54643400Y-95787000D03*
X54643400Y-97787000D03*
X54643400Y-99787000D03*
X54643400Y-101787000D03*
X54643400Y-103787000D03*
X54643400Y-105787000D03*
X54643400Y-107787000D03*
X54643400Y-109787000D03*
X54643400Y-111787000D03*
X54643400Y-113787000D03*
X54643400Y-115787000D03*
D21*
X80830000Y-112702000D03*
X80830000Y-114602000D03*
X83830000Y-113652000D03*
G36*
G01*
X60097400Y-99720332D02*
X60097400Y-98820332D01*
G75*
G02*
X60347400Y-98570332I250000J0D01*
G01*
X61047400Y-98570332D01*
G75*
G02*
X61297400Y-98820332I0J-250000D01*
G01*
X61297400Y-99720332D01*
G75*
G02*
X61047400Y-99970332I-250000J0D01*
G01*
X60347400Y-99970332D01*
G75*
G02*
X60097400Y-99720332I0J250000D01*
G01*
G37*
G36*
G01*
X62097400Y-99720332D02*
X62097400Y-98820332D01*
G75*
G02*
X62347400Y-98570332I250000J0D01*
G01*
X63047400Y-98570332D01*
G75*
G02*
X63297400Y-98820332I0J-250000D01*
G01*
X63297400Y-99720332D01*
G75*
G02*
X63047400Y-99970332I-250000J0D01*
G01*
X62347400Y-99970332D01*
G75*
G02*
X62097400Y-99720332I0J250000D01*
G01*
G37*
G36*
G01*
X60097400Y-95873666D02*
X60097400Y-94973666D01*
G75*
G02*
X60347400Y-94723666I250000J0D01*
G01*
X61047400Y-94723666D01*
G75*
G02*
X61297400Y-94973666I0J-250000D01*
G01*
X61297400Y-95873666D01*
G75*
G02*
X61047400Y-96123666I-250000J0D01*
G01*
X60347400Y-96123666D01*
G75*
G02*
X60097400Y-95873666I0J250000D01*
G01*
G37*
G36*
G01*
X62097400Y-95873666D02*
X62097400Y-94973666D01*
G75*
G02*
X62347400Y-94723666I250000J0D01*
G01*
X63047400Y-94723666D01*
G75*
G02*
X63297400Y-94973666I0J-250000D01*
G01*
X63297400Y-95873666D01*
G75*
G02*
X63047400Y-96123666I-250000J0D01*
G01*
X62347400Y-96123666D01*
G75*
G02*
X62097400Y-95873666I0J250000D01*
G01*
G37*
G36*
G01*
X88283000Y-100665000D02*
X88283000Y-101615000D01*
G75*
G02*
X88033000Y-101865000I-250000J0D01*
G01*
X87358000Y-101865000D01*
G75*
G02*
X87108000Y-101615000I0J250000D01*
G01*
X87108000Y-100665000D01*
G75*
G02*
X87358000Y-100415000I250000J0D01*
G01*
X88033000Y-100415000D01*
G75*
G02*
X88283000Y-100665000I0J-250000D01*
G01*
G37*
G36*
G01*
X86208000Y-100665000D02*
X86208000Y-101615000D01*
G75*
G02*
X85958000Y-101865000I-250000J0D01*
G01*
X85283000Y-101865000D01*
G75*
G02*
X85033000Y-101615000I0J250000D01*
G01*
X85033000Y-100665000D01*
G75*
G02*
X85283000Y-100415000I250000J0D01*
G01*
X85958000Y-100415000D01*
G75*
G02*
X86208000Y-100665000I0J-250000D01*
G01*
G37*
G36*
G01*
X60097400Y-92027000D02*
X60097400Y-91127000D01*
G75*
G02*
X60347400Y-90877000I250000J0D01*
G01*
X61047400Y-90877000D01*
G75*
G02*
X61297400Y-91127000I0J-250000D01*
G01*
X61297400Y-92027000D01*
G75*
G02*
X61047400Y-92277000I-250000J0D01*
G01*
X60347400Y-92277000D01*
G75*
G02*
X60097400Y-92027000I0J250000D01*
G01*
G37*
G36*
G01*
X62097400Y-92027000D02*
X62097400Y-91127000D01*
G75*
G02*
X62347400Y-90877000I250000J0D01*
G01*
X63047400Y-90877000D01*
G75*
G02*
X63297400Y-91127000I0J-250000D01*
G01*
X63297400Y-92027000D01*
G75*
G02*
X63047400Y-92277000I-250000J0D01*
G01*
X62347400Y-92277000D01*
G75*
G02*
X62097400Y-92027000I0J250000D01*
G01*
G37*
D15*
X91350000Y-116452000D03*
D16*
X91350000Y-116452000D03*
G36*
G01*
X60097400Y-103567000D02*
X60097400Y-102667000D01*
G75*
G02*
X60347400Y-102417000I250000J0D01*
G01*
X61047400Y-102417000D01*
G75*
G02*
X61297400Y-102667000I0J-250000D01*
G01*
X61297400Y-103567000D01*
G75*
G02*
X61047400Y-103817000I-250000J0D01*
G01*
X60347400Y-103817000D01*
G75*
G02*
X60097400Y-103567000I0J250000D01*
G01*
G37*
G36*
G01*
X62097400Y-103567000D02*
X62097400Y-102667000D01*
G75*
G02*
X62347400Y-102417000I250000J0D01*
G01*
X63047400Y-102417000D01*
G75*
G02*
X63297400Y-102667000I0J-250000D01*
G01*
X63297400Y-103567000D01*
G75*
G02*
X63047400Y-103817000I-250000J0D01*
G01*
X62347400Y-103817000D01*
G75*
G02*
X62097400Y-103567000I0J250000D01*
G01*
G37*
D22*
X80180000Y-85677000D03*
D23*
X80180000Y-83137000D03*
G36*
G01*
X66088400Y-109377000D02*
X64838400Y-109377000D01*
G75*
G02*
X64588400Y-109127000I0J250000D01*
G01*
X64588400Y-108427000D01*
G75*
G02*
X64838400Y-108177000I250000J0D01*
G01*
X66088400Y-108177000D01*
G75*
G02*
X66338400Y-108427000I0J-250000D01*
G01*
X66338400Y-109127000D01*
G75*
G02*
X66088400Y-109377000I-250000J0D01*
G01*
G37*
D14*
X65463400Y-106777000D03*
X65463400Y-104777000D03*
X65463400Y-102777000D03*
X65463400Y-100777000D03*
X65463400Y-98777000D03*
X65463400Y-96777000D03*
X65463400Y-94777000D03*
X65463400Y-92777000D03*
X65463400Y-90777000D03*
G36*
G01*
X56853400Y-83187000D02*
X58153400Y-83187000D01*
G75*
G02*
X58403400Y-83437000I0J-250000D01*
G01*
X58403400Y-84137000D01*
G75*
G02*
X58153400Y-84387000I-250000J0D01*
G01*
X56853400Y-84387000D01*
G75*
G02*
X56603400Y-84137000I0J250000D01*
G01*
X56603400Y-83437000D01*
G75*
G02*
X56853400Y-83187000I250000J0D01*
G01*
G37*
D24*
X57503400Y-85787000D03*
X57503400Y-87787000D03*
X57503400Y-89787000D03*
X57503400Y-91787000D03*
X57503400Y-93787000D03*
X57503400Y-95787000D03*
X57503400Y-97787000D03*
X57503400Y-99787000D03*
X57503400Y-101787000D03*
X57503400Y-103787000D03*
X57503400Y-105787000D03*
X57503400Y-107787000D03*
X57503400Y-109787000D03*
X57503400Y-111787000D03*
X57503400Y-113787000D03*
X57503400Y-115787000D03*
M02*
