G04 #@! TF.GenerationSoftware,KiCad,Pcbnew,(6.0.1)*
G04 #@! TF.CreationDate,2022-07-04T23:37:27-07:00*
G04 #@! TF.ProjectId,mu100-dit,6d753130-302d-4646-9974-2e6b69636164,rev?*
G04 #@! TF.SameCoordinates,Original*
G04 #@! TF.FileFunction,Paste,Bot*
G04 #@! TF.FilePolarity,Positive*
%FSLAX46Y46*%
G04 Gerber Fmt 4.6, Leading zero omitted, Abs format (unit mm)*
G04 Created by KiCad (PCBNEW (6.0.1)) date 2022-07-04 23:37:27*
%MOMM*%
%LPD*%
G01*
G04 APERTURE LIST*
G04 APERTURE END LIST*
G36*
G01*
X85970000Y-87272000D02*
X85970000Y-88172000D01*
G75*
G02*
X85720000Y-88422000I-250000J0D01*
G01*
X85020000Y-88422000D01*
G75*
G02*
X84770000Y-88172000I0J250000D01*
G01*
X84770000Y-87272000D01*
G75*
G02*
X85020000Y-87022000I250000J0D01*
G01*
X85720000Y-87022000D01*
G75*
G02*
X85970000Y-87272000I0J-250000D01*
G01*
G37*
G36*
G01*
X83970000Y-87272000D02*
X83970000Y-88172000D01*
G75*
G02*
X83720000Y-88422000I-250000J0D01*
G01*
X83020000Y-88422000D01*
G75*
G02*
X82770000Y-88172000I0J250000D01*
G01*
X82770000Y-87272000D01*
G75*
G02*
X83020000Y-87022000I250000J0D01*
G01*
X83720000Y-87022000D01*
G75*
G02*
X83970000Y-87272000I0J-250000D01*
G01*
G37*
G36*
G01*
X82720000Y-83052000D02*
X82720000Y-82152000D01*
G75*
G02*
X82970000Y-81902000I250000J0D01*
G01*
X83670000Y-81902000D01*
G75*
G02*
X83920000Y-82152000I0J-250000D01*
G01*
X83920000Y-83052000D01*
G75*
G02*
X83670000Y-83302000I-250000J0D01*
G01*
X82970000Y-83302000D01*
G75*
G02*
X82720000Y-83052000I0J250000D01*
G01*
G37*
G36*
G01*
X84720000Y-83052000D02*
X84720000Y-82152000D01*
G75*
G02*
X84970000Y-81902000I250000J0D01*
G01*
X85670000Y-81902000D01*
G75*
G02*
X85920000Y-82152000I0J-250000D01*
G01*
X85920000Y-83052000D01*
G75*
G02*
X85670000Y-83302000I-250000J0D01*
G01*
X84970000Y-83302000D01*
G75*
G02*
X84720000Y-83052000I0J250000D01*
G01*
G37*
G36*
G01*
X85975000Y-84687000D02*
X85975000Y-85637000D01*
G75*
G02*
X85725000Y-85887000I-250000J0D01*
G01*
X85050000Y-85887000D01*
G75*
G02*
X84800000Y-85637000I0J250000D01*
G01*
X84800000Y-84687000D01*
G75*
G02*
X85050000Y-84437000I250000J0D01*
G01*
X85725000Y-84437000D01*
G75*
G02*
X85975000Y-84687000I0J-250000D01*
G01*
G37*
G36*
G01*
X83900000Y-84687000D02*
X83900000Y-85637000D01*
G75*
G02*
X83650000Y-85887000I-250000J0D01*
G01*
X82975000Y-85887000D01*
G75*
G02*
X82725000Y-85637000I0J250000D01*
G01*
X82725000Y-84687000D01*
G75*
G02*
X82975000Y-84437000I250000J0D01*
G01*
X83650000Y-84437000D01*
G75*
G02*
X83900000Y-84687000I0J-250000D01*
G01*
G37*
M02*
