M48
; DRILL file {KiCad (6.0.1)} date Wed Jul  6 13:38:46 2022
; FORMAT={-:-/ absolute / inch / decimal}
; #@! TF.CreationDate,2022-07-06T13:38:46-07:00
; #@! TF.GenerationSoftware,Kicad,Pcbnew,(6.0.1)
; #@! TF.FileFunction,Plated,1,2,PTH
FMAT,2
INCH
; #@! TA.AperFunction,Plated,PTH,ViaDrill
T1C0.0118
; #@! TA.AperFunction,Plated,PTH,ViaDrill
T2C0.0157
; #@! TA.AperFunction,Plated,PTH,ComponentDrill
T3C0.0295
; #@! TA.AperFunction,Plated,PTH,ComponentDrill
T4C0.0315
; #@! TA.AperFunction,Plated,PTH,ComponentDrill
T5C0.0394
; #@! TA.AperFunction,Plated,PTH,ComponentDrill
T6C0.1260
%
G90
G05
T1
X3.278Y-4.3828
X3.3077Y-4.0999
X3.4597Y-4.2419
X3.4597Y-4.3179
X3.4601Y-4.2816
X3.4602Y-4.2059
X3.5797Y-4.2915
X3.5917Y-4.1569
X3.6157Y-4.0489
X3.6187Y-4.2669
X3.6235Y-4.1236
T2
X3.2618Y-3.7355
X3.2894Y-3.4577
X3.3094Y-3.6434
X3.3453Y-3.8879
X3.4331Y-3.9087
X3.5067Y-3.754
X3.5091Y-3.6497
T3
X3.1902Y-3.5658
X3.1902Y-3.6446
X3.1902Y-3.7233
X3.1902Y-3.802
X3.1902Y-3.8808
X3.1902Y-3.9595
X3.1902Y-4.0383
X3.1902Y-4.117
X3.1902Y-4.1957
X3.1902Y-4.2745
T4
X3.4102Y-3.593
X3.4102Y-3.693
X3.4102Y-3.793
T5
X3.1854Y-3.273
X3.1854Y-3.373
T6
X3.5965Y-3.2855
X3.5965Y-4.5847
T0
M30
