%
M48
METRIC,000.000
T01C0.30
T02C0.40
T03C0.75
T04C0.80
T05C1.00
T06C3.20
%
T01
X005510Y008629
X006266Y015815
X010127Y012207
X010127Y010277
X010135Y011200
X010140Y013122
X013175Y010949
X013480Y014367
X014090Y017110
X014166Y011573
X014287Y015213
T02
X005100Y025070
X006310Y027410
X007220Y021200
X008250Y030320
X009450Y020670
X009910Y032030
X011320Y024600
X011380Y027250
T03
X003280Y029380
X003280Y027380
X003280Y025380
X003280Y023380
X003280Y021380
X003280Y019380
X003280Y017380
X003280Y015379
X003280Y013379
X003280Y011379
T04
X008870Y028689
X008870Y026150
X008870Y023610
T05
X003160Y036817
X003160Y034277
T06
X013600Y036500
X013600Y003500
M30