G04 #@! TF.GenerationSoftware,KiCad,Pcbnew,(6.0.1)*
G04 #@! TF.CreationDate,2022-07-05T00:40:55-07:00*
G04 #@! TF.ProjectId,mu100-dit-connector-board,6d753130-302d-4646-9974-2d636f6e6e65,rev?*
G04 #@! TF.SameCoordinates,PX4a615b8PY2b4db18*
G04 #@! TF.FileFunction,Copper,L2,Bot*
G04 #@! TF.FilePolarity,Positive*
%FSLAX46Y46*%
G04 Gerber Fmt 4.6, Leading zero omitted, Abs format (unit mm)*
G04 Created by KiCad (PCBNEW (6.0.1)) date 2022-07-05 00:40:55*
%MOMM*%
%LPD*%
G01*
G04 APERTURE LIST*
G04 Aperture macros list*
%AMRoundRect*
4,1,4,2,3,4,5,6,7,8,9,2,3,0*
1,1,$1,$2,$3*
1,1,$1,$2,$3*
1,1,$1,$2,$3*
1,1,$1,$2,$3*
20,1,$1,$2,$3,$4,$5,0*
20,1,$1,$2,$3,$4,$5,0*
20,1,$1,$2,$3,$4,$5,0*
20,1,$1,$2,$3,$4,$5,0*%
G04 Aperture macros list end*
G04 #@! TA.AperFunction,ComponentPad*
%AMCOMP27*
4,1,3,
-0.65,0.35,
-0.65,-0.35,
0.65,-0.35,
0.65,0.35,
0*
4,1,19,
-0.65,0.6,
-0.57274575140626316,0.58776412907378839,
-0.50305368692688179,0.55225424859373684,
-0.44774575140626316,0.49694631307311826,
-0.41223587092621161,0.42725424859373684,
-0.4,0.35,
-0.41223587092621161,0.27274575140626311,
-0.44774575140626316,0.20305368692688172,
-0.50305368692688168,0.14774575140626314,
-0.57274575140626316,0.1122358709262116,
-0.65,0.099999999999999978,
-0.727254248593737,0.1122358709262116,
-0.79694631307311825,0.14774575140626309,
-0.85225424859373689,0.20305368692688167,
-0.88776412907378843,0.27274575140626311,
-0.9,0.34999999999999992,
-0.88776412907378843,0.42725424859373679,
-0.85225424859373689,0.49694631307311821,
-0.79694631307311836,0.55225424859373684,
-0.72725424859373689,0.58776412907378839,
0*
4,1,19,
-0.65,-0.099999999999999978,
-0.57274575140626316,-0.1122358709262116,
-0.50305368692688179,-0.14774575140626311,
-0.44774575140626316,-0.20305368692688169,
-0.41223587092621161,-0.27274575140626311,
-0.4,-0.35,
-0.41223587092621161,-0.42725424859373684,
-0.44774575140626316,-0.49694631307311821,
-0.50305368692688168,-0.55225424859373684,
-0.57274575140626316,-0.58776412907378839,
-0.65,-0.6,
-0.727254248593737,-0.58776412907378839,
-0.79694631307311825,-0.55225424859373684,
-0.85225424859373689,-0.49694631307311832,
-0.88776412907378843,-0.42725424859373684,
-0.9,-0.35000000000000003,
-0.88776412907378843,-0.27274575140626317,
-0.85225424859373689,-0.20305368692688175,
-0.79694631307311836,-0.14774575140626314,
-0.72725424859373689,-0.1122358709262116,
0*
4,1,19,
0.65,-0.099999999999999978,
0.72725424859373689,-0.1122358709262116,
0.79694631307311825,-0.14774575140626311,
0.85225424859373689,-0.20305368692688169,
0.88776412907378843,-0.27274575140626311,
0.9,-0.35,
0.88776412907378843,-0.42725424859373684,
0.85225424859373689,-0.49694631307311821,
0.79694631307311836,-0.55225424859373684,
0.72725424859373689,-0.58776412907378839,
0.65,-0.6,
0.572745751406263,-0.58776412907378839,
0.50305368692688179,-0.55225424859373684,
0.44774575140626316,-0.49694631307311832,
0.41223587092621161,-0.42725424859373684,
0.4,-0.35000000000000003,
0.41223587092621161,-0.27274575140626317,
0.44774575140626316,-0.20305368692688175,
0.50305368692688168,-0.14774575140626314,
0.57274575140626316,-0.1122358709262116,
0*
4,1,19,
0.65,0.6,
0.72725424859373689,0.58776412907378839,
0.79694631307311825,0.55225424859373684,
0.85225424859373689,0.49694631307311826,
0.88776412907378843,0.42725424859373684,
0.9,0.35,
0.88776412907378843,0.27274575140626311,
0.85225424859373689,0.20305368692688172,
0.79694631307311836,0.14774575140626314,
0.72725424859373689,0.1122358709262116,
0.65,0.099999999999999978,
0.572745751406263,0.1122358709262116,
0.50305368692688179,0.14774575140626309,
0.44774575140626316,0.20305368692688167,
0.41223587092621161,0.27274575140626311,
0.4,0.34999999999999992,
0.41223587092621161,0.42725424859373679,
0.44774575140626316,0.49694631307311821,
0.50305368692688168,0.55225424859373684,
0.57274575140626316,0.58776412907378839,
0*
4,1,3,
-0.9,0.35,
-0.4,0.35,
-0.4,-0.35,
-0.9,-0.35,
0*
4,1,3,
-0.65,-0.6,
-0.65,-0.099999999999999978,
0.65,-0.099999999999999978,
0.65,-0.6,
0*
4,1,3,
0.9,-0.35,
0.4,-0.35,
0.4,0.35,
0.9,0.35,
0*
4,1,3,
0.65,0.6,
0.65,0.099999999999999978,
-0.65,0.099999999999999978,
-0.65,0.6,
0*%
%ADD10COMP27,0.25X-0.65X0.35X-0.65X-0.35X0.65X-0.35X0.65X0.35X0*%
G04 #@! TD*
G04 #@! TA.AperFunction,ComponentPad*
%ADD11O,1.8X1.2*%
G04 #@! TD*
G04 #@! TA.AperFunction,ComponentPad*
%AMCOMP28*
4,1,3,
0.625,-0.35,
0.625,0.35,
-0.625,0.35,
-0.625,-0.35,
0*
4,1,19,
0.625,-0.099999999999999978,
0.70225424859373686,-0.1122358709262116,
0.77194631307311834,-0.14774575140626311,
0.82725424859373686,-0.20305368692688169,
0.86276412907378841,-0.27274575140626311,
0.875,-0.35,
0.86276412907378841,-0.42725424859373684,
0.82725424859373686,-0.49694631307311821,
0.77194631307311834,-0.55225424859373684,
0.70225424859373686,-0.58776412907378839,
0.625,-0.6,
0.547745751406263,-0.58776412907378839,
0.47805368692688177,-0.55225424859373684,
0.42274575140626314,-0.49694631307311832,
0.38723587092621159,-0.42725424859373684,
0.375,-0.35000000000000003,
0.38723587092621159,-0.27274575140626317,
0.42274575140626314,-0.20305368692688175,
0.47805368692688166,-0.14774575140626314,
0.54774575140626314,-0.1122358709262116,
0*
4,1,19,
0.625,0.6,
0.70225424859373686,0.58776412907378839,
0.77194631307311834,0.55225424859373684,
0.82725424859373686,0.49694631307311826,
0.86276412907378841,0.42725424859373684,
0.875,0.35,
0.86276412907378841,0.27274575140626311,
0.82725424859373686,0.20305368692688172,
0.77194631307311834,0.14774575140626314,
0.70225424859373686,0.1122358709262116,
0.625,0.099999999999999978,
0.547745751406263,0.1122358709262116,
0.47805368692688177,0.14774575140626309,
0.42274575140626314,0.20305368692688167,
0.38723587092621159,0.27274575140626311,
0.375,0.34999999999999992,
0.38723587092621159,0.42725424859373679,
0.42274575140626314,0.49694631307311821,
0.47805368692688166,0.55225424859373684,
0.54774575140626314,0.58776412907378839,
0*
4,1,19,
-0.625,0.6,
-0.54774575140626314,0.58776412907378839,
-0.47805368692688172,0.55225424859373684,
-0.42274575140626314,0.49694631307311826,
-0.38723587092621159,0.42725424859373684,
-0.375,0.35,
-0.38723587092621159,0.27274575140626311,
-0.42274575140626314,0.20305368692688172,
-0.47805368692688166,0.14774575140626314,
-0.54774575140626314,0.1122358709262116,
-0.625,0.099999999999999978,
-0.702254248593737,0.1122358709262116,
-0.77194631307311823,0.14774575140626309,
-0.82725424859373686,0.20305368692688167,
-0.86276412907378841,0.27274575140626311,
-0.875,0.34999999999999992,
-0.86276412907378841,0.42725424859373679,
-0.82725424859373686,0.49694631307311821,
-0.77194631307311834,0.55225424859373684,
-0.70225424859373686,0.58776412907378839,
0*
4,1,19,
-0.625,-0.099999999999999978,
-0.54774575140626314,-0.1122358709262116,
-0.47805368692688172,-0.14774575140626311,
-0.42274575140626314,-0.20305368692688169,
-0.38723587092621159,-0.27274575140626311,
-0.375,-0.35,
-0.38723587092621159,-0.42725424859373684,
-0.42274575140626314,-0.49694631307311821,
-0.47805368692688166,-0.55225424859373684,
-0.54774575140626314,-0.58776412907378839,
-0.625,-0.6,
-0.702254248593737,-0.58776412907378839,
-0.77194631307311823,-0.55225424859373684,
-0.82725424859373686,-0.49694631307311832,
-0.86276412907378841,-0.42725424859373684,
-0.875,-0.35000000000000003,
-0.86276412907378841,-0.27274575140626317,
-0.82725424859373686,-0.20305368692688175,
-0.77194631307311834,-0.14774575140626314,
-0.70225424859373686,-0.1122358709262116,
0*
4,1,3,
0.875,-0.35,
0.375,-0.35,
0.375,0.35,
0.875,0.35,
0*
4,1,3,
0.625,0.6,
0.625,0.099999999999999978,
-0.625,0.099999999999999978,
-0.625,0.6,
0*
4,1,3,
-0.875,0.35,
-0.375,0.35,
-0.375,-0.35,
-0.875,-0.35,
0*
4,1,3,
-0.625,-0.6,
-0.625,-0.099999999999999978,
0.625,-0.099999999999999978,
0.625,-0.6,
0*%
%ADD12COMP28,0.25X0.625X-0.35X0.625X0.35X-0.625X0.35X-0.625X-0.35X0*%
G04 #@! TD*
G04 #@! TA.AperFunction,ComponentPad*
%ADD13O,1.75X1.2*%
G04 #@! TD*
G04 #@! TA.AperFunction,ComponentPad*
%ADD14R,1.35X1.35*%
G04 #@! TD*
G04 #@! TA.AperFunction,ComponentPad*
%ADD15O,1.35X1.35*%
G04 #@! TD*
G04 #@! TA.AperFunction,ViaPad*
%ADD16C,0.8*%
G04 #@! TD*
G04 #@! TA.AperFunction,Conductor*
%ADD17C,0.4*%
G04 #@! TD*
G04 #@! TA.AperFunction,Conductor*
%ADD18C,0.25*%
G04 #@! TD*
G04 APERTURE END LIST*
D10*
X0059000000Y0040000000D02*
X0063855000Y0036165000D03*
D11*
X0063855000Y0034165000D03*
X0063855000Y0032165000D03*
X0063855000Y0030165000D03*
X0063855000Y0028165000D03*
X0063855000Y0026165000D03*
X0063855000Y0024165000D03*
X0063855000Y0022165000D03*
X0063855000Y0020165000D03*
X0063855000Y0018165000D03*
X0063855000Y0016165000D03*
X0063855000Y0014165000D03*
X0063855000Y0012165000D03*
X0063855000Y0010165000D03*
X0063855000Y0008164999D03*
X0063855000Y0006164999D03*
X0063855000Y0004164999D03*
D12*
X0071815000Y0011175000D03*
D13*
X0071815000Y0013175000D03*
X0071815000Y0015175000D03*
X0071815000Y0017175000D03*
X0071815000Y0019175000D03*
X0071815000Y0021175000D03*
X0071815000Y0023175000D03*
X0071815000Y0025175000D03*
X0071815000Y0027175000D03*
X0071815000Y0029175000D03*
D14*
X0060995000Y0036165000D03*
D15*
X0060995000Y0034165000D03*
X0060995000Y0032165000D03*
X0060995000Y0030165000D03*
X0060995000Y0028165000D03*
X0060995000Y0026165000D03*
X0060995000Y0024165000D03*
X0060995000Y0022165000D03*
X0060995000Y0020165000D03*
X0060995000Y0018165000D03*
X0060995000Y0016165000D03*
X0060995000Y0014165000D03*
X0060995000Y0012165000D03*
X0060995000Y0010165000D03*
X0060995000Y0008164999D03*
X0060995000Y0006164999D03*
X0060995000Y0004164999D03*
D16*
X0073095000Y0031685000D03*
X0071065000Y0032475000D03*
X0066035000Y0030605000D03*
X0067395000Y0030115000D03*
X0069075000Y0030055000D03*
X0065763000Y0026335400D03*
X0066220200Y0019096400D03*
D17*
X0064664400Y0034165000D02*
X0066271000Y0032558400D01*
X0063855000Y0032165000D02*
X0064959599Y0033269599D01*
X0063855000Y0034165000D02*
X0064664400Y0034165000D01*
X0065178799Y0033269599D02*
X0067185400Y0031262999D01*
X0073315480Y0029831920D02*
X0073315480Y0013796479D01*
X0071884400Y0031262999D02*
X0073315480Y0029831920D01*
X0064959599Y0033269599D02*
X0065178799Y0033269599D01*
X0072694000Y0013175000D02*
X0071815000Y0013175000D01*
X0067185400Y0031262999D02*
X0071884400Y0031262999D01*
X0073315480Y0013796479D02*
X0072694000Y0013175000D01*
X0066271000Y0032558400D02*
X0064248400Y0032558400D01*
D18*
X0065763000Y0026335400D02*
X0065763000Y0025813000D01*
X0065305800Y0015615800D02*
X0063855000Y0014165000D01*
X0065763000Y0025813000D02*
X0065305800Y0025355800D01*
X0065305800Y0025355800D02*
X0065305800Y0015615800D01*
X0066220200Y0018334400D02*
X0065763000Y0017877200D01*
X0066220200Y0019096400D02*
X0066220200Y0018334400D01*
X0065763000Y0017877200D02*
X0065763000Y0013736999D01*
X0065763000Y0013736999D02*
X0064191000Y0012165000D01*
X0064191000Y0012165000D02*
X0063855000Y0012165000D01*
G04 #@! TA.AperFunction,Conductor*
G36*
X0065325000Y0027675000D02*
G01*
X0063800031Y0027675000D01*
X0063800000Y0027680000D01*
X0060600000Y0027680000D01*
X0060599953Y0027675000D01*
X0060525000Y0027675000D01*
X0060525000Y0030675000D01*
X0065325000Y0030675000D01*
X0065325000Y0027675000D01*
G37*
G04 #@! TD.AperFunction*
G04 #@! TA.AperFunction,Conductor*
G36*
X0066329272Y0031117158D02*
G01*
X0066663950Y0030782480D01*
X0066669804Y0030776215D01*
X0066707839Y0030732615D01*
X0066714053Y0030728248D01*
X0066760119Y0030695872D01*
X0066765413Y0030691938D01*
X0066815681Y0030652524D01*
X0066822598Y0030649400D01*
X0066824884Y0030648017D01*
X0066839564Y0030639643D01*
X0066841925Y0030638378D01*
X0066848139Y0030634010D01*
X0066855217Y0030631250D01*
X0066855220Y0030631249D01*
X0066907675Y0030610798D01*
X0066913743Y0030608247D01*
X0066971973Y0030581955D01*
X0066979440Y0030580571D01*
X0066981995Y0030579770D01*
X0066998248Y0030575141D01*
X0067000828Y0030574478D01*
X0067007909Y0030571718D01*
X0067015440Y0030570726D01*
X0067015442Y0030570726D01*
X0067045061Y0030566827D01*
X0067071260Y0030563378D01*
X0067077759Y0030562348D01*
X0067140586Y0030550704D01*
X0067148166Y0030551141D01*
X0067148167Y0030551141D01*
X0067202792Y0030554291D01*
X0067210046Y0030554500D01*
X0071538740Y0030554500D01*
X0071606861Y0030534498D01*
X0071627835Y0030517595D01*
X0071646835Y0030498595D01*
X0071680861Y0030436283D01*
X0071675796Y0030365468D01*
X0071633249Y0030308632D01*
X0071566729Y0030283821D01*
X0071557740Y0030283500D01*
X0071487154Y0030283500D01*
X0071329433Y0030268452D01*
X0071126466Y0030208908D01*
X0071121139Y0030206164D01*
X0071121138Y0030206164D01*
X0070943751Y0030114804D01*
X0070943748Y0030114801D01*
X0070938420Y0030112057D01*
X0070772080Y0029981396D01*
X0070768148Y0029976865D01*
X0070768145Y0029976862D01*
X0070699366Y0029897601D01*
X0070633448Y0029821637D01*
X0070630448Y0029816451D01*
X0070630445Y0029816447D01*
X0070549616Y0029676728D01*
X0070527526Y0029638545D01*
X0070458139Y0029438729D01*
X0070457278Y0029432794D01*
X0070457278Y0029432792D01*
X0070432898Y0029264643D01*
X0070427787Y0029229396D01*
X0070437567Y0029018101D01*
X0070438971Y0029012276D01*
X0070438971Y0029012275D01*
X0070469067Y0028887397D01*
X0070487125Y0028812466D01*
X0070574674Y0028619913D01*
X0070697054Y0028447389D01*
X0070849850Y0028301119D01*
X0070854881Y0028297870D01*
X0070854888Y0028297865D01*
X0070882607Y0028279967D01*
X0070928984Y0028226211D01*
X0070938937Y0028155915D01*
X0070909304Y0028091397D01*
X0070892091Y0028075030D01*
X0070777143Y0027984738D01*
X0070768494Y0027976501D01*
X0070637788Y0027825877D01*
X0070630853Y0027816153D01*
X0070530990Y0027643532D01*
X0070526016Y0027632669D01*
X0070460593Y0027444273D01*
X0070460352Y0027443284D01*
X0070461820Y0027432992D01*
X0070475385Y0027429000D01*
X0071943000Y0027429000D01*
X0072011121Y0027408998D01*
X0072057614Y0027355342D01*
X0072069000Y0027303000D01*
X0072069000Y0027047000D01*
X0072048998Y0026978879D01*
X0071995342Y0026932386D01*
X0071943000Y0026921000D01*
X0070479598Y0026921000D01*
X0070466067Y0026917026D01*
X0070464712Y0026907601D01*
X0070486194Y0026818463D01*
X0070490083Y0026807168D01*
X0070572629Y0026625618D01*
X0070578576Y0026615276D01*
X0070693968Y0026452603D01*
X0070701761Y0026443575D01*
X0070845831Y0026305658D01*
X0070855200Y0026298259D01*
X0070882577Y0026280582D01*
X0070928955Y0026226827D01*
X0070938909Y0026156532D01*
X0070909278Y0026092015D01*
X0070892063Y0026075644D01*
X0070772080Y0025981396D01*
X0070768148Y0025976865D01*
X0070768145Y0025976862D01*
X0070649554Y0025840198D01*
X0070633448Y0025821637D01*
X0070630448Y0025816451D01*
X0070630445Y0025816447D01*
X0070602561Y0025768247D01*
X0070527526Y0025638545D01*
X0070458139Y0025438729D01*
X0070457278Y0025432794D01*
X0070457278Y0025432792D01*
X0070441907Y0025326777D01*
X0070427787Y0025229396D01*
X0070437567Y0025018101D01*
X0070487125Y0024812466D01*
X0070574674Y0024619913D01*
X0070697054Y0024447389D01*
X0070849850Y0024301119D01*
X0070854881Y0024297870D01*
X0070854888Y0024297865D01*
X0070882607Y0024279967D01*
X0070928984Y0024226211D01*
X0070938937Y0024155915D01*
X0070909304Y0024091397D01*
X0070892091Y0024075030D01*
X0070777143Y0023984738D01*
X0070768494Y0023976501D01*
X0070637788Y0023825877D01*
X0070630853Y0023816153D01*
X0070530990Y0023643533D01*
X0070526016Y0023632669D01*
X0070460593Y0023444273D01*
X0070460352Y0023443284D01*
X0070461820Y0023432992D01*
X0070475385Y0023429000D01*
X0071943000Y0023429000D01*
X0072011121Y0023408998D01*
X0072057614Y0023355342D01*
X0072069000Y0023303000D01*
X0072069000Y0023047000D01*
X0072048998Y0022978879D01*
X0071995342Y0022932386D01*
X0071943000Y0022921000D01*
X0070479598Y0022921000D01*
X0070466067Y0022917027D01*
X0070464712Y0022907601D01*
X0070486194Y0022818463D01*
X0070490083Y0022807168D01*
X0070572629Y0022625618D01*
X0070578576Y0022615276D01*
X0070693968Y0022452603D01*
X0070701761Y0022443575D01*
X0070845831Y0022305658D01*
X0070855200Y0022298259D01*
X0070882577Y0022280582D01*
X0070928955Y0022226828D01*
X0070938909Y0022156532D01*
X0070909278Y0022092015D01*
X0070892063Y0022075644D01*
X0070772080Y0021981396D01*
X0070768148Y0021976865D01*
X0070768145Y0021976862D01*
X0070649554Y0021840198D01*
X0070633448Y0021821637D01*
X0070630448Y0021816451D01*
X0070630445Y0021816447D01*
X0070602561Y0021768247D01*
X0070527526Y0021638546D01*
X0070458139Y0021438729D01*
X0070427787Y0021229396D01*
X0070437567Y0021018101D01*
X0070487125Y0020812466D01*
X0070574674Y0020619913D01*
X0070697054Y0020447389D01*
X0070849850Y0020301119D01*
X0070854881Y0020297870D01*
X0070854888Y0020297865D01*
X0070882607Y0020279967D01*
X0070928984Y0020226211D01*
X0070938937Y0020155915D01*
X0070909304Y0020091398D01*
X0070892091Y0020075030D01*
X0070777143Y0019984738D01*
X0070768494Y0019976501D01*
X0070637788Y0019825877D01*
X0070630853Y0019816153D01*
X0070530990Y0019643533D01*
X0070526016Y0019632669D01*
X0070460593Y0019444273D01*
X0070460352Y0019443284D01*
X0070461820Y0019432992D01*
X0070475385Y0019429000D01*
X0071943000Y0019429000D01*
X0072011121Y0019408998D01*
X0072057614Y0019355342D01*
X0072069000Y0019303000D01*
X0072069000Y0019047000D01*
X0072048998Y0018978879D01*
X0071995342Y0018932386D01*
X0071943000Y0018921000D01*
X0070479598Y0018921000D01*
X0070466067Y0018917027D01*
X0070464712Y0018907601D01*
X0070486194Y0018818463D01*
X0070490083Y0018807168D01*
X0070572629Y0018625618D01*
X0070578576Y0018615276D01*
X0070693968Y0018452603D01*
X0070701761Y0018443575D01*
X0070845831Y0018305658D01*
X0070855200Y0018298259D01*
X0070882577Y0018280582D01*
X0070928955Y0018226828D01*
X0070938909Y0018156532D01*
X0070909278Y0018092015D01*
X0070892063Y0018075644D01*
X0070772080Y0017981396D01*
X0070768148Y0017976865D01*
X0070768145Y0017976862D01*
X0070716853Y0017917753D01*
X0070633448Y0017821637D01*
X0070630448Y0017816451D01*
X0070630445Y0017816447D01*
X0070602561Y0017768247D01*
X0070527526Y0017638546D01*
X0070458139Y0017438729D01*
X0070427787Y0017229396D01*
X0070437567Y0017018101D01*
X0070487125Y0016812466D01*
X0070574674Y0016619913D01*
X0070697054Y0016447389D01*
X0070849850Y0016301119D01*
X0070854881Y0016297870D01*
X0070854888Y0016297865D01*
X0070882607Y0016279967D01*
X0070928984Y0016226211D01*
X0070938937Y0016155915D01*
X0070909304Y0016091398D01*
X0070892091Y0016075030D01*
X0070777143Y0015984738D01*
X0070768494Y0015976500D01*
X0070637788Y0015825876D01*
X0070630853Y0015816153D01*
X0070530990Y0015643533D01*
X0070526016Y0015632669D01*
X0070460593Y0015444272D01*
X0070460352Y0015443283D01*
X0070461820Y0015432991D01*
X0070475385Y0015428999D01*
X0071943000Y0015428999D01*
X0072011121Y0015408998D01*
X0072057614Y0015355342D01*
X0072069000Y0015303000D01*
X0072069000Y0015047000D01*
X0072048998Y0014978879D01*
X0071995342Y0014932386D01*
X0071943000Y0014921000D01*
X0070479598Y0014921000D01*
X0070466067Y0014917027D01*
X0070464712Y0014907601D01*
X0070486194Y0014818463D01*
X0070490083Y0014807168D01*
X0070572629Y0014625618D01*
X0070578576Y0014615276D01*
X0070693968Y0014452603D01*
X0070701761Y0014443575D01*
X0070845831Y0014305658D01*
X0070855200Y0014298259D01*
X0070882577Y0014280581D01*
X0070928955Y0014226828D01*
X0070938909Y0014156531D01*
X0070909278Y0014092015D01*
X0070892063Y0014075644D01*
X0070772080Y0013981396D01*
X0070768148Y0013976865D01*
X0070768145Y0013976862D01*
X0070649554Y0013840198D01*
X0070633448Y0013821636D01*
X0070630448Y0013816451D01*
X0070630445Y0013816447D01*
X0070549903Y0013677223D01*
X0070527526Y0013638546D01*
X0070458139Y0013438728D01*
X0070457278Y0013432794D01*
X0070457278Y0013432792D01*
X0070429266Y0013239593D01*
X0070427787Y0013229396D01*
X0070437567Y0013018101D01*
X0070438971Y0013012276D01*
X0070438971Y0013012274D01*
X0070475695Y0012859895D01*
X0070487125Y0012812466D01*
X0070574674Y0012619913D01*
X0070697054Y0012447389D01*
X0070701381Y0012443247D01*
X0070701386Y0012443241D01*
X0070792317Y0012356193D01*
X0070827694Y0012294639D01*
X0070824175Y0012223730D01*
X0070782879Y0012165979D01*
X0070771496Y0012158035D01*
X0070715652Y0012123477D01*
X0070590695Y0011998303D01*
X0070497885Y0011847738D01*
X0070495581Y0011840791D01*
X0070447642Y0011696258D01*
X0070442203Y0011679860D01*
X0070431500Y0011575399D01*
X0070431500Y0010774600D01*
X0070442474Y0010668834D01*
X0070498450Y0010501054D01*
X0070591522Y0010350652D01*
X0070716697Y0010225695D01*
X0070722927Y0010221855D01*
X0070722928Y0010221854D01*
X0070860090Y0010137305D01*
X0070867262Y0010132885D01*
X0070916357Y0010116601D01*
X0071028611Y0010079367D01*
X0071028613Y0010079367D01*
X0071035139Y0010077203D01*
X0071041975Y0010076502D01*
X0071041978Y0010076502D01*
X0071085031Y0010072091D01*
X0071139600Y0010066500D01*
X0072490400Y0010066500D01*
X0072493646Y0010066837D01*
X0072493650Y0010066837D01*
X0072589308Y0010076761D01*
X0072589312Y0010076763D01*
X0072596166Y0010077473D01*
X0072602702Y0010079654D01*
X0072602704Y0010079654D01*
X0072734806Y0010123728D01*
X0072763946Y0010133450D01*
X0072914348Y0010226522D01*
X0073039305Y0010351697D01*
X0073076549Y0010412118D01*
X0073128275Y0010496032D01*
X0073128276Y0010496034D01*
X0073132115Y0010502262D01*
X0073187797Y0010670138D01*
X0073198500Y0010774600D01*
X0073198500Y0011575399D01*
X0073187526Y0011681166D01*
X0073180758Y0011701453D01*
X0073133868Y0011841998D01*
X0073131550Y0011848946D01*
X0073038478Y0011999348D01*
X0072913303Y0012124305D01*
X0072861764Y0012156075D01*
X0072814271Y0012208846D01*
X0072802847Y0012278918D01*
X0072831121Y0012344042D01*
X0072850045Y0012362418D01*
X0072857920Y0012368604D01*
X0072981688Y0012511234D01*
X0073018150Y0012540054D01*
X0073024656Y0012542513D01*
X0073030917Y0012546814D01*
X0073033286Y0012548054D01*
X0073048097Y0012556299D01*
X0073050351Y0012557632D01*
X0073057305Y0012560685D01*
X0073108002Y0012599587D01*
X0073113332Y0012603459D01*
X0073159720Y0012635338D01*
X0073159725Y0012635344D01*
X0073165981Y0012639643D01*
X0073207427Y0012686160D01*
X0073212408Y0012691437D01*
X0073351905Y0012830934D01*
X0073414217Y0012864960D01*
X0073485032Y0012859895D01*
X0073541868Y0012817348D01*
X0073566679Y0012750827D01*
X0073567000Y0012741838D01*
X0073567000Y0000634000D01*
X0073546998Y0000565879D01*
X0073493342Y0000519385D01*
X0073441000Y0000508000D01*
X0059634000Y0000508000D01*
X0059565879Y0000528002D01*
X0059519386Y0000581657D01*
X0059508000Y0000634000D01*
X0059508000Y0002539600D01*
X0059528002Y0002607720D01*
X0059581658Y0002654214D01*
X0059634000Y0002665599D01*
X0066238400Y0002665599D01*
X0066238400Y0007774999D01*
X0065364138Y0007774999D01*
X0065296018Y0007795001D01*
X0065249525Y0007848658D01*
X0065239442Y0007919080D01*
X0065266352Y0008104664D01*
X0065266352Y0008104666D01*
X0065267213Y0008110603D01*
X0065257433Y0008321898D01*
X0065207875Y0008527534D01*
X0065168412Y0008614329D01*
X0065122806Y0008714632D01*
X0065120326Y0008720087D01*
X0064997946Y0008892610D01*
X0064845150Y0009038881D01*
X0064839254Y0009042687D01*
X0064812837Y0009059746D01*
X0064766459Y0009113501D01*
X0064756507Y0009183796D01*
X0064786139Y0009248314D01*
X0064803353Y0009264683D01*
X0064918201Y0009354897D01*
X0064922920Y0009358604D01*
X0064926852Y0009363135D01*
X0064926855Y0009363138D01*
X0065057621Y0009513833D01*
X0065061552Y0009518363D01*
X0065064552Y0009523549D01*
X0065064555Y0009523553D01*
X0065164467Y0009696258D01*
X0065167473Y0009701453D01*
X0065236861Y0009901271D01*
X0065260867Y0010066837D01*
X0065266352Y0010104664D01*
X0065266352Y0010104667D01*
X0065267213Y0010110603D01*
X0065257433Y0010321898D01*
X0065212582Y0010508002D01*
X0065209281Y0010521701D01*
X0065209280Y0010521702D01*
X0065207875Y0010527534D01*
X0065168412Y0010614329D01*
X0065140511Y0010675692D01*
X0065120326Y0010720087D01*
X0064997946Y0010892610D01*
X0064845150Y0011038881D01*
X0064839254Y0011042687D01*
X0064812837Y0011059746D01*
X0064766459Y0011113501D01*
X0064756507Y0011183796D01*
X0064786139Y0011248314D01*
X0064803353Y0011264683D01*
X0064918201Y0011354897D01*
X0064922920Y0011358604D01*
X0064926852Y0011363135D01*
X0064926855Y0011363138D01*
X0065057621Y0011513833D01*
X0065061552Y0011518363D01*
X0065064552Y0011523549D01*
X0065064555Y0011523553D01*
X0065164467Y0011696258D01*
X0065167473Y0011701453D01*
X0065236861Y0011901271D01*
X0065267213Y0012110603D01*
X0065261140Y0012241796D01*
X0065259403Y0012279347D01*
X0065276234Y0012348320D01*
X0065296172Y0012374269D01*
X0066155258Y0013233353D01*
X0066163537Y0013240887D01*
X0066170018Y0013245000D01*
X0066216644Y0013294652D01*
X0066219398Y0013297493D01*
X0066239135Y0013317229D01*
X0066241614Y0013320426D01*
X0066249320Y0013329449D01*
X0066274159Y0013355899D01*
X0066279585Y0013361678D01*
X0066283405Y0013368625D01*
X0066283407Y0013368628D01*
X0066289348Y0013379434D01*
X0066300199Y0013395952D01*
X0066307758Y0013405698D01*
X0066312614Y0013411959D01*
X0066315759Y0013419228D01*
X0066315762Y0013419232D01*
X0066330174Y0013452537D01*
X0066335391Y0013463187D01*
X0066356695Y0013501940D01*
X0066361733Y0013521563D01*
X0066368137Y0013540265D01*
X0066373033Y0013551580D01*
X0066373033Y0013551580D01*
X0066376181Y0013558855D01*
X0066377420Y0013566678D01*
X0066377422Y0013566688D01*
X0066383099Y0013602523D01*
X0066385504Y0013614144D01*
X0066394527Y0013649289D01*
X0066394527Y0013649290D01*
X0066396500Y0013656970D01*
X0066396500Y0013677223D01*
X0066398050Y0013696935D01*
X0066399980Y0013709114D01*
X0066401219Y0013716943D01*
X0066397059Y0013760962D01*
X0066396500Y0013772818D01*
X0066396500Y0017562606D01*
X0066416501Y0017630727D01*
X0066433404Y0017651701D01*
X0066612447Y0017830743D01*
X0066620737Y0017838287D01*
X0066627218Y0017842400D01*
X0066673858Y0017892068D01*
X0066676613Y0017894909D01*
X0066696334Y0017914630D01*
X0066698812Y0017917825D01*
X0066706518Y0017926847D01*
X0066731358Y0017953299D01*
X0066736785Y0017959079D01*
X0066746545Y0017976832D01*
X0066757399Y0017993355D01*
X0066764953Y0018003094D01*
X0066769813Y0018009359D01*
X0066787375Y0018049943D01*
X0066792582Y0018060573D01*
X0066813895Y0018099340D01*
X0066815866Y0018107017D01*
X0066815867Y0018107022D01*
X0066818932Y0018118958D01*
X0066825338Y0018137670D01*
X0066830234Y0018148983D01*
X0066833381Y0018156255D01*
X0066840296Y0018199919D01*
X0066842704Y0018211540D01*
X0066851727Y0018246689D01*
X0066851727Y0018246690D01*
X0066853700Y0018254370D01*
X0066853700Y0018274631D01*
X0066855250Y0018294342D01*
X0066855872Y0018298259D01*
X0066858419Y0018314343D01*
X0066854259Y0018358354D01*
X0066853700Y0018370211D01*
X0066853700Y0018393876D01*
X0066873701Y0018461997D01*
X0066886058Y0018478179D01*
X0066959239Y0018559456D01*
X0067054727Y0018724844D01*
X0067113742Y0018906472D01*
X0067114852Y0018917027D01*
X0067133014Y0019089835D01*
X0067133704Y0019096400D01*
X0067124441Y0019184535D01*
X0067114432Y0019279765D01*
X0067114432Y0019279767D01*
X0067113742Y0019286328D01*
X0067054727Y0019467956D01*
X0066959239Y0019633344D01*
X0066831452Y0019775266D01*
X0066676952Y0019887518D01*
X0066670924Y0019890202D01*
X0066670922Y0019890203D01*
X0066508519Y0019962509D01*
X0066508517Y0019962509D01*
X0066502488Y0019965194D01*
X0066409087Y0019985047D01*
X0066322143Y0020003528D01*
X0066322138Y0020003528D01*
X0066315687Y0020004900D01*
X0066124713Y0020004900D01*
X0066114464Y0020002722D01*
X0066091496Y0019997840D01*
X0066020705Y0020003243D01*
X0065964073Y0020046060D01*
X0065939580Y0020112698D01*
X0065939300Y0020121087D01*
X0065939300Y0025041206D01*
X0065959301Y0025109327D01*
X0065976204Y0025130301D01*
X0066155247Y0025309343D01*
X0066163537Y0025316887D01*
X0066170018Y0025320999D01*
X0066216658Y0025370668D01*
X0066219413Y0025373509D01*
X0066239134Y0025393230D01*
X0066241612Y0025396425D01*
X0066249318Y0025405447D01*
X0066274158Y0025431899D01*
X0066279585Y0025437679D01*
X0066289345Y0025455432D01*
X0066300199Y0025471955D01*
X0066307753Y0025481693D01*
X0066312613Y0025487959D01*
X0066330175Y0025528543D01*
X0066335383Y0025539172D01*
X0066356695Y0025577939D01*
X0066358666Y0025585617D01*
X0066358667Y0025585622D01*
X0066361732Y0025597558D01*
X0066368138Y0025616270D01*
X0066373033Y0025627581D01*
X0066376181Y0025634855D01*
X0066377202Y0025641301D01*
X0066404180Y0025689771D01*
X0066497617Y0025793543D01*
X0066497620Y0025793547D01*
X0066502039Y0025798456D01*
X0066597527Y0025963844D01*
X0066656542Y0026145471D01*
X0066657704Y0026156532D01*
X0066675814Y0026328834D01*
X0066676503Y0026335400D01*
X0066668441Y0026412118D01*
X0066657231Y0026518765D01*
X0066657231Y0026518767D01*
X0066656542Y0026525328D01*
X0066597527Y0026706956D01*
X0066502039Y0026872344D01*
X0066470294Y0026907601D01*
X0066378675Y0027009355D01*
X0066378674Y0027009356D01*
X0066374252Y0027014266D01*
X0066219752Y0027126518D01*
X0066213724Y0027129202D01*
X0066213722Y0027129203D01*
X0066051319Y0027201509D01*
X0066051317Y0027201509D01*
X0066045288Y0027204194D01*
X0065951887Y0027224047D01*
X0065864943Y0027242528D01*
X0065864938Y0027242528D01*
X0065858487Y0027243900D01*
X0065667513Y0027243900D01*
X0065661061Y0027242528D01*
X0065661056Y0027242528D01*
X0065574113Y0027224047D01*
X0065480712Y0027204194D01*
X0065474682Y0027201509D01*
X0065474681Y0027201509D01*
X0065312278Y0027129203D01*
X0065312276Y0027129202D01*
X0065306248Y0027126518D01*
X0065151747Y0027014266D01*
X0065119885Y0026978879D01*
X0065108644Y0026966395D01*
X0065048198Y0026929155D01*
X0064977215Y0026930507D01*
X0064927876Y0026959687D01*
X0064849480Y0027034736D01*
X0064845150Y0027038881D01*
X0064840119Y0027042130D01*
X0064840112Y0027042135D01*
X0064812393Y0027060033D01*
X0064766015Y0027113789D01*
X0064756063Y0027184085D01*
X0064785696Y0027248602D01*
X0064802909Y0027264970D01*
X0064917857Y0027355262D01*
X0064926506Y0027363498D01*
X0065057211Y0027514122D01*
X0065064147Y0027523847D01*
X0065164010Y0027696467D01*
X0065168983Y0027707331D01*
X0065234407Y0027895727D01*
X0065234647Y0027896715D01*
X0065233180Y0027907007D01*
X0065219615Y0027911000D01*
X0062494598Y0027911000D01*
X0062481067Y0027907027D01*
X0062479712Y0027897601D01*
X0062494673Y0027835520D01*
X0062491188Y0027764609D01*
X0062449918Y0027706839D01*
X0062383967Y0027680553D01*
X0062372180Y0027680000D01*
X0062255587Y0027680000D01*
X0062187466Y0027700001D01*
X0062140973Y0027753658D01*
X0062130869Y0027823932D01*
X0062136274Y0027846501D01*
X0062148385Y0027882179D01*
X0062151017Y0027893143D01*
X0062149040Y0027907007D01*
X0062135474Y0027911000D01*
X0059856981Y0027911000D01*
X0059843450Y0027907027D01*
X0059842158Y0027898038D01*
X0059873656Y0027774015D01*
X0059877497Y0027763168D01*
X0059963685Y0027576211D01*
X0059969436Y0027566250D01*
X0060088254Y0027398127D01*
X0060095725Y0027389379D01*
X0060235118Y0027253588D01*
X0060269956Y0027191727D01*
X0060265819Y0027120852D01*
X0060230274Y0027068604D01*
X0060132842Y0026983158D01*
X0059998181Y0026812342D01*
X0059896905Y0026619846D01*
X0059895192Y0026614328D01*
X0059842171Y0026443575D01*
X0059832403Y0026412118D01*
X0059806837Y0026196113D01*
X0059821063Y0025979067D01*
X0059822484Y0025973471D01*
X0059822485Y0025973466D01*
X0059873184Y0025773842D01*
X0059874605Y0025768247D01*
X0059965668Y0025570715D01*
X0059969001Y0025565998D01*
X0060063774Y0025431899D01*
X0060091204Y0025393086D01*
X0060095346Y0025389051D01*
X0060234741Y0025253259D01*
X0060269579Y0025191398D01*
X0060265442Y0025120522D01*
X0060229899Y0025068274D01*
X0060132842Y0024983158D01*
X0059998181Y0024812342D01*
X0059896905Y0024619846D01*
X0059832403Y0024412118D01*
X0059806837Y0024196113D01*
X0059821063Y0023979067D01*
X0059874605Y0023768247D01*
X0059965668Y0023570715D01*
X0059969001Y0023565999D01*
X0060055029Y0023444273D01*
X0060091204Y0023393086D01*
X0060095346Y0023389051D01*
X0060234741Y0023253259D01*
X0060269579Y0023191398D01*
X0060265442Y0023120522D01*
X0060229899Y0023068274D01*
X0060132842Y0022983158D01*
X0059998181Y0022812342D01*
X0059896905Y0022619846D01*
X0059895192Y0022614329D01*
X0059842171Y0022443575D01*
X0059832403Y0022412118D01*
X0059806837Y0022196113D01*
X0059821063Y0021979067D01*
X0059822484Y0021973471D01*
X0059822485Y0021973466D01*
X0059862364Y0021816447D01*
X0059874605Y0021768247D01*
X0059965668Y0021570715D01*
X0059969001Y0021565999D01*
X0060063143Y0021432792D01*
X0060091204Y0021393086D01*
X0060095346Y0021389051D01*
X0060234741Y0021253259D01*
X0060269579Y0021191398D01*
X0060265442Y0021120522D01*
X0060229899Y0021068274D01*
X0060132842Y0020983158D01*
X0059998181Y0020812342D01*
X0059896905Y0020619846D01*
X0059832403Y0020412118D01*
X0059806837Y0020196113D01*
X0059821063Y0019979067D01*
X0059822484Y0019973471D01*
X0059822485Y0019973466D01*
X0059845299Y0019883637D01*
X0059874605Y0019768247D01*
X0059965668Y0019570715D01*
X0059969001Y0019565999D01*
X0060055029Y0019444273D01*
X0060091204Y0019393086D01*
X0060095346Y0019389051D01*
X0060234741Y0019253259D01*
X0060269579Y0019191398D01*
X0060265442Y0019120522D01*
X0060229899Y0019068274D01*
X0060132842Y0018983158D01*
X0059998181Y0018812342D01*
X0059896905Y0018619846D01*
X0059895192Y0018614329D01*
X0059842171Y0018443575D01*
X0059832403Y0018412118D01*
X0059806837Y0018196113D01*
X0059821063Y0017979067D01*
X0059822484Y0017973471D01*
X0059822485Y0017973466D01*
X0059862364Y0017816447D01*
X0059874605Y0017768247D01*
X0059965668Y0017570715D01*
X0059969001Y0017565999D01*
X0060063143Y0017432792D01*
X0060091204Y0017393086D01*
X0060095346Y0017389051D01*
X0060234741Y0017253259D01*
X0060269579Y0017191398D01*
X0060265442Y0017120522D01*
X0060229899Y0017068274D01*
X0060132842Y0016983158D01*
X0059998181Y0016812342D01*
X0059896905Y0016619845D01*
X0059832403Y0016412118D01*
X0059806837Y0016196113D01*
X0059821063Y0015979067D01*
X0059874605Y0015768246D01*
X0059965668Y0015570715D01*
X0059969001Y0015565999D01*
X0060055029Y0015444272D01*
X0060091204Y0015393086D01*
X0060095346Y0015389050D01*
X0060234741Y0015253259D01*
X0060269579Y0015191398D01*
X0060265442Y0015120522D01*
X0060229899Y0015068273D01*
X0060132842Y0014983158D01*
X0059998181Y0014812342D01*
X0059896905Y0014619845D01*
X0059895192Y0014614329D01*
X0059842171Y0014443575D01*
X0059832403Y0014412118D01*
X0059806837Y0014196113D01*
X0059821063Y0013979067D01*
X0059822484Y0013973471D01*
X0059822485Y0013973465D01*
X0059862364Y0013816447D01*
X0059874605Y0013768246D01*
X0059877022Y0013763003D01*
X0059907480Y0013696935D01*
X0059965668Y0013570715D01*
X0059969001Y0013565999D01*
X0060063143Y0013432792D01*
X0060091204Y0013393086D01*
X0060095346Y0013389050D01*
X0060234741Y0013253259D01*
X0060269579Y0013191398D01*
X0060265442Y0013120522D01*
X0060229899Y0013068273D01*
X0060132842Y0012983158D01*
X0059998181Y0012812342D01*
X0059896905Y0012619845D01*
X0059832403Y0012412118D01*
X0059806837Y0012196113D01*
X0059821063Y0011979067D01*
X0059822484Y0011973471D01*
X0059822485Y0011973465D01*
X0059855874Y0011841998D01*
X0059874605Y0011768246D01*
X0059965668Y0011570715D01*
X0060091204Y0011393086D01*
X0060095346Y0011389050D01*
X0060234741Y0011253259D01*
X0060269579Y0011191398D01*
X0060265442Y0011120522D01*
X0060229899Y0011068273D01*
X0060132842Y0010983158D01*
X0060129270Y0010978627D01*
X0060064726Y0010896753D01*
X0059998181Y0010812342D01*
X0059896905Y0010619845D01*
X0059832403Y0010412118D01*
X0059806837Y0010196113D01*
X0059821063Y0009979067D01*
X0059874605Y0009768246D01*
X0059965668Y0009570715D01*
X0060091204Y0009393086D01*
X0060095346Y0009389050D01*
X0060234741Y0009253259D01*
X0060269579Y0009191398D01*
X0060265442Y0009120522D01*
X0060229899Y0009068273D01*
X0060132842Y0008983158D01*
X0060129270Y0008978627D01*
X0060064726Y0008896753D01*
X0059998181Y0008812342D01*
X0059896905Y0008619845D01*
X0059832403Y0008412118D01*
X0059806837Y0008196113D01*
X0059821063Y0007979067D01*
X0059833013Y0007932015D01*
X0059830395Y0007861068D01*
X0059789835Y0007802798D01*
X0059724211Y0007775706D01*
X0059710890Y0007774999D01*
X0059634000Y0007774999D01*
X0059565879Y0007795001D01*
X0059519386Y0007848658D01*
X0059508000Y0007901000D01*
X0059508000Y0028422201D01*
X0059840218Y0028422201D01*
X0059846950Y0028419000D01*
X0060722885Y0028419000D01*
X0060738124Y0028423475D01*
X0060739329Y0028424865D01*
X0060741000Y0028432548D01*
X0060741000Y0028437115D01*
X0061249000Y0028437115D01*
X0061253475Y0028421875D01*
X0061254865Y0028420671D01*
X0061262548Y0028419000D01*
X0062134485Y0028419000D01*
X0062148016Y0028422973D01*
X0062149185Y0028431108D01*
X0062148571Y0028433284D01*
X0062475352Y0028433284D01*
X0062476820Y0028422992D01*
X0062490385Y0028419000D01*
X0063582885Y0028419000D01*
X0063598124Y0028423475D01*
X0063599329Y0028424865D01*
X0063601000Y0028432548D01*
X0063601000Y0028437115D01*
X0064108999Y0028437115D01*
X0064113474Y0028421875D01*
X0064114864Y0028420671D01*
X0064122547Y0028419000D01*
X0065215402Y0028419000D01*
X0065228933Y0028422973D01*
X0065230288Y0028432399D01*
X0065208805Y0028521537D01*
X0065204916Y0028532832D01*
X0065122371Y0028714382D01*
X0065116423Y0028724724D01*
X0065001031Y0028887397D01*
X0064993239Y0028896425D01*
X0064849169Y0029034342D01*
X0064839799Y0029041742D01*
X0064811978Y0029059705D01*
X0064765601Y0029113460D01*
X0064755646Y0029183756D01*
X0064785278Y0029248272D01*
X0064802493Y0029264643D01*
X0064917857Y0029355262D01*
X0064926506Y0029363498D01*
X0065057211Y0029514122D01*
X0065064147Y0029523847D01*
X0065164010Y0029696467D01*
X0065168983Y0029707331D01*
X0065234407Y0029895727D01*
X0065234647Y0029896715D01*
X0065233180Y0029907007D01*
X0065219615Y0029911000D01*
X0064127115Y0029911000D01*
X0064111875Y0029906525D01*
X0064110671Y0029905135D01*
X0064108999Y0029897452D01*
X0064108999Y0028437115D01*
X0063601000Y0028437115D01*
X0063601000Y0029892885D01*
X0063596525Y0029908124D01*
X0063595135Y0029909329D01*
X0063587452Y0029911000D01*
X0062494598Y0029911000D01*
X0062481067Y0029907027D01*
X0062479712Y0029897601D01*
X0062501194Y0029808463D01*
X0062505083Y0029797168D01*
X0062587629Y0029615617D01*
X0062593576Y0029605276D01*
X0062708968Y0029442603D01*
X0062716761Y0029433574D01*
X0062860831Y0029295658D01*
X0062870201Y0029288258D01*
X0062898021Y0029270295D01*
X0062944399Y0029216540D01*
X0062954353Y0029146244D01*
X0062924722Y0029081727D01*
X0062907507Y0029065357D01*
X0062792143Y0028974738D01*
X0062783494Y0028966501D01*
X0062652788Y0028815877D01*
X0062645853Y0028806153D01*
X0062545990Y0028633533D01*
X0062541016Y0028622669D01*
X0062475593Y0028434272D01*
X0062475352Y0028433284D01*
X0062148571Y0028433284D01*
X0062105725Y0028585206D01*
X0062101603Y0028595945D01*
X0062010549Y0028780583D01*
X0062004538Y0028790392D01*
X0061881360Y0028955349D01*
X0061873671Y0028963889D01*
X0061755320Y0029073290D01*
X0061718875Y0029134220D01*
X0061721156Y0029205180D01*
X0061760280Y0029262690D01*
X0061830653Y0029321218D01*
X0061838782Y0029329347D01*
X0061970420Y0029487625D01*
X0061976944Y0029497118D01*
X0062077531Y0029676728D01*
X0062082210Y0029687237D01*
X0062148386Y0029882182D01*
X0062151017Y0029893143D01*
X0062149040Y0029907007D01*
X0062135474Y0029911000D01*
X0061267115Y0029911000D01*
X0061251876Y0029906525D01*
X0061250671Y0029905135D01*
X0061249000Y0029897452D01*
X0061249000Y0028437115D01*
X0060741000Y0028437115D01*
X0060741000Y0029892885D01*
X0060736525Y0029908124D01*
X0060735135Y0029909329D01*
X0060727452Y0029911000D01*
X0059856981Y0029911000D01*
X0059843450Y0029907027D01*
X0059842158Y0029898038D01*
X0059873656Y0029774015D01*
X0059877497Y0029763168D01*
X0059963685Y0029576211D01*
X0059969436Y0029566250D01*
X0060088254Y0029398127D01*
X0060095720Y0029389385D01*
X0060235477Y0029253239D01*
X0060270314Y0029191377D01*
X0060266177Y0029120501D01*
X0060230632Y0029068253D01*
X0060137552Y0028986624D01*
X0060129630Y0028978276D01*
X0060002180Y0028816606D01*
X0059995909Y0028806950D01*
X0059900060Y0028624771D01*
X0059895655Y0028614137D01*
X0059840436Y0028436300D01*
X0059840218Y0028422201D01*
X0059508000Y0028422201D01*
X0059508000Y0030678800D01*
X0059812794Y0030678800D01*
X0059831665Y0030662447D01*
X0059870049Y0030602721D01*
X0059869486Y0030529859D01*
X0059840436Y0030436300D01*
X0059840218Y0030422201D01*
X0059846950Y0030419000D01*
X0062134485Y0030419000D01*
X0062148016Y0030422973D01*
X0062149185Y0030431107D01*
X0062124510Y0030518598D01*
X0062125270Y0030589591D01*
X0062164291Y0030648902D01*
X0062229184Y0030677702D01*
X0062245779Y0030678800D01*
X0062383372Y0030678800D01*
X0062451493Y0030658798D01*
X0062497986Y0030605142D01*
X0062508090Y0030534868D01*
X0062502399Y0030511466D01*
X0062475595Y0030434279D01*
X0062475352Y0030433284D01*
X0062476820Y0030422992D01*
X0062490385Y0030419000D01*
X0065215402Y0030419000D01*
X0065228933Y0030422973D01*
X0065230288Y0030432399D01*
X0065208805Y0030521537D01*
X0065204915Y0030532836D01*
X0065186051Y0030574327D01*
X0065176064Y0030644618D01*
X0065205665Y0030709149D01*
X0065251222Y0030742333D01*
X0066190651Y0031143921D01*
X0066261150Y0031152305D01*
X0066329272Y0031117158D01*
G37*
G04 #@! TD.AperFunction*
G04 #@! TA.AperFunction,Conductor*
G36*
X0062006129Y0039486455D02*
G01*
X0062176656Y0039434121D01*
X0066283567Y0038173724D01*
X0066342822Y0038134616D01*
X0066371527Y0038069681D01*
X0066372600Y0038053269D01*
X0066372600Y0036089000D01*
X0066390992Y0036081722D01*
X0073487362Y0033273580D01*
X0073543344Y0033229916D01*
X0073567000Y0033156419D01*
X0073567000Y0030886560D01*
X0073546998Y0030818438D01*
X0073493342Y0030771946D01*
X0073423068Y0030761842D01*
X0073358488Y0030791336D01*
X0073351905Y0030797465D01*
X0072405850Y0031743520D01*
X0072399996Y0031749785D01*
X0072383890Y0031768247D01*
X0072361961Y0031793385D01*
X0072309680Y0031830129D01*
X0072304386Y0031834061D01*
X0072260093Y0031868791D01*
X0072254118Y0031873476D01*
X0072247202Y0031876599D01*
X0072244916Y0031877983D01*
X0072230235Y0031886357D01*
X0072227875Y0031887622D01*
X0072221661Y0031891990D01*
X0072214582Y0031894750D01*
X0072214580Y0031894751D01*
X0072162125Y0031915202D01*
X0072156056Y0031917752D01*
X0072097827Y0031944045D01*
X0072090360Y0031945429D01*
X0072087805Y0031946230D01*
X0072071552Y0031950859D01*
X0072068972Y0031951522D01*
X0072061891Y0031954282D01*
X0072054360Y0031955273D01*
X0072054358Y0031955274D01*
X0072024739Y0031959173D01*
X0071998539Y0031962622D01*
X0071992041Y0031963652D01*
X0071929214Y0031975296D01*
X0071921634Y0031974859D01*
X0071921633Y0031974859D01*
X0071867008Y0031971709D01*
X0071859754Y0031971500D01*
X0068554864Y0031971500D01*
X0068486743Y0031991502D01*
X0068440250Y0032045158D01*
X0068432192Y0032101200D01*
X0068430000Y0032101200D01*
X0068430000Y0034514200D01*
X0068418329Y0034517560D01*
X0066789523Y0034986459D01*
X0065308790Y0035412729D01*
X0065248861Y0035450797D01*
X0065219026Y0035515221D01*
X0065224053Y0035573480D01*
X0065250631Y0035653611D01*
X0065250631Y0035653613D01*
X0065252797Y0035660139D01*
X0065263499Y0035764600D01*
X0065263499Y0036565400D01*
X0065252526Y0036671166D01*
X0065196550Y0036838946D01*
X0065103477Y0036989348D01*
X0064978303Y0037114305D01*
X0064972072Y0037118146D01*
X0064833968Y0037203275D01*
X0064833966Y0037203276D01*
X0064827738Y0037207115D01*
X0064667254Y0037260345D01*
X0064666388Y0037260632D01*
X0064666387Y0037260632D01*
X0064659861Y0037262797D01*
X0064653025Y0037263497D01*
X0064653021Y0037263498D01*
X0064609969Y0037267909D01*
X0064555400Y0037273500D01*
X0063154600Y0037273500D01*
X0063151354Y0037273163D01*
X0063151350Y0037273163D01*
X0063055692Y0037263238D01*
X0063055688Y0037263237D01*
X0063048834Y0037262526D01*
X0063042298Y0037260345D01*
X0063042296Y0037260345D01*
X0062910194Y0037216272D01*
X0062881054Y0037206550D01*
X0062730652Y0037113478D01*
X0062605695Y0036988303D01*
X0062601855Y0036982073D01*
X0062601854Y0036982072D01*
X0062543950Y0036888134D01*
X0062512885Y0036837738D01*
X0062457203Y0036669861D01*
X0062446500Y0036565400D01*
X0062446500Y0035764600D01*
X0062457474Y0035658834D01*
X0062459656Y0035652294D01*
X0062459657Y0035652288D01*
X0062461997Y0035645274D01*
X0062464581Y0035574324D01*
X0062428396Y0035513241D01*
X0062364931Y0035481418D01*
X0062342473Y0035479400D01*
X0062304500Y0035479400D01*
X0062236379Y0035499402D01*
X0062189886Y0035553058D01*
X0062178500Y0035605400D01*
X0062178500Y0036888134D01*
X0062171745Y0036950316D01*
X0062120615Y0037086705D01*
X0062033261Y0037203261D01*
X0061916705Y0037290615D01*
X0061780316Y0037341745D01*
X0061718134Y0037348500D01*
X0060271866Y0037348500D01*
X0060209684Y0037341745D01*
X0060073295Y0037290615D01*
X0059956739Y0037203261D01*
X0059869385Y0037086705D01*
X0059818255Y0036950316D01*
X0059811500Y0036888134D01*
X0059811500Y0035509281D01*
X0059808621Y0035482499D01*
X0059807947Y0035479400D01*
X0059508000Y0035479400D01*
X0059508000Y0039366000D01*
X0059528002Y0039434121D01*
X0059581658Y0039480614D01*
X0059634000Y0039492000D01*
X0061969162Y0039492000D01*
X0062006129Y0039486455D01*
G37*
G04 #@! TD.AperFunction*
G04 #@! TA.AperFunction,Conductor*
G36*
X0064335701Y0034699317D02*
G01*
X0066438999Y0033984132D01*
X0066439002Y0033984132D01*
X0066448800Y0033980800D01*
X0067493354Y0033980800D01*
X0067561475Y0033960798D01*
X0067607968Y0033907142D01*
X0067619335Y0033856972D01*
X0067640390Y0032635772D01*
X0067621566Y0032567317D01*
X0067568719Y0032519906D01*
X0067514409Y0032507599D01*
X0066474199Y0032507599D01*
X0064365261Y0031578663D01*
X0064313654Y0031567975D01*
X0060559953Y0031592387D01*
X0060491964Y0031612831D01*
X0060445821Y0031666788D01*
X0060434773Y0031718155D01*
X0060429616Y0034556403D01*
X0060449494Y0034624560D01*
X0060503066Y0034671150D01*
X0060554827Y0034682630D01*
X0063047840Y0034698225D01*
X0064294349Y0034706023D01*
X0064335701Y0034699317D01*
G37*
G04 #@! TD.AperFunction*
G04 #@! TA.AperFunction,Conductor*
G36*
X0059805000Y0030494999D02*
G01*
X0059500000Y0030494999D01*
X0059500000Y0035775000D01*
X0059805000Y0035775000D01*
X0059805000Y0030494999D01*
G37*
G04 #@! TD.AperFunction*
M02*