G04 #@! TF.GenerationSoftware,KiCad,Pcbnew,(6.0.1)*
G04 #@! TF.CreationDate,2022-07-05T00:40:55-07:00*
G04 #@! TF.ProjectId,mu100-dit-connector-board,6d753130-302d-4646-9974-2d636f6e6e65,rev?*
G04 #@! TF.SameCoordinates,PX4a615b8PY2b4db18*
G04 #@! TF.FileFunction,Legend,Bot*
G04 #@! TF.FilePolarity,Positive*
%FSLAX46Y46*%
G04 Gerber Fmt 4.6, Leading zero omitted, Abs format (unit mm)*
G04 Created by KiCad (PCBNEW (6.0.1)) date 2022-07-05 00:40:55*
%MOMM*%
%LPD*%
G01*
G04 APERTURE LIST*
%ADD10C,0.15*%
%ADD11C,0.12*%
G04 APERTURE END LIST*
D10*
X0060940000Y0038855000D02*
X0060110000Y0038855000D01*
X0060955000Y0037445000D02*
X0061775000Y0038845000D01*
X0061785000Y0038855000D02*
X0060955000Y0038855000D01*
X0069182000Y0002976199D02*
X0068882000Y0002976199D01*
X0068582000Y0007176200D02*
X0059982000Y0007176200D01*
X0072001000Y0007388199D02*
X0072831000Y0007388199D01*
X0071986000Y0008798200D02*
X0071166000Y0007398200D01*
X0069882000Y0002976199D02*
X0069582000Y0002976199D01*
X0070582000Y0002976199D02*
X0070282000Y0002976199D01*
X0068355000Y0036195000D02*
X0069755000Y0035375000D01*
X0069765000Y0035365000D02*
X0069765000Y0036195000D01*
X0060110000Y0038855000D02*
X0060925000Y0037475000D01*
X0071156000Y0007388199D02*
X0071986000Y0007388199D01*
X0068582000Y0002976199D02*
X0059982000Y0002976199D01*
X0069765000Y0036210000D02*
X0069765000Y0037040000D01*
X0069765000Y0037040000D02*
X0068385000Y0036225000D01*
X0069882000Y0007176200D02*
X0069582000Y0007176200D01*
X0072831000Y0007388199D02*
X0072016000Y0008768200D01*
X0070582000Y0007176200D02*
X0070282000Y0007176200D01*
X0069182000Y0007176200D02*
X0068882000Y0007176200D01*
X0069213785Y0006297629D02*
X0069213785Y0006726199D01*
X0069213785Y0006511915D02*
X0068463785Y0006511915D01*
X0068570928Y0006583342D01*
X0068642357Y0006654772D01*
X0068678071Y0006726199D01*
X0068463785Y0005654772D02*
X0068463785Y0005797629D01*
X0068499500Y0005869058D01*
X0068535214Y0005904772D01*
X0068642357Y0005976199D01*
X0068785214Y0006011915D01*
X0069070928Y0006011915D01*
X0069142357Y0005976199D01*
X0069178071Y0005940486D01*
X0069213785Y0005869058D01*
X0069213785Y0005726199D01*
X0069178071Y0005654772D01*
X0069142357Y0005619058D01*
X0069070928Y0005583342D01*
X0068892357Y0005583342D01*
X0068820928Y0005619058D01*
X0068785214Y0005654772D01*
X0068749500Y0005726199D01*
X0068749500Y0005869058D01*
X0068785214Y0005940486D01*
X0068820928Y0005976199D01*
X0068892357Y0006011915D01*
X0068928071Y0005261915D02*
X0068928071Y0004690486D01*
X0069213785Y0003940486D02*
X0069213785Y0004369058D01*
X0069213785Y0004154772D02*
X0068463785Y0004154772D01*
X0068570928Y0004226199D01*
X0068642357Y0004297629D01*
X0068678071Y0004369058D01*
X0068463785Y0003690486D02*
X0068463785Y0003190486D01*
X0069213785Y0003511915D01*
X0070421285Y0006333342D02*
X0069671285Y0006333342D01*
X0070207000Y0006083342D01*
X0069671285Y0005833342D01*
X0070421285Y0005833342D01*
X0069671285Y0005476199D02*
X0070278428Y0005476199D01*
X0070349857Y0005440486D01*
X0070385571Y0005404772D01*
X0070421285Y0005333342D01*
X0070421285Y0005190486D01*
X0070385571Y0005119058D01*
X0070349857Y0005083342D01*
X0070278428Y0005047629D01*
X0069671285Y0005047629D01*
X0070421285Y0004654772D02*
X0070421285Y0004511915D01*
X0070385571Y0004440486D01*
X0070349857Y0004404772D01*
X0070242714Y0004333342D01*
X0070099857Y0004297629D01*
X0069814142Y0004297629D01*
X0069742714Y0004333342D01*
X0069707000Y0004369058D01*
X0069671285Y0004440486D01*
X0069671285Y0004583342D01*
X0069707000Y0004654772D01*
X0069742714Y0004690486D01*
X0069814142Y0004726199D01*
X0069992714Y0004726199D01*
X0070064142Y0004690486D01*
X0070099857Y0004654772D01*
X0070135571Y0004583342D01*
X0070135571Y0004440486D01*
X0070099857Y0004369058D01*
X0070064142Y0004333342D01*
X0069992714Y0004297629D01*
X0069671285Y0003833342D02*
X0069671285Y0003761915D01*
X0069707000Y0003690486D01*
X0069742714Y0003654772D01*
X0069814142Y0003619058D01*
X0069957000Y0003583342D01*
X0070135571Y0003583342D01*
X0070278428Y0003619058D01*
X0070349857Y0003654772D01*
X0070385571Y0003690486D01*
X0070421285Y0003761915D01*
X0070421285Y0003833342D01*
X0070385571Y0003904772D01*
X0070349857Y0003940486D01*
X0070278428Y0003976199D01*
X0070135571Y0004011915D01*
X0069957000Y0004011915D01*
X0069814142Y0003976199D01*
X0069742714Y0003940486D01*
X0069707000Y0003904772D01*
X0069671285Y0003833342D01*
X0071628785Y0005851199D02*
X0071593071Y0005922629D01*
X0071557357Y0005958342D01*
X0071485928Y0005994058D01*
X0071271642Y0005994058D01*
X0071200214Y0005958342D01*
X0071164500Y0005922629D01*
X0071128785Y0005851199D01*
X0071128785Y0005744058D01*
X0071164500Y0005672629D01*
X0071200214Y0005636915D01*
X0071271642Y0005601199D01*
X0071485928Y0005601199D01*
X0071557357Y0005636915D01*
X0071593071Y0005672629D01*
X0071628785Y0005744058D01*
X0071628785Y0005851199D01*
X0071128785Y0005279772D02*
X0071628785Y0005279772D01*
X0071200214Y0005279772D02*
X0071164500Y0005244058D01*
X0071128785Y0005172629D01*
X0071128785Y0005065486D01*
X0071164500Y0004994058D01*
X0071235928Y0004958342D01*
X0071628785Y0004958342D01*
X0071628785Y0004494058D02*
X0071593071Y0004565486D01*
X0071521642Y0004601199D01*
X0070878785Y0004601199D01*
X0071128785Y0004279772D02*
X0071628785Y0004101199D01*
X0071128785Y0003922629D02*
X0071628785Y0004101199D01*
X0071807357Y0004172629D01*
X0071843071Y0004208342D01*
X0071878785Y0004279772D01*
X0066537380Y0038328334D02*
X0067251666Y0038328334D01*
X0067394522Y0038375953D01*
X0067489761Y0038471191D01*
X0067537380Y0038614048D01*
X0067537380Y0038709286D01*
X0066632619Y0037899762D02*
X0066584999Y0037852143D01*
X0066537380Y0037756905D01*
X0066537380Y0037518810D01*
X0066584999Y0037423572D01*
X0066632619Y0037375953D01*
X0066727857Y0037328334D01*
X0066823094Y0037328334D01*
X0066965952Y0037375953D01*
X0067537380Y0037947381D01*
X0067537380Y0037328334D01*
X0070997380Y0032866334D02*
X0071711666Y0032866334D01*
X0071854523Y0032913953D01*
X0071949761Y0033009191D01*
X0071997380Y0033152048D01*
X0071997380Y0033247286D01*
X0070997380Y0032485381D02*
X0070997380Y0031866334D01*
X0071378333Y0032199666D01*
X0071378333Y0032056810D01*
X0071425952Y0031961572D01*
X0071473571Y0031913953D01*
X0071568809Y0031866334D01*
X0071806904Y0031866334D01*
X0071902142Y0031913953D01*
X0071949761Y0031961572D01*
X0071997380Y0032056810D01*
X0071997380Y0032342523D01*
X0071949761Y0032437762D01*
X0071902142Y0032485381D01*
D11*
X0064504999Y0000515000D02*
X0064504999Y0001164999D01*
X0068005000Y0000515000D02*
X0068005000Y0001164999D01*
X0068005000Y0039815000D02*
X0064504999Y0039815000D01*
X0068005000Y0000515000D02*
X0064504999Y0000515000D01*
X0068005000Y0039165000D02*
X0068005000Y0039815000D01*
X0064504999Y0039815000D02*
X0064504999Y0039165000D01*
X0068005000Y0039165000D02*
X0062805000Y0039165000D01*
X0062805000Y0039165000D02*
X0062805000Y0001164999D01*
X0062805000Y0001164999D02*
X0068005000Y0001164999D01*
X0068005000Y0001164999D02*
X0068005000Y0039165000D01*
X0070015000Y0014075000D02*
X0070015000Y0014274999D01*
X0069515000Y0018175000D02*
X0070015000Y0018175000D01*
X0069515000Y0009725000D02*
X0069515000Y0030625000D01*
X0070015000Y0024075000D02*
X0070015000Y0024275000D01*
X0070015000Y0012075000D02*
X0070015000Y0012274999D01*
X0070015000Y0016075000D02*
X0070015000Y0016274999D01*
X0070015000Y0026275000D02*
X0069515000Y0026275000D01*
X0073925000Y0008815000D02*
X0072675000Y0008815000D01*
X0070015000Y0028075000D02*
X0070015000Y0028275000D01*
X0069515000Y0024175000D02*
X0070015000Y0024175000D01*
X0073625000Y0011675000D02*
X0073015000Y0011675000D01*
X0068905000Y0009114999D02*
X0068905000Y0031235000D01*
X0073015000Y0030625000D02*
X0073015000Y0028675000D01*
X0069515000Y0012175000D02*
X0070015000Y0012175000D01*
X0073925000Y0010065000D02*
X0073925000Y0008815000D01*
X0073625000Y0010875000D02*
X0073825000Y0010875000D01*
X0069515000Y0016075000D02*
X0070015000Y0016075000D01*
X0070015000Y0026075000D02*
X0070015000Y0026275000D01*
X0070015000Y0014274999D02*
X0069515000Y0014274999D01*
X0069515000Y0012075000D02*
X0070015000Y0012075000D01*
X0073015000Y0028675000D02*
X0073625000Y0028675000D01*
X0070015000Y0022275000D02*
X0069515000Y0022275000D01*
X0069515000Y0020075000D02*
X0070015000Y0020075000D01*
X0073625000Y0009114999D02*
X0068905000Y0009114999D01*
X0070015000Y0018275000D02*
X0069515000Y0018275000D01*
X0069515000Y0024075000D02*
X0070015000Y0024075000D01*
X0069515000Y0022175000D02*
X0070015000Y0022175000D01*
X0073015000Y0011675000D02*
X0073015000Y0009725000D01*
X0072315000Y0031235000D02*
X0072315000Y0030625000D01*
X0073825000Y0010875000D02*
X0073825000Y0010575000D01*
X0070015000Y0028275000D02*
X0069515000Y0028275000D01*
X0070015000Y0018075000D02*
X0070015000Y0018275000D01*
X0071015000Y0031235000D02*
X0071015000Y0030625000D01*
X0069515000Y0022075000D02*
X0070015000Y0022075000D01*
X0069515000Y0014175000D02*
X0070015000Y0014175000D01*
X0070015000Y0012274999D02*
X0069515000Y0012274999D01*
X0073725000Y0010875000D02*
X0073725000Y0010575000D01*
X0069515000Y0030625000D02*
X0073015000Y0030625000D01*
X0072315000Y0009114999D02*
X0072315000Y0009725000D01*
X0070015000Y0024275000D02*
X0069515000Y0024275000D01*
X0069515000Y0018075000D02*
X0070015000Y0018075000D01*
X0073625000Y0031235000D02*
X0073625000Y0009114999D01*
X0073015000Y0009725000D02*
X0069515000Y0009725000D01*
X0069515000Y0026175000D02*
X0070015000Y0026175000D01*
X0073825000Y0010575000D02*
X0073625000Y0010575000D01*
X0069515000Y0028175000D02*
X0070015000Y0028175000D01*
X0070015000Y0022075000D02*
X0070015000Y0022275000D01*
X0069515000Y0016175000D02*
X0070015000Y0016175000D01*
X0069515000Y0014075000D02*
X0070015000Y0014075000D01*
X0070015000Y0020075000D02*
X0070015000Y0020275000D01*
X0069515000Y0020175000D02*
X0070015000Y0020175000D01*
X0071015000Y0009114999D02*
X0071015000Y0009725000D01*
X0069515000Y0026075000D02*
X0070015000Y0026075000D01*
X0069515000Y0028075000D02*
X0070015000Y0028075000D01*
X0068905000Y0031235000D02*
X0073625000Y0031235000D01*
X0070015000Y0020275000D02*
X0069515000Y0020275000D01*
X0070015000Y0016274999D02*
X0069515000Y0016274999D01*
M02*