G04 #@! TF.GenerationSoftware,KiCad,Pcbnew,(6.0.1)*
G04 #@! TF.CreationDate,2022-07-05T00:40:55-07:00*
G04 #@! TF.ProjectId,mu100-dit-connector-board,6d753130-302d-4646-9974-2d636f6e6e65,rev?*
G04 #@! TF.SameCoordinates,PX4a615b8PY2b4db18*
G04 #@! TF.FileFunction,Copper,L1,Top*
G04 #@! TF.FilePolarity,Positive*
%FSLAX46Y46*%
G04 Gerber Fmt 4.6, Leading zero omitted, Abs format (unit mm)*
G04 Created by KiCad (PCBNEW (6.0.1)) date 2022-07-05 00:40:55*
%MOMM*%
%LPD*%
G01*
G04 APERTURE LIST*
G04 Aperture macros list*
%AMRoundRect*
4,1,4,2,3,4,5,6,7,8,9,2,3,0*
1,1,$1,$2,$3*
1,1,$1,$2,$3*
1,1,$1,$2,$3*
1,1,$1,$2,$3*
20,1,$1,$2,$3,$4,$5,0*
20,1,$1,$2,$3,$4,$5,0*
20,1,$1,$2,$3,$4,$5,0*
20,1,$1,$2,$3,$4,$5,0*%
G04 Aperture macros list end*
G04 #@! TA.AperFunction,ComponentPad*
%AMCOMP31*
4,1,3,
-0.65,0.35,
-0.65,-0.35,
0.65,-0.35,
0.65,0.35,
0*
4,1,19,
-0.65,0.6,
-0.57274575140626316,0.58776412907378839,
-0.50305368692688179,0.55225424859373684,
-0.44774575140626316,0.49694631307311826,
-0.41223587092621161,0.42725424859373684,
-0.4,0.35,
-0.41223587092621161,0.27274575140626311,
-0.44774575140626316,0.20305368692688172,
-0.50305368692688168,0.14774575140626314,
-0.57274575140626316,0.1122358709262116,
-0.65,0.099999999999999978,
-0.727254248593737,0.1122358709262116,
-0.79694631307311825,0.14774575140626309,
-0.85225424859373689,0.20305368692688167,
-0.88776412907378843,0.27274575140626311,
-0.9,0.34999999999999992,
-0.88776412907378843,0.42725424859373679,
-0.85225424859373689,0.49694631307311821,
-0.79694631307311836,0.55225424859373684,
-0.72725424859373689,0.58776412907378839,
0*
4,1,19,
-0.65,-0.099999999999999978,
-0.57274575140626316,-0.1122358709262116,
-0.50305368692688179,-0.14774575140626311,
-0.44774575140626316,-0.20305368692688169,
-0.41223587092621161,-0.27274575140626311,
-0.4,-0.35,
-0.41223587092621161,-0.42725424859373684,
-0.44774575140626316,-0.49694631307311821,
-0.50305368692688168,-0.55225424859373684,
-0.57274575140626316,-0.58776412907378839,
-0.65,-0.6,
-0.727254248593737,-0.58776412907378839,
-0.79694631307311825,-0.55225424859373684,
-0.85225424859373689,-0.49694631307311832,
-0.88776412907378843,-0.42725424859373684,
-0.9,-0.35000000000000003,
-0.88776412907378843,-0.27274575140626317,
-0.85225424859373689,-0.20305368692688175,
-0.79694631307311836,-0.14774575140626314,
-0.72725424859373689,-0.1122358709262116,
0*
4,1,19,
0.65,-0.099999999999999978,
0.72725424859373689,-0.1122358709262116,
0.79694631307311825,-0.14774575140626311,
0.85225424859373689,-0.20305368692688169,
0.88776412907378843,-0.27274575140626311,
0.9,-0.35,
0.88776412907378843,-0.42725424859373684,
0.85225424859373689,-0.49694631307311821,
0.79694631307311836,-0.55225424859373684,
0.72725424859373689,-0.58776412907378839,
0.65,-0.6,
0.572745751406263,-0.58776412907378839,
0.50305368692688179,-0.55225424859373684,
0.44774575140626316,-0.49694631307311832,
0.41223587092621161,-0.42725424859373684,
0.4,-0.35000000000000003,
0.41223587092621161,-0.27274575140626317,
0.44774575140626316,-0.20305368692688175,
0.50305368692688168,-0.14774575140626314,
0.57274575140626316,-0.1122358709262116,
0*
4,1,19,
0.65,0.6,
0.72725424859373689,0.58776412907378839,
0.79694631307311825,0.55225424859373684,
0.85225424859373689,0.49694631307311826,
0.88776412907378843,0.42725424859373684,
0.9,0.35,
0.88776412907378843,0.27274575140626311,
0.85225424859373689,0.20305368692688172,
0.79694631307311836,0.14774575140626314,
0.72725424859373689,0.1122358709262116,
0.65,0.099999999999999978,
0.572745751406263,0.1122358709262116,
0.50305368692688179,0.14774575140626309,
0.44774575140626316,0.20305368692688167,
0.41223587092621161,0.27274575140626311,
0.4,0.34999999999999992,
0.41223587092621161,0.42725424859373679,
0.44774575140626316,0.49694631307311821,
0.50305368692688168,0.55225424859373684,
0.57274575140626316,0.58776412907378839,
0*
4,1,3,
-0.9,0.35,
-0.4,0.35,
-0.4,-0.35,
-0.9,-0.35,
0*
4,1,3,
-0.65,-0.6,
-0.65,-0.099999999999999978,
0.65,-0.099999999999999978,
0.65,-0.6,
0*
4,1,3,
0.9,-0.35,
0.4,-0.35,
0.4,0.35,
0.9,0.35,
0*
4,1,3,
0.65,0.6,
0.65,0.099999999999999978,
-0.65,0.099999999999999978,
-0.65,0.6,
0*%
%ADD10COMP31,0.25X-0.65X0.35X-0.65X-0.35X0.65X-0.35X0.65X0.35X0*%
G04 #@! TD*
G04 #@! TA.AperFunction,ComponentPad*
%ADD11O,1.8X1.2*%
G04 #@! TD*
G04 #@! TA.AperFunction,ComponentPad*
%AMCOMP32*
4,1,3,
0.625,-0.35,
0.625,0.35,
-0.625,0.35,
-0.625,-0.35,
0*
4,1,19,
0.625,-0.099999999999999978,
0.70225424859373686,-0.1122358709262116,
0.77194631307311834,-0.14774575140626311,
0.82725424859373686,-0.20305368692688169,
0.86276412907378841,-0.27274575140626311,
0.875,-0.35,
0.86276412907378841,-0.42725424859373684,
0.82725424859373686,-0.49694631307311821,
0.77194631307311834,-0.55225424859373684,
0.70225424859373686,-0.58776412907378839,
0.625,-0.6,
0.547745751406263,-0.58776412907378839,
0.47805368692688177,-0.55225424859373684,
0.42274575140626314,-0.49694631307311832,
0.38723587092621159,-0.42725424859373684,
0.375,-0.35000000000000003,
0.38723587092621159,-0.27274575140626317,
0.42274575140626314,-0.20305368692688175,
0.47805368692688166,-0.14774575140626314,
0.54774575140626314,-0.1122358709262116,
0*
4,1,19,
0.625,0.6,
0.70225424859373686,0.58776412907378839,
0.77194631307311834,0.55225424859373684,
0.82725424859373686,0.49694631307311826,
0.86276412907378841,0.42725424859373684,
0.875,0.35,
0.86276412907378841,0.27274575140626311,
0.82725424859373686,0.20305368692688172,
0.77194631307311834,0.14774575140626314,
0.70225424859373686,0.1122358709262116,
0.625,0.099999999999999978,
0.547745751406263,0.1122358709262116,
0.47805368692688177,0.14774575140626309,
0.42274575140626314,0.20305368692688167,
0.38723587092621159,0.27274575140626311,
0.375,0.34999999999999992,
0.38723587092621159,0.42725424859373679,
0.42274575140626314,0.49694631307311821,
0.47805368692688166,0.55225424859373684,
0.54774575140626314,0.58776412907378839,
0*
4,1,19,
-0.625,0.6,
-0.54774575140626314,0.58776412907378839,
-0.47805368692688172,0.55225424859373684,
-0.42274575140626314,0.49694631307311826,
-0.38723587092621159,0.42725424859373684,
-0.375,0.35,
-0.38723587092621159,0.27274575140626311,
-0.42274575140626314,0.20305368692688172,
-0.47805368692688166,0.14774575140626314,
-0.54774575140626314,0.1122358709262116,
-0.625,0.099999999999999978,
-0.702254248593737,0.1122358709262116,
-0.77194631307311823,0.14774575140626309,
-0.82725424859373686,0.20305368692688167,
-0.86276412907378841,0.27274575140626311,
-0.875,0.34999999999999992,
-0.86276412907378841,0.42725424859373679,
-0.82725424859373686,0.49694631307311821,
-0.77194631307311834,0.55225424859373684,
-0.70225424859373686,0.58776412907378839,
0*
4,1,19,
-0.625,-0.099999999999999978,
-0.54774575140626314,-0.1122358709262116,
-0.47805368692688172,-0.14774575140626311,
-0.42274575140626314,-0.20305368692688169,
-0.38723587092621159,-0.27274575140626311,
-0.375,-0.35,
-0.38723587092621159,-0.42725424859373684,
-0.42274575140626314,-0.49694631307311821,
-0.47805368692688166,-0.55225424859373684,
-0.54774575140626314,-0.58776412907378839,
-0.625,-0.6,
-0.702254248593737,-0.58776412907378839,
-0.77194631307311823,-0.55225424859373684,
-0.82725424859373686,-0.49694631307311832,
-0.86276412907378841,-0.42725424859373684,
-0.875,-0.35000000000000003,
-0.86276412907378841,-0.27274575140626317,
-0.82725424859373686,-0.20305368692688175,
-0.77194631307311834,-0.14774575140626314,
-0.70225424859373686,-0.1122358709262116,
0*
4,1,3,
0.875,-0.35,
0.375,-0.35,
0.375,0.35,
0.875,0.35,
0*
4,1,3,
0.625,0.6,
0.625,0.099999999999999978,
-0.625,0.099999999999999978,
-0.625,0.6,
0*
4,1,3,
-0.875,0.35,
-0.375,0.35,
-0.375,-0.35,
-0.875,-0.35,
0*
4,1,3,
-0.625,-0.6,
-0.625,-0.099999999999999978,
0.625,-0.099999999999999978,
0.625,-0.6,
0*%
%ADD12COMP32,0.25X0.625X-0.35X0.625X0.35X-0.625X0.35X-0.625X-0.35X0*%
G04 #@! TD*
G04 #@! TA.AperFunction,ComponentPad*
%ADD13O,1.75X1.2*%
G04 #@! TD*
G04 #@! TA.AperFunction,SMDPad,CuDef*
%AMCOMP33*
4,1,3,
-0.35,-0.45,
0.35,-0.45,
0.35,0.45,
-0.35,0.45,
0*
4,1,19,
-0.35,-0.2,
-0.27274575140626311,-0.21223587092621163,
-0.20305368692688169,-0.24774575140626315,
-0.14774575140626311,-0.30305368692688173,
-0.1122358709262116,-0.37274575140626315,
-0.099999999999999978,-0.45,
-0.11223587092621157,-0.52725424859373682,
-0.14774575140626311,-0.5969463130731183,
-0.20305368692688167,-0.65225424859373682,
-0.27274575140626311,-0.68776412907378837,
-0.34999999999999992,-0.7,
-0.4272542485937369,-0.68776412907378837,
-0.49694631307311821,-0.65225424859373693,
-0.55225424859373684,-0.5969463130731183,
-0.58776412907378839,-0.52725424859373693,
-0.6,-0.45000000000000007,
-0.58776412907378839,-0.3727457514062632,
-0.55225424859373684,-0.30305368692688178,
-0.49694631307311832,-0.24774575140626318,
-0.4272542485937369,-0.21223587092621163,
0*
4,1,19,
0.35,-0.2,
0.42725424859373684,-0.21223587092621163,
0.49694631307311826,-0.24774575140626315,
0.55225424859373684,-0.30305368692688173,
0.58776412907378839,-0.37274575140626315,
0.6,-0.45,
0.58776412907378839,-0.52725424859373682,
0.55225424859373684,-0.5969463130731183,
0.49694631307311832,-0.65225424859373682,
0.42725424859373684,-0.68776412907378837,
0.35000000000000003,-0.7,
0.27274575140626306,-0.68776412907378837,
0.20305368692688172,-0.65225424859373693,
0.14774575140626314,-0.5969463130731183,
0.1122358709262116,-0.52725424859373693,
0.099999999999999978,-0.45000000000000007,
0.11223587092621157,-0.3727457514062632,
0.14774575140626309,-0.30305368692688178,
0.20305368692688164,-0.24774575140626318,
0.27274575140626306,-0.21223587092621163,
0*
4,1,19,
0.35,0.7,
0.42725424859373684,0.68776412907378837,
0.49694631307311826,0.65225424859373682,
0.55225424859373684,0.5969463130731183,
0.58776412907378839,0.52725424859373682,
0.6,0.45,
0.58776412907378839,0.3727457514062632,
0.55225424859373684,0.30305368692688173,
0.49694631307311832,0.24774575140626318,
0.42725424859373684,0.21223587092621163,
0.35000000000000003,0.2,
0.27274575140626306,0.21223587092621163,
0.20305368692688172,0.24774575140626312,
0.14774575140626314,0.30305368692688173,
0.1122358709262116,0.37274575140626309,
0.099999999999999978,0.44999999999999996,
0.11223587092621157,0.52725424859373682,
0.14774575140626309,0.5969463130731183,
0.20305368692688164,0.65225424859373682,
0.27274575140626306,0.68776412907378837,
0*
4,1,19,
-0.35,0.7,
-0.27274575140626311,0.68776412907378837,
-0.20305368692688169,0.65225424859373682,
-0.14774575140626311,0.5969463130731183,
-0.1122358709262116,0.52725424859373682,
-0.099999999999999978,0.45,
-0.11223587092621157,0.3727457514062632,
-0.14774575140626311,0.30305368692688173,
-0.20305368692688167,0.24774575140626318,
-0.27274575140626311,0.21223587092621163,
-0.34999999999999992,0.2,
-0.4272542485937369,0.21223587092621163,
-0.49694631307311821,0.24774575140626312,
-0.55225424859373684,0.30305368692688173,
-0.58776412907378839,0.37274575140626309,
-0.6,0.44999999999999996,
-0.58776412907378839,0.52725424859373682,
-0.55225424859373684,0.5969463130731183,
-0.49694631307311832,0.65225424859373682,
-0.4272542485937369,0.68776412907378837,
0*
4,1,3,
-0.35,-0.7,
-0.35,-0.2,
0.35,-0.2,
0.35,-0.7,
0*
4,1,3,
0.6,-0.45,
0.099999999999999978,-0.45,
0.099999999999999978,0.45,
0.6,0.45,
0*
4,1,3,
0.35,0.7,
0.35,0.2,
-0.35,0.2,
-0.35,0.7,
0*
4,1,3,
-0.6,0.45,
-0.099999999999999978,0.45,
-0.099999999999999978,-0.45,
-0.6,-0.45,
0*%
%ADD14COMP33,0.25X-0.35X-0.45X0.35X-0.45X0.35X0.45X-0.35X0.45X0*%
G04 #@! TD*
G04 #@! TA.AperFunction,ComponentPad*
%ADD15R,1.35X1.35*%
G04 #@! TD*
G04 #@! TA.AperFunction,ComponentPad*
%ADD16O,1.35X1.35*%
G04 #@! TD*
G04 #@! TA.AperFunction,SMDPad,CuDef*
%AMCOMP34*
4,1,3,
-0.3375,-0.475,
0.3375,-0.475,
0.3375,0.475,
-0.3375,0.475,
0*
4,1,19,
-0.3375,-0.22499999999999998,
-0.26024575140626316,-0.2372358709262116,
-0.19055368692688174,-0.27274575140626311,
-0.13524575140626316,-0.32805368692688169,
-0.099735870926211639,-0.39774575140626311,
-0.087500000000000022,-0.475,
-0.099735870926211612,-0.55225424859373684,
-0.13524575140626316,-0.62194631307311821,
-0.19055368692688171,-0.67725424859373684,
-0.26024575140626316,-0.71276412907378839,
-0.33749999999999997,-0.725,
-0.41475424859373694,-0.71276412907378839,
-0.48444631307311825,-0.67725424859373684,
-0.53975424859373689,-0.62194631307311832,
-0.57526412907378843,-0.55225424859373684,
-0.5875,-0.47500000000000003,
-0.57526412907378843,-0.39774575140626317,
-0.53975424859373689,-0.32805368692688175,
-0.48444631307311836,-0.27274575140626311,
-0.41475424859373694,-0.2372358709262116,
0*
4,1,19,
0.3375,-0.22499999999999998,
0.41475424859373689,-0.2372358709262116,
0.48444631307311831,-0.27274575140626311,
0.53975424859373689,-0.32805368692688169,
0.57526412907378843,-0.39774575140626311,
0.5875,-0.475,
0.57526412907378843,-0.55225424859373684,
0.53975424859373689,-0.62194631307311821,
0.48444631307311836,-0.67725424859373684,
0.41475424859373689,-0.71276412907378839,
0.33750000000000008,-0.725,
0.2602457514062631,-0.71276412907378839,
0.19055368692688177,-0.67725424859373684,
0.13524575140626319,-0.62194631307311832,
0.099735870926211639,-0.55225424859373684,
0.087500000000000022,-0.47500000000000003,
0.099735870926211612,-0.39774575140626317,
0.13524575140626313,-0.32805368692688175,
0.19055368692688168,-0.27274575140626311,
0.2602457514062631,-0.2372358709262116,
0*
4,1,19,
0.3375,0.725,
0.41475424859373689,0.71276412907378839,
0.48444631307311831,0.67725424859373684,
0.53975424859373689,0.62194631307311821,
0.57526412907378843,0.55225424859373684,
0.5875,0.475,
0.57526412907378843,0.39774575140626311,
0.53975424859373689,0.32805368692688175,
0.48444631307311836,0.27274575140626311,
0.41475424859373689,0.2372358709262116,
0.33750000000000008,0.22499999999999998,
0.2602457514062631,0.2372358709262116,
0.19055368692688177,0.27274575140626311,
0.13524575140626319,0.32805368692688164,
0.099735870926211639,0.39774575140626311,
0.087500000000000022,0.47499999999999992,
0.099735870926211612,0.55225424859373673,
0.13524575140626313,0.62194631307311821,
0.19055368692688168,0.67725424859373684,
0.2602457514062631,0.71276412907378839,
0*
4,1,19,
-0.3375,0.725,
-0.26024575140626316,0.71276412907378839,
-0.19055368692688174,0.67725424859373684,
-0.13524575140626316,0.62194631307311821,
-0.099735870926211639,0.55225424859373684,
-0.087500000000000022,0.475,
-0.099735870926211612,0.39774575140626311,
-0.13524575140626316,0.32805368692688175,
-0.19055368692688171,0.27274575140626311,
-0.26024575140626316,0.2372358709262116,
-0.33749999999999997,0.22499999999999998,
-0.41475424859373694,0.2372358709262116,
-0.48444631307311825,0.27274575140626311,
-0.53975424859373689,0.32805368692688164,
-0.57526412907378843,0.39774575140626311,
-0.5875,0.47499999999999992,
-0.57526412907378843,0.55225424859373673,
-0.53975424859373689,0.62194631307311821,
-0.48444631307311836,0.67725424859373684,
-0.41475424859373694,0.71276412907378839,
0*
4,1,3,
-0.3375,-0.725,
-0.3375,-0.22499999999999998,
0.3375,-0.22499999999999998,
0.3375,-0.725,
0*
4,1,3,
0.5875,-0.475,
0.087500000000000022,-0.475,
0.087500000000000022,0.475,
0.5875,0.475,
0*
4,1,3,
0.3375,0.725,
0.3375,0.22499999999999998,
-0.3375,0.22499999999999998,
-0.3375,0.725,
0*
4,1,3,
-0.5875,0.475,
-0.087500000000000022,0.475,
-0.087500000000000022,-0.475,
-0.5875,-0.475,
0*%
%ADD17COMP34,0.25X-0.3375X-0.475X0.3375X-0.475X0.3375X0.475X-0.3375X0.475X0*%
G04 #@! TD*
G04 #@! TA.AperFunction,ViaPad*
%ADD18C,0.8*%
G04 #@! TD*
G04 #@! TA.AperFunction,Conductor*
%ADD19C,0.25*%
G04 #@! TD*
G04 #@! TA.AperFunction,Conductor*
%ADD20C,0.4*%
G04 #@! TD*
G04 APERTURE END LIST*
D10*
X0059000000Y0040000000D02*
X0063855000Y0036165000D03*
D11*
X0063855000Y0034165000D03*
X0063855000Y0032165000D03*
X0063855000Y0030165000D03*
X0063855000Y0028165000D03*
X0063855000Y0026165000D03*
X0063855000Y0024165000D03*
X0063855000Y0022165000D03*
X0063855000Y0020165000D03*
X0063855000Y0018165000D03*
X0063855000Y0016165000D03*
X0063855000Y0014165000D03*
X0063855000Y0012165000D03*
X0063855000Y0010165000D03*
X0063855000Y0008164999D03*
X0063855000Y0006164999D03*
X0063855000Y0004164999D03*
D12*
X0071815000Y0011175000D03*
D13*
X0071815000Y0013175000D03*
X0071815000Y0015175000D03*
X0071815000Y0017175000D03*
X0071815000Y0019175000D03*
X0071815000Y0021175000D03*
X0071815000Y0023175000D03*
X0071815000Y0025175000D03*
X0071815000Y0027175000D03*
X0071815000Y0029175000D03*
D14*
X0067049000Y0016835000D03*
X0069049000Y0016835000D03*
D15*
X0060995000Y0036165000D03*
D16*
X0060995000Y0034165000D03*
X0060995000Y0032165000D03*
X0060995000Y0030165000D03*
X0060995000Y0028165000D03*
X0060995000Y0026165000D03*
X0060995000Y0024165000D03*
X0060995000Y0022165000D03*
X0060995000Y0020165000D03*
X0060995000Y0018165000D03*
X0060995000Y0016165000D03*
X0060995000Y0014165000D03*
X0060995000Y0012165000D03*
X0060995000Y0010165000D03*
X0060995000Y0008164999D03*
X0060995000Y0006164999D03*
X0060995000Y0004164999D03*
D14*
X0067049000Y0020681668D03*
X0069049000Y0020681668D03*
D17*
X0067061499Y0033244200D03*
X0069136500Y0033244200D03*
D14*
X0067049000Y0024528334D03*
X0069049000Y0024528334D03*
X0067049000Y0028375000D03*
X0069049000Y0028375000D03*
D18*
X0073095000Y0031685000D03*
X0071065000Y0032475000D03*
X0066035000Y0030605000D03*
X0067395000Y0030115000D03*
X0069075000Y0030055000D03*
X0065763000Y0026335400D03*
X0066220200Y0019096400D03*
D19*
X0060995000Y0018165000D02*
X0063855000Y0018165000D01*
X0060995000Y0026165000D02*
X0063855000Y0026165000D01*
X0069015000Y0017175000D02*
X0071465000Y0017175000D01*
X0068735000Y0021045000D02*
X0068865000Y0021175000D01*
X0068865000Y0021175000D02*
X0071465000Y0021175000D01*
X0068705000Y0024265000D02*
X0069615000Y0025175000D01*
X0069615000Y0025175000D02*
X0071465000Y0025175000D01*
X0069049000Y0028375000D02*
X0069849000Y0029175000D01*
X0069849000Y0029175000D02*
X0071465000Y0029175000D01*
D20*
X0063855000Y0032165000D02*
X0064934200Y0033244200D01*
X0064325000Y0032415000D02*
X0065154200Y0033244200D01*
X0060995000Y0034165000D02*
X0060995000Y0032165000D01*
X0060995000Y0032165000D02*
X0063855000Y0032165000D01*
X0064934200Y0033244200D02*
X0067061499Y0033244200D01*
X0060995000Y0034165000D02*
X0063855000Y0034165000D01*
D19*
X0060995000Y0036165000D02*
X0063855000Y0036165000D01*
X0060995000Y0024165000D02*
X0063855000Y0024165000D01*
X0060995000Y0022165000D02*
X0063855000Y0022165000D01*
X0066224000Y0024265000D02*
X0067079000Y0024265000D01*
X0064317000Y0020165000D02*
X0065509000Y0021357000D01*
X0065509000Y0021357000D02*
X0065509000Y0023550000D01*
X0063855000Y0020165000D02*
X0064317000Y0020165000D01*
X0065509000Y0023550000D02*
X0066224000Y0024265000D01*
X0060995000Y0020165000D02*
X0063855000Y0020165000D01*
X0066379000Y0016165000D02*
X0067049000Y0016835000D01*
X0060995000Y0016165000D02*
X0063855000Y0016165000D01*
X0063855000Y0016165000D02*
X0066379000Y0016165000D01*
X0067069000Y0027641400D02*
X0067069000Y0028375000D01*
X0060995000Y0014165000D02*
X0063855000Y0014165000D01*
X0065763000Y0026335400D02*
X0067069000Y0027641400D01*
X0066220200Y0019096400D02*
X0067109000Y0019985200D01*
X0060995000Y0012165000D02*
X0063855000Y0012165000D01*
X0067109000Y0019985200D02*
X0067109000Y0021045000D01*
X0060995000Y0010165000D02*
X0063855000Y0010165000D01*
X0060995000Y0008164999D02*
X0063855000Y0008164999D01*
D20*
X0060995000Y0006164999D02*
X0063855000Y0006164999D01*
X0060995000Y0004164999D02*
X0063855000Y0004164999D01*
G04 #@! TA.AperFunction,Conductor*
G36*
X0062006129Y0039486455D02*
G01*
X0062176656Y0039434121D01*
X0066283567Y0038173724D01*
X0066342822Y0038134616D01*
X0066371527Y0038069681D01*
X0066372600Y0038053269D01*
X0066372600Y0036089000D01*
X0066390992Y0036081722D01*
X0073487362Y0033273580D01*
X0073543344Y0033229916D01*
X0073567000Y0033156419D01*
X0073567000Y0000634000D01*
X0073546998Y0000565879D01*
X0073493342Y0000519385D01*
X0073441000Y0000508000D01*
X0059634000Y0000508000D01*
X0059565879Y0000528002D01*
X0059519386Y0000581657D01*
X0059508000Y0000634000D01*
X0059508000Y0002539600D01*
X0059528002Y0002607720D01*
X0059581658Y0002654214D01*
X0059634000Y0002665599D01*
X0066238400Y0002665599D01*
X0066238400Y0007774999D01*
X0065364138Y0007774999D01*
X0065296018Y0007795001D01*
X0065249525Y0007848658D01*
X0065239442Y0007919080D01*
X0065266352Y0008104664D01*
X0065266352Y0008104666D01*
X0065267213Y0008110603D01*
X0065257433Y0008321898D01*
X0065207875Y0008527534D01*
X0065168412Y0008614329D01*
X0065122806Y0008714632D01*
X0065120326Y0008720087D01*
X0064997946Y0008892610D01*
X0064845150Y0009038881D01*
X0064839254Y0009042687D01*
X0064812837Y0009059746D01*
X0064766459Y0009113501D01*
X0064756507Y0009183796D01*
X0064786139Y0009248314D01*
X0064803353Y0009264683D01*
X0064918201Y0009354897D01*
X0064922920Y0009358604D01*
X0064926852Y0009363135D01*
X0064926855Y0009363138D01*
X0065057621Y0009513833D01*
X0065061552Y0009518363D01*
X0065064552Y0009523549D01*
X0065064555Y0009523553D01*
X0065164467Y0009696258D01*
X0065167473Y0009701453D01*
X0065236861Y0009901271D01*
X0065260867Y0010066837D01*
X0065266352Y0010104664D01*
X0065266352Y0010104667D01*
X0065267213Y0010110603D01*
X0065257433Y0010321898D01*
X0065212582Y0010508002D01*
X0065209281Y0010521701D01*
X0065209280Y0010521702D01*
X0065207875Y0010527534D01*
X0065168412Y0010614329D01*
X0065140511Y0010675692D01*
X0065120326Y0010720087D01*
X0064997946Y0010892610D01*
X0064845150Y0011038881D01*
X0064839254Y0011042687D01*
X0064812837Y0011059746D01*
X0064766459Y0011113501D01*
X0064756507Y0011183796D01*
X0064786139Y0011248314D01*
X0064803353Y0011264683D01*
X0064918201Y0011354897D01*
X0064922920Y0011358604D01*
X0064926852Y0011363135D01*
X0064926855Y0011363138D01*
X0065057621Y0011513833D01*
X0065061552Y0011518363D01*
X0065064552Y0011523549D01*
X0065064555Y0011523553D01*
X0065164467Y0011696258D01*
X0065167473Y0011701453D01*
X0065236861Y0011901271D01*
X0065267213Y0012110603D01*
X0065257433Y0012321898D01*
X0065207875Y0012527534D01*
X0065205139Y0012533553D01*
X0065153084Y0012648041D01*
X0065120326Y0012720087D01*
X0064997946Y0012892610D01*
X0064845150Y0013038881D01*
X0064839254Y0013042687D01*
X0064812837Y0013059746D01*
X0064766459Y0013113501D01*
X0064756507Y0013183796D01*
X0064777450Y0013229396D01*
X0070427787Y0013229396D01*
X0070437567Y0013018101D01*
X0070438971Y0013012276D01*
X0070438971Y0013012274D01*
X0070468988Y0012887725D01*
X0070487125Y0012812466D01*
X0070489607Y0012807008D01*
X0070489608Y0012807004D01*
X0070531608Y0012714632D01*
X0070574674Y0012619913D01*
X0070697054Y0012447389D01*
X0070701381Y0012443247D01*
X0070701386Y0012443241D01*
X0070792317Y0012356193D01*
X0070827694Y0012294639D01*
X0070824175Y0012223730D01*
X0070782879Y0012165979D01*
X0070771496Y0012158035D01*
X0070715652Y0012123477D01*
X0070590695Y0011998303D01*
X0070497885Y0011847738D01*
X0070495581Y0011840791D01*
X0070447642Y0011696258D01*
X0070442203Y0011679860D01*
X0070431500Y0011575399D01*
X0070431500Y0010774600D01*
X0070442474Y0010668834D01*
X0070498450Y0010501054D01*
X0070591522Y0010350652D01*
X0070716697Y0010225695D01*
X0070722927Y0010221855D01*
X0070722928Y0010221854D01*
X0070860090Y0010137305D01*
X0070867262Y0010132885D01*
X0070916357Y0010116601D01*
X0071028611Y0010079367D01*
X0071028613Y0010079367D01*
X0071035139Y0010077203D01*
X0071041975Y0010076502D01*
X0071041978Y0010076502D01*
X0071085031Y0010072091D01*
X0071139600Y0010066500D01*
X0072490400Y0010066500D01*
X0072493646Y0010066837D01*
X0072493650Y0010066837D01*
X0072589308Y0010076761D01*
X0072589312Y0010076763D01*
X0072596166Y0010077473D01*
X0072602702Y0010079654D01*
X0072602704Y0010079654D01*
X0072734806Y0010123728D01*
X0072763946Y0010133450D01*
X0072914348Y0010226522D01*
X0073039305Y0010351697D01*
X0073076549Y0010412118D01*
X0073128275Y0010496032D01*
X0073128276Y0010496034D01*
X0073132115Y0010502262D01*
X0073187797Y0010670138D01*
X0073198500Y0010774600D01*
X0073198500Y0011575399D01*
X0073187526Y0011681166D01*
X0073180758Y0011701453D01*
X0073133868Y0011841998D01*
X0073131550Y0011848946D01*
X0073038478Y0011999348D01*
X0072913303Y0012124305D01*
X0072861764Y0012156075D01*
X0072814271Y0012208846D01*
X0072802847Y0012278918D01*
X0072831121Y0012344042D01*
X0072850045Y0012362418D01*
X0072857920Y0012368604D01*
X0072861852Y0012373135D01*
X0072861855Y0012373138D01*
X0072992621Y0012523833D01*
X0072996552Y0012528362D01*
X0072999552Y0012533549D01*
X0072999555Y0012533553D01*
X0073099467Y0012706257D01*
X0073102473Y0012711454D01*
X0073171861Y0012911271D01*
X0073190364Y0013038881D01*
X0073201352Y0013114664D01*
X0073201352Y0013114667D01*
X0073202213Y0013120604D01*
X0073192433Y0013331899D01*
X0073147494Y0013518363D01*
X0073144281Y0013531701D01*
X0073144280Y0013531703D01*
X0073142875Y0013537534D01*
X0073127789Y0013570715D01*
X0073068345Y0013701453D01*
X0073055326Y0013730087D01*
X0072932946Y0013902611D01*
X0072780150Y0014048881D01*
X0072775119Y0014052129D01*
X0072775112Y0014052135D01*
X0072747393Y0014070032D01*
X0072701016Y0014123788D01*
X0072691063Y0014194085D01*
X0072720696Y0014258602D01*
X0072737909Y0014274970D01*
X0072852857Y0014365262D01*
X0072861506Y0014373498D01*
X0072992212Y0014524123D01*
X0072999147Y0014533847D01*
X0073099010Y0014706467D01*
X0073103984Y0014717331D01*
X0073169407Y0014905726D01*
X0073169648Y0014906716D01*
X0073168180Y0014917008D01*
X0073154615Y0014921000D01*
X0070479598Y0014921000D01*
X0070466067Y0014917027D01*
X0070464712Y0014907601D01*
X0070486194Y0014818463D01*
X0070490083Y0014807168D01*
X0070572629Y0014625618D01*
X0070578576Y0014615276D01*
X0070693968Y0014452603D01*
X0070701761Y0014443575D01*
X0070845831Y0014305658D01*
X0070855200Y0014298259D01*
X0070882577Y0014280581D01*
X0070928955Y0014226828D01*
X0070938909Y0014156531D01*
X0070909278Y0014092015D01*
X0070892063Y0014075644D01*
X0070772080Y0013981396D01*
X0070768148Y0013976865D01*
X0070768145Y0013976862D01*
X0070702551Y0013901271D01*
X0070633448Y0013821636D01*
X0070630448Y0013816451D01*
X0070630445Y0013816447D01*
X0070602561Y0013768246D01*
X0070527526Y0013638546D01*
X0070458139Y0013438728D01*
X0070427787Y0013229396D01*
X0064777450Y0013229396D01*
X0064786139Y0013248314D01*
X0064803353Y0013264683D01*
X0064918201Y0013354897D01*
X0064922920Y0013358604D01*
X0064926852Y0013363135D01*
X0064926855Y0013363138D01*
X0065057621Y0013513833D01*
X0065061552Y0013518363D01*
X0065064552Y0013523549D01*
X0065064555Y0013523553D01*
X0065164467Y0013696258D01*
X0065167473Y0013701453D01*
X0065236861Y0013901271D01*
X0065258264Y0014048881D01*
X0065266352Y0014104664D01*
X0065266352Y0014104667D01*
X0065267213Y0014110603D01*
X0065257433Y0014321898D01*
X0065207875Y0014527534D01*
X0065168412Y0014614329D01*
X0065153084Y0014648041D01*
X0065120326Y0014720087D01*
X0064997946Y0014892610D01*
X0064845150Y0015038881D01*
X0064839254Y0015042687D01*
X0064812837Y0015059746D01*
X0064766459Y0015113501D01*
X0064756507Y0015183796D01*
X0064786139Y0015248314D01*
X0064803353Y0015264683D01*
X0064918201Y0015354897D01*
X0064922920Y0015358604D01*
X0065035275Y0015488081D01*
X0065095027Y0015526421D01*
X0065130438Y0015531500D01*
X0066300233Y0015531500D01*
X0066311415Y0015530973D01*
X0066318909Y0015529298D01*
X0066326835Y0015529547D01*
X0066326836Y0015529547D01*
X0066386986Y0015531438D01*
X0066390945Y0015531500D01*
X0066418856Y0015531500D01*
X0066422791Y0015531997D01*
X0066422855Y0015532005D01*
X0066434692Y0015532938D01*
X0066466950Y0015533952D01*
X0066470969Y0015534078D01*
X0066478888Y0015534327D01*
X0066498343Y0015539978D01*
X0066517700Y0015543987D01*
X0066529930Y0015545532D01*
X0066529931Y0015545532D01*
X0066537797Y0015546526D01*
X0066545168Y0015549444D01*
X0066545170Y0015549444D01*
X0066578912Y0015562804D01*
X0066590142Y0015566649D01*
X0066624983Y0015576771D01*
X0066624984Y0015576771D01*
X0066632593Y0015578982D01*
X0066639411Y0015583015D01*
X0066639416Y0015583017D01*
X0066650028Y0015589293D01*
X0066667776Y0015597988D01*
X0066686617Y0015605448D01*
X0066693029Y0015610107D01*
X0066694503Y0015610917D01*
X0066755200Y0015626500D01*
X0067449400Y0015626500D01*
X0067452646Y0015626836D01*
X0067452650Y0015626836D01*
X0067548308Y0015636762D01*
X0067548312Y0015636762D01*
X0067555166Y0015637474D01*
X0067561702Y0015639655D01*
X0067561704Y0015639655D01*
X0067693806Y0015683727D01*
X0067722946Y0015693449D01*
X0067873348Y0015786522D01*
X0067959784Y0015873109D01*
X0068022066Y0015907188D01*
X0068092886Y0015902185D01*
X0068137976Y0015873263D01*
X0068225697Y0015785695D01*
X0068231927Y0015781855D01*
X0068231928Y0015781854D01*
X0068369090Y0015697306D01*
X0068376262Y0015692885D01*
X0068456005Y0015666436D01*
X0068537611Y0015639368D01*
X0068537613Y0015639368D01*
X0068544139Y0015637203D01*
X0068550975Y0015636503D01*
X0068550978Y0015636502D01*
X0068594031Y0015632091D01*
X0068648600Y0015626500D01*
X0069449400Y0015626500D01*
X0069452646Y0015626836D01*
X0069452650Y0015626836D01*
X0069548308Y0015636762D01*
X0069548312Y0015636762D01*
X0069555166Y0015637474D01*
X0069561702Y0015639655D01*
X0069561704Y0015639655D01*
X0069693806Y0015683727D01*
X0069722946Y0015693449D01*
X0069873348Y0015786522D01*
X0069998305Y0015911697D01*
X0070039833Y0015979067D01*
X0070087275Y0016056031D01*
X0070087276Y0016056034D01*
X0070091115Y0016062262D01*
X0070135511Y0016196113D01*
X0070144632Y0016223610D01*
X0070144632Y0016223613D01*
X0070146796Y0016230139D01*
X0070147597Y0016237942D01*
X0070153736Y0016297865D01*
X0070157500Y0016334599D01*
X0070157500Y0016415500D01*
X0070177502Y0016483621D01*
X0070231158Y0016530114D01*
X0070283500Y0016541500D01*
X0070565193Y0016541500D01*
X0070633314Y0016521498D01*
X0070667963Y0016488399D01*
X0070693584Y0016452279D01*
X0070693587Y0016452276D01*
X0070697054Y0016447389D01*
X0070849850Y0016301119D01*
X0070854881Y0016297870D01*
X0070854888Y0016297865D01*
X0070882607Y0016279967D01*
X0070928984Y0016226211D01*
X0070938937Y0016155915D01*
X0070909304Y0016091398D01*
X0070892091Y0016075030D01*
X0070777143Y0015984738D01*
X0070768494Y0015976500D01*
X0070637788Y0015825876D01*
X0070630853Y0015816153D01*
X0070530990Y0015643533D01*
X0070526016Y0015632669D01*
X0070460593Y0015444272D01*
X0070460352Y0015443283D01*
X0070461820Y0015432991D01*
X0070475385Y0015428999D01*
X0073150402Y0015428999D01*
X0073163933Y0015432973D01*
X0073165288Y0015442399D01*
X0073143806Y0015531537D01*
X0073139917Y0015542832D01*
X0073057371Y0015724381D01*
X0073051424Y0015734724D01*
X0072936032Y0015897397D01*
X0072928239Y0015906424D01*
X0072784169Y0016044342D01*
X0072774800Y0016051741D01*
X0072747423Y0016069417D01*
X0072701045Y0016123172D01*
X0072691091Y0016193468D01*
X0072720722Y0016257985D01*
X0072737937Y0016274356D01*
X0072853202Y0016364898D01*
X0072857920Y0016368604D01*
X0072861852Y0016373135D01*
X0072861855Y0016373138D01*
X0072992621Y0016523833D01*
X0072996552Y0016528362D01*
X0072999552Y0016533549D01*
X0072999555Y0016533553D01*
X0073099467Y0016706257D01*
X0073102473Y0016711454D01*
X0073171861Y0016911271D01*
X0073190364Y0017038881D01*
X0073201352Y0017114664D01*
X0073201352Y0017114667D01*
X0073202213Y0017120604D01*
X0073192433Y0017331899D01*
X0073147494Y0017518363D01*
X0073144281Y0017531701D01*
X0073144280Y0017531703D01*
X0073142875Y0017537534D01*
X0073127789Y0017570715D01*
X0073068345Y0017701454D01*
X0073055326Y0017730087D01*
X0072932946Y0017902611D01*
X0072780150Y0018048881D01*
X0072775119Y0018052130D01*
X0072775112Y0018052135D01*
X0072747393Y0018070033D01*
X0072701016Y0018123789D01*
X0072691063Y0018194085D01*
X0072720696Y0018258602D01*
X0072737909Y0018274970D01*
X0072852857Y0018365262D01*
X0072861506Y0018373499D01*
X0072992212Y0018524123D01*
X0072999147Y0018533847D01*
X0073099010Y0018706467D01*
X0073103984Y0018717331D01*
X0073169407Y0018905727D01*
X0073169648Y0018906716D01*
X0073168180Y0018917008D01*
X0073154615Y0018921000D01*
X0070479598Y0018921000D01*
X0070466067Y0018917027D01*
X0070464712Y0018907601D01*
X0070486194Y0018818463D01*
X0070490083Y0018807168D01*
X0070572629Y0018625618D01*
X0070578576Y0018615276D01*
X0070693968Y0018452603D01*
X0070701761Y0018443575D01*
X0070845831Y0018305658D01*
X0070855200Y0018298259D01*
X0070882577Y0018280582D01*
X0070928955Y0018226828D01*
X0070938909Y0018156532D01*
X0070909278Y0018092015D01*
X0070892063Y0018075644D01*
X0070772080Y0017981396D01*
X0070659725Y0017851918D01*
X0070599973Y0017813579D01*
X0070564561Y0017808500D01*
X0070000367Y0017808500D01*
X0069932245Y0017828502D01*
X0069911349Y0017845327D01*
X0069877483Y0017879134D01*
X0069872303Y0017884305D01*
X0069844779Y0017901271D01*
X0069727968Y0017973275D01*
X0069727966Y0017973276D01*
X0069721738Y0017977115D01*
X0069561254Y0018030345D01*
X0069560389Y0018030632D01*
X0069560387Y0018030632D01*
X0069553861Y0018032797D01*
X0069547025Y0018033497D01*
X0069547022Y0018033498D01*
X0069503969Y0018037909D01*
X0069449400Y0018043500D01*
X0068648600Y0018043500D01*
X0068645354Y0018043163D01*
X0068645350Y0018043163D01*
X0068549692Y0018033238D01*
X0068549688Y0018033237D01*
X0068542834Y0018032526D01*
X0068536298Y0018030345D01*
X0068536296Y0018030345D01*
X0068404194Y0017986272D01*
X0068375054Y0017976550D01*
X0068224652Y0017883478D01*
X0068186568Y0017845327D01*
X0068138216Y0017796891D01*
X0068075934Y0017762812D01*
X0068005114Y0017767815D01*
X0067960025Y0017796736D01*
X0067877483Y0017879134D01*
X0067872303Y0017884305D01*
X0067844779Y0017901271D01*
X0067727968Y0017973275D01*
X0067727966Y0017973276D01*
X0067721738Y0017977115D01*
X0067561254Y0018030345D01*
X0067560389Y0018030632D01*
X0067560387Y0018030632D01*
X0067553861Y0018032797D01*
X0067547025Y0018033497D01*
X0067547022Y0018033498D01*
X0067503969Y0018037909D01*
X0067449400Y0018043500D01*
X0066681764Y0018043500D01*
X0066613642Y0018063502D01*
X0066567150Y0018117158D01*
X0066557046Y0018187432D01*
X0066586540Y0018252012D01*
X0066630515Y0018284607D01*
X0066670922Y0018302597D01*
X0066670924Y0018302598D01*
X0066676952Y0018305282D01*
X0066831452Y0018417534D01*
X0066835875Y0018422445D01*
X0066954820Y0018554548D01*
X0066954822Y0018554549D01*
X0066959239Y0018559456D01*
X0067048831Y0018714632D01*
X0067051423Y0018719121D01*
X0067051424Y0018719122D01*
X0067054727Y0018724844D01*
X0067113742Y0018906472D01*
X0067114850Y0018917008D01*
X0067128000Y0019042134D01*
X0067131107Y0019071692D01*
X0067158120Y0019137349D01*
X0067167322Y0019147617D01*
X0067466289Y0019446584D01*
X0067528601Y0019480610D01*
X0067542368Y0019482814D01*
X0067555166Y0019484142D01*
X0067722946Y0019540118D01*
X0067873348Y0019633190D01*
X0067959784Y0019719777D01*
X0068022066Y0019753856D01*
X0068092886Y0019748853D01*
X0068137975Y0019719932D01*
X0068213431Y0019644608D01*
X0068225697Y0019632363D01*
X0068231927Y0019628523D01*
X0068231928Y0019628522D01*
X0068369090Y0019543974D01*
X0068376262Y0019539553D01*
X0068400430Y0019531537D01*
X0068537611Y0019486036D01*
X0068537613Y0019486036D01*
X0068544139Y0019483871D01*
X0068550975Y0019483171D01*
X0068550978Y0019483170D01*
X0068594031Y0019478759D01*
X0068648600Y0019473168D01*
X0069449400Y0019473168D01*
X0069452646Y0019473505D01*
X0069452650Y0019473505D01*
X0069548308Y0019483430D01*
X0069548312Y0019483431D01*
X0069555166Y0019484142D01*
X0069561702Y0019486323D01*
X0069561704Y0019486323D01*
X0069697226Y0019531537D01*
X0069722946Y0019540118D01*
X0069873348Y0019633190D01*
X0069998305Y0019758365D01*
X0070002146Y0019764596D01*
X0070087275Y0019902700D01*
X0070087276Y0019902702D01*
X0070091115Y0019908930D01*
X0070138483Y0020051741D01*
X0070144632Y0020070279D01*
X0070144632Y0020070281D01*
X0070146796Y0020076807D01*
X0070157500Y0020181268D01*
X0070157500Y0020415500D01*
X0070177502Y0020483621D01*
X0070231158Y0020530114D01*
X0070283500Y0020541500D01*
X0070565193Y0020541500D01*
X0070633314Y0020521498D01*
X0070667963Y0020488399D01*
X0070693584Y0020452280D01*
X0070693587Y0020452276D01*
X0070697054Y0020447389D01*
X0070849850Y0020301119D01*
X0070854881Y0020297870D01*
X0070854888Y0020297865D01*
X0070882607Y0020279967D01*
X0070928984Y0020226211D01*
X0070938937Y0020155915D01*
X0070909304Y0020091398D01*
X0070892091Y0020075030D01*
X0070777143Y0019984738D01*
X0070768494Y0019976501D01*
X0070637788Y0019825877D01*
X0070630853Y0019816153D01*
X0070530990Y0019643533D01*
X0070526016Y0019632669D01*
X0070460593Y0019444273D01*
X0070460352Y0019443284D01*
X0070461820Y0019432992D01*
X0070475385Y0019429000D01*
X0073150402Y0019429000D01*
X0073163933Y0019432973D01*
X0073165288Y0019442399D01*
X0073143806Y0019531537D01*
X0073139917Y0019542832D01*
X0073057371Y0019724382D01*
X0073051424Y0019734724D01*
X0072936032Y0019897397D01*
X0072928239Y0019906425D01*
X0072784169Y0020044342D01*
X0072774800Y0020051741D01*
X0072747423Y0020069418D01*
X0072701045Y0020123172D01*
X0072691091Y0020193468D01*
X0072720722Y0020257985D01*
X0072737937Y0020274356D01*
X0072853202Y0020364898D01*
X0072857920Y0020368604D01*
X0072861852Y0020373135D01*
X0072861855Y0020373138D01*
X0072992621Y0020523833D01*
X0072996552Y0020528363D01*
X0072999552Y0020533549D01*
X0072999555Y0020533553D01*
X0073099467Y0020706258D01*
X0073102473Y0020711454D01*
X0073171861Y0020911271D01*
X0073182835Y0020986958D01*
X0073201352Y0021114664D01*
X0073201352Y0021114667D01*
X0073202213Y0021120604D01*
X0073192433Y0021331899D01*
X0073142875Y0021537534D01*
X0073127789Y0021570715D01*
X0073057806Y0021724632D01*
X0073055326Y0021730087D01*
X0072942005Y0021889840D01*
X0072936412Y0021897725D01*
X0072936411Y0021897726D01*
X0072932946Y0021902611D01*
X0072780150Y0022048881D01*
X0072775119Y0022052130D01*
X0072775112Y0022052135D01*
X0072747393Y0022070033D01*
X0072701016Y0022123789D01*
X0072691063Y0022194085D01*
X0072720696Y0022258602D01*
X0072737909Y0022274970D01*
X0072852857Y0022365262D01*
X0072861506Y0022373499D01*
X0072992212Y0022524123D01*
X0072999147Y0022533847D01*
X0073099010Y0022706467D01*
X0073103984Y0022717331D01*
X0073169407Y0022905727D01*
X0073169648Y0022906716D01*
X0073168180Y0022917008D01*
X0073154615Y0022921000D01*
X0070479598Y0022921000D01*
X0070466067Y0022917027D01*
X0070464712Y0022907601D01*
X0070486194Y0022818463D01*
X0070490083Y0022807168D01*
X0070572629Y0022625618D01*
X0070578576Y0022615276D01*
X0070693968Y0022452603D01*
X0070701761Y0022443575D01*
X0070845831Y0022305658D01*
X0070855200Y0022298259D01*
X0070882577Y0022280582D01*
X0070928955Y0022226828D01*
X0070938909Y0022156532D01*
X0070909278Y0022092015D01*
X0070892063Y0022075644D01*
X0070772080Y0021981396D01*
X0070659725Y0021851918D01*
X0070599973Y0021813579D01*
X0070564561Y0021808500D01*
X0069780439Y0021808500D01*
X0069727486Y0021820240D01*
X0069721738Y0021823783D01*
X0069714792Y0021826087D01*
X0069714790Y0021826088D01*
X0069560389Y0021877300D01*
X0069560387Y0021877300D01*
X0069553861Y0021879465D01*
X0069547025Y0021880165D01*
X0069547022Y0021880166D01*
X0069503969Y0021884577D01*
X0069449400Y0021890168D01*
X0068648600Y0021890168D01*
X0068645354Y0021889831D01*
X0068645350Y0021889831D01*
X0068549692Y0021879906D01*
X0068549688Y0021879905D01*
X0068542834Y0021879194D01*
X0068536298Y0021877013D01*
X0068536296Y0021877013D01*
X0068461081Y0021851919D01*
X0068375054Y0021823218D01*
X0068224652Y0021730146D01*
X0068142501Y0021647851D01*
X0068138216Y0021643559D01*
X0068075934Y0021609480D01*
X0068005114Y0021614483D01*
X0067960025Y0021643404D01*
X0067877483Y0021725802D01*
X0067872303Y0021730973D01*
X0067865812Y0021734974D01*
X0067727968Y0021819943D01*
X0067727966Y0021819944D01*
X0067721738Y0021823783D01*
X0067561254Y0021877013D01*
X0067560389Y0021877300D01*
X0067560387Y0021877300D01*
X0067553861Y0021879465D01*
X0067547025Y0021880165D01*
X0067547022Y0021880166D01*
X0067503969Y0021884577D01*
X0067449400Y0021890168D01*
X0066648600Y0021890168D01*
X0066645354Y0021889831D01*
X0066645349Y0021889831D01*
X0066549691Y0021879906D01*
X0066549688Y0021879905D01*
X0066542834Y0021879194D01*
X0066536298Y0021877013D01*
X0066536295Y0021877013D01*
X0066461081Y0021851919D01*
X0066375054Y0021823218D01*
X0066368821Y0021819362D01*
X0066368823Y0021819362D01*
X0066334802Y0021798310D01*
X0066266351Y0021779472D01*
X0066198581Y0021800633D01*
X0066153009Y0021855074D01*
X0066142500Y0021905454D01*
X0066142500Y0023235406D01*
X0066162502Y0023303527D01*
X0066179405Y0023324501D01*
X0066222352Y0023367448D01*
X0066284664Y0023401474D01*
X0066355479Y0023396409D01*
X0066364698Y0023392547D01*
X0066370030Y0023390060D01*
X0066376262Y0023386219D01*
X0066383207Y0023383916D01*
X0066383210Y0023383914D01*
X0066537611Y0023332702D01*
X0066537612Y0023332702D01*
X0066544139Y0023330537D01*
X0066550974Y0023329837D01*
X0066550978Y0023329836D01*
X0066594031Y0023325425D01*
X0066648600Y0023319834D01*
X0067449400Y0023319834D01*
X0067452646Y0023320171D01*
X0067452650Y0023320171D01*
X0067548308Y0023330096D01*
X0067548312Y0023330097D01*
X0067555166Y0023330808D01*
X0067561702Y0023332989D01*
X0067561704Y0023332989D01*
X0067693806Y0023377062D01*
X0067722946Y0023386784D01*
X0067873348Y0023479856D01*
X0067959784Y0023566443D01*
X0068022066Y0023600522D01*
X0068092886Y0023595519D01*
X0068137976Y0023566598D01*
X0068225697Y0023479029D01*
X0068231927Y0023475189D01*
X0068231928Y0023475188D01*
X0068369090Y0023390640D01*
X0068376262Y0023386219D01*
X0068432855Y0023367448D01*
X0068537611Y0023332702D01*
X0068537613Y0023332702D01*
X0068544139Y0023330537D01*
X0068550975Y0023329837D01*
X0068550978Y0023329836D01*
X0068594031Y0023325425D01*
X0068648600Y0023319834D01*
X0069449400Y0023319834D01*
X0069452646Y0023320171D01*
X0069452650Y0023320171D01*
X0069548308Y0023330096D01*
X0069548312Y0023330097D01*
X0069555166Y0023330808D01*
X0069561702Y0023332989D01*
X0069561704Y0023332989D01*
X0069693806Y0023377062D01*
X0069722946Y0023386784D01*
X0069873348Y0023479856D01*
X0069998305Y0023605031D01*
X0070002146Y0023611262D01*
X0070087275Y0023749366D01*
X0070087276Y0023749368D01*
X0070091115Y0023755596D01*
X0070138148Y0023897397D01*
X0070144632Y0023916945D01*
X0070144632Y0023916947D01*
X0070146796Y0023923473D01*
X0070157500Y0024027934D01*
X0070157500Y0024415500D01*
X0070177502Y0024483621D01*
X0070231158Y0024530113D01*
X0070283500Y0024541500D01*
X0070565193Y0024541500D01*
X0070633314Y0024521498D01*
X0070667963Y0024488399D01*
X0070693584Y0024452280D01*
X0070693587Y0024452275D01*
X0070697054Y0024447389D01*
X0070849850Y0024301119D01*
X0070854881Y0024297870D01*
X0070854888Y0024297865D01*
X0070882607Y0024279967D01*
X0070928984Y0024226211D01*
X0070938937Y0024155915D01*
X0070909304Y0024091397D01*
X0070892091Y0024075030D01*
X0070777143Y0023984738D01*
X0070768494Y0023976501D01*
X0070637788Y0023825877D01*
X0070630853Y0023816153D01*
X0070530990Y0023643533D01*
X0070526016Y0023632669D01*
X0070460593Y0023444273D01*
X0070460352Y0023443284D01*
X0070461820Y0023432992D01*
X0070475385Y0023429000D01*
X0073150402Y0023429000D01*
X0073163933Y0023432973D01*
X0073165288Y0023442399D01*
X0073143806Y0023531537D01*
X0073139917Y0023542832D01*
X0073057371Y0023724382D01*
X0073051424Y0023734724D01*
X0072936032Y0023897397D01*
X0072928239Y0023906425D01*
X0072784169Y0024044342D01*
X0072774800Y0024051741D01*
X0072747423Y0024069418D01*
X0072701045Y0024123172D01*
X0072691091Y0024193468D01*
X0072720722Y0024257984D01*
X0072737937Y0024274355D01*
X0072853202Y0024364898D01*
X0072857920Y0024368603D01*
X0072861852Y0024373134D01*
X0072861855Y0024373138D01*
X0072992621Y0024523833D01*
X0072996552Y0024528363D01*
X0072999552Y0024533549D01*
X0072999555Y0024533552D01*
X0073099467Y0024706258D01*
X0073102473Y0024711454D01*
X0073171861Y0024911271D01*
X0073188426Y0025025517D01*
X0073201352Y0025114663D01*
X0073201352Y0025114667D01*
X0073202213Y0025120604D01*
X0073192433Y0025331899D01*
X0073154314Y0025490070D01*
X0073144281Y0025531701D01*
X0073144280Y0025531703D01*
X0073142875Y0025537534D01*
X0073127789Y0025570715D01*
X0073080266Y0025675234D01*
X0073055326Y0025730086D01*
X0072932946Y0025902611D01*
X0072780150Y0026048881D01*
X0072775119Y0026052130D01*
X0072775112Y0026052135D01*
X0072747393Y0026070033D01*
X0072701016Y0026123789D01*
X0072691063Y0026194085D01*
X0072720696Y0026258602D01*
X0072737909Y0026274970D01*
X0072852857Y0026365262D01*
X0072861506Y0026373499D01*
X0072992212Y0026524123D01*
X0072999147Y0026533847D01*
X0073099010Y0026706467D01*
X0073103984Y0026717331D01*
X0073169407Y0026905727D01*
X0073169648Y0026906716D01*
X0073168180Y0026917008D01*
X0073154615Y0026921000D01*
X0070479598Y0026921000D01*
X0070466067Y0026917026D01*
X0070464712Y0026907601D01*
X0070486194Y0026818463D01*
X0070490083Y0026807168D01*
X0070572629Y0026625618D01*
X0070578576Y0026615276D01*
X0070693968Y0026452603D01*
X0070701761Y0026443575D01*
X0070845831Y0026305658D01*
X0070855200Y0026298259D01*
X0070882577Y0026280582D01*
X0070928955Y0026226827D01*
X0070938909Y0026156532D01*
X0070909278Y0026092015D01*
X0070892063Y0026075644D01*
X0070772080Y0025981396D01*
X0070659725Y0025851917D01*
X0070599973Y0025813579D01*
X0070564561Y0025808500D01*
X0069693763Y0025808500D01*
X0069682579Y0025809027D01*
X0069675091Y0025810701D01*
X0069667168Y0025810451D01*
X0069607033Y0025808562D01*
X0069603075Y0025808500D01*
X0069575144Y0025808500D01*
X0069571229Y0025808005D01*
X0069571225Y0025808005D01*
X0069571167Y0025807997D01*
X0069571138Y0025807994D01*
X0069559296Y0025807060D01*
X0069515110Y0025805673D01*
X0069497744Y0025800628D01*
X0069495658Y0025800022D01*
X0069476306Y0025796014D01*
X0069469235Y0025795120D01*
X0069456203Y0025793474D01*
X0069448834Y0025790557D01*
X0069448832Y0025790556D01*
X0069415097Y0025777200D01*
X0069403869Y0025773355D01*
X0069361407Y0025761018D01*
X0069354584Y0025756983D01*
X0069350184Y0025754381D01*
X0069286044Y0025736834D01*
X0068648600Y0025736834D01*
X0068645354Y0025736497D01*
X0068645350Y0025736497D01*
X0068549692Y0025726572D01*
X0068549688Y0025726571D01*
X0068542834Y0025725860D01*
X0068536298Y0025723679D01*
X0068536296Y0025723679D01*
X0068404194Y0025679606D01*
X0068375054Y0025669884D01*
X0068224652Y0025576812D01*
X0068219479Y0025571630D01*
X0068138216Y0025490225D01*
X0068075934Y0025456146D01*
X0068005114Y0025461149D01*
X0067960025Y0025490070D01*
X0067877483Y0025572468D01*
X0067872303Y0025577638D01*
X0067866072Y0025581480D01*
X0067727968Y0025666609D01*
X0067727966Y0025666610D01*
X0067721738Y0025670448D01*
X0067561254Y0025723679D01*
X0067560389Y0025723966D01*
X0067560387Y0025723966D01*
X0067553861Y0025726131D01*
X0067547025Y0025726831D01*
X0067547022Y0025726832D01*
X0067503969Y0025731243D01*
X0067449400Y0025736834D01*
X0066684701Y0025736834D01*
X0066616580Y0025756836D01*
X0066570087Y0025810492D01*
X0066559983Y0025880766D01*
X0066575582Y0025925834D01*
X0066594223Y0025958121D01*
X0066594224Y0025958122D01*
X0066597527Y0025963844D01*
X0066656542Y0026145471D01*
X0066657704Y0026156532D01*
X0066673907Y0026310692D01*
X0066700920Y0026376348D01*
X0066710122Y0026386618D01*
X0067461258Y0027137753D01*
X0067469536Y0027145286D01*
X0067474942Y0027148716D01*
X0067539620Y0027175860D01*
X0067548307Y0027176762D01*
X0067548310Y0027176763D01*
X0067555166Y0027177474D01*
X0067561702Y0027179655D01*
X0067561704Y0027179655D01*
X0067693806Y0027223728D01*
X0067722946Y0027233449D01*
X0067873348Y0027326522D01*
X0067959784Y0027413109D01*
X0068022066Y0027447188D01*
X0068092886Y0027442185D01*
X0068137975Y0027413263D01*
X0068161902Y0027389379D01*
X0068225697Y0027325695D01*
X0068231927Y0027321855D01*
X0068231928Y0027321854D01*
X0068369090Y0027237306D01*
X0068376262Y0027232885D01*
X0068456005Y0027206436D01*
X0068537611Y0027179368D01*
X0068537613Y0027179368D01*
X0068544139Y0027177203D01*
X0068550975Y0027176503D01*
X0068550978Y0027176502D01*
X0068594031Y0027172091D01*
X0068648600Y0027166500D01*
X0069449400Y0027166500D01*
X0069452646Y0027166837D01*
X0069452650Y0027166837D01*
X0069548308Y0027176762D01*
X0069548312Y0027176763D01*
X0069555166Y0027177474D01*
X0069561702Y0027179655D01*
X0069561704Y0027179655D01*
X0069693806Y0027223728D01*
X0069722946Y0027233449D01*
X0069873348Y0027326522D01*
X0069998305Y0027451697D01*
X0070002146Y0027457928D01*
X0070087275Y0027596032D01*
X0070087276Y0027596034D01*
X0070091115Y0027602262D01*
X0070123534Y0027700001D01*
X0070144632Y0027763610D01*
X0070144632Y0027763613D01*
X0070146796Y0027770139D01*
X0070157500Y0027874600D01*
X0070157500Y0028415500D01*
X0070177502Y0028483621D01*
X0070231158Y0028530113D01*
X0070283500Y0028541500D01*
X0070565193Y0028541500D01*
X0070633314Y0028521498D01*
X0070667963Y0028488399D01*
X0070693584Y0028452280D01*
X0070693587Y0028452275D01*
X0070697054Y0028447389D01*
X0070849850Y0028301119D01*
X0070854881Y0028297870D01*
X0070854888Y0028297865D01*
X0070882607Y0028279967D01*
X0070928984Y0028226211D01*
X0070938937Y0028155915D01*
X0070909304Y0028091397D01*
X0070892091Y0028075030D01*
X0070777143Y0027984738D01*
X0070768494Y0027976501D01*
X0070637788Y0027825877D01*
X0070630853Y0027816153D01*
X0070530990Y0027643532D01*
X0070526016Y0027632669D01*
X0070460593Y0027444273D01*
X0070460352Y0027443284D01*
X0070461820Y0027432992D01*
X0070475385Y0027429000D01*
X0073150402Y0027429000D01*
X0073163933Y0027432973D01*
X0073165288Y0027442399D01*
X0073143806Y0027531537D01*
X0073139917Y0027542832D01*
X0073057371Y0027724382D01*
X0073051424Y0027734724D01*
X0072936032Y0027897396D01*
X0072928239Y0027906425D01*
X0072784169Y0028044342D01*
X0072774800Y0028051741D01*
X0072747423Y0028069418D01*
X0072701045Y0028123172D01*
X0072691091Y0028193468D01*
X0072720722Y0028257984D01*
X0072737937Y0028274355D01*
X0072853202Y0028364898D01*
X0072857920Y0028368603D01*
X0072861852Y0028373134D01*
X0072861855Y0028373138D01*
X0072992621Y0028523833D01*
X0072996552Y0028528363D01*
X0072999552Y0028533549D01*
X0072999555Y0028533552D01*
X0073099467Y0028706258D01*
X0073102473Y0028711454D01*
X0073171861Y0028911271D01*
X0073180815Y0028973022D01*
X0073201352Y0029114663D01*
X0073201352Y0029114667D01*
X0073202213Y0029120604D01*
X0073192433Y0029331899D01*
X0073152615Y0029497118D01*
X0073144281Y0029531701D01*
X0073144280Y0029531703D01*
X0073142875Y0029537534D01*
X0073127827Y0029570632D01*
X0073079587Y0029676728D01*
X0073055326Y0029730086D01*
X0072932946Y0029902611D01*
X0072780150Y0030048881D01*
X0072602452Y0030163620D01*
X0072542354Y0030187840D01*
X0072411832Y0030240442D01*
X0072411829Y0030240443D01*
X0072406263Y0030242686D01*
X0072198663Y0030283228D01*
X0072193101Y0030283500D01*
X0071487154Y0030283500D01*
X0071329433Y0030268452D01*
X0071126466Y0030208908D01*
X0071121139Y0030206164D01*
X0071121138Y0030206164D01*
X0070943751Y0030114804D01*
X0070943748Y0030114801D01*
X0070938420Y0030112057D01*
X0070772080Y0029981396D01*
X0070659725Y0029851917D01*
X0070599973Y0029813579D01*
X0070564561Y0029808500D01*
X0069927767Y0029808500D01*
X0069916584Y0029809027D01*
X0069909091Y0029810702D01*
X0069901165Y0029810453D01*
X0069901164Y0029810453D01*
X0069841001Y0029808562D01*
X0069837043Y0029808500D01*
X0069809144Y0029808500D01*
X0069805154Y0029807996D01*
X0069793320Y0029807064D01*
X0069749111Y0029805674D01*
X0069741497Y0029803462D01*
X0069741492Y0029803461D01*
X0069729659Y0029800023D01*
X0069710296Y0029796011D01*
X0069690203Y0029793474D01*
X0069682836Y0029790557D01*
X0069682831Y0029790556D01*
X0069649092Y0029777198D01*
X0069637865Y0029773353D01*
X0069595407Y0029761018D01*
X0069588581Y0029756981D01*
X0069577972Y0029750707D01*
X0069560224Y0029742012D01*
X0069541383Y0029734552D01*
X0069534967Y0029729889D01*
X0069534966Y0029729889D01*
X0069505613Y0029708564D01*
X0069495693Y0029702047D01*
X0069464465Y0029683580D01*
X0069464462Y0029683578D01*
X0069457638Y0029679541D01*
X0069443317Y0029665221D01*
X0069428284Y0029652381D01*
X0069411892Y0029640472D01*
X0069406843Y0029634368D01*
X0069406839Y0029634363D01*
X0069402555Y0029629185D01*
X0069343721Y0029589447D01*
X0069305470Y0029583500D01*
X0068648600Y0029583500D01*
X0068645354Y0029583163D01*
X0068645350Y0029583163D01*
X0068549692Y0029573238D01*
X0068549688Y0029573237D01*
X0068542834Y0029572526D01*
X0068536298Y0029570345D01*
X0068536296Y0029570345D01*
X0068420467Y0029531701D01*
X0068375054Y0029516550D01*
X0068224652Y0029423478D01*
X0068139051Y0029337727D01*
X0068138216Y0029336891D01*
X0068075934Y0029302812D01*
X0068005114Y0029307814D01*
X0067960025Y0029336736D01*
X0067877483Y0029419134D01*
X0067872303Y0029424305D01*
X0067866072Y0029428146D01*
X0067727968Y0029513275D01*
X0067727966Y0029513275D01*
X0067721738Y0029517115D01*
X0067561254Y0029570345D01*
X0067560389Y0029570632D01*
X0067560387Y0029570632D01*
X0067553861Y0029572797D01*
X0067547025Y0029573497D01*
X0067547022Y0029573498D01*
X0067503969Y0029577909D01*
X0067449400Y0029583500D01*
X0066648600Y0029583500D01*
X0066645354Y0029583163D01*
X0066645349Y0029583163D01*
X0066549691Y0029573238D01*
X0066549688Y0029573237D01*
X0066542834Y0029572526D01*
X0066536298Y0029570345D01*
X0066536295Y0029570345D01*
X0066420467Y0029531701D01*
X0066375054Y0029516550D01*
X0066224652Y0029423478D01*
X0066099695Y0029298303D01*
X0066095855Y0029292073D01*
X0066095854Y0029292071D01*
X0066033784Y0029191377D01*
X0066006885Y0029147738D01*
X0065951202Y0028979861D01*
X0065950503Y0028973025D01*
X0065950502Y0028973022D01*
X0065946090Y0028929969D01*
X0065940500Y0028875400D01*
X0065940500Y0027874600D01*
X0065951474Y0027768834D01*
X0065953655Y0027762298D01*
X0065953655Y0027762296D01*
X0065980926Y0027680553D01*
X0066007450Y0027601053D01*
X0066010640Y0027595898D01*
X0066021348Y0027526237D01*
X0065992482Y0027461373D01*
X0065985557Y0027453861D01*
X0065812499Y0027280804D01*
X0065750187Y0027246779D01*
X0065723404Y0027243900D01*
X0065667513Y0027243900D01*
X0065661061Y0027242528D01*
X0065661056Y0027242528D01*
X0065604851Y0027230581D01*
X0065480712Y0027204194D01*
X0065474682Y0027201509D01*
X0065474681Y0027201509D01*
X0065312278Y0027129203D01*
X0065312276Y0027129202D01*
X0065306248Y0027126518D01*
X0065151747Y0027014266D01*
X0065147325Y0027009356D01*
X0065147324Y0027009355D01*
X0065108644Y0026966395D01*
X0065048198Y0026929155D01*
X0064977215Y0026930507D01*
X0064927876Y0026959687D01*
X0064849480Y0027034736D01*
X0064845150Y0027038881D01*
X0064840119Y0027042130D01*
X0064840112Y0027042135D01*
X0064812393Y0027060033D01*
X0064766015Y0027113789D01*
X0064756063Y0027184085D01*
X0064785696Y0027248602D01*
X0064802909Y0027264970D01*
X0064917857Y0027355262D01*
X0064926506Y0027363498D01*
X0065057211Y0027514122D01*
X0065064147Y0027523847D01*
X0065164010Y0027696467D01*
X0065168983Y0027707331D01*
X0065234407Y0027895727D01*
X0065234647Y0027896715D01*
X0065233180Y0027907007D01*
X0065219615Y0027911000D01*
X0062494598Y0027911000D01*
X0062481067Y0027907027D01*
X0062479712Y0027897601D01*
X0062494673Y0027835520D01*
X0062491188Y0027764609D01*
X0062449918Y0027706839D01*
X0062383967Y0027680553D01*
X0062372180Y0027680000D01*
X0062255587Y0027680000D01*
X0062187466Y0027700001D01*
X0062140973Y0027753658D01*
X0062130869Y0027823932D01*
X0062136274Y0027846501D01*
X0062148385Y0027882179D01*
X0062151017Y0027893143D01*
X0062149040Y0027907007D01*
X0062135474Y0027911000D01*
X0059856981Y0027911000D01*
X0059843450Y0027907027D01*
X0059842158Y0027898038D01*
X0059873656Y0027774015D01*
X0059877497Y0027763168D01*
X0059963685Y0027576211D01*
X0059969436Y0027566250D01*
X0060088254Y0027398127D01*
X0060095725Y0027389379D01*
X0060235118Y0027253588D01*
X0060269956Y0027191727D01*
X0060265819Y0027120852D01*
X0060230274Y0027068604D01*
X0060132842Y0026983158D01*
X0059998181Y0026812342D01*
X0059896905Y0026619846D01*
X0059895192Y0026614328D01*
X0059842171Y0026443575D01*
X0059832403Y0026412118D01*
X0059806837Y0026196113D01*
X0059821063Y0025979067D01*
X0059822484Y0025973471D01*
X0059822485Y0025973466D01*
X0059867553Y0025796014D01*
X0059874605Y0025768247D01*
X0059877022Y0025763004D01*
X0059921728Y0025666028D01*
X0059965668Y0025570715D01*
X0059969001Y0025565998D01*
X0060075621Y0025415136D01*
X0060091204Y0025393086D01*
X0060095346Y0025389051D01*
X0060234741Y0025253259D01*
X0060269579Y0025191398D01*
X0060265442Y0025120522D01*
X0060229899Y0025068274D01*
X0060132842Y0024983158D01*
X0060129270Y0024978627D01*
X0060007807Y0024824552D01*
X0059998181Y0024812342D01*
X0059896905Y0024619846D01*
X0059895192Y0024614328D01*
X0059854606Y0024483621D01*
X0059832403Y0024412118D01*
X0059806837Y0024196113D01*
X0059821063Y0023979067D01*
X0059822484Y0023973471D01*
X0059822485Y0023973466D01*
X0059859969Y0023825877D01*
X0059874605Y0023768247D01*
X0059965668Y0023570715D01*
X0059969001Y0023565999D01*
X0060063015Y0023432973D01*
X0060091204Y0023393086D01*
X0060095346Y0023389051D01*
X0060234741Y0023253259D01*
X0060269579Y0023191398D01*
X0060265442Y0023120522D01*
X0060229899Y0023068274D01*
X0060132842Y0022983158D01*
X0059998181Y0022812342D01*
X0059896905Y0022619846D01*
X0059895192Y0022614329D01*
X0059842171Y0022443575D01*
X0059832403Y0022412118D01*
X0059806837Y0022196113D01*
X0059821063Y0021979067D01*
X0059822484Y0021973471D01*
X0059822485Y0021973466D01*
X0059861476Y0021819943D01*
X0059874605Y0021768247D01*
X0059965668Y0021570715D01*
X0060091204Y0021393086D01*
X0060095346Y0021389051D01*
X0060234741Y0021253259D01*
X0060269579Y0021191398D01*
X0060265442Y0021120522D01*
X0060229899Y0021068274D01*
X0060132842Y0020983158D01*
X0060129270Y0020978627D01*
X0060076171Y0020911271D01*
X0059998181Y0020812342D01*
X0059896905Y0020619846D01*
X0059895192Y0020614329D01*
X0059854606Y0020483621D01*
X0059832403Y0020412118D01*
X0059806837Y0020196113D01*
X0059821063Y0019979067D01*
X0059822484Y0019973471D01*
X0059822485Y0019973466D01*
X0059845299Y0019883637D01*
X0059874605Y0019768247D01*
X0059965668Y0019570715D01*
X0059969001Y0019565999D01*
X0060063015Y0019432973D01*
X0060091204Y0019393086D01*
X0060095346Y0019389051D01*
X0060234741Y0019253259D01*
X0060269579Y0019191398D01*
X0060265442Y0019120522D01*
X0060229899Y0019068274D01*
X0060132842Y0018983158D01*
X0060129270Y0018978627D01*
X0060064726Y0018896753D01*
X0059998181Y0018812342D01*
X0059896905Y0018619846D01*
X0059895192Y0018614329D01*
X0059835610Y0018422445D01*
X0059832403Y0018412118D01*
X0059806837Y0018196113D01*
X0059821063Y0017979067D01*
X0059822484Y0017973471D01*
X0059822485Y0017973466D01*
X0059863092Y0017813579D01*
X0059874605Y0017768247D01*
X0059965668Y0017570715D01*
X0059969001Y0017565999D01*
X0060058147Y0017439861D01*
X0060091204Y0017393086D01*
X0060095346Y0017389051D01*
X0060234741Y0017253259D01*
X0060269579Y0017191398D01*
X0060265442Y0017120522D01*
X0060229899Y0017068274D01*
X0060132842Y0016983158D01*
X0060129270Y0016978627D01*
X0060064726Y0016896753D01*
X0059998181Y0016812342D01*
X0059896905Y0016619845D01*
X0059895192Y0016614329D01*
X0059854606Y0016483621D01*
X0059832403Y0016412118D01*
X0059806837Y0016196113D01*
X0059821063Y0015979067D01*
X0059822484Y0015973471D01*
X0059822485Y0015973465D01*
X0059847934Y0015873263D01*
X0059874605Y0015768246D01*
X0059965668Y0015570715D01*
X0059969001Y0015565999D01*
X0060063015Y0015432973D01*
X0060091204Y0015393086D01*
X0060095346Y0015389050D01*
X0060234741Y0015253259D01*
X0060269579Y0015191398D01*
X0060265442Y0015120522D01*
X0060229899Y0015068273D01*
X0060132842Y0014983158D01*
X0060129270Y0014978627D01*
X0060064726Y0014896753D01*
X0059998181Y0014812342D01*
X0059896905Y0014619845D01*
X0059895192Y0014614329D01*
X0059842171Y0014443575D01*
X0059832403Y0014412118D01*
X0059806837Y0014196113D01*
X0059821063Y0013979067D01*
X0059822484Y0013973471D01*
X0059822485Y0013973465D01*
X0059862364Y0013816447D01*
X0059874605Y0013768246D01*
X0059965668Y0013570715D01*
X0059969001Y0013565999D01*
X0060063143Y0013432792D01*
X0060091204Y0013393086D01*
X0060095346Y0013389050D01*
X0060234741Y0013253259D01*
X0060269579Y0013191398D01*
X0060265442Y0013120522D01*
X0060229899Y0013068273D01*
X0060132842Y0012983158D01*
X0060129270Y0012978627D01*
X0060064726Y0012896753D01*
X0059998181Y0012812342D01*
X0059896905Y0012619845D01*
X0059832403Y0012412118D01*
X0059806837Y0012196113D01*
X0059821063Y0011979067D01*
X0059822484Y0011973471D01*
X0059822485Y0011973465D01*
X0059855874Y0011841998D01*
X0059874605Y0011768246D01*
X0059965668Y0011570715D01*
X0060091204Y0011393086D01*
X0060095346Y0011389050D01*
X0060234741Y0011253259D01*
X0060269579Y0011191398D01*
X0060265442Y0011120522D01*
X0060229899Y0011068273D01*
X0060132842Y0010983158D01*
X0060129270Y0010978627D01*
X0060064726Y0010896753D01*
X0059998181Y0010812342D01*
X0059896905Y0010619845D01*
X0059832403Y0010412118D01*
X0059806837Y0010196113D01*
X0059821063Y0009979067D01*
X0059874605Y0009768246D01*
X0059965668Y0009570715D01*
X0060091204Y0009393086D01*
X0060095346Y0009389050D01*
X0060234741Y0009253259D01*
X0060269579Y0009191398D01*
X0060265442Y0009120522D01*
X0060229899Y0009068273D01*
X0060132842Y0008983158D01*
X0060129270Y0008978627D01*
X0060064726Y0008896753D01*
X0059998181Y0008812342D01*
X0059896905Y0008619845D01*
X0059832403Y0008412118D01*
X0059806837Y0008196113D01*
X0059821063Y0007979067D01*
X0059833013Y0007932015D01*
X0059830395Y0007861068D01*
X0059789835Y0007802798D01*
X0059724211Y0007775706D01*
X0059710890Y0007774999D01*
X0059634000Y0007774999D01*
X0059565879Y0007795001D01*
X0059519386Y0007848658D01*
X0059508000Y0007901000D01*
X0059508000Y0028422201D01*
X0059840218Y0028422201D01*
X0059846950Y0028419000D01*
X0060722885Y0028419000D01*
X0060738124Y0028423475D01*
X0060739329Y0028424865D01*
X0060741000Y0028432548D01*
X0060741000Y0028437115D01*
X0061249000Y0028437115D01*
X0061253475Y0028421875D01*
X0061254865Y0028420671D01*
X0061262548Y0028419000D01*
X0062134485Y0028419000D01*
X0062148016Y0028422973D01*
X0062149185Y0028431108D01*
X0062148571Y0028433284D01*
X0062475352Y0028433284D01*
X0062476820Y0028422992D01*
X0062490385Y0028419000D01*
X0063582885Y0028419000D01*
X0063598124Y0028423475D01*
X0063599329Y0028424865D01*
X0063601000Y0028432548D01*
X0063601000Y0028437115D01*
X0064108999Y0028437115D01*
X0064113474Y0028421875D01*
X0064114864Y0028420671D01*
X0064122547Y0028419000D01*
X0065215402Y0028419000D01*
X0065228933Y0028422973D01*
X0065230288Y0028432399D01*
X0065208805Y0028521537D01*
X0065204916Y0028532832D01*
X0065122371Y0028714382D01*
X0065116423Y0028724724D01*
X0065001031Y0028887397D01*
X0064993239Y0028896425D01*
X0064849169Y0029034342D01*
X0064839799Y0029041742D01*
X0064811978Y0029059705D01*
X0064765601Y0029113460D01*
X0064755646Y0029183756D01*
X0064785278Y0029248272D01*
X0064802493Y0029264643D01*
X0064917857Y0029355262D01*
X0064926506Y0029363498D01*
X0065057211Y0029514122D01*
X0065064147Y0029523847D01*
X0065164010Y0029696467D01*
X0065168983Y0029707331D01*
X0065234407Y0029895727D01*
X0065234647Y0029896715D01*
X0065233180Y0029907007D01*
X0065219615Y0029911000D01*
X0064127115Y0029911000D01*
X0064111875Y0029906525D01*
X0064110671Y0029905135D01*
X0064108999Y0029897452D01*
X0064108999Y0028437115D01*
X0063601000Y0028437115D01*
X0063601000Y0029892885D01*
X0063596525Y0029908124D01*
X0063595135Y0029909329D01*
X0063587452Y0029911000D01*
X0062494598Y0029911000D01*
X0062481067Y0029907027D01*
X0062479712Y0029897601D01*
X0062501194Y0029808463D01*
X0062505083Y0029797168D01*
X0062587629Y0029615617D01*
X0062593576Y0029605276D01*
X0062708968Y0029442603D01*
X0062716761Y0029433574D01*
X0062860831Y0029295658D01*
X0062870201Y0029288258D01*
X0062898021Y0029270295D01*
X0062944399Y0029216540D01*
X0062954353Y0029146244D01*
X0062924722Y0029081727D01*
X0062907507Y0029065357D01*
X0062792143Y0028974738D01*
X0062783494Y0028966501D01*
X0062652788Y0028815877D01*
X0062645853Y0028806153D01*
X0062545990Y0028633533D01*
X0062541016Y0028622669D01*
X0062475593Y0028434272D01*
X0062475352Y0028433284D01*
X0062148571Y0028433284D01*
X0062105725Y0028585206D01*
X0062101603Y0028595945D01*
X0062010549Y0028780583D01*
X0062004538Y0028790392D01*
X0061881360Y0028955349D01*
X0061873671Y0028963889D01*
X0061755320Y0029073290D01*
X0061718875Y0029134220D01*
X0061721156Y0029205180D01*
X0061760280Y0029262690D01*
X0061830653Y0029321218D01*
X0061838782Y0029329347D01*
X0061970420Y0029487625D01*
X0061976944Y0029497118D01*
X0062077531Y0029676728D01*
X0062082210Y0029687237D01*
X0062148386Y0029882182D01*
X0062151017Y0029893143D01*
X0062149040Y0029907007D01*
X0062135474Y0029911000D01*
X0061267115Y0029911000D01*
X0061251876Y0029906525D01*
X0061250671Y0029905135D01*
X0061249000Y0029897452D01*
X0061249000Y0028437115D01*
X0060741000Y0028437115D01*
X0060741000Y0029892885D01*
X0060736525Y0029908124D01*
X0060735135Y0029909329D01*
X0060727452Y0029911000D01*
X0059856981Y0029911000D01*
X0059843450Y0029907027D01*
X0059842158Y0029898038D01*
X0059873656Y0029774015D01*
X0059877497Y0029763168D01*
X0059963685Y0029576211D01*
X0059969436Y0029566250D01*
X0060088254Y0029398127D01*
X0060095720Y0029389385D01*
X0060235477Y0029253239D01*
X0060270314Y0029191377D01*
X0060266177Y0029120501D01*
X0060230632Y0029068253D01*
X0060137552Y0028986624D01*
X0060129630Y0028978276D01*
X0060002180Y0028816606D01*
X0059995909Y0028806950D01*
X0059900060Y0028624771D01*
X0059895655Y0028614137D01*
X0059840436Y0028436300D01*
X0059840218Y0028422201D01*
X0059508000Y0028422201D01*
X0059508000Y0030678800D01*
X0059812794Y0030678800D01*
X0059831665Y0030662447D01*
X0059870049Y0030602721D01*
X0059869486Y0030529859D01*
X0059840436Y0030436300D01*
X0059840218Y0030422201D01*
X0059846950Y0030419000D01*
X0062134485Y0030419000D01*
X0062148016Y0030422973D01*
X0062149185Y0030431107D01*
X0062124510Y0030518598D01*
X0062125270Y0030589591D01*
X0062164291Y0030648902D01*
X0062229184Y0030677702D01*
X0062245779Y0030678800D01*
X0062383372Y0030678800D01*
X0062451493Y0030658798D01*
X0062497986Y0030605142D01*
X0062508090Y0030534868D01*
X0062502399Y0030511466D01*
X0062475595Y0030434279D01*
X0062475352Y0030433284D01*
X0062476820Y0030422992D01*
X0062490385Y0030419000D01*
X0065215402Y0030419000D01*
X0065228933Y0030422973D01*
X0065230288Y0030432399D01*
X0065208805Y0030521537D01*
X0065204916Y0030532832D01*
X0065186051Y0030574325D01*
X0065176064Y0030644616D01*
X0065205664Y0030709147D01*
X0065251225Y0030742334D01*
X0068219464Y0032011200D01*
X0068377064Y0032078570D01*
X0068447564Y0032086955D01*
X0068479843Y0032076907D01*
X0068483424Y0032075237D01*
X0068637710Y0032024062D01*
X0068651085Y0032021195D01*
X0068745438Y0032011528D01*
X0068751854Y0032011200D01*
X0068864385Y0032011200D01*
X0068879624Y0032015675D01*
X0068880829Y0032017065D01*
X0068882500Y0032024748D01*
X0068882500Y0032029316D01*
X0069390500Y0032029316D01*
X0069394975Y0032014077D01*
X0069396365Y0032012872D01*
X0069404048Y0032011201D01*
X0069521095Y0032011201D01*
X0069527614Y0032011538D01*
X0069623206Y0032021456D01*
X0069636600Y0032024349D01*
X0069790784Y0032075788D01*
X0069803962Y0032081961D01*
X0069941807Y0032167263D01*
X0069953208Y0032176299D01*
X0070067739Y0032291029D01*
X0070076751Y0032302439D01*
X0070161816Y0032440443D01*
X0070167963Y0032453623D01*
X0070219138Y0032607910D01*
X0070222005Y0032621285D01*
X0070231672Y0032715638D01*
X0070232000Y0032722054D01*
X0070232000Y0032972085D01*
X0070227525Y0032987324D01*
X0070226135Y0032988529D01*
X0070218452Y0032990200D01*
X0069408615Y0032990200D01*
X0069393376Y0032985725D01*
X0069392171Y0032984335D01*
X0069390500Y0032976652D01*
X0069390500Y0032029316D01*
X0068882500Y0032029316D01*
X0068882500Y0033516315D01*
X0069390500Y0033516315D01*
X0069394975Y0033501075D01*
X0069396365Y0033499871D01*
X0069404048Y0033498199D01*
X0070213884Y0033498199D01*
X0070229123Y0033502674D01*
X0070230328Y0033504064D01*
X0070231999Y0033511747D01*
X0070231999Y0033766295D01*
X0070231662Y0033772814D01*
X0070221743Y0033868406D01*
X0070218851Y0033881800D01*
X0070167412Y0034035984D01*
X0070161239Y0034049162D01*
X0070075937Y0034187007D01*
X0070066901Y0034198408D01*
X0069952171Y0034312939D01*
X0069940760Y0034321951D01*
X0069802757Y0034407016D01*
X0069789576Y0034413163D01*
X0069635290Y0034464338D01*
X0069621914Y0034467205D01*
X0069527562Y0034476872D01*
X0069521145Y0034477200D01*
X0069408615Y0034477200D01*
X0069393376Y0034472725D01*
X0069392171Y0034471335D01*
X0069390500Y0034463651D01*
X0069390500Y0033516315D01*
X0068882500Y0033516315D01*
X0068882500Y0034459084D01*
X0068878025Y0034474323D01*
X0068876635Y0034475528D01*
X0068868952Y0034477199D01*
X0068751905Y0034477199D01*
X0068745386Y0034476862D01*
X0068649794Y0034466943D01*
X0068636400Y0034464051D01*
X0068580939Y0034445548D01*
X0068509989Y0034442964D01*
X0068448905Y0034479148D01*
X0068435486Y0034502693D01*
X0068430000Y0034507447D01*
X0068430000Y0034514200D01*
X0068418329Y0034517560D01*
X0066789523Y0034986459D01*
X0065308790Y0035412729D01*
X0065248861Y0035450797D01*
X0065219026Y0035515221D01*
X0065224053Y0035573480D01*
X0065250631Y0035653611D01*
X0065250631Y0035653613D01*
X0065252797Y0035660139D01*
X0065263499Y0035764600D01*
X0065263499Y0036565400D01*
X0065252526Y0036671166D01*
X0065196550Y0036838946D01*
X0065103477Y0036989348D01*
X0064978303Y0037114305D01*
X0064972072Y0037118146D01*
X0064833968Y0037203275D01*
X0064833966Y0037203276D01*
X0064827738Y0037207115D01*
X0064667254Y0037260345D01*
X0064666388Y0037260632D01*
X0064666387Y0037260632D01*
X0064659861Y0037262797D01*
X0064653025Y0037263497D01*
X0064653021Y0037263498D01*
X0064609969Y0037267909D01*
X0064555400Y0037273500D01*
X0063154600Y0037273500D01*
X0063151354Y0037273163D01*
X0063151350Y0037273163D01*
X0063055692Y0037263238D01*
X0063055688Y0037263237D01*
X0063048834Y0037262526D01*
X0063042298Y0037260345D01*
X0063042296Y0037260345D01*
X0062910194Y0037216272D01*
X0062881054Y0037206550D01*
X0062730652Y0037113478D01*
X0062605695Y0036988303D01*
X0062601855Y0036982073D01*
X0062601854Y0036982072D01*
X0062525611Y0036858384D01*
X0062472838Y0036810890D01*
X0062418351Y0036798500D01*
X0062301291Y0036798500D01*
X0062233170Y0036818502D01*
X0062186677Y0036872158D01*
X0062176028Y0036910892D01*
X0062172598Y0036942460D01*
X0062171745Y0036950316D01*
X0062120615Y0037086705D01*
X0062033261Y0037203261D01*
X0061916705Y0037290615D01*
X0061780316Y0037341745D01*
X0061718134Y0037348500D01*
X0060271866Y0037348500D01*
X0060209684Y0037341745D01*
X0060073295Y0037290615D01*
X0059956739Y0037203261D01*
X0059869385Y0037086705D01*
X0059818255Y0036950316D01*
X0059811500Y0036888134D01*
X0059811500Y0035509281D01*
X0059808621Y0035482499D01*
X0059807947Y0035479400D01*
X0059508000Y0035479400D01*
X0059508000Y0039366000D01*
X0059528002Y0039434121D01*
X0059581658Y0039480614D01*
X0059634000Y0039492000D01*
X0061969162Y0039492000D01*
X0062006129Y0039486455D01*
G37*
G04 #@! TD.AperFunction*
G04 #@! TA.AperFunction,Conductor*
G36*
X0064335701Y0034699317D02*
G01*
X0066438999Y0033984132D01*
X0066439002Y0033984132D01*
X0066448800Y0033980800D01*
X0067493354Y0033980800D01*
X0067561475Y0033960798D01*
X0067607968Y0033907142D01*
X0067619335Y0033856972D01*
X0067640390Y0032635772D01*
X0067621566Y0032567317D01*
X0067568719Y0032519906D01*
X0067514409Y0032507599D01*
X0066474199Y0032507599D01*
X0064365261Y0031578663D01*
X0064313654Y0031567975D01*
X0060559953Y0031592387D01*
X0060491964Y0031612831D01*
X0060445821Y0031666788D01*
X0060434773Y0031718155D01*
X0060429616Y0034556403D01*
X0060449494Y0034624560D01*
X0060503066Y0034671150D01*
X0060554827Y0034682630D01*
X0063047840Y0034698225D01*
X0064294349Y0034706023D01*
X0064335701Y0034699317D01*
G37*
G04 #@! TD.AperFunction*
G04 #@! TA.AperFunction,Conductor*
G36*
X0059805000Y0030494999D02*
G01*
X0059500000Y0030494999D01*
X0059500000Y0035775000D01*
X0059805000Y0035775000D01*
X0059805000Y0030494999D01*
G37*
G04 #@! TD.AperFunction*
M02*