G04 #@! TF.GenerationSoftware,KiCad,Pcbnew,(6.0.1)*
G04 #@! TF.CreationDate,2022-07-05T00:42:15-07:00*
G04 #@! TF.ProjectId,mu100-dit,6d753130-302d-4646-9974-2e6b69636164,rev?*
G04 #@! TF.SameCoordinates,PX4a25ef0PY4c3f880*
G04 #@! TF.FileFunction,Copper,L2,Bot*
G04 #@! TF.FilePolarity,Positive*
%FSLAX46Y46*%
G04 Gerber Fmt 4.6, Leading zero omitted, Abs format (unit mm)*
G04 Created by KiCad (PCBNEW (6.0.1)) date 2022-07-05 00:42:15*
%MOMM*%
%LPD*%
G01*
G04 APERTURE LIST*
G04 Aperture macros list*
%AMRoundRect*
4,1,4,2,3,4,5,6,7,8,9,2,3,0*
1,1,$1,$2,$3*
1,1,$1,$2,$3*
1,1,$1,$2,$3*
1,1,$1,$2,$3*
20,1,$1,$2,$3,$4,$5,0*
20,1,$1,$2,$3,$4,$5,0*
20,1,$1,$2,$3,$4,$5,0*
20,1,$1,$2,$3,$4,$5,0*%
%AMFreePoly0*
4,1,13,0.5,-0.5,0,-0.5,-0.095671,-0.48097,-0.176777,-0.426777,-0.23097,-0.345671,-0.25,-0.25,-0.25,0.25,-0.23097,0.345671,-0.176777,0.426777,-0.095671,0.48097,0,0.5,0.5,0.5,0.5,-0.5,0.5,-0.5,0*%
G04 Aperture macros list end*
G04 #@! TA.AperFunction,ComponentPad*
%AMCOMP1*
4,1,3,
-0.625,0.35,
-0.625,-0.35,
0.625,-0.35,
0.625,0.35,
0*
4,1,19,
-0.625,0.6,
-0.54774575140626314,0.58776412907378839,
-0.47805368692688172,0.55225424859373684,
-0.42274575140626314,0.49694631307311826,
-0.38723587092621159,0.42725424859373684,
-0.375,0.35,
-0.38723587092621159,0.27274575140626311,
-0.42274575140626314,0.20305368692688172,
-0.47805368692688166,0.14774575140626314,
-0.54774575140626314,0.1122358709262116,
-0.625,0.099999999999999978,
-0.702254248593737,0.1122358709262116,
-0.77194631307311823,0.14774575140626309,
-0.82725424859373686,0.20305368692688167,
-0.86276412907378841,0.27274575140626311,
-0.875,0.34999999999999992,
-0.86276412907378841,0.42725424859373679,
-0.82725424859373686,0.49694631307311821,
-0.77194631307311834,0.55225424859373684,
-0.70225424859373686,0.58776412907378839,
0*
4,1,19,
-0.625,-0.099999999999999978,
-0.54774575140626314,-0.1122358709262116,
-0.47805368692688172,-0.14774575140626311,
-0.42274575140626314,-0.20305368692688169,
-0.38723587092621159,-0.27274575140626311,
-0.375,-0.35,
-0.38723587092621159,-0.42725424859373684,
-0.42274575140626314,-0.49694631307311821,
-0.47805368692688166,-0.55225424859373684,
-0.54774575140626314,-0.58776412907378839,
-0.625,-0.6,
-0.702254248593737,-0.58776412907378839,
-0.77194631307311823,-0.55225424859373684,
-0.82725424859373686,-0.49694631307311832,
-0.86276412907378841,-0.42725424859373684,
-0.875,-0.35000000000000003,
-0.86276412907378841,-0.27274575140626317,
-0.82725424859373686,-0.20305368692688175,
-0.77194631307311834,-0.14774575140626314,
-0.70225424859373686,-0.1122358709262116,
0*
4,1,19,
0.625,-0.099999999999999978,
0.70225424859373686,-0.1122358709262116,
0.77194631307311834,-0.14774575140626311,
0.82725424859373686,-0.20305368692688169,
0.86276412907378841,-0.27274575140626311,
0.875,-0.35,
0.86276412907378841,-0.42725424859373684,
0.82725424859373686,-0.49694631307311821,
0.77194631307311834,-0.55225424859373684,
0.70225424859373686,-0.58776412907378839,
0.625,-0.6,
0.547745751406263,-0.58776412907378839,
0.47805368692688177,-0.55225424859373684,
0.42274575140626314,-0.49694631307311832,
0.38723587092621159,-0.42725424859373684,
0.375,-0.35000000000000003,
0.38723587092621159,-0.27274575140626317,
0.42274575140626314,-0.20305368692688175,
0.47805368692688166,-0.14774575140626314,
0.54774575140626314,-0.1122358709262116,
0*
4,1,19,
0.625,0.6,
0.70225424859373686,0.58776412907378839,
0.77194631307311834,0.55225424859373684,
0.82725424859373686,0.49694631307311826,
0.86276412907378841,0.42725424859373684,
0.875,0.35,
0.86276412907378841,0.27274575140626311,
0.82725424859373686,0.20305368692688172,
0.77194631307311834,0.14774575140626314,
0.70225424859373686,0.1122358709262116,
0.625,0.099999999999999978,
0.547745751406263,0.1122358709262116,
0.47805368692688177,0.14774575140626309,
0.42274575140626314,0.20305368692688167,
0.38723587092621159,0.27274575140626311,
0.375,0.34999999999999992,
0.38723587092621159,0.42725424859373679,
0.42274575140626314,0.49694631307311821,
0.47805368692688166,0.55225424859373684,
0.54774575140626314,0.58776412907378839,
0*
4,1,3,
-0.875,0.35,
-0.375,0.35,
-0.375,-0.35,
-0.875,-0.35,
0*
4,1,3,
-0.625,-0.6,
-0.625,-0.099999999999999978,
0.625,-0.099999999999999978,
0.625,-0.6,
0*
4,1,3,
0.875,-0.35,
0.375,-0.35,
0.375,0.35,
0.875,0.35,
0*
4,1,3,
0.625,0.6,
0.625,0.099999999999999978,
-0.625,0.099999999999999978,
-0.625,0.6,
0*%
%ADD10COMP1,0.25X-0.625X0.35X-0.625X-0.35X0.625X-0.35X0.625X0.35X0*%
G04 #@! TD*
G04 #@! TA.AperFunction,ComponentPad*
%ADD11O,1.75X1.2*%
G04 #@! TD*
G04 #@! TA.AperFunction,ConnectorPad*
%ADD12C,5.7*%
G04 #@! TD*
G04 #@! TA.AperFunction,ComponentPad*
%ADD13C,3.6*%
G04 #@! TD*
G04 #@! TA.AperFunction,ComponentPad*
%ADD14C,1.524*%
G04 #@! TD*
G04 #@! TA.AperFunction,ComponentPad*
%ADD15R,1.7X1.7*%
G04 #@! TD*
G04 #@! TA.AperFunction,ComponentPad*
%ADD16O,1.7X1.7*%
G04 #@! TD*
G04 #@! TA.AperFunction,SMDPad,CuDef*
%AMCOMP2*
4,1,12,
0.5,-0.5,
0,-0.5,
-0.095671,-0.48097,
-0.176777,-0.426777,
-0.23097,-0.345671,
-0.25,-0.25,
-0.25,0.25,
-0.23097,0.345671,
-0.176777,0.426777,
-0.095671,0.48097,
0,0.5,
0.5,0.5,
0.5,-0.5,
0*%
%ADD17COMP2,0*%
G04 #@! TD*
G04 #@! TA.AperFunction,SMDPad,CuDef*
%AMCOMP3*
4,1,12,
0.5,-0.5,
0,-0.5,
-0.095671,-0.48097,
-0.176777,-0.426777,
-0.23097,-0.345671,
-0.25,-0.25,
-0.25,0.25,
-0.23097,0.345671,
-0.176777,0.426777,
-0.095671,0.48097,
0,0.5,
0.5,0.5,
0.5,-0.5,
0*%
%ADD18COMP3,180*%
G04 #@! TD*
G04 #@! TA.AperFunction,SMDPad,CuDef*
%AMCOMP4*
4,1,3,
0.35,0.45,
-0.35,0.45,
-0.35,-0.45,
0.35,-0.45,
0*
4,1,19,
0.35,0.7,
0.42725424859373684,0.68776412907378837,
0.49694631307311826,0.65225424859373682,
0.55225424859373684,0.5969463130731183,
0.58776412907378839,0.52725424859373682,
0.6,0.45,
0.58776412907378839,0.3727457514062632,
0.55225424859373684,0.30305368692688173,
0.49694631307311832,0.24774575140626318,
0.42725424859373684,0.21223587092621163,
0.35000000000000003,0.2,
0.27274575140626306,0.21223587092621163,
0.20305368692688172,0.24774575140626312,
0.14774575140626314,0.30305368692688173,
0.1122358709262116,0.37274575140626309,
0.099999999999999978,0.44999999999999996,
0.11223587092621157,0.52725424859373682,
0.14774575140626309,0.5969463130731183,
0.20305368692688164,0.65225424859373682,
0.27274575140626306,0.68776412907378837,
0*
4,1,19,
-0.35,0.7,
-0.27274575140626311,0.68776412907378837,
-0.20305368692688169,0.65225424859373682,
-0.14774575140626311,0.5969463130731183,
-0.1122358709262116,0.52725424859373682,
-0.099999999999999978,0.45,
-0.11223587092621157,0.3727457514062632,
-0.14774575140626311,0.30305368692688173,
-0.20305368692688167,0.24774575140626318,
-0.27274575140626311,0.21223587092621163,
-0.34999999999999992,0.2,
-0.4272542485937369,0.21223587092621163,
-0.49694631307311821,0.24774575140626312,
-0.55225424859373684,0.30305368692688173,
-0.58776412907378839,0.37274575140626309,
-0.6,0.44999999999999996,
-0.58776412907378839,0.52725424859373682,
-0.55225424859373684,0.5969463130731183,
-0.49694631307311832,0.65225424859373682,
-0.4272542485937369,0.68776412907378837,
0*
4,1,19,
-0.35,-0.2,
-0.27274575140626311,-0.21223587092621163,
-0.20305368692688169,-0.24774575140626315,
-0.14774575140626311,-0.30305368692688173,
-0.1122358709262116,-0.37274575140626315,
-0.099999999999999978,-0.45,
-0.11223587092621157,-0.52725424859373682,
-0.14774575140626311,-0.5969463130731183,
-0.20305368692688167,-0.65225424859373682,
-0.27274575140626311,-0.68776412907378837,
-0.34999999999999992,-0.7,
-0.4272542485937369,-0.68776412907378837,
-0.49694631307311821,-0.65225424859373693,
-0.55225424859373684,-0.5969463130731183,
-0.58776412907378839,-0.52725424859373693,
-0.6,-0.45000000000000007,
-0.58776412907378839,-0.3727457514062632,
-0.55225424859373684,-0.30305368692688178,
-0.49694631307311832,-0.24774575140626318,
-0.4272542485937369,-0.21223587092621163,
0*
4,1,19,
0.35,-0.2,
0.42725424859373684,-0.21223587092621163,
0.49694631307311826,-0.24774575140626315,
0.55225424859373684,-0.30305368692688173,
0.58776412907378839,-0.37274575140626315,
0.6,-0.45,
0.58776412907378839,-0.52725424859373682,
0.55225424859373684,-0.5969463130731183,
0.49694631307311832,-0.65225424859373682,
0.42725424859373684,-0.68776412907378837,
0.35000000000000003,-0.7,
0.27274575140626306,-0.68776412907378837,
0.20305368692688172,-0.65225424859373693,
0.14774575140626314,-0.5969463130731183,
0.1122358709262116,-0.52725424859373693,
0.099999999999999978,-0.45000000000000007,
0.11223587092621157,-0.3727457514062632,
0.14774575140626309,-0.30305368692688178,
0.20305368692688164,-0.24774575140626318,
0.27274575140626306,-0.21223587092621163,
0*
4,1,3,
0.35,0.7,
0.35,0.2,
-0.35,0.2,
-0.35,0.7,
0*
4,1,3,
-0.6,0.45,
-0.099999999999999978,0.45,
-0.099999999999999978,-0.45,
-0.6,-0.45,
0*
4,1,3,
-0.35,-0.7,
-0.35,-0.2,
0.35,-0.2,
0.35,-0.7,
0*
4,1,3,
0.6,-0.45,
0.099999999999999978,-0.45,
0.099999999999999978,0.45,
0.6,0.45,
0*%
%ADD19COMP4,0.25X0.35X0.45X-0.35X0.45X-0.35X-0.45X0.35X-0.45X0*%
G04 #@! TD*
G04 #@! TA.AperFunction,SMDPad,CuDef*
%AMCOMP5*
4,1,3,
-0.35,-0.45,
0.35,-0.45,
0.35,0.45,
-0.35,0.45,
0*
4,1,19,
-0.35,-0.2,
-0.27274575140626311,-0.21223587092621163,
-0.20305368692688169,-0.24774575140626315,
-0.14774575140626311,-0.30305368692688173,
-0.1122358709262116,-0.37274575140626315,
-0.099999999999999978,-0.45,
-0.11223587092621157,-0.52725424859373682,
-0.14774575140626311,-0.5969463130731183,
-0.20305368692688167,-0.65225424859373682,
-0.27274575140626311,-0.68776412907378837,
-0.34999999999999992,-0.7,
-0.4272542485937369,-0.68776412907378837,
-0.49694631307311821,-0.65225424859373693,
-0.55225424859373684,-0.5969463130731183,
-0.58776412907378839,-0.52725424859373693,
-0.6,-0.45000000000000007,
-0.58776412907378839,-0.3727457514062632,
-0.55225424859373684,-0.30305368692688178,
-0.49694631307311832,-0.24774575140626318,
-0.4272542485937369,-0.21223587092621163,
0*
4,1,19,
0.35,-0.2,
0.42725424859373684,-0.21223587092621163,
0.49694631307311826,-0.24774575140626315,
0.55225424859373684,-0.30305368692688173,
0.58776412907378839,-0.37274575140626315,
0.6,-0.45,
0.58776412907378839,-0.52725424859373682,
0.55225424859373684,-0.5969463130731183,
0.49694631307311832,-0.65225424859373682,
0.42725424859373684,-0.68776412907378837,
0.35000000000000003,-0.7,
0.27274575140626306,-0.68776412907378837,
0.20305368692688172,-0.65225424859373693,
0.14774575140626314,-0.5969463130731183,
0.1122358709262116,-0.52725424859373693,
0.099999999999999978,-0.45000000000000007,
0.11223587092621157,-0.3727457514062632,
0.14774575140626309,-0.30305368692688178,
0.20305368692688164,-0.24774575140626318,
0.27274575140626306,-0.21223587092621163,
0*
4,1,19,
0.35,0.7,
0.42725424859373684,0.68776412907378837,
0.49694631307311826,0.65225424859373682,
0.55225424859373684,0.5969463130731183,
0.58776412907378839,0.52725424859373682,
0.6,0.45,
0.58776412907378839,0.3727457514062632,
0.55225424859373684,0.30305368692688173,
0.49694631307311832,0.24774575140626318,
0.42725424859373684,0.21223587092621163,
0.35000000000000003,0.2,
0.27274575140626306,0.21223587092621163,
0.20305368692688172,0.24774575140626312,
0.14774575140626314,0.30305368692688173,
0.1122358709262116,0.37274575140626309,
0.099999999999999978,0.44999999999999996,
0.11223587092621157,0.52725424859373682,
0.14774575140626309,0.5969463130731183,
0.20305368692688164,0.65225424859373682,
0.27274575140626306,0.68776412907378837,
0*
4,1,19,
-0.35,0.7,
-0.27274575140626311,0.68776412907378837,
-0.20305368692688169,0.65225424859373682,
-0.14774575140626311,0.5969463130731183,
-0.1122358709262116,0.52725424859373682,
-0.099999999999999978,0.45,
-0.11223587092621157,0.3727457514062632,
-0.14774575140626311,0.30305368692688173,
-0.20305368692688167,0.24774575140626318,
-0.27274575140626311,0.21223587092621163,
-0.34999999999999992,0.2,
-0.4272542485937369,0.21223587092621163,
-0.49694631307311821,0.24774575140626312,
-0.55225424859373684,0.30305368692688173,
-0.58776412907378839,0.37274575140626309,
-0.6,0.44999999999999996,
-0.58776412907378839,0.52725424859373682,
-0.55225424859373684,0.5969463130731183,
-0.49694631307311832,0.65225424859373682,
-0.4272542485937369,0.68776412907378837,
0*
4,1,3,
-0.35,-0.7,
-0.35,-0.2,
0.35,-0.2,
0.35,-0.7,
0*
4,1,3,
0.6,-0.45,
0.099999999999999978,-0.45,
0.099999999999999978,0.45,
0.6,0.45,
0*
4,1,3,
0.35,0.7,
0.35,0.2,
-0.35,0.2,
-0.35,0.7,
0*
4,1,3,
-0.6,0.45,
-0.099999999999999978,0.45,
-0.099999999999999978,-0.45,
-0.6,-0.45,
0*%
%ADD20COMP5,0.25X-0.35X-0.45X0.35X-0.45X0.35X0.45X-0.35X0.45X0*%
G04 #@! TD*
G04 #@! TA.AperFunction,SMDPad,CuDef*
%AMCOMP6*
4,1,3,
0.3375,0.475,
-0.3375,0.475,
-0.3375,-0.475,
0.3375,-0.475,
0*
4,1,19,
0.3375,0.725,
0.41475424859373689,0.71276412907378839,
0.48444631307311831,0.67725424859373684,
0.53975424859373689,0.62194631307311821,
0.57526412907378843,0.55225424859373684,
0.5875,0.475,
0.57526412907378843,0.39774575140626311,
0.53975424859373689,0.32805368692688175,
0.48444631307311836,0.27274575140626311,
0.41475424859373689,0.2372358709262116,
0.33750000000000008,0.22499999999999998,
0.2602457514062631,0.2372358709262116,
0.19055368692688177,0.27274575140626311,
0.13524575140626319,0.32805368692688164,
0.099735870926211639,0.39774575140626311,
0.087500000000000022,0.47499999999999992,
0.099735870926211612,0.55225424859373673,
0.13524575140626313,0.62194631307311821,
0.19055368692688168,0.67725424859373684,
0.2602457514062631,0.71276412907378839,
0*
4,1,19,
-0.3375,0.725,
-0.26024575140626316,0.71276412907378839,
-0.19055368692688174,0.67725424859373684,
-0.13524575140626316,0.62194631307311821,
-0.099735870926211639,0.55225424859373684,
-0.087500000000000022,0.475,
-0.099735870926211612,0.39774575140626311,
-0.13524575140626316,0.32805368692688175,
-0.19055368692688171,0.27274575140626311,
-0.26024575140626316,0.2372358709262116,
-0.33749999999999997,0.22499999999999998,
-0.41475424859373694,0.2372358709262116,
-0.48444631307311825,0.27274575140626311,
-0.53975424859373689,0.32805368692688164,
-0.57526412907378843,0.39774575140626311,
-0.5875,0.47499999999999992,
-0.57526412907378843,0.55225424859373673,
-0.53975424859373689,0.62194631307311821,
-0.48444631307311836,0.67725424859373684,
-0.41475424859373694,0.71276412907378839,
0*
4,1,19,
-0.3375,-0.22499999999999998,
-0.26024575140626316,-0.2372358709262116,
-0.19055368692688174,-0.27274575140626311,
-0.13524575140626316,-0.32805368692688169,
-0.099735870926211639,-0.39774575140626311,
-0.087500000000000022,-0.475,
-0.099735870926211612,-0.55225424859373684,
-0.13524575140626316,-0.62194631307311821,
-0.19055368692688171,-0.67725424859373684,
-0.26024575140626316,-0.71276412907378839,
-0.33749999999999997,-0.725,
-0.41475424859373694,-0.71276412907378839,
-0.48444631307311825,-0.67725424859373684,
-0.53975424859373689,-0.62194631307311832,
-0.57526412907378843,-0.55225424859373684,
-0.5875,-0.47500000000000003,
-0.57526412907378843,-0.39774575140626317,
-0.53975424859373689,-0.32805368692688175,
-0.48444631307311836,-0.27274575140626311,
-0.41475424859373694,-0.2372358709262116,
0*
4,1,19,
0.3375,-0.22499999999999998,
0.41475424859373689,-0.2372358709262116,
0.48444631307311831,-0.27274575140626311,
0.53975424859373689,-0.32805368692688169,
0.57526412907378843,-0.39774575140626311,
0.5875,-0.475,
0.57526412907378843,-0.55225424859373684,
0.53975424859373689,-0.62194631307311821,
0.48444631307311836,-0.67725424859373684,
0.41475424859373689,-0.71276412907378839,
0.33750000000000008,-0.725,
0.2602457514062631,-0.71276412907378839,
0.19055368692688177,-0.67725424859373684,
0.13524575140626319,-0.62194631307311832,
0.099735870926211639,-0.55225424859373684,
0.087500000000000022,-0.47500000000000003,
0.099735870926211612,-0.39774575140626317,
0.13524575140626313,-0.32805368692688175,
0.19055368692688168,-0.27274575140626311,
0.2602457514062631,-0.2372358709262116,
0*
4,1,3,
0.3375,0.725,
0.3375,0.22499999999999998,
-0.3375,0.22499999999999998,
-0.3375,0.725,
0*
4,1,3,
-0.5875,0.475,
-0.087500000000000022,0.475,
-0.087500000000000022,-0.475,
-0.5875,-0.475,
0*
4,1,3,
-0.3375,-0.725,
-0.3375,-0.22499999999999998,
0.3375,-0.22499999999999998,
0.3375,-0.725,
0*
4,1,3,
0.5875,-0.475,
0.087500000000000022,-0.475,
0.087500000000000022,0.475,
0.5875,0.475,
0*%
%ADD21COMP6,0.25X0.3375X0.475X-0.3375X0.475X-0.3375X-0.475X0.3375X-0.475X0*%
G04 #@! TD*
G04 #@! TA.AperFunction,ViaPad*
%ADD22C,0.8*%
G04 #@! TD*
G04 #@! TA.AperFunction,ViaPad*
%ADD23C,0.6*%
G04 #@! TD*
G04 #@! TA.AperFunction,Conductor*
%ADD24C,0.25*%
G04 #@! TD*
G04 #@! TA.AperFunction,Conductor*
%ADD25C,0.6*%
G04 #@! TD*
G04 #@! TA.AperFunction,Conductor*
%ADD26C,0.4*%
G04 #@! TD*
G04 #@! TA.AperFunction,Conductor*
%ADD27C,0.254*%
G04 #@! TD*
G04 APERTURE END LIST*
D10*
X0000000000Y0040000000D02*
X0003280000Y0029380000D03*
D11*
X0003280000Y0027380000D03*
X0003280000Y0025380000D03*
X0003280000Y0023380000D03*
X0003280000Y0021380000D03*
X0003280000Y0019380000D03*
X0003280000Y0017380000D03*
X0003280000Y0015379999D03*
X0003280000Y0013379999D03*
X0003280000Y0011379999D03*
D12*
X0013600000Y0036500000D03*
D13*
X0013600000Y0036500000D03*
D14*
X0008870000Y0028689999D03*
X0008870000Y0026150000D03*
X0008870000Y0023610000D03*
D12*
X0013600000Y0003500000D03*
D13*
X0013600000Y0003500000D03*
D15*
X0003160000Y0034277000D03*
D16*
X0003160000Y0036817000D03*
D17*
X0006710000Y0014510000D03*
D18*
X0008010000Y0014510000D03*
D19*
X0008150000Y0032241999D03*
X0006150000Y0032241999D03*
D17*
X0006710000Y0009920000D03*
D18*
X0008010000Y0009920000D03*
D17*
X0006710000Y0016805000D03*
D18*
X0008010000Y0016805000D03*
D17*
X0012280000Y0017885000D03*
D18*
X0013580000Y0017885000D03*
D17*
X0006710000Y0019130000D03*
D18*
X0008010000Y0019130000D03*
D17*
X0012280000Y0015590000D03*
D18*
X0013580000Y0015590000D03*
D17*
X0012230000Y0009920000D03*
D18*
X0013530000Y0009920000D03*
D20*
X0006100000Y0037362000D03*
X0008100000Y0037362000D03*
D21*
X0008167500Y0034802000D03*
X0006092500Y0034802000D03*
D17*
X0012280000Y0013295000D03*
D18*
X0013580000Y0013295000D03*
D17*
X0006710000Y0012215000D03*
D18*
X0008010000Y0012215000D03*
D22*
X0009450000Y0020670000D03*
X0005100000Y0025070000D03*
X0006310000Y0027410000D03*
X0009910000Y0032030000D03*
X0011320000Y0024600000D03*
X0007220000Y0021200000D03*
X0011380000Y0027250000D03*
X0008250000Y0030320000D03*
D23*
X0005510000Y0008629999D03*
X0006266400Y0015814800D03*
X0010139978Y0013122399D03*
X0010127200Y0012207999D03*
X0010135439Y0011200239D03*
X0010127200Y0010277600D03*
X0013480000Y0014367000D03*
X0014287242Y0015213073D03*
X0014089600Y0017110200D03*
X0013175200Y0010948500D03*
X0014165800Y0011573000D03*
D24*
X0008100000Y0034192000D02*
X0008100000Y0037362000D01*
X0006150000Y0032241999D02*
X0008100000Y0034192000D01*
X0009040000Y0028689999D02*
X0008870000Y0028689999D01*
D25*
X0006340000Y0025720000D02*
X0006340000Y0023745000D01*
X0006340000Y0023745000D02*
X0008330000Y0021755000D01*
D26*
X0007020000Y0017115000D02*
X0007020000Y0019734296D01*
D25*
X0005780000Y0026150000D02*
X0008870000Y0026150000D01*
D26*
X0007020000Y0014820000D02*
X0007020000Y0016495000D01*
X0006710000Y0016805000D02*
X0007020000Y0017115000D01*
D25*
X0003280000Y0027380000D02*
X0004550000Y0027380000D01*
D26*
X0007375704Y0020090000D02*
X0008540000Y0020090000D01*
X0006710000Y0014510000D02*
X0007020000Y0014820000D01*
X0008540000Y0020090000D02*
X0010735000Y0017895000D01*
X0010735000Y0017895000D02*
X0012280000Y0017895000D01*
X0006692500Y0009930000D02*
X0006610000Y0010012500D01*
X0007020000Y0016495000D02*
X0006710000Y0016805000D01*
X0006610000Y0009920000D02*
X0006630000Y0009899999D01*
X0007020000Y0019734296D02*
X0007375704Y0020090000D01*
D25*
X0004550000Y0027380000D02*
X0005780000Y0026150000D01*
D26*
X0006610000Y0010012500D02*
X0006610000Y0014510000D01*
X0012280000Y0017895000D02*
X0012280000Y0013295000D01*
D25*
X0008330000Y0021750000D02*
X0008330000Y0020210000D01*
D24*
X0005950000Y0009070000D02*
X0005510000Y0008629999D01*
X0005950000Y0015498400D02*
X0005950000Y0009070000D01*
X0006266400Y0015814800D02*
X0005950000Y0015498400D01*
X0009690000Y0014911435D02*
X0009690000Y0017627500D01*
X0009964998Y0013297380D02*
X0009964998Y0014636437D01*
X0009964998Y0014636437D02*
X0009690000Y0014911435D01*
X0009690000Y0017627500D02*
X0008177500Y0019140000D01*
X0010139978Y0013122399D02*
X0009964998Y0013297380D01*
X0009115000Y0016815000D02*
X0008147500Y0016815000D01*
X0009170480Y0016759519D02*
X0009115000Y0016815000D01*
X0009170480Y0014795238D02*
X0009170480Y0016759519D01*
X0010127200Y0012207999D02*
X0009515478Y0012819721D01*
X0009515478Y0014450239D02*
X0009170480Y0014795238D01*
X0009515478Y0012819721D02*
X0009515478Y0014450239D01*
X0008810000Y0014520000D02*
X0008257500Y0014520000D01*
X0009065958Y0012269720D02*
X0009065958Y0014264042D01*
X0010135439Y0011200239D02*
X0009065958Y0012269720D01*
X0009065958Y0014264042D02*
X0008810000Y0014520000D01*
X0010127200Y0010325299D02*
X0008227499Y0012225000D01*
X0010127200Y0010277600D02*
X0010127200Y0010325299D01*
X0010340000Y0025080000D02*
X0010340000Y0029910000D01*
X0010340000Y0029910000D02*
X0007960000Y0032290000D01*
X0008870000Y0023610000D02*
X0010340000Y0025080000D01*
X0013480000Y0014367000D02*
X0013197500Y0014084499D01*
X0013197500Y0014084499D02*
X0013197500Y0013305000D01*
X0014287242Y0015213073D02*
X0013956927Y0015213073D01*
X0013956927Y0015213073D02*
X0013570000Y0015600000D01*
X0014089600Y0017140400D02*
X0013335000Y0017895000D01*
X0014089600Y0017110200D02*
X0014089600Y0017140400D01*
X0013175200Y0010948500D02*
X0013147500Y0010920800D01*
X0013147500Y0010920800D02*
X0013147500Y0009930000D01*
X0010355800Y0009541000D02*
X0008389000Y0009541000D01*
X0008389000Y0009541000D02*
X0008010000Y0009920000D01*
X0012387800Y0011573000D02*
X0010355800Y0009541000D01*
X0014165800Y0011573000D02*
X0012387800Y0011573000D01*
X0005562500Y0034790000D02*
X0003673000Y0034790000D01*
X0003673000Y0034790000D02*
X0003148000Y0034265000D01*
D27*
X0011353366Y0039169089D02*
X0011342956Y0039160293D01*
X0011323004Y0039141491D01*
X0011287146Y0039080215D01*
X0011290108Y0039009281D01*
X0011320323Y0038960697D01*
X0013510905Y0036770115D01*
X0013573217Y0036736089D01*
X0013644032Y0036741154D01*
X0013689095Y0036770115D01*
X0015880073Y0038961093D01*
X0015914099Y0039023405D01*
X0015909034Y0039094220D01*
X0015877713Y0039141583D01*
X0015866318Y0039152397D01*
X0015855937Y0039161232D01*
X0015587140Y0039366000D01*
X0016966000Y0039366000D01*
X0016966000Y0037399684D01*
X0016908698Y0037606310D01*
X0016904352Y0037619226D01*
X0016769865Y0037957177D01*
X0016764147Y0037969548D01*
X0016593948Y0038290997D01*
X0016586931Y0038302678D01*
X0016383012Y0038603866D01*
X0016374772Y0038614721D01*
X0016243419Y0038769608D01*
X0016184104Y0038808625D01*
X0016113112Y0038809380D01*
X0016058228Y0038777208D01*
X0013870115Y0036589095D01*
X0013836089Y0036526783D01*
X0013841154Y0036455968D01*
X0013870115Y0036410905D01*
X0016058180Y0034222840D01*
X0016120491Y0034188814D01*
X0016191306Y0034193879D01*
X0016242799Y0034229770D01*
X0016359941Y0034365958D01*
X0016368255Y0034376756D01*
X0016574273Y0034676513D01*
X0016581373Y0034688145D01*
X0016753812Y0035008398D01*
X0016759615Y0035020729D01*
X0016896458Y0035357732D01*
X0016900894Y0035370617D01*
X0016966000Y0035599174D01*
X0016966000Y0004399684D01*
X0016908698Y0004606310D01*
X0016904352Y0004619225D01*
X0016769865Y0004957177D01*
X0016764147Y0004969548D01*
X0016593948Y0005290996D01*
X0016586931Y0005302678D01*
X0016383012Y0005603865D01*
X0016374772Y0005614721D01*
X0016243419Y0005769607D01*
X0016184104Y0005808624D01*
X0016113112Y0005809379D01*
X0016058228Y0005777208D01*
X0013870115Y0003589095D01*
X0013836089Y0003526783D01*
X0013841154Y0003455967D01*
X0013870115Y0003410904D01*
X0016058180Y0001222839D01*
X0016120491Y0001188814D01*
X0016191306Y0001193879D01*
X0016242799Y0001229770D01*
X0016359941Y0001365957D01*
X0016368255Y0001376756D01*
X0016574273Y0001676513D01*
X0016581373Y0001688144D01*
X0016753812Y0002008397D01*
X0016759615Y0002020729D01*
X0016896458Y0002357731D01*
X0016900894Y0002370617D01*
X0016966000Y0002599173D01*
X0016966000Y0000634000D01*
X0015585466Y0000634000D01*
X0015837304Y0000823084D01*
X0015847744Y0000831845D01*
X0015876308Y0000858575D01*
X0015912380Y0000919724D01*
X0015909665Y0000990670D01*
X0015879310Y0001039670D01*
X0013689095Y0003229885D01*
X0013626783Y0003263911D01*
X0013555968Y0003258845D01*
X0013510905Y0003229885D01*
X0011319502Y0001038482D01*
X0011285476Y0000976170D01*
X0011290541Y0000905355D01*
X0011321555Y0000858283D01*
X0011324449Y0000855519D01*
X0011334787Y0000846660D01*
X0011611930Y0000634000D01*
X0000634000Y0000634000D01*
X0000634000Y0003505364D01*
X0010111249Y0003505364D01*
X0010129651Y0003142102D01*
X0010131076Y0003128549D01*
X0010188603Y0002769401D01*
X0010191483Y0002756081D01*
X0010287460Y0002405245D01*
X0010291761Y0002392315D01*
X0010425068Y0002053896D01*
X0010430741Y0002041505D01*
X0010599816Y0001719464D01*
X0010606794Y0001707759D01*
X0010809661Y0001405861D01*
X0010817863Y0001394976D01*
X0010956231Y0001230660D01*
X0011015410Y0001191437D01*
X0011086399Y0001190435D01*
X0011141706Y0001222726D01*
X0013329885Y0003410904D01*
X0013363911Y0003473216D01*
X0013358846Y0003544032D01*
X0013329885Y0003589095D01*
X0011141810Y0005777169D01*
X0011079498Y0005811196D01*
X0011008683Y0005806131D01*
X0010956903Y0005769905D01*
X0010832626Y0005624394D01*
X0010824350Y0005613568D01*
X0010619380Y0005313094D01*
X0010612320Y0005301437D01*
X0010441001Y0004980583D01*
X0010435242Y0004968232D01*
X0010299576Y0004630755D01*
X0010295184Y0004617854D01*
X0010196759Y0004267696D01*
X0010193786Y0004254396D01*
X0010133754Y0003895657D01*
X0010132235Y0003882114D01*
X0010111297Y0003518991D01*
X0010111249Y0003505364D01*
X0000634000Y0003505364D01*
X0000634000Y0006080215D01*
X0011287146Y0006080215D01*
X0011290108Y0006009281D01*
X0011320323Y0005960697D01*
X0013510905Y0003770114D01*
X0013573217Y0003736089D01*
X0013644032Y0003741154D01*
X0013689095Y0003770114D01*
X0015880073Y0005961092D01*
X0015914099Y0006023404D01*
X0015909034Y0006094220D01*
X0015877713Y0006141582D01*
X0015866318Y0006152397D01*
X0015855937Y0006161231D01*
X0015566602Y0006381646D01*
X0015555331Y0006389305D01*
X0015243884Y0006577182D01*
X0015231852Y0006583581D01*
X0014901936Y0006736722D01*
X0014889282Y0006741784D01*
X0014544756Y0006858398D01*
X0014531630Y0006862062D01*
X0014176525Y0006940787D01*
X0014163080Y0006943013D01*
X0013801550Y0006982926D01*
X0013787944Y0006983688D01*
X0013424218Y0006984323D01*
X0013410609Y0006983609D01*
X0013048941Y0006944958D01*
X0013035488Y0006942779D01*
X0012680111Y0006865295D01*
X0012666973Y0006861676D01*
X0012322042Y0006746263D01*
X0012309371Y0006741247D01*
X0011978922Y0006589258D01*
X0011966867Y0006582901D01*
X0011654766Y0006396113D01*
X0011643468Y0006388491D01*
X0011353366Y0006169089D01*
X0011342956Y0006160293D01*
X0011323004Y0006141491D01*
X0011287146Y0006080215D01*
X0000634000Y0006080215D01*
X0000634000Y0011428570D01*
X0001766922Y0011428570D01*
X0001776702Y0011217275D01*
X0001780074Y0011193580D01*
X0001829632Y0010987945D01*
X0001837424Y0010965315D01*
X0001924973Y0010772762D01*
X0001936904Y0010752013D01*
X0002059284Y0010579488D01*
X0002074923Y0010561371D01*
X0002227719Y0010415101D01*
X0002246502Y0010400267D01*
X0002424200Y0010285528D01*
X0002445450Y0010274514D01*
X0002641639Y0010195447D01*
X0002664587Y0010188650D01*
X0002872187Y0010148108D01*
X0002890183Y0010145921D01*
X0002895745Y0010145650D01*
X0002901899Y0010145499D01*
X0003607846Y0010145499D01*
X0003619813Y0010146070D01*
X0003777533Y0010161117D01*
X0003801035Y0010165643D01*
X0004004003Y0010225186D01*
X0004026226Y0010234076D01*
X0004214272Y0010330926D01*
X0004234413Y0010343855D01*
X0004400753Y0010474518D01*
X0004418085Y0010491024D01*
X0004556717Y0010650783D01*
X0004570616Y0010670268D01*
X0004676537Y0010853359D01*
X0004686501Y0010875121D01*
X0004755889Y0011074938D01*
X0004761557Y0011098191D01*
X0004791909Y0011307524D01*
X0004793078Y0011331430D01*
X0004783298Y0011542725D01*
X0004779926Y0011566420D01*
X0004730368Y0011772055D01*
X0004722576Y0011794685D01*
X0004635027Y0011987238D01*
X0004623096Y0012007987D01*
X0004500716Y0012180511D01*
X0004485077Y0012198629D01*
X0004332281Y0012344899D01*
X0004313498Y0012359732D01*
X0004280742Y0012380883D01*
X0004400407Y0012474882D01*
X0004417739Y0012491387D01*
X0004556308Y0012651073D01*
X0004570207Y0012670559D01*
X0004676080Y0012853568D01*
X0004686044Y0012875330D01*
X0004755401Y0013075057D01*
X0004761070Y0013098315D01*
X0004762463Y0013107925D01*
X0004752440Y0013178210D01*
X0004706009Y0013231919D01*
X0004637766Y0013251999D01*
X0001926483Y0013251999D01*
X0001858362Y0013231998D01*
X0001811869Y0013178342D01*
X0001801765Y0013108068D01*
X0001803990Y0013096478D01*
X0001830107Y0012988109D01*
X0001837899Y0012965478D01*
X0001925408Y0012773012D01*
X0001937339Y0012752263D01*
X0002059664Y0012579816D01*
X0002075303Y0012561699D01*
X0002228030Y0012415495D01*
X0002246813Y0012400661D01*
X0002279230Y0012379729D01*
X0002159247Y0012285481D01*
X0002141915Y0012268975D01*
X0002003283Y0012109217D01*
X0001989384Y0012089732D01*
X0001883463Y0011906641D01*
X0001873499Y0011884879D01*
X0001804111Y0011685061D01*
X0001798443Y0011661809D01*
X0001768091Y0011452476D01*
X0001766922Y0011428570D01*
X0000634000Y0011428570D01*
X0000634000Y0015428570D01*
X0001766922Y0015428570D01*
X0001776702Y0015217275D01*
X0001780074Y0015193580D01*
X0001829632Y0014987945D01*
X0001837424Y0014965315D01*
X0001924973Y0014772762D01*
X0001936904Y0014752013D01*
X0002059284Y0014579488D01*
X0002074923Y0014561371D01*
X0002227719Y0014415101D01*
X0002246502Y0014400267D01*
X0002279258Y0014379116D01*
X0002159593Y0014285118D01*
X0002142261Y0014268612D01*
X0002003692Y0014108927D01*
X0001989793Y0014089441D01*
X0001883920Y0013906431D01*
X0001873956Y0013884670D01*
X0001804599Y0013684943D01*
X0001798930Y0013661684D01*
X0001797537Y0013652075D01*
X0001807560Y0013581790D01*
X0001853991Y0013528081D01*
X0001922234Y0013508000D01*
X0004633517Y0013508000D01*
X0004701638Y0013528002D01*
X0004748131Y0013581658D01*
X0004758235Y0013651931D01*
X0004756010Y0013663521D01*
X0004729893Y0013771891D01*
X0004722101Y0013794521D01*
X0004634592Y0013986988D01*
X0004622661Y0014007736D01*
X0004500336Y0014180183D01*
X0004484697Y0014198301D01*
X0004331970Y0014344505D01*
X0004313187Y0014359338D01*
X0004280770Y0014380270D01*
X0004400753Y0014474518D01*
X0004418085Y0014491024D01*
X0004556717Y0014650783D01*
X0004570616Y0014670268D01*
X0004676537Y0014853359D01*
X0004686501Y0014875121D01*
X0004755889Y0015074938D01*
X0004761557Y0015098191D01*
X0004791909Y0015307524D01*
X0004793078Y0015331430D01*
X0004783298Y0015542725D01*
X0004779926Y0015566420D01*
X0004730368Y0015772055D01*
X0004722576Y0015794685D01*
X0004635027Y0015987238D01*
X0004623096Y0016007987D01*
X0004500716Y0016180511D01*
X0004485077Y0016198629D01*
X0004332281Y0016344899D01*
X0004313498Y0016359732D01*
X0004280742Y0016380883D01*
X0004400407Y0016474882D01*
X0004417739Y0016491387D01*
X0004556308Y0016651073D01*
X0004570207Y0016670559D01*
X0004676080Y0016853568D01*
X0004686044Y0016875330D01*
X0004755401Y0017075057D01*
X0004761070Y0017098315D01*
X0004762463Y0017107925D01*
X0004752440Y0017178210D01*
X0004706009Y0017231919D01*
X0004637766Y0017252000D01*
X0001926483Y0017252000D01*
X0001858362Y0017231998D01*
X0001811869Y0017178342D01*
X0001801765Y0017108068D01*
X0001803990Y0017096479D01*
X0001830107Y0016988109D01*
X0001837899Y0016965479D01*
X0001925408Y0016773012D01*
X0001937339Y0016752263D01*
X0002059664Y0016579816D01*
X0002075303Y0016561699D01*
X0002228030Y0016415495D01*
X0002246813Y0016400661D01*
X0002279230Y0016379729D01*
X0002159247Y0016285481D01*
X0002141915Y0016268975D01*
X0002003283Y0016109217D01*
X0001989384Y0016089732D01*
X0001883463Y0015906641D01*
X0001873499Y0015884879D01*
X0001804111Y0015685061D01*
X0001798443Y0015661809D01*
X0001768091Y0015452476D01*
X0001766922Y0015428570D01*
X0000634000Y0015428570D01*
X0000634000Y0019428570D01*
X0001766922Y0019428570D01*
X0001776702Y0019217275D01*
X0001780074Y0019193580D01*
X0001829632Y0018987945D01*
X0001837424Y0018965315D01*
X0001924973Y0018772762D01*
X0001936904Y0018752013D01*
X0002059284Y0018579489D01*
X0002074923Y0018561371D01*
X0002227719Y0018415101D01*
X0002246502Y0018400267D01*
X0002279258Y0018379116D01*
X0002159593Y0018285118D01*
X0002142261Y0018268613D01*
X0002003692Y0018108927D01*
X0001989793Y0018089441D01*
X0001883920Y0017906432D01*
X0001873956Y0017884670D01*
X0001804599Y0017684943D01*
X0001798930Y0017661685D01*
X0001797537Y0017652075D01*
X0001807560Y0017581790D01*
X0001853991Y0017528081D01*
X0001922234Y0017508000D01*
X0004633517Y0017508000D01*
X0004701638Y0017528002D01*
X0004748131Y0017581658D01*
X0004758235Y0017651932D01*
X0004756010Y0017663521D01*
X0004729893Y0017771891D01*
X0004722101Y0017794521D01*
X0004634592Y0017986988D01*
X0004622661Y0018007737D01*
X0004500336Y0018180183D01*
X0004484697Y0018198301D01*
X0004331970Y0018344505D01*
X0004313187Y0018359339D01*
X0004280770Y0018380270D01*
X0004400753Y0018474518D01*
X0004418085Y0018491024D01*
X0004556717Y0018650783D01*
X0004570616Y0018670268D01*
X0004676537Y0018853359D01*
X0004686501Y0018875121D01*
X0004755889Y0019074938D01*
X0004761557Y0019098191D01*
X0004791909Y0019307524D01*
X0004793078Y0019331430D01*
X0004783298Y0019542725D01*
X0004779926Y0019566420D01*
X0004730368Y0019772055D01*
X0004722576Y0019794685D01*
X0004635027Y0019987238D01*
X0004623096Y0020007987D01*
X0004500716Y0020180511D01*
X0004485077Y0020198629D01*
X0004332281Y0020344899D01*
X0004313498Y0020359733D01*
X0004280742Y0020380884D01*
X0004400407Y0020474882D01*
X0004417739Y0020491387D01*
X0004556308Y0020651073D01*
X0004570207Y0020670559D01*
X0004676080Y0020853568D01*
X0004686044Y0020875330D01*
X0004755401Y0021075057D01*
X0004761070Y0021098315D01*
X0004762463Y0021107925D01*
X0004752440Y0021178210D01*
X0004706009Y0021231919D01*
X0004637766Y0021252000D01*
X0001926483Y0021252000D01*
X0001858362Y0021231998D01*
X0001811869Y0021178342D01*
X0001801765Y0021108068D01*
X0001803990Y0021096479D01*
X0001830107Y0020988109D01*
X0001837899Y0020965479D01*
X0001925408Y0020773012D01*
X0001937339Y0020752263D01*
X0002059664Y0020579817D01*
X0002075303Y0020561699D01*
X0002228030Y0020415495D01*
X0002246813Y0020400661D01*
X0002279230Y0020379730D01*
X0002159247Y0020285482D01*
X0002141915Y0020268976D01*
X0002003283Y0020109217D01*
X0001989384Y0020089732D01*
X0001883463Y0019906641D01*
X0001873499Y0019884879D01*
X0001804111Y0019685062D01*
X0001798443Y0019661809D01*
X0001768091Y0019452476D01*
X0001766922Y0019428570D01*
X0000634000Y0019428570D01*
X0000634000Y0023428570D01*
X0001766922Y0023428570D01*
X0001776702Y0023217275D01*
X0001780074Y0023193580D01*
X0001829632Y0022987945D01*
X0001837424Y0022965315D01*
X0001924973Y0022772762D01*
X0001936904Y0022752013D01*
X0002059284Y0022579489D01*
X0002074923Y0022561371D01*
X0002227719Y0022415101D01*
X0002246502Y0022400267D01*
X0002279258Y0022379116D01*
X0002159593Y0022285118D01*
X0002142261Y0022268613D01*
X0002003692Y0022108927D01*
X0001989793Y0022089441D01*
X0001883920Y0021906432D01*
X0001873956Y0021884670D01*
X0001804599Y0021684943D01*
X0001798930Y0021661685D01*
X0001797537Y0021652075D01*
X0001807560Y0021581790D01*
X0001853991Y0021528081D01*
X0001922234Y0021508000D01*
X0004633517Y0021508000D01*
X0004701638Y0021528002D01*
X0004748131Y0021581658D01*
X0004758235Y0021651932D01*
X0004756010Y0021663521D01*
X0004729893Y0021771891D01*
X0004722101Y0021794521D01*
X0004634592Y0021986988D01*
X0004622661Y0022007737D01*
X0004500336Y0022180183D01*
X0004484697Y0022198301D01*
X0004331970Y0022344505D01*
X0004313187Y0022359339D01*
X0004280770Y0022380270D01*
X0004400753Y0022474518D01*
X0004418085Y0022491024D01*
X0004556717Y0022650783D01*
X0004570616Y0022670268D01*
X0004676537Y0022853359D01*
X0004686501Y0022875121D01*
X0004755889Y0023074938D01*
X0004761557Y0023098191D01*
X0004791909Y0023307524D01*
X0004793078Y0023331430D01*
X0004783298Y0023542725D01*
X0004779926Y0023566420D01*
X0004730368Y0023772055D01*
X0004722576Y0023794685D01*
X0004635027Y0023987238D01*
X0004623096Y0024007987D01*
X0004500716Y0024180511D01*
X0004485077Y0024198629D01*
X0004332281Y0024344898D01*
X0004313498Y0024359733D01*
X0004280742Y0024380884D01*
X0004400407Y0024474882D01*
X0004417739Y0024491387D01*
X0004556308Y0024651073D01*
X0004570207Y0024670559D01*
X0004676080Y0024853568D01*
X0004686044Y0024875330D01*
X0004755401Y0025075057D01*
X0004761070Y0025098315D01*
X0004762463Y0025107925D01*
X0004752440Y0025178210D01*
X0004706009Y0025231918D01*
X0004637766Y0025252000D01*
X0001926483Y0025252000D01*
X0001858362Y0025231998D01*
X0001811869Y0025178342D01*
X0001801765Y0025108068D01*
X0001803990Y0025096479D01*
X0001830107Y0024988109D01*
X0001837899Y0024965479D01*
X0001925408Y0024773012D01*
X0001937339Y0024752263D01*
X0002059664Y0024579817D01*
X0002075303Y0024561699D01*
X0002228030Y0024415495D01*
X0002246813Y0024400661D01*
X0002279230Y0024379730D01*
X0002159247Y0024285482D01*
X0002141915Y0024268976D01*
X0002003283Y0024109217D01*
X0001989384Y0024089731D01*
X0001883463Y0023906641D01*
X0001873499Y0023884879D01*
X0001804111Y0023685062D01*
X0001798443Y0023661809D01*
X0001768091Y0023452476D01*
X0001766922Y0023428570D01*
X0000634000Y0023428570D01*
X0000634000Y0033378866D01*
X0001675500Y0033378866D01*
X0001676237Y0033365257D01*
X0001682992Y0033303075D01*
X0001690273Y0033272453D01*
X0001741403Y0033136065D01*
X0001758559Y0033104730D01*
X0001845913Y0032988174D01*
X0001871174Y0032962913D01*
X0001987730Y0032875559D01*
X0002019065Y0032858403D01*
X0002155454Y0032807273D01*
X0002186076Y0032799992D01*
X0002248258Y0032793236D01*
X0002261866Y0032792500D01*
X0004058134Y0032792500D01*
X0004071742Y0032793236D01*
X0004133924Y0032799992D01*
X0004164545Y0032807273D01*
X0004300935Y0032858403D01*
X0004332270Y0032875559D01*
X0004448826Y0032962913D01*
X0004474087Y0032988174D01*
X0004561441Y0033104730D01*
X0004578597Y0033136065D01*
X0004629727Y0033272453D01*
X0004637008Y0033303075D01*
X0004643763Y0033365257D01*
X0004644500Y0033378866D01*
X0004644500Y0034030500D01*
X0004921466Y0034030500D01*
X0004943927Y0033963178D01*
X0004956306Y0033936751D01*
X0005049378Y0033786349D01*
X0005067504Y0033763479D01*
X0005192679Y0033638522D01*
X0005215581Y0033620435D01*
X0005366146Y0033527625D01*
X0005392595Y0033515292D01*
X0005433381Y0033501764D01*
X0005409751Y0033490693D01*
X0005259349Y0033397622D01*
X0005236479Y0033379496D01*
X0005111522Y0033254320D01*
X0005093435Y0033231419D01*
X0005000625Y0033080854D01*
X0004988292Y0033054405D01*
X0004932610Y0032886528D01*
X0004926859Y0032859704D01*
X0004916156Y0032755243D01*
X0004915500Y0032742400D01*
X0004915500Y0031741600D01*
X0004916173Y0031728596D01*
X0004927147Y0031622830D01*
X0004932950Y0031595958D01*
X0004988926Y0031428178D01*
X0005001306Y0031401751D01*
X0005094378Y0031251348D01*
X0005112504Y0031228479D01*
X0005237679Y0031103521D01*
X0005260581Y0031085435D01*
X0005411146Y0030992625D01*
X0005437595Y0030980292D01*
X0005605472Y0030924610D01*
X0005632296Y0030918858D01*
X0005736757Y0030908156D01*
X0005749600Y0030907500D01*
X0006550400Y0030907500D01*
X0006563404Y0030908172D01*
X0006669170Y0030919147D01*
X0006696042Y0030924950D01*
X0006863822Y0030980926D01*
X0006890249Y0030993306D01*
X0007040651Y0031086378D01*
X0007063521Y0031104504D01*
X0007149957Y0031191091D01*
X0007237679Y0031103521D01*
X0007260581Y0031085435D01*
X0007411146Y0030992625D01*
X0007437595Y0030980292D01*
X0007605472Y0030924610D01*
X0007632296Y0030918858D01*
X0007736757Y0030908156D01*
X0007749600Y0030907500D01*
X0008268406Y0030907500D01*
X0009105447Y0030070459D01*
X0009102358Y0030071004D01*
X0008880982Y0030090372D01*
X0008859018Y0030090372D01*
X0008637642Y0030071004D01*
X0008616013Y0030067190D01*
X0008401364Y0030009675D01*
X0008380725Y0030002163D01*
X0008179325Y0029908248D01*
X0008160306Y0029897267D01*
X0008097125Y0029853029D01*
X0008052796Y0029797572D01*
X0008045486Y0029726953D01*
X0008080299Y0029660719D01*
X0009051020Y0028689999D01*
X0008080299Y0027719279D01*
X0008046274Y0027656968D01*
X0008051339Y0027586153D01*
X0008097125Y0027526972D01*
X0008160304Y0027482734D01*
X0008179323Y0027471752D01*
X0008289714Y0027420276D01*
X0008179074Y0027368683D01*
X0008160053Y0027357701D01*
X0007977948Y0027230190D01*
X0007961124Y0027216072D01*
X0007829552Y0027084500D01*
X0006167082Y0027084500D01*
X0005217329Y0028034253D01*
X0005154252Y0028098665D01*
X0005132484Y0028116418D01*
X0005096050Y0028139898D01*
X0005062165Y0028166947D01*
X0005038395Y0028181917D01*
X0005008201Y0028196513D01*
X0004980018Y0028214676D01*
X0004954858Y0028227166D01*
X0004914122Y0028241993D01*
X0004875089Y0028260862D01*
X0004848595Y0028270192D01*
X0004815917Y0028277736D01*
X0004784410Y0028289203D01*
X0004757106Y0028295810D01*
X0004714091Y0028301244D01*
X0004671860Y0028310994D01*
X0004643955Y0028314223D01*
X0004603385Y0028314365D01*
X0004601231Y0028314500D01*
X0004564581Y0028314500D01*
X0004462570Y0028314856D01*
X0004459293Y0028314500D01*
X0004429688Y0028314500D01*
X0004445651Y0028324378D01*
X0004468521Y0028342504D01*
X0004593478Y0028467679D01*
X0004611565Y0028490581D01*
X0004704375Y0028641146D01*
X0004716708Y0028667595D01*
X0004720497Y0028679018D01*
X0007469628Y0028679018D01*
X0007488996Y0028457642D01*
X0007492810Y0028436013D01*
X0007550325Y0028221364D01*
X0007557837Y0028200725D01*
X0007651752Y0027999325D01*
X0007662733Y0027980306D01*
X0007706971Y0027917126D01*
X0007762428Y0027872796D01*
X0007833047Y0027865486D01*
X0007899280Y0027900300D01*
X0008599885Y0028600904D01*
X0008633911Y0028663217D01*
X0008628846Y0028734032D01*
X0008599885Y0028779094D01*
X0007899280Y0029479700D01*
X0007836968Y0029513726D01*
X0007766153Y0029508661D01*
X0007706971Y0029462874D01*
X0007662733Y0029399694D01*
X0007651752Y0029380675D01*
X0007557837Y0029179275D01*
X0007550325Y0029158636D01*
X0007492810Y0028943987D01*
X0007488996Y0028922358D01*
X0007469628Y0028700982D01*
X0007469628Y0028679018D01*
X0004720497Y0028679018D01*
X0004772390Y0028835472D01*
X0004778141Y0028862296D01*
X0004788844Y0028966757D01*
X0004789500Y0028979599D01*
X0004789500Y0029780400D01*
X0004788827Y0029793404D01*
X0004777853Y0029899169D01*
X0004772050Y0029926042D01*
X0004716074Y0030093822D01*
X0004703694Y0030120249D01*
X0004610622Y0030270651D01*
X0004592496Y0030293521D01*
X0004467321Y0030418478D01*
X0004444419Y0030436565D01*
X0004293854Y0030529375D01*
X0004267405Y0030541708D01*
X0004099528Y0030597390D01*
X0004072704Y0030603141D01*
X0003968243Y0030613844D01*
X0003955400Y0030614500D01*
X0002604600Y0030614500D01*
X0002591596Y0030613827D01*
X0002485830Y0030602853D01*
X0002458958Y0030597050D01*
X0002291178Y0030541074D01*
X0002264751Y0030528694D01*
X0002114349Y0030435622D01*
X0002091479Y0030417496D01*
X0001966522Y0030292321D01*
X0001948435Y0030269419D01*
X0001855625Y0030118854D01*
X0001843292Y0030092405D01*
X0001787610Y0029924528D01*
X0001781859Y0029897703D01*
X0001771156Y0029793243D01*
X0001770500Y0029780400D01*
X0001770500Y0028979599D01*
X0001771173Y0028966596D01*
X0001782147Y0028860830D01*
X0001787950Y0028833958D01*
X0001843926Y0028666178D01*
X0001856306Y0028639751D01*
X0001949378Y0028489349D01*
X0001967504Y0028466479D01*
X0002092679Y0028341521D01*
X0002115581Y0028323435D01*
X0002167120Y0028291666D01*
X0002159247Y0028285482D01*
X0002141915Y0028268976D01*
X0002003283Y0028109217D01*
X0001989384Y0028089731D01*
X0001883463Y0027906641D01*
X0001873499Y0027884878D01*
X0001804111Y0027685062D01*
X0001798443Y0027661808D01*
X0001768091Y0027452476D01*
X0001766922Y0027428570D01*
X0001776702Y0027217275D01*
X0001780074Y0027193580D01*
X0001829632Y0026987945D01*
X0001837424Y0026965315D01*
X0001924973Y0026772762D01*
X0001936904Y0026752012D01*
X0002059284Y0026579489D01*
X0002074923Y0026561371D01*
X0002227719Y0026415101D01*
X0002246502Y0026400267D01*
X0002279258Y0026379116D01*
X0002159593Y0026285118D01*
X0002142261Y0026268613D01*
X0002003692Y0026108927D01*
X0001989793Y0026089441D01*
X0001883920Y0025906432D01*
X0001873956Y0025884670D01*
X0001804599Y0025684943D01*
X0001798930Y0025661685D01*
X0001797537Y0025652075D01*
X0001807560Y0025581789D01*
X0001853991Y0025528081D01*
X0001922234Y0025508000D01*
X0004633517Y0025508000D01*
X0004701638Y0025528002D01*
X0004748131Y0025581657D01*
X0004758235Y0025651932D01*
X0004756010Y0025663521D01*
X0004729893Y0025771891D01*
X0004722101Y0025794521D01*
X0004645566Y0025962851D01*
X0005112624Y0025495794D01*
X0005175747Y0025431335D01*
X0005197516Y0025413581D01*
X0005233959Y0025390095D01*
X0005267834Y0025363053D01*
X0005291605Y0025348083D01*
X0005321799Y0025333486D01*
X0005349982Y0025315324D01*
X0005375142Y0025302834D01*
X0005405500Y0025291784D01*
X0005405500Y0023754214D01*
X0005404556Y0023664099D01*
X0005407395Y0023636152D01*
X0005416555Y0023593787D01*
X0005421388Y0023550699D01*
X0005427611Y0023523308D01*
X0005438642Y0023491632D01*
X0005445727Y0023458862D01*
X0005454686Y0023432241D01*
X0005473006Y0023392954D01*
X0005487264Y0023352010D01*
X0005499400Y0023326679D01*
X0005517172Y0023298237D01*
X0005531343Y0023267848D01*
X0005545979Y0023243871D01*
X0005572547Y0023209620D01*
X0005595519Y0023172856D01*
X0005612967Y0023150841D01*
X0005641569Y0023122038D01*
X0005642983Y0023120435D01*
X0005668662Y0023094756D01*
X0005740779Y0023022134D01*
X0005743356Y0023020062D01*
X0007395500Y0021367918D01*
X0007395500Y0020925121D01*
X0007346920Y0020928433D01*
X0007316688Y0020926849D01*
X0007253749Y0020915864D01*
X0007190324Y0020908189D01*
X0007160921Y0020900967D01*
X0007154508Y0020898544D01*
X0007147760Y0020897366D01*
X0007118775Y0020888616D01*
X0007060271Y0020862935D01*
X0007000510Y0020840353D01*
X0006973680Y0020826326D01*
X0006968033Y0020822445D01*
X0006961755Y0020819689D01*
X0006935694Y0020804277D01*
X0006885007Y0020765382D01*
X0006832357Y0020729198D01*
X0006809647Y0020709176D01*
X0006768193Y0020662649D01*
X0006450385Y0020344841D01*
X0006406785Y0020306806D01*
X0006386528Y0020284308D01*
X0006349785Y0020232028D01*
X0006310370Y0020181760D01*
X0006294686Y0020155863D01*
X0006291866Y0020149617D01*
X0006287925Y0020144010D01*
X0006273617Y0020117327D01*
X0006250405Y0020057790D01*
X0006224119Y0019999575D01*
X0006215065Y0019970688D01*
X0006213815Y0019963943D01*
X0006211324Y0019957554D01*
X0006203796Y0019928233D01*
X0006195457Y0019864890D01*
X0006183814Y0019802072D01*
X0006181913Y0019771856D01*
X0006185500Y0019709650D01*
X0006185500Y0019457025D01*
X0006181023Y0019434518D01*
X0006178602Y0019409936D01*
X0006178602Y0019350064D01*
X0006180552Y0019330264D01*
X0006180552Y0018929736D01*
X0006178602Y0018909936D01*
X0006178602Y0018850064D01*
X0006181023Y0018825482D01*
X0006185500Y0018802975D01*
X0006185500Y0017460660D01*
X0006126352Y0017401512D01*
X0006062047Y0017337877D01*
X0006043243Y0017314151D01*
X0006023583Y0017282069D01*
X0006000370Y0017252464D01*
X0005984687Y0017226568D01*
X0005971012Y0017196282D01*
X0005953643Y0017167938D01*
X0005941040Y0017140411D01*
X0005929602Y0017104570D01*
X0005914118Y0017070278D01*
X0005905065Y0017041388D01*
X0005899008Y0017008706D01*
X0005888903Y0016977044D01*
X0005883230Y0016947306D01*
X0005880671Y0016909774D01*
X0005873814Y0016872775D01*
X0005871913Y0016842561D01*
X0005873827Y0016809369D01*
X0005871567Y0016776216D01*
X0005873151Y0016745985D01*
X0005879619Y0016708922D01*
X0005881785Y0016671361D01*
X0005881833Y0016671097D01*
X0005879374Y0016670259D01*
X0005853957Y0016658299D01*
X0005699466Y0016563255D01*
X0005677330Y0016545960D01*
X0005547735Y0016419052D01*
X0005529982Y0016397284D01*
X0005431724Y0016244817D01*
X0005419234Y0016219657D01*
X0005357196Y0016049209D01*
X0005350591Y0016021906D01*
X0005342954Y0015961454D01*
X0005341564Y0015959973D01*
X0005323000Y0015934424D01*
X0005313239Y0015916670D01*
X0005300825Y0015900665D01*
X0005284749Y0015873482D01*
X0005267189Y0015832903D01*
X0005245890Y0015794160D01*
X0005234264Y0015764795D01*
X0005229226Y0015745173D01*
X0005221182Y0015726585D01*
X0005212370Y0015696257D01*
X0005205453Y0015652588D01*
X0005194458Y0015609763D01*
X0005190500Y0015578430D01*
X0005190500Y0015558176D01*
X0005187331Y0015538167D01*
X0005186339Y0015506599D01*
X0005190500Y0015462581D01*
X0005190500Y0009508447D01*
X0005122974Y0009485460D01*
X0005097557Y0009473499D01*
X0004943066Y0009378454D01*
X0004920930Y0009361161D01*
X0004791335Y0009234252D01*
X0004773582Y0009212484D01*
X0004675324Y0009060016D01*
X0004662834Y0009034856D01*
X0004600796Y0008864410D01*
X0004594191Y0008837107D01*
X0004571457Y0008657152D01*
X0004571064Y0008629065D01*
X0004588764Y0008448545D01*
X0004594605Y0008421068D01*
X0004651860Y0008248954D01*
X0004663642Y0008223455D01*
X0004757604Y0008068304D01*
X0004774743Y0008046049D01*
X0004900745Y0007915571D01*
X0004922389Y0007897666D01*
X0005074166Y0007798346D01*
X0005099239Y0007785680D01*
X0005269248Y0007722454D01*
X0005296503Y0007715659D01*
X0005476296Y0007691668D01*
X0005504381Y0007691080D01*
X0005685020Y0007707521D01*
X0005712536Y0007713169D01*
X0005885044Y0007769219D01*
X0005910625Y0007780824D01*
X0006066429Y0007873702D01*
X0006088804Y0007890684D01*
X0006220158Y0008015771D01*
X0006238214Y0008037291D01*
X0006338591Y0008188371D01*
X0006351431Y0008213353D01*
X0006415843Y0008382918D01*
X0006422829Y0008410126D01*
X0006432384Y0008478110D01*
X0006448869Y0008491748D01*
X0006495478Y0008541383D01*
X0006515228Y0008561132D01*
X0006525695Y0008573004D01*
X0006528170Y0008576196D01*
X0006558436Y0008608426D01*
X0006577000Y0008633976D01*
X0006586761Y0008651730D01*
X0006599175Y0008667735D01*
X0006615251Y0008694918D01*
X0006632811Y0008735496D01*
X0006654110Y0008774239D01*
X0006665736Y0008803605D01*
X0006670774Y0008823225D01*
X0006678818Y0008841815D01*
X0006687630Y0008872143D01*
X0006694547Y0008915811D01*
X0006705542Y0008958635D01*
X0006709500Y0008989970D01*
X0006709500Y0009010224D01*
X0006712669Y0009030232D01*
X0006713661Y0009061801D01*
X0006712993Y0009068864D01*
X0006763638Y0009071784D01*
X0006793434Y0009077145D01*
X0006957338Y0009127569D01*
X0006984995Y0009139883D01*
X0006986113Y0009140552D01*
X0007210000Y0009140552D01*
X0007234582Y0009142973D01*
X0007293304Y0009154654D01*
X0007338723Y0009173468D01*
X0007360000Y0009187684D01*
X0007381277Y0009173468D01*
X0007426696Y0009154654D01*
X0007485418Y0009142973D01*
X0007510000Y0009140552D01*
X0007715353Y0009140552D01*
X0007796253Y0009059652D01*
X0007810747Y0009042131D01*
X0007860399Y0008995505D01*
X0007880135Y0008975770D01*
X0007892005Y0008965305D01*
X0007895196Y0008962830D01*
X0007927426Y0008932564D01*
X0007952976Y0008914000D01*
X0007970730Y0008904239D01*
X0007986735Y0008891825D01*
X0008013918Y0008875748D01*
X0008054497Y0008858189D01*
X0008093240Y0008836890D01*
X0008122605Y0008825264D01*
X0008142226Y0008820226D01*
X0008160814Y0008812182D01*
X0008191143Y0008803370D01*
X0008234811Y0008796453D01*
X0008277635Y0008785457D01*
X0008308970Y0008781500D01*
X0008329224Y0008781500D01*
X0008349232Y0008778331D01*
X0008380801Y0008777339D01*
X0008424819Y0008781500D01*
X0010277033Y0008781500D01*
X0010299668Y0008779360D01*
X0010367745Y0008781500D01*
X0010395656Y0008781500D01*
X0010411446Y0008782492D01*
X0010415457Y0008783000D01*
X0010459648Y0008784389D01*
X0010490841Y0008789330D01*
X0010510292Y0008794981D01*
X0010530390Y0008797519D01*
X0010560981Y0008805374D01*
X0010602095Y0008821652D01*
X0010644545Y0008833984D01*
X0010673533Y0008846529D01*
X0010690969Y0008856841D01*
X0010709799Y0008864296D01*
X0010737477Y0008879511D01*
X0010773247Y0008905498D01*
X0010811302Y0008928004D01*
X0010836257Y0008947363D01*
X0010850578Y0008961684D01*
X0010866968Y0008973592D01*
X0010889992Y0008995211D01*
X0010918183Y0009029288D01*
X0012367318Y0010478424D01*
X0012388000Y0010444274D01*
X0012388000Y0009890144D01*
X0012388994Y0009874351D01*
X0012404020Y0009755410D01*
X0012411874Y0009724819D01*
X0012470796Y0009575999D01*
X0012486012Y0009548321D01*
X0012580092Y0009418831D01*
X0012601712Y0009395807D01*
X0012725040Y0009293782D01*
X0012751707Y0009276859D01*
X0012812085Y0009248446D01*
X0012816731Y0009241494D01*
X0012851495Y0009206731D01*
X0012901277Y0009173468D01*
X0012946696Y0009154654D01*
X0013005418Y0009142973D01*
X0013030000Y0009140552D01*
X0013480264Y0009140552D01*
X0013500064Y0009138601D01*
X0013559936Y0009138601D01*
X0013584517Y0009141023D01*
X0013682062Y0009160426D01*
X0013705701Y0009167597D01*
X0013761016Y0009190510D01*
X0013782798Y0009202153D01*
X0013865493Y0009257408D01*
X0013884586Y0009273078D01*
X0013926922Y0009315414D01*
X0013942592Y0009334506D01*
X0013997847Y0009417202D01*
X0014009490Y0009438984D01*
X0014032403Y0009494299D01*
X0014039574Y0009517938D01*
X0014058977Y0009615483D01*
X0014061398Y0009640063D01*
X0014061398Y0009699936D01*
X0014059448Y0009719736D01*
X0014059448Y0010120263D01*
X0014061398Y0010140063D01*
X0014061398Y0010199936D01*
X0014058977Y0010224516D01*
X0014039574Y0010322061D01*
X0014032403Y0010345700D01*
X0014009490Y0010401015D01*
X0013997847Y0010422798D01*
X0013972819Y0010460255D01*
X0014003791Y0010506871D01*
X0014016631Y0010531854D01*
X0014059373Y0010644372D01*
X0014132096Y0010634668D01*
X0014160181Y0010634080D01*
X0014340820Y0010650521D01*
X0014368336Y0010656168D01*
X0014540844Y0010712219D01*
X0014566425Y0010723824D01*
X0014722229Y0010816702D01*
X0014744604Y0010833685D01*
X0014875958Y0010958772D01*
X0014894014Y0010980291D01*
X0014994391Y0011131371D01*
X0015007231Y0011156354D01*
X0015071643Y0011325918D01*
X0015078629Y0011353126D01*
X0015103873Y0011532747D01*
X0015105087Y0011548525D01*
X0015105404Y0011571242D01*
X0015104631Y0011587045D01*
X0015084412Y0011767299D01*
X0015078188Y0011794692D01*
X0015018536Y0011965989D01*
X0015006399Y0011991321D01*
X0014910280Y0012145145D01*
X0014892832Y0012167160D01*
X0014765021Y0012295866D01*
X0014743129Y0012313467D01*
X0014589980Y0012410658D01*
X0014564733Y0012422972D01*
X0014393857Y0012483818D01*
X0014366509Y0012490233D01*
X0014186399Y0012511710D01*
X0014158309Y0012511906D01*
X0013977917Y0012492946D01*
X0013950483Y0012486913D01*
X0013778774Y0012428460D01*
X0013753357Y0012416499D01*
X0013616819Y0012332500D01*
X0012466567Y0012332500D01*
X0012443933Y0012334640D01*
X0012375843Y0012332500D01*
X0012347944Y0012332500D01*
X0012332156Y0012331506D01*
X0012328153Y0012331001D01*
X0012283952Y0012329612D01*
X0012252757Y0012324670D01*
X0012233304Y0012319019D01*
X0012213212Y0012316481D01*
X0012182620Y0012308626D01*
X0012141510Y0012292349D01*
X0012099052Y0012280014D01*
X0012070067Y0012267471D01*
X0012052631Y0012257159D01*
X0012033801Y0012249704D01*
X0012006123Y0012234489D01*
X0011970353Y0012208500D01*
X0011932298Y0012185994D01*
X0011907343Y0012166637D01*
X0011893022Y0012152315D01*
X0011876632Y0012140408D01*
X0011853608Y0012118787D01*
X0011825417Y0012084710D01*
X0011062240Y0011321535D01*
X0011054051Y0011394539D01*
X0011047827Y0011421931D01*
X0010988175Y0011593228D01*
X0010976038Y0011618559D01*
X0010918628Y0011710436D01*
X0010955791Y0011766371D01*
X0010968631Y0011791353D01*
X0011033043Y0011960918D01*
X0011040029Y0011988126D01*
X0011065273Y0012167746D01*
X0011066487Y0012183525D01*
X0011066804Y0012206242D01*
X0011066031Y0012222045D01*
X0011045812Y0012402300D01*
X0011039588Y0012429692D01*
X0010979936Y0012600988D01*
X0010967799Y0012626321D01*
X0010950639Y0012653784D01*
X0010968569Y0012680771D01*
X0010981409Y0012705753D01*
X0011045821Y0012875318D01*
X0011052807Y0012902526D01*
X0011078051Y0013082147D01*
X0011079265Y0013097925D01*
X0011079582Y0013120642D01*
X0011078809Y0013136444D01*
X0011058590Y0013316700D01*
X0011052366Y0013344092D01*
X0010992714Y0013515388D01*
X0010980577Y0013540721D01*
X0010884458Y0013694545D01*
X0010867010Y0013716560D01*
X0010739199Y0013845265D01*
X0010724498Y0013857085D01*
X0010724498Y0014557670D01*
X0010726638Y0014580304D01*
X0010724498Y0014648394D01*
X0010724498Y0014676293D01*
X0010723505Y0014692081D01*
X0010722999Y0014696083D01*
X0010721610Y0014740285D01*
X0010716669Y0014771480D01*
X0010711017Y0014790932D01*
X0010708479Y0014811025D01*
X0010700624Y0014841617D01*
X0010684348Y0014882727D01*
X0010672012Y0014925184D01*
X0010659469Y0014954170D01*
X0010649157Y0014971606D01*
X0010641702Y0014990435D01*
X0010626487Y0015018114D01*
X0010600499Y0015053884D01*
X0010577993Y0015091939D01*
X0010558635Y0015116893D01*
X0010544311Y0015131218D01*
X0010532406Y0015147604D01*
X0010510785Y0015170629D01*
X0010476715Y0015198813D01*
X0010449500Y0015226029D01*
X0010449500Y0017108249D01*
X0010469723Y0017099118D01*
X0010498608Y0017090065D01*
X0010505353Y0017088815D01*
X0010511742Y0017086324D01*
X0010541063Y0017078796D01*
X0010604408Y0017070457D01*
X0010667225Y0017058814D01*
X0010697441Y0017056913D01*
X0010759647Y0017060500D01*
X0011445500Y0017060500D01*
X0011445500Y0013251997D01*
X0011446413Y0013236858D01*
X0011461811Y0013109620D01*
X0011469032Y0013080220D01*
X0011529647Y0012919806D01*
X0011543673Y0012892976D01*
X0011640803Y0012751652D01*
X0011660824Y0012728943D01*
X0011788860Y0012614867D01*
X0011813720Y0012597589D01*
X0011965272Y0012517346D01*
X0011993536Y0012506495D01*
X0012159854Y0012464720D01*
X0012189889Y0012460926D01*
X0012361371Y0012460028D01*
X0012391445Y0012463507D01*
X0012558191Y0012503539D01*
X0012586567Y0012514092D01*
X0012589396Y0012515552D01*
X0012780000Y0012515552D01*
X0012804582Y0012517973D01*
X0012863304Y0012529654D01*
X0012908723Y0012548468D01*
X0012930000Y0012562684D01*
X0012951277Y0012548468D01*
X0012996696Y0012529654D01*
X0013055418Y0012517973D01*
X0013080000Y0012515552D01*
X0013530264Y0012515552D01*
X0013550064Y0012513601D01*
X0013609936Y0012513601D01*
X0013634517Y0012516023D01*
X0013732062Y0012535426D01*
X0013755701Y0012542597D01*
X0013811016Y0012565510D01*
X0013832798Y0012577153D01*
X0013915493Y0012632408D01*
X0013934586Y0012648078D01*
X0013976922Y0012690414D01*
X0013992592Y0012709506D01*
X0014047847Y0012792202D01*
X0014059490Y0012813984D01*
X0014082403Y0012869299D01*
X0014089574Y0012892938D01*
X0014108977Y0012990483D01*
X0014111398Y0013015063D01*
X0014111398Y0013074936D01*
X0014109448Y0013094736D01*
X0014109448Y0013495263D01*
X0014111398Y0013515063D01*
X0014111398Y0013574936D01*
X0014108977Y0013599516D01*
X0014096276Y0013663369D01*
X0014190158Y0013752772D01*
X0014208214Y0013774291D01*
X0014308591Y0013925370D01*
X0014321431Y0013950354D01*
X0014385843Y0014119917D01*
X0014392829Y0014147126D01*
X0014412354Y0014286052D01*
X0014462262Y0014290593D01*
X0014489778Y0014296242D01*
X0014662286Y0014352293D01*
X0014687867Y0014363897D01*
X0014843671Y0014456775D01*
X0014866046Y0014473758D01*
X0014997400Y0014598845D01*
X0015015456Y0014620363D01*
X0015115833Y0014771443D01*
X0015128673Y0014796427D01*
X0015193085Y0014965990D01*
X0015200071Y0014993199D01*
X0015225315Y0015172820D01*
X0015226529Y0015188597D01*
X0015226846Y0015211314D01*
X0015226073Y0015227118D01*
X0015205854Y0015407373D01*
X0015199630Y0015434764D01*
X0015139978Y0015606062D01*
X0015127841Y0015631394D01*
X0015031722Y0015785218D01*
X0015014274Y0015807233D01*
X0014886463Y0015935939D01*
X0014864571Y0015953540D01*
X0014711422Y0016050730D01*
X0014686175Y0016063044D01*
X0014515299Y0016123891D01*
X0014487951Y0016130306D01*
X0014307841Y0016151782D01*
X0014279751Y0016151979D01*
X0014109962Y0016134132D01*
X0014078865Y0016165230D01*
X0014071711Y0016171538D01*
X0014083981Y0016171281D01*
X0014264620Y0016187721D01*
X0014292136Y0016193369D01*
X0014464644Y0016249420D01*
X0014490225Y0016261023D01*
X0014646029Y0016353902D01*
X0014668404Y0016370885D01*
X0014799758Y0016495971D01*
X0014817814Y0016517491D01*
X0014918191Y0016668571D01*
X0014931031Y0016693553D01*
X0014995443Y0016863118D01*
X0015002429Y0016890326D01*
X0015027673Y0017069947D01*
X0015028887Y0017085725D01*
X0015029204Y0017108442D01*
X0015028431Y0017124245D01*
X0015008212Y0017304500D01*
X0015001988Y0017331892D01*
X0014942336Y0017503189D01*
X0014930199Y0017528521D01*
X0014834080Y0017682345D01*
X0014816632Y0017704360D01*
X0014688821Y0017833066D01*
X0014666929Y0017850667D01*
X0014513780Y0017947858D01*
X0014488533Y0017960172D01*
X0014317657Y0018021018D01*
X0014290310Y0018027433D01*
X0014274814Y0018029281D01*
X0014107586Y0018196509D01*
X0014089574Y0018287062D01*
X0014082403Y0018310701D01*
X0014059490Y0018366016D01*
X0014047847Y0018387798D01*
X0013992592Y0018470493D01*
X0013976922Y0018489586D01*
X0013934586Y0018531922D01*
X0013915493Y0018547592D01*
X0013832798Y0018602847D01*
X0013811016Y0018614490D01*
X0013755701Y0018637403D01*
X0013732062Y0018644574D01*
X0013634517Y0018663977D01*
X0013609936Y0018666398D01*
X0013550064Y0018666398D01*
X0013530264Y0018664448D01*
X0013080000Y0018664448D01*
X0013055418Y0018662027D01*
X0012996696Y0018650346D01*
X0012951277Y0018631532D01*
X0012930000Y0018617315D01*
X0012908723Y0018631532D01*
X0012863304Y0018650346D01*
X0012804582Y0018662027D01*
X0012780000Y0018664448D01*
X0012610228Y0018664448D01*
X0012594728Y0018672655D01*
X0012566465Y0018683504D01*
X0012534228Y0018691601D01*
X0012503261Y0018703675D01*
X0012473936Y0018711204D01*
X0012436638Y0018716114D01*
X0012400148Y0018725280D01*
X0012370112Y0018729074D01*
X0012330000Y0018729284D01*
X0012326706Y0018729500D01*
X0012288762Y0018729500D01*
X0012198629Y0018729972D01*
X0012194550Y0018729500D01*
X0011080660Y0018729500D01*
X0009264500Y0020545660D01*
X0009264500Y0021745786D01*
X0009265444Y0021835901D01*
X0009262605Y0021863849D01*
X0009252279Y0021911608D01*
X0009248612Y0021944299D01*
X0009242388Y0021971693D01*
X0009234210Y0021995177D01*
X0009224273Y0022041137D01*
X0009215314Y0022067760D01*
X0009190115Y0022121800D01*
X0009182736Y0022142989D01*
X0009170600Y0022168320D01*
X0009162018Y0022182055D01*
X0009149939Y0022207957D01*
X0010444745Y0022207957D01*
X0010445821Y0022190851D01*
X0010483346Y0021905820D01*
X0010486734Y0021889018D01*
X0010562595Y0021611716D01*
X0010568232Y0021595529D01*
X0010681026Y0021331089D01*
X0010688807Y0021315818D01*
X0010836445Y0021069133D01*
X0010846227Y0021055058D01*
X0011025979Y0020830691D01*
X0011037580Y0020818075D01*
X0011246118Y0020620180D01*
X0011259325Y0020609255D01*
X0011492791Y0020441492D01*
X0011507358Y0020432460D01*
X0011761433Y0020297934D01*
X0011777091Y0020290962D01*
X0012047072Y0020192163D01*
X0012063531Y0020187381D01*
X0012344422Y0020126137D01*
X0012361378Y0020123633D01*
X0012586853Y0020105888D01*
X0012596739Y0020105500D01*
X0012752271Y0020105500D01*
X0012760841Y0020105792D01*
X0012975395Y0020120419D01*
X0012992376Y0020122745D01*
X0013273893Y0020181044D01*
X0013290402Y0020185653D01*
X0013561403Y0020281620D01*
X0013577133Y0020288427D01*
X0013832602Y0020420284D01*
X0013847263Y0020429163D01*
X0014082474Y0020594472D01*
X0014095794Y0020605259D01*
X0014306393Y0020800960D01*
X0014318126Y0020813454D01*
X0014500217Y0021035926D01*
X0014510146Y0021049897D01*
X0014660360Y0021295023D01*
X0014668300Y0021310213D01*
X0014783856Y0021573457D01*
X0014789662Y0021589583D01*
X0014868423Y0021866075D01*
X0014871987Y0021882841D01*
X0014912494Y0022167463D01*
X0014913749Y0022184556D01*
X0014915255Y0022472043D01*
X0014914179Y0022489149D01*
X0014876654Y0022774180D01*
X0014873266Y0022790982D01*
X0014797405Y0023068284D01*
X0014791768Y0023084471D01*
X0014678974Y0023348911D01*
X0014671193Y0023364182D01*
X0014523555Y0023610867D01*
X0014513773Y0023624942D01*
X0014334021Y0023849309D01*
X0014322420Y0023861925D01*
X0014113882Y0024059820D01*
X0014100675Y0024070745D01*
X0013867209Y0024238508D01*
X0013852642Y0024247540D01*
X0013598567Y0024382066D01*
X0013582909Y0024389038D01*
X0013312928Y0024487837D01*
X0013296469Y0024492618D01*
X0013015578Y0024553863D01*
X0012998622Y0024556367D01*
X0012773147Y0024574112D01*
X0012763261Y0024574500D01*
X0012607729Y0024574500D01*
X0012599159Y0024574208D01*
X0012384605Y0024559581D01*
X0012367624Y0024557254D01*
X0012086107Y0024498956D01*
X0012069598Y0024494346D01*
X0011798597Y0024398380D01*
X0011782867Y0024391573D01*
X0011527398Y0024259715D01*
X0011512737Y0024250837D01*
X0011277526Y0024085528D01*
X0011264206Y0024074741D01*
X0011053607Y0023879040D01*
X0011041874Y0023866546D01*
X0010859783Y0023644074D01*
X0010849854Y0023630103D01*
X0010699640Y0023384977D01*
X0010691700Y0023369787D01*
X0010576144Y0023106543D01*
X0010570338Y0023090417D01*
X0010491577Y0022813925D01*
X0010488013Y0022797159D01*
X0010447506Y0022512537D01*
X0010446251Y0022495444D01*
X0010444745Y0022207957D01*
X0009149939Y0022207957D01*
X0009138657Y0022232152D01*
X0009136522Y0022235650D01*
X0009338807Y0022289853D01*
X0009359446Y0022297365D01*
X0009560927Y0022391317D01*
X0009579948Y0022402299D01*
X0009762052Y0022529810D01*
X0009778876Y0022543928D01*
X0009936072Y0022701124D01*
X0009950190Y0022717948D01*
X0010077701Y0022900053D01*
X0010088683Y0022919074D01*
X0010182635Y0023120554D01*
X0010190147Y0023141193D01*
X0010247685Y0023355926D01*
X0010251499Y0023377556D01*
X0010270874Y0023599019D01*
X0010270874Y0023620981D01*
X0010251499Y0023842444D01*
X0010247685Y0023864075D01*
X0010237221Y0023903126D01*
X0010821348Y0024487253D01*
X0010838868Y0024501747D01*
X0010885493Y0024551398D01*
X0010905230Y0024571135D01*
X0010915695Y0024583005D01*
X0010918170Y0024586196D01*
X0010948436Y0024618426D01*
X0010967000Y0024643976D01*
X0010976761Y0024661730D01*
X0010989175Y0024677735D01*
X0011005251Y0024704918D01*
X0011022811Y0024745497D01*
X0011044110Y0024784240D01*
X0011055736Y0024813605D01*
X0011060774Y0024833226D01*
X0011068818Y0024851815D01*
X0011077630Y0024882143D01*
X0011084547Y0024925811D01*
X0011095542Y0024968636D01*
X0011099500Y0024999969D01*
X0011099500Y0025020224D01*
X0011102669Y0025040232D01*
X0011103661Y0025071801D01*
X0011099500Y0025115819D01*
X0011099500Y0028379315D01*
X0011246118Y0028240180D01*
X0011259325Y0028229255D01*
X0011492791Y0028061492D01*
X0011507358Y0028052460D01*
X0011761433Y0027917934D01*
X0011777091Y0027910961D01*
X0012047072Y0027812163D01*
X0012063531Y0027807381D01*
X0012344422Y0027746136D01*
X0012361378Y0027743633D01*
X0012586853Y0027725887D01*
X0012596739Y0027725500D01*
X0012752271Y0027725500D01*
X0012760841Y0027725792D01*
X0012975395Y0027740419D01*
X0012992376Y0027742745D01*
X0013273893Y0027801043D01*
X0013290402Y0027805653D01*
X0013561403Y0027901620D01*
X0013577133Y0027908427D01*
X0013832602Y0028040284D01*
X0013847263Y0028049163D01*
X0014082474Y0028214472D01*
X0014095794Y0028225259D01*
X0014306393Y0028420960D01*
X0014318126Y0028433453D01*
X0014500217Y0028655926D01*
X0014510146Y0028669897D01*
X0014660360Y0028915022D01*
X0014668300Y0028930213D01*
X0014783856Y0029193457D01*
X0014789662Y0029209583D01*
X0014868423Y0029486075D01*
X0014871987Y0029502841D01*
X0014912494Y0029787463D01*
X0014913749Y0029804555D01*
X0014915255Y0030092043D01*
X0014914179Y0030109149D01*
X0014876654Y0030394180D01*
X0014873266Y0030410982D01*
X0014797405Y0030688284D01*
X0014791768Y0030704470D01*
X0014678974Y0030968911D01*
X0014671193Y0030984182D01*
X0014523555Y0031230867D01*
X0014513773Y0031244942D01*
X0014334021Y0031469309D01*
X0014322420Y0031481925D01*
X0014113882Y0031679820D01*
X0014100675Y0031690745D01*
X0013867209Y0031858508D01*
X0013852642Y0031867540D01*
X0013598567Y0032002066D01*
X0013582909Y0032009038D01*
X0013312928Y0032107837D01*
X0013296469Y0032112619D01*
X0013015578Y0032173862D01*
X0012998622Y0032176367D01*
X0012773147Y0032194111D01*
X0012763261Y0032194499D01*
X0012607729Y0032194499D01*
X0012599159Y0032194208D01*
X0012384605Y0032179581D01*
X0012367624Y0032177255D01*
X0012086107Y0032118955D01*
X0012069598Y0032114347D01*
X0011798597Y0032018380D01*
X0011782867Y0032011573D01*
X0011527398Y0031879716D01*
X0011512737Y0031870837D01*
X0011277526Y0031705528D01*
X0011264206Y0031694741D01*
X0011053607Y0031499040D01*
X0011041874Y0031486546D01*
X0010859783Y0031264074D01*
X0010849854Y0031250103D01*
X0010699640Y0031004977D01*
X0010691700Y0030989787D01*
X0010582675Y0030741419D01*
X0009384500Y0031939595D01*
X0009384500Y0032742400D01*
X0009383827Y0032755404D01*
X0009372853Y0032861170D01*
X0009367050Y0032888042D01*
X0009311074Y0033055822D01*
X0009298694Y0033082248D01*
X0009205622Y0033232650D01*
X0009187496Y0033255521D01*
X0009062321Y0033380477D01*
X0009039419Y0033398564D01*
X0008888854Y0033491374D01*
X0008862405Y0033503708D01*
X0008847259Y0033508732D01*
X0008868822Y0033515926D01*
X0008895249Y0033528306D01*
X0009045651Y0033621378D01*
X0009068521Y0033639504D01*
X0009193478Y0033764679D01*
X0009211565Y0033787581D01*
X0009304375Y0033938146D01*
X0009316708Y0033964595D01*
X0009320547Y0033976169D01*
X0011285476Y0033976169D01*
X0011290541Y0033905355D01*
X0011321555Y0033858284D01*
X0011324449Y0033855519D01*
X0011334787Y0033846660D01*
X0011623350Y0033625237D01*
X0011634595Y0033617537D01*
X0011945385Y0033428573D01*
X0011957395Y0033422134D01*
X0012286774Y0033267842D01*
X0012299409Y0033262737D01*
X0012643526Y0033144919D01*
X0012656639Y0033141209D01*
X0013011467Y0033061245D01*
X0013024904Y0033058971D01*
X0013386293Y0033017797D01*
X0013399897Y0033016989D01*
X0013763618Y0033015085D01*
X0013777230Y0033015749D01*
X0014139030Y0033053137D01*
X0014152490Y0033055270D01*
X0014508136Y0033131514D01*
X0014521287Y0033135087D01*
X0014866619Y0033249295D01*
X0014879307Y0033254267D01*
X0015210284Y0033405102D01*
X0015222361Y0033411417D01*
X0015535112Y0033597115D01*
X0015546437Y0033604696D01*
X0015837304Y0033823085D01*
X0015847744Y0033831845D01*
X0015876308Y0033858575D01*
X0015912380Y0033919725D01*
X0015909665Y0033990670D01*
X0015879310Y0034039670D01*
X0013689095Y0036229885D01*
X0013626783Y0036263911D01*
X0013555968Y0036258846D01*
X0013510905Y0036229885D01*
X0011319502Y0034038482D01*
X0011285476Y0033976169D01*
X0009320547Y0033976169D01*
X0009372390Y0034132472D01*
X0009378141Y0034159296D01*
X0009388844Y0034263757D01*
X0009389500Y0034276600D01*
X0009389500Y0035327400D01*
X0009388827Y0035340404D01*
X0009377853Y0035446170D01*
X0009372050Y0035473042D01*
X0009316074Y0035640822D01*
X0009303694Y0035667249D01*
X0009210622Y0035817651D01*
X0009192496Y0035840521D01*
X0009067321Y0035965478D01*
X0009044419Y0035983565D01*
X0008893854Y0036076375D01*
X0008867405Y0036088708D01*
X0008859500Y0036091330D01*
X0008859500Y0036125219D01*
X0008990651Y0036206378D01*
X0009013521Y0036224504D01*
X0009138478Y0036349679D01*
X0009156565Y0036372581D01*
X0009238414Y0036505364D01*
X0010111249Y0036505364D01*
X0010129651Y0036142103D01*
X0010131076Y0036128550D01*
X0010188603Y0035769401D01*
X0010191483Y0035756081D01*
X0010287460Y0035405246D01*
X0010291761Y0035392315D01*
X0010425068Y0035053897D01*
X0010430741Y0035041506D01*
X0010599816Y0034719465D01*
X0010606794Y0034707759D01*
X0010809661Y0034405861D01*
X0010817863Y0034394977D01*
X0010956231Y0034230661D01*
X0011015410Y0034191438D01*
X0011086399Y0034190436D01*
X0011141706Y0034222726D01*
X0013329885Y0036410905D01*
X0013363911Y0036473217D01*
X0013358846Y0036544032D01*
X0013329885Y0036589095D01*
X0011141810Y0038777170D01*
X0011079498Y0038811196D01*
X0011008683Y0038806131D01*
X0010956903Y0038769905D01*
X0010832626Y0038624394D01*
X0010824350Y0038613568D01*
X0010619380Y0038313094D01*
X0010612320Y0038301437D01*
X0010441001Y0037980583D01*
X0010435242Y0037968233D01*
X0010299576Y0037630755D01*
X0010295184Y0037617854D01*
X0010196759Y0037267697D01*
X0010193786Y0037254397D01*
X0010133754Y0036895658D01*
X0010132235Y0036882115D01*
X0010111297Y0036518992D01*
X0010111249Y0036505364D01*
X0009238414Y0036505364D01*
X0009249375Y0036523146D01*
X0009261708Y0036549595D01*
X0009317390Y0036717472D01*
X0009323141Y0036744296D01*
X0009333844Y0036848757D01*
X0009334500Y0036861600D01*
X0009334500Y0037862400D01*
X0009333827Y0037875404D01*
X0009322853Y0037981170D01*
X0009317050Y0038008042D01*
X0009261074Y0038175822D01*
X0009248694Y0038202249D01*
X0009155622Y0038352651D01*
X0009137496Y0038375521D01*
X0009012321Y0038500478D01*
X0008989419Y0038518565D01*
X0008838854Y0038611375D01*
X0008812405Y0038623708D01*
X0008644528Y0038679390D01*
X0008617704Y0038685141D01*
X0008513243Y0038695844D01*
X0008500400Y0038696500D01*
X0007699600Y0038696500D01*
X0007686596Y0038695827D01*
X0007580830Y0038684853D01*
X0007553958Y0038679050D01*
X0007386178Y0038623074D01*
X0007359751Y0038610694D01*
X0007209349Y0038517622D01*
X0007186479Y0038499496D01*
X0007099689Y0038412555D01*
X0007012009Y0038500083D01*
X0006989107Y0038518170D01*
X0006838641Y0038610918D01*
X0006812193Y0038623251D01*
X0006644427Y0038678897D01*
X0006617601Y0038684648D01*
X0006513205Y0038695344D01*
X0006500363Y0038696000D01*
X0006354000Y0038696000D01*
X0006285879Y0038675998D01*
X0006239386Y0038622342D01*
X0006228000Y0038570000D01*
X0006228000Y0037234000D01*
X0004992001Y0037234000D01*
X0004923880Y0037213998D01*
X0004877387Y0037160342D01*
X0004866001Y0037108000D01*
X0004866001Y0036861638D01*
X0004866674Y0036848635D01*
X0004877641Y0036742934D01*
X0004883444Y0036716061D01*
X0004939382Y0036548392D01*
X0004951762Y0036521965D01*
X0005044773Y0036371662D01*
X0005062899Y0036348792D01*
X0005187991Y0036223917D01*
X0005210893Y0036205830D01*
X0005361359Y0036113082D01*
X0005387807Y0036100749D01*
X0005408549Y0036093869D01*
X0005391178Y0036088074D01*
X0005364751Y0036075694D01*
X0005214349Y0035982622D01*
X0005191479Y0035964496D01*
X0005066522Y0035839321D01*
X0005048435Y0035816418D01*
X0004955625Y0035665854D01*
X0004943292Y0035639405D01*
X0004913472Y0035549500D01*
X0004486323Y0035549500D01*
X0004474087Y0035565826D01*
X0004448826Y0035591087D01*
X0004332270Y0035678441D01*
X0004300935Y0035695597D01*
X0004181917Y0035740215D01*
X0004286653Y0035844587D01*
X0004300035Y0035860311D01*
X0004430344Y0036041655D01*
X0004440979Y0036059354D01*
X0004539921Y0036259547D01*
X0004547522Y0036278745D01*
X0004612438Y0036492408D01*
X0004616802Y0036512592D01*
X0004621273Y0036546555D01*
X0004610333Y0036616703D01*
X0004563205Y0036669802D01*
X0004496351Y0036689000D01*
X0001825110Y0036689000D01*
X0001756989Y0036668998D01*
X0001710496Y0036615342D01*
X0001700392Y0036545068D01*
X0001702193Y0036535299D01*
X0001736784Y0036381810D01*
X0001742958Y0036362107D01*
X0001826971Y0036155206D01*
X0001836281Y0036136775D01*
X0001952959Y0035946374D01*
X0001965155Y0035929712D01*
X0002111364Y0035760924D01*
X0002126116Y0035746477D01*
X0002135035Y0035739072D01*
X0002019065Y0035695597D01*
X0001987730Y0035678441D01*
X0001871174Y0035591087D01*
X0001845913Y0035565826D01*
X0001758559Y0035449270D01*
X0001741403Y0035417935D01*
X0001690273Y0035281546D01*
X0001682992Y0035250924D01*
X0001676237Y0035188742D01*
X0001675500Y0035175134D01*
X0001675500Y0033378866D01*
X0000634000Y0033378866D01*
X0000634000Y0037084410D01*
X0001696055Y0037084410D01*
X0001708693Y0037014547D01*
X0001757096Y0036962608D01*
X0001821339Y0036945000D01*
X0002906000Y0036945000D01*
X0002974121Y0036965002D01*
X0003020614Y0037018658D01*
X0003032000Y0037071000D01*
X0003288000Y0037071000D01*
X0003308002Y0037002879D01*
X0003361658Y0036956386D01*
X0003414000Y0036945000D01*
X0004496459Y0036945000D01*
X0004564580Y0036965002D01*
X0004611073Y0037018658D01*
X0004621177Y0037088932D01*
X0004618663Y0037101696D01*
X0004572159Y0037286833D01*
X0004565505Y0037306379D01*
X0004476462Y0037511165D01*
X0004466704Y0037529363D01*
X0004410656Y0037616000D01*
X0004866000Y0037616000D01*
X0004886002Y0037547879D01*
X0004939658Y0037501386D01*
X0004992000Y0037490000D01*
X0005846000Y0037490000D01*
X0005914121Y0037510002D01*
X0005960614Y0037563658D01*
X0005972000Y0037616000D01*
X0005972000Y0038569999D01*
X0005951998Y0038638120D01*
X0005898342Y0038684613D01*
X0005846000Y0038695999D01*
X0005699638Y0038695999D01*
X0005686635Y0038695326D01*
X0005580934Y0038684359D01*
X0005554061Y0038678556D01*
X0005386392Y0038622618D01*
X0005359965Y0038610238D01*
X0005209662Y0038517227D01*
X0005186792Y0038499101D01*
X0005061917Y0038374009D01*
X0005043830Y0038351107D01*
X0004951082Y0038200641D01*
X0004938749Y0038174193D01*
X0004883103Y0038006427D01*
X0004877352Y0037979601D01*
X0004866656Y0037875205D01*
X0004866000Y0037862363D01*
X0004866000Y0037616000D01*
X0004410656Y0037616000D01*
X0004345409Y0037716857D01*
X0004332810Y0037733216D01*
X0004182521Y0037898382D01*
X0004167420Y0037912464D01*
X0003992173Y0038050865D01*
X0003974975Y0038062291D01*
X0003779477Y0038170212D01*
X0003760643Y0038178677D01*
X0003550144Y0038253219D01*
X0003530180Y0038258493D01*
X0003436096Y0038275252D01*
X0003365524Y0038267506D01*
X0003310342Y0038222836D01*
X0003288000Y0038151205D01*
X0003288000Y0037071000D01*
X0003032000Y0037071000D01*
X0003032000Y0038152013D01*
X0003011998Y0038220134D01*
X0002958342Y0038266627D01*
X0002886940Y0038276563D01*
X0002825148Y0038267107D01*
X0002805063Y0038262322D01*
X0002592805Y0038192946D01*
X0002573770Y0038184944D01*
X0002375694Y0038081832D01*
X0002358221Y0038070829D01*
X0002179645Y0037936750D01*
X0002164204Y0037923041D01*
X0002009925Y0037761597D01*
X0001996931Y0037745550D01*
X0001871091Y0037561076D01*
X0001860891Y0037543122D01*
X0001766871Y0037340572D01*
X0001759742Y0037321194D01*
X0001700065Y0037106008D01*
X0001696198Y0037085746D01*
X0001696055Y0037084410D01*
X0000634000Y0037084410D01*
X0000634000Y0039366000D01*
X0011613728Y0039366000D01*
X0011353366Y0039169089D02*
X0011613728Y0039366000D01*
G04 #@! TA.AperFunction,Conductor*
G36*
X0011353366Y0039169089D02*
G01*
X0011342956Y0039160293D01*
X0011323004Y0039141491D01*
X0011287146Y0039080215D01*
X0011290108Y0039009281D01*
X0011320323Y0038960697D01*
X0013510905Y0036770115D01*
X0013573217Y0036736089D01*
X0013644032Y0036741154D01*
X0013689095Y0036770115D01*
X0015880073Y0038961093D01*
X0015914099Y0039023405D01*
X0015909034Y0039094220D01*
X0015877713Y0039141583D01*
X0015866318Y0039152397D01*
X0015855937Y0039161232D01*
X0015587140Y0039366000D01*
X0016966000Y0039366000D01*
X0016966000Y0037399684D01*
X0016908698Y0037606310D01*
X0016904352Y0037619226D01*
X0016769865Y0037957177D01*
X0016764147Y0037969548D01*
X0016593948Y0038290997D01*
X0016586931Y0038302678D01*
X0016383012Y0038603866D01*
X0016374772Y0038614721D01*
X0016243419Y0038769608D01*
X0016184104Y0038808625D01*
X0016113112Y0038809380D01*
X0016058228Y0038777208D01*
X0013870115Y0036589095D01*
X0013836089Y0036526783D01*
X0013841154Y0036455968D01*
X0013870115Y0036410905D01*
X0016058180Y0034222840D01*
X0016120491Y0034188814D01*
X0016191306Y0034193879D01*
X0016242799Y0034229770D01*
X0016359941Y0034365958D01*
X0016368255Y0034376756D01*
X0016574273Y0034676513D01*
X0016581373Y0034688145D01*
X0016753812Y0035008398D01*
X0016759615Y0035020729D01*
X0016896458Y0035357732D01*
X0016900894Y0035370617D01*
X0016966000Y0035599174D01*
X0016966000Y0004399684D01*
X0016908698Y0004606310D01*
X0016904352Y0004619225D01*
X0016769865Y0004957177D01*
X0016764147Y0004969548D01*
X0016593948Y0005290996D01*
X0016586931Y0005302678D01*
X0016383012Y0005603865D01*
X0016374772Y0005614721D01*
X0016243419Y0005769607D01*
X0016184104Y0005808624D01*
X0016113112Y0005809379D01*
X0016058228Y0005777208D01*
X0013870115Y0003589095D01*
X0013836089Y0003526783D01*
X0013841154Y0003455967D01*
X0013870115Y0003410904D01*
X0016058180Y0001222839D01*
X0016120491Y0001188814D01*
X0016191306Y0001193879D01*
X0016242799Y0001229770D01*
X0016359941Y0001365957D01*
X0016368255Y0001376756D01*
X0016574273Y0001676513D01*
X0016581373Y0001688144D01*
X0016753812Y0002008397D01*
X0016759615Y0002020729D01*
X0016896458Y0002357731D01*
X0016900894Y0002370617D01*
X0016966000Y0002599173D01*
X0016966000Y0000634000D01*
X0015585466Y0000634000D01*
X0015837304Y0000823084D01*
X0015847744Y0000831845D01*
X0015876308Y0000858575D01*
X0015912380Y0000919724D01*
X0015909665Y0000990670D01*
X0015879310Y0001039670D01*
X0013689095Y0003229885D01*
X0013626783Y0003263911D01*
X0013555968Y0003258845D01*
X0013510905Y0003229885D01*
X0011319502Y0001038482D01*
X0011285476Y0000976170D01*
X0011290541Y0000905355D01*
X0011321555Y0000858283D01*
X0011324449Y0000855519D01*
X0011334787Y0000846660D01*
X0011611930Y0000634000D01*
X0000634000Y0000634000D01*
X0000634000Y0003505364D01*
X0010111249Y0003505364D01*
X0010129651Y0003142102D01*
X0010131076Y0003128549D01*
X0010188603Y0002769401D01*
X0010191483Y0002756081D01*
X0010287460Y0002405245D01*
X0010291761Y0002392315D01*
X0010425068Y0002053896D01*
X0010430741Y0002041505D01*
X0010599816Y0001719464D01*
X0010606794Y0001707759D01*
X0010809661Y0001405861D01*
X0010817863Y0001394976D01*
X0010956231Y0001230660D01*
X0011015410Y0001191437D01*
X0011086399Y0001190435D01*
X0011141706Y0001222726D01*
X0013329885Y0003410904D01*
X0013363911Y0003473216D01*
X0013358846Y0003544032D01*
X0013329885Y0003589095D01*
X0011141810Y0005777169D01*
X0011079498Y0005811196D01*
X0011008683Y0005806131D01*
X0010956903Y0005769905D01*
X0010832626Y0005624394D01*
X0010824350Y0005613568D01*
X0010619380Y0005313094D01*
X0010612320Y0005301437D01*
X0010441001Y0004980583D01*
X0010435242Y0004968232D01*
X0010299576Y0004630755D01*
X0010295184Y0004617854D01*
X0010196759Y0004267696D01*
X0010193786Y0004254396D01*
X0010133754Y0003895657D01*
X0010132235Y0003882114D01*
X0010111297Y0003518991D01*
X0010111249Y0003505364D01*
X0000634000Y0003505364D01*
X0000634000Y0006080215D01*
X0011287146Y0006080215D01*
X0011290108Y0006009281D01*
X0011320323Y0005960697D01*
X0013510905Y0003770114D01*
X0013573217Y0003736089D01*
X0013644032Y0003741154D01*
X0013689095Y0003770114D01*
X0015880073Y0005961092D01*
X0015914099Y0006023404D01*
X0015909034Y0006094220D01*
X0015877713Y0006141582D01*
X0015866318Y0006152397D01*
X0015855937Y0006161231D01*
X0015566602Y0006381646D01*
X0015555331Y0006389305D01*
X0015243884Y0006577182D01*
X0015231852Y0006583581D01*
X0014901936Y0006736722D01*
X0014889282Y0006741784D01*
X0014544756Y0006858398D01*
X0014531630Y0006862062D01*
X0014176525Y0006940787D01*
X0014163080Y0006943013D01*
X0013801550Y0006982926D01*
X0013787944Y0006983688D01*
X0013424218Y0006984323D01*
X0013410609Y0006983609D01*
X0013048941Y0006944958D01*
X0013035488Y0006942779D01*
X0012680111Y0006865295D01*
X0012666973Y0006861676D01*
X0012322042Y0006746263D01*
X0012309371Y0006741247D01*
X0011978922Y0006589258D01*
X0011966867Y0006582901D01*
X0011654766Y0006396113D01*
X0011643468Y0006388491D01*
X0011353366Y0006169089D01*
X0011342956Y0006160293D01*
X0011323004Y0006141491D01*
X0011287146Y0006080215D01*
X0000634000Y0006080215D01*
X0000634000Y0011428570D01*
X0001766922Y0011428570D01*
X0001776702Y0011217275D01*
X0001780074Y0011193580D01*
X0001829632Y0010987945D01*
X0001837424Y0010965315D01*
X0001924973Y0010772762D01*
X0001936904Y0010752013D01*
X0002059284Y0010579488D01*
X0002074923Y0010561371D01*
X0002227719Y0010415101D01*
X0002246502Y0010400267D01*
X0002424200Y0010285528D01*
X0002445450Y0010274514D01*
X0002641639Y0010195447D01*
X0002664587Y0010188650D01*
X0002872187Y0010148108D01*
X0002890183Y0010145921D01*
X0002895745Y0010145650D01*
X0002901899Y0010145499D01*
X0003607846Y0010145499D01*
X0003619813Y0010146070D01*
X0003777533Y0010161117D01*
X0003801035Y0010165643D01*
X0004004003Y0010225186D01*
X0004026226Y0010234076D01*
X0004214272Y0010330926D01*
X0004234413Y0010343855D01*
X0004400753Y0010474518D01*
X0004418085Y0010491024D01*
X0004556717Y0010650783D01*
X0004570616Y0010670268D01*
X0004676537Y0010853359D01*
X0004686501Y0010875121D01*
X0004755889Y0011074938D01*
X0004761557Y0011098191D01*
X0004791909Y0011307524D01*
X0004793078Y0011331430D01*
X0004783298Y0011542725D01*
X0004779926Y0011566420D01*
X0004730368Y0011772055D01*
X0004722576Y0011794685D01*
X0004635027Y0011987238D01*
X0004623096Y0012007987D01*
X0004500716Y0012180511D01*
X0004485077Y0012198629D01*
X0004332281Y0012344899D01*
X0004313498Y0012359732D01*
X0004280742Y0012380883D01*
X0004400407Y0012474882D01*
X0004417739Y0012491387D01*
X0004556308Y0012651073D01*
X0004570207Y0012670559D01*
X0004676080Y0012853568D01*
X0004686044Y0012875330D01*
X0004755401Y0013075057D01*
X0004761070Y0013098315D01*
X0004762463Y0013107925D01*
X0004752440Y0013178210D01*
X0004706009Y0013231919D01*
X0004637766Y0013251999D01*
X0001926483Y0013251999D01*
X0001858362Y0013231998D01*
X0001811869Y0013178342D01*
X0001801765Y0013108068D01*
X0001803990Y0013096478D01*
X0001830107Y0012988109D01*
X0001837899Y0012965478D01*
X0001925408Y0012773012D01*
X0001937339Y0012752263D01*
X0002059664Y0012579816D01*
X0002075303Y0012561699D01*
X0002228030Y0012415495D01*
X0002246813Y0012400661D01*
X0002279230Y0012379729D01*
X0002159247Y0012285481D01*
X0002141915Y0012268975D01*
X0002003283Y0012109217D01*
X0001989384Y0012089732D01*
X0001883463Y0011906641D01*
X0001873499Y0011884879D01*
X0001804111Y0011685061D01*
X0001798443Y0011661809D01*
X0001768091Y0011452476D01*
X0001766922Y0011428570D01*
X0000634000Y0011428570D01*
X0000634000Y0015428570D01*
X0001766922Y0015428570D01*
X0001776702Y0015217275D01*
X0001780074Y0015193580D01*
X0001829632Y0014987945D01*
X0001837424Y0014965315D01*
X0001924973Y0014772762D01*
X0001936904Y0014752013D01*
X0002059284Y0014579488D01*
X0002074923Y0014561371D01*
X0002227719Y0014415101D01*
X0002246502Y0014400267D01*
X0002279258Y0014379116D01*
X0002159593Y0014285118D01*
X0002142261Y0014268612D01*
X0002003692Y0014108927D01*
X0001989793Y0014089441D01*
X0001883920Y0013906431D01*
X0001873956Y0013884670D01*
X0001804599Y0013684943D01*
X0001798930Y0013661684D01*
X0001797537Y0013652075D01*
X0001807560Y0013581790D01*
X0001853991Y0013528081D01*
X0001922234Y0013508000D01*
X0004633517Y0013508000D01*
X0004701638Y0013528002D01*
X0004748131Y0013581658D01*
X0004758235Y0013651931D01*
X0004756010Y0013663521D01*
X0004729893Y0013771891D01*
X0004722101Y0013794521D01*
X0004634592Y0013986988D01*
X0004622661Y0014007736D01*
X0004500336Y0014180183D01*
X0004484697Y0014198301D01*
X0004331970Y0014344505D01*
X0004313187Y0014359338D01*
X0004280770Y0014380270D01*
X0004400753Y0014474518D01*
X0004418085Y0014491024D01*
X0004556717Y0014650783D01*
X0004570616Y0014670268D01*
X0004676537Y0014853359D01*
X0004686501Y0014875121D01*
X0004755889Y0015074938D01*
X0004761557Y0015098191D01*
X0004791909Y0015307524D01*
X0004793078Y0015331430D01*
X0004783298Y0015542725D01*
X0004779926Y0015566420D01*
X0004730368Y0015772055D01*
X0004722576Y0015794685D01*
X0004635027Y0015987238D01*
X0004623096Y0016007987D01*
X0004500716Y0016180511D01*
X0004485077Y0016198629D01*
X0004332281Y0016344899D01*
X0004313498Y0016359732D01*
X0004280742Y0016380883D01*
X0004400407Y0016474882D01*
X0004417739Y0016491387D01*
X0004556308Y0016651073D01*
X0004570207Y0016670559D01*
X0004676080Y0016853568D01*
X0004686044Y0016875330D01*
X0004755401Y0017075057D01*
X0004761070Y0017098315D01*
X0004762463Y0017107925D01*
X0004752440Y0017178210D01*
X0004706009Y0017231919D01*
X0004637766Y0017252000D01*
X0001926483Y0017252000D01*
X0001858362Y0017231998D01*
X0001811869Y0017178342D01*
X0001801765Y0017108068D01*
X0001803990Y0017096479D01*
X0001830107Y0016988109D01*
X0001837899Y0016965479D01*
X0001925408Y0016773012D01*
X0001937339Y0016752263D01*
X0002059664Y0016579816D01*
X0002075303Y0016561699D01*
X0002228030Y0016415495D01*
X0002246813Y0016400661D01*
X0002279230Y0016379729D01*
X0002159247Y0016285481D01*
X0002141915Y0016268975D01*
X0002003283Y0016109217D01*
X0001989384Y0016089732D01*
X0001883463Y0015906641D01*
X0001873499Y0015884879D01*
X0001804111Y0015685061D01*
X0001798443Y0015661809D01*
X0001768091Y0015452476D01*
X0001766922Y0015428570D01*
X0000634000Y0015428570D01*
X0000634000Y0019428570D01*
X0001766922Y0019428570D01*
X0001776702Y0019217275D01*
X0001780074Y0019193580D01*
X0001829632Y0018987945D01*
X0001837424Y0018965315D01*
X0001924973Y0018772762D01*
X0001936904Y0018752013D01*
X0002059284Y0018579489D01*
X0002074923Y0018561371D01*
X0002227719Y0018415101D01*
X0002246502Y0018400267D01*
X0002279258Y0018379116D01*
X0002159593Y0018285118D01*
X0002142261Y0018268613D01*
X0002003692Y0018108927D01*
X0001989793Y0018089441D01*
X0001883920Y0017906432D01*
X0001873956Y0017884670D01*
X0001804599Y0017684943D01*
X0001798930Y0017661685D01*
X0001797537Y0017652075D01*
X0001807560Y0017581790D01*
X0001853991Y0017528081D01*
X0001922234Y0017508000D01*
X0004633517Y0017508000D01*
X0004701638Y0017528002D01*
X0004748131Y0017581658D01*
X0004758235Y0017651932D01*
X0004756010Y0017663521D01*
X0004729893Y0017771891D01*
X0004722101Y0017794521D01*
X0004634592Y0017986988D01*
X0004622661Y0018007737D01*
X0004500336Y0018180183D01*
X0004484697Y0018198301D01*
X0004331970Y0018344505D01*
X0004313187Y0018359339D01*
X0004280770Y0018380270D01*
X0004400753Y0018474518D01*
X0004418085Y0018491024D01*
X0004556717Y0018650783D01*
X0004570616Y0018670268D01*
X0004676537Y0018853359D01*
X0004686501Y0018875121D01*
X0004755889Y0019074938D01*
X0004761557Y0019098191D01*
X0004791909Y0019307524D01*
X0004793078Y0019331430D01*
X0004783298Y0019542725D01*
X0004779926Y0019566420D01*
X0004730368Y0019772055D01*
X0004722576Y0019794685D01*
X0004635027Y0019987238D01*
X0004623096Y0020007987D01*
X0004500716Y0020180511D01*
X0004485077Y0020198629D01*
X0004332281Y0020344899D01*
X0004313498Y0020359733D01*
X0004280742Y0020380884D01*
X0004400407Y0020474882D01*
X0004417739Y0020491387D01*
X0004556308Y0020651073D01*
X0004570207Y0020670559D01*
X0004676080Y0020853568D01*
X0004686044Y0020875330D01*
X0004755401Y0021075057D01*
X0004761070Y0021098315D01*
X0004762463Y0021107925D01*
X0004752440Y0021178210D01*
X0004706009Y0021231919D01*
X0004637766Y0021252000D01*
X0001926483Y0021252000D01*
X0001858362Y0021231998D01*
X0001811869Y0021178342D01*
X0001801765Y0021108068D01*
X0001803990Y0021096479D01*
X0001830107Y0020988109D01*
X0001837899Y0020965479D01*
X0001925408Y0020773012D01*
X0001937339Y0020752263D01*
X0002059664Y0020579817D01*
X0002075303Y0020561699D01*
X0002228030Y0020415495D01*
X0002246813Y0020400661D01*
X0002279230Y0020379730D01*
X0002159247Y0020285482D01*
X0002141915Y0020268976D01*
X0002003283Y0020109217D01*
X0001989384Y0020089732D01*
X0001883463Y0019906641D01*
X0001873499Y0019884879D01*
X0001804111Y0019685062D01*
X0001798443Y0019661809D01*
X0001768091Y0019452476D01*
X0001766922Y0019428570D01*
X0000634000Y0019428570D01*
X0000634000Y0023428570D01*
X0001766922Y0023428570D01*
X0001776702Y0023217275D01*
X0001780074Y0023193580D01*
X0001829632Y0022987945D01*
X0001837424Y0022965315D01*
X0001924973Y0022772762D01*
X0001936904Y0022752013D01*
X0002059284Y0022579489D01*
X0002074923Y0022561371D01*
X0002227719Y0022415101D01*
X0002246502Y0022400267D01*
X0002279258Y0022379116D01*
X0002159593Y0022285118D01*
X0002142261Y0022268613D01*
X0002003692Y0022108927D01*
X0001989793Y0022089441D01*
X0001883920Y0021906432D01*
X0001873956Y0021884670D01*
X0001804599Y0021684943D01*
X0001798930Y0021661685D01*
X0001797537Y0021652075D01*
X0001807560Y0021581790D01*
X0001853991Y0021528081D01*
X0001922234Y0021508000D01*
X0004633517Y0021508000D01*
X0004701638Y0021528002D01*
X0004748131Y0021581658D01*
X0004758235Y0021651932D01*
X0004756010Y0021663521D01*
X0004729893Y0021771891D01*
X0004722101Y0021794521D01*
X0004634592Y0021986988D01*
X0004622661Y0022007737D01*
X0004500336Y0022180183D01*
X0004484697Y0022198301D01*
X0004331970Y0022344505D01*
X0004313187Y0022359339D01*
X0004280770Y0022380270D01*
X0004400753Y0022474518D01*
X0004418085Y0022491024D01*
X0004556717Y0022650783D01*
X0004570616Y0022670268D01*
X0004676537Y0022853359D01*
X0004686501Y0022875121D01*
X0004755889Y0023074938D01*
X0004761557Y0023098191D01*
X0004791909Y0023307524D01*
X0004793078Y0023331430D01*
X0004783298Y0023542725D01*
X0004779926Y0023566420D01*
X0004730368Y0023772055D01*
X0004722576Y0023794685D01*
X0004635027Y0023987238D01*
X0004623096Y0024007987D01*
X0004500716Y0024180511D01*
X0004485077Y0024198629D01*
X0004332281Y0024344898D01*
X0004313498Y0024359733D01*
X0004280742Y0024380884D01*
X0004400407Y0024474882D01*
X0004417739Y0024491387D01*
X0004556308Y0024651073D01*
X0004570207Y0024670559D01*
X0004676080Y0024853568D01*
X0004686044Y0024875330D01*
X0004755401Y0025075057D01*
X0004761070Y0025098315D01*
X0004762463Y0025107925D01*
X0004752440Y0025178210D01*
X0004706009Y0025231918D01*
X0004637766Y0025252000D01*
X0001926483Y0025252000D01*
X0001858362Y0025231998D01*
X0001811869Y0025178342D01*
X0001801765Y0025108068D01*
X0001803990Y0025096479D01*
X0001830107Y0024988109D01*
X0001837899Y0024965479D01*
X0001925408Y0024773012D01*
X0001937339Y0024752263D01*
X0002059664Y0024579817D01*
X0002075303Y0024561699D01*
X0002228030Y0024415495D01*
X0002246813Y0024400661D01*
X0002279230Y0024379730D01*
X0002159247Y0024285482D01*
X0002141915Y0024268976D01*
X0002003283Y0024109217D01*
X0001989384Y0024089731D01*
X0001883463Y0023906641D01*
X0001873499Y0023884879D01*
X0001804111Y0023685062D01*
X0001798443Y0023661809D01*
X0001768091Y0023452476D01*
X0001766922Y0023428570D01*
X0000634000Y0023428570D01*
X0000634000Y0033378866D01*
X0001675500Y0033378866D01*
X0001676237Y0033365257D01*
X0001682992Y0033303075D01*
X0001690273Y0033272453D01*
X0001741403Y0033136065D01*
X0001758559Y0033104730D01*
X0001845913Y0032988174D01*
X0001871174Y0032962913D01*
X0001987730Y0032875559D01*
X0002019065Y0032858403D01*
X0002155454Y0032807273D01*
X0002186076Y0032799992D01*
X0002248258Y0032793236D01*
X0002261866Y0032792500D01*
X0004058134Y0032792500D01*
X0004071742Y0032793236D01*
X0004133924Y0032799992D01*
X0004164545Y0032807273D01*
X0004300935Y0032858403D01*
X0004332270Y0032875559D01*
X0004448826Y0032962913D01*
X0004474087Y0032988174D01*
X0004561441Y0033104730D01*
X0004578597Y0033136065D01*
X0004629727Y0033272453D01*
X0004637008Y0033303075D01*
X0004643763Y0033365257D01*
X0004644500Y0033378866D01*
X0004644500Y0034030500D01*
X0004921466Y0034030500D01*
X0004943927Y0033963178D01*
X0004956306Y0033936751D01*
X0005049378Y0033786349D01*
X0005067504Y0033763479D01*
X0005192679Y0033638522D01*
X0005215581Y0033620435D01*
X0005366146Y0033527625D01*
X0005392595Y0033515292D01*
X0005433381Y0033501764D01*
X0005409751Y0033490693D01*
X0005259349Y0033397622D01*
X0005236479Y0033379496D01*
X0005111522Y0033254320D01*
X0005093435Y0033231419D01*
X0005000625Y0033080854D01*
X0004988292Y0033054405D01*
X0004932610Y0032886528D01*
X0004926859Y0032859704D01*
X0004916156Y0032755243D01*
X0004915500Y0032742400D01*
X0004915500Y0031741600D01*
X0004916173Y0031728596D01*
X0004927147Y0031622830D01*
X0004932950Y0031595958D01*
X0004988926Y0031428178D01*
X0005001306Y0031401751D01*
X0005094378Y0031251348D01*
X0005112504Y0031228479D01*
X0005237679Y0031103521D01*
X0005260581Y0031085435D01*
X0005411146Y0030992625D01*
X0005437595Y0030980292D01*
X0005605472Y0030924610D01*
X0005632296Y0030918858D01*
X0005736757Y0030908156D01*
X0005749600Y0030907500D01*
X0006550400Y0030907500D01*
X0006563404Y0030908172D01*
X0006669170Y0030919147D01*
X0006696042Y0030924950D01*
X0006863822Y0030980926D01*
X0006890249Y0030993306D01*
X0007040651Y0031086378D01*
X0007063521Y0031104504D01*
X0007149957Y0031191091D01*
X0007237679Y0031103521D01*
X0007260581Y0031085435D01*
X0007411146Y0030992625D01*
X0007437595Y0030980292D01*
X0007605472Y0030924610D01*
X0007632296Y0030918858D01*
X0007736757Y0030908156D01*
X0007749600Y0030907500D01*
X0008268406Y0030907500D01*
X0009105447Y0030070459D01*
X0009102358Y0030071004D01*
X0008880982Y0030090372D01*
X0008859018Y0030090372D01*
X0008637642Y0030071004D01*
X0008616013Y0030067190D01*
X0008401364Y0030009675D01*
X0008380725Y0030002163D01*
X0008179325Y0029908248D01*
X0008160306Y0029897267D01*
X0008097125Y0029853029D01*
X0008052796Y0029797572D01*
X0008045486Y0029726953D01*
X0008080299Y0029660719D01*
X0009051020Y0028689999D01*
X0008080299Y0027719279D01*
X0008046274Y0027656968D01*
X0008051339Y0027586153D01*
X0008097125Y0027526972D01*
X0008160304Y0027482734D01*
X0008179323Y0027471752D01*
X0008289714Y0027420276D01*
X0008179074Y0027368683D01*
X0008160053Y0027357701D01*
X0007977948Y0027230190D01*
X0007961124Y0027216072D01*
X0007829552Y0027084500D01*
X0006167082Y0027084500D01*
X0005217329Y0028034253D01*
X0005154252Y0028098665D01*
X0005132484Y0028116418D01*
X0005096050Y0028139898D01*
X0005062165Y0028166947D01*
X0005038395Y0028181917D01*
X0005008201Y0028196513D01*
X0004980018Y0028214676D01*
X0004954858Y0028227166D01*
X0004914122Y0028241993D01*
X0004875089Y0028260862D01*
X0004848595Y0028270192D01*
X0004815917Y0028277736D01*
X0004784410Y0028289203D01*
X0004757106Y0028295810D01*
X0004714091Y0028301244D01*
X0004671860Y0028310994D01*
X0004643955Y0028314223D01*
X0004603385Y0028314365D01*
X0004601231Y0028314500D01*
X0004564581Y0028314500D01*
X0004462570Y0028314856D01*
X0004459293Y0028314500D01*
X0004429688Y0028314500D01*
X0004445651Y0028324378D01*
X0004468521Y0028342504D01*
X0004593478Y0028467679D01*
X0004611565Y0028490581D01*
X0004704375Y0028641146D01*
X0004716708Y0028667595D01*
X0004720497Y0028679018D01*
X0007469628Y0028679018D01*
X0007488996Y0028457642D01*
X0007492810Y0028436013D01*
X0007550325Y0028221364D01*
X0007557837Y0028200725D01*
X0007651752Y0027999325D01*
X0007662733Y0027980306D01*
X0007706971Y0027917126D01*
X0007762428Y0027872796D01*
X0007833047Y0027865486D01*
X0007899280Y0027900300D01*
X0008599885Y0028600904D01*
X0008633911Y0028663217D01*
X0008628846Y0028734032D01*
X0008599885Y0028779094D01*
X0007899280Y0029479700D01*
X0007836968Y0029513726D01*
X0007766153Y0029508661D01*
X0007706971Y0029462874D01*
X0007662733Y0029399694D01*
X0007651752Y0029380675D01*
X0007557837Y0029179275D01*
X0007550325Y0029158636D01*
X0007492810Y0028943987D01*
X0007488996Y0028922358D01*
X0007469628Y0028700982D01*
X0007469628Y0028679018D01*
X0004720497Y0028679018D01*
X0004772390Y0028835472D01*
X0004778141Y0028862296D01*
X0004788844Y0028966757D01*
X0004789500Y0028979599D01*
X0004789500Y0029780400D01*
X0004788827Y0029793404D01*
X0004777853Y0029899169D01*
X0004772050Y0029926042D01*
X0004716074Y0030093822D01*
X0004703694Y0030120249D01*
X0004610622Y0030270651D01*
X0004592496Y0030293521D01*
X0004467321Y0030418478D01*
X0004444419Y0030436565D01*
X0004293854Y0030529375D01*
X0004267405Y0030541708D01*
X0004099528Y0030597390D01*
X0004072704Y0030603141D01*
X0003968243Y0030613844D01*
X0003955400Y0030614500D01*
X0002604600Y0030614500D01*
X0002591596Y0030613827D01*
X0002485830Y0030602853D01*
X0002458958Y0030597050D01*
X0002291178Y0030541074D01*
X0002264751Y0030528694D01*
X0002114349Y0030435622D01*
X0002091479Y0030417496D01*
X0001966522Y0030292321D01*
X0001948435Y0030269419D01*
X0001855625Y0030118854D01*
X0001843292Y0030092405D01*
X0001787610Y0029924528D01*
X0001781859Y0029897703D01*
X0001771156Y0029793243D01*
X0001770500Y0029780400D01*
X0001770500Y0028979599D01*
X0001771173Y0028966596D01*
X0001782147Y0028860830D01*
X0001787950Y0028833958D01*
X0001843926Y0028666178D01*
X0001856306Y0028639751D01*
X0001949378Y0028489349D01*
X0001967504Y0028466479D01*
X0002092679Y0028341521D01*
X0002115581Y0028323435D01*
X0002167120Y0028291666D01*
X0002159247Y0028285482D01*
X0002141915Y0028268976D01*
X0002003283Y0028109217D01*
X0001989384Y0028089731D01*
X0001883463Y0027906641D01*
X0001873499Y0027884878D01*
X0001804111Y0027685062D01*
X0001798443Y0027661808D01*
X0001768091Y0027452476D01*
X0001766922Y0027428570D01*
X0001776702Y0027217275D01*
X0001780074Y0027193580D01*
X0001829632Y0026987945D01*
X0001837424Y0026965315D01*
X0001924973Y0026772762D01*
X0001936904Y0026752012D01*
X0002059284Y0026579489D01*
X0002074923Y0026561371D01*
X0002227719Y0026415101D01*
X0002246502Y0026400267D01*
X0002279258Y0026379116D01*
X0002159593Y0026285118D01*
X0002142261Y0026268613D01*
X0002003692Y0026108927D01*
X0001989793Y0026089441D01*
X0001883920Y0025906432D01*
X0001873956Y0025884670D01*
X0001804599Y0025684943D01*
X0001798930Y0025661685D01*
X0001797537Y0025652075D01*
X0001807560Y0025581789D01*
X0001853991Y0025528081D01*
X0001922234Y0025508000D01*
X0004633517Y0025508000D01*
X0004701638Y0025528002D01*
X0004748131Y0025581657D01*
X0004758235Y0025651932D01*
X0004756010Y0025663521D01*
X0004729893Y0025771891D01*
X0004722101Y0025794521D01*
X0004645566Y0025962851D01*
X0005112624Y0025495794D01*
X0005175747Y0025431335D01*
X0005197516Y0025413581D01*
X0005233959Y0025390095D01*
X0005267834Y0025363053D01*
X0005291605Y0025348083D01*
X0005321799Y0025333486D01*
X0005349982Y0025315324D01*
X0005375142Y0025302834D01*
X0005405500Y0025291784D01*
X0005405500Y0023754214D01*
X0005404556Y0023664099D01*
X0005407395Y0023636152D01*
X0005416555Y0023593787D01*
X0005421388Y0023550699D01*
X0005427611Y0023523308D01*
X0005438642Y0023491632D01*
X0005445727Y0023458862D01*
X0005454686Y0023432241D01*
X0005473006Y0023392954D01*
X0005487264Y0023352010D01*
X0005499400Y0023326679D01*
X0005517172Y0023298237D01*
X0005531343Y0023267848D01*
X0005545979Y0023243871D01*
X0005572547Y0023209620D01*
X0005595519Y0023172856D01*
X0005612967Y0023150841D01*
X0005641569Y0023122038D01*
X0005642983Y0023120435D01*
X0005668662Y0023094756D01*
X0005740779Y0023022134D01*
X0005743356Y0023020062D01*
X0007395500Y0021367918D01*
X0007395500Y0020925121D01*
X0007346920Y0020928433D01*
X0007316688Y0020926849D01*
X0007253749Y0020915864D01*
X0007190324Y0020908189D01*
X0007160921Y0020900967D01*
X0007154508Y0020898544D01*
X0007147760Y0020897366D01*
X0007118775Y0020888616D01*
X0007060271Y0020862935D01*
X0007000510Y0020840353D01*
X0006973680Y0020826326D01*
X0006968033Y0020822445D01*
X0006961755Y0020819689D01*
X0006935694Y0020804277D01*
X0006885007Y0020765382D01*
X0006832357Y0020729198D01*
X0006809647Y0020709176D01*
X0006768193Y0020662649D01*
X0006450385Y0020344841D01*
X0006406785Y0020306806D01*
X0006386528Y0020284308D01*
X0006349785Y0020232028D01*
X0006310370Y0020181760D01*
X0006294686Y0020155863D01*
X0006291866Y0020149617D01*
X0006287925Y0020144010D01*
X0006273617Y0020117327D01*
X0006250405Y0020057790D01*
X0006224119Y0019999575D01*
X0006215065Y0019970688D01*
X0006213815Y0019963943D01*
X0006211324Y0019957554D01*
X0006203796Y0019928233D01*
X0006195457Y0019864890D01*
X0006183814Y0019802072D01*
X0006181913Y0019771856D01*
X0006185500Y0019709650D01*
X0006185500Y0019457025D01*
X0006181023Y0019434518D01*
X0006178602Y0019409936D01*
X0006178602Y0019350064D01*
X0006180552Y0019330264D01*
X0006180552Y0018929736D01*
X0006178602Y0018909936D01*
X0006178602Y0018850064D01*
X0006181023Y0018825482D01*
X0006185500Y0018802975D01*
X0006185500Y0017460660D01*
X0006126352Y0017401512D01*
X0006062047Y0017337877D01*
X0006043243Y0017314151D01*
X0006023583Y0017282069D01*
X0006000370Y0017252464D01*
X0005984687Y0017226568D01*
X0005971012Y0017196282D01*
X0005953643Y0017167938D01*
X0005941040Y0017140411D01*
X0005929602Y0017104570D01*
X0005914118Y0017070278D01*
X0005905065Y0017041388D01*
X0005899008Y0017008706D01*
X0005888903Y0016977044D01*
X0005883230Y0016947306D01*
X0005880671Y0016909774D01*
X0005873814Y0016872775D01*
X0005871913Y0016842561D01*
X0005873827Y0016809369D01*
X0005871567Y0016776216D01*
X0005873151Y0016745985D01*
X0005879619Y0016708922D01*
X0005881785Y0016671361D01*
X0005881833Y0016671097D01*
X0005879374Y0016670259D01*
X0005853957Y0016658299D01*
X0005699466Y0016563255D01*
X0005677330Y0016545960D01*
X0005547735Y0016419052D01*
X0005529982Y0016397284D01*
X0005431724Y0016244817D01*
X0005419234Y0016219657D01*
X0005357196Y0016049209D01*
X0005350591Y0016021906D01*
X0005342954Y0015961454D01*
X0005341564Y0015959973D01*
X0005323000Y0015934424D01*
X0005313239Y0015916670D01*
X0005300825Y0015900665D01*
X0005284749Y0015873482D01*
X0005267189Y0015832903D01*
X0005245890Y0015794160D01*
X0005234264Y0015764795D01*
X0005229226Y0015745173D01*
X0005221182Y0015726585D01*
X0005212370Y0015696257D01*
X0005205453Y0015652588D01*
X0005194458Y0015609763D01*
X0005190500Y0015578430D01*
X0005190500Y0015558176D01*
X0005187331Y0015538167D01*
X0005186339Y0015506599D01*
X0005190500Y0015462581D01*
X0005190500Y0009508447D01*
X0005122974Y0009485460D01*
X0005097557Y0009473499D01*
X0004943066Y0009378454D01*
X0004920930Y0009361161D01*
X0004791335Y0009234252D01*
X0004773582Y0009212484D01*
X0004675324Y0009060016D01*
X0004662834Y0009034856D01*
X0004600796Y0008864410D01*
X0004594191Y0008837107D01*
X0004571457Y0008657152D01*
X0004571064Y0008629065D01*
X0004588764Y0008448545D01*
X0004594605Y0008421068D01*
X0004651860Y0008248954D01*
X0004663642Y0008223455D01*
X0004757604Y0008068304D01*
X0004774743Y0008046049D01*
X0004900745Y0007915571D01*
X0004922389Y0007897666D01*
X0005074166Y0007798346D01*
X0005099239Y0007785680D01*
X0005269248Y0007722454D01*
X0005296503Y0007715659D01*
X0005476296Y0007691668D01*
X0005504381Y0007691080D01*
X0005685020Y0007707521D01*
X0005712536Y0007713169D01*
X0005885044Y0007769219D01*
X0005910625Y0007780824D01*
X0006066429Y0007873702D01*
X0006088804Y0007890684D01*
X0006220158Y0008015771D01*
X0006238214Y0008037291D01*
X0006338591Y0008188371D01*
X0006351431Y0008213353D01*
X0006415843Y0008382918D01*
X0006422829Y0008410126D01*
X0006432384Y0008478110D01*
X0006448869Y0008491748D01*
X0006495478Y0008541383D01*
X0006515228Y0008561132D01*
X0006525695Y0008573004D01*
X0006528170Y0008576196D01*
X0006558436Y0008608426D01*
X0006577000Y0008633976D01*
X0006586761Y0008651730D01*
X0006599175Y0008667735D01*
X0006615251Y0008694918D01*
X0006632811Y0008735496D01*
X0006654110Y0008774239D01*
X0006665736Y0008803605D01*
X0006670774Y0008823225D01*
X0006678818Y0008841815D01*
X0006687630Y0008872143D01*
X0006694547Y0008915811D01*
X0006705542Y0008958635D01*
X0006709500Y0008989970D01*
X0006709500Y0009010224D01*
X0006712669Y0009030232D01*
X0006713661Y0009061801D01*
X0006712993Y0009068864D01*
X0006763638Y0009071784D01*
X0006793434Y0009077145D01*
X0006957338Y0009127569D01*
X0006984995Y0009139883D01*
X0006986113Y0009140552D01*
X0007210000Y0009140552D01*
X0007234582Y0009142973D01*
X0007293304Y0009154654D01*
X0007338723Y0009173468D01*
X0007360000Y0009187684D01*
X0007381277Y0009173468D01*
X0007426696Y0009154654D01*
X0007485418Y0009142973D01*
X0007510000Y0009140552D01*
X0007715353Y0009140552D01*
X0007796253Y0009059652D01*
X0007810747Y0009042131D01*
X0007860399Y0008995505D01*
X0007880135Y0008975770D01*
X0007892005Y0008965305D01*
X0007895196Y0008962830D01*
X0007927426Y0008932564D01*
X0007952976Y0008914000D01*
X0007970730Y0008904239D01*
X0007986735Y0008891825D01*
X0008013918Y0008875748D01*
X0008054497Y0008858189D01*
X0008093240Y0008836890D01*
X0008122605Y0008825264D01*
X0008142226Y0008820226D01*
X0008160814Y0008812182D01*
X0008191143Y0008803370D01*
X0008234811Y0008796453D01*
X0008277635Y0008785457D01*
X0008308970Y0008781500D01*
X0008329224Y0008781500D01*
X0008349232Y0008778331D01*
X0008380801Y0008777339D01*
X0008424819Y0008781500D01*
X0010277033Y0008781500D01*
X0010299668Y0008779360D01*
X0010367745Y0008781500D01*
X0010395656Y0008781500D01*
X0010411446Y0008782492D01*
X0010415457Y0008783000D01*
X0010459648Y0008784389D01*
X0010490841Y0008789330D01*
X0010510292Y0008794981D01*
X0010530390Y0008797519D01*
X0010560981Y0008805374D01*
X0010602095Y0008821652D01*
X0010644545Y0008833984D01*
X0010673533Y0008846529D01*
X0010690969Y0008856841D01*
X0010709799Y0008864296D01*
X0010737477Y0008879511D01*
X0010773247Y0008905498D01*
X0010811302Y0008928004D01*
X0010836257Y0008947363D01*
X0010850578Y0008961684D01*
X0010866968Y0008973592D01*
X0010889992Y0008995211D01*
X0010918183Y0009029288D01*
X0012367318Y0010478424D01*
X0012388000Y0010444274D01*
X0012388000Y0009890144D01*
X0012388994Y0009874351D01*
X0012404020Y0009755410D01*
X0012411874Y0009724819D01*
X0012470796Y0009575999D01*
X0012486012Y0009548321D01*
X0012580092Y0009418831D01*
X0012601712Y0009395807D01*
X0012725040Y0009293782D01*
X0012751707Y0009276859D01*
X0012812085Y0009248446D01*
X0012816731Y0009241494D01*
X0012851495Y0009206731D01*
X0012901277Y0009173468D01*
X0012946696Y0009154654D01*
X0013005418Y0009142973D01*
X0013030000Y0009140552D01*
X0013480264Y0009140552D01*
X0013500064Y0009138601D01*
X0013559936Y0009138601D01*
X0013584517Y0009141023D01*
X0013682062Y0009160426D01*
X0013705701Y0009167597D01*
X0013761016Y0009190510D01*
X0013782798Y0009202153D01*
X0013865493Y0009257408D01*
X0013884586Y0009273078D01*
X0013926922Y0009315414D01*
X0013942592Y0009334506D01*
X0013997847Y0009417202D01*
X0014009490Y0009438984D01*
X0014032403Y0009494299D01*
X0014039574Y0009517938D01*
X0014058977Y0009615483D01*
X0014061398Y0009640063D01*
X0014061398Y0009699936D01*
X0014059448Y0009719736D01*
X0014059448Y0010120263D01*
X0014061398Y0010140063D01*
X0014061398Y0010199936D01*
X0014058977Y0010224516D01*
X0014039574Y0010322061D01*
X0014032403Y0010345700D01*
X0014009490Y0010401015D01*
X0013997847Y0010422798D01*
X0013972819Y0010460255D01*
X0014003791Y0010506871D01*
X0014016631Y0010531854D01*
X0014059373Y0010644372D01*
X0014132096Y0010634668D01*
X0014160181Y0010634080D01*
X0014340820Y0010650521D01*
X0014368336Y0010656168D01*
X0014540844Y0010712219D01*
X0014566425Y0010723824D01*
X0014722229Y0010816702D01*
X0014744604Y0010833685D01*
X0014875958Y0010958772D01*
X0014894014Y0010980291D01*
X0014994391Y0011131371D01*
X0015007231Y0011156354D01*
X0015071643Y0011325918D01*
X0015078629Y0011353126D01*
X0015103873Y0011532747D01*
X0015105087Y0011548525D01*
X0015105404Y0011571242D01*
X0015104631Y0011587045D01*
X0015084412Y0011767299D01*
X0015078188Y0011794692D01*
X0015018536Y0011965989D01*
X0015006399Y0011991321D01*
X0014910280Y0012145145D01*
X0014892832Y0012167160D01*
X0014765021Y0012295866D01*
X0014743129Y0012313467D01*
X0014589980Y0012410658D01*
X0014564733Y0012422972D01*
X0014393857Y0012483818D01*
X0014366509Y0012490233D01*
X0014186399Y0012511710D01*
X0014158309Y0012511906D01*
X0013977917Y0012492946D01*
X0013950483Y0012486913D01*
X0013778774Y0012428460D01*
X0013753357Y0012416499D01*
X0013616819Y0012332500D01*
X0012466567Y0012332500D01*
X0012443933Y0012334640D01*
X0012375843Y0012332500D01*
X0012347944Y0012332500D01*
X0012332156Y0012331506D01*
X0012328153Y0012331001D01*
X0012283952Y0012329612D01*
X0012252757Y0012324670D01*
X0012233304Y0012319019D01*
X0012213212Y0012316481D01*
X0012182620Y0012308626D01*
X0012141510Y0012292349D01*
X0012099052Y0012280014D01*
X0012070067Y0012267471D01*
X0012052631Y0012257159D01*
X0012033801Y0012249704D01*
X0012006123Y0012234489D01*
X0011970353Y0012208500D01*
X0011932298Y0012185994D01*
X0011907343Y0012166637D01*
X0011893022Y0012152315D01*
X0011876632Y0012140408D01*
X0011853608Y0012118787D01*
X0011825417Y0012084710D01*
X0011062240Y0011321535D01*
X0011054051Y0011394539D01*
X0011047827Y0011421931D01*
X0010988175Y0011593228D01*
X0010976038Y0011618559D01*
X0010918628Y0011710436D01*
X0010955791Y0011766371D01*
X0010968631Y0011791353D01*
X0011033043Y0011960918D01*
X0011040029Y0011988126D01*
X0011065273Y0012167746D01*
X0011066487Y0012183525D01*
X0011066804Y0012206242D01*
X0011066031Y0012222045D01*
X0011045812Y0012402300D01*
X0011039588Y0012429692D01*
X0010979936Y0012600988D01*
X0010967799Y0012626321D01*
X0010950639Y0012653784D01*
X0010968569Y0012680771D01*
X0010981409Y0012705753D01*
X0011045821Y0012875318D01*
X0011052807Y0012902526D01*
X0011078051Y0013082147D01*
X0011079265Y0013097925D01*
X0011079582Y0013120642D01*
X0011078809Y0013136444D01*
X0011058590Y0013316700D01*
X0011052366Y0013344092D01*
X0010992714Y0013515388D01*
X0010980577Y0013540721D01*
X0010884458Y0013694545D01*
X0010867010Y0013716560D01*
X0010739199Y0013845265D01*
X0010724498Y0013857085D01*
X0010724498Y0014557670D01*
X0010726638Y0014580304D01*
X0010724498Y0014648394D01*
X0010724498Y0014676293D01*
X0010723505Y0014692081D01*
X0010722999Y0014696083D01*
X0010721610Y0014740285D01*
X0010716669Y0014771480D01*
X0010711017Y0014790932D01*
X0010708479Y0014811025D01*
X0010700624Y0014841617D01*
X0010684348Y0014882727D01*
X0010672012Y0014925184D01*
X0010659469Y0014954170D01*
X0010649157Y0014971606D01*
X0010641702Y0014990435D01*
X0010626487Y0015018114D01*
X0010600499Y0015053884D01*
X0010577993Y0015091939D01*
X0010558635Y0015116893D01*
X0010544311Y0015131218D01*
X0010532406Y0015147604D01*
X0010510785Y0015170629D01*
X0010476715Y0015198813D01*
X0010449500Y0015226029D01*
X0010449500Y0017108249D01*
X0010469723Y0017099118D01*
X0010498608Y0017090065D01*
X0010505353Y0017088815D01*
X0010511742Y0017086324D01*
X0010541063Y0017078796D01*
X0010604408Y0017070457D01*
X0010667225Y0017058814D01*
X0010697441Y0017056913D01*
X0010759647Y0017060500D01*
X0011445500Y0017060500D01*
X0011445500Y0013251997D01*
X0011446413Y0013236858D01*
X0011461811Y0013109620D01*
X0011469032Y0013080220D01*
X0011529647Y0012919806D01*
X0011543673Y0012892976D01*
X0011640803Y0012751652D01*
X0011660824Y0012728943D01*
X0011788860Y0012614867D01*
X0011813720Y0012597589D01*
X0011965272Y0012517346D01*
X0011993536Y0012506495D01*
X0012159854Y0012464720D01*
X0012189889Y0012460926D01*
X0012361371Y0012460028D01*
X0012391445Y0012463507D01*
X0012558191Y0012503539D01*
X0012586567Y0012514092D01*
X0012589396Y0012515552D01*
X0012780000Y0012515552D01*
X0012804582Y0012517973D01*
X0012863304Y0012529654D01*
X0012908723Y0012548468D01*
X0012930000Y0012562684D01*
X0012951277Y0012548468D01*
X0012996696Y0012529654D01*
X0013055418Y0012517973D01*
X0013080000Y0012515552D01*
X0013530264Y0012515552D01*
X0013550064Y0012513601D01*
X0013609936Y0012513601D01*
X0013634517Y0012516023D01*
X0013732062Y0012535426D01*
X0013755701Y0012542597D01*
X0013811016Y0012565510D01*
X0013832798Y0012577153D01*
X0013915493Y0012632408D01*
X0013934586Y0012648078D01*
X0013976922Y0012690414D01*
X0013992592Y0012709506D01*
X0014047847Y0012792202D01*
X0014059490Y0012813984D01*
X0014082403Y0012869299D01*
X0014089574Y0012892938D01*
X0014108977Y0012990483D01*
X0014111398Y0013015063D01*
X0014111398Y0013074936D01*
X0014109448Y0013094736D01*
X0014109448Y0013495263D01*
X0014111398Y0013515063D01*
X0014111398Y0013574936D01*
X0014108977Y0013599516D01*
X0014096276Y0013663369D01*
X0014190158Y0013752772D01*
X0014208214Y0013774291D01*
X0014308591Y0013925370D01*
X0014321431Y0013950354D01*
X0014385843Y0014119917D01*
X0014392829Y0014147126D01*
X0014412354Y0014286052D01*
X0014462262Y0014290593D01*
X0014489778Y0014296242D01*
X0014662286Y0014352293D01*
X0014687867Y0014363897D01*
X0014843671Y0014456775D01*
X0014866046Y0014473758D01*
X0014997400Y0014598845D01*
X0015015456Y0014620363D01*
X0015115833Y0014771443D01*
X0015128673Y0014796427D01*
X0015193085Y0014965990D01*
X0015200071Y0014993199D01*
X0015225315Y0015172820D01*
X0015226529Y0015188597D01*
X0015226846Y0015211314D01*
X0015226073Y0015227118D01*
X0015205854Y0015407373D01*
X0015199630Y0015434764D01*
X0015139978Y0015606062D01*
X0015127841Y0015631394D01*
X0015031722Y0015785218D01*
X0015014274Y0015807233D01*
X0014886463Y0015935939D01*
X0014864571Y0015953540D01*
X0014711422Y0016050730D01*
X0014686175Y0016063044D01*
X0014515299Y0016123891D01*
X0014487951Y0016130306D01*
X0014307841Y0016151782D01*
X0014279751Y0016151979D01*
X0014109962Y0016134132D01*
X0014078865Y0016165230D01*
X0014071711Y0016171538D01*
X0014083981Y0016171281D01*
X0014264620Y0016187721D01*
X0014292136Y0016193369D01*
X0014464644Y0016249420D01*
X0014490225Y0016261023D01*
X0014646029Y0016353902D01*
X0014668404Y0016370885D01*
X0014799758Y0016495971D01*
X0014817814Y0016517491D01*
X0014918191Y0016668571D01*
X0014931031Y0016693553D01*
X0014995443Y0016863118D01*
X0015002429Y0016890326D01*
X0015027673Y0017069947D01*
X0015028887Y0017085725D01*
X0015029204Y0017108442D01*
X0015028431Y0017124245D01*
X0015008212Y0017304500D01*
X0015001988Y0017331892D01*
X0014942336Y0017503189D01*
X0014930199Y0017528521D01*
X0014834080Y0017682345D01*
X0014816632Y0017704360D01*
X0014688821Y0017833066D01*
X0014666929Y0017850667D01*
X0014513780Y0017947858D01*
X0014488533Y0017960172D01*
X0014317657Y0018021018D01*
X0014290310Y0018027433D01*
X0014274814Y0018029281D01*
X0014107586Y0018196509D01*
X0014089574Y0018287062D01*
X0014082403Y0018310701D01*
X0014059490Y0018366016D01*
X0014047847Y0018387798D01*
X0013992592Y0018470493D01*
X0013976922Y0018489586D01*
X0013934586Y0018531922D01*
X0013915493Y0018547592D01*
X0013832798Y0018602847D01*
X0013811016Y0018614490D01*
X0013755701Y0018637403D01*
X0013732062Y0018644574D01*
X0013634517Y0018663977D01*
X0013609936Y0018666398D01*
X0013550064Y0018666398D01*
X0013530264Y0018664448D01*
X0013080000Y0018664448D01*
X0013055418Y0018662027D01*
X0012996696Y0018650346D01*
X0012951277Y0018631532D01*
X0012930000Y0018617315D01*
X0012908723Y0018631532D01*
X0012863304Y0018650346D01*
X0012804582Y0018662027D01*
X0012780000Y0018664448D01*
X0012610228Y0018664448D01*
X0012594728Y0018672655D01*
X0012566465Y0018683504D01*
X0012534228Y0018691601D01*
X0012503261Y0018703675D01*
X0012473936Y0018711204D01*
X0012436638Y0018716114D01*
X0012400148Y0018725280D01*
X0012370112Y0018729074D01*
X0012330000Y0018729284D01*
X0012326706Y0018729500D01*
X0012288762Y0018729500D01*
X0012198629Y0018729972D01*
X0012194550Y0018729500D01*
X0011080660Y0018729500D01*
X0009264500Y0020545660D01*
X0009264500Y0021745786D01*
X0009265444Y0021835901D01*
X0009262605Y0021863849D01*
X0009252279Y0021911608D01*
X0009248612Y0021944299D01*
X0009242388Y0021971693D01*
X0009234210Y0021995177D01*
X0009224273Y0022041137D01*
X0009215314Y0022067760D01*
X0009190115Y0022121800D01*
X0009182736Y0022142989D01*
X0009170600Y0022168320D01*
X0009162018Y0022182055D01*
X0009149939Y0022207957D01*
X0010444745Y0022207957D01*
X0010445821Y0022190851D01*
X0010483346Y0021905820D01*
X0010486734Y0021889018D01*
X0010562595Y0021611716D01*
X0010568232Y0021595529D01*
X0010681026Y0021331089D01*
X0010688807Y0021315818D01*
X0010836445Y0021069133D01*
X0010846227Y0021055058D01*
X0011025979Y0020830691D01*
X0011037580Y0020818075D01*
X0011246118Y0020620180D01*
X0011259325Y0020609255D01*
X0011492791Y0020441492D01*
X0011507358Y0020432460D01*
X0011761433Y0020297934D01*
X0011777091Y0020290962D01*
X0012047072Y0020192163D01*
X0012063531Y0020187381D01*
X0012344422Y0020126137D01*
X0012361378Y0020123633D01*
X0012586853Y0020105888D01*
X0012596739Y0020105500D01*
X0012752271Y0020105500D01*
X0012760841Y0020105792D01*
X0012975395Y0020120419D01*
X0012992376Y0020122745D01*
X0013273893Y0020181044D01*
X0013290402Y0020185653D01*
X0013561403Y0020281620D01*
X0013577133Y0020288427D01*
X0013832602Y0020420284D01*
X0013847263Y0020429163D01*
X0014082474Y0020594472D01*
X0014095794Y0020605259D01*
X0014306393Y0020800960D01*
X0014318126Y0020813454D01*
X0014500217Y0021035926D01*
X0014510146Y0021049897D01*
X0014660360Y0021295023D01*
X0014668300Y0021310213D01*
X0014783856Y0021573457D01*
X0014789662Y0021589583D01*
X0014868423Y0021866075D01*
X0014871987Y0021882841D01*
X0014912494Y0022167463D01*
X0014913749Y0022184556D01*
X0014915255Y0022472043D01*
X0014914179Y0022489149D01*
X0014876654Y0022774180D01*
X0014873266Y0022790982D01*
X0014797405Y0023068284D01*
X0014791768Y0023084471D01*
X0014678974Y0023348911D01*
X0014671193Y0023364182D01*
X0014523555Y0023610867D01*
X0014513773Y0023624942D01*
X0014334021Y0023849309D01*
X0014322420Y0023861925D01*
X0014113882Y0024059820D01*
X0014100675Y0024070745D01*
X0013867209Y0024238508D01*
X0013852642Y0024247540D01*
X0013598567Y0024382066D01*
X0013582909Y0024389038D01*
X0013312928Y0024487837D01*
X0013296469Y0024492618D01*
X0013015578Y0024553863D01*
X0012998622Y0024556367D01*
X0012773147Y0024574112D01*
X0012763261Y0024574500D01*
X0012607729Y0024574500D01*
X0012599159Y0024574208D01*
X0012384605Y0024559581D01*
X0012367624Y0024557254D01*
X0012086107Y0024498956D01*
X0012069598Y0024494346D01*
X0011798597Y0024398380D01*
X0011782867Y0024391573D01*
X0011527398Y0024259715D01*
X0011512737Y0024250837D01*
X0011277526Y0024085528D01*
X0011264206Y0024074741D01*
X0011053607Y0023879040D01*
X0011041874Y0023866546D01*
X0010859783Y0023644074D01*
X0010849854Y0023630103D01*
X0010699640Y0023384977D01*
X0010691700Y0023369787D01*
X0010576144Y0023106543D01*
X0010570338Y0023090417D01*
X0010491577Y0022813925D01*
X0010488013Y0022797159D01*
X0010447506Y0022512537D01*
X0010446251Y0022495444D01*
X0010444745Y0022207957D01*
X0009149939Y0022207957D01*
X0009138657Y0022232152D01*
X0009136522Y0022235650D01*
X0009338807Y0022289853D01*
X0009359446Y0022297365D01*
X0009560927Y0022391317D01*
X0009579948Y0022402299D01*
X0009762052Y0022529810D01*
X0009778876Y0022543928D01*
X0009936072Y0022701124D01*
X0009950190Y0022717948D01*
X0010077701Y0022900053D01*
X0010088683Y0022919074D01*
X0010182635Y0023120554D01*
X0010190147Y0023141193D01*
X0010247685Y0023355926D01*
X0010251499Y0023377556D01*
X0010270874Y0023599019D01*
X0010270874Y0023620981D01*
X0010251499Y0023842444D01*
X0010247685Y0023864075D01*
X0010237221Y0023903126D01*
X0010821348Y0024487253D01*
X0010838868Y0024501747D01*
X0010885493Y0024551398D01*
X0010905230Y0024571135D01*
X0010915695Y0024583005D01*
X0010918170Y0024586196D01*
X0010948436Y0024618426D01*
X0010967000Y0024643976D01*
X0010976761Y0024661730D01*
X0010989175Y0024677735D01*
X0011005251Y0024704918D01*
X0011022811Y0024745497D01*
X0011044110Y0024784240D01*
X0011055736Y0024813605D01*
X0011060774Y0024833226D01*
X0011068818Y0024851815D01*
X0011077630Y0024882143D01*
X0011084547Y0024925811D01*
X0011095542Y0024968636D01*
X0011099500Y0024999969D01*
X0011099500Y0025020224D01*
X0011102669Y0025040232D01*
X0011103661Y0025071801D01*
X0011099500Y0025115819D01*
X0011099500Y0028379315D01*
X0011246118Y0028240180D01*
X0011259325Y0028229255D01*
X0011492791Y0028061492D01*
X0011507358Y0028052460D01*
X0011761433Y0027917934D01*
X0011777091Y0027910961D01*
X0012047072Y0027812163D01*
X0012063531Y0027807381D01*
X0012344422Y0027746136D01*
X0012361378Y0027743633D01*
X0012586853Y0027725887D01*
X0012596739Y0027725500D01*
X0012752271Y0027725500D01*
X0012760841Y0027725792D01*
X0012975395Y0027740419D01*
X0012992376Y0027742745D01*
X0013273893Y0027801043D01*
X0013290402Y0027805653D01*
X0013561403Y0027901620D01*
X0013577133Y0027908427D01*
X0013832602Y0028040284D01*
X0013847263Y0028049163D01*
X0014082474Y0028214472D01*
X0014095794Y0028225259D01*
X0014306393Y0028420960D01*
X0014318126Y0028433453D01*
X0014500217Y0028655926D01*
X0014510146Y0028669897D01*
X0014660360Y0028915022D01*
X0014668300Y0028930213D01*
X0014783856Y0029193457D01*
X0014789662Y0029209583D01*
X0014868423Y0029486075D01*
X0014871987Y0029502841D01*
X0014912494Y0029787463D01*
X0014913749Y0029804555D01*
X0014915255Y0030092043D01*
X0014914179Y0030109149D01*
X0014876654Y0030394180D01*
X0014873266Y0030410982D01*
X0014797405Y0030688284D01*
X0014791768Y0030704470D01*
X0014678974Y0030968911D01*
X0014671193Y0030984182D01*
X0014523555Y0031230867D01*
X0014513773Y0031244942D01*
X0014334021Y0031469309D01*
X0014322420Y0031481925D01*
X0014113882Y0031679820D01*
X0014100675Y0031690745D01*
X0013867209Y0031858508D01*
X0013852642Y0031867540D01*
X0013598567Y0032002066D01*
X0013582909Y0032009038D01*
X0013312928Y0032107837D01*
X0013296469Y0032112619D01*
X0013015578Y0032173862D01*
X0012998622Y0032176367D01*
X0012773147Y0032194111D01*
X0012763261Y0032194499D01*
X0012607729Y0032194499D01*
X0012599159Y0032194208D01*
X0012384605Y0032179581D01*
X0012367624Y0032177255D01*
X0012086107Y0032118955D01*
X0012069598Y0032114347D01*
X0011798597Y0032018380D01*
X0011782867Y0032011573D01*
X0011527398Y0031879716D01*
X0011512737Y0031870837D01*
X0011277526Y0031705528D01*
X0011264206Y0031694741D01*
X0011053607Y0031499040D01*
X0011041874Y0031486546D01*
X0010859783Y0031264074D01*
X0010849854Y0031250103D01*
X0010699640Y0031004977D01*
X0010691700Y0030989787D01*
X0010582675Y0030741419D01*
X0009384500Y0031939595D01*
X0009384500Y0032742400D01*
X0009383827Y0032755404D01*
X0009372853Y0032861170D01*
X0009367050Y0032888042D01*
X0009311074Y0033055822D01*
X0009298694Y0033082248D01*
X0009205622Y0033232650D01*
X0009187496Y0033255521D01*
X0009062321Y0033380477D01*
X0009039419Y0033398564D01*
X0008888854Y0033491374D01*
X0008862405Y0033503708D01*
X0008847259Y0033508732D01*
X0008868822Y0033515926D01*
X0008895249Y0033528306D01*
X0009045651Y0033621378D01*
X0009068521Y0033639504D01*
X0009193478Y0033764679D01*
X0009211565Y0033787581D01*
X0009304375Y0033938146D01*
X0009316708Y0033964595D01*
X0009320547Y0033976169D01*
X0011285476Y0033976169D01*
X0011290541Y0033905355D01*
X0011321555Y0033858284D01*
X0011324449Y0033855519D01*
X0011334787Y0033846660D01*
X0011623350Y0033625237D01*
X0011634595Y0033617537D01*
X0011945385Y0033428573D01*
X0011957395Y0033422134D01*
X0012286774Y0033267842D01*
X0012299409Y0033262737D01*
X0012643526Y0033144919D01*
X0012656639Y0033141209D01*
X0013011467Y0033061245D01*
X0013024904Y0033058971D01*
X0013386293Y0033017797D01*
X0013399897Y0033016989D01*
X0013763618Y0033015085D01*
X0013777230Y0033015749D01*
X0014139030Y0033053137D01*
X0014152490Y0033055270D01*
X0014508136Y0033131514D01*
X0014521287Y0033135087D01*
X0014866619Y0033249295D01*
X0014879307Y0033254267D01*
X0015210284Y0033405102D01*
X0015222361Y0033411417D01*
X0015535112Y0033597115D01*
X0015546437Y0033604696D01*
X0015837304Y0033823085D01*
X0015847744Y0033831845D01*
X0015876308Y0033858575D01*
X0015912380Y0033919725D01*
X0015909665Y0033990670D01*
X0015879310Y0034039670D01*
X0013689095Y0036229885D01*
X0013626783Y0036263911D01*
X0013555968Y0036258846D01*
X0013510905Y0036229885D01*
X0011319502Y0034038482D01*
X0011285476Y0033976169D01*
X0009320547Y0033976169D01*
X0009372390Y0034132472D01*
X0009378141Y0034159296D01*
X0009388844Y0034263757D01*
X0009389500Y0034276600D01*
X0009389500Y0035327400D01*
X0009388827Y0035340404D01*
X0009377853Y0035446170D01*
X0009372050Y0035473042D01*
X0009316074Y0035640822D01*
X0009303694Y0035667249D01*
X0009210622Y0035817651D01*
X0009192496Y0035840521D01*
X0009067321Y0035965478D01*
X0009044419Y0035983565D01*
X0008893854Y0036076375D01*
X0008867405Y0036088708D01*
X0008859500Y0036091330D01*
X0008859500Y0036125219D01*
X0008990651Y0036206378D01*
X0009013521Y0036224504D01*
X0009138478Y0036349679D01*
X0009156565Y0036372581D01*
X0009238414Y0036505364D01*
X0010111249Y0036505364D01*
X0010129651Y0036142103D01*
X0010131076Y0036128550D01*
X0010188603Y0035769401D01*
X0010191483Y0035756081D01*
X0010287460Y0035405246D01*
X0010291761Y0035392315D01*
X0010425068Y0035053897D01*
X0010430741Y0035041506D01*
X0010599816Y0034719465D01*
X0010606794Y0034707759D01*
X0010809661Y0034405861D01*
X0010817863Y0034394977D01*
X0010956231Y0034230661D01*
X0011015410Y0034191438D01*
X0011086399Y0034190436D01*
X0011141706Y0034222726D01*
X0013329885Y0036410905D01*
X0013363911Y0036473217D01*
X0013358846Y0036544032D01*
X0013329885Y0036589095D01*
X0011141810Y0038777170D01*
X0011079498Y0038811196D01*
X0011008683Y0038806131D01*
X0010956903Y0038769905D01*
X0010832626Y0038624394D01*
X0010824350Y0038613568D01*
X0010619380Y0038313094D01*
X0010612320Y0038301437D01*
X0010441001Y0037980583D01*
X0010435242Y0037968233D01*
X0010299576Y0037630755D01*
X0010295184Y0037617854D01*
X0010196759Y0037267697D01*
X0010193786Y0037254397D01*
X0010133754Y0036895658D01*
X0010132235Y0036882115D01*
X0010111297Y0036518992D01*
X0010111249Y0036505364D01*
X0009238414Y0036505364D01*
X0009249375Y0036523146D01*
X0009261708Y0036549595D01*
X0009317390Y0036717472D01*
X0009323141Y0036744296D01*
X0009333844Y0036848757D01*
X0009334500Y0036861600D01*
X0009334500Y0037862400D01*
X0009333827Y0037875404D01*
X0009322853Y0037981170D01*
X0009317050Y0038008042D01*
X0009261074Y0038175822D01*
X0009248694Y0038202249D01*
X0009155622Y0038352651D01*
X0009137496Y0038375521D01*
X0009012321Y0038500478D01*
X0008989419Y0038518565D01*
X0008838854Y0038611375D01*
X0008812405Y0038623708D01*
X0008644528Y0038679390D01*
X0008617704Y0038685141D01*
X0008513243Y0038695844D01*
X0008500400Y0038696500D01*
X0007699600Y0038696500D01*
X0007686596Y0038695827D01*
X0007580830Y0038684853D01*
X0007553958Y0038679050D01*
X0007386178Y0038623074D01*
X0007359751Y0038610694D01*
X0007209349Y0038517622D01*
X0007186479Y0038499496D01*
X0007099689Y0038412555D01*
X0007012009Y0038500083D01*
X0006989107Y0038518170D01*
X0006838641Y0038610918D01*
X0006812193Y0038623251D01*
X0006644427Y0038678897D01*
X0006617601Y0038684648D01*
X0006513205Y0038695344D01*
X0006500363Y0038696000D01*
X0006354000Y0038696000D01*
X0006285879Y0038675998D01*
X0006239386Y0038622342D01*
X0006228000Y0038570000D01*
X0006228000Y0037234000D01*
X0004992001Y0037234000D01*
X0004923880Y0037213998D01*
X0004877387Y0037160342D01*
X0004866001Y0037108000D01*
X0004866001Y0036861638D01*
X0004866674Y0036848635D01*
X0004877641Y0036742934D01*
X0004883444Y0036716061D01*
X0004939382Y0036548392D01*
X0004951762Y0036521965D01*
X0005044773Y0036371662D01*
X0005062899Y0036348792D01*
X0005187991Y0036223917D01*
X0005210893Y0036205830D01*
X0005361359Y0036113082D01*
X0005387807Y0036100749D01*
X0005408549Y0036093869D01*
X0005391178Y0036088074D01*
X0005364751Y0036075694D01*
X0005214349Y0035982622D01*
X0005191479Y0035964496D01*
X0005066522Y0035839321D01*
X0005048435Y0035816418D01*
X0004955625Y0035665854D01*
X0004943292Y0035639405D01*
X0004913472Y0035549500D01*
X0004486323Y0035549500D01*
X0004474087Y0035565826D01*
X0004448826Y0035591087D01*
X0004332270Y0035678441D01*
X0004300935Y0035695597D01*
X0004181917Y0035740215D01*
X0004286653Y0035844587D01*
X0004300035Y0035860311D01*
X0004430344Y0036041655D01*
X0004440979Y0036059354D01*
X0004539921Y0036259547D01*
X0004547522Y0036278745D01*
X0004612438Y0036492408D01*
X0004616802Y0036512592D01*
X0004621273Y0036546555D01*
X0004610333Y0036616703D01*
X0004563205Y0036669802D01*
X0004496351Y0036689000D01*
X0001825110Y0036689000D01*
X0001756989Y0036668998D01*
X0001710496Y0036615342D01*
X0001700392Y0036545068D01*
X0001702193Y0036535299D01*
X0001736784Y0036381810D01*
X0001742958Y0036362107D01*
X0001826971Y0036155206D01*
X0001836281Y0036136775D01*
X0001952959Y0035946374D01*
X0001965155Y0035929712D01*
X0002111364Y0035760924D01*
X0002126116Y0035746477D01*
X0002135035Y0035739072D01*
X0002019065Y0035695597D01*
X0001987730Y0035678441D01*
X0001871174Y0035591087D01*
X0001845913Y0035565826D01*
X0001758559Y0035449270D01*
X0001741403Y0035417935D01*
X0001690273Y0035281546D01*
X0001682992Y0035250924D01*
X0001676237Y0035188742D01*
X0001675500Y0035175134D01*
X0001675500Y0033378866D01*
X0000634000Y0033378866D01*
X0000634000Y0037084410D01*
X0001696055Y0037084410D01*
X0001708693Y0037014547D01*
X0001757096Y0036962608D01*
X0001821339Y0036945000D01*
X0002906000Y0036945000D01*
X0002974121Y0036965002D01*
X0003020614Y0037018658D01*
X0003032000Y0037071000D01*
X0003288000Y0037071000D01*
X0003308002Y0037002879D01*
X0003361658Y0036956386D01*
X0003414000Y0036945000D01*
X0004496459Y0036945000D01*
X0004564580Y0036965002D01*
X0004611073Y0037018658D01*
X0004621177Y0037088932D01*
X0004618663Y0037101696D01*
X0004572159Y0037286833D01*
X0004565505Y0037306379D01*
X0004476462Y0037511165D01*
X0004466704Y0037529363D01*
X0004410656Y0037616000D01*
X0004866000Y0037616000D01*
X0004886002Y0037547879D01*
X0004939658Y0037501386D01*
X0004992000Y0037490000D01*
X0005846000Y0037490000D01*
X0005914121Y0037510002D01*
X0005960614Y0037563658D01*
X0005972000Y0037616000D01*
X0005972000Y0038569999D01*
X0005951998Y0038638120D01*
X0005898342Y0038684613D01*
X0005846000Y0038695999D01*
X0005699638Y0038695999D01*
X0005686635Y0038695326D01*
X0005580934Y0038684359D01*
X0005554061Y0038678556D01*
X0005386392Y0038622618D01*
X0005359965Y0038610238D01*
X0005209662Y0038517227D01*
X0005186792Y0038499101D01*
X0005061917Y0038374009D01*
X0005043830Y0038351107D01*
X0004951082Y0038200641D01*
X0004938749Y0038174193D01*
X0004883103Y0038006427D01*
X0004877352Y0037979601D01*
X0004866656Y0037875205D01*
X0004866000Y0037862363D01*
X0004866000Y0037616000D01*
X0004410656Y0037616000D01*
X0004345409Y0037716857D01*
X0004332810Y0037733216D01*
X0004182521Y0037898382D01*
X0004167420Y0037912464D01*
X0003992173Y0038050865D01*
X0003974975Y0038062291D01*
X0003779477Y0038170212D01*
X0003760643Y0038178677D01*
X0003550144Y0038253219D01*
X0003530180Y0038258493D01*
X0003436096Y0038275252D01*
X0003365524Y0038267506D01*
X0003310342Y0038222836D01*
X0003288000Y0038151205D01*
X0003288000Y0037071000D01*
X0003032000Y0037071000D01*
X0003032000Y0038152013D01*
X0003011998Y0038220134D01*
X0002958342Y0038266627D01*
X0002886940Y0038276563D01*
X0002825148Y0038267107D01*
X0002805063Y0038262322D01*
X0002592805Y0038192946D01*
X0002573770Y0038184944D01*
X0002375694Y0038081832D01*
X0002358221Y0038070829D01*
X0002179645Y0037936750D01*
X0002164204Y0037923041D01*
X0002009925Y0037761597D01*
X0001996931Y0037745550D01*
X0001871091Y0037561076D01*
X0001860891Y0037543122D01*
X0001766871Y0037340572D01*
X0001759742Y0037321194D01*
X0001700065Y0037106008D01*
X0001696198Y0037085746D01*
X0001696055Y0037084410D01*
X0000634000Y0037084410D01*
X0000634000Y0039366000D01*
X0011613728Y0039366000D01*
X0011353366Y0039169089D01*
G37*
G04 #@! TD.AperFunction*
M02*