G04 #@! TF.GenerationSoftware,KiCad,Pcbnew,(6.0.1)*
G04 #@! TF.CreationDate,2022-07-05T00:40:55-07:00*
G04 #@! TF.ProjectId,mu100-dit-connector-board,6d753130-302d-4646-9974-2d636f6e6e65,rev?*
G04 #@! TF.SameCoordinates,PX4a615b8PY2b4db18*
G04 #@! TF.FileFunction,Legend,Top*
G04 #@! TF.FilePolarity,Positive*
%FSLAX46Y46*%
G04 Gerber Fmt 4.6, Leading zero omitted, Abs format (unit mm)*
G04 Created by KiCad (PCBNEW (6.0.1)) date 2022-07-05 00:40:55*
%MOMM*%
%LPD*%
G01*
G04 APERTURE LIST*
%ADD10C,0.125*%
%ADD11C,0.15*%
%ADD12C,0.12*%
G04 APERTURE END LIST*
D10*
X0073517714Y0012233343D02*
X0073517714Y0012614296D01*
X0073708190Y0012423820D02*
X0073327238Y0012423820D01*
X0073208190Y0013090485D02*
X0073208190Y0012852391D01*
X0073446285Y0012828581D01*
X0073422476Y0012852391D01*
X0073398666Y0012900010D01*
X0073398666Y0013019058D01*
X0073422476Y0013066676D01*
X0073446285Y0013090485D01*
X0073493904Y0013114296D01*
X0073612952Y0013114296D01*
X0073660571Y0013090485D01*
X0073684380Y0013066676D01*
X0073708190Y0013019058D01*
X0073708190Y0012900010D01*
X0073684380Y0012852391D01*
X0073660571Y0012828581D01*
X0073208190Y0013257152D02*
X0073708190Y0013423820D01*
X0073208190Y0013590485D01*
D11*
X0066070713Y0002468809D02*
X0066880238Y0002468809D01*
X0066975476Y0002421191D01*
X0067023095Y0002373572D01*
X0067070713Y0002278334D01*
X0067070713Y0002135477D01*
X0067023095Y0002040238D01*
X0066689761Y0002468809D02*
X0066737380Y0002373572D01*
X0066737380Y0002183095D01*
X0066689761Y0002087857D01*
X0066642142Y0002040238D01*
X0066546904Y0001992620D01*
X0066261190Y0001992620D01*
X0066165952Y0002040238D01*
X0066118333Y0002087857D01*
X0066070713Y0002183095D01*
X0066070713Y0002373572D01*
X0066118333Y0002468809D01*
X0066737380Y0002945000D02*
X0066070713Y0002945000D01*
X0065737380Y0002945000D02*
X0065785000Y0002897381D01*
X0065832618Y0002945000D01*
X0065785000Y0002992620D01*
X0065737380Y0002945000D01*
X0065832618Y0002945000D01*
X0066070713Y0003278334D02*
X0066070713Y0003659286D01*
X0065737380Y0003421191D02*
X0066594522Y0003421191D01*
X0066689761Y0003468809D01*
X0066737380Y0003564047D01*
X0066737380Y0003659286D01*
X0066737380Y0003992620D02*
X0065737380Y0003992620D01*
X0066737380Y0004421191D02*
X0066213571Y0004421191D01*
X0066118333Y0004373572D01*
X0066070713Y0004278334D01*
X0066070713Y0004135477D01*
X0066118333Y0004040238D01*
X0066165952Y0003992620D01*
X0066070713Y0005325952D02*
X0066737380Y0005325952D01*
X0066070713Y0004897381D02*
X0066594522Y0004897381D01*
X0066689761Y0004945000D01*
X0066737380Y0005040239D01*
X0066737380Y0005183095D01*
X0066689761Y0005278334D01*
X0066642142Y0005325952D01*
X0066737380Y0005802143D02*
X0065737380Y0005802143D01*
X0066118333Y0005802143D02*
X0066070713Y0005897381D01*
X0066070713Y0006087857D01*
X0066118333Y0006183095D01*
X0066165952Y0006230714D01*
X0066261190Y0006278334D01*
X0066546904Y0006278334D01*
X0066642142Y0006230714D01*
X0066689761Y0006183095D01*
X0066737380Y0006087857D01*
X0066737380Y0005897381D01*
X0066689761Y0005802143D01*
X0066642142Y0006706904D02*
X0066689761Y0006754524D01*
X0066737380Y0006706904D01*
X0066689761Y0006659286D01*
X0066642142Y0006706904D01*
X0066737380Y0006706904D01*
X0066689761Y0007611666D02*
X0066737380Y0007516429D01*
X0066737380Y0007325952D01*
X0066689761Y0007230714D01*
X0066642142Y0007183095D01*
X0066546904Y0007135477D01*
X0066261190Y0007135477D01*
X0066165952Y0007183095D01*
X0066118333Y0007230714D01*
X0066070713Y0007325952D01*
X0066070713Y0007516429D01*
X0066118333Y0007611666D01*
X0066737380Y0008183095D02*
X0066689761Y0008087858D01*
X0066642142Y0008040239D01*
X0066546904Y0007992620D01*
X0066261190Y0007992620D01*
X0066165952Y0008040239D01*
X0066118333Y0008087858D01*
X0066070713Y0008183095D01*
X0066070713Y0008325952D01*
X0066118333Y0008421191D01*
X0066165952Y0008468810D01*
X0066261190Y0008516428D01*
X0066546904Y0008516428D01*
X0066642142Y0008468810D01*
X0066689761Y0008421191D01*
X0066737380Y0008325952D01*
X0066737380Y0008183095D01*
X0066737380Y0008945000D02*
X0066070713Y0008945000D01*
X0066165952Y0008945000D02*
X0066118333Y0008992619D01*
X0066070713Y0009087858D01*
X0066070713Y0009230715D01*
X0066118333Y0009325952D01*
X0066213571Y0009373572D01*
X0066737380Y0009373572D01*
X0066213571Y0009373572D02*
X0066118333Y0009421191D01*
X0066070713Y0009516428D01*
X0066070713Y0009659286D01*
X0066118333Y0009754524D01*
X0066213571Y0009802143D01*
X0066737380Y0009802143D01*
X0065689761Y0010992619D02*
X0066975476Y0010135477D01*
X0067680714Y0002849761D02*
X0068347380Y0002849761D01*
X0067775952Y0002849761D02*
X0067728332Y0002897381D01*
X0067680714Y0002992620D01*
X0067680714Y0003135477D01*
X0067728332Y0003230714D01*
X0067823571Y0003278334D01*
X0068347380Y0003278334D01*
X0068347380Y0003754524D02*
X0067680714Y0003754524D01*
X0067347380Y0003754524D02*
X0067395000Y0003706904D01*
X0067442619Y0003754524D01*
X0067395000Y0003802143D01*
X0067347380Y0003754524D01*
X0067442619Y0003754524D01*
X0068347380Y0004230714D02*
X0067347380Y0004230714D01*
X0067966428Y0004325952D02*
X0068347380Y0004611666D01*
X0067680714Y0004611666D02*
X0068061666Y0004230714D01*
X0068347380Y0005040239D02*
X0067680714Y0005040239D01*
X0067347380Y0005040239D02*
X0067395000Y0004992620D01*
X0067442619Y0005040239D01*
X0067395000Y0005087857D01*
X0067347380Y0005040239D01*
X0067442619Y0005040239D01*
X0067680714Y0005373572D02*
X0067680714Y0005754524D01*
X0067347380Y0005516429D02*
X0068204523Y0005516429D01*
X0068299761Y0005564048D01*
X0068347380Y0005659286D01*
X0068347380Y0005754524D01*
X0068347380Y0006516429D02*
X0067823571Y0006516429D01*
X0067728332Y0006468809D01*
X0067680714Y0006373572D01*
X0067680714Y0006183095D01*
X0067728332Y0006087857D01*
X0068299761Y0006516429D02*
X0068347380Y0006421191D01*
X0068347380Y0006183095D01*
X0068299761Y0006087857D01*
X0068204523Y0006040239D01*
X0068109285Y0006040239D01*
X0068014047Y0006087857D01*
X0067966428Y0006183095D01*
X0067966428Y0006421191D01*
X0067918809Y0006516429D01*
X0068347380Y0007135477D02*
X0068299761Y0007040239D01*
X0068204523Y0006992620D01*
X0067347380Y0006992620D01*
X0068347380Y0007516429D02*
X0067680714Y0007516429D01*
X0067347380Y0007516429D02*
X0067395000Y0007468809D01*
X0067442619Y0007516429D01*
X0067395000Y0007564048D01*
X0067347380Y0007516429D01*
X0067442619Y0007516429D01*
X0067680714Y0007849761D02*
X0067680714Y0008230715D01*
X0067347380Y0007992620D02*
X0068204523Y0007992620D01*
X0068299761Y0008040239D01*
X0068347380Y0008135477D01*
X0068347380Y0008230715D01*
X0068347380Y0008992619D02*
X0067823571Y0008992619D01*
X0067728332Y0008945000D01*
X0067680714Y0008849761D01*
X0067680714Y0008659286D01*
X0067728332Y0008564048D01*
X0068299761Y0008992619D02*
X0068347380Y0008897381D01*
X0068347380Y0008659286D01*
X0068299761Y0008564048D01*
X0068204523Y0008516428D01*
X0068109285Y0008516428D01*
X0068014047Y0008564048D01*
X0067966428Y0008659286D01*
X0067966428Y0008897381D01*
X0067918809Y0008992619D01*
X0067299761Y0010183095D02*
X0068585476Y0009325952D01*
X0069957380Y0002421191D02*
X0068957380Y0002421191D01*
X0069671666Y0002754524D01*
X0068957380Y0003087857D01*
X0069957380Y0003087857D01*
X0068957380Y0003564047D02*
X0069766904Y0003564047D01*
X0069862142Y0003611666D01*
X0069909761Y0003659286D01*
X0069957380Y0003754524D01*
X0069957380Y0003945000D01*
X0069909761Y0004040238D01*
X0069862142Y0004087857D01*
X0069766904Y0004135477D01*
X0068957380Y0004135477D01*
X0069957380Y0005135477D02*
X0069957380Y0004564048D01*
X0069957380Y0004849761D02*
X0068957380Y0004849761D01*
X0069100238Y0004754524D01*
X0069195476Y0004659286D01*
X0069243095Y0004564048D01*
X0068957380Y0005754524D02*
X0068957380Y0005849761D01*
X0069005000Y0005945000D01*
X0069052619Y0005992620D01*
X0069147857Y0006040239D01*
X0069338333Y0006087857D01*
X0069576428Y0006087857D01*
X0069766904Y0006040239D01*
X0069862142Y0005992620D01*
X0069909761Y0005945000D01*
X0069957380Y0005849761D01*
X0069957380Y0005754524D01*
X0069909761Y0005659286D01*
X0069862142Y0005611666D01*
X0069766904Y0005564048D01*
X0069576428Y0005516429D01*
X0069338333Y0005516429D01*
X0069147857Y0005564048D01*
X0069052619Y0005611666D01*
X0069005000Y0005659286D01*
X0068957380Y0005754524D01*
X0068957380Y0006706904D02*
X0068957380Y0006802143D01*
X0069005000Y0006897381D01*
X0069052619Y0006945000D01*
X0069147857Y0006992620D01*
X0069338333Y0007040239D01*
X0069576428Y0007040239D01*
X0069766904Y0006992620D01*
X0069862142Y0006945000D01*
X0069909761Y0006897381D01*
X0069957380Y0006802143D01*
X0069957380Y0006706904D01*
X0069909761Y0006611666D01*
X0069862142Y0006564048D01*
X0069766904Y0006516429D01*
X0069576428Y0006468809D01*
X0069338333Y0006468809D01*
X0069147857Y0006516429D01*
X0069052619Y0006564048D01*
X0069005000Y0006611666D01*
X0068957380Y0006706904D01*
X0069576428Y0007468809D02*
X0069576428Y0008230715D01*
X0069957380Y0008706904D02*
X0068957380Y0008706904D01*
X0068957380Y0008945000D01*
X0069005000Y0009087858D01*
X0069100238Y0009183095D01*
X0069195476Y0009230715D01*
X0069385952Y0009278334D01*
X0069528809Y0009278334D01*
X0069719285Y0009230715D01*
X0069814523Y0009183095D01*
X0069909761Y0009087858D01*
X0069957380Y0008945000D01*
X0069957380Y0008706904D01*
X0069957380Y0009706904D02*
X0068957380Y0009706904D01*
X0068957380Y0010040239D02*
X0068957380Y0010611667D01*
X0069957380Y0010325952D02*
X0068957380Y0010325952D01*
D10*
X0073232000Y0014795248D02*
X0073208190Y0014747629D01*
X0073208190Y0014676200D01*
X0073232000Y0014604772D01*
X0073279619Y0014557153D01*
X0073327238Y0014533342D01*
X0073422476Y0014509533D01*
X0073493904Y0014509533D01*
X0073589142Y0014533342D01*
X0073636761Y0014557153D01*
X0073684380Y0014604772D01*
X0073708190Y0014676200D01*
X0073708190Y0014723820D01*
X0073684380Y0014795248D01*
X0073660571Y0014819057D01*
X0073493904Y0014819057D01*
X0073493904Y0014723820D01*
X0073708190Y0015033342D02*
X0073208190Y0015033342D01*
X0073708190Y0015319057D01*
X0073208190Y0015319057D01*
X0073708190Y0015557153D02*
X0073208190Y0015557153D01*
X0073208190Y0015676200D01*
X0073232000Y0015747629D01*
X0073279619Y0015795248D01*
X0073327238Y0015819057D01*
X0073422476Y0015842866D01*
X0073493904Y0015842866D01*
X0073589142Y0015819057D01*
X0073636761Y0015795248D01*
X0073684380Y0015747629D01*
X0073708190Y0015676200D01*
X0073708190Y0015557153D01*
X0073232000Y0026795248D02*
X0073208190Y0026747629D01*
X0073208190Y0026676200D01*
X0073232000Y0026604772D01*
X0073279619Y0026557153D01*
X0073327238Y0026533343D01*
X0073422476Y0026509534D01*
X0073493904Y0026509534D01*
X0073589142Y0026533343D01*
X0073636761Y0026557153D01*
X0073684380Y0026604772D01*
X0073708190Y0026676200D01*
X0073708190Y0026723820D01*
X0073684380Y0026795248D01*
X0073660571Y0026819058D01*
X0073493904Y0026819058D01*
X0073493904Y0026723820D01*
X0073708190Y0027033343D02*
X0073208190Y0027033343D01*
X0073708190Y0027319058D01*
X0073208190Y0027319058D01*
X0073708190Y0027557153D02*
X0073208190Y0027557153D01*
X0073208190Y0027676200D01*
X0073232000Y0027747629D01*
X0073279619Y0027795248D01*
X0073327238Y0027819058D01*
X0073422476Y0027842867D01*
X0073493904Y0027842867D01*
X0073589142Y0027819058D01*
X0073636761Y0027795248D01*
X0073684380Y0027747629D01*
X0073708190Y0027676200D01*
X0073708190Y0027557153D01*
X0073708190Y0028580962D02*
X0073708190Y0028342867D01*
X0073208190Y0028342867D01*
X0073708190Y0029033343D02*
X0073470095Y0028866677D01*
X0073708190Y0028747629D02*
X0073208190Y0028747629D01*
X0073208190Y0028938105D01*
X0073232000Y0028985723D01*
X0073255809Y0029009534D01*
X0073303428Y0029033343D01*
X0073374857Y0029033343D01*
X0073422476Y0029009534D01*
X0073446285Y0028985723D01*
X0073470095Y0028938105D01*
X0073470095Y0028747629D01*
X0073660571Y0029533343D02*
X0073684380Y0029509534D01*
X0073708190Y0029438105D01*
X0073708190Y0029390486D01*
X0073684380Y0029319058D01*
X0073636761Y0029271439D01*
X0073589142Y0029247629D01*
X0073493904Y0029223820D01*
X0073422476Y0029223820D01*
X0073327238Y0029247629D01*
X0073279619Y0029271439D01*
X0073232000Y0029319058D01*
X0073208190Y0029390486D01*
X0073208190Y0029438105D01*
X0073232000Y0029509534D01*
X0073255809Y0029533343D01*
X0073708190Y0029747629D02*
X0073208190Y0029747629D01*
X0073708190Y0030033343D02*
X0073422476Y0029819058D01*
X0073208190Y0030033343D02*
X0073493904Y0029747629D01*
X0073232000Y0022795248D02*
X0073208190Y0022747629D01*
X0073208190Y0022676200D01*
X0073232000Y0022604772D01*
X0073279619Y0022557153D01*
X0073327238Y0022533343D01*
X0073422476Y0022509534D01*
X0073493904Y0022509534D01*
X0073589142Y0022533343D01*
X0073636761Y0022557153D01*
X0073684380Y0022604772D01*
X0073708190Y0022676200D01*
X0073708190Y0022723820D01*
X0073684380Y0022795248D01*
X0073660571Y0022819058D01*
X0073493904Y0022819058D01*
X0073493904Y0022723820D01*
X0073708190Y0023033343D02*
X0073208190Y0023033343D01*
X0073708190Y0023319058D01*
X0073208190Y0023319058D01*
X0073708190Y0023557153D02*
X0073208190Y0023557153D01*
X0073208190Y0023676200D01*
X0073232000Y0023747629D01*
X0073279619Y0023795248D01*
X0073327238Y0023819058D01*
X0073422476Y0023842867D01*
X0073493904Y0023842867D01*
X0073589142Y0023819058D01*
X0073636761Y0023795248D01*
X0073684380Y0023747629D01*
X0073708190Y0023676200D01*
X0073708190Y0023557153D01*
X0073708190Y0016307153D02*
X0073208190Y0016307153D01*
X0073565333Y0016473820D01*
X0073208190Y0016640486D01*
X0073708190Y0016640486D01*
X0073660571Y0017164296D02*
X0073684380Y0017140486D01*
X0073708190Y0017069058D01*
X0073708190Y0017021439D01*
X0073684380Y0016950010D01*
X0073636761Y0016902391D01*
X0073589142Y0016878581D01*
X0073493904Y0016854772D01*
X0073422476Y0016854772D01*
X0073327238Y0016878581D01*
X0073279619Y0016902391D01*
X0073232000Y0016950010D01*
X0073208190Y0017021439D01*
X0073208190Y0017069058D01*
X0073232000Y0017140486D01*
X0073255809Y0017164296D01*
X0073708190Y0017616677D02*
X0073708190Y0017378581D01*
X0073208190Y0017378581D01*
X0073708190Y0017783343D02*
X0073208190Y0017783343D01*
X0073708190Y0018069058D02*
X0073422476Y0017854772D01*
X0073208190Y0018069058D02*
X0073493904Y0017783343D01*
X0073684380Y0020378581D02*
X0073708190Y0020450010D01*
X0073708190Y0020569058D01*
X0073684380Y0020616677D01*
X0073660571Y0020640486D01*
X0073612952Y0020664296D01*
X0073565333Y0020664296D01*
X0073517714Y0020640486D01*
X0073493904Y0020616677D01*
X0073470095Y0020569058D01*
X0073446285Y0020473820D01*
X0073422476Y0020426200D01*
X0073398666Y0020402391D01*
X0073351047Y0020378581D01*
X0073303428Y0020378581D01*
X0073255809Y0020402391D01*
X0073232000Y0020426200D01*
X0073208190Y0020473820D01*
X0073208190Y0020592867D01*
X0073232000Y0020664296D01*
X0073708190Y0020878581D02*
X0073208190Y0020878581D01*
X0073208190Y0020997629D01*
X0073232000Y0021069058D01*
X0073279619Y0021116677D01*
X0073327238Y0021140486D01*
X0073422476Y0021164296D01*
X0073493904Y0021164296D01*
X0073589142Y0021140486D01*
X0073636761Y0021116677D01*
X0073684380Y0021069058D01*
X0073708190Y0020997629D01*
X0073708190Y0020878581D01*
X0073565333Y0021354772D02*
X0073565333Y0021592867D01*
X0073708190Y0021307153D02*
X0073208190Y0021473820D01*
X0073708190Y0021640486D01*
X0073208190Y0021735724D02*
X0073208190Y0022021439D01*
X0073708190Y0021878581D02*
X0073208190Y0021878581D01*
X0073232000Y0018795248D02*
X0073208190Y0018747629D01*
X0073208190Y0018676200D01*
X0073232000Y0018604772D01*
X0073279619Y0018557153D01*
X0073327238Y0018533343D01*
X0073422476Y0018509534D01*
X0073493904Y0018509534D01*
X0073589142Y0018533343D01*
X0073636761Y0018557153D01*
X0073684380Y0018604772D01*
X0073708190Y0018676200D01*
X0073708190Y0018723820D01*
X0073684380Y0018795248D01*
X0073660571Y0018819058D01*
X0073493904Y0018819058D01*
X0073493904Y0018723820D01*
X0073708190Y0019033343D02*
X0073208190Y0019033343D01*
X0073708190Y0019319058D01*
X0073208190Y0019319058D01*
X0073708190Y0019557153D02*
X0073208190Y0019557153D01*
X0073208190Y0019676200D01*
X0073232000Y0019747629D01*
X0073279619Y0019795248D01*
X0073327238Y0019819058D01*
X0073422476Y0019842867D01*
X0073493904Y0019842867D01*
X0073589142Y0019819058D01*
X0073636761Y0019795248D01*
X0073684380Y0019747629D01*
X0073708190Y0019676200D01*
X0073708190Y0019557153D01*
X0073708190Y0010683343D02*
X0073208190Y0010683343D01*
X0073708190Y0010969058D01*
X0073208190Y0010969058D01*
X0073660571Y0011492867D02*
X0073684380Y0011469058D01*
X0073708190Y0011397628D01*
X0073708190Y0011350010D01*
X0073684380Y0011278581D01*
X0073636761Y0011230962D01*
X0073589142Y0011207153D01*
X0073493904Y0011183343D01*
X0073422476Y0011183343D01*
X0073327238Y0011207153D01*
X0073279619Y0011230962D01*
X0073232000Y0011278581D01*
X0073208190Y0011350010D01*
X0073208190Y0011397628D01*
X0073232000Y0011469058D01*
X0073255809Y0011492867D01*
X0073446285Y0024592867D02*
X0073470095Y0024664296D01*
X0073493904Y0024688105D01*
X0073541523Y0024711914D01*
X0073612952Y0024711914D01*
X0073660571Y0024688105D01*
X0073684380Y0024664296D01*
X0073708190Y0024616677D01*
X0073708190Y0024426200D01*
X0073208190Y0024426200D01*
X0073208190Y0024592867D01*
X0073232000Y0024640486D01*
X0073255809Y0024664296D01*
X0073303428Y0024688105D01*
X0073351047Y0024688105D01*
X0073398666Y0024664296D01*
X0073422476Y0024640486D01*
X0073446285Y0024592867D01*
X0073446285Y0024426200D01*
X0073708190Y0024926200D02*
X0073208190Y0024926200D01*
X0073660571Y0025450010D02*
X0073684380Y0025426200D01*
X0073708190Y0025354772D01*
X0073708190Y0025307153D01*
X0073684380Y0025235723D01*
X0073636761Y0025188105D01*
X0073589142Y0025164296D01*
X0073493904Y0025140486D01*
X0073422476Y0025140486D01*
X0073327238Y0025164296D01*
X0073279619Y0025188105D01*
X0073232000Y0025235723D01*
X0073208190Y0025307153D01*
X0073208190Y0025354772D01*
X0073232000Y0025426200D01*
X0073255809Y0025450010D01*
X0073708190Y0025664296D02*
X0073208190Y0025664296D01*
X0073708190Y0025950010D02*
X0073422476Y0025735723D01*
X0073208190Y0025950010D02*
X0073493904Y0025664296D01*
D11*
X0067882333Y0018032620D02*
X0067549000Y0018508810D01*
X0067310904Y0018032620D02*
X0067310904Y0019032620D01*
X0067691857Y0019032620D01*
X0067787095Y0018985000D01*
X0067834714Y0018937381D01*
X0067882333Y0018842143D01*
X0067882333Y0018699286D01*
X0067834714Y0018604048D01*
X0067787095Y0018556429D01*
X0067691857Y0018508810D01*
X0067310904Y0018508810D01*
X0068834714Y0018032620D02*
X0068263285Y0018032620D01*
X0068549000Y0018032620D02*
X0068549000Y0019032620D01*
X0068453761Y0018889762D01*
X0068358523Y0018794524D01*
X0068263285Y0018746905D01*
X0060661666Y0038772620D02*
X0060661666Y0038058334D01*
X0060614047Y0037915477D01*
X0060518809Y0037820239D01*
X0060375952Y0037772620D01*
X0060280714Y0037772620D01*
X0061661666Y0037772620D02*
X0061090238Y0037772620D01*
X0061375952Y0037772620D02*
X0061375952Y0038772620D01*
X0061280714Y0038629762D01*
X0061185476Y0038534524D01*
X0061090238Y0038486905D01*
X0067882333Y0021879288D02*
X0067549000Y0022355478D01*
X0067310904Y0021879288D02*
X0067310904Y0022879288D01*
X0067691857Y0022879288D01*
X0067787095Y0022831668D01*
X0067834714Y0022784049D01*
X0067882333Y0022688811D01*
X0067882333Y0022545954D01*
X0067834714Y0022450716D01*
X0067787095Y0022403097D01*
X0067691857Y0022355478D01*
X0067310904Y0022355478D01*
X0068215666Y0022879288D02*
X0068834714Y0022879288D01*
X0068501380Y0022498335D01*
X0068644238Y0022498335D01*
X0068739476Y0022450716D01*
X0068787095Y0022403097D01*
X0068834714Y0022307859D01*
X0068834714Y0022069764D01*
X0068787095Y0021974526D01*
X0068739476Y0021926907D01*
X0068644238Y0021879288D01*
X0068358523Y0021879288D01*
X0068263285Y0021926907D01*
X0068215666Y0021974526D01*
X0067932333Y0034567058D02*
X0067884714Y0034519439D01*
X0067741857Y0034471820D01*
X0067646619Y0034471820D01*
X0067503761Y0034519439D01*
X0067408523Y0034614677D01*
X0067360904Y0034709915D01*
X0067313285Y0034900391D01*
X0067313285Y0035043248D01*
X0067360904Y0035233724D01*
X0067408523Y0035328962D01*
X0067503761Y0035424200D01*
X0067646619Y0035471820D01*
X0067741857Y0035471820D01*
X0067884714Y0035424200D01*
X0067932333Y0035376581D01*
X0068884714Y0034471820D02*
X0068313285Y0034471820D01*
X0068599000Y0034471820D02*
X0068599000Y0035471820D01*
X0068503761Y0035328962D01*
X0068408523Y0035233724D01*
X0068313285Y0035186105D01*
X0067882333Y0025725954D02*
X0067549000Y0026202144D01*
X0067310904Y0025725954D02*
X0067310904Y0026725954D01*
X0067691857Y0026725954D01*
X0067787095Y0026678334D01*
X0067834714Y0026630715D01*
X0067882333Y0026535477D01*
X0067882333Y0026392620D01*
X0067834714Y0026297382D01*
X0067787095Y0026249763D01*
X0067691857Y0026202144D01*
X0067310904Y0026202144D01*
X0068263285Y0026630715D02*
X0068310904Y0026678334D01*
X0068406142Y0026725954D01*
X0068644238Y0026725954D01*
X0068739476Y0026678334D01*
X0068787095Y0026630715D01*
X0068834714Y0026535477D01*
X0068834714Y0026440239D01*
X0068787095Y0026297382D01*
X0068215666Y0025725954D01*
X0068834714Y0025725954D01*
X0067882333Y0029572620D02*
X0067549000Y0030048810D01*
X0067310904Y0029572620D02*
X0067310904Y0030572620D01*
X0067691857Y0030572620D01*
X0067787095Y0030525000D01*
X0067834714Y0030477381D01*
X0067882333Y0030382143D01*
X0067882333Y0030239286D01*
X0067834714Y0030144047D01*
X0067787095Y0030096429D01*
X0067691857Y0030048810D01*
X0067310904Y0030048810D01*
X0068739476Y0030239286D02*
X0068739476Y0029572620D01*
X0068501380Y0030620238D02*
X0068263285Y0029905953D01*
X0068882333Y0029905953D01*
D12*
X0067821936Y0016100000D02*
X0068276064Y0016100000D01*
X0067821936Y0017570000D02*
X0068276064Y0017570000D01*
X0062055000Y0035165000D02*
X0062055000Y0003104999D01*
X0059935000Y0036165000D02*
X0059935000Y0037225000D01*
X0059935000Y0035165000D02*
X0059935000Y0003104999D01*
X0059935000Y0003104999D02*
X0062055000Y0003104999D01*
X0059935000Y0037225000D02*
X0060995000Y0037225000D01*
X0059935000Y0035165000D02*
X0062055000Y0035165000D01*
X0067821936Y0019946668D02*
X0068276064Y0019946668D01*
X0067821936Y0021416668D02*
X0068276064Y0021416668D01*
X0067837748Y0033979200D02*
X0068360252Y0033979200D01*
X0067837748Y0032509200D02*
X0068360252Y0032509200D01*
X0067821936Y0025263334D02*
X0068276064Y0025263334D01*
X0067821936Y0023793334D02*
X0068276064Y0023793334D01*
X0067821936Y0029110000D02*
X0068276064Y0029110000D01*
X0067821936Y0027640000D02*
X0068276064Y0027640000D01*
M02*