%
M48
METRIC,000.000
T01C0.40
T02C0.75
T03C0.80
%
T01
X065763Y026335
X066035Y030605
X066220Y019096
X067395Y030115
X069075Y030055
X071065Y032475
X073095Y031685
T02
X071815Y029175
X071815Y027175
X071815Y025175
X071815Y023175
X071815Y021175
X071815Y019175
X071815Y017175
X071815Y015175
X071815Y013175
X071815Y011175
T03
X060995Y036165
X060995Y034165
X060995Y032165
X060995Y030165
X060995Y028165
X060995Y026165
X060995Y024165
X060995Y022165
X060995Y020165
X060995Y018165
X060995Y016165
X060995Y014165
X060995Y012165
X060995Y010165
X060995Y008164
X060995Y006164
X060995Y004164
X063855Y036165
X063855Y034165
X063855Y032165
X063855Y030165
X063855Y028165
X063855Y026165
X063855Y024165
X063855Y022165
X063855Y020165
X063855Y018165
X063855Y016165
X063855Y014165
X063855Y012165
X063855Y010165
X063855Y008164
X063855Y006164
X063855Y004164
M30