G04 #@! TF.GenerationSoftware,KiCad,Pcbnew,(6.0.1)*
G04 #@! TF.CreationDate,2022-07-05T00:42:15-07:00*
G04 #@! TF.ProjectId,mu100-dit,6d753130-302d-4646-9974-2e6b69636164,rev?*
G04 #@! TF.SameCoordinates,PX4a25ef0PY4c3f880*
G04 #@! TF.FileFunction,Copper,L1,Top*
G04 #@! TF.FilePolarity,Positive*
%FSLAX46Y46*%
G04 Gerber Fmt 4.6, Leading zero omitted, Abs format (unit mm)*
G04 Created by KiCad (PCBNEW (6.0.1)) date 2022-07-05 00:42:15*
%MOMM*%
%LPD*%
G01*
G04 APERTURE LIST*
G04 Aperture macros list*
%AMRoundRect*
4,1,4,2,3,4,5,6,7,8,9,2,3,0*
1,1,$1,$2,$3*
1,1,$1,$2,$3*
1,1,$1,$2,$3*
1,1,$1,$2,$3*
20,1,$1,$2,$3,$4,$5,0*
20,1,$1,$2,$3,$4,$5,0*
20,1,$1,$2,$3,$4,$5,0*
20,1,$1,$2,$3,$4,$5,0*%
G04 Aperture macros list end*
G04 #@! TA.AperFunction,SMDPad,CuDef*
%AMCOMP56*
4,1,3,
-0.3375,-0.475,
0.3375,-0.475,
0.3375,0.475,
-0.3375,0.475,
0*
4,1,19,
-0.3375,-0.22499999999999998,
-0.26024575140626316,-0.2372358709262116,
-0.19055368692688174,-0.27274575140626311,
-0.13524575140626316,-0.32805368692688169,
-0.099735870926211639,-0.39774575140626311,
-0.087500000000000022,-0.475,
-0.099735870926211612,-0.55225424859373684,
-0.13524575140626316,-0.62194631307311821,
-0.19055368692688171,-0.67725424859373684,
-0.26024575140626316,-0.71276412907378839,
-0.33749999999999997,-0.725,
-0.41475424859373694,-0.71276412907378839,
-0.48444631307311825,-0.67725424859373684,
-0.53975424859373689,-0.62194631307311832,
-0.57526412907378843,-0.55225424859373684,
-0.5875,-0.47500000000000003,
-0.57526412907378843,-0.39774575140626317,
-0.53975424859373689,-0.32805368692688175,
-0.48444631307311836,-0.27274575140626311,
-0.41475424859373694,-0.2372358709262116,
0*
4,1,19,
0.3375,-0.22499999999999998,
0.41475424859373689,-0.2372358709262116,
0.48444631307311831,-0.27274575140626311,
0.53975424859373689,-0.32805368692688169,
0.57526412907378843,-0.39774575140626311,
0.5875,-0.475,
0.57526412907378843,-0.55225424859373684,
0.53975424859373689,-0.62194631307311821,
0.48444631307311836,-0.67725424859373684,
0.41475424859373689,-0.71276412907378839,
0.33750000000000008,-0.725,
0.2602457514062631,-0.71276412907378839,
0.19055368692688177,-0.67725424859373684,
0.13524575140626319,-0.62194631307311832,
0.099735870926211639,-0.55225424859373684,
0.087500000000000022,-0.47500000000000003,
0.099735870926211612,-0.39774575140626317,
0.13524575140626313,-0.32805368692688175,
0.19055368692688168,-0.27274575140626311,
0.2602457514062631,-0.2372358709262116,
0*
4,1,19,
0.3375,0.725,
0.41475424859373689,0.71276412907378839,
0.48444631307311831,0.67725424859373684,
0.53975424859373689,0.62194631307311821,
0.57526412907378843,0.55225424859373684,
0.5875,0.475,
0.57526412907378843,0.39774575140626311,
0.53975424859373689,0.32805368692688175,
0.48444631307311836,0.27274575140626311,
0.41475424859373689,0.2372358709262116,
0.33750000000000008,0.22499999999999998,
0.2602457514062631,0.2372358709262116,
0.19055368692688177,0.27274575140626311,
0.13524575140626319,0.32805368692688164,
0.099735870926211639,0.39774575140626311,
0.087500000000000022,0.47499999999999992,
0.099735870926211612,0.55225424859373673,
0.13524575140626313,0.62194631307311821,
0.19055368692688168,0.67725424859373684,
0.2602457514062631,0.71276412907378839,
0*
4,1,19,
-0.3375,0.725,
-0.26024575140626316,0.71276412907378839,
-0.19055368692688174,0.67725424859373684,
-0.13524575140626316,0.62194631307311821,
-0.099735870926211639,0.55225424859373684,
-0.087500000000000022,0.475,
-0.099735870926211612,0.39774575140626311,
-0.13524575140626316,0.32805368692688175,
-0.19055368692688171,0.27274575140626311,
-0.26024575140626316,0.2372358709262116,
-0.33749999999999997,0.22499999999999998,
-0.41475424859373694,0.2372358709262116,
-0.48444631307311825,0.27274575140626311,
-0.53975424859373689,0.32805368692688164,
-0.57526412907378843,0.39774575140626311,
-0.5875,0.47499999999999992,
-0.57526412907378843,0.55225424859373673,
-0.53975424859373689,0.62194631307311821,
-0.48444631307311836,0.67725424859373684,
-0.41475424859373694,0.71276412907378839,
0*
4,1,3,
-0.3375,-0.725,
-0.3375,-0.22499999999999998,
0.3375,-0.22499999999999998,
0.3375,-0.725,
0*
4,1,3,
0.5875,-0.475,
0.087500000000000022,-0.475,
0.087500000000000022,0.475,
0.5875,0.475,
0*
4,1,3,
0.3375,0.725,
0.3375,0.22499999999999998,
-0.3375,0.22499999999999998,
-0.3375,0.725,
0*
4,1,3,
-0.5875,0.475,
-0.087500000000000022,0.475,
-0.087500000000000022,-0.475,
-0.5875,-0.475,
0*%
%ADD10COMP56,0.25X-0.3375X-0.475X0.3375X-0.475X0.3375X0.475X-0.3375X0.475X0*%
G04 #@! TD*
G04 #@! TA.AperFunction,ComponentPad*
%AMCOMP57*
4,1,3,
-0.625,0.35,
-0.625,-0.35,
0.625,-0.35,
0.625,0.35,
0*
4,1,19,
-0.625,0.6,
-0.54774575140626314,0.58776412907378839,
-0.47805368692688172,0.55225424859373684,
-0.42274575140626314,0.49694631307311826,
-0.38723587092621159,0.42725424859373684,
-0.375,0.35,
-0.38723587092621159,0.27274575140626311,
-0.42274575140626314,0.20305368692688172,
-0.47805368692688166,0.14774575140626314,
-0.54774575140626314,0.1122358709262116,
-0.625,0.099999999999999978,
-0.702254248593737,0.1122358709262116,
-0.77194631307311823,0.14774575140626309,
-0.82725424859373686,0.20305368692688167,
-0.86276412907378841,0.27274575140626311,
-0.875,0.34999999999999992,
-0.86276412907378841,0.42725424859373679,
-0.82725424859373686,0.49694631307311821,
-0.77194631307311834,0.55225424859373684,
-0.70225424859373686,0.58776412907378839,
0*
4,1,19,
-0.625,-0.099999999999999978,
-0.54774575140626314,-0.1122358709262116,
-0.47805368692688172,-0.14774575140626311,
-0.42274575140626314,-0.20305368692688169,
-0.38723587092621159,-0.27274575140626311,
-0.375,-0.35,
-0.38723587092621159,-0.42725424859373684,
-0.42274575140626314,-0.49694631307311821,
-0.47805368692688166,-0.55225424859373684,
-0.54774575140626314,-0.58776412907378839,
-0.625,-0.6,
-0.702254248593737,-0.58776412907378839,
-0.77194631307311823,-0.55225424859373684,
-0.82725424859373686,-0.49694631307311832,
-0.86276412907378841,-0.42725424859373684,
-0.875,-0.35000000000000003,
-0.86276412907378841,-0.27274575140626317,
-0.82725424859373686,-0.20305368692688175,
-0.77194631307311834,-0.14774575140626314,
-0.70225424859373686,-0.1122358709262116,
0*
4,1,19,
0.625,-0.099999999999999978,
0.70225424859373686,-0.1122358709262116,
0.77194631307311834,-0.14774575140626311,
0.82725424859373686,-0.20305368692688169,
0.86276412907378841,-0.27274575140626311,
0.875,-0.35,
0.86276412907378841,-0.42725424859373684,
0.82725424859373686,-0.49694631307311821,
0.77194631307311834,-0.55225424859373684,
0.70225424859373686,-0.58776412907378839,
0.625,-0.6,
0.547745751406263,-0.58776412907378839,
0.47805368692688177,-0.55225424859373684,
0.42274575140626314,-0.49694631307311832,
0.38723587092621159,-0.42725424859373684,
0.375,-0.35000000000000003,
0.38723587092621159,-0.27274575140626317,
0.42274575140626314,-0.20305368692688175,
0.47805368692688166,-0.14774575140626314,
0.54774575140626314,-0.1122358709262116,
0*
4,1,19,
0.625,0.6,
0.70225424859373686,0.58776412907378839,
0.77194631307311834,0.55225424859373684,
0.82725424859373686,0.49694631307311826,
0.86276412907378841,0.42725424859373684,
0.875,0.35,
0.86276412907378841,0.27274575140626311,
0.82725424859373686,0.20305368692688172,
0.77194631307311834,0.14774575140626314,
0.70225424859373686,0.1122358709262116,
0.625,0.099999999999999978,
0.547745751406263,0.1122358709262116,
0.47805368692688177,0.14774575140626309,
0.42274575140626314,0.20305368692688167,
0.38723587092621159,0.27274575140626311,
0.375,0.34999999999999992,
0.38723587092621159,0.42725424859373679,
0.42274575140626314,0.49694631307311821,
0.47805368692688166,0.55225424859373684,
0.54774575140626314,0.58776412907378839,
0*
4,1,3,
-0.875,0.35,
-0.375,0.35,
-0.375,-0.35,
-0.875,-0.35,
0*
4,1,3,
-0.625,-0.6,
-0.625,-0.099999999999999978,
0.625,-0.099999999999999978,
0.625,-0.6,
0*
4,1,3,
0.875,-0.35,
0.375,-0.35,
0.375,0.35,
0.875,0.35,
0*
4,1,3,
0.625,0.6,
0.625,0.099999999999999978,
-0.625,0.099999999999999978,
-0.625,0.6,
0*%
%ADD11COMP57,0.25X-0.625X0.35X-0.625X-0.35X0.625X-0.35X0.625X0.35X0*%
G04 #@! TD*
G04 #@! TA.AperFunction,ComponentPad*
%ADD12O,1.75X1.2*%
G04 #@! TD*
G04 #@! TA.AperFunction,SMDPad,CuDef*
%AMCOMP58*
4,1,3,
-0.6375,-0.1,
0.6375,-0.1,
0.6375,0.1,
-0.6375,0.1,
0*
4,1,19,
-0.6375,0,
-0.60659830056250519,-0.00489434837048465,
-0.57872147477075264,-0.019098300562505249,
-0.55659830056250525,-0.041221474770752692,
-0.54239434837048461,-0.069098300562505266,
-0.5375,-0.1,
-0.54239434837048461,-0.13090169943749475,
-0.55659830056250525,-0.15877852522924732,
-0.57872147477075264,-0.18090169943749473,
-0.60659830056250519,-0.19510565162951538,
-0.6375,-0.2,
-0.66840169943749472,-0.19510565162951538,
-0.69627852522924727,-0.18090169943749476,
-0.71840169943749466,-0.15877852522924735,
-0.7326056516295153,-0.13090169943749477,
-0.73749999999999993,-0.10000000000000002,
-0.7326056516295153,-0.06909830056250528,
-0.71840169943749466,-0.041221474770752713,
-0.69627852522924727,-0.019098300562505263,
-0.66840169943749472,-0.00489434837048465,
0*
4,1,19,
0.6375,0,
0.66840169943749472,-0.00489434837048465,
0.69627852522924727,-0.019098300562505249,
0.71840169943749466,-0.041221474770752692,
0.7326056516295153,-0.069098300562505266,
0.73749999999999993,-0.1,
0.7326056516295153,-0.13090169943749475,
0.71840169943749466,-0.15877852522924732,
0.69627852522924727,-0.18090169943749473,
0.66840169943749472,-0.19510565162951538,
0.6375,-0.2,
0.60659830056250519,-0.19510565162951538,
0.57872147477075264,-0.18090169943749476,
0.55659830056250525,-0.15877852522924735,
0.54239434837048461,-0.13090169943749477,
0.5375,-0.10000000000000002,
0.54239434837048461,-0.06909830056250528,
0.55659830056250525,-0.041221474770752713,
0.57872147477075264,-0.019098300562505263,
0.60659830056250519,-0.00489434837048465,
0*
4,1,19,
0.6375,0.2,
0.66840169943749472,0.19510565162951538,
0.69627852522924727,0.18090169943749476,
0.71840169943749466,0.15877852522924732,
0.7326056516295153,0.13090169943749475,
0.73749999999999993,0.1,
0.7326056516295153,0.069098300562505266,
0.71840169943749466,0.0412214747707527,
0.69627852522924727,0.019098300562505263,
0.66840169943749472,0.00489434837048465,
0.6375,0,
0.60659830056250519,0.00489434837048465,
0.57872147477075264,0.019098300562505249,
0.55659830056250525,0.041221474770752678,
0.54239434837048461,0.069098300562505252,
0.5375,0.099999999999999992,
0.54239434837048461,0.13090169943749475,
0.55659830056250525,0.15877852522924729,
0.57872147477075264,0.18090169943749473,
0.60659830056250519,0.19510565162951538,
0*
4,1,19,
-0.6375,0.2,
-0.60659830056250519,0.19510565162951538,
-0.57872147477075264,0.18090169943749476,
-0.55659830056250525,0.15877852522924732,
-0.54239434837048461,0.13090169943749475,
-0.5375,0.1,
-0.54239434837048461,0.069098300562505266,
-0.55659830056250525,0.0412214747707527,
-0.57872147477075264,0.019098300562505263,
-0.60659830056250519,0.00489434837048465,
-0.6375,0,
-0.66840169943749472,0.00489434837048465,
-0.69627852522924727,0.019098300562505249,
-0.71840169943749466,0.041221474770752678,
-0.7326056516295153,0.069098300562505252,
-0.73749999999999993,0.099999999999999992,
-0.7326056516295153,0.13090169943749475,
-0.71840169943749466,0.15877852522924729,
-0.69627852522924727,0.18090169943749473,
-0.66840169943749472,0.19510565162951538,
0*
4,1,3,
-0.6375,-0.2,
-0.6375,0,
0.6375,0,
0.6375,-0.2,
0*
4,1,3,
0.73749999999999993,-0.1,
0.5375,-0.1,
0.5375,0.1,
0.73749999999999993,0.1,
0*
4,1,3,
0.6375,0.2,
0.6375,0,
-0.6375,0,
-0.6375,0.2,
0*
4,1,3,
-0.73749999999999993,0.1,
-0.5375,0.1,
-0.5375,-0.1,
-0.73749999999999993,-0.1,
0*%
%ADD13COMP58,0.1X-0.6375X-0.1X0.6375X-0.1X0.6375X0.1X-0.6375X0.1X0*%
G04 #@! TD*
G04 #@! TA.AperFunction,ConnectorPad*
%ADD14C,5.7*%
G04 #@! TD*
G04 #@! TA.AperFunction,ComponentPad*
%ADD15C,3.6*%
G04 #@! TD*
G04 #@! TA.AperFunction,ComponentPad*
%ADD16C,1.524*%
G04 #@! TD*
G04 #@! TA.AperFunction,SMDPad,CuDef*
%ADD17R,1.9X0.8*%
G04 #@! TD*
G04 #@! TA.AperFunction,SMDPad,CuDef*
%AMCOMP59*
4,1,3,
0.3375,0.475,
-0.3375,0.475,
-0.3375,-0.475,
0.3375,-0.475,
0*
4,1,19,
0.3375,0.725,
0.41475424859373689,0.71276412907378839,
0.48444631307311831,0.67725424859373684,
0.53975424859373689,0.62194631307311821,
0.57526412907378843,0.55225424859373684,
0.5875,0.475,
0.57526412907378843,0.39774575140626311,
0.53975424859373689,0.32805368692688175,
0.48444631307311836,0.27274575140626311,
0.41475424859373689,0.2372358709262116,
0.33750000000000008,0.22499999999999998,
0.2602457514062631,0.2372358709262116,
0.19055368692688177,0.27274575140626311,
0.13524575140626319,0.32805368692688164,
0.099735870926211639,0.39774575140626311,
0.087500000000000022,0.47499999999999992,
0.099735870926211612,0.55225424859373673,
0.13524575140626313,0.62194631307311821,
0.19055368692688168,0.67725424859373684,
0.2602457514062631,0.71276412907378839,
0*
4,1,19,
-0.3375,0.725,
-0.26024575140626316,0.71276412907378839,
-0.19055368692688174,0.67725424859373684,
-0.13524575140626316,0.62194631307311821,
-0.099735870926211639,0.55225424859373684,
-0.087500000000000022,0.475,
-0.099735870926211612,0.39774575140626311,
-0.13524575140626316,0.32805368692688175,
-0.19055368692688171,0.27274575140626311,
-0.26024575140626316,0.2372358709262116,
-0.33749999999999997,0.22499999999999998,
-0.41475424859373694,0.2372358709262116,
-0.48444631307311825,0.27274575140626311,
-0.53975424859373689,0.32805368692688164,
-0.57526412907378843,0.39774575140626311,
-0.5875,0.47499999999999992,
-0.57526412907378843,0.55225424859373673,
-0.53975424859373689,0.62194631307311821,
-0.48444631307311836,0.67725424859373684,
-0.41475424859373694,0.71276412907378839,
0*
4,1,19,
-0.3375,-0.22499999999999998,
-0.26024575140626316,-0.2372358709262116,
-0.19055368692688174,-0.27274575140626311,
-0.13524575140626316,-0.32805368692688169,
-0.099735870926211639,-0.39774575140626311,
-0.087500000000000022,-0.475,
-0.099735870926211612,-0.55225424859373684,
-0.13524575140626316,-0.62194631307311821,
-0.19055368692688171,-0.67725424859373684,
-0.26024575140626316,-0.71276412907378839,
-0.33749999999999997,-0.725,
-0.41475424859373694,-0.71276412907378839,
-0.48444631307311825,-0.67725424859373684,
-0.53975424859373689,-0.62194631307311832,
-0.57526412907378843,-0.55225424859373684,
-0.5875,-0.47500000000000003,
-0.57526412907378843,-0.39774575140626317,
-0.53975424859373689,-0.32805368692688175,
-0.48444631307311836,-0.27274575140626311,
-0.41475424859373694,-0.2372358709262116,
0*
4,1,19,
0.3375,-0.22499999999999998,
0.41475424859373689,-0.2372358709262116,
0.48444631307311831,-0.27274575140626311,
0.53975424859373689,-0.32805368692688169,
0.57526412907378843,-0.39774575140626311,
0.5875,-0.475,
0.57526412907378843,-0.55225424859373684,
0.53975424859373689,-0.62194631307311821,
0.48444631307311836,-0.67725424859373684,
0.41475424859373689,-0.71276412907378839,
0.33750000000000008,-0.725,
0.2602457514062631,-0.71276412907378839,
0.19055368692688177,-0.67725424859373684,
0.13524575140626319,-0.62194631307311832,
0.099735870926211639,-0.55225424859373684,
0.087500000000000022,-0.47500000000000003,
0.099735870926211612,-0.39774575140626317,
0.13524575140626313,-0.32805368692688175,
0.19055368692688168,-0.27274575140626311,
0.2602457514062631,-0.2372358709262116,
0*
4,1,3,
0.3375,0.725,
0.3375,0.22499999999999998,
-0.3375,0.22499999999999998,
-0.3375,0.725,
0*
4,1,3,
-0.5875,0.475,
-0.087500000000000022,0.475,
-0.087500000000000022,-0.475,
-0.5875,-0.475,
0*
4,1,3,
-0.3375,-0.725,
-0.3375,-0.22499999999999998,
0.3375,-0.22499999999999998,
0.3375,-0.725,
0*
4,1,3,
0.5875,-0.475,
0.087500000000000022,-0.475,
0.087500000000000022,0.475,
0.5875,0.475,
0*%
%ADD18COMP59,0.25X0.3375X0.475X-0.3375X0.475X-0.3375X-0.475X0.3375X-0.475X0*%
G04 #@! TD*
G04 #@! TA.AperFunction,ComponentPad*
%ADD19R,1.7X1.7*%
G04 #@! TD*
G04 #@! TA.AperFunction,ComponentPad*
%ADD20O,1.7X1.7*%
G04 #@! TD*
G04 #@! TA.AperFunction,ViaPad*
%ADD21C,0.8*%
G04 #@! TD*
G04 #@! TA.AperFunction,ViaPad*
%ADD22C,0.6*%
G04 #@! TD*
G04 #@! TA.AperFunction,Conductor*
%ADD23C,0.25*%
G04 #@! TD*
G04 #@! TA.AperFunction,Conductor*
%ADD24C,0.4*%
G04 #@! TD*
G04 #@! TA.AperFunction,Conductor*
%ADD25C,0.6*%
G04 #@! TD*
G04 #@! TA.AperFunction,Conductor*
%ADD26C,0.5*%
G04 #@! TD*
G04 #@! TA.AperFunction,Conductor*
%ADD27C,0.254*%
G04 #@! TD*
G04 APERTURE END LIST*
D10*
X0000000000Y0084000000D02*
X0003542500Y0046725000D03*
X0005617500Y0046725000D03*
D11*
X0003280000Y0073380000D03*
D12*
X0003280000Y0071380000D03*
X0003280000Y0069380000D03*
X0003280000Y0067380000D03*
X0003280000Y0065379999D03*
X0003280000Y0063379999D03*
X0003280000Y0061379999D03*
X0003280000Y0059379999D03*
X0003280000Y0057379999D03*
X0003280000Y0055379999D03*
D13*
X0007989500Y0060538573D03*
X0007989500Y0059888573D03*
X0007989500Y0059238573D03*
X0007989500Y0058588573D03*
X0007989500Y0057938573D03*
X0007989500Y0057288573D03*
X0007989500Y0056638573D03*
X0007989500Y0055988573D03*
X0007989500Y0055338573D03*
X0007989500Y0054688573D03*
X0007989500Y0054038573D03*
X0007989500Y0053388573D03*
X0015414500Y0053388573D03*
X0015414500Y0054038573D03*
X0015414500Y0054688573D03*
X0015414500Y0055338573D03*
X0015414500Y0055988573D03*
X0015414500Y0056638573D03*
X0015414500Y0057288573D03*
X0015414500Y0057938573D03*
X0015414500Y0058588573D03*
X0015414500Y0059238573D03*
X0015414500Y0059888573D03*
X0015414500Y0060538573D03*
D14*
X0013600000Y0080500000D03*
D15*
X0013600000Y0080500000D03*
D16*
X0008870000Y0072690000D03*
X0008870000Y0070150000D03*
X0008870000Y0067610000D03*
D10*
X0013458500Y0062812000D03*
X0015533500Y0062812000D03*
D17*
X0003080000Y0051250000D03*
X0003080000Y0049350000D03*
X0006080000Y0050300000D03*
D18*
X0009945500Y0062812000D03*
X0007870500Y0062812000D03*
D14*
X0013600000Y0047500000D03*
D15*
X0013600000Y0047500000D03*
D19*
X0003160000Y0078277000D03*
D20*
X0003160000Y0080817000D03*
D21*
X0009450000Y0064670000D03*
X0005100000Y0069070000D03*
X0006310000Y0071410000D03*
X0009910000Y0076030000D03*
X0011320000Y0068600000D03*
X0007220000Y0065200000D03*
X0011380000Y0071250000D03*
X0008250000Y0074320000D03*
D22*
X0005510000Y0052629999D03*
X0006266400Y0059814800D03*
X0010139978Y0057122400D03*
X0010127200Y0056208000D03*
X0010135439Y0055200239D03*
X0010127200Y0054277600D03*
X0013480000Y0058367000D03*
X0014287242Y0059213073D03*
X0014089600Y0061110200D03*
X0013175200Y0054948499D03*
X0014165800Y0055573000D03*
D23*
X0006277427Y0058588573D02*
X0007989500Y0058588573D01*
X0005352000Y0059513999D02*
X0006277427Y0058588573D01*
X0005352000Y0065307999D02*
X0005352000Y0059513999D01*
X0003280000Y0067380000D02*
X0005352000Y0065307999D01*
D24*
X0005905000Y0054050000D02*
X0002405000Y0054050000D01*
X0009241427Y0059888573D02*
X0009380000Y0059750000D01*
X0010368573Y0053388573D02*
X0007989500Y0053388573D01*
X0007989500Y0060538573D02*
X0009380000Y0060538573D01*
X0000838000Y0059706000D02*
X0001542000Y0059001999D01*
X0012080000Y0055650000D02*
X0012080000Y0055100000D01*
X0003280000Y0065379999D02*
X0002077999Y0065379999D01*
X0000730000Y0064032000D02*
X0000730000Y0059930000D01*
X0014128573Y0056648573D02*
X0014925500Y0056648573D01*
X0001542000Y0054913000D02*
X0001542000Y0057478000D01*
X0010406573Y0053388573D02*
X0013418000Y0056400000D01*
X0003280000Y0069380000D02*
X0001506000Y0069380000D01*
X0001640000Y0057379999D02*
X0001542000Y0057478000D01*
X0001506000Y0069380000D02*
X0000730000Y0068604000D01*
X0007989500Y0053388573D02*
X0006566427Y0053388573D01*
X0007989500Y0059888573D02*
X0009241427Y0059888573D01*
X0013880000Y0056400000D02*
X0014128573Y0056648573D01*
X0013418000Y0056400000D02*
X0013880000Y0056400000D01*
X0000730000Y0059930000D02*
X0000838000Y0059822000D01*
X0009380000Y0059540000D02*
X0011160000Y0057760000D01*
X0002077999Y0065379999D02*
X0000730000Y0064032000D01*
X0011160000Y0057760000D02*
X0011160000Y0056519999D01*
X0000838000Y0059822000D02*
X0000838000Y0059706000D01*
X0006566427Y0053388573D02*
X0005905000Y0054050000D01*
X0009380000Y0059750000D02*
X0009380000Y0059540000D01*
X0001542000Y0059001999D02*
X0001542000Y0057478000D01*
X0012080000Y0055100000D02*
X0010368573Y0053388573D01*
X0002405000Y0054050000D02*
X0001542000Y0054913000D01*
X0002180000Y0061379999D02*
X0000730000Y0059930000D01*
X0000730000Y0068604000D02*
X0000730000Y0064032000D01*
X0009380000Y0060538573D02*
X0009380000Y0059750000D01*
X0003280000Y0061379999D02*
X0002180000Y0061379999D01*
X0011160000Y0056519999D02*
X0011980000Y0055700000D01*
X0003280000Y0057379999D02*
X0001640000Y0057379999D01*
D25*
X0016340000Y0068490000D02*
X0014940000Y0069890000D01*
X0008080000Y0070150000D02*
X0006280000Y0068350000D01*
X0016340000Y0063640000D02*
X0016340000Y0068490000D01*
D24*
X0005805000Y0050025000D02*
X0005805000Y0047037500D01*
X0016318573Y0055988573D02*
X0016568573Y0055988573D01*
X0016830000Y0052550000D02*
X0015680000Y0051400000D01*
D25*
X0008621000Y0070150000D02*
X0008080000Y0070150000D01*
D26*
X0016610000Y0055989999D02*
X0016810000Y0056190000D01*
D24*
X0005805000Y0047037500D02*
X0005617500Y0046850000D01*
X0016830000Y0055727146D02*
X0016830000Y0052550000D01*
X0016568573Y0055988573D02*
X0016830000Y0055727146D01*
D26*
X0016780000Y0056220000D02*
X0016780000Y0061311499D01*
D25*
X0006280000Y0068350000D02*
X0006280000Y0064402500D01*
D26*
X0016780000Y0061311499D02*
X0015279500Y0062812000D01*
D25*
X0015766000Y0063066000D02*
X0016340000Y0063640000D01*
D24*
X0016830000Y0055727146D02*
X0016830000Y0056170000D01*
X0016830000Y0056170000D02*
X0016810000Y0056190000D01*
X0006080000Y0050300000D02*
X0005805000Y0050025000D01*
X0016568573Y0055988573D02*
X0015414500Y0055988573D01*
D26*
X0016810000Y0056190000D02*
X0016780000Y0056220000D01*
D25*
X0014940000Y0069890000D02*
X0009130000Y0069890000D01*
D24*
X0007180000Y0051400000D02*
X0006080000Y0050300000D01*
D25*
X0006280000Y0064402500D02*
X0007870500Y0062812000D01*
D24*
X0015680000Y0051400000D02*
X0007180000Y0051400000D01*
D25*
X0009130000Y0069890000D02*
X0008870000Y0070150000D01*
D23*
X0005910357Y0056638573D02*
X0004651784Y0055379999D01*
X0007989500Y0056638573D02*
X0005910357Y0056638573D01*
X0004651784Y0055379999D02*
X0003280000Y0055379999D01*
X0004740000Y0061920000D02*
X0004740000Y0058852000D01*
X0003280000Y0063379999D02*
X0004740000Y0061920000D01*
X0005653427Y0057938573D02*
X0007989500Y0057938573D01*
X0004740000Y0058852000D02*
X0005653427Y0057938573D01*
X0006842627Y0059238573D02*
X0007989500Y0059238573D01*
X0004960000Y0052629999D02*
X0003580000Y0051250000D01*
X0005510000Y0052629999D02*
X0004960000Y0052629999D01*
X0006266400Y0059814800D02*
X0006842627Y0059238573D01*
X0003580000Y0051250000D02*
X0003080000Y0051250000D01*
X0008949662Y0055988573D02*
X0007989500Y0055988573D01*
X0010083489Y0057122400D02*
X0008949662Y0055988573D01*
X0010139978Y0057122400D02*
X0010083489Y0057122400D01*
X0010127200Y0056208000D02*
X0009804807Y0056208000D01*
X0009804807Y0056208000D02*
X0008935380Y0055338573D01*
X0008935380Y0055338573D02*
X0007989500Y0055338573D01*
X0010135439Y0055200239D02*
X0009930239Y0055200239D01*
X0009418573Y0054688573D02*
X0007989500Y0054688573D01*
X0009930239Y0055200239D02*
X0009418573Y0054688573D01*
X0010127200Y0054277600D02*
X0009888173Y0054038573D01*
X0009888173Y0054038573D02*
X0007989500Y0054038573D01*
X0012880000Y0057700000D02*
X0014488066Y0057700000D01*
X0011690000Y0063810000D02*
X0011690000Y0058890000D01*
X0014726639Y0057938573D02*
X0015414500Y0057938573D01*
X0011690000Y0058890000D02*
X0012880000Y0057700000D01*
X0009860000Y0065640000D02*
X0011690000Y0063810000D01*
X0014488066Y0057700000D02*
X0014726639Y0057938573D01*
X0009860000Y0067289999D02*
X0009860000Y0065640000D01*
X0008870000Y0067610000D02*
X0009540000Y0067610000D01*
X0009540000Y0067610000D02*
X0009860000Y0067289999D01*
X0013701573Y0058588573D02*
X0015414500Y0058588573D01*
X0013480000Y0058367000D02*
X0013701573Y0058588573D01*
X0014287242Y0059213073D02*
X0014312742Y0059238573D01*
X0014312742Y0059238573D02*
X0015414500Y0059238573D01*
X0014089600Y0061110200D02*
X0014089600Y0060540400D01*
X0014352480Y0060262732D02*
X0014726639Y0059888573D01*
X0014089600Y0060540400D02*
X0014352480Y0060277519D01*
X0014726639Y0059888573D02*
X0015414500Y0059888573D01*
X0014352480Y0060277519D02*
X0014352480Y0060262732D01*
X0013581500Y0054948499D02*
X0013841427Y0054688573D01*
X0013175200Y0054948499D02*
X0013581500Y0054948499D01*
X0013841427Y0054688573D02*
X0015414500Y0054688573D01*
X0003280000Y0059379999D02*
X0005371427Y0057288573D01*
X0005371427Y0057288573D02*
X0007989500Y0057288573D01*
X0014400227Y0055338573D02*
X0015414500Y0055338573D01*
X0014165800Y0055573000D02*
X0014400227Y0055338573D01*
D27*
X0011353366Y0083169089D02*
X0011342956Y0083160293D01*
X0011323004Y0083141491D01*
X0011287146Y0083080215D01*
X0011290108Y0083009281D01*
X0011320323Y0082960697D01*
X0013510905Y0080770115D01*
X0013573217Y0080736089D01*
X0013644032Y0080741154D01*
X0013689095Y0080770115D01*
X0015880073Y0082961093D01*
X0015914099Y0083023405D01*
X0015909034Y0083094220D01*
X0015877713Y0083141583D01*
X0015866318Y0083152397D01*
X0015855937Y0083161232D01*
X0015587140Y0083366000D01*
X0016966000Y0083366000D01*
X0016966000Y0081399684D01*
X0016908698Y0081606310D01*
X0016904352Y0081619226D01*
X0016769865Y0081957177D01*
X0016764147Y0081969548D01*
X0016593948Y0082290997D01*
X0016586931Y0082302678D01*
X0016383012Y0082603866D01*
X0016374772Y0082614721D01*
X0016243419Y0082769608D01*
X0016184104Y0082808625D01*
X0016113112Y0082809380D01*
X0016058228Y0082777208D01*
X0013870115Y0080589095D01*
X0013836089Y0080526783D01*
X0013841154Y0080455968D01*
X0013870115Y0080410905D01*
X0016058180Y0078222840D01*
X0016120491Y0078188814D01*
X0016191306Y0078193879D01*
X0016242799Y0078229770D01*
X0016359941Y0078365958D01*
X0016368255Y0078376756D01*
X0016574273Y0078676513D01*
X0016581373Y0078688145D01*
X0016753812Y0079008398D01*
X0016759615Y0079020729D01*
X0016896458Y0079357732D01*
X0016900894Y0079370617D01*
X0016966000Y0079599174D01*
X0016966000Y0069185899D01*
X0016939221Y0069212866D01*
X0016936644Y0069214938D01*
X0015607329Y0070544253D01*
X0015544252Y0070608665D01*
X0015522484Y0070626418D01*
X0015486050Y0070649898D01*
X0015452165Y0070676948D01*
X0015428395Y0070691917D01*
X0015398201Y0070706513D01*
X0015370018Y0070724676D01*
X0015344858Y0070737166D01*
X0015304122Y0070751993D01*
X0015265089Y0070770862D01*
X0015238595Y0070780192D01*
X0015205917Y0070787736D01*
X0015174410Y0070799204D01*
X0015147106Y0070805810D01*
X0015104091Y0070811244D01*
X0015061860Y0070820994D01*
X0015033955Y0070824223D01*
X0014993385Y0070824365D01*
X0014991231Y0070824500D01*
X0014954581Y0070824500D01*
X0014852570Y0070824856D01*
X0014849293Y0070824500D01*
X0010096343Y0070824500D01*
X0010088683Y0070840926D01*
X0010077701Y0070859947D01*
X0009950190Y0071042052D01*
X0009936072Y0071058876D01*
X0009778876Y0071216072D01*
X0009762052Y0071230190D01*
X0009579948Y0071357701D01*
X0009560927Y0071368683D01*
X0009450285Y0071420276D01*
X0009560676Y0071471752D01*
X0009579696Y0071482734D01*
X0009642875Y0071526972D01*
X0009687204Y0071582429D01*
X0009694513Y0071653048D01*
X0009659700Y0071719280D01*
X0008959095Y0072419885D01*
X0008896783Y0072453911D01*
X0008825968Y0072448846D01*
X0008780905Y0072419885D01*
X0008080299Y0071719280D01*
X0008046274Y0071656968D01*
X0008051339Y0071586153D01*
X0008097125Y0071526972D01*
X0008160304Y0071482734D01*
X0008179323Y0071471752D01*
X0008289714Y0071420276D01*
X0008179074Y0071368683D01*
X0008160053Y0071357701D01*
X0007977948Y0071230190D01*
X0007961124Y0071216072D01*
X0007803928Y0071058876D01*
X0007790812Y0071043247D01*
X0007767239Y0071035314D01*
X0007727944Y0071016991D01*
X0007687011Y0071002736D01*
X0007661679Y0070990600D01*
X0007633237Y0070972828D01*
X0007602848Y0070958657D01*
X0007578872Y0070944022D01*
X0007544618Y0070917452D01*
X0007507855Y0070894480D01*
X0007485839Y0070877031D01*
X0007457030Y0070848422D01*
X0007455435Y0070847016D01*
X0007429898Y0070821479D01*
X0007357134Y0070749221D01*
X0007355058Y0070746639D01*
X0005625748Y0069017330D01*
X0005561335Y0068954252D01*
X0005543582Y0068932484D01*
X0005520102Y0068896050D01*
X0005493052Y0068862165D01*
X0005478083Y0068838395D01*
X0005463487Y0068808201D01*
X0005445324Y0068780018D01*
X0005432834Y0068754858D01*
X0005418007Y0068714122D01*
X0005399138Y0068675089D01*
X0005389808Y0068648595D01*
X0005382264Y0068615917D01*
X0005370796Y0068584410D01*
X0005364190Y0068557106D01*
X0005358756Y0068514091D01*
X0005349006Y0068471859D01*
X0005345777Y0068443955D01*
X0005345635Y0068403385D01*
X0005345500Y0068401231D01*
X0005345500Y0068364581D01*
X0005345144Y0068262570D01*
X0005345500Y0068259293D01*
X0005345500Y0066388594D01*
X0004730956Y0067003138D01*
X0004755889Y0067074938D01*
X0004761557Y0067098191D01*
X0004791909Y0067307524D01*
X0004793078Y0067331430D01*
X0004783298Y0067542725D01*
X0004779926Y0067566420D01*
X0004730368Y0067772055D01*
X0004722576Y0067794685D01*
X0004635027Y0067987238D01*
X0004623096Y0068007987D01*
X0004500716Y0068180511D01*
X0004485077Y0068198629D01*
X0004332281Y0068344899D01*
X0004313498Y0068359733D01*
X0004280742Y0068380884D01*
X0004400407Y0068474882D01*
X0004417739Y0068491387D01*
X0004556308Y0068651073D01*
X0004570207Y0068670559D01*
X0004676080Y0068853568D01*
X0004686044Y0068875330D01*
X0004755401Y0069075057D01*
X0004761070Y0069098315D01*
X0004762463Y0069107925D01*
X0004752440Y0069178210D01*
X0004706009Y0069231919D01*
X0004637766Y0069252000D01*
X0001926483Y0069252000D01*
X0001858362Y0069231998D01*
X0001811869Y0069178342D01*
X0001801765Y0069108068D01*
X0001803990Y0069096479D01*
X0001830107Y0068988109D01*
X0001837899Y0068965479D01*
X0001925408Y0068773012D01*
X0001937339Y0068752263D01*
X0002059664Y0068579817D01*
X0002075303Y0068561699D01*
X0002228030Y0068415495D01*
X0002246813Y0068400661D01*
X0002279230Y0068379730D01*
X0002159247Y0068285482D01*
X0002141915Y0068268976D01*
X0002003283Y0068109217D01*
X0001989384Y0068089732D01*
X0001883463Y0067906641D01*
X0001873499Y0067884879D01*
X0001804111Y0067685062D01*
X0001798443Y0067661809D01*
X0001768091Y0067452476D01*
X0001766922Y0067428570D01*
X0001776702Y0067217275D01*
X0001780074Y0067193580D01*
X0001829632Y0066987945D01*
X0001837424Y0066965315D01*
X0001924973Y0066772762D01*
X0001936904Y0066752013D01*
X0002059284Y0066579488D01*
X0002074923Y0066561371D01*
X0002227719Y0066415100D01*
X0002246502Y0066400267D01*
X0002279258Y0066379115D01*
X0002159593Y0066285118D01*
X0002142261Y0066268613D01*
X0002003692Y0066108926D01*
X0001989793Y0066089440D01*
X0001883920Y0065906431D01*
X0001873956Y0065884670D01*
X0001804599Y0065684943D01*
X0001798930Y0065661685D01*
X0001797537Y0065652075D01*
X0001807560Y0065581790D01*
X0001853991Y0065528081D01*
X0001922234Y0065507999D01*
X0003408000Y0065507999D01*
X0003408000Y0065251999D01*
X0001926483Y0065251999D01*
X0001858362Y0065231998D01*
X0001811869Y0065178342D01*
X0001801765Y0065108068D01*
X0001803990Y0065096479D01*
X0001830107Y0064988109D01*
X0001837899Y0064965479D01*
X0001925408Y0064773011D01*
X0001937339Y0064752263D01*
X0002059664Y0064579816D01*
X0002075303Y0064561699D01*
X0002228030Y0064415494D01*
X0002246813Y0064400661D01*
X0002279230Y0064379729D01*
X0002159247Y0064285482D01*
X0002141915Y0064268975D01*
X0002003283Y0064109217D01*
X0001989384Y0064089732D01*
X0001883463Y0063906641D01*
X0001873499Y0063884879D01*
X0001804111Y0063685062D01*
X0001798443Y0063661809D01*
X0001768091Y0063452476D01*
X0001766922Y0063428570D01*
X0001776702Y0063217275D01*
X0001780074Y0063193580D01*
X0001829632Y0062987945D01*
X0001837424Y0062965315D01*
X0001924973Y0062772762D01*
X0001936904Y0062752013D01*
X0002059284Y0062579488D01*
X0002074923Y0062561371D01*
X0002227719Y0062415101D01*
X0002246502Y0062400267D01*
X0002279258Y0062379115D01*
X0002159593Y0062285118D01*
X0002142261Y0062268613D01*
X0002003692Y0062108927D01*
X0001989793Y0062089441D01*
X0001883920Y0061906431D01*
X0001873956Y0061884670D01*
X0001804599Y0061684943D01*
X0001798930Y0061661685D01*
X0001797537Y0061652075D01*
X0001807560Y0061581790D01*
X0001853991Y0061528081D01*
X0001922234Y0061507999D01*
X0003408000Y0061507999D01*
X0003408000Y0061251999D01*
X0001926483Y0061251999D01*
X0001858362Y0061231998D01*
X0001811869Y0061178342D01*
X0001801765Y0061108068D01*
X0001803990Y0061096479D01*
X0001830107Y0060988109D01*
X0001837899Y0060965479D01*
X0001925408Y0060773012D01*
X0001937339Y0060752263D01*
X0002059664Y0060579817D01*
X0002075303Y0060561699D01*
X0002228030Y0060415495D01*
X0002246813Y0060400661D01*
X0002279230Y0060379729D01*
X0002159247Y0060285482D01*
X0002141915Y0060268975D01*
X0002003283Y0060109217D01*
X0001989384Y0060089732D01*
X0001883463Y0059906641D01*
X0001873499Y0059884879D01*
X0001804111Y0059685062D01*
X0001798443Y0059661809D01*
X0001768091Y0059452476D01*
X0001766922Y0059428570D01*
X0001776702Y0059217275D01*
X0001780074Y0059193580D01*
X0001829632Y0058987945D01*
X0001837424Y0058965315D01*
X0001924973Y0058772762D01*
X0001936904Y0058752013D01*
X0002059284Y0058579488D01*
X0002074923Y0058561371D01*
X0002227719Y0058415101D01*
X0002246502Y0058400267D01*
X0002279258Y0058379115D01*
X0002159593Y0058285118D01*
X0002142261Y0058268613D01*
X0002003692Y0058108927D01*
X0001989793Y0058089441D01*
X0001883920Y0057906431D01*
X0001873956Y0057884670D01*
X0001804599Y0057684943D01*
X0001798930Y0057661685D01*
X0001797537Y0057652075D01*
X0001807560Y0057581790D01*
X0001853991Y0057528081D01*
X0001922234Y0057507999D01*
X0003408000Y0057507999D01*
X0003408000Y0057251999D01*
X0001926483Y0057251999D01*
X0001858362Y0057231998D01*
X0001811869Y0057178342D01*
X0001801765Y0057108068D01*
X0001803990Y0057096479D01*
X0001830107Y0056988109D01*
X0001837899Y0056965479D01*
X0001925408Y0056773012D01*
X0001937339Y0056752263D01*
X0002059664Y0056579817D01*
X0002075303Y0056561699D01*
X0002228030Y0056415495D01*
X0002246813Y0056400661D01*
X0002279230Y0056379729D01*
X0002159247Y0056285482D01*
X0002141915Y0056268975D01*
X0002003283Y0056109217D01*
X0001989384Y0056089732D01*
X0001883463Y0055906641D01*
X0001873499Y0055884879D01*
X0001804111Y0055685062D01*
X0001798443Y0055661809D01*
X0001768091Y0055452476D01*
X0001766922Y0055428570D01*
X0001776702Y0055217275D01*
X0001780074Y0055193580D01*
X0001829632Y0054987945D01*
X0001837424Y0054965315D01*
X0001924973Y0054772762D01*
X0001936904Y0054752013D01*
X0002059284Y0054579488D01*
X0002074923Y0054561371D01*
X0002227719Y0054415101D01*
X0002246502Y0054400267D01*
X0002424200Y0054285528D01*
X0002445450Y0054274514D01*
X0002641639Y0054195448D01*
X0002664587Y0054188649D01*
X0002872187Y0054148108D01*
X0002890183Y0054145922D01*
X0002895745Y0054145650D01*
X0002901899Y0054145500D01*
X0003607846Y0054145500D01*
X0003619813Y0054146070D01*
X0003777533Y0054161118D01*
X0003801035Y0054165643D01*
X0004004003Y0054225187D01*
X0004026226Y0054234076D01*
X0004214272Y0054330926D01*
X0004234413Y0054343856D01*
X0004400753Y0054474518D01*
X0004418085Y0054491023D01*
X0004530439Y0054620500D01*
X0004573017Y0054620500D01*
X0004595652Y0054618359D01*
X0004663729Y0054620500D01*
X0004691640Y0054620500D01*
X0004707430Y0054621493D01*
X0004711441Y0054622000D01*
X0004755632Y0054623389D01*
X0004786825Y0054628330D01*
X0004806276Y0054633981D01*
X0004826374Y0054636520D01*
X0004856965Y0054644374D01*
X0004898079Y0054660652D01*
X0004940529Y0054672985D01*
X0004969517Y0054685529D01*
X0004986953Y0054695841D01*
X0005005783Y0054703296D01*
X0005033461Y0054718511D01*
X0005069231Y0054744499D01*
X0005107286Y0054767005D01*
X0005132241Y0054786363D01*
X0005146562Y0054800684D01*
X0005162952Y0054812591D01*
X0005185976Y0054834212D01*
X0005214167Y0054868289D01*
X0006224952Y0055879073D01*
X0006617501Y0055879073D01*
X0006617501Y0055848687D01*
X0006618579Y0055832244D01*
X0006634240Y0055713278D01*
X0006642753Y0055681505D01*
X0006650181Y0055663573D01*
X0006642753Y0055645641D01*
X0006634240Y0055613869D01*
X0006618578Y0055494904D01*
X0006617500Y0055478458D01*
X0006617501Y0055198689D01*
X0006618579Y0055182244D01*
X0006634240Y0055063278D01*
X0006642753Y0055031504D01*
X0006650181Y0055013573D01*
X0006642753Y0054995641D01*
X0006634240Y0054963869D01*
X0006618578Y0054844904D01*
X0006617500Y0054828458D01*
X0006617501Y0054548688D01*
X0006618579Y0054532244D01*
X0006634240Y0054413278D01*
X0006642753Y0054381505D01*
X0006650181Y0054363573D01*
X0006642753Y0054345641D01*
X0006634240Y0054313869D01*
X0006618578Y0054194904D01*
X0006617500Y0054178458D01*
X0006617501Y0053898689D01*
X0006618579Y0053882244D01*
X0006634240Y0053763278D01*
X0006642753Y0053731505D01*
X0006650452Y0053712919D01*
X0006643241Y0053695510D01*
X0006634728Y0053663740D01*
X0006626997Y0053605019D01*
X0006637936Y0053534870D01*
X0006685064Y0053481772D01*
X0006751919Y0053462573D01*
X0006791431Y0053462573D01*
X0006818051Y0053427882D01*
X0006841309Y0053404624D01*
X0006958665Y0053314572D01*
X0006751920Y0053314572D01*
X0006683799Y0053294571D01*
X0006637306Y0053240915D01*
X0006626998Y0053172128D01*
X0006634728Y0053113408D01*
X0006643241Y0053081635D01*
X0006704504Y0052933732D01*
X0006720951Y0052905246D01*
X0006818408Y0052778239D01*
X0006841666Y0052754981D01*
X0006968673Y0052657523D01*
X0006997159Y0052641076D01*
X0007145062Y0052579814D01*
X0007176834Y0052571301D01*
X0007295707Y0052555651D01*
X0007312153Y0052554573D01*
X0007789500Y0052554573D01*
X0007857621Y0052574574D01*
X0007904114Y0052628231D01*
X0007915500Y0052680572D01*
X0007915500Y0053188573D01*
X0007910949Y0053204074D01*
X0008063499Y0053204074D01*
X0008063499Y0052680574D01*
X0008083501Y0052612453D01*
X0008137157Y0052565960D01*
X0008189500Y0052554574D01*
X0008666846Y0052554574D01*
X0008683291Y0052555651D01*
X0008802165Y0052571301D01*
X0008833938Y0052579814D01*
X0008981841Y0052641076D01*
X0009010327Y0052657523D01*
X0009137334Y0052754981D01*
X0009160592Y0052778239D01*
X0009258049Y0052905246D01*
X0009274496Y0052933732D01*
X0009335759Y0053081635D01*
X0009344272Y0053113406D01*
X0009359922Y0053232280D01*
X0009361000Y0053248727D01*
X0009361000Y0053279073D01*
X0009809406Y0053279073D01*
X0009832041Y0053276933D01*
X0009900118Y0053279073D01*
X0009928029Y0053279073D01*
X0009943819Y0053280066D01*
X0009947830Y0053280573D01*
X0009992021Y0053281962D01*
X0010023214Y0053286902D01*
X0010042665Y0053292553D01*
X0010062763Y0053295093D01*
X0010093354Y0053302947D01*
X0010134468Y0053319225D01*
X0010176918Y0053331558D01*
X0010205906Y0053344102D01*
X0010210409Y0053346765D01*
X0010302220Y0053355121D01*
X0010329736Y0053360769D01*
X0010502244Y0053416820D01*
X0010527825Y0053428424D01*
X0010683629Y0053521302D01*
X0010706004Y0053538285D01*
X0010837358Y0053663371D01*
X0010855414Y0053684891D01*
X0010955791Y0053835971D01*
X0010968631Y0053860954D01*
X0011033043Y0054030518D01*
X0011040029Y0054057726D01*
X0011065273Y0054237347D01*
X0011066487Y0054253125D01*
X0011066804Y0054275842D01*
X0011066031Y0054291645D01*
X0011045812Y0054471900D01*
X0011039588Y0054499292D01*
X0010979936Y0054670589D01*
X0010967799Y0054695921D01*
X0010945786Y0054731150D01*
X0010964030Y0054758610D01*
X0010976870Y0054783592D01*
X0011041282Y0054953157D01*
X0011048268Y0054980365D01*
X0011073512Y0055159986D01*
X0011074726Y0055175764D01*
X0011075043Y0055198481D01*
X0011074270Y0055214284D01*
X0011054051Y0055394539D01*
X0011047827Y0055421931D01*
X0010988175Y0055593228D01*
X0010976038Y0055618560D01*
X0010918628Y0055710436D01*
X0010955791Y0055766371D01*
X0010968631Y0055791354D01*
X0011033043Y0055960918D01*
X0011040029Y0055988126D01*
X0011065273Y0056167747D01*
X0011066487Y0056183525D01*
X0011066804Y0056206242D01*
X0011066031Y0056222045D01*
X0011045812Y0056402300D01*
X0011039588Y0056429692D01*
X0010979936Y0056600989D01*
X0010967799Y0056626321D01*
X0010950639Y0056653784D01*
X0010968569Y0056680771D01*
X0010981409Y0056705754D01*
X0011045821Y0056875318D01*
X0011052807Y0056902526D01*
X0011078051Y0057082147D01*
X0011079265Y0057097925D01*
X0011079582Y0057120642D01*
X0011078809Y0057136444D01*
X0011058590Y0057316700D01*
X0011052366Y0057344092D01*
X0010992714Y0057515389D01*
X0010980577Y0057540721D01*
X0010884458Y0057694545D01*
X0010867010Y0057716560D01*
X0010739199Y0057845265D01*
X0010717307Y0057862867D01*
X0010564158Y0057960058D01*
X0010538911Y0057972372D01*
X0010368035Y0058033218D01*
X0010340687Y0058039632D01*
X0010160577Y0058061110D01*
X0010132487Y0058061306D01*
X0009952095Y0058042345D01*
X0009924661Y0058036314D01*
X0009752952Y0057977860D01*
X0009727535Y0057965899D01*
X0009573044Y0057870855D01*
X0009550908Y0057853561D01*
X0009421313Y0057726652D01*
X0009403560Y0057704884D01*
X0009335038Y0057598559D01*
X0009328819Y0057613573D01*
X0009336247Y0057631505D01*
X0009344760Y0057663277D01*
X0009360422Y0057782242D01*
X0009361500Y0057798688D01*
X0009361499Y0058078457D01*
X0009360421Y0058094902D01*
X0009344760Y0058213868D01*
X0009336247Y0058245641D01*
X0009328819Y0058263573D01*
X0009336247Y0058281504D01*
X0009344760Y0058313277D01*
X0009360422Y0058432242D01*
X0009361500Y0058448688D01*
X0009361499Y0058728457D01*
X0009360421Y0058744901D01*
X0009344760Y0058863868D01*
X0009336247Y0058895641D01*
X0009328819Y0058913573D01*
X0009336247Y0058931505D01*
X0009344760Y0058963277D01*
X0009360422Y0059082242D01*
X0009361500Y0059098687D01*
X0009361499Y0059378457D01*
X0009360421Y0059394902D01*
X0009344760Y0059513868D01*
X0009336247Y0059545641D01*
X0009328548Y0059564227D01*
X0009335759Y0059581635D01*
X0009344272Y0059613406D01*
X0009352003Y0059672126D01*
X0009341064Y0059742275D01*
X0009293936Y0059795373D01*
X0009227081Y0059814572D01*
X0009187569Y0059814572D01*
X0009160949Y0059849264D01*
X0009137691Y0059872522D01*
X0009020335Y0059962573D01*
X0009227080Y0059962573D01*
X0009295201Y0059982575D01*
X0009341694Y0060036231D01*
X0009352002Y0060105018D01*
X0009344272Y0060163737D01*
X0009335759Y0060195510D01*
X0009328277Y0060213573D01*
X0009335759Y0060231635D01*
X0009344272Y0060263406D01*
X0009352003Y0060322126D01*
X0009341064Y0060392275D01*
X0009293936Y0060445374D01*
X0009227081Y0060464573D01*
X0008189500Y0060464573D01*
X0008121378Y0060444571D01*
X0008074885Y0060390915D01*
X0008063499Y0060338573D01*
X0008063499Y0060088573D01*
X0008068051Y0060073071D01*
X0007915500Y0060073071D01*
X0007915500Y0060738573D01*
X0008063499Y0060738573D01*
X0008083501Y0060670452D01*
X0008137157Y0060623959D01*
X0008189500Y0060612573D01*
X0009227080Y0060612573D01*
X0009295201Y0060632575D01*
X0009341694Y0060686231D01*
X0009352002Y0060755018D01*
X0009344272Y0060813738D01*
X0009335759Y0060845511D01*
X0009274496Y0060993414D01*
X0009258049Y0061021900D01*
X0009160592Y0061148907D01*
X0009137334Y0061172165D01*
X0009010327Y0061269622D01*
X0008981841Y0061286069D01*
X0008833938Y0061347332D01*
X0008802166Y0061355845D01*
X0008683293Y0061371494D01*
X0008666847Y0061372573D01*
X0008189500Y0061372573D01*
X0008121378Y0061352571D01*
X0008074885Y0061298915D01*
X0008063499Y0061246573D01*
X0008063499Y0060738573D01*
X0007915500Y0060738573D01*
X0007915500Y0061246572D01*
X0007895498Y0061314693D01*
X0007841842Y0061361186D01*
X0007789500Y0061372572D01*
X0007312154Y0061372572D01*
X0007295709Y0061371494D01*
X0007176835Y0061355845D01*
X0007145062Y0061347332D01*
X0006997159Y0061286069D01*
X0006968673Y0061269622D01*
X0006841666Y0061172165D01*
X0006818408Y0061148907D01*
X0006720951Y0061021900D01*
X0006704504Y0060993414D01*
X0006643241Y0060845511D01*
X0006634728Y0060813739D01*
X0006619078Y0060694866D01*
X0006618205Y0060681553D01*
X0006494457Y0060725618D01*
X0006467109Y0060732033D01*
X0006286999Y0060753510D01*
X0006258909Y0060753706D01*
X0006111500Y0060738213D01*
X0006111500Y0063249417D01*
X0006648500Y0062712418D01*
X0006648500Y0062286600D01*
X0006649173Y0062273596D01*
X0006660147Y0062167829D01*
X0006665950Y0062140958D01*
X0006721926Y0061973178D01*
X0006734306Y0061946751D01*
X0006827378Y0061796349D01*
X0006845504Y0061773478D01*
X0006970679Y0061648522D01*
X0006993581Y0061630435D01*
X0007144146Y0061537625D01*
X0007170595Y0061525292D01*
X0007338472Y0061469610D01*
X0007365296Y0061463859D01*
X0007469757Y0061453156D01*
X0007482600Y0061452500D01*
X0008258400Y0061452500D01*
X0008271404Y0061453173D01*
X0008377170Y0061464147D01*
X0008404042Y0061469950D01*
X0008571822Y0061525926D01*
X0008598249Y0061538306D01*
X0008748651Y0061631378D01*
X0008771521Y0061649504D01*
X0008896478Y0061774679D01*
X0008908316Y0061789668D01*
X0008920899Y0061773792D01*
X0009045991Y0061648917D01*
X0009068893Y0061630830D01*
X0009219359Y0061538082D01*
X0009245807Y0061525749D01*
X0009413573Y0061470103D01*
X0009440399Y0061464352D01*
X0009544795Y0061453655D01*
X0009557637Y0061453000D01*
X0009691500Y0061453000D01*
X0009759621Y0061473002D01*
X0009806114Y0061526658D01*
X0009817500Y0061579000D01*
X0009817500Y0064044999D01*
X0009797498Y0064113119D01*
X0009743842Y0064159613D01*
X0009691500Y0064170998D01*
X0009557638Y0064170998D01*
X0009544635Y0064170326D01*
X0009438934Y0064159358D01*
X0009412061Y0064153555D01*
X0009244392Y0064097618D01*
X0009217965Y0064085238D01*
X0009067662Y0063992227D01*
X0009044792Y0063974101D01*
X0008919917Y0063849008D01*
X0008908326Y0063834333D01*
X0008895496Y0063850521D01*
X0008770321Y0063975477D01*
X0008747419Y0063993565D01*
X0008596854Y0064086375D01*
X0008570405Y0064098708D01*
X0008402528Y0064154390D01*
X0008375704Y0064160140D01*
X0008271243Y0064170844D01*
X0008258400Y0064171500D01*
X0007832582Y0064171500D01*
X0007214500Y0064789581D01*
X0007214500Y0067962918D01*
X0008181682Y0068930100D01*
X0008289123Y0068880000D01*
X0008179074Y0068828683D01*
X0008160053Y0068817701D01*
X0007977948Y0068690190D01*
X0007961124Y0068676072D01*
X0007803928Y0068518876D01*
X0007789810Y0068502052D01*
X0007662299Y0068319947D01*
X0007651317Y0068300926D01*
X0007557365Y0068099446D01*
X0007549853Y0068078807D01*
X0007492315Y0067864074D01*
X0007488501Y0067842444D01*
X0007469126Y0067620981D01*
X0007469126Y0067599019D01*
X0007488501Y0067377556D01*
X0007492315Y0067355926D01*
X0007549853Y0067141193D01*
X0007557365Y0067120554D01*
X0007651317Y0066919073D01*
X0007662299Y0066900053D01*
X0007789810Y0066717948D01*
X0007803928Y0066701123D01*
X0007961124Y0066543927D01*
X0007977948Y0066529810D01*
X0008160052Y0066402299D01*
X0008179073Y0066391317D01*
X0008380554Y0066297365D01*
X0008401193Y0066289852D01*
X0008615926Y0066232315D01*
X0008637556Y0066228500D01*
X0008859019Y0066209126D01*
X0008880981Y0066209126D01*
X0009100500Y0066228331D01*
X0009100500Y0065718767D01*
X0009098360Y0065696132D01*
X0009100500Y0065628055D01*
X0009100500Y0065600144D01*
X0009101493Y0065584354D01*
X0009102000Y0065580343D01*
X0009103389Y0065536152D01*
X0009108330Y0065504959D01*
X0009113981Y0065485507D01*
X0009116520Y0065465409D01*
X0009124374Y0065434819D01*
X0009140652Y0065393705D01*
X0009152985Y0065351254D01*
X0009165529Y0065322267D01*
X0009175841Y0065304831D01*
X0009183296Y0065286001D01*
X0009198511Y0065258323D01*
X0009224499Y0065222553D01*
X0009247005Y0065184498D01*
X0009266363Y0065159543D01*
X0009280684Y0065145222D01*
X0009292592Y0065128832D01*
X0009314212Y0065105807D01*
X0009348289Y0065077617D01*
X0010254906Y0064170999D01*
X0010199500Y0064170999D01*
X0010131379Y0064150998D01*
X0010084886Y0064097342D01*
X0010073500Y0064045000D01*
X0010073500Y0061579001D01*
X0010093502Y0061510880D01*
X0010147158Y0061464387D01*
X0010199500Y0061453001D01*
X0010333362Y0061453001D01*
X0010346365Y0061453674D01*
X0010452066Y0061464641D01*
X0010478939Y0061470444D01*
X0010646608Y0061526382D01*
X0010673035Y0061538762D01*
X0010823338Y0061631772D01*
X0010846208Y0061649899D01*
X0010930500Y0061734337D01*
X0010930500Y0058968767D01*
X0010928360Y0058946132D01*
X0010930500Y0058878055D01*
X0010930500Y0058850144D01*
X0010931493Y0058834354D01*
X0010932000Y0058830343D01*
X0010933389Y0058786152D01*
X0010938330Y0058754959D01*
X0010943981Y0058735507D01*
X0010946520Y0058715410D01*
X0010954374Y0058684819D01*
X0010970652Y0058643705D01*
X0010982985Y0058601254D01*
X0010995529Y0058572267D01*
X0011005841Y0058554831D01*
X0011013296Y0058536001D01*
X0011028511Y0058508323D01*
X0011054499Y0058472553D01*
X0011077005Y0058434498D01*
X0011096363Y0058409543D01*
X0011110684Y0058395222D01*
X0011122592Y0058378832D01*
X0011144212Y0058355807D01*
X0011178289Y0058327617D01*
X0012287248Y0057218658D01*
X0012301747Y0057201132D01*
X0012351414Y0057154492D01*
X0012371135Y0057134771D01*
X0012383007Y0057124303D01*
X0012386194Y0057121832D01*
X0012418426Y0057091564D01*
X0012443979Y0057072998D01*
X0012461730Y0057063240D01*
X0012477732Y0057050827D01*
X0012504917Y0057034751D01*
X0012545486Y0057017195D01*
X0012584240Y0056995890D01*
X0012613606Y0056984263D01*
X0012633226Y0056979226D01*
X0012651813Y0056971182D01*
X0012682143Y0056962370D01*
X0012725811Y0056955453D01*
X0012768636Y0056944458D01*
X0012799970Y0056940500D01*
X0012820224Y0056940500D01*
X0012840232Y0056937331D01*
X0012871801Y0056936339D01*
X0012915819Y0056940500D01*
X0014066898Y0056940500D01*
X0014059728Y0056913740D01*
X0014051997Y0056855019D01*
X0014062936Y0056784870D01*
X0014110064Y0056731772D01*
X0014176919Y0056712573D01*
X0014216431Y0056712573D01*
X0014243051Y0056677882D01*
X0014266309Y0056654624D01*
X0014287226Y0056638573D01*
X0014266308Y0056622522D01*
X0014243051Y0056599264D01*
X0014216431Y0056564572D01*
X0014176920Y0056564572D01*
X0014108799Y0056544571D01*
X0014072698Y0056502908D01*
X0013977917Y0056492946D01*
X0013950483Y0056486914D01*
X0013778774Y0056428460D01*
X0013753357Y0056416499D01*
X0013598866Y0056321455D01*
X0013576730Y0056304161D01*
X0013447135Y0056177251D01*
X0013429382Y0056155484D01*
X0013331124Y0056003017D01*
X0013318634Y0055977857D01*
X0013281904Y0055876943D01*
X0013195799Y0055887209D01*
X0013167709Y0055887406D01*
X0012987317Y0055868446D01*
X0012959883Y0055862414D01*
X0012788174Y0055803960D01*
X0012762757Y0055791999D01*
X0012608266Y0055696955D01*
X0012586130Y0055679660D01*
X0012456535Y0055552752D01*
X0012438782Y0055530984D01*
X0012340524Y0055378517D01*
X0012328034Y0055353357D01*
X0012265996Y0055182910D01*
X0012259391Y0055155607D01*
X0012236657Y0054975652D01*
X0012236264Y0054947565D01*
X0012253964Y0054767044D01*
X0012259805Y0054739568D01*
X0012317060Y0054567454D01*
X0012328842Y0054541956D01*
X0012422804Y0054386804D01*
X0012439943Y0054364549D01*
X0012565945Y0054234071D01*
X0012587589Y0054216166D01*
X0012739366Y0054116845D01*
X0012764439Y0054104181D01*
X0012934448Y0054040955D01*
X0012961703Y0054034159D01*
X0013141496Y0054010169D01*
X0013169581Y0054009581D01*
X0013350220Y0054026021D01*
X0013377736Y0054031669D01*
X0013428051Y0054048017D01*
X0013439159Y0054039401D01*
X0013466344Y0054023324D01*
X0013506913Y0054005768D01*
X0013545667Y0053984463D01*
X0013575033Y0053972836D01*
X0013594653Y0053967799D01*
X0013613240Y0053959755D01*
X0013643570Y0053950942D01*
X0013687238Y0053944026D01*
X0013730063Y0053933031D01*
X0013761397Y0053929073D01*
X0013781651Y0053929073D01*
X0013801659Y0053925904D01*
X0013833228Y0053924912D01*
X0013877246Y0053929073D01*
X0014042501Y0053929073D01*
X0014042501Y0053898688D01*
X0014043579Y0053882244D01*
X0014059240Y0053763278D01*
X0014067753Y0053731505D01*
X0014075181Y0053713573D01*
X0014067753Y0053695640D01*
X0014059240Y0053663869D01*
X0014043578Y0053544904D01*
X0014042500Y0053528458D01*
X0014042501Y0053248689D01*
X0014043579Y0053232244D01*
X0014059240Y0053113278D01*
X0014067753Y0053081505D01*
X0014129067Y0052933479D01*
X0014145514Y0052904992D01*
X0014243051Y0052777881D01*
X0014266309Y0052754624D01*
X0014393421Y0052657087D01*
X0014421907Y0052640640D01*
X0014569932Y0052579325D01*
X0014601704Y0052570813D01*
X0014720669Y0052555150D01*
X0014737115Y0052554073D01*
X0015653912Y0052554074D01*
X0015334339Y0052234500D01*
X0007208922Y0052234500D01*
X0007151218Y0052238434D01*
X0007120985Y0052236850D01*
X0007058028Y0052225862D01*
X0006994621Y0052218188D01*
X0006965220Y0052210968D01*
X0006958811Y0052208546D01*
X0006952054Y0052207367D01*
X0006923072Y0052198617D01*
X0006864560Y0052172933D01*
X0006804806Y0052150352D01*
X0006777976Y0052136326D01*
X0006772329Y0052132445D01*
X0006766051Y0052129689D01*
X0006739990Y0052114277D01*
X0006689303Y0052075382D01*
X0006636653Y0052039198D01*
X0006613943Y0052019176D01*
X0006572489Y0051972649D01*
X0005934340Y0051334500D01*
X0005081866Y0051334500D01*
X0005068258Y0051333763D01*
X0005006076Y0051327008D01*
X0004975454Y0051319727D01*
X0004839065Y0051268597D01*
X0004807730Y0051251441D01*
X0004691174Y0051164087D01*
X0004665913Y0051138826D01*
X0004664500Y0051136941D01*
X0004664500Y0051260406D01*
X0005165232Y0051761138D01*
X0005269248Y0051722455D01*
X0005296503Y0051715659D01*
X0005476296Y0051691669D01*
X0005504381Y0051691081D01*
X0005685020Y0051707521D01*
X0005712536Y0051713169D01*
X0005885044Y0051769220D01*
X0005910625Y0051780824D01*
X0006066429Y0051873702D01*
X0006088804Y0051890685D01*
X0006220158Y0052015772D01*
X0006238214Y0052037290D01*
X0006338591Y0052188371D01*
X0006351431Y0052213353D01*
X0006415843Y0052382918D01*
X0006422829Y0052410126D01*
X0006448073Y0052589747D01*
X0006449287Y0052605525D01*
X0006449604Y0052628242D01*
X0006448831Y0052644045D01*
X0006428612Y0052824300D01*
X0006422388Y0052851692D01*
X0006362736Y0053022988D01*
X0006350599Y0053048321D01*
X0006254480Y0053202145D01*
X0006237032Y0053224160D01*
X0006109221Y0053352866D01*
X0006087329Y0053370467D01*
X0005934180Y0053467658D01*
X0005908933Y0053479972D01*
X0005738057Y0053540818D01*
X0005710709Y0053547233D01*
X0005530599Y0053568709D01*
X0005502509Y0053568906D01*
X0005322117Y0053549946D01*
X0005294683Y0053543914D01*
X0005122974Y0053485460D01*
X0005097557Y0053473499D01*
X0004961718Y0053389930D01*
X0004948045Y0053389500D01*
X0004920144Y0053389500D01*
X0004904356Y0053388507D01*
X0004900353Y0053388001D01*
X0004856152Y0053386612D01*
X0004824957Y0053381671D01*
X0004805504Y0053376019D01*
X0004785412Y0053373481D01*
X0004754820Y0053365626D01*
X0004713710Y0053349350D01*
X0004671252Y0053337014D01*
X0004642267Y0053324471D01*
X0004624831Y0053314159D01*
X0004606001Y0053306704D01*
X0004578323Y0053291489D01*
X0004542553Y0053265501D01*
X0004504498Y0053242995D01*
X0004479543Y0053223637D01*
X0004465222Y0053209316D01*
X0004448832Y0053197407D01*
X0004425808Y0053175788D01*
X0004397622Y0053141717D01*
X0003540404Y0052284500D01*
X0002081866Y0052284500D01*
X0002068258Y0052283763D01*
X0002006076Y0052277007D01*
X0001975454Y0052269727D01*
X0001839065Y0052218597D01*
X0001807730Y0052201441D01*
X0001691174Y0052114087D01*
X0001665913Y0052088826D01*
X0001578559Y0051972270D01*
X0001561403Y0051940935D01*
X0001510273Y0051804546D01*
X0001502992Y0051773924D01*
X0001496237Y0051711742D01*
X0001495500Y0051698134D01*
X0001495500Y0050801866D01*
X0001496237Y0050788258D01*
X0001502992Y0050726076D01*
X0001510273Y0050695454D01*
X0001561403Y0050559065D01*
X0001578559Y0050527730D01*
X0001665913Y0050411174D01*
X0001691174Y0050385913D01*
X0001806224Y0050299687D01*
X0001691531Y0050213730D01*
X0001666270Y0050188469D01*
X0001579002Y0050072027D01*
X0001561846Y0050040692D01*
X0001510766Y0049904437D01*
X0001503485Y0049873815D01*
X0001496737Y0049811697D01*
X0001496000Y0049798089D01*
X0001496000Y0049604000D01*
X0001516002Y0049535879D01*
X0001569658Y0049489386D01*
X0001622000Y0049478000D01*
X0004537999Y0049478000D01*
X0004606120Y0049498002D01*
X0004623382Y0049517923D01*
X0004665913Y0049461174D01*
X0004691174Y0049435913D01*
X0004807730Y0049348559D01*
X0004839065Y0049331403D01*
X0004970500Y0049282130D01*
X0004970500Y0048029197D01*
X0004916177Y0048011073D01*
X0004889751Y0047998694D01*
X0004739349Y0047905622D01*
X0004716479Y0047887496D01*
X0004591522Y0047762321D01*
X0004579684Y0047747332D01*
X0004567101Y0047763208D01*
X0004442009Y0047888083D01*
X0004419107Y0047906170D01*
X0004268641Y0047998918D01*
X0004242193Y0048011251D01*
X0004074427Y0048066897D01*
X0004047601Y0048072648D01*
X0003943205Y0048083344D01*
X0003930363Y0048084000D01*
X0003796500Y0048084000D01*
X0003728379Y0048063998D01*
X0003681886Y0048010342D01*
X0003670500Y0047958000D01*
X0003670500Y0045492001D01*
X0003690502Y0045423880D01*
X0003744158Y0045377387D01*
X0003796500Y0045366001D01*
X0003930362Y0045366001D01*
X0003943365Y0045366674D01*
X0004049066Y0045377641D01*
X0004075939Y0045383444D01*
X0004243608Y0045439382D01*
X0004270035Y0045451762D01*
X0004420338Y0045544773D01*
X0004443208Y0045562899D01*
X0004568083Y0045687991D01*
X0004579674Y0045702667D01*
X0004592504Y0045686479D01*
X0004717679Y0045561522D01*
X0004740581Y0045543435D01*
X0004891146Y0045450625D01*
X0004917595Y0045438292D01*
X0005085472Y0045382610D01*
X0005112296Y0045376859D01*
X0005216757Y0045366156D01*
X0005229600Y0045365500D01*
X0006005400Y0045365500D01*
X0006018404Y0045366173D01*
X0006124170Y0045377147D01*
X0006151042Y0045382950D01*
X0006318822Y0045438926D01*
X0006345249Y0045451306D01*
X0006495651Y0045544378D01*
X0006518521Y0045562504D01*
X0006643478Y0045687679D01*
X0006661565Y0045710581D01*
X0006754375Y0045861146D01*
X0006766708Y0045887595D01*
X0006822390Y0046055472D01*
X0006828141Y0046082296D01*
X0006838844Y0046186757D01*
X0006839500Y0046199600D01*
X0006839500Y0047250400D01*
X0006838827Y0047263404D01*
X0006827853Y0047369170D01*
X0006822050Y0047396042D01*
X0006785577Y0047505364D01*
X0010111249Y0047505364D01*
X0010129651Y0047142103D01*
X0010131076Y0047128550D01*
X0010188603Y0046769401D01*
X0010191483Y0046756081D01*
X0010287460Y0046405246D01*
X0010291761Y0046392315D01*
X0010425068Y0046053897D01*
X0010430741Y0046041506D01*
X0010599816Y0045719465D01*
X0010606794Y0045707759D01*
X0010809661Y0045405861D01*
X0010817863Y0045394977D01*
X0010956231Y0045230661D01*
X0011015410Y0045191438D01*
X0011086399Y0045190436D01*
X0011141706Y0045222726D01*
X0013329885Y0047410905D01*
X0013363911Y0047473217D01*
X0013358846Y0047544032D01*
X0013329885Y0047589095D01*
X0011141810Y0049777170D01*
X0011079498Y0049811196D01*
X0011008683Y0049806131D01*
X0010956903Y0049769905D01*
X0010832626Y0049624394D01*
X0010824350Y0049613568D01*
X0010619380Y0049313094D01*
X0010612320Y0049301437D01*
X0010441001Y0048980583D01*
X0010435242Y0048968233D01*
X0010299576Y0048630755D01*
X0010295184Y0048617854D01*
X0010196759Y0048267697D01*
X0010193786Y0048254397D01*
X0010133754Y0047895658D01*
X0010132235Y0047882115D01*
X0010111297Y0047518992D01*
X0010111249Y0047505364D01*
X0006785577Y0047505364D01*
X0006766074Y0047563822D01*
X0006753694Y0047590249D01*
X0006660622Y0047740651D01*
X0006642495Y0047763521D01*
X0006639500Y0047766511D01*
X0006639500Y0049265500D01*
X0007078134Y0049265500D01*
X0007091742Y0049266237D01*
X0007153924Y0049272992D01*
X0007184546Y0049280273D01*
X0007320935Y0049331403D01*
X0007352270Y0049348559D01*
X0007468826Y0049435913D01*
X0007494087Y0049461174D01*
X0007581441Y0049577730D01*
X0007598597Y0049609065D01*
X0007649727Y0049745454D01*
X0007657008Y0049776076D01*
X0007663763Y0049838258D01*
X0007664500Y0049851866D01*
X0007664500Y0050565500D01*
X0011937790Y0050565500D01*
X0011654766Y0050396113D01*
X0011643468Y0050388492D01*
X0011353366Y0050169089D01*
X0011342956Y0050160293D01*
X0011323004Y0050141491D01*
X0011287146Y0050080215D01*
X0011290108Y0050009281D01*
X0011320323Y0049960697D01*
X0013510905Y0047770115D01*
X0013573217Y0047736089D01*
X0013644032Y0047741154D01*
X0013689095Y0047770115D01*
X0015880073Y0049961093D01*
X0015914099Y0050023405D01*
X0015909034Y0050094220D01*
X0015877713Y0050141583D01*
X0015866318Y0050152397D01*
X0015855937Y0050161232D01*
X0015566602Y0050381646D01*
X0015555331Y0050389306D01*
X0015263251Y0050565500D01*
X0015651088Y0050565500D01*
X0015708782Y0050561567D01*
X0015739015Y0050563151D01*
X0015801962Y0050574137D01*
X0015865379Y0050581811D01*
X0015894780Y0050589032D01*
X0015901189Y0050591454D01*
X0015907946Y0050592633D01*
X0015936930Y0050601384D01*
X0015995441Y0050627069D01*
X0016055193Y0050649647D01*
X0016082020Y0050663671D01*
X0016087670Y0050667554D01*
X0016093955Y0050670313D01*
X0016120010Y0050685723D01*
X0016170697Y0050724618D01*
X0016223347Y0050760802D01*
X0016246057Y0050780824D01*
X0016287510Y0050827351D01*
X0016966000Y0051505840D01*
X0016966000Y0048399684D01*
X0016908698Y0048606310D01*
X0016904352Y0048619226D01*
X0016769865Y0048957177D01*
X0016764147Y0048969548D01*
X0016593948Y0049290997D01*
X0016586931Y0049302678D01*
X0016383012Y0049603866D01*
X0016374772Y0049614721D01*
X0016243419Y0049769608D01*
X0016184104Y0049808625D01*
X0016113112Y0049809380D01*
X0016058228Y0049777208D01*
X0013870115Y0047589095D01*
X0013836089Y0047526783D01*
X0013841154Y0047455968D01*
X0013870115Y0047410905D01*
X0016058180Y0045222840D01*
X0016120491Y0045188814D01*
X0016191306Y0045193879D01*
X0016242799Y0045229770D01*
X0016359941Y0045365958D01*
X0016368255Y0045376756D01*
X0016574273Y0045676513D01*
X0016581373Y0045688145D01*
X0016753812Y0046008398D01*
X0016759615Y0046020729D01*
X0016896458Y0046357732D01*
X0016900894Y0046370617D01*
X0016966000Y0046599174D01*
X0016966000Y0044634000D01*
X0015585466Y0044634000D01*
X0015837304Y0044823085D01*
X0015847744Y0044831845D01*
X0015876308Y0044858575D01*
X0015912380Y0044919725D01*
X0015909665Y0044990670D01*
X0015879310Y0045039670D01*
X0013689095Y0047229885D01*
X0013626783Y0047263911D01*
X0013555968Y0047258846D01*
X0013510905Y0047229885D01*
X0011319502Y0045038482D01*
X0011285476Y0044976170D01*
X0011290541Y0044905355D01*
X0011321555Y0044858284D01*
X0011324449Y0044855519D01*
X0011334787Y0044846660D01*
X0011611930Y0044634000D01*
X0000634000Y0044634000D01*
X0000634000Y0046199638D01*
X0002321001Y0046199638D01*
X0002321674Y0046186635D01*
X0002332641Y0046080934D01*
X0002338444Y0046054061D01*
X0002394382Y0045886392D01*
X0002406762Y0045859965D01*
X0002499773Y0045709662D01*
X0002517899Y0045686792D01*
X0002642991Y0045561917D01*
X0002665893Y0045543830D01*
X0002816359Y0045451082D01*
X0002842807Y0045438749D01*
X0003010573Y0045383103D01*
X0003037399Y0045377352D01*
X0003141795Y0045366656D01*
X0003154637Y0045366000D01*
X0003288500Y0045366000D01*
X0003356621Y0045386002D01*
X0003403114Y0045439658D01*
X0003414500Y0045492000D01*
X0003414500Y0046471000D01*
X0003394498Y0046539121D01*
X0003340842Y0046585614D01*
X0003288500Y0046597000D01*
X0002447001Y0046597000D01*
X0002378880Y0046576998D01*
X0002332387Y0046523342D01*
X0002321001Y0046471000D01*
X0002321001Y0046199638D01*
X0000634000Y0046199638D01*
X0000634000Y0046979000D01*
X0002321000Y0046979000D01*
X0002341002Y0046910879D01*
X0002394658Y0046864386D01*
X0002447000Y0046853000D01*
X0003288500Y0046853000D01*
X0003356621Y0046873002D01*
X0003403114Y0046926658D01*
X0003414500Y0046979000D01*
X0003414500Y0047957999D01*
X0003394498Y0048026120D01*
X0003340842Y0048072613D01*
X0003288500Y0048083999D01*
X0003154638Y0048083999D01*
X0003141635Y0048083326D01*
X0003035934Y0048072359D01*
X0003009061Y0048066556D01*
X0002841392Y0048010618D01*
X0002814965Y0047998238D01*
X0002664662Y0047905227D01*
X0002641792Y0047887101D01*
X0002516917Y0047762009D01*
X0002498830Y0047739107D01*
X0002406082Y0047588641D01*
X0002393749Y0047562193D01*
X0002338103Y0047394427D01*
X0002332352Y0047367601D01*
X0002321656Y0047263205D01*
X0002321000Y0047250363D01*
X0002321000Y0046979000D01*
X0000634000Y0046979000D01*
X0000634000Y0048901912D01*
X0001496001Y0048901912D01*
X0001496738Y0048888307D01*
X0001503485Y0048826188D01*
X0001510766Y0048795563D01*
X0001561846Y0048659308D01*
X0001579002Y0048627973D01*
X0001666270Y0048511531D01*
X0001691531Y0048486270D01*
X0001807973Y0048399002D01*
X0001839308Y0048381846D01*
X0001975563Y0048330766D01*
X0002006185Y0048323485D01*
X0002068302Y0048316737D01*
X0002081910Y0048316000D01*
X0002826000Y0048316000D01*
X0002894121Y0048336002D01*
X0002940614Y0048389658D01*
X0002952000Y0048442000D01*
X0002952000Y0048442001D01*
X0003208000Y0048442001D01*
X0003228002Y0048373880D01*
X0003281658Y0048327387D01*
X0003334000Y0048316001D01*
X0004078088Y0048316001D01*
X0004091693Y0048316738D01*
X0004153812Y0048323485D01*
X0004184437Y0048330766D01*
X0004320692Y0048381846D01*
X0004352027Y0048399002D01*
X0004468469Y0048486270D01*
X0004493730Y0048511531D01*
X0004580998Y0048627973D01*
X0004598154Y0048659308D01*
X0004649234Y0048795563D01*
X0004656515Y0048826185D01*
X0004663263Y0048888303D01*
X0004664000Y0048901911D01*
X0004664000Y0049096000D01*
X0004643998Y0049164121D01*
X0004590342Y0049210614D01*
X0004538000Y0049222000D01*
X0003334000Y0049222000D01*
X0003265879Y0049201998D01*
X0003219386Y0049148342D01*
X0003208000Y0049096000D01*
X0003208000Y0048442001D01*
X0002952000Y0048442001D01*
X0002952000Y0049096000D01*
X0002931998Y0049164121D01*
X0002878342Y0049210614D01*
X0002826000Y0049222000D01*
X0001622001Y0049222000D01*
X0001553880Y0049201998D01*
X0001507387Y0049148342D01*
X0001496001Y0049096000D01*
X0001496001Y0048901912D01*
X0000634000Y0048901912D01*
X0000634000Y0071428570D01*
X0001766922Y0071428570D01*
X0001776702Y0071217275D01*
X0001780074Y0071193580D01*
X0001829632Y0070987945D01*
X0001837424Y0070965315D01*
X0001924973Y0070772762D01*
X0001936904Y0070752013D01*
X0002059284Y0070579489D01*
X0002074923Y0070561371D01*
X0002227719Y0070415101D01*
X0002246502Y0070400267D01*
X0002279258Y0070379116D01*
X0002159593Y0070285118D01*
X0002142261Y0070268613D01*
X0002003692Y0070108927D01*
X0001989793Y0070089441D01*
X0001883920Y0069906432D01*
X0001873956Y0069884670D01*
X0001804599Y0069684943D01*
X0001798930Y0069661685D01*
X0001797537Y0069652075D01*
X0001807560Y0069581790D01*
X0001853991Y0069528081D01*
X0001922234Y0069508000D01*
X0004633517Y0069508000D01*
X0004701638Y0069528002D01*
X0004748131Y0069581658D01*
X0004758235Y0069651932D01*
X0004756010Y0069663521D01*
X0004729893Y0069771891D01*
X0004722101Y0069794521D01*
X0004634592Y0069986988D01*
X0004622661Y0070007737D01*
X0004500336Y0070180183D01*
X0004484697Y0070198301D01*
X0004331970Y0070344505D01*
X0004313187Y0070359339D01*
X0004280770Y0070380270D01*
X0004400753Y0070474518D01*
X0004418085Y0070491024D01*
X0004556717Y0070650783D01*
X0004570616Y0070670268D01*
X0004676537Y0070853359D01*
X0004686501Y0070875121D01*
X0004755889Y0071074938D01*
X0004761557Y0071098191D01*
X0004791909Y0071307524D01*
X0004793078Y0071331430D01*
X0004783298Y0071542725D01*
X0004779926Y0071566420D01*
X0004730368Y0071772055D01*
X0004722576Y0071794685D01*
X0004635027Y0071987238D01*
X0004623096Y0072007987D01*
X0004500716Y0072180511D01*
X0004485077Y0072198629D01*
X0004389813Y0072289824D01*
X0004445651Y0072324378D01*
X0004468521Y0072342504D01*
X0004593478Y0072467679D01*
X0004611565Y0072490581D01*
X0004704375Y0072641146D01*
X0004716708Y0072667595D01*
X0004720497Y0072679018D01*
X0007469628Y0072679018D01*
X0007488996Y0072457642D01*
X0007492810Y0072436013D01*
X0007550325Y0072221364D01*
X0007557837Y0072200725D01*
X0007651752Y0071999325D01*
X0007662733Y0071980306D01*
X0007706971Y0071917126D01*
X0007762428Y0071872796D01*
X0007833047Y0071865486D01*
X0007899280Y0071900300D01*
X0008599885Y0072600905D01*
X0008633911Y0072663217D01*
X0008630080Y0072716782D01*
X0009106089Y0072716782D01*
X0009111154Y0072645968D01*
X0009140115Y0072600905D01*
X0009840720Y0071900300D01*
X0009903032Y0071866274D01*
X0009973847Y0071871339D01*
X0010033029Y0071917126D01*
X0010077267Y0071980306D01*
X0010088248Y0071999325D01*
X0010182163Y0072200725D01*
X0010189675Y0072221364D01*
X0010247190Y0072436013D01*
X0010251004Y0072457642D01*
X0010270372Y0072679018D01*
X0010270372Y0072700982D01*
X0010251004Y0072922358D01*
X0010247190Y0072943987D01*
X0010189675Y0073158636D01*
X0010182163Y0073179275D01*
X0010088248Y0073380675D01*
X0010077267Y0073399694D01*
X0010033029Y0073462874D01*
X0009977572Y0073507204D01*
X0009906953Y0073514514D01*
X0009840720Y0073479700D01*
X0009140115Y0072779095D01*
X0009106089Y0072716782D01*
X0008630080Y0072716782D01*
X0008628846Y0072734032D01*
X0008599885Y0072779095D01*
X0007899280Y0073479700D01*
X0007836968Y0073513726D01*
X0007766153Y0073508661D01*
X0007706971Y0073462874D01*
X0007662733Y0073399694D01*
X0007651752Y0073380675D01*
X0007557837Y0073179275D01*
X0007550325Y0073158636D01*
X0007492810Y0072943987D01*
X0007488996Y0072922358D01*
X0007469628Y0072700982D01*
X0007469628Y0072679018D01*
X0004720497Y0072679018D01*
X0004772390Y0072835472D01*
X0004778141Y0072862296D01*
X0004788844Y0072966757D01*
X0004789500Y0072979600D01*
X0004789500Y0073726953D01*
X0008045486Y0073726953D01*
X0008080299Y0073660720D01*
X0008780905Y0072960115D01*
X0008843217Y0072926089D01*
X0008914032Y0072931153D01*
X0008959095Y0072960115D01*
X0009659700Y0073660720D01*
X0009693726Y0073723032D01*
X0009688661Y0073793847D01*
X0009662271Y0073827957D01*
X0010444745Y0073827957D01*
X0010445821Y0073810851D01*
X0010483346Y0073525820D01*
X0010486734Y0073509018D01*
X0010562595Y0073231716D01*
X0010568232Y0073215529D01*
X0010681026Y0072951089D01*
X0010688807Y0072935818D01*
X0010836445Y0072689133D01*
X0010846227Y0072675058D01*
X0011025979Y0072450691D01*
X0011037580Y0072438075D01*
X0011246118Y0072240180D01*
X0011259325Y0072229255D01*
X0011492791Y0072061492D01*
X0011507358Y0072052460D01*
X0011761433Y0071917934D01*
X0011777091Y0071910962D01*
X0012047072Y0071812163D01*
X0012063531Y0071807380D01*
X0012344422Y0071746137D01*
X0012361378Y0071743633D01*
X0012586853Y0071725888D01*
X0012596739Y0071725500D01*
X0012752271Y0071725500D01*
X0012760841Y0071725792D01*
X0012975395Y0071740419D01*
X0012992376Y0071742745D01*
X0013273893Y0071801044D01*
X0013290402Y0071805653D01*
X0013561403Y0071901620D01*
X0013577133Y0071908427D01*
X0013832602Y0072040284D01*
X0013847263Y0072049163D01*
X0014082474Y0072214472D01*
X0014095794Y0072225259D01*
X0014306393Y0072420960D01*
X0014318126Y0072433454D01*
X0014500217Y0072655926D01*
X0014510146Y0072669897D01*
X0014660360Y0072915023D01*
X0014668300Y0072930213D01*
X0014783856Y0073193457D01*
X0014789662Y0073209583D01*
X0014868423Y0073486075D01*
X0014871987Y0073502841D01*
X0014912494Y0073787463D01*
X0014913749Y0073804556D01*
X0014915255Y0074092043D01*
X0014914179Y0074109149D01*
X0014876654Y0074394180D01*
X0014873266Y0074410982D01*
X0014797405Y0074688284D01*
X0014791768Y0074704471D01*
X0014678974Y0074968911D01*
X0014671193Y0074984182D01*
X0014523555Y0075230867D01*
X0014513773Y0075244942D01*
X0014334021Y0075469309D01*
X0014322420Y0075481925D01*
X0014113882Y0075679820D01*
X0014100675Y0075690745D01*
X0013867209Y0075858508D01*
X0013852642Y0075867540D01*
X0013598567Y0076002066D01*
X0013582909Y0076009038D01*
X0013312928Y0076107837D01*
X0013296469Y0076112619D01*
X0013015578Y0076173863D01*
X0012998622Y0076176367D01*
X0012773147Y0076194112D01*
X0012763261Y0076194500D01*
X0012607729Y0076194500D01*
X0012599159Y0076194208D01*
X0012384605Y0076179581D01*
X0012367624Y0076177255D01*
X0012086107Y0076118956D01*
X0012069598Y0076114347D01*
X0011798597Y0076018380D01*
X0011782867Y0076011573D01*
X0011527398Y0075879716D01*
X0011512737Y0075870837D01*
X0011277526Y0075705528D01*
X0011264206Y0075694741D01*
X0011053607Y0075499040D01*
X0011041874Y0075486546D01*
X0010859783Y0075264074D01*
X0010849854Y0075250103D01*
X0010699640Y0075004977D01*
X0010691700Y0074989787D01*
X0010576144Y0074726542D01*
X0010570338Y0074710417D01*
X0010491577Y0074433925D01*
X0010488013Y0074417159D01*
X0010447506Y0074132537D01*
X0010446251Y0074115444D01*
X0010444745Y0073827957D01*
X0009662271Y0073827957D01*
X0009642875Y0073853028D01*
X0009579696Y0073897266D01*
X0009560676Y0073908248D01*
X0009359275Y0074002163D01*
X0009338636Y0074009675D01*
X0009123987Y0074067190D01*
X0009102358Y0074071004D01*
X0008880982Y0074090372D01*
X0008859018Y0074090372D01*
X0008637642Y0074071004D01*
X0008616013Y0074067190D01*
X0008401364Y0074009675D01*
X0008380725Y0074002163D01*
X0008179325Y0073908248D01*
X0008160306Y0073897267D01*
X0008097125Y0073853028D01*
X0008052796Y0073797572D01*
X0008045486Y0073726953D01*
X0004789500Y0073726953D01*
X0004789500Y0073780400D01*
X0004788827Y0073793404D01*
X0004777853Y0073899170D01*
X0004772050Y0073926042D01*
X0004716074Y0074093822D01*
X0004703694Y0074120249D01*
X0004610622Y0074270651D01*
X0004592496Y0074293521D01*
X0004467321Y0074418478D01*
X0004444419Y0074436565D01*
X0004293854Y0074529375D01*
X0004267405Y0074541708D01*
X0004099528Y0074597390D01*
X0004072704Y0074603141D01*
X0003968243Y0074613844D01*
X0003955400Y0074614499D01*
X0002604600Y0074614499D01*
X0002591596Y0074613827D01*
X0002485830Y0074602853D01*
X0002458958Y0074597050D01*
X0002291178Y0074541074D01*
X0002264751Y0074528694D01*
X0002114349Y0074435622D01*
X0002091479Y0074417496D01*
X0001966522Y0074292321D01*
X0001948435Y0074269419D01*
X0001855625Y0074118854D01*
X0001843292Y0074092405D01*
X0001787610Y0073924528D01*
X0001781859Y0073897704D01*
X0001771156Y0073793243D01*
X0001770500Y0073780400D01*
X0001770500Y0072979600D01*
X0001771173Y0072966596D01*
X0001782147Y0072860830D01*
X0001787950Y0072833958D01*
X0001843926Y0072666178D01*
X0001856306Y0072639751D01*
X0001949378Y0072489349D01*
X0001967504Y0072466478D01*
X0002092679Y0072341522D01*
X0002115581Y0072323435D01*
X0002167120Y0072291665D01*
X0002159247Y0072285482D01*
X0002141915Y0072268976D01*
X0002003283Y0072109217D01*
X0001989384Y0072089732D01*
X0001883463Y0071906641D01*
X0001873499Y0071884879D01*
X0001804111Y0071685062D01*
X0001798443Y0071661809D01*
X0001768091Y0071452476D01*
X0001766922Y0071428570D01*
X0000634000Y0071428570D01*
X0000634000Y0077378866D01*
X0001675500Y0077378866D01*
X0001676237Y0077365258D01*
X0001682992Y0077303076D01*
X0001690273Y0077272454D01*
X0001741403Y0077136065D01*
X0001758559Y0077104730D01*
X0001845913Y0076988174D01*
X0001871174Y0076962913D01*
X0001987730Y0076875559D01*
X0002019065Y0076858403D01*
X0002155454Y0076807273D01*
X0002186076Y0076799992D01*
X0002248258Y0076793237D01*
X0002261866Y0076792500D01*
X0004058134Y0076792500D01*
X0004071742Y0076793237D01*
X0004133924Y0076799992D01*
X0004164545Y0076807273D01*
X0004300935Y0076858403D01*
X0004332270Y0076875559D01*
X0004448826Y0076962913D01*
X0004474087Y0076988174D01*
X0004561441Y0077104730D01*
X0004578597Y0077136065D01*
X0004629727Y0077272454D01*
X0004637008Y0077303076D01*
X0004643763Y0077365258D01*
X0004644500Y0077378866D01*
X0004644500Y0077976170D01*
X0011285476Y0077976170D01*
X0011290541Y0077905355D01*
X0011321555Y0077858284D01*
X0011324449Y0077855519D01*
X0011334787Y0077846660D01*
X0011623350Y0077625237D01*
X0011634595Y0077617537D01*
X0011945385Y0077428574D01*
X0011957395Y0077422134D01*
X0012286774Y0077267842D01*
X0012299409Y0077262737D01*
X0012643526Y0077144919D01*
X0012656639Y0077141209D01*
X0013011467Y0077061245D01*
X0013024904Y0077058972D01*
X0013386293Y0077017797D01*
X0013399897Y0077016989D01*
X0013763618Y0077015085D01*
X0013777230Y0077015750D01*
X0014139030Y0077053138D01*
X0014152490Y0077055270D01*
X0014508136Y0077131514D01*
X0014521287Y0077135087D01*
X0014866619Y0077249295D01*
X0014879307Y0077254268D01*
X0015210284Y0077405103D01*
X0015222361Y0077411417D01*
X0015535112Y0077597115D01*
X0015546437Y0077604696D01*
X0015837304Y0077823085D01*
X0015847744Y0077831845D01*
X0015876308Y0077858575D01*
X0015912380Y0077919725D01*
X0015909665Y0077990670D01*
X0015879310Y0078039670D01*
X0013689095Y0080229885D01*
X0013626783Y0080263911D01*
X0013555968Y0080258846D01*
X0013510905Y0080229885D01*
X0011319502Y0078038482D01*
X0011285476Y0077976170D01*
X0004644500Y0077976170D01*
X0004644500Y0079175134D01*
X0004643763Y0079188742D01*
X0004637008Y0079250924D01*
X0004629727Y0079281546D01*
X0004578597Y0079417935D01*
X0004561441Y0079449270D01*
X0004474087Y0079565826D01*
X0004448826Y0079591087D01*
X0004332270Y0079678441D01*
X0004300935Y0079695597D01*
X0004181917Y0079740215D01*
X0004286653Y0079844587D01*
X0004300035Y0079860311D01*
X0004430344Y0080041655D01*
X0004440979Y0080059354D01*
X0004539921Y0080259547D01*
X0004547522Y0080278745D01*
X0004612438Y0080492408D01*
X0004615239Y0080505364D01*
X0010111249Y0080505364D01*
X0010129651Y0080142103D01*
X0010131076Y0080128550D01*
X0010188603Y0079769401D01*
X0010191483Y0079756081D01*
X0010287460Y0079405246D01*
X0010291761Y0079392315D01*
X0010425068Y0079053897D01*
X0010430741Y0079041506D01*
X0010599816Y0078719465D01*
X0010606794Y0078707759D01*
X0010809661Y0078405861D01*
X0010817863Y0078394977D01*
X0010956231Y0078230661D01*
X0011015410Y0078191438D01*
X0011086399Y0078190436D01*
X0011141706Y0078222726D01*
X0013329885Y0080410905D01*
X0013363911Y0080473217D01*
X0013358846Y0080544032D01*
X0013329885Y0080589095D01*
X0011141810Y0082777170D01*
X0011079498Y0082811196D01*
X0011008683Y0082806131D01*
X0010956903Y0082769905D01*
X0010832626Y0082624394D01*
X0010824350Y0082613568D01*
X0010619380Y0082313094D01*
X0010612320Y0082301437D01*
X0010441001Y0081980583D01*
X0010435242Y0081968233D01*
X0010299576Y0081630755D01*
X0010295184Y0081617854D01*
X0010196759Y0081267697D01*
X0010193786Y0081254397D01*
X0010133754Y0080895658D01*
X0010132235Y0080882115D01*
X0010111297Y0080518992D01*
X0010111249Y0080505364D01*
X0004615239Y0080505364D01*
X0004616802Y0080512592D01*
X0004621273Y0080546555D01*
X0004610333Y0080616703D01*
X0004563205Y0080669802D01*
X0004496351Y0080689000D01*
X0001825110Y0080689000D01*
X0001756989Y0080668998D01*
X0001710496Y0080615342D01*
X0001700392Y0080545068D01*
X0001702193Y0080535299D01*
X0001736784Y0080381810D01*
X0001742958Y0080362107D01*
X0001826971Y0080155206D01*
X0001836281Y0080136775D01*
X0001952959Y0079946374D01*
X0001965155Y0079929712D01*
X0002111364Y0079760924D01*
X0002126116Y0079746477D01*
X0002135035Y0079739072D01*
X0002019065Y0079695597D01*
X0001987730Y0079678441D01*
X0001871174Y0079591087D01*
X0001845913Y0079565826D01*
X0001758559Y0079449270D01*
X0001741403Y0079417935D01*
X0001690273Y0079281546D01*
X0001682992Y0079250924D01*
X0001676237Y0079188742D01*
X0001675500Y0079175134D01*
X0001675500Y0077378866D01*
X0000634000Y0077378866D01*
X0000634000Y0081084410D01*
X0001696055Y0081084410D01*
X0001708693Y0081014547D01*
X0001757096Y0080962608D01*
X0001821339Y0080945000D01*
X0002906000Y0080945000D01*
X0002974121Y0080965002D01*
X0003020614Y0081018658D01*
X0003032000Y0081071000D01*
X0003288000Y0081071000D01*
X0003308002Y0081002879D01*
X0003361658Y0080956386D01*
X0003414000Y0080945000D01*
X0004496459Y0080945000D01*
X0004564580Y0080965002D01*
X0004611073Y0081018658D01*
X0004621177Y0081088932D01*
X0004618663Y0081101696D01*
X0004572159Y0081286833D01*
X0004565505Y0081306379D01*
X0004476462Y0081511165D01*
X0004466704Y0081529363D01*
X0004345409Y0081716857D01*
X0004332810Y0081733217D01*
X0004182521Y0081898382D01*
X0004167420Y0081912464D01*
X0003992173Y0082050865D01*
X0003974975Y0082062291D01*
X0003779477Y0082170212D01*
X0003760643Y0082178677D01*
X0003550144Y0082253219D01*
X0003530180Y0082258493D01*
X0003436096Y0082275252D01*
X0003365524Y0082267506D01*
X0003310342Y0082222836D01*
X0003288000Y0082151205D01*
X0003288000Y0081071000D01*
X0003032000Y0081071000D01*
X0003032000Y0082152013D01*
X0003011998Y0082220134D01*
X0002958342Y0082266627D01*
X0002886940Y0082276563D01*
X0002825148Y0082267107D01*
X0002805063Y0082262322D01*
X0002592805Y0082192946D01*
X0002573770Y0082184944D01*
X0002375694Y0082081832D01*
X0002358221Y0082070829D01*
X0002179645Y0081936750D01*
X0002164204Y0081923041D01*
X0002009925Y0081761597D01*
X0001996931Y0081745550D01*
X0001871091Y0081561076D01*
X0001860891Y0081543122D01*
X0001766871Y0081340572D01*
X0001759742Y0081321194D01*
X0001700065Y0081106008D01*
X0001696198Y0081085746D01*
X0001696055Y0081084410D01*
X0000634000Y0081084410D01*
X0000634000Y0083366000D01*
X0011613728Y0083366000D01*
X0011353366Y0083169089D02*
X0011613728Y0083366000D01*
G04 #@! TA.AperFunction,Conductor*
G36*
X0011353366Y0083169089D02*
G01*
X0011342956Y0083160293D01*
X0011323004Y0083141491D01*
X0011287146Y0083080215D01*
X0011290108Y0083009281D01*
X0011320323Y0082960697D01*
X0013510905Y0080770115D01*
X0013573217Y0080736089D01*
X0013644032Y0080741154D01*
X0013689095Y0080770115D01*
X0015880073Y0082961093D01*
X0015914099Y0083023405D01*
X0015909034Y0083094220D01*
X0015877713Y0083141583D01*
X0015866318Y0083152397D01*
X0015855937Y0083161232D01*
X0015587140Y0083366000D01*
X0016966000Y0083366000D01*
X0016966000Y0081399684D01*
X0016908698Y0081606310D01*
X0016904352Y0081619226D01*
X0016769865Y0081957177D01*
X0016764147Y0081969548D01*
X0016593948Y0082290997D01*
X0016586931Y0082302678D01*
X0016383012Y0082603866D01*
X0016374772Y0082614721D01*
X0016243419Y0082769608D01*
X0016184104Y0082808625D01*
X0016113112Y0082809380D01*
X0016058228Y0082777208D01*
X0013870115Y0080589095D01*
X0013836089Y0080526783D01*
X0013841154Y0080455968D01*
X0013870115Y0080410905D01*
X0016058180Y0078222840D01*
X0016120491Y0078188814D01*
X0016191306Y0078193879D01*
X0016242799Y0078229770D01*
X0016359941Y0078365958D01*
X0016368255Y0078376756D01*
X0016574273Y0078676513D01*
X0016581373Y0078688145D01*
X0016753812Y0079008398D01*
X0016759615Y0079020729D01*
X0016896458Y0079357732D01*
X0016900894Y0079370617D01*
X0016966000Y0079599174D01*
X0016966000Y0069185899D01*
X0016939221Y0069212866D01*
X0016936644Y0069214938D01*
X0015607329Y0070544253D01*
X0015544252Y0070608665D01*
X0015522484Y0070626418D01*
X0015486050Y0070649898D01*
X0015452165Y0070676948D01*
X0015428395Y0070691917D01*
X0015398201Y0070706513D01*
X0015370018Y0070724676D01*
X0015344858Y0070737166D01*
X0015304122Y0070751993D01*
X0015265089Y0070770862D01*
X0015238595Y0070780192D01*
X0015205917Y0070787736D01*
X0015174410Y0070799204D01*
X0015147106Y0070805810D01*
X0015104091Y0070811244D01*
X0015061860Y0070820994D01*
X0015033955Y0070824223D01*
X0014993385Y0070824365D01*
X0014991231Y0070824500D01*
X0014954581Y0070824500D01*
X0014852570Y0070824856D01*
X0014849293Y0070824500D01*
X0010096343Y0070824500D01*
X0010088683Y0070840926D01*
X0010077701Y0070859947D01*
X0009950190Y0071042052D01*
X0009936072Y0071058876D01*
X0009778876Y0071216072D01*
X0009762052Y0071230190D01*
X0009579948Y0071357701D01*
X0009560927Y0071368683D01*
X0009450285Y0071420276D01*
X0009560676Y0071471752D01*
X0009579696Y0071482734D01*
X0009642875Y0071526972D01*
X0009687204Y0071582429D01*
X0009694513Y0071653048D01*
X0009659700Y0071719280D01*
X0008959095Y0072419885D01*
X0008896783Y0072453911D01*
X0008825968Y0072448846D01*
X0008780905Y0072419885D01*
X0008080299Y0071719280D01*
X0008046274Y0071656968D01*
X0008051339Y0071586153D01*
X0008097125Y0071526972D01*
X0008160304Y0071482734D01*
X0008179323Y0071471752D01*
X0008289714Y0071420276D01*
X0008179074Y0071368683D01*
X0008160053Y0071357701D01*
X0007977948Y0071230190D01*
X0007961124Y0071216072D01*
X0007803928Y0071058876D01*
X0007790812Y0071043247D01*
X0007767239Y0071035314D01*
X0007727944Y0071016991D01*
X0007687011Y0071002736D01*
X0007661679Y0070990600D01*
X0007633237Y0070972828D01*
X0007602848Y0070958657D01*
X0007578872Y0070944022D01*
X0007544618Y0070917452D01*
X0007507855Y0070894480D01*
X0007485839Y0070877031D01*
X0007457030Y0070848422D01*
X0007455435Y0070847016D01*
X0007429898Y0070821479D01*
X0007357134Y0070749221D01*
X0007355058Y0070746639D01*
X0005625748Y0069017330D01*
X0005561335Y0068954252D01*
X0005543582Y0068932484D01*
X0005520102Y0068896050D01*
X0005493052Y0068862165D01*
X0005478083Y0068838395D01*
X0005463487Y0068808201D01*
X0005445324Y0068780018D01*
X0005432834Y0068754858D01*
X0005418007Y0068714122D01*
X0005399138Y0068675089D01*
X0005389808Y0068648595D01*
X0005382264Y0068615917D01*
X0005370796Y0068584410D01*
X0005364190Y0068557106D01*
X0005358756Y0068514091D01*
X0005349006Y0068471859D01*
X0005345777Y0068443955D01*
X0005345635Y0068403385D01*
X0005345500Y0068401231D01*
X0005345500Y0068364581D01*
X0005345144Y0068262570D01*
X0005345500Y0068259293D01*
X0005345500Y0066388594D01*
X0004730956Y0067003138D01*
X0004755889Y0067074938D01*
X0004761557Y0067098191D01*
X0004791909Y0067307524D01*
X0004793078Y0067331430D01*
X0004783298Y0067542725D01*
X0004779926Y0067566420D01*
X0004730368Y0067772055D01*
X0004722576Y0067794685D01*
X0004635027Y0067987238D01*
X0004623096Y0068007987D01*
X0004500716Y0068180511D01*
X0004485077Y0068198629D01*
X0004332281Y0068344899D01*
X0004313498Y0068359733D01*
X0004280742Y0068380884D01*
X0004400407Y0068474882D01*
X0004417739Y0068491387D01*
X0004556308Y0068651073D01*
X0004570207Y0068670559D01*
X0004676080Y0068853568D01*
X0004686044Y0068875330D01*
X0004755401Y0069075057D01*
X0004761070Y0069098315D01*
X0004762463Y0069107925D01*
X0004752440Y0069178210D01*
X0004706009Y0069231919D01*
X0004637766Y0069252000D01*
X0001926483Y0069252000D01*
X0001858362Y0069231998D01*
X0001811869Y0069178342D01*
X0001801765Y0069108068D01*
X0001803990Y0069096479D01*
X0001830107Y0068988109D01*
X0001837899Y0068965479D01*
X0001925408Y0068773012D01*
X0001937339Y0068752263D01*
X0002059664Y0068579817D01*
X0002075303Y0068561699D01*
X0002228030Y0068415495D01*
X0002246813Y0068400661D01*
X0002279230Y0068379730D01*
X0002159247Y0068285482D01*
X0002141915Y0068268976D01*
X0002003283Y0068109217D01*
X0001989384Y0068089732D01*
X0001883463Y0067906641D01*
X0001873499Y0067884879D01*
X0001804111Y0067685062D01*
X0001798443Y0067661809D01*
X0001768091Y0067452476D01*
X0001766922Y0067428570D01*
X0001776702Y0067217275D01*
X0001780074Y0067193580D01*
X0001829632Y0066987945D01*
X0001837424Y0066965315D01*
X0001924973Y0066772762D01*
X0001936904Y0066752013D01*
X0002059284Y0066579488D01*
X0002074923Y0066561371D01*
X0002227719Y0066415100D01*
X0002246502Y0066400267D01*
X0002279258Y0066379115D01*
X0002159593Y0066285118D01*
X0002142261Y0066268613D01*
X0002003692Y0066108926D01*
X0001989793Y0066089440D01*
X0001883920Y0065906431D01*
X0001873956Y0065884670D01*
X0001804599Y0065684943D01*
X0001798930Y0065661685D01*
X0001797537Y0065652075D01*
X0001807560Y0065581790D01*
X0001853991Y0065528081D01*
X0001922234Y0065507999D01*
X0003408000Y0065507999D01*
X0003408000Y0065251999D01*
X0001926483Y0065251999D01*
X0001858362Y0065231998D01*
X0001811869Y0065178342D01*
X0001801765Y0065108068D01*
X0001803990Y0065096479D01*
X0001830107Y0064988109D01*
X0001837899Y0064965479D01*
X0001925408Y0064773011D01*
X0001937339Y0064752263D01*
X0002059664Y0064579816D01*
X0002075303Y0064561699D01*
X0002228030Y0064415494D01*
X0002246813Y0064400661D01*
X0002279230Y0064379729D01*
X0002159247Y0064285482D01*
X0002141915Y0064268975D01*
X0002003283Y0064109217D01*
X0001989384Y0064089732D01*
X0001883463Y0063906641D01*
X0001873499Y0063884879D01*
X0001804111Y0063685062D01*
X0001798443Y0063661809D01*
X0001768091Y0063452476D01*
X0001766922Y0063428570D01*
X0001776702Y0063217275D01*
X0001780074Y0063193580D01*
X0001829632Y0062987945D01*
X0001837424Y0062965315D01*
X0001924973Y0062772762D01*
X0001936904Y0062752013D01*
X0002059284Y0062579488D01*
X0002074923Y0062561371D01*
X0002227719Y0062415101D01*
X0002246502Y0062400267D01*
X0002279258Y0062379115D01*
X0002159593Y0062285118D01*
X0002142261Y0062268613D01*
X0002003692Y0062108927D01*
X0001989793Y0062089441D01*
X0001883920Y0061906431D01*
X0001873956Y0061884670D01*
X0001804599Y0061684943D01*
X0001798930Y0061661685D01*
X0001797537Y0061652075D01*
X0001807560Y0061581790D01*
X0001853991Y0061528081D01*
X0001922234Y0061507999D01*
X0003408000Y0061507999D01*
X0003408000Y0061251999D01*
X0001926483Y0061251999D01*
X0001858362Y0061231998D01*
X0001811869Y0061178342D01*
X0001801765Y0061108068D01*
X0001803990Y0061096479D01*
X0001830107Y0060988109D01*
X0001837899Y0060965479D01*
X0001925408Y0060773012D01*
X0001937339Y0060752263D01*
X0002059664Y0060579817D01*
X0002075303Y0060561699D01*
X0002228030Y0060415495D01*
X0002246813Y0060400661D01*
X0002279230Y0060379729D01*
X0002159247Y0060285482D01*
X0002141915Y0060268975D01*
X0002003283Y0060109217D01*
X0001989384Y0060089732D01*
X0001883463Y0059906641D01*
X0001873499Y0059884879D01*
X0001804111Y0059685062D01*
X0001798443Y0059661809D01*
X0001768091Y0059452476D01*
X0001766922Y0059428570D01*
X0001776702Y0059217275D01*
X0001780074Y0059193580D01*
X0001829632Y0058987945D01*
X0001837424Y0058965315D01*
X0001924973Y0058772762D01*
X0001936904Y0058752013D01*
X0002059284Y0058579488D01*
X0002074923Y0058561371D01*
X0002227719Y0058415101D01*
X0002246502Y0058400267D01*
X0002279258Y0058379115D01*
X0002159593Y0058285118D01*
X0002142261Y0058268613D01*
X0002003692Y0058108927D01*
X0001989793Y0058089441D01*
X0001883920Y0057906431D01*
X0001873956Y0057884670D01*
X0001804599Y0057684943D01*
X0001798930Y0057661685D01*
X0001797537Y0057652075D01*
X0001807560Y0057581790D01*
X0001853991Y0057528081D01*
X0001922234Y0057507999D01*
X0003408000Y0057507999D01*
X0003408000Y0057251999D01*
X0001926483Y0057251999D01*
X0001858362Y0057231998D01*
X0001811869Y0057178342D01*
X0001801765Y0057108068D01*
X0001803990Y0057096479D01*
X0001830107Y0056988109D01*
X0001837899Y0056965479D01*
X0001925408Y0056773012D01*
X0001937339Y0056752263D01*
X0002059664Y0056579817D01*
X0002075303Y0056561699D01*
X0002228030Y0056415495D01*
X0002246813Y0056400661D01*
X0002279230Y0056379729D01*
X0002159247Y0056285482D01*
X0002141915Y0056268975D01*
X0002003283Y0056109217D01*
X0001989384Y0056089732D01*
X0001883463Y0055906641D01*
X0001873499Y0055884879D01*
X0001804111Y0055685062D01*
X0001798443Y0055661809D01*
X0001768091Y0055452476D01*
X0001766922Y0055428570D01*
X0001776702Y0055217275D01*
X0001780074Y0055193580D01*
X0001829632Y0054987945D01*
X0001837424Y0054965315D01*
X0001924973Y0054772762D01*
X0001936904Y0054752013D01*
X0002059284Y0054579488D01*
X0002074923Y0054561371D01*
X0002227719Y0054415101D01*
X0002246502Y0054400267D01*
X0002424200Y0054285528D01*
X0002445450Y0054274514D01*
X0002641639Y0054195448D01*
X0002664587Y0054188649D01*
X0002872187Y0054148108D01*
X0002890183Y0054145922D01*
X0002895745Y0054145650D01*
X0002901899Y0054145500D01*
X0003607846Y0054145500D01*
X0003619813Y0054146070D01*
X0003777533Y0054161118D01*
X0003801035Y0054165643D01*
X0004004003Y0054225187D01*
X0004026226Y0054234076D01*
X0004214272Y0054330926D01*
X0004234413Y0054343856D01*
X0004400753Y0054474518D01*
X0004418085Y0054491023D01*
X0004530439Y0054620500D01*
X0004573017Y0054620500D01*
X0004595652Y0054618359D01*
X0004663729Y0054620500D01*
X0004691640Y0054620500D01*
X0004707430Y0054621493D01*
X0004711441Y0054622000D01*
X0004755632Y0054623389D01*
X0004786825Y0054628330D01*
X0004806276Y0054633981D01*
X0004826374Y0054636520D01*
X0004856965Y0054644374D01*
X0004898079Y0054660652D01*
X0004940529Y0054672985D01*
X0004969517Y0054685529D01*
X0004986953Y0054695841D01*
X0005005783Y0054703296D01*
X0005033461Y0054718511D01*
X0005069231Y0054744499D01*
X0005107286Y0054767005D01*
X0005132241Y0054786363D01*
X0005146562Y0054800684D01*
X0005162952Y0054812591D01*
X0005185976Y0054834212D01*
X0005214167Y0054868289D01*
X0006224952Y0055879073D01*
X0006617501Y0055879073D01*
X0006617501Y0055848687D01*
X0006618579Y0055832244D01*
X0006634240Y0055713278D01*
X0006642753Y0055681505D01*
X0006650181Y0055663573D01*
X0006642753Y0055645641D01*
X0006634240Y0055613869D01*
X0006618578Y0055494904D01*
X0006617500Y0055478458D01*
X0006617501Y0055198689D01*
X0006618579Y0055182244D01*
X0006634240Y0055063278D01*
X0006642753Y0055031504D01*
X0006650181Y0055013573D01*
X0006642753Y0054995641D01*
X0006634240Y0054963869D01*
X0006618578Y0054844904D01*
X0006617500Y0054828458D01*
X0006617501Y0054548688D01*
X0006618579Y0054532244D01*
X0006634240Y0054413278D01*
X0006642753Y0054381505D01*
X0006650181Y0054363573D01*
X0006642753Y0054345641D01*
X0006634240Y0054313869D01*
X0006618578Y0054194904D01*
X0006617500Y0054178458D01*
X0006617501Y0053898689D01*
X0006618579Y0053882244D01*
X0006634240Y0053763278D01*
X0006642753Y0053731505D01*
X0006650452Y0053712919D01*
X0006643241Y0053695510D01*
X0006634728Y0053663740D01*
X0006626997Y0053605019D01*
X0006637936Y0053534870D01*
X0006685064Y0053481772D01*
X0006751919Y0053462573D01*
X0006791431Y0053462573D01*
X0006818051Y0053427882D01*
X0006841309Y0053404624D01*
X0006958665Y0053314572D01*
X0006751920Y0053314572D01*
X0006683799Y0053294571D01*
X0006637306Y0053240915D01*
X0006626998Y0053172128D01*
X0006634728Y0053113408D01*
X0006643241Y0053081635D01*
X0006704504Y0052933732D01*
X0006720951Y0052905246D01*
X0006818408Y0052778239D01*
X0006841666Y0052754981D01*
X0006968673Y0052657523D01*
X0006997159Y0052641076D01*
X0007145062Y0052579814D01*
X0007176834Y0052571301D01*
X0007295707Y0052555651D01*
X0007312153Y0052554573D01*
X0007789500Y0052554573D01*
X0007857621Y0052574574D01*
X0007904114Y0052628231D01*
X0007915500Y0052680572D01*
X0007915500Y0053188573D01*
X0007910949Y0053204074D01*
X0008063499Y0053204074D01*
X0008063499Y0052680574D01*
X0008083501Y0052612453D01*
X0008137157Y0052565960D01*
X0008189500Y0052554574D01*
X0008666846Y0052554574D01*
X0008683291Y0052555651D01*
X0008802165Y0052571301D01*
X0008833938Y0052579814D01*
X0008981841Y0052641076D01*
X0009010327Y0052657523D01*
X0009137334Y0052754981D01*
X0009160592Y0052778239D01*
X0009258049Y0052905246D01*
X0009274496Y0052933732D01*
X0009335759Y0053081635D01*
X0009344272Y0053113406D01*
X0009359922Y0053232280D01*
X0009361000Y0053248727D01*
X0009361000Y0053279073D01*
X0009809406Y0053279073D01*
X0009832041Y0053276933D01*
X0009900118Y0053279073D01*
X0009928029Y0053279073D01*
X0009943819Y0053280066D01*
X0009947830Y0053280573D01*
X0009992021Y0053281962D01*
X0010023214Y0053286902D01*
X0010042665Y0053292553D01*
X0010062763Y0053295093D01*
X0010093354Y0053302947D01*
X0010134468Y0053319225D01*
X0010176918Y0053331558D01*
X0010205906Y0053344102D01*
X0010210409Y0053346765D01*
X0010302220Y0053355121D01*
X0010329736Y0053360769D01*
X0010502244Y0053416820D01*
X0010527825Y0053428424D01*
X0010683629Y0053521302D01*
X0010706004Y0053538285D01*
X0010837358Y0053663371D01*
X0010855414Y0053684891D01*
X0010955791Y0053835971D01*
X0010968631Y0053860954D01*
X0011033043Y0054030518D01*
X0011040029Y0054057726D01*
X0011065273Y0054237347D01*
X0011066487Y0054253125D01*
X0011066804Y0054275842D01*
X0011066031Y0054291645D01*
X0011045812Y0054471900D01*
X0011039588Y0054499292D01*
X0010979936Y0054670589D01*
X0010967799Y0054695921D01*
X0010945786Y0054731150D01*
X0010964030Y0054758610D01*
X0010976870Y0054783592D01*
X0011041282Y0054953157D01*
X0011048268Y0054980365D01*
X0011073512Y0055159986D01*
X0011074726Y0055175764D01*
X0011075043Y0055198481D01*
X0011074270Y0055214284D01*
X0011054051Y0055394539D01*
X0011047827Y0055421931D01*
X0010988175Y0055593228D01*
X0010976038Y0055618560D01*
X0010918628Y0055710436D01*
X0010955791Y0055766371D01*
X0010968631Y0055791354D01*
X0011033043Y0055960918D01*
X0011040029Y0055988126D01*
X0011065273Y0056167747D01*
X0011066487Y0056183525D01*
X0011066804Y0056206242D01*
X0011066031Y0056222045D01*
X0011045812Y0056402300D01*
X0011039588Y0056429692D01*
X0010979936Y0056600989D01*
X0010967799Y0056626321D01*
X0010950639Y0056653784D01*
X0010968569Y0056680771D01*
X0010981409Y0056705754D01*
X0011045821Y0056875318D01*
X0011052807Y0056902526D01*
X0011078051Y0057082147D01*
X0011079265Y0057097925D01*
X0011079582Y0057120642D01*
X0011078809Y0057136444D01*
X0011058590Y0057316700D01*
X0011052366Y0057344092D01*
X0010992714Y0057515389D01*
X0010980577Y0057540721D01*
X0010884458Y0057694545D01*
X0010867010Y0057716560D01*
X0010739199Y0057845265D01*
X0010717307Y0057862867D01*
X0010564158Y0057960058D01*
X0010538911Y0057972372D01*
X0010368035Y0058033218D01*
X0010340687Y0058039632D01*
X0010160577Y0058061110D01*
X0010132487Y0058061306D01*
X0009952095Y0058042345D01*
X0009924661Y0058036314D01*
X0009752952Y0057977860D01*
X0009727535Y0057965899D01*
X0009573044Y0057870855D01*
X0009550908Y0057853561D01*
X0009421313Y0057726652D01*
X0009403560Y0057704884D01*
X0009335038Y0057598559D01*
X0009328819Y0057613573D01*
X0009336247Y0057631505D01*
X0009344760Y0057663277D01*
X0009360422Y0057782242D01*
X0009361500Y0057798688D01*
X0009361499Y0058078457D01*
X0009360421Y0058094902D01*
X0009344760Y0058213868D01*
X0009336247Y0058245641D01*
X0009328819Y0058263573D01*
X0009336247Y0058281504D01*
X0009344760Y0058313277D01*
X0009360422Y0058432242D01*
X0009361500Y0058448688D01*
X0009361499Y0058728457D01*
X0009360421Y0058744901D01*
X0009344760Y0058863868D01*
X0009336247Y0058895641D01*
X0009328819Y0058913573D01*
X0009336247Y0058931505D01*
X0009344760Y0058963277D01*
X0009360422Y0059082242D01*
X0009361500Y0059098687D01*
X0009361499Y0059378457D01*
X0009360421Y0059394902D01*
X0009344760Y0059513868D01*
X0009336247Y0059545641D01*
X0009328548Y0059564227D01*
X0009335759Y0059581635D01*
X0009344272Y0059613406D01*
X0009352003Y0059672126D01*
X0009341064Y0059742275D01*
X0009293936Y0059795373D01*
X0009227081Y0059814572D01*
X0009187569Y0059814572D01*
X0009160949Y0059849264D01*
X0009137691Y0059872522D01*
X0009020335Y0059962573D01*
X0009227080Y0059962573D01*
X0009295201Y0059982575D01*
X0009341694Y0060036231D01*
X0009352002Y0060105018D01*
X0009344272Y0060163737D01*
X0009335759Y0060195510D01*
X0009328277Y0060213573D01*
X0009335759Y0060231635D01*
X0009344272Y0060263406D01*
X0009352003Y0060322126D01*
X0009341064Y0060392275D01*
X0009293936Y0060445374D01*
X0009227081Y0060464573D01*
X0008189500Y0060464573D01*
X0008121378Y0060444571D01*
X0008074885Y0060390915D01*
X0008063499Y0060338573D01*
X0008063499Y0060088573D01*
X0008068051Y0060073071D01*
X0007915500Y0060073071D01*
X0007915500Y0060738573D01*
X0008063499Y0060738573D01*
X0008083501Y0060670452D01*
X0008137157Y0060623959D01*
X0008189500Y0060612573D01*
X0009227080Y0060612573D01*
X0009295201Y0060632575D01*
X0009341694Y0060686231D01*
X0009352002Y0060755018D01*
X0009344272Y0060813738D01*
X0009335759Y0060845511D01*
X0009274496Y0060993414D01*
X0009258049Y0061021900D01*
X0009160592Y0061148907D01*
X0009137334Y0061172165D01*
X0009010327Y0061269622D01*
X0008981841Y0061286069D01*
X0008833938Y0061347332D01*
X0008802166Y0061355845D01*
X0008683293Y0061371494D01*
X0008666847Y0061372573D01*
X0008189500Y0061372573D01*
X0008121378Y0061352571D01*
X0008074885Y0061298915D01*
X0008063499Y0061246573D01*
X0008063499Y0060738573D01*
X0007915500Y0060738573D01*
X0007915500Y0061246572D01*
X0007895498Y0061314693D01*
X0007841842Y0061361186D01*
X0007789500Y0061372572D01*
X0007312154Y0061372572D01*
X0007295709Y0061371494D01*
X0007176835Y0061355845D01*
X0007145062Y0061347332D01*
X0006997159Y0061286069D01*
X0006968673Y0061269622D01*
X0006841666Y0061172165D01*
X0006818408Y0061148907D01*
X0006720951Y0061021900D01*
X0006704504Y0060993414D01*
X0006643241Y0060845511D01*
X0006634728Y0060813739D01*
X0006619078Y0060694866D01*
X0006618205Y0060681553D01*
X0006494457Y0060725618D01*
X0006467109Y0060732033D01*
X0006286999Y0060753510D01*
X0006258909Y0060753706D01*
X0006111500Y0060738213D01*
X0006111500Y0063249417D01*
X0006648500Y0062712418D01*
X0006648500Y0062286600D01*
X0006649173Y0062273596D01*
X0006660147Y0062167829D01*
X0006665950Y0062140958D01*
X0006721926Y0061973178D01*
X0006734306Y0061946751D01*
X0006827378Y0061796349D01*
X0006845504Y0061773478D01*
X0006970679Y0061648522D01*
X0006993581Y0061630435D01*
X0007144146Y0061537625D01*
X0007170595Y0061525292D01*
X0007338472Y0061469610D01*
X0007365296Y0061463859D01*
X0007469757Y0061453156D01*
X0007482600Y0061452500D01*
X0008258400Y0061452500D01*
X0008271404Y0061453173D01*
X0008377170Y0061464147D01*
X0008404042Y0061469950D01*
X0008571822Y0061525926D01*
X0008598249Y0061538306D01*
X0008748651Y0061631378D01*
X0008771521Y0061649504D01*
X0008896478Y0061774679D01*
X0008908316Y0061789668D01*
X0008920899Y0061773792D01*
X0009045991Y0061648917D01*
X0009068893Y0061630830D01*
X0009219359Y0061538082D01*
X0009245807Y0061525749D01*
X0009413573Y0061470103D01*
X0009440399Y0061464352D01*
X0009544795Y0061453655D01*
X0009557637Y0061453000D01*
X0009691500Y0061453000D01*
X0009759621Y0061473002D01*
X0009806114Y0061526658D01*
X0009817500Y0061579000D01*
X0009817500Y0064044999D01*
X0009797498Y0064113119D01*
X0009743842Y0064159613D01*
X0009691500Y0064170998D01*
X0009557638Y0064170998D01*
X0009544635Y0064170326D01*
X0009438934Y0064159358D01*
X0009412061Y0064153555D01*
X0009244392Y0064097618D01*
X0009217965Y0064085238D01*
X0009067662Y0063992227D01*
X0009044792Y0063974101D01*
X0008919917Y0063849008D01*
X0008908326Y0063834333D01*
X0008895496Y0063850521D01*
X0008770321Y0063975477D01*
X0008747419Y0063993565D01*
X0008596854Y0064086375D01*
X0008570405Y0064098708D01*
X0008402528Y0064154390D01*
X0008375704Y0064160140D01*
X0008271243Y0064170844D01*
X0008258400Y0064171500D01*
X0007832582Y0064171500D01*
X0007214500Y0064789581D01*
X0007214500Y0067962918D01*
X0008181682Y0068930100D01*
X0008289123Y0068880000D01*
X0008179074Y0068828683D01*
X0008160053Y0068817701D01*
X0007977948Y0068690190D01*
X0007961124Y0068676072D01*
X0007803928Y0068518876D01*
X0007789810Y0068502052D01*
X0007662299Y0068319947D01*
X0007651317Y0068300926D01*
X0007557365Y0068099446D01*
X0007549853Y0068078807D01*
X0007492315Y0067864074D01*
X0007488501Y0067842444D01*
X0007469126Y0067620981D01*
X0007469126Y0067599019D01*
X0007488501Y0067377556D01*
X0007492315Y0067355926D01*
X0007549853Y0067141193D01*
X0007557365Y0067120554D01*
X0007651317Y0066919073D01*
X0007662299Y0066900053D01*
X0007789810Y0066717948D01*
X0007803928Y0066701123D01*
X0007961124Y0066543927D01*
X0007977948Y0066529810D01*
X0008160052Y0066402299D01*
X0008179073Y0066391317D01*
X0008380554Y0066297365D01*
X0008401193Y0066289852D01*
X0008615926Y0066232315D01*
X0008637556Y0066228500D01*
X0008859019Y0066209126D01*
X0008880981Y0066209126D01*
X0009100500Y0066228331D01*
X0009100500Y0065718767D01*
X0009098360Y0065696132D01*
X0009100500Y0065628055D01*
X0009100500Y0065600144D01*
X0009101493Y0065584354D01*
X0009102000Y0065580343D01*
X0009103389Y0065536152D01*
X0009108330Y0065504959D01*
X0009113981Y0065485507D01*
X0009116520Y0065465409D01*
X0009124374Y0065434819D01*
X0009140652Y0065393705D01*
X0009152985Y0065351254D01*
X0009165529Y0065322267D01*
X0009175841Y0065304831D01*
X0009183296Y0065286001D01*
X0009198511Y0065258323D01*
X0009224499Y0065222553D01*
X0009247005Y0065184498D01*
X0009266363Y0065159543D01*
X0009280684Y0065145222D01*
X0009292592Y0065128832D01*
X0009314212Y0065105807D01*
X0009348289Y0065077617D01*
X0010254906Y0064170999D01*
X0010199500Y0064170999D01*
X0010131379Y0064150998D01*
X0010084886Y0064097342D01*
X0010073500Y0064045000D01*
X0010073500Y0061579001D01*
X0010093502Y0061510880D01*
X0010147158Y0061464387D01*
X0010199500Y0061453001D01*
X0010333362Y0061453001D01*
X0010346365Y0061453674D01*
X0010452066Y0061464641D01*
X0010478939Y0061470444D01*
X0010646608Y0061526382D01*
X0010673035Y0061538762D01*
X0010823338Y0061631772D01*
X0010846208Y0061649899D01*
X0010930500Y0061734337D01*
X0010930500Y0058968767D01*
X0010928360Y0058946132D01*
X0010930500Y0058878055D01*
X0010930500Y0058850144D01*
X0010931493Y0058834354D01*
X0010932000Y0058830343D01*
X0010933389Y0058786152D01*
X0010938330Y0058754959D01*
X0010943981Y0058735507D01*
X0010946520Y0058715410D01*
X0010954374Y0058684819D01*
X0010970652Y0058643705D01*
X0010982985Y0058601254D01*
X0010995529Y0058572267D01*
X0011005841Y0058554831D01*
X0011013296Y0058536001D01*
X0011028511Y0058508323D01*
X0011054499Y0058472553D01*
X0011077005Y0058434498D01*
X0011096363Y0058409543D01*
X0011110684Y0058395222D01*
X0011122592Y0058378832D01*
X0011144212Y0058355807D01*
X0011178289Y0058327617D01*
X0012287248Y0057218658D01*
X0012301747Y0057201132D01*
X0012351414Y0057154492D01*
X0012371135Y0057134771D01*
X0012383007Y0057124303D01*
X0012386194Y0057121832D01*
X0012418426Y0057091564D01*
X0012443979Y0057072998D01*
X0012461730Y0057063240D01*
X0012477732Y0057050827D01*
X0012504917Y0057034751D01*
X0012545486Y0057017195D01*
X0012584240Y0056995890D01*
X0012613606Y0056984263D01*
X0012633226Y0056979226D01*
X0012651813Y0056971182D01*
X0012682143Y0056962370D01*
X0012725811Y0056955453D01*
X0012768636Y0056944458D01*
X0012799970Y0056940500D01*
X0012820224Y0056940500D01*
X0012840232Y0056937331D01*
X0012871801Y0056936339D01*
X0012915819Y0056940500D01*
X0014066898Y0056940500D01*
X0014059728Y0056913740D01*
X0014051997Y0056855019D01*
X0014062936Y0056784870D01*
X0014110064Y0056731772D01*
X0014176919Y0056712573D01*
X0014216431Y0056712573D01*
X0014243051Y0056677882D01*
X0014266309Y0056654624D01*
X0014287226Y0056638573D01*
X0014266308Y0056622522D01*
X0014243051Y0056599264D01*
X0014216431Y0056564572D01*
X0014176920Y0056564572D01*
X0014108799Y0056544571D01*
X0014072698Y0056502908D01*
X0013977917Y0056492946D01*
X0013950483Y0056486914D01*
X0013778774Y0056428460D01*
X0013753357Y0056416499D01*
X0013598866Y0056321455D01*
X0013576730Y0056304161D01*
X0013447135Y0056177251D01*
X0013429382Y0056155484D01*
X0013331124Y0056003017D01*
X0013318634Y0055977857D01*
X0013281904Y0055876943D01*
X0013195799Y0055887209D01*
X0013167709Y0055887406D01*
X0012987317Y0055868446D01*
X0012959883Y0055862414D01*
X0012788174Y0055803960D01*
X0012762757Y0055791999D01*
X0012608266Y0055696955D01*
X0012586130Y0055679660D01*
X0012456535Y0055552752D01*
X0012438782Y0055530984D01*
X0012340524Y0055378517D01*
X0012328034Y0055353357D01*
X0012265996Y0055182910D01*
X0012259391Y0055155607D01*
X0012236657Y0054975652D01*
X0012236264Y0054947565D01*
X0012253964Y0054767044D01*
X0012259805Y0054739568D01*
X0012317060Y0054567454D01*
X0012328842Y0054541956D01*
X0012422804Y0054386804D01*
X0012439943Y0054364549D01*
X0012565945Y0054234071D01*
X0012587589Y0054216166D01*
X0012739366Y0054116845D01*
X0012764439Y0054104181D01*
X0012934448Y0054040955D01*
X0012961703Y0054034159D01*
X0013141496Y0054010169D01*
X0013169581Y0054009581D01*
X0013350220Y0054026021D01*
X0013377736Y0054031669D01*
X0013428051Y0054048017D01*
X0013439159Y0054039401D01*
X0013466344Y0054023324D01*
X0013506913Y0054005768D01*
X0013545667Y0053984463D01*
X0013575033Y0053972836D01*
X0013594653Y0053967799D01*
X0013613240Y0053959755D01*
X0013643570Y0053950942D01*
X0013687238Y0053944026D01*
X0013730063Y0053933031D01*
X0013761397Y0053929073D01*
X0013781651Y0053929073D01*
X0013801659Y0053925904D01*
X0013833228Y0053924912D01*
X0013877246Y0053929073D01*
X0014042501Y0053929073D01*
X0014042501Y0053898688D01*
X0014043579Y0053882244D01*
X0014059240Y0053763278D01*
X0014067753Y0053731505D01*
X0014075181Y0053713573D01*
X0014067753Y0053695640D01*
X0014059240Y0053663869D01*
X0014043578Y0053544904D01*
X0014042500Y0053528458D01*
X0014042501Y0053248689D01*
X0014043579Y0053232244D01*
X0014059240Y0053113278D01*
X0014067753Y0053081505D01*
X0014129067Y0052933479D01*
X0014145514Y0052904992D01*
X0014243051Y0052777881D01*
X0014266309Y0052754624D01*
X0014393421Y0052657087D01*
X0014421907Y0052640640D01*
X0014569932Y0052579325D01*
X0014601704Y0052570813D01*
X0014720669Y0052555150D01*
X0014737115Y0052554073D01*
X0015653912Y0052554074D01*
X0015334339Y0052234500D01*
X0007208922Y0052234500D01*
X0007151218Y0052238434D01*
X0007120985Y0052236850D01*
X0007058028Y0052225862D01*
X0006994621Y0052218188D01*
X0006965220Y0052210968D01*
X0006958811Y0052208546D01*
X0006952054Y0052207367D01*
X0006923072Y0052198617D01*
X0006864560Y0052172933D01*
X0006804806Y0052150352D01*
X0006777976Y0052136326D01*
X0006772329Y0052132445D01*
X0006766051Y0052129689D01*
X0006739990Y0052114277D01*
X0006689303Y0052075382D01*
X0006636653Y0052039198D01*
X0006613943Y0052019176D01*
X0006572489Y0051972649D01*
X0005934340Y0051334500D01*
X0005081866Y0051334500D01*
X0005068258Y0051333763D01*
X0005006076Y0051327008D01*
X0004975454Y0051319727D01*
X0004839065Y0051268597D01*
X0004807730Y0051251441D01*
X0004691174Y0051164087D01*
X0004665913Y0051138826D01*
X0004664500Y0051136941D01*
X0004664500Y0051260406D01*
X0005165232Y0051761138D01*
X0005269248Y0051722455D01*
X0005296503Y0051715659D01*
X0005476296Y0051691669D01*
X0005504381Y0051691081D01*
X0005685020Y0051707521D01*
X0005712536Y0051713169D01*
X0005885044Y0051769220D01*
X0005910625Y0051780824D01*
X0006066429Y0051873702D01*
X0006088804Y0051890685D01*
X0006220158Y0052015772D01*
X0006238214Y0052037290D01*
X0006338591Y0052188371D01*
X0006351431Y0052213353D01*
X0006415843Y0052382918D01*
X0006422829Y0052410126D01*
X0006448073Y0052589747D01*
X0006449287Y0052605525D01*
X0006449604Y0052628242D01*
X0006448831Y0052644045D01*
X0006428612Y0052824300D01*
X0006422388Y0052851692D01*
X0006362736Y0053022988D01*
X0006350599Y0053048321D01*
X0006254480Y0053202145D01*
X0006237032Y0053224160D01*
X0006109221Y0053352866D01*
X0006087329Y0053370467D01*
X0005934180Y0053467658D01*
X0005908933Y0053479972D01*
X0005738057Y0053540818D01*
X0005710709Y0053547233D01*
X0005530599Y0053568709D01*
X0005502509Y0053568906D01*
X0005322117Y0053549946D01*
X0005294683Y0053543914D01*
X0005122974Y0053485460D01*
X0005097557Y0053473499D01*
X0004961718Y0053389930D01*
X0004948045Y0053389500D01*
X0004920144Y0053389500D01*
X0004904356Y0053388507D01*
X0004900353Y0053388001D01*
X0004856152Y0053386612D01*
X0004824957Y0053381671D01*
X0004805504Y0053376019D01*
X0004785412Y0053373481D01*
X0004754820Y0053365626D01*
X0004713710Y0053349350D01*
X0004671252Y0053337014D01*
X0004642267Y0053324471D01*
X0004624831Y0053314159D01*
X0004606001Y0053306704D01*
X0004578323Y0053291489D01*
X0004542553Y0053265501D01*
X0004504498Y0053242995D01*
X0004479543Y0053223637D01*
X0004465222Y0053209316D01*
X0004448832Y0053197407D01*
X0004425808Y0053175788D01*
X0004397622Y0053141717D01*
X0003540404Y0052284500D01*
X0002081866Y0052284500D01*
X0002068258Y0052283763D01*
X0002006076Y0052277007D01*
X0001975454Y0052269727D01*
X0001839065Y0052218597D01*
X0001807730Y0052201441D01*
X0001691174Y0052114087D01*
X0001665913Y0052088826D01*
X0001578559Y0051972270D01*
X0001561403Y0051940935D01*
X0001510273Y0051804546D01*
X0001502992Y0051773924D01*
X0001496237Y0051711742D01*
X0001495500Y0051698134D01*
X0001495500Y0050801866D01*
X0001496237Y0050788258D01*
X0001502992Y0050726076D01*
X0001510273Y0050695454D01*
X0001561403Y0050559065D01*
X0001578559Y0050527730D01*
X0001665913Y0050411174D01*
X0001691174Y0050385913D01*
X0001806224Y0050299687D01*
X0001691531Y0050213730D01*
X0001666270Y0050188469D01*
X0001579002Y0050072027D01*
X0001561846Y0050040692D01*
X0001510766Y0049904437D01*
X0001503485Y0049873815D01*
X0001496737Y0049811697D01*
X0001496000Y0049798089D01*
X0001496000Y0049604000D01*
X0001516002Y0049535879D01*
X0001569658Y0049489386D01*
X0001622000Y0049478000D01*
X0004537999Y0049478000D01*
X0004606120Y0049498002D01*
X0004623382Y0049517923D01*
X0004665913Y0049461174D01*
X0004691174Y0049435913D01*
X0004807730Y0049348559D01*
X0004839065Y0049331403D01*
X0004970500Y0049282130D01*
X0004970500Y0048029197D01*
X0004916177Y0048011073D01*
X0004889751Y0047998694D01*
X0004739349Y0047905622D01*
X0004716479Y0047887496D01*
X0004591522Y0047762321D01*
X0004579684Y0047747332D01*
X0004567101Y0047763208D01*
X0004442009Y0047888083D01*
X0004419107Y0047906170D01*
X0004268641Y0047998918D01*
X0004242193Y0048011251D01*
X0004074427Y0048066897D01*
X0004047601Y0048072648D01*
X0003943205Y0048083344D01*
X0003930363Y0048084000D01*
X0003796500Y0048084000D01*
X0003728379Y0048063998D01*
X0003681886Y0048010342D01*
X0003670500Y0047958000D01*
X0003670500Y0045492001D01*
X0003690502Y0045423880D01*
X0003744158Y0045377387D01*
X0003796500Y0045366001D01*
X0003930362Y0045366001D01*
X0003943365Y0045366674D01*
X0004049066Y0045377641D01*
X0004075939Y0045383444D01*
X0004243608Y0045439382D01*
X0004270035Y0045451762D01*
X0004420338Y0045544773D01*
X0004443208Y0045562899D01*
X0004568083Y0045687991D01*
X0004579674Y0045702667D01*
X0004592504Y0045686479D01*
X0004717679Y0045561522D01*
X0004740581Y0045543435D01*
X0004891146Y0045450625D01*
X0004917595Y0045438292D01*
X0005085472Y0045382610D01*
X0005112296Y0045376859D01*
X0005216757Y0045366156D01*
X0005229600Y0045365500D01*
X0006005400Y0045365500D01*
X0006018404Y0045366173D01*
X0006124170Y0045377147D01*
X0006151042Y0045382950D01*
X0006318822Y0045438926D01*
X0006345249Y0045451306D01*
X0006495651Y0045544378D01*
X0006518521Y0045562504D01*
X0006643478Y0045687679D01*
X0006661565Y0045710581D01*
X0006754375Y0045861146D01*
X0006766708Y0045887595D01*
X0006822390Y0046055472D01*
X0006828141Y0046082296D01*
X0006838844Y0046186757D01*
X0006839500Y0046199600D01*
X0006839500Y0047250400D01*
X0006838827Y0047263404D01*
X0006827853Y0047369170D01*
X0006822050Y0047396042D01*
X0006785577Y0047505364D01*
X0010111249Y0047505364D01*
X0010129651Y0047142103D01*
X0010131076Y0047128550D01*
X0010188603Y0046769401D01*
X0010191483Y0046756081D01*
X0010287460Y0046405246D01*
X0010291761Y0046392315D01*
X0010425068Y0046053897D01*
X0010430741Y0046041506D01*
X0010599816Y0045719465D01*
X0010606794Y0045707759D01*
X0010809661Y0045405861D01*
X0010817863Y0045394977D01*
X0010956231Y0045230661D01*
X0011015410Y0045191438D01*
X0011086399Y0045190436D01*
X0011141706Y0045222726D01*
X0013329885Y0047410905D01*
X0013363911Y0047473217D01*
X0013358846Y0047544032D01*
X0013329885Y0047589095D01*
X0011141810Y0049777170D01*
X0011079498Y0049811196D01*
X0011008683Y0049806131D01*
X0010956903Y0049769905D01*
X0010832626Y0049624394D01*
X0010824350Y0049613568D01*
X0010619380Y0049313094D01*
X0010612320Y0049301437D01*
X0010441001Y0048980583D01*
X0010435242Y0048968233D01*
X0010299576Y0048630755D01*
X0010295184Y0048617854D01*
X0010196759Y0048267697D01*
X0010193786Y0048254397D01*
X0010133754Y0047895658D01*
X0010132235Y0047882115D01*
X0010111297Y0047518992D01*
X0010111249Y0047505364D01*
X0006785577Y0047505364D01*
X0006766074Y0047563822D01*
X0006753694Y0047590249D01*
X0006660622Y0047740651D01*
X0006642495Y0047763521D01*
X0006639500Y0047766511D01*
X0006639500Y0049265500D01*
X0007078134Y0049265500D01*
X0007091742Y0049266237D01*
X0007153924Y0049272992D01*
X0007184546Y0049280273D01*
X0007320935Y0049331403D01*
X0007352270Y0049348559D01*
X0007468826Y0049435913D01*
X0007494087Y0049461174D01*
X0007581441Y0049577730D01*
X0007598597Y0049609065D01*
X0007649727Y0049745454D01*
X0007657008Y0049776076D01*
X0007663763Y0049838258D01*
X0007664500Y0049851866D01*
X0007664500Y0050565500D01*
X0011937790Y0050565500D01*
X0011654766Y0050396113D01*
X0011643468Y0050388492D01*
X0011353366Y0050169089D01*
X0011342956Y0050160293D01*
X0011323004Y0050141491D01*
X0011287146Y0050080215D01*
X0011290108Y0050009281D01*
X0011320323Y0049960697D01*
X0013510905Y0047770115D01*
X0013573217Y0047736089D01*
X0013644032Y0047741154D01*
X0013689095Y0047770115D01*
X0015880073Y0049961093D01*
X0015914099Y0050023405D01*
X0015909034Y0050094220D01*
X0015877713Y0050141583D01*
X0015866318Y0050152397D01*
X0015855937Y0050161232D01*
X0015566602Y0050381646D01*
X0015555331Y0050389306D01*
X0015263251Y0050565500D01*
X0015651088Y0050565500D01*
X0015708782Y0050561567D01*
X0015739015Y0050563151D01*
X0015801962Y0050574137D01*
X0015865379Y0050581811D01*
X0015894780Y0050589032D01*
X0015901189Y0050591454D01*
X0015907946Y0050592633D01*
X0015936930Y0050601384D01*
X0015995441Y0050627069D01*
X0016055193Y0050649647D01*
X0016082020Y0050663671D01*
X0016087670Y0050667554D01*
X0016093955Y0050670313D01*
X0016120010Y0050685723D01*
X0016170697Y0050724618D01*
X0016223347Y0050760802D01*
X0016246057Y0050780824D01*
X0016287510Y0050827351D01*
X0016966000Y0051505840D01*
X0016966000Y0048399684D01*
X0016908698Y0048606310D01*
X0016904352Y0048619226D01*
X0016769865Y0048957177D01*
X0016764147Y0048969548D01*
X0016593948Y0049290997D01*
X0016586931Y0049302678D01*
X0016383012Y0049603866D01*
X0016374772Y0049614721D01*
X0016243419Y0049769608D01*
X0016184104Y0049808625D01*
X0016113112Y0049809380D01*
X0016058228Y0049777208D01*
X0013870115Y0047589095D01*
X0013836089Y0047526783D01*
X0013841154Y0047455968D01*
X0013870115Y0047410905D01*
X0016058180Y0045222840D01*
X0016120491Y0045188814D01*
X0016191306Y0045193879D01*
X0016242799Y0045229770D01*
X0016359941Y0045365958D01*
X0016368255Y0045376756D01*
X0016574273Y0045676513D01*
X0016581373Y0045688145D01*
X0016753812Y0046008398D01*
X0016759615Y0046020729D01*
X0016896458Y0046357732D01*
X0016900894Y0046370617D01*
X0016966000Y0046599174D01*
X0016966000Y0044634000D01*
X0015585466Y0044634000D01*
X0015837304Y0044823085D01*
X0015847744Y0044831845D01*
X0015876308Y0044858575D01*
X0015912380Y0044919725D01*
X0015909665Y0044990670D01*
X0015879310Y0045039670D01*
X0013689095Y0047229885D01*
X0013626783Y0047263911D01*
X0013555968Y0047258846D01*
X0013510905Y0047229885D01*
X0011319502Y0045038482D01*
X0011285476Y0044976170D01*
X0011290541Y0044905355D01*
X0011321555Y0044858284D01*
X0011324449Y0044855519D01*
X0011334787Y0044846660D01*
X0011611930Y0044634000D01*
X0000634000Y0044634000D01*
X0000634000Y0046199638D01*
X0002321001Y0046199638D01*
X0002321674Y0046186635D01*
X0002332641Y0046080934D01*
X0002338444Y0046054061D01*
X0002394382Y0045886392D01*
X0002406762Y0045859965D01*
X0002499773Y0045709662D01*
X0002517899Y0045686792D01*
X0002642991Y0045561917D01*
X0002665893Y0045543830D01*
X0002816359Y0045451082D01*
X0002842807Y0045438749D01*
X0003010573Y0045383103D01*
X0003037399Y0045377352D01*
X0003141795Y0045366656D01*
X0003154637Y0045366000D01*
X0003288500Y0045366000D01*
X0003356621Y0045386002D01*
X0003403114Y0045439658D01*
X0003414500Y0045492000D01*
X0003414500Y0046471000D01*
X0003394498Y0046539121D01*
X0003340842Y0046585614D01*
X0003288500Y0046597000D01*
X0002447001Y0046597000D01*
X0002378880Y0046576998D01*
X0002332387Y0046523342D01*
X0002321001Y0046471000D01*
X0002321001Y0046199638D01*
X0000634000Y0046199638D01*
X0000634000Y0046979000D01*
X0002321000Y0046979000D01*
X0002341002Y0046910879D01*
X0002394658Y0046864386D01*
X0002447000Y0046853000D01*
X0003288500Y0046853000D01*
X0003356621Y0046873002D01*
X0003403114Y0046926658D01*
X0003414500Y0046979000D01*
X0003414500Y0047957999D01*
X0003394498Y0048026120D01*
X0003340842Y0048072613D01*
X0003288500Y0048083999D01*
X0003154638Y0048083999D01*
X0003141635Y0048083326D01*
X0003035934Y0048072359D01*
X0003009061Y0048066556D01*
X0002841392Y0048010618D01*
X0002814965Y0047998238D01*
X0002664662Y0047905227D01*
X0002641792Y0047887101D01*
X0002516917Y0047762009D01*
X0002498830Y0047739107D01*
X0002406082Y0047588641D01*
X0002393749Y0047562193D01*
X0002338103Y0047394427D01*
X0002332352Y0047367601D01*
X0002321656Y0047263205D01*
X0002321000Y0047250363D01*
X0002321000Y0046979000D01*
X0000634000Y0046979000D01*
X0000634000Y0048901912D01*
X0001496001Y0048901912D01*
X0001496738Y0048888307D01*
X0001503485Y0048826188D01*
X0001510766Y0048795563D01*
X0001561846Y0048659308D01*
X0001579002Y0048627973D01*
X0001666270Y0048511531D01*
X0001691531Y0048486270D01*
X0001807973Y0048399002D01*
X0001839308Y0048381846D01*
X0001975563Y0048330766D01*
X0002006185Y0048323485D01*
X0002068302Y0048316737D01*
X0002081910Y0048316000D01*
X0002826000Y0048316000D01*
X0002894121Y0048336002D01*
X0002940614Y0048389658D01*
X0002952000Y0048442000D01*
X0002952000Y0048442001D01*
X0003208000Y0048442001D01*
X0003228002Y0048373880D01*
X0003281658Y0048327387D01*
X0003334000Y0048316001D01*
X0004078088Y0048316001D01*
X0004091693Y0048316738D01*
X0004153812Y0048323485D01*
X0004184437Y0048330766D01*
X0004320692Y0048381846D01*
X0004352027Y0048399002D01*
X0004468469Y0048486270D01*
X0004493730Y0048511531D01*
X0004580998Y0048627973D01*
X0004598154Y0048659308D01*
X0004649234Y0048795563D01*
X0004656515Y0048826185D01*
X0004663263Y0048888303D01*
X0004664000Y0048901911D01*
X0004664000Y0049096000D01*
X0004643998Y0049164121D01*
X0004590342Y0049210614D01*
X0004538000Y0049222000D01*
X0003334000Y0049222000D01*
X0003265879Y0049201998D01*
X0003219386Y0049148342D01*
X0003208000Y0049096000D01*
X0003208000Y0048442001D01*
X0002952000Y0048442001D01*
X0002952000Y0049096000D01*
X0002931998Y0049164121D01*
X0002878342Y0049210614D01*
X0002826000Y0049222000D01*
X0001622001Y0049222000D01*
X0001553880Y0049201998D01*
X0001507387Y0049148342D01*
X0001496001Y0049096000D01*
X0001496001Y0048901912D01*
X0000634000Y0048901912D01*
X0000634000Y0071428570D01*
X0001766922Y0071428570D01*
X0001776702Y0071217275D01*
X0001780074Y0071193580D01*
X0001829632Y0070987945D01*
X0001837424Y0070965315D01*
X0001924973Y0070772762D01*
X0001936904Y0070752013D01*
X0002059284Y0070579489D01*
X0002074923Y0070561371D01*
X0002227719Y0070415101D01*
X0002246502Y0070400267D01*
X0002279258Y0070379116D01*
X0002159593Y0070285118D01*
X0002142261Y0070268613D01*
X0002003692Y0070108927D01*
X0001989793Y0070089441D01*
X0001883920Y0069906432D01*
X0001873956Y0069884670D01*
X0001804599Y0069684943D01*
X0001798930Y0069661685D01*
X0001797537Y0069652075D01*
X0001807560Y0069581790D01*
X0001853991Y0069528081D01*
X0001922234Y0069508000D01*
X0004633517Y0069508000D01*
X0004701638Y0069528002D01*
X0004748131Y0069581658D01*
X0004758235Y0069651932D01*
X0004756010Y0069663521D01*
X0004729893Y0069771891D01*
X0004722101Y0069794521D01*
X0004634592Y0069986988D01*
X0004622661Y0070007737D01*
X0004500336Y0070180183D01*
X0004484697Y0070198301D01*
X0004331970Y0070344505D01*
X0004313187Y0070359339D01*
X0004280770Y0070380270D01*
X0004400753Y0070474518D01*
X0004418085Y0070491024D01*
X0004556717Y0070650783D01*
X0004570616Y0070670268D01*
X0004676537Y0070853359D01*
X0004686501Y0070875121D01*
X0004755889Y0071074938D01*
X0004761557Y0071098191D01*
X0004791909Y0071307524D01*
X0004793078Y0071331430D01*
X0004783298Y0071542725D01*
X0004779926Y0071566420D01*
X0004730368Y0071772055D01*
X0004722576Y0071794685D01*
X0004635027Y0071987238D01*
X0004623096Y0072007987D01*
X0004500716Y0072180511D01*
X0004485077Y0072198629D01*
X0004389813Y0072289824D01*
X0004445651Y0072324378D01*
X0004468521Y0072342504D01*
X0004593478Y0072467679D01*
X0004611565Y0072490581D01*
X0004704375Y0072641146D01*
X0004716708Y0072667595D01*
X0004720497Y0072679018D01*
X0007469628Y0072679018D01*
X0007488996Y0072457642D01*
X0007492810Y0072436013D01*
X0007550325Y0072221364D01*
X0007557837Y0072200725D01*
X0007651752Y0071999325D01*
X0007662733Y0071980306D01*
X0007706971Y0071917126D01*
X0007762428Y0071872796D01*
X0007833047Y0071865486D01*
X0007899280Y0071900300D01*
X0008599885Y0072600905D01*
X0008633911Y0072663217D01*
X0008630080Y0072716782D01*
X0009106089Y0072716782D01*
X0009111154Y0072645968D01*
X0009140115Y0072600905D01*
X0009840720Y0071900300D01*
X0009903032Y0071866274D01*
X0009973847Y0071871339D01*
X0010033029Y0071917126D01*
X0010077267Y0071980306D01*
X0010088248Y0071999325D01*
X0010182163Y0072200725D01*
X0010189675Y0072221364D01*
X0010247190Y0072436013D01*
X0010251004Y0072457642D01*
X0010270372Y0072679018D01*
X0010270372Y0072700982D01*
X0010251004Y0072922358D01*
X0010247190Y0072943987D01*
X0010189675Y0073158636D01*
X0010182163Y0073179275D01*
X0010088248Y0073380675D01*
X0010077267Y0073399694D01*
X0010033029Y0073462874D01*
X0009977572Y0073507204D01*
X0009906953Y0073514514D01*
X0009840720Y0073479700D01*
X0009140115Y0072779095D01*
X0009106089Y0072716782D01*
X0008630080Y0072716782D01*
X0008628846Y0072734032D01*
X0008599885Y0072779095D01*
X0007899280Y0073479700D01*
X0007836968Y0073513726D01*
X0007766153Y0073508661D01*
X0007706971Y0073462874D01*
X0007662733Y0073399694D01*
X0007651752Y0073380675D01*
X0007557837Y0073179275D01*
X0007550325Y0073158636D01*
X0007492810Y0072943987D01*
X0007488996Y0072922358D01*
X0007469628Y0072700982D01*
X0007469628Y0072679018D01*
X0004720497Y0072679018D01*
X0004772390Y0072835472D01*
X0004778141Y0072862296D01*
X0004788844Y0072966757D01*
X0004789500Y0072979600D01*
X0004789500Y0073726953D01*
X0008045486Y0073726953D01*
X0008080299Y0073660720D01*
X0008780905Y0072960115D01*
X0008843217Y0072926089D01*
X0008914032Y0072931153D01*
X0008959095Y0072960115D01*
X0009659700Y0073660720D01*
X0009693726Y0073723032D01*
X0009688661Y0073793847D01*
X0009662271Y0073827957D01*
X0010444745Y0073827957D01*
X0010445821Y0073810851D01*
X0010483346Y0073525820D01*
X0010486734Y0073509018D01*
X0010562595Y0073231716D01*
X0010568232Y0073215529D01*
X0010681026Y0072951089D01*
X0010688807Y0072935818D01*
X0010836445Y0072689133D01*
X0010846227Y0072675058D01*
X0011025979Y0072450691D01*
X0011037580Y0072438075D01*
X0011246118Y0072240180D01*
X0011259325Y0072229255D01*
X0011492791Y0072061492D01*
X0011507358Y0072052460D01*
X0011761433Y0071917934D01*
X0011777091Y0071910962D01*
X0012047072Y0071812163D01*
X0012063531Y0071807380D01*
X0012344422Y0071746137D01*
X0012361378Y0071743633D01*
X0012586853Y0071725888D01*
X0012596739Y0071725500D01*
X0012752271Y0071725500D01*
X0012760841Y0071725792D01*
X0012975395Y0071740419D01*
X0012992376Y0071742745D01*
X0013273893Y0071801044D01*
X0013290402Y0071805653D01*
X0013561403Y0071901620D01*
X0013577133Y0071908427D01*
X0013832602Y0072040284D01*
X0013847263Y0072049163D01*
X0014082474Y0072214472D01*
X0014095794Y0072225259D01*
X0014306393Y0072420960D01*
X0014318126Y0072433454D01*
X0014500217Y0072655926D01*
X0014510146Y0072669897D01*
X0014660360Y0072915023D01*
X0014668300Y0072930213D01*
X0014783856Y0073193457D01*
X0014789662Y0073209583D01*
X0014868423Y0073486075D01*
X0014871987Y0073502841D01*
X0014912494Y0073787463D01*
X0014913749Y0073804556D01*
X0014915255Y0074092043D01*
X0014914179Y0074109149D01*
X0014876654Y0074394180D01*
X0014873266Y0074410982D01*
X0014797405Y0074688284D01*
X0014791768Y0074704471D01*
X0014678974Y0074968911D01*
X0014671193Y0074984182D01*
X0014523555Y0075230867D01*
X0014513773Y0075244942D01*
X0014334021Y0075469309D01*
X0014322420Y0075481925D01*
X0014113882Y0075679820D01*
X0014100675Y0075690745D01*
X0013867209Y0075858508D01*
X0013852642Y0075867540D01*
X0013598567Y0076002066D01*
X0013582909Y0076009038D01*
X0013312928Y0076107837D01*
X0013296469Y0076112619D01*
X0013015578Y0076173863D01*
X0012998622Y0076176367D01*
X0012773147Y0076194112D01*
X0012763261Y0076194500D01*
X0012607729Y0076194500D01*
X0012599159Y0076194208D01*
X0012384605Y0076179581D01*
X0012367624Y0076177255D01*
X0012086107Y0076118956D01*
X0012069598Y0076114347D01*
X0011798597Y0076018380D01*
X0011782867Y0076011573D01*
X0011527398Y0075879716D01*
X0011512737Y0075870837D01*
X0011277526Y0075705528D01*
X0011264206Y0075694741D01*
X0011053607Y0075499040D01*
X0011041874Y0075486546D01*
X0010859783Y0075264074D01*
X0010849854Y0075250103D01*
X0010699640Y0075004977D01*
X0010691700Y0074989787D01*
X0010576144Y0074726542D01*
X0010570338Y0074710417D01*
X0010491577Y0074433925D01*
X0010488013Y0074417159D01*
X0010447506Y0074132537D01*
X0010446251Y0074115444D01*
X0010444745Y0073827957D01*
X0009662271Y0073827957D01*
X0009642875Y0073853028D01*
X0009579696Y0073897266D01*
X0009560676Y0073908248D01*
X0009359275Y0074002163D01*
X0009338636Y0074009675D01*
X0009123987Y0074067190D01*
X0009102358Y0074071004D01*
X0008880982Y0074090372D01*
X0008859018Y0074090372D01*
X0008637642Y0074071004D01*
X0008616013Y0074067190D01*
X0008401364Y0074009675D01*
X0008380725Y0074002163D01*
X0008179325Y0073908248D01*
X0008160306Y0073897267D01*
X0008097125Y0073853028D01*
X0008052796Y0073797572D01*
X0008045486Y0073726953D01*
X0004789500Y0073726953D01*
X0004789500Y0073780400D01*
X0004788827Y0073793404D01*
X0004777853Y0073899170D01*
X0004772050Y0073926042D01*
X0004716074Y0074093822D01*
X0004703694Y0074120249D01*
X0004610622Y0074270651D01*
X0004592496Y0074293521D01*
X0004467321Y0074418478D01*
X0004444419Y0074436565D01*
X0004293854Y0074529375D01*
X0004267405Y0074541708D01*
X0004099528Y0074597390D01*
X0004072704Y0074603141D01*
X0003968243Y0074613844D01*
X0003955400Y0074614499D01*
X0002604600Y0074614499D01*
X0002591596Y0074613827D01*
X0002485830Y0074602853D01*
X0002458958Y0074597050D01*
X0002291178Y0074541074D01*
X0002264751Y0074528694D01*
X0002114349Y0074435622D01*
X0002091479Y0074417496D01*
X0001966522Y0074292321D01*
X0001948435Y0074269419D01*
X0001855625Y0074118854D01*
X0001843292Y0074092405D01*
X0001787610Y0073924528D01*
X0001781859Y0073897704D01*
X0001771156Y0073793243D01*
X0001770500Y0073780400D01*
X0001770500Y0072979600D01*
X0001771173Y0072966596D01*
X0001782147Y0072860830D01*
X0001787950Y0072833958D01*
X0001843926Y0072666178D01*
X0001856306Y0072639751D01*
X0001949378Y0072489349D01*
X0001967504Y0072466478D01*
X0002092679Y0072341522D01*
X0002115581Y0072323435D01*
X0002167120Y0072291665D01*
X0002159247Y0072285482D01*
X0002141915Y0072268976D01*
X0002003283Y0072109217D01*
X0001989384Y0072089732D01*
X0001883463Y0071906641D01*
X0001873499Y0071884879D01*
X0001804111Y0071685062D01*
X0001798443Y0071661809D01*
X0001768091Y0071452476D01*
X0001766922Y0071428570D01*
X0000634000Y0071428570D01*
X0000634000Y0077378866D01*
X0001675500Y0077378866D01*
X0001676237Y0077365258D01*
X0001682992Y0077303076D01*
X0001690273Y0077272454D01*
X0001741403Y0077136065D01*
X0001758559Y0077104730D01*
X0001845913Y0076988174D01*
X0001871174Y0076962913D01*
X0001987730Y0076875559D01*
X0002019065Y0076858403D01*
X0002155454Y0076807273D01*
X0002186076Y0076799992D01*
X0002248258Y0076793237D01*
X0002261866Y0076792500D01*
X0004058134Y0076792500D01*
X0004071742Y0076793237D01*
X0004133924Y0076799992D01*
X0004164545Y0076807273D01*
X0004300935Y0076858403D01*
X0004332270Y0076875559D01*
X0004448826Y0076962913D01*
X0004474087Y0076988174D01*
X0004561441Y0077104730D01*
X0004578597Y0077136065D01*
X0004629727Y0077272454D01*
X0004637008Y0077303076D01*
X0004643763Y0077365258D01*
X0004644500Y0077378866D01*
X0004644500Y0077976170D01*
X0011285476Y0077976170D01*
X0011290541Y0077905355D01*
X0011321555Y0077858284D01*
X0011324449Y0077855519D01*
X0011334787Y0077846660D01*
X0011623350Y0077625237D01*
X0011634595Y0077617537D01*
X0011945385Y0077428574D01*
X0011957395Y0077422134D01*
X0012286774Y0077267842D01*
X0012299409Y0077262737D01*
X0012643526Y0077144919D01*
X0012656639Y0077141209D01*
X0013011467Y0077061245D01*
X0013024904Y0077058972D01*
X0013386293Y0077017797D01*
X0013399897Y0077016989D01*
X0013763618Y0077015085D01*
X0013777230Y0077015750D01*
X0014139030Y0077053138D01*
X0014152490Y0077055270D01*
X0014508136Y0077131514D01*
X0014521287Y0077135087D01*
X0014866619Y0077249295D01*
X0014879307Y0077254268D01*
X0015210284Y0077405103D01*
X0015222361Y0077411417D01*
X0015535112Y0077597115D01*
X0015546437Y0077604696D01*
X0015837304Y0077823085D01*
X0015847744Y0077831845D01*
X0015876308Y0077858575D01*
X0015912380Y0077919725D01*
X0015909665Y0077990670D01*
X0015879310Y0078039670D01*
X0013689095Y0080229885D01*
X0013626783Y0080263911D01*
X0013555968Y0080258846D01*
X0013510905Y0080229885D01*
X0011319502Y0078038482D01*
X0011285476Y0077976170D01*
X0004644500Y0077976170D01*
X0004644500Y0079175134D01*
X0004643763Y0079188742D01*
X0004637008Y0079250924D01*
X0004629727Y0079281546D01*
X0004578597Y0079417935D01*
X0004561441Y0079449270D01*
X0004474087Y0079565826D01*
X0004448826Y0079591087D01*
X0004332270Y0079678441D01*
X0004300935Y0079695597D01*
X0004181917Y0079740215D01*
X0004286653Y0079844587D01*
X0004300035Y0079860311D01*
X0004430344Y0080041655D01*
X0004440979Y0080059354D01*
X0004539921Y0080259547D01*
X0004547522Y0080278745D01*
X0004612438Y0080492408D01*
X0004615239Y0080505364D01*
X0010111249Y0080505364D01*
X0010129651Y0080142103D01*
X0010131076Y0080128550D01*
X0010188603Y0079769401D01*
X0010191483Y0079756081D01*
X0010287460Y0079405246D01*
X0010291761Y0079392315D01*
X0010425068Y0079053897D01*
X0010430741Y0079041506D01*
X0010599816Y0078719465D01*
X0010606794Y0078707759D01*
X0010809661Y0078405861D01*
X0010817863Y0078394977D01*
X0010956231Y0078230661D01*
X0011015410Y0078191438D01*
X0011086399Y0078190436D01*
X0011141706Y0078222726D01*
X0013329885Y0080410905D01*
X0013363911Y0080473217D01*
X0013358846Y0080544032D01*
X0013329885Y0080589095D01*
X0011141810Y0082777170D01*
X0011079498Y0082811196D01*
X0011008683Y0082806131D01*
X0010956903Y0082769905D01*
X0010832626Y0082624394D01*
X0010824350Y0082613568D01*
X0010619380Y0082313094D01*
X0010612320Y0082301437D01*
X0010441001Y0081980583D01*
X0010435242Y0081968233D01*
X0010299576Y0081630755D01*
X0010295184Y0081617854D01*
X0010196759Y0081267697D01*
X0010193786Y0081254397D01*
X0010133754Y0080895658D01*
X0010132235Y0080882115D01*
X0010111297Y0080518992D01*
X0010111249Y0080505364D01*
X0004615239Y0080505364D01*
X0004616802Y0080512592D01*
X0004621273Y0080546555D01*
X0004610333Y0080616703D01*
X0004563205Y0080669802D01*
X0004496351Y0080689000D01*
X0001825110Y0080689000D01*
X0001756989Y0080668998D01*
X0001710496Y0080615342D01*
X0001700392Y0080545068D01*
X0001702193Y0080535299D01*
X0001736784Y0080381810D01*
X0001742958Y0080362107D01*
X0001826971Y0080155206D01*
X0001836281Y0080136775D01*
X0001952959Y0079946374D01*
X0001965155Y0079929712D01*
X0002111364Y0079760924D01*
X0002126116Y0079746477D01*
X0002135035Y0079739072D01*
X0002019065Y0079695597D01*
X0001987730Y0079678441D01*
X0001871174Y0079591087D01*
X0001845913Y0079565826D01*
X0001758559Y0079449270D01*
X0001741403Y0079417935D01*
X0001690273Y0079281546D01*
X0001682992Y0079250924D01*
X0001676237Y0079188742D01*
X0001675500Y0079175134D01*
X0001675500Y0077378866D01*
X0000634000Y0077378866D01*
X0000634000Y0081084410D01*
X0001696055Y0081084410D01*
X0001708693Y0081014547D01*
X0001757096Y0080962608D01*
X0001821339Y0080945000D01*
X0002906000Y0080945000D01*
X0002974121Y0080965002D01*
X0003020614Y0081018658D01*
X0003032000Y0081071000D01*
X0003288000Y0081071000D01*
X0003308002Y0081002879D01*
X0003361658Y0080956386D01*
X0003414000Y0080945000D01*
X0004496459Y0080945000D01*
X0004564580Y0080965002D01*
X0004611073Y0081018658D01*
X0004621177Y0081088932D01*
X0004618663Y0081101696D01*
X0004572159Y0081286833D01*
X0004565505Y0081306379D01*
X0004476462Y0081511165D01*
X0004466704Y0081529363D01*
X0004345409Y0081716857D01*
X0004332810Y0081733217D01*
X0004182521Y0081898382D01*
X0004167420Y0081912464D01*
X0003992173Y0082050865D01*
X0003974975Y0082062291D01*
X0003779477Y0082170212D01*
X0003760643Y0082178677D01*
X0003550144Y0082253219D01*
X0003530180Y0082258493D01*
X0003436096Y0082275252D01*
X0003365524Y0082267506D01*
X0003310342Y0082222836D01*
X0003288000Y0082151205D01*
X0003288000Y0081071000D01*
X0003032000Y0081071000D01*
X0003032000Y0082152013D01*
X0003011998Y0082220134D01*
X0002958342Y0082266627D01*
X0002886940Y0082276563D01*
X0002825148Y0082267107D01*
X0002805063Y0082262322D01*
X0002592805Y0082192946D01*
X0002573770Y0082184944D01*
X0002375694Y0082081832D01*
X0002358221Y0082070829D01*
X0002179645Y0081936750D01*
X0002164204Y0081923041D01*
X0002009925Y0081761597D01*
X0001996931Y0081745550D01*
X0001871091Y0081561076D01*
X0001860891Y0081543122D01*
X0001766871Y0081340572D01*
X0001759742Y0081321194D01*
X0001700065Y0081106008D01*
X0001696198Y0081085746D01*
X0001696055Y0081084410D01*
X0000634000Y0081084410D01*
X0000634000Y0083366000D01*
X0011613728Y0083366000D01*
X0011353366Y0083169089D01*
G37*
G04 #@! TD.AperFunction*
X0015405500Y0068102918D02*
X0015405500Y0064171500D01*
X0015145600Y0064171500D01*
X0015132596Y0064170827D01*
X0015026830Y0064159853D01*
X0014999958Y0064154050D01*
X0014832178Y0064098074D01*
X0014805751Y0064085694D01*
X0014655349Y0063992622D01*
X0014632479Y0063974496D01*
X0014507522Y0063849321D01*
X0014495684Y0063834332D01*
X0014483101Y0063850207D01*
X0014358009Y0063975083D01*
X0014335107Y0063993170D01*
X0014184641Y0064085917D01*
X0014158193Y0064098251D01*
X0013990427Y0064153897D01*
X0013963601Y0064159648D01*
X0013859205Y0064170344D01*
X0013846363Y0064170999D01*
X0013712500Y0064170999D01*
X0013644379Y0064150998D01*
X0013597886Y0064097342D01*
X0013586500Y0064045000D01*
X0013586500Y0062684000D01*
X0013330500Y0062684000D01*
X0013330500Y0064044999D01*
X0013310498Y0064113119D01*
X0013256842Y0064159613D01*
X0013214687Y0064168783D01*
X0013273893Y0064181044D01*
X0013290402Y0064185653D01*
X0013561403Y0064281620D01*
X0013577133Y0064288427D01*
X0013832602Y0064420283D01*
X0013847263Y0064429163D01*
X0014082474Y0064594471D01*
X0014095794Y0064605259D01*
X0014306393Y0064800960D01*
X0014318126Y0064813454D01*
X0014500217Y0065035926D01*
X0014510146Y0065049897D01*
X0014660360Y0065295023D01*
X0014668300Y0065310213D01*
X0014783856Y0065573457D01*
X0014789662Y0065589583D01*
X0014868423Y0065866074D01*
X0014871987Y0065882841D01*
X0014912494Y0066167463D01*
X0014913749Y0066184556D01*
X0014915255Y0066472043D01*
X0014914179Y0066489149D01*
X0014876654Y0066774180D01*
X0014873266Y0066790982D01*
X0014797405Y0067068284D01*
X0014791768Y0067084471D01*
X0014678974Y0067348911D01*
X0014671193Y0067364182D01*
X0014523555Y0067610867D01*
X0014513773Y0067624942D01*
X0014334021Y0067849309D01*
X0014322420Y0067861925D01*
X0014113882Y0068059820D01*
X0014100675Y0068070745D01*
X0013867209Y0068238508D01*
X0013852642Y0068247540D01*
X0013598567Y0068382066D01*
X0013582909Y0068389038D01*
X0013312928Y0068487837D01*
X0013296469Y0068492619D01*
X0013015578Y0068553863D01*
X0012998622Y0068556367D01*
X0012773147Y0068574112D01*
X0012763261Y0068574500D01*
X0012607729Y0068574500D01*
X0012599159Y0068574208D01*
X0012384605Y0068559581D01*
X0012367624Y0068557255D01*
X0012086107Y0068498956D01*
X0012069598Y0068494347D01*
X0011798597Y0068398380D01*
X0011782867Y0068391573D01*
X0011527398Y0068259716D01*
X0011512737Y0068250837D01*
X0011277526Y0068085528D01*
X0011264206Y0068074741D01*
X0011053607Y0067879040D01*
X0011041874Y0067866546D01*
X0010859783Y0067644074D01*
X0010849854Y0067630102D01*
X0010699640Y0067384976D01*
X0010691700Y0067369787D01*
X0010619500Y0067205311D01*
X0010619500Y0067211237D01*
X0010621639Y0067233867D01*
X0010619500Y0067301925D01*
X0010619500Y0067329856D01*
X0010618506Y0067345654D01*
X0010617999Y0067349664D01*
X0010616611Y0067393847D01*
X0010611670Y0067425041D01*
X0010606020Y0067444491D01*
X0010603480Y0067464591D01*
X0010595626Y0067495180D01*
X0010579352Y0067536284D01*
X0010567015Y0067578747D01*
X0010554472Y0067607732D01*
X0010544161Y0067625168D01*
X0010536704Y0067644001D01*
X0010521488Y0067671677D01*
X0010495510Y0067707434D01*
X0010472996Y0067745502D01*
X0010453637Y0067770458D01*
X0010439313Y0067784782D01*
X0010427408Y0067801168D01*
X0010405787Y0067824192D01*
X0010371722Y0067852373D01*
X0010206566Y0068017529D01*
X0010190146Y0068078808D01*
X0010182635Y0068099446D01*
X0010088683Y0068300926D01*
X0010077701Y0068319947D01*
X0009950190Y0068502052D01*
X0009936072Y0068518876D01*
X0009778876Y0068676072D01*
X0009762052Y0068690190D01*
X0009579948Y0068817701D01*
X0009560927Y0068828683D01*
X0009450877Y0068880000D01*
X0009560927Y0068931317D01*
X0009579948Y0068942299D01*
X0009598801Y0068955500D01*
X0014552918Y0068955500D01*
X0015405500Y0068102918D02*
X0014552918Y0068955500D01*
G04 #@! TA.AperFunction,Conductor*
G36*
X0015405500Y0068102918D02*
G01*
X0015405500Y0064171500D01*
X0015145600Y0064171500D01*
X0015132596Y0064170827D01*
X0015026830Y0064159853D01*
X0014999958Y0064154050D01*
X0014832178Y0064098074D01*
X0014805751Y0064085694D01*
X0014655349Y0063992622D01*
X0014632479Y0063974496D01*
X0014507522Y0063849321D01*
X0014495684Y0063834332D01*
X0014483101Y0063850207D01*
X0014358009Y0063975083D01*
X0014335107Y0063993170D01*
X0014184641Y0064085917D01*
X0014158193Y0064098251D01*
X0013990427Y0064153897D01*
X0013963601Y0064159648D01*
X0013859205Y0064170344D01*
X0013846363Y0064170999D01*
X0013712500Y0064170999D01*
X0013644379Y0064150998D01*
X0013597886Y0064097342D01*
X0013586500Y0064045000D01*
X0013586500Y0062684000D01*
X0013330500Y0062684000D01*
X0013330500Y0064044999D01*
X0013310498Y0064113119D01*
X0013256842Y0064159613D01*
X0013214687Y0064168783D01*
X0013273893Y0064181044D01*
X0013290402Y0064185653D01*
X0013561403Y0064281620D01*
X0013577133Y0064288427D01*
X0013832602Y0064420283D01*
X0013847263Y0064429163D01*
X0014082474Y0064594471D01*
X0014095794Y0064605259D01*
X0014306393Y0064800960D01*
X0014318126Y0064813454D01*
X0014500217Y0065035926D01*
X0014510146Y0065049897D01*
X0014660360Y0065295023D01*
X0014668300Y0065310213D01*
X0014783856Y0065573457D01*
X0014789662Y0065589583D01*
X0014868423Y0065866074D01*
X0014871987Y0065882841D01*
X0014912494Y0066167463D01*
X0014913749Y0066184556D01*
X0014915255Y0066472043D01*
X0014914179Y0066489149D01*
X0014876654Y0066774180D01*
X0014873266Y0066790982D01*
X0014797405Y0067068284D01*
X0014791768Y0067084471D01*
X0014678974Y0067348911D01*
X0014671193Y0067364182D01*
X0014523555Y0067610867D01*
X0014513773Y0067624942D01*
X0014334021Y0067849309D01*
X0014322420Y0067861925D01*
X0014113882Y0068059820D01*
X0014100675Y0068070745D01*
X0013867209Y0068238508D01*
X0013852642Y0068247540D01*
X0013598567Y0068382066D01*
X0013582909Y0068389038D01*
X0013312928Y0068487837D01*
X0013296469Y0068492619D01*
X0013015578Y0068553863D01*
X0012998622Y0068556367D01*
X0012773147Y0068574112D01*
X0012763261Y0068574500D01*
X0012607729Y0068574500D01*
X0012599159Y0068574208D01*
X0012384605Y0068559581D01*
X0012367624Y0068557255D01*
X0012086107Y0068498956D01*
X0012069598Y0068494347D01*
X0011798597Y0068398380D01*
X0011782867Y0068391573D01*
X0011527398Y0068259716D01*
X0011512737Y0068250837D01*
X0011277526Y0068085528D01*
X0011264206Y0068074741D01*
X0011053607Y0067879040D01*
X0011041874Y0067866546D01*
X0010859783Y0067644074D01*
X0010849854Y0067630102D01*
X0010699640Y0067384976D01*
X0010691700Y0067369787D01*
X0010619500Y0067205311D01*
X0010619500Y0067211237D01*
X0010621639Y0067233867D01*
X0010619500Y0067301925D01*
X0010619500Y0067329856D01*
X0010618506Y0067345654D01*
X0010617999Y0067349664D01*
X0010616611Y0067393847D01*
X0010611670Y0067425041D01*
X0010606020Y0067444491D01*
X0010603480Y0067464591D01*
X0010595626Y0067495180D01*
X0010579352Y0067536284D01*
X0010567015Y0067578747D01*
X0010554472Y0067607732D01*
X0010544161Y0067625168D01*
X0010536704Y0067644001D01*
X0010521488Y0067671677D01*
X0010495510Y0067707434D01*
X0010472996Y0067745502D01*
X0010453637Y0067770458D01*
X0010439313Y0067784782D01*
X0010427408Y0067801168D01*
X0010405787Y0067824192D01*
X0010371722Y0067852373D01*
X0010206566Y0068017529D01*
X0010190146Y0068078808D01*
X0010182635Y0068099446D01*
X0010088683Y0068300926D01*
X0010077701Y0068319947D01*
X0009950190Y0068502052D01*
X0009936072Y0068518876D01*
X0009778876Y0068676072D01*
X0009762052Y0068690190D01*
X0009579948Y0068817701D01*
X0009560927Y0068828683D01*
X0009450877Y0068880000D01*
X0009560927Y0068931317D01*
X0009579948Y0068942299D01*
X0009598801Y0068955500D01*
X0014552918Y0068955500D01*
X0015405500Y0068102918D01*
G37*
G04 #@! TD.AperFunction*
M02*