G04 #@! TF.GenerationSoftware,KiCad,Pcbnew,(6.0.1)*
G04 #@! TF.CreationDate,2022-07-05T00:42:15-07:00*
G04 #@! TF.ProjectId,mu100-dit,6d753130-302d-4646-9974-2e6b69636164,rev?*
G04 #@! TF.SameCoordinates,PX4a25ef0PY4c3f880*
G04 #@! TF.FileFunction,Legend,Top*
G04 #@! TF.FilePolarity,Positive*
%FSLAX46Y46*%
G04 Gerber Fmt 4.6, Leading zero omitted, Abs format (unit mm)*
G04 Created by KiCad (PCBNEW (6.0.1)) date 2022-07-05 00:42:15*
%MOMM*%
%LPD*%
G01*
G04 APERTURE LIST*
%ADD10C,0.15*%
%ADD11C,0.12*%
%ADD12C,0.05*%
G04 APERTURE END LIST*
D10*
X0001270000Y0076545000D02*
X0000750000Y0075615000D01*
X0001270000Y0076545000D02*
X0000230000Y0076545000D01*
X0000230000Y0076540000D02*
X0000750000Y0075610000D01*
X0006070095Y0081102000D02*
X0005974857Y0081149620D01*
X0005832000Y0081149620D01*
X0005689142Y0081102000D01*
X0005593904Y0081006762D01*
X0005546285Y0080911524D01*
X0005498666Y0080721048D01*
X0005498666Y0080578191D01*
X0005546285Y0080387715D01*
X0005593904Y0080292477D01*
X0005689142Y0080197239D01*
X0005832000Y0080149620D01*
X0005927238Y0080149620D01*
X0006070095Y0080197239D01*
X0006117714Y0080244858D01*
X0006117714Y0080578191D01*
X0005927238Y0080578191D01*
X0006546285Y0080149620D02*
X0006546285Y0081149620D01*
X0007117714Y0080149620D01*
X0007117714Y0081149620D01*
X0007593904Y0080149620D02*
X0007593904Y0081149620D01*
X0007832000Y0081149620D01*
X0007974857Y0081102000D01*
X0008070095Y0081006762D01*
X0008117713Y0080911524D01*
X0008165333Y0080721048D01*
X0008165333Y0080578191D01*
X0008117713Y0080387715D01*
X0008070095Y0080292477D01*
X0007974857Y0080197239D01*
X0007832000Y0080149620D01*
X0007593904Y0080149620D01*
X0001442142Y0082652143D02*
X0001406428Y0082616429D01*
X0001299285Y0082580715D01*
X0001227857Y0082580715D01*
X0001120714Y0082616429D01*
X0001049285Y0082687858D01*
X0001013571Y0082759286D01*
X0000977857Y0082902143D01*
X0000977857Y0083009286D01*
X0001013571Y0083152143D01*
X0001049285Y0083223572D01*
X0001120714Y0083295000D01*
X0001227857Y0083330715D01*
X0001299285Y0083330715D01*
X0001406428Y0083295000D01*
X0001442142Y0083259286D01*
X0001870714Y0082580715D02*
X0001799285Y0082616429D01*
X0001763571Y0082652143D01*
X0001727857Y0082723572D01*
X0001727857Y0082937858D01*
X0001763571Y0083009286D01*
X0001799285Y0083045000D01*
X0001870714Y0083080715D01*
X0001977857Y0083080715D01*
X0002049284Y0083045000D01*
X0002085000Y0083009286D01*
X0002120714Y0082937858D01*
X0002120714Y0082723572D01*
X0002085000Y0082652143D01*
X0002049284Y0082616429D01*
X0001977857Y0082580715D01*
X0001870714Y0082580715D01*
X0002763571Y0082580715D02*
X0002763571Y0082973572D01*
X0002727857Y0083045000D01*
X0002656428Y0083080715D01*
X0002513571Y0083080715D01*
X0002442142Y0083045000D01*
X0002763571Y0082616429D02*
X0002692142Y0082580715D01*
X0002513571Y0082580715D01*
X0002442142Y0082616429D01*
X0002406428Y0082687858D01*
X0002406428Y0082759286D01*
X0002442142Y0082830715D01*
X0002513571Y0082866429D01*
X0002692142Y0082866429D01*
X0002763571Y0082902143D01*
X0003049285Y0082580715D02*
X0003442142Y0083080715D01*
X0003049285Y0083080715D02*
X0003442142Y0082580715D01*
X0004513571Y0082295000D02*
X0004477857Y0082330715D01*
X0004406428Y0082437858D01*
X0004370714Y0082509286D01*
X0004335000Y0082616429D01*
X0004299285Y0082795000D01*
X0004299285Y0082937858D01*
X0004335000Y0083116429D01*
X0004370714Y0083223572D01*
X0004406428Y0083295000D01*
X0004477857Y0083402143D01*
X0004513571Y0083437858D01*
X0004942142Y0083330715D02*
X0005085000Y0083330715D01*
X0005156428Y0083295000D01*
X0005227857Y0083223572D01*
X0005263571Y0083080715D01*
X0005263571Y0082830715D01*
X0005227857Y0082687858D01*
X0005156428Y0082616429D01*
X0005085000Y0082580715D01*
X0004942142Y0082580715D01*
X0004870714Y0082616429D01*
X0004799285Y0082687858D01*
X0004763571Y0082830715D01*
X0004763571Y0083080715D01*
X0004799285Y0083223572D01*
X0004870714Y0083295000D01*
X0004942142Y0083330715D01*
X0005585000Y0082580715D02*
X0005585000Y0083330715D01*
X0005870714Y0083330715D01*
X0005942142Y0083295000D01*
X0005977857Y0083259286D01*
X0006013571Y0083187858D01*
X0006013571Y0083080715D01*
X0005977857Y0083009286D01*
X0005942142Y0082973572D01*
X0005870714Y0082937858D01*
X0005585000Y0082937858D01*
X0006227857Y0083330715D02*
X0006656428Y0083330715D01*
X0006442142Y0082580715D02*
X0006442142Y0083330715D01*
X0006906428Y0082652143D02*
X0006942142Y0082616429D01*
X0006906428Y0082580715D01*
X0006870714Y0082616429D01*
X0006906428Y0082652143D01*
X0006906428Y0082580715D01*
X0007192142Y0082295000D02*
X0007227857Y0082330715D01*
X0007299285Y0082437858D01*
X0007335000Y0082509286D01*
X0007370714Y0082616429D01*
X0007406428Y0082795000D01*
X0007406428Y0082937858D01*
X0007370714Y0083116429D01*
X0007335000Y0083223572D01*
X0007299285Y0083295000D01*
X0007227857Y0083402143D01*
X0007192142Y0083437858D01*
X0005911047Y0077930572D02*
X0005958666Y0077978191D01*
X0006053904Y0078025810D01*
X0006244380Y0077930572D01*
X0006339619Y0077978191D01*
X0006387238Y0078025810D01*
X0007463333Y0046317858D02*
X0007415714Y0046270239D01*
X0007272857Y0046222620D01*
X0007177619Y0046222620D01*
X0007034761Y0046270239D01*
X0006939523Y0046365477D01*
X0006891904Y0046460715D01*
X0006844285Y0046651191D01*
X0006844285Y0046794048D01*
X0006891904Y0046984524D01*
X0006939523Y0047079762D01*
X0007034761Y0047175000D01*
X0007177619Y0047222620D01*
X0007272857Y0047222620D01*
X0007415714Y0047175000D01*
X0007463333Y0047127381D01*
X0007796666Y0047222620D02*
X0008415714Y0047222620D01*
X0008082380Y0046841667D01*
X0008225237Y0046841667D01*
X0008320475Y0046794048D01*
X0008368095Y0046746429D01*
X0008415714Y0046651191D01*
X0008415714Y0046413096D01*
X0008368095Y0046317858D01*
X0008320475Y0046270239D01*
X0008225237Y0046222620D01*
X0007939523Y0046222620D01*
X0007844285Y0046270239D01*
X0007796666Y0046317858D01*
X0000626666Y0053057620D02*
X0000626666Y0052343334D01*
X0000579047Y0052200477D01*
X0000483809Y0052105239D01*
X0000340952Y0052057620D01*
X0000245714Y0052057620D01*
X0001626666Y0052057620D02*
X0001055238Y0052057620D01*
X0001340952Y0052057620D02*
X0001340952Y0053057620D01*
X0001245714Y0052914761D01*
X0001150476Y0052819524D01*
X0001055238Y0052771905D01*
X0011168095Y0052697620D02*
X0011168095Y0051888096D01*
X0011215714Y0051792858D01*
X0011263333Y0051745239D01*
X0011358571Y0051697620D01*
X0011549047Y0051697620D01*
X0011644285Y0051745239D01*
X0011691904Y0051792858D01*
X0011739523Y0051888096D01*
X0011739523Y0052697620D01*
X0012168095Y0052602381D02*
X0012215714Y0052650000D01*
X0012310952Y0052697620D01*
X0012549047Y0052697620D01*
X0012644285Y0052650000D01*
X0012691904Y0052602381D01*
X0012739523Y0052507143D01*
X0012739523Y0052411905D01*
X0012691904Y0052269048D01*
X0012120476Y0051697620D01*
X0012739523Y0051697620D01*
X0010668095Y0077417620D02*
X0010668095Y0076608096D01*
X0010715714Y0076512858D01*
X0010763333Y0076465239D01*
X0010858571Y0076417620D01*
X0011049047Y0076417620D01*
X0011144285Y0076465239D01*
X0011191904Y0076512858D01*
X0011239523Y0076608096D01*
X0011239523Y0077417620D01*
X0012239523Y0076417620D02*
X0011668095Y0076417620D01*
X0011953809Y0076417620D02*
X0011953809Y0077417620D01*
X0011858571Y0077274762D01*
X0011763333Y0077179524D01*
X0011668095Y0077131905D01*
X0017387142Y0062633334D02*
X0017434761Y0062585715D01*
X0017482380Y0062442858D01*
X0017482380Y0062347620D01*
X0017434761Y0062204762D01*
X0017339523Y0062109524D01*
X0017244285Y0062061904D01*
X0017053809Y0062014286D01*
X0016910952Y0062014286D01*
X0016720476Y0062061904D01*
X0016625238Y0062109524D01*
X0016530000Y0062204762D01*
X0016482380Y0062347620D01*
X0016482380Y0062442858D01*
X0016530000Y0062585715D01*
X0016577618Y0062633334D01*
X0016577618Y0063014286D02*
X0016530000Y0063061904D01*
X0016482380Y0063157143D01*
X0016482380Y0063395239D01*
X0016530000Y0063490477D01*
X0016577618Y0063538095D01*
X0016672857Y0063585715D01*
X0016768094Y0063585715D01*
X0016910952Y0063538095D01*
X0017482380Y0062966667D01*
X0017482380Y0063585715D01*
X0007568095Y0050697620D02*
X0007568095Y0049888096D01*
X0007615714Y0049792858D01*
X0007663333Y0049745239D01*
X0007758571Y0049697620D01*
X0007949047Y0049697620D01*
X0008044285Y0049745239D01*
X0008091904Y0049792858D01*
X0008139523Y0049888096D01*
X0008139523Y0050697620D01*
X0008520476Y0050697620D02*
X0009139523Y0050697620D01*
X0008806190Y0050316667D01*
X0008949047Y0050316667D01*
X0009044285Y0050269048D01*
X0009091904Y0050221429D01*
X0009139523Y0050126191D01*
X0009139523Y0049888096D01*
X0009091904Y0049792858D01*
X0009044285Y0049745239D01*
X0008949047Y0049697620D01*
X0008663333Y0049697620D01*
X0008568095Y0049745239D01*
X0008520476Y0049792858D01*
X0011937142Y0062645334D02*
X0011984761Y0062597715D01*
X0012032380Y0062454858D01*
X0012032380Y0062359620D01*
X0011984761Y0062216762D01*
X0011889523Y0062121524D01*
X0011794285Y0062073905D01*
X0011603809Y0062026286D01*
X0011460952Y0062026286D01*
X0011270476Y0062073905D01*
X0011175238Y0062121524D01*
X0011080000Y0062216762D01*
X0011032380Y0062359620D01*
X0011032380Y0062454858D01*
X0011080000Y0062597715D01*
X0011127619Y0062645334D01*
X0012032380Y0063597715D02*
X0012032380Y0063026286D01*
X0012032380Y0063312000D02*
X0011032380Y0063312000D01*
X0011175238Y0063216762D01*
X0011270476Y0063121524D01*
X0011318095Y0063026286D01*
D11*
X0004318748Y0047460000D02*
X0004841252Y0047460000D01*
X0004318748Y0045990000D02*
X0004841252Y0045990000D01*
X0001480000Y0056280000D02*
X0000980000Y0056280000D01*
X0000980000Y0070480000D02*
X0001480000Y0070480000D01*
X0000980000Y0056379999D02*
X0001480000Y0056379999D01*
X0000980000Y0062480000D02*
X0001480000Y0062480000D01*
X0002480000Y0053320000D02*
X0002480000Y0053930000D01*
X0005090000Y0072880000D02*
X0004480000Y0072880000D01*
X0000980000Y0066480000D02*
X0001480000Y0066480000D01*
X0001480000Y0066480000D02*
X0001480000Y0066280000D01*
X0001480000Y0062480000D02*
X0001480000Y0062280000D01*
X0000980000Y0056480000D02*
X0001480000Y0056480000D01*
X0001480000Y0070280000D02*
X0000980000Y0070280000D01*
X0001480000Y0060480000D02*
X0001480000Y0060280000D01*
X0000980000Y0058480000D02*
X0001480000Y0058480000D01*
X0000980000Y0072380000D02*
X0001480000Y0072380000D01*
X0001480000Y0066280000D02*
X0000980000Y0066280000D01*
X0001480000Y0056480000D02*
X0001480000Y0056280000D01*
X0000980000Y0062379999D02*
X0001480000Y0062379999D01*
X0000370000Y0053320000D02*
X0005090000Y0053320000D01*
X0005090000Y0075440000D02*
X0000370000Y0075440000D01*
X0000370000Y0075440000D02*
X0000370000Y0053320000D01*
X0001480000Y0072280000D02*
X0000980000Y0072280000D01*
X0005390000Y0075740000D02*
X0004139999Y0075740000D01*
X0003780000Y0075440000D02*
X0003780000Y0074830000D01*
X0000980000Y0068380000D02*
X0001480000Y0068380000D01*
X0001480000Y0062280000D02*
X0000980000Y0062280000D01*
X0001480000Y0058280000D02*
X0000980000Y0058280000D01*
X0000980000Y0064379999D02*
X0001480000Y0064379999D01*
X0000980000Y0070380000D02*
X0001480000Y0070380000D01*
X0000980000Y0058379999D02*
X0001480000Y0058379999D01*
X0001480000Y0064480000D02*
X0001480000Y0064280000D01*
X0000980000Y0072480000D02*
X0001480000Y0072480000D01*
X0001480000Y0058480000D02*
X0001480000Y0058280000D01*
X0000980000Y0074830000D02*
X0000980000Y0053930000D01*
X0001480000Y0068480000D02*
X0001480000Y0068280000D01*
X0001480000Y0072480000D02*
X0001480000Y0072280000D01*
X0000980000Y0068480000D02*
X0001480000Y0068480000D01*
X0004480000Y0072880000D02*
X0004480000Y0074830000D01*
X0001480000Y0060280000D02*
X0000980000Y0060280000D01*
X0005390000Y0074490000D02*
X0005390000Y0075740000D01*
X0005290000Y0073680000D02*
X0005290000Y0073980000D01*
X0002480000Y0075440000D02*
X0002480000Y0074830000D01*
X0000980000Y0060480000D02*
X0001480000Y0060480000D01*
X0003780000Y0053320000D02*
X0003780000Y0053930000D01*
X0000980000Y0053930000D02*
X0004480000Y0053930000D01*
X0004480000Y0074830000D02*
X0000980000Y0074830000D01*
X0001480000Y0064280000D02*
X0000980000Y0064280000D01*
X0001480000Y0070480000D02*
X0001480000Y0070280000D01*
X0000980000Y0064480000D02*
X0001480000Y0064480000D01*
X0005190000Y0073680000D02*
X0005190000Y0073980000D01*
X0005090000Y0053320000D02*
X0005090000Y0075440000D01*
X0004480000Y0055879999D02*
X0005090000Y0055879999D01*
X0001480000Y0068280000D02*
X0000980000Y0068280000D01*
X0000980000Y0060379999D02*
X0001480000Y0060379999D01*
X0000980000Y0066379999D02*
X0001480000Y0066379999D01*
X0005090000Y0073680000D02*
X0005290000Y0073680000D01*
X0004480000Y0053930000D02*
X0004480000Y0055879999D01*
X0005290000Y0073980000D02*
X0005090000Y0073980000D01*
X0011702000Y0052928573D02*
X0008652000Y0052928573D01*
X0011702000Y0052928573D02*
X0014752000Y0052928573D01*
X0011702000Y0060998573D02*
X0014752000Y0060998573D01*
X0011702000Y0060998573D02*
X0007252000Y0060998573D01*
D12*
X0017380000Y0076050000D02*
X0006280000Y0076050000D01*
X0006280000Y0076050000D02*
X0006280000Y0064250000D01*
X0006280000Y0064250000D02*
X0017380000Y0064250000D01*
X0017380000Y0064250000D02*
X0017380000Y0076050000D01*
D11*
X0014234748Y0063547000D02*
X0014757252Y0063547000D01*
X0014234748Y0062077000D02*
X0014757252Y0062077000D01*
X0005340000Y0048720000D02*
X0003880000Y0048720000D01*
X0005340000Y0048720000D02*
X0005340000Y0049650000D01*
X0005340000Y0051880000D02*
X0005340000Y0050950000D01*
X0005340000Y0051880000D02*
X0002180000Y0051880000D01*
X0009169252Y0062077000D02*
X0008646748Y0062077000D01*
X0009169252Y0063547000D02*
X0008646748Y0063547000D01*
X0004490000Y0082147000D02*
X0001830000Y0082147000D01*
X0004490000Y0078277000D02*
X0004490000Y0076947000D01*
X0001830000Y0079547000D02*
X0001830000Y0082147000D01*
X0004490000Y0076947000D02*
X0003160000Y0076947000D01*
X0004490000Y0079547000D02*
X0004490000Y0082147000D01*
X0004490000Y0079547000D02*
X0001830000Y0079547000D01*
M02*