%
M48
METRIC,000.000
T01C0.30
T02C0.40
T03C0.75
T04C0.80
T05C1.00
T06C3.20
%
T01
X005510Y052629
X006266Y059815
X010127Y056208
X010127Y054278
X010135Y055200
X010140Y057122
X013175Y054949
X013480Y058367
X014090Y061110
X014166Y055573
X014287Y059213
T02
X005100Y069070
X006310Y071410
X007220Y065200
X008250Y074320
X009450Y064670
X009910Y076030
X011320Y068600
X011380Y071250
T03
X003280Y073380
X003280Y071380
X003280Y069380
X003280Y067380
X003280Y065379
X003280Y063379
X003280Y061379
X003280Y059379
X003280Y057379
X003280Y055379
T04
X008870Y072690
X008870Y070150
X008870Y067610
T05
X003160Y080817
X003160Y078277
T06
X013600Y080500
X013600Y047500
M30