G04 #@! TF.GenerationSoftware,KiCad,Pcbnew,(6.0.1)*
G04 #@! TF.CreationDate,2022-07-05T00:40:55-07:00*
G04 #@! TF.ProjectId,mu100-dit-connector-board,6d753130-302d-4646-9974-2d636f6e6e65,rev?*
G04 #@! TF.SameCoordinates,PX4a615b8PY2b4db18*
G04 #@! TF.FileFunction,Soldermask,Bot*
G04 #@! TF.FilePolarity,Negative*
%FSLAX46Y46*%
G04 Gerber Fmt 4.6, Leading zero omitted, Abs format (unit mm)*
G04 Created by KiCad (PCBNEW (6.0.1)) date 2022-07-05 00:40:55*
%MOMM*%
%LPD*%
G01*
G04 APERTURE LIST*
G04 Aperture macros list*
%AMRoundRect*
4,1,4,2,3,4,5,6,7,8,9,2,3,0*
1,1,$1,$2,$3*
1,1,$1,$2,$3*
1,1,$1,$2,$3*
1,1,$1,$2,$3*
20,1,$1,$2,$3,$4,$5,0*
20,1,$1,$2,$3,$4,$5,0*
20,1,$1,$2,$3,$4,$5,0*
20,1,$1,$2,$3,$4,$5,0*%
G04 Aperture macros list end*
%AMCOMP69*
4,1,3,
-0.65,0.35,
-0.65,-0.35,
0.65,-0.35,
0.65,0.35,
0*
4,1,19,
-0.65,0.6,
-0.57274575140626316,0.58776412907378839,
-0.50305368692688179,0.55225424859373684,
-0.44774575140626316,0.49694631307311826,
-0.41223587092621161,0.42725424859373684,
-0.4,0.35,
-0.41223587092621161,0.27274575140626311,
-0.44774575140626316,0.20305368692688172,
-0.50305368692688168,0.14774575140626314,
-0.57274575140626316,0.1122358709262116,
-0.65,0.099999999999999978,
-0.727254248593737,0.1122358709262116,
-0.79694631307311825,0.14774575140626309,
-0.85225424859373689,0.20305368692688167,
-0.88776412907378843,0.27274575140626311,
-0.9,0.34999999999999992,
-0.88776412907378843,0.42725424859373679,
-0.85225424859373689,0.49694631307311821,
-0.79694631307311836,0.55225424859373684,
-0.72725424859373689,0.58776412907378839,
0*
4,1,19,
-0.65,-0.099999999999999978,
-0.57274575140626316,-0.1122358709262116,
-0.50305368692688179,-0.14774575140626311,
-0.44774575140626316,-0.20305368692688169,
-0.41223587092621161,-0.27274575140626311,
-0.4,-0.35,
-0.41223587092621161,-0.42725424859373684,
-0.44774575140626316,-0.49694631307311821,
-0.50305368692688168,-0.55225424859373684,
-0.57274575140626316,-0.58776412907378839,
-0.65,-0.6,
-0.727254248593737,-0.58776412907378839,
-0.79694631307311825,-0.55225424859373684,
-0.85225424859373689,-0.49694631307311832,
-0.88776412907378843,-0.42725424859373684,
-0.9,-0.35000000000000003,
-0.88776412907378843,-0.27274575140626317,
-0.85225424859373689,-0.20305368692688175,
-0.79694631307311836,-0.14774575140626314,
-0.72725424859373689,-0.1122358709262116,
0*
4,1,19,
0.65,-0.099999999999999978,
0.72725424859373689,-0.1122358709262116,
0.79694631307311825,-0.14774575140626311,
0.85225424859373689,-0.20305368692688169,
0.88776412907378843,-0.27274575140626311,
0.9,-0.35,
0.88776412907378843,-0.42725424859373684,
0.85225424859373689,-0.49694631307311821,
0.79694631307311836,-0.55225424859373684,
0.72725424859373689,-0.58776412907378839,
0.65,-0.6,
0.572745751406263,-0.58776412907378839,
0.50305368692688179,-0.55225424859373684,
0.44774575140626316,-0.49694631307311832,
0.41223587092621161,-0.42725424859373684,
0.4,-0.35000000000000003,
0.41223587092621161,-0.27274575140626317,
0.44774575140626316,-0.20305368692688175,
0.50305368692688168,-0.14774575140626314,
0.57274575140626316,-0.1122358709262116,
0*
4,1,19,
0.65,0.6,
0.72725424859373689,0.58776412907378839,
0.79694631307311825,0.55225424859373684,
0.85225424859373689,0.49694631307311826,
0.88776412907378843,0.42725424859373684,
0.9,0.35,
0.88776412907378843,0.27274575140626311,
0.85225424859373689,0.20305368692688172,
0.79694631307311836,0.14774575140626314,
0.72725424859373689,0.1122358709262116,
0.65,0.099999999999999978,
0.572745751406263,0.1122358709262116,
0.50305368692688179,0.14774575140626309,
0.44774575140626316,0.20305368692688167,
0.41223587092621161,0.27274575140626311,
0.4,0.34999999999999992,
0.41223587092621161,0.42725424859373679,
0.44774575140626316,0.49694631307311821,
0.50305368692688168,0.55225424859373684,
0.57274575140626316,0.58776412907378839,
0*
4,1,3,
-0.9,0.35,
-0.4,0.35,
-0.4,-0.35,
-0.9,-0.35,
0*
4,1,3,
-0.65,-0.6,
-0.65,-0.099999999999999978,
0.65,-0.099999999999999978,
0.65,-0.6,
0*
4,1,3,
0.9,-0.35,
0.4,-0.35,
0.4,0.35,
0.9,0.35,
0*
4,1,3,
0.65,0.6,
0.65,0.099999999999999978,
-0.65,0.099999999999999978,
-0.65,0.6,
0*%
%ADD10COMP69,0.25X-0.65X0.35X-0.65X-0.35X0.65X-0.35X0.65X0.35X0*%
%ADD11O,1.8X1.2*%
%AMCOMP70*
4,1,3,
0.625,-0.35,
0.625,0.35,
-0.625,0.35,
-0.625,-0.35,
0*
4,1,19,
0.625,-0.099999999999999978,
0.70225424859373686,-0.1122358709262116,
0.77194631307311834,-0.14774575140626311,
0.82725424859373686,-0.20305368692688169,
0.86276412907378841,-0.27274575140626311,
0.875,-0.35,
0.86276412907378841,-0.42725424859373684,
0.82725424859373686,-0.49694631307311821,
0.77194631307311834,-0.55225424859373684,
0.70225424859373686,-0.58776412907378839,
0.625,-0.6,
0.547745751406263,-0.58776412907378839,
0.47805368692688177,-0.55225424859373684,
0.42274575140626314,-0.49694631307311832,
0.38723587092621159,-0.42725424859373684,
0.375,-0.35000000000000003,
0.38723587092621159,-0.27274575140626317,
0.42274575140626314,-0.20305368692688175,
0.47805368692688166,-0.14774575140626314,
0.54774575140626314,-0.1122358709262116,
0*
4,1,19,
0.625,0.6,
0.70225424859373686,0.58776412907378839,
0.77194631307311834,0.55225424859373684,
0.82725424859373686,0.49694631307311826,
0.86276412907378841,0.42725424859373684,
0.875,0.35,
0.86276412907378841,0.27274575140626311,
0.82725424859373686,0.20305368692688172,
0.77194631307311834,0.14774575140626314,
0.70225424859373686,0.1122358709262116,
0.625,0.099999999999999978,
0.547745751406263,0.1122358709262116,
0.47805368692688177,0.14774575140626309,
0.42274575140626314,0.20305368692688167,
0.38723587092621159,0.27274575140626311,
0.375,0.34999999999999992,
0.38723587092621159,0.42725424859373679,
0.42274575140626314,0.49694631307311821,
0.47805368692688166,0.55225424859373684,
0.54774575140626314,0.58776412907378839,
0*
4,1,19,
-0.625,0.6,
-0.54774575140626314,0.58776412907378839,
-0.47805368692688172,0.55225424859373684,
-0.42274575140626314,0.49694631307311826,
-0.38723587092621159,0.42725424859373684,
-0.375,0.35,
-0.38723587092621159,0.27274575140626311,
-0.42274575140626314,0.20305368692688172,
-0.47805368692688166,0.14774575140626314,
-0.54774575140626314,0.1122358709262116,
-0.625,0.099999999999999978,
-0.702254248593737,0.1122358709262116,
-0.77194631307311823,0.14774575140626309,
-0.82725424859373686,0.20305368692688167,
-0.86276412907378841,0.27274575140626311,
-0.875,0.34999999999999992,
-0.86276412907378841,0.42725424859373679,
-0.82725424859373686,0.49694631307311821,
-0.77194631307311834,0.55225424859373684,
-0.70225424859373686,0.58776412907378839,
0*
4,1,19,
-0.625,-0.099999999999999978,
-0.54774575140626314,-0.1122358709262116,
-0.47805368692688172,-0.14774575140626311,
-0.42274575140626314,-0.20305368692688169,
-0.38723587092621159,-0.27274575140626311,
-0.375,-0.35,
-0.38723587092621159,-0.42725424859373684,
-0.42274575140626314,-0.49694631307311821,
-0.47805368692688166,-0.55225424859373684,
-0.54774575140626314,-0.58776412907378839,
-0.625,-0.6,
-0.702254248593737,-0.58776412907378839,
-0.77194631307311823,-0.55225424859373684,
-0.82725424859373686,-0.49694631307311832,
-0.86276412907378841,-0.42725424859373684,
-0.875,-0.35000000000000003,
-0.86276412907378841,-0.27274575140626317,
-0.82725424859373686,-0.20305368692688175,
-0.77194631307311834,-0.14774575140626314,
-0.70225424859373686,-0.1122358709262116,
0*
4,1,3,
0.875,-0.35,
0.375,-0.35,
0.375,0.35,
0.875,0.35,
0*
4,1,3,
0.625,0.6,
0.625,0.099999999999999978,
-0.625,0.099999999999999978,
-0.625,0.6,
0*
4,1,3,
-0.875,0.35,
-0.375,0.35,
-0.375,-0.35,
-0.875,-0.35,
0*
4,1,3,
-0.625,-0.6,
-0.625,-0.099999999999999978,
0.625,-0.099999999999999978,
0.625,-0.6,
0*%
%ADD12COMP70,0.25X0.625X-0.35X0.625X0.35X-0.625X0.35X-0.625X-0.35X0*%
%ADD13O,1.75X1.2*%
%ADD14R,1.35X1.35*%
%ADD15O,1.35X1.35*%
G04 APERTURE END LIST*
D10*
X0020000000Y0084000000D02*
X0024855000Y0080165000D03*
D11*
X0024855000Y0078165000D03*
X0024855000Y0076165000D03*
X0024855000Y0074164999D03*
X0024855000Y0072164999D03*
X0024855000Y0070164999D03*
X0024855000Y0068164999D03*
X0024855000Y0066164999D03*
X0024855000Y0064164999D03*
X0024855000Y0062165000D03*
X0024855000Y0060165000D03*
X0024855000Y0058165000D03*
X0024855000Y0056165000D03*
X0024855000Y0054165000D03*
X0024855000Y0052165000D03*
X0024855000Y0050165000D03*
X0024855000Y0048165000D03*
D12*
X0032814999Y0055175000D03*
D13*
X0032814999Y0057175000D03*
X0032814999Y0059175000D03*
X0032814999Y0061175000D03*
X0032814999Y0063175000D03*
X0032814999Y0065175000D03*
X0032814999Y0067175000D03*
X0032814999Y0069175000D03*
X0032814999Y0071175000D03*
X0032814999Y0073175000D03*
D14*
X0021995000Y0080165000D03*
D15*
X0021995000Y0078165000D03*
X0021995000Y0076165000D03*
X0021995000Y0074164999D03*
X0021995000Y0072164999D03*
X0021995000Y0070164999D03*
X0021995000Y0068164999D03*
X0021995000Y0066164999D03*
X0021995000Y0064164999D03*
X0021995000Y0062165000D03*
X0021995000Y0060165000D03*
X0021995000Y0058165000D03*
X0021995000Y0056165000D03*
X0021995000Y0054165000D03*
X0021995000Y0052165000D03*
X0021995000Y0050165000D03*
X0021995000Y0048165000D03*
M02*