G04 #@! TF.GenerationSoftware,KiCad,Pcbnew,(6.0.1)*
G04 #@! TF.CreationDate,2022-07-05T00:40:55-07:00*
G04 #@! TF.ProjectId,mu100-dit-connector-board,6d753130-302d-4646-9974-2d636f6e6e65,rev?*
G04 #@! TF.SameCoordinates,PX4a615b8PY2b4db18*
G04 #@! TF.FileFunction,Copper,L1,Top*
G04 #@! TF.FilePolarity,Positive*
%FSLAX46Y46*%
G04 Gerber Fmt 4.6, Leading zero omitted, Abs format (unit mm)*
G04 Created by KiCad (PCBNEW (6.0.1)) date 2022-07-05 00:40:55*
%MOMM*%
%LPD*%
G01*
G04 APERTURE LIST*
G04 Aperture macros list*
%AMRoundRect*
4,1,4,2,3,4,5,6,7,8,9,2,3,0*
1,1,$1,$2,$3*
1,1,$1,$2,$3*
1,1,$1,$2,$3*
1,1,$1,$2,$3*
20,1,$1,$2,$3,$4,$5,0*
20,1,$1,$2,$3,$4,$5,0*
20,1,$1,$2,$3,$4,$5,0*
20,1,$1,$2,$3,$4,$5,0*%
G04 Aperture macros list end*
G04 #@! TA.AperFunction,ComponentPad*
%AMCOMP71*
4,1,3,
-0.65,0.35,
-0.65,-0.35,
0.65,-0.35,
0.65,0.35,
0*
4,1,19,
-0.65,0.6,
-0.57274575140626316,0.58776412907378839,
-0.50305368692688179,0.55225424859373684,
-0.44774575140626316,0.49694631307311826,
-0.41223587092621161,0.42725424859373684,
-0.4,0.35,
-0.41223587092621161,0.27274575140626311,
-0.44774575140626316,0.20305368692688172,
-0.50305368692688168,0.14774575140626314,
-0.57274575140626316,0.1122358709262116,
-0.65,0.099999999999999978,
-0.727254248593737,0.1122358709262116,
-0.79694631307311825,0.14774575140626309,
-0.85225424859373689,0.20305368692688167,
-0.88776412907378843,0.27274575140626311,
-0.9,0.34999999999999992,
-0.88776412907378843,0.42725424859373679,
-0.85225424859373689,0.49694631307311821,
-0.79694631307311836,0.55225424859373684,
-0.72725424859373689,0.58776412907378839,
0*
4,1,19,
-0.65,-0.099999999999999978,
-0.57274575140626316,-0.1122358709262116,
-0.50305368692688179,-0.14774575140626311,
-0.44774575140626316,-0.20305368692688169,
-0.41223587092621161,-0.27274575140626311,
-0.4,-0.35,
-0.41223587092621161,-0.42725424859373684,
-0.44774575140626316,-0.49694631307311821,
-0.50305368692688168,-0.55225424859373684,
-0.57274575140626316,-0.58776412907378839,
-0.65,-0.6,
-0.727254248593737,-0.58776412907378839,
-0.79694631307311825,-0.55225424859373684,
-0.85225424859373689,-0.49694631307311832,
-0.88776412907378843,-0.42725424859373684,
-0.9,-0.35000000000000003,
-0.88776412907378843,-0.27274575140626317,
-0.85225424859373689,-0.20305368692688175,
-0.79694631307311836,-0.14774575140626314,
-0.72725424859373689,-0.1122358709262116,
0*
4,1,19,
0.65,-0.099999999999999978,
0.72725424859373689,-0.1122358709262116,
0.79694631307311825,-0.14774575140626311,
0.85225424859373689,-0.20305368692688169,
0.88776412907378843,-0.27274575140626311,
0.9,-0.35,
0.88776412907378843,-0.42725424859373684,
0.85225424859373689,-0.49694631307311821,
0.79694631307311836,-0.55225424859373684,
0.72725424859373689,-0.58776412907378839,
0.65,-0.6,
0.572745751406263,-0.58776412907378839,
0.50305368692688179,-0.55225424859373684,
0.44774575140626316,-0.49694631307311832,
0.41223587092621161,-0.42725424859373684,
0.4,-0.35000000000000003,
0.41223587092621161,-0.27274575140626317,
0.44774575140626316,-0.20305368692688175,
0.50305368692688168,-0.14774575140626314,
0.57274575140626316,-0.1122358709262116,
0*
4,1,19,
0.65,0.6,
0.72725424859373689,0.58776412907378839,
0.79694631307311825,0.55225424859373684,
0.85225424859373689,0.49694631307311826,
0.88776412907378843,0.42725424859373684,
0.9,0.35,
0.88776412907378843,0.27274575140626311,
0.85225424859373689,0.20305368692688172,
0.79694631307311836,0.14774575140626314,
0.72725424859373689,0.1122358709262116,
0.65,0.099999999999999978,
0.572745751406263,0.1122358709262116,
0.50305368692688179,0.14774575140626309,
0.44774575140626316,0.20305368692688167,
0.41223587092621161,0.27274575140626311,
0.4,0.34999999999999992,
0.41223587092621161,0.42725424859373679,
0.44774575140626316,0.49694631307311821,
0.50305368692688168,0.55225424859373684,
0.57274575140626316,0.58776412907378839,
0*
4,1,3,
-0.9,0.35,
-0.4,0.35,
-0.4,-0.35,
-0.9,-0.35,
0*
4,1,3,
-0.65,-0.6,
-0.65,-0.099999999999999978,
0.65,-0.099999999999999978,
0.65,-0.6,
0*
4,1,3,
0.9,-0.35,
0.4,-0.35,
0.4,0.35,
0.9,0.35,
0*
4,1,3,
0.65,0.6,
0.65,0.099999999999999978,
-0.65,0.099999999999999978,
-0.65,0.6,
0*%
%ADD10COMP71,0.25X-0.65X0.35X-0.65X-0.35X0.65X-0.35X0.65X0.35X0*%
G04 #@! TD*
G04 #@! TA.AperFunction,ComponentPad*
%ADD11O,1.8X1.2*%
G04 #@! TD*
G04 #@! TA.AperFunction,ComponentPad*
%AMCOMP72*
4,1,3,
0.625,-0.35,
0.625,0.35,
-0.625,0.35,
-0.625,-0.35,
0*
4,1,19,
0.625,-0.099999999999999978,
0.70225424859373686,-0.1122358709262116,
0.77194631307311834,-0.14774575140626311,
0.82725424859373686,-0.20305368692688169,
0.86276412907378841,-0.27274575140626311,
0.875,-0.35,
0.86276412907378841,-0.42725424859373684,
0.82725424859373686,-0.49694631307311821,
0.77194631307311834,-0.55225424859373684,
0.70225424859373686,-0.58776412907378839,
0.625,-0.6,
0.547745751406263,-0.58776412907378839,
0.47805368692688177,-0.55225424859373684,
0.42274575140626314,-0.49694631307311832,
0.38723587092621159,-0.42725424859373684,
0.375,-0.35000000000000003,
0.38723587092621159,-0.27274575140626317,
0.42274575140626314,-0.20305368692688175,
0.47805368692688166,-0.14774575140626314,
0.54774575140626314,-0.1122358709262116,
0*
4,1,19,
0.625,0.6,
0.70225424859373686,0.58776412907378839,
0.77194631307311834,0.55225424859373684,
0.82725424859373686,0.49694631307311826,
0.86276412907378841,0.42725424859373684,
0.875,0.35,
0.86276412907378841,0.27274575140626311,
0.82725424859373686,0.20305368692688172,
0.77194631307311834,0.14774575140626314,
0.70225424859373686,0.1122358709262116,
0.625,0.099999999999999978,
0.547745751406263,0.1122358709262116,
0.47805368692688177,0.14774575140626309,
0.42274575140626314,0.20305368692688167,
0.38723587092621159,0.27274575140626311,
0.375,0.34999999999999992,
0.38723587092621159,0.42725424859373679,
0.42274575140626314,0.49694631307311821,
0.47805368692688166,0.55225424859373684,
0.54774575140626314,0.58776412907378839,
0*
4,1,19,
-0.625,0.6,
-0.54774575140626314,0.58776412907378839,
-0.47805368692688172,0.55225424859373684,
-0.42274575140626314,0.49694631307311826,
-0.38723587092621159,0.42725424859373684,
-0.375,0.35,
-0.38723587092621159,0.27274575140626311,
-0.42274575140626314,0.20305368692688172,
-0.47805368692688166,0.14774575140626314,
-0.54774575140626314,0.1122358709262116,
-0.625,0.099999999999999978,
-0.702254248593737,0.1122358709262116,
-0.77194631307311823,0.14774575140626309,
-0.82725424859373686,0.20305368692688167,
-0.86276412907378841,0.27274575140626311,
-0.875,0.34999999999999992,
-0.86276412907378841,0.42725424859373679,
-0.82725424859373686,0.49694631307311821,
-0.77194631307311834,0.55225424859373684,
-0.70225424859373686,0.58776412907378839,
0*
4,1,19,
-0.625,-0.099999999999999978,
-0.54774575140626314,-0.1122358709262116,
-0.47805368692688172,-0.14774575140626311,
-0.42274575140626314,-0.20305368692688169,
-0.38723587092621159,-0.27274575140626311,
-0.375,-0.35,
-0.38723587092621159,-0.42725424859373684,
-0.42274575140626314,-0.49694631307311821,
-0.47805368692688166,-0.55225424859373684,
-0.54774575140626314,-0.58776412907378839,
-0.625,-0.6,
-0.702254248593737,-0.58776412907378839,
-0.77194631307311823,-0.55225424859373684,
-0.82725424859373686,-0.49694631307311832,
-0.86276412907378841,-0.42725424859373684,
-0.875,-0.35000000000000003,
-0.86276412907378841,-0.27274575140626317,
-0.82725424859373686,-0.20305368692688175,
-0.77194631307311834,-0.14774575140626314,
-0.70225424859373686,-0.1122358709262116,
0*
4,1,3,
0.875,-0.35,
0.375,-0.35,
0.375,0.35,
0.875,0.35,
0*
4,1,3,
0.625,0.6,
0.625,0.099999999999999978,
-0.625,0.099999999999999978,
-0.625,0.6,
0*
4,1,3,
-0.875,0.35,
-0.375,0.35,
-0.375,-0.35,
-0.875,-0.35,
0*
4,1,3,
-0.625,-0.6,
-0.625,-0.099999999999999978,
0.625,-0.099999999999999978,
0.625,-0.6,
0*%
%ADD12COMP72,0.25X0.625X-0.35X0.625X0.35X-0.625X0.35X-0.625X-0.35X0*%
G04 #@! TD*
G04 #@! TA.AperFunction,ComponentPad*
%ADD13O,1.75X1.2*%
G04 #@! TD*
G04 #@! TA.AperFunction,SMDPad,CuDef*
%AMCOMP73*
4,1,3,
-0.35,-0.45,
0.35,-0.45,
0.35,0.45,
-0.35,0.45,
0*
4,1,19,
-0.35,-0.2,
-0.27274575140626311,-0.21223587092621163,
-0.20305368692688169,-0.24774575140626315,
-0.14774575140626311,-0.30305368692688173,
-0.1122358709262116,-0.37274575140626315,
-0.099999999999999978,-0.45,
-0.11223587092621157,-0.52725424859373682,
-0.14774575140626311,-0.5969463130731183,
-0.20305368692688167,-0.65225424859373682,
-0.27274575140626311,-0.68776412907378837,
-0.34999999999999992,-0.7,
-0.4272542485937369,-0.68776412907378837,
-0.49694631307311821,-0.65225424859373693,
-0.55225424859373684,-0.5969463130731183,
-0.58776412907378839,-0.52725424859373693,
-0.6,-0.45000000000000007,
-0.58776412907378839,-0.3727457514062632,
-0.55225424859373684,-0.30305368692688178,
-0.49694631307311832,-0.24774575140626318,
-0.4272542485937369,-0.21223587092621163,
0*
4,1,19,
0.35,-0.2,
0.42725424859373684,-0.21223587092621163,
0.49694631307311826,-0.24774575140626315,
0.55225424859373684,-0.30305368692688173,
0.58776412907378839,-0.37274575140626315,
0.6,-0.45,
0.58776412907378839,-0.52725424859373682,
0.55225424859373684,-0.5969463130731183,
0.49694631307311832,-0.65225424859373682,
0.42725424859373684,-0.68776412907378837,
0.35000000000000003,-0.7,
0.27274575140626306,-0.68776412907378837,
0.20305368692688172,-0.65225424859373693,
0.14774575140626314,-0.5969463130731183,
0.1122358709262116,-0.52725424859373693,
0.099999999999999978,-0.45000000000000007,
0.11223587092621157,-0.3727457514062632,
0.14774575140626309,-0.30305368692688178,
0.20305368692688164,-0.24774575140626318,
0.27274575140626306,-0.21223587092621163,
0*
4,1,19,
0.35,0.7,
0.42725424859373684,0.68776412907378837,
0.49694631307311826,0.65225424859373682,
0.55225424859373684,0.5969463130731183,
0.58776412907378839,0.52725424859373682,
0.6,0.45,
0.58776412907378839,0.3727457514062632,
0.55225424859373684,0.30305368692688173,
0.49694631307311832,0.24774575140626318,
0.42725424859373684,0.21223587092621163,
0.35000000000000003,0.2,
0.27274575140626306,0.21223587092621163,
0.20305368692688172,0.24774575140626312,
0.14774575140626314,0.30305368692688173,
0.1122358709262116,0.37274575140626309,
0.099999999999999978,0.44999999999999996,
0.11223587092621157,0.52725424859373682,
0.14774575140626309,0.5969463130731183,
0.20305368692688164,0.65225424859373682,
0.27274575140626306,0.68776412907378837,
0*
4,1,19,
-0.35,0.7,
-0.27274575140626311,0.68776412907378837,
-0.20305368692688169,0.65225424859373682,
-0.14774575140626311,0.5969463130731183,
-0.1122358709262116,0.52725424859373682,
-0.099999999999999978,0.45,
-0.11223587092621157,0.3727457514062632,
-0.14774575140626311,0.30305368692688173,
-0.20305368692688167,0.24774575140626318,
-0.27274575140626311,0.21223587092621163,
-0.34999999999999992,0.2,
-0.4272542485937369,0.21223587092621163,
-0.49694631307311821,0.24774575140626312,
-0.55225424859373684,0.30305368692688173,
-0.58776412907378839,0.37274575140626309,
-0.6,0.44999999999999996,
-0.58776412907378839,0.52725424859373682,
-0.55225424859373684,0.5969463130731183,
-0.49694631307311832,0.65225424859373682,
-0.4272542485937369,0.68776412907378837,
0*
4,1,3,
-0.35,-0.7,
-0.35,-0.2,
0.35,-0.2,
0.35,-0.7,
0*
4,1,3,
0.6,-0.45,
0.099999999999999978,-0.45,
0.099999999999999978,0.45,
0.6,0.45,
0*
4,1,3,
0.35,0.7,
0.35,0.2,
-0.35,0.2,
-0.35,0.7,
0*
4,1,3,
-0.6,0.45,
-0.099999999999999978,0.45,
-0.099999999999999978,-0.45,
-0.6,-0.45,
0*%
%ADD14COMP73,0.25X-0.35X-0.45X0.35X-0.45X0.35X0.45X-0.35X0.45X0*%
G04 #@! TD*
G04 #@! TA.AperFunction,ComponentPad*
%ADD15R,1.35X1.35*%
G04 #@! TD*
G04 #@! TA.AperFunction,ComponentPad*
%ADD16O,1.35X1.35*%
G04 #@! TD*
G04 #@! TA.AperFunction,SMDPad,CuDef*
%AMCOMP74*
4,1,3,
-0.3375,-0.475,
0.3375,-0.475,
0.3375,0.475,
-0.3375,0.475,
0*
4,1,19,
-0.3375,-0.22499999999999998,
-0.26024575140626316,-0.2372358709262116,
-0.19055368692688174,-0.27274575140626311,
-0.13524575140626316,-0.32805368692688169,
-0.099735870926211639,-0.39774575140626311,
-0.087500000000000022,-0.475,
-0.099735870926211612,-0.55225424859373684,
-0.13524575140626316,-0.62194631307311821,
-0.19055368692688171,-0.67725424859373684,
-0.26024575140626316,-0.71276412907378839,
-0.33749999999999997,-0.725,
-0.41475424859373694,-0.71276412907378839,
-0.48444631307311825,-0.67725424859373684,
-0.53975424859373689,-0.62194631307311832,
-0.57526412907378843,-0.55225424859373684,
-0.5875,-0.47500000000000003,
-0.57526412907378843,-0.39774575140626317,
-0.53975424859373689,-0.32805368692688175,
-0.48444631307311836,-0.27274575140626311,
-0.41475424859373694,-0.2372358709262116,
0*
4,1,19,
0.3375,-0.22499999999999998,
0.41475424859373689,-0.2372358709262116,
0.48444631307311831,-0.27274575140626311,
0.53975424859373689,-0.32805368692688169,
0.57526412907378843,-0.39774575140626311,
0.5875,-0.475,
0.57526412907378843,-0.55225424859373684,
0.53975424859373689,-0.62194631307311821,
0.48444631307311836,-0.67725424859373684,
0.41475424859373689,-0.71276412907378839,
0.33750000000000008,-0.725,
0.2602457514062631,-0.71276412907378839,
0.19055368692688177,-0.67725424859373684,
0.13524575140626319,-0.62194631307311832,
0.099735870926211639,-0.55225424859373684,
0.087500000000000022,-0.47500000000000003,
0.099735870926211612,-0.39774575140626317,
0.13524575140626313,-0.32805368692688175,
0.19055368692688168,-0.27274575140626311,
0.2602457514062631,-0.2372358709262116,
0*
4,1,19,
0.3375,0.725,
0.41475424859373689,0.71276412907378839,
0.48444631307311831,0.67725424859373684,
0.53975424859373689,0.62194631307311821,
0.57526412907378843,0.55225424859373684,
0.5875,0.475,
0.57526412907378843,0.39774575140626311,
0.53975424859373689,0.32805368692688175,
0.48444631307311836,0.27274575140626311,
0.41475424859373689,0.2372358709262116,
0.33750000000000008,0.22499999999999998,
0.2602457514062631,0.2372358709262116,
0.19055368692688177,0.27274575140626311,
0.13524575140626319,0.32805368692688164,
0.099735870926211639,0.39774575140626311,
0.087500000000000022,0.47499999999999992,
0.099735870926211612,0.55225424859373673,
0.13524575140626313,0.62194631307311821,
0.19055368692688168,0.67725424859373684,
0.2602457514062631,0.71276412907378839,
0*
4,1,19,
-0.3375,0.725,
-0.26024575140626316,0.71276412907378839,
-0.19055368692688174,0.67725424859373684,
-0.13524575140626316,0.62194631307311821,
-0.099735870926211639,0.55225424859373684,
-0.087500000000000022,0.475,
-0.099735870926211612,0.39774575140626311,
-0.13524575140626316,0.32805368692688175,
-0.19055368692688171,0.27274575140626311,
-0.26024575140626316,0.2372358709262116,
-0.33749999999999997,0.22499999999999998,
-0.41475424859373694,0.2372358709262116,
-0.48444631307311825,0.27274575140626311,
-0.53975424859373689,0.32805368692688164,
-0.57526412907378843,0.39774575140626311,
-0.5875,0.47499999999999992,
-0.57526412907378843,0.55225424859373673,
-0.53975424859373689,0.62194631307311821,
-0.48444631307311836,0.67725424859373684,
-0.41475424859373694,0.71276412907378839,
0*
4,1,3,
-0.3375,-0.725,
-0.3375,-0.22499999999999998,
0.3375,-0.22499999999999998,
0.3375,-0.725,
0*
4,1,3,
0.5875,-0.475,
0.087500000000000022,-0.475,
0.087500000000000022,0.475,
0.5875,0.475,
0*
4,1,3,
0.3375,0.725,
0.3375,0.22499999999999998,
-0.3375,0.22499999999999998,
-0.3375,0.725,
0*
4,1,3,
-0.5875,0.475,
-0.087500000000000022,0.475,
-0.087500000000000022,-0.475,
-0.5875,-0.475,
0*%
%ADD17COMP74,0.25X-0.3375X-0.475X0.3375X-0.475X0.3375X0.475X-0.3375X0.475X0*%
G04 #@! TD*
G04 #@! TA.AperFunction,ViaPad*
%ADD18C,0.8*%
G04 #@! TD*
G04 #@! TA.AperFunction,Conductor*
%ADD19C,0.25*%
G04 #@! TD*
G04 #@! TA.AperFunction,Conductor*
%ADD20C,0.4*%
G04 #@! TD*
G04 APERTURE END LIST*
D10*
X0020000000Y0084000000D02*
X0024855000Y0080165000D03*
D11*
X0024855000Y0078165000D03*
X0024855000Y0076165000D03*
X0024855000Y0074164999D03*
X0024855000Y0072164999D03*
X0024855000Y0070164999D03*
X0024855000Y0068164999D03*
X0024855000Y0066164999D03*
X0024855000Y0064164999D03*
X0024855000Y0062165000D03*
X0024855000Y0060165000D03*
X0024855000Y0058165000D03*
X0024855000Y0056165000D03*
X0024855000Y0054165000D03*
X0024855000Y0052165000D03*
X0024855000Y0050165000D03*
X0024855000Y0048165000D03*
D12*
X0032814999Y0055175000D03*
D13*
X0032814999Y0057175000D03*
X0032814999Y0059175000D03*
X0032814999Y0061175000D03*
X0032814999Y0063175000D03*
X0032814999Y0065175000D03*
X0032814999Y0067175000D03*
X0032814999Y0069175000D03*
X0032814999Y0071175000D03*
X0032814999Y0073175000D03*
D14*
X0028049000Y0060835000D03*
X0030049000Y0060835000D03*
D15*
X0021995000Y0080165000D03*
D16*
X0021995000Y0078165000D03*
X0021995000Y0076165000D03*
X0021995000Y0074164999D03*
X0021995000Y0072164999D03*
X0021995000Y0070164999D03*
X0021995000Y0068164999D03*
X0021995000Y0066164999D03*
X0021995000Y0064164999D03*
X0021995000Y0062165000D03*
X0021995000Y0060165000D03*
X0021995000Y0058165000D03*
X0021995000Y0056165000D03*
X0021995000Y0054165000D03*
X0021995000Y0052165000D03*
X0021995000Y0050165000D03*
X0021995000Y0048165000D03*
D14*
X0028049000Y0064681668D03*
X0030049000Y0064681668D03*
D17*
X0028061500Y0077244200D03*
X0030136499Y0077244200D03*
D14*
X0028049000Y0068528334D03*
X0030049000Y0068528334D03*
X0028049000Y0072375000D03*
X0030049000Y0072375000D03*
D18*
X0034095000Y0075685000D03*
X0032064999Y0076475000D03*
X0027035000Y0074605000D03*
X0028395000Y0074115000D03*
X0030075000Y0074055000D03*
X0026762999Y0070335400D03*
X0027220200Y0063096400D03*
D19*
X0021995000Y0062165000D02*
X0024855000Y0062165000D01*
X0021995000Y0070164999D02*
X0024855000Y0070164999D01*
X0030015000Y0061175000D02*
X0032465000Y0061175000D01*
X0029735000Y0065045000D02*
X0029865000Y0065175000D01*
X0029865000Y0065175000D02*
X0032465000Y0065175000D01*
X0029705000Y0068265000D02*
X0030615000Y0069175000D01*
X0030615000Y0069175000D02*
X0032465000Y0069175000D01*
X0030049000Y0072375000D02*
X0030849000Y0073175000D01*
X0030849000Y0073175000D02*
X0032465000Y0073175000D01*
D20*
X0024855000Y0076165000D02*
X0025934200Y0077244200D01*
X0025325000Y0076415000D02*
X0026154200Y0077244200D01*
X0021995000Y0078165000D02*
X0021995000Y0076165000D01*
X0021995000Y0076165000D02*
X0024855000Y0076165000D01*
X0025934200Y0077244200D02*
X0028061500Y0077244200D01*
X0021995000Y0078165000D02*
X0024855000Y0078165000D01*
D19*
X0021995000Y0080165000D02*
X0024855000Y0080165000D01*
X0021995000Y0068164999D02*
X0024855000Y0068164999D01*
X0021995000Y0066164999D02*
X0024855000Y0066164999D01*
X0027224000Y0068265000D02*
X0028079000Y0068265000D01*
X0025317000Y0064164999D02*
X0026509000Y0065357000D01*
X0026509000Y0065357000D02*
X0026509000Y0067550000D01*
X0024855000Y0064164999D02*
X0025317000Y0064164999D01*
X0026509000Y0067550000D02*
X0027224000Y0068265000D01*
X0021995000Y0064164999D02*
X0024855000Y0064164999D01*
X0027378999Y0060165000D02*
X0028049000Y0060835000D01*
X0021995000Y0060165000D02*
X0024855000Y0060165000D01*
X0024855000Y0060165000D02*
X0027378999Y0060165000D01*
X0028069000Y0071641400D02*
X0028069000Y0072375000D01*
X0021995000Y0058165000D02*
X0024855000Y0058165000D01*
X0026762999Y0070335400D02*
X0028069000Y0071641400D01*
X0027220200Y0063096400D02*
X0028109000Y0063985200D01*
X0021995000Y0056165000D02*
X0024855000Y0056165000D01*
X0028109000Y0063985200D02*
X0028109000Y0065045000D01*
X0021995000Y0054165000D02*
X0024855000Y0054165000D01*
X0021995000Y0052165000D02*
X0024855000Y0052165000D01*
D20*
X0021995000Y0050165000D02*
X0024855000Y0050165000D01*
X0021995000Y0048165000D02*
X0024855000Y0048165000D01*
G04 #@! TA.AperFunction,Conductor*
G36*
X0023006129Y0083486455D02*
G01*
X0023176656Y0083434121D01*
X0027283566Y0082173724D01*
X0027342822Y0082134616D01*
X0027371527Y0082069681D01*
X0027372600Y0082053269D01*
X0027372600Y0080089000D01*
X0027390992Y0080081722D01*
X0034487362Y0077273580D01*
X0034543344Y0077229916D01*
X0034567000Y0077156420D01*
X0034567000Y0044634000D01*
X0034546998Y0044565879D01*
X0034493342Y0044519386D01*
X0034441000Y0044508000D01*
X0020634000Y0044508000D01*
X0020565879Y0044528002D01*
X0020519386Y0044581658D01*
X0020508000Y0044634000D01*
X0020508000Y0046539600D01*
X0020528002Y0046607721D01*
X0020581658Y0046654214D01*
X0020634000Y0046665600D01*
X0027238400Y0046665600D01*
X0027238400Y0051775000D01*
X0026364139Y0051775000D01*
X0026296018Y0051795002D01*
X0026249525Y0051848658D01*
X0026239443Y0051919080D01*
X0026266352Y0052104664D01*
X0026266352Y0052104667D01*
X0026267213Y0052110603D01*
X0026257433Y0052321899D01*
X0026207875Y0052527534D01*
X0026168412Y0052614329D01*
X0026122806Y0052714632D01*
X0026120326Y0052720087D01*
X0025997946Y0052892611D01*
X0025845150Y0053038881D01*
X0025839255Y0053042688D01*
X0025812837Y0053059746D01*
X0025766460Y0053113501D01*
X0025756507Y0053183797D01*
X0025786139Y0053248314D01*
X0025803353Y0053264683D01*
X0025918202Y0053354898D01*
X0025922920Y0053358604D01*
X0025926852Y0053363135D01*
X0025926855Y0053363138D01*
X0026057621Y0053513833D01*
X0026061552Y0053518363D01*
X0026064552Y0053523549D01*
X0026064555Y0053523553D01*
X0026164467Y0053696258D01*
X0026167473Y0053701454D01*
X0026236861Y0053901271D01*
X0026260867Y0054066837D01*
X0026266352Y0054104664D01*
X0026266352Y0054104667D01*
X0026267213Y0054110603D01*
X0026257433Y0054321899D01*
X0026212582Y0054508002D01*
X0026209281Y0054521701D01*
X0026209280Y0054521703D01*
X0026207875Y0054527534D01*
X0026168412Y0054614329D01*
X0026140511Y0054675692D01*
X0026120326Y0054720087D01*
X0025997946Y0054892611D01*
X0025845150Y0055038881D01*
X0025839255Y0055042688D01*
X0025812837Y0055059746D01*
X0025766460Y0055113501D01*
X0025756507Y0055183797D01*
X0025786139Y0055248314D01*
X0025803353Y0055264683D01*
X0025918202Y0055354898D01*
X0025922920Y0055358604D01*
X0025926852Y0055363135D01*
X0025926855Y0055363138D01*
X0026057621Y0055513833D01*
X0026061552Y0055518363D01*
X0026064552Y0055523549D01*
X0026064555Y0055523553D01*
X0026164467Y0055696258D01*
X0026167473Y0055701454D01*
X0026236861Y0055901271D01*
X0026267213Y0056110603D01*
X0026257433Y0056321899D01*
X0026207875Y0056527534D01*
X0026205139Y0056533553D01*
X0026153084Y0056648041D01*
X0026120326Y0056720087D01*
X0025997946Y0056892611D01*
X0025845150Y0057038881D01*
X0025839255Y0057042688D01*
X0025812837Y0057059746D01*
X0025766460Y0057113501D01*
X0025756507Y0057183797D01*
X0025777450Y0057229396D01*
X0031427787Y0057229396D01*
X0031437567Y0057018101D01*
X0031438971Y0057012276D01*
X0031438971Y0057012275D01*
X0031468988Y0056887725D01*
X0031487125Y0056812466D01*
X0031489607Y0056807007D01*
X0031489608Y0056807004D01*
X0031531608Y0056714632D01*
X0031574674Y0056619913D01*
X0031697054Y0056447389D01*
X0031701380Y0056443247D01*
X0031701386Y0056443241D01*
X0031792317Y0056356194D01*
X0031827694Y0056294639D01*
X0031824175Y0056223730D01*
X0031782879Y0056165979D01*
X0031771496Y0056158035D01*
X0031715652Y0056123478D01*
X0031590695Y0055998303D01*
X0031497885Y0055847738D01*
X0031495581Y0055840790D01*
X0031447642Y0055696258D01*
X0031442203Y0055679861D01*
X0031431500Y0055575400D01*
X0031431500Y0054774600D01*
X0031442474Y0054668834D01*
X0031498450Y0054501054D01*
X0031591521Y0054350652D01*
X0031716697Y0054225695D01*
X0031722927Y0054221855D01*
X0031722928Y0054221854D01*
X0031860090Y0054137305D01*
X0031867262Y0054132885D01*
X0031916356Y0054116601D01*
X0032028610Y0054079368D01*
X0032028613Y0054079368D01*
X0032035139Y0054077203D01*
X0032041975Y0054076503D01*
X0032041978Y0054076502D01*
X0032085031Y0054072091D01*
X0032139600Y0054066500D01*
X0033490400Y0054066500D01*
X0033493646Y0054066837D01*
X0033493650Y0054066837D01*
X0033589308Y0054076762D01*
X0033589312Y0054076763D01*
X0033596166Y0054077473D01*
X0033602702Y0054079655D01*
X0033602704Y0054079655D01*
X0033734806Y0054123728D01*
X0033763946Y0054133450D01*
X0033914348Y0054226522D01*
X0034039305Y0054351697D01*
X0034076549Y0054412118D01*
X0034128275Y0054496032D01*
X0034128276Y0054496034D01*
X0034132115Y0054502262D01*
X0034187797Y0054670139D01*
X0034198499Y0054774600D01*
X0034198499Y0055575400D01*
X0034187526Y0055681166D01*
X0034180758Y0055701454D01*
X0034133868Y0055841998D01*
X0034131550Y0055848946D01*
X0034038478Y0055999348D01*
X0033913303Y0056124305D01*
X0033861764Y0056156075D01*
X0033814271Y0056208846D01*
X0033802847Y0056278918D01*
X0033831120Y0056344042D01*
X0033850045Y0056362418D01*
X0033857920Y0056368604D01*
X0033861852Y0056373135D01*
X0033861855Y0056373138D01*
X0033992621Y0056523832D01*
X0033996552Y0056528363D01*
X0033999552Y0056533549D01*
X0033999555Y0056533553D01*
X0034099467Y0056706258D01*
X0034102473Y0056711454D01*
X0034171861Y0056911271D01*
X0034190364Y0057038881D01*
X0034201352Y0057114664D01*
X0034201352Y0057114667D01*
X0034202213Y0057120604D01*
X0034192433Y0057331899D01*
X0034147495Y0057518363D01*
X0034144281Y0057531701D01*
X0034144280Y0057531703D01*
X0034142875Y0057537534D01*
X0034127789Y0057570715D01*
X0034068345Y0057701454D01*
X0034055326Y0057730087D01*
X0033932946Y0057902611D01*
X0033780150Y0058048881D01*
X0033775119Y0058052130D01*
X0033775112Y0058052135D01*
X0033747393Y0058070032D01*
X0033701015Y0058123789D01*
X0033691063Y0058194085D01*
X0033720696Y0058258601D01*
X0033737909Y0058274969D01*
X0033852857Y0058365262D01*
X0033861506Y0058373498D01*
X0033992212Y0058524123D01*
X0033999147Y0058533847D01*
X0034099010Y0058706467D01*
X0034103984Y0058717331D01*
X0034169407Y0058905727D01*
X0034169648Y0058906716D01*
X0034168180Y0058917007D01*
X0034154615Y0058921000D01*
X0031479598Y0058921000D01*
X0031466067Y0058917027D01*
X0031464712Y0058907601D01*
X0031486193Y0058818463D01*
X0031490083Y0058807168D01*
X0031572629Y0058625618D01*
X0031578576Y0058615276D01*
X0031693968Y0058452603D01*
X0031701760Y0058443574D01*
X0031845831Y0058305658D01*
X0031855200Y0058298259D01*
X0031882576Y0058280581D01*
X0031928955Y0058226828D01*
X0031938909Y0058156532D01*
X0031909278Y0058092015D01*
X0031892063Y0058075644D01*
X0031772080Y0057981396D01*
X0031768148Y0057976865D01*
X0031768145Y0057976862D01*
X0031702551Y0057901271D01*
X0031633448Y0057821636D01*
X0031630448Y0057816451D01*
X0031630445Y0057816447D01*
X0031602561Y0057768247D01*
X0031527527Y0057638546D01*
X0031458139Y0057438728D01*
X0031427787Y0057229396D01*
X0025777450Y0057229396D01*
X0025786139Y0057248314D01*
X0025803353Y0057264683D01*
X0025918202Y0057354898D01*
X0025922920Y0057358604D01*
X0025926852Y0057363135D01*
X0025926855Y0057363138D01*
X0026057621Y0057513833D01*
X0026061552Y0057518363D01*
X0026064552Y0057523549D01*
X0026064555Y0057523553D01*
X0026164467Y0057696258D01*
X0026167473Y0057701454D01*
X0026236861Y0057901271D01*
X0026258264Y0058048881D01*
X0026266352Y0058104664D01*
X0026266352Y0058104667D01*
X0026267213Y0058110603D01*
X0026257433Y0058321899D01*
X0026207875Y0058527534D01*
X0026168412Y0058614329D01*
X0026153084Y0058648041D01*
X0026120326Y0058720087D01*
X0025997946Y0058892611D01*
X0025845150Y0059038881D01*
X0025839255Y0059042688D01*
X0025812837Y0059059746D01*
X0025766460Y0059113501D01*
X0025756507Y0059183797D01*
X0025786139Y0059248314D01*
X0025803353Y0059264683D01*
X0025918202Y0059354898D01*
X0025922920Y0059358604D01*
X0026035275Y0059488082D01*
X0026095027Y0059526421D01*
X0026130439Y0059531500D01*
X0027300233Y0059531500D01*
X0027311416Y0059530973D01*
X0027318908Y0059529298D01*
X0027326835Y0059529547D01*
X0027326836Y0059529547D01*
X0027386986Y0059531438D01*
X0027390945Y0059531500D01*
X0027418855Y0059531500D01*
X0027422791Y0059531997D01*
X0027422856Y0059532005D01*
X0027434693Y0059532938D01*
X0027466951Y0059533952D01*
X0027470970Y0059534078D01*
X0027478889Y0059534327D01*
X0027498343Y0059539979D01*
X0027517699Y0059543987D01*
X0027529930Y0059545532D01*
X0027529931Y0059545532D01*
X0027537797Y0059546526D01*
X0027545168Y0059549445D01*
X0027545170Y0059549445D01*
X0027578912Y0059562804D01*
X0027590142Y0059566649D01*
X0027624983Y0059576771D01*
X0027624984Y0059576771D01*
X0027632593Y0059578982D01*
X0027639412Y0059583015D01*
X0027639417Y0059583017D01*
X0027650028Y0059589293D01*
X0027667776Y0059597988D01*
X0027686617Y0059605447D01*
X0027693030Y0059610107D01*
X0027694503Y0059610917D01*
X0027755200Y0059626500D01*
X0028449400Y0059626500D01*
X0028452646Y0059626836D01*
X0028452650Y0059626836D01*
X0028548308Y0059636762D01*
X0028548312Y0059636763D01*
X0028555166Y0059637474D01*
X0028561702Y0059639655D01*
X0028561704Y0059639655D01*
X0028693806Y0059683728D01*
X0028722946Y0059693450D01*
X0028873348Y0059786522D01*
X0028959784Y0059873109D01*
X0029022066Y0059907188D01*
X0029092886Y0059902185D01*
X0029137976Y0059873264D01*
X0029225697Y0059785695D01*
X0029231927Y0059781855D01*
X0029231928Y0059781853D01*
X0029369090Y0059697306D01*
X0029376262Y0059692885D01*
X0029456004Y0059666436D01*
X0029537611Y0059639368D01*
X0029537613Y0059639368D01*
X0029544139Y0059637203D01*
X0029550975Y0059636503D01*
X0029550978Y0059636502D01*
X0029594031Y0059632091D01*
X0029648600Y0059626500D01*
X0030449400Y0059626500D01*
X0030452646Y0059626836D01*
X0030452650Y0059626836D01*
X0030548308Y0059636762D01*
X0030548312Y0059636763D01*
X0030555166Y0059637474D01*
X0030561702Y0059639655D01*
X0030561704Y0059639655D01*
X0030693806Y0059683728D01*
X0030722946Y0059693450D01*
X0030873348Y0059786522D01*
X0030998305Y0059911697D01*
X0031039833Y0059979067D01*
X0031087275Y0060056032D01*
X0031087276Y0060056034D01*
X0031091115Y0060062262D01*
X0031135511Y0060196113D01*
X0031144632Y0060223611D01*
X0031144632Y0060223613D01*
X0031146797Y0060230139D01*
X0031147596Y0060237942D01*
X0031153736Y0060297865D01*
X0031157500Y0060334599D01*
X0031157500Y0060415500D01*
X0031177502Y0060483621D01*
X0031231158Y0060530114D01*
X0031283500Y0060541500D01*
X0031565193Y0060541500D01*
X0031633314Y0060521498D01*
X0031667963Y0060488399D01*
X0031693584Y0060452280D01*
X0031693587Y0060452276D01*
X0031697054Y0060447389D01*
X0031849850Y0060301119D01*
X0031854881Y0060297870D01*
X0031854888Y0060297865D01*
X0031882607Y0060279967D01*
X0031928984Y0060226211D01*
X0031938937Y0060155915D01*
X0031909304Y0060091398D01*
X0031892091Y0060075030D01*
X0031777143Y0059984738D01*
X0031768494Y0059976501D01*
X0031637788Y0059825877D01*
X0031630853Y0059816153D01*
X0031530990Y0059643533D01*
X0031526016Y0059632669D01*
X0031460593Y0059444272D01*
X0031460352Y0059443284D01*
X0031461820Y0059432992D01*
X0031475385Y0059429000D01*
X0034150402Y0059429000D01*
X0034163933Y0059432973D01*
X0034165288Y0059442399D01*
X0034143806Y0059531537D01*
X0034139917Y0059542832D01*
X0034057371Y0059724382D01*
X0034051424Y0059734724D01*
X0033936032Y0059897397D01*
X0033928239Y0059906425D01*
X0033784169Y0060044342D01*
X0033774800Y0060051741D01*
X0033747423Y0060069418D01*
X0033701045Y0060123172D01*
X0033691091Y0060193467D01*
X0033720722Y0060257985D01*
X0033737937Y0060274356D01*
X0033853201Y0060364898D01*
X0033857920Y0060368604D01*
X0033861852Y0060373135D01*
X0033861855Y0060373138D01*
X0033992621Y0060523832D01*
X0033996552Y0060528363D01*
X0033999552Y0060533549D01*
X0033999555Y0060533553D01*
X0034099467Y0060706258D01*
X0034102473Y0060711454D01*
X0034171861Y0060911271D01*
X0034190364Y0061038881D01*
X0034201352Y0061114664D01*
X0034201352Y0061114667D01*
X0034202213Y0061120604D01*
X0034192433Y0061331899D01*
X0034147495Y0061518363D01*
X0034144281Y0061531701D01*
X0034144280Y0061531703D01*
X0034142875Y0061537534D01*
X0034127789Y0061570715D01*
X0034068345Y0061701454D01*
X0034055326Y0061730087D01*
X0033932946Y0061902611D01*
X0033780150Y0062048881D01*
X0033775119Y0062052130D01*
X0033775112Y0062052135D01*
X0033747393Y0062070032D01*
X0033701015Y0062123789D01*
X0033691063Y0062194085D01*
X0033720696Y0062258601D01*
X0033737909Y0062274969D01*
X0033852857Y0062365262D01*
X0033861506Y0062373498D01*
X0033992212Y0062524123D01*
X0033999147Y0062533847D01*
X0034099010Y0062706467D01*
X0034103984Y0062717331D01*
X0034169407Y0062905727D01*
X0034169648Y0062906716D01*
X0034168180Y0062917007D01*
X0034154615Y0062921000D01*
X0031479598Y0062921000D01*
X0031466067Y0062917027D01*
X0031464712Y0062907601D01*
X0031486193Y0062818463D01*
X0031490083Y0062807168D01*
X0031572629Y0062625618D01*
X0031578576Y0062615276D01*
X0031693968Y0062452603D01*
X0031701760Y0062443574D01*
X0031845831Y0062305658D01*
X0031855200Y0062298259D01*
X0031882576Y0062280581D01*
X0031928955Y0062226828D01*
X0031938909Y0062156532D01*
X0031909278Y0062092015D01*
X0031892063Y0062075644D01*
X0031772080Y0061981396D01*
X0031659725Y0061851918D01*
X0031599973Y0061813579D01*
X0031564560Y0061808499D01*
X0031000367Y0061808499D01*
X0030932246Y0061828502D01*
X0030911349Y0061845327D01*
X0030877482Y0061879134D01*
X0030872303Y0061884305D01*
X0030844779Y0061901271D01*
X0030727968Y0061973275D01*
X0030727966Y0061973276D01*
X0030721738Y0061977115D01*
X0030561254Y0062030345D01*
X0030560389Y0062030632D01*
X0030560387Y0062030632D01*
X0030553860Y0062032797D01*
X0030547024Y0062033497D01*
X0030547022Y0062033498D01*
X0030503968Y0062037909D01*
X0030449400Y0062043500D01*
X0029648600Y0062043500D01*
X0029645353Y0062043163D01*
X0029645350Y0062043163D01*
X0029549692Y0062033238D01*
X0029549688Y0062033237D01*
X0029542834Y0062032526D01*
X0029536298Y0062030345D01*
X0029536296Y0062030345D01*
X0029404194Y0061986272D01*
X0029375054Y0061976550D01*
X0029224652Y0061883478D01*
X0029186568Y0061845327D01*
X0029138216Y0061796891D01*
X0029075934Y0061762812D01*
X0029005114Y0061767815D01*
X0028960025Y0061796735D01*
X0028877482Y0061879134D01*
X0028872303Y0061884305D01*
X0028844779Y0061901271D01*
X0028727968Y0061973275D01*
X0028727966Y0061973276D01*
X0028721738Y0061977115D01*
X0028561254Y0062030345D01*
X0028560389Y0062030632D01*
X0028560387Y0062030632D01*
X0028553860Y0062032797D01*
X0028547024Y0062033497D01*
X0028547022Y0062033498D01*
X0028503968Y0062037909D01*
X0028449400Y0062043500D01*
X0027681764Y0062043500D01*
X0027613643Y0062063502D01*
X0027567149Y0062117158D01*
X0027557046Y0062187432D01*
X0027586540Y0062252012D01*
X0027630515Y0062284607D01*
X0027670922Y0062302597D01*
X0027670924Y0062302598D01*
X0027676952Y0062305282D01*
X0027831453Y0062417534D01*
X0027835875Y0062422444D01*
X0027954821Y0062554548D01*
X0027954822Y0062554549D01*
X0027959240Y0062559456D01*
X0028048831Y0062714632D01*
X0028051423Y0062719121D01*
X0028051424Y0062719122D01*
X0028054727Y0062724844D01*
X0028113742Y0062906472D01*
X0028114850Y0062917007D01*
X0028128000Y0063042134D01*
X0028131107Y0063071692D01*
X0028158120Y0063137349D01*
X0028167322Y0063147617D01*
X0028466289Y0063446584D01*
X0028528601Y0063480610D01*
X0028542368Y0063482814D01*
X0028555166Y0063484142D01*
X0028722946Y0063540118D01*
X0028873348Y0063633190D01*
X0028959784Y0063719777D01*
X0029022066Y0063753856D01*
X0029092886Y0063748853D01*
X0029137975Y0063719932D01*
X0029213431Y0063644608D01*
X0029225697Y0063632363D01*
X0029231927Y0063628523D01*
X0029231928Y0063628522D01*
X0029369090Y0063543974D01*
X0029376262Y0063539553D01*
X0029400430Y0063531537D01*
X0029537611Y0063486036D01*
X0029537613Y0063486036D01*
X0029544139Y0063483871D01*
X0029550975Y0063483171D01*
X0029550978Y0063483170D01*
X0029594031Y0063478759D01*
X0029648600Y0063473168D01*
X0030449400Y0063473168D01*
X0030452646Y0063473505D01*
X0030452650Y0063473505D01*
X0030548308Y0063483430D01*
X0030548312Y0063483430D01*
X0030555166Y0063484142D01*
X0030561702Y0063486323D01*
X0030561704Y0063486323D01*
X0030697226Y0063531537D01*
X0030722946Y0063540118D01*
X0030873348Y0063633190D01*
X0030998305Y0063758365D01*
X0031002146Y0063764596D01*
X0031087275Y0063902699D01*
X0031087276Y0063902702D01*
X0031091115Y0063908930D01*
X0031138483Y0064051740D01*
X0031144632Y0064070279D01*
X0031144632Y0064070280D01*
X0031146797Y0064076807D01*
X0031157500Y0064181268D01*
X0031157500Y0064415500D01*
X0031177502Y0064483621D01*
X0031231158Y0064530114D01*
X0031283500Y0064541500D01*
X0031565193Y0064541500D01*
X0031633314Y0064521498D01*
X0031667963Y0064488399D01*
X0031693584Y0064452280D01*
X0031693587Y0064452276D01*
X0031697054Y0064447389D01*
X0031849850Y0064301119D01*
X0031854881Y0064297870D01*
X0031854888Y0064297865D01*
X0031882607Y0064279967D01*
X0031928984Y0064226211D01*
X0031938937Y0064155914D01*
X0031909304Y0064091398D01*
X0031892091Y0064075030D01*
X0031777143Y0063984738D01*
X0031768494Y0063976501D01*
X0031637788Y0063825877D01*
X0031630853Y0063816153D01*
X0031530990Y0063643533D01*
X0031526016Y0063632669D01*
X0031460593Y0063444272D01*
X0031460352Y0063443284D01*
X0031461820Y0063432992D01*
X0031475385Y0063429000D01*
X0034150402Y0063429000D01*
X0034163933Y0063432973D01*
X0034165288Y0063442399D01*
X0034143806Y0063531537D01*
X0034139917Y0063542832D01*
X0034057371Y0063724382D01*
X0034051424Y0063734724D01*
X0033936032Y0063897397D01*
X0033928239Y0063906425D01*
X0033784169Y0064044342D01*
X0033774800Y0064051740D01*
X0033747423Y0064069418D01*
X0033701045Y0064123172D01*
X0033691091Y0064193467D01*
X0033720722Y0064257985D01*
X0033737937Y0064274356D01*
X0033853201Y0064364898D01*
X0033857920Y0064368604D01*
X0033861852Y0064373135D01*
X0033861855Y0064373138D01*
X0033992621Y0064523832D01*
X0033996552Y0064528363D01*
X0033999552Y0064533548D01*
X0033999555Y0064533553D01*
X0034099467Y0064706257D01*
X0034102473Y0064711454D01*
X0034171861Y0064911271D01*
X0034182835Y0064986958D01*
X0034201352Y0065114664D01*
X0034201352Y0065114667D01*
X0034202213Y0065120604D01*
X0034192433Y0065331898D01*
X0034142875Y0065537533D01*
X0034127789Y0065570715D01*
X0034057806Y0065724632D01*
X0034055326Y0065730087D01*
X0033942005Y0065889839D01*
X0033936412Y0065897725D01*
X0033936411Y0065897726D01*
X0033932946Y0065902611D01*
X0033780150Y0066048880D01*
X0033775119Y0066052130D01*
X0033775112Y0066052134D01*
X0033747393Y0066070032D01*
X0033701015Y0066123789D01*
X0033691063Y0066194085D01*
X0033720696Y0066258601D01*
X0033737909Y0066274969D01*
X0033852857Y0066365262D01*
X0033861506Y0066373498D01*
X0033992212Y0066524123D01*
X0033999147Y0066533847D01*
X0034099010Y0066706467D01*
X0034103984Y0066717331D01*
X0034169407Y0066905727D01*
X0034169648Y0066906716D01*
X0034168180Y0066917007D01*
X0034154615Y0066920999D01*
X0031479598Y0066920999D01*
X0031466067Y0066917027D01*
X0031464712Y0066907601D01*
X0031486193Y0066818463D01*
X0031490083Y0066807168D01*
X0031572629Y0066625618D01*
X0031578576Y0066615275D01*
X0031693968Y0066452603D01*
X0031701760Y0066443574D01*
X0031845831Y0066305657D01*
X0031855200Y0066298259D01*
X0031882576Y0066280581D01*
X0031928955Y0066226828D01*
X0031938909Y0066156532D01*
X0031909278Y0066092015D01*
X0031892063Y0066075644D01*
X0031772080Y0065981396D01*
X0031659725Y0065851918D01*
X0031599973Y0065813579D01*
X0031564560Y0065808499D01*
X0030780439Y0065808499D01*
X0030727486Y0065820240D01*
X0030721738Y0065823782D01*
X0030714792Y0065826087D01*
X0030714790Y0065826088D01*
X0030560389Y0065877300D01*
X0030560387Y0065877300D01*
X0030553860Y0065879464D01*
X0030547024Y0065880165D01*
X0030547022Y0065880166D01*
X0030503968Y0065884577D01*
X0030449400Y0065890168D01*
X0029648600Y0065890168D01*
X0029645353Y0065889831D01*
X0029645350Y0065889831D01*
X0029549692Y0065879906D01*
X0029549688Y0065879905D01*
X0029542834Y0065879194D01*
X0029536298Y0065877013D01*
X0029536296Y0065877013D01*
X0029461081Y0065851918D01*
X0029375054Y0065823218D01*
X0029224652Y0065730146D01*
X0029142501Y0065647851D01*
X0029138216Y0065643558D01*
X0029075934Y0065609480D01*
X0029005114Y0065614483D01*
X0028960025Y0065643404D01*
X0028877482Y0065725802D01*
X0028872303Y0065730973D01*
X0028865812Y0065734973D01*
X0028727968Y0065819942D01*
X0028727966Y0065819943D01*
X0028721738Y0065823782D01*
X0028561254Y0065877013D01*
X0028560389Y0065877300D01*
X0028560387Y0065877300D01*
X0028553860Y0065879464D01*
X0028547024Y0065880165D01*
X0028547022Y0065880166D01*
X0028503968Y0065884577D01*
X0028449400Y0065890168D01*
X0027648600Y0065890168D01*
X0027645354Y0065889831D01*
X0027645350Y0065889831D01*
X0027549692Y0065879906D01*
X0027549688Y0065879905D01*
X0027542834Y0065879194D01*
X0027536298Y0065877013D01*
X0027536296Y0065877013D01*
X0027461081Y0065851918D01*
X0027375054Y0065823218D01*
X0027368822Y0065819362D01*
X0027368823Y0065819362D01*
X0027334803Y0065798310D01*
X0027266351Y0065779472D01*
X0027198581Y0065800633D01*
X0027153010Y0065855074D01*
X0027142500Y0065905453D01*
X0027142500Y0067235406D01*
X0027162502Y0067303527D01*
X0027179405Y0067324501D01*
X0027222352Y0067367448D01*
X0027284664Y0067401474D01*
X0027355479Y0067396409D01*
X0027364698Y0067392547D01*
X0027370030Y0067390060D01*
X0027376262Y0067386219D01*
X0027383207Y0067383916D01*
X0027383210Y0067383914D01*
X0027537611Y0067332702D01*
X0027537613Y0067332702D01*
X0027544139Y0067330536D01*
X0027550975Y0067329837D01*
X0027550978Y0067329836D01*
X0027594031Y0067325425D01*
X0027648600Y0067319834D01*
X0028449400Y0067319834D01*
X0028452646Y0067320171D01*
X0028452650Y0067320171D01*
X0028548308Y0067330096D01*
X0028548312Y0067330097D01*
X0028555166Y0067330808D01*
X0028561702Y0067332989D01*
X0028561704Y0067332989D01*
X0028693806Y0067377062D01*
X0028722946Y0067386784D01*
X0028873348Y0067479856D01*
X0028959784Y0067566442D01*
X0029022066Y0067600522D01*
X0029092886Y0067595519D01*
X0029137976Y0067566598D01*
X0029225697Y0067479029D01*
X0029231927Y0067475189D01*
X0029231928Y0067475188D01*
X0029369090Y0067390640D01*
X0029376262Y0067386219D01*
X0029432855Y0067367448D01*
X0029537611Y0067332702D01*
X0029537613Y0067332702D01*
X0029544139Y0067330536D01*
X0029550975Y0067329837D01*
X0029550978Y0067329836D01*
X0029594031Y0067325425D01*
X0029648600Y0067319834D01*
X0030449400Y0067319834D01*
X0030452646Y0067320171D01*
X0030452650Y0067320171D01*
X0030548308Y0067330096D01*
X0030548312Y0067330097D01*
X0030555166Y0067330808D01*
X0030561702Y0067332989D01*
X0030561704Y0067332989D01*
X0030693806Y0067377062D01*
X0030722946Y0067386784D01*
X0030873348Y0067479856D01*
X0030998305Y0067605031D01*
X0031002146Y0067611262D01*
X0031087275Y0067749366D01*
X0031087276Y0067749368D01*
X0031091115Y0067755596D01*
X0031138148Y0067897397D01*
X0031144632Y0067916945D01*
X0031144632Y0067916947D01*
X0031146797Y0067923473D01*
X0031157500Y0068027934D01*
X0031157500Y0068415500D01*
X0031177502Y0068483621D01*
X0031231158Y0068530114D01*
X0031283500Y0068541500D01*
X0031565193Y0068541500D01*
X0031633314Y0068521498D01*
X0031667963Y0068488399D01*
X0031693584Y0068452280D01*
X0031693587Y0068452276D01*
X0031697054Y0068447389D01*
X0031849850Y0068301119D01*
X0031854881Y0068297870D01*
X0031854888Y0068297865D01*
X0031882607Y0068279967D01*
X0031928984Y0068226211D01*
X0031938937Y0068155915D01*
X0031909304Y0068091398D01*
X0031892091Y0068075030D01*
X0031777143Y0067984738D01*
X0031768494Y0067976501D01*
X0031637788Y0067825876D01*
X0031630853Y0067816153D01*
X0031530990Y0067643533D01*
X0031526016Y0067632669D01*
X0031460593Y0067444273D01*
X0031460352Y0067443284D01*
X0031461820Y0067432992D01*
X0031475385Y0067429000D01*
X0034150402Y0067429000D01*
X0034163933Y0067432973D01*
X0034165288Y0067442399D01*
X0034143806Y0067531537D01*
X0034139917Y0067542832D01*
X0034057371Y0067724381D01*
X0034051424Y0067734724D01*
X0033936032Y0067897397D01*
X0033928239Y0067906425D01*
X0033784169Y0068044342D01*
X0033774800Y0068051741D01*
X0033747423Y0068069418D01*
X0033701045Y0068123172D01*
X0033691091Y0068193468D01*
X0033720722Y0068257985D01*
X0033737937Y0068274356D01*
X0033853201Y0068364898D01*
X0033857920Y0068368604D01*
X0033861852Y0068373135D01*
X0033861855Y0068373138D01*
X0033992621Y0068523833D01*
X0033996552Y0068528363D01*
X0033999552Y0068533549D01*
X0033999555Y0068533553D01*
X0034099467Y0068706258D01*
X0034102473Y0068711454D01*
X0034171861Y0068911271D01*
X0034188426Y0069025517D01*
X0034201352Y0069114664D01*
X0034201352Y0069114667D01*
X0034202213Y0069120604D01*
X0034192433Y0069331899D01*
X0034154314Y0069490070D01*
X0034144281Y0069531701D01*
X0034144280Y0069531703D01*
X0034142875Y0069537534D01*
X0034127789Y0069570715D01*
X0034080266Y0069675234D01*
X0034055326Y0069730087D01*
X0033932946Y0069902611D01*
X0033780150Y0070048881D01*
X0033775119Y0070052130D01*
X0033775112Y0070052135D01*
X0033747393Y0070070033D01*
X0033701015Y0070123789D01*
X0033691063Y0070194085D01*
X0033720696Y0070258602D01*
X0033737909Y0070274970D01*
X0033852857Y0070365262D01*
X0033861506Y0070373499D01*
X0033992212Y0070524123D01*
X0033999147Y0070533847D01*
X0034099010Y0070706467D01*
X0034103984Y0070717331D01*
X0034169407Y0070905727D01*
X0034169648Y0070906716D01*
X0034168180Y0070917008D01*
X0034154615Y0070920999D01*
X0031479598Y0070920999D01*
X0031466067Y0070917027D01*
X0031464712Y0070907601D01*
X0031486193Y0070818463D01*
X0031490083Y0070807168D01*
X0031572629Y0070625618D01*
X0031578576Y0070615276D01*
X0031693968Y0070452603D01*
X0031701760Y0070443575D01*
X0031845831Y0070305658D01*
X0031855200Y0070298259D01*
X0031882576Y0070280582D01*
X0031928955Y0070226828D01*
X0031938909Y0070156532D01*
X0031909278Y0070092015D01*
X0031892063Y0070075644D01*
X0031772080Y0069981396D01*
X0031659725Y0069851918D01*
X0031599973Y0069813579D01*
X0031564560Y0069808500D01*
X0030693763Y0069808500D01*
X0030682579Y0069809027D01*
X0030675091Y0069810701D01*
X0030667168Y0069810452D01*
X0030607033Y0069808562D01*
X0030603075Y0069808500D01*
X0030575144Y0069808500D01*
X0030571229Y0069808005D01*
X0030571225Y0069808005D01*
X0030571167Y0069807997D01*
X0030571137Y0069807994D01*
X0030559296Y0069807061D01*
X0030515110Y0069805673D01*
X0030497744Y0069800628D01*
X0030495658Y0069800022D01*
X0030476306Y0069796014D01*
X0030469234Y0069795120D01*
X0030456203Y0069793474D01*
X0030448833Y0069790557D01*
X0030448832Y0069790556D01*
X0030415097Y0069777200D01*
X0030403869Y0069773355D01*
X0030361407Y0069761018D01*
X0030354584Y0069756983D01*
X0030350184Y0069754381D01*
X0030286044Y0069736834D01*
X0029648600Y0069736834D01*
X0029645353Y0069736497D01*
X0029645350Y0069736497D01*
X0029549692Y0069726572D01*
X0029549688Y0069726571D01*
X0029542834Y0069725860D01*
X0029536298Y0069723679D01*
X0029536296Y0069723679D01*
X0029404194Y0069679606D01*
X0029375054Y0069669884D01*
X0029224652Y0069576812D01*
X0029219479Y0069571630D01*
X0029138216Y0069490225D01*
X0029075934Y0069456146D01*
X0029005114Y0069461149D01*
X0028960025Y0069490070D01*
X0028877482Y0069572468D01*
X0028872303Y0069577639D01*
X0028866072Y0069581480D01*
X0028727968Y0069666609D01*
X0028727966Y0069666610D01*
X0028721738Y0069670449D01*
X0028561254Y0069723679D01*
X0028560389Y0069723966D01*
X0028560387Y0069723966D01*
X0028553860Y0069726131D01*
X0028547024Y0069726831D01*
X0028547022Y0069726832D01*
X0028503968Y0069731243D01*
X0028449400Y0069736834D01*
X0027684701Y0069736834D01*
X0027616580Y0069756836D01*
X0027570087Y0069810492D01*
X0027559983Y0069880766D01*
X0027575582Y0069925834D01*
X0027594223Y0069958121D01*
X0027594224Y0069958122D01*
X0027597527Y0069963844D01*
X0027656542Y0070145472D01*
X0027657705Y0070156532D01*
X0027673907Y0070310692D01*
X0027700920Y0070376349D01*
X0027710122Y0070386618D01*
X0028461258Y0071137753D01*
X0028469535Y0071145286D01*
X0028474942Y0071148717D01*
X0028539620Y0071175861D01*
X0028548307Y0071176762D01*
X0028548310Y0071176763D01*
X0028555166Y0071177474D01*
X0028561702Y0071179655D01*
X0028561704Y0071179655D01*
X0028693806Y0071223728D01*
X0028722946Y0071233450D01*
X0028873348Y0071326522D01*
X0028959784Y0071413109D01*
X0029022066Y0071447188D01*
X0029092886Y0071442185D01*
X0029137975Y0071413264D01*
X0029161901Y0071389379D01*
X0029225697Y0071325695D01*
X0029231927Y0071321855D01*
X0029231928Y0071321854D01*
X0029369090Y0071237306D01*
X0029376262Y0071232885D01*
X0029456004Y0071206436D01*
X0029537611Y0071179368D01*
X0029537613Y0071179368D01*
X0029544139Y0071177203D01*
X0029550975Y0071176503D01*
X0029550978Y0071176502D01*
X0029594031Y0071172091D01*
X0029648600Y0071166500D01*
X0030449400Y0071166500D01*
X0030452646Y0071166837D01*
X0030452650Y0071166837D01*
X0030548308Y0071176762D01*
X0030548312Y0071176763D01*
X0030555166Y0071177474D01*
X0030561702Y0071179655D01*
X0030561704Y0071179655D01*
X0030693806Y0071223728D01*
X0030722946Y0071233450D01*
X0030873348Y0071326522D01*
X0030998305Y0071451697D01*
X0031002146Y0071457928D01*
X0031087275Y0071596032D01*
X0031087276Y0071596034D01*
X0031091115Y0071602262D01*
X0031123534Y0071700002D01*
X0031144632Y0071763611D01*
X0031144632Y0071763612D01*
X0031146797Y0071770139D01*
X0031157500Y0071874600D01*
X0031157500Y0072415500D01*
X0031177502Y0072483621D01*
X0031231158Y0072530114D01*
X0031283500Y0072541500D01*
X0031565193Y0072541500D01*
X0031633314Y0072521498D01*
X0031667963Y0072488399D01*
X0031693584Y0072452280D01*
X0031693587Y0072452276D01*
X0031697054Y0072447389D01*
X0031849850Y0072301119D01*
X0031854881Y0072297870D01*
X0031854888Y0072297865D01*
X0031882607Y0072279967D01*
X0031928984Y0072226211D01*
X0031938937Y0072155915D01*
X0031909304Y0072091398D01*
X0031892091Y0072075030D01*
X0031777143Y0071984738D01*
X0031768494Y0071976501D01*
X0031637788Y0071825877D01*
X0031630853Y0071816153D01*
X0031530990Y0071643533D01*
X0031526016Y0071632669D01*
X0031460593Y0071444273D01*
X0031460352Y0071443284D01*
X0031461820Y0071432992D01*
X0031475385Y0071429000D01*
X0034150402Y0071429000D01*
X0034163933Y0071432973D01*
X0034165288Y0071442399D01*
X0034143806Y0071531537D01*
X0034139917Y0071542832D01*
X0034057371Y0071724382D01*
X0034051424Y0071734724D01*
X0033936032Y0071897397D01*
X0033928239Y0071906425D01*
X0033784169Y0072044342D01*
X0033774800Y0072051741D01*
X0033747423Y0072069418D01*
X0033701045Y0072123172D01*
X0033691091Y0072193468D01*
X0033720722Y0072257985D01*
X0033737937Y0072274356D01*
X0033853201Y0072364898D01*
X0033857920Y0072368604D01*
X0033861852Y0072373135D01*
X0033861855Y0072373138D01*
X0033992621Y0072523833D01*
X0033996552Y0072528363D01*
X0033999552Y0072533549D01*
X0033999555Y0072533553D01*
X0034099467Y0072706258D01*
X0034102473Y0072711454D01*
X0034171861Y0072911271D01*
X0034180815Y0072973022D01*
X0034201352Y0073114664D01*
X0034201352Y0073114667D01*
X0034202213Y0073120604D01*
X0034192433Y0073331899D01*
X0034152615Y0073497118D01*
X0034144281Y0073531701D01*
X0034144280Y0073531703D01*
X0034142875Y0073537534D01*
X0034127827Y0073570632D01*
X0034079587Y0073676728D01*
X0034055326Y0073730087D01*
X0033932946Y0073902611D01*
X0033780150Y0074048881D01*
X0033602452Y0074163620D01*
X0033542354Y0074187840D01*
X0033411832Y0074240442D01*
X0033411828Y0074240443D01*
X0033406262Y0074242686D01*
X0033198662Y0074283228D01*
X0033193101Y0074283500D01*
X0032487154Y0074283500D01*
X0032329434Y0074268452D01*
X0032126466Y0074208908D01*
X0032121139Y0074206164D01*
X0032121138Y0074206164D01*
X0031943751Y0074114803D01*
X0031943748Y0074114802D01*
X0031938420Y0074112058D01*
X0031772080Y0073981396D01*
X0031659725Y0073851918D01*
X0031599973Y0073813579D01*
X0031564560Y0073808500D01*
X0030927767Y0073808500D01*
X0030916584Y0073809027D01*
X0030909091Y0073810701D01*
X0030901165Y0073810453D01*
X0030901164Y0073810453D01*
X0030841001Y0073808562D01*
X0030837043Y0073808500D01*
X0030809144Y0073808500D01*
X0030805154Y0073807996D01*
X0030793320Y0073807064D01*
X0030749111Y0073805674D01*
X0030741497Y0073803462D01*
X0030741492Y0073803461D01*
X0030729658Y0073800023D01*
X0030710296Y0073796012D01*
X0030690203Y0073793474D01*
X0030682836Y0073790557D01*
X0030682831Y0073790556D01*
X0030649092Y0073777198D01*
X0030637864Y0073773354D01*
X0030595407Y0073761018D01*
X0030588580Y0073756981D01*
X0030577972Y0073750707D01*
X0030560223Y0073742012D01*
X0030541383Y0073734552D01*
X0030534967Y0073729890D01*
X0030534966Y0073729890D01*
X0030505613Y0073708564D01*
X0030495693Y0073702048D01*
X0030464465Y0073683580D01*
X0030464461Y0073683578D01*
X0030457638Y0073679542D01*
X0030443317Y0073665221D01*
X0030428283Y0073652381D01*
X0030411893Y0073640472D01*
X0030406843Y0073634368D01*
X0030406838Y0073634364D01*
X0030402555Y0073629185D01*
X0030343721Y0073589447D01*
X0030305470Y0073583500D01*
X0029648600Y0073583500D01*
X0029645353Y0073583163D01*
X0029645350Y0073583163D01*
X0029549692Y0073573238D01*
X0029549688Y0073573237D01*
X0029542834Y0073572526D01*
X0029536298Y0073570345D01*
X0029536296Y0073570345D01*
X0029420467Y0073531701D01*
X0029375054Y0073516550D01*
X0029224652Y0073423478D01*
X0029139051Y0073337727D01*
X0029138216Y0073336891D01*
X0029075934Y0073302812D01*
X0029005114Y0073307815D01*
X0028960025Y0073336736D01*
X0028877482Y0073419134D01*
X0028872303Y0073424305D01*
X0028866072Y0073428146D01*
X0028727968Y0073513275D01*
X0028727966Y0073513276D01*
X0028721738Y0073517115D01*
X0028561254Y0073570345D01*
X0028560389Y0073570632D01*
X0028560387Y0073570632D01*
X0028553860Y0073572797D01*
X0028547024Y0073573497D01*
X0028547022Y0073573498D01*
X0028503968Y0073577909D01*
X0028449400Y0073583500D01*
X0027648600Y0073583500D01*
X0027645354Y0073583163D01*
X0027645350Y0073583163D01*
X0027549692Y0073573238D01*
X0027549688Y0073573237D01*
X0027542834Y0073572526D01*
X0027536298Y0073570345D01*
X0027536296Y0073570345D01*
X0027420467Y0073531701D01*
X0027375054Y0073516550D01*
X0027224652Y0073423478D01*
X0027099695Y0073298303D01*
X0027095855Y0073292073D01*
X0027095854Y0073292072D01*
X0027033785Y0073191377D01*
X0027006885Y0073147738D01*
X0026951203Y0072979861D01*
X0026950503Y0072973025D01*
X0026950502Y0072973022D01*
X0026946091Y0072929969D01*
X0026940500Y0072875400D01*
X0026940500Y0071874600D01*
X0026951474Y0071768834D01*
X0026953655Y0071762298D01*
X0026953655Y0071762295D01*
X0026980927Y0071680553D01*
X0027007450Y0071601054D01*
X0027010641Y0071595898D01*
X0027021348Y0071526237D01*
X0026992483Y0071461373D01*
X0026985557Y0071453861D01*
X0026812499Y0071280804D01*
X0026750187Y0071246779D01*
X0026723404Y0071243900D01*
X0026667513Y0071243900D01*
X0026661061Y0071242528D01*
X0026661056Y0071242528D01*
X0026604852Y0071230581D01*
X0026480712Y0071204194D01*
X0026474682Y0071201509D01*
X0026474681Y0071201509D01*
X0026312278Y0071129203D01*
X0026312276Y0071129201D01*
X0026306248Y0071126518D01*
X0026151747Y0071014265D01*
X0026147326Y0071009356D01*
X0026147325Y0071009355D01*
X0026108644Y0070966395D01*
X0026048198Y0070929155D01*
X0025977215Y0070930507D01*
X0025927877Y0070959687D01*
X0025849480Y0071034736D01*
X0025845150Y0071038881D01*
X0025840119Y0071042130D01*
X0025840112Y0071042135D01*
X0025812393Y0071060033D01*
X0025766016Y0071113789D01*
X0025756063Y0071184085D01*
X0025785696Y0071248602D01*
X0025802909Y0071264970D01*
X0025917856Y0071355262D01*
X0025926506Y0071363499D01*
X0026057212Y0071514123D01*
X0026064147Y0071523847D01*
X0026164010Y0071696467D01*
X0026168984Y0071707331D01*
X0026234407Y0071895727D01*
X0026234648Y0071896716D01*
X0026233180Y0071907008D01*
X0026219615Y0071911000D01*
X0023494598Y0071911000D01*
X0023481067Y0071907027D01*
X0023479712Y0071897601D01*
X0023494673Y0071835520D01*
X0023491188Y0071764609D01*
X0023449918Y0071706839D01*
X0023383967Y0071680553D01*
X0023372180Y0071680000D01*
X0023255587Y0071680000D01*
X0023187466Y0071700002D01*
X0023140973Y0071753658D01*
X0023130869Y0071823932D01*
X0023136274Y0071846501D01*
X0023148385Y0071882179D01*
X0023151017Y0071893143D01*
X0023149040Y0071907008D01*
X0023135474Y0071911000D01*
X0020856981Y0071911000D01*
X0020843450Y0071907027D01*
X0020842158Y0071898038D01*
X0020873656Y0071774015D01*
X0020877497Y0071763168D01*
X0020963685Y0071576211D01*
X0020969436Y0071566250D01*
X0021088254Y0071398127D01*
X0021095725Y0071389379D01*
X0021235118Y0071253589D01*
X0021269956Y0071191728D01*
X0021265819Y0071120852D01*
X0021230274Y0071068604D01*
X0021132842Y0070983158D01*
X0020998181Y0070812342D01*
X0020896905Y0070619846D01*
X0020895192Y0070614329D01*
X0020842171Y0070443575D01*
X0020832403Y0070412117D01*
X0020806837Y0070196113D01*
X0020821063Y0069979067D01*
X0020822484Y0069973471D01*
X0020822485Y0069973466D01*
X0020867553Y0069796014D01*
X0020874605Y0069768247D01*
X0020877022Y0069763004D01*
X0020921728Y0069666028D01*
X0020965668Y0069570715D01*
X0020969001Y0069565999D01*
X0021075621Y0069415136D01*
X0021091204Y0069393086D01*
X0021095346Y0069389051D01*
X0021234741Y0069253259D01*
X0021269579Y0069191397D01*
X0021265442Y0069120522D01*
X0021229899Y0069068274D01*
X0021132842Y0068983158D01*
X0021129270Y0068978627D01*
X0021007807Y0068824552D01*
X0020998181Y0068812342D01*
X0020896905Y0068619846D01*
X0020895192Y0068614329D01*
X0020854606Y0068483621D01*
X0020832403Y0068412117D01*
X0020806837Y0068196113D01*
X0020821063Y0067979067D01*
X0020822484Y0067973471D01*
X0020822485Y0067973466D01*
X0020859969Y0067825876D01*
X0020874605Y0067768247D01*
X0020965668Y0067570715D01*
X0020969001Y0067565999D01*
X0021063015Y0067432973D01*
X0021091204Y0067393086D01*
X0021095346Y0067389051D01*
X0021234741Y0067253259D01*
X0021269579Y0067191397D01*
X0021265442Y0067120522D01*
X0021229899Y0067068274D01*
X0021132842Y0066983158D01*
X0020998181Y0066812342D01*
X0020896905Y0066619845D01*
X0020895192Y0066614329D01*
X0020842171Y0066443574D01*
X0020832403Y0066412117D01*
X0020806837Y0066196113D01*
X0020821063Y0065979067D01*
X0020822484Y0065973471D01*
X0020822485Y0065973466D01*
X0020861476Y0065819942D01*
X0020874605Y0065768247D01*
X0020965668Y0065570715D01*
X0021091204Y0065393086D01*
X0021095346Y0065389050D01*
X0021234741Y0065253259D01*
X0021269579Y0065191397D01*
X0021265442Y0065120521D01*
X0021229899Y0065068274D01*
X0021132842Y0064983158D01*
X0021129270Y0064978627D01*
X0021076171Y0064911271D01*
X0020998181Y0064812342D01*
X0020896905Y0064619845D01*
X0020895192Y0064614329D01*
X0020854606Y0064483621D01*
X0020832403Y0064412117D01*
X0020806837Y0064196113D01*
X0020821063Y0063979067D01*
X0020822484Y0063973471D01*
X0020822485Y0063973466D01*
X0020845299Y0063883637D01*
X0020874605Y0063768247D01*
X0020965668Y0063570715D01*
X0020969001Y0063565999D01*
X0021063015Y0063432973D01*
X0021091204Y0063393086D01*
X0021095346Y0063389050D01*
X0021234741Y0063253259D01*
X0021269579Y0063191398D01*
X0021265442Y0063120522D01*
X0021229899Y0063068274D01*
X0021132842Y0062983158D01*
X0021129270Y0062978627D01*
X0021064726Y0062896753D01*
X0020998181Y0062812342D01*
X0020896905Y0062619845D01*
X0020895192Y0062614329D01*
X0020835610Y0062422444D01*
X0020832403Y0062412118D01*
X0020806837Y0062196113D01*
X0020821063Y0061979067D01*
X0020822484Y0061973471D01*
X0020822485Y0061973466D01*
X0020863092Y0061813579D01*
X0020874605Y0061768247D01*
X0020965668Y0061570715D01*
X0020969001Y0061565999D01*
X0021058147Y0061439861D01*
X0021091204Y0061393086D01*
X0021095346Y0061389050D01*
X0021234741Y0061253259D01*
X0021269579Y0061191398D01*
X0021265442Y0061120522D01*
X0021229899Y0061068274D01*
X0021132842Y0060983158D01*
X0021129270Y0060978627D01*
X0021064726Y0060896753D01*
X0020998181Y0060812342D01*
X0020896905Y0060619845D01*
X0020895192Y0060614329D01*
X0020854606Y0060483621D01*
X0020832403Y0060412118D01*
X0020806837Y0060196113D01*
X0020821063Y0059979067D01*
X0020822484Y0059973471D01*
X0020822485Y0059973466D01*
X0020847934Y0059873264D01*
X0020874605Y0059768247D01*
X0020965668Y0059570715D01*
X0020969001Y0059565999D01*
X0021063015Y0059432973D01*
X0021091204Y0059393086D01*
X0021095346Y0059389050D01*
X0021234741Y0059253259D01*
X0021269579Y0059191398D01*
X0021265442Y0059120522D01*
X0021229899Y0059068274D01*
X0021132842Y0058983158D01*
X0021129270Y0058978627D01*
X0021064726Y0058896753D01*
X0020998181Y0058812342D01*
X0020896905Y0058619845D01*
X0020895192Y0058614329D01*
X0020842171Y0058443574D01*
X0020832403Y0058412118D01*
X0020806837Y0058196113D01*
X0020821063Y0057979067D01*
X0020822484Y0057973471D01*
X0020822485Y0057973466D01*
X0020862364Y0057816447D01*
X0020874605Y0057768247D01*
X0020965668Y0057570715D01*
X0020969001Y0057565999D01*
X0021063143Y0057432792D01*
X0021091204Y0057393086D01*
X0021095346Y0057389050D01*
X0021234741Y0057253259D01*
X0021269579Y0057191398D01*
X0021265442Y0057120522D01*
X0021229899Y0057068274D01*
X0021132842Y0056983158D01*
X0021129270Y0056978627D01*
X0021064726Y0056896753D01*
X0020998181Y0056812342D01*
X0020896905Y0056619845D01*
X0020832403Y0056412118D01*
X0020806837Y0056196113D01*
X0020821063Y0055979067D01*
X0020822484Y0055973471D01*
X0020822485Y0055973466D01*
X0020855874Y0055841998D01*
X0020874605Y0055768247D01*
X0020965668Y0055570715D01*
X0021091204Y0055393086D01*
X0021095346Y0055389050D01*
X0021234741Y0055253259D01*
X0021269579Y0055191398D01*
X0021265442Y0055120522D01*
X0021229899Y0055068274D01*
X0021132842Y0054983158D01*
X0021129270Y0054978627D01*
X0021064726Y0054896753D01*
X0020998181Y0054812342D01*
X0020896905Y0054619845D01*
X0020832403Y0054412118D01*
X0020806837Y0054196113D01*
X0020821063Y0053979067D01*
X0020874605Y0053768247D01*
X0020965668Y0053570715D01*
X0021091204Y0053393086D01*
X0021095346Y0053389050D01*
X0021234741Y0053253259D01*
X0021269579Y0053191398D01*
X0021265442Y0053120522D01*
X0021229899Y0053068274D01*
X0021132842Y0052983158D01*
X0021129270Y0052978627D01*
X0021064726Y0052896753D01*
X0020998181Y0052812342D01*
X0020896905Y0052619845D01*
X0020832403Y0052412118D01*
X0020806837Y0052196113D01*
X0020821063Y0051979067D01*
X0020833013Y0051932015D01*
X0020830395Y0051861068D01*
X0020789835Y0051802798D01*
X0020724211Y0051775706D01*
X0020710890Y0051775000D01*
X0020634000Y0051775000D01*
X0020565879Y0051795002D01*
X0020519386Y0051848658D01*
X0020508000Y0051901000D01*
X0020508000Y0072422201D01*
X0020840218Y0072422201D01*
X0020846950Y0072419000D01*
X0021722885Y0072419000D01*
X0021738124Y0072423475D01*
X0021739329Y0072424865D01*
X0021741000Y0072432548D01*
X0021741000Y0072437115D01*
X0022249000Y0072437115D01*
X0022253475Y0072421876D01*
X0022254865Y0072420671D01*
X0022262548Y0072419000D01*
X0023134485Y0072419000D01*
X0023148016Y0072422973D01*
X0023149185Y0072431108D01*
X0023148571Y0072433284D01*
X0023475352Y0072433284D01*
X0023476820Y0072422992D01*
X0023490385Y0072419000D01*
X0024582885Y0072419000D01*
X0024598124Y0072423475D01*
X0024599329Y0072424865D01*
X0024601000Y0072432548D01*
X0024601000Y0072437115D01*
X0025109000Y0072437115D01*
X0025113475Y0072421876D01*
X0025114865Y0072420671D01*
X0025122548Y0072419000D01*
X0026215402Y0072419000D01*
X0026228932Y0072422973D01*
X0026230288Y0072432399D01*
X0026208806Y0072521537D01*
X0026204917Y0072532832D01*
X0026122371Y0072714382D01*
X0026116424Y0072724724D01*
X0026001032Y0072887397D01*
X0025993239Y0072896425D01*
X0025849169Y0073034342D01*
X0025839799Y0073041742D01*
X0025811979Y0073059705D01*
X0025765601Y0073113460D01*
X0025755647Y0073183756D01*
X0025785278Y0073248273D01*
X0025802493Y0073264643D01*
X0025917856Y0073355262D01*
X0025926506Y0073363499D01*
X0026057212Y0073514123D01*
X0026064147Y0073523847D01*
X0026164010Y0073696467D01*
X0026168984Y0073707331D01*
X0026234407Y0073895727D01*
X0026234648Y0073896716D01*
X0026233180Y0073907008D01*
X0026219615Y0073911000D01*
X0025127115Y0073911000D01*
X0025111876Y0073906525D01*
X0025110671Y0073905135D01*
X0025109000Y0073897452D01*
X0025109000Y0072437115D01*
X0024601000Y0072437115D01*
X0024601000Y0073892885D01*
X0024596525Y0073908124D01*
X0024595135Y0073909329D01*
X0024587452Y0073911000D01*
X0023494598Y0073911000D01*
X0023481067Y0073907027D01*
X0023479712Y0073897601D01*
X0023501194Y0073808463D01*
X0023505083Y0073797168D01*
X0023587629Y0073615618D01*
X0023593576Y0073605276D01*
X0023708968Y0073442603D01*
X0023716761Y0073433575D01*
X0023860831Y0073295658D01*
X0023870201Y0073288258D01*
X0023898021Y0073270295D01*
X0023944399Y0073216540D01*
X0023954353Y0073146244D01*
X0023924722Y0073081727D01*
X0023907507Y0073065357D01*
X0023792143Y0072974738D01*
X0023783494Y0072966501D01*
X0023652788Y0072815877D01*
X0023645853Y0072806153D01*
X0023545990Y0072633533D01*
X0023541016Y0072622669D01*
X0023475593Y0072434273D01*
X0023475352Y0072433284D01*
X0023148571Y0072433284D01*
X0023105725Y0072585206D01*
X0023101603Y0072595945D01*
X0023010549Y0072780583D01*
X0023004538Y0072790392D01*
X0022881360Y0072955349D01*
X0022873671Y0072963889D01*
X0022755320Y0073073291D01*
X0022718875Y0073134220D01*
X0022721156Y0073205180D01*
X0022760280Y0073262689D01*
X0022830652Y0073321218D01*
X0022838782Y0073329347D01*
X0022970420Y0073487625D01*
X0022976944Y0073497118D01*
X0023077531Y0073676728D01*
X0023082210Y0073687237D01*
X0023148386Y0073882183D01*
X0023151017Y0073893143D01*
X0023149040Y0073907008D01*
X0023135474Y0073911000D01*
X0022267115Y0073911000D01*
X0022251876Y0073906525D01*
X0022250671Y0073905135D01*
X0022249000Y0073897452D01*
X0022249000Y0072437115D01*
X0021741000Y0072437115D01*
X0021741000Y0073892885D01*
X0021736525Y0073908124D01*
X0021735135Y0073909329D01*
X0021727452Y0073911000D01*
X0020856981Y0073911000D01*
X0020843450Y0073907027D01*
X0020842158Y0073898038D01*
X0020873656Y0073774015D01*
X0020877497Y0073763168D01*
X0020963685Y0073576211D01*
X0020969436Y0073566250D01*
X0021088254Y0073398127D01*
X0021095720Y0073389385D01*
X0021235477Y0073253239D01*
X0021270314Y0073191377D01*
X0021266177Y0073120501D01*
X0021230632Y0073068253D01*
X0021137552Y0072986624D01*
X0021129630Y0072978276D01*
X0021002180Y0072816606D01*
X0020995909Y0072806950D01*
X0020900060Y0072624771D01*
X0020895655Y0072614137D01*
X0020840436Y0072436300D01*
X0020840218Y0072422201D01*
X0020508000Y0072422201D01*
X0020508000Y0074678800D01*
X0020812794Y0074678800D01*
X0020831665Y0074662448D01*
X0020870049Y0074602721D01*
X0020869486Y0074529859D01*
X0020840436Y0074436300D01*
X0020840218Y0074422201D01*
X0020846950Y0074419000D01*
X0023134485Y0074419000D01*
X0023148016Y0074422973D01*
X0023149185Y0074431107D01*
X0023124510Y0074518598D01*
X0023125270Y0074589591D01*
X0023164291Y0074648901D01*
X0023229184Y0074677702D01*
X0023245779Y0074678800D01*
X0023383372Y0074678800D01*
X0023451493Y0074658798D01*
X0023497986Y0074605142D01*
X0023508090Y0074534868D01*
X0023502399Y0074511466D01*
X0023475595Y0074434279D01*
X0023475352Y0074433284D01*
X0023476820Y0074422992D01*
X0023490385Y0074419000D01*
X0026215402Y0074419000D01*
X0026228932Y0074422973D01*
X0026230288Y0074432399D01*
X0026208806Y0074521537D01*
X0026204917Y0074532832D01*
X0026186051Y0074574325D01*
X0026176065Y0074644616D01*
X0026205665Y0074709147D01*
X0026251224Y0074742334D01*
X0029219464Y0076011200D01*
X0029377064Y0076078571D01*
X0029447564Y0076086955D01*
X0029479843Y0076076907D01*
X0029483424Y0076075237D01*
X0029637710Y0076024062D01*
X0029651086Y0076021195D01*
X0029745438Y0076011528D01*
X0029751854Y0076011200D01*
X0029864385Y0076011200D01*
X0029879624Y0076015675D01*
X0029880829Y0076017065D01*
X0029882500Y0076024748D01*
X0029882500Y0076029316D01*
X0030390500Y0076029316D01*
X0030394975Y0076014077D01*
X0030396365Y0076012872D01*
X0030404048Y0076011201D01*
X0030521095Y0076011201D01*
X0030527614Y0076011538D01*
X0030623206Y0076021457D01*
X0030636600Y0076024349D01*
X0030790784Y0076075788D01*
X0030803962Y0076081961D01*
X0030941807Y0076167263D01*
X0030953208Y0076176299D01*
X0031067739Y0076291029D01*
X0031076751Y0076302440D01*
X0031161816Y0076440443D01*
X0031167963Y0076453624D01*
X0031219138Y0076607910D01*
X0031222005Y0076621286D01*
X0031231672Y0076715638D01*
X0031232000Y0076722054D01*
X0031232000Y0076972085D01*
X0031227525Y0076987324D01*
X0031226135Y0076988529D01*
X0031218452Y0076990200D01*
X0030408614Y0076990200D01*
X0030393376Y0076985725D01*
X0030392170Y0076984335D01*
X0030390500Y0076976652D01*
X0030390500Y0076029316D01*
X0029882500Y0076029316D01*
X0029882500Y0077516315D01*
X0030390500Y0077516315D01*
X0030394975Y0077501076D01*
X0030396365Y0077499871D01*
X0030404048Y0077498200D01*
X0031213884Y0077498200D01*
X0031229123Y0077502675D01*
X0031230328Y0077504065D01*
X0031231999Y0077511748D01*
X0031231999Y0077766295D01*
X0031231662Y0077772814D01*
X0031221743Y0077868406D01*
X0031218851Y0077881800D01*
X0031167412Y0078035984D01*
X0031161239Y0078049162D01*
X0031075937Y0078187007D01*
X0031066901Y0078198408D01*
X0030952171Y0078312939D01*
X0030940759Y0078321951D01*
X0030802757Y0078407016D01*
X0030789576Y0078413163D01*
X0030635289Y0078464338D01*
X0030621914Y0078467205D01*
X0030527562Y0078476872D01*
X0030521145Y0078477200D01*
X0030408614Y0078477200D01*
X0030393376Y0078472725D01*
X0030392170Y0078471335D01*
X0030390500Y0078463652D01*
X0030390500Y0077516315D01*
X0029882500Y0077516315D01*
X0029882500Y0078459084D01*
X0029878025Y0078474323D01*
X0029876635Y0078475528D01*
X0029868952Y0078477199D01*
X0029751905Y0078477199D01*
X0029745386Y0078476862D01*
X0029649794Y0078466943D01*
X0029636400Y0078464051D01*
X0029580939Y0078445548D01*
X0029509988Y0078442964D01*
X0029448905Y0078479148D01*
X0029435485Y0078502693D01*
X0029430000Y0078507447D01*
X0029430000Y0078514200D01*
X0029418329Y0078517560D01*
X0027789523Y0078986459D01*
X0026308790Y0079412730D01*
X0026248860Y0079450797D01*
X0026219026Y0079515221D01*
X0026224054Y0079573480D01*
X0026250632Y0079653611D01*
X0026250632Y0079653613D01*
X0026252797Y0079660139D01*
X0026263500Y0079764600D01*
X0026263500Y0080565400D01*
X0026252526Y0080671166D01*
X0026196550Y0080838946D01*
X0026103478Y0080989348D01*
X0025978303Y0081114305D01*
X0025972072Y0081118146D01*
X0025833968Y0081203275D01*
X0025833966Y0081203276D01*
X0025827738Y0081207115D01*
X0025667254Y0081260345D01*
X0025666389Y0081260632D01*
X0025666387Y0081260632D01*
X0025659861Y0081262797D01*
X0025653025Y0081263497D01*
X0025653022Y0081263498D01*
X0025609969Y0081267909D01*
X0025555400Y0081273500D01*
X0024154600Y0081273500D01*
X0024151354Y0081273163D01*
X0024151350Y0081273163D01*
X0024055692Y0081263238D01*
X0024055688Y0081263237D01*
X0024048834Y0081262526D01*
X0024042298Y0081260345D01*
X0024042296Y0081260345D01*
X0023910194Y0081216272D01*
X0023881054Y0081206550D01*
X0023730652Y0081113478D01*
X0023605695Y0080988303D01*
X0023601855Y0080982073D01*
X0023601854Y0080982072D01*
X0023525611Y0080858384D01*
X0023472838Y0080810890D01*
X0023418351Y0080798500D01*
X0023301291Y0080798500D01*
X0023233170Y0080818502D01*
X0023186677Y0080872158D01*
X0023176028Y0080910892D01*
X0023172598Y0080942460D01*
X0023171745Y0080950316D01*
X0023120615Y0081086705D01*
X0023033261Y0081203261D01*
X0022916705Y0081290615D01*
X0022780316Y0081341745D01*
X0022718134Y0081348500D01*
X0021271866Y0081348500D01*
X0021209684Y0081341745D01*
X0021073295Y0081290615D01*
X0020956739Y0081203261D01*
X0020869385Y0081086705D01*
X0020818255Y0080950316D01*
X0020811500Y0080888134D01*
X0020811500Y0079509281D01*
X0020808621Y0079482499D01*
X0020807947Y0079479400D01*
X0020508000Y0079479400D01*
X0020508000Y0083366000D01*
X0020528002Y0083434121D01*
X0020581658Y0083480614D01*
X0020634000Y0083492000D01*
X0022969162Y0083492000D01*
X0023006129Y0083486455D01*
G37*
G04 #@! TD.AperFunction*
G04 #@! TA.AperFunction,Conductor*
G36*
X0025335701Y0078699317D02*
G01*
X0027439000Y0077984132D01*
X0027439002Y0077984132D01*
X0027448800Y0077980800D01*
X0028493354Y0077980800D01*
X0028561475Y0077960798D01*
X0028607968Y0077907142D01*
X0028619335Y0077856972D01*
X0028640390Y0076635772D01*
X0028621566Y0076567317D01*
X0028568719Y0076519906D01*
X0028514409Y0076507600D01*
X0027474200Y0076507600D01*
X0025365261Y0075578663D01*
X0025313654Y0075567975D01*
X0021559953Y0075592387D01*
X0021491964Y0075612831D01*
X0021445821Y0075666788D01*
X0021434773Y0075718155D01*
X0021429616Y0078556403D01*
X0021449494Y0078624560D01*
X0021503066Y0078671150D01*
X0021554827Y0078682630D01*
X0024047840Y0078698225D01*
X0025294350Y0078706023D01*
X0025335701Y0078699317D01*
G37*
G04 #@! TD.AperFunction*
G04 #@! TA.AperFunction,Conductor*
G36*
X0020805000Y0074495000D02*
G01*
X0020500000Y0074495000D01*
X0020500000Y0079775000D01*
X0020805000Y0079775000D01*
X0020805000Y0074495000D01*
G37*
G04 #@! TD.AperFunction*
M02*