G04 #@! TF.GenerationSoftware,KiCad,Pcbnew,(6.0.1)*
G04 #@! TF.CreationDate,2022-07-05T00:40:55-07:00*
G04 #@! TF.ProjectId,mu100-dit-connector-board,6d753130-302d-4646-9974-2d636f6e6e65,rev?*
G04 #@! TF.SameCoordinates,PX4a615b8PY2b4db18*
G04 #@! TF.FileFunction,Legend,Top*
G04 #@! TF.FilePolarity,Positive*
%FSLAX46Y46*%
G04 Gerber Fmt 4.6, Leading zero omitted, Abs format (unit mm)*
G04 Created by KiCad (PCBNEW (6.0.1)) date 2022-07-05 00:40:55*
%MOMM*%
%LPD*%
G01*
G04 APERTURE LIST*
%ADD10C,0.125*%
%ADD11C,0.15*%
%ADD12C,0.12*%
G04 APERTURE END LIST*
D10*
X0034517714Y0056233343D02*
X0034517714Y0056614295D01*
X0034708190Y0056423820D02*
X0034327238Y0056423820D01*
X0034208190Y0057090486D02*
X0034208190Y0056852391D01*
X0034446285Y0056828581D01*
X0034422476Y0056852391D01*
X0034398666Y0056900010D01*
X0034398666Y0057019058D01*
X0034422476Y0057066677D01*
X0034446285Y0057090486D01*
X0034493904Y0057114295D01*
X0034612952Y0057114295D01*
X0034660571Y0057090486D01*
X0034684380Y0057066677D01*
X0034708190Y0057019058D01*
X0034708190Y0056900010D01*
X0034684380Y0056852391D01*
X0034660571Y0056828581D01*
X0034208190Y0057257153D02*
X0034708190Y0057423820D01*
X0034208190Y0057590486D01*
D11*
X0027070714Y0046468810D02*
X0027880238Y0046468810D01*
X0027975476Y0046421191D01*
X0028023094Y0046373572D01*
X0028070714Y0046278334D01*
X0028070714Y0046135477D01*
X0028023094Y0046040239D01*
X0027689761Y0046468810D02*
X0027737380Y0046373572D01*
X0027737380Y0046183096D01*
X0027689761Y0046087858D01*
X0027642142Y0046040239D01*
X0027546903Y0045992620D01*
X0027261190Y0045992620D01*
X0027165952Y0046040239D01*
X0027118333Y0046087858D01*
X0027070714Y0046183096D01*
X0027070714Y0046373572D01*
X0027118333Y0046468810D01*
X0027737380Y0046945000D02*
X0027070714Y0046945000D01*
X0026737380Y0046945000D02*
X0026785000Y0046897381D01*
X0026832619Y0046945000D01*
X0026785000Y0046992620D01*
X0026737380Y0046945000D01*
X0026832619Y0046945000D01*
X0027070714Y0047278334D02*
X0027070714Y0047659286D01*
X0026737380Y0047421191D02*
X0027594523Y0047421191D01*
X0027689761Y0047468810D01*
X0027737380Y0047564048D01*
X0027737380Y0047659286D01*
X0027737380Y0047992620D02*
X0026737380Y0047992620D01*
X0027737380Y0048421191D02*
X0027213571Y0048421191D01*
X0027118333Y0048373572D01*
X0027070714Y0048278334D01*
X0027070714Y0048135477D01*
X0027118333Y0048040239D01*
X0027165952Y0047992620D01*
X0027070714Y0049325953D02*
X0027737380Y0049325953D01*
X0027070714Y0048897381D02*
X0027594523Y0048897381D01*
X0027689761Y0048945000D01*
X0027737380Y0049040239D01*
X0027737380Y0049183096D01*
X0027689761Y0049278334D01*
X0027642142Y0049325953D01*
X0027737380Y0049802143D02*
X0026737380Y0049802143D01*
X0027118333Y0049802143D02*
X0027070714Y0049897381D01*
X0027070714Y0050087858D01*
X0027118333Y0050183096D01*
X0027165952Y0050230715D01*
X0027261190Y0050278334D01*
X0027546903Y0050278334D01*
X0027642142Y0050230715D01*
X0027689761Y0050183096D01*
X0027737380Y0050087858D01*
X0027737380Y0049897381D01*
X0027689761Y0049802143D01*
X0027642142Y0050706905D02*
X0027689761Y0050754524D01*
X0027737380Y0050706905D01*
X0027689761Y0050659286D01*
X0027642142Y0050706905D01*
X0027737380Y0050706905D01*
X0027689761Y0051611667D02*
X0027737380Y0051516429D01*
X0027737380Y0051325953D01*
X0027689761Y0051230715D01*
X0027642142Y0051183096D01*
X0027546903Y0051135477D01*
X0027261190Y0051135477D01*
X0027165952Y0051183096D01*
X0027118333Y0051230715D01*
X0027070714Y0051325953D01*
X0027070714Y0051516429D01*
X0027118333Y0051611667D01*
X0027737380Y0052183096D02*
X0027689761Y0052087858D01*
X0027642142Y0052040239D01*
X0027546903Y0051992620D01*
X0027261190Y0051992620D01*
X0027165952Y0052040239D01*
X0027118333Y0052087858D01*
X0027070714Y0052183096D01*
X0027070714Y0052325953D01*
X0027118333Y0052421191D01*
X0027165952Y0052468810D01*
X0027261190Y0052516429D01*
X0027546903Y0052516429D01*
X0027642142Y0052468810D01*
X0027689761Y0052421191D01*
X0027737380Y0052325953D01*
X0027737380Y0052183096D01*
X0027737380Y0052945000D02*
X0027070714Y0052945000D01*
X0027165952Y0052945000D02*
X0027118333Y0052992620D01*
X0027070714Y0053087858D01*
X0027070714Y0053230715D01*
X0027118333Y0053325953D01*
X0027213571Y0053373571D01*
X0027737380Y0053373571D01*
X0027213571Y0053373571D02*
X0027118333Y0053421191D01*
X0027070714Y0053516429D01*
X0027070714Y0053659286D01*
X0027118333Y0053754524D01*
X0027213571Y0053802143D01*
X0027737380Y0053802143D01*
X0026689761Y0054992620D02*
X0027975476Y0054135477D01*
X0028680714Y0046849762D02*
X0029347380Y0046849762D01*
X0028775952Y0046849762D02*
X0028728333Y0046897381D01*
X0028680714Y0046992620D01*
X0028680714Y0047135477D01*
X0028728333Y0047230715D01*
X0028823571Y0047278334D01*
X0029347380Y0047278334D01*
X0029347380Y0047754524D02*
X0028680714Y0047754524D01*
X0028347380Y0047754524D02*
X0028395000Y0047706905D01*
X0028442619Y0047754524D01*
X0028395000Y0047802143D01*
X0028347380Y0047754524D01*
X0028442619Y0047754524D01*
X0029347380Y0048230715D02*
X0028347380Y0048230715D01*
X0028966428Y0048325953D02*
X0029347380Y0048611667D01*
X0028680714Y0048611667D02*
X0029061666Y0048230715D01*
X0029347380Y0049040239D02*
X0028680714Y0049040239D01*
X0028347380Y0049040239D02*
X0028395000Y0048992620D01*
X0028442619Y0049040239D01*
X0028395000Y0049087858D01*
X0028347380Y0049040239D01*
X0028442619Y0049040239D01*
X0028680714Y0049373572D02*
X0028680714Y0049754524D01*
X0028347380Y0049516429D02*
X0029204523Y0049516429D01*
X0029299761Y0049564048D01*
X0029347380Y0049659286D01*
X0029347380Y0049754524D01*
X0029347380Y0050516429D02*
X0028823571Y0050516429D01*
X0028728333Y0050468810D01*
X0028680714Y0050373572D01*
X0028680714Y0050183096D01*
X0028728333Y0050087858D01*
X0029299761Y0050516429D02*
X0029347380Y0050421191D01*
X0029347380Y0050183096D01*
X0029299761Y0050087858D01*
X0029204523Y0050040239D01*
X0029109285Y0050040239D01*
X0029014046Y0050087858D01*
X0028966428Y0050183096D01*
X0028966428Y0050421191D01*
X0028918809Y0050516429D01*
X0029347380Y0051135477D02*
X0029299761Y0051040239D01*
X0029204523Y0050992620D01*
X0028347380Y0050992620D01*
X0029347380Y0051516429D02*
X0028680714Y0051516429D01*
X0028347380Y0051516429D02*
X0028395000Y0051468810D01*
X0028442619Y0051516429D01*
X0028395000Y0051564048D01*
X0028347380Y0051516429D01*
X0028442619Y0051516429D01*
X0028680714Y0051849762D02*
X0028680714Y0052230715D01*
X0028347380Y0051992620D02*
X0029204523Y0051992620D01*
X0029299761Y0052040239D01*
X0029347380Y0052135477D01*
X0029347380Y0052230715D01*
X0029347380Y0052992620D02*
X0028823571Y0052992620D01*
X0028728333Y0052945000D01*
X0028680714Y0052849762D01*
X0028680714Y0052659286D01*
X0028728333Y0052564048D01*
X0029299761Y0052992620D02*
X0029347380Y0052897380D01*
X0029347380Y0052659286D01*
X0029299761Y0052564048D01*
X0029204523Y0052516429D01*
X0029109285Y0052516429D01*
X0029014046Y0052564048D01*
X0028966428Y0052659286D01*
X0028966428Y0052897380D01*
X0028918809Y0052992620D01*
X0028299761Y0054183096D02*
X0029585476Y0053325953D01*
X0030957380Y0046421191D02*
X0029957380Y0046421191D01*
X0030671666Y0046754524D01*
X0029957380Y0047087858D01*
X0030957380Y0047087858D01*
X0029957380Y0047564048D02*
X0030766904Y0047564048D01*
X0030862142Y0047611667D01*
X0030909761Y0047659286D01*
X0030957380Y0047754524D01*
X0030957380Y0047945000D01*
X0030909761Y0048040239D01*
X0030862142Y0048087858D01*
X0030766904Y0048135477D01*
X0029957380Y0048135477D01*
X0030957380Y0049135477D02*
X0030957380Y0048564048D01*
X0030957380Y0048849762D02*
X0029957380Y0048849762D01*
X0030100237Y0048754524D01*
X0030195476Y0048659286D01*
X0030243095Y0048564048D01*
X0029957380Y0049754524D02*
X0029957380Y0049849762D01*
X0030005000Y0049945000D01*
X0030052619Y0049992620D01*
X0030147857Y0050040239D01*
X0030338333Y0050087858D01*
X0030576428Y0050087858D01*
X0030766904Y0050040239D01*
X0030862142Y0049992620D01*
X0030909761Y0049945000D01*
X0030957380Y0049849762D01*
X0030957380Y0049754524D01*
X0030909761Y0049659286D01*
X0030862142Y0049611667D01*
X0030766904Y0049564048D01*
X0030576428Y0049516429D01*
X0030338333Y0049516429D01*
X0030147857Y0049564048D01*
X0030052619Y0049611667D01*
X0030005000Y0049659286D01*
X0029957380Y0049754524D01*
X0029957380Y0050706905D02*
X0029957380Y0050802143D01*
X0030005000Y0050897381D01*
X0030052619Y0050945000D01*
X0030147857Y0050992620D01*
X0030338333Y0051040239D01*
X0030576428Y0051040239D01*
X0030766904Y0050992620D01*
X0030862142Y0050945000D01*
X0030909761Y0050897381D01*
X0030957380Y0050802143D01*
X0030957380Y0050706905D01*
X0030909761Y0050611667D01*
X0030862142Y0050564048D01*
X0030766904Y0050516429D01*
X0030576428Y0050468810D01*
X0030338333Y0050468810D01*
X0030147857Y0050516429D01*
X0030052619Y0050564048D01*
X0030005000Y0050611667D01*
X0029957380Y0050706905D01*
X0030576428Y0051468810D02*
X0030576428Y0052230715D01*
X0030957380Y0052706905D02*
X0029957380Y0052706905D01*
X0029957380Y0052945000D01*
X0030005000Y0053087858D01*
X0030100237Y0053183096D01*
X0030195476Y0053230715D01*
X0030385952Y0053278334D01*
X0030528809Y0053278334D01*
X0030719285Y0053230715D01*
X0030814523Y0053183096D01*
X0030909761Y0053087858D01*
X0030957380Y0052945000D01*
X0030957380Y0052706905D01*
X0030957380Y0053706905D02*
X0029957380Y0053706905D01*
X0029957380Y0054040239D02*
X0029957380Y0054611667D01*
X0030957380Y0054325953D02*
X0029957380Y0054325953D01*
D10*
X0034232000Y0058795248D02*
X0034208190Y0058747629D01*
X0034208190Y0058676200D01*
X0034232000Y0058604772D01*
X0034279619Y0058557153D01*
X0034327238Y0058533343D01*
X0034422476Y0058509534D01*
X0034493904Y0058509534D01*
X0034589142Y0058533343D01*
X0034636761Y0058557153D01*
X0034684380Y0058604772D01*
X0034708190Y0058676200D01*
X0034708190Y0058723820D01*
X0034684380Y0058795248D01*
X0034660571Y0058819058D01*
X0034493904Y0058819058D01*
X0034493904Y0058723820D01*
X0034708190Y0059033343D02*
X0034208190Y0059033343D01*
X0034708190Y0059319058D01*
X0034208190Y0059319058D01*
X0034708190Y0059557153D02*
X0034208190Y0059557153D01*
X0034208190Y0059676200D01*
X0034232000Y0059747629D01*
X0034279619Y0059795248D01*
X0034327238Y0059819058D01*
X0034422476Y0059842867D01*
X0034493904Y0059842867D01*
X0034589142Y0059819058D01*
X0034636761Y0059795248D01*
X0034684380Y0059747629D01*
X0034708190Y0059676200D01*
X0034708190Y0059557153D01*
X0034232000Y0070795248D02*
X0034208190Y0070747629D01*
X0034208190Y0070676200D01*
X0034232000Y0070604772D01*
X0034279619Y0070557153D01*
X0034327238Y0070533343D01*
X0034422476Y0070509534D01*
X0034493904Y0070509534D01*
X0034589142Y0070533343D01*
X0034636761Y0070557153D01*
X0034684380Y0070604772D01*
X0034708190Y0070676200D01*
X0034708190Y0070723820D01*
X0034684380Y0070795248D01*
X0034660571Y0070819058D01*
X0034493904Y0070819058D01*
X0034493904Y0070723820D01*
X0034708190Y0071033343D02*
X0034208190Y0071033343D01*
X0034708190Y0071319058D01*
X0034208190Y0071319058D01*
X0034708190Y0071557153D02*
X0034208190Y0071557153D01*
X0034208190Y0071676200D01*
X0034232000Y0071747629D01*
X0034279619Y0071795248D01*
X0034327238Y0071819058D01*
X0034422476Y0071842867D01*
X0034493904Y0071842867D01*
X0034589142Y0071819058D01*
X0034636761Y0071795248D01*
X0034684380Y0071747629D01*
X0034708190Y0071676200D01*
X0034708190Y0071557153D01*
X0034708190Y0072580962D02*
X0034708190Y0072342867D01*
X0034208190Y0072342867D01*
X0034708190Y0073033343D02*
X0034470095Y0072866677D01*
X0034708190Y0072747629D02*
X0034208190Y0072747629D01*
X0034208190Y0072938105D01*
X0034232000Y0072985724D01*
X0034255809Y0073009534D01*
X0034303428Y0073033343D01*
X0034374857Y0073033343D01*
X0034422476Y0073009534D01*
X0034446285Y0072985724D01*
X0034470095Y0072938105D01*
X0034470095Y0072747629D01*
X0034660571Y0073533343D02*
X0034684380Y0073509534D01*
X0034708190Y0073438105D01*
X0034708190Y0073390486D01*
X0034684380Y0073319058D01*
X0034636761Y0073271439D01*
X0034589142Y0073247629D01*
X0034493904Y0073223820D01*
X0034422476Y0073223820D01*
X0034327238Y0073247629D01*
X0034279619Y0073271439D01*
X0034232000Y0073319058D01*
X0034208190Y0073390486D01*
X0034208190Y0073438105D01*
X0034232000Y0073509534D01*
X0034255809Y0073533343D01*
X0034708190Y0073747629D02*
X0034208190Y0073747629D01*
X0034708190Y0074033343D02*
X0034422476Y0073819058D01*
X0034208190Y0074033343D02*
X0034493904Y0073747629D01*
X0034232000Y0066795248D02*
X0034208190Y0066747629D01*
X0034208190Y0066676199D01*
X0034232000Y0066604772D01*
X0034279619Y0066557153D01*
X0034327238Y0066533343D01*
X0034422476Y0066509534D01*
X0034493904Y0066509534D01*
X0034589142Y0066533343D01*
X0034636761Y0066557153D01*
X0034684380Y0066604772D01*
X0034708190Y0066676199D01*
X0034708190Y0066723820D01*
X0034684380Y0066795248D01*
X0034660571Y0066819058D01*
X0034493904Y0066819058D01*
X0034493904Y0066723820D01*
X0034708190Y0067033343D02*
X0034208190Y0067033343D01*
X0034708190Y0067319058D01*
X0034208190Y0067319058D01*
X0034708190Y0067557153D02*
X0034208190Y0067557153D01*
X0034208190Y0067676200D01*
X0034232000Y0067747629D01*
X0034279619Y0067795248D01*
X0034327238Y0067819058D01*
X0034422476Y0067842867D01*
X0034493904Y0067842867D01*
X0034589142Y0067819058D01*
X0034636761Y0067795248D01*
X0034684380Y0067747629D01*
X0034708190Y0067676200D01*
X0034708190Y0067557153D01*
X0034708190Y0060307153D02*
X0034208190Y0060307153D01*
X0034565333Y0060473820D01*
X0034208190Y0060640485D01*
X0034708190Y0060640485D01*
X0034660571Y0061164296D02*
X0034684380Y0061140485D01*
X0034708190Y0061069058D01*
X0034708190Y0061021439D01*
X0034684380Y0060950010D01*
X0034636761Y0060902391D01*
X0034589142Y0060878581D01*
X0034493904Y0060854772D01*
X0034422476Y0060854772D01*
X0034327238Y0060878581D01*
X0034279619Y0060902391D01*
X0034232000Y0060950010D01*
X0034208190Y0061021439D01*
X0034208190Y0061069058D01*
X0034232000Y0061140485D01*
X0034255809Y0061164296D01*
X0034708190Y0061616676D02*
X0034708190Y0061378581D01*
X0034208190Y0061378581D01*
X0034708190Y0061783343D02*
X0034208190Y0061783343D01*
X0034708190Y0062069058D02*
X0034422476Y0061854772D01*
X0034208190Y0062069058D02*
X0034493904Y0061783343D01*
X0034684380Y0064378581D02*
X0034708190Y0064450009D01*
X0034708190Y0064569058D01*
X0034684380Y0064616676D01*
X0034660571Y0064640485D01*
X0034612952Y0064664296D01*
X0034565333Y0064664296D01*
X0034517714Y0064640485D01*
X0034493904Y0064616676D01*
X0034470095Y0064569058D01*
X0034446285Y0064473820D01*
X0034422476Y0064426199D01*
X0034398666Y0064402390D01*
X0034351047Y0064378581D01*
X0034303428Y0064378581D01*
X0034255809Y0064402390D01*
X0034232000Y0064426199D01*
X0034208190Y0064473820D01*
X0034208190Y0064592867D01*
X0034232000Y0064664296D01*
X0034708190Y0064878581D02*
X0034208190Y0064878581D01*
X0034208190Y0064997629D01*
X0034232000Y0065069058D01*
X0034279619Y0065116676D01*
X0034327238Y0065140485D01*
X0034422476Y0065164296D01*
X0034493904Y0065164296D01*
X0034589142Y0065140485D01*
X0034636761Y0065116676D01*
X0034684380Y0065069058D01*
X0034708190Y0064997629D01*
X0034708190Y0064878581D01*
X0034565333Y0065354772D02*
X0034565333Y0065592867D01*
X0034708190Y0065307153D02*
X0034208190Y0065473820D01*
X0034708190Y0065640485D01*
X0034208190Y0065735724D02*
X0034208190Y0066021439D01*
X0034708190Y0065878581D02*
X0034208190Y0065878581D01*
X0034232000Y0062795248D02*
X0034208190Y0062747629D01*
X0034208190Y0062676200D01*
X0034232000Y0062604772D01*
X0034279619Y0062557153D01*
X0034327238Y0062533343D01*
X0034422476Y0062509534D01*
X0034493904Y0062509534D01*
X0034589142Y0062533343D01*
X0034636761Y0062557153D01*
X0034684380Y0062604772D01*
X0034708190Y0062676200D01*
X0034708190Y0062723820D01*
X0034684380Y0062795248D01*
X0034660571Y0062819058D01*
X0034493904Y0062819058D01*
X0034493904Y0062723820D01*
X0034708190Y0063033343D02*
X0034208190Y0063033343D01*
X0034708190Y0063319058D01*
X0034208190Y0063319058D01*
X0034708190Y0063557153D02*
X0034208190Y0063557153D01*
X0034208190Y0063676200D01*
X0034232000Y0063747629D01*
X0034279619Y0063795248D01*
X0034327238Y0063819058D01*
X0034422476Y0063842867D01*
X0034493904Y0063842867D01*
X0034589142Y0063819058D01*
X0034636761Y0063795248D01*
X0034684380Y0063747629D01*
X0034708190Y0063676200D01*
X0034708190Y0063557153D01*
X0034708190Y0054683343D02*
X0034208190Y0054683343D01*
X0034708190Y0054969058D01*
X0034208190Y0054969058D01*
X0034660571Y0055492867D02*
X0034684380Y0055469058D01*
X0034708190Y0055397628D01*
X0034708190Y0055350010D01*
X0034684380Y0055278581D01*
X0034636761Y0055230962D01*
X0034589142Y0055207153D01*
X0034493904Y0055183343D01*
X0034422476Y0055183343D01*
X0034327238Y0055207153D01*
X0034279619Y0055230962D01*
X0034232000Y0055278581D01*
X0034208190Y0055350010D01*
X0034208190Y0055397628D01*
X0034232000Y0055469058D01*
X0034255809Y0055492867D01*
X0034446285Y0068592867D02*
X0034470095Y0068664296D01*
X0034493904Y0068688105D01*
X0034541523Y0068711915D01*
X0034612952Y0068711915D01*
X0034660571Y0068688105D01*
X0034684380Y0068664296D01*
X0034708190Y0068616677D01*
X0034708190Y0068426200D01*
X0034208190Y0068426200D01*
X0034208190Y0068592867D01*
X0034232000Y0068640486D01*
X0034255809Y0068664296D01*
X0034303428Y0068688105D01*
X0034351047Y0068688105D01*
X0034398666Y0068664296D01*
X0034422476Y0068640486D01*
X0034446285Y0068592867D01*
X0034446285Y0068426200D01*
X0034708190Y0068926200D02*
X0034208190Y0068926200D01*
X0034660571Y0069450010D02*
X0034684380Y0069426200D01*
X0034708190Y0069354772D01*
X0034708190Y0069307153D01*
X0034684380Y0069235724D01*
X0034636761Y0069188105D01*
X0034589142Y0069164296D01*
X0034493904Y0069140486D01*
X0034422476Y0069140486D01*
X0034327238Y0069164296D01*
X0034279619Y0069188105D01*
X0034232000Y0069235724D01*
X0034208190Y0069307153D01*
X0034208190Y0069354772D01*
X0034232000Y0069426200D01*
X0034255809Y0069450010D01*
X0034708190Y0069664296D02*
X0034208190Y0069664296D01*
X0034708190Y0069950010D02*
X0034422476Y0069735724D01*
X0034208190Y0069950010D02*
X0034493904Y0069664296D01*
D11*
X0028882333Y0062032620D02*
X0028549000Y0062508810D01*
X0028310904Y0062032620D02*
X0028310904Y0063032620D01*
X0028691857Y0063032620D01*
X0028787095Y0062985000D01*
X0028834714Y0062937381D01*
X0028882333Y0062842143D01*
X0028882333Y0062699286D01*
X0028834714Y0062604048D01*
X0028787095Y0062556429D01*
X0028691857Y0062508810D01*
X0028310904Y0062508810D01*
X0029834714Y0062032620D02*
X0029263285Y0062032620D01*
X0029549000Y0062032620D02*
X0029549000Y0063032620D01*
X0029453761Y0062889762D01*
X0029358523Y0062794523D01*
X0029263285Y0062746905D01*
X0021661666Y0082772620D02*
X0021661666Y0082058334D01*
X0021614047Y0081915477D01*
X0021518809Y0081820239D01*
X0021375952Y0081772620D01*
X0021280714Y0081772620D01*
X0022661666Y0081772620D02*
X0022090238Y0081772620D01*
X0022375951Y0081772620D02*
X0022375951Y0082772620D01*
X0022280714Y0082629762D01*
X0022185476Y0082534524D01*
X0022090238Y0082486905D01*
X0028882333Y0065879288D02*
X0028549000Y0066355478D01*
X0028310904Y0065879288D02*
X0028310904Y0066879288D01*
X0028691857Y0066879288D01*
X0028787095Y0066831668D01*
X0028834714Y0066784048D01*
X0028882333Y0066688811D01*
X0028882333Y0066545953D01*
X0028834714Y0066450716D01*
X0028787095Y0066403097D01*
X0028691857Y0066355478D01*
X0028310904Y0066355478D01*
X0029215666Y0066879288D02*
X0029834714Y0066879288D01*
X0029501379Y0066498335D01*
X0029644238Y0066498335D01*
X0029739476Y0066450716D01*
X0029787095Y0066403097D01*
X0029834714Y0066307859D01*
X0029834714Y0066069763D01*
X0029787095Y0065974526D01*
X0029739476Y0065926907D01*
X0029644238Y0065879288D01*
X0029358523Y0065879288D01*
X0029263285Y0065926907D01*
X0029215666Y0065974526D01*
X0028932333Y0078567058D02*
X0028884714Y0078519439D01*
X0028741857Y0078471820D01*
X0028646619Y0078471820D01*
X0028503761Y0078519439D01*
X0028408523Y0078614677D01*
X0028360903Y0078709915D01*
X0028313285Y0078900391D01*
X0028313285Y0079043248D01*
X0028360903Y0079233724D01*
X0028408523Y0079328962D01*
X0028503761Y0079424200D01*
X0028646619Y0079471820D01*
X0028741857Y0079471820D01*
X0028884714Y0079424200D01*
X0028932333Y0079376581D01*
X0029884714Y0078471820D02*
X0029313285Y0078471820D01*
X0029599000Y0078471820D02*
X0029599000Y0079471820D01*
X0029503761Y0079328962D01*
X0029408523Y0079233724D01*
X0029313285Y0079186105D01*
X0028882333Y0069725954D02*
X0028549000Y0070202144D01*
X0028310904Y0069725954D02*
X0028310904Y0070725954D01*
X0028691857Y0070725954D01*
X0028787095Y0070678334D01*
X0028834714Y0070630715D01*
X0028882333Y0070535477D01*
X0028882333Y0070392620D01*
X0028834714Y0070297382D01*
X0028787095Y0070249763D01*
X0028691857Y0070202144D01*
X0028310904Y0070202144D01*
X0029263285Y0070630715D02*
X0029310904Y0070678334D01*
X0029406142Y0070725954D01*
X0029644238Y0070725954D01*
X0029739476Y0070678334D01*
X0029787095Y0070630715D01*
X0029834714Y0070535477D01*
X0029834714Y0070440239D01*
X0029787095Y0070297382D01*
X0029215666Y0069725954D01*
X0029834714Y0069725954D01*
X0028882333Y0073572620D02*
X0028549000Y0074048810D01*
X0028310904Y0073572620D02*
X0028310904Y0074572620D01*
X0028691857Y0074572620D01*
X0028787095Y0074525000D01*
X0028834714Y0074477381D01*
X0028882333Y0074382143D01*
X0028882333Y0074239286D01*
X0028834714Y0074144048D01*
X0028787095Y0074096429D01*
X0028691857Y0074048810D01*
X0028310904Y0074048810D01*
X0029739476Y0074239286D02*
X0029739476Y0073572620D01*
X0029501379Y0074620239D02*
X0029263285Y0073905953D01*
X0029882333Y0073905953D01*
D12*
X0028821936Y0060100000D02*
X0029276063Y0060100000D01*
X0028821936Y0061570000D02*
X0029276063Y0061570000D01*
X0023055000Y0079165000D02*
X0023055000Y0047105000D01*
X0020935000Y0080165000D02*
X0020935000Y0081225000D01*
X0020935000Y0079165000D02*
X0020935000Y0047105000D01*
X0020935000Y0047105000D02*
X0023055000Y0047105000D01*
X0020935000Y0081225000D02*
X0021995000Y0081225000D01*
X0020935000Y0079165000D02*
X0023055000Y0079165000D01*
X0028821936Y0063946668D02*
X0029276063Y0063946668D01*
X0028821936Y0065416668D02*
X0029276063Y0065416668D01*
X0028837747Y0077979200D02*
X0029360252Y0077979200D01*
X0028837747Y0076509200D02*
X0029360252Y0076509200D01*
X0028821936Y0069263334D02*
X0029276063Y0069263334D01*
X0028821936Y0067793334D02*
X0029276063Y0067793334D01*
X0028821936Y0073110000D02*
X0029276063Y0073110000D01*
X0028821936Y0071640000D02*
X0029276063Y0071640000D01*
M02*