%
M48
METRIC,000.000
T01C0.40
T02C0.75
T03C0.80
%
T01
X026762Y070335
X027035Y074605
X027220Y063096
X028395Y074115
X030075Y074055
X032064Y076475
X034095Y075685
T02
X032815Y073175
X032815Y071175
X032815Y069175
X032815Y067175
X032815Y065175
X032815Y063175
X032815Y061175
X032815Y059175
X032815Y057175
X032815Y055175
T03
X021995Y080165
X021995Y078165
X021995Y076165
X021995Y074164
X021995Y072164
X021995Y070164
X021995Y068164
X021995Y066164
X021995Y064164
X021995Y062165
X021995Y060165
X021995Y058165
X021995Y056165
X021995Y054165
X021995Y052165
X021995Y050165
X021995Y048165
X024855Y080165
X024855Y078165
X024855Y076165
X024855Y074164
X024855Y072164
X024855Y070164
X024855Y068164
X024855Y066164
X024855Y064164
X024855Y062165
X024855Y060165
X024855Y058165
X024855Y056165
X024855Y054165
X024855Y052165
X024855Y050165
X024855Y048165
M30