G04 #@! TF.GenerationSoftware,KiCad,Pcbnew,(6.0.1)*
G04 #@! TF.CreationDate,2022-07-05T00:42:15-07:00*
G04 #@! TF.ProjectId,mu100-dit,6d753130-302d-4646-9974-2e6b69636164,rev?*
G04 #@! TF.SameCoordinates,PX4a25ef0PY4c3f880*
G04 #@! TF.FileFunction,Legend,Bot*
G04 #@! TF.FilePolarity,Positive*
%FSLAX46Y46*%
G04 Gerber Fmt 4.6, Leading zero omitted, Abs format (unit mm)*
G04 Created by KiCad (PCBNEW (6.0.1)) date 2022-07-05 00:42:15*
%MOMM*%
%LPD*%
G01*
G04 APERTURE LIST*
%ADD10C,0.125*%
%ADD11C,0.15*%
%ADD12C,0.1*%
%ADD13C,0.12*%
G04 APERTURE END LIST*
D10*
X0001510952Y0025580000D02*
X0001558571Y0025603810D01*
X0001630000Y0025603810D01*
X0001701428Y0025580000D01*
X0001749047Y0025532381D01*
X0001772857Y0025484762D01*
X0001796666Y0025389524D01*
X0001796666Y0025318096D01*
X0001772857Y0025222858D01*
X0001749047Y0025175238D01*
X0001701428Y0025127620D01*
X0001630000Y0025103810D01*
X0001582380Y0025103810D01*
X0001510952Y0025127620D01*
X0001487142Y0025151429D01*
X0001487142Y0025318096D01*
X0001582380Y0025318096D01*
X0001272857Y0025103810D02*
X0001272857Y0025603810D01*
X0000987142Y0025103810D01*
X0000987142Y0025603810D01*
X0000749047Y0025103810D02*
X0000749047Y0025603810D01*
X0000630000Y0025603810D01*
X0000558571Y0025580000D01*
X0000510951Y0025532381D01*
X0000487142Y0025484762D01*
X0000463333Y0025389524D01*
X0000463333Y0025318096D01*
X0000487142Y0025222858D01*
X0000510951Y0025175238D01*
X0000558571Y0025127620D01*
X0000630000Y0025103810D01*
X0000749047Y0025103810D01*
X0001710952Y0013649999D02*
X0001758571Y0013673810D01*
X0001830000Y0013673810D01*
X0001901428Y0013649999D01*
X0001949047Y0013602381D01*
X0001972857Y0013554762D01*
X0001996666Y0013459523D01*
X0001996666Y0013388096D01*
X0001972857Y0013292857D01*
X0001949047Y0013245239D01*
X0001901428Y0013197620D01*
X0001830000Y0013173810D01*
X0001782380Y0013173810D01*
X0001710952Y0013197620D01*
X0001687142Y0013221429D01*
X0001687142Y0013388096D01*
X0001782380Y0013388096D01*
X0001472857Y0013173810D02*
X0001472857Y0013673810D01*
X0001187142Y0013173810D01*
X0001187142Y0013673810D01*
X0000949047Y0013173810D02*
X0000949047Y0013673810D01*
X0000830000Y0013673810D01*
X0000758571Y0013649999D01*
X0000710952Y0013602381D01*
X0000687142Y0013554762D01*
X0000663333Y0013459523D01*
X0000663333Y0013388096D01*
X0000687142Y0013292857D01*
X0000710952Y0013245239D01*
X0000758571Y0013197620D01*
X0000830000Y0013173810D01*
X0000949047Y0013173810D01*
X0001825238Y0011173810D02*
X0002063333Y0011173810D01*
X0002063333Y0011673810D01*
X0001372857Y0011173810D02*
X0001539523Y0011411905D01*
X0001658571Y0011173810D02*
X0001658571Y0011673810D01*
X0001468095Y0011673810D01*
X0001420476Y0011649999D01*
X0001396666Y0011626190D01*
X0001372857Y0011578572D01*
X0001372857Y0011507143D01*
X0001396666Y0011459523D01*
X0001420476Y0011435714D01*
X0001468095Y0011411905D01*
X0001658571Y0011411905D01*
X0000872857Y0011221429D02*
X0000896666Y0011197620D01*
X0000968095Y0011173810D01*
X0001015714Y0011173810D01*
X0001087142Y0011197620D01*
X0001134761Y0011245239D01*
X0001158571Y0011292857D01*
X0001182380Y0011388096D01*
X0001182380Y0011459523D01*
X0001158571Y0011554762D01*
X0001134761Y0011602381D01*
X0001087142Y0011649999D01*
X0001015714Y0011673810D01*
X0000968095Y0011673810D01*
X0000896666Y0011649999D01*
X0000872857Y0011626190D01*
X0000658571Y0011173810D02*
X0000658571Y0011673810D01*
X0000372857Y0011173810D02*
X0000587142Y0011459523D01*
X0000372857Y0011673810D02*
X0000658571Y0011388096D01*
D11*
X0013972857Y0007742857D02*
X0014020476Y0007695239D01*
X0014163333Y0007647620D01*
X0014258571Y0007647620D01*
X0014401428Y0007695239D01*
X0014496666Y0007790477D01*
X0014544285Y0007885714D01*
X0014591904Y0008076191D01*
X0014591904Y0008219048D01*
X0014544285Y0008409524D01*
X0014496666Y0008504762D01*
X0014401428Y0008600000D01*
X0014258571Y0008647620D01*
X0014163333Y0008647620D01*
X0014020476Y0008600000D01*
X0013972857Y0008552381D01*
X0013544285Y0007647620D02*
X0013544285Y0008647620D01*
X0012972857Y0007647620D02*
X0013401428Y0008219048D01*
X0012972857Y0008647620D02*
X0013544285Y0008076191D01*
X0012591904Y0007695239D02*
X0012449047Y0007647620D01*
X0012210952Y0007647620D01*
X0012115714Y0007695239D01*
X0012068095Y0007742857D01*
X0012020476Y0007838096D01*
X0012020476Y0007933334D01*
X0012068095Y0008028572D01*
X0012115714Y0008076191D01*
X0012210952Y0008123809D01*
X0012401428Y0008171429D01*
X0012496666Y0008219048D01*
X0012544285Y0008266667D01*
X0012591904Y0008361905D01*
X0012591904Y0008457142D01*
X0012544285Y0008552381D01*
X0012496666Y0008600000D01*
X0012401428Y0008647620D01*
X0012163333Y0008647620D01*
X0012020476Y0008600000D01*
X0011401428Y0008647620D02*
X0011306190Y0008647620D01*
X0011210952Y0008600000D01*
X0011163333Y0008552381D01*
X0011115714Y0008457142D01*
X0011068095Y0008266667D01*
X0011068095Y0008028572D01*
X0011115714Y0007838096D01*
X0011163333Y0007742857D01*
X0011210952Y0007695239D01*
X0011306190Y0007647620D01*
X0011401428Y0007647620D01*
X0011496666Y0007695239D01*
X0011544285Y0007742857D01*
X0011591904Y0007838096D01*
X0011639523Y0008028572D01*
X0011639523Y0008266667D01*
X0011591904Y0008457142D01*
X0011544285Y0008552381D01*
X0011496666Y0008600000D01*
X0011401428Y0008647620D01*
D12*
X0016691904Y0007566667D02*
X0016739522Y0007614286D01*
X0016834761Y0007757142D01*
X0016882380Y0007852381D01*
X0016930000Y0007995238D01*
X0016977619Y0008233333D01*
X0016977619Y0008423810D01*
X0016930000Y0008661905D01*
X0016882380Y0008804762D01*
X0016834761Y0008899999D01*
X0016739522Y0009042857D01*
X0016691904Y0009090477D01*
X0015549047Y0008661905D02*
X0015549047Y0008709523D01*
X0015596666Y0008566666D02*
X0015596666Y0008709523D01*
X0015644285Y0008471429D02*
X0015644285Y0008709523D01*
X0015691904Y0008376190D02*
X0015691904Y0008709523D01*
X0015739523Y0008328572D02*
X0015739523Y0008709523D01*
X0015787142Y0008233333D02*
X0015787142Y0008709523D01*
X0015834761Y0008138096D02*
X0015834761Y0008709523D01*
X0015882380Y0008042857D02*
X0015882380Y0008709523D01*
X0015930000Y0007947620D02*
X0015930000Y0008709523D01*
X0015977619Y0008042857D02*
X0015977619Y0008709523D01*
X0016025238Y0008138096D02*
X0016025238Y0008709523D01*
X0016072856Y0008233333D02*
X0016072856Y0008709523D01*
X0016120476Y0008328572D02*
X0016120476Y0008709523D01*
X0016168095Y0008376190D02*
X0016168095Y0008709523D01*
X0016215713Y0008471429D02*
X0016215713Y0008709523D01*
X0016263333Y0008566666D02*
X0016263333Y0008709523D01*
X0016310952Y0008709523D02*
X0015930000Y0007995238D01*
X0015549047Y0008709523D01*
X0016310952Y0008661905D02*
X0016310952Y0008709523D01*
X0015930000Y0007947620D02*
X0016358571Y0008709523D01*
X0015501428Y0008709523D01*
X0015930000Y0007947620D01*
X0015168095Y0007566667D02*
X0015120476Y0007614286D01*
X0015025238Y0007757142D01*
X0014977619Y0007852381D01*
X0014930000Y0007995238D01*
X0014882380Y0008233333D01*
X0014882380Y0008423810D01*
X0014930000Y0008661905D01*
X0014977619Y0008804762D01*
X0015025238Y0008899999D01*
X0015120476Y0009042857D01*
X0015168095Y0009090477D01*
D11*
X0017254285Y0013047619D02*
X0017254285Y0014047619D01*
X0017016190Y0014047619D01*
X0016873333Y0014000000D01*
X0016778095Y0013904762D01*
X0016730476Y0013809524D01*
X0016682856Y0013619048D01*
X0016682856Y0013476191D01*
X0016730476Y0013285715D01*
X0016778095Y0013190477D01*
X0016873333Y0013095239D01*
X0017016190Y0013047619D01*
X0017254285Y0013047619D01*
X0016254285Y0013047619D02*
X0016254285Y0014047619D01*
X0015444762Y0013571428D02*
X0015778095Y0013571428D01*
X0015778095Y0013047619D02*
X0015778095Y0014047619D01*
X0015301904Y0014047619D01*
X0014730476Y0014047619D02*
X0014635238Y0014047619D01*
X0014540000Y0014000000D01*
X0014492381Y0013952380D01*
X0014444762Y0013857143D01*
X0014397143Y0013666667D01*
X0014397143Y0013428571D01*
X0014444762Y0013238095D01*
X0014492381Y0013142858D01*
X0014540000Y0013095239D01*
X0014635238Y0013047619D01*
X0014730476Y0013047619D01*
X0014825714Y0013095239D01*
X0014873333Y0013142858D01*
X0014920952Y0013238095D01*
X0014968571Y0013428571D01*
X0014968571Y0013666667D01*
X0014920952Y0013857143D01*
X0014873333Y0013952380D01*
X0014825714Y0014000000D01*
X0014730476Y0014047619D01*
X0017254285Y0017352620D02*
X0017254285Y0018352620D01*
X0017016190Y0018352620D01*
X0016873333Y0018305000D01*
X0016778095Y0018209762D01*
X0016730476Y0018114524D01*
X0016682856Y0017924048D01*
X0016682856Y0017781191D01*
X0016730476Y0017590715D01*
X0016778095Y0017495477D01*
X0016873333Y0017400239D01*
X0017016190Y0017352620D01*
X0017254285Y0017352620D01*
X0016254285Y0017352620D02*
X0016254285Y0018352620D01*
X0015444762Y0017876429D02*
X0015778095Y0017876429D01*
X0015778095Y0017352620D02*
X0015778095Y0018352620D01*
X0015301904Y0018352620D01*
X0014968571Y0018257381D02*
X0014920952Y0018305000D01*
X0014825714Y0018352620D01*
X0014587619Y0018352620D01*
X0014492381Y0018305000D01*
X0014444762Y0018257381D01*
X0014397143Y0018162143D01*
X0014397143Y0018066905D01*
X0014444762Y0017924048D01*
X0015016190Y0017352620D01*
X0014397143Y0017352620D01*
D10*
X0001999047Y0023173810D02*
X0001999047Y0023673810D01*
X0001832380Y0023316667D01*
X0001665714Y0023673810D01*
X0001665714Y0023173810D01*
X0001141904Y0023221429D02*
X0001165714Y0023197620D01*
X0001237142Y0023173810D01*
X0001284761Y0023173810D01*
X0001356190Y0023197620D01*
X0001403809Y0023245239D01*
X0001427619Y0023292858D01*
X0001451428Y0023388096D01*
X0001451428Y0023459524D01*
X0001427619Y0023554762D01*
X0001403809Y0023602381D01*
X0001356190Y0023650000D01*
X0001284761Y0023673810D01*
X0001237142Y0023673810D01*
X0001165714Y0023650000D01*
X0001141904Y0023626191D01*
X0000689523Y0023173810D02*
X0000927619Y0023173810D01*
X0000927619Y0023673810D01*
X0000522857Y0023173810D02*
X0000522857Y0023673810D01*
X0000237142Y0023173810D02*
X0000451428Y0023459524D01*
X0000237142Y0023673810D02*
X0000522857Y0023388096D01*
X0001813333Y0015435714D02*
X0001741904Y0015411905D01*
X0001718095Y0015388096D01*
X0001694285Y0015340477D01*
X0001694285Y0015269048D01*
X0001718095Y0015221429D01*
X0001741904Y0015197620D01*
X0001789523Y0015173810D01*
X0001980000Y0015173810D01*
X0001980000Y0015673810D01*
X0001813333Y0015673810D01*
X0001765714Y0015649999D01*
X0001741904Y0015626190D01*
X0001718095Y0015578572D01*
X0001718095Y0015530953D01*
X0001741904Y0015483334D01*
X0001765714Y0015459523D01*
X0001813333Y0015435714D01*
X0001980000Y0015435714D01*
X0001480000Y0015173810D02*
X0001480000Y0015673810D01*
X0000956190Y0015221429D02*
X0000980000Y0015197620D01*
X0001051428Y0015173810D01*
X0001099047Y0015173810D01*
X0001170476Y0015197620D01*
X0001218095Y0015245239D01*
X0001241904Y0015292857D01*
X0001265714Y0015388096D01*
X0001265714Y0015459523D01*
X0001241904Y0015554762D01*
X0001218095Y0015602381D01*
X0001170476Y0015649999D01*
X0001099047Y0015673810D01*
X0001051428Y0015673810D01*
X0000980000Y0015649999D01*
X0000956190Y0015626190D01*
X0000741904Y0015173810D02*
X0000741904Y0015673810D01*
X0000456190Y0015173810D02*
X0000670476Y0015459523D01*
X0000456190Y0015673810D02*
X0000741904Y0015388096D01*
X0001610952Y0017650000D02*
X0001658571Y0017673810D01*
X0001730000Y0017673810D01*
X0001801428Y0017650000D01*
X0001849047Y0017602381D01*
X0001872857Y0017554762D01*
X0001896666Y0017459524D01*
X0001896666Y0017388096D01*
X0001872857Y0017292858D01*
X0001849047Y0017245239D01*
X0001801428Y0017197620D01*
X0001730000Y0017173810D01*
X0001682380Y0017173810D01*
X0001610952Y0017197620D01*
X0001587142Y0017221429D01*
X0001587142Y0017388096D01*
X0001682380Y0017388096D01*
X0001372857Y0017173810D02*
X0001372857Y0017673810D01*
X0001087142Y0017173810D01*
X0001087142Y0017673810D01*
X0000849047Y0017173810D02*
X0000849047Y0017673810D01*
X0000730000Y0017673810D01*
X0000658571Y0017650000D01*
X0000610952Y0017602381D01*
X0000587142Y0017554762D01*
X0000563333Y0017459524D01*
X0000563333Y0017388096D01*
X0000587142Y0017292858D01*
X0000610952Y0017245239D01*
X0000658571Y0017197620D01*
X0000730000Y0017173810D01*
X0000849047Y0017173810D01*
D11*
X0010979523Y0014601429D02*
X0011312857Y0014601429D01*
X0011312857Y0014077620D02*
X0011312857Y0015077620D01*
X0010836666Y0015077620D01*
X0010503333Y0014125239D02*
X0010360476Y0014077620D01*
X0010122380Y0014077620D01*
X0010027142Y0014125239D01*
X0009979523Y0014172858D01*
X0009931904Y0014268096D01*
X0009931904Y0014363333D01*
X0009979523Y0014458572D01*
X0010027142Y0014506191D01*
X0010122380Y0014553809D01*
X0010312857Y0014601429D01*
X0010408095Y0014649048D01*
X0010455714Y0014696667D01*
X0010503333Y0014791905D01*
X0010503333Y0014887142D01*
X0010455714Y0014982381D01*
X0010408095Y0015030000D01*
X0010312857Y0015077620D01*
X0010074761Y0015077620D01*
X0009931904Y0015030000D01*
X0009550952Y0014982381D02*
X0009503333Y0015030000D01*
X0009408095Y0015077620D01*
X0009170000Y0015077620D01*
X0009074761Y0015030000D01*
X0009027142Y0014982381D01*
X0008979523Y0014887142D01*
X0008979523Y0014791905D01*
X0009027142Y0014649048D01*
X0009598571Y0014077620D01*
X0008979523Y0014077620D01*
D10*
X0001710952Y0021650000D02*
X0001758571Y0021673810D01*
X0001830000Y0021673810D01*
X0001901428Y0021650000D01*
X0001949047Y0021602381D01*
X0001972857Y0021554762D01*
X0001996666Y0021459524D01*
X0001996666Y0021388096D01*
X0001972857Y0021292858D01*
X0001949047Y0021245239D01*
X0001901428Y0021197620D01*
X0001830000Y0021173810D01*
X0001782380Y0021173810D01*
X0001710952Y0021197620D01*
X0001687142Y0021221429D01*
X0001687142Y0021388096D01*
X0001782380Y0021388096D01*
X0001472857Y0021173810D02*
X0001472857Y0021673810D01*
X0001187142Y0021173810D01*
X0001187142Y0021673810D01*
X0000949047Y0021173810D02*
X0000949047Y0021673810D01*
X0000830000Y0021673810D01*
X0000758571Y0021650000D01*
X0000710952Y0021602381D01*
X0000687142Y0021554762D01*
X0000663333Y0021459524D01*
X0000663333Y0021388096D01*
X0000687142Y0021292858D01*
X0000710952Y0021245239D01*
X0000758571Y0021197620D01*
X0000830000Y0021173810D01*
X0000949047Y0021173810D01*
D11*
X0009156190Y0006024285D02*
X0009156190Y0005214762D01*
X0009203809Y0005119523D01*
X0009251428Y0005071905D01*
X0009346666Y0005024285D01*
X0009489523Y0005024285D01*
X0009584761Y0005071905D01*
X0009156190Y0005405239D02*
X0009251428Y0005357619D01*
X0009441904Y0005357619D01*
X0009537142Y0005405239D01*
X0009584761Y0005452857D01*
X0009632380Y0005548096D01*
X0009632380Y0005833810D01*
X0009584761Y0005929048D01*
X0009537142Y0005976666D01*
X0009441904Y0006024285D01*
X0009251428Y0006024285D01*
X0009156190Y0005976666D01*
X0008680000Y0005357619D02*
X0008680000Y0006024285D01*
X0008680000Y0006357619D02*
X0008727619Y0006310000D01*
X0008680000Y0006262380D01*
X0008632380Y0006310000D01*
X0008680000Y0006357619D01*
X0008680000Y0006262380D01*
X0008346666Y0006024285D02*
X0007965714Y0006024285D01*
X0008203809Y0006357619D02*
X0008203809Y0005500476D01*
X0008156190Y0005405239D01*
X0008060952Y0005357619D01*
X0007965714Y0005357619D01*
X0007632380Y0005357619D02*
X0007632380Y0006357619D01*
X0007203809Y0005357619D02*
X0007203809Y0005881428D01*
X0007251428Y0005976666D01*
X0007346666Y0006024285D01*
X0007489523Y0006024285D01*
X0007584761Y0005976666D01*
X0007632380Y0005929048D01*
X0006299047Y0006024285D02*
X0006299047Y0005357619D01*
X0006727619Y0006024285D02*
X0006727619Y0005500476D01*
X0006680000Y0005405239D01*
X0006584761Y0005357619D01*
X0006441904Y0005357619D01*
X0006346666Y0005405239D01*
X0006299047Y0005452857D01*
X0005822857Y0005357619D02*
X0005822857Y0006357619D01*
X0005822857Y0005976666D02*
X0005727619Y0006024285D01*
X0005537142Y0006024285D01*
X0005441904Y0005976666D01*
X0005394285Y0005929048D01*
X0005346666Y0005833810D01*
X0005346666Y0005548096D01*
X0005394285Y0005452857D01*
X0005441904Y0005405239D01*
X0005537142Y0005357619D01*
X0005727619Y0005357619D01*
X0005822857Y0005405239D01*
X0004918095Y0005452857D02*
X0004870476Y0005405239D01*
X0004918095Y0005357619D01*
X0004965714Y0005405239D01*
X0004918095Y0005452857D01*
X0004918095Y0005357619D01*
X0004013333Y0005405239D02*
X0004108571Y0005357619D01*
X0004299047Y0005357619D01*
X0004394285Y0005405239D01*
X0004441904Y0005452857D01*
X0004489523Y0005548096D01*
X0004489523Y0005833810D01*
X0004441904Y0005929048D01*
X0004394285Y0005976666D01*
X0004299047Y0006024285D01*
X0004108571Y0006024285D01*
X0004013333Y0005976666D01*
X0003441904Y0005357619D02*
X0003537142Y0005405239D01*
X0003584761Y0005452857D01*
X0003632380Y0005548096D01*
X0003632380Y0005833810D01*
X0003584761Y0005929048D01*
X0003537142Y0005976666D01*
X0003441904Y0006024285D01*
X0003299047Y0006024285D01*
X0003203809Y0005976666D01*
X0003156190Y0005929048D01*
X0003108571Y0005833810D01*
X0003108571Y0005548096D01*
X0003156190Y0005452857D01*
X0003203809Y0005405239D01*
X0003299047Y0005357619D01*
X0003441904Y0005357619D01*
X0002680000Y0005357619D02*
X0002680000Y0006024285D01*
X0002680000Y0005929048D02*
X0002632380Y0005976666D01*
X0002537142Y0006024285D01*
X0002394285Y0006024285D01*
X0002299047Y0005976666D01*
X0002251428Y0005881428D01*
X0002251428Y0005357619D01*
X0002251428Y0005881428D02*
X0002203809Y0005976666D01*
X0002108571Y0006024285D01*
X0001965714Y0006024285D01*
X0001870476Y0005976666D01*
X0001822857Y0005881428D01*
X0001822857Y0005357619D01*
X0000632380Y0006405239D02*
X0001489523Y0005119523D01*
X0008775238Y0004414285D02*
X0008775238Y0003747619D01*
X0008775238Y0004319048D02*
X0008727619Y0004366667D01*
X0008632380Y0004414285D01*
X0008489523Y0004414285D01*
X0008394285Y0004366667D01*
X0008346666Y0004271428D01*
X0008346666Y0003747619D01*
X0007870476Y0003747619D02*
X0007870476Y0004414285D01*
X0007870476Y0004747619D02*
X0007918095Y0004700000D01*
X0007870476Y0004652380D01*
X0007822857Y0004700000D01*
X0007870476Y0004747619D01*
X0007870476Y0004652380D01*
X0007394285Y0003747619D02*
X0007394285Y0004747619D01*
X0007299047Y0004128571D02*
X0007013333Y0003747619D01*
X0007013333Y0004414285D02*
X0007394285Y0004033334D01*
X0006584761Y0003747619D02*
X0006584761Y0004414285D01*
X0006584761Y0004747619D02*
X0006632380Y0004700000D01*
X0006584761Y0004652380D01*
X0006537142Y0004700000D01*
X0006584761Y0004747619D01*
X0006584761Y0004652380D01*
X0006251428Y0004414285D02*
X0005870476Y0004414285D01*
X0006108571Y0004747619D02*
X0006108571Y0003890476D01*
X0006060952Y0003795239D01*
X0005965714Y0003747619D01*
X0005870476Y0003747619D01*
X0005108571Y0003747619D02*
X0005108571Y0004271428D01*
X0005156190Y0004366667D01*
X0005251428Y0004414285D01*
X0005441904Y0004414285D01*
X0005537142Y0004366667D01*
X0005108571Y0003795239D02*
X0005203809Y0003747619D01*
X0005441904Y0003747619D01*
X0005537142Y0003795239D01*
X0005584761Y0003890476D01*
X0005584761Y0003985714D01*
X0005537142Y0004080953D01*
X0005441904Y0004128571D01*
X0005203809Y0004128571D01*
X0005108571Y0004176191D01*
X0004489523Y0003747619D02*
X0004584761Y0003795239D01*
X0004632380Y0003890476D01*
X0004632380Y0004747619D01*
X0004108571Y0003747619D02*
X0004108571Y0004414285D01*
X0004108571Y0004747619D02*
X0004156189Y0004700000D01*
X0004108571Y0004652380D01*
X0004060952Y0004700000D01*
X0004108571Y0004747619D01*
X0004108571Y0004652380D01*
X0003775238Y0004414285D02*
X0003394285Y0004414285D01*
X0003632380Y0004747619D02*
X0003632380Y0003890476D01*
X0003584761Y0003795239D01*
X0003489523Y0003747619D01*
X0003394285Y0003747619D01*
X0002632380Y0003747619D02*
X0002632380Y0004271428D01*
X0002680000Y0004366667D01*
X0002775238Y0004414285D01*
X0002965714Y0004414285D01*
X0003060952Y0004366667D01*
X0002632380Y0003795239D02*
X0002727619Y0003747619D01*
X0002965714Y0003747619D01*
X0003060952Y0003795239D01*
X0003108571Y0003890476D01*
X0003108571Y0003985714D01*
X0003060952Y0004080953D01*
X0002965714Y0004128571D01*
X0002727619Y0004128571D01*
X0002632380Y0004176191D01*
X0001441904Y0004795239D02*
X0002299047Y0003509523D01*
X0009203809Y0002137619D02*
X0009203809Y0003137619D01*
X0008870476Y0002423333D01*
X0008537142Y0003137619D01*
X0008537142Y0002137619D01*
X0008060952Y0003137619D02*
X0008060952Y0002328096D01*
X0008013332Y0002232858D01*
X0007965714Y0002185239D01*
X0007870476Y0002137619D01*
X0007680000Y0002137619D01*
X0007584761Y0002185239D01*
X0007537142Y0002232858D01*
X0007489523Y0002328096D01*
X0007489523Y0003137619D01*
X0006489523Y0002137619D02*
X0007060952Y0002137619D01*
X0006775238Y0002137619D02*
X0006775238Y0003137619D01*
X0006870476Y0002994762D01*
X0006965714Y0002899523D01*
X0007060952Y0002851905D01*
X0005870476Y0003137619D02*
X0005775238Y0003137619D01*
X0005680000Y0003090000D01*
X0005632380Y0003042380D01*
X0005584761Y0002947142D01*
X0005537142Y0002756667D01*
X0005537142Y0002518571D01*
X0005584761Y0002328096D01*
X0005632380Y0002232858D01*
X0005680000Y0002185239D01*
X0005775238Y0002137619D01*
X0005870476Y0002137619D01*
X0005965714Y0002185239D01*
X0006013333Y0002232858D01*
X0006060952Y0002328096D01*
X0006108571Y0002518571D01*
X0006108571Y0002756667D01*
X0006060952Y0002947142D01*
X0006013333Y0003042380D01*
X0005965714Y0003090000D01*
X0005870476Y0003137619D01*
X0004918095Y0003137619D02*
X0004822857Y0003137619D01*
X0004727619Y0003090000D01*
X0004680000Y0003042380D01*
X0004632380Y0002947142D01*
X0004584761Y0002756667D01*
X0004584761Y0002518571D01*
X0004632380Y0002328096D01*
X0004680000Y0002232858D01*
X0004727619Y0002185239D01*
X0004822857Y0002137619D01*
X0004918095Y0002137619D01*
X0005013333Y0002185239D01*
X0005060952Y0002232858D01*
X0005108571Y0002328096D01*
X0005156190Y0002518571D01*
X0005156190Y0002756667D01*
X0005108571Y0002947142D01*
X0005060952Y0003042380D01*
X0005013333Y0003090000D01*
X0004918095Y0003137619D01*
X0004156189Y0002518571D02*
X0003394285Y0002518571D01*
X0002918095Y0002137619D02*
X0002918095Y0003137619D01*
X0002680000Y0003137619D01*
X0002537142Y0003090000D01*
X0002441904Y0002994762D01*
X0002394285Y0002899523D01*
X0002346666Y0002709048D01*
X0002346666Y0002566191D01*
X0002394285Y0002375714D01*
X0002441904Y0002280476D01*
X0002537142Y0002185239D01*
X0002680000Y0002137619D01*
X0002918095Y0002137619D01*
X0001918095Y0002137619D02*
X0001918095Y0003137619D01*
X0001584761Y0003137619D02*
X0001013333Y0003137619D01*
X0001299047Y0002137619D02*
X0001299047Y0003137619D01*
X0010939523Y0019111429D02*
X0011272857Y0019111429D01*
X0011272857Y0018587620D02*
X0011272857Y0019587620D01*
X0010796666Y0019587620D01*
X0010463333Y0018635239D02*
X0010320476Y0018587620D01*
X0010082380Y0018587620D01*
X0009987142Y0018635239D01*
X0009939523Y0018682858D01*
X0009891904Y0018778096D01*
X0009891904Y0018873334D01*
X0009939523Y0018968572D01*
X0009987142Y0019016191D01*
X0010082380Y0019063810D01*
X0010272857Y0019111429D01*
X0010368095Y0019159048D01*
X0010415714Y0019206667D01*
X0010463333Y0019301905D01*
X0010463333Y0019397143D01*
X0010415714Y0019492381D01*
X0010368095Y0019540000D01*
X0010272857Y0019587620D01*
X0010034761Y0019587620D01*
X0009891904Y0019540000D01*
X0009272857Y0019587620D02*
X0009177619Y0019587620D01*
X0009082380Y0019540000D01*
X0009034761Y0019492381D01*
X0008987142Y0019397143D01*
X0008939523Y0019206667D01*
X0008939523Y0018968572D01*
X0008987142Y0018778096D01*
X0009034761Y0018682858D01*
X0009082380Y0018635239D01*
X0009177619Y0018587620D01*
X0009272857Y0018587620D01*
X0009368095Y0018635239D01*
X0009415714Y0018682858D01*
X0009463333Y0018778096D01*
X0009510952Y0018968572D01*
X0009510952Y0019206667D01*
X0009463333Y0019397143D01*
X0009415714Y0019492381D01*
X0009368095Y0019540000D01*
X0009272857Y0019587620D01*
D10*
X0001927619Y0019297620D02*
X0001856190Y0019273810D01*
X0001737142Y0019273810D01*
X0001689523Y0019297620D01*
X0001665714Y0019321429D01*
X0001641904Y0019369048D01*
X0001641904Y0019416667D01*
X0001665714Y0019464286D01*
X0001689523Y0019488096D01*
X0001737142Y0019511905D01*
X0001832380Y0019535715D01*
X0001880000Y0019559524D01*
X0001903809Y0019583334D01*
X0001927619Y0019630953D01*
X0001927619Y0019678572D01*
X0001903809Y0019726191D01*
X0001880000Y0019750000D01*
X0001832380Y0019773810D01*
X0001713333Y0019773810D01*
X0001641904Y0019750000D01*
X0001427619Y0019273810D02*
X0001427619Y0019773810D01*
X0001308571Y0019773810D01*
X0001237142Y0019750000D01*
X0001189523Y0019702381D01*
X0001165714Y0019654762D01*
X0001141904Y0019559524D01*
X0001141904Y0019488096D01*
X0001165714Y0019392858D01*
X0001189523Y0019345239D01*
X0001237142Y0019297620D01*
X0001308571Y0019273810D01*
X0001427619Y0019273810D01*
X0000951428Y0019416667D02*
X0000713333Y0019416667D01*
X0000999047Y0019273810D02*
X0000832380Y0019773810D01*
X0000665714Y0019273810D01*
X0000570476Y0019773810D02*
X0000284761Y0019773810D01*
X0000427619Y0019273810D02*
X0000427619Y0019773810D01*
X0001972857Y0027264286D02*
X0001591904Y0027264286D01*
X0001782380Y0027073810D02*
X0001782380Y0027454762D01*
X0001115714Y0027573810D02*
X0001353809Y0027573810D01*
X0001377619Y0027335715D01*
X0001353809Y0027359524D01*
X0001306190Y0027383333D01*
X0001187142Y0027383333D01*
X0001139523Y0027359524D01*
X0001115714Y0027335715D01*
X0001091904Y0027288096D01*
X0001091904Y0027169048D01*
X0001115714Y0027121429D01*
X0001139523Y0027097620D01*
X0001187142Y0027073810D01*
X0001306190Y0027073810D01*
X0001353809Y0027097620D01*
X0001377619Y0027121429D01*
X0000949047Y0027573810D02*
X0000782380Y0027073810D01*
X0000615714Y0027573810D01*
X0001532857Y0029125810D02*
X0001532857Y0029625810D01*
X0001247142Y0029125810D01*
X0001247142Y0029625810D01*
X0000723333Y0029173429D02*
X0000747142Y0029149620D01*
X0000818571Y0029125810D01*
X0000866190Y0029125810D01*
X0000937619Y0029149620D01*
X0000985238Y0029197239D01*
X0001009047Y0029244858D01*
X0001032856Y0029340096D01*
X0001032856Y0029411524D01*
X0001009047Y0029506762D01*
X0000985238Y0029554381D01*
X0000937619Y0029602000D01*
X0000866190Y0029625810D01*
X0000818571Y0029625810D01*
X0000747142Y0029602000D01*
X0000723333Y0029578191D01*
D11*
X0017254285Y0015222620D02*
X0017254285Y0016222620D01*
X0017016190Y0016222620D01*
X0016873333Y0016175000D01*
X0016778095Y0016079761D01*
X0016730476Y0015984524D01*
X0016682856Y0015794048D01*
X0016682856Y0015651191D01*
X0016730476Y0015460715D01*
X0016778095Y0015365476D01*
X0016873333Y0015270239D01*
X0017016190Y0015222620D01*
X0017254285Y0015222620D01*
X0016254285Y0015222620D02*
X0016254285Y0016222620D01*
X0015444762Y0015746429D02*
X0015778095Y0015746429D01*
X0015778095Y0015222620D02*
X0015778095Y0016222620D01*
X0015301904Y0016222620D01*
X0014397143Y0015222620D02*
X0014968571Y0015222620D01*
X0014682857Y0015222620D02*
X0014682857Y0016222620D01*
X0014778095Y0016079761D01*
X0014873333Y0015984524D01*
X0014968571Y0015936905D01*
X0010969523Y0012261429D02*
X0011302857Y0012261429D01*
X0011302857Y0011737620D02*
X0011302857Y0012737620D01*
X0010826666Y0012737620D01*
X0010493333Y0011785239D02*
X0010350476Y0011737620D01*
X0010112380Y0011737620D01*
X0010017142Y0011785239D01*
X0009969523Y0011832858D01*
X0009921904Y0011928096D01*
X0009921904Y0012023333D01*
X0009969523Y0012118572D01*
X0010017142Y0012166191D01*
X0010112380Y0012213809D01*
X0010302857Y0012261429D01*
X0010398095Y0012309048D01*
X0010445714Y0012356667D01*
X0010493333Y0012451905D01*
X0010493333Y0012547142D01*
X0010445714Y0012642381D01*
X0010398095Y0012690000D01*
X0010302857Y0012737620D01*
X0010064761Y0012737620D01*
X0009921904Y0012690000D01*
X0009588571Y0012737620D02*
X0008969523Y0012737620D01*
X0009302857Y0012356667D01*
X0009160000Y0012356667D01*
X0009064761Y0012309048D01*
X0009017142Y0012261429D01*
X0008969523Y0012166191D01*
X0008969523Y0011928096D01*
X0009017142Y0011832858D01*
X0009064761Y0011785239D01*
X0009160000Y0011737620D01*
X0009445714Y0011737620D01*
X0009540952Y0011785239D01*
X0009588571Y0011832858D01*
X0008272857Y0007742857D02*
X0008320475Y0007695239D01*
X0008463333Y0007647620D01*
X0008558571Y0007647620D01*
X0008701428Y0007695239D01*
X0008796666Y0007790477D01*
X0008844285Y0007885714D01*
X0008891904Y0008076191D01*
X0008891904Y0008219048D01*
X0008844285Y0008409524D01*
X0008796666Y0008504762D01*
X0008701428Y0008600000D01*
X0008558571Y0008647620D01*
X0008463333Y0008647620D01*
X0008320475Y0008600000D01*
X0008272857Y0008552381D01*
X0007844285Y0007647620D02*
X0007844285Y0008647620D01*
X0007272857Y0007647620D02*
X0007701428Y0008219048D01*
X0007272857Y0008647620D02*
X0007844285Y0008076191D01*
X0006891904Y0007695239D02*
X0006749047Y0007647620D01*
X0006510952Y0007647620D01*
X0006415714Y0007695239D01*
X0006368095Y0007742857D01*
X0006320476Y0007838096D01*
X0006320476Y0007933334D01*
X0006368095Y0008028572D01*
X0006415714Y0008076191D01*
X0006510952Y0008123809D01*
X0006701428Y0008171429D01*
X0006796666Y0008219048D01*
X0006844285Y0008266667D01*
X0006891904Y0008361905D01*
X0006891904Y0008457142D01*
X0006844285Y0008552381D01*
X0006796666Y0008600000D01*
X0006701428Y0008647620D01*
X0006463333Y0008647620D01*
X0006320476Y0008600000D01*
X0005368095Y0007647620D02*
X0005939523Y0007647620D01*
X0005653809Y0007647620D02*
X0005653809Y0008647620D01*
X0005749047Y0008504762D01*
X0005844285Y0008409524D01*
X0005939523Y0008361905D01*
X0010939523Y0016811429D02*
X0011272857Y0016811429D01*
X0011272857Y0016287620D02*
X0011272857Y0017287620D01*
X0010796666Y0017287620D01*
X0010463333Y0016335239D02*
X0010320476Y0016287620D01*
X0010082380Y0016287620D01*
X0009987142Y0016335239D01*
X0009939523Y0016382857D01*
X0009891904Y0016478096D01*
X0009891904Y0016573334D01*
X0009939523Y0016668572D01*
X0009987142Y0016716190D01*
X0010082380Y0016763810D01*
X0010272857Y0016811429D01*
X0010368095Y0016859048D01*
X0010415714Y0016906667D01*
X0010463333Y0017001905D01*
X0010463333Y0017097143D01*
X0010415714Y0017192381D01*
X0010368095Y0017240000D01*
X0010272857Y0017287620D01*
X0010034761Y0017287620D01*
X0009891904Y0017240000D01*
X0008939523Y0016287620D02*
X0009510952Y0016287620D01*
X0009225238Y0016287620D02*
X0009225238Y0017287620D01*
X0009320476Y0017144762D01*
X0009415714Y0017049524D01*
X0009510952Y0017001905D01*
X0010146666Y0031759620D02*
X0010480000Y0032235810D01*
X0010718095Y0031759620D02*
X0010718095Y0032759620D01*
X0010337142Y0032759620D01*
X0010241904Y0032712000D01*
X0010194285Y0032664381D01*
X0010146666Y0032569142D01*
X0010146666Y0032426285D01*
X0010194285Y0032331048D01*
X0010241904Y0032283429D01*
X0010337142Y0032235810D01*
X0010718095Y0032235810D01*
X0009194285Y0031759620D02*
X0009765714Y0031759620D01*
X0009480000Y0031759620D02*
X0009480000Y0032759620D01*
X0009575238Y0032616762D01*
X0009670476Y0032521524D01*
X0009765714Y0032473905D01*
X0008091666Y0038624620D02*
X0008425000Y0039100810D01*
X0008663095Y0038624620D02*
X0008663095Y0039624620D01*
X0008282142Y0039624620D01*
X0008186904Y0039577000D01*
X0008139284Y0039529381D01*
X0008091666Y0039434143D01*
X0008091666Y0039291286D01*
X0008139284Y0039196048D01*
X0008186904Y0039148429D01*
X0008282142Y0039100810D01*
X0008663095Y0039100810D01*
X0007710714Y0039529381D02*
X0007663095Y0039577000D01*
X0007567857Y0039624620D01*
X0007329761Y0039624620D01*
X0007234523Y0039577000D01*
X0007186904Y0039529381D01*
X0007139285Y0039434143D01*
X0007139285Y0039338905D01*
X0007186904Y0039196048D01*
X0007758333Y0038624620D01*
X0007139285Y0038624620D01*
X0010216666Y0033594858D02*
X0010264285Y0033547238D01*
X0010407142Y0033499620D01*
X0010502380Y0033499620D01*
X0010645238Y0033547238D01*
X0010740476Y0033642477D01*
X0010788095Y0033737715D01*
X0010835714Y0033928191D01*
X0010835714Y0034071048D01*
X0010788095Y0034261524D01*
X0010740476Y0034356762D01*
X0010645238Y0034452000D01*
X0010502380Y0034499620D01*
X0010407142Y0034499620D01*
X0010264285Y0034452000D01*
X0010216666Y0034404381D01*
X0009359523Y0034166286D02*
X0009359523Y0033499620D01*
X0009597619Y0034547239D02*
X0009835714Y0033832953D01*
X0009216666Y0033832953D01*
D13*
X0006170000Y0014780000D02*
X0006170000Y0014180000D01*
X0006660000Y0013770000D02*
X0008119999Y0013770000D01*
X0008060000Y0015270000D02*
X0006580000Y0015270000D01*
X0008547060Y0014262339D02*
X0008547060Y0014862338D01*
X0008139341Y0013774919D02*
G75*
G03*
X0008549342Y0014264918I-0000072338J0000477059D01*
G01*
X0006577718Y0015267420D02*
G75*
G03*
X0006167718Y0014777420I0000072338J-0000477059D01*
G01*
X0008547060Y0014862338D02*
G75*
G03*
X0008057060Y0015272338I-0000477059J-0000072338D01*
G01*
X0006170000Y0014180000D02*
G75*
G03*
X0006660000Y0013770000I0000477059J0000072338D01*
G01*
X0007377064Y0031506999D02*
X0006922936Y0031506999D01*
X0007377064Y0032977000D02*
X0006922936Y0032977000D01*
X0008060000Y0010680000D02*
X0006580000Y0010680000D01*
X0006660000Y0009180000D02*
X0008119999Y0009180000D01*
X0008547060Y0009672339D02*
X0008547060Y0010272338D01*
X0006170000Y0010190000D02*
X0006170000Y0009590000D01*
X0008547060Y0010272338D02*
G75*
G03*
X0008057060Y0010682338I-0000477059J-0000072338D01*
G01*
X0008139341Y0009184919D02*
G75*
G03*
X0008549342Y0009674919I-0000072338J0000477059D01*
G01*
X0006577718Y0010677420D02*
G75*
G03*
X0006167718Y0010187420I0000072338J-0000477059D01*
G01*
X0006170000Y0009590000D02*
G75*
G03*
X0006660000Y0009180000I0000477059J0000072338D01*
G01*
X0006660000Y0016065000D02*
X0008119999Y0016065000D01*
X0008547060Y0016557338D02*
X0008547060Y0017157339D01*
X0008060000Y0017565000D02*
X0006580000Y0017565000D01*
X0006170000Y0017075000D02*
X0006170000Y0016475000D01*
X0008547060Y0017157339D02*
G75*
G03*
X0008057060Y0017567339I-0000477059J-0000072338D01*
G01*
X0006170000Y0016475000D02*
G75*
G03*
X0006660000Y0016065000I0000477059J0000072338D01*
G01*
X0008139341Y0016069918D02*
G75*
G03*
X0008549342Y0016559919I-0000072338J0000477059D01*
G01*
X0006577718Y0017562420D02*
G75*
G03*
X0006167718Y0017072420I0000072338J-0000477059D01*
G01*
X0013630000Y0018645000D02*
X0012150000Y0018645000D01*
X0014117060Y0017637339D02*
X0014117060Y0018237339D01*
X0011740000Y0018155000D02*
X0011740000Y0017555000D01*
X0012230000Y0017145000D02*
X0013690000Y0017145000D01*
X0012147718Y0018642420D02*
G75*
G03*
X0011737718Y0018152420I0000072338J-0000477059D01*
G01*
X0011740000Y0017555000D02*
G75*
G03*
X0012230000Y0017145000I0000477059J0000072338D01*
G01*
X0013709342Y0017149919D02*
G75*
G03*
X0014119342Y0017639919I-0000072338J0000477059D01*
G01*
X0014117060Y0018237339D02*
G75*
G03*
X0013627060Y0018647339I-0000477059J-0000072338D01*
G01*
X0006660000Y0018390000D02*
X0008119999Y0018390000D01*
X0008547060Y0018882339D02*
X0008547060Y0019482339D01*
X0006170000Y0019400000D02*
X0006170000Y0018800000D01*
X0008060000Y0019890000D02*
X0006580000Y0019890000D01*
X0006577718Y0019887420D02*
G75*
G03*
X0006167718Y0019397420I0000072338J-0000477059D01*
G01*
X0008547060Y0019482339D02*
G75*
G03*
X0008057060Y0019892339I-0000477059J-0000072338D01*
G01*
X0006170000Y0018800000D02*
G75*
G03*
X0006660000Y0018390000I0000477059J0000072338D01*
G01*
X0008139341Y0018394919D02*
G75*
G03*
X0008549342Y0018884919I-0000072338J0000477059D01*
G01*
X0012230000Y0014850000D02*
X0013690000Y0014850000D01*
X0011740000Y0015860000D02*
X0011740000Y0015260000D01*
X0014117060Y0015342338D02*
X0014117060Y0015942339D01*
X0013630000Y0016350000D02*
X0012150000Y0016350000D01*
X0011740000Y0015260000D02*
G75*
G03*
X0012230000Y0014850000I0000477059J0000072338D01*
G01*
X0014117060Y0015942339D02*
G75*
G03*
X0013627060Y0016352339I-0000477059J-0000072338D01*
G01*
X0013709342Y0014854918D02*
G75*
G03*
X0014119342Y0015344919I-0000072338J0000477059D01*
G01*
X0012147718Y0016347420D02*
G75*
G03*
X0011737718Y0015857420I0000072338J-0000477059D01*
G01*
X0011690000Y0010190000D02*
X0011690000Y0009590000D01*
X0014067060Y0009672339D02*
X0014067060Y0010272338D01*
X0013580000Y0010680000D02*
X0012100000Y0010680000D01*
X0012180000Y0009180000D02*
X0013640000Y0009180000D01*
X0012097718Y0010677420D02*
G75*
G03*
X0011687718Y0010187420I0000072338J-0000477059D01*
G01*
X0011690000Y0009590000D02*
G75*
G03*
X0012180000Y0009180000I0000477059J0000072338D01*
G01*
X0013659342Y0009184919D02*
G75*
G03*
X0014069342Y0009674919I-0000072338J0000477059D01*
G01*
X0014067060Y0010272338D02*
G75*
G03*
X0013577060Y0010682338I-0000477059J-0000072338D01*
G01*
X0006872936Y0036627000D02*
X0007327064Y0036627000D01*
X0006872936Y0038097000D02*
X0007327064Y0038097000D01*
X0007391252Y0034067000D02*
X0006868748Y0034067000D01*
X0007391252Y0035537000D02*
X0006868748Y0035537000D01*
X0011740000Y0013565000D02*
X0011740000Y0012965000D01*
X0013630000Y0014055000D02*
X0012150000Y0014055000D01*
X0012230000Y0012555000D02*
X0013690000Y0012555000D01*
X0014117060Y0013047339D02*
X0014117060Y0013647338D01*
X0012147718Y0014052420D02*
G75*
G03*
X0011737718Y0013562420I0000072338J-0000477059D01*
G01*
X0013709342Y0012559919D02*
G75*
G03*
X0014119342Y0013049919I-0000072338J0000477059D01*
G01*
X0014117060Y0013647338D02*
G75*
G03*
X0013627060Y0014057338I-0000477059J-0000072338D01*
G01*
X0011740000Y0012965000D02*
G75*
G03*
X0012230000Y0012555000I0000477059J0000072338D01*
G01*
X0006170000Y0012485000D02*
X0006170000Y0011885000D01*
X0006660000Y0011475000D02*
X0008119999Y0011475000D01*
X0008060000Y0012975000D02*
X0006580000Y0012975000D01*
X0008547060Y0011967338D02*
X0008547060Y0012567339D01*
X0006170000Y0011885000D02*
G75*
G03*
X0006660000Y0011475000I0000477059J0000072338D01*
G01*
X0006577718Y0012972420D02*
G75*
G03*
X0006167718Y0012482420I0000072338J-0000477059D01*
G01*
X0008139341Y0011479918D02*
G75*
G03*
X0008549342Y0011969919I-0000072338J0000477059D01*
G01*
X0008547060Y0012567339D02*
G75*
G03*
X0008057060Y0012977339I-0000477059J-0000072338D01*
G01*
M02*