G04 #@! TF.GenerationSoftware,KiCad,Pcbnew,(6.0.1)*
G04 #@! TF.CreationDate,2022-07-05T00:42:15-07:00*
G04 #@! TF.ProjectId,mu100-dit,6d753130-302d-4646-9974-2e6b69636164,rev?*
G04 #@! TF.SameCoordinates,PX4a25ef0PY4c3f880*
G04 #@! TF.FileFunction,Legend,Top*
G04 #@! TF.FilePolarity,Positive*
%FSLAX46Y46*%
G04 Gerber Fmt 4.6, Leading zero omitted, Abs format (unit mm)*
G04 Created by KiCad (PCBNEW (6.0.1)) date 2022-07-05 00:42:15*
%MOMM*%
%LPD*%
G01*
G04 APERTURE LIST*
%ADD10C,0.15*%
%ADD11C,0.12*%
%ADD12C,0.05*%
G04 APERTURE END LIST*
D10*
X0040270000Y0032545000D02*
X0039750000Y0031615000D01*
X0040270000Y0032545000D02*
X0039230000Y0032545000D01*
X0039230000Y0032540000D02*
X0039750000Y0031610000D01*
X0045070095Y0037102000D02*
X0044974857Y0037149620D01*
X0044832000Y0037149620D01*
X0044689142Y0037102000D01*
X0044593904Y0037006762D01*
X0044546285Y0036911524D01*
X0044498666Y0036721048D01*
X0044498666Y0036578191D01*
X0044546285Y0036387715D01*
X0044593904Y0036292477D01*
X0044689142Y0036197239D01*
X0044832000Y0036149620D01*
X0044927238Y0036149620D01*
X0045070095Y0036197239D01*
X0045117714Y0036244858D01*
X0045117714Y0036578191D01*
X0044927238Y0036578191D01*
X0045546285Y0036149620D02*
X0045546285Y0037149620D01*
X0046117714Y0036149620D01*
X0046117714Y0037149620D01*
X0046593904Y0036149620D02*
X0046593904Y0037149620D01*
X0046832000Y0037149620D01*
X0046974857Y0037102000D01*
X0047070095Y0037006762D01*
X0047117714Y0036911524D01*
X0047165333Y0036721048D01*
X0047165333Y0036578191D01*
X0047117714Y0036387715D01*
X0047070095Y0036292477D01*
X0046974857Y0036197239D01*
X0046832000Y0036149620D01*
X0046593904Y0036149620D01*
X0040442142Y0038652143D02*
X0040406428Y0038616429D01*
X0040299285Y0038580715D01*
X0040227857Y0038580715D01*
X0040120714Y0038616429D01*
X0040049285Y0038687858D01*
X0040013571Y0038759286D01*
X0039977857Y0038902143D01*
X0039977857Y0039009286D01*
X0040013571Y0039152143D01*
X0040049285Y0039223572D01*
X0040120714Y0039295000D01*
X0040227857Y0039330715D01*
X0040299285Y0039330715D01*
X0040406428Y0039295000D01*
X0040442142Y0039259286D01*
X0040870714Y0038580715D02*
X0040799285Y0038616429D01*
X0040763571Y0038652143D01*
X0040727857Y0038723572D01*
X0040727857Y0038937858D01*
X0040763571Y0039009286D01*
X0040799285Y0039045000D01*
X0040870714Y0039080715D01*
X0040977857Y0039080715D01*
X0041049285Y0039045000D01*
X0041085000Y0039009286D01*
X0041120714Y0038937858D01*
X0041120714Y0038723572D01*
X0041085000Y0038652143D01*
X0041049285Y0038616429D01*
X0040977857Y0038580715D01*
X0040870714Y0038580715D01*
X0041763571Y0038580715D02*
X0041763571Y0038973572D01*
X0041727857Y0039045000D01*
X0041656428Y0039080715D01*
X0041513571Y0039080715D01*
X0041442142Y0039045000D01*
X0041763571Y0038616429D02*
X0041692142Y0038580715D01*
X0041513571Y0038580715D01*
X0041442142Y0038616429D01*
X0041406428Y0038687858D01*
X0041406428Y0038759286D01*
X0041442142Y0038830715D01*
X0041513571Y0038866429D01*
X0041692142Y0038866429D01*
X0041763571Y0038902143D01*
X0042049285Y0038580715D02*
X0042442142Y0039080715D01*
X0042049285Y0039080715D02*
X0042442142Y0038580715D01*
X0043513571Y0038295000D02*
X0043477857Y0038330715D01*
X0043406428Y0038437858D01*
X0043370714Y0038509286D01*
X0043335000Y0038616429D01*
X0043299285Y0038795000D01*
X0043299285Y0038937858D01*
X0043335000Y0039116429D01*
X0043370714Y0039223572D01*
X0043406428Y0039295000D01*
X0043477857Y0039402143D01*
X0043513571Y0039437858D01*
X0043942142Y0039330715D02*
X0044085000Y0039330715D01*
X0044156428Y0039295000D01*
X0044227857Y0039223572D01*
X0044263571Y0039080715D01*
X0044263571Y0038830715D01*
X0044227857Y0038687858D01*
X0044156428Y0038616429D01*
X0044085000Y0038580715D01*
X0043942142Y0038580715D01*
X0043870714Y0038616429D01*
X0043799285Y0038687858D01*
X0043763571Y0038830715D01*
X0043763571Y0039080715D01*
X0043799285Y0039223572D01*
X0043870714Y0039295000D01*
X0043942142Y0039330715D01*
X0044585000Y0038580715D02*
X0044585000Y0039330715D01*
X0044870714Y0039330715D01*
X0044942142Y0039295000D01*
X0044977857Y0039259286D01*
X0045013571Y0039187858D01*
X0045013571Y0039080715D01*
X0044977857Y0039009286D01*
X0044942142Y0038973572D01*
X0044870714Y0038937858D01*
X0044585000Y0038937858D01*
X0045227857Y0039330715D02*
X0045656428Y0039330715D01*
X0045442142Y0038580715D02*
X0045442142Y0039330715D01*
X0045906428Y0038652143D02*
X0045942142Y0038616429D01*
X0045906428Y0038580715D01*
X0045870714Y0038616429D01*
X0045906428Y0038652143D01*
X0045906428Y0038580715D01*
X0046192142Y0038295000D02*
X0046227857Y0038330715D01*
X0046299285Y0038437858D01*
X0046335000Y0038509286D01*
X0046370714Y0038616429D01*
X0046406428Y0038795000D01*
X0046406428Y0038937858D01*
X0046370714Y0039116429D01*
X0046335000Y0039223572D01*
X0046299285Y0039295000D01*
X0046227857Y0039402143D01*
X0046192142Y0039437858D01*
X0044911047Y0033930572D02*
X0044958666Y0033978191D01*
X0045053904Y0034025810D01*
X0045244380Y0033930572D01*
X0045339619Y0033978191D01*
X0045387238Y0034025810D01*
X0046463333Y0002317858D02*
X0046415714Y0002270238D01*
X0046272857Y0002222619D01*
X0046177619Y0002222619D01*
X0046034761Y0002270238D01*
X0045939523Y0002365476D01*
X0045891904Y0002460715D01*
X0045844285Y0002651190D01*
X0045844285Y0002794047D01*
X0045891904Y0002984524D01*
X0045939523Y0003079762D01*
X0046034761Y0003174999D01*
X0046177619Y0003222619D01*
X0046272857Y0003222619D01*
X0046415714Y0003174999D01*
X0046463333Y0003127380D01*
X0046796666Y0003222619D02*
X0047415714Y0003222619D01*
X0047082380Y0002841667D01*
X0047225238Y0002841667D01*
X0047320476Y0002794047D01*
X0047368095Y0002746428D01*
X0047415714Y0002651190D01*
X0047415714Y0002413096D01*
X0047368095Y0002317858D01*
X0047320476Y0002270238D01*
X0047225238Y0002222619D01*
X0046939523Y0002222619D01*
X0046844285Y0002270238D01*
X0046796666Y0002317858D01*
X0039626666Y0009057620D02*
X0039626666Y0008343333D01*
X0039579047Y0008200476D01*
X0039483809Y0008105239D01*
X0039340952Y0008057620D01*
X0039245714Y0008057620D01*
X0040626666Y0008057620D02*
X0040055238Y0008057620D01*
X0040340952Y0008057620D02*
X0040340952Y0009057620D01*
X0040245714Y0008914762D01*
X0040150476Y0008819524D01*
X0040055238Y0008771905D01*
X0050168095Y0008697620D02*
X0050168095Y0007888095D01*
X0050215714Y0007792858D01*
X0050263333Y0007745238D01*
X0050358571Y0007697620D01*
X0050549047Y0007697620D01*
X0050644285Y0007745238D01*
X0050691904Y0007792858D01*
X0050739523Y0007888095D01*
X0050739523Y0008697620D01*
X0051168095Y0008602381D02*
X0051215714Y0008649999D01*
X0051310952Y0008697620D01*
X0051549047Y0008697620D01*
X0051644285Y0008649999D01*
X0051691904Y0008602381D01*
X0051739523Y0008507143D01*
X0051739523Y0008411905D01*
X0051691904Y0008269048D01*
X0051120476Y0007697620D01*
X0051739523Y0007697620D01*
X0049668095Y0033417620D02*
X0049668095Y0032608096D01*
X0049715714Y0032512858D01*
X0049763333Y0032465238D01*
X0049858571Y0032417620D01*
X0050049047Y0032417620D01*
X0050144285Y0032465238D01*
X0050191904Y0032512858D01*
X0050239523Y0032608096D01*
X0050239523Y0033417620D01*
X0051239523Y0032417620D02*
X0050668095Y0032417620D01*
X0050953809Y0032417620D02*
X0050953809Y0033417620D01*
X0050858571Y0033274762D01*
X0050763333Y0033179524D01*
X0050668095Y0033131905D01*
X0056387142Y0018633334D02*
X0056434761Y0018585715D01*
X0056482380Y0018442858D01*
X0056482380Y0018347620D01*
X0056434761Y0018204762D01*
X0056339523Y0018109524D01*
X0056244285Y0018061905D01*
X0056053809Y0018014286D01*
X0055910952Y0018014286D01*
X0055720476Y0018061905D01*
X0055625237Y0018109524D01*
X0055530000Y0018204762D01*
X0055482380Y0018347620D01*
X0055482380Y0018442858D01*
X0055530000Y0018585715D01*
X0055577619Y0018633334D01*
X0055577619Y0019014286D02*
X0055530000Y0019061905D01*
X0055482380Y0019157143D01*
X0055482380Y0019395239D01*
X0055530000Y0019490477D01*
X0055577619Y0019538096D01*
X0055672857Y0019585715D01*
X0055768095Y0019585715D01*
X0055910952Y0019538096D01*
X0056482380Y0018966667D01*
X0056482380Y0019585715D01*
X0046568095Y0006697620D02*
X0046568095Y0005888095D01*
X0046615714Y0005792858D01*
X0046663333Y0005745238D01*
X0046758571Y0005697620D01*
X0046949047Y0005697620D01*
X0047044285Y0005745238D01*
X0047091904Y0005792858D01*
X0047139523Y0005888095D01*
X0047139523Y0006697620D01*
X0047520476Y0006697620D02*
X0048139523Y0006697620D01*
X0047806190Y0006316667D01*
X0047949047Y0006316667D01*
X0048044285Y0006269047D01*
X0048091904Y0006221429D01*
X0048139523Y0006126190D01*
X0048139523Y0005888095D01*
X0048091904Y0005792858D01*
X0048044285Y0005745238D01*
X0047949047Y0005697620D01*
X0047663333Y0005697620D01*
X0047568095Y0005745238D01*
X0047520476Y0005792858D01*
X0050937142Y0018645334D02*
X0050984761Y0018597715D01*
X0051032380Y0018454858D01*
X0051032380Y0018359620D01*
X0050984761Y0018216762D01*
X0050889523Y0018121524D01*
X0050794285Y0018073905D01*
X0050603809Y0018026286D01*
X0050460952Y0018026286D01*
X0050270476Y0018073905D01*
X0050175238Y0018121524D01*
X0050080000Y0018216762D01*
X0050032380Y0018359620D01*
X0050032380Y0018454858D01*
X0050080000Y0018597715D01*
X0050127618Y0018645334D01*
X0051032380Y0019597715D02*
X0051032380Y0019026286D01*
X0051032380Y0019312000D02*
X0050032380Y0019312000D01*
X0050175238Y0019216762D01*
X0050270476Y0019121524D01*
X0050318095Y0019026286D01*
D11*
X0043318748Y0003460000D02*
X0043841252Y0003460000D01*
X0043318748Y0001990000D02*
X0043841252Y0001990000D01*
X0040480000Y0012280000D02*
X0039980000Y0012280000D01*
X0039980000Y0026480000D02*
X0040480000Y0026480000D01*
X0039980000Y0012379999D02*
X0040480000Y0012379999D01*
X0039980000Y0018480000D02*
X0040480000Y0018480000D01*
X0041480000Y0009320000D02*
X0041480000Y0009930000D01*
X0044090000Y0028880000D02*
X0043480000Y0028880000D01*
X0039980000Y0022480000D02*
X0040480000Y0022480000D01*
X0040480000Y0022480000D02*
X0040480000Y0022280000D01*
X0040480000Y0018480000D02*
X0040480000Y0018280000D01*
X0039980000Y0012480000D02*
X0040480000Y0012480000D01*
X0040480000Y0026280000D02*
X0039980000Y0026280000D01*
X0040480000Y0016480000D02*
X0040480000Y0016280000D01*
X0039980000Y0014480000D02*
X0040480000Y0014480000D01*
X0039980000Y0028380000D02*
X0040480000Y0028380000D01*
X0040480000Y0022280000D02*
X0039980000Y0022280000D01*
X0040480000Y0012480000D02*
X0040480000Y0012280000D01*
X0039980000Y0018380000D02*
X0040480000Y0018380000D01*
X0039370000Y0009320000D02*
X0044090000Y0009320000D01*
X0044090000Y0031439999D02*
X0039370000Y0031439999D01*
X0039370000Y0031439999D02*
X0039370000Y0009320000D01*
X0040480000Y0028280000D02*
X0039980000Y0028280000D01*
X0044390000Y0031740000D02*
X0043140000Y0031740000D01*
X0042780000Y0031439999D02*
X0042780000Y0030830000D01*
X0039980000Y0024380000D02*
X0040480000Y0024380000D01*
X0040480000Y0018280000D02*
X0039980000Y0018280000D01*
X0040480000Y0014280000D02*
X0039980000Y0014280000D01*
X0039980000Y0020380000D02*
X0040480000Y0020380000D01*
X0039980000Y0026380000D02*
X0040480000Y0026380000D01*
X0039980000Y0014379999D02*
X0040480000Y0014379999D01*
X0040480000Y0020480000D02*
X0040480000Y0020280000D01*
X0039980000Y0028480000D02*
X0040480000Y0028480000D01*
X0040480000Y0014480000D02*
X0040480000Y0014280000D01*
X0039980000Y0030830000D02*
X0039980000Y0009930000D01*
X0040480000Y0024480000D02*
X0040480000Y0024280000D01*
X0040480000Y0028480000D02*
X0040480000Y0028280000D01*
X0039980000Y0024480000D02*
X0040480000Y0024480000D01*
X0043480000Y0028880000D02*
X0043480000Y0030830000D01*
X0040480000Y0016280000D02*
X0039980000Y0016280000D01*
X0044390000Y0030490000D02*
X0044390000Y0031740000D01*
X0044290000Y0029680000D02*
X0044290000Y0029980000D01*
X0041480000Y0031439999D02*
X0041480000Y0030830000D01*
X0039980000Y0016480000D02*
X0040480000Y0016480000D01*
X0042780000Y0009320000D02*
X0042780000Y0009930000D01*
X0039980000Y0009930000D02*
X0043480000Y0009930000D01*
X0043480000Y0030830000D02*
X0039980000Y0030830000D01*
X0040480000Y0020280000D02*
X0039980000Y0020280000D01*
X0040480000Y0026480000D02*
X0040480000Y0026280000D01*
X0039980000Y0020480000D02*
X0040480000Y0020480000D01*
X0044190000Y0029680000D02*
X0044190000Y0029980000D01*
X0044090000Y0009320000D02*
X0044090000Y0031439999D01*
X0043480000Y0011879999D02*
X0044090000Y0011879999D01*
X0040480000Y0024280000D02*
X0039980000Y0024280000D01*
X0039980000Y0016379999D02*
X0040480000Y0016379999D01*
X0039980000Y0022380000D02*
X0040480000Y0022380000D01*
X0044090000Y0029680000D02*
X0044290000Y0029680000D01*
X0043480000Y0009930000D02*
X0043480000Y0011879999D01*
X0044290000Y0029980000D02*
X0044090000Y0029980000D01*
X0050702000Y0008928573D02*
X0047652000Y0008928573D01*
X0050702000Y0008928573D02*
X0053752000Y0008928573D01*
X0050702000Y0016998573D02*
X0053752000Y0016998573D01*
X0050702000Y0016998573D02*
X0046252000Y0016998573D01*
D12*
X0056379999Y0032049999D02*
X0045280000Y0032049999D01*
X0045280000Y0032049999D02*
X0045280000Y0020250000D01*
X0045280000Y0020250000D02*
X0056379999Y0020250000D01*
X0056379999Y0020250000D02*
X0056379999Y0032049999D01*
D11*
X0053234747Y0019547000D02*
X0053757252Y0019547000D01*
X0053234747Y0018077000D02*
X0053757252Y0018077000D01*
X0044340000Y0004719999D02*
X0042880000Y0004719999D01*
X0044340000Y0004719999D02*
X0044340000Y0005649999D01*
X0044340000Y0007880000D02*
X0044340000Y0006950000D01*
X0044340000Y0007880000D02*
X0041180000Y0007880000D01*
X0048169252Y0018077000D02*
X0047646748Y0018077000D01*
X0048169252Y0019547000D02*
X0047646748Y0019547000D01*
X0043490000Y0038147000D02*
X0040830000Y0038147000D01*
X0043490000Y0034277000D02*
X0043490000Y0032947000D01*
X0040830000Y0035547000D02*
X0040830000Y0038147000D01*
X0043490000Y0032947000D02*
X0042160000Y0032947000D01*
X0043490000Y0035547000D02*
X0043490000Y0038147000D01*
X0043490000Y0035547000D02*
X0040830000Y0035547000D01*
M02*