%
M48
METRIC,000.000
T01C0.30
T02C0.40
T03C0.75
T04C0.80
T05C1.00
T06C3.20
%
T01
X044510Y008629
X045266Y015815
X049127Y012207
X049127Y010277
X049135Y011200
X049140Y013122
X052175Y010949
X052480Y014367
X053090Y017110
X053166Y011573
X053287Y015213
T02
X044100Y025070
X045310Y027410
X046220Y021200
X047250Y030320
X048450Y020670
X048910Y032030
X050320Y024600
X050380Y027250
T03
X042280Y029380
X042280Y027380
X042280Y025380
X042280Y023380
X042280Y021380
X042280Y019380
X042280Y017380
X042280Y015379
X042280Y013379
X042280Y011379
T04
X047870Y028689
X047870Y026150
X047870Y023610
T05
X042160Y036817
X042160Y034277
T06
X052600Y036500
X052600Y003500
M30