G04 #@! TF.GenerationSoftware,KiCad,Pcbnew,(6.0.1)*
G04 #@! TF.CreationDate,2022-07-05T00:40:55-07:00*
G04 #@! TF.ProjectId,mu100-dit-connector-board,6d753130-302d-4646-9974-2d636f6e6e65,rev?*
G04 #@! TF.SameCoordinates,PX4a615b8PY2b4db18*
G04 #@! TF.FileFunction,Copper,L2,Bot*
G04 #@! TF.FilePolarity,Positive*
%FSLAX46Y46*%
G04 Gerber Fmt 4.6, Leading zero omitted, Abs format (unit mm)*
G04 Created by KiCad (PCBNEW (6.0.1)) date 2022-07-05 00:40:55*
%MOMM*%
%LPD*%
G01*
G04 APERTURE LIST*
G04 Aperture macros list*
%AMRoundRect*
4,1,4,2,3,4,5,6,7,8,9,2,3,0*
1,1,$1,$2,$3*
1,1,$1,$2,$3*
1,1,$1,$2,$3*
1,1,$1,$2,$3*
20,1,$1,$2,$3,$4,$5,0*
20,1,$1,$2,$3,$4,$5,0*
20,1,$1,$2,$3,$4,$5,0*
20,1,$1,$2,$3,$4,$5,0*%
G04 Aperture macros list end*
G04 #@! TA.AperFunction,ComponentPad*
%AMCOMP107*
4,1,3,
-0.65,0.35,
-0.65,-0.35,
0.65,-0.35,
0.65,0.35,
0*
4,1,19,
-0.65,0.6,
-0.57274575140626316,0.58776412907378839,
-0.50305368692688179,0.55225424859373684,
-0.44774575140626316,0.49694631307311826,
-0.41223587092621161,0.42725424859373684,
-0.4,0.35,
-0.41223587092621161,0.27274575140626311,
-0.44774575140626316,0.20305368692688172,
-0.50305368692688168,0.14774575140626314,
-0.57274575140626316,0.1122358709262116,
-0.65,0.099999999999999978,
-0.727254248593737,0.1122358709262116,
-0.79694631307311825,0.14774575140626309,
-0.85225424859373689,0.20305368692688167,
-0.88776412907378843,0.27274575140626311,
-0.9,0.34999999999999992,
-0.88776412907378843,0.42725424859373679,
-0.85225424859373689,0.49694631307311821,
-0.79694631307311836,0.55225424859373684,
-0.72725424859373689,0.58776412907378839,
0*
4,1,19,
-0.65,-0.099999999999999978,
-0.57274575140626316,-0.1122358709262116,
-0.50305368692688179,-0.14774575140626311,
-0.44774575140626316,-0.20305368692688169,
-0.41223587092621161,-0.27274575140626311,
-0.4,-0.35,
-0.41223587092621161,-0.42725424859373684,
-0.44774575140626316,-0.49694631307311821,
-0.50305368692688168,-0.55225424859373684,
-0.57274575140626316,-0.58776412907378839,
-0.65,-0.6,
-0.727254248593737,-0.58776412907378839,
-0.79694631307311825,-0.55225424859373684,
-0.85225424859373689,-0.49694631307311832,
-0.88776412907378843,-0.42725424859373684,
-0.9,-0.35000000000000003,
-0.88776412907378843,-0.27274575140626317,
-0.85225424859373689,-0.20305368692688175,
-0.79694631307311836,-0.14774575140626314,
-0.72725424859373689,-0.1122358709262116,
0*
4,1,19,
0.65,-0.099999999999999978,
0.72725424859373689,-0.1122358709262116,
0.79694631307311825,-0.14774575140626311,
0.85225424859373689,-0.20305368692688169,
0.88776412907378843,-0.27274575140626311,
0.9,-0.35,
0.88776412907378843,-0.42725424859373684,
0.85225424859373689,-0.49694631307311821,
0.79694631307311836,-0.55225424859373684,
0.72725424859373689,-0.58776412907378839,
0.65,-0.6,
0.572745751406263,-0.58776412907378839,
0.50305368692688179,-0.55225424859373684,
0.44774575140626316,-0.49694631307311832,
0.41223587092621161,-0.42725424859373684,
0.4,-0.35000000000000003,
0.41223587092621161,-0.27274575140626317,
0.44774575140626316,-0.20305368692688175,
0.50305368692688168,-0.14774575140626314,
0.57274575140626316,-0.1122358709262116,
0*
4,1,19,
0.65,0.6,
0.72725424859373689,0.58776412907378839,
0.79694631307311825,0.55225424859373684,
0.85225424859373689,0.49694631307311826,
0.88776412907378843,0.42725424859373684,
0.9,0.35,
0.88776412907378843,0.27274575140626311,
0.85225424859373689,0.20305368692688172,
0.79694631307311836,0.14774575140626314,
0.72725424859373689,0.1122358709262116,
0.65,0.099999999999999978,
0.572745751406263,0.1122358709262116,
0.50305368692688179,0.14774575140626309,
0.44774575140626316,0.20305368692688167,
0.41223587092621161,0.27274575140626311,
0.4,0.34999999999999992,
0.41223587092621161,0.42725424859373679,
0.44774575140626316,0.49694631307311821,
0.50305368692688168,0.55225424859373684,
0.57274575140626316,0.58776412907378839,
0*
4,1,3,
-0.9,0.35,
-0.4,0.35,
-0.4,-0.35,
-0.9,-0.35,
0*
4,1,3,
-0.65,-0.6,
-0.65,-0.099999999999999978,
0.65,-0.099999999999999978,
0.65,-0.6,
0*
4,1,3,
0.9,-0.35,
0.4,-0.35,
0.4,0.35,
0.9,0.35,
0*
4,1,3,
0.65,0.6,
0.65,0.099999999999999978,
-0.65,0.099999999999999978,
-0.65,0.6,
0*%
%ADD10COMP107,0.25X-0.65X0.35X-0.65X-0.35X0.65X-0.35X0.65X0.35X0*%
G04 #@! TD*
G04 #@! TA.AperFunction,ComponentPad*
%ADD11O,1.8X1.2*%
G04 #@! TD*
G04 #@! TA.AperFunction,ComponentPad*
%AMCOMP108*
4,1,3,
0.625,-0.35,
0.625,0.35,
-0.625,0.35,
-0.625,-0.35,
0*
4,1,19,
0.625,-0.099999999999999978,
0.70225424859373686,-0.1122358709262116,
0.77194631307311834,-0.14774575140626311,
0.82725424859373686,-0.20305368692688169,
0.86276412907378841,-0.27274575140626311,
0.875,-0.35,
0.86276412907378841,-0.42725424859373684,
0.82725424859373686,-0.49694631307311821,
0.77194631307311834,-0.55225424859373684,
0.70225424859373686,-0.58776412907378839,
0.625,-0.6,
0.547745751406263,-0.58776412907378839,
0.47805368692688177,-0.55225424859373684,
0.42274575140626314,-0.49694631307311832,
0.38723587092621159,-0.42725424859373684,
0.375,-0.35000000000000003,
0.38723587092621159,-0.27274575140626317,
0.42274575140626314,-0.20305368692688175,
0.47805368692688166,-0.14774575140626314,
0.54774575140626314,-0.1122358709262116,
0*
4,1,19,
0.625,0.6,
0.70225424859373686,0.58776412907378839,
0.77194631307311834,0.55225424859373684,
0.82725424859373686,0.49694631307311826,
0.86276412907378841,0.42725424859373684,
0.875,0.35,
0.86276412907378841,0.27274575140626311,
0.82725424859373686,0.20305368692688172,
0.77194631307311834,0.14774575140626314,
0.70225424859373686,0.1122358709262116,
0.625,0.099999999999999978,
0.547745751406263,0.1122358709262116,
0.47805368692688177,0.14774575140626309,
0.42274575140626314,0.20305368692688167,
0.38723587092621159,0.27274575140626311,
0.375,0.34999999999999992,
0.38723587092621159,0.42725424859373679,
0.42274575140626314,0.49694631307311821,
0.47805368692688166,0.55225424859373684,
0.54774575140626314,0.58776412907378839,
0*
4,1,19,
-0.625,0.6,
-0.54774575140626314,0.58776412907378839,
-0.47805368692688172,0.55225424859373684,
-0.42274575140626314,0.49694631307311826,
-0.38723587092621159,0.42725424859373684,
-0.375,0.35,
-0.38723587092621159,0.27274575140626311,
-0.42274575140626314,0.20305368692688172,
-0.47805368692688166,0.14774575140626314,
-0.54774575140626314,0.1122358709262116,
-0.625,0.099999999999999978,
-0.702254248593737,0.1122358709262116,
-0.77194631307311823,0.14774575140626309,
-0.82725424859373686,0.20305368692688167,
-0.86276412907378841,0.27274575140626311,
-0.875,0.34999999999999992,
-0.86276412907378841,0.42725424859373679,
-0.82725424859373686,0.49694631307311821,
-0.77194631307311834,0.55225424859373684,
-0.70225424859373686,0.58776412907378839,
0*
4,1,19,
-0.625,-0.099999999999999978,
-0.54774575140626314,-0.1122358709262116,
-0.47805368692688172,-0.14774575140626311,
-0.42274575140626314,-0.20305368692688169,
-0.38723587092621159,-0.27274575140626311,
-0.375,-0.35,
-0.38723587092621159,-0.42725424859373684,
-0.42274575140626314,-0.49694631307311821,
-0.47805368692688166,-0.55225424859373684,
-0.54774575140626314,-0.58776412907378839,
-0.625,-0.6,
-0.702254248593737,-0.58776412907378839,
-0.77194631307311823,-0.55225424859373684,
-0.82725424859373686,-0.49694631307311832,
-0.86276412907378841,-0.42725424859373684,
-0.875,-0.35000000000000003,
-0.86276412907378841,-0.27274575140626317,
-0.82725424859373686,-0.20305368692688175,
-0.77194631307311834,-0.14774575140626314,
-0.70225424859373686,-0.1122358709262116,
0*
4,1,3,
0.875,-0.35,
0.375,-0.35,
0.375,0.35,
0.875,0.35,
0*
4,1,3,
0.625,0.6,
0.625,0.099999999999999978,
-0.625,0.099999999999999978,
-0.625,0.6,
0*
4,1,3,
-0.875,0.35,
-0.375,0.35,
-0.375,-0.35,
-0.875,-0.35,
0*
4,1,3,
-0.625,-0.6,
-0.625,-0.099999999999999978,
0.625,-0.099999999999999978,
0.625,-0.6,
0*%
%ADD12COMP108,0.25X0.625X-0.35X0.625X0.35X-0.625X0.35X-0.625X-0.35X0*%
G04 #@! TD*
G04 #@! TA.AperFunction,ComponentPad*
%ADD13O,1.75X1.2*%
G04 #@! TD*
G04 #@! TA.AperFunction,ComponentPad*
%ADD14R,1.35X1.35*%
G04 #@! TD*
G04 #@! TA.AperFunction,ComponentPad*
%ADD15O,1.35X1.35*%
G04 #@! TD*
G04 #@! TA.AperFunction,ViaPad*
%ADD16C,0.8*%
G04 #@! TD*
G04 #@! TA.AperFunction,Conductor*
%ADD17C,0.4*%
G04 #@! TD*
G04 #@! TA.AperFunction,Conductor*
%ADD18C,0.25*%
G04 #@! TD*
G04 APERTURE END LIST*
D10*
X0059000000Y0084000000D02*
X0063855000Y0080165000D03*
D11*
X0063855000Y0078165000D03*
X0063855000Y0076165000D03*
X0063855000Y0074164999D03*
X0063855000Y0072164999D03*
X0063855000Y0070164999D03*
X0063855000Y0068164999D03*
X0063855000Y0066164999D03*
X0063855000Y0064164999D03*
X0063855000Y0062165000D03*
X0063855000Y0060165000D03*
X0063855000Y0058165000D03*
X0063855000Y0056165000D03*
X0063855000Y0054165000D03*
X0063855000Y0052165000D03*
X0063855000Y0050165000D03*
X0063855000Y0048165000D03*
D12*
X0071815000Y0055175000D03*
D13*
X0071815000Y0057175000D03*
X0071815000Y0059175000D03*
X0071815000Y0061175000D03*
X0071815000Y0063175000D03*
X0071815000Y0065175000D03*
X0071815000Y0067175000D03*
X0071815000Y0069175000D03*
X0071815000Y0071175000D03*
X0071815000Y0073175000D03*
D14*
X0060995000Y0080165000D03*
D15*
X0060995000Y0078165000D03*
X0060995000Y0076165000D03*
X0060995000Y0074164999D03*
X0060995000Y0072164999D03*
X0060995000Y0070164999D03*
X0060995000Y0068164999D03*
X0060995000Y0066164999D03*
X0060995000Y0064164999D03*
X0060995000Y0062165000D03*
X0060995000Y0060165000D03*
X0060995000Y0058165000D03*
X0060995000Y0056165000D03*
X0060995000Y0054165000D03*
X0060995000Y0052165000D03*
X0060995000Y0050165000D03*
X0060995000Y0048165000D03*
D16*
X0073095000Y0075685000D03*
X0071065000Y0076475000D03*
X0066035000Y0074605000D03*
X0067395000Y0074115000D03*
X0069075000Y0074055000D03*
X0065763000Y0070335400D03*
X0066220200Y0063096400D03*
D17*
X0064664400Y0078165000D02*
X0066271000Y0076558400D01*
X0063855000Y0076165000D02*
X0064959599Y0077269600D01*
X0063855000Y0078165000D02*
X0064664400Y0078165000D01*
X0065178799Y0077269600D02*
X0067185400Y0075263000D01*
X0073315480Y0073831920D02*
X0073315480Y0057796480D01*
X0071884400Y0075263000D02*
X0073315480Y0073831920D01*
X0064959599Y0077269600D02*
X0065178799Y0077269600D01*
X0072694000Y0057175000D02*
X0071815000Y0057175000D01*
X0067185400Y0075263000D02*
X0071884400Y0075263000D01*
X0073315480Y0057796480D02*
X0072694000Y0057175000D01*
X0066271000Y0076558400D02*
X0064248400Y0076558400D01*
D18*
X0065763000Y0070335400D02*
X0065763000Y0069813000D01*
X0065305800Y0059615800D02*
X0063855000Y0058165000D01*
X0065763000Y0069813000D02*
X0065305800Y0069355800D01*
X0065305800Y0069355800D02*
X0065305800Y0059615800D01*
X0066220200Y0062334400D02*
X0065763000Y0061877200D01*
X0066220200Y0063096400D02*
X0066220200Y0062334400D01*
X0065763000Y0061877200D02*
X0065763000Y0057736999D01*
X0065763000Y0057736999D02*
X0064191000Y0056165000D01*
X0064191000Y0056165000D02*
X0063855000Y0056165000D01*
G04 #@! TA.AperFunction,Conductor*
G36*
X0065325000Y0071675000D02*
G01*
X0063800031Y0071675000D01*
X0063800000Y0071680000D01*
X0060600000Y0071680000D01*
X0060599953Y0071675000D01*
X0060525000Y0071675000D01*
X0060525000Y0074675000D01*
X0065325000Y0074675000D01*
X0065325000Y0071675000D01*
G37*
G04 #@! TD.AperFunction*
G04 #@! TA.AperFunction,Conductor*
G36*
X0066329272Y0075117158D02*
G01*
X0066663950Y0074782479D01*
X0066669804Y0074776215D01*
X0066707839Y0074732615D01*
X0066714053Y0074728248D01*
X0066760119Y0074695872D01*
X0066765413Y0074691939D01*
X0066815681Y0074652524D01*
X0066822598Y0074649401D01*
X0066824884Y0074648017D01*
X0066839564Y0074639643D01*
X0066841925Y0074638378D01*
X0066848139Y0074634010D01*
X0066855217Y0074631250D01*
X0066855220Y0074631249D01*
X0066907675Y0074610798D01*
X0066913743Y0074608247D01*
X0066971973Y0074581955D01*
X0066979440Y0074580571D01*
X0066981995Y0074579770D01*
X0066998248Y0074575141D01*
X0067000828Y0074574478D01*
X0067007909Y0074571718D01*
X0067015440Y0074570727D01*
X0067015442Y0074570726D01*
X0067045061Y0074566827D01*
X0067071260Y0074563378D01*
X0067077759Y0074562348D01*
X0067140586Y0074550704D01*
X0067148166Y0074551141D01*
X0067148167Y0074551141D01*
X0067202792Y0074554291D01*
X0067210046Y0074554500D01*
X0071538740Y0074554500D01*
X0071606861Y0074534498D01*
X0071627835Y0074517595D01*
X0071646835Y0074498595D01*
X0071680861Y0074436283D01*
X0071675796Y0074365468D01*
X0071633249Y0074308632D01*
X0071566729Y0074283821D01*
X0071557740Y0074283500D01*
X0071487154Y0074283500D01*
X0071329433Y0074268452D01*
X0071126466Y0074208908D01*
X0071121139Y0074206164D01*
X0071121138Y0074206164D01*
X0070943751Y0074114803D01*
X0070943748Y0074114802D01*
X0070938420Y0074112058D01*
X0070772080Y0073981396D01*
X0070768148Y0073976865D01*
X0070768145Y0073976862D01*
X0070699366Y0073897601D01*
X0070633448Y0073821637D01*
X0070630448Y0073816451D01*
X0070630445Y0073816447D01*
X0070549616Y0073676728D01*
X0070527526Y0073638546D01*
X0070458139Y0073438729D01*
X0070457278Y0073432794D01*
X0070457278Y0073432792D01*
X0070432898Y0073264643D01*
X0070427787Y0073229396D01*
X0070437567Y0073018101D01*
X0070438971Y0073012276D01*
X0070438971Y0073012275D01*
X0070469067Y0072887397D01*
X0070487125Y0072812466D01*
X0070574674Y0072619913D01*
X0070697054Y0072447389D01*
X0070849850Y0072301119D01*
X0070854881Y0072297870D01*
X0070854888Y0072297865D01*
X0070882607Y0072279967D01*
X0070928984Y0072226211D01*
X0070938937Y0072155915D01*
X0070909304Y0072091398D01*
X0070892091Y0072075030D01*
X0070777143Y0071984738D01*
X0070768494Y0071976501D01*
X0070637788Y0071825877D01*
X0070630853Y0071816153D01*
X0070530990Y0071643533D01*
X0070526016Y0071632669D01*
X0070460593Y0071444273D01*
X0070460352Y0071443284D01*
X0070461820Y0071432992D01*
X0070475385Y0071429000D01*
X0071943000Y0071429000D01*
X0072011121Y0071408998D01*
X0072057614Y0071355342D01*
X0072069000Y0071303000D01*
X0072069000Y0071047000D01*
X0072048998Y0070978879D01*
X0071995342Y0070932386D01*
X0071943000Y0070920999D01*
X0070479598Y0070920999D01*
X0070466067Y0070917027D01*
X0070464712Y0070907601D01*
X0070486194Y0070818463D01*
X0070490083Y0070807168D01*
X0070572629Y0070625618D01*
X0070578576Y0070615276D01*
X0070693968Y0070452603D01*
X0070701761Y0070443575D01*
X0070845831Y0070305658D01*
X0070855200Y0070298259D01*
X0070882577Y0070280582D01*
X0070928955Y0070226828D01*
X0070938909Y0070156532D01*
X0070909278Y0070092015D01*
X0070892063Y0070075644D01*
X0070772080Y0069981396D01*
X0070768148Y0069976865D01*
X0070768145Y0069976862D01*
X0070649554Y0069840198D01*
X0070633448Y0069821637D01*
X0070630448Y0069816451D01*
X0070630445Y0069816447D01*
X0070602561Y0069768247D01*
X0070527526Y0069638546D01*
X0070458139Y0069438729D01*
X0070457278Y0069432794D01*
X0070457278Y0069432792D01*
X0070441907Y0069326777D01*
X0070427787Y0069229396D01*
X0070437567Y0069018101D01*
X0070487125Y0068812466D01*
X0070574674Y0068619913D01*
X0070697054Y0068447389D01*
X0070849850Y0068301119D01*
X0070854881Y0068297870D01*
X0070854888Y0068297865D01*
X0070882607Y0068279967D01*
X0070928984Y0068226211D01*
X0070938937Y0068155915D01*
X0070909304Y0068091398D01*
X0070892091Y0068075030D01*
X0070777143Y0067984738D01*
X0070768494Y0067976501D01*
X0070637788Y0067825876D01*
X0070630853Y0067816153D01*
X0070530990Y0067643533D01*
X0070526016Y0067632669D01*
X0070460593Y0067444273D01*
X0070460352Y0067443284D01*
X0070461820Y0067432992D01*
X0070475385Y0067429000D01*
X0071943000Y0067429000D01*
X0072011121Y0067408998D01*
X0072057614Y0067355342D01*
X0072069000Y0067303000D01*
X0072069000Y0067047000D01*
X0072048998Y0066978879D01*
X0071995342Y0066932386D01*
X0071943000Y0066920999D01*
X0070479598Y0066920999D01*
X0070466067Y0066917027D01*
X0070464712Y0066907601D01*
X0070486194Y0066818463D01*
X0070490083Y0066807168D01*
X0070572629Y0066625618D01*
X0070578576Y0066615275D01*
X0070693968Y0066452603D01*
X0070701761Y0066443574D01*
X0070845831Y0066305657D01*
X0070855200Y0066298259D01*
X0070882577Y0066280581D01*
X0070928955Y0066226828D01*
X0070938909Y0066156532D01*
X0070909278Y0066092015D01*
X0070892063Y0066075644D01*
X0070772080Y0065981396D01*
X0070768148Y0065976865D01*
X0070768145Y0065976862D01*
X0070649554Y0065840198D01*
X0070633448Y0065821636D01*
X0070630448Y0065816451D01*
X0070630445Y0065816447D01*
X0070602561Y0065768247D01*
X0070527526Y0065638546D01*
X0070458139Y0065438728D01*
X0070427787Y0065229396D01*
X0070437567Y0065018101D01*
X0070487125Y0064812466D01*
X0070574674Y0064619913D01*
X0070697054Y0064447389D01*
X0070849850Y0064301119D01*
X0070854881Y0064297870D01*
X0070854888Y0064297865D01*
X0070882607Y0064279967D01*
X0070928984Y0064226211D01*
X0070938937Y0064155914D01*
X0070909304Y0064091398D01*
X0070892091Y0064075030D01*
X0070777143Y0063984738D01*
X0070768494Y0063976501D01*
X0070637788Y0063825877D01*
X0070630853Y0063816153D01*
X0070530990Y0063643533D01*
X0070526016Y0063632669D01*
X0070460593Y0063444272D01*
X0070460352Y0063443284D01*
X0070461820Y0063432992D01*
X0070475385Y0063429000D01*
X0071943000Y0063429000D01*
X0072011121Y0063408998D01*
X0072057614Y0063355342D01*
X0072069000Y0063303000D01*
X0072069000Y0063047000D01*
X0072048998Y0062978879D01*
X0071995342Y0062932386D01*
X0071943000Y0062921000D01*
X0070479598Y0062921000D01*
X0070466067Y0062917027D01*
X0070464712Y0062907601D01*
X0070486194Y0062818463D01*
X0070490083Y0062807168D01*
X0070572629Y0062625618D01*
X0070578576Y0062615276D01*
X0070693968Y0062452603D01*
X0070701761Y0062443574D01*
X0070845831Y0062305658D01*
X0070855200Y0062298259D01*
X0070882577Y0062280581D01*
X0070928955Y0062226828D01*
X0070938909Y0062156532D01*
X0070909278Y0062092015D01*
X0070892063Y0062075644D01*
X0070772080Y0061981396D01*
X0070768148Y0061976865D01*
X0070768145Y0061976862D01*
X0070716853Y0061917753D01*
X0070633448Y0061821636D01*
X0070630448Y0061816451D01*
X0070630445Y0061816447D01*
X0070602561Y0061768247D01*
X0070527526Y0061638546D01*
X0070458139Y0061438728D01*
X0070427787Y0061229396D01*
X0070437567Y0061018101D01*
X0070487125Y0060812466D01*
X0070574674Y0060619913D01*
X0070697054Y0060447389D01*
X0070849850Y0060301119D01*
X0070854881Y0060297870D01*
X0070854888Y0060297865D01*
X0070882607Y0060279967D01*
X0070928984Y0060226211D01*
X0070938937Y0060155915D01*
X0070909304Y0060091398D01*
X0070892091Y0060075030D01*
X0070777143Y0059984738D01*
X0070768494Y0059976501D01*
X0070637788Y0059825877D01*
X0070630853Y0059816153D01*
X0070530990Y0059643533D01*
X0070526016Y0059632669D01*
X0070460593Y0059444272D01*
X0070460352Y0059443284D01*
X0070461820Y0059432992D01*
X0070475385Y0059429000D01*
X0071943000Y0059429000D01*
X0072011121Y0059408998D01*
X0072057614Y0059355342D01*
X0072069000Y0059303000D01*
X0072069000Y0059047000D01*
X0072048998Y0058978879D01*
X0071995342Y0058932386D01*
X0071943000Y0058921000D01*
X0070479598Y0058921000D01*
X0070466067Y0058917027D01*
X0070464712Y0058907601D01*
X0070486194Y0058818463D01*
X0070490083Y0058807168D01*
X0070572629Y0058625618D01*
X0070578576Y0058615276D01*
X0070693968Y0058452603D01*
X0070701761Y0058443574D01*
X0070845831Y0058305658D01*
X0070855200Y0058298259D01*
X0070882577Y0058280581D01*
X0070928955Y0058226828D01*
X0070938909Y0058156532D01*
X0070909278Y0058092015D01*
X0070892063Y0058075644D01*
X0070772080Y0057981396D01*
X0070768148Y0057976865D01*
X0070768145Y0057976862D01*
X0070649554Y0057840198D01*
X0070633448Y0057821636D01*
X0070630448Y0057816451D01*
X0070630445Y0057816447D01*
X0070549903Y0057677223D01*
X0070527526Y0057638546D01*
X0070458139Y0057438728D01*
X0070457278Y0057432794D01*
X0070457278Y0057432792D01*
X0070429266Y0057239593D01*
X0070427787Y0057229396D01*
X0070437567Y0057018101D01*
X0070438971Y0057012276D01*
X0070438971Y0057012275D01*
X0070475695Y0056859895D01*
X0070487125Y0056812466D01*
X0070574674Y0056619913D01*
X0070697054Y0056447389D01*
X0070701381Y0056443247D01*
X0070701386Y0056443241D01*
X0070792317Y0056356194D01*
X0070827694Y0056294639D01*
X0070824175Y0056223730D01*
X0070782879Y0056165979D01*
X0070771496Y0056158035D01*
X0070715652Y0056123478D01*
X0070590695Y0055998303D01*
X0070497885Y0055847738D01*
X0070495581Y0055840790D01*
X0070447642Y0055696258D01*
X0070442203Y0055679861D01*
X0070431500Y0055575400D01*
X0070431500Y0054774600D01*
X0070442474Y0054668834D01*
X0070498450Y0054501054D01*
X0070591522Y0054350652D01*
X0070716697Y0054225695D01*
X0070722927Y0054221855D01*
X0070722928Y0054221854D01*
X0070860090Y0054137305D01*
X0070867262Y0054132885D01*
X0070916357Y0054116601D01*
X0071028611Y0054079368D01*
X0071028613Y0054079368D01*
X0071035139Y0054077203D01*
X0071041975Y0054076503D01*
X0071041978Y0054076502D01*
X0071085031Y0054072091D01*
X0071139600Y0054066500D01*
X0072490400Y0054066500D01*
X0072493646Y0054066837D01*
X0072493650Y0054066837D01*
X0072589308Y0054076762D01*
X0072589312Y0054076763D01*
X0072596166Y0054077473D01*
X0072602702Y0054079655D01*
X0072602704Y0054079655D01*
X0072734806Y0054123728D01*
X0072763946Y0054133450D01*
X0072914348Y0054226522D01*
X0073039305Y0054351697D01*
X0073076549Y0054412118D01*
X0073128275Y0054496032D01*
X0073128276Y0054496034D01*
X0073132115Y0054502262D01*
X0073187797Y0054670139D01*
X0073198500Y0054774600D01*
X0073198500Y0055575400D01*
X0073187526Y0055681166D01*
X0073180758Y0055701454D01*
X0073133868Y0055841998D01*
X0073131550Y0055848946D01*
X0073038478Y0055999348D01*
X0072913303Y0056124305D01*
X0072861764Y0056156075D01*
X0072814271Y0056208846D01*
X0072802847Y0056278918D01*
X0072831121Y0056344042D01*
X0072850045Y0056362418D01*
X0072857920Y0056368604D01*
X0072981688Y0056511234D01*
X0073018150Y0056540054D01*
X0073024656Y0056542513D01*
X0073030917Y0056546814D01*
X0073033286Y0056548054D01*
X0073048097Y0056556298D01*
X0073050351Y0056557632D01*
X0073057305Y0056560685D01*
X0073108002Y0056599587D01*
X0073113332Y0056603459D01*
X0073159720Y0056635339D01*
X0073159725Y0056635344D01*
X0073165981Y0056639643D01*
X0073207427Y0056686161D01*
X0073212408Y0056691437D01*
X0073351905Y0056830934D01*
X0073414217Y0056864960D01*
X0073485032Y0056859895D01*
X0073541868Y0056817347D01*
X0073566679Y0056750828D01*
X0073567000Y0056741839D01*
X0073567000Y0044634000D01*
X0073546998Y0044565879D01*
X0073493342Y0044519386D01*
X0073441000Y0044508000D01*
X0059634000Y0044508000D01*
X0059565879Y0044528002D01*
X0059519386Y0044581658D01*
X0059508000Y0044634000D01*
X0059508000Y0046539600D01*
X0059528002Y0046607721D01*
X0059581658Y0046654214D01*
X0059634000Y0046665600D01*
X0066238400Y0046665600D01*
X0066238400Y0051775000D01*
X0065364138Y0051775000D01*
X0065296018Y0051795002D01*
X0065249525Y0051848658D01*
X0065239442Y0051919080D01*
X0065266352Y0052104664D01*
X0065266352Y0052104667D01*
X0065267213Y0052110603D01*
X0065257433Y0052321899D01*
X0065207875Y0052527534D01*
X0065168412Y0052614329D01*
X0065122806Y0052714632D01*
X0065120326Y0052720087D01*
X0064997946Y0052892611D01*
X0064845150Y0053038881D01*
X0064839254Y0053042688D01*
X0064812837Y0053059746D01*
X0064766459Y0053113501D01*
X0064756507Y0053183797D01*
X0064786139Y0053248314D01*
X0064803353Y0053264683D01*
X0064918201Y0053354898D01*
X0064922920Y0053358604D01*
X0064926852Y0053363135D01*
X0064926855Y0053363138D01*
X0065057621Y0053513833D01*
X0065061552Y0053518363D01*
X0065064552Y0053523549D01*
X0065064555Y0053523553D01*
X0065164467Y0053696258D01*
X0065167473Y0053701454D01*
X0065236861Y0053901271D01*
X0065260867Y0054066837D01*
X0065266352Y0054104664D01*
X0065266352Y0054104667D01*
X0065267213Y0054110603D01*
X0065257433Y0054321899D01*
X0065212582Y0054508002D01*
X0065209281Y0054521701D01*
X0065209280Y0054521703D01*
X0065207875Y0054527534D01*
X0065168412Y0054614329D01*
X0065140511Y0054675692D01*
X0065120326Y0054720087D01*
X0064997946Y0054892611D01*
X0064845150Y0055038881D01*
X0064839254Y0055042688D01*
X0064812837Y0055059746D01*
X0064766459Y0055113501D01*
X0064756507Y0055183797D01*
X0064786139Y0055248314D01*
X0064803353Y0055264683D01*
X0064918201Y0055354898D01*
X0064922920Y0055358604D01*
X0064926852Y0055363135D01*
X0064926855Y0055363138D01*
X0065057621Y0055513833D01*
X0065061552Y0055518363D01*
X0065064552Y0055523549D01*
X0065064555Y0055523553D01*
X0065164467Y0055696258D01*
X0065167473Y0055701454D01*
X0065236861Y0055901271D01*
X0065267213Y0056110603D01*
X0065261140Y0056241796D01*
X0065259403Y0056279348D01*
X0065276234Y0056348320D01*
X0065296172Y0056374269D01*
X0066155258Y0057233353D01*
X0066163537Y0057240887D01*
X0066170018Y0057245000D01*
X0066216644Y0057294652D01*
X0066219398Y0057297493D01*
X0066239135Y0057317229D01*
X0066241614Y0057320426D01*
X0066249320Y0057329449D01*
X0066274159Y0057355900D01*
X0066279585Y0057361678D01*
X0066283405Y0057368625D01*
X0066283407Y0057368628D01*
X0066289348Y0057379434D01*
X0066300199Y0057395953D01*
X0066307758Y0057405699D01*
X0066312614Y0057411958D01*
X0066315759Y0057419228D01*
X0066315762Y0057419232D01*
X0066330174Y0057452537D01*
X0066335391Y0057463187D01*
X0066356695Y0057501940D01*
X0066361733Y0057521563D01*
X0066368137Y0057540266D01*
X0066373033Y0057551580D01*
X0066373033Y0057551581D01*
X0066376181Y0057558855D01*
X0066377420Y0057566677D01*
X0066377422Y0057566688D01*
X0066383099Y0057602524D01*
X0066385504Y0057614143D01*
X0066394527Y0057649288D01*
X0066394527Y0057649290D01*
X0066396500Y0057656970D01*
X0066396500Y0057677223D01*
X0066398050Y0057696935D01*
X0066399980Y0057709114D01*
X0066401219Y0057716943D01*
X0066397059Y0057760962D01*
X0066396500Y0057772819D01*
X0066396500Y0061562606D01*
X0066416501Y0061630727D01*
X0066433404Y0061651701D01*
X0066612447Y0061830743D01*
X0066620737Y0061838287D01*
X0066627218Y0061842400D01*
X0066673858Y0061892067D01*
X0066676613Y0061894909D01*
X0066696334Y0061914630D01*
X0066698812Y0061917825D01*
X0066706518Y0061926846D01*
X0066731358Y0061953299D01*
X0066736785Y0061959079D01*
X0066746545Y0061976832D01*
X0066757399Y0061993355D01*
X0066764953Y0062003094D01*
X0066769813Y0062009359D01*
X0066787375Y0062049943D01*
X0066792582Y0062060573D01*
X0066813895Y0062099340D01*
X0066815866Y0062107017D01*
X0066815867Y0062107022D01*
X0066818932Y0062118958D01*
X0066825338Y0062137670D01*
X0066830234Y0062148983D01*
X0066833381Y0062156255D01*
X0066840296Y0062199919D01*
X0066842704Y0062211540D01*
X0066851727Y0062246689D01*
X0066851727Y0062246690D01*
X0066853700Y0062254370D01*
X0066853700Y0062274631D01*
X0066855250Y0062294342D01*
X0066855872Y0062298259D01*
X0066858419Y0062314343D01*
X0066854259Y0062358354D01*
X0066853700Y0062370211D01*
X0066853700Y0062393876D01*
X0066873701Y0062461997D01*
X0066886058Y0062478179D01*
X0066959239Y0062559456D01*
X0067054727Y0062724844D01*
X0067113742Y0062906472D01*
X0067114852Y0062917027D01*
X0067133014Y0063089835D01*
X0067133704Y0063096400D01*
X0067124441Y0063184535D01*
X0067114432Y0063279765D01*
X0067114432Y0063279767D01*
X0067113742Y0063286328D01*
X0067054727Y0063467956D01*
X0066959239Y0063633344D01*
X0066831452Y0063775266D01*
X0066676952Y0063887518D01*
X0066670924Y0063890202D01*
X0066670922Y0063890203D01*
X0066508519Y0063962509D01*
X0066508517Y0063962509D01*
X0066502488Y0063965194D01*
X0066409087Y0063985047D01*
X0066322143Y0064003528D01*
X0066322138Y0064003528D01*
X0066315687Y0064004899D01*
X0066124713Y0064004899D01*
X0066114464Y0064002722D01*
X0066091496Y0063997840D01*
X0066020705Y0064003243D01*
X0065964073Y0064046060D01*
X0065939580Y0064112697D01*
X0065939300Y0064121087D01*
X0065939300Y0069041206D01*
X0065959301Y0069109327D01*
X0065976204Y0069130301D01*
X0066155247Y0069309343D01*
X0066163537Y0069316887D01*
X0066170018Y0069321000D01*
X0066216658Y0069370668D01*
X0066219413Y0069373509D01*
X0066239134Y0069393230D01*
X0066241612Y0069396425D01*
X0066249318Y0069405447D01*
X0066274158Y0069431899D01*
X0066279585Y0069437679D01*
X0066289345Y0069455432D01*
X0066300199Y0069471955D01*
X0066307753Y0069481694D01*
X0066312613Y0069487959D01*
X0066330175Y0069528543D01*
X0066335383Y0069539173D01*
X0066356695Y0069577940D01*
X0066358666Y0069585617D01*
X0066358667Y0069585622D01*
X0066361732Y0069597557D01*
X0066368138Y0069616270D01*
X0066373033Y0069627580D01*
X0066376181Y0069634855D01*
X0066377202Y0069641301D01*
X0066404180Y0069689771D01*
X0066497617Y0069793543D01*
X0066497620Y0069793547D01*
X0066502039Y0069798456D01*
X0066597527Y0069963844D01*
X0066656542Y0070145472D01*
X0066657704Y0070156532D01*
X0066675814Y0070328835D01*
X0066676503Y0070335400D01*
X0066668441Y0070412117D01*
X0066657231Y0070518765D01*
X0066657231Y0070518767D01*
X0066656542Y0070525328D01*
X0066597527Y0070706956D01*
X0066502039Y0070872344D01*
X0066470294Y0070907601D01*
X0066378675Y0071009355D01*
X0066378674Y0071009356D01*
X0066374252Y0071014265D01*
X0066219752Y0071126518D01*
X0066213724Y0071129201D01*
X0066213722Y0071129203D01*
X0066051319Y0071201509D01*
X0066051317Y0071201509D01*
X0066045288Y0071204194D01*
X0065951887Y0071224047D01*
X0065864943Y0071242528D01*
X0065864938Y0071242528D01*
X0065858487Y0071243900D01*
X0065667513Y0071243900D01*
X0065661061Y0071242528D01*
X0065661056Y0071242528D01*
X0065574113Y0071224047D01*
X0065480712Y0071204194D01*
X0065474682Y0071201509D01*
X0065474681Y0071201509D01*
X0065312278Y0071129203D01*
X0065312276Y0071129201D01*
X0065306248Y0071126518D01*
X0065151747Y0071014265D01*
X0065119885Y0070978879D01*
X0065108644Y0070966395D01*
X0065048198Y0070929155D01*
X0064977215Y0070930507D01*
X0064927876Y0070959687D01*
X0064849480Y0071034736D01*
X0064845150Y0071038881D01*
X0064840119Y0071042130D01*
X0064840112Y0071042135D01*
X0064812393Y0071060033D01*
X0064766015Y0071113789D01*
X0064756063Y0071184085D01*
X0064785696Y0071248602D01*
X0064802909Y0071264970D01*
X0064917857Y0071355262D01*
X0064926506Y0071363499D01*
X0065057211Y0071514123D01*
X0065064147Y0071523847D01*
X0065164010Y0071696467D01*
X0065168983Y0071707331D01*
X0065234407Y0071895727D01*
X0065234647Y0071896716D01*
X0065233180Y0071907008D01*
X0065219615Y0071911000D01*
X0062494598Y0071911000D01*
X0062481067Y0071907027D01*
X0062479712Y0071897601D01*
X0062494673Y0071835520D01*
X0062491188Y0071764609D01*
X0062449918Y0071706839D01*
X0062383967Y0071680553D01*
X0062372180Y0071680000D01*
X0062255587Y0071680000D01*
X0062187466Y0071700002D01*
X0062140973Y0071753658D01*
X0062130869Y0071823932D01*
X0062136274Y0071846501D01*
X0062148385Y0071882179D01*
X0062151017Y0071893143D01*
X0062149040Y0071907008D01*
X0062135474Y0071911000D01*
X0059856981Y0071911000D01*
X0059843450Y0071907027D01*
X0059842158Y0071898038D01*
X0059873656Y0071774015D01*
X0059877497Y0071763168D01*
X0059963685Y0071576211D01*
X0059969436Y0071566250D01*
X0060088254Y0071398127D01*
X0060095725Y0071389379D01*
X0060235118Y0071253589D01*
X0060269956Y0071191728D01*
X0060265819Y0071120852D01*
X0060230274Y0071068604D01*
X0060132842Y0070983158D01*
X0059998181Y0070812342D01*
X0059896905Y0070619846D01*
X0059895192Y0070614329D01*
X0059842171Y0070443575D01*
X0059832403Y0070412117D01*
X0059806837Y0070196113D01*
X0059821063Y0069979067D01*
X0059822484Y0069973471D01*
X0059822485Y0069973466D01*
X0059873184Y0069773842D01*
X0059874605Y0069768247D01*
X0059965668Y0069570715D01*
X0059969001Y0069565999D01*
X0060063774Y0069431899D01*
X0060091204Y0069393086D01*
X0060095346Y0069389051D01*
X0060234741Y0069253259D01*
X0060269579Y0069191397D01*
X0060265442Y0069120522D01*
X0060229899Y0069068274D01*
X0060132842Y0068983158D01*
X0059998181Y0068812342D01*
X0059896905Y0068619846D01*
X0059832403Y0068412117D01*
X0059806837Y0068196113D01*
X0059821063Y0067979067D01*
X0059874605Y0067768247D01*
X0059965668Y0067570715D01*
X0059969001Y0067565999D01*
X0060055029Y0067444273D01*
X0060091204Y0067393086D01*
X0060095346Y0067389051D01*
X0060234741Y0067253259D01*
X0060269579Y0067191397D01*
X0060265442Y0067120522D01*
X0060229899Y0067068274D01*
X0060132842Y0066983158D01*
X0059998181Y0066812342D01*
X0059896905Y0066619845D01*
X0059895192Y0066614329D01*
X0059842171Y0066443574D01*
X0059832403Y0066412117D01*
X0059806837Y0066196113D01*
X0059821063Y0065979067D01*
X0059822484Y0065973471D01*
X0059822485Y0065973466D01*
X0059862364Y0065816447D01*
X0059874605Y0065768247D01*
X0059965668Y0065570715D01*
X0059969001Y0065565999D01*
X0060063143Y0065432792D01*
X0060091204Y0065393086D01*
X0060095346Y0065389050D01*
X0060234741Y0065253259D01*
X0060269579Y0065191397D01*
X0060265442Y0065120521D01*
X0060229899Y0065068274D01*
X0060132842Y0064983158D01*
X0059998181Y0064812342D01*
X0059896905Y0064619845D01*
X0059832403Y0064412117D01*
X0059806837Y0064196113D01*
X0059821063Y0063979067D01*
X0059822484Y0063973471D01*
X0059822485Y0063973466D01*
X0059845299Y0063883637D01*
X0059874605Y0063768247D01*
X0059965668Y0063570715D01*
X0059969001Y0063565999D01*
X0060055029Y0063444272D01*
X0060091204Y0063393086D01*
X0060095346Y0063389050D01*
X0060234741Y0063253259D01*
X0060269579Y0063191398D01*
X0060265442Y0063120522D01*
X0060229899Y0063068274D01*
X0060132842Y0062983158D01*
X0059998181Y0062812342D01*
X0059896905Y0062619845D01*
X0059895192Y0062614329D01*
X0059842171Y0062443574D01*
X0059832403Y0062412118D01*
X0059806837Y0062196113D01*
X0059821063Y0061979067D01*
X0059822484Y0061973471D01*
X0059822485Y0061973466D01*
X0059862364Y0061816447D01*
X0059874605Y0061768247D01*
X0059965668Y0061570715D01*
X0059969001Y0061565999D01*
X0060063143Y0061432792D01*
X0060091204Y0061393086D01*
X0060095346Y0061389050D01*
X0060234741Y0061253259D01*
X0060269579Y0061191398D01*
X0060265442Y0061120522D01*
X0060229899Y0061068274D01*
X0060132842Y0060983158D01*
X0059998181Y0060812342D01*
X0059896905Y0060619845D01*
X0059832403Y0060412118D01*
X0059806837Y0060196113D01*
X0059821063Y0059979067D01*
X0059874605Y0059768247D01*
X0059965668Y0059570715D01*
X0059969001Y0059565999D01*
X0060055029Y0059444272D01*
X0060091204Y0059393086D01*
X0060095346Y0059389050D01*
X0060234741Y0059253259D01*
X0060269579Y0059191398D01*
X0060265442Y0059120522D01*
X0060229899Y0059068274D01*
X0060132842Y0058983158D01*
X0059998181Y0058812342D01*
X0059896905Y0058619845D01*
X0059895192Y0058614329D01*
X0059842171Y0058443574D01*
X0059832403Y0058412118D01*
X0059806837Y0058196113D01*
X0059821063Y0057979067D01*
X0059822484Y0057973471D01*
X0059822485Y0057973466D01*
X0059862364Y0057816447D01*
X0059874605Y0057768247D01*
X0059877022Y0057763003D01*
X0059907480Y0057696935D01*
X0059965668Y0057570715D01*
X0059969001Y0057565999D01*
X0060063143Y0057432792D01*
X0060091204Y0057393086D01*
X0060095346Y0057389050D01*
X0060234741Y0057253259D01*
X0060269579Y0057191398D01*
X0060265442Y0057120522D01*
X0060229899Y0057068274D01*
X0060132842Y0056983158D01*
X0059998181Y0056812342D01*
X0059896905Y0056619845D01*
X0059832403Y0056412118D01*
X0059806837Y0056196113D01*
X0059821063Y0055979067D01*
X0059822484Y0055973471D01*
X0059822485Y0055973466D01*
X0059855874Y0055841998D01*
X0059874605Y0055768247D01*
X0059965668Y0055570715D01*
X0060091204Y0055393086D01*
X0060095346Y0055389050D01*
X0060234741Y0055253259D01*
X0060269579Y0055191398D01*
X0060265442Y0055120522D01*
X0060229899Y0055068274D01*
X0060132842Y0054983158D01*
X0060129270Y0054978627D01*
X0060064726Y0054896753D01*
X0059998181Y0054812342D01*
X0059896905Y0054619845D01*
X0059832403Y0054412118D01*
X0059806837Y0054196113D01*
X0059821063Y0053979067D01*
X0059874605Y0053768247D01*
X0059965668Y0053570715D01*
X0060091204Y0053393086D01*
X0060095346Y0053389050D01*
X0060234741Y0053253259D01*
X0060269579Y0053191398D01*
X0060265442Y0053120522D01*
X0060229899Y0053068274D01*
X0060132842Y0052983158D01*
X0060129270Y0052978627D01*
X0060064726Y0052896753D01*
X0059998181Y0052812342D01*
X0059896905Y0052619845D01*
X0059832403Y0052412118D01*
X0059806837Y0052196113D01*
X0059821063Y0051979067D01*
X0059833013Y0051932015D01*
X0059830395Y0051861068D01*
X0059789835Y0051802798D01*
X0059724211Y0051775706D01*
X0059710890Y0051775000D01*
X0059634000Y0051775000D01*
X0059565879Y0051795002D01*
X0059519386Y0051848658D01*
X0059508000Y0051901000D01*
X0059508000Y0072422201D01*
X0059840218Y0072422201D01*
X0059846950Y0072419000D01*
X0060722885Y0072419000D01*
X0060738124Y0072423475D01*
X0060739329Y0072424865D01*
X0060741000Y0072432548D01*
X0060741000Y0072437115D01*
X0061249000Y0072437115D01*
X0061253475Y0072421876D01*
X0061254865Y0072420671D01*
X0061262548Y0072419000D01*
X0062134485Y0072419000D01*
X0062148016Y0072422973D01*
X0062149185Y0072431108D01*
X0062148571Y0072433284D01*
X0062475352Y0072433284D01*
X0062476820Y0072422992D01*
X0062490385Y0072419000D01*
X0063582885Y0072419000D01*
X0063598124Y0072423475D01*
X0063599329Y0072424865D01*
X0063601000Y0072432548D01*
X0063601000Y0072437115D01*
X0064108999Y0072437115D01*
X0064113474Y0072421876D01*
X0064114864Y0072420671D01*
X0064122547Y0072419000D01*
X0065215402Y0072419000D01*
X0065228933Y0072422973D01*
X0065230288Y0072432399D01*
X0065208805Y0072521537D01*
X0065204916Y0072532832D01*
X0065122371Y0072714382D01*
X0065116423Y0072724724D01*
X0065001031Y0072887397D01*
X0064993239Y0072896425D01*
X0064849169Y0073034342D01*
X0064839799Y0073041742D01*
X0064811978Y0073059705D01*
X0064765601Y0073113460D01*
X0064755646Y0073183756D01*
X0064785278Y0073248273D01*
X0064802493Y0073264643D01*
X0064917857Y0073355262D01*
X0064926506Y0073363499D01*
X0065057211Y0073514123D01*
X0065064147Y0073523847D01*
X0065164010Y0073696467D01*
X0065168983Y0073707331D01*
X0065234407Y0073895727D01*
X0065234647Y0073896716D01*
X0065233180Y0073907008D01*
X0065219615Y0073911000D01*
X0064127115Y0073911000D01*
X0064111875Y0073906525D01*
X0064110671Y0073905135D01*
X0064108999Y0073897452D01*
X0064108999Y0072437115D01*
X0063601000Y0072437115D01*
X0063601000Y0073892885D01*
X0063596525Y0073908124D01*
X0063595135Y0073909329D01*
X0063587452Y0073911000D01*
X0062494598Y0073911000D01*
X0062481067Y0073907027D01*
X0062479712Y0073897601D01*
X0062501194Y0073808463D01*
X0062505083Y0073797168D01*
X0062587629Y0073615618D01*
X0062593576Y0073605276D01*
X0062708968Y0073442603D01*
X0062716761Y0073433575D01*
X0062860831Y0073295658D01*
X0062870201Y0073288258D01*
X0062898021Y0073270295D01*
X0062944399Y0073216540D01*
X0062954353Y0073146244D01*
X0062924722Y0073081727D01*
X0062907507Y0073065357D01*
X0062792143Y0072974738D01*
X0062783494Y0072966501D01*
X0062652788Y0072815877D01*
X0062645853Y0072806153D01*
X0062545990Y0072633533D01*
X0062541016Y0072622669D01*
X0062475593Y0072434273D01*
X0062475352Y0072433284D01*
X0062148571Y0072433284D01*
X0062105725Y0072585206D01*
X0062101603Y0072595945D01*
X0062010549Y0072780583D01*
X0062004538Y0072790392D01*
X0061881360Y0072955349D01*
X0061873671Y0072963889D01*
X0061755320Y0073073291D01*
X0061718875Y0073134220D01*
X0061721156Y0073205180D01*
X0061760280Y0073262689D01*
X0061830653Y0073321218D01*
X0061838782Y0073329347D01*
X0061970420Y0073487625D01*
X0061976944Y0073497118D01*
X0062077531Y0073676728D01*
X0062082210Y0073687237D01*
X0062148386Y0073882183D01*
X0062151017Y0073893143D01*
X0062149040Y0073907008D01*
X0062135474Y0073911000D01*
X0061267115Y0073911000D01*
X0061251876Y0073906525D01*
X0061250671Y0073905135D01*
X0061249000Y0073897452D01*
X0061249000Y0072437115D01*
X0060741000Y0072437115D01*
X0060741000Y0073892885D01*
X0060736525Y0073908124D01*
X0060735135Y0073909329D01*
X0060727452Y0073911000D01*
X0059856981Y0073911000D01*
X0059843450Y0073907027D01*
X0059842158Y0073898038D01*
X0059873656Y0073774015D01*
X0059877497Y0073763168D01*
X0059963685Y0073576211D01*
X0059969436Y0073566250D01*
X0060088254Y0073398127D01*
X0060095720Y0073389385D01*
X0060235477Y0073253239D01*
X0060270314Y0073191377D01*
X0060266177Y0073120501D01*
X0060230632Y0073068253D01*
X0060137552Y0072986624D01*
X0060129630Y0072978276D01*
X0060002180Y0072816606D01*
X0059995909Y0072806950D01*
X0059900060Y0072624771D01*
X0059895655Y0072614137D01*
X0059840436Y0072436300D01*
X0059840218Y0072422201D01*
X0059508000Y0072422201D01*
X0059508000Y0074678800D01*
X0059812794Y0074678800D01*
X0059831665Y0074662448D01*
X0059870049Y0074602721D01*
X0059869486Y0074529859D01*
X0059840436Y0074436300D01*
X0059840218Y0074422201D01*
X0059846950Y0074419000D01*
X0062134485Y0074419000D01*
X0062148016Y0074422973D01*
X0062149185Y0074431107D01*
X0062124510Y0074518598D01*
X0062125270Y0074589591D01*
X0062164291Y0074648901D01*
X0062229184Y0074677702D01*
X0062245779Y0074678800D01*
X0062383372Y0074678800D01*
X0062451493Y0074658798D01*
X0062497986Y0074605142D01*
X0062508090Y0074534868D01*
X0062502399Y0074511466D01*
X0062475595Y0074434279D01*
X0062475352Y0074433284D01*
X0062476820Y0074422992D01*
X0062490385Y0074419000D01*
X0065215402Y0074419000D01*
X0065228933Y0074422973D01*
X0065230288Y0074432399D01*
X0065208805Y0074521537D01*
X0065204915Y0074532836D01*
X0065186051Y0074574327D01*
X0065176064Y0074644618D01*
X0065205665Y0074709149D01*
X0065251222Y0074742333D01*
X0066190651Y0075143921D01*
X0066261150Y0075152305D01*
X0066329272Y0075117158D01*
G37*
G04 #@! TD.AperFunction*
G04 #@! TA.AperFunction,Conductor*
G36*
X0062006129Y0083486455D02*
G01*
X0062176656Y0083434121D01*
X0066283567Y0082173724D01*
X0066342822Y0082134616D01*
X0066371527Y0082069681D01*
X0066372600Y0082053269D01*
X0066372600Y0080089000D01*
X0066390992Y0080081722D01*
X0073487362Y0077273580D01*
X0073543344Y0077229916D01*
X0073567000Y0077156420D01*
X0073567000Y0074886560D01*
X0073546998Y0074818439D01*
X0073493342Y0074771946D01*
X0073423068Y0074761842D01*
X0073358488Y0074791336D01*
X0073351905Y0074797465D01*
X0072405850Y0075743520D01*
X0072399996Y0075749785D01*
X0072383890Y0075768247D01*
X0072361961Y0075793385D01*
X0072309680Y0075830129D01*
X0072304386Y0075834061D01*
X0072260093Y0075868791D01*
X0072254118Y0075873476D01*
X0072247202Y0075876599D01*
X0072244916Y0075877983D01*
X0072230235Y0075886357D01*
X0072227875Y0075887622D01*
X0072221661Y0075891990D01*
X0072214582Y0075894750D01*
X0072214580Y0075894751D01*
X0072162125Y0075915202D01*
X0072156056Y0075917753D01*
X0072097827Y0075944045D01*
X0072090360Y0075945429D01*
X0072087805Y0075946230D01*
X0072071552Y0075950859D01*
X0072068972Y0075951522D01*
X0072061891Y0075954282D01*
X0072054360Y0075955273D01*
X0072054358Y0075955274D01*
X0072024739Y0075959173D01*
X0071998539Y0075962622D01*
X0071992041Y0075963652D01*
X0071929214Y0075975296D01*
X0071921634Y0075974859D01*
X0071921633Y0075974859D01*
X0071867008Y0075971709D01*
X0071859754Y0075971500D01*
X0068554864Y0075971500D01*
X0068486743Y0075991502D01*
X0068440250Y0076045158D01*
X0068432192Y0076101200D01*
X0068430000Y0076101200D01*
X0068430000Y0078514200D01*
X0068418329Y0078517560D01*
X0066789523Y0078986459D01*
X0065308790Y0079412730D01*
X0065248861Y0079450797D01*
X0065219026Y0079515221D01*
X0065224053Y0079573480D01*
X0065250631Y0079653611D01*
X0065250631Y0079653613D01*
X0065252797Y0079660139D01*
X0065263499Y0079764600D01*
X0065263499Y0080565400D01*
X0065252526Y0080671166D01*
X0065196550Y0080838946D01*
X0065103477Y0080989348D01*
X0064978303Y0081114305D01*
X0064972072Y0081118146D01*
X0064833968Y0081203275D01*
X0064833966Y0081203276D01*
X0064827738Y0081207115D01*
X0064667254Y0081260345D01*
X0064666388Y0081260632D01*
X0064666387Y0081260632D01*
X0064659861Y0081262797D01*
X0064653025Y0081263497D01*
X0064653021Y0081263498D01*
X0064609969Y0081267909D01*
X0064555400Y0081273500D01*
X0063154600Y0081273500D01*
X0063151354Y0081273163D01*
X0063151350Y0081273163D01*
X0063055692Y0081263238D01*
X0063055688Y0081263237D01*
X0063048834Y0081262526D01*
X0063042298Y0081260345D01*
X0063042296Y0081260345D01*
X0062910194Y0081216272D01*
X0062881054Y0081206550D01*
X0062730652Y0081113478D01*
X0062605695Y0080988303D01*
X0062601855Y0080982073D01*
X0062601854Y0080982072D01*
X0062543950Y0080888134D01*
X0062512885Y0080837738D01*
X0062457203Y0080669861D01*
X0062446500Y0080565400D01*
X0062446500Y0079764600D01*
X0062457474Y0079658834D01*
X0062459656Y0079652294D01*
X0062459657Y0079652289D01*
X0062461997Y0079645274D01*
X0062464581Y0079574324D01*
X0062428396Y0079513241D01*
X0062364931Y0079481418D01*
X0062342473Y0079479400D01*
X0062304500Y0079479400D01*
X0062236379Y0079499402D01*
X0062189886Y0079553058D01*
X0062178500Y0079605400D01*
X0062178500Y0080888134D01*
X0062171745Y0080950316D01*
X0062120615Y0081086705D01*
X0062033261Y0081203261D01*
X0061916705Y0081290615D01*
X0061780316Y0081341745D01*
X0061718134Y0081348500D01*
X0060271866Y0081348500D01*
X0060209684Y0081341745D01*
X0060073295Y0081290615D01*
X0059956739Y0081203261D01*
X0059869385Y0081086705D01*
X0059818255Y0080950316D01*
X0059811500Y0080888134D01*
X0059811500Y0079509281D01*
X0059808621Y0079482499D01*
X0059807947Y0079479400D01*
X0059508000Y0079479400D01*
X0059508000Y0083366000D01*
X0059528002Y0083434121D01*
X0059581658Y0083480614D01*
X0059634000Y0083492000D01*
X0061969162Y0083492000D01*
X0062006129Y0083486455D01*
G37*
G04 #@! TD.AperFunction*
G04 #@! TA.AperFunction,Conductor*
G36*
X0064335701Y0078699317D02*
G01*
X0066438999Y0077984132D01*
X0066439002Y0077984132D01*
X0066448800Y0077980800D01*
X0067493354Y0077980800D01*
X0067561475Y0077960798D01*
X0067607968Y0077907142D01*
X0067619335Y0077856972D01*
X0067640390Y0076635772D01*
X0067621566Y0076567317D01*
X0067568719Y0076519906D01*
X0067514409Y0076507600D01*
X0066474199Y0076507600D01*
X0064365261Y0075578663D01*
X0064313654Y0075567975D01*
X0060559953Y0075592387D01*
X0060491964Y0075612831D01*
X0060445821Y0075666788D01*
X0060434773Y0075718155D01*
X0060429616Y0078556403D01*
X0060449494Y0078624560D01*
X0060503066Y0078671150D01*
X0060554827Y0078682630D01*
X0063047840Y0078698225D01*
X0064294349Y0078706023D01*
X0064335701Y0078699317D01*
G37*
G04 #@! TD.AperFunction*
G04 #@! TA.AperFunction,Conductor*
G36*
X0059805000Y0074495000D02*
G01*
X0059500000Y0074495000D01*
X0059500000Y0079775000D01*
X0059805000Y0079775000D01*
X0059805000Y0074495000D01*
G37*
G04 #@! TD.AperFunction*
M02*