G04 #@! TF.GenerationSoftware,KiCad,Pcbnew,(6.0.1)*
G04 #@! TF.CreationDate,2022-07-05T00:40:55-07:00*
G04 #@! TF.ProjectId,mu100-dit-connector-board,6d753130-302d-4646-9974-2d636f6e6e65,rev?*
G04 #@! TF.SameCoordinates,PX4a615b8PY2b4db18*
G04 #@! TF.FileFunction,Legend,Bot*
G04 #@! TF.FilePolarity,Positive*
%FSLAX46Y46*%
G04 Gerber Fmt 4.6, Leading zero omitted, Abs format (unit mm)*
G04 Created by KiCad (PCBNEW (6.0.1)) date 2022-07-05 00:40:55*
%MOMM*%
%LPD*%
G01*
G04 APERTURE LIST*
%ADD10C,0.15*%
%ADD11C,0.12*%
G04 APERTURE END LIST*
D10*
X0060940000Y0082855000D02*
X0060110000Y0082855000D01*
X0060955000Y0081445000D02*
X0061775000Y0082845000D01*
X0061785000Y0082855000D02*
X0060955000Y0082855000D01*
X0069182000Y0046976200D02*
X0068882000Y0046976200D01*
X0068582000Y0051176200D02*
X0059982000Y0051176200D01*
X0072001000Y0051388200D02*
X0072831000Y0051388200D01*
X0071986000Y0052798200D02*
X0071166000Y0051398200D01*
X0069882000Y0046976200D02*
X0069582000Y0046976200D01*
X0070582000Y0046976200D02*
X0070282000Y0046976200D01*
X0068355000Y0080195000D02*
X0069755000Y0079375000D01*
X0069765000Y0079365000D02*
X0069765000Y0080195000D01*
X0060110000Y0082855000D02*
X0060925000Y0081475000D01*
X0071156000Y0051388200D02*
X0071986000Y0051388200D01*
X0068582000Y0046976200D02*
X0059982000Y0046976200D01*
X0069765000Y0080210000D02*
X0069765000Y0081040000D01*
X0069765000Y0081040000D02*
X0068385000Y0080225000D01*
X0069882000Y0051176200D02*
X0069582000Y0051176200D01*
X0072831000Y0051388200D02*
X0072016000Y0052768200D01*
X0070582000Y0051176200D02*
X0070282000Y0051176200D01*
X0069182000Y0051176200D02*
X0068882000Y0051176200D01*
X0069213785Y0050297629D02*
X0069213785Y0050726200D01*
X0069213785Y0050511915D02*
X0068463785Y0050511915D01*
X0068570928Y0050583343D01*
X0068642357Y0050654772D01*
X0068678071Y0050726200D01*
X0068463785Y0049654772D02*
X0068463785Y0049797629D01*
X0068499500Y0049869058D01*
X0068535214Y0049904772D01*
X0068642357Y0049976200D01*
X0068785214Y0050011915D01*
X0069070928Y0050011915D01*
X0069142357Y0049976200D01*
X0069178071Y0049940486D01*
X0069213785Y0049869058D01*
X0069213785Y0049726200D01*
X0069178071Y0049654772D01*
X0069142357Y0049619058D01*
X0069070928Y0049583343D01*
X0068892357Y0049583343D01*
X0068820928Y0049619058D01*
X0068785214Y0049654772D01*
X0068749500Y0049726200D01*
X0068749500Y0049869058D01*
X0068785214Y0049940486D01*
X0068820928Y0049976200D01*
X0068892357Y0050011915D01*
X0068928071Y0049261915D02*
X0068928071Y0048690486D01*
X0069213785Y0047940486D02*
X0069213785Y0048369058D01*
X0069213785Y0048154772D02*
X0068463785Y0048154772D01*
X0068570928Y0048226200D01*
X0068642357Y0048297629D01*
X0068678071Y0048369058D01*
X0068463785Y0047690486D02*
X0068463785Y0047190486D01*
X0069213785Y0047511915D01*
X0070421285Y0050333343D02*
X0069671285Y0050333343D01*
X0070207000Y0050083343D01*
X0069671285Y0049833343D01*
X0070421285Y0049833343D01*
X0069671285Y0049476200D02*
X0070278428Y0049476200D01*
X0070349857Y0049440486D01*
X0070385571Y0049404772D01*
X0070421285Y0049333343D01*
X0070421285Y0049190486D01*
X0070385571Y0049119058D01*
X0070349857Y0049083343D01*
X0070278428Y0049047629D01*
X0069671285Y0049047629D01*
X0070421285Y0048654772D02*
X0070421285Y0048511915D01*
X0070385571Y0048440486D01*
X0070349857Y0048404772D01*
X0070242714Y0048333343D01*
X0070099857Y0048297629D01*
X0069814142Y0048297629D01*
X0069742714Y0048333343D01*
X0069707000Y0048369058D01*
X0069671285Y0048440486D01*
X0069671285Y0048583343D01*
X0069707000Y0048654772D01*
X0069742714Y0048690486D01*
X0069814142Y0048726200D01*
X0069992714Y0048726200D01*
X0070064142Y0048690486D01*
X0070099857Y0048654772D01*
X0070135571Y0048583343D01*
X0070135571Y0048440486D01*
X0070099857Y0048369058D01*
X0070064142Y0048333343D01*
X0069992714Y0048297629D01*
X0069671285Y0047833343D02*
X0069671285Y0047761915D01*
X0069707000Y0047690486D01*
X0069742714Y0047654772D01*
X0069814142Y0047619058D01*
X0069957000Y0047583343D01*
X0070135571Y0047583343D01*
X0070278428Y0047619058D01*
X0070349857Y0047654772D01*
X0070385571Y0047690486D01*
X0070421285Y0047761915D01*
X0070421285Y0047833343D01*
X0070385571Y0047904772D01*
X0070349857Y0047940486D01*
X0070278428Y0047976200D01*
X0070135571Y0048011915D01*
X0069957000Y0048011915D01*
X0069814142Y0047976200D01*
X0069742714Y0047940486D01*
X0069707000Y0047904772D01*
X0069671285Y0047833343D01*
X0071628785Y0049851200D02*
X0071593071Y0049922629D01*
X0071557357Y0049958343D01*
X0071485928Y0049994058D01*
X0071271642Y0049994058D01*
X0071200214Y0049958343D01*
X0071164500Y0049922629D01*
X0071128785Y0049851200D01*
X0071128785Y0049744058D01*
X0071164500Y0049672629D01*
X0071200214Y0049636915D01*
X0071271642Y0049601200D01*
X0071485928Y0049601200D01*
X0071557357Y0049636915D01*
X0071593071Y0049672629D01*
X0071628785Y0049744058D01*
X0071628785Y0049851200D01*
X0071128785Y0049279772D02*
X0071628785Y0049279772D01*
X0071200214Y0049279772D02*
X0071164500Y0049244058D01*
X0071128785Y0049172629D01*
X0071128785Y0049065486D01*
X0071164500Y0048994058D01*
X0071235928Y0048958343D01*
X0071628785Y0048958343D01*
X0071628785Y0048494058D02*
X0071593071Y0048565486D01*
X0071521642Y0048601200D01*
X0070878785Y0048601200D01*
X0071128785Y0048279772D02*
X0071628785Y0048101200D01*
X0071128785Y0047922629D02*
X0071628785Y0048101200D01*
X0071807357Y0048172629D01*
X0071843071Y0048208343D01*
X0071878785Y0048279772D01*
X0066537380Y0082328334D02*
X0067251666Y0082328334D01*
X0067394522Y0082375953D01*
X0067489761Y0082471191D01*
X0067537380Y0082614048D01*
X0067537380Y0082709286D01*
X0066632619Y0081899762D02*
X0066584999Y0081852143D01*
X0066537380Y0081756905D01*
X0066537380Y0081518810D01*
X0066584999Y0081423572D01*
X0066632619Y0081375953D01*
X0066727857Y0081328334D01*
X0066823094Y0081328334D01*
X0066965952Y0081375953D01*
X0067537380Y0081947381D01*
X0067537380Y0081328334D01*
X0070997380Y0076866334D02*
X0071711666Y0076866334D01*
X0071854523Y0076913953D01*
X0071949761Y0077009191D01*
X0071997380Y0077152048D01*
X0071997380Y0077247286D01*
X0070997380Y0076485381D02*
X0070997380Y0075866334D01*
X0071378333Y0076199667D01*
X0071378333Y0076056810D01*
X0071425952Y0075961572D01*
X0071473571Y0075913952D01*
X0071568809Y0075866334D01*
X0071806904Y0075866334D01*
X0071902142Y0075913952D01*
X0071949761Y0075961572D01*
X0071997380Y0076056810D01*
X0071997380Y0076342524D01*
X0071949761Y0076437762D01*
X0071902142Y0076485381D01*
D11*
X0064504999Y0044515000D02*
X0064504999Y0045165000D01*
X0068005000Y0044515000D02*
X0068005000Y0045165000D01*
X0068005000Y0083815000D02*
X0064504999Y0083815000D01*
X0068005000Y0044515000D02*
X0064504999Y0044515000D01*
X0068005000Y0083165000D02*
X0068005000Y0083815000D01*
X0064504999Y0083815000D02*
X0064504999Y0083165000D01*
X0068005000Y0083165000D02*
X0062805000Y0083165000D01*
X0062805000Y0083165000D02*
X0062805000Y0045165000D01*
X0062805000Y0045165000D02*
X0068005000Y0045165000D01*
X0068005000Y0045165000D02*
X0068005000Y0083165000D01*
X0070015000Y0058075000D02*
X0070015000Y0058275000D01*
X0069515000Y0062175000D02*
X0070015000Y0062175000D01*
X0069515000Y0053725000D02*
X0069515000Y0074625000D01*
X0070015000Y0068075000D02*
X0070015000Y0068275000D01*
X0070015000Y0056075000D02*
X0070015000Y0056275000D01*
X0070015000Y0060075000D02*
X0070015000Y0060275000D01*
X0070015000Y0070275000D02*
X0069515000Y0070275000D01*
X0073925000Y0052815000D02*
X0072675000Y0052815000D01*
X0070015000Y0072075000D02*
X0070015000Y0072275000D01*
X0069515000Y0068175000D02*
X0070015000Y0068175000D01*
X0073625000Y0055675000D02*
X0073015000Y0055675000D01*
X0068905000Y0053114999D02*
X0068905000Y0075235000D01*
X0073015000Y0074625000D02*
X0073015000Y0072675000D01*
X0069515000Y0056175000D02*
X0070015000Y0056175000D01*
X0073925000Y0054065000D02*
X0073925000Y0052815000D01*
X0073625000Y0054875000D02*
X0073825000Y0054875000D01*
X0069515000Y0060075000D02*
X0070015000Y0060075000D01*
X0070015000Y0070075000D02*
X0070015000Y0070275000D01*
X0070015000Y0058275000D02*
X0069515000Y0058275000D01*
X0069515000Y0056075000D02*
X0070015000Y0056075000D01*
X0073015000Y0072675000D02*
X0073625000Y0072675000D01*
X0070015000Y0066275000D02*
X0069515000Y0066275000D01*
X0069515000Y0064075000D02*
X0070015000Y0064075000D01*
X0073625000Y0053114999D02*
X0068905000Y0053114999D01*
X0070015000Y0062275000D02*
X0069515000Y0062275000D01*
X0069515000Y0068075000D02*
X0070015000Y0068075000D01*
X0069515000Y0066175000D02*
X0070015000Y0066175000D01*
X0073015000Y0055675000D02*
X0073015000Y0053725000D01*
X0072315000Y0075235000D02*
X0072315000Y0074625000D01*
X0073825000Y0054875000D02*
X0073825000Y0054575000D01*
X0070015000Y0072275000D02*
X0069515000Y0072275000D01*
X0070015000Y0062075000D02*
X0070015000Y0062275000D01*
X0071015000Y0075235000D02*
X0071015000Y0074625000D01*
X0069515000Y0066075000D02*
X0070015000Y0066075000D01*
X0069515000Y0058175000D02*
X0070015000Y0058175000D01*
X0070015000Y0056275000D02*
X0069515000Y0056275000D01*
X0073725000Y0054875000D02*
X0073725000Y0054575000D01*
X0069515000Y0074625000D02*
X0073015000Y0074625000D01*
X0072315000Y0053114999D02*
X0072315000Y0053725000D01*
X0070015000Y0068275000D02*
X0069515000Y0068275000D01*
X0069515000Y0062075000D02*
X0070015000Y0062075000D01*
X0073625000Y0075235000D02*
X0073625000Y0053114999D01*
X0073015000Y0053725000D02*
X0069515000Y0053725000D01*
X0069515000Y0070175000D02*
X0070015000Y0070175000D01*
X0073825000Y0054575000D02*
X0073625000Y0054575000D01*
X0069515000Y0072175000D02*
X0070015000Y0072175000D01*
X0070015000Y0066075000D02*
X0070015000Y0066275000D01*
X0069515000Y0060175000D02*
X0070015000Y0060175000D01*
X0069515000Y0058075000D02*
X0070015000Y0058075000D01*
X0070015000Y0064075000D02*
X0070015000Y0064275000D01*
X0069515000Y0064175000D02*
X0070015000Y0064175000D01*
X0071015000Y0053114999D02*
X0071015000Y0053725000D01*
X0069515000Y0070075000D02*
X0070015000Y0070075000D01*
X0069515000Y0072075000D02*
X0070015000Y0072075000D01*
X0068905000Y0075235000D02*
X0073625000Y0075235000D01*
X0070015000Y0064275000D02*
X0069515000Y0064275000D01*
X0070015000Y0060275000D02*
X0069515000Y0060275000D01*
M02*