G04 #@! TF.GenerationSoftware,KiCad,Pcbnew,(6.0.1)*
G04 #@! TF.CreationDate,2022-07-05T00:40:55-07:00*
G04 #@! TF.ProjectId,mu100-dit-connector-board,6d753130-302d-4646-9974-2d636f6e6e65,rev?*
G04 #@! TF.SameCoordinates,PX4a615b8PY2b4db18*
G04 #@! TF.FileFunction,Copper,L1,Top*
G04 #@! TF.FilePolarity,Positive*
%FSLAX46Y46*%
G04 Gerber Fmt 4.6, Leading zero omitted, Abs format (unit mm)*
G04 Created by KiCad (PCBNEW (6.0.1)) date 2022-07-05 00:40:55*
%MOMM*%
%LPD*%
G01*
G04 APERTURE LIST*
G04 Aperture macros list*
%AMRoundRect*
4,1,4,2,3,4,5,6,7,8,9,2,3,0*
1,1,$1,$2,$3*
1,1,$1,$2,$3*
1,1,$1,$2,$3*
1,1,$1,$2,$3*
20,1,$1,$2,$3,$4,$5,0*
20,1,$1,$2,$3,$4,$5,0*
20,1,$1,$2,$3,$4,$5,0*
20,1,$1,$2,$3,$4,$5,0*%
G04 Aperture macros list end*
G04 #@! TA.AperFunction,ComponentPad*
%AMCOMP111*
4,1,3,
-0.65,0.35,
-0.65,-0.35,
0.65,-0.35,
0.65,0.35,
0*
4,1,19,
-0.65,0.6,
-0.57274575140626316,0.58776412907378839,
-0.50305368692688179,0.55225424859373684,
-0.44774575140626316,0.49694631307311826,
-0.41223587092621161,0.42725424859373684,
-0.4,0.35,
-0.41223587092621161,0.27274575140626311,
-0.44774575140626316,0.20305368692688172,
-0.50305368692688168,0.14774575140626314,
-0.57274575140626316,0.1122358709262116,
-0.65,0.099999999999999978,
-0.727254248593737,0.1122358709262116,
-0.79694631307311825,0.14774575140626309,
-0.85225424859373689,0.20305368692688167,
-0.88776412907378843,0.27274575140626311,
-0.9,0.34999999999999992,
-0.88776412907378843,0.42725424859373679,
-0.85225424859373689,0.49694631307311821,
-0.79694631307311836,0.55225424859373684,
-0.72725424859373689,0.58776412907378839,
0*
4,1,19,
-0.65,-0.099999999999999978,
-0.57274575140626316,-0.1122358709262116,
-0.50305368692688179,-0.14774575140626311,
-0.44774575140626316,-0.20305368692688169,
-0.41223587092621161,-0.27274575140626311,
-0.4,-0.35,
-0.41223587092621161,-0.42725424859373684,
-0.44774575140626316,-0.49694631307311821,
-0.50305368692688168,-0.55225424859373684,
-0.57274575140626316,-0.58776412907378839,
-0.65,-0.6,
-0.727254248593737,-0.58776412907378839,
-0.79694631307311825,-0.55225424859373684,
-0.85225424859373689,-0.49694631307311832,
-0.88776412907378843,-0.42725424859373684,
-0.9,-0.35000000000000003,
-0.88776412907378843,-0.27274575140626317,
-0.85225424859373689,-0.20305368692688175,
-0.79694631307311836,-0.14774575140626314,
-0.72725424859373689,-0.1122358709262116,
0*
4,1,19,
0.65,-0.099999999999999978,
0.72725424859373689,-0.1122358709262116,
0.79694631307311825,-0.14774575140626311,
0.85225424859373689,-0.20305368692688169,
0.88776412907378843,-0.27274575140626311,
0.9,-0.35,
0.88776412907378843,-0.42725424859373684,
0.85225424859373689,-0.49694631307311821,
0.79694631307311836,-0.55225424859373684,
0.72725424859373689,-0.58776412907378839,
0.65,-0.6,
0.572745751406263,-0.58776412907378839,
0.50305368692688179,-0.55225424859373684,
0.44774575140626316,-0.49694631307311832,
0.41223587092621161,-0.42725424859373684,
0.4,-0.35000000000000003,
0.41223587092621161,-0.27274575140626317,
0.44774575140626316,-0.20305368692688175,
0.50305368692688168,-0.14774575140626314,
0.57274575140626316,-0.1122358709262116,
0*
4,1,19,
0.65,0.6,
0.72725424859373689,0.58776412907378839,
0.79694631307311825,0.55225424859373684,
0.85225424859373689,0.49694631307311826,
0.88776412907378843,0.42725424859373684,
0.9,0.35,
0.88776412907378843,0.27274575140626311,
0.85225424859373689,0.20305368692688172,
0.79694631307311836,0.14774575140626314,
0.72725424859373689,0.1122358709262116,
0.65,0.099999999999999978,
0.572745751406263,0.1122358709262116,
0.50305368692688179,0.14774575140626309,
0.44774575140626316,0.20305368692688167,
0.41223587092621161,0.27274575140626311,
0.4,0.34999999999999992,
0.41223587092621161,0.42725424859373679,
0.44774575140626316,0.49694631307311821,
0.50305368692688168,0.55225424859373684,
0.57274575140626316,0.58776412907378839,
0*
4,1,3,
-0.9,0.35,
-0.4,0.35,
-0.4,-0.35,
-0.9,-0.35,
0*
4,1,3,
-0.65,-0.6,
-0.65,-0.099999999999999978,
0.65,-0.099999999999999978,
0.65,-0.6,
0*
4,1,3,
0.9,-0.35,
0.4,-0.35,
0.4,0.35,
0.9,0.35,
0*
4,1,3,
0.65,0.6,
0.65,0.099999999999999978,
-0.65,0.099999999999999978,
-0.65,0.6,
0*%
%ADD10COMP111,0.25X-0.65X0.35X-0.65X-0.35X0.65X-0.35X0.65X0.35X0*%
G04 #@! TD*
G04 #@! TA.AperFunction,ComponentPad*
%ADD11O,1.8X1.2*%
G04 #@! TD*
G04 #@! TA.AperFunction,ComponentPad*
%AMCOMP112*
4,1,3,
0.625,-0.35,
0.625,0.35,
-0.625,0.35,
-0.625,-0.35,
0*
4,1,19,
0.625,-0.099999999999999978,
0.70225424859373686,-0.1122358709262116,
0.77194631307311834,-0.14774575140626311,
0.82725424859373686,-0.20305368692688169,
0.86276412907378841,-0.27274575140626311,
0.875,-0.35,
0.86276412907378841,-0.42725424859373684,
0.82725424859373686,-0.49694631307311821,
0.77194631307311834,-0.55225424859373684,
0.70225424859373686,-0.58776412907378839,
0.625,-0.6,
0.547745751406263,-0.58776412907378839,
0.47805368692688177,-0.55225424859373684,
0.42274575140626314,-0.49694631307311832,
0.38723587092621159,-0.42725424859373684,
0.375,-0.35000000000000003,
0.38723587092621159,-0.27274575140626317,
0.42274575140626314,-0.20305368692688175,
0.47805368692688166,-0.14774575140626314,
0.54774575140626314,-0.1122358709262116,
0*
4,1,19,
0.625,0.6,
0.70225424859373686,0.58776412907378839,
0.77194631307311834,0.55225424859373684,
0.82725424859373686,0.49694631307311826,
0.86276412907378841,0.42725424859373684,
0.875,0.35,
0.86276412907378841,0.27274575140626311,
0.82725424859373686,0.20305368692688172,
0.77194631307311834,0.14774575140626314,
0.70225424859373686,0.1122358709262116,
0.625,0.099999999999999978,
0.547745751406263,0.1122358709262116,
0.47805368692688177,0.14774575140626309,
0.42274575140626314,0.20305368692688167,
0.38723587092621159,0.27274575140626311,
0.375,0.34999999999999992,
0.38723587092621159,0.42725424859373679,
0.42274575140626314,0.49694631307311821,
0.47805368692688166,0.55225424859373684,
0.54774575140626314,0.58776412907378839,
0*
4,1,19,
-0.625,0.6,
-0.54774575140626314,0.58776412907378839,
-0.47805368692688172,0.55225424859373684,
-0.42274575140626314,0.49694631307311826,
-0.38723587092621159,0.42725424859373684,
-0.375,0.35,
-0.38723587092621159,0.27274575140626311,
-0.42274575140626314,0.20305368692688172,
-0.47805368692688166,0.14774575140626314,
-0.54774575140626314,0.1122358709262116,
-0.625,0.099999999999999978,
-0.702254248593737,0.1122358709262116,
-0.77194631307311823,0.14774575140626309,
-0.82725424859373686,0.20305368692688167,
-0.86276412907378841,0.27274575140626311,
-0.875,0.34999999999999992,
-0.86276412907378841,0.42725424859373679,
-0.82725424859373686,0.49694631307311821,
-0.77194631307311834,0.55225424859373684,
-0.70225424859373686,0.58776412907378839,
0*
4,1,19,
-0.625,-0.099999999999999978,
-0.54774575140626314,-0.1122358709262116,
-0.47805368692688172,-0.14774575140626311,
-0.42274575140626314,-0.20305368692688169,
-0.38723587092621159,-0.27274575140626311,
-0.375,-0.35,
-0.38723587092621159,-0.42725424859373684,
-0.42274575140626314,-0.49694631307311821,
-0.47805368692688166,-0.55225424859373684,
-0.54774575140626314,-0.58776412907378839,
-0.625,-0.6,
-0.702254248593737,-0.58776412907378839,
-0.77194631307311823,-0.55225424859373684,
-0.82725424859373686,-0.49694631307311832,
-0.86276412907378841,-0.42725424859373684,
-0.875,-0.35000000000000003,
-0.86276412907378841,-0.27274575140626317,
-0.82725424859373686,-0.20305368692688175,
-0.77194631307311834,-0.14774575140626314,
-0.70225424859373686,-0.1122358709262116,
0*
4,1,3,
0.875,-0.35,
0.375,-0.35,
0.375,0.35,
0.875,0.35,
0*
4,1,3,
0.625,0.6,
0.625,0.099999999999999978,
-0.625,0.099999999999999978,
-0.625,0.6,
0*
4,1,3,
-0.875,0.35,
-0.375,0.35,
-0.375,-0.35,
-0.875,-0.35,
0*
4,1,3,
-0.625,-0.6,
-0.625,-0.099999999999999978,
0.625,-0.099999999999999978,
0.625,-0.6,
0*%
%ADD12COMP112,0.25X0.625X-0.35X0.625X0.35X-0.625X0.35X-0.625X-0.35X0*%
G04 #@! TD*
G04 #@! TA.AperFunction,ComponentPad*
%ADD13O,1.75X1.2*%
G04 #@! TD*
G04 #@! TA.AperFunction,SMDPad,CuDef*
%AMCOMP113*
4,1,3,
-0.35,-0.45,
0.35,-0.45,
0.35,0.45,
-0.35,0.45,
0*
4,1,19,
-0.35,-0.2,
-0.27274575140626311,-0.21223587092621163,
-0.20305368692688169,-0.24774575140626315,
-0.14774575140626311,-0.30305368692688173,
-0.1122358709262116,-0.37274575140626315,
-0.099999999999999978,-0.45,
-0.11223587092621157,-0.52725424859373682,
-0.14774575140626311,-0.5969463130731183,
-0.20305368692688167,-0.65225424859373682,
-0.27274575140626311,-0.68776412907378837,
-0.34999999999999992,-0.7,
-0.4272542485937369,-0.68776412907378837,
-0.49694631307311821,-0.65225424859373693,
-0.55225424859373684,-0.5969463130731183,
-0.58776412907378839,-0.52725424859373693,
-0.6,-0.45000000000000007,
-0.58776412907378839,-0.3727457514062632,
-0.55225424859373684,-0.30305368692688178,
-0.49694631307311832,-0.24774575140626318,
-0.4272542485937369,-0.21223587092621163,
0*
4,1,19,
0.35,-0.2,
0.42725424859373684,-0.21223587092621163,
0.49694631307311826,-0.24774575140626315,
0.55225424859373684,-0.30305368692688173,
0.58776412907378839,-0.37274575140626315,
0.6,-0.45,
0.58776412907378839,-0.52725424859373682,
0.55225424859373684,-0.5969463130731183,
0.49694631307311832,-0.65225424859373682,
0.42725424859373684,-0.68776412907378837,
0.35000000000000003,-0.7,
0.27274575140626306,-0.68776412907378837,
0.20305368692688172,-0.65225424859373693,
0.14774575140626314,-0.5969463130731183,
0.1122358709262116,-0.52725424859373693,
0.099999999999999978,-0.45000000000000007,
0.11223587092621157,-0.3727457514062632,
0.14774575140626309,-0.30305368692688178,
0.20305368692688164,-0.24774575140626318,
0.27274575140626306,-0.21223587092621163,
0*
4,1,19,
0.35,0.7,
0.42725424859373684,0.68776412907378837,
0.49694631307311826,0.65225424859373682,
0.55225424859373684,0.5969463130731183,
0.58776412907378839,0.52725424859373682,
0.6,0.45,
0.58776412907378839,0.3727457514062632,
0.55225424859373684,0.30305368692688173,
0.49694631307311832,0.24774575140626318,
0.42725424859373684,0.21223587092621163,
0.35000000000000003,0.2,
0.27274575140626306,0.21223587092621163,
0.20305368692688172,0.24774575140626312,
0.14774575140626314,0.30305368692688173,
0.1122358709262116,0.37274575140626309,
0.099999999999999978,0.44999999999999996,
0.11223587092621157,0.52725424859373682,
0.14774575140626309,0.5969463130731183,
0.20305368692688164,0.65225424859373682,
0.27274575140626306,0.68776412907378837,
0*
4,1,19,
-0.35,0.7,
-0.27274575140626311,0.68776412907378837,
-0.20305368692688169,0.65225424859373682,
-0.14774575140626311,0.5969463130731183,
-0.1122358709262116,0.52725424859373682,
-0.099999999999999978,0.45,
-0.11223587092621157,0.3727457514062632,
-0.14774575140626311,0.30305368692688173,
-0.20305368692688167,0.24774575140626318,
-0.27274575140626311,0.21223587092621163,
-0.34999999999999992,0.2,
-0.4272542485937369,0.21223587092621163,
-0.49694631307311821,0.24774575140626312,
-0.55225424859373684,0.30305368692688173,
-0.58776412907378839,0.37274575140626309,
-0.6,0.44999999999999996,
-0.58776412907378839,0.52725424859373682,
-0.55225424859373684,0.5969463130731183,
-0.49694631307311832,0.65225424859373682,
-0.4272542485937369,0.68776412907378837,
0*
4,1,3,
-0.35,-0.7,
-0.35,-0.2,
0.35,-0.2,
0.35,-0.7,
0*
4,1,3,
0.6,-0.45,
0.099999999999999978,-0.45,
0.099999999999999978,0.45,
0.6,0.45,
0*
4,1,3,
0.35,0.7,
0.35,0.2,
-0.35,0.2,
-0.35,0.7,
0*
4,1,3,
-0.6,0.45,
-0.099999999999999978,0.45,
-0.099999999999999978,-0.45,
-0.6,-0.45,
0*%
%ADD14COMP113,0.25X-0.35X-0.45X0.35X-0.45X0.35X0.45X-0.35X0.45X0*%
G04 #@! TD*
G04 #@! TA.AperFunction,ComponentPad*
%ADD15R,1.35X1.35*%
G04 #@! TD*
G04 #@! TA.AperFunction,ComponentPad*
%ADD16O,1.35X1.35*%
G04 #@! TD*
G04 #@! TA.AperFunction,SMDPad,CuDef*
%AMCOMP114*
4,1,3,
-0.3375,-0.475,
0.3375,-0.475,
0.3375,0.475,
-0.3375,0.475,
0*
4,1,19,
-0.3375,-0.22499999999999998,
-0.26024575140626316,-0.2372358709262116,
-0.19055368692688174,-0.27274575140626311,
-0.13524575140626316,-0.32805368692688169,
-0.099735870926211639,-0.39774575140626311,
-0.087500000000000022,-0.475,
-0.099735870926211612,-0.55225424859373684,
-0.13524575140626316,-0.62194631307311821,
-0.19055368692688171,-0.67725424859373684,
-0.26024575140626316,-0.71276412907378839,
-0.33749999999999997,-0.725,
-0.41475424859373694,-0.71276412907378839,
-0.48444631307311825,-0.67725424859373684,
-0.53975424859373689,-0.62194631307311832,
-0.57526412907378843,-0.55225424859373684,
-0.5875,-0.47500000000000003,
-0.57526412907378843,-0.39774575140626317,
-0.53975424859373689,-0.32805368692688175,
-0.48444631307311836,-0.27274575140626311,
-0.41475424859373694,-0.2372358709262116,
0*
4,1,19,
0.3375,-0.22499999999999998,
0.41475424859373689,-0.2372358709262116,
0.48444631307311831,-0.27274575140626311,
0.53975424859373689,-0.32805368692688169,
0.57526412907378843,-0.39774575140626311,
0.5875,-0.475,
0.57526412907378843,-0.55225424859373684,
0.53975424859373689,-0.62194631307311821,
0.48444631307311836,-0.67725424859373684,
0.41475424859373689,-0.71276412907378839,
0.33750000000000008,-0.725,
0.2602457514062631,-0.71276412907378839,
0.19055368692688177,-0.67725424859373684,
0.13524575140626319,-0.62194631307311832,
0.099735870926211639,-0.55225424859373684,
0.087500000000000022,-0.47500000000000003,
0.099735870926211612,-0.39774575140626317,
0.13524575140626313,-0.32805368692688175,
0.19055368692688168,-0.27274575140626311,
0.2602457514062631,-0.2372358709262116,
0*
4,1,19,
0.3375,0.725,
0.41475424859373689,0.71276412907378839,
0.48444631307311831,0.67725424859373684,
0.53975424859373689,0.62194631307311821,
0.57526412907378843,0.55225424859373684,
0.5875,0.475,
0.57526412907378843,0.39774575140626311,
0.53975424859373689,0.32805368692688175,
0.48444631307311836,0.27274575140626311,
0.41475424859373689,0.2372358709262116,
0.33750000000000008,0.22499999999999998,
0.2602457514062631,0.2372358709262116,
0.19055368692688177,0.27274575140626311,
0.13524575140626319,0.32805368692688164,
0.099735870926211639,0.39774575140626311,
0.087500000000000022,0.47499999999999992,
0.099735870926211612,0.55225424859373673,
0.13524575140626313,0.62194631307311821,
0.19055368692688168,0.67725424859373684,
0.2602457514062631,0.71276412907378839,
0*
4,1,19,
-0.3375,0.725,
-0.26024575140626316,0.71276412907378839,
-0.19055368692688174,0.67725424859373684,
-0.13524575140626316,0.62194631307311821,
-0.099735870926211639,0.55225424859373684,
-0.087500000000000022,0.475,
-0.099735870926211612,0.39774575140626311,
-0.13524575140626316,0.32805368692688175,
-0.19055368692688171,0.27274575140626311,
-0.26024575140626316,0.2372358709262116,
-0.33749999999999997,0.22499999999999998,
-0.41475424859373694,0.2372358709262116,
-0.48444631307311825,0.27274575140626311,
-0.53975424859373689,0.32805368692688164,
-0.57526412907378843,0.39774575140626311,
-0.5875,0.47499999999999992,
-0.57526412907378843,0.55225424859373673,
-0.53975424859373689,0.62194631307311821,
-0.48444631307311836,0.67725424859373684,
-0.41475424859373694,0.71276412907378839,
0*
4,1,3,
-0.3375,-0.725,
-0.3375,-0.22499999999999998,
0.3375,-0.22499999999999998,
0.3375,-0.725,
0*
4,1,3,
0.5875,-0.475,
0.087500000000000022,-0.475,
0.087500000000000022,0.475,
0.5875,0.475,
0*
4,1,3,
0.3375,0.725,
0.3375,0.22499999999999998,
-0.3375,0.22499999999999998,
-0.3375,0.725,
0*
4,1,3,
-0.5875,0.475,
-0.087500000000000022,0.475,
-0.087500000000000022,-0.475,
-0.5875,-0.475,
0*%
%ADD17COMP114,0.25X-0.3375X-0.475X0.3375X-0.475X0.3375X0.475X-0.3375X0.475X0*%
G04 #@! TD*
G04 #@! TA.AperFunction,ViaPad*
%ADD18C,0.8*%
G04 #@! TD*
G04 #@! TA.AperFunction,Conductor*
%ADD19C,0.25*%
G04 #@! TD*
G04 #@! TA.AperFunction,Conductor*
%ADD20C,0.4*%
G04 #@! TD*
G04 APERTURE END LIST*
D10*
X0059000000Y0084000000D02*
X0063855000Y0080165000D03*
D11*
X0063855000Y0078165000D03*
X0063855000Y0076165000D03*
X0063855000Y0074164999D03*
X0063855000Y0072164999D03*
X0063855000Y0070164999D03*
X0063855000Y0068164999D03*
X0063855000Y0066164999D03*
X0063855000Y0064164999D03*
X0063855000Y0062165000D03*
X0063855000Y0060165000D03*
X0063855000Y0058165000D03*
X0063855000Y0056165000D03*
X0063855000Y0054165000D03*
X0063855000Y0052165000D03*
X0063855000Y0050165000D03*
X0063855000Y0048165000D03*
D12*
X0071815000Y0055175000D03*
D13*
X0071815000Y0057175000D03*
X0071815000Y0059175000D03*
X0071815000Y0061175000D03*
X0071815000Y0063175000D03*
X0071815000Y0065175000D03*
X0071815000Y0067175000D03*
X0071815000Y0069175000D03*
X0071815000Y0071175000D03*
X0071815000Y0073175000D03*
D14*
X0067049000Y0060835000D03*
X0069049000Y0060835000D03*
D15*
X0060995000Y0080165000D03*
D16*
X0060995000Y0078165000D03*
X0060995000Y0076165000D03*
X0060995000Y0074164999D03*
X0060995000Y0072164999D03*
X0060995000Y0070164999D03*
X0060995000Y0068164999D03*
X0060995000Y0066164999D03*
X0060995000Y0064164999D03*
X0060995000Y0062165000D03*
X0060995000Y0060165000D03*
X0060995000Y0058165000D03*
X0060995000Y0056165000D03*
X0060995000Y0054165000D03*
X0060995000Y0052165000D03*
X0060995000Y0050165000D03*
X0060995000Y0048165000D03*
D14*
X0067049000Y0064681668D03*
X0069049000Y0064681668D03*
D17*
X0067061499Y0077244200D03*
X0069136500Y0077244200D03*
D14*
X0067049000Y0068528334D03*
X0069049000Y0068528334D03*
X0067049000Y0072375000D03*
X0069049000Y0072375000D03*
D18*
X0073095000Y0075685000D03*
X0071065000Y0076475000D03*
X0066035000Y0074605000D03*
X0067395000Y0074115000D03*
X0069075000Y0074055000D03*
X0065763000Y0070335400D03*
X0066220200Y0063096400D03*
D19*
X0060995000Y0062165000D02*
X0063855000Y0062165000D01*
X0060995000Y0070164999D02*
X0063855000Y0070164999D01*
X0069015000Y0061175000D02*
X0071465000Y0061175000D01*
X0068735000Y0065045000D02*
X0068865000Y0065175000D01*
X0068865000Y0065175000D02*
X0071465000Y0065175000D01*
X0068705000Y0068265000D02*
X0069615000Y0069175000D01*
X0069615000Y0069175000D02*
X0071465000Y0069175000D01*
X0069049000Y0072375000D02*
X0069849000Y0073175000D01*
X0069849000Y0073175000D02*
X0071465000Y0073175000D01*
D20*
X0063855000Y0076165000D02*
X0064934200Y0077244200D01*
X0064325000Y0076415000D02*
X0065154200Y0077244200D01*
X0060995000Y0078165000D02*
X0060995000Y0076165000D01*
X0060995000Y0076165000D02*
X0063855000Y0076165000D01*
X0064934200Y0077244200D02*
X0067061499Y0077244200D01*
X0060995000Y0078165000D02*
X0063855000Y0078165000D01*
D19*
X0060995000Y0080165000D02*
X0063855000Y0080165000D01*
X0060995000Y0068164999D02*
X0063855000Y0068164999D01*
X0060995000Y0066164999D02*
X0063855000Y0066164999D01*
X0066224000Y0068265000D02*
X0067079000Y0068265000D01*
X0064317000Y0064164999D02*
X0065509000Y0065357000D01*
X0065509000Y0065357000D02*
X0065509000Y0067550000D01*
X0063855000Y0064164999D02*
X0064317000Y0064164999D01*
X0065509000Y0067550000D02*
X0066224000Y0068265000D01*
X0060995000Y0064164999D02*
X0063855000Y0064164999D01*
X0066379000Y0060165000D02*
X0067049000Y0060835000D01*
X0060995000Y0060165000D02*
X0063855000Y0060165000D01*
X0063855000Y0060165000D02*
X0066379000Y0060165000D01*
X0067069000Y0071641400D02*
X0067069000Y0072375000D01*
X0060995000Y0058165000D02*
X0063855000Y0058165000D01*
X0065763000Y0070335400D02*
X0067069000Y0071641400D01*
X0066220200Y0063096400D02*
X0067109000Y0063985200D01*
X0060995000Y0056165000D02*
X0063855000Y0056165000D01*
X0067109000Y0063985200D02*
X0067109000Y0065045000D01*
X0060995000Y0054165000D02*
X0063855000Y0054165000D01*
X0060995000Y0052165000D02*
X0063855000Y0052165000D01*
D20*
X0060995000Y0050165000D02*
X0063855000Y0050165000D01*
X0060995000Y0048165000D02*
X0063855000Y0048165000D01*
G04 #@! TA.AperFunction,Conductor*
G36*
X0062006129Y0083486455D02*
G01*
X0062176656Y0083434121D01*
X0066283567Y0082173724D01*
X0066342822Y0082134616D01*
X0066371527Y0082069681D01*
X0066372600Y0082053269D01*
X0066372600Y0080089000D01*
X0066390992Y0080081722D01*
X0073487362Y0077273580D01*
X0073543344Y0077229916D01*
X0073567000Y0077156420D01*
X0073567000Y0044634000D01*
X0073546998Y0044565879D01*
X0073493342Y0044519386D01*
X0073441000Y0044508000D01*
X0059634000Y0044508000D01*
X0059565879Y0044528002D01*
X0059519386Y0044581658D01*
X0059508000Y0044634000D01*
X0059508000Y0046539600D01*
X0059528002Y0046607721D01*
X0059581658Y0046654214D01*
X0059634000Y0046665600D01*
X0066238400Y0046665600D01*
X0066238400Y0051775000D01*
X0065364138Y0051775000D01*
X0065296018Y0051795002D01*
X0065249525Y0051848658D01*
X0065239442Y0051919080D01*
X0065266352Y0052104664D01*
X0065266352Y0052104667D01*
X0065267213Y0052110603D01*
X0065257433Y0052321899D01*
X0065207875Y0052527534D01*
X0065168412Y0052614329D01*
X0065122806Y0052714632D01*
X0065120326Y0052720087D01*
X0064997946Y0052892611D01*
X0064845150Y0053038881D01*
X0064839254Y0053042688D01*
X0064812837Y0053059746D01*
X0064766459Y0053113501D01*
X0064756507Y0053183797D01*
X0064786139Y0053248314D01*
X0064803353Y0053264683D01*
X0064918201Y0053354898D01*
X0064922920Y0053358604D01*
X0064926852Y0053363135D01*
X0064926855Y0053363138D01*
X0065057621Y0053513833D01*
X0065061552Y0053518363D01*
X0065064552Y0053523549D01*
X0065064555Y0053523553D01*
X0065164467Y0053696258D01*
X0065167473Y0053701454D01*
X0065236861Y0053901271D01*
X0065260867Y0054066837D01*
X0065266352Y0054104664D01*
X0065266352Y0054104667D01*
X0065267213Y0054110603D01*
X0065257433Y0054321899D01*
X0065212582Y0054508002D01*
X0065209281Y0054521701D01*
X0065209280Y0054521703D01*
X0065207875Y0054527534D01*
X0065168412Y0054614329D01*
X0065140511Y0054675692D01*
X0065120326Y0054720087D01*
X0064997946Y0054892611D01*
X0064845150Y0055038881D01*
X0064839254Y0055042688D01*
X0064812837Y0055059746D01*
X0064766459Y0055113501D01*
X0064756507Y0055183797D01*
X0064786139Y0055248314D01*
X0064803353Y0055264683D01*
X0064918201Y0055354898D01*
X0064922920Y0055358604D01*
X0064926852Y0055363135D01*
X0064926855Y0055363138D01*
X0065057621Y0055513833D01*
X0065061552Y0055518363D01*
X0065064552Y0055523549D01*
X0065064555Y0055523553D01*
X0065164467Y0055696258D01*
X0065167473Y0055701454D01*
X0065236861Y0055901271D01*
X0065267213Y0056110603D01*
X0065257433Y0056321899D01*
X0065207875Y0056527534D01*
X0065205139Y0056533553D01*
X0065153084Y0056648041D01*
X0065120326Y0056720087D01*
X0064997946Y0056892611D01*
X0064845150Y0057038881D01*
X0064839254Y0057042688D01*
X0064812837Y0057059746D01*
X0064766459Y0057113501D01*
X0064756507Y0057183797D01*
X0064777450Y0057229396D01*
X0070427787Y0057229396D01*
X0070437567Y0057018101D01*
X0070438971Y0057012276D01*
X0070438971Y0057012275D01*
X0070468988Y0056887725D01*
X0070487125Y0056812466D01*
X0070489607Y0056807007D01*
X0070489608Y0056807004D01*
X0070531608Y0056714632D01*
X0070574674Y0056619913D01*
X0070697054Y0056447389D01*
X0070701381Y0056443247D01*
X0070701386Y0056443241D01*
X0070792317Y0056356194D01*
X0070827694Y0056294639D01*
X0070824175Y0056223730D01*
X0070782879Y0056165979D01*
X0070771496Y0056158035D01*
X0070715652Y0056123478D01*
X0070590695Y0055998303D01*
X0070497885Y0055847738D01*
X0070495581Y0055840790D01*
X0070447642Y0055696258D01*
X0070442203Y0055679861D01*
X0070431500Y0055575400D01*
X0070431500Y0054774600D01*
X0070442474Y0054668834D01*
X0070498450Y0054501054D01*
X0070591522Y0054350652D01*
X0070716697Y0054225695D01*
X0070722927Y0054221855D01*
X0070722928Y0054221854D01*
X0070860090Y0054137305D01*
X0070867262Y0054132885D01*
X0070916357Y0054116601D01*
X0071028611Y0054079368D01*
X0071028613Y0054079368D01*
X0071035139Y0054077203D01*
X0071041975Y0054076503D01*
X0071041978Y0054076502D01*
X0071085031Y0054072091D01*
X0071139600Y0054066500D01*
X0072490400Y0054066500D01*
X0072493646Y0054066837D01*
X0072493650Y0054066837D01*
X0072589308Y0054076762D01*
X0072589312Y0054076763D01*
X0072596166Y0054077473D01*
X0072602702Y0054079655D01*
X0072602704Y0054079655D01*
X0072734806Y0054123728D01*
X0072763946Y0054133450D01*
X0072914348Y0054226522D01*
X0073039305Y0054351697D01*
X0073076549Y0054412118D01*
X0073128275Y0054496032D01*
X0073128276Y0054496034D01*
X0073132115Y0054502262D01*
X0073187797Y0054670139D01*
X0073198500Y0054774600D01*
X0073198500Y0055575400D01*
X0073187526Y0055681166D01*
X0073180758Y0055701454D01*
X0073133868Y0055841998D01*
X0073131550Y0055848946D01*
X0073038478Y0055999348D01*
X0072913303Y0056124305D01*
X0072861764Y0056156075D01*
X0072814271Y0056208846D01*
X0072802847Y0056278918D01*
X0072831121Y0056344042D01*
X0072850045Y0056362418D01*
X0072857920Y0056368604D01*
X0072861852Y0056373135D01*
X0072861855Y0056373138D01*
X0072992621Y0056523832D01*
X0072996552Y0056528363D01*
X0072999552Y0056533549D01*
X0072999555Y0056533553D01*
X0073099467Y0056706258D01*
X0073102473Y0056711454D01*
X0073171861Y0056911271D01*
X0073190364Y0057038881D01*
X0073201352Y0057114664D01*
X0073201352Y0057114667D01*
X0073202213Y0057120604D01*
X0073192433Y0057331899D01*
X0073147494Y0057518363D01*
X0073144281Y0057531701D01*
X0073144280Y0057531703D01*
X0073142875Y0057537534D01*
X0073127789Y0057570715D01*
X0073068345Y0057701454D01*
X0073055326Y0057730087D01*
X0072932946Y0057902611D01*
X0072780150Y0058048881D01*
X0072775119Y0058052130D01*
X0072775112Y0058052135D01*
X0072747393Y0058070032D01*
X0072701016Y0058123789D01*
X0072691063Y0058194085D01*
X0072720696Y0058258601D01*
X0072737909Y0058274969D01*
X0072852857Y0058365262D01*
X0072861506Y0058373498D01*
X0072992212Y0058524123D01*
X0072999147Y0058533847D01*
X0073099010Y0058706467D01*
X0073103984Y0058717331D01*
X0073169407Y0058905727D01*
X0073169648Y0058906716D01*
X0073168180Y0058917007D01*
X0073154615Y0058921000D01*
X0070479598Y0058921000D01*
X0070466067Y0058917027D01*
X0070464712Y0058907601D01*
X0070486194Y0058818463D01*
X0070490083Y0058807168D01*
X0070572629Y0058625618D01*
X0070578576Y0058615276D01*
X0070693968Y0058452603D01*
X0070701761Y0058443574D01*
X0070845831Y0058305658D01*
X0070855200Y0058298259D01*
X0070882577Y0058280581D01*
X0070928955Y0058226828D01*
X0070938909Y0058156532D01*
X0070909278Y0058092015D01*
X0070892063Y0058075644D01*
X0070772080Y0057981396D01*
X0070768148Y0057976865D01*
X0070768145Y0057976862D01*
X0070702551Y0057901271D01*
X0070633448Y0057821636D01*
X0070630448Y0057816451D01*
X0070630445Y0057816447D01*
X0070602561Y0057768247D01*
X0070527526Y0057638546D01*
X0070458139Y0057438728D01*
X0070427787Y0057229396D01*
X0064777450Y0057229396D01*
X0064786139Y0057248314D01*
X0064803353Y0057264683D01*
X0064918201Y0057354898D01*
X0064922920Y0057358604D01*
X0064926852Y0057363135D01*
X0064926855Y0057363138D01*
X0065057621Y0057513833D01*
X0065061552Y0057518363D01*
X0065064552Y0057523549D01*
X0065064555Y0057523553D01*
X0065164467Y0057696258D01*
X0065167473Y0057701454D01*
X0065236861Y0057901271D01*
X0065258264Y0058048881D01*
X0065266352Y0058104664D01*
X0065266352Y0058104667D01*
X0065267213Y0058110603D01*
X0065257433Y0058321899D01*
X0065207875Y0058527534D01*
X0065168412Y0058614329D01*
X0065153084Y0058648041D01*
X0065120326Y0058720087D01*
X0064997946Y0058892611D01*
X0064845150Y0059038881D01*
X0064839254Y0059042688D01*
X0064812837Y0059059746D01*
X0064766459Y0059113501D01*
X0064756507Y0059183797D01*
X0064786139Y0059248314D01*
X0064803353Y0059264683D01*
X0064918201Y0059354898D01*
X0064922920Y0059358604D01*
X0065035275Y0059488082D01*
X0065095027Y0059526421D01*
X0065130438Y0059531500D01*
X0066300233Y0059531500D01*
X0066311415Y0059530973D01*
X0066318909Y0059529298D01*
X0066326835Y0059529547D01*
X0066326836Y0059529547D01*
X0066386986Y0059531438D01*
X0066390945Y0059531500D01*
X0066418856Y0059531500D01*
X0066422791Y0059531997D01*
X0066422855Y0059532005D01*
X0066434692Y0059532938D01*
X0066466950Y0059533952D01*
X0066470969Y0059534078D01*
X0066478888Y0059534327D01*
X0066498343Y0059539979D01*
X0066517700Y0059543987D01*
X0066529930Y0059545532D01*
X0066529931Y0059545532D01*
X0066537797Y0059546526D01*
X0066545168Y0059549445D01*
X0066545170Y0059549445D01*
X0066578912Y0059562804D01*
X0066590142Y0059566649D01*
X0066624983Y0059576771D01*
X0066624984Y0059576771D01*
X0066632593Y0059578982D01*
X0066639411Y0059583015D01*
X0066639416Y0059583017D01*
X0066650028Y0059589293D01*
X0066667776Y0059597988D01*
X0066686617Y0059605447D01*
X0066693029Y0059610107D01*
X0066694503Y0059610917D01*
X0066755200Y0059626500D01*
X0067449400Y0059626500D01*
X0067452646Y0059626836D01*
X0067452650Y0059626836D01*
X0067548308Y0059636762D01*
X0067548312Y0059636763D01*
X0067555166Y0059637474D01*
X0067561702Y0059639655D01*
X0067561704Y0059639655D01*
X0067693806Y0059683728D01*
X0067722946Y0059693450D01*
X0067873348Y0059786522D01*
X0067959784Y0059873109D01*
X0068022066Y0059907188D01*
X0068092886Y0059902185D01*
X0068137976Y0059873264D01*
X0068225697Y0059785695D01*
X0068231927Y0059781855D01*
X0068231928Y0059781853D01*
X0068369090Y0059697306D01*
X0068376262Y0059692885D01*
X0068456005Y0059666436D01*
X0068537611Y0059639368D01*
X0068537613Y0059639368D01*
X0068544139Y0059637203D01*
X0068550975Y0059636503D01*
X0068550978Y0059636502D01*
X0068594031Y0059632091D01*
X0068648600Y0059626500D01*
X0069449400Y0059626500D01*
X0069452646Y0059626836D01*
X0069452650Y0059626836D01*
X0069548308Y0059636762D01*
X0069548312Y0059636763D01*
X0069555166Y0059637474D01*
X0069561702Y0059639655D01*
X0069561704Y0059639655D01*
X0069693806Y0059683728D01*
X0069722946Y0059693450D01*
X0069873348Y0059786522D01*
X0069998305Y0059911697D01*
X0070039833Y0059979067D01*
X0070087275Y0060056032D01*
X0070087276Y0060056034D01*
X0070091115Y0060062262D01*
X0070135511Y0060196113D01*
X0070144632Y0060223611D01*
X0070144632Y0060223613D01*
X0070146796Y0060230139D01*
X0070147597Y0060237942D01*
X0070153736Y0060297865D01*
X0070157500Y0060334599D01*
X0070157500Y0060415500D01*
X0070177502Y0060483621D01*
X0070231158Y0060530114D01*
X0070283500Y0060541500D01*
X0070565193Y0060541500D01*
X0070633314Y0060521498D01*
X0070667963Y0060488399D01*
X0070693584Y0060452280D01*
X0070693587Y0060452276D01*
X0070697054Y0060447389D01*
X0070849850Y0060301119D01*
X0070854881Y0060297870D01*
X0070854888Y0060297865D01*
X0070882607Y0060279967D01*
X0070928984Y0060226211D01*
X0070938937Y0060155915D01*
X0070909304Y0060091398D01*
X0070892091Y0060075030D01*
X0070777143Y0059984738D01*
X0070768494Y0059976501D01*
X0070637788Y0059825877D01*
X0070630853Y0059816153D01*
X0070530990Y0059643533D01*
X0070526016Y0059632669D01*
X0070460593Y0059444272D01*
X0070460352Y0059443284D01*
X0070461820Y0059432992D01*
X0070475385Y0059429000D01*
X0073150402Y0059429000D01*
X0073163933Y0059432973D01*
X0073165288Y0059442399D01*
X0073143806Y0059531537D01*
X0073139917Y0059542832D01*
X0073057371Y0059724382D01*
X0073051424Y0059734724D01*
X0072936032Y0059897397D01*
X0072928239Y0059906425D01*
X0072784169Y0060044342D01*
X0072774800Y0060051741D01*
X0072747423Y0060069418D01*
X0072701045Y0060123172D01*
X0072691091Y0060193467D01*
X0072720722Y0060257985D01*
X0072737937Y0060274356D01*
X0072853202Y0060364898D01*
X0072857920Y0060368604D01*
X0072861852Y0060373135D01*
X0072861855Y0060373138D01*
X0072992621Y0060523832D01*
X0072996552Y0060528363D01*
X0072999552Y0060533549D01*
X0072999555Y0060533553D01*
X0073099467Y0060706258D01*
X0073102473Y0060711454D01*
X0073171861Y0060911271D01*
X0073190364Y0061038881D01*
X0073201352Y0061114664D01*
X0073201352Y0061114667D01*
X0073202213Y0061120604D01*
X0073192433Y0061331899D01*
X0073147494Y0061518363D01*
X0073144281Y0061531701D01*
X0073144280Y0061531703D01*
X0073142875Y0061537534D01*
X0073127789Y0061570715D01*
X0073068345Y0061701454D01*
X0073055326Y0061730087D01*
X0072932946Y0061902611D01*
X0072780150Y0062048881D01*
X0072775119Y0062052130D01*
X0072775112Y0062052135D01*
X0072747393Y0062070032D01*
X0072701016Y0062123789D01*
X0072691063Y0062194085D01*
X0072720696Y0062258601D01*
X0072737909Y0062274969D01*
X0072852857Y0062365262D01*
X0072861506Y0062373498D01*
X0072992212Y0062524123D01*
X0072999147Y0062533847D01*
X0073099010Y0062706467D01*
X0073103984Y0062717331D01*
X0073169407Y0062905727D01*
X0073169648Y0062906716D01*
X0073168180Y0062917007D01*
X0073154615Y0062921000D01*
X0070479598Y0062921000D01*
X0070466067Y0062917027D01*
X0070464712Y0062907601D01*
X0070486194Y0062818463D01*
X0070490083Y0062807168D01*
X0070572629Y0062625618D01*
X0070578576Y0062615276D01*
X0070693968Y0062452603D01*
X0070701761Y0062443574D01*
X0070845831Y0062305658D01*
X0070855200Y0062298259D01*
X0070882577Y0062280581D01*
X0070928955Y0062226828D01*
X0070938909Y0062156532D01*
X0070909278Y0062092015D01*
X0070892063Y0062075644D01*
X0070772080Y0061981396D01*
X0070659725Y0061851918D01*
X0070599973Y0061813579D01*
X0070564561Y0061808499D01*
X0070000367Y0061808499D01*
X0069932245Y0061828502D01*
X0069911349Y0061845327D01*
X0069877483Y0061879134D01*
X0069872303Y0061884305D01*
X0069844779Y0061901271D01*
X0069727968Y0061973275D01*
X0069727966Y0061973276D01*
X0069721738Y0061977115D01*
X0069561254Y0062030345D01*
X0069560389Y0062030632D01*
X0069560387Y0062030632D01*
X0069553861Y0062032797D01*
X0069547025Y0062033497D01*
X0069547022Y0062033498D01*
X0069503969Y0062037909D01*
X0069449400Y0062043500D01*
X0068648600Y0062043500D01*
X0068645354Y0062043163D01*
X0068645350Y0062043163D01*
X0068549692Y0062033238D01*
X0068549688Y0062033237D01*
X0068542834Y0062032526D01*
X0068536298Y0062030345D01*
X0068536296Y0062030345D01*
X0068404194Y0061986272D01*
X0068375054Y0061976550D01*
X0068224652Y0061883478D01*
X0068186568Y0061845327D01*
X0068138216Y0061796891D01*
X0068075934Y0061762812D01*
X0068005114Y0061767815D01*
X0067960025Y0061796735D01*
X0067877483Y0061879134D01*
X0067872303Y0061884305D01*
X0067844779Y0061901271D01*
X0067727968Y0061973275D01*
X0067727966Y0061973276D01*
X0067721738Y0061977115D01*
X0067561254Y0062030345D01*
X0067560389Y0062030632D01*
X0067560387Y0062030632D01*
X0067553861Y0062032797D01*
X0067547025Y0062033497D01*
X0067547022Y0062033498D01*
X0067503969Y0062037909D01*
X0067449400Y0062043500D01*
X0066681764Y0062043500D01*
X0066613642Y0062063502D01*
X0066567150Y0062117158D01*
X0066557046Y0062187432D01*
X0066586540Y0062252012D01*
X0066630515Y0062284607D01*
X0066670922Y0062302597D01*
X0066670924Y0062302598D01*
X0066676952Y0062305282D01*
X0066831452Y0062417534D01*
X0066835875Y0062422444D01*
X0066954820Y0062554548D01*
X0066954822Y0062554549D01*
X0066959239Y0062559456D01*
X0067048831Y0062714632D01*
X0067051423Y0062719121D01*
X0067051424Y0062719122D01*
X0067054727Y0062724844D01*
X0067113742Y0062906472D01*
X0067114850Y0062917007D01*
X0067128000Y0063042134D01*
X0067131107Y0063071692D01*
X0067158120Y0063137349D01*
X0067167322Y0063147617D01*
X0067466289Y0063446584D01*
X0067528601Y0063480610D01*
X0067542368Y0063482814D01*
X0067555166Y0063484142D01*
X0067722946Y0063540118D01*
X0067873348Y0063633190D01*
X0067959784Y0063719777D01*
X0068022066Y0063753856D01*
X0068092886Y0063748853D01*
X0068137975Y0063719932D01*
X0068213431Y0063644608D01*
X0068225697Y0063632363D01*
X0068231927Y0063628523D01*
X0068231928Y0063628522D01*
X0068369090Y0063543974D01*
X0068376262Y0063539553D01*
X0068400430Y0063531537D01*
X0068537611Y0063486036D01*
X0068537613Y0063486036D01*
X0068544139Y0063483871D01*
X0068550975Y0063483171D01*
X0068550978Y0063483170D01*
X0068594031Y0063478759D01*
X0068648600Y0063473168D01*
X0069449400Y0063473168D01*
X0069452646Y0063473505D01*
X0069452650Y0063473505D01*
X0069548308Y0063483430D01*
X0069548312Y0063483430D01*
X0069555166Y0063484142D01*
X0069561702Y0063486323D01*
X0069561704Y0063486323D01*
X0069697226Y0063531537D01*
X0069722946Y0063540118D01*
X0069873348Y0063633190D01*
X0069998305Y0063758365D01*
X0070002146Y0063764596D01*
X0070087275Y0063902699D01*
X0070087276Y0063902702D01*
X0070091115Y0063908930D01*
X0070138483Y0064051740D01*
X0070144632Y0064070279D01*
X0070144632Y0064070280D01*
X0070146796Y0064076807D01*
X0070157500Y0064181268D01*
X0070157500Y0064415500D01*
X0070177502Y0064483621D01*
X0070231158Y0064530114D01*
X0070283500Y0064541500D01*
X0070565193Y0064541500D01*
X0070633314Y0064521498D01*
X0070667963Y0064488399D01*
X0070693584Y0064452280D01*
X0070693587Y0064452276D01*
X0070697054Y0064447389D01*
X0070849850Y0064301119D01*
X0070854881Y0064297870D01*
X0070854888Y0064297865D01*
X0070882607Y0064279967D01*
X0070928984Y0064226211D01*
X0070938937Y0064155914D01*
X0070909304Y0064091398D01*
X0070892091Y0064075030D01*
X0070777143Y0063984738D01*
X0070768494Y0063976501D01*
X0070637788Y0063825877D01*
X0070630853Y0063816153D01*
X0070530990Y0063643533D01*
X0070526016Y0063632669D01*
X0070460593Y0063444272D01*
X0070460352Y0063443284D01*
X0070461820Y0063432992D01*
X0070475385Y0063429000D01*
X0073150402Y0063429000D01*
X0073163933Y0063432973D01*
X0073165288Y0063442399D01*
X0073143806Y0063531537D01*
X0073139917Y0063542832D01*
X0073057371Y0063724382D01*
X0073051424Y0063734724D01*
X0072936032Y0063897397D01*
X0072928239Y0063906425D01*
X0072784169Y0064044342D01*
X0072774800Y0064051740D01*
X0072747423Y0064069418D01*
X0072701045Y0064123172D01*
X0072691091Y0064193467D01*
X0072720722Y0064257985D01*
X0072737937Y0064274356D01*
X0072853202Y0064364898D01*
X0072857920Y0064368604D01*
X0072861852Y0064373135D01*
X0072861855Y0064373138D01*
X0072992621Y0064523832D01*
X0072996552Y0064528363D01*
X0072999552Y0064533548D01*
X0072999555Y0064533553D01*
X0073099467Y0064706257D01*
X0073102473Y0064711454D01*
X0073171861Y0064911271D01*
X0073182835Y0064986958D01*
X0073201352Y0065114664D01*
X0073201352Y0065114667D01*
X0073202213Y0065120604D01*
X0073192433Y0065331898D01*
X0073142875Y0065537533D01*
X0073127789Y0065570715D01*
X0073057806Y0065724632D01*
X0073055326Y0065730087D01*
X0072942005Y0065889839D01*
X0072936412Y0065897725D01*
X0072936411Y0065897726D01*
X0072932946Y0065902611D01*
X0072780150Y0066048880D01*
X0072775119Y0066052130D01*
X0072775112Y0066052134D01*
X0072747393Y0066070032D01*
X0072701016Y0066123789D01*
X0072691063Y0066194085D01*
X0072720696Y0066258601D01*
X0072737909Y0066274969D01*
X0072852857Y0066365262D01*
X0072861506Y0066373498D01*
X0072992212Y0066524123D01*
X0072999147Y0066533847D01*
X0073099010Y0066706467D01*
X0073103984Y0066717331D01*
X0073169407Y0066905727D01*
X0073169648Y0066906716D01*
X0073168180Y0066917007D01*
X0073154615Y0066920999D01*
X0070479598Y0066920999D01*
X0070466067Y0066917027D01*
X0070464712Y0066907601D01*
X0070486194Y0066818463D01*
X0070490083Y0066807168D01*
X0070572629Y0066625618D01*
X0070578576Y0066615275D01*
X0070693968Y0066452603D01*
X0070701761Y0066443574D01*
X0070845831Y0066305657D01*
X0070855200Y0066298259D01*
X0070882577Y0066280581D01*
X0070928955Y0066226828D01*
X0070938909Y0066156532D01*
X0070909278Y0066092015D01*
X0070892063Y0066075644D01*
X0070772080Y0065981396D01*
X0070659725Y0065851918D01*
X0070599973Y0065813579D01*
X0070564561Y0065808499D01*
X0069780439Y0065808499D01*
X0069727486Y0065820240D01*
X0069721738Y0065823782D01*
X0069714792Y0065826087D01*
X0069714790Y0065826088D01*
X0069560389Y0065877300D01*
X0069560387Y0065877300D01*
X0069553861Y0065879464D01*
X0069547025Y0065880165D01*
X0069547022Y0065880166D01*
X0069503969Y0065884577D01*
X0069449400Y0065890168D01*
X0068648600Y0065890168D01*
X0068645354Y0065889831D01*
X0068645350Y0065889831D01*
X0068549692Y0065879906D01*
X0068549688Y0065879905D01*
X0068542834Y0065879194D01*
X0068536298Y0065877013D01*
X0068536296Y0065877013D01*
X0068461081Y0065851918D01*
X0068375054Y0065823218D01*
X0068224652Y0065730146D01*
X0068142501Y0065647851D01*
X0068138216Y0065643558D01*
X0068075934Y0065609480D01*
X0068005114Y0065614483D01*
X0067960025Y0065643404D01*
X0067877483Y0065725802D01*
X0067872303Y0065730973D01*
X0067865812Y0065734973D01*
X0067727968Y0065819942D01*
X0067727966Y0065819943D01*
X0067721738Y0065823782D01*
X0067561254Y0065877013D01*
X0067560389Y0065877300D01*
X0067560387Y0065877300D01*
X0067553861Y0065879464D01*
X0067547025Y0065880165D01*
X0067547022Y0065880166D01*
X0067503969Y0065884577D01*
X0067449400Y0065890168D01*
X0066648600Y0065890168D01*
X0066645354Y0065889831D01*
X0066645349Y0065889831D01*
X0066549691Y0065879906D01*
X0066549688Y0065879905D01*
X0066542834Y0065879194D01*
X0066536298Y0065877013D01*
X0066536295Y0065877013D01*
X0066461081Y0065851918D01*
X0066375054Y0065823218D01*
X0066368821Y0065819362D01*
X0066368823Y0065819362D01*
X0066334802Y0065798310D01*
X0066266351Y0065779472D01*
X0066198581Y0065800633D01*
X0066153009Y0065855074D01*
X0066142500Y0065905453D01*
X0066142500Y0067235406D01*
X0066162502Y0067303527D01*
X0066179405Y0067324501D01*
X0066222352Y0067367448D01*
X0066284664Y0067401474D01*
X0066355479Y0067396409D01*
X0066364698Y0067392547D01*
X0066370030Y0067390060D01*
X0066376262Y0067386219D01*
X0066383207Y0067383916D01*
X0066383210Y0067383914D01*
X0066537611Y0067332702D01*
X0066537612Y0067332702D01*
X0066544139Y0067330536D01*
X0066550974Y0067329837D01*
X0066550978Y0067329836D01*
X0066594031Y0067325425D01*
X0066648600Y0067319834D01*
X0067449400Y0067319834D01*
X0067452646Y0067320171D01*
X0067452650Y0067320171D01*
X0067548308Y0067330096D01*
X0067548312Y0067330097D01*
X0067555166Y0067330808D01*
X0067561702Y0067332989D01*
X0067561704Y0067332989D01*
X0067693806Y0067377062D01*
X0067722946Y0067386784D01*
X0067873348Y0067479856D01*
X0067959784Y0067566442D01*
X0068022066Y0067600522D01*
X0068092886Y0067595519D01*
X0068137976Y0067566598D01*
X0068225697Y0067479029D01*
X0068231927Y0067475189D01*
X0068231928Y0067475188D01*
X0068369090Y0067390640D01*
X0068376262Y0067386219D01*
X0068432855Y0067367448D01*
X0068537611Y0067332702D01*
X0068537613Y0067332702D01*
X0068544139Y0067330536D01*
X0068550975Y0067329837D01*
X0068550978Y0067329836D01*
X0068594031Y0067325425D01*
X0068648600Y0067319834D01*
X0069449400Y0067319834D01*
X0069452646Y0067320171D01*
X0069452650Y0067320171D01*
X0069548308Y0067330096D01*
X0069548312Y0067330097D01*
X0069555166Y0067330808D01*
X0069561702Y0067332989D01*
X0069561704Y0067332989D01*
X0069693806Y0067377062D01*
X0069722946Y0067386784D01*
X0069873348Y0067479856D01*
X0069998305Y0067605031D01*
X0070002146Y0067611262D01*
X0070087275Y0067749366D01*
X0070087276Y0067749368D01*
X0070091115Y0067755596D01*
X0070138148Y0067897397D01*
X0070144632Y0067916945D01*
X0070144632Y0067916947D01*
X0070146796Y0067923473D01*
X0070157500Y0068027934D01*
X0070157500Y0068415500D01*
X0070177502Y0068483621D01*
X0070231158Y0068530114D01*
X0070283500Y0068541500D01*
X0070565193Y0068541500D01*
X0070633314Y0068521498D01*
X0070667963Y0068488399D01*
X0070693584Y0068452280D01*
X0070693587Y0068452276D01*
X0070697054Y0068447389D01*
X0070849850Y0068301119D01*
X0070854881Y0068297870D01*
X0070854888Y0068297865D01*
X0070882607Y0068279967D01*
X0070928984Y0068226211D01*
X0070938937Y0068155915D01*
X0070909304Y0068091398D01*
X0070892091Y0068075030D01*
X0070777143Y0067984738D01*
X0070768494Y0067976501D01*
X0070637788Y0067825876D01*
X0070630853Y0067816153D01*
X0070530990Y0067643533D01*
X0070526016Y0067632669D01*
X0070460593Y0067444273D01*
X0070460352Y0067443284D01*
X0070461820Y0067432992D01*
X0070475385Y0067429000D01*
X0073150402Y0067429000D01*
X0073163933Y0067432973D01*
X0073165288Y0067442399D01*
X0073143806Y0067531537D01*
X0073139917Y0067542832D01*
X0073057371Y0067724381D01*
X0073051424Y0067734724D01*
X0072936032Y0067897397D01*
X0072928239Y0067906425D01*
X0072784169Y0068044342D01*
X0072774800Y0068051741D01*
X0072747423Y0068069418D01*
X0072701045Y0068123172D01*
X0072691091Y0068193468D01*
X0072720722Y0068257985D01*
X0072737937Y0068274356D01*
X0072853202Y0068364898D01*
X0072857920Y0068368604D01*
X0072861852Y0068373135D01*
X0072861855Y0068373138D01*
X0072992621Y0068523833D01*
X0072996552Y0068528363D01*
X0072999552Y0068533549D01*
X0072999555Y0068533553D01*
X0073099467Y0068706258D01*
X0073102473Y0068711454D01*
X0073171861Y0068911271D01*
X0073188426Y0069025517D01*
X0073201352Y0069114664D01*
X0073201352Y0069114667D01*
X0073202213Y0069120604D01*
X0073192433Y0069331899D01*
X0073154314Y0069490070D01*
X0073144281Y0069531701D01*
X0073144280Y0069531703D01*
X0073142875Y0069537534D01*
X0073127789Y0069570715D01*
X0073080266Y0069675234D01*
X0073055326Y0069730087D01*
X0072932946Y0069902611D01*
X0072780150Y0070048881D01*
X0072775119Y0070052130D01*
X0072775112Y0070052135D01*
X0072747393Y0070070033D01*
X0072701016Y0070123789D01*
X0072691063Y0070194085D01*
X0072720696Y0070258602D01*
X0072737909Y0070274970D01*
X0072852857Y0070365262D01*
X0072861506Y0070373499D01*
X0072992212Y0070524123D01*
X0072999147Y0070533847D01*
X0073099010Y0070706467D01*
X0073103984Y0070717331D01*
X0073169407Y0070905727D01*
X0073169648Y0070906716D01*
X0073168180Y0070917008D01*
X0073154615Y0070920999D01*
X0070479598Y0070920999D01*
X0070466067Y0070917027D01*
X0070464712Y0070907601D01*
X0070486194Y0070818463D01*
X0070490083Y0070807168D01*
X0070572629Y0070625618D01*
X0070578576Y0070615276D01*
X0070693968Y0070452603D01*
X0070701761Y0070443575D01*
X0070845831Y0070305658D01*
X0070855200Y0070298259D01*
X0070882577Y0070280582D01*
X0070928955Y0070226828D01*
X0070938909Y0070156532D01*
X0070909278Y0070092015D01*
X0070892063Y0070075644D01*
X0070772080Y0069981396D01*
X0070659725Y0069851918D01*
X0070599973Y0069813579D01*
X0070564561Y0069808500D01*
X0069693763Y0069808500D01*
X0069682579Y0069809027D01*
X0069675091Y0069810701D01*
X0069667168Y0069810452D01*
X0069607033Y0069808562D01*
X0069603075Y0069808500D01*
X0069575144Y0069808500D01*
X0069571229Y0069808005D01*
X0069571225Y0069808005D01*
X0069571167Y0069807997D01*
X0069571138Y0069807994D01*
X0069559296Y0069807061D01*
X0069515110Y0069805673D01*
X0069497744Y0069800628D01*
X0069495658Y0069800022D01*
X0069476306Y0069796014D01*
X0069469235Y0069795120D01*
X0069456203Y0069793474D01*
X0069448834Y0069790557D01*
X0069448832Y0069790556D01*
X0069415097Y0069777200D01*
X0069403869Y0069773355D01*
X0069361407Y0069761018D01*
X0069354584Y0069756983D01*
X0069350184Y0069754381D01*
X0069286044Y0069736834D01*
X0068648600Y0069736834D01*
X0068645354Y0069736497D01*
X0068645350Y0069736497D01*
X0068549692Y0069726572D01*
X0068549688Y0069726571D01*
X0068542834Y0069725860D01*
X0068536298Y0069723679D01*
X0068536296Y0069723679D01*
X0068404194Y0069679606D01*
X0068375054Y0069669884D01*
X0068224652Y0069576812D01*
X0068219479Y0069571630D01*
X0068138216Y0069490225D01*
X0068075934Y0069456146D01*
X0068005114Y0069461149D01*
X0067960025Y0069490070D01*
X0067877483Y0069572468D01*
X0067872303Y0069577639D01*
X0067866072Y0069581480D01*
X0067727968Y0069666609D01*
X0067727966Y0069666610D01*
X0067721738Y0069670449D01*
X0067561254Y0069723679D01*
X0067560389Y0069723966D01*
X0067560387Y0069723966D01*
X0067553861Y0069726131D01*
X0067547025Y0069726831D01*
X0067547022Y0069726832D01*
X0067503969Y0069731243D01*
X0067449400Y0069736834D01*
X0066684701Y0069736834D01*
X0066616580Y0069756836D01*
X0066570087Y0069810492D01*
X0066559983Y0069880766D01*
X0066575582Y0069925834D01*
X0066594223Y0069958121D01*
X0066594224Y0069958122D01*
X0066597527Y0069963844D01*
X0066656542Y0070145472D01*
X0066657704Y0070156532D01*
X0066673907Y0070310692D01*
X0066700920Y0070376349D01*
X0066710122Y0070386618D01*
X0067461258Y0071137753D01*
X0067469536Y0071145286D01*
X0067474942Y0071148717D01*
X0067539620Y0071175861D01*
X0067548307Y0071176762D01*
X0067548310Y0071176763D01*
X0067555166Y0071177474D01*
X0067561702Y0071179655D01*
X0067561704Y0071179655D01*
X0067693806Y0071223728D01*
X0067722946Y0071233450D01*
X0067873348Y0071326522D01*
X0067959784Y0071413109D01*
X0068022066Y0071447188D01*
X0068092886Y0071442185D01*
X0068137975Y0071413264D01*
X0068161902Y0071389379D01*
X0068225697Y0071325695D01*
X0068231927Y0071321855D01*
X0068231928Y0071321854D01*
X0068369090Y0071237306D01*
X0068376262Y0071232885D01*
X0068456005Y0071206436D01*
X0068537611Y0071179368D01*
X0068537613Y0071179368D01*
X0068544139Y0071177203D01*
X0068550975Y0071176503D01*
X0068550978Y0071176502D01*
X0068594031Y0071172091D01*
X0068648600Y0071166500D01*
X0069449400Y0071166500D01*
X0069452646Y0071166837D01*
X0069452650Y0071166837D01*
X0069548308Y0071176762D01*
X0069548312Y0071176763D01*
X0069555166Y0071177474D01*
X0069561702Y0071179655D01*
X0069561704Y0071179655D01*
X0069693806Y0071223728D01*
X0069722946Y0071233450D01*
X0069873348Y0071326522D01*
X0069998305Y0071451697D01*
X0070002146Y0071457928D01*
X0070087275Y0071596032D01*
X0070087276Y0071596034D01*
X0070091115Y0071602262D01*
X0070123534Y0071700002D01*
X0070144632Y0071763611D01*
X0070144632Y0071763612D01*
X0070146796Y0071770139D01*
X0070157500Y0071874600D01*
X0070157500Y0072415500D01*
X0070177502Y0072483621D01*
X0070231158Y0072530114D01*
X0070283500Y0072541500D01*
X0070565193Y0072541500D01*
X0070633314Y0072521498D01*
X0070667963Y0072488399D01*
X0070693584Y0072452280D01*
X0070693587Y0072452276D01*
X0070697054Y0072447389D01*
X0070849850Y0072301119D01*
X0070854881Y0072297870D01*
X0070854888Y0072297865D01*
X0070882607Y0072279967D01*
X0070928984Y0072226211D01*
X0070938937Y0072155915D01*
X0070909304Y0072091398D01*
X0070892091Y0072075030D01*
X0070777143Y0071984738D01*
X0070768494Y0071976501D01*
X0070637788Y0071825877D01*
X0070630853Y0071816153D01*
X0070530990Y0071643533D01*
X0070526016Y0071632669D01*
X0070460593Y0071444273D01*
X0070460352Y0071443284D01*
X0070461820Y0071432992D01*
X0070475385Y0071429000D01*
X0073150402Y0071429000D01*
X0073163933Y0071432973D01*
X0073165288Y0071442399D01*
X0073143806Y0071531537D01*
X0073139917Y0071542832D01*
X0073057371Y0071724382D01*
X0073051424Y0071734724D01*
X0072936032Y0071897397D01*
X0072928239Y0071906425D01*
X0072784169Y0072044342D01*
X0072774800Y0072051741D01*
X0072747423Y0072069418D01*
X0072701045Y0072123172D01*
X0072691091Y0072193468D01*
X0072720722Y0072257985D01*
X0072737937Y0072274356D01*
X0072853202Y0072364898D01*
X0072857920Y0072368604D01*
X0072861852Y0072373135D01*
X0072861855Y0072373138D01*
X0072992621Y0072523833D01*
X0072996552Y0072528363D01*
X0072999552Y0072533549D01*
X0072999555Y0072533553D01*
X0073099467Y0072706258D01*
X0073102473Y0072711454D01*
X0073171861Y0072911271D01*
X0073180815Y0072973022D01*
X0073201352Y0073114664D01*
X0073201352Y0073114667D01*
X0073202213Y0073120604D01*
X0073192433Y0073331899D01*
X0073152615Y0073497118D01*
X0073144281Y0073531701D01*
X0073144280Y0073531703D01*
X0073142875Y0073537534D01*
X0073127827Y0073570632D01*
X0073079587Y0073676728D01*
X0073055326Y0073730087D01*
X0072932946Y0073902611D01*
X0072780150Y0074048881D01*
X0072602452Y0074163620D01*
X0072542354Y0074187840D01*
X0072411832Y0074240442D01*
X0072411829Y0074240443D01*
X0072406263Y0074242686D01*
X0072198663Y0074283228D01*
X0072193101Y0074283500D01*
X0071487154Y0074283500D01*
X0071329433Y0074268452D01*
X0071126466Y0074208908D01*
X0071121139Y0074206164D01*
X0071121138Y0074206164D01*
X0070943751Y0074114803D01*
X0070943748Y0074114802D01*
X0070938420Y0074112058D01*
X0070772080Y0073981396D01*
X0070659725Y0073851918D01*
X0070599973Y0073813579D01*
X0070564561Y0073808500D01*
X0069927767Y0073808500D01*
X0069916584Y0073809027D01*
X0069909091Y0073810701D01*
X0069901165Y0073810453D01*
X0069901164Y0073810453D01*
X0069841001Y0073808562D01*
X0069837043Y0073808500D01*
X0069809144Y0073808500D01*
X0069805154Y0073807996D01*
X0069793320Y0073807064D01*
X0069749111Y0073805674D01*
X0069741497Y0073803462D01*
X0069741492Y0073803461D01*
X0069729659Y0073800023D01*
X0069710296Y0073796012D01*
X0069690203Y0073793474D01*
X0069682836Y0073790557D01*
X0069682831Y0073790556D01*
X0069649092Y0073777198D01*
X0069637865Y0073773354D01*
X0069595407Y0073761018D01*
X0069588581Y0073756981D01*
X0069577972Y0073750707D01*
X0069560224Y0073742012D01*
X0069541383Y0073734552D01*
X0069534967Y0073729890D01*
X0069534966Y0073729890D01*
X0069505613Y0073708564D01*
X0069495693Y0073702048D01*
X0069464465Y0073683580D01*
X0069464462Y0073683578D01*
X0069457638Y0073679542D01*
X0069443317Y0073665221D01*
X0069428284Y0073652381D01*
X0069411892Y0073640472D01*
X0069406843Y0073634368D01*
X0069406839Y0073634364D01*
X0069402555Y0073629185D01*
X0069343721Y0073589447D01*
X0069305470Y0073583500D01*
X0068648600Y0073583500D01*
X0068645354Y0073583163D01*
X0068645350Y0073583163D01*
X0068549692Y0073573238D01*
X0068549688Y0073573237D01*
X0068542834Y0073572526D01*
X0068536298Y0073570345D01*
X0068536296Y0073570345D01*
X0068420467Y0073531701D01*
X0068375054Y0073516550D01*
X0068224652Y0073423478D01*
X0068139051Y0073337727D01*
X0068138216Y0073336891D01*
X0068075934Y0073302812D01*
X0068005114Y0073307815D01*
X0067960025Y0073336736D01*
X0067877483Y0073419134D01*
X0067872303Y0073424305D01*
X0067866072Y0073428146D01*
X0067727968Y0073513275D01*
X0067727966Y0073513276D01*
X0067721738Y0073517115D01*
X0067561254Y0073570345D01*
X0067560389Y0073570632D01*
X0067560387Y0073570632D01*
X0067553861Y0073572797D01*
X0067547025Y0073573497D01*
X0067547022Y0073573498D01*
X0067503969Y0073577909D01*
X0067449400Y0073583500D01*
X0066648600Y0073583500D01*
X0066645354Y0073583163D01*
X0066645349Y0073583163D01*
X0066549691Y0073573238D01*
X0066549688Y0073573237D01*
X0066542834Y0073572526D01*
X0066536298Y0073570345D01*
X0066536295Y0073570345D01*
X0066420467Y0073531701D01*
X0066375054Y0073516550D01*
X0066224652Y0073423478D01*
X0066099695Y0073298303D01*
X0066095855Y0073292073D01*
X0066095854Y0073292072D01*
X0066033784Y0073191377D01*
X0066006885Y0073147738D01*
X0065951202Y0072979861D01*
X0065950503Y0072973025D01*
X0065950502Y0072973022D01*
X0065946090Y0072929969D01*
X0065940500Y0072875400D01*
X0065940500Y0071874600D01*
X0065951474Y0071768834D01*
X0065953655Y0071762298D01*
X0065953655Y0071762295D01*
X0065980926Y0071680553D01*
X0066007450Y0071601054D01*
X0066010640Y0071595898D01*
X0066021348Y0071526237D01*
X0065992482Y0071461373D01*
X0065985557Y0071453861D01*
X0065812499Y0071280804D01*
X0065750187Y0071246779D01*
X0065723404Y0071243900D01*
X0065667513Y0071243900D01*
X0065661061Y0071242528D01*
X0065661056Y0071242528D01*
X0065604851Y0071230581D01*
X0065480712Y0071204194D01*
X0065474682Y0071201509D01*
X0065474681Y0071201509D01*
X0065312278Y0071129203D01*
X0065312276Y0071129201D01*
X0065306248Y0071126518D01*
X0065151747Y0071014265D01*
X0065147325Y0071009356D01*
X0065147324Y0071009355D01*
X0065108644Y0070966395D01*
X0065048198Y0070929155D01*
X0064977215Y0070930507D01*
X0064927876Y0070959687D01*
X0064849480Y0071034736D01*
X0064845150Y0071038881D01*
X0064840119Y0071042130D01*
X0064840112Y0071042135D01*
X0064812393Y0071060033D01*
X0064766015Y0071113789D01*
X0064756063Y0071184085D01*
X0064785696Y0071248602D01*
X0064802909Y0071264970D01*
X0064917857Y0071355262D01*
X0064926506Y0071363499D01*
X0065057211Y0071514123D01*
X0065064147Y0071523847D01*
X0065164010Y0071696467D01*
X0065168983Y0071707331D01*
X0065234407Y0071895727D01*
X0065234647Y0071896716D01*
X0065233180Y0071907008D01*
X0065219615Y0071911000D01*
X0062494598Y0071911000D01*
X0062481067Y0071907027D01*
X0062479712Y0071897601D01*
X0062494673Y0071835520D01*
X0062491188Y0071764609D01*
X0062449918Y0071706839D01*
X0062383967Y0071680553D01*
X0062372180Y0071680000D01*
X0062255587Y0071680000D01*
X0062187466Y0071700002D01*
X0062140973Y0071753658D01*
X0062130869Y0071823932D01*
X0062136274Y0071846501D01*
X0062148385Y0071882179D01*
X0062151017Y0071893143D01*
X0062149040Y0071907008D01*
X0062135474Y0071911000D01*
X0059856981Y0071911000D01*
X0059843450Y0071907027D01*
X0059842158Y0071898038D01*
X0059873656Y0071774015D01*
X0059877497Y0071763168D01*
X0059963685Y0071576211D01*
X0059969436Y0071566250D01*
X0060088254Y0071398127D01*
X0060095725Y0071389379D01*
X0060235118Y0071253589D01*
X0060269956Y0071191728D01*
X0060265819Y0071120852D01*
X0060230274Y0071068604D01*
X0060132842Y0070983158D01*
X0059998181Y0070812342D01*
X0059896905Y0070619846D01*
X0059895192Y0070614329D01*
X0059842171Y0070443575D01*
X0059832403Y0070412117D01*
X0059806837Y0070196113D01*
X0059821063Y0069979067D01*
X0059822484Y0069973471D01*
X0059822485Y0069973466D01*
X0059867553Y0069796014D01*
X0059874605Y0069768247D01*
X0059877022Y0069763004D01*
X0059921728Y0069666028D01*
X0059965668Y0069570715D01*
X0059969001Y0069565999D01*
X0060075621Y0069415136D01*
X0060091204Y0069393086D01*
X0060095346Y0069389051D01*
X0060234741Y0069253259D01*
X0060269579Y0069191397D01*
X0060265442Y0069120522D01*
X0060229899Y0069068274D01*
X0060132842Y0068983158D01*
X0060129270Y0068978627D01*
X0060007807Y0068824552D01*
X0059998181Y0068812342D01*
X0059896905Y0068619846D01*
X0059895192Y0068614329D01*
X0059854606Y0068483621D01*
X0059832403Y0068412117D01*
X0059806837Y0068196113D01*
X0059821063Y0067979067D01*
X0059822484Y0067973471D01*
X0059822485Y0067973466D01*
X0059859969Y0067825876D01*
X0059874605Y0067768247D01*
X0059965668Y0067570715D01*
X0059969001Y0067565999D01*
X0060063015Y0067432973D01*
X0060091204Y0067393086D01*
X0060095346Y0067389051D01*
X0060234741Y0067253259D01*
X0060269579Y0067191397D01*
X0060265442Y0067120522D01*
X0060229899Y0067068274D01*
X0060132842Y0066983158D01*
X0059998181Y0066812342D01*
X0059896905Y0066619845D01*
X0059895192Y0066614329D01*
X0059842171Y0066443574D01*
X0059832403Y0066412117D01*
X0059806837Y0066196113D01*
X0059821063Y0065979067D01*
X0059822484Y0065973471D01*
X0059822485Y0065973466D01*
X0059861476Y0065819942D01*
X0059874605Y0065768247D01*
X0059965668Y0065570715D01*
X0060091204Y0065393086D01*
X0060095346Y0065389050D01*
X0060234741Y0065253259D01*
X0060269579Y0065191397D01*
X0060265442Y0065120521D01*
X0060229899Y0065068274D01*
X0060132842Y0064983158D01*
X0060129270Y0064978627D01*
X0060076171Y0064911271D01*
X0059998181Y0064812342D01*
X0059896905Y0064619845D01*
X0059895192Y0064614329D01*
X0059854606Y0064483621D01*
X0059832403Y0064412117D01*
X0059806837Y0064196113D01*
X0059821063Y0063979067D01*
X0059822484Y0063973471D01*
X0059822485Y0063973466D01*
X0059845299Y0063883637D01*
X0059874605Y0063768247D01*
X0059965668Y0063570715D01*
X0059969001Y0063565999D01*
X0060063015Y0063432973D01*
X0060091204Y0063393086D01*
X0060095346Y0063389050D01*
X0060234741Y0063253259D01*
X0060269579Y0063191398D01*
X0060265442Y0063120522D01*
X0060229899Y0063068274D01*
X0060132842Y0062983158D01*
X0060129270Y0062978627D01*
X0060064726Y0062896753D01*
X0059998181Y0062812342D01*
X0059896905Y0062619845D01*
X0059895192Y0062614329D01*
X0059835610Y0062422444D01*
X0059832403Y0062412118D01*
X0059806837Y0062196113D01*
X0059821063Y0061979067D01*
X0059822484Y0061973471D01*
X0059822485Y0061973466D01*
X0059863092Y0061813579D01*
X0059874605Y0061768247D01*
X0059965668Y0061570715D01*
X0059969001Y0061565999D01*
X0060058147Y0061439861D01*
X0060091204Y0061393086D01*
X0060095346Y0061389050D01*
X0060234741Y0061253259D01*
X0060269579Y0061191398D01*
X0060265442Y0061120522D01*
X0060229899Y0061068274D01*
X0060132842Y0060983158D01*
X0060129270Y0060978627D01*
X0060064726Y0060896753D01*
X0059998181Y0060812342D01*
X0059896905Y0060619845D01*
X0059895192Y0060614329D01*
X0059854606Y0060483621D01*
X0059832403Y0060412118D01*
X0059806837Y0060196113D01*
X0059821063Y0059979067D01*
X0059822484Y0059973471D01*
X0059822485Y0059973466D01*
X0059847934Y0059873264D01*
X0059874605Y0059768247D01*
X0059965668Y0059570715D01*
X0059969001Y0059565999D01*
X0060063015Y0059432973D01*
X0060091204Y0059393086D01*
X0060095346Y0059389050D01*
X0060234741Y0059253259D01*
X0060269579Y0059191398D01*
X0060265442Y0059120522D01*
X0060229899Y0059068274D01*
X0060132842Y0058983158D01*
X0060129270Y0058978627D01*
X0060064726Y0058896753D01*
X0059998181Y0058812342D01*
X0059896905Y0058619845D01*
X0059895192Y0058614329D01*
X0059842171Y0058443574D01*
X0059832403Y0058412118D01*
X0059806837Y0058196113D01*
X0059821063Y0057979067D01*
X0059822484Y0057973471D01*
X0059822485Y0057973466D01*
X0059862364Y0057816447D01*
X0059874605Y0057768247D01*
X0059965668Y0057570715D01*
X0059969001Y0057565999D01*
X0060063143Y0057432792D01*
X0060091204Y0057393086D01*
X0060095346Y0057389050D01*
X0060234741Y0057253259D01*
X0060269579Y0057191398D01*
X0060265442Y0057120522D01*
X0060229899Y0057068274D01*
X0060132842Y0056983158D01*
X0060129270Y0056978627D01*
X0060064726Y0056896753D01*
X0059998181Y0056812342D01*
X0059896905Y0056619845D01*
X0059832403Y0056412118D01*
X0059806837Y0056196113D01*
X0059821063Y0055979067D01*
X0059822484Y0055973471D01*
X0059822485Y0055973466D01*
X0059855874Y0055841998D01*
X0059874605Y0055768247D01*
X0059965668Y0055570715D01*
X0060091204Y0055393086D01*
X0060095346Y0055389050D01*
X0060234741Y0055253259D01*
X0060269579Y0055191398D01*
X0060265442Y0055120522D01*
X0060229899Y0055068274D01*
X0060132842Y0054983158D01*
X0060129270Y0054978627D01*
X0060064726Y0054896753D01*
X0059998181Y0054812342D01*
X0059896905Y0054619845D01*
X0059832403Y0054412118D01*
X0059806837Y0054196113D01*
X0059821063Y0053979067D01*
X0059874605Y0053768247D01*
X0059965668Y0053570715D01*
X0060091204Y0053393086D01*
X0060095346Y0053389050D01*
X0060234741Y0053253259D01*
X0060269579Y0053191398D01*
X0060265442Y0053120522D01*
X0060229899Y0053068274D01*
X0060132842Y0052983158D01*
X0060129270Y0052978627D01*
X0060064726Y0052896753D01*
X0059998181Y0052812342D01*
X0059896905Y0052619845D01*
X0059832403Y0052412118D01*
X0059806837Y0052196113D01*
X0059821063Y0051979067D01*
X0059833013Y0051932015D01*
X0059830395Y0051861068D01*
X0059789835Y0051802798D01*
X0059724211Y0051775706D01*
X0059710890Y0051775000D01*
X0059634000Y0051775000D01*
X0059565879Y0051795002D01*
X0059519386Y0051848658D01*
X0059508000Y0051901000D01*
X0059508000Y0072422201D01*
X0059840218Y0072422201D01*
X0059846950Y0072419000D01*
X0060722885Y0072419000D01*
X0060738124Y0072423475D01*
X0060739329Y0072424865D01*
X0060741000Y0072432548D01*
X0060741000Y0072437115D01*
X0061249000Y0072437115D01*
X0061253475Y0072421876D01*
X0061254865Y0072420671D01*
X0061262548Y0072419000D01*
X0062134485Y0072419000D01*
X0062148016Y0072422973D01*
X0062149185Y0072431108D01*
X0062148571Y0072433284D01*
X0062475352Y0072433284D01*
X0062476820Y0072422992D01*
X0062490385Y0072419000D01*
X0063582885Y0072419000D01*
X0063598124Y0072423475D01*
X0063599329Y0072424865D01*
X0063601000Y0072432548D01*
X0063601000Y0072437115D01*
X0064108999Y0072437115D01*
X0064113474Y0072421876D01*
X0064114864Y0072420671D01*
X0064122547Y0072419000D01*
X0065215402Y0072419000D01*
X0065228933Y0072422973D01*
X0065230288Y0072432399D01*
X0065208805Y0072521537D01*
X0065204916Y0072532832D01*
X0065122371Y0072714382D01*
X0065116423Y0072724724D01*
X0065001031Y0072887397D01*
X0064993239Y0072896425D01*
X0064849169Y0073034342D01*
X0064839799Y0073041742D01*
X0064811978Y0073059705D01*
X0064765601Y0073113460D01*
X0064755646Y0073183756D01*
X0064785278Y0073248273D01*
X0064802493Y0073264643D01*
X0064917857Y0073355262D01*
X0064926506Y0073363499D01*
X0065057211Y0073514123D01*
X0065064147Y0073523847D01*
X0065164010Y0073696467D01*
X0065168983Y0073707331D01*
X0065234407Y0073895727D01*
X0065234647Y0073896716D01*
X0065233180Y0073907008D01*
X0065219615Y0073911000D01*
X0064127115Y0073911000D01*
X0064111875Y0073906525D01*
X0064110671Y0073905135D01*
X0064108999Y0073897452D01*
X0064108999Y0072437115D01*
X0063601000Y0072437115D01*
X0063601000Y0073892885D01*
X0063596525Y0073908124D01*
X0063595135Y0073909329D01*
X0063587452Y0073911000D01*
X0062494598Y0073911000D01*
X0062481067Y0073907027D01*
X0062479712Y0073897601D01*
X0062501194Y0073808463D01*
X0062505083Y0073797168D01*
X0062587629Y0073615618D01*
X0062593576Y0073605276D01*
X0062708968Y0073442603D01*
X0062716761Y0073433575D01*
X0062860831Y0073295658D01*
X0062870201Y0073288258D01*
X0062898021Y0073270295D01*
X0062944399Y0073216540D01*
X0062954353Y0073146244D01*
X0062924722Y0073081727D01*
X0062907507Y0073065357D01*
X0062792143Y0072974738D01*
X0062783494Y0072966501D01*
X0062652788Y0072815877D01*
X0062645853Y0072806153D01*
X0062545990Y0072633533D01*
X0062541016Y0072622669D01*
X0062475593Y0072434273D01*
X0062475352Y0072433284D01*
X0062148571Y0072433284D01*
X0062105725Y0072585206D01*
X0062101603Y0072595945D01*
X0062010549Y0072780583D01*
X0062004538Y0072790392D01*
X0061881360Y0072955349D01*
X0061873671Y0072963889D01*
X0061755320Y0073073291D01*
X0061718875Y0073134220D01*
X0061721156Y0073205180D01*
X0061760280Y0073262689D01*
X0061830653Y0073321218D01*
X0061838782Y0073329347D01*
X0061970420Y0073487625D01*
X0061976944Y0073497118D01*
X0062077531Y0073676728D01*
X0062082210Y0073687237D01*
X0062148386Y0073882183D01*
X0062151017Y0073893143D01*
X0062149040Y0073907008D01*
X0062135474Y0073911000D01*
X0061267115Y0073911000D01*
X0061251876Y0073906525D01*
X0061250671Y0073905135D01*
X0061249000Y0073897452D01*
X0061249000Y0072437115D01*
X0060741000Y0072437115D01*
X0060741000Y0073892885D01*
X0060736525Y0073908124D01*
X0060735135Y0073909329D01*
X0060727452Y0073911000D01*
X0059856981Y0073911000D01*
X0059843450Y0073907027D01*
X0059842158Y0073898038D01*
X0059873656Y0073774015D01*
X0059877497Y0073763168D01*
X0059963685Y0073576211D01*
X0059969436Y0073566250D01*
X0060088254Y0073398127D01*
X0060095720Y0073389385D01*
X0060235477Y0073253239D01*
X0060270314Y0073191377D01*
X0060266177Y0073120501D01*
X0060230632Y0073068253D01*
X0060137552Y0072986624D01*
X0060129630Y0072978276D01*
X0060002180Y0072816606D01*
X0059995909Y0072806950D01*
X0059900060Y0072624771D01*
X0059895655Y0072614137D01*
X0059840436Y0072436300D01*
X0059840218Y0072422201D01*
X0059508000Y0072422201D01*
X0059508000Y0074678800D01*
X0059812794Y0074678800D01*
X0059831665Y0074662448D01*
X0059870049Y0074602721D01*
X0059869486Y0074529859D01*
X0059840436Y0074436300D01*
X0059840218Y0074422201D01*
X0059846950Y0074419000D01*
X0062134485Y0074419000D01*
X0062148016Y0074422973D01*
X0062149185Y0074431107D01*
X0062124510Y0074518598D01*
X0062125270Y0074589591D01*
X0062164291Y0074648901D01*
X0062229184Y0074677702D01*
X0062245779Y0074678800D01*
X0062383372Y0074678800D01*
X0062451493Y0074658798D01*
X0062497986Y0074605142D01*
X0062508090Y0074534868D01*
X0062502399Y0074511466D01*
X0062475595Y0074434279D01*
X0062475352Y0074433284D01*
X0062476820Y0074422992D01*
X0062490385Y0074419000D01*
X0065215402Y0074419000D01*
X0065228933Y0074422973D01*
X0065230288Y0074432399D01*
X0065208805Y0074521537D01*
X0065204916Y0074532832D01*
X0065186051Y0074574325D01*
X0065176064Y0074644616D01*
X0065205664Y0074709147D01*
X0065251225Y0074742334D01*
X0068219464Y0076011200D01*
X0068377064Y0076078571D01*
X0068447564Y0076086955D01*
X0068479843Y0076076907D01*
X0068483424Y0076075237D01*
X0068637710Y0076024062D01*
X0068651085Y0076021195D01*
X0068745438Y0076011528D01*
X0068751854Y0076011200D01*
X0068864385Y0076011200D01*
X0068879624Y0076015675D01*
X0068880829Y0076017065D01*
X0068882500Y0076024748D01*
X0068882500Y0076029316D01*
X0069390500Y0076029316D01*
X0069394975Y0076014077D01*
X0069396365Y0076012872D01*
X0069404048Y0076011201D01*
X0069521095Y0076011201D01*
X0069527614Y0076011538D01*
X0069623206Y0076021457D01*
X0069636600Y0076024349D01*
X0069790784Y0076075788D01*
X0069803962Y0076081961D01*
X0069941807Y0076167263D01*
X0069953208Y0076176299D01*
X0070067739Y0076291029D01*
X0070076751Y0076302440D01*
X0070161816Y0076440443D01*
X0070167963Y0076453624D01*
X0070219138Y0076607910D01*
X0070222005Y0076621286D01*
X0070231672Y0076715638D01*
X0070232000Y0076722054D01*
X0070232000Y0076972085D01*
X0070227525Y0076987324D01*
X0070226135Y0076988529D01*
X0070218452Y0076990200D01*
X0069408615Y0076990200D01*
X0069393376Y0076985725D01*
X0069392171Y0076984335D01*
X0069390500Y0076976652D01*
X0069390500Y0076029316D01*
X0068882500Y0076029316D01*
X0068882500Y0077516315D01*
X0069390500Y0077516315D01*
X0069394975Y0077501076D01*
X0069396365Y0077499871D01*
X0069404048Y0077498200D01*
X0070213884Y0077498200D01*
X0070229123Y0077502675D01*
X0070230328Y0077504065D01*
X0070231999Y0077511748D01*
X0070231999Y0077766295D01*
X0070231662Y0077772814D01*
X0070221743Y0077868406D01*
X0070218851Y0077881800D01*
X0070167412Y0078035984D01*
X0070161239Y0078049162D01*
X0070075937Y0078187007D01*
X0070066901Y0078198408D01*
X0069952171Y0078312939D01*
X0069940760Y0078321951D01*
X0069802757Y0078407016D01*
X0069789576Y0078413163D01*
X0069635290Y0078464338D01*
X0069621914Y0078467205D01*
X0069527562Y0078476872D01*
X0069521145Y0078477200D01*
X0069408615Y0078477200D01*
X0069393376Y0078472725D01*
X0069392171Y0078471335D01*
X0069390500Y0078463652D01*
X0069390500Y0077516315D01*
X0068882500Y0077516315D01*
X0068882500Y0078459084D01*
X0068878025Y0078474323D01*
X0068876635Y0078475528D01*
X0068868952Y0078477199D01*
X0068751905Y0078477199D01*
X0068745386Y0078476862D01*
X0068649794Y0078466943D01*
X0068636400Y0078464051D01*
X0068580939Y0078445548D01*
X0068509989Y0078442964D01*
X0068448905Y0078479148D01*
X0068435486Y0078502693D01*
X0068430000Y0078507447D01*
X0068430000Y0078514200D01*
X0068418329Y0078517560D01*
X0066789523Y0078986459D01*
X0065308790Y0079412730D01*
X0065248861Y0079450797D01*
X0065219026Y0079515221D01*
X0065224053Y0079573480D01*
X0065250631Y0079653611D01*
X0065250631Y0079653613D01*
X0065252797Y0079660139D01*
X0065263499Y0079764600D01*
X0065263499Y0080565400D01*
X0065252526Y0080671166D01*
X0065196550Y0080838946D01*
X0065103477Y0080989348D01*
X0064978303Y0081114305D01*
X0064972072Y0081118146D01*
X0064833968Y0081203275D01*
X0064833966Y0081203276D01*
X0064827738Y0081207115D01*
X0064667254Y0081260345D01*
X0064666388Y0081260632D01*
X0064666387Y0081260632D01*
X0064659861Y0081262797D01*
X0064653025Y0081263497D01*
X0064653021Y0081263498D01*
X0064609969Y0081267909D01*
X0064555400Y0081273500D01*
X0063154600Y0081273500D01*
X0063151354Y0081273163D01*
X0063151350Y0081273163D01*
X0063055692Y0081263238D01*
X0063055688Y0081263237D01*
X0063048834Y0081262526D01*
X0063042298Y0081260345D01*
X0063042296Y0081260345D01*
X0062910194Y0081216272D01*
X0062881054Y0081206550D01*
X0062730652Y0081113478D01*
X0062605695Y0080988303D01*
X0062601855Y0080982073D01*
X0062601854Y0080982072D01*
X0062525611Y0080858384D01*
X0062472838Y0080810890D01*
X0062418351Y0080798500D01*
X0062301291Y0080798500D01*
X0062233170Y0080818502D01*
X0062186677Y0080872158D01*
X0062176028Y0080910892D01*
X0062172598Y0080942460D01*
X0062171745Y0080950316D01*
X0062120615Y0081086705D01*
X0062033261Y0081203261D01*
X0061916705Y0081290615D01*
X0061780316Y0081341745D01*
X0061718134Y0081348500D01*
X0060271866Y0081348500D01*
X0060209684Y0081341745D01*
X0060073295Y0081290615D01*
X0059956739Y0081203261D01*
X0059869385Y0081086705D01*
X0059818255Y0080950316D01*
X0059811500Y0080888134D01*
X0059811500Y0079509281D01*
X0059808621Y0079482499D01*
X0059807947Y0079479400D01*
X0059508000Y0079479400D01*
X0059508000Y0083366000D01*
X0059528002Y0083434121D01*
X0059581658Y0083480614D01*
X0059634000Y0083492000D01*
X0061969162Y0083492000D01*
X0062006129Y0083486455D01*
G37*
G04 #@! TD.AperFunction*
G04 #@! TA.AperFunction,Conductor*
G36*
X0064335701Y0078699317D02*
G01*
X0066438999Y0077984132D01*
X0066439002Y0077984132D01*
X0066448800Y0077980800D01*
X0067493354Y0077980800D01*
X0067561475Y0077960798D01*
X0067607968Y0077907142D01*
X0067619335Y0077856972D01*
X0067640390Y0076635772D01*
X0067621566Y0076567317D01*
X0067568719Y0076519906D01*
X0067514409Y0076507600D01*
X0066474199Y0076507600D01*
X0064365261Y0075578663D01*
X0064313654Y0075567975D01*
X0060559953Y0075592387D01*
X0060491964Y0075612831D01*
X0060445821Y0075666788D01*
X0060434773Y0075718155D01*
X0060429616Y0078556403D01*
X0060449494Y0078624560D01*
X0060503066Y0078671150D01*
X0060554827Y0078682630D01*
X0063047840Y0078698225D01*
X0064294349Y0078706023D01*
X0064335701Y0078699317D01*
G37*
G04 #@! TD.AperFunction*
G04 #@! TA.AperFunction,Conductor*
G36*
X0059805000Y0074495000D02*
G01*
X0059500000Y0074495000D01*
X0059500000Y0079775000D01*
X0059805000Y0079775000D01*
X0059805000Y0074495000D01*
G37*
G04 #@! TD.AperFunction*
M02*