G04 #@! TF.GenerationSoftware,KiCad,Pcbnew,(6.0.1)*
G04 #@! TF.CreationDate,2022-07-05T00:42:15-07:00*
G04 #@! TF.ProjectId,mu100-dit,6d753130-302d-4646-9974-2e6b69636164,rev?*
G04 #@! TF.SameCoordinates,PX4a25ef0PY4c3f880*
G04 #@! TF.FileFunction,Copper,L1,Top*
G04 #@! TF.FilePolarity,Positive*
%FSLAX46Y46*%
G04 Gerber Fmt 4.6, Leading zero omitted, Abs format (unit mm)*
G04 Created by KiCad (PCBNEW (6.0.1)) date 2022-07-05 00:42:15*
%MOMM*%
%LPD*%
G01*
G04 APERTURE LIST*
G04 Aperture macros list*
%AMRoundRect*
4,1,4,2,3,4,5,6,7,8,9,2,3,0*
1,1,$1,$2,$3*
1,1,$1,$2,$3*
1,1,$1,$2,$3*
1,1,$1,$2,$3*
20,1,$1,$2,$3,$4,$5,0*
20,1,$1,$2,$3,$4,$5,0*
20,1,$1,$2,$3,$4,$5,0*
20,1,$1,$2,$3,$4,$5,0*%
G04 Aperture macros list end*
G04 #@! TA.AperFunction,SMDPad,CuDef*
%AMCOMP16*
4,1,3,
-0.3375,-0.475,
0.3375,-0.475,
0.3375,0.475,
-0.3375,0.475,
0*
4,1,19,
-0.3375,-0.22499999999999998,
-0.26024575140626316,-0.2372358709262116,
-0.19055368692688174,-0.27274575140626311,
-0.13524575140626316,-0.32805368692688169,
-0.099735870926211639,-0.39774575140626311,
-0.087500000000000022,-0.475,
-0.099735870926211612,-0.55225424859373684,
-0.13524575140626316,-0.62194631307311821,
-0.19055368692688171,-0.67725424859373684,
-0.26024575140626316,-0.71276412907378839,
-0.33749999999999997,-0.725,
-0.41475424859373694,-0.71276412907378839,
-0.48444631307311825,-0.67725424859373684,
-0.53975424859373689,-0.62194631307311832,
-0.57526412907378843,-0.55225424859373684,
-0.5875,-0.47500000000000003,
-0.57526412907378843,-0.39774575140626317,
-0.53975424859373689,-0.32805368692688175,
-0.48444631307311836,-0.27274575140626311,
-0.41475424859373694,-0.2372358709262116,
0*
4,1,19,
0.3375,-0.22499999999999998,
0.41475424859373689,-0.2372358709262116,
0.48444631307311831,-0.27274575140626311,
0.53975424859373689,-0.32805368692688169,
0.57526412907378843,-0.39774575140626311,
0.5875,-0.475,
0.57526412907378843,-0.55225424859373684,
0.53975424859373689,-0.62194631307311821,
0.48444631307311836,-0.67725424859373684,
0.41475424859373689,-0.71276412907378839,
0.33750000000000008,-0.725,
0.2602457514062631,-0.71276412907378839,
0.19055368692688177,-0.67725424859373684,
0.13524575140626319,-0.62194631307311832,
0.099735870926211639,-0.55225424859373684,
0.087500000000000022,-0.47500000000000003,
0.099735870926211612,-0.39774575140626317,
0.13524575140626313,-0.32805368692688175,
0.19055368692688168,-0.27274575140626311,
0.2602457514062631,-0.2372358709262116,
0*
4,1,19,
0.3375,0.725,
0.41475424859373689,0.71276412907378839,
0.48444631307311831,0.67725424859373684,
0.53975424859373689,0.62194631307311821,
0.57526412907378843,0.55225424859373684,
0.5875,0.475,
0.57526412907378843,0.39774575140626311,
0.53975424859373689,0.32805368692688175,
0.48444631307311836,0.27274575140626311,
0.41475424859373689,0.2372358709262116,
0.33750000000000008,0.22499999999999998,
0.2602457514062631,0.2372358709262116,
0.19055368692688177,0.27274575140626311,
0.13524575140626319,0.32805368692688164,
0.099735870926211639,0.39774575140626311,
0.087500000000000022,0.47499999999999992,
0.099735870926211612,0.55225424859373673,
0.13524575140626313,0.62194631307311821,
0.19055368692688168,0.67725424859373684,
0.2602457514062631,0.71276412907378839,
0*
4,1,19,
-0.3375,0.725,
-0.26024575140626316,0.71276412907378839,
-0.19055368692688174,0.67725424859373684,
-0.13524575140626316,0.62194631307311821,
-0.099735870926211639,0.55225424859373684,
-0.087500000000000022,0.475,
-0.099735870926211612,0.39774575140626311,
-0.13524575140626316,0.32805368692688175,
-0.19055368692688171,0.27274575140626311,
-0.26024575140626316,0.2372358709262116,
-0.33749999999999997,0.22499999999999998,
-0.41475424859373694,0.2372358709262116,
-0.48444631307311825,0.27274575140626311,
-0.53975424859373689,0.32805368692688164,
-0.57526412907378843,0.39774575140626311,
-0.5875,0.47499999999999992,
-0.57526412907378843,0.55225424859373673,
-0.53975424859373689,0.62194631307311821,
-0.48444631307311836,0.67725424859373684,
-0.41475424859373694,0.71276412907378839,
0*
4,1,3,
-0.3375,-0.725,
-0.3375,-0.22499999999999998,
0.3375,-0.22499999999999998,
0.3375,-0.725,
0*
4,1,3,
0.5875,-0.475,
0.087500000000000022,-0.475,
0.087500000000000022,0.475,
0.5875,0.475,
0*
4,1,3,
0.3375,0.725,
0.3375,0.22499999999999998,
-0.3375,0.22499999999999998,
-0.3375,0.725,
0*
4,1,3,
-0.5875,0.475,
-0.087500000000000022,0.475,
-0.087500000000000022,-0.475,
-0.5875,-0.475,
0*%
%ADD10COMP16,0.25X-0.3375X-0.475X0.3375X-0.475X0.3375X0.475X-0.3375X0.475X0*%
G04 #@! TD*
G04 #@! TA.AperFunction,ComponentPad*
%AMCOMP17*
4,1,3,
-0.625,0.35,
-0.625,-0.35,
0.625,-0.35,
0.625,0.35,
0*
4,1,19,
-0.625,0.6,
-0.54774575140626314,0.58776412907378839,
-0.47805368692688172,0.55225424859373684,
-0.42274575140626314,0.49694631307311826,
-0.38723587092621159,0.42725424859373684,
-0.375,0.35,
-0.38723587092621159,0.27274575140626311,
-0.42274575140626314,0.20305368692688172,
-0.47805368692688166,0.14774575140626314,
-0.54774575140626314,0.1122358709262116,
-0.625,0.099999999999999978,
-0.702254248593737,0.1122358709262116,
-0.77194631307311823,0.14774575140626309,
-0.82725424859373686,0.20305368692688167,
-0.86276412907378841,0.27274575140626311,
-0.875,0.34999999999999992,
-0.86276412907378841,0.42725424859373679,
-0.82725424859373686,0.49694631307311821,
-0.77194631307311834,0.55225424859373684,
-0.70225424859373686,0.58776412907378839,
0*
4,1,19,
-0.625,-0.099999999999999978,
-0.54774575140626314,-0.1122358709262116,
-0.47805368692688172,-0.14774575140626311,
-0.42274575140626314,-0.20305368692688169,
-0.38723587092621159,-0.27274575140626311,
-0.375,-0.35,
-0.38723587092621159,-0.42725424859373684,
-0.42274575140626314,-0.49694631307311821,
-0.47805368692688166,-0.55225424859373684,
-0.54774575140626314,-0.58776412907378839,
-0.625,-0.6,
-0.702254248593737,-0.58776412907378839,
-0.77194631307311823,-0.55225424859373684,
-0.82725424859373686,-0.49694631307311832,
-0.86276412907378841,-0.42725424859373684,
-0.875,-0.35000000000000003,
-0.86276412907378841,-0.27274575140626317,
-0.82725424859373686,-0.20305368692688175,
-0.77194631307311834,-0.14774575140626314,
-0.70225424859373686,-0.1122358709262116,
0*
4,1,19,
0.625,-0.099999999999999978,
0.70225424859373686,-0.1122358709262116,
0.77194631307311834,-0.14774575140626311,
0.82725424859373686,-0.20305368692688169,
0.86276412907378841,-0.27274575140626311,
0.875,-0.35,
0.86276412907378841,-0.42725424859373684,
0.82725424859373686,-0.49694631307311821,
0.77194631307311834,-0.55225424859373684,
0.70225424859373686,-0.58776412907378839,
0.625,-0.6,
0.547745751406263,-0.58776412907378839,
0.47805368692688177,-0.55225424859373684,
0.42274575140626314,-0.49694631307311832,
0.38723587092621159,-0.42725424859373684,
0.375,-0.35000000000000003,
0.38723587092621159,-0.27274575140626317,
0.42274575140626314,-0.20305368692688175,
0.47805368692688166,-0.14774575140626314,
0.54774575140626314,-0.1122358709262116,
0*
4,1,19,
0.625,0.6,
0.70225424859373686,0.58776412907378839,
0.77194631307311834,0.55225424859373684,
0.82725424859373686,0.49694631307311826,
0.86276412907378841,0.42725424859373684,
0.875,0.35,
0.86276412907378841,0.27274575140626311,
0.82725424859373686,0.20305368692688172,
0.77194631307311834,0.14774575140626314,
0.70225424859373686,0.1122358709262116,
0.625,0.099999999999999978,
0.547745751406263,0.1122358709262116,
0.47805368692688177,0.14774575140626309,
0.42274575140626314,0.20305368692688167,
0.38723587092621159,0.27274575140626311,
0.375,0.34999999999999992,
0.38723587092621159,0.42725424859373679,
0.42274575140626314,0.49694631307311821,
0.47805368692688166,0.55225424859373684,
0.54774575140626314,0.58776412907378839,
0*
4,1,3,
-0.875,0.35,
-0.375,0.35,
-0.375,-0.35,
-0.875,-0.35,
0*
4,1,3,
-0.625,-0.6,
-0.625,-0.099999999999999978,
0.625,-0.099999999999999978,
0.625,-0.6,
0*
4,1,3,
0.875,-0.35,
0.375,-0.35,
0.375,0.35,
0.875,0.35,
0*
4,1,3,
0.625,0.6,
0.625,0.099999999999999978,
-0.625,0.099999999999999978,
-0.625,0.6,
0*%
%ADD11COMP17,0.25X-0.625X0.35X-0.625X-0.35X0.625X-0.35X0.625X0.35X0*%
G04 #@! TD*
G04 #@! TA.AperFunction,ComponentPad*
%ADD12O,1.75X1.2*%
G04 #@! TD*
G04 #@! TA.AperFunction,SMDPad,CuDef*
%AMCOMP18*
4,1,3,
-0.6375,-0.1,
0.6375,-0.1,
0.6375,0.1,
-0.6375,0.1,
0*
4,1,19,
-0.6375,0,
-0.60659830056250519,-0.00489434837048465,
-0.57872147477075264,-0.019098300562505249,
-0.55659830056250525,-0.041221474770752692,
-0.54239434837048461,-0.069098300562505266,
-0.5375,-0.1,
-0.54239434837048461,-0.13090169943749475,
-0.55659830056250525,-0.15877852522924732,
-0.57872147477075264,-0.18090169943749473,
-0.60659830056250519,-0.19510565162951538,
-0.6375,-0.2,
-0.66840169943749472,-0.19510565162951538,
-0.69627852522924727,-0.18090169943749476,
-0.71840169943749466,-0.15877852522924735,
-0.7326056516295153,-0.13090169943749477,
-0.73749999999999993,-0.10000000000000002,
-0.7326056516295153,-0.06909830056250528,
-0.71840169943749466,-0.041221474770752713,
-0.69627852522924727,-0.019098300562505263,
-0.66840169943749472,-0.00489434837048465,
0*
4,1,19,
0.6375,0,
0.66840169943749472,-0.00489434837048465,
0.69627852522924727,-0.019098300562505249,
0.71840169943749466,-0.041221474770752692,
0.7326056516295153,-0.069098300562505266,
0.73749999999999993,-0.1,
0.7326056516295153,-0.13090169943749475,
0.71840169943749466,-0.15877852522924732,
0.69627852522924727,-0.18090169943749473,
0.66840169943749472,-0.19510565162951538,
0.6375,-0.2,
0.60659830056250519,-0.19510565162951538,
0.57872147477075264,-0.18090169943749476,
0.55659830056250525,-0.15877852522924735,
0.54239434837048461,-0.13090169943749477,
0.5375,-0.10000000000000002,
0.54239434837048461,-0.06909830056250528,
0.55659830056250525,-0.041221474770752713,
0.57872147477075264,-0.019098300562505263,
0.60659830056250519,-0.00489434837048465,
0*
4,1,19,
0.6375,0.2,
0.66840169943749472,0.19510565162951538,
0.69627852522924727,0.18090169943749476,
0.71840169943749466,0.15877852522924732,
0.7326056516295153,0.13090169943749475,
0.73749999999999993,0.1,
0.7326056516295153,0.069098300562505266,
0.71840169943749466,0.0412214747707527,
0.69627852522924727,0.019098300562505263,
0.66840169943749472,0.00489434837048465,
0.6375,0,
0.60659830056250519,0.00489434837048465,
0.57872147477075264,0.019098300562505249,
0.55659830056250525,0.041221474770752678,
0.54239434837048461,0.069098300562505252,
0.5375,0.099999999999999992,
0.54239434837048461,0.13090169943749475,
0.55659830056250525,0.15877852522924729,
0.57872147477075264,0.18090169943749473,
0.60659830056250519,0.19510565162951538,
0*
4,1,19,
-0.6375,0.2,
-0.60659830056250519,0.19510565162951538,
-0.57872147477075264,0.18090169943749476,
-0.55659830056250525,0.15877852522924732,
-0.54239434837048461,0.13090169943749475,
-0.5375,0.1,
-0.54239434837048461,0.069098300562505266,
-0.55659830056250525,0.0412214747707527,
-0.57872147477075264,0.019098300562505263,
-0.60659830056250519,0.00489434837048465,
-0.6375,0,
-0.66840169943749472,0.00489434837048465,
-0.69627852522924727,0.019098300562505249,
-0.71840169943749466,0.041221474770752678,
-0.7326056516295153,0.069098300562505252,
-0.73749999999999993,0.099999999999999992,
-0.7326056516295153,0.13090169943749475,
-0.71840169943749466,0.15877852522924729,
-0.69627852522924727,0.18090169943749473,
-0.66840169943749472,0.19510565162951538,
0*
4,1,3,
-0.6375,-0.2,
-0.6375,0,
0.6375,0,
0.6375,-0.2,
0*
4,1,3,
0.73749999999999993,-0.1,
0.5375,-0.1,
0.5375,0.1,
0.73749999999999993,0.1,
0*
4,1,3,
0.6375,0.2,
0.6375,0,
-0.6375,0,
-0.6375,0.2,
0*
4,1,3,
-0.73749999999999993,0.1,
-0.5375,0.1,
-0.5375,-0.1,
-0.73749999999999993,-0.1,
0*%
%ADD13COMP18,0.1X-0.6375X-0.1X0.6375X-0.1X0.6375X0.1X-0.6375X0.1X0*%
G04 #@! TD*
G04 #@! TA.AperFunction,ConnectorPad*
%ADD14C,5.7*%
G04 #@! TD*
G04 #@! TA.AperFunction,ComponentPad*
%ADD15C,3.6*%
G04 #@! TD*
G04 #@! TA.AperFunction,ComponentPad*
%ADD16C,1.524*%
G04 #@! TD*
G04 #@! TA.AperFunction,SMDPad,CuDef*
%ADD17R,1.9X0.8*%
G04 #@! TD*
G04 #@! TA.AperFunction,SMDPad,CuDef*
%AMCOMP19*
4,1,3,
0.3375,0.475,
-0.3375,0.475,
-0.3375,-0.475,
0.3375,-0.475,
0*
4,1,19,
0.3375,0.725,
0.41475424859373689,0.71276412907378839,
0.48444631307311831,0.67725424859373684,
0.53975424859373689,0.62194631307311821,
0.57526412907378843,0.55225424859373684,
0.5875,0.475,
0.57526412907378843,0.39774575140626311,
0.53975424859373689,0.32805368692688175,
0.48444631307311836,0.27274575140626311,
0.41475424859373689,0.2372358709262116,
0.33750000000000008,0.22499999999999998,
0.2602457514062631,0.2372358709262116,
0.19055368692688177,0.27274575140626311,
0.13524575140626319,0.32805368692688164,
0.099735870926211639,0.39774575140626311,
0.087500000000000022,0.47499999999999992,
0.099735870926211612,0.55225424859373673,
0.13524575140626313,0.62194631307311821,
0.19055368692688168,0.67725424859373684,
0.2602457514062631,0.71276412907378839,
0*
4,1,19,
-0.3375,0.725,
-0.26024575140626316,0.71276412907378839,
-0.19055368692688174,0.67725424859373684,
-0.13524575140626316,0.62194631307311821,
-0.099735870926211639,0.55225424859373684,
-0.087500000000000022,0.475,
-0.099735870926211612,0.39774575140626311,
-0.13524575140626316,0.32805368692688175,
-0.19055368692688171,0.27274575140626311,
-0.26024575140626316,0.2372358709262116,
-0.33749999999999997,0.22499999999999998,
-0.41475424859373694,0.2372358709262116,
-0.48444631307311825,0.27274575140626311,
-0.53975424859373689,0.32805368692688164,
-0.57526412907378843,0.39774575140626311,
-0.5875,0.47499999999999992,
-0.57526412907378843,0.55225424859373673,
-0.53975424859373689,0.62194631307311821,
-0.48444631307311836,0.67725424859373684,
-0.41475424859373694,0.71276412907378839,
0*
4,1,19,
-0.3375,-0.22499999999999998,
-0.26024575140626316,-0.2372358709262116,
-0.19055368692688174,-0.27274575140626311,
-0.13524575140626316,-0.32805368692688169,
-0.099735870926211639,-0.39774575140626311,
-0.087500000000000022,-0.475,
-0.099735870926211612,-0.55225424859373684,
-0.13524575140626316,-0.62194631307311821,
-0.19055368692688171,-0.67725424859373684,
-0.26024575140626316,-0.71276412907378839,
-0.33749999999999997,-0.725,
-0.41475424859373694,-0.71276412907378839,
-0.48444631307311825,-0.67725424859373684,
-0.53975424859373689,-0.62194631307311832,
-0.57526412907378843,-0.55225424859373684,
-0.5875,-0.47500000000000003,
-0.57526412907378843,-0.39774575140626317,
-0.53975424859373689,-0.32805368692688175,
-0.48444631307311836,-0.27274575140626311,
-0.41475424859373694,-0.2372358709262116,
0*
4,1,19,
0.3375,-0.22499999999999998,
0.41475424859373689,-0.2372358709262116,
0.48444631307311831,-0.27274575140626311,
0.53975424859373689,-0.32805368692688169,
0.57526412907378843,-0.39774575140626311,
0.5875,-0.475,
0.57526412907378843,-0.55225424859373684,
0.53975424859373689,-0.62194631307311821,
0.48444631307311836,-0.67725424859373684,
0.41475424859373689,-0.71276412907378839,
0.33750000000000008,-0.725,
0.2602457514062631,-0.71276412907378839,
0.19055368692688177,-0.67725424859373684,
0.13524575140626319,-0.62194631307311832,
0.099735870926211639,-0.55225424859373684,
0.087500000000000022,-0.47500000000000003,
0.099735870926211612,-0.39774575140626317,
0.13524575140626313,-0.32805368692688175,
0.19055368692688168,-0.27274575140626311,
0.2602457514062631,-0.2372358709262116,
0*
4,1,3,
0.3375,0.725,
0.3375,0.22499999999999998,
-0.3375,0.22499999999999998,
-0.3375,0.725,
0*
4,1,3,
-0.5875,0.475,
-0.087500000000000022,0.475,
-0.087500000000000022,-0.475,
-0.5875,-0.475,
0*
4,1,3,
-0.3375,-0.725,
-0.3375,-0.22499999999999998,
0.3375,-0.22499999999999998,
0.3375,-0.725,
0*
4,1,3,
0.5875,-0.475,
0.087500000000000022,-0.475,
0.087500000000000022,0.475,
0.5875,0.475,
0*%
%ADD18COMP19,0.25X0.3375X0.475X-0.3375X0.475X-0.3375X-0.475X0.3375X-0.475X0*%
G04 #@! TD*
G04 #@! TA.AperFunction,ComponentPad*
%ADD19R,1.7X1.7*%
G04 #@! TD*
G04 #@! TA.AperFunction,ComponentPad*
%ADD20O,1.7X1.7*%
G04 #@! TD*
G04 #@! TA.AperFunction,ViaPad*
%ADD21C,0.8*%
G04 #@! TD*
G04 #@! TA.AperFunction,ViaPad*
%ADD22C,0.6*%
G04 #@! TD*
G04 #@! TA.AperFunction,Conductor*
%ADD23C,0.25*%
G04 #@! TD*
G04 #@! TA.AperFunction,Conductor*
%ADD24C,0.4*%
G04 #@! TD*
G04 #@! TA.AperFunction,Conductor*
%ADD25C,0.6*%
G04 #@! TD*
G04 #@! TA.AperFunction,Conductor*
%ADD26C,0.5*%
G04 #@! TD*
G04 #@! TA.AperFunction,Conductor*
%ADD27C,0.254*%
G04 #@! TD*
G04 APERTURE END LIST*
D10*
X0000000000Y0040000000D02*
X0003542500Y0002725000D03*
X0005617500Y0002725000D03*
D11*
X0003280000Y0029380000D03*
D12*
X0003280000Y0027380000D03*
X0003280000Y0025380000D03*
X0003280000Y0023380000D03*
X0003280000Y0021380000D03*
X0003280000Y0019380000D03*
X0003280000Y0017380000D03*
X0003280000Y0015379999D03*
X0003280000Y0013379999D03*
X0003280000Y0011379999D03*
D13*
X0007989500Y0016538573D03*
X0007989500Y0015888573D03*
X0007989500Y0015238572D03*
X0007989500Y0014588573D03*
X0007989500Y0013938573D03*
X0007989500Y0013288573D03*
X0007989500Y0012638573D03*
X0007989500Y0011988572D03*
X0007989500Y0011338573D03*
X0007989500Y0010688573D03*
X0007989500Y0010038573D03*
X0007989500Y0009388573D03*
X0015414500Y0009388573D03*
X0015414500Y0010038573D03*
X0015414500Y0010688573D03*
X0015414500Y0011338573D03*
X0015414500Y0011988572D03*
X0015414500Y0012638573D03*
X0015414500Y0013288573D03*
X0015414500Y0013938573D03*
X0015414500Y0014588573D03*
X0015414500Y0015238572D03*
X0015414500Y0015888573D03*
X0015414500Y0016538573D03*
D14*
X0013600000Y0036500000D03*
D15*
X0013600000Y0036500000D03*
D16*
X0008870000Y0028689999D03*
X0008870000Y0026150000D03*
X0008870000Y0023610000D03*
D10*
X0013458500Y0018812000D03*
X0015533500Y0018812000D03*
D17*
X0003080000Y0007250000D03*
X0003080000Y0005350000D03*
X0006080000Y0006299999D03*
D18*
X0009945500Y0018812000D03*
X0007870500Y0018812000D03*
D14*
X0013600000Y0003500000D03*
D15*
X0013600000Y0003500000D03*
D19*
X0003160000Y0034277000D03*
D20*
X0003160000Y0036817000D03*
D21*
X0009450000Y0020670000D03*
X0005100000Y0025070000D03*
X0006310000Y0027410000D03*
X0009910000Y0032030000D03*
X0011320000Y0024600000D03*
X0007220000Y0021200000D03*
X0011380000Y0027250000D03*
X0008250000Y0030320000D03*
D22*
X0005510000Y0008629999D03*
X0006266400Y0015814800D03*
X0010139978Y0013122399D03*
X0010127200Y0012207999D03*
X0010135439Y0011200239D03*
X0010127200Y0010277600D03*
X0013480000Y0014367000D03*
X0014287242Y0015213073D03*
X0014089600Y0017110200D03*
X0013175200Y0010948500D03*
X0014165800Y0011573000D03*
D23*
X0006277427Y0014588573D02*
X0007989500Y0014588573D01*
X0005352000Y0015514000D02*
X0006277427Y0014588573D01*
X0005352000Y0021308000D02*
X0005352000Y0015514000D01*
X0003280000Y0023380000D02*
X0005352000Y0021308000D01*
D24*
X0005905000Y0010050000D02*
X0002405000Y0010050000D01*
X0009241427Y0015888573D02*
X0009380000Y0015750000D01*
X0010368573Y0009388573D02*
X0007989500Y0009388573D01*
X0007989500Y0016538573D02*
X0009380000Y0016538573D01*
X0000838000Y0015706000D02*
X0001542000Y0015001999D01*
X0012080000Y0011649999D02*
X0012080000Y0011100000D01*
X0003280000Y0021380000D02*
X0002077999Y0021380000D01*
X0000730000Y0020032000D02*
X0000730000Y0015930000D01*
X0014128573Y0012648572D02*
X0014925500Y0012648572D01*
X0001542000Y0010913000D02*
X0001542000Y0013478000D01*
X0010406573Y0009388573D02*
X0013418000Y0012399999D01*
X0003280000Y0025380000D02*
X0001506000Y0025380000D01*
X0001640000Y0013379999D02*
X0001542000Y0013478000D01*
X0001506000Y0025380000D02*
X0000730000Y0024604000D01*
X0007989500Y0009388573D02*
X0006566427Y0009388573D01*
X0007989500Y0015888573D02*
X0009241427Y0015888573D01*
X0013880000Y0012399999D02*
X0014128573Y0012648572D01*
X0013418000Y0012399999D02*
X0013880000Y0012399999D01*
X0000730000Y0015930000D02*
X0000838000Y0015822000D01*
X0009380000Y0015540000D02*
X0011160000Y0013760000D01*
X0002077999Y0021380000D02*
X0000730000Y0020032000D01*
X0011160000Y0013760000D02*
X0011160000Y0012520000D01*
X0000838000Y0015822000D02*
X0000838000Y0015706000D01*
X0006566427Y0009388573D02*
X0005905000Y0010050000D01*
X0009380000Y0015750000D02*
X0009380000Y0015540000D01*
X0001542000Y0015001999D02*
X0001542000Y0013478000D01*
X0012080000Y0011100000D02*
X0010368573Y0009388573D01*
X0002405000Y0010050000D02*
X0001542000Y0010913000D01*
X0002180000Y0017380000D02*
X0000730000Y0015930000D01*
X0000730000Y0024604000D02*
X0000730000Y0020032000D01*
X0009380000Y0016538573D02*
X0009380000Y0015750000D01*
X0003280000Y0017380000D02*
X0002180000Y0017380000D01*
X0011160000Y0012520000D02*
X0011980000Y0011700000D01*
X0003280000Y0013379999D02*
X0001640000Y0013379999D01*
D25*
X0016340000Y0024490000D02*
X0014940000Y0025890000D01*
X0008080000Y0026150000D02*
X0006280000Y0024350000D01*
X0016340000Y0019640000D02*
X0016340000Y0024490000D01*
D24*
X0005805000Y0006024999D02*
X0005805000Y0003037500D01*
X0016318573Y0011988572D02*
X0016568573Y0011988572D01*
X0016830000Y0008550000D02*
X0015680000Y0007399999D01*
D25*
X0008621000Y0026150000D02*
X0008080000Y0026150000D01*
D26*
X0016610000Y0011989999D02*
X0016810000Y0012190000D01*
D24*
X0005805000Y0003037500D02*
X0005617500Y0002850000D01*
X0016830000Y0011727146D02*
X0016830000Y0008550000D01*
X0016568573Y0011988572D02*
X0016830000Y0011727146D01*
D26*
X0016780000Y0012219999D02*
X0016780000Y0017311500D01*
D25*
X0006280000Y0024350000D02*
X0006280000Y0020402500D01*
D26*
X0016780000Y0017311500D02*
X0015279500Y0018812000D01*
D25*
X0015766000Y0019066000D02*
X0016340000Y0019640000D01*
D24*
X0016830000Y0011727146D02*
X0016830000Y0012170000D01*
X0016830000Y0012170000D02*
X0016810000Y0012190000D01*
X0006080000Y0006299999D02*
X0005805000Y0006024999D01*
X0016568573Y0011988572D02*
X0015414500Y0011988572D01*
D26*
X0016810000Y0012190000D02*
X0016780000Y0012219999D01*
D25*
X0014940000Y0025890000D02*
X0009130000Y0025890000D01*
D24*
X0007180000Y0007399999D02*
X0006080000Y0006299999D01*
D25*
X0006280000Y0020402500D02*
X0007870500Y0018812000D01*
D24*
X0015680000Y0007399999D02*
X0007180000Y0007399999D01*
D25*
X0009130000Y0025890000D02*
X0008870000Y0026150000D01*
D23*
X0005910357Y0012638573D02*
X0004651784Y0011379999D01*
X0007989500Y0012638573D02*
X0005910357Y0012638573D01*
X0004651784Y0011379999D02*
X0003280000Y0011379999D01*
X0004740000Y0017920000D02*
X0004740000Y0014852000D01*
X0003280000Y0019380000D02*
X0004740000Y0017920000D01*
X0005653427Y0013938573D02*
X0007989500Y0013938573D01*
X0004740000Y0014852000D02*
X0005653427Y0013938573D01*
X0006842627Y0015238572D02*
X0007989500Y0015238572D01*
X0004960000Y0008629999D02*
X0003580000Y0007250000D01*
X0005510000Y0008629999D02*
X0004960000Y0008629999D01*
X0006266400Y0015814800D02*
X0006842627Y0015238572D01*
X0003580000Y0007250000D02*
X0003080000Y0007250000D01*
X0008949662Y0011988572D02*
X0007989500Y0011988572D01*
X0010083489Y0013122399D02*
X0008949662Y0011988572D01*
X0010139978Y0013122399D02*
X0010083489Y0013122399D01*
X0010127200Y0012207999D02*
X0009804807Y0012207999D01*
X0009804807Y0012207999D02*
X0008935380Y0011338573D01*
X0008935380Y0011338573D02*
X0007989500Y0011338573D01*
X0010135439Y0011200239D02*
X0009930239Y0011200239D01*
X0009418573Y0010688573D02*
X0007989500Y0010688573D01*
X0009930239Y0011200239D02*
X0009418573Y0010688573D01*
X0010127200Y0010277600D02*
X0009888173Y0010038573D01*
X0009888173Y0010038573D02*
X0007989500Y0010038573D01*
X0012880000Y0013700000D02*
X0014488066Y0013700000D01*
X0011690000Y0019810000D02*
X0011690000Y0014890000D01*
X0014726639Y0013938573D02*
X0015414500Y0013938573D01*
X0011690000Y0014890000D02*
X0012880000Y0013700000D01*
X0009860000Y0021640000D02*
X0011690000Y0019810000D01*
X0014488066Y0013700000D02*
X0014726639Y0013938573D01*
X0009860000Y0023290000D02*
X0009860000Y0021640000D01*
X0008870000Y0023610000D02*
X0009540000Y0023610000D01*
X0009540000Y0023610000D02*
X0009860000Y0023290000D01*
X0013701573Y0014588573D02*
X0015414500Y0014588573D01*
X0013480000Y0014367000D02*
X0013701573Y0014588573D01*
X0014287242Y0015213073D02*
X0014312742Y0015238572D01*
X0014312742Y0015238572D02*
X0015414500Y0015238572D01*
X0014089600Y0017110200D02*
X0014089600Y0016540400D01*
X0014352480Y0016262732D02*
X0014726639Y0015888573D01*
X0014089600Y0016540400D02*
X0014352480Y0016277520D01*
X0014726639Y0015888573D02*
X0015414500Y0015888573D01*
X0014352480Y0016277520D02*
X0014352480Y0016262732D01*
X0013581500Y0010948500D02*
X0013841427Y0010688573D01*
X0013175200Y0010948500D02*
X0013581500Y0010948500D01*
X0013841427Y0010688573D02*
X0015414500Y0010688573D01*
X0003280000Y0015379999D02*
X0005371427Y0013288573D01*
X0005371427Y0013288573D02*
X0007989500Y0013288573D01*
X0014400227Y0011338573D02*
X0015414500Y0011338573D01*
X0014165800Y0011573000D02*
X0014400227Y0011338573D01*
D27*
X0011353366Y0039169089D02*
X0011342956Y0039160293D01*
X0011323004Y0039141491D01*
X0011287146Y0039080215D01*
X0011290108Y0039009281D01*
X0011320323Y0038960697D01*
X0013510905Y0036770115D01*
X0013573217Y0036736089D01*
X0013644032Y0036741154D01*
X0013689095Y0036770115D01*
X0015880073Y0038961093D01*
X0015914099Y0039023405D01*
X0015909034Y0039094220D01*
X0015877713Y0039141583D01*
X0015866318Y0039152397D01*
X0015855937Y0039161232D01*
X0015587140Y0039366000D01*
X0016966000Y0039366000D01*
X0016966000Y0037399684D01*
X0016908698Y0037606310D01*
X0016904352Y0037619226D01*
X0016769865Y0037957177D01*
X0016764147Y0037969548D01*
X0016593948Y0038290997D01*
X0016586931Y0038302678D01*
X0016383012Y0038603866D01*
X0016374772Y0038614721D01*
X0016243419Y0038769608D01*
X0016184104Y0038808625D01*
X0016113112Y0038809380D01*
X0016058228Y0038777208D01*
X0013870115Y0036589095D01*
X0013836089Y0036526783D01*
X0013841154Y0036455968D01*
X0013870115Y0036410905D01*
X0016058180Y0034222840D01*
X0016120491Y0034188814D01*
X0016191306Y0034193879D01*
X0016242799Y0034229770D01*
X0016359941Y0034365958D01*
X0016368255Y0034376756D01*
X0016574273Y0034676513D01*
X0016581373Y0034688145D01*
X0016753812Y0035008398D01*
X0016759615Y0035020729D01*
X0016896458Y0035357732D01*
X0016900894Y0035370617D01*
X0016966000Y0035599174D01*
X0016966000Y0025185899D01*
X0016939221Y0025212866D01*
X0016936644Y0025214938D01*
X0015607329Y0026544252D01*
X0015544252Y0026608665D01*
X0015522484Y0026626418D01*
X0015486050Y0026649898D01*
X0015452165Y0026676948D01*
X0015428395Y0026691917D01*
X0015398201Y0026706513D01*
X0015370018Y0026724676D01*
X0015344858Y0026737166D01*
X0015304122Y0026751993D01*
X0015265089Y0026770862D01*
X0015238595Y0026780192D01*
X0015205917Y0026787736D01*
X0015174410Y0026799204D01*
X0015147106Y0026805810D01*
X0015104091Y0026811244D01*
X0015061860Y0026820994D01*
X0015033955Y0026824223D01*
X0014993385Y0026824365D01*
X0014991231Y0026824500D01*
X0014954581Y0026824500D01*
X0014852570Y0026824856D01*
X0014849293Y0026824500D01*
X0010096343Y0026824500D01*
X0010088683Y0026840926D01*
X0010077701Y0026859947D01*
X0009950190Y0027042052D01*
X0009936072Y0027058875D01*
X0009778876Y0027216072D01*
X0009762052Y0027230190D01*
X0009579948Y0027357701D01*
X0009560927Y0027368683D01*
X0009450285Y0027420276D01*
X0009560676Y0027471752D01*
X0009579696Y0027482734D01*
X0009642875Y0027526972D01*
X0009687204Y0027582428D01*
X0009694513Y0027653048D01*
X0009659700Y0027719279D01*
X0008959095Y0028419885D01*
X0008896783Y0028453910D01*
X0008825968Y0028448846D01*
X0008780905Y0028419885D01*
X0008080299Y0027719279D01*
X0008046274Y0027656968D01*
X0008051339Y0027586153D01*
X0008097125Y0027526972D01*
X0008160304Y0027482734D01*
X0008179323Y0027471752D01*
X0008289714Y0027420276D01*
X0008179074Y0027368683D01*
X0008160053Y0027357701D01*
X0007977948Y0027230190D01*
X0007961124Y0027216072D01*
X0007803928Y0027058875D01*
X0007790812Y0027043247D01*
X0007767239Y0027035314D01*
X0007727944Y0027016991D01*
X0007687011Y0027002736D01*
X0007661679Y0026990600D01*
X0007633237Y0026972828D01*
X0007602848Y0026958657D01*
X0007578872Y0026944022D01*
X0007544618Y0026917452D01*
X0007507855Y0026894480D01*
X0007485839Y0026877031D01*
X0007457030Y0026848422D01*
X0007455435Y0026847016D01*
X0007429898Y0026821479D01*
X0007357134Y0026749221D01*
X0007355058Y0026746639D01*
X0005625748Y0025017330D01*
X0005561335Y0024954252D01*
X0005543582Y0024932484D01*
X0005520102Y0024896050D01*
X0005493052Y0024862164D01*
X0005478083Y0024838395D01*
X0005463487Y0024808201D01*
X0005445324Y0024780018D01*
X0005432834Y0024754858D01*
X0005418007Y0024714122D01*
X0005399138Y0024675089D01*
X0005389808Y0024648595D01*
X0005382264Y0024615917D01*
X0005370796Y0024584410D01*
X0005364190Y0024557105D01*
X0005358756Y0024514091D01*
X0005349006Y0024471860D01*
X0005345777Y0024443955D01*
X0005345635Y0024403385D01*
X0005345500Y0024401231D01*
X0005345500Y0024364581D01*
X0005345144Y0024262570D01*
X0005345500Y0024259293D01*
X0005345500Y0022388594D01*
X0004730956Y0023003138D01*
X0004755889Y0023074938D01*
X0004761557Y0023098191D01*
X0004791909Y0023307524D01*
X0004793078Y0023331430D01*
X0004783298Y0023542725D01*
X0004779926Y0023566420D01*
X0004730368Y0023772055D01*
X0004722576Y0023794685D01*
X0004635027Y0023987238D01*
X0004623096Y0024007987D01*
X0004500716Y0024180511D01*
X0004485077Y0024198629D01*
X0004332281Y0024344898D01*
X0004313498Y0024359733D01*
X0004280742Y0024380884D01*
X0004400407Y0024474882D01*
X0004417739Y0024491387D01*
X0004556308Y0024651073D01*
X0004570207Y0024670559D01*
X0004676080Y0024853568D01*
X0004686044Y0024875330D01*
X0004755401Y0025075057D01*
X0004761070Y0025098315D01*
X0004762463Y0025107925D01*
X0004752440Y0025178210D01*
X0004706009Y0025231918D01*
X0004637766Y0025252000D01*
X0001926483Y0025252000D01*
X0001858362Y0025231998D01*
X0001811869Y0025178342D01*
X0001801765Y0025108068D01*
X0001803990Y0025096479D01*
X0001830107Y0024988109D01*
X0001837899Y0024965479D01*
X0001925408Y0024773012D01*
X0001937339Y0024752263D01*
X0002059664Y0024579817D01*
X0002075303Y0024561699D01*
X0002228030Y0024415495D01*
X0002246813Y0024400661D01*
X0002279230Y0024379730D01*
X0002159247Y0024285482D01*
X0002141915Y0024268976D01*
X0002003283Y0024109217D01*
X0001989384Y0024089731D01*
X0001883463Y0023906641D01*
X0001873499Y0023884879D01*
X0001804111Y0023685062D01*
X0001798443Y0023661809D01*
X0001768091Y0023452476D01*
X0001766922Y0023428570D01*
X0001776702Y0023217275D01*
X0001780074Y0023193580D01*
X0001829632Y0022987945D01*
X0001837424Y0022965315D01*
X0001924973Y0022772762D01*
X0001936904Y0022752013D01*
X0002059284Y0022579489D01*
X0002074923Y0022561371D01*
X0002227719Y0022415101D01*
X0002246502Y0022400267D01*
X0002279258Y0022379116D01*
X0002159593Y0022285118D01*
X0002142261Y0022268613D01*
X0002003692Y0022108927D01*
X0001989793Y0022089441D01*
X0001883920Y0021906432D01*
X0001873956Y0021884670D01*
X0001804599Y0021684943D01*
X0001798930Y0021661685D01*
X0001797537Y0021652075D01*
X0001807560Y0021581790D01*
X0001853991Y0021528081D01*
X0001922234Y0021508000D01*
X0003408000Y0021508000D01*
X0003408000Y0021252000D01*
X0001926483Y0021252000D01*
X0001858362Y0021231998D01*
X0001811869Y0021178342D01*
X0001801765Y0021108068D01*
X0001803990Y0021096479D01*
X0001830107Y0020988109D01*
X0001837899Y0020965479D01*
X0001925408Y0020773012D01*
X0001937339Y0020752263D01*
X0002059664Y0020579817D01*
X0002075303Y0020561699D01*
X0002228030Y0020415495D01*
X0002246813Y0020400661D01*
X0002279230Y0020379730D01*
X0002159247Y0020285482D01*
X0002141915Y0020268976D01*
X0002003283Y0020109217D01*
X0001989384Y0020089732D01*
X0001883463Y0019906641D01*
X0001873499Y0019884879D01*
X0001804111Y0019685062D01*
X0001798443Y0019661809D01*
X0001768091Y0019452476D01*
X0001766922Y0019428570D01*
X0001776702Y0019217275D01*
X0001780074Y0019193580D01*
X0001829632Y0018987945D01*
X0001837424Y0018965315D01*
X0001924973Y0018772762D01*
X0001936904Y0018752013D01*
X0002059284Y0018579489D01*
X0002074923Y0018561371D01*
X0002227719Y0018415101D01*
X0002246502Y0018400267D01*
X0002279258Y0018379116D01*
X0002159593Y0018285118D01*
X0002142261Y0018268613D01*
X0002003692Y0018108927D01*
X0001989793Y0018089441D01*
X0001883920Y0017906432D01*
X0001873956Y0017884670D01*
X0001804599Y0017684943D01*
X0001798930Y0017661685D01*
X0001797537Y0017652075D01*
X0001807560Y0017581790D01*
X0001853991Y0017528081D01*
X0001922234Y0017508000D01*
X0003408000Y0017508000D01*
X0003408000Y0017252000D01*
X0001926483Y0017252000D01*
X0001858362Y0017231998D01*
X0001811869Y0017178342D01*
X0001801765Y0017108068D01*
X0001803990Y0017096479D01*
X0001830107Y0016988109D01*
X0001837899Y0016965479D01*
X0001925408Y0016773012D01*
X0001937339Y0016752263D01*
X0002059664Y0016579816D01*
X0002075303Y0016561699D01*
X0002228030Y0016415495D01*
X0002246813Y0016400661D01*
X0002279230Y0016379729D01*
X0002159247Y0016285481D01*
X0002141915Y0016268975D01*
X0002003283Y0016109217D01*
X0001989384Y0016089732D01*
X0001883463Y0015906641D01*
X0001873499Y0015884879D01*
X0001804111Y0015685061D01*
X0001798443Y0015661809D01*
X0001768091Y0015452476D01*
X0001766922Y0015428570D01*
X0001776702Y0015217275D01*
X0001780074Y0015193580D01*
X0001829632Y0014987945D01*
X0001837424Y0014965315D01*
X0001924973Y0014772762D01*
X0001936904Y0014752013D01*
X0002059284Y0014579488D01*
X0002074923Y0014561371D01*
X0002227719Y0014415101D01*
X0002246502Y0014400267D01*
X0002279258Y0014379116D01*
X0002159593Y0014285118D01*
X0002142261Y0014268612D01*
X0002003692Y0014108927D01*
X0001989793Y0014089441D01*
X0001883920Y0013906431D01*
X0001873956Y0013884670D01*
X0001804599Y0013684943D01*
X0001798930Y0013661684D01*
X0001797537Y0013652075D01*
X0001807560Y0013581790D01*
X0001853991Y0013528081D01*
X0001922234Y0013508000D01*
X0003408000Y0013508000D01*
X0003408000Y0013251999D01*
X0001926483Y0013251999D01*
X0001858362Y0013231998D01*
X0001811869Y0013178342D01*
X0001801765Y0013108068D01*
X0001803990Y0013096478D01*
X0001830107Y0012988109D01*
X0001837899Y0012965478D01*
X0001925408Y0012773012D01*
X0001937339Y0012752263D01*
X0002059664Y0012579816D01*
X0002075303Y0012561699D01*
X0002228030Y0012415495D01*
X0002246813Y0012400661D01*
X0002279230Y0012379729D01*
X0002159247Y0012285481D01*
X0002141915Y0012268975D01*
X0002003283Y0012109217D01*
X0001989384Y0012089732D01*
X0001883463Y0011906641D01*
X0001873499Y0011884879D01*
X0001804111Y0011685061D01*
X0001798443Y0011661809D01*
X0001768091Y0011452476D01*
X0001766922Y0011428570D01*
X0001776702Y0011217275D01*
X0001780074Y0011193580D01*
X0001829632Y0010987945D01*
X0001837424Y0010965315D01*
X0001924973Y0010772762D01*
X0001936904Y0010752013D01*
X0002059284Y0010579488D01*
X0002074923Y0010561371D01*
X0002227719Y0010415101D01*
X0002246502Y0010400267D01*
X0002424200Y0010285528D01*
X0002445450Y0010274514D01*
X0002641639Y0010195447D01*
X0002664587Y0010188650D01*
X0002872187Y0010148108D01*
X0002890183Y0010145921D01*
X0002895745Y0010145650D01*
X0002901899Y0010145499D01*
X0003607846Y0010145499D01*
X0003619813Y0010146070D01*
X0003777533Y0010161117D01*
X0003801035Y0010165643D01*
X0004004003Y0010225186D01*
X0004026226Y0010234076D01*
X0004214272Y0010330926D01*
X0004234413Y0010343855D01*
X0004400753Y0010474518D01*
X0004418085Y0010491024D01*
X0004530439Y0010620500D01*
X0004573017Y0010620500D01*
X0004595652Y0010618360D01*
X0004663729Y0010620500D01*
X0004691640Y0010620500D01*
X0004707430Y0010621493D01*
X0004711441Y0010622000D01*
X0004755632Y0010623389D01*
X0004786825Y0010628329D01*
X0004806276Y0010633980D01*
X0004826374Y0010636520D01*
X0004856965Y0010644374D01*
X0004898079Y0010660651D01*
X0004940529Y0010672985D01*
X0004969517Y0010685528D01*
X0004986953Y0010695841D01*
X0005005783Y0010703296D01*
X0005033461Y0010718511D01*
X0005069231Y0010744499D01*
X0005107286Y0010767005D01*
X0005132241Y0010786363D01*
X0005146562Y0010800684D01*
X0005162952Y0010812591D01*
X0005185976Y0010834212D01*
X0005214167Y0010868289D01*
X0006224952Y0011879073D01*
X0006617501Y0011879073D01*
X0006617501Y0011848688D01*
X0006618579Y0011832244D01*
X0006634240Y0011713277D01*
X0006642753Y0011681505D01*
X0006650181Y0011663573D01*
X0006642753Y0011645641D01*
X0006634240Y0011613869D01*
X0006618578Y0011494903D01*
X0006617500Y0011478458D01*
X0006617501Y0011198689D01*
X0006618579Y0011182244D01*
X0006634240Y0011063278D01*
X0006642753Y0011031505D01*
X0006650181Y0011013573D01*
X0006642753Y0010995641D01*
X0006634240Y0010963868D01*
X0006618578Y0010844904D01*
X0006617500Y0010828458D01*
X0006617501Y0010548689D01*
X0006618579Y0010532243D01*
X0006634240Y0010413277D01*
X0006642753Y0010381505D01*
X0006650181Y0010363572D01*
X0006642753Y0010345641D01*
X0006634240Y0010313869D01*
X0006618578Y0010194904D01*
X0006617500Y0010178458D01*
X0006617501Y0009898689D01*
X0006618579Y0009882244D01*
X0006634240Y0009763278D01*
X0006642753Y0009731504D01*
X0006650452Y0009712919D01*
X0006643241Y0009695511D01*
X0006634728Y0009663740D01*
X0006626997Y0009605020D01*
X0006637936Y0009534870D01*
X0006685064Y0009481772D01*
X0006751919Y0009462572D01*
X0006791431Y0009462572D01*
X0006818051Y0009427882D01*
X0006841309Y0009404623D01*
X0006958665Y0009314573D01*
X0006751920Y0009314573D01*
X0006683799Y0009294571D01*
X0006637306Y0009240915D01*
X0006626998Y0009172128D01*
X0006634728Y0009113408D01*
X0006643241Y0009081634D01*
X0006704504Y0008933732D01*
X0006720951Y0008905246D01*
X0006818408Y0008778239D01*
X0006841666Y0008754981D01*
X0006968673Y0008657523D01*
X0006997159Y0008641077D01*
X0007145062Y0008579813D01*
X0007176834Y0008571300D01*
X0007295707Y0008555651D01*
X0007312153Y0008554573D01*
X0007789500Y0008554573D01*
X0007857621Y0008574575D01*
X0007904114Y0008628231D01*
X0007915500Y0008680572D01*
X0007915500Y0009188573D01*
X0007910949Y0009204073D01*
X0008063499Y0009204073D01*
X0008063499Y0008680574D01*
X0008083501Y0008612452D01*
X0008137157Y0008565960D01*
X0008189500Y0008554573D01*
X0008666846Y0008554573D01*
X0008683291Y0008555651D01*
X0008802165Y0008571300D01*
X0008833938Y0008579813D01*
X0008981841Y0008641077D01*
X0009010327Y0008657523D01*
X0009137334Y0008754981D01*
X0009160592Y0008778239D01*
X0009258049Y0008905246D01*
X0009274496Y0008933732D01*
X0009335759Y0009081634D01*
X0009344272Y0009113406D01*
X0009359922Y0009232280D01*
X0009361000Y0009248726D01*
X0009361000Y0009279073D01*
X0009809406Y0009279073D01*
X0009832041Y0009276933D01*
X0009900118Y0009279073D01*
X0009928029Y0009279073D01*
X0009943819Y0009280066D01*
X0009947830Y0009280573D01*
X0009992021Y0009281962D01*
X0010023214Y0009286902D01*
X0010042665Y0009292554D01*
X0010062763Y0009295093D01*
X0010093354Y0009302947D01*
X0010134468Y0009319225D01*
X0010176918Y0009331558D01*
X0010205906Y0009344102D01*
X0010210409Y0009346765D01*
X0010302220Y0009355121D01*
X0010329736Y0009360769D01*
X0010502244Y0009416820D01*
X0010527825Y0009428424D01*
X0010683629Y0009521301D01*
X0010706004Y0009538284D01*
X0010837358Y0009663371D01*
X0010855414Y0009684891D01*
X0010955791Y0009835971D01*
X0010968631Y0009860954D01*
X0011033043Y0010030518D01*
X0011040029Y0010057725D01*
X0011065273Y0010237347D01*
X0011066487Y0010253125D01*
X0011066804Y0010275842D01*
X0011066031Y0010291644D01*
X0011045812Y0010471900D01*
X0011039588Y0010499292D01*
X0010979936Y0010670589D01*
X0010967799Y0010695922D01*
X0010945786Y0010731150D01*
X0010964030Y0010758610D01*
X0010976870Y0010783593D01*
X0011041282Y0010953157D01*
X0011048268Y0010980364D01*
X0011073512Y0011159986D01*
X0011074726Y0011175764D01*
X0011075043Y0011198481D01*
X0011074270Y0011214284D01*
X0011054051Y0011394539D01*
X0011047827Y0011421931D01*
X0010988175Y0011593228D01*
X0010976038Y0011618559D01*
X0010918628Y0011710436D01*
X0010955791Y0011766371D01*
X0010968631Y0011791353D01*
X0011033043Y0011960918D01*
X0011040029Y0011988126D01*
X0011065273Y0012167746D01*
X0011066487Y0012183525D01*
X0011066804Y0012206242D01*
X0011066031Y0012222045D01*
X0011045812Y0012402300D01*
X0011039588Y0012429692D01*
X0010979936Y0012600988D01*
X0010967799Y0012626321D01*
X0010950639Y0012653784D01*
X0010968569Y0012680771D01*
X0010981409Y0012705753D01*
X0011045821Y0012875318D01*
X0011052807Y0012902526D01*
X0011078051Y0013082147D01*
X0011079265Y0013097925D01*
X0011079582Y0013120642D01*
X0011078809Y0013136444D01*
X0011058590Y0013316700D01*
X0011052366Y0013344092D01*
X0010992714Y0013515388D01*
X0010980577Y0013540721D01*
X0010884458Y0013694545D01*
X0010867010Y0013716560D01*
X0010739199Y0013845265D01*
X0010717307Y0013862867D01*
X0010564158Y0013960058D01*
X0010538911Y0013972372D01*
X0010368035Y0014033218D01*
X0010340687Y0014039632D01*
X0010160577Y0014061110D01*
X0010132487Y0014061305D01*
X0009952095Y0014042345D01*
X0009924661Y0014036314D01*
X0009752952Y0013977860D01*
X0009727535Y0013965899D01*
X0009573044Y0013870854D01*
X0009550908Y0013853561D01*
X0009421313Y0013726652D01*
X0009403560Y0013704884D01*
X0009335038Y0013598559D01*
X0009328819Y0013613572D01*
X0009336247Y0013631505D01*
X0009344760Y0013663277D01*
X0009360422Y0013782242D01*
X0009361500Y0013798687D01*
X0009361499Y0014078457D01*
X0009360421Y0014094902D01*
X0009344760Y0014213868D01*
X0009336247Y0014245641D01*
X0009328819Y0014263573D01*
X0009336247Y0014281505D01*
X0009344760Y0014313277D01*
X0009360422Y0014432241D01*
X0009361500Y0014448688D01*
X0009361499Y0014728456D01*
X0009360421Y0014744902D01*
X0009344760Y0014863868D01*
X0009336247Y0014895641D01*
X0009328819Y0014913573D01*
X0009336247Y0014931505D01*
X0009344760Y0014963277D01*
X0009360422Y0015082242D01*
X0009361500Y0015098688D01*
X0009361499Y0015378457D01*
X0009360421Y0015394901D01*
X0009344760Y0015513867D01*
X0009336247Y0015545641D01*
X0009328548Y0015564226D01*
X0009335759Y0015581634D01*
X0009344272Y0015613406D01*
X0009352003Y0015672125D01*
X0009341064Y0015742275D01*
X0009293936Y0015795373D01*
X0009227081Y0015814573D01*
X0009187569Y0015814573D01*
X0009160949Y0015849264D01*
X0009137691Y0015872522D01*
X0009020335Y0015962572D01*
X0009227080Y0015962572D01*
X0009295201Y0015982575D01*
X0009341694Y0016036231D01*
X0009352002Y0016105018D01*
X0009344272Y0016163737D01*
X0009335759Y0016195511D01*
X0009328277Y0016213573D01*
X0009335759Y0016231635D01*
X0009344272Y0016263406D01*
X0009352003Y0016322126D01*
X0009341064Y0016392275D01*
X0009293936Y0016445374D01*
X0009227081Y0016464573D01*
X0008189500Y0016464573D01*
X0008121378Y0016444571D01*
X0008074885Y0016390915D01*
X0008063499Y0016338573D01*
X0008063499Y0016088573D01*
X0008068051Y0016073072D01*
X0007915500Y0016073072D01*
X0007915500Y0016738572D01*
X0008063499Y0016738572D01*
X0008083501Y0016670452D01*
X0008137157Y0016623959D01*
X0008189500Y0016612573D01*
X0009227080Y0016612573D01*
X0009295201Y0016632575D01*
X0009341694Y0016686231D01*
X0009352002Y0016755018D01*
X0009344272Y0016813738D01*
X0009335759Y0016845511D01*
X0009274496Y0016993414D01*
X0009258049Y0017021900D01*
X0009160592Y0017148907D01*
X0009137334Y0017172165D01*
X0009010327Y0017269622D01*
X0008981841Y0017286069D01*
X0008833938Y0017347332D01*
X0008802166Y0017355845D01*
X0008683293Y0017371495D01*
X0008666847Y0017372573D01*
X0008189500Y0017372573D01*
X0008121378Y0017352571D01*
X0008074885Y0017298915D01*
X0008063499Y0017246573D01*
X0008063499Y0016738572D01*
X0007915500Y0016738572D01*
X0007915500Y0017246572D01*
X0007895498Y0017314693D01*
X0007841842Y0017361186D01*
X0007789500Y0017372572D01*
X0007312154Y0017372572D01*
X0007295709Y0017371494D01*
X0007176835Y0017355845D01*
X0007145062Y0017347332D01*
X0006997159Y0017286069D01*
X0006968673Y0017269622D01*
X0006841666Y0017172165D01*
X0006818408Y0017148907D01*
X0006720951Y0017021900D01*
X0006704504Y0016993414D01*
X0006643241Y0016845511D01*
X0006634728Y0016813739D01*
X0006619078Y0016694866D01*
X0006618205Y0016681553D01*
X0006494457Y0016725618D01*
X0006467109Y0016732033D01*
X0006286999Y0016753509D01*
X0006258909Y0016753706D01*
X0006111500Y0016738212D01*
X0006111500Y0019249417D01*
X0006648500Y0018712418D01*
X0006648500Y0018286600D01*
X0006649173Y0018273596D01*
X0006660147Y0018167830D01*
X0006665950Y0018140958D01*
X0006721926Y0017973178D01*
X0006734306Y0017946751D01*
X0006827378Y0017796349D01*
X0006845504Y0017773479D01*
X0006970679Y0017648522D01*
X0006993581Y0017630435D01*
X0007144146Y0017537625D01*
X0007170595Y0017525292D01*
X0007338472Y0017469610D01*
X0007365296Y0017463859D01*
X0007469757Y0017453156D01*
X0007482600Y0017452500D01*
X0008258400Y0017452500D01*
X0008271404Y0017453173D01*
X0008377170Y0017464147D01*
X0008404042Y0017469950D01*
X0008571822Y0017525926D01*
X0008598249Y0017538306D01*
X0008748651Y0017631378D01*
X0008771521Y0017649504D01*
X0008896478Y0017774679D01*
X0008908316Y0017789668D01*
X0008920899Y0017773792D01*
X0009045991Y0017648917D01*
X0009068893Y0017630830D01*
X0009219359Y0017538082D01*
X0009245807Y0017525749D01*
X0009413573Y0017470103D01*
X0009440399Y0017464352D01*
X0009544795Y0017453656D01*
X0009557637Y0017453000D01*
X0009691500Y0017453000D01*
X0009759621Y0017473002D01*
X0009806114Y0017526658D01*
X0009817500Y0017579000D01*
X0009817500Y0020044999D01*
X0009797498Y0020113120D01*
X0009743842Y0020159613D01*
X0009691500Y0020170999D01*
X0009557638Y0020170999D01*
X0009544635Y0020170326D01*
X0009438934Y0020159359D01*
X0009412061Y0020153556D01*
X0009244392Y0020097618D01*
X0009217965Y0020085238D01*
X0009067662Y0019992227D01*
X0009044792Y0019974101D01*
X0008919917Y0019849009D01*
X0008908326Y0019834333D01*
X0008895496Y0019850521D01*
X0008770321Y0019975478D01*
X0008747419Y0019993565D01*
X0008596854Y0020086375D01*
X0008570405Y0020098708D01*
X0008402528Y0020154390D01*
X0008375704Y0020160141D01*
X0008271243Y0020170844D01*
X0008258400Y0020171500D01*
X0007832582Y0020171500D01*
X0007214500Y0020789582D01*
X0007214500Y0023962918D01*
X0008181682Y0024930100D01*
X0008289123Y0024880000D01*
X0008179074Y0024828682D01*
X0008160053Y0024817701D01*
X0007977948Y0024690190D01*
X0007961124Y0024676071D01*
X0007803928Y0024518876D01*
X0007789810Y0024502052D01*
X0007662299Y0024319947D01*
X0007651317Y0024300926D01*
X0007557365Y0024099446D01*
X0007549853Y0024078806D01*
X0007492315Y0023864074D01*
X0007488501Y0023842444D01*
X0007469126Y0023620981D01*
X0007469126Y0023599019D01*
X0007488501Y0023377556D01*
X0007492315Y0023355926D01*
X0007549853Y0023141193D01*
X0007557365Y0023120554D01*
X0007651317Y0022919074D01*
X0007662299Y0022900053D01*
X0007789810Y0022717948D01*
X0007803928Y0022701124D01*
X0007961124Y0022543928D01*
X0007977948Y0022529810D01*
X0008160052Y0022402299D01*
X0008179073Y0022391317D01*
X0008380554Y0022297365D01*
X0008401193Y0022289853D01*
X0008615926Y0022232315D01*
X0008637556Y0022228501D01*
X0008859019Y0022209126D01*
X0008880981Y0022209126D01*
X0009100500Y0022228331D01*
X0009100500Y0021718767D01*
X0009098360Y0021696132D01*
X0009100500Y0021628055D01*
X0009100500Y0021600144D01*
X0009101493Y0021584354D01*
X0009102000Y0021580343D01*
X0009103389Y0021536152D01*
X0009108330Y0021504959D01*
X0009113981Y0021485508D01*
X0009116520Y0021465410D01*
X0009124374Y0021434819D01*
X0009140652Y0021393705D01*
X0009152985Y0021351255D01*
X0009165529Y0021322267D01*
X0009175841Y0021304831D01*
X0009183296Y0021286001D01*
X0009198511Y0021258323D01*
X0009224499Y0021222553D01*
X0009247005Y0021184498D01*
X0009266363Y0021159543D01*
X0009280684Y0021145222D01*
X0009292592Y0021128832D01*
X0009314212Y0021105808D01*
X0009348289Y0021077617D01*
X0010254906Y0020171000D01*
X0010199500Y0020171000D01*
X0010131379Y0020150998D01*
X0010084886Y0020097342D01*
X0010073500Y0020045000D01*
X0010073500Y0017579001D01*
X0010093502Y0017510880D01*
X0010147158Y0017464387D01*
X0010199500Y0017453001D01*
X0010333362Y0017453001D01*
X0010346365Y0017453674D01*
X0010452066Y0017464641D01*
X0010478939Y0017470444D01*
X0010646608Y0017526382D01*
X0010673035Y0017538762D01*
X0010823338Y0017631773D01*
X0010846208Y0017649899D01*
X0010930500Y0017734337D01*
X0010930500Y0014968767D01*
X0010928360Y0014946131D01*
X0010930500Y0014878055D01*
X0010930500Y0014850144D01*
X0010931493Y0014834354D01*
X0010932000Y0014830343D01*
X0010933389Y0014786152D01*
X0010938330Y0014754959D01*
X0010943981Y0014735508D01*
X0010946520Y0014715409D01*
X0010954374Y0014684819D01*
X0010970652Y0014643705D01*
X0010982985Y0014601254D01*
X0010995529Y0014572267D01*
X0011005841Y0014554831D01*
X0011013296Y0014536000D01*
X0011028511Y0014508323D01*
X0011054499Y0014472553D01*
X0011077005Y0014434498D01*
X0011096363Y0014409543D01*
X0011110684Y0014395222D01*
X0011122592Y0014378832D01*
X0011144212Y0014355808D01*
X0011178289Y0014327617D01*
X0012287248Y0013218658D01*
X0012301747Y0013201132D01*
X0012351414Y0013154492D01*
X0012371135Y0013134771D01*
X0012383007Y0013124303D01*
X0012386194Y0013121832D01*
X0012418426Y0013091564D01*
X0012443979Y0013072999D01*
X0012461730Y0013063240D01*
X0012477732Y0013050828D01*
X0012504917Y0013034751D01*
X0012545486Y0013017195D01*
X0012584240Y0012995890D01*
X0012613606Y0012984262D01*
X0012633226Y0012979226D01*
X0012651813Y0012971181D01*
X0012682143Y0012962370D01*
X0012725811Y0012955452D01*
X0012768636Y0012944458D01*
X0012799970Y0012940500D01*
X0012820224Y0012940500D01*
X0012840232Y0012937331D01*
X0012871801Y0012936339D01*
X0012915819Y0012940500D01*
X0014066898Y0012940500D01*
X0014059728Y0012913740D01*
X0014051997Y0012855020D01*
X0014062936Y0012784870D01*
X0014110064Y0012731772D01*
X0014176919Y0012712572D01*
X0014216431Y0012712572D01*
X0014243051Y0012677882D01*
X0014266309Y0012654623D01*
X0014287226Y0012638573D01*
X0014266308Y0012622522D01*
X0014243051Y0012599264D01*
X0014216431Y0012564573D01*
X0014176920Y0012564573D01*
X0014108799Y0012544571D01*
X0014072698Y0012502908D01*
X0013977917Y0012492946D01*
X0013950483Y0012486913D01*
X0013778774Y0012428460D01*
X0013753357Y0012416499D01*
X0013598866Y0012321455D01*
X0013576730Y0012304161D01*
X0013447135Y0012177252D01*
X0013429382Y0012155484D01*
X0013331124Y0012003017D01*
X0013318634Y0011977857D01*
X0013281904Y0011876943D01*
X0013195799Y0011887210D01*
X0013167709Y0011887405D01*
X0012987317Y0011868445D01*
X0012959883Y0011862414D01*
X0012788174Y0011803960D01*
X0012762757Y0011791999D01*
X0012608266Y0011696955D01*
X0012586130Y0011679661D01*
X0012456535Y0011552752D01*
X0012438782Y0011530984D01*
X0012340524Y0011378516D01*
X0012328034Y0011353356D01*
X0012265996Y0011182910D01*
X0012259391Y0011155607D01*
X0012236657Y0010975652D01*
X0012236264Y0010947565D01*
X0012253964Y0010767045D01*
X0012259805Y0010739567D01*
X0012317060Y0010567454D01*
X0012328842Y0010541955D01*
X0012422804Y0010386804D01*
X0012439943Y0010364549D01*
X0012565945Y0010234071D01*
X0012587589Y0010216166D01*
X0012739366Y0010116845D01*
X0012764439Y0010104181D01*
X0012934448Y0010040955D01*
X0012961703Y0010034158D01*
X0013141496Y0010010169D01*
X0013169581Y0010009581D01*
X0013350220Y0010026021D01*
X0013377736Y0010031669D01*
X0013428051Y0010048017D01*
X0013439159Y0010039401D01*
X0013466344Y0010023323D01*
X0013506913Y0010005768D01*
X0013545667Y0009984463D01*
X0013575033Y0009972836D01*
X0013594653Y0009967799D01*
X0013613240Y0009959755D01*
X0013643570Y0009950942D01*
X0013687238Y0009944026D01*
X0013730063Y0009933031D01*
X0013761397Y0009929072D01*
X0013781651Y0009929072D01*
X0013801659Y0009925904D01*
X0013833228Y0009924911D01*
X0013877246Y0009929072D01*
X0014042501Y0009929072D01*
X0014042501Y0009898688D01*
X0014043579Y0009882244D01*
X0014059240Y0009763278D01*
X0014067753Y0009731504D01*
X0014075181Y0009713573D01*
X0014067753Y0009695640D01*
X0014059240Y0009663868D01*
X0014043578Y0009544903D01*
X0014042500Y0009528458D01*
X0014042501Y0009248688D01*
X0014043579Y0009232244D01*
X0014059240Y0009113278D01*
X0014067753Y0009081505D01*
X0014129067Y0008933478D01*
X0014145514Y0008904992D01*
X0014243051Y0008777881D01*
X0014266309Y0008754624D01*
X0014393421Y0008657087D01*
X0014421907Y0008640640D01*
X0014569932Y0008579325D01*
X0014601704Y0008570813D01*
X0014720669Y0008555150D01*
X0014737115Y0008554072D01*
X0015653912Y0008554074D01*
X0015334339Y0008234500D01*
X0007208922Y0008234500D01*
X0007151218Y0008238434D01*
X0007120985Y0008236850D01*
X0007058028Y0008225861D01*
X0006994621Y0008218188D01*
X0006965220Y0008210968D01*
X0006958811Y0008208545D01*
X0006952054Y0008207367D01*
X0006923072Y0008198616D01*
X0006864560Y0008172933D01*
X0006804806Y0008150352D01*
X0006777976Y0008136326D01*
X0006772329Y0008132445D01*
X0006766051Y0008129688D01*
X0006739990Y0008114277D01*
X0006689303Y0008075382D01*
X0006636653Y0008039197D01*
X0006613943Y0008019176D01*
X0006572489Y0007972648D01*
X0005934340Y0007334499D01*
X0005081866Y0007334499D01*
X0005068258Y0007333762D01*
X0005006076Y0007327007D01*
X0004975454Y0007319727D01*
X0004839065Y0007268597D01*
X0004807730Y0007251441D01*
X0004691174Y0007164087D01*
X0004665913Y0007138826D01*
X0004664500Y0007136941D01*
X0004664500Y0007260406D01*
X0005165232Y0007761138D01*
X0005269248Y0007722454D01*
X0005296503Y0007715659D01*
X0005476296Y0007691668D01*
X0005504381Y0007691080D01*
X0005685020Y0007707521D01*
X0005712536Y0007713169D01*
X0005885044Y0007769219D01*
X0005910625Y0007780824D01*
X0006066429Y0007873702D01*
X0006088804Y0007890684D01*
X0006220158Y0008015771D01*
X0006238214Y0008037291D01*
X0006338591Y0008188371D01*
X0006351431Y0008213353D01*
X0006415843Y0008382918D01*
X0006422829Y0008410126D01*
X0006448073Y0008589747D01*
X0006449287Y0008605525D01*
X0006449604Y0008628242D01*
X0006448831Y0008644044D01*
X0006428612Y0008824300D01*
X0006422388Y0008851692D01*
X0006362736Y0009022988D01*
X0006350599Y0009048321D01*
X0006254480Y0009202145D01*
X0006237032Y0009224160D01*
X0006109221Y0009352865D01*
X0006087329Y0009370467D01*
X0005934180Y0009467658D01*
X0005908933Y0009479972D01*
X0005738057Y0009540818D01*
X0005710709Y0009547232D01*
X0005530599Y0009568710D01*
X0005502509Y0009568905D01*
X0005322117Y0009549945D01*
X0005294683Y0009543914D01*
X0005122974Y0009485460D01*
X0005097557Y0009473499D01*
X0004961718Y0009389930D01*
X0004948045Y0009389500D01*
X0004920144Y0009389500D01*
X0004904356Y0009388507D01*
X0004900353Y0009388001D01*
X0004856152Y0009386612D01*
X0004824957Y0009381671D01*
X0004805504Y0009376019D01*
X0004785412Y0009373481D01*
X0004754820Y0009365625D01*
X0004713710Y0009349350D01*
X0004671252Y0009337014D01*
X0004642267Y0009324470D01*
X0004624831Y0009314159D01*
X0004606001Y0009306704D01*
X0004578323Y0009291488D01*
X0004542553Y0009265501D01*
X0004504498Y0009242995D01*
X0004479543Y0009223637D01*
X0004465222Y0009209316D01*
X0004448832Y0009197408D01*
X0004425808Y0009175788D01*
X0004397622Y0009141717D01*
X0003540404Y0008284500D01*
X0002081866Y0008284500D01*
X0002068258Y0008283763D01*
X0002006076Y0008277007D01*
X0001975454Y0008269727D01*
X0001839065Y0008218596D01*
X0001807730Y0008201440D01*
X0001691174Y0008114087D01*
X0001665913Y0008088826D01*
X0001578559Y0007972270D01*
X0001561403Y0007940935D01*
X0001510273Y0007804546D01*
X0001502992Y0007773924D01*
X0001496237Y0007711742D01*
X0001495500Y0007698134D01*
X0001495500Y0006801865D01*
X0001496237Y0006788257D01*
X0001502992Y0006726075D01*
X0001510273Y0006695453D01*
X0001561403Y0006559064D01*
X0001578559Y0006527729D01*
X0001665913Y0006411174D01*
X0001691174Y0006385913D01*
X0001806224Y0006299686D01*
X0001691531Y0006213729D01*
X0001666270Y0006188468D01*
X0001579002Y0006072026D01*
X0001561846Y0006040692D01*
X0001510766Y0005904437D01*
X0001503485Y0005873815D01*
X0001496737Y0005811697D01*
X0001496000Y0005798088D01*
X0001496000Y0005603999D01*
X0001516002Y0005535879D01*
X0001569658Y0005489386D01*
X0001622000Y0005478000D01*
X0004537999Y0005478000D01*
X0004606120Y0005498002D01*
X0004623382Y0005517923D01*
X0004665913Y0005461174D01*
X0004691174Y0005435912D01*
X0004807730Y0005348559D01*
X0004839065Y0005331403D01*
X0004970500Y0005282130D01*
X0004970500Y0004029197D01*
X0004916177Y0004011073D01*
X0004889751Y0003998694D01*
X0004739349Y0003905622D01*
X0004716479Y0003887495D01*
X0004591522Y0003762321D01*
X0004579684Y0003747332D01*
X0004567101Y0003763207D01*
X0004442009Y0003888083D01*
X0004419107Y0003906170D01*
X0004268641Y0003998918D01*
X0004242193Y0004011251D01*
X0004074427Y0004066896D01*
X0004047601Y0004072648D01*
X0003943205Y0004083343D01*
X0003930363Y0004084000D01*
X0003796500Y0004084000D01*
X0003728379Y0004063997D01*
X0003681886Y0004010342D01*
X0003670500Y0003957999D01*
X0003670500Y0001492001D01*
X0003690502Y0001423879D01*
X0003744158Y0001377386D01*
X0003796500Y0001366000D01*
X0003930362Y0001366000D01*
X0003943365Y0001366674D01*
X0004049066Y0001377640D01*
X0004075939Y0001383443D01*
X0004243608Y0001439382D01*
X0004270035Y0001451762D01*
X0004420338Y0001544772D01*
X0004443208Y0001562899D01*
X0004568083Y0001687990D01*
X0004579674Y0001702666D01*
X0004592504Y0001686478D01*
X0004717679Y0001561521D01*
X0004740581Y0001543435D01*
X0004891146Y0001450625D01*
X0004917595Y0001438291D01*
X0005085472Y0001382609D01*
X0005112296Y0001376859D01*
X0005216757Y0001366155D01*
X0005229600Y0001365499D01*
X0006005400Y0001365499D01*
X0006018404Y0001366173D01*
X0006124170Y0001377147D01*
X0006151042Y0001382950D01*
X0006318822Y0001438926D01*
X0006345249Y0001451306D01*
X0006495651Y0001544378D01*
X0006518521Y0001562503D01*
X0006643478Y0001687679D01*
X0006661565Y0001710580D01*
X0006754375Y0001861145D01*
X0006766708Y0001887594D01*
X0006822390Y0002055472D01*
X0006828141Y0002082295D01*
X0006838844Y0002186757D01*
X0006839500Y0002199599D01*
X0006839500Y0003250399D01*
X0006838827Y0003263404D01*
X0006827853Y0003369169D01*
X0006822050Y0003396042D01*
X0006785577Y0003505364D01*
X0010111249Y0003505364D01*
X0010129651Y0003142102D01*
X0010131076Y0003128549D01*
X0010188603Y0002769401D01*
X0010191483Y0002756081D01*
X0010287460Y0002405245D01*
X0010291761Y0002392315D01*
X0010425068Y0002053896D01*
X0010430741Y0002041505D01*
X0010599816Y0001719464D01*
X0010606794Y0001707759D01*
X0010809661Y0001405861D01*
X0010817863Y0001394976D01*
X0010956231Y0001230660D01*
X0011015410Y0001191437D01*
X0011086399Y0001190435D01*
X0011141706Y0001222726D01*
X0013329885Y0003410904D01*
X0013363911Y0003473216D01*
X0013358846Y0003544032D01*
X0013329885Y0003589095D01*
X0011141810Y0005777169D01*
X0011079498Y0005811196D01*
X0011008683Y0005806131D01*
X0010956903Y0005769905D01*
X0010832626Y0005624394D01*
X0010824350Y0005613568D01*
X0010619380Y0005313094D01*
X0010612320Y0005301437D01*
X0010441001Y0004980583D01*
X0010435242Y0004968232D01*
X0010299576Y0004630755D01*
X0010295184Y0004617854D01*
X0010196759Y0004267696D01*
X0010193786Y0004254396D01*
X0010133754Y0003895657D01*
X0010132235Y0003882114D01*
X0010111297Y0003518991D01*
X0010111249Y0003505364D01*
X0006785577Y0003505364D01*
X0006766074Y0003563822D01*
X0006753694Y0003590249D01*
X0006660622Y0003740650D01*
X0006642495Y0003763520D01*
X0006639500Y0003766511D01*
X0006639500Y0005265500D01*
X0007078134Y0005265500D01*
X0007091742Y0005266236D01*
X0007153924Y0005272992D01*
X0007184546Y0005280273D01*
X0007320935Y0005331403D01*
X0007352270Y0005348559D01*
X0007468826Y0005435912D01*
X0007494087Y0005461174D01*
X0007581441Y0005577730D01*
X0007598597Y0005609065D01*
X0007649727Y0005745454D01*
X0007657008Y0005776076D01*
X0007663763Y0005838258D01*
X0007664500Y0005851866D01*
X0007664500Y0006565500D01*
X0011937790Y0006565500D01*
X0011654766Y0006396113D01*
X0011643468Y0006388491D01*
X0011353366Y0006169089D01*
X0011342956Y0006160293D01*
X0011323004Y0006141491D01*
X0011287146Y0006080215D01*
X0011290108Y0006009281D01*
X0011320323Y0005960697D01*
X0013510905Y0003770114D01*
X0013573217Y0003736089D01*
X0013644032Y0003741154D01*
X0013689095Y0003770114D01*
X0015880073Y0005961092D01*
X0015914099Y0006023404D01*
X0015909034Y0006094220D01*
X0015877713Y0006141582D01*
X0015866318Y0006152397D01*
X0015855937Y0006161231D01*
X0015566602Y0006381646D01*
X0015555331Y0006389305D01*
X0015263251Y0006565500D01*
X0015651088Y0006565500D01*
X0015708782Y0006561566D01*
X0015739015Y0006563150D01*
X0015801962Y0006574137D01*
X0015865379Y0006581811D01*
X0015894780Y0006589032D01*
X0015901189Y0006591453D01*
X0015907946Y0006592632D01*
X0015936930Y0006601384D01*
X0015995441Y0006627068D01*
X0016055193Y0006649647D01*
X0016082020Y0006663671D01*
X0016087670Y0006667554D01*
X0016093955Y0006670313D01*
X0016120010Y0006685723D01*
X0016170697Y0006724618D01*
X0016223347Y0006760801D01*
X0016246057Y0006780824D01*
X0016287510Y0006827351D01*
X0016966000Y0007505839D01*
X0016966000Y0004399684D01*
X0016908698Y0004606310D01*
X0016904352Y0004619225D01*
X0016769865Y0004957177D01*
X0016764147Y0004969548D01*
X0016593948Y0005290996D01*
X0016586931Y0005302678D01*
X0016383012Y0005603865D01*
X0016374772Y0005614721D01*
X0016243419Y0005769607D01*
X0016184104Y0005808624D01*
X0016113112Y0005809379D01*
X0016058228Y0005777208D01*
X0013870115Y0003589095D01*
X0013836089Y0003526783D01*
X0013841154Y0003455967D01*
X0013870115Y0003410904D01*
X0016058180Y0001222839D01*
X0016120491Y0001188814D01*
X0016191306Y0001193879D01*
X0016242799Y0001229770D01*
X0016359941Y0001365957D01*
X0016368255Y0001376756D01*
X0016574273Y0001676513D01*
X0016581373Y0001688144D01*
X0016753812Y0002008397D01*
X0016759615Y0002020729D01*
X0016896458Y0002357731D01*
X0016900894Y0002370617D01*
X0016966000Y0002599173D01*
X0016966000Y0000634000D01*
X0015585466Y0000634000D01*
X0015837304Y0000823084D01*
X0015847744Y0000831845D01*
X0015876308Y0000858575D01*
X0015912380Y0000919724D01*
X0015909665Y0000990670D01*
X0015879310Y0001039670D01*
X0013689095Y0003229885D01*
X0013626783Y0003263911D01*
X0013555968Y0003258845D01*
X0013510905Y0003229885D01*
X0011319502Y0001038482D01*
X0011285476Y0000976170D01*
X0011290541Y0000905355D01*
X0011321555Y0000858283D01*
X0011324449Y0000855519D01*
X0011334787Y0000846660D01*
X0011611930Y0000634000D01*
X0000634000Y0000634000D01*
X0000634000Y0002199638D01*
X0002321001Y0002199638D01*
X0002321674Y0002186635D01*
X0002332641Y0002080933D01*
X0002338444Y0002054060D01*
X0002394382Y0001886392D01*
X0002406762Y0001859965D01*
X0002499773Y0001709662D01*
X0002517899Y0001686791D01*
X0002642991Y0001561917D01*
X0002665893Y0001543829D01*
X0002816359Y0001451081D01*
X0002842807Y0001438749D01*
X0003010573Y0001383102D01*
X0003037399Y0001377352D01*
X0003141795Y0001366655D01*
X0003154637Y0001365999D01*
X0003288500Y0001365999D01*
X0003356621Y0001386001D01*
X0003403114Y0001439658D01*
X0003414500Y0001491999D01*
X0003414500Y0002470999D01*
X0003394498Y0002539121D01*
X0003340842Y0002585613D01*
X0003288500Y0002597000D01*
X0002447001Y0002597000D01*
X0002378880Y0002576998D01*
X0002332387Y0002523341D01*
X0002321001Y0002470999D01*
X0002321001Y0002199638D01*
X0000634000Y0002199638D01*
X0000634000Y0002978999D01*
X0002321000Y0002978999D01*
X0002341002Y0002910879D01*
X0002394658Y0002864386D01*
X0002447000Y0002853000D01*
X0003288500Y0002853000D01*
X0003356621Y0002873001D01*
X0003403114Y0002926658D01*
X0003414500Y0002978999D01*
X0003414500Y0003957999D01*
X0003394498Y0004026119D01*
X0003340842Y0004072612D01*
X0003288500Y0004083998D01*
X0003154638Y0004083998D01*
X0003141635Y0004083325D01*
X0003035934Y0004072358D01*
X0003009061Y0004066555D01*
X0002841392Y0004010618D01*
X0002814965Y0003998238D01*
X0002664662Y0003905226D01*
X0002641792Y0003887101D01*
X0002516917Y0003762008D01*
X0002498830Y0003739106D01*
X0002406082Y0003588641D01*
X0002393749Y0003562193D01*
X0002338103Y0003394427D01*
X0002332352Y0003367601D01*
X0002321656Y0003263204D01*
X0002321000Y0003250363D01*
X0002321000Y0002978999D01*
X0000634000Y0002978999D01*
X0000634000Y0004901912D01*
X0001496001Y0004901912D01*
X0001496738Y0004888306D01*
X0001503485Y0004826188D01*
X0001510766Y0004795563D01*
X0001561846Y0004659308D01*
X0001579002Y0004627972D01*
X0001666270Y0004511530D01*
X0001691531Y0004486269D01*
X0001807973Y0004399002D01*
X0001839308Y0004381846D01*
X0001975563Y0004330765D01*
X0002006185Y0004323484D01*
X0002068302Y0004316737D01*
X0002081910Y0004316000D01*
X0002826000Y0004316000D01*
X0002894121Y0004336002D01*
X0002940614Y0004389657D01*
X0002952000Y0004442000D01*
X0002952000Y0004442000D01*
X0003208000Y0004442000D01*
X0003228002Y0004373880D01*
X0003281658Y0004327387D01*
X0003334000Y0004316001D01*
X0004078088Y0004316001D01*
X0004091693Y0004316738D01*
X0004153812Y0004323484D01*
X0004184437Y0004330765D01*
X0004320692Y0004381846D01*
X0004352027Y0004399002D01*
X0004468469Y0004486269D01*
X0004493730Y0004511530D01*
X0004580998Y0004627972D01*
X0004598154Y0004659308D01*
X0004649234Y0004795563D01*
X0004656515Y0004826185D01*
X0004663263Y0004888303D01*
X0004664000Y0004901910D01*
X0004664000Y0005095999D01*
X0004643998Y0005164121D01*
X0004590342Y0005210614D01*
X0004538000Y0005222000D01*
X0003334000Y0005222000D01*
X0003265879Y0005201998D01*
X0003219386Y0005148341D01*
X0003208000Y0005095999D01*
X0003208000Y0004442000D01*
X0002952000Y0004442000D01*
X0002952000Y0005095999D01*
X0002931998Y0005164121D01*
X0002878342Y0005210614D01*
X0002826000Y0005222000D01*
X0001622001Y0005222000D01*
X0001553880Y0005201998D01*
X0001507387Y0005148341D01*
X0001496001Y0005095999D01*
X0001496001Y0004901912D01*
X0000634000Y0004901912D01*
X0000634000Y0027428570D01*
X0001766922Y0027428570D01*
X0001776702Y0027217275D01*
X0001780074Y0027193580D01*
X0001829632Y0026987945D01*
X0001837424Y0026965315D01*
X0001924973Y0026772762D01*
X0001936904Y0026752012D01*
X0002059284Y0026579489D01*
X0002074923Y0026561371D01*
X0002227719Y0026415101D01*
X0002246502Y0026400267D01*
X0002279258Y0026379116D01*
X0002159593Y0026285118D01*
X0002142261Y0026268613D01*
X0002003692Y0026108927D01*
X0001989793Y0026089441D01*
X0001883920Y0025906432D01*
X0001873956Y0025884670D01*
X0001804599Y0025684943D01*
X0001798930Y0025661685D01*
X0001797537Y0025652075D01*
X0001807560Y0025581789D01*
X0001853991Y0025528081D01*
X0001922234Y0025508000D01*
X0004633517Y0025508000D01*
X0004701638Y0025528002D01*
X0004748131Y0025581657D01*
X0004758235Y0025651932D01*
X0004756010Y0025663521D01*
X0004729893Y0025771891D01*
X0004722101Y0025794521D01*
X0004634592Y0025986988D01*
X0004622661Y0026007737D01*
X0004500336Y0026180183D01*
X0004484697Y0026198301D01*
X0004331970Y0026344504D01*
X0004313187Y0026359339D01*
X0004280770Y0026380270D01*
X0004400753Y0026474518D01*
X0004418085Y0026491024D01*
X0004556717Y0026650783D01*
X0004570616Y0026670268D01*
X0004676537Y0026853358D01*
X0004686501Y0026875121D01*
X0004755889Y0027074938D01*
X0004761557Y0027098191D01*
X0004791909Y0027307524D01*
X0004793078Y0027331429D01*
X0004783298Y0027542725D01*
X0004779926Y0027566420D01*
X0004730368Y0027772055D01*
X0004722576Y0027794685D01*
X0004635027Y0027987237D01*
X0004623096Y0028007987D01*
X0004500716Y0028180511D01*
X0004485077Y0028198629D01*
X0004389813Y0028289824D01*
X0004445651Y0028324378D01*
X0004468521Y0028342504D01*
X0004593478Y0028467679D01*
X0004611565Y0028490581D01*
X0004704375Y0028641146D01*
X0004716708Y0028667595D01*
X0004720497Y0028679018D01*
X0007469628Y0028679018D01*
X0007488996Y0028457642D01*
X0007492810Y0028436013D01*
X0007550325Y0028221364D01*
X0007557837Y0028200725D01*
X0007651752Y0027999325D01*
X0007662733Y0027980306D01*
X0007706971Y0027917126D01*
X0007762428Y0027872796D01*
X0007833047Y0027865486D01*
X0007899280Y0027900300D01*
X0008599885Y0028600904D01*
X0008633911Y0028663217D01*
X0008630080Y0028716783D01*
X0009106089Y0028716783D01*
X0009111154Y0028645968D01*
X0009140115Y0028600904D01*
X0009840720Y0027900300D01*
X0009903032Y0027866274D01*
X0009973847Y0027871339D01*
X0010033029Y0027917126D01*
X0010077267Y0027980306D01*
X0010088248Y0027999325D01*
X0010182163Y0028200725D01*
X0010189675Y0028221364D01*
X0010247190Y0028436013D01*
X0010251004Y0028457642D01*
X0010270372Y0028679018D01*
X0010270372Y0028700982D01*
X0010251004Y0028922358D01*
X0010247190Y0028943987D01*
X0010189675Y0029158636D01*
X0010182163Y0029179275D01*
X0010088248Y0029380675D01*
X0010077267Y0029399694D01*
X0010033029Y0029462874D01*
X0009977572Y0029507204D01*
X0009906953Y0029514514D01*
X0009840720Y0029479700D01*
X0009140115Y0028779094D01*
X0009106089Y0028716783D01*
X0008630080Y0028716783D01*
X0008628846Y0028734032D01*
X0008599885Y0028779094D01*
X0007899280Y0029479700D01*
X0007836968Y0029513726D01*
X0007766153Y0029508661D01*
X0007706971Y0029462874D01*
X0007662733Y0029399694D01*
X0007651752Y0029380675D01*
X0007557837Y0029179275D01*
X0007550325Y0029158636D01*
X0007492810Y0028943987D01*
X0007488996Y0028922358D01*
X0007469628Y0028700982D01*
X0007469628Y0028679018D01*
X0004720497Y0028679018D01*
X0004772390Y0028835472D01*
X0004778141Y0028862296D01*
X0004788844Y0028966757D01*
X0004789500Y0028979599D01*
X0004789500Y0029726953D01*
X0008045486Y0029726953D01*
X0008080299Y0029660719D01*
X0008780905Y0028960115D01*
X0008843217Y0028926088D01*
X0008914032Y0028931154D01*
X0008959095Y0028960115D01*
X0009659700Y0029660719D01*
X0009693726Y0029723032D01*
X0009688661Y0029793847D01*
X0009662271Y0029827956D01*
X0010444745Y0029827956D01*
X0010445821Y0029810851D01*
X0010483346Y0029525820D01*
X0010486734Y0029509017D01*
X0010562595Y0029231716D01*
X0010568232Y0029215529D01*
X0010681026Y0028951089D01*
X0010688807Y0028935817D01*
X0010836445Y0028689133D01*
X0010846227Y0028675058D01*
X0011025979Y0028450691D01*
X0011037580Y0028438074D01*
X0011246118Y0028240180D01*
X0011259325Y0028229255D01*
X0011492791Y0028061492D01*
X0011507358Y0028052460D01*
X0011761433Y0027917934D01*
X0011777091Y0027910961D01*
X0012047072Y0027812163D01*
X0012063531Y0027807381D01*
X0012344422Y0027746136D01*
X0012361378Y0027743633D01*
X0012586853Y0027725887D01*
X0012596739Y0027725500D01*
X0012752271Y0027725500D01*
X0012760841Y0027725792D01*
X0012975395Y0027740419D01*
X0012992376Y0027742745D01*
X0013273893Y0027801043D01*
X0013290402Y0027805653D01*
X0013561403Y0027901620D01*
X0013577133Y0027908427D01*
X0013832602Y0028040284D01*
X0013847263Y0028049163D01*
X0014082474Y0028214472D01*
X0014095794Y0028225259D01*
X0014306393Y0028420960D01*
X0014318126Y0028433453D01*
X0014500217Y0028655926D01*
X0014510146Y0028669897D01*
X0014660360Y0028915022D01*
X0014668300Y0028930213D01*
X0014783856Y0029193457D01*
X0014789662Y0029209583D01*
X0014868423Y0029486075D01*
X0014871987Y0029502841D01*
X0014912494Y0029787463D01*
X0014913749Y0029804555D01*
X0014915255Y0030092043D01*
X0014914179Y0030109149D01*
X0014876654Y0030394180D01*
X0014873266Y0030410982D01*
X0014797405Y0030688284D01*
X0014791768Y0030704470D01*
X0014678974Y0030968911D01*
X0014671193Y0030984182D01*
X0014523555Y0031230867D01*
X0014513773Y0031244942D01*
X0014334021Y0031469309D01*
X0014322420Y0031481925D01*
X0014113882Y0031679820D01*
X0014100675Y0031690745D01*
X0013867209Y0031858508D01*
X0013852642Y0031867540D01*
X0013598567Y0032002066D01*
X0013582909Y0032009038D01*
X0013312928Y0032107837D01*
X0013296469Y0032112619D01*
X0013015578Y0032173862D01*
X0012998622Y0032176367D01*
X0012773147Y0032194111D01*
X0012763261Y0032194499D01*
X0012607729Y0032194499D01*
X0012599159Y0032194208D01*
X0012384605Y0032179581D01*
X0012367624Y0032177255D01*
X0012086107Y0032118955D01*
X0012069598Y0032114347D01*
X0011798597Y0032018380D01*
X0011782867Y0032011573D01*
X0011527398Y0031879716D01*
X0011512737Y0031870837D01*
X0011277526Y0031705528D01*
X0011264206Y0031694741D01*
X0011053607Y0031499040D01*
X0011041874Y0031486546D01*
X0010859783Y0031264074D01*
X0010849854Y0031250103D01*
X0010699640Y0031004977D01*
X0010691700Y0030989787D01*
X0010576144Y0030726543D01*
X0010570338Y0030710417D01*
X0010491577Y0030433925D01*
X0010488013Y0030417158D01*
X0010447506Y0030132537D01*
X0010446251Y0030115444D01*
X0010444745Y0029827956D01*
X0009662271Y0029827956D01*
X0009642875Y0029853028D01*
X0009579696Y0029897266D01*
X0009560676Y0029908248D01*
X0009359275Y0030002163D01*
X0009338636Y0030009675D01*
X0009123987Y0030067190D01*
X0009102358Y0030071004D01*
X0008880982Y0030090372D01*
X0008859018Y0030090372D01*
X0008637642Y0030071004D01*
X0008616013Y0030067190D01*
X0008401364Y0030009675D01*
X0008380725Y0030002163D01*
X0008179325Y0029908248D01*
X0008160306Y0029897267D01*
X0008097125Y0029853029D01*
X0008052796Y0029797572D01*
X0008045486Y0029726953D01*
X0004789500Y0029726953D01*
X0004789500Y0029780400D01*
X0004788827Y0029793404D01*
X0004777853Y0029899169D01*
X0004772050Y0029926042D01*
X0004716074Y0030093822D01*
X0004703694Y0030120249D01*
X0004610622Y0030270651D01*
X0004592496Y0030293521D01*
X0004467321Y0030418478D01*
X0004444419Y0030436565D01*
X0004293854Y0030529375D01*
X0004267405Y0030541708D01*
X0004099528Y0030597390D01*
X0004072704Y0030603141D01*
X0003968243Y0030613844D01*
X0003955400Y0030614500D01*
X0002604600Y0030614500D01*
X0002591596Y0030613827D01*
X0002485830Y0030602853D01*
X0002458958Y0030597050D01*
X0002291178Y0030541074D01*
X0002264751Y0030528694D01*
X0002114349Y0030435622D01*
X0002091479Y0030417496D01*
X0001966522Y0030292321D01*
X0001948435Y0030269419D01*
X0001855625Y0030118854D01*
X0001843292Y0030092405D01*
X0001787610Y0029924528D01*
X0001781859Y0029897703D01*
X0001771156Y0029793243D01*
X0001770500Y0029780400D01*
X0001770500Y0028979599D01*
X0001771173Y0028966596D01*
X0001782147Y0028860830D01*
X0001787950Y0028833958D01*
X0001843926Y0028666178D01*
X0001856306Y0028639751D01*
X0001949378Y0028489349D01*
X0001967504Y0028466479D01*
X0002092679Y0028341521D01*
X0002115581Y0028323435D01*
X0002167120Y0028291666D01*
X0002159247Y0028285482D01*
X0002141915Y0028268976D01*
X0002003283Y0028109217D01*
X0001989384Y0028089731D01*
X0001883463Y0027906641D01*
X0001873499Y0027884878D01*
X0001804111Y0027685062D01*
X0001798443Y0027661808D01*
X0001768091Y0027452476D01*
X0001766922Y0027428570D01*
X0000634000Y0027428570D01*
X0000634000Y0033378866D01*
X0001675500Y0033378866D01*
X0001676237Y0033365257D01*
X0001682992Y0033303075D01*
X0001690273Y0033272453D01*
X0001741403Y0033136065D01*
X0001758559Y0033104730D01*
X0001845913Y0032988174D01*
X0001871174Y0032962913D01*
X0001987730Y0032875559D01*
X0002019065Y0032858403D01*
X0002155454Y0032807273D01*
X0002186076Y0032799992D01*
X0002248258Y0032793236D01*
X0002261866Y0032792500D01*
X0004058134Y0032792500D01*
X0004071742Y0032793236D01*
X0004133924Y0032799992D01*
X0004164545Y0032807273D01*
X0004300935Y0032858403D01*
X0004332270Y0032875559D01*
X0004448826Y0032962913D01*
X0004474087Y0032988174D01*
X0004561441Y0033104730D01*
X0004578597Y0033136065D01*
X0004629727Y0033272453D01*
X0004637008Y0033303075D01*
X0004643763Y0033365257D01*
X0004644500Y0033378866D01*
X0004644500Y0033976169D01*
X0011285476Y0033976169D01*
X0011290541Y0033905355D01*
X0011321555Y0033858284D01*
X0011324449Y0033855519D01*
X0011334787Y0033846660D01*
X0011623350Y0033625237D01*
X0011634595Y0033617537D01*
X0011945385Y0033428573D01*
X0011957395Y0033422134D01*
X0012286774Y0033267842D01*
X0012299409Y0033262737D01*
X0012643526Y0033144919D01*
X0012656639Y0033141209D01*
X0013011467Y0033061245D01*
X0013024904Y0033058971D01*
X0013386293Y0033017797D01*
X0013399897Y0033016989D01*
X0013763618Y0033015085D01*
X0013777230Y0033015749D01*
X0014139030Y0033053137D01*
X0014152490Y0033055270D01*
X0014508136Y0033131514D01*
X0014521287Y0033135087D01*
X0014866619Y0033249295D01*
X0014879307Y0033254267D01*
X0015210284Y0033405102D01*
X0015222361Y0033411417D01*
X0015535112Y0033597115D01*
X0015546437Y0033604696D01*
X0015837304Y0033823085D01*
X0015847744Y0033831845D01*
X0015876308Y0033858575D01*
X0015912380Y0033919725D01*
X0015909665Y0033990670D01*
X0015879310Y0034039670D01*
X0013689095Y0036229885D01*
X0013626783Y0036263911D01*
X0013555968Y0036258846D01*
X0013510905Y0036229885D01*
X0011319502Y0034038482D01*
X0011285476Y0033976169D01*
X0004644500Y0033976169D01*
X0004644500Y0035175134D01*
X0004643763Y0035188742D01*
X0004637008Y0035250924D01*
X0004629727Y0035281546D01*
X0004578597Y0035417935D01*
X0004561441Y0035449270D01*
X0004474087Y0035565826D01*
X0004448826Y0035591087D01*
X0004332270Y0035678441D01*
X0004300935Y0035695597D01*
X0004181917Y0035740215D01*
X0004286653Y0035844587D01*
X0004300035Y0035860311D01*
X0004430344Y0036041655D01*
X0004440979Y0036059354D01*
X0004539921Y0036259547D01*
X0004547522Y0036278745D01*
X0004612438Y0036492408D01*
X0004615239Y0036505364D01*
X0010111249Y0036505364D01*
X0010129651Y0036142103D01*
X0010131076Y0036128550D01*
X0010188603Y0035769401D01*
X0010191483Y0035756081D01*
X0010287460Y0035405246D01*
X0010291761Y0035392315D01*
X0010425068Y0035053897D01*
X0010430741Y0035041506D01*
X0010599816Y0034719465D01*
X0010606794Y0034707759D01*
X0010809661Y0034405861D01*
X0010817863Y0034394977D01*
X0010956231Y0034230661D01*
X0011015410Y0034191438D01*
X0011086399Y0034190436D01*
X0011141706Y0034222726D01*
X0013329885Y0036410905D01*
X0013363911Y0036473217D01*
X0013358846Y0036544032D01*
X0013329885Y0036589095D01*
X0011141810Y0038777170D01*
X0011079498Y0038811196D01*
X0011008683Y0038806131D01*
X0010956903Y0038769905D01*
X0010832626Y0038624394D01*
X0010824350Y0038613568D01*
X0010619380Y0038313094D01*
X0010612320Y0038301437D01*
X0010441001Y0037980583D01*
X0010435242Y0037968233D01*
X0010299576Y0037630755D01*
X0010295184Y0037617854D01*
X0010196759Y0037267697D01*
X0010193786Y0037254397D01*
X0010133754Y0036895658D01*
X0010132235Y0036882115D01*
X0010111297Y0036518992D01*
X0010111249Y0036505364D01*
X0004615239Y0036505364D01*
X0004616802Y0036512592D01*
X0004621273Y0036546555D01*
X0004610333Y0036616703D01*
X0004563205Y0036669802D01*
X0004496351Y0036689000D01*
X0001825110Y0036689000D01*
X0001756989Y0036668998D01*
X0001710496Y0036615342D01*
X0001700392Y0036545068D01*
X0001702193Y0036535299D01*
X0001736784Y0036381810D01*
X0001742958Y0036362107D01*
X0001826971Y0036155206D01*
X0001836281Y0036136775D01*
X0001952959Y0035946374D01*
X0001965155Y0035929712D01*
X0002111364Y0035760924D01*
X0002126116Y0035746477D01*
X0002135035Y0035739072D01*
X0002019065Y0035695597D01*
X0001987730Y0035678441D01*
X0001871174Y0035591087D01*
X0001845913Y0035565826D01*
X0001758559Y0035449270D01*
X0001741403Y0035417935D01*
X0001690273Y0035281546D01*
X0001682992Y0035250924D01*
X0001676237Y0035188742D01*
X0001675500Y0035175134D01*
X0001675500Y0033378866D01*
X0000634000Y0033378866D01*
X0000634000Y0037084410D01*
X0001696055Y0037084410D01*
X0001708693Y0037014547D01*
X0001757096Y0036962608D01*
X0001821339Y0036945000D01*
X0002906000Y0036945000D01*
X0002974121Y0036965002D01*
X0003020614Y0037018658D01*
X0003032000Y0037071000D01*
X0003288000Y0037071000D01*
X0003308002Y0037002879D01*
X0003361658Y0036956386D01*
X0003414000Y0036945000D01*
X0004496459Y0036945000D01*
X0004564580Y0036965002D01*
X0004611073Y0037018658D01*
X0004621177Y0037088932D01*
X0004618663Y0037101696D01*
X0004572159Y0037286833D01*
X0004565505Y0037306379D01*
X0004476462Y0037511165D01*
X0004466704Y0037529363D01*
X0004345409Y0037716857D01*
X0004332810Y0037733216D01*
X0004182521Y0037898382D01*
X0004167420Y0037912464D01*
X0003992173Y0038050865D01*
X0003974975Y0038062291D01*
X0003779477Y0038170212D01*
X0003760643Y0038178677D01*
X0003550144Y0038253219D01*
X0003530180Y0038258493D01*
X0003436096Y0038275252D01*
X0003365524Y0038267506D01*
X0003310342Y0038222836D01*
X0003288000Y0038151205D01*
X0003288000Y0037071000D01*
X0003032000Y0037071000D01*
X0003032000Y0038152013D01*
X0003011998Y0038220134D01*
X0002958342Y0038266627D01*
X0002886940Y0038276563D01*
X0002825148Y0038267107D01*
X0002805063Y0038262322D01*
X0002592805Y0038192946D01*
X0002573770Y0038184944D01*
X0002375694Y0038081832D01*
X0002358221Y0038070829D01*
X0002179645Y0037936750D01*
X0002164204Y0037923041D01*
X0002009925Y0037761597D01*
X0001996931Y0037745550D01*
X0001871091Y0037561076D01*
X0001860891Y0037543122D01*
X0001766871Y0037340572D01*
X0001759742Y0037321194D01*
X0001700065Y0037106008D01*
X0001696198Y0037085746D01*
X0001696055Y0037084410D01*
X0000634000Y0037084410D01*
X0000634000Y0039366000D01*
X0011613728Y0039366000D01*
X0011353366Y0039169089D02*
X0011613728Y0039366000D01*
G04 #@! TA.AperFunction,Conductor*
G36*
X0011353366Y0039169089D02*
G01*
X0011342956Y0039160293D01*
X0011323004Y0039141491D01*
X0011287146Y0039080215D01*
X0011290108Y0039009281D01*
X0011320323Y0038960697D01*
X0013510905Y0036770115D01*
X0013573217Y0036736089D01*
X0013644032Y0036741154D01*
X0013689095Y0036770115D01*
X0015880073Y0038961093D01*
X0015914099Y0039023405D01*
X0015909034Y0039094220D01*
X0015877713Y0039141583D01*
X0015866318Y0039152397D01*
X0015855937Y0039161232D01*
X0015587140Y0039366000D01*
X0016966000Y0039366000D01*
X0016966000Y0037399684D01*
X0016908698Y0037606310D01*
X0016904352Y0037619226D01*
X0016769865Y0037957177D01*
X0016764147Y0037969548D01*
X0016593948Y0038290997D01*
X0016586931Y0038302678D01*
X0016383012Y0038603866D01*
X0016374772Y0038614721D01*
X0016243419Y0038769608D01*
X0016184104Y0038808625D01*
X0016113112Y0038809380D01*
X0016058228Y0038777208D01*
X0013870115Y0036589095D01*
X0013836089Y0036526783D01*
X0013841154Y0036455968D01*
X0013870115Y0036410905D01*
X0016058180Y0034222840D01*
X0016120491Y0034188814D01*
X0016191306Y0034193879D01*
X0016242799Y0034229770D01*
X0016359941Y0034365958D01*
X0016368255Y0034376756D01*
X0016574273Y0034676513D01*
X0016581373Y0034688145D01*
X0016753812Y0035008398D01*
X0016759615Y0035020729D01*
X0016896458Y0035357732D01*
X0016900894Y0035370617D01*
X0016966000Y0035599174D01*
X0016966000Y0025185899D01*
X0016939221Y0025212866D01*
X0016936644Y0025214938D01*
X0015607329Y0026544252D01*
X0015544252Y0026608665D01*
X0015522484Y0026626418D01*
X0015486050Y0026649898D01*
X0015452165Y0026676948D01*
X0015428395Y0026691917D01*
X0015398201Y0026706513D01*
X0015370018Y0026724676D01*
X0015344858Y0026737166D01*
X0015304122Y0026751993D01*
X0015265089Y0026770862D01*
X0015238595Y0026780192D01*
X0015205917Y0026787736D01*
X0015174410Y0026799204D01*
X0015147106Y0026805810D01*
X0015104091Y0026811244D01*
X0015061860Y0026820994D01*
X0015033955Y0026824223D01*
X0014993385Y0026824365D01*
X0014991231Y0026824500D01*
X0014954581Y0026824500D01*
X0014852570Y0026824856D01*
X0014849293Y0026824500D01*
X0010096343Y0026824500D01*
X0010088683Y0026840926D01*
X0010077701Y0026859947D01*
X0009950190Y0027042052D01*
X0009936072Y0027058875D01*
X0009778876Y0027216072D01*
X0009762052Y0027230190D01*
X0009579948Y0027357701D01*
X0009560927Y0027368683D01*
X0009450285Y0027420276D01*
X0009560676Y0027471752D01*
X0009579696Y0027482734D01*
X0009642875Y0027526972D01*
X0009687204Y0027582428D01*
X0009694513Y0027653048D01*
X0009659700Y0027719279D01*
X0008959095Y0028419885D01*
X0008896783Y0028453910D01*
X0008825968Y0028448846D01*
X0008780905Y0028419885D01*
X0008080299Y0027719279D01*
X0008046274Y0027656968D01*
X0008051339Y0027586153D01*
X0008097125Y0027526972D01*
X0008160304Y0027482734D01*
X0008179323Y0027471752D01*
X0008289714Y0027420276D01*
X0008179074Y0027368683D01*
X0008160053Y0027357701D01*
X0007977948Y0027230190D01*
X0007961124Y0027216072D01*
X0007803928Y0027058875D01*
X0007790812Y0027043247D01*
X0007767239Y0027035314D01*
X0007727944Y0027016991D01*
X0007687011Y0027002736D01*
X0007661679Y0026990600D01*
X0007633237Y0026972828D01*
X0007602848Y0026958657D01*
X0007578872Y0026944022D01*
X0007544618Y0026917452D01*
X0007507855Y0026894480D01*
X0007485839Y0026877031D01*
X0007457030Y0026848422D01*
X0007455435Y0026847016D01*
X0007429898Y0026821479D01*
X0007357134Y0026749221D01*
X0007355058Y0026746639D01*
X0005625748Y0025017330D01*
X0005561335Y0024954252D01*
X0005543582Y0024932484D01*
X0005520102Y0024896050D01*
X0005493052Y0024862164D01*
X0005478083Y0024838395D01*
X0005463487Y0024808201D01*
X0005445324Y0024780018D01*
X0005432834Y0024754858D01*
X0005418007Y0024714122D01*
X0005399138Y0024675089D01*
X0005389808Y0024648595D01*
X0005382264Y0024615917D01*
X0005370796Y0024584410D01*
X0005364190Y0024557105D01*
X0005358756Y0024514091D01*
X0005349006Y0024471860D01*
X0005345777Y0024443955D01*
X0005345635Y0024403385D01*
X0005345500Y0024401231D01*
X0005345500Y0024364581D01*
X0005345144Y0024262570D01*
X0005345500Y0024259293D01*
X0005345500Y0022388594D01*
X0004730956Y0023003138D01*
X0004755889Y0023074938D01*
X0004761557Y0023098191D01*
X0004791909Y0023307524D01*
X0004793078Y0023331430D01*
X0004783298Y0023542725D01*
X0004779926Y0023566420D01*
X0004730368Y0023772055D01*
X0004722576Y0023794685D01*
X0004635027Y0023987238D01*
X0004623096Y0024007987D01*
X0004500716Y0024180511D01*
X0004485077Y0024198629D01*
X0004332281Y0024344898D01*
X0004313498Y0024359733D01*
X0004280742Y0024380884D01*
X0004400407Y0024474882D01*
X0004417739Y0024491387D01*
X0004556308Y0024651073D01*
X0004570207Y0024670559D01*
X0004676080Y0024853568D01*
X0004686044Y0024875330D01*
X0004755401Y0025075057D01*
X0004761070Y0025098315D01*
X0004762463Y0025107925D01*
X0004752440Y0025178210D01*
X0004706009Y0025231918D01*
X0004637766Y0025252000D01*
X0001926483Y0025252000D01*
X0001858362Y0025231998D01*
X0001811869Y0025178342D01*
X0001801765Y0025108068D01*
X0001803990Y0025096479D01*
X0001830107Y0024988109D01*
X0001837899Y0024965479D01*
X0001925408Y0024773012D01*
X0001937339Y0024752263D01*
X0002059664Y0024579817D01*
X0002075303Y0024561699D01*
X0002228030Y0024415495D01*
X0002246813Y0024400661D01*
X0002279230Y0024379730D01*
X0002159247Y0024285482D01*
X0002141915Y0024268976D01*
X0002003283Y0024109217D01*
X0001989384Y0024089731D01*
X0001883463Y0023906641D01*
X0001873499Y0023884879D01*
X0001804111Y0023685062D01*
X0001798443Y0023661809D01*
X0001768091Y0023452476D01*
X0001766922Y0023428570D01*
X0001776702Y0023217275D01*
X0001780074Y0023193580D01*
X0001829632Y0022987945D01*
X0001837424Y0022965315D01*
X0001924973Y0022772762D01*
X0001936904Y0022752013D01*
X0002059284Y0022579489D01*
X0002074923Y0022561371D01*
X0002227719Y0022415101D01*
X0002246502Y0022400267D01*
X0002279258Y0022379116D01*
X0002159593Y0022285118D01*
X0002142261Y0022268613D01*
X0002003692Y0022108927D01*
X0001989793Y0022089441D01*
X0001883920Y0021906432D01*
X0001873956Y0021884670D01*
X0001804599Y0021684943D01*
X0001798930Y0021661685D01*
X0001797537Y0021652075D01*
X0001807560Y0021581790D01*
X0001853991Y0021528081D01*
X0001922234Y0021508000D01*
X0003408000Y0021508000D01*
X0003408000Y0021252000D01*
X0001926483Y0021252000D01*
X0001858362Y0021231998D01*
X0001811869Y0021178342D01*
X0001801765Y0021108068D01*
X0001803990Y0021096479D01*
X0001830107Y0020988109D01*
X0001837899Y0020965479D01*
X0001925408Y0020773012D01*
X0001937339Y0020752263D01*
X0002059664Y0020579817D01*
X0002075303Y0020561699D01*
X0002228030Y0020415495D01*
X0002246813Y0020400661D01*
X0002279230Y0020379730D01*
X0002159247Y0020285482D01*
X0002141915Y0020268976D01*
X0002003283Y0020109217D01*
X0001989384Y0020089732D01*
X0001883463Y0019906641D01*
X0001873499Y0019884879D01*
X0001804111Y0019685062D01*
X0001798443Y0019661809D01*
X0001768091Y0019452476D01*
X0001766922Y0019428570D01*
X0001776702Y0019217275D01*
X0001780074Y0019193580D01*
X0001829632Y0018987945D01*
X0001837424Y0018965315D01*
X0001924973Y0018772762D01*
X0001936904Y0018752013D01*
X0002059284Y0018579489D01*
X0002074923Y0018561371D01*
X0002227719Y0018415101D01*
X0002246502Y0018400267D01*
X0002279258Y0018379116D01*
X0002159593Y0018285118D01*
X0002142261Y0018268613D01*
X0002003692Y0018108927D01*
X0001989793Y0018089441D01*
X0001883920Y0017906432D01*
X0001873956Y0017884670D01*
X0001804599Y0017684943D01*
X0001798930Y0017661685D01*
X0001797537Y0017652075D01*
X0001807560Y0017581790D01*
X0001853991Y0017528081D01*
X0001922234Y0017508000D01*
X0003408000Y0017508000D01*
X0003408000Y0017252000D01*
X0001926483Y0017252000D01*
X0001858362Y0017231998D01*
X0001811869Y0017178342D01*
X0001801765Y0017108068D01*
X0001803990Y0017096479D01*
X0001830107Y0016988109D01*
X0001837899Y0016965479D01*
X0001925408Y0016773012D01*
X0001937339Y0016752263D01*
X0002059664Y0016579816D01*
X0002075303Y0016561699D01*
X0002228030Y0016415495D01*
X0002246813Y0016400661D01*
X0002279230Y0016379729D01*
X0002159247Y0016285481D01*
X0002141915Y0016268975D01*
X0002003283Y0016109217D01*
X0001989384Y0016089732D01*
X0001883463Y0015906641D01*
X0001873499Y0015884879D01*
X0001804111Y0015685061D01*
X0001798443Y0015661809D01*
X0001768091Y0015452476D01*
X0001766922Y0015428570D01*
X0001776702Y0015217275D01*
X0001780074Y0015193580D01*
X0001829632Y0014987945D01*
X0001837424Y0014965315D01*
X0001924973Y0014772762D01*
X0001936904Y0014752013D01*
X0002059284Y0014579488D01*
X0002074923Y0014561371D01*
X0002227719Y0014415101D01*
X0002246502Y0014400267D01*
X0002279258Y0014379116D01*
X0002159593Y0014285118D01*
X0002142261Y0014268612D01*
X0002003692Y0014108927D01*
X0001989793Y0014089441D01*
X0001883920Y0013906431D01*
X0001873956Y0013884670D01*
X0001804599Y0013684943D01*
X0001798930Y0013661684D01*
X0001797537Y0013652075D01*
X0001807560Y0013581790D01*
X0001853991Y0013528081D01*
X0001922234Y0013508000D01*
X0003408000Y0013508000D01*
X0003408000Y0013251999D01*
X0001926483Y0013251999D01*
X0001858362Y0013231998D01*
X0001811869Y0013178342D01*
X0001801765Y0013108068D01*
X0001803990Y0013096478D01*
X0001830107Y0012988109D01*
X0001837899Y0012965478D01*
X0001925408Y0012773012D01*
X0001937339Y0012752263D01*
X0002059664Y0012579816D01*
X0002075303Y0012561699D01*
X0002228030Y0012415495D01*
X0002246813Y0012400661D01*
X0002279230Y0012379729D01*
X0002159247Y0012285481D01*
X0002141915Y0012268975D01*
X0002003283Y0012109217D01*
X0001989384Y0012089732D01*
X0001883463Y0011906641D01*
X0001873499Y0011884879D01*
X0001804111Y0011685061D01*
X0001798443Y0011661809D01*
X0001768091Y0011452476D01*
X0001766922Y0011428570D01*
X0001776702Y0011217275D01*
X0001780074Y0011193580D01*
X0001829632Y0010987945D01*
X0001837424Y0010965315D01*
X0001924973Y0010772762D01*
X0001936904Y0010752013D01*
X0002059284Y0010579488D01*
X0002074923Y0010561371D01*
X0002227719Y0010415101D01*
X0002246502Y0010400267D01*
X0002424200Y0010285528D01*
X0002445450Y0010274514D01*
X0002641639Y0010195447D01*
X0002664587Y0010188650D01*
X0002872187Y0010148108D01*
X0002890183Y0010145921D01*
X0002895745Y0010145650D01*
X0002901899Y0010145499D01*
X0003607846Y0010145499D01*
X0003619813Y0010146070D01*
X0003777533Y0010161117D01*
X0003801035Y0010165643D01*
X0004004003Y0010225186D01*
X0004026226Y0010234076D01*
X0004214272Y0010330926D01*
X0004234413Y0010343855D01*
X0004400753Y0010474518D01*
X0004418085Y0010491024D01*
X0004530439Y0010620500D01*
X0004573017Y0010620500D01*
X0004595652Y0010618360D01*
X0004663729Y0010620500D01*
X0004691640Y0010620500D01*
X0004707430Y0010621493D01*
X0004711441Y0010622000D01*
X0004755632Y0010623389D01*
X0004786825Y0010628329D01*
X0004806276Y0010633980D01*
X0004826374Y0010636520D01*
X0004856965Y0010644374D01*
X0004898079Y0010660651D01*
X0004940529Y0010672985D01*
X0004969517Y0010685528D01*
X0004986953Y0010695841D01*
X0005005783Y0010703296D01*
X0005033461Y0010718511D01*
X0005069231Y0010744499D01*
X0005107286Y0010767005D01*
X0005132241Y0010786363D01*
X0005146562Y0010800684D01*
X0005162952Y0010812591D01*
X0005185976Y0010834212D01*
X0005214167Y0010868289D01*
X0006224952Y0011879073D01*
X0006617501Y0011879073D01*
X0006617501Y0011848688D01*
X0006618579Y0011832244D01*
X0006634240Y0011713277D01*
X0006642753Y0011681505D01*
X0006650181Y0011663573D01*
X0006642753Y0011645641D01*
X0006634240Y0011613869D01*
X0006618578Y0011494903D01*
X0006617500Y0011478458D01*
X0006617501Y0011198689D01*
X0006618579Y0011182244D01*
X0006634240Y0011063278D01*
X0006642753Y0011031505D01*
X0006650181Y0011013573D01*
X0006642753Y0010995641D01*
X0006634240Y0010963868D01*
X0006618578Y0010844904D01*
X0006617500Y0010828458D01*
X0006617501Y0010548689D01*
X0006618579Y0010532243D01*
X0006634240Y0010413277D01*
X0006642753Y0010381505D01*
X0006650181Y0010363572D01*
X0006642753Y0010345641D01*
X0006634240Y0010313869D01*
X0006618578Y0010194904D01*
X0006617500Y0010178458D01*
X0006617501Y0009898689D01*
X0006618579Y0009882244D01*
X0006634240Y0009763278D01*
X0006642753Y0009731504D01*
X0006650452Y0009712919D01*
X0006643241Y0009695511D01*
X0006634728Y0009663740D01*
X0006626997Y0009605020D01*
X0006637936Y0009534870D01*
X0006685064Y0009481772D01*
X0006751919Y0009462572D01*
X0006791431Y0009462572D01*
X0006818051Y0009427882D01*
X0006841309Y0009404623D01*
X0006958665Y0009314573D01*
X0006751920Y0009314573D01*
X0006683799Y0009294571D01*
X0006637306Y0009240915D01*
X0006626998Y0009172128D01*
X0006634728Y0009113408D01*
X0006643241Y0009081634D01*
X0006704504Y0008933732D01*
X0006720951Y0008905246D01*
X0006818408Y0008778239D01*
X0006841666Y0008754981D01*
X0006968673Y0008657523D01*
X0006997159Y0008641077D01*
X0007145062Y0008579813D01*
X0007176834Y0008571300D01*
X0007295707Y0008555651D01*
X0007312153Y0008554573D01*
X0007789500Y0008554573D01*
X0007857621Y0008574575D01*
X0007904114Y0008628231D01*
X0007915500Y0008680572D01*
X0007915500Y0009188573D01*
X0007910949Y0009204073D01*
X0008063499Y0009204073D01*
X0008063499Y0008680574D01*
X0008083501Y0008612452D01*
X0008137157Y0008565960D01*
X0008189500Y0008554573D01*
X0008666846Y0008554573D01*
X0008683291Y0008555651D01*
X0008802165Y0008571300D01*
X0008833938Y0008579813D01*
X0008981841Y0008641077D01*
X0009010327Y0008657523D01*
X0009137334Y0008754981D01*
X0009160592Y0008778239D01*
X0009258049Y0008905246D01*
X0009274496Y0008933732D01*
X0009335759Y0009081634D01*
X0009344272Y0009113406D01*
X0009359922Y0009232280D01*
X0009361000Y0009248726D01*
X0009361000Y0009279073D01*
X0009809406Y0009279073D01*
X0009832041Y0009276933D01*
X0009900118Y0009279073D01*
X0009928029Y0009279073D01*
X0009943819Y0009280066D01*
X0009947830Y0009280573D01*
X0009992021Y0009281962D01*
X0010023214Y0009286902D01*
X0010042665Y0009292554D01*
X0010062763Y0009295093D01*
X0010093354Y0009302947D01*
X0010134468Y0009319225D01*
X0010176918Y0009331558D01*
X0010205906Y0009344102D01*
X0010210409Y0009346765D01*
X0010302220Y0009355121D01*
X0010329736Y0009360769D01*
X0010502244Y0009416820D01*
X0010527825Y0009428424D01*
X0010683629Y0009521301D01*
X0010706004Y0009538284D01*
X0010837358Y0009663371D01*
X0010855414Y0009684891D01*
X0010955791Y0009835971D01*
X0010968631Y0009860954D01*
X0011033043Y0010030518D01*
X0011040029Y0010057725D01*
X0011065273Y0010237347D01*
X0011066487Y0010253125D01*
X0011066804Y0010275842D01*
X0011066031Y0010291644D01*
X0011045812Y0010471900D01*
X0011039588Y0010499292D01*
X0010979936Y0010670589D01*
X0010967799Y0010695922D01*
X0010945786Y0010731150D01*
X0010964030Y0010758610D01*
X0010976870Y0010783593D01*
X0011041282Y0010953157D01*
X0011048268Y0010980364D01*
X0011073512Y0011159986D01*
X0011074726Y0011175764D01*
X0011075043Y0011198481D01*
X0011074270Y0011214284D01*
X0011054051Y0011394539D01*
X0011047827Y0011421931D01*
X0010988175Y0011593228D01*
X0010976038Y0011618559D01*
X0010918628Y0011710436D01*
X0010955791Y0011766371D01*
X0010968631Y0011791353D01*
X0011033043Y0011960918D01*
X0011040029Y0011988126D01*
X0011065273Y0012167746D01*
X0011066487Y0012183525D01*
X0011066804Y0012206242D01*
X0011066031Y0012222045D01*
X0011045812Y0012402300D01*
X0011039588Y0012429692D01*
X0010979936Y0012600988D01*
X0010967799Y0012626321D01*
X0010950639Y0012653784D01*
X0010968569Y0012680771D01*
X0010981409Y0012705753D01*
X0011045821Y0012875318D01*
X0011052807Y0012902526D01*
X0011078051Y0013082147D01*
X0011079265Y0013097925D01*
X0011079582Y0013120642D01*
X0011078809Y0013136444D01*
X0011058590Y0013316700D01*
X0011052366Y0013344092D01*
X0010992714Y0013515388D01*
X0010980577Y0013540721D01*
X0010884458Y0013694545D01*
X0010867010Y0013716560D01*
X0010739199Y0013845265D01*
X0010717307Y0013862867D01*
X0010564158Y0013960058D01*
X0010538911Y0013972372D01*
X0010368035Y0014033218D01*
X0010340687Y0014039632D01*
X0010160577Y0014061110D01*
X0010132487Y0014061305D01*
X0009952095Y0014042345D01*
X0009924661Y0014036314D01*
X0009752952Y0013977860D01*
X0009727535Y0013965899D01*
X0009573044Y0013870854D01*
X0009550908Y0013853561D01*
X0009421313Y0013726652D01*
X0009403560Y0013704884D01*
X0009335038Y0013598559D01*
X0009328819Y0013613572D01*
X0009336247Y0013631505D01*
X0009344760Y0013663277D01*
X0009360422Y0013782242D01*
X0009361500Y0013798687D01*
X0009361499Y0014078457D01*
X0009360421Y0014094902D01*
X0009344760Y0014213868D01*
X0009336247Y0014245641D01*
X0009328819Y0014263573D01*
X0009336247Y0014281505D01*
X0009344760Y0014313277D01*
X0009360422Y0014432241D01*
X0009361500Y0014448688D01*
X0009361499Y0014728456D01*
X0009360421Y0014744902D01*
X0009344760Y0014863868D01*
X0009336247Y0014895641D01*
X0009328819Y0014913573D01*
X0009336247Y0014931505D01*
X0009344760Y0014963277D01*
X0009360422Y0015082242D01*
X0009361500Y0015098688D01*
X0009361499Y0015378457D01*
X0009360421Y0015394901D01*
X0009344760Y0015513867D01*
X0009336247Y0015545641D01*
X0009328548Y0015564226D01*
X0009335759Y0015581634D01*
X0009344272Y0015613406D01*
X0009352003Y0015672125D01*
X0009341064Y0015742275D01*
X0009293936Y0015795373D01*
X0009227081Y0015814573D01*
X0009187569Y0015814573D01*
X0009160949Y0015849264D01*
X0009137691Y0015872522D01*
X0009020335Y0015962572D01*
X0009227080Y0015962572D01*
X0009295201Y0015982575D01*
X0009341694Y0016036231D01*
X0009352002Y0016105018D01*
X0009344272Y0016163737D01*
X0009335759Y0016195511D01*
X0009328277Y0016213573D01*
X0009335759Y0016231635D01*
X0009344272Y0016263406D01*
X0009352003Y0016322126D01*
X0009341064Y0016392275D01*
X0009293936Y0016445374D01*
X0009227081Y0016464573D01*
X0008189500Y0016464573D01*
X0008121378Y0016444571D01*
X0008074885Y0016390915D01*
X0008063499Y0016338573D01*
X0008063499Y0016088573D01*
X0008068051Y0016073072D01*
X0007915500Y0016073072D01*
X0007915500Y0016738572D01*
X0008063499Y0016738572D01*
X0008083501Y0016670452D01*
X0008137157Y0016623959D01*
X0008189500Y0016612573D01*
X0009227080Y0016612573D01*
X0009295201Y0016632575D01*
X0009341694Y0016686231D01*
X0009352002Y0016755018D01*
X0009344272Y0016813738D01*
X0009335759Y0016845511D01*
X0009274496Y0016993414D01*
X0009258049Y0017021900D01*
X0009160592Y0017148907D01*
X0009137334Y0017172165D01*
X0009010327Y0017269622D01*
X0008981841Y0017286069D01*
X0008833938Y0017347332D01*
X0008802166Y0017355845D01*
X0008683293Y0017371495D01*
X0008666847Y0017372573D01*
X0008189500Y0017372573D01*
X0008121378Y0017352571D01*
X0008074885Y0017298915D01*
X0008063499Y0017246573D01*
X0008063499Y0016738572D01*
X0007915500Y0016738572D01*
X0007915500Y0017246572D01*
X0007895498Y0017314693D01*
X0007841842Y0017361186D01*
X0007789500Y0017372572D01*
X0007312154Y0017372572D01*
X0007295709Y0017371494D01*
X0007176835Y0017355845D01*
X0007145062Y0017347332D01*
X0006997159Y0017286069D01*
X0006968673Y0017269622D01*
X0006841666Y0017172165D01*
X0006818408Y0017148907D01*
X0006720951Y0017021900D01*
X0006704504Y0016993414D01*
X0006643241Y0016845511D01*
X0006634728Y0016813739D01*
X0006619078Y0016694866D01*
X0006618205Y0016681553D01*
X0006494457Y0016725618D01*
X0006467109Y0016732033D01*
X0006286999Y0016753509D01*
X0006258909Y0016753706D01*
X0006111500Y0016738212D01*
X0006111500Y0019249417D01*
X0006648500Y0018712418D01*
X0006648500Y0018286600D01*
X0006649173Y0018273596D01*
X0006660147Y0018167830D01*
X0006665950Y0018140958D01*
X0006721926Y0017973178D01*
X0006734306Y0017946751D01*
X0006827378Y0017796349D01*
X0006845504Y0017773479D01*
X0006970679Y0017648522D01*
X0006993581Y0017630435D01*
X0007144146Y0017537625D01*
X0007170595Y0017525292D01*
X0007338472Y0017469610D01*
X0007365296Y0017463859D01*
X0007469757Y0017453156D01*
X0007482600Y0017452500D01*
X0008258400Y0017452500D01*
X0008271404Y0017453173D01*
X0008377170Y0017464147D01*
X0008404042Y0017469950D01*
X0008571822Y0017525926D01*
X0008598249Y0017538306D01*
X0008748651Y0017631378D01*
X0008771521Y0017649504D01*
X0008896478Y0017774679D01*
X0008908316Y0017789668D01*
X0008920899Y0017773792D01*
X0009045991Y0017648917D01*
X0009068893Y0017630830D01*
X0009219359Y0017538082D01*
X0009245807Y0017525749D01*
X0009413573Y0017470103D01*
X0009440399Y0017464352D01*
X0009544795Y0017453656D01*
X0009557637Y0017453000D01*
X0009691500Y0017453000D01*
X0009759621Y0017473002D01*
X0009806114Y0017526658D01*
X0009817500Y0017579000D01*
X0009817500Y0020044999D01*
X0009797498Y0020113120D01*
X0009743842Y0020159613D01*
X0009691500Y0020170999D01*
X0009557638Y0020170999D01*
X0009544635Y0020170326D01*
X0009438934Y0020159359D01*
X0009412061Y0020153556D01*
X0009244392Y0020097618D01*
X0009217965Y0020085238D01*
X0009067662Y0019992227D01*
X0009044792Y0019974101D01*
X0008919917Y0019849009D01*
X0008908326Y0019834333D01*
X0008895496Y0019850521D01*
X0008770321Y0019975478D01*
X0008747419Y0019993565D01*
X0008596854Y0020086375D01*
X0008570405Y0020098708D01*
X0008402528Y0020154390D01*
X0008375704Y0020160141D01*
X0008271243Y0020170844D01*
X0008258400Y0020171500D01*
X0007832582Y0020171500D01*
X0007214500Y0020789582D01*
X0007214500Y0023962918D01*
X0008181682Y0024930100D01*
X0008289123Y0024880000D01*
X0008179074Y0024828682D01*
X0008160053Y0024817701D01*
X0007977948Y0024690190D01*
X0007961124Y0024676071D01*
X0007803928Y0024518876D01*
X0007789810Y0024502052D01*
X0007662299Y0024319947D01*
X0007651317Y0024300926D01*
X0007557365Y0024099446D01*
X0007549853Y0024078806D01*
X0007492315Y0023864074D01*
X0007488501Y0023842444D01*
X0007469126Y0023620981D01*
X0007469126Y0023599019D01*
X0007488501Y0023377556D01*
X0007492315Y0023355926D01*
X0007549853Y0023141193D01*
X0007557365Y0023120554D01*
X0007651317Y0022919074D01*
X0007662299Y0022900053D01*
X0007789810Y0022717948D01*
X0007803928Y0022701124D01*
X0007961124Y0022543928D01*
X0007977948Y0022529810D01*
X0008160052Y0022402299D01*
X0008179073Y0022391317D01*
X0008380554Y0022297365D01*
X0008401193Y0022289853D01*
X0008615926Y0022232315D01*
X0008637556Y0022228501D01*
X0008859019Y0022209126D01*
X0008880981Y0022209126D01*
X0009100500Y0022228331D01*
X0009100500Y0021718767D01*
X0009098360Y0021696132D01*
X0009100500Y0021628055D01*
X0009100500Y0021600144D01*
X0009101493Y0021584354D01*
X0009102000Y0021580343D01*
X0009103389Y0021536152D01*
X0009108330Y0021504959D01*
X0009113981Y0021485508D01*
X0009116520Y0021465410D01*
X0009124374Y0021434819D01*
X0009140652Y0021393705D01*
X0009152985Y0021351255D01*
X0009165529Y0021322267D01*
X0009175841Y0021304831D01*
X0009183296Y0021286001D01*
X0009198511Y0021258323D01*
X0009224499Y0021222553D01*
X0009247005Y0021184498D01*
X0009266363Y0021159543D01*
X0009280684Y0021145222D01*
X0009292592Y0021128832D01*
X0009314212Y0021105808D01*
X0009348289Y0021077617D01*
X0010254906Y0020171000D01*
X0010199500Y0020171000D01*
X0010131379Y0020150998D01*
X0010084886Y0020097342D01*
X0010073500Y0020045000D01*
X0010073500Y0017579001D01*
X0010093502Y0017510880D01*
X0010147158Y0017464387D01*
X0010199500Y0017453001D01*
X0010333362Y0017453001D01*
X0010346365Y0017453674D01*
X0010452066Y0017464641D01*
X0010478939Y0017470444D01*
X0010646608Y0017526382D01*
X0010673035Y0017538762D01*
X0010823338Y0017631773D01*
X0010846208Y0017649899D01*
X0010930500Y0017734337D01*
X0010930500Y0014968767D01*
X0010928360Y0014946131D01*
X0010930500Y0014878055D01*
X0010930500Y0014850144D01*
X0010931493Y0014834354D01*
X0010932000Y0014830343D01*
X0010933389Y0014786152D01*
X0010938330Y0014754959D01*
X0010943981Y0014735508D01*
X0010946520Y0014715409D01*
X0010954374Y0014684819D01*
X0010970652Y0014643705D01*
X0010982985Y0014601254D01*
X0010995529Y0014572267D01*
X0011005841Y0014554831D01*
X0011013296Y0014536000D01*
X0011028511Y0014508323D01*
X0011054499Y0014472553D01*
X0011077005Y0014434498D01*
X0011096363Y0014409543D01*
X0011110684Y0014395222D01*
X0011122592Y0014378832D01*
X0011144212Y0014355808D01*
X0011178289Y0014327617D01*
X0012287248Y0013218658D01*
X0012301747Y0013201132D01*
X0012351414Y0013154492D01*
X0012371135Y0013134771D01*
X0012383007Y0013124303D01*
X0012386194Y0013121832D01*
X0012418426Y0013091564D01*
X0012443979Y0013072999D01*
X0012461730Y0013063240D01*
X0012477732Y0013050828D01*
X0012504917Y0013034751D01*
X0012545486Y0013017195D01*
X0012584240Y0012995890D01*
X0012613606Y0012984262D01*
X0012633226Y0012979226D01*
X0012651813Y0012971181D01*
X0012682143Y0012962370D01*
X0012725811Y0012955452D01*
X0012768636Y0012944458D01*
X0012799970Y0012940500D01*
X0012820224Y0012940500D01*
X0012840232Y0012937331D01*
X0012871801Y0012936339D01*
X0012915819Y0012940500D01*
X0014066898Y0012940500D01*
X0014059728Y0012913740D01*
X0014051997Y0012855020D01*
X0014062936Y0012784870D01*
X0014110064Y0012731772D01*
X0014176919Y0012712572D01*
X0014216431Y0012712572D01*
X0014243051Y0012677882D01*
X0014266309Y0012654623D01*
X0014287226Y0012638573D01*
X0014266308Y0012622522D01*
X0014243051Y0012599264D01*
X0014216431Y0012564573D01*
X0014176920Y0012564573D01*
X0014108799Y0012544571D01*
X0014072698Y0012502908D01*
X0013977917Y0012492946D01*
X0013950483Y0012486913D01*
X0013778774Y0012428460D01*
X0013753357Y0012416499D01*
X0013598866Y0012321455D01*
X0013576730Y0012304161D01*
X0013447135Y0012177252D01*
X0013429382Y0012155484D01*
X0013331124Y0012003017D01*
X0013318634Y0011977857D01*
X0013281904Y0011876943D01*
X0013195799Y0011887210D01*
X0013167709Y0011887405D01*
X0012987317Y0011868445D01*
X0012959883Y0011862414D01*
X0012788174Y0011803960D01*
X0012762757Y0011791999D01*
X0012608266Y0011696955D01*
X0012586130Y0011679661D01*
X0012456535Y0011552752D01*
X0012438782Y0011530984D01*
X0012340524Y0011378516D01*
X0012328034Y0011353356D01*
X0012265996Y0011182910D01*
X0012259391Y0011155607D01*
X0012236657Y0010975652D01*
X0012236264Y0010947565D01*
X0012253964Y0010767045D01*
X0012259805Y0010739567D01*
X0012317060Y0010567454D01*
X0012328842Y0010541955D01*
X0012422804Y0010386804D01*
X0012439943Y0010364549D01*
X0012565945Y0010234071D01*
X0012587589Y0010216166D01*
X0012739366Y0010116845D01*
X0012764439Y0010104181D01*
X0012934448Y0010040955D01*
X0012961703Y0010034158D01*
X0013141496Y0010010169D01*
X0013169581Y0010009581D01*
X0013350220Y0010026021D01*
X0013377736Y0010031669D01*
X0013428051Y0010048017D01*
X0013439159Y0010039401D01*
X0013466344Y0010023323D01*
X0013506913Y0010005768D01*
X0013545667Y0009984463D01*
X0013575033Y0009972836D01*
X0013594653Y0009967799D01*
X0013613240Y0009959755D01*
X0013643570Y0009950942D01*
X0013687238Y0009944026D01*
X0013730063Y0009933031D01*
X0013761397Y0009929072D01*
X0013781651Y0009929072D01*
X0013801659Y0009925904D01*
X0013833228Y0009924911D01*
X0013877246Y0009929072D01*
X0014042501Y0009929072D01*
X0014042501Y0009898688D01*
X0014043579Y0009882244D01*
X0014059240Y0009763278D01*
X0014067753Y0009731504D01*
X0014075181Y0009713573D01*
X0014067753Y0009695640D01*
X0014059240Y0009663868D01*
X0014043578Y0009544903D01*
X0014042500Y0009528458D01*
X0014042501Y0009248688D01*
X0014043579Y0009232244D01*
X0014059240Y0009113278D01*
X0014067753Y0009081505D01*
X0014129067Y0008933478D01*
X0014145514Y0008904992D01*
X0014243051Y0008777881D01*
X0014266309Y0008754624D01*
X0014393421Y0008657087D01*
X0014421907Y0008640640D01*
X0014569932Y0008579325D01*
X0014601704Y0008570813D01*
X0014720669Y0008555150D01*
X0014737115Y0008554072D01*
X0015653912Y0008554074D01*
X0015334339Y0008234500D01*
X0007208922Y0008234500D01*
X0007151218Y0008238434D01*
X0007120985Y0008236850D01*
X0007058028Y0008225861D01*
X0006994621Y0008218188D01*
X0006965220Y0008210968D01*
X0006958811Y0008208545D01*
X0006952054Y0008207367D01*
X0006923072Y0008198616D01*
X0006864560Y0008172933D01*
X0006804806Y0008150352D01*
X0006777976Y0008136326D01*
X0006772329Y0008132445D01*
X0006766051Y0008129688D01*
X0006739990Y0008114277D01*
X0006689303Y0008075382D01*
X0006636653Y0008039197D01*
X0006613943Y0008019176D01*
X0006572489Y0007972648D01*
X0005934340Y0007334499D01*
X0005081866Y0007334499D01*
X0005068258Y0007333762D01*
X0005006076Y0007327007D01*
X0004975454Y0007319727D01*
X0004839065Y0007268597D01*
X0004807730Y0007251441D01*
X0004691174Y0007164087D01*
X0004665913Y0007138826D01*
X0004664500Y0007136941D01*
X0004664500Y0007260406D01*
X0005165232Y0007761138D01*
X0005269248Y0007722454D01*
X0005296503Y0007715659D01*
X0005476296Y0007691668D01*
X0005504381Y0007691080D01*
X0005685020Y0007707521D01*
X0005712536Y0007713169D01*
X0005885044Y0007769219D01*
X0005910625Y0007780824D01*
X0006066429Y0007873702D01*
X0006088804Y0007890684D01*
X0006220158Y0008015771D01*
X0006238214Y0008037291D01*
X0006338591Y0008188371D01*
X0006351431Y0008213353D01*
X0006415843Y0008382918D01*
X0006422829Y0008410126D01*
X0006448073Y0008589747D01*
X0006449287Y0008605525D01*
X0006449604Y0008628242D01*
X0006448831Y0008644044D01*
X0006428612Y0008824300D01*
X0006422388Y0008851692D01*
X0006362736Y0009022988D01*
X0006350599Y0009048321D01*
X0006254480Y0009202145D01*
X0006237032Y0009224160D01*
X0006109221Y0009352865D01*
X0006087329Y0009370467D01*
X0005934180Y0009467658D01*
X0005908933Y0009479972D01*
X0005738057Y0009540818D01*
X0005710709Y0009547232D01*
X0005530599Y0009568710D01*
X0005502509Y0009568905D01*
X0005322117Y0009549945D01*
X0005294683Y0009543914D01*
X0005122974Y0009485460D01*
X0005097557Y0009473499D01*
X0004961718Y0009389930D01*
X0004948045Y0009389500D01*
X0004920144Y0009389500D01*
X0004904356Y0009388507D01*
X0004900353Y0009388001D01*
X0004856152Y0009386612D01*
X0004824957Y0009381671D01*
X0004805504Y0009376019D01*
X0004785412Y0009373481D01*
X0004754820Y0009365625D01*
X0004713710Y0009349350D01*
X0004671252Y0009337014D01*
X0004642267Y0009324470D01*
X0004624831Y0009314159D01*
X0004606001Y0009306704D01*
X0004578323Y0009291488D01*
X0004542553Y0009265501D01*
X0004504498Y0009242995D01*
X0004479543Y0009223637D01*
X0004465222Y0009209316D01*
X0004448832Y0009197408D01*
X0004425808Y0009175788D01*
X0004397622Y0009141717D01*
X0003540404Y0008284500D01*
X0002081866Y0008284500D01*
X0002068258Y0008283763D01*
X0002006076Y0008277007D01*
X0001975454Y0008269727D01*
X0001839065Y0008218596D01*
X0001807730Y0008201440D01*
X0001691174Y0008114087D01*
X0001665913Y0008088826D01*
X0001578559Y0007972270D01*
X0001561403Y0007940935D01*
X0001510273Y0007804546D01*
X0001502992Y0007773924D01*
X0001496237Y0007711742D01*
X0001495500Y0007698134D01*
X0001495500Y0006801865D01*
X0001496237Y0006788257D01*
X0001502992Y0006726075D01*
X0001510273Y0006695453D01*
X0001561403Y0006559064D01*
X0001578559Y0006527729D01*
X0001665913Y0006411174D01*
X0001691174Y0006385913D01*
X0001806224Y0006299686D01*
X0001691531Y0006213729D01*
X0001666270Y0006188468D01*
X0001579002Y0006072026D01*
X0001561846Y0006040692D01*
X0001510766Y0005904437D01*
X0001503485Y0005873815D01*
X0001496737Y0005811697D01*
X0001496000Y0005798088D01*
X0001496000Y0005603999D01*
X0001516002Y0005535879D01*
X0001569658Y0005489386D01*
X0001622000Y0005478000D01*
X0004537999Y0005478000D01*
X0004606120Y0005498002D01*
X0004623382Y0005517923D01*
X0004665913Y0005461174D01*
X0004691174Y0005435912D01*
X0004807730Y0005348559D01*
X0004839065Y0005331403D01*
X0004970500Y0005282130D01*
X0004970500Y0004029197D01*
X0004916177Y0004011073D01*
X0004889751Y0003998694D01*
X0004739349Y0003905622D01*
X0004716479Y0003887495D01*
X0004591522Y0003762321D01*
X0004579684Y0003747332D01*
X0004567101Y0003763207D01*
X0004442009Y0003888083D01*
X0004419107Y0003906170D01*
X0004268641Y0003998918D01*
X0004242193Y0004011251D01*
X0004074427Y0004066896D01*
X0004047601Y0004072648D01*
X0003943205Y0004083343D01*
X0003930363Y0004084000D01*
X0003796500Y0004084000D01*
X0003728379Y0004063997D01*
X0003681886Y0004010342D01*
X0003670500Y0003957999D01*
X0003670500Y0001492001D01*
X0003690502Y0001423879D01*
X0003744158Y0001377386D01*
X0003796500Y0001366000D01*
X0003930362Y0001366000D01*
X0003943365Y0001366674D01*
X0004049066Y0001377640D01*
X0004075939Y0001383443D01*
X0004243608Y0001439382D01*
X0004270035Y0001451762D01*
X0004420338Y0001544772D01*
X0004443208Y0001562899D01*
X0004568083Y0001687990D01*
X0004579674Y0001702666D01*
X0004592504Y0001686478D01*
X0004717679Y0001561521D01*
X0004740581Y0001543435D01*
X0004891146Y0001450625D01*
X0004917595Y0001438291D01*
X0005085472Y0001382609D01*
X0005112296Y0001376859D01*
X0005216757Y0001366155D01*
X0005229600Y0001365499D01*
X0006005400Y0001365499D01*
X0006018404Y0001366173D01*
X0006124170Y0001377147D01*
X0006151042Y0001382950D01*
X0006318822Y0001438926D01*
X0006345249Y0001451306D01*
X0006495651Y0001544378D01*
X0006518521Y0001562503D01*
X0006643478Y0001687679D01*
X0006661565Y0001710580D01*
X0006754375Y0001861145D01*
X0006766708Y0001887594D01*
X0006822390Y0002055472D01*
X0006828141Y0002082295D01*
X0006838844Y0002186757D01*
X0006839500Y0002199599D01*
X0006839500Y0003250399D01*
X0006838827Y0003263404D01*
X0006827853Y0003369169D01*
X0006822050Y0003396042D01*
X0006785577Y0003505364D01*
X0010111249Y0003505364D01*
X0010129651Y0003142102D01*
X0010131076Y0003128549D01*
X0010188603Y0002769401D01*
X0010191483Y0002756081D01*
X0010287460Y0002405245D01*
X0010291761Y0002392315D01*
X0010425068Y0002053896D01*
X0010430741Y0002041505D01*
X0010599816Y0001719464D01*
X0010606794Y0001707759D01*
X0010809661Y0001405861D01*
X0010817863Y0001394976D01*
X0010956231Y0001230660D01*
X0011015410Y0001191437D01*
X0011086399Y0001190435D01*
X0011141706Y0001222726D01*
X0013329885Y0003410904D01*
X0013363911Y0003473216D01*
X0013358846Y0003544032D01*
X0013329885Y0003589095D01*
X0011141810Y0005777169D01*
X0011079498Y0005811196D01*
X0011008683Y0005806131D01*
X0010956903Y0005769905D01*
X0010832626Y0005624394D01*
X0010824350Y0005613568D01*
X0010619380Y0005313094D01*
X0010612320Y0005301437D01*
X0010441001Y0004980583D01*
X0010435242Y0004968232D01*
X0010299576Y0004630755D01*
X0010295184Y0004617854D01*
X0010196759Y0004267696D01*
X0010193786Y0004254396D01*
X0010133754Y0003895657D01*
X0010132235Y0003882114D01*
X0010111297Y0003518991D01*
X0010111249Y0003505364D01*
X0006785577Y0003505364D01*
X0006766074Y0003563822D01*
X0006753694Y0003590249D01*
X0006660622Y0003740650D01*
X0006642495Y0003763520D01*
X0006639500Y0003766511D01*
X0006639500Y0005265500D01*
X0007078134Y0005265500D01*
X0007091742Y0005266236D01*
X0007153924Y0005272992D01*
X0007184546Y0005280273D01*
X0007320935Y0005331403D01*
X0007352270Y0005348559D01*
X0007468826Y0005435912D01*
X0007494087Y0005461174D01*
X0007581441Y0005577730D01*
X0007598597Y0005609065D01*
X0007649727Y0005745454D01*
X0007657008Y0005776076D01*
X0007663763Y0005838258D01*
X0007664500Y0005851866D01*
X0007664500Y0006565500D01*
X0011937790Y0006565500D01*
X0011654766Y0006396113D01*
X0011643468Y0006388491D01*
X0011353366Y0006169089D01*
X0011342956Y0006160293D01*
X0011323004Y0006141491D01*
X0011287146Y0006080215D01*
X0011290108Y0006009281D01*
X0011320323Y0005960697D01*
X0013510905Y0003770114D01*
X0013573217Y0003736089D01*
X0013644032Y0003741154D01*
X0013689095Y0003770114D01*
X0015880073Y0005961092D01*
X0015914099Y0006023404D01*
X0015909034Y0006094220D01*
X0015877713Y0006141582D01*
X0015866318Y0006152397D01*
X0015855937Y0006161231D01*
X0015566602Y0006381646D01*
X0015555331Y0006389305D01*
X0015263251Y0006565500D01*
X0015651088Y0006565500D01*
X0015708782Y0006561566D01*
X0015739015Y0006563150D01*
X0015801962Y0006574137D01*
X0015865379Y0006581811D01*
X0015894780Y0006589032D01*
X0015901189Y0006591453D01*
X0015907946Y0006592632D01*
X0015936930Y0006601384D01*
X0015995441Y0006627068D01*
X0016055193Y0006649647D01*
X0016082020Y0006663671D01*
X0016087670Y0006667554D01*
X0016093955Y0006670313D01*
X0016120010Y0006685723D01*
X0016170697Y0006724618D01*
X0016223347Y0006760801D01*
X0016246057Y0006780824D01*
X0016287510Y0006827351D01*
X0016966000Y0007505839D01*
X0016966000Y0004399684D01*
X0016908698Y0004606310D01*
X0016904352Y0004619225D01*
X0016769865Y0004957177D01*
X0016764147Y0004969548D01*
X0016593948Y0005290996D01*
X0016586931Y0005302678D01*
X0016383012Y0005603865D01*
X0016374772Y0005614721D01*
X0016243419Y0005769607D01*
X0016184104Y0005808624D01*
X0016113112Y0005809379D01*
X0016058228Y0005777208D01*
X0013870115Y0003589095D01*
X0013836089Y0003526783D01*
X0013841154Y0003455967D01*
X0013870115Y0003410904D01*
X0016058180Y0001222839D01*
X0016120491Y0001188814D01*
X0016191306Y0001193879D01*
X0016242799Y0001229770D01*
X0016359941Y0001365957D01*
X0016368255Y0001376756D01*
X0016574273Y0001676513D01*
X0016581373Y0001688144D01*
X0016753812Y0002008397D01*
X0016759615Y0002020729D01*
X0016896458Y0002357731D01*
X0016900894Y0002370617D01*
X0016966000Y0002599173D01*
X0016966000Y0000634000D01*
X0015585466Y0000634000D01*
X0015837304Y0000823084D01*
X0015847744Y0000831845D01*
X0015876308Y0000858575D01*
X0015912380Y0000919724D01*
X0015909665Y0000990670D01*
X0015879310Y0001039670D01*
X0013689095Y0003229885D01*
X0013626783Y0003263911D01*
X0013555968Y0003258845D01*
X0013510905Y0003229885D01*
X0011319502Y0001038482D01*
X0011285476Y0000976170D01*
X0011290541Y0000905355D01*
X0011321555Y0000858283D01*
X0011324449Y0000855519D01*
X0011334787Y0000846660D01*
X0011611930Y0000634000D01*
X0000634000Y0000634000D01*
X0000634000Y0002199638D01*
X0002321001Y0002199638D01*
X0002321674Y0002186635D01*
X0002332641Y0002080933D01*
X0002338444Y0002054060D01*
X0002394382Y0001886392D01*
X0002406762Y0001859965D01*
X0002499773Y0001709662D01*
X0002517899Y0001686791D01*
X0002642991Y0001561917D01*
X0002665893Y0001543829D01*
X0002816359Y0001451081D01*
X0002842807Y0001438749D01*
X0003010573Y0001383102D01*
X0003037399Y0001377352D01*
X0003141795Y0001366655D01*
X0003154637Y0001365999D01*
X0003288500Y0001365999D01*
X0003356621Y0001386001D01*
X0003403114Y0001439658D01*
X0003414500Y0001491999D01*
X0003414500Y0002470999D01*
X0003394498Y0002539121D01*
X0003340842Y0002585613D01*
X0003288500Y0002597000D01*
X0002447001Y0002597000D01*
X0002378880Y0002576998D01*
X0002332387Y0002523341D01*
X0002321001Y0002470999D01*
X0002321001Y0002199638D01*
X0000634000Y0002199638D01*
X0000634000Y0002978999D01*
X0002321000Y0002978999D01*
X0002341002Y0002910879D01*
X0002394658Y0002864386D01*
X0002447000Y0002853000D01*
X0003288500Y0002853000D01*
X0003356621Y0002873001D01*
X0003403114Y0002926658D01*
X0003414500Y0002978999D01*
X0003414500Y0003957999D01*
X0003394498Y0004026119D01*
X0003340842Y0004072612D01*
X0003288500Y0004083998D01*
X0003154638Y0004083998D01*
X0003141635Y0004083325D01*
X0003035934Y0004072358D01*
X0003009061Y0004066555D01*
X0002841392Y0004010618D01*
X0002814965Y0003998238D01*
X0002664662Y0003905226D01*
X0002641792Y0003887101D01*
X0002516917Y0003762008D01*
X0002498830Y0003739106D01*
X0002406082Y0003588641D01*
X0002393749Y0003562193D01*
X0002338103Y0003394427D01*
X0002332352Y0003367601D01*
X0002321656Y0003263204D01*
X0002321000Y0003250363D01*
X0002321000Y0002978999D01*
X0000634000Y0002978999D01*
X0000634000Y0004901912D01*
X0001496001Y0004901912D01*
X0001496738Y0004888306D01*
X0001503485Y0004826188D01*
X0001510766Y0004795563D01*
X0001561846Y0004659308D01*
X0001579002Y0004627972D01*
X0001666270Y0004511530D01*
X0001691531Y0004486269D01*
X0001807973Y0004399002D01*
X0001839308Y0004381846D01*
X0001975563Y0004330765D01*
X0002006185Y0004323484D01*
X0002068302Y0004316737D01*
X0002081910Y0004316000D01*
X0002826000Y0004316000D01*
X0002894121Y0004336002D01*
X0002940614Y0004389657D01*
X0002952000Y0004442000D01*
X0002952000Y0004442000D01*
X0003208000Y0004442000D01*
X0003228002Y0004373880D01*
X0003281658Y0004327387D01*
X0003334000Y0004316001D01*
X0004078088Y0004316001D01*
X0004091693Y0004316738D01*
X0004153812Y0004323484D01*
X0004184437Y0004330765D01*
X0004320692Y0004381846D01*
X0004352027Y0004399002D01*
X0004468469Y0004486269D01*
X0004493730Y0004511530D01*
X0004580998Y0004627972D01*
X0004598154Y0004659308D01*
X0004649234Y0004795563D01*
X0004656515Y0004826185D01*
X0004663263Y0004888303D01*
X0004664000Y0004901910D01*
X0004664000Y0005095999D01*
X0004643998Y0005164121D01*
X0004590342Y0005210614D01*
X0004538000Y0005222000D01*
X0003334000Y0005222000D01*
X0003265879Y0005201998D01*
X0003219386Y0005148341D01*
X0003208000Y0005095999D01*
X0003208000Y0004442000D01*
X0002952000Y0004442000D01*
X0002952000Y0005095999D01*
X0002931998Y0005164121D01*
X0002878342Y0005210614D01*
X0002826000Y0005222000D01*
X0001622001Y0005222000D01*
X0001553880Y0005201998D01*
X0001507387Y0005148341D01*
X0001496001Y0005095999D01*
X0001496001Y0004901912D01*
X0000634000Y0004901912D01*
X0000634000Y0027428570D01*
X0001766922Y0027428570D01*
X0001776702Y0027217275D01*
X0001780074Y0027193580D01*
X0001829632Y0026987945D01*
X0001837424Y0026965315D01*
X0001924973Y0026772762D01*
X0001936904Y0026752012D01*
X0002059284Y0026579489D01*
X0002074923Y0026561371D01*
X0002227719Y0026415101D01*
X0002246502Y0026400267D01*
X0002279258Y0026379116D01*
X0002159593Y0026285118D01*
X0002142261Y0026268613D01*
X0002003692Y0026108927D01*
X0001989793Y0026089441D01*
X0001883920Y0025906432D01*
X0001873956Y0025884670D01*
X0001804599Y0025684943D01*
X0001798930Y0025661685D01*
X0001797537Y0025652075D01*
X0001807560Y0025581789D01*
X0001853991Y0025528081D01*
X0001922234Y0025508000D01*
X0004633517Y0025508000D01*
X0004701638Y0025528002D01*
X0004748131Y0025581657D01*
X0004758235Y0025651932D01*
X0004756010Y0025663521D01*
X0004729893Y0025771891D01*
X0004722101Y0025794521D01*
X0004634592Y0025986988D01*
X0004622661Y0026007737D01*
X0004500336Y0026180183D01*
X0004484697Y0026198301D01*
X0004331970Y0026344504D01*
X0004313187Y0026359339D01*
X0004280770Y0026380270D01*
X0004400753Y0026474518D01*
X0004418085Y0026491024D01*
X0004556717Y0026650783D01*
X0004570616Y0026670268D01*
X0004676537Y0026853358D01*
X0004686501Y0026875121D01*
X0004755889Y0027074938D01*
X0004761557Y0027098191D01*
X0004791909Y0027307524D01*
X0004793078Y0027331429D01*
X0004783298Y0027542725D01*
X0004779926Y0027566420D01*
X0004730368Y0027772055D01*
X0004722576Y0027794685D01*
X0004635027Y0027987237D01*
X0004623096Y0028007987D01*
X0004500716Y0028180511D01*
X0004485077Y0028198629D01*
X0004389813Y0028289824D01*
X0004445651Y0028324378D01*
X0004468521Y0028342504D01*
X0004593478Y0028467679D01*
X0004611565Y0028490581D01*
X0004704375Y0028641146D01*
X0004716708Y0028667595D01*
X0004720497Y0028679018D01*
X0007469628Y0028679018D01*
X0007488996Y0028457642D01*
X0007492810Y0028436013D01*
X0007550325Y0028221364D01*
X0007557837Y0028200725D01*
X0007651752Y0027999325D01*
X0007662733Y0027980306D01*
X0007706971Y0027917126D01*
X0007762428Y0027872796D01*
X0007833047Y0027865486D01*
X0007899280Y0027900300D01*
X0008599885Y0028600904D01*
X0008633911Y0028663217D01*
X0008630080Y0028716783D01*
X0009106089Y0028716783D01*
X0009111154Y0028645968D01*
X0009140115Y0028600904D01*
X0009840720Y0027900300D01*
X0009903032Y0027866274D01*
X0009973847Y0027871339D01*
X0010033029Y0027917126D01*
X0010077267Y0027980306D01*
X0010088248Y0027999325D01*
X0010182163Y0028200725D01*
X0010189675Y0028221364D01*
X0010247190Y0028436013D01*
X0010251004Y0028457642D01*
X0010270372Y0028679018D01*
X0010270372Y0028700982D01*
X0010251004Y0028922358D01*
X0010247190Y0028943987D01*
X0010189675Y0029158636D01*
X0010182163Y0029179275D01*
X0010088248Y0029380675D01*
X0010077267Y0029399694D01*
X0010033029Y0029462874D01*
X0009977572Y0029507204D01*
X0009906953Y0029514514D01*
X0009840720Y0029479700D01*
X0009140115Y0028779094D01*
X0009106089Y0028716783D01*
X0008630080Y0028716783D01*
X0008628846Y0028734032D01*
X0008599885Y0028779094D01*
X0007899280Y0029479700D01*
X0007836968Y0029513726D01*
X0007766153Y0029508661D01*
X0007706971Y0029462874D01*
X0007662733Y0029399694D01*
X0007651752Y0029380675D01*
X0007557837Y0029179275D01*
X0007550325Y0029158636D01*
X0007492810Y0028943987D01*
X0007488996Y0028922358D01*
X0007469628Y0028700982D01*
X0007469628Y0028679018D01*
X0004720497Y0028679018D01*
X0004772390Y0028835472D01*
X0004778141Y0028862296D01*
X0004788844Y0028966757D01*
X0004789500Y0028979599D01*
X0004789500Y0029726953D01*
X0008045486Y0029726953D01*
X0008080299Y0029660719D01*
X0008780905Y0028960115D01*
X0008843217Y0028926088D01*
X0008914032Y0028931154D01*
X0008959095Y0028960115D01*
X0009659700Y0029660719D01*
X0009693726Y0029723032D01*
X0009688661Y0029793847D01*
X0009662271Y0029827956D01*
X0010444745Y0029827956D01*
X0010445821Y0029810851D01*
X0010483346Y0029525820D01*
X0010486734Y0029509017D01*
X0010562595Y0029231716D01*
X0010568232Y0029215529D01*
X0010681026Y0028951089D01*
X0010688807Y0028935817D01*
X0010836445Y0028689133D01*
X0010846227Y0028675058D01*
X0011025979Y0028450691D01*
X0011037580Y0028438074D01*
X0011246118Y0028240180D01*
X0011259325Y0028229255D01*
X0011492791Y0028061492D01*
X0011507358Y0028052460D01*
X0011761433Y0027917934D01*
X0011777091Y0027910961D01*
X0012047072Y0027812163D01*
X0012063531Y0027807381D01*
X0012344422Y0027746136D01*
X0012361378Y0027743633D01*
X0012586853Y0027725887D01*
X0012596739Y0027725500D01*
X0012752271Y0027725500D01*
X0012760841Y0027725792D01*
X0012975395Y0027740419D01*
X0012992376Y0027742745D01*
X0013273893Y0027801043D01*
X0013290402Y0027805653D01*
X0013561403Y0027901620D01*
X0013577133Y0027908427D01*
X0013832602Y0028040284D01*
X0013847263Y0028049163D01*
X0014082474Y0028214472D01*
X0014095794Y0028225259D01*
X0014306393Y0028420960D01*
X0014318126Y0028433453D01*
X0014500217Y0028655926D01*
X0014510146Y0028669897D01*
X0014660360Y0028915022D01*
X0014668300Y0028930213D01*
X0014783856Y0029193457D01*
X0014789662Y0029209583D01*
X0014868423Y0029486075D01*
X0014871987Y0029502841D01*
X0014912494Y0029787463D01*
X0014913749Y0029804555D01*
X0014915255Y0030092043D01*
X0014914179Y0030109149D01*
X0014876654Y0030394180D01*
X0014873266Y0030410982D01*
X0014797405Y0030688284D01*
X0014791768Y0030704470D01*
X0014678974Y0030968911D01*
X0014671193Y0030984182D01*
X0014523555Y0031230867D01*
X0014513773Y0031244942D01*
X0014334021Y0031469309D01*
X0014322420Y0031481925D01*
X0014113882Y0031679820D01*
X0014100675Y0031690745D01*
X0013867209Y0031858508D01*
X0013852642Y0031867540D01*
X0013598567Y0032002066D01*
X0013582909Y0032009038D01*
X0013312928Y0032107837D01*
X0013296469Y0032112619D01*
X0013015578Y0032173862D01*
X0012998622Y0032176367D01*
X0012773147Y0032194111D01*
X0012763261Y0032194499D01*
X0012607729Y0032194499D01*
X0012599159Y0032194208D01*
X0012384605Y0032179581D01*
X0012367624Y0032177255D01*
X0012086107Y0032118955D01*
X0012069598Y0032114347D01*
X0011798597Y0032018380D01*
X0011782867Y0032011573D01*
X0011527398Y0031879716D01*
X0011512737Y0031870837D01*
X0011277526Y0031705528D01*
X0011264206Y0031694741D01*
X0011053607Y0031499040D01*
X0011041874Y0031486546D01*
X0010859783Y0031264074D01*
X0010849854Y0031250103D01*
X0010699640Y0031004977D01*
X0010691700Y0030989787D01*
X0010576144Y0030726543D01*
X0010570338Y0030710417D01*
X0010491577Y0030433925D01*
X0010488013Y0030417158D01*
X0010447506Y0030132537D01*
X0010446251Y0030115444D01*
X0010444745Y0029827956D01*
X0009662271Y0029827956D01*
X0009642875Y0029853028D01*
X0009579696Y0029897266D01*
X0009560676Y0029908248D01*
X0009359275Y0030002163D01*
X0009338636Y0030009675D01*
X0009123987Y0030067190D01*
X0009102358Y0030071004D01*
X0008880982Y0030090372D01*
X0008859018Y0030090372D01*
X0008637642Y0030071004D01*
X0008616013Y0030067190D01*
X0008401364Y0030009675D01*
X0008380725Y0030002163D01*
X0008179325Y0029908248D01*
X0008160306Y0029897267D01*
X0008097125Y0029853029D01*
X0008052796Y0029797572D01*
X0008045486Y0029726953D01*
X0004789500Y0029726953D01*
X0004789500Y0029780400D01*
X0004788827Y0029793404D01*
X0004777853Y0029899169D01*
X0004772050Y0029926042D01*
X0004716074Y0030093822D01*
X0004703694Y0030120249D01*
X0004610622Y0030270651D01*
X0004592496Y0030293521D01*
X0004467321Y0030418478D01*
X0004444419Y0030436565D01*
X0004293854Y0030529375D01*
X0004267405Y0030541708D01*
X0004099528Y0030597390D01*
X0004072704Y0030603141D01*
X0003968243Y0030613844D01*
X0003955400Y0030614500D01*
X0002604600Y0030614500D01*
X0002591596Y0030613827D01*
X0002485830Y0030602853D01*
X0002458958Y0030597050D01*
X0002291178Y0030541074D01*
X0002264751Y0030528694D01*
X0002114349Y0030435622D01*
X0002091479Y0030417496D01*
X0001966522Y0030292321D01*
X0001948435Y0030269419D01*
X0001855625Y0030118854D01*
X0001843292Y0030092405D01*
X0001787610Y0029924528D01*
X0001781859Y0029897703D01*
X0001771156Y0029793243D01*
X0001770500Y0029780400D01*
X0001770500Y0028979599D01*
X0001771173Y0028966596D01*
X0001782147Y0028860830D01*
X0001787950Y0028833958D01*
X0001843926Y0028666178D01*
X0001856306Y0028639751D01*
X0001949378Y0028489349D01*
X0001967504Y0028466479D01*
X0002092679Y0028341521D01*
X0002115581Y0028323435D01*
X0002167120Y0028291666D01*
X0002159247Y0028285482D01*
X0002141915Y0028268976D01*
X0002003283Y0028109217D01*
X0001989384Y0028089731D01*
X0001883463Y0027906641D01*
X0001873499Y0027884878D01*
X0001804111Y0027685062D01*
X0001798443Y0027661808D01*
X0001768091Y0027452476D01*
X0001766922Y0027428570D01*
X0000634000Y0027428570D01*
X0000634000Y0033378866D01*
X0001675500Y0033378866D01*
X0001676237Y0033365257D01*
X0001682992Y0033303075D01*
X0001690273Y0033272453D01*
X0001741403Y0033136065D01*
X0001758559Y0033104730D01*
X0001845913Y0032988174D01*
X0001871174Y0032962913D01*
X0001987730Y0032875559D01*
X0002019065Y0032858403D01*
X0002155454Y0032807273D01*
X0002186076Y0032799992D01*
X0002248258Y0032793236D01*
X0002261866Y0032792500D01*
X0004058134Y0032792500D01*
X0004071742Y0032793236D01*
X0004133924Y0032799992D01*
X0004164545Y0032807273D01*
X0004300935Y0032858403D01*
X0004332270Y0032875559D01*
X0004448826Y0032962913D01*
X0004474087Y0032988174D01*
X0004561441Y0033104730D01*
X0004578597Y0033136065D01*
X0004629727Y0033272453D01*
X0004637008Y0033303075D01*
X0004643763Y0033365257D01*
X0004644500Y0033378866D01*
X0004644500Y0033976169D01*
X0011285476Y0033976169D01*
X0011290541Y0033905355D01*
X0011321555Y0033858284D01*
X0011324449Y0033855519D01*
X0011334787Y0033846660D01*
X0011623350Y0033625237D01*
X0011634595Y0033617537D01*
X0011945385Y0033428573D01*
X0011957395Y0033422134D01*
X0012286774Y0033267842D01*
X0012299409Y0033262737D01*
X0012643526Y0033144919D01*
X0012656639Y0033141209D01*
X0013011467Y0033061245D01*
X0013024904Y0033058971D01*
X0013386293Y0033017797D01*
X0013399897Y0033016989D01*
X0013763618Y0033015085D01*
X0013777230Y0033015749D01*
X0014139030Y0033053137D01*
X0014152490Y0033055270D01*
X0014508136Y0033131514D01*
X0014521287Y0033135087D01*
X0014866619Y0033249295D01*
X0014879307Y0033254267D01*
X0015210284Y0033405102D01*
X0015222361Y0033411417D01*
X0015535112Y0033597115D01*
X0015546437Y0033604696D01*
X0015837304Y0033823085D01*
X0015847744Y0033831845D01*
X0015876308Y0033858575D01*
X0015912380Y0033919725D01*
X0015909665Y0033990670D01*
X0015879310Y0034039670D01*
X0013689095Y0036229885D01*
X0013626783Y0036263911D01*
X0013555968Y0036258846D01*
X0013510905Y0036229885D01*
X0011319502Y0034038482D01*
X0011285476Y0033976169D01*
X0004644500Y0033976169D01*
X0004644500Y0035175134D01*
X0004643763Y0035188742D01*
X0004637008Y0035250924D01*
X0004629727Y0035281546D01*
X0004578597Y0035417935D01*
X0004561441Y0035449270D01*
X0004474087Y0035565826D01*
X0004448826Y0035591087D01*
X0004332270Y0035678441D01*
X0004300935Y0035695597D01*
X0004181917Y0035740215D01*
X0004286653Y0035844587D01*
X0004300035Y0035860311D01*
X0004430344Y0036041655D01*
X0004440979Y0036059354D01*
X0004539921Y0036259547D01*
X0004547522Y0036278745D01*
X0004612438Y0036492408D01*
X0004615239Y0036505364D01*
X0010111249Y0036505364D01*
X0010129651Y0036142103D01*
X0010131076Y0036128550D01*
X0010188603Y0035769401D01*
X0010191483Y0035756081D01*
X0010287460Y0035405246D01*
X0010291761Y0035392315D01*
X0010425068Y0035053897D01*
X0010430741Y0035041506D01*
X0010599816Y0034719465D01*
X0010606794Y0034707759D01*
X0010809661Y0034405861D01*
X0010817863Y0034394977D01*
X0010956231Y0034230661D01*
X0011015410Y0034191438D01*
X0011086399Y0034190436D01*
X0011141706Y0034222726D01*
X0013329885Y0036410905D01*
X0013363911Y0036473217D01*
X0013358846Y0036544032D01*
X0013329885Y0036589095D01*
X0011141810Y0038777170D01*
X0011079498Y0038811196D01*
X0011008683Y0038806131D01*
X0010956903Y0038769905D01*
X0010832626Y0038624394D01*
X0010824350Y0038613568D01*
X0010619380Y0038313094D01*
X0010612320Y0038301437D01*
X0010441001Y0037980583D01*
X0010435242Y0037968233D01*
X0010299576Y0037630755D01*
X0010295184Y0037617854D01*
X0010196759Y0037267697D01*
X0010193786Y0037254397D01*
X0010133754Y0036895658D01*
X0010132235Y0036882115D01*
X0010111297Y0036518992D01*
X0010111249Y0036505364D01*
X0004615239Y0036505364D01*
X0004616802Y0036512592D01*
X0004621273Y0036546555D01*
X0004610333Y0036616703D01*
X0004563205Y0036669802D01*
X0004496351Y0036689000D01*
X0001825110Y0036689000D01*
X0001756989Y0036668998D01*
X0001710496Y0036615342D01*
X0001700392Y0036545068D01*
X0001702193Y0036535299D01*
X0001736784Y0036381810D01*
X0001742958Y0036362107D01*
X0001826971Y0036155206D01*
X0001836281Y0036136775D01*
X0001952959Y0035946374D01*
X0001965155Y0035929712D01*
X0002111364Y0035760924D01*
X0002126116Y0035746477D01*
X0002135035Y0035739072D01*
X0002019065Y0035695597D01*
X0001987730Y0035678441D01*
X0001871174Y0035591087D01*
X0001845913Y0035565826D01*
X0001758559Y0035449270D01*
X0001741403Y0035417935D01*
X0001690273Y0035281546D01*
X0001682992Y0035250924D01*
X0001676237Y0035188742D01*
X0001675500Y0035175134D01*
X0001675500Y0033378866D01*
X0000634000Y0033378866D01*
X0000634000Y0037084410D01*
X0001696055Y0037084410D01*
X0001708693Y0037014547D01*
X0001757096Y0036962608D01*
X0001821339Y0036945000D01*
X0002906000Y0036945000D01*
X0002974121Y0036965002D01*
X0003020614Y0037018658D01*
X0003032000Y0037071000D01*
X0003288000Y0037071000D01*
X0003308002Y0037002879D01*
X0003361658Y0036956386D01*
X0003414000Y0036945000D01*
X0004496459Y0036945000D01*
X0004564580Y0036965002D01*
X0004611073Y0037018658D01*
X0004621177Y0037088932D01*
X0004618663Y0037101696D01*
X0004572159Y0037286833D01*
X0004565505Y0037306379D01*
X0004476462Y0037511165D01*
X0004466704Y0037529363D01*
X0004345409Y0037716857D01*
X0004332810Y0037733216D01*
X0004182521Y0037898382D01*
X0004167420Y0037912464D01*
X0003992173Y0038050865D01*
X0003974975Y0038062291D01*
X0003779477Y0038170212D01*
X0003760643Y0038178677D01*
X0003550144Y0038253219D01*
X0003530180Y0038258493D01*
X0003436096Y0038275252D01*
X0003365524Y0038267506D01*
X0003310342Y0038222836D01*
X0003288000Y0038151205D01*
X0003288000Y0037071000D01*
X0003032000Y0037071000D01*
X0003032000Y0038152013D01*
X0003011998Y0038220134D01*
X0002958342Y0038266627D01*
X0002886940Y0038276563D01*
X0002825148Y0038267107D01*
X0002805063Y0038262322D01*
X0002592805Y0038192946D01*
X0002573770Y0038184944D01*
X0002375694Y0038081832D01*
X0002358221Y0038070829D01*
X0002179645Y0037936750D01*
X0002164204Y0037923041D01*
X0002009925Y0037761597D01*
X0001996931Y0037745550D01*
X0001871091Y0037561076D01*
X0001860891Y0037543122D01*
X0001766871Y0037340572D01*
X0001759742Y0037321194D01*
X0001700065Y0037106008D01*
X0001696198Y0037085746D01*
X0001696055Y0037084410D01*
X0000634000Y0037084410D01*
X0000634000Y0039366000D01*
X0011613728Y0039366000D01*
X0011353366Y0039169089D01*
G37*
G04 #@! TD.AperFunction*
X0015405500Y0024102918D02*
X0015405500Y0020171500D01*
X0015145600Y0020171500D01*
X0015132596Y0020170827D01*
X0015026830Y0020159853D01*
X0014999958Y0020154050D01*
X0014832178Y0020098074D01*
X0014805751Y0020085694D01*
X0014655349Y0019992622D01*
X0014632479Y0019974496D01*
X0014507522Y0019849321D01*
X0014495684Y0019834332D01*
X0014483101Y0019850208D01*
X0014358009Y0019975083D01*
X0014335107Y0019993170D01*
X0014184641Y0020085918D01*
X0014158193Y0020098251D01*
X0013990427Y0020153897D01*
X0013963601Y0020159648D01*
X0013859205Y0020170344D01*
X0013846363Y0020171000D01*
X0013712500Y0020171000D01*
X0013644379Y0020150998D01*
X0013597886Y0020097342D01*
X0013586500Y0020045000D01*
X0013586500Y0018684000D01*
X0013330500Y0018684000D01*
X0013330500Y0020044999D01*
X0013310498Y0020113120D01*
X0013256842Y0020159613D01*
X0013214687Y0020168783D01*
X0013273893Y0020181044D01*
X0013290402Y0020185653D01*
X0013561403Y0020281620D01*
X0013577133Y0020288427D01*
X0013832602Y0020420284D01*
X0013847263Y0020429163D01*
X0014082474Y0020594472D01*
X0014095794Y0020605259D01*
X0014306393Y0020800960D01*
X0014318126Y0020813454D01*
X0014500217Y0021035926D01*
X0014510146Y0021049897D01*
X0014660360Y0021295023D01*
X0014668300Y0021310213D01*
X0014783856Y0021573457D01*
X0014789662Y0021589583D01*
X0014868423Y0021866075D01*
X0014871987Y0021882841D01*
X0014912494Y0022167463D01*
X0014913749Y0022184556D01*
X0014915255Y0022472043D01*
X0014914179Y0022489149D01*
X0014876654Y0022774180D01*
X0014873266Y0022790982D01*
X0014797405Y0023068284D01*
X0014791768Y0023084471D01*
X0014678974Y0023348911D01*
X0014671193Y0023364182D01*
X0014523555Y0023610867D01*
X0014513773Y0023624942D01*
X0014334021Y0023849309D01*
X0014322420Y0023861925D01*
X0014113882Y0024059820D01*
X0014100675Y0024070745D01*
X0013867209Y0024238508D01*
X0013852642Y0024247540D01*
X0013598567Y0024382066D01*
X0013582909Y0024389038D01*
X0013312928Y0024487837D01*
X0013296469Y0024492618D01*
X0013015578Y0024553863D01*
X0012998622Y0024556367D01*
X0012773147Y0024574112D01*
X0012763261Y0024574500D01*
X0012607729Y0024574500D01*
X0012599159Y0024574208D01*
X0012384605Y0024559581D01*
X0012367624Y0024557254D01*
X0012086107Y0024498956D01*
X0012069598Y0024494346D01*
X0011798597Y0024398380D01*
X0011782867Y0024391573D01*
X0011527398Y0024259715D01*
X0011512737Y0024250837D01*
X0011277526Y0024085528D01*
X0011264206Y0024074741D01*
X0011053607Y0023879040D01*
X0011041874Y0023866546D01*
X0010859783Y0023644074D01*
X0010849854Y0023630103D01*
X0010699640Y0023384977D01*
X0010691700Y0023369787D01*
X0010619500Y0023205311D01*
X0010619500Y0023211237D01*
X0010621639Y0023233867D01*
X0010619500Y0023301925D01*
X0010619500Y0023329856D01*
X0010618506Y0023345654D01*
X0010617999Y0023349664D01*
X0010616611Y0023393847D01*
X0010611670Y0023425041D01*
X0010606020Y0023444491D01*
X0010603480Y0023464591D01*
X0010595626Y0023495180D01*
X0010579352Y0023536285D01*
X0010567015Y0023578747D01*
X0010554472Y0023607732D01*
X0010544161Y0023625168D01*
X0010536704Y0023644001D01*
X0010521488Y0023671677D01*
X0010495510Y0023707434D01*
X0010472996Y0023745502D01*
X0010453637Y0023770458D01*
X0010439313Y0023784782D01*
X0010427408Y0023801168D01*
X0010405787Y0023824192D01*
X0010371722Y0023852373D01*
X0010206566Y0024017529D01*
X0010190146Y0024078808D01*
X0010182635Y0024099446D01*
X0010088683Y0024300926D01*
X0010077701Y0024319947D01*
X0009950190Y0024502052D01*
X0009936072Y0024518876D01*
X0009778876Y0024676071D01*
X0009762052Y0024690190D01*
X0009579948Y0024817701D01*
X0009560927Y0024828682D01*
X0009450877Y0024880000D01*
X0009560927Y0024931317D01*
X0009579948Y0024942299D01*
X0009598801Y0024955500D01*
X0014552918Y0024955500D01*
X0015405500Y0024102918D02*
X0014552918Y0024955500D01*
G04 #@! TA.AperFunction,Conductor*
G36*
X0015405500Y0024102918D02*
G01*
X0015405500Y0020171500D01*
X0015145600Y0020171500D01*
X0015132596Y0020170827D01*
X0015026830Y0020159853D01*
X0014999958Y0020154050D01*
X0014832178Y0020098074D01*
X0014805751Y0020085694D01*
X0014655349Y0019992622D01*
X0014632479Y0019974496D01*
X0014507522Y0019849321D01*
X0014495684Y0019834332D01*
X0014483101Y0019850208D01*
X0014358009Y0019975083D01*
X0014335107Y0019993170D01*
X0014184641Y0020085918D01*
X0014158193Y0020098251D01*
X0013990427Y0020153897D01*
X0013963601Y0020159648D01*
X0013859205Y0020170344D01*
X0013846363Y0020171000D01*
X0013712500Y0020171000D01*
X0013644379Y0020150998D01*
X0013597886Y0020097342D01*
X0013586500Y0020045000D01*
X0013586500Y0018684000D01*
X0013330500Y0018684000D01*
X0013330500Y0020044999D01*
X0013310498Y0020113120D01*
X0013256842Y0020159613D01*
X0013214687Y0020168783D01*
X0013273893Y0020181044D01*
X0013290402Y0020185653D01*
X0013561403Y0020281620D01*
X0013577133Y0020288427D01*
X0013832602Y0020420284D01*
X0013847263Y0020429163D01*
X0014082474Y0020594472D01*
X0014095794Y0020605259D01*
X0014306393Y0020800960D01*
X0014318126Y0020813454D01*
X0014500217Y0021035926D01*
X0014510146Y0021049897D01*
X0014660360Y0021295023D01*
X0014668300Y0021310213D01*
X0014783856Y0021573457D01*
X0014789662Y0021589583D01*
X0014868423Y0021866075D01*
X0014871987Y0021882841D01*
X0014912494Y0022167463D01*
X0014913749Y0022184556D01*
X0014915255Y0022472043D01*
X0014914179Y0022489149D01*
X0014876654Y0022774180D01*
X0014873266Y0022790982D01*
X0014797405Y0023068284D01*
X0014791768Y0023084471D01*
X0014678974Y0023348911D01*
X0014671193Y0023364182D01*
X0014523555Y0023610867D01*
X0014513773Y0023624942D01*
X0014334021Y0023849309D01*
X0014322420Y0023861925D01*
X0014113882Y0024059820D01*
X0014100675Y0024070745D01*
X0013867209Y0024238508D01*
X0013852642Y0024247540D01*
X0013598567Y0024382066D01*
X0013582909Y0024389038D01*
X0013312928Y0024487837D01*
X0013296469Y0024492618D01*
X0013015578Y0024553863D01*
X0012998622Y0024556367D01*
X0012773147Y0024574112D01*
X0012763261Y0024574500D01*
X0012607729Y0024574500D01*
X0012599159Y0024574208D01*
X0012384605Y0024559581D01*
X0012367624Y0024557254D01*
X0012086107Y0024498956D01*
X0012069598Y0024494346D01*
X0011798597Y0024398380D01*
X0011782867Y0024391573D01*
X0011527398Y0024259715D01*
X0011512737Y0024250837D01*
X0011277526Y0024085528D01*
X0011264206Y0024074741D01*
X0011053607Y0023879040D01*
X0011041874Y0023866546D01*
X0010859783Y0023644074D01*
X0010849854Y0023630103D01*
X0010699640Y0023384977D01*
X0010691700Y0023369787D01*
X0010619500Y0023205311D01*
X0010619500Y0023211237D01*
X0010621639Y0023233867D01*
X0010619500Y0023301925D01*
X0010619500Y0023329856D01*
X0010618506Y0023345654D01*
X0010617999Y0023349664D01*
X0010616611Y0023393847D01*
X0010611670Y0023425041D01*
X0010606020Y0023444491D01*
X0010603480Y0023464591D01*
X0010595626Y0023495180D01*
X0010579352Y0023536285D01*
X0010567015Y0023578747D01*
X0010554472Y0023607732D01*
X0010544161Y0023625168D01*
X0010536704Y0023644001D01*
X0010521488Y0023671677D01*
X0010495510Y0023707434D01*
X0010472996Y0023745502D01*
X0010453637Y0023770458D01*
X0010439313Y0023784782D01*
X0010427408Y0023801168D01*
X0010405787Y0023824192D01*
X0010371722Y0023852373D01*
X0010206566Y0024017529D01*
X0010190146Y0024078808D01*
X0010182635Y0024099446D01*
X0010088683Y0024300926D01*
X0010077701Y0024319947D01*
X0009950190Y0024502052D01*
X0009936072Y0024518876D01*
X0009778876Y0024676071D01*
X0009762052Y0024690190D01*
X0009579948Y0024817701D01*
X0009560927Y0024828682D01*
X0009450877Y0024880000D01*
X0009560927Y0024931317D01*
X0009579948Y0024942299D01*
X0009598801Y0024955500D01*
X0014552918Y0024955500D01*
X0015405500Y0024102918D01*
G37*
G04 #@! TD.AperFunction*
M02*