%
M48
METRIC,000.000
T01C0.40
T02C0.75
T03C0.80
%
T01
X065763Y070335
X066035Y074605
X066220Y063096
X067395Y074115
X069075Y074055
X071065Y076475
X073095Y075685
T02
X071815Y073175
X071815Y071175
X071815Y069175
X071815Y067175
X071815Y065175
X071815Y063175
X071815Y061175
X071815Y059175
X071815Y057175
X071815Y055175
T03
X060995Y080165
X060995Y078165
X060995Y076165
X060995Y074164
X060995Y072164
X060995Y070164
X060995Y068164
X060995Y066164
X060995Y064164
X060995Y062165
X060995Y060165
X060995Y058165
X060995Y056165
X060995Y054165
X060995Y052165
X060995Y050165
X060995Y048165
X063855Y080165
X063855Y078165
X063855Y076165
X063855Y074164
X063855Y072164
X063855Y070164
X063855Y068164
X063855Y066164
X063855Y064164
X063855Y062165
X063855Y060165
X063855Y058165
X063855Y056165
X063855Y054165
X063855Y052165
X063855Y050165
X063855Y048165
M30