G04 #@! TF.GenerationSoftware,KiCad,Pcbnew,(6.0.1)*
G04 #@! TF.CreationDate,2022-07-05T00:42:15-07:00*
G04 #@! TF.ProjectId,mu100-dit,6d753130-302d-4646-9974-2e6b69636164,rev?*
G04 #@! TF.SameCoordinates,PX4a25ef0PY4c3f880*
G04 #@! TF.FileFunction,Copper,L2,Bot*
G04 #@! TF.FilePolarity,Positive*
%FSLAX46Y46*%
G04 Gerber Fmt 4.6, Leading zero omitted, Abs format (unit mm)*
G04 Created by KiCad (PCBNEW (6.0.1)) date 2022-07-05 00:42:15*
%MOMM*%
%LPD*%
G01*
G04 APERTURE LIST*
G04 Aperture macros list*
%AMRoundRect*
4,1,4,2,3,4,5,6,7,8,9,2,3,0*
1,1,$1,$2,$3*
1,1,$1,$2,$3*
1,1,$1,$2,$3*
1,1,$1,$2,$3*
20,1,$1,$2,$3,$4,$5,0*
20,1,$1,$2,$3,$4,$5,0*
20,1,$1,$2,$3,$4,$5,0*
20,1,$1,$2,$3,$4,$5,0*%
%AMFreePoly0*
4,1,13,0.5,-0.5,0,-0.5,-0.095671,-0.48097,-0.176777,-0.426777,-0.23097,-0.345671,-0.25,-0.25,-0.25,0.25,-0.23097,0.345671,-0.176777,0.426777,-0.095671,0.48097,0,0.5,0.5,0.5,0.5,-0.5,0.5,-0.5,0*%
G04 Aperture macros list end*
G04 #@! TA.AperFunction,ComponentPad*
%AMCOMP121*
4,1,3,
-0.625,0.35,
-0.625,-0.35,
0.625,-0.35,
0.625,0.35,
0*
4,1,19,
-0.625,0.6,
-0.54774575140626314,0.58776412907378839,
-0.47805368692688172,0.55225424859373684,
-0.42274575140626314,0.49694631307311826,
-0.38723587092621159,0.42725424859373684,
-0.375,0.35,
-0.38723587092621159,0.27274575140626311,
-0.42274575140626314,0.20305368692688172,
-0.47805368692688166,0.14774575140626314,
-0.54774575140626314,0.1122358709262116,
-0.625,0.099999999999999978,
-0.702254248593737,0.1122358709262116,
-0.77194631307311823,0.14774575140626309,
-0.82725424859373686,0.20305368692688167,
-0.86276412907378841,0.27274575140626311,
-0.875,0.34999999999999992,
-0.86276412907378841,0.42725424859373679,
-0.82725424859373686,0.49694631307311821,
-0.77194631307311834,0.55225424859373684,
-0.70225424859373686,0.58776412907378839,
0*
4,1,19,
-0.625,-0.099999999999999978,
-0.54774575140626314,-0.1122358709262116,
-0.47805368692688172,-0.14774575140626311,
-0.42274575140626314,-0.20305368692688169,
-0.38723587092621159,-0.27274575140626311,
-0.375,-0.35,
-0.38723587092621159,-0.42725424859373684,
-0.42274575140626314,-0.49694631307311821,
-0.47805368692688166,-0.55225424859373684,
-0.54774575140626314,-0.58776412907378839,
-0.625,-0.6,
-0.702254248593737,-0.58776412907378839,
-0.77194631307311823,-0.55225424859373684,
-0.82725424859373686,-0.49694631307311832,
-0.86276412907378841,-0.42725424859373684,
-0.875,-0.35000000000000003,
-0.86276412907378841,-0.27274575140626317,
-0.82725424859373686,-0.20305368692688175,
-0.77194631307311834,-0.14774575140626314,
-0.70225424859373686,-0.1122358709262116,
0*
4,1,19,
0.625,-0.099999999999999978,
0.70225424859373686,-0.1122358709262116,
0.77194631307311834,-0.14774575140626311,
0.82725424859373686,-0.20305368692688169,
0.86276412907378841,-0.27274575140626311,
0.875,-0.35,
0.86276412907378841,-0.42725424859373684,
0.82725424859373686,-0.49694631307311821,
0.77194631307311834,-0.55225424859373684,
0.70225424859373686,-0.58776412907378839,
0.625,-0.6,
0.547745751406263,-0.58776412907378839,
0.47805368692688177,-0.55225424859373684,
0.42274575140626314,-0.49694631307311832,
0.38723587092621159,-0.42725424859373684,
0.375,-0.35000000000000003,
0.38723587092621159,-0.27274575140626317,
0.42274575140626314,-0.20305368692688175,
0.47805368692688166,-0.14774575140626314,
0.54774575140626314,-0.1122358709262116,
0*
4,1,19,
0.625,0.6,
0.70225424859373686,0.58776412907378839,
0.77194631307311834,0.55225424859373684,
0.82725424859373686,0.49694631307311826,
0.86276412907378841,0.42725424859373684,
0.875,0.35,
0.86276412907378841,0.27274575140626311,
0.82725424859373686,0.20305368692688172,
0.77194631307311834,0.14774575140626314,
0.70225424859373686,0.1122358709262116,
0.625,0.099999999999999978,
0.547745751406263,0.1122358709262116,
0.47805368692688177,0.14774575140626309,
0.42274575140626314,0.20305368692688167,
0.38723587092621159,0.27274575140626311,
0.375,0.34999999999999992,
0.38723587092621159,0.42725424859373679,
0.42274575140626314,0.49694631307311821,
0.47805368692688166,0.55225424859373684,
0.54774575140626314,0.58776412907378839,
0*
4,1,3,
-0.875,0.35,
-0.375,0.35,
-0.375,-0.35,
-0.875,-0.35,
0*
4,1,3,
-0.625,-0.6,
-0.625,-0.099999999999999978,
0.625,-0.099999999999999978,
0.625,-0.6,
0*
4,1,3,
0.875,-0.35,
0.375,-0.35,
0.375,0.35,
0.875,0.35,
0*
4,1,3,
0.625,0.6,
0.625,0.099999999999999978,
-0.625,0.099999999999999978,
-0.625,0.6,
0*%
%ADD10COMP121,0.25X-0.625X0.35X-0.625X-0.35X0.625X-0.35X0.625X0.35X0*%
G04 #@! TD*
G04 #@! TA.AperFunction,ComponentPad*
%ADD11O,1.75X1.2*%
G04 #@! TD*
G04 #@! TA.AperFunction,ConnectorPad*
%ADD12C,5.7*%
G04 #@! TD*
G04 #@! TA.AperFunction,ComponentPad*
%ADD13C,3.6*%
G04 #@! TD*
G04 #@! TA.AperFunction,ComponentPad*
%ADD14C,1.524*%
G04 #@! TD*
G04 #@! TA.AperFunction,ComponentPad*
%ADD15R,1.7X1.7*%
G04 #@! TD*
G04 #@! TA.AperFunction,ComponentPad*
%ADD16O,1.7X1.7*%
G04 #@! TD*
G04 #@! TA.AperFunction,SMDPad,CuDef*
%AMCOMP122*
4,1,12,
0.5,-0.5,
0,-0.5,
-0.095671,-0.48097,
-0.176777,-0.426777,
-0.23097,-0.345671,
-0.25,-0.25,
-0.25,0.25,
-0.23097,0.345671,
-0.176777,0.426777,
-0.095671,0.48097,
0,0.5,
0.5,0.5,
0.5,-0.5,
0*%
%ADD17COMP122,0*%
G04 #@! TD*
G04 #@! TA.AperFunction,SMDPad,CuDef*
%AMCOMP123*
4,1,12,
0.5,-0.5,
0,-0.5,
-0.095671,-0.48097,
-0.176777,-0.426777,
-0.23097,-0.345671,
-0.25,-0.25,
-0.25,0.25,
-0.23097,0.345671,
-0.176777,0.426777,
-0.095671,0.48097,
0,0.5,
0.5,0.5,
0.5,-0.5,
0*%
%ADD18COMP123,180*%
G04 #@! TD*
G04 #@! TA.AperFunction,SMDPad,CuDef*
%AMCOMP124*
4,1,3,
0.35,0.45,
-0.35,0.45,
-0.35,-0.45,
0.35,-0.45,
0*
4,1,19,
0.35,0.7,
0.42725424859373684,0.68776412907378837,
0.49694631307311826,0.65225424859373682,
0.55225424859373684,0.5969463130731183,
0.58776412907378839,0.52725424859373682,
0.6,0.45,
0.58776412907378839,0.3727457514062632,
0.55225424859373684,0.30305368692688173,
0.49694631307311832,0.24774575140626318,
0.42725424859373684,0.21223587092621163,
0.35000000000000003,0.2,
0.27274575140626306,0.21223587092621163,
0.20305368692688172,0.24774575140626312,
0.14774575140626314,0.30305368692688173,
0.1122358709262116,0.37274575140626309,
0.099999999999999978,0.44999999999999996,
0.11223587092621157,0.52725424859373682,
0.14774575140626309,0.5969463130731183,
0.20305368692688164,0.65225424859373682,
0.27274575140626306,0.68776412907378837,
0*
4,1,19,
-0.35,0.7,
-0.27274575140626311,0.68776412907378837,
-0.20305368692688169,0.65225424859373682,
-0.14774575140626311,0.5969463130731183,
-0.1122358709262116,0.52725424859373682,
-0.099999999999999978,0.45,
-0.11223587092621157,0.3727457514062632,
-0.14774575140626311,0.30305368692688173,
-0.20305368692688167,0.24774575140626318,
-0.27274575140626311,0.21223587092621163,
-0.34999999999999992,0.2,
-0.4272542485937369,0.21223587092621163,
-0.49694631307311821,0.24774575140626312,
-0.55225424859373684,0.30305368692688173,
-0.58776412907378839,0.37274575140626309,
-0.6,0.44999999999999996,
-0.58776412907378839,0.52725424859373682,
-0.55225424859373684,0.5969463130731183,
-0.49694631307311832,0.65225424859373682,
-0.4272542485937369,0.68776412907378837,
0*
4,1,19,
-0.35,-0.2,
-0.27274575140626311,-0.21223587092621163,
-0.20305368692688169,-0.24774575140626315,
-0.14774575140626311,-0.30305368692688173,
-0.1122358709262116,-0.37274575140626315,
-0.099999999999999978,-0.45,
-0.11223587092621157,-0.52725424859373682,
-0.14774575140626311,-0.5969463130731183,
-0.20305368692688167,-0.65225424859373682,
-0.27274575140626311,-0.68776412907378837,
-0.34999999999999992,-0.7,
-0.4272542485937369,-0.68776412907378837,
-0.49694631307311821,-0.65225424859373693,
-0.55225424859373684,-0.5969463130731183,
-0.58776412907378839,-0.52725424859373693,
-0.6,-0.45000000000000007,
-0.58776412907378839,-0.3727457514062632,
-0.55225424859373684,-0.30305368692688178,
-0.49694631307311832,-0.24774575140626318,
-0.4272542485937369,-0.21223587092621163,
0*
4,1,19,
0.35,-0.2,
0.42725424859373684,-0.21223587092621163,
0.49694631307311826,-0.24774575140626315,
0.55225424859373684,-0.30305368692688173,
0.58776412907378839,-0.37274575140626315,
0.6,-0.45,
0.58776412907378839,-0.52725424859373682,
0.55225424859373684,-0.5969463130731183,
0.49694631307311832,-0.65225424859373682,
0.42725424859373684,-0.68776412907378837,
0.35000000000000003,-0.7,
0.27274575140626306,-0.68776412907378837,
0.20305368692688172,-0.65225424859373693,
0.14774575140626314,-0.5969463130731183,
0.1122358709262116,-0.52725424859373693,
0.099999999999999978,-0.45000000000000007,
0.11223587092621157,-0.3727457514062632,
0.14774575140626309,-0.30305368692688178,
0.20305368692688164,-0.24774575140626318,
0.27274575140626306,-0.21223587092621163,
0*
4,1,3,
0.35,0.7,
0.35,0.2,
-0.35,0.2,
-0.35,0.7,
0*
4,1,3,
-0.6,0.45,
-0.099999999999999978,0.45,
-0.099999999999999978,-0.45,
-0.6,-0.45,
0*
4,1,3,
-0.35,-0.7,
-0.35,-0.2,
0.35,-0.2,
0.35,-0.7,
0*
4,1,3,
0.6,-0.45,
0.099999999999999978,-0.45,
0.099999999999999978,0.45,
0.6,0.45,
0*%
%ADD19COMP124,0.25X0.35X0.45X-0.35X0.45X-0.35X-0.45X0.35X-0.45X0*%
G04 #@! TD*
G04 #@! TA.AperFunction,SMDPad,CuDef*
%AMCOMP125*
4,1,3,
-0.35,-0.45,
0.35,-0.45,
0.35,0.45,
-0.35,0.45,
0*
4,1,19,
-0.35,-0.2,
-0.27274575140626311,-0.21223587092621163,
-0.20305368692688169,-0.24774575140626315,
-0.14774575140626311,-0.30305368692688173,
-0.1122358709262116,-0.37274575140626315,
-0.099999999999999978,-0.45,
-0.11223587092621157,-0.52725424859373682,
-0.14774575140626311,-0.5969463130731183,
-0.20305368692688167,-0.65225424859373682,
-0.27274575140626311,-0.68776412907378837,
-0.34999999999999992,-0.7,
-0.4272542485937369,-0.68776412907378837,
-0.49694631307311821,-0.65225424859373693,
-0.55225424859373684,-0.5969463130731183,
-0.58776412907378839,-0.52725424859373693,
-0.6,-0.45000000000000007,
-0.58776412907378839,-0.3727457514062632,
-0.55225424859373684,-0.30305368692688178,
-0.49694631307311832,-0.24774575140626318,
-0.4272542485937369,-0.21223587092621163,
0*
4,1,19,
0.35,-0.2,
0.42725424859373684,-0.21223587092621163,
0.49694631307311826,-0.24774575140626315,
0.55225424859373684,-0.30305368692688173,
0.58776412907378839,-0.37274575140626315,
0.6,-0.45,
0.58776412907378839,-0.52725424859373682,
0.55225424859373684,-0.5969463130731183,
0.49694631307311832,-0.65225424859373682,
0.42725424859373684,-0.68776412907378837,
0.35000000000000003,-0.7,
0.27274575140626306,-0.68776412907378837,
0.20305368692688172,-0.65225424859373693,
0.14774575140626314,-0.5969463130731183,
0.1122358709262116,-0.52725424859373693,
0.099999999999999978,-0.45000000000000007,
0.11223587092621157,-0.3727457514062632,
0.14774575140626309,-0.30305368692688178,
0.20305368692688164,-0.24774575140626318,
0.27274575140626306,-0.21223587092621163,
0*
4,1,19,
0.35,0.7,
0.42725424859373684,0.68776412907378837,
0.49694631307311826,0.65225424859373682,
0.55225424859373684,0.5969463130731183,
0.58776412907378839,0.52725424859373682,
0.6,0.45,
0.58776412907378839,0.3727457514062632,
0.55225424859373684,0.30305368692688173,
0.49694631307311832,0.24774575140626318,
0.42725424859373684,0.21223587092621163,
0.35000000000000003,0.2,
0.27274575140626306,0.21223587092621163,
0.20305368692688172,0.24774575140626312,
0.14774575140626314,0.30305368692688173,
0.1122358709262116,0.37274575140626309,
0.099999999999999978,0.44999999999999996,
0.11223587092621157,0.52725424859373682,
0.14774575140626309,0.5969463130731183,
0.20305368692688164,0.65225424859373682,
0.27274575140626306,0.68776412907378837,
0*
4,1,19,
-0.35,0.7,
-0.27274575140626311,0.68776412907378837,
-0.20305368692688169,0.65225424859373682,
-0.14774575140626311,0.5969463130731183,
-0.1122358709262116,0.52725424859373682,
-0.099999999999999978,0.45,
-0.11223587092621157,0.3727457514062632,
-0.14774575140626311,0.30305368692688173,
-0.20305368692688167,0.24774575140626318,
-0.27274575140626311,0.21223587092621163,
-0.34999999999999992,0.2,
-0.4272542485937369,0.21223587092621163,
-0.49694631307311821,0.24774575140626312,
-0.55225424859373684,0.30305368692688173,
-0.58776412907378839,0.37274575140626309,
-0.6,0.44999999999999996,
-0.58776412907378839,0.52725424859373682,
-0.55225424859373684,0.5969463130731183,
-0.49694631307311832,0.65225424859373682,
-0.4272542485937369,0.68776412907378837,
0*
4,1,3,
-0.35,-0.7,
-0.35,-0.2,
0.35,-0.2,
0.35,-0.7,
0*
4,1,3,
0.6,-0.45,
0.099999999999999978,-0.45,
0.099999999999999978,0.45,
0.6,0.45,
0*
4,1,3,
0.35,0.7,
0.35,0.2,
-0.35,0.2,
-0.35,0.7,
0*
4,1,3,
-0.6,0.45,
-0.099999999999999978,0.45,
-0.099999999999999978,-0.45,
-0.6,-0.45,
0*%
%ADD20COMP125,0.25X-0.35X-0.45X0.35X-0.45X0.35X0.45X-0.35X0.45X0*%
G04 #@! TD*
G04 #@! TA.AperFunction,SMDPad,CuDef*
%AMCOMP126*
4,1,3,
0.3375,0.475,
-0.3375,0.475,
-0.3375,-0.475,
0.3375,-0.475,
0*
4,1,19,
0.3375,0.725,
0.41475424859373689,0.71276412907378839,
0.48444631307311831,0.67725424859373684,
0.53975424859373689,0.62194631307311821,
0.57526412907378843,0.55225424859373684,
0.5875,0.475,
0.57526412907378843,0.39774575140626311,
0.53975424859373689,0.32805368692688175,
0.48444631307311836,0.27274575140626311,
0.41475424859373689,0.2372358709262116,
0.33750000000000008,0.22499999999999998,
0.2602457514062631,0.2372358709262116,
0.19055368692688177,0.27274575140626311,
0.13524575140626319,0.32805368692688164,
0.099735870926211639,0.39774575140626311,
0.087500000000000022,0.47499999999999992,
0.099735870926211612,0.55225424859373673,
0.13524575140626313,0.62194631307311821,
0.19055368692688168,0.67725424859373684,
0.2602457514062631,0.71276412907378839,
0*
4,1,19,
-0.3375,0.725,
-0.26024575140626316,0.71276412907378839,
-0.19055368692688174,0.67725424859373684,
-0.13524575140626316,0.62194631307311821,
-0.099735870926211639,0.55225424859373684,
-0.087500000000000022,0.475,
-0.099735870926211612,0.39774575140626311,
-0.13524575140626316,0.32805368692688175,
-0.19055368692688171,0.27274575140626311,
-0.26024575140626316,0.2372358709262116,
-0.33749999999999997,0.22499999999999998,
-0.41475424859373694,0.2372358709262116,
-0.48444631307311825,0.27274575140626311,
-0.53975424859373689,0.32805368692688164,
-0.57526412907378843,0.39774575140626311,
-0.5875,0.47499999999999992,
-0.57526412907378843,0.55225424859373673,
-0.53975424859373689,0.62194631307311821,
-0.48444631307311836,0.67725424859373684,
-0.41475424859373694,0.71276412907378839,
0*
4,1,19,
-0.3375,-0.22499999999999998,
-0.26024575140626316,-0.2372358709262116,
-0.19055368692688174,-0.27274575140626311,
-0.13524575140626316,-0.32805368692688169,
-0.099735870926211639,-0.39774575140626311,
-0.087500000000000022,-0.475,
-0.099735870926211612,-0.55225424859373684,
-0.13524575140626316,-0.62194631307311821,
-0.19055368692688171,-0.67725424859373684,
-0.26024575140626316,-0.71276412907378839,
-0.33749999999999997,-0.725,
-0.41475424859373694,-0.71276412907378839,
-0.48444631307311825,-0.67725424859373684,
-0.53975424859373689,-0.62194631307311832,
-0.57526412907378843,-0.55225424859373684,
-0.5875,-0.47500000000000003,
-0.57526412907378843,-0.39774575140626317,
-0.53975424859373689,-0.32805368692688175,
-0.48444631307311836,-0.27274575140626311,
-0.41475424859373694,-0.2372358709262116,
0*
4,1,19,
0.3375,-0.22499999999999998,
0.41475424859373689,-0.2372358709262116,
0.48444631307311831,-0.27274575140626311,
0.53975424859373689,-0.32805368692688169,
0.57526412907378843,-0.39774575140626311,
0.5875,-0.475,
0.57526412907378843,-0.55225424859373684,
0.53975424859373689,-0.62194631307311821,
0.48444631307311836,-0.67725424859373684,
0.41475424859373689,-0.71276412907378839,
0.33750000000000008,-0.725,
0.2602457514062631,-0.71276412907378839,
0.19055368692688177,-0.67725424859373684,
0.13524575140626319,-0.62194631307311832,
0.099735870926211639,-0.55225424859373684,
0.087500000000000022,-0.47500000000000003,
0.099735870926211612,-0.39774575140626317,
0.13524575140626313,-0.32805368692688175,
0.19055368692688168,-0.27274575140626311,
0.2602457514062631,-0.2372358709262116,
0*
4,1,3,
0.3375,0.725,
0.3375,0.22499999999999998,
-0.3375,0.22499999999999998,
-0.3375,0.725,
0*
4,1,3,
-0.5875,0.475,
-0.087500000000000022,0.475,
-0.087500000000000022,-0.475,
-0.5875,-0.475,
0*
4,1,3,
-0.3375,-0.725,
-0.3375,-0.22499999999999998,
0.3375,-0.22499999999999998,
0.3375,-0.725,
0*
4,1,3,
0.5875,-0.475,
0.087500000000000022,-0.475,
0.087500000000000022,0.475,
0.5875,0.475,
0*%
%ADD21COMP126,0.25X0.3375X0.475X-0.3375X0.475X-0.3375X-0.475X0.3375X-0.475X0*%
G04 #@! TD*
G04 #@! TA.AperFunction,ViaPad*
%ADD22C,0.8*%
G04 #@! TD*
G04 #@! TA.AperFunction,ViaPad*
%ADD23C,0.6*%
G04 #@! TD*
G04 #@! TA.AperFunction,Conductor*
%ADD24C,0.25*%
G04 #@! TD*
G04 #@! TA.AperFunction,Conductor*
%ADD25C,0.6*%
G04 #@! TD*
G04 #@! TA.AperFunction,Conductor*
%ADD26C,0.4*%
G04 #@! TD*
G04 #@! TA.AperFunction,Conductor*
%ADD27C,0.254*%
G04 #@! TD*
G04 APERTURE END LIST*
D10*
X0039000000Y0084000000D02*
X0042280000Y0073380000D03*
D11*
X0042280000Y0071380000D03*
X0042280000Y0069380000D03*
X0042280000Y0067380000D03*
X0042280000Y0065379999D03*
X0042280000Y0063379999D03*
X0042280000Y0061379999D03*
X0042280000Y0059379999D03*
X0042280000Y0057379999D03*
X0042280000Y0055379999D03*
D12*
X0052600000Y0080500000D03*
D13*
X0052600000Y0080500000D03*
D14*
X0047870000Y0072690000D03*
X0047870000Y0070150000D03*
X0047870000Y0067610000D03*
D12*
X0052600000Y0047500000D03*
D13*
X0052600000Y0047500000D03*
D15*
X0042160000Y0078277000D03*
D16*
X0042160000Y0080817000D03*
D17*
X0045710000Y0058510000D03*
D18*
X0047010000Y0058510000D03*
D19*
X0047150000Y0076242000D03*
X0045150000Y0076242000D03*
D17*
X0045710000Y0053920000D03*
D18*
X0047010000Y0053920000D03*
D17*
X0045710000Y0060805000D03*
D18*
X0047010000Y0060805000D03*
D17*
X0051280000Y0061885000D03*
D18*
X0052580000Y0061885000D03*
D17*
X0045710000Y0063129999D03*
D18*
X0047010000Y0063129999D03*
D17*
X0051280000Y0059590000D03*
D18*
X0052580000Y0059590000D03*
D17*
X0051230000Y0053920000D03*
D18*
X0052530000Y0053920000D03*
D20*
X0045100000Y0081362000D03*
X0047100000Y0081362000D03*
D21*
X0047167500Y0078801999D03*
X0045092500Y0078801999D03*
D17*
X0051280000Y0057295000D03*
D18*
X0052580000Y0057295000D03*
D17*
X0045710000Y0056215000D03*
D18*
X0047010000Y0056215000D03*
D22*
X0048450000Y0064670000D03*
X0044100000Y0069070000D03*
X0045310000Y0071410000D03*
X0048910000Y0076030000D03*
X0050320000Y0068600000D03*
X0046220000Y0065200000D03*
X0050380000Y0071250000D03*
X0047250000Y0074320000D03*
D23*
X0044510000Y0052629999D03*
X0045266400Y0059814800D03*
X0049139978Y0057122400D03*
X0049127200Y0056208000D03*
X0049135439Y0055200239D03*
X0049127200Y0054277600D03*
X0052480000Y0058367000D03*
X0053287242Y0059213073D03*
X0053089600Y0061110200D03*
X0052175200Y0054948499D03*
X0053165800Y0055573000D03*
D24*
X0047100000Y0078192000D02*
X0047100000Y0081362000D01*
X0045150000Y0076242000D02*
X0047100000Y0078192000D01*
X0048040000Y0072690000D02*
X0047870000Y0072690000D01*
D25*
X0045340000Y0069720000D02*
X0045340000Y0067745000D01*
X0045340000Y0067745000D02*
X0047330000Y0065754999D01*
D26*
X0046019999Y0061114999D02*
X0046019999Y0063734296D01*
D25*
X0044780000Y0070150000D02*
X0047870000Y0070150000D01*
D26*
X0046019999Y0058820000D02*
X0046019999Y0060495000D01*
X0045710000Y0060805000D02*
X0046019999Y0061114999D01*
D25*
X0042280000Y0071380000D02*
X0043550000Y0071380000D01*
D26*
X0046375704Y0064090000D02*
X0047540000Y0064090000D01*
X0045710000Y0058510000D02*
X0046019999Y0058820000D01*
X0047540000Y0064090000D02*
X0049735000Y0061894999D01*
X0049735000Y0061894999D02*
X0051280000Y0061894999D01*
X0045692500Y0053930000D02*
X0045610000Y0054012500D01*
X0046019999Y0060495000D02*
X0045710000Y0060805000D01*
X0045610000Y0053920000D02*
X0045630000Y0053900000D01*
X0046019999Y0063734296D02*
X0046375704Y0064090000D01*
D25*
X0043550000Y0071380000D02*
X0044780000Y0070150000D01*
D26*
X0045610000Y0054012500D02*
X0045610000Y0058510000D01*
X0051280000Y0061894999D02*
X0051280000Y0057295000D01*
D25*
X0047330000Y0065750000D02*
X0047330000Y0064210000D01*
D24*
X0044950000Y0053070000D02*
X0044510000Y0052629999D01*
X0044950000Y0059498400D02*
X0044950000Y0053070000D01*
X0045266400Y0059814800D02*
X0044950000Y0059498400D01*
X0048690000Y0058911435D02*
X0048690000Y0061627500D01*
X0048964998Y0057297380D02*
X0048964998Y0058636437D01*
X0048964998Y0058636437D02*
X0048690000Y0058911435D01*
X0048690000Y0061627500D02*
X0047177500Y0063140000D01*
X0049139978Y0057122400D02*
X0048964998Y0057297380D01*
X0048115000Y0060815000D02*
X0047147500Y0060815000D01*
X0048170480Y0060759519D02*
X0048115000Y0060815000D01*
X0048170480Y0058795238D02*
X0048170480Y0060759519D01*
X0049127200Y0056208000D02*
X0048515478Y0056819722D01*
X0048515478Y0058450239D02*
X0048170480Y0058795238D01*
X0048515478Y0056819722D02*
X0048515478Y0058450239D01*
X0047810000Y0058519999D02*
X0047257500Y0058519999D01*
X0048065958Y0056269720D02*
X0048065958Y0058264042D01*
X0049135439Y0055200239D02*
X0048065958Y0056269720D01*
X0048065958Y0058264042D02*
X0047810000Y0058519999D01*
X0049127200Y0054325300D02*
X0047227500Y0056225000D01*
X0049127200Y0054277600D02*
X0049127200Y0054325300D01*
X0049340000Y0069080000D02*
X0049340000Y0073910000D01*
X0049340000Y0073910000D02*
X0046960000Y0076290000D01*
X0047870000Y0067610000D02*
X0049340000Y0069080000D01*
X0052480000Y0058367000D02*
X0052197500Y0058084500D01*
X0052197500Y0058084500D02*
X0052197500Y0057305000D01*
X0053287242Y0059213073D02*
X0052956927Y0059213073D01*
X0052956927Y0059213073D02*
X0052570000Y0059600000D01*
X0053089600Y0061140400D02*
X0052335000Y0061894999D01*
X0053089600Y0061110200D02*
X0053089600Y0061140400D01*
X0052175200Y0054948499D02*
X0052147500Y0054920800D01*
X0052147500Y0054920800D02*
X0052147500Y0053930000D01*
X0049355800Y0053541000D02*
X0047388999Y0053541000D01*
X0047388999Y0053541000D02*
X0047010000Y0053920000D01*
X0051387800Y0055573000D02*
X0049355800Y0053541000D01*
X0053165800Y0055573000D02*
X0051387800Y0055573000D01*
X0044562500Y0078790000D02*
X0042673000Y0078790000D01*
X0042673000Y0078790000D02*
X0042148000Y0078265000D01*
D27*
X0050353366Y0083169089D02*
X0050342956Y0083160293D01*
X0050323004Y0083141491D01*
X0050287146Y0083080215D01*
X0050290108Y0083009281D01*
X0050320323Y0082960697D01*
X0052510905Y0080770115D01*
X0052573217Y0080736089D01*
X0052644031Y0080741154D01*
X0052689095Y0080770115D01*
X0054880072Y0082961093D01*
X0054914099Y0083023405D01*
X0054909034Y0083094220D01*
X0054877713Y0083141583D01*
X0054866318Y0083152397D01*
X0054855937Y0083161232D01*
X0054587140Y0083366000D01*
X0055966000Y0083366000D01*
X0055966000Y0081399684D01*
X0055908698Y0081606310D01*
X0055904352Y0081619226D01*
X0055769864Y0081957177D01*
X0055764148Y0081969548D01*
X0055593948Y0082290997D01*
X0055586931Y0082302678D01*
X0055383012Y0082603866D01*
X0055374772Y0082614721D01*
X0055243419Y0082769608D01*
X0055184105Y0082808625D01*
X0055113112Y0082809380D01*
X0055058228Y0082777208D01*
X0052870115Y0080589095D01*
X0052836089Y0080526783D01*
X0052841154Y0080455968D01*
X0052870115Y0080410905D01*
X0055058180Y0078222840D01*
X0055120492Y0078188814D01*
X0055191306Y0078193879D01*
X0055242800Y0078229770D01*
X0055359941Y0078365958D01*
X0055368256Y0078376756D01*
X0055574273Y0078676513D01*
X0055581373Y0078688145D01*
X0055753812Y0079008398D01*
X0055759615Y0079020729D01*
X0055896457Y0079357732D01*
X0055900894Y0079370617D01*
X0055966000Y0079599174D01*
X0055966000Y0048399684D01*
X0055908698Y0048606310D01*
X0055904352Y0048619226D01*
X0055769864Y0048957177D01*
X0055764148Y0048969548D01*
X0055593948Y0049290997D01*
X0055586931Y0049302678D01*
X0055383012Y0049603866D01*
X0055374772Y0049614721D01*
X0055243419Y0049769608D01*
X0055184105Y0049808625D01*
X0055113112Y0049809380D01*
X0055058228Y0049777208D01*
X0052870115Y0047589095D01*
X0052836089Y0047526783D01*
X0052841154Y0047455968D01*
X0052870115Y0047410905D01*
X0055058180Y0045222840D01*
X0055120492Y0045188814D01*
X0055191306Y0045193879D01*
X0055242800Y0045229770D01*
X0055359941Y0045365958D01*
X0055368256Y0045376756D01*
X0055574273Y0045676513D01*
X0055581373Y0045688145D01*
X0055753812Y0046008398D01*
X0055759615Y0046020729D01*
X0055896457Y0046357732D01*
X0055900894Y0046370617D01*
X0055966000Y0046599174D01*
X0055966000Y0044634000D01*
X0054585466Y0044634000D01*
X0054837304Y0044823085D01*
X0054847744Y0044831845D01*
X0054876308Y0044858575D01*
X0054912380Y0044919725D01*
X0054909665Y0044990670D01*
X0054879310Y0045039670D01*
X0052689095Y0047229885D01*
X0052626783Y0047263911D01*
X0052555968Y0047258846D01*
X0052510905Y0047229885D01*
X0050319502Y0045038482D01*
X0050285476Y0044976170D01*
X0050290541Y0044905355D01*
X0050321555Y0044858284D01*
X0050324449Y0044855519D01*
X0050334787Y0044846660D01*
X0050611930Y0044634000D01*
X0039634000Y0044634000D01*
X0039634000Y0047505364D01*
X0049111249Y0047505364D01*
X0049129651Y0047142103D01*
X0049131076Y0047128550D01*
X0049188603Y0046769401D01*
X0049191483Y0046756081D01*
X0049287459Y0046405246D01*
X0049291761Y0046392315D01*
X0049425067Y0046053897D01*
X0049430741Y0046041506D01*
X0049599816Y0045719465D01*
X0049606794Y0045707759D01*
X0049809661Y0045405861D01*
X0049817863Y0045394977D01*
X0049956231Y0045230661D01*
X0050015410Y0045191438D01*
X0050086399Y0045190436D01*
X0050141706Y0045222726D01*
X0052329885Y0047410905D01*
X0052363911Y0047473217D01*
X0052358846Y0047544032D01*
X0052329885Y0047589095D01*
X0050141810Y0049777170D01*
X0050079498Y0049811196D01*
X0050008683Y0049806131D01*
X0049956903Y0049769905D01*
X0049832626Y0049624394D01*
X0049824350Y0049613568D01*
X0049619380Y0049313094D01*
X0049612320Y0049301437D01*
X0049441001Y0048980583D01*
X0049435242Y0048968233D01*
X0049299576Y0048630755D01*
X0049295184Y0048617854D01*
X0049196759Y0048267697D01*
X0049193786Y0048254397D01*
X0049133753Y0047895658D01*
X0049132235Y0047882115D01*
X0049111297Y0047518992D01*
X0049111249Y0047505364D01*
X0039634000Y0047505364D01*
X0039634000Y0050080215D01*
X0050287146Y0050080215D01*
X0050290108Y0050009281D01*
X0050320323Y0049960697D01*
X0052510905Y0047770115D01*
X0052573217Y0047736089D01*
X0052644031Y0047741154D01*
X0052689095Y0047770115D01*
X0054880072Y0049961093D01*
X0054914099Y0050023405D01*
X0054909034Y0050094220D01*
X0054877713Y0050141583D01*
X0054866318Y0050152397D01*
X0054855937Y0050161232D01*
X0054566602Y0050381646D01*
X0054555331Y0050389306D01*
X0054243884Y0050577183D01*
X0054231852Y0050583581D01*
X0053901936Y0050736723D01*
X0053889282Y0050741784D01*
X0053544756Y0050858399D01*
X0053531630Y0050862063D01*
X0053176525Y0050940788D01*
X0053163080Y0050943014D01*
X0052801550Y0050982927D01*
X0052787943Y0050983688D01*
X0052424217Y0050984323D01*
X0052410609Y0050983610D01*
X0052048941Y0050944959D01*
X0052035488Y0050942780D01*
X0051680111Y0050865295D01*
X0051666973Y0050861676D01*
X0051322041Y0050746264D01*
X0051309371Y0050741247D01*
X0050978922Y0050589258D01*
X0050966867Y0050582902D01*
X0050654766Y0050396113D01*
X0050643468Y0050388492D01*
X0050353366Y0050169089D01*
X0050342956Y0050160293D01*
X0050323004Y0050141491D01*
X0050287146Y0050080215D01*
X0039634000Y0050080215D01*
X0039634000Y0055428570D01*
X0040766922Y0055428570D01*
X0040776702Y0055217275D01*
X0040780074Y0055193580D01*
X0040829632Y0054987945D01*
X0040837424Y0054965315D01*
X0040924973Y0054772762D01*
X0040936904Y0054752013D01*
X0041059284Y0054579488D01*
X0041074923Y0054561371D01*
X0041227719Y0054415101D01*
X0041246502Y0054400267D01*
X0041424200Y0054285528D01*
X0041445450Y0054274514D01*
X0041641639Y0054195448D01*
X0041664587Y0054188649D01*
X0041872187Y0054148108D01*
X0041890183Y0054145922D01*
X0041895745Y0054145650D01*
X0041901899Y0054145500D01*
X0042607846Y0054145500D01*
X0042619813Y0054146070D01*
X0042777533Y0054161118D01*
X0042801035Y0054165643D01*
X0043004003Y0054225187D01*
X0043026226Y0054234076D01*
X0043214272Y0054330926D01*
X0043234413Y0054343856D01*
X0043400753Y0054474518D01*
X0043418085Y0054491023D01*
X0043556717Y0054650783D01*
X0043570616Y0054670268D01*
X0043676536Y0054853359D01*
X0043686501Y0054875121D01*
X0043755888Y0055074938D01*
X0043761556Y0055098191D01*
X0043791909Y0055307524D01*
X0043793078Y0055331430D01*
X0043783298Y0055542725D01*
X0043779926Y0055566420D01*
X0043730368Y0055772055D01*
X0043722576Y0055794685D01*
X0043635027Y0055987238D01*
X0043623096Y0056007987D01*
X0043500716Y0056180510D01*
X0043485077Y0056198629D01*
X0043332281Y0056344899D01*
X0043313498Y0056359733D01*
X0043280742Y0056380883D01*
X0043400407Y0056474882D01*
X0043417739Y0056491387D01*
X0043556308Y0056651073D01*
X0043570207Y0056670559D01*
X0043676080Y0056853567D01*
X0043686044Y0056875330D01*
X0043755401Y0057075057D01*
X0043761070Y0057098315D01*
X0043762463Y0057107925D01*
X0043752440Y0057178210D01*
X0043706009Y0057231919D01*
X0043637766Y0057251999D01*
X0040926483Y0057251999D01*
X0040858362Y0057231998D01*
X0040811869Y0057178342D01*
X0040801765Y0057108068D01*
X0040803990Y0057096479D01*
X0040830107Y0056988109D01*
X0040837899Y0056965479D01*
X0040925408Y0056773012D01*
X0040937339Y0056752263D01*
X0041059664Y0056579817D01*
X0041075303Y0056561699D01*
X0041228030Y0056415495D01*
X0041246813Y0056400661D01*
X0041279230Y0056379729D01*
X0041159247Y0056285482D01*
X0041141915Y0056268975D01*
X0041003283Y0056109217D01*
X0040989384Y0056089732D01*
X0040883463Y0055906641D01*
X0040873499Y0055884879D01*
X0040804111Y0055685062D01*
X0040798443Y0055661809D01*
X0040768091Y0055452476D01*
X0040766922Y0055428570D01*
X0039634000Y0055428570D01*
X0039634000Y0059428570D01*
X0040766922Y0059428570D01*
X0040776702Y0059217275D01*
X0040780074Y0059193580D01*
X0040829632Y0058987945D01*
X0040837424Y0058965315D01*
X0040924973Y0058772762D01*
X0040936904Y0058752013D01*
X0041059284Y0058579488D01*
X0041074923Y0058561371D01*
X0041227719Y0058415101D01*
X0041246502Y0058400267D01*
X0041279258Y0058379115D01*
X0041159593Y0058285118D01*
X0041142261Y0058268613D01*
X0041003692Y0058108927D01*
X0040989793Y0058089441D01*
X0040883920Y0057906431D01*
X0040873956Y0057884670D01*
X0040804599Y0057684943D01*
X0040798930Y0057661685D01*
X0040797537Y0057652075D01*
X0040807560Y0057581790D01*
X0040853991Y0057528081D01*
X0040922234Y0057507999D01*
X0043633517Y0057507999D01*
X0043701638Y0057528002D01*
X0043748131Y0057581658D01*
X0043758235Y0057651932D01*
X0043756010Y0057663521D01*
X0043729893Y0057771891D01*
X0043722101Y0057794521D01*
X0043634592Y0057986988D01*
X0043622661Y0058007737D01*
X0043500336Y0058180183D01*
X0043484697Y0058198301D01*
X0043331970Y0058344505D01*
X0043313187Y0058359339D01*
X0043280770Y0058380269D01*
X0043400753Y0058474518D01*
X0043418085Y0058491023D01*
X0043556717Y0058650783D01*
X0043570616Y0058670268D01*
X0043676536Y0058853359D01*
X0043686501Y0058875121D01*
X0043755888Y0059074938D01*
X0043761556Y0059098191D01*
X0043791909Y0059307524D01*
X0043793078Y0059331430D01*
X0043783298Y0059542725D01*
X0043779926Y0059566420D01*
X0043730368Y0059772055D01*
X0043722576Y0059794685D01*
X0043635027Y0059987238D01*
X0043623096Y0060007987D01*
X0043500716Y0060180510D01*
X0043485077Y0060198629D01*
X0043332281Y0060344899D01*
X0043313498Y0060359733D01*
X0043280742Y0060380883D01*
X0043400407Y0060474882D01*
X0043417739Y0060491387D01*
X0043556308Y0060651073D01*
X0043570207Y0060670559D01*
X0043676080Y0060853567D01*
X0043686044Y0060875330D01*
X0043755401Y0061075057D01*
X0043761070Y0061098315D01*
X0043762463Y0061107925D01*
X0043752440Y0061178210D01*
X0043706009Y0061231919D01*
X0043637766Y0061251999D01*
X0040926483Y0061251999D01*
X0040858362Y0061231998D01*
X0040811869Y0061178342D01*
X0040801765Y0061108068D01*
X0040803990Y0061096479D01*
X0040830107Y0060988109D01*
X0040837899Y0060965479D01*
X0040925408Y0060773012D01*
X0040937339Y0060752263D01*
X0041059664Y0060579817D01*
X0041075303Y0060561699D01*
X0041228030Y0060415495D01*
X0041246813Y0060400661D01*
X0041279230Y0060379729D01*
X0041159247Y0060285482D01*
X0041141915Y0060268975D01*
X0041003283Y0060109217D01*
X0040989384Y0060089732D01*
X0040883463Y0059906641D01*
X0040873499Y0059884879D01*
X0040804111Y0059685062D01*
X0040798443Y0059661809D01*
X0040768091Y0059452476D01*
X0040766922Y0059428570D01*
X0039634000Y0059428570D01*
X0039634000Y0063428570D01*
X0040766922Y0063428570D01*
X0040776702Y0063217275D01*
X0040780074Y0063193580D01*
X0040829632Y0062987945D01*
X0040837424Y0062965315D01*
X0040924973Y0062772762D01*
X0040936904Y0062752013D01*
X0041059284Y0062579488D01*
X0041074923Y0062561371D01*
X0041227719Y0062415101D01*
X0041246502Y0062400267D01*
X0041279258Y0062379115D01*
X0041159593Y0062285118D01*
X0041142261Y0062268613D01*
X0041003692Y0062108927D01*
X0040989793Y0062089441D01*
X0040883920Y0061906431D01*
X0040873956Y0061884670D01*
X0040804599Y0061684943D01*
X0040798930Y0061661685D01*
X0040797537Y0061652075D01*
X0040807560Y0061581790D01*
X0040853991Y0061528081D01*
X0040922234Y0061507999D01*
X0043633517Y0061507999D01*
X0043701638Y0061528002D01*
X0043748131Y0061581658D01*
X0043758235Y0061651932D01*
X0043756010Y0061663521D01*
X0043729893Y0061771891D01*
X0043722101Y0061794521D01*
X0043634592Y0061986988D01*
X0043622661Y0062007737D01*
X0043500336Y0062180183D01*
X0043484697Y0062198301D01*
X0043331970Y0062344505D01*
X0043313187Y0062359339D01*
X0043280770Y0062380269D01*
X0043400753Y0062474518D01*
X0043418085Y0062491023D01*
X0043556717Y0062650783D01*
X0043570616Y0062670268D01*
X0043676536Y0062853359D01*
X0043686501Y0062875121D01*
X0043755888Y0063074938D01*
X0043761556Y0063098191D01*
X0043791909Y0063307524D01*
X0043793078Y0063331430D01*
X0043783298Y0063542725D01*
X0043779926Y0063566420D01*
X0043730368Y0063772055D01*
X0043722576Y0063794685D01*
X0043635027Y0063987238D01*
X0043623096Y0064007987D01*
X0043500716Y0064180510D01*
X0043485077Y0064198629D01*
X0043332281Y0064344899D01*
X0043313498Y0064359733D01*
X0043280742Y0064380883D01*
X0043400407Y0064474882D01*
X0043417739Y0064491387D01*
X0043556308Y0064651073D01*
X0043570207Y0064670559D01*
X0043676080Y0064853567D01*
X0043686044Y0064875330D01*
X0043755401Y0065075057D01*
X0043761070Y0065098315D01*
X0043762463Y0065107924D01*
X0043752440Y0065178210D01*
X0043706009Y0065231919D01*
X0043637766Y0065251999D01*
X0040926483Y0065251999D01*
X0040858362Y0065231998D01*
X0040811869Y0065178342D01*
X0040801765Y0065108068D01*
X0040803990Y0065096479D01*
X0040830107Y0064988109D01*
X0040837899Y0064965479D01*
X0040925408Y0064773011D01*
X0040937339Y0064752263D01*
X0041059664Y0064579816D01*
X0041075303Y0064561699D01*
X0041228030Y0064415494D01*
X0041246813Y0064400661D01*
X0041279230Y0064379729D01*
X0041159247Y0064285482D01*
X0041141915Y0064268975D01*
X0041003283Y0064109217D01*
X0040989384Y0064089732D01*
X0040883463Y0063906641D01*
X0040873499Y0063884879D01*
X0040804111Y0063685062D01*
X0040798443Y0063661809D01*
X0040768091Y0063452476D01*
X0040766922Y0063428570D01*
X0039634000Y0063428570D01*
X0039634000Y0067428570D01*
X0040766922Y0067428570D01*
X0040776702Y0067217275D01*
X0040780074Y0067193580D01*
X0040829632Y0066987945D01*
X0040837424Y0066965315D01*
X0040924973Y0066772762D01*
X0040936904Y0066752013D01*
X0041059284Y0066579488D01*
X0041074923Y0066561371D01*
X0041227719Y0066415100D01*
X0041246502Y0066400267D01*
X0041279258Y0066379115D01*
X0041159593Y0066285118D01*
X0041142261Y0066268613D01*
X0041003692Y0066108926D01*
X0040989793Y0066089440D01*
X0040883920Y0065906431D01*
X0040873956Y0065884670D01*
X0040804599Y0065684943D01*
X0040798930Y0065661685D01*
X0040797537Y0065652075D01*
X0040807560Y0065581790D01*
X0040853991Y0065528081D01*
X0040922234Y0065507999D01*
X0043633517Y0065507999D01*
X0043701638Y0065528002D01*
X0043748131Y0065581658D01*
X0043758235Y0065651932D01*
X0043756010Y0065663521D01*
X0043729893Y0065771891D01*
X0043722101Y0065794521D01*
X0043634592Y0065986988D01*
X0043622661Y0066007736D01*
X0043500336Y0066180183D01*
X0043484697Y0066198301D01*
X0043331970Y0066344505D01*
X0043313187Y0066359339D01*
X0043280770Y0066380269D01*
X0043400753Y0066474518D01*
X0043418085Y0066491023D01*
X0043556717Y0066650783D01*
X0043570616Y0066670267D01*
X0043676536Y0066853359D01*
X0043686501Y0066875121D01*
X0043755888Y0067074938D01*
X0043761556Y0067098191D01*
X0043791909Y0067307524D01*
X0043793078Y0067331430D01*
X0043783298Y0067542725D01*
X0043779926Y0067566420D01*
X0043730368Y0067772055D01*
X0043722576Y0067794685D01*
X0043635027Y0067987238D01*
X0043623096Y0068007987D01*
X0043500716Y0068180511D01*
X0043485077Y0068198629D01*
X0043332281Y0068344899D01*
X0043313498Y0068359733D01*
X0043280742Y0068380884D01*
X0043400407Y0068474882D01*
X0043417739Y0068491387D01*
X0043556308Y0068651073D01*
X0043570207Y0068670559D01*
X0043676080Y0068853568D01*
X0043686044Y0068875330D01*
X0043755401Y0069075057D01*
X0043761070Y0069098315D01*
X0043762463Y0069107925D01*
X0043752440Y0069178210D01*
X0043706009Y0069231919D01*
X0043637766Y0069252000D01*
X0040926483Y0069252000D01*
X0040858362Y0069231998D01*
X0040811869Y0069178342D01*
X0040801765Y0069108068D01*
X0040803990Y0069096479D01*
X0040830107Y0068988109D01*
X0040837899Y0068965479D01*
X0040925408Y0068773012D01*
X0040937339Y0068752263D01*
X0041059664Y0068579817D01*
X0041075303Y0068561699D01*
X0041228030Y0068415495D01*
X0041246813Y0068400661D01*
X0041279230Y0068379730D01*
X0041159247Y0068285482D01*
X0041141915Y0068268976D01*
X0041003283Y0068109217D01*
X0040989384Y0068089732D01*
X0040883463Y0067906641D01*
X0040873499Y0067884879D01*
X0040804111Y0067685062D01*
X0040798443Y0067661809D01*
X0040768091Y0067452476D01*
X0040766922Y0067428570D01*
X0039634000Y0067428570D01*
X0039634000Y0077378866D01*
X0040675500Y0077378866D01*
X0040676237Y0077365258D01*
X0040682992Y0077303076D01*
X0040690273Y0077272454D01*
X0040741403Y0077136065D01*
X0040758559Y0077104730D01*
X0040845913Y0076988174D01*
X0040871174Y0076962913D01*
X0040987730Y0076875559D01*
X0041019065Y0076858403D01*
X0041155454Y0076807273D01*
X0041186076Y0076799992D01*
X0041248258Y0076793237D01*
X0041261866Y0076792500D01*
X0043058134Y0076792500D01*
X0043071742Y0076793237D01*
X0043133924Y0076799992D01*
X0043164546Y0076807273D01*
X0043300935Y0076858403D01*
X0043332270Y0076875559D01*
X0043448826Y0076962913D01*
X0043474087Y0076988174D01*
X0043561441Y0077104730D01*
X0043578597Y0077136065D01*
X0043629727Y0077272454D01*
X0043637008Y0077303076D01*
X0043643763Y0077365258D01*
X0043644500Y0077378866D01*
X0043644500Y0078030500D01*
X0043921466Y0078030500D01*
X0043943927Y0077963178D01*
X0043956306Y0077936751D01*
X0044049378Y0077786349D01*
X0044067504Y0077763479D01*
X0044192679Y0077638522D01*
X0044215581Y0077620435D01*
X0044366146Y0077527625D01*
X0044392595Y0077515292D01*
X0044433381Y0077501764D01*
X0044409751Y0077490694D01*
X0044259349Y0077397622D01*
X0044236479Y0077379496D01*
X0044111522Y0077254321D01*
X0044093435Y0077231419D01*
X0044000625Y0077080854D01*
X0043988292Y0077054405D01*
X0043932610Y0076886528D01*
X0043926859Y0076859704D01*
X0043916156Y0076755243D01*
X0043915500Y0076742400D01*
X0043915500Y0075741600D01*
X0043916173Y0075728596D01*
X0043927147Y0075622830D01*
X0043932950Y0075595958D01*
X0043988926Y0075428178D01*
X0044001306Y0075401751D01*
X0044094378Y0075251349D01*
X0044112504Y0075228479D01*
X0044237679Y0075103522D01*
X0044260581Y0075085435D01*
X0044411146Y0074992625D01*
X0044437595Y0074980292D01*
X0044605472Y0074924610D01*
X0044632296Y0074918859D01*
X0044736757Y0074908156D01*
X0044749600Y0074907500D01*
X0045550399Y0074907500D01*
X0045563404Y0074908173D01*
X0045669170Y0074919147D01*
X0045696042Y0074924950D01*
X0045863822Y0074980926D01*
X0045890249Y0074993306D01*
X0046040651Y0075086378D01*
X0046063521Y0075104504D01*
X0046149957Y0075191091D01*
X0046237679Y0075103522D01*
X0046260581Y0075085435D01*
X0046411146Y0074992625D01*
X0046437595Y0074980292D01*
X0046605472Y0074924610D01*
X0046632296Y0074918859D01*
X0046736757Y0074908156D01*
X0046749600Y0074907500D01*
X0047268406Y0074907500D01*
X0048105447Y0074070459D01*
X0048102358Y0074071004D01*
X0047880982Y0074090372D01*
X0047859018Y0074090372D01*
X0047637642Y0074071004D01*
X0047616013Y0074067190D01*
X0047401364Y0074009675D01*
X0047380725Y0074002163D01*
X0047179325Y0073908248D01*
X0047160306Y0073897267D01*
X0047097126Y0073853028D01*
X0047052796Y0073797572D01*
X0047045486Y0073726953D01*
X0047080300Y0073660720D01*
X0048051020Y0072690000D01*
X0047080300Y0071719280D01*
X0047046274Y0071656968D01*
X0047051339Y0071586153D01*
X0047097125Y0071526972D01*
X0047160304Y0071482734D01*
X0047179324Y0071471752D01*
X0047289715Y0071420276D01*
X0047179074Y0071368683D01*
X0047160053Y0071357701D01*
X0046977948Y0071230190D01*
X0046961124Y0071216072D01*
X0046829552Y0071084500D01*
X0045167082Y0071084500D01*
X0044217329Y0072034253D01*
X0044154252Y0072098665D01*
X0044132484Y0072116418D01*
X0044096050Y0072139898D01*
X0044062165Y0072166948D01*
X0044038395Y0072181917D01*
X0044008201Y0072196513D01*
X0043980018Y0072214676D01*
X0043954858Y0072227166D01*
X0043914122Y0072241993D01*
X0043875089Y0072260862D01*
X0043848595Y0072270192D01*
X0043815917Y0072277736D01*
X0043784410Y0072289204D01*
X0043757106Y0072295810D01*
X0043714090Y0072301244D01*
X0043671860Y0072310994D01*
X0043643955Y0072314223D01*
X0043603385Y0072314365D01*
X0043601231Y0072314500D01*
X0043564581Y0072314500D01*
X0043462570Y0072314856D01*
X0043459293Y0072314500D01*
X0043429688Y0072314500D01*
X0043445651Y0072324378D01*
X0043468521Y0072342504D01*
X0043593478Y0072467679D01*
X0043611565Y0072490581D01*
X0043704375Y0072641146D01*
X0043716708Y0072667595D01*
X0043720497Y0072679018D01*
X0046469628Y0072679018D01*
X0046488996Y0072457642D01*
X0046492810Y0072436013D01*
X0046550325Y0072221364D01*
X0046557837Y0072200725D01*
X0046651752Y0071999325D01*
X0046662733Y0071980306D01*
X0046706971Y0071917126D01*
X0046762428Y0071872796D01*
X0046833047Y0071865486D01*
X0046899280Y0071900300D01*
X0047599885Y0072600905D01*
X0047633911Y0072663217D01*
X0047628845Y0072734032D01*
X0047599885Y0072779095D01*
X0046899280Y0073479700D01*
X0046836968Y0073513726D01*
X0046766153Y0073508661D01*
X0046706971Y0073462874D01*
X0046662733Y0073399694D01*
X0046651752Y0073380675D01*
X0046557837Y0073179275D01*
X0046550325Y0073158636D01*
X0046492810Y0072943987D01*
X0046488996Y0072922358D01*
X0046469628Y0072700982D01*
X0046469628Y0072679018D01*
X0043720497Y0072679018D01*
X0043772390Y0072835472D01*
X0043778141Y0072862296D01*
X0043788844Y0072966757D01*
X0043789500Y0072979600D01*
X0043789500Y0073780400D01*
X0043788827Y0073793404D01*
X0043777853Y0073899170D01*
X0043772050Y0073926042D01*
X0043716074Y0074093822D01*
X0043703694Y0074120249D01*
X0043610622Y0074270651D01*
X0043592496Y0074293521D01*
X0043467321Y0074418478D01*
X0043444419Y0074436565D01*
X0043293853Y0074529375D01*
X0043267405Y0074541708D01*
X0043099528Y0074597390D01*
X0043072704Y0074603141D01*
X0042968243Y0074613844D01*
X0042955400Y0074614499D01*
X0041604600Y0074614499D01*
X0041591596Y0074613827D01*
X0041485830Y0074602853D01*
X0041458958Y0074597050D01*
X0041291178Y0074541074D01*
X0041264751Y0074528694D01*
X0041114349Y0074435622D01*
X0041091479Y0074417496D01*
X0040966522Y0074292321D01*
X0040948435Y0074269419D01*
X0040855625Y0074118854D01*
X0040843292Y0074092405D01*
X0040787610Y0073924528D01*
X0040781859Y0073897704D01*
X0040771156Y0073793243D01*
X0040770500Y0073780400D01*
X0040770500Y0072979600D01*
X0040771173Y0072966596D01*
X0040782147Y0072860830D01*
X0040787950Y0072833958D01*
X0040843926Y0072666178D01*
X0040856306Y0072639751D01*
X0040949378Y0072489349D01*
X0040967504Y0072466478D01*
X0041092679Y0072341522D01*
X0041115581Y0072323435D01*
X0041167120Y0072291665D01*
X0041159247Y0072285482D01*
X0041141915Y0072268976D01*
X0041003283Y0072109217D01*
X0040989384Y0072089732D01*
X0040883463Y0071906641D01*
X0040873499Y0071884879D01*
X0040804111Y0071685062D01*
X0040798443Y0071661809D01*
X0040768091Y0071452476D01*
X0040766922Y0071428570D01*
X0040776702Y0071217275D01*
X0040780074Y0071193580D01*
X0040829632Y0070987945D01*
X0040837424Y0070965315D01*
X0040924973Y0070772762D01*
X0040936904Y0070752013D01*
X0041059284Y0070579489D01*
X0041074923Y0070561371D01*
X0041227719Y0070415101D01*
X0041246502Y0070400267D01*
X0041279258Y0070379116D01*
X0041159593Y0070285118D01*
X0041142261Y0070268613D01*
X0041003692Y0070108927D01*
X0040989793Y0070089441D01*
X0040883920Y0069906432D01*
X0040873956Y0069884670D01*
X0040804599Y0069684943D01*
X0040798930Y0069661685D01*
X0040797537Y0069652075D01*
X0040807560Y0069581790D01*
X0040853991Y0069528081D01*
X0040922234Y0069508000D01*
X0043633517Y0069508000D01*
X0043701638Y0069528002D01*
X0043748131Y0069581658D01*
X0043758235Y0069651932D01*
X0043756010Y0069663521D01*
X0043729893Y0069771891D01*
X0043722101Y0069794521D01*
X0043645566Y0069962851D01*
X0044112624Y0069495794D01*
X0044175747Y0069431335D01*
X0044197516Y0069413581D01*
X0044233959Y0069390095D01*
X0044267834Y0069363053D01*
X0044291605Y0069348083D01*
X0044321799Y0069333487D01*
X0044349982Y0069315324D01*
X0044375142Y0069302834D01*
X0044405500Y0069291784D01*
X0044405500Y0067754214D01*
X0044404556Y0067664099D01*
X0044407395Y0067636152D01*
X0044416555Y0067593786D01*
X0044421388Y0067550699D01*
X0044427611Y0067523308D01*
X0044438642Y0067491632D01*
X0044445727Y0067458862D01*
X0044454686Y0067432241D01*
X0044473006Y0067392954D01*
X0044487263Y0067352010D01*
X0044499400Y0067326679D01*
X0044517172Y0067298237D01*
X0044531343Y0067267848D01*
X0044545979Y0067243871D01*
X0044572547Y0067209620D01*
X0044595519Y0067172856D01*
X0044612967Y0067150841D01*
X0044641569Y0067122038D01*
X0044642983Y0067120435D01*
X0044668662Y0067094756D01*
X0044740779Y0067022133D01*
X0044743356Y0067020061D01*
X0046395500Y0065367918D01*
X0046395500Y0064925121D01*
X0046346920Y0064928433D01*
X0046316688Y0064926849D01*
X0046253749Y0064915864D01*
X0046190324Y0064908188D01*
X0046160921Y0064900967D01*
X0046154508Y0064898544D01*
X0046147760Y0064897366D01*
X0046118775Y0064888616D01*
X0046060271Y0064862934D01*
X0046000510Y0064840352D01*
X0045973680Y0064826325D01*
X0045968033Y0064822445D01*
X0045961755Y0064819689D01*
X0045935694Y0064804277D01*
X0045885007Y0064765382D01*
X0045832357Y0064729198D01*
X0045809647Y0064709176D01*
X0045768193Y0064662649D01*
X0045450385Y0064344841D01*
X0045406785Y0064306805D01*
X0045386528Y0064284307D01*
X0045349785Y0064232028D01*
X0045310370Y0064181760D01*
X0045294686Y0064155863D01*
X0045291866Y0064149617D01*
X0045287925Y0064144010D01*
X0045273617Y0064117327D01*
X0045250405Y0064057790D01*
X0045224119Y0063999575D01*
X0045215065Y0063970687D01*
X0045213815Y0063963943D01*
X0045211324Y0063957554D01*
X0045203796Y0063928233D01*
X0045195457Y0063864890D01*
X0045183814Y0063802071D01*
X0045181913Y0063771856D01*
X0045185500Y0063709650D01*
X0045185500Y0063457025D01*
X0045181022Y0063434518D01*
X0045178602Y0063409936D01*
X0045178602Y0063350064D01*
X0045180552Y0063330264D01*
X0045180552Y0062929736D01*
X0045178602Y0062909936D01*
X0045178602Y0062850064D01*
X0045181022Y0062825482D01*
X0045185500Y0062802975D01*
X0045185500Y0061460660D01*
X0045126352Y0061401512D01*
X0045062047Y0061337877D01*
X0045043243Y0061314150D01*
X0045023583Y0061282069D01*
X0045000370Y0061252464D01*
X0044984687Y0061226568D01*
X0044971012Y0061196282D01*
X0044953643Y0061167938D01*
X0044941040Y0061140411D01*
X0044929602Y0061104569D01*
X0044914118Y0061070278D01*
X0044905065Y0061041388D01*
X0044899008Y0061008706D01*
X0044888903Y0060977044D01*
X0044883230Y0060947306D01*
X0044880671Y0060909774D01*
X0044873814Y0060872775D01*
X0044871913Y0060842561D01*
X0044873827Y0060809369D01*
X0044871567Y0060776217D01*
X0044873151Y0060745985D01*
X0044879619Y0060708923D01*
X0044881785Y0060671362D01*
X0044881833Y0060671097D01*
X0044879374Y0060670260D01*
X0044853957Y0060658299D01*
X0044699466Y0060563255D01*
X0044677330Y0060545961D01*
X0044547735Y0060419052D01*
X0044529982Y0060397284D01*
X0044431724Y0060244817D01*
X0044419234Y0060219657D01*
X0044357196Y0060049210D01*
X0044350591Y0060021907D01*
X0044342954Y0059961454D01*
X0044341564Y0059959974D01*
X0044323000Y0059934424D01*
X0044313239Y0059916670D01*
X0044300825Y0059900665D01*
X0044284749Y0059873481D01*
X0044267189Y0059832903D01*
X0044245890Y0059794160D01*
X0044234263Y0059764795D01*
X0044229226Y0059745174D01*
X0044221182Y0059726585D01*
X0044212370Y0059696257D01*
X0044205453Y0059652589D01*
X0044194458Y0059609764D01*
X0044190500Y0059578430D01*
X0044190500Y0059558176D01*
X0044187331Y0059538168D01*
X0044186339Y0059506599D01*
X0044190500Y0059462581D01*
X0044190500Y0053508447D01*
X0044122974Y0053485460D01*
X0044097557Y0053473499D01*
X0043943066Y0053378455D01*
X0043920930Y0053361160D01*
X0043791335Y0053234252D01*
X0043773582Y0053212484D01*
X0043675324Y0053060017D01*
X0043662834Y0053034857D01*
X0043600796Y0052864410D01*
X0043594191Y0052837107D01*
X0043571457Y0052657152D01*
X0043571064Y0052629065D01*
X0043588764Y0052448544D01*
X0043594605Y0052421068D01*
X0043651860Y0052248954D01*
X0043663642Y0052223456D01*
X0043757604Y0052068304D01*
X0043774743Y0052046049D01*
X0043900745Y0051915571D01*
X0043922389Y0051897666D01*
X0044074166Y0051798346D01*
X0044099239Y0051785681D01*
X0044269248Y0051722455D01*
X0044296503Y0051715659D01*
X0044476296Y0051691669D01*
X0044504381Y0051691081D01*
X0044685020Y0051707521D01*
X0044712536Y0051713169D01*
X0044885044Y0051769220D01*
X0044910624Y0051780824D01*
X0045066429Y0051873702D01*
X0045088803Y0051890685D01*
X0045220158Y0052015772D01*
X0045238214Y0052037290D01*
X0045338591Y0052188371D01*
X0045351431Y0052213353D01*
X0045415843Y0052382918D01*
X0045422829Y0052410126D01*
X0045432384Y0052478110D01*
X0045448869Y0052491748D01*
X0045495478Y0052541382D01*
X0045515228Y0052561132D01*
X0045525695Y0052573004D01*
X0045528170Y0052576195D01*
X0045558436Y0052608426D01*
X0045577000Y0052633976D01*
X0045586761Y0052651730D01*
X0045599175Y0052667735D01*
X0045615251Y0052694918D01*
X0045632811Y0052735496D01*
X0045654110Y0052774240D01*
X0045665736Y0052803605D01*
X0045670774Y0052823226D01*
X0045678818Y0052841815D01*
X0045687630Y0052872143D01*
X0045694547Y0052915811D01*
X0045705542Y0052958636D01*
X0045709500Y0052989970D01*
X0045709500Y0053010224D01*
X0045712669Y0053030232D01*
X0045713661Y0053061801D01*
X0045712993Y0053068865D01*
X0045763638Y0053071785D01*
X0045793434Y0053077146D01*
X0045957338Y0053127569D01*
X0045984995Y0053139883D01*
X0045986113Y0053140552D01*
X0046210000Y0053140552D01*
X0046234582Y0053142973D01*
X0046293304Y0053154654D01*
X0046338723Y0053173468D01*
X0046360000Y0053187685D01*
X0046381277Y0053173468D01*
X0046426696Y0053154654D01*
X0046485418Y0053142973D01*
X0046510000Y0053140552D01*
X0046715353Y0053140552D01*
X0046796253Y0053059652D01*
X0046810747Y0053042131D01*
X0046860399Y0052995506D01*
X0046880135Y0052975770D01*
X0046892005Y0052965305D01*
X0046895196Y0052962830D01*
X0046927426Y0052932564D01*
X0046952976Y0052914000D01*
X0046970730Y0052904239D01*
X0046986735Y0052891825D01*
X0047013918Y0052875749D01*
X0047054497Y0052858188D01*
X0047093240Y0052836890D01*
X0047122605Y0052825264D01*
X0047142226Y0052820226D01*
X0047160815Y0052812182D01*
X0047191143Y0052803370D01*
X0047234811Y0052796453D01*
X0047277636Y0052785458D01*
X0047308970Y0052781500D01*
X0047329224Y0052781500D01*
X0047349232Y0052778331D01*
X0047380801Y0052777339D01*
X0047424819Y0052781500D01*
X0049277033Y0052781500D01*
X0049299668Y0052779360D01*
X0049367745Y0052781500D01*
X0049395656Y0052781500D01*
X0049411446Y0052782493D01*
X0049415457Y0052783000D01*
X0049459648Y0052784389D01*
X0049490841Y0052789330D01*
X0049510292Y0052794981D01*
X0049530390Y0052797520D01*
X0049560981Y0052805374D01*
X0049602095Y0052821652D01*
X0049644545Y0052833985D01*
X0049673533Y0052846529D01*
X0049690969Y0052856841D01*
X0049709799Y0052864295D01*
X0049737477Y0052879511D01*
X0049773247Y0052905499D01*
X0049811302Y0052928005D01*
X0049836257Y0052947362D01*
X0049850578Y0052961684D01*
X0049866968Y0052973592D01*
X0049889992Y0052995211D01*
X0049918183Y0053029289D01*
X0051367318Y0054478424D01*
X0051388000Y0054444274D01*
X0051388000Y0053890144D01*
X0051388994Y0053874352D01*
X0051404020Y0053755410D01*
X0051411874Y0053724819D01*
X0051470796Y0053575998D01*
X0051486012Y0053548322D01*
X0051580092Y0053418831D01*
X0051601712Y0053395808D01*
X0051725040Y0053293782D01*
X0051751706Y0053276859D01*
X0051812084Y0053248447D01*
X0051816731Y0053241494D01*
X0051851495Y0053206731D01*
X0051901277Y0053173468D01*
X0051946696Y0053154654D01*
X0052005418Y0053142973D01*
X0052030000Y0053140552D01*
X0052480264Y0053140552D01*
X0052500064Y0053138602D01*
X0052559936Y0053138602D01*
X0052584517Y0053141023D01*
X0052682062Y0053160426D01*
X0052705701Y0053167597D01*
X0052761016Y0053190510D01*
X0052782798Y0053202152D01*
X0052865493Y0053257408D01*
X0052884586Y0053273078D01*
X0052926922Y0053315414D01*
X0052942592Y0053334507D01*
X0052997847Y0053417202D01*
X0053009490Y0053438984D01*
X0053032403Y0053494299D01*
X0053039574Y0053517938D01*
X0053058977Y0053615483D01*
X0053061398Y0053640063D01*
X0053061398Y0053699936D01*
X0053059448Y0053719736D01*
X0053059448Y0054120264D01*
X0053061398Y0054140063D01*
X0053061398Y0054199936D01*
X0053058977Y0054224517D01*
X0053039574Y0054322062D01*
X0053032403Y0054345701D01*
X0053009490Y0054401016D01*
X0052997847Y0054422798D01*
X0052972819Y0054460255D01*
X0053003791Y0054506871D01*
X0053016631Y0054531853D01*
X0053059373Y0054644372D01*
X0053132096Y0054634669D01*
X0053160181Y0054634080D01*
X0053340820Y0054650521D01*
X0053368336Y0054656169D01*
X0053540844Y0054712220D01*
X0053566425Y0054723824D01*
X0053722229Y0054816702D01*
X0053744604Y0054833685D01*
X0053875958Y0054958771D01*
X0053894014Y0054980291D01*
X0053994391Y0055131371D01*
X0054007231Y0055156354D01*
X0054071643Y0055325918D01*
X0054078629Y0055353126D01*
X0054103873Y0055532747D01*
X0054105087Y0055548525D01*
X0054105404Y0055571242D01*
X0054104631Y0055587045D01*
X0054084412Y0055767300D01*
X0054078188Y0055794692D01*
X0054018536Y0055965989D01*
X0054006399Y0055991321D01*
X0053910280Y0056145145D01*
X0053892832Y0056167159D01*
X0053765021Y0056295866D01*
X0053743128Y0056313467D01*
X0053589980Y0056410658D01*
X0053564733Y0056422972D01*
X0053393857Y0056483818D01*
X0053366509Y0056490233D01*
X0053186399Y0056511710D01*
X0053158309Y0056511905D01*
X0052977917Y0056492946D01*
X0052950483Y0056486914D01*
X0052778774Y0056428460D01*
X0052753357Y0056416499D01*
X0052616819Y0056332499D01*
X0051466567Y0056332499D01*
X0051443933Y0056334640D01*
X0051375843Y0056332499D01*
X0051347944Y0056332499D01*
X0051332156Y0056331507D01*
X0051328153Y0056331001D01*
X0051283952Y0056329612D01*
X0051252757Y0056324670D01*
X0051233304Y0056319019D01*
X0051213212Y0056316480D01*
X0051182620Y0056308626D01*
X0051141510Y0056292350D01*
X0051099052Y0056280014D01*
X0051070067Y0056267471D01*
X0051052631Y0056257159D01*
X0051033801Y0056249704D01*
X0051006123Y0056234489D01*
X0050970353Y0056208501D01*
X0050932298Y0056185995D01*
X0050907343Y0056166637D01*
X0050893022Y0056152316D01*
X0050876632Y0056140408D01*
X0050853608Y0056118787D01*
X0050825417Y0056084711D01*
X0050062240Y0055321535D01*
X0050054051Y0055394539D01*
X0050047827Y0055421931D01*
X0049988175Y0055593228D01*
X0049976038Y0055618560D01*
X0049918628Y0055710436D01*
X0049955791Y0055766371D01*
X0049968631Y0055791354D01*
X0050033043Y0055960918D01*
X0050040029Y0055988126D01*
X0050065273Y0056167747D01*
X0050066487Y0056183525D01*
X0050066804Y0056206242D01*
X0050066031Y0056222045D01*
X0050045812Y0056402300D01*
X0050039588Y0056429692D01*
X0049979936Y0056600989D01*
X0049967799Y0056626321D01*
X0049950639Y0056653784D01*
X0049968569Y0056680771D01*
X0049981409Y0056705754D01*
X0050045821Y0056875318D01*
X0050052807Y0056902526D01*
X0050078051Y0057082147D01*
X0050079265Y0057097925D01*
X0050079582Y0057120642D01*
X0050078809Y0057136444D01*
X0050058590Y0057316700D01*
X0050052366Y0057344092D01*
X0049992714Y0057515389D01*
X0049980577Y0057540721D01*
X0049884458Y0057694545D01*
X0049867010Y0057716560D01*
X0049739199Y0057845265D01*
X0049724498Y0057857085D01*
X0049724498Y0058557670D01*
X0049726638Y0058580304D01*
X0049724498Y0058648393D01*
X0049724498Y0058676293D01*
X0049723505Y0058692081D01*
X0049722999Y0058696084D01*
X0049721610Y0058740285D01*
X0049716668Y0058771480D01*
X0049711017Y0058790932D01*
X0049708479Y0058811025D01*
X0049700624Y0058841617D01*
X0049684348Y0058882727D01*
X0049672012Y0058925185D01*
X0049659469Y0058954170D01*
X0049649157Y0058971606D01*
X0049641702Y0058990436D01*
X0049626487Y0059018114D01*
X0049600499Y0059053884D01*
X0049577993Y0059091939D01*
X0049558635Y0059116894D01*
X0049544311Y0059131218D01*
X0049532406Y0059147604D01*
X0049510785Y0059170629D01*
X0049476715Y0059198814D01*
X0049449500Y0059226029D01*
X0049449500Y0061108249D01*
X0049469723Y0061099118D01*
X0049498608Y0061090064D01*
X0049505353Y0061088815D01*
X0049511742Y0061086324D01*
X0049541063Y0061078796D01*
X0049604408Y0061070457D01*
X0049667225Y0061058814D01*
X0049697441Y0061056913D01*
X0049759647Y0061060500D01*
X0050445499Y0061060500D01*
X0050445499Y0057251997D01*
X0050446413Y0057236858D01*
X0050461811Y0057109620D01*
X0050469032Y0057080220D01*
X0050529647Y0056919806D01*
X0050543673Y0056892977D01*
X0050640803Y0056751652D01*
X0050660824Y0056728943D01*
X0050788860Y0056614867D01*
X0050813720Y0056597589D01*
X0050965272Y0056517346D01*
X0050993536Y0056506496D01*
X0051159853Y0056464720D01*
X0051189889Y0056460926D01*
X0051361371Y0056460028D01*
X0051391445Y0056463507D01*
X0051558191Y0056503539D01*
X0051586567Y0056514092D01*
X0051589396Y0056515552D01*
X0051780000Y0056515552D01*
X0051804582Y0056517973D01*
X0051863304Y0056529654D01*
X0051908723Y0056548468D01*
X0051930000Y0056562685D01*
X0051951277Y0056548468D01*
X0051996696Y0056529654D01*
X0052055418Y0056517973D01*
X0052080000Y0056515552D01*
X0052530264Y0056515552D01*
X0052550064Y0056513602D01*
X0052609936Y0056513602D01*
X0052634517Y0056516023D01*
X0052732062Y0056535426D01*
X0052755701Y0056542597D01*
X0052811016Y0056565510D01*
X0052832798Y0056577152D01*
X0052915493Y0056632408D01*
X0052934585Y0056648078D01*
X0052976922Y0056690414D01*
X0052992592Y0056709507D01*
X0053047847Y0056792202D01*
X0053059490Y0056813984D01*
X0053082403Y0056869299D01*
X0053089574Y0056892938D01*
X0053108976Y0056990483D01*
X0053111398Y0057015063D01*
X0053111398Y0057074936D01*
X0053109448Y0057094736D01*
X0053109448Y0057495264D01*
X0053111398Y0057515063D01*
X0053111398Y0057574936D01*
X0053108976Y0057599517D01*
X0053096276Y0057663369D01*
X0053190158Y0057752772D01*
X0053208214Y0057774291D01*
X0053308591Y0057925371D01*
X0053321431Y0057950354D01*
X0053385843Y0058119918D01*
X0053392829Y0058147126D01*
X0053412354Y0058286052D01*
X0053462262Y0058290594D01*
X0053489778Y0058296242D01*
X0053662286Y0058352293D01*
X0053687867Y0058363897D01*
X0053843671Y0058456775D01*
X0053866046Y0058473758D01*
X0053997400Y0058598845D01*
X0054015456Y0058620363D01*
X0054115833Y0058771444D01*
X0054128673Y0058796427D01*
X0054193085Y0058965991D01*
X0054200071Y0058993199D01*
X0054225315Y0059172820D01*
X0054226529Y0059188598D01*
X0054226846Y0059211315D01*
X0054226073Y0059227118D01*
X0054205854Y0059407373D01*
X0054199630Y0059434765D01*
X0054139978Y0059606062D01*
X0054127841Y0059631394D01*
X0054031722Y0059785218D01*
X0054014274Y0059807233D01*
X0053886463Y0059935939D01*
X0053864571Y0059953540D01*
X0053711422Y0060050731D01*
X0053686175Y0060063045D01*
X0053515299Y0060123891D01*
X0053487951Y0060130306D01*
X0053307840Y0060151782D01*
X0053279751Y0060151979D01*
X0053109961Y0060134133D01*
X0053078865Y0060165230D01*
X0053071711Y0060171538D01*
X0053083981Y0060171281D01*
X0053264620Y0060187720D01*
X0053292136Y0060193369D01*
X0053464644Y0060249420D01*
X0053490225Y0060261024D01*
X0053646029Y0060353902D01*
X0053668404Y0060370885D01*
X0053799758Y0060495971D01*
X0053817814Y0060517491D01*
X0053918191Y0060668571D01*
X0053931031Y0060693554D01*
X0053995443Y0060863118D01*
X0054002429Y0060890326D01*
X0054027673Y0061069947D01*
X0054028887Y0061085725D01*
X0054029204Y0061108442D01*
X0054028431Y0061124245D01*
X0054008212Y0061304500D01*
X0054001988Y0061331892D01*
X0053942336Y0061503189D01*
X0053930199Y0061528521D01*
X0053834080Y0061682345D01*
X0053816632Y0061704360D01*
X0053688821Y0061833066D01*
X0053666928Y0061850667D01*
X0053513780Y0061947858D01*
X0053488533Y0061960172D01*
X0053317657Y0062021018D01*
X0053290310Y0062027433D01*
X0053274814Y0062029281D01*
X0053107586Y0062196509D01*
X0053089574Y0062287062D01*
X0053082403Y0062310701D01*
X0053059490Y0062366016D01*
X0053047847Y0062387798D01*
X0052992592Y0062470493D01*
X0052976922Y0062489586D01*
X0052934585Y0062531922D01*
X0052915493Y0062547592D01*
X0052832798Y0062602847D01*
X0052811016Y0062614490D01*
X0052755701Y0062637403D01*
X0052732062Y0062644574D01*
X0052634517Y0062663977D01*
X0052609936Y0062666398D01*
X0052550064Y0062666398D01*
X0052530264Y0062664448D01*
X0052080000Y0062664448D01*
X0052055418Y0062662026D01*
X0051996696Y0062650346D01*
X0051951277Y0062631532D01*
X0051930000Y0062617315D01*
X0051908723Y0062631532D01*
X0051863304Y0062650346D01*
X0051804582Y0062662026D01*
X0051780000Y0062664448D01*
X0051610228Y0062664448D01*
X0051594728Y0062672655D01*
X0051566465Y0062683504D01*
X0051534228Y0062691601D01*
X0051503261Y0062703675D01*
X0051473936Y0062711203D01*
X0051436638Y0062716114D01*
X0051400148Y0062725280D01*
X0051370112Y0062729074D01*
X0051330000Y0062729284D01*
X0051326706Y0062729500D01*
X0051288762Y0062729500D01*
X0051198629Y0062729972D01*
X0051194550Y0062729500D01*
X0050080660Y0062729500D01*
X0048264500Y0064545660D01*
X0048264500Y0065745785D01*
X0048265444Y0065835901D01*
X0048262605Y0065863849D01*
X0048252279Y0065911608D01*
X0048248612Y0065944299D01*
X0048242388Y0065971693D01*
X0048234210Y0065995177D01*
X0048224273Y0066041136D01*
X0048215314Y0066067759D01*
X0048190115Y0066121800D01*
X0048182736Y0066142989D01*
X0048170600Y0066168319D01*
X0048162018Y0066182054D01*
X0048149939Y0066207956D01*
X0049444745Y0066207956D01*
X0049445821Y0066190850D01*
X0049483346Y0065905820D01*
X0049486734Y0065889017D01*
X0049562595Y0065611716D01*
X0049568232Y0065595529D01*
X0049681026Y0065331088D01*
X0049688807Y0065315818D01*
X0049836445Y0065069132D01*
X0049846227Y0065055058D01*
X0050025979Y0064830691D01*
X0050037580Y0064818074D01*
X0050246117Y0064620180D01*
X0050259325Y0064609255D01*
X0050492791Y0064441492D01*
X0050507358Y0064432459D01*
X0050761433Y0064297934D01*
X0050777091Y0064290962D01*
X0051047072Y0064192162D01*
X0051063531Y0064187381D01*
X0051344422Y0064126137D01*
X0051361378Y0064123633D01*
X0051586853Y0064105887D01*
X0051596739Y0064105500D01*
X0051752271Y0064105500D01*
X0051760841Y0064105792D01*
X0051975395Y0064120419D01*
X0051992376Y0064122744D01*
X0052273893Y0064181044D01*
X0052290402Y0064185653D01*
X0052561403Y0064281620D01*
X0052577133Y0064288427D01*
X0052832602Y0064420283D01*
X0052847263Y0064429163D01*
X0053082474Y0064594471D01*
X0053095794Y0064605259D01*
X0053306393Y0064800960D01*
X0053318126Y0064813454D01*
X0053500217Y0065035926D01*
X0053510146Y0065049897D01*
X0053660360Y0065295023D01*
X0053668300Y0065310213D01*
X0053783856Y0065573457D01*
X0053789662Y0065589583D01*
X0053868423Y0065866074D01*
X0053871987Y0065882841D01*
X0053912494Y0066167463D01*
X0053913748Y0066184556D01*
X0053915255Y0066472043D01*
X0053914179Y0066489149D01*
X0053876654Y0066774180D01*
X0053873266Y0066790982D01*
X0053797405Y0067068284D01*
X0053791768Y0067084471D01*
X0053678974Y0067348911D01*
X0053671193Y0067364182D01*
X0053523555Y0067610867D01*
X0053513773Y0067624942D01*
X0053334021Y0067849309D01*
X0053322420Y0067861925D01*
X0053113882Y0068059820D01*
X0053100675Y0068070745D01*
X0052867209Y0068238508D01*
X0052852642Y0068247540D01*
X0052598567Y0068382066D01*
X0052582909Y0068389038D01*
X0052312928Y0068487837D01*
X0052296469Y0068492619D01*
X0052015578Y0068553863D01*
X0051998622Y0068556367D01*
X0051773147Y0068574112D01*
X0051763261Y0068574500D01*
X0051607729Y0068574500D01*
X0051599159Y0068574208D01*
X0051384605Y0068559581D01*
X0051367624Y0068557255D01*
X0051086107Y0068498956D01*
X0051069598Y0068494347D01*
X0050798597Y0068398380D01*
X0050782866Y0068391573D01*
X0050527398Y0068259716D01*
X0050512737Y0068250837D01*
X0050277526Y0068085528D01*
X0050264206Y0068074741D01*
X0050053607Y0067879040D01*
X0050041874Y0067866546D01*
X0049859783Y0067644074D01*
X0049849854Y0067630102D01*
X0049699640Y0067384976D01*
X0049691700Y0067369787D01*
X0049576144Y0067106543D01*
X0049570338Y0067090417D01*
X0049491577Y0066813925D01*
X0049488013Y0066797158D01*
X0049447506Y0066512536D01*
X0049446251Y0066495443D01*
X0049444745Y0066207956D01*
X0048149939Y0066207956D01*
X0048138657Y0066232152D01*
X0048136522Y0066235649D01*
X0048338807Y0066289852D01*
X0048359446Y0066297365D01*
X0048560927Y0066391317D01*
X0048579948Y0066402299D01*
X0048762052Y0066529810D01*
X0048778876Y0066543927D01*
X0048936071Y0066701123D01*
X0048950190Y0066717948D01*
X0049077701Y0066900053D01*
X0049088683Y0066919073D01*
X0049182635Y0067120554D01*
X0049190146Y0067141193D01*
X0049247685Y0067355926D01*
X0049251499Y0067377556D01*
X0049270874Y0067599019D01*
X0049270874Y0067620981D01*
X0049251499Y0067842444D01*
X0049247685Y0067864075D01*
X0049237221Y0067903126D01*
X0049821348Y0068487253D01*
X0049838868Y0068501747D01*
X0049885493Y0068551398D01*
X0049905230Y0068571135D01*
X0049915695Y0068583005D01*
X0049918170Y0068586196D01*
X0049948436Y0068618426D01*
X0049967000Y0068643976D01*
X0049976760Y0068661730D01*
X0049989175Y0068677735D01*
X0050005251Y0068704917D01*
X0050022811Y0068745497D01*
X0050044110Y0068784240D01*
X0050055735Y0068813605D01*
X0050060774Y0068833226D01*
X0050068818Y0068851815D01*
X0050077630Y0068882143D01*
X0050084547Y0068925811D01*
X0050095542Y0068968636D01*
X0050099500Y0068999970D01*
X0050099500Y0069020224D01*
X0050102669Y0069040232D01*
X0050103661Y0069071801D01*
X0050099500Y0069115819D01*
X0050099500Y0072379315D01*
X0050246117Y0072240180D01*
X0050259325Y0072229255D01*
X0050492791Y0072061492D01*
X0050507358Y0072052460D01*
X0050761433Y0071917934D01*
X0050777091Y0071910962D01*
X0051047072Y0071812163D01*
X0051063531Y0071807380D01*
X0051344422Y0071746137D01*
X0051361378Y0071743633D01*
X0051586853Y0071725888D01*
X0051596739Y0071725500D01*
X0051752271Y0071725500D01*
X0051760841Y0071725792D01*
X0051975395Y0071740419D01*
X0051992376Y0071742745D01*
X0052273893Y0071801044D01*
X0052290402Y0071805653D01*
X0052561403Y0071901620D01*
X0052577133Y0071908427D01*
X0052832602Y0072040284D01*
X0052847263Y0072049163D01*
X0053082474Y0072214472D01*
X0053095794Y0072225259D01*
X0053306393Y0072420960D01*
X0053318126Y0072433454D01*
X0053500217Y0072655926D01*
X0053510146Y0072669897D01*
X0053660360Y0072915023D01*
X0053668300Y0072930213D01*
X0053783856Y0073193457D01*
X0053789662Y0073209583D01*
X0053868423Y0073486075D01*
X0053871987Y0073502841D01*
X0053912494Y0073787463D01*
X0053913748Y0073804556D01*
X0053915255Y0074092043D01*
X0053914179Y0074109149D01*
X0053876654Y0074394180D01*
X0053873266Y0074410982D01*
X0053797405Y0074688284D01*
X0053791768Y0074704471D01*
X0053678974Y0074968911D01*
X0053671193Y0074984182D01*
X0053523555Y0075230867D01*
X0053513773Y0075244942D01*
X0053334021Y0075469309D01*
X0053322420Y0075481925D01*
X0053113882Y0075679820D01*
X0053100675Y0075690745D01*
X0052867209Y0075858508D01*
X0052852642Y0075867540D01*
X0052598567Y0076002066D01*
X0052582909Y0076009038D01*
X0052312928Y0076107837D01*
X0052296469Y0076112619D01*
X0052015578Y0076173863D01*
X0051998622Y0076176367D01*
X0051773147Y0076194112D01*
X0051763261Y0076194500D01*
X0051607729Y0076194500D01*
X0051599159Y0076194208D01*
X0051384605Y0076179581D01*
X0051367624Y0076177255D01*
X0051086107Y0076118956D01*
X0051069598Y0076114347D01*
X0050798597Y0076018380D01*
X0050782866Y0076011573D01*
X0050527398Y0075879716D01*
X0050512737Y0075870837D01*
X0050277526Y0075705528D01*
X0050264206Y0075694741D01*
X0050053607Y0075499040D01*
X0050041874Y0075486546D01*
X0049859783Y0075264074D01*
X0049849854Y0075250103D01*
X0049699640Y0075004977D01*
X0049691700Y0074989787D01*
X0049582675Y0074741420D01*
X0048384500Y0075939595D01*
X0048384500Y0076742400D01*
X0048383827Y0076755404D01*
X0048372853Y0076861170D01*
X0048367050Y0076888042D01*
X0048311074Y0077055822D01*
X0048298694Y0077082249D01*
X0048205622Y0077232651D01*
X0048187495Y0077255521D01*
X0048062321Y0077380478D01*
X0048039419Y0077398565D01*
X0047888854Y0077491375D01*
X0047862405Y0077503708D01*
X0047847259Y0077508732D01*
X0047868822Y0077515926D01*
X0047895249Y0077528306D01*
X0048045651Y0077621378D01*
X0048068521Y0077639504D01*
X0048193478Y0077764679D01*
X0048211565Y0077787581D01*
X0048304375Y0077938146D01*
X0048316708Y0077964595D01*
X0048320547Y0077976170D01*
X0050285476Y0077976170D01*
X0050290541Y0077905355D01*
X0050321555Y0077858284D01*
X0050324449Y0077855519D01*
X0050334787Y0077846660D01*
X0050623350Y0077625237D01*
X0050634595Y0077617537D01*
X0050945385Y0077428574D01*
X0050957395Y0077422134D01*
X0051286774Y0077267842D01*
X0051299409Y0077262737D01*
X0051643526Y0077144919D01*
X0051656639Y0077141209D01*
X0052011466Y0077061245D01*
X0052024904Y0077058972D01*
X0052386293Y0077017797D01*
X0052399896Y0077016989D01*
X0052763618Y0077015085D01*
X0052777230Y0077015750D01*
X0053139030Y0077053138D01*
X0053152490Y0077055270D01*
X0053508136Y0077131514D01*
X0053521287Y0077135087D01*
X0053866619Y0077249295D01*
X0053879307Y0077254268D01*
X0054210284Y0077405103D01*
X0054222361Y0077411417D01*
X0054535112Y0077597115D01*
X0054546437Y0077604696D01*
X0054837304Y0077823085D01*
X0054847744Y0077831845D01*
X0054876308Y0077858575D01*
X0054912380Y0077919725D01*
X0054909665Y0077990670D01*
X0054879310Y0078039670D01*
X0052689095Y0080229885D01*
X0052626783Y0080263911D01*
X0052555968Y0080258846D01*
X0052510905Y0080229885D01*
X0050319502Y0078038482D01*
X0050285476Y0077976170D01*
X0048320547Y0077976170D01*
X0048372389Y0078132472D01*
X0048378141Y0078159296D01*
X0048388844Y0078263757D01*
X0048389500Y0078276600D01*
X0048389500Y0079327400D01*
X0048388827Y0079340404D01*
X0048377853Y0079446170D01*
X0048372050Y0079473042D01*
X0048316074Y0079640822D01*
X0048303694Y0079667249D01*
X0048210622Y0079817651D01*
X0048192496Y0079840521D01*
X0048067321Y0079965478D01*
X0048044419Y0079983565D01*
X0047893854Y0080076375D01*
X0047867405Y0080088708D01*
X0047859500Y0080091330D01*
X0047859500Y0080125219D01*
X0047990651Y0080206378D01*
X0048013521Y0080224504D01*
X0048138478Y0080349679D01*
X0048156565Y0080372581D01*
X0048238414Y0080505364D01*
X0049111249Y0080505364D01*
X0049129651Y0080142103D01*
X0049131076Y0080128550D01*
X0049188603Y0079769401D01*
X0049191483Y0079756081D01*
X0049287459Y0079405246D01*
X0049291761Y0079392315D01*
X0049425067Y0079053897D01*
X0049430741Y0079041506D01*
X0049599816Y0078719465D01*
X0049606794Y0078707759D01*
X0049809661Y0078405861D01*
X0049817863Y0078394977D01*
X0049956231Y0078230661D01*
X0050015410Y0078191438D01*
X0050086399Y0078190436D01*
X0050141706Y0078222726D01*
X0052329885Y0080410905D01*
X0052363911Y0080473217D01*
X0052358846Y0080544032D01*
X0052329885Y0080589095D01*
X0050141810Y0082777170D01*
X0050079498Y0082811196D01*
X0050008683Y0082806131D01*
X0049956903Y0082769905D01*
X0049832626Y0082624394D01*
X0049824350Y0082613568D01*
X0049619380Y0082313094D01*
X0049612320Y0082301437D01*
X0049441001Y0081980583D01*
X0049435242Y0081968233D01*
X0049299576Y0081630755D01*
X0049295184Y0081617854D01*
X0049196759Y0081267697D01*
X0049193786Y0081254397D01*
X0049133753Y0080895658D01*
X0049132235Y0080882115D01*
X0049111297Y0080518992D01*
X0049111249Y0080505364D01*
X0048238414Y0080505364D01*
X0048249375Y0080523146D01*
X0048261708Y0080549595D01*
X0048317390Y0080717472D01*
X0048323141Y0080744296D01*
X0048333844Y0080848757D01*
X0048334500Y0080861600D01*
X0048334500Y0081862400D01*
X0048333827Y0081875404D01*
X0048322853Y0081981170D01*
X0048317050Y0082008042D01*
X0048261074Y0082175822D01*
X0048248694Y0082202249D01*
X0048155622Y0082352651D01*
X0048137496Y0082375521D01*
X0048012321Y0082500478D01*
X0047989419Y0082518565D01*
X0047838854Y0082611375D01*
X0047812405Y0082623708D01*
X0047644528Y0082679390D01*
X0047617704Y0082685141D01*
X0047513243Y0082695844D01*
X0047500400Y0082696500D01*
X0046699600Y0082696500D01*
X0046686596Y0082695827D01*
X0046580830Y0082684853D01*
X0046553958Y0082679050D01*
X0046386178Y0082623074D01*
X0046359751Y0082610694D01*
X0046209349Y0082517622D01*
X0046186479Y0082499496D01*
X0046099689Y0082412555D01*
X0046012009Y0082500083D01*
X0045989107Y0082518170D01*
X0045838641Y0082610918D01*
X0045812193Y0082623251D01*
X0045644427Y0082678897D01*
X0045617601Y0082684648D01*
X0045513205Y0082695344D01*
X0045500363Y0082696000D01*
X0045354000Y0082696000D01*
X0045285879Y0082675998D01*
X0045239385Y0082622342D01*
X0045228000Y0082570000D01*
X0045228000Y0081234000D01*
X0043992001Y0081234000D01*
X0043923880Y0081213998D01*
X0043877387Y0081160342D01*
X0043866001Y0081108000D01*
X0043866001Y0080861638D01*
X0043866674Y0080848635D01*
X0043877641Y0080742934D01*
X0043883444Y0080716061D01*
X0043939382Y0080548392D01*
X0043951762Y0080521965D01*
X0044044773Y0080371662D01*
X0044062899Y0080348792D01*
X0044187991Y0080223917D01*
X0044210893Y0080205830D01*
X0044361359Y0080113082D01*
X0044387807Y0080100749D01*
X0044408549Y0080093869D01*
X0044391178Y0080088074D01*
X0044364751Y0080075694D01*
X0044214349Y0079982622D01*
X0044191479Y0079964496D01*
X0044066522Y0079839321D01*
X0044048435Y0079816419D01*
X0043955625Y0079665854D01*
X0043943292Y0079639405D01*
X0043913472Y0079549500D01*
X0043486323Y0079549500D01*
X0043474087Y0079565826D01*
X0043448826Y0079591087D01*
X0043332270Y0079678441D01*
X0043300935Y0079695597D01*
X0043181917Y0079740215D01*
X0043286653Y0079844587D01*
X0043300035Y0079860311D01*
X0043430344Y0080041655D01*
X0043440979Y0080059354D01*
X0043539921Y0080259547D01*
X0043547522Y0080278745D01*
X0043612438Y0080492408D01*
X0043616802Y0080512592D01*
X0043621273Y0080546555D01*
X0043610333Y0080616703D01*
X0043563205Y0080669802D01*
X0043496351Y0080689000D01*
X0040825110Y0080689000D01*
X0040756989Y0080668998D01*
X0040710496Y0080615342D01*
X0040700392Y0080545068D01*
X0040702193Y0080535299D01*
X0040736784Y0080381810D01*
X0040742958Y0080362107D01*
X0040826971Y0080155206D01*
X0040836281Y0080136775D01*
X0040952959Y0079946374D01*
X0040965155Y0079929712D01*
X0041111364Y0079760924D01*
X0041126116Y0079746477D01*
X0041135035Y0079739072D01*
X0041019065Y0079695597D01*
X0040987730Y0079678441D01*
X0040871174Y0079591087D01*
X0040845913Y0079565826D01*
X0040758559Y0079449270D01*
X0040741403Y0079417935D01*
X0040690273Y0079281546D01*
X0040682992Y0079250924D01*
X0040676237Y0079188742D01*
X0040675500Y0079175134D01*
X0040675500Y0077378866D01*
X0039634000Y0077378866D01*
X0039634000Y0081084410D01*
X0040696055Y0081084410D01*
X0040708693Y0081014547D01*
X0040757096Y0080962608D01*
X0040821339Y0080945000D01*
X0041906000Y0080945000D01*
X0041974121Y0080965002D01*
X0042020614Y0081018658D01*
X0042032000Y0081071000D01*
X0042288000Y0081071000D01*
X0042308002Y0081002879D01*
X0042361658Y0080956386D01*
X0042414000Y0080945000D01*
X0043496459Y0080945000D01*
X0043564580Y0080965002D01*
X0043611073Y0081018658D01*
X0043621177Y0081088932D01*
X0043618663Y0081101696D01*
X0043572159Y0081286833D01*
X0043565505Y0081306379D01*
X0043476462Y0081511165D01*
X0043466704Y0081529363D01*
X0043410656Y0081616000D01*
X0043866000Y0081616000D01*
X0043886002Y0081547879D01*
X0043939658Y0081501386D01*
X0043992000Y0081490000D01*
X0044846000Y0081490000D01*
X0044914121Y0081510002D01*
X0044960614Y0081563658D01*
X0044972000Y0081616000D01*
X0044972000Y0082569999D01*
X0044951998Y0082638120D01*
X0044898342Y0082684613D01*
X0044846000Y0082695999D01*
X0044699638Y0082695999D01*
X0044686635Y0082695326D01*
X0044580934Y0082684359D01*
X0044554061Y0082678556D01*
X0044386392Y0082622618D01*
X0044359965Y0082610238D01*
X0044209662Y0082517227D01*
X0044186792Y0082499101D01*
X0044061917Y0082374009D01*
X0044043830Y0082351107D01*
X0043951082Y0082200641D01*
X0043938749Y0082174193D01*
X0043883103Y0082006427D01*
X0043877352Y0081979601D01*
X0043866656Y0081875205D01*
X0043866000Y0081862363D01*
X0043866000Y0081616000D01*
X0043410656Y0081616000D01*
X0043345409Y0081716857D01*
X0043332810Y0081733217D01*
X0043182521Y0081898382D01*
X0043167420Y0081912464D01*
X0042992173Y0082050865D01*
X0042974975Y0082062291D01*
X0042779477Y0082170212D01*
X0042760643Y0082178677D01*
X0042550144Y0082253219D01*
X0042530180Y0082258493D01*
X0042436096Y0082275252D01*
X0042365524Y0082267506D01*
X0042310342Y0082222836D01*
X0042288000Y0082151205D01*
X0042288000Y0081071000D01*
X0042032000Y0081071000D01*
X0042032000Y0082152013D01*
X0042011998Y0082220134D01*
X0041958342Y0082266627D01*
X0041886940Y0082276563D01*
X0041825148Y0082267107D01*
X0041805063Y0082262322D01*
X0041592805Y0082192946D01*
X0041573770Y0082184944D01*
X0041375694Y0082081832D01*
X0041358221Y0082070829D01*
X0041179645Y0081936750D01*
X0041164204Y0081923041D01*
X0041009925Y0081761597D01*
X0040996931Y0081745550D01*
X0040871091Y0081561076D01*
X0040860891Y0081543122D01*
X0040766871Y0081340572D01*
X0040759742Y0081321194D01*
X0040700065Y0081106008D01*
X0040696198Y0081085746D01*
X0040696055Y0081084410D01*
X0039634000Y0081084410D01*
X0039634000Y0083366000D01*
X0050613728Y0083366000D01*
X0050353366Y0083169089D02*
X0050613728Y0083366000D01*
G04 #@! TA.AperFunction,Conductor*
G36*
X0050353366Y0083169089D02*
G01*
X0050342956Y0083160293D01*
X0050323004Y0083141491D01*
X0050287146Y0083080215D01*
X0050290108Y0083009281D01*
X0050320323Y0082960697D01*
X0052510905Y0080770115D01*
X0052573217Y0080736089D01*
X0052644031Y0080741154D01*
X0052689095Y0080770115D01*
X0054880072Y0082961093D01*
X0054914099Y0083023405D01*
X0054909034Y0083094220D01*
X0054877713Y0083141583D01*
X0054866318Y0083152397D01*
X0054855937Y0083161232D01*
X0054587140Y0083366000D01*
X0055966000Y0083366000D01*
X0055966000Y0081399684D01*
X0055908698Y0081606310D01*
X0055904352Y0081619226D01*
X0055769864Y0081957177D01*
X0055764148Y0081969548D01*
X0055593948Y0082290997D01*
X0055586931Y0082302678D01*
X0055383012Y0082603866D01*
X0055374772Y0082614721D01*
X0055243419Y0082769608D01*
X0055184105Y0082808625D01*
X0055113112Y0082809380D01*
X0055058228Y0082777208D01*
X0052870115Y0080589095D01*
X0052836089Y0080526783D01*
X0052841154Y0080455968D01*
X0052870115Y0080410905D01*
X0055058180Y0078222840D01*
X0055120492Y0078188814D01*
X0055191306Y0078193879D01*
X0055242800Y0078229770D01*
X0055359941Y0078365958D01*
X0055368256Y0078376756D01*
X0055574273Y0078676513D01*
X0055581373Y0078688145D01*
X0055753812Y0079008398D01*
X0055759615Y0079020729D01*
X0055896457Y0079357732D01*
X0055900894Y0079370617D01*
X0055966000Y0079599174D01*
X0055966000Y0048399684D01*
X0055908698Y0048606310D01*
X0055904352Y0048619226D01*
X0055769864Y0048957177D01*
X0055764148Y0048969548D01*
X0055593948Y0049290997D01*
X0055586931Y0049302678D01*
X0055383012Y0049603866D01*
X0055374772Y0049614721D01*
X0055243419Y0049769608D01*
X0055184105Y0049808625D01*
X0055113112Y0049809380D01*
X0055058228Y0049777208D01*
X0052870115Y0047589095D01*
X0052836089Y0047526783D01*
X0052841154Y0047455968D01*
X0052870115Y0047410905D01*
X0055058180Y0045222840D01*
X0055120492Y0045188814D01*
X0055191306Y0045193879D01*
X0055242800Y0045229770D01*
X0055359941Y0045365958D01*
X0055368256Y0045376756D01*
X0055574273Y0045676513D01*
X0055581373Y0045688145D01*
X0055753812Y0046008398D01*
X0055759615Y0046020729D01*
X0055896457Y0046357732D01*
X0055900894Y0046370617D01*
X0055966000Y0046599174D01*
X0055966000Y0044634000D01*
X0054585466Y0044634000D01*
X0054837304Y0044823085D01*
X0054847744Y0044831845D01*
X0054876308Y0044858575D01*
X0054912380Y0044919725D01*
X0054909665Y0044990670D01*
X0054879310Y0045039670D01*
X0052689095Y0047229885D01*
X0052626783Y0047263911D01*
X0052555968Y0047258846D01*
X0052510905Y0047229885D01*
X0050319502Y0045038482D01*
X0050285476Y0044976170D01*
X0050290541Y0044905355D01*
X0050321555Y0044858284D01*
X0050324449Y0044855519D01*
X0050334787Y0044846660D01*
X0050611930Y0044634000D01*
X0039634000Y0044634000D01*
X0039634000Y0047505364D01*
X0049111249Y0047505364D01*
X0049129651Y0047142103D01*
X0049131076Y0047128550D01*
X0049188603Y0046769401D01*
X0049191483Y0046756081D01*
X0049287459Y0046405246D01*
X0049291761Y0046392315D01*
X0049425067Y0046053897D01*
X0049430741Y0046041506D01*
X0049599816Y0045719465D01*
X0049606794Y0045707759D01*
X0049809661Y0045405861D01*
X0049817863Y0045394977D01*
X0049956231Y0045230661D01*
X0050015410Y0045191438D01*
X0050086399Y0045190436D01*
X0050141706Y0045222726D01*
X0052329885Y0047410905D01*
X0052363911Y0047473217D01*
X0052358846Y0047544032D01*
X0052329885Y0047589095D01*
X0050141810Y0049777170D01*
X0050079498Y0049811196D01*
X0050008683Y0049806131D01*
X0049956903Y0049769905D01*
X0049832626Y0049624394D01*
X0049824350Y0049613568D01*
X0049619380Y0049313094D01*
X0049612320Y0049301437D01*
X0049441001Y0048980583D01*
X0049435242Y0048968233D01*
X0049299576Y0048630755D01*
X0049295184Y0048617854D01*
X0049196759Y0048267697D01*
X0049193786Y0048254397D01*
X0049133753Y0047895658D01*
X0049132235Y0047882115D01*
X0049111297Y0047518992D01*
X0049111249Y0047505364D01*
X0039634000Y0047505364D01*
X0039634000Y0050080215D01*
X0050287146Y0050080215D01*
X0050290108Y0050009281D01*
X0050320323Y0049960697D01*
X0052510905Y0047770115D01*
X0052573217Y0047736089D01*
X0052644031Y0047741154D01*
X0052689095Y0047770115D01*
X0054880072Y0049961093D01*
X0054914099Y0050023405D01*
X0054909034Y0050094220D01*
X0054877713Y0050141583D01*
X0054866318Y0050152397D01*
X0054855937Y0050161232D01*
X0054566602Y0050381646D01*
X0054555331Y0050389306D01*
X0054243884Y0050577183D01*
X0054231852Y0050583581D01*
X0053901936Y0050736723D01*
X0053889282Y0050741784D01*
X0053544756Y0050858399D01*
X0053531630Y0050862063D01*
X0053176525Y0050940788D01*
X0053163080Y0050943014D01*
X0052801550Y0050982927D01*
X0052787943Y0050983688D01*
X0052424217Y0050984323D01*
X0052410609Y0050983610D01*
X0052048941Y0050944959D01*
X0052035488Y0050942780D01*
X0051680111Y0050865295D01*
X0051666973Y0050861676D01*
X0051322041Y0050746264D01*
X0051309371Y0050741247D01*
X0050978922Y0050589258D01*
X0050966867Y0050582902D01*
X0050654766Y0050396113D01*
X0050643468Y0050388492D01*
X0050353366Y0050169089D01*
X0050342956Y0050160293D01*
X0050323004Y0050141491D01*
X0050287146Y0050080215D01*
X0039634000Y0050080215D01*
X0039634000Y0055428570D01*
X0040766922Y0055428570D01*
X0040776702Y0055217275D01*
X0040780074Y0055193580D01*
X0040829632Y0054987945D01*
X0040837424Y0054965315D01*
X0040924973Y0054772762D01*
X0040936904Y0054752013D01*
X0041059284Y0054579488D01*
X0041074923Y0054561371D01*
X0041227719Y0054415101D01*
X0041246502Y0054400267D01*
X0041424200Y0054285528D01*
X0041445450Y0054274514D01*
X0041641639Y0054195448D01*
X0041664587Y0054188649D01*
X0041872187Y0054148108D01*
X0041890183Y0054145922D01*
X0041895745Y0054145650D01*
X0041901899Y0054145500D01*
X0042607846Y0054145500D01*
X0042619813Y0054146070D01*
X0042777533Y0054161118D01*
X0042801035Y0054165643D01*
X0043004003Y0054225187D01*
X0043026226Y0054234076D01*
X0043214272Y0054330926D01*
X0043234413Y0054343856D01*
X0043400753Y0054474518D01*
X0043418085Y0054491023D01*
X0043556717Y0054650783D01*
X0043570616Y0054670268D01*
X0043676536Y0054853359D01*
X0043686501Y0054875121D01*
X0043755888Y0055074938D01*
X0043761556Y0055098191D01*
X0043791909Y0055307524D01*
X0043793078Y0055331430D01*
X0043783298Y0055542725D01*
X0043779926Y0055566420D01*
X0043730368Y0055772055D01*
X0043722576Y0055794685D01*
X0043635027Y0055987238D01*
X0043623096Y0056007987D01*
X0043500716Y0056180510D01*
X0043485077Y0056198629D01*
X0043332281Y0056344899D01*
X0043313498Y0056359733D01*
X0043280742Y0056380883D01*
X0043400407Y0056474882D01*
X0043417739Y0056491387D01*
X0043556308Y0056651073D01*
X0043570207Y0056670559D01*
X0043676080Y0056853567D01*
X0043686044Y0056875330D01*
X0043755401Y0057075057D01*
X0043761070Y0057098315D01*
X0043762463Y0057107925D01*
X0043752440Y0057178210D01*
X0043706009Y0057231919D01*
X0043637766Y0057251999D01*
X0040926483Y0057251999D01*
X0040858362Y0057231998D01*
X0040811869Y0057178342D01*
X0040801765Y0057108068D01*
X0040803990Y0057096479D01*
X0040830107Y0056988109D01*
X0040837899Y0056965479D01*
X0040925408Y0056773012D01*
X0040937339Y0056752263D01*
X0041059664Y0056579817D01*
X0041075303Y0056561699D01*
X0041228030Y0056415495D01*
X0041246813Y0056400661D01*
X0041279230Y0056379729D01*
X0041159247Y0056285482D01*
X0041141915Y0056268975D01*
X0041003283Y0056109217D01*
X0040989384Y0056089732D01*
X0040883463Y0055906641D01*
X0040873499Y0055884879D01*
X0040804111Y0055685062D01*
X0040798443Y0055661809D01*
X0040768091Y0055452476D01*
X0040766922Y0055428570D01*
X0039634000Y0055428570D01*
X0039634000Y0059428570D01*
X0040766922Y0059428570D01*
X0040776702Y0059217275D01*
X0040780074Y0059193580D01*
X0040829632Y0058987945D01*
X0040837424Y0058965315D01*
X0040924973Y0058772762D01*
X0040936904Y0058752013D01*
X0041059284Y0058579488D01*
X0041074923Y0058561371D01*
X0041227719Y0058415101D01*
X0041246502Y0058400267D01*
X0041279258Y0058379115D01*
X0041159593Y0058285118D01*
X0041142261Y0058268613D01*
X0041003692Y0058108927D01*
X0040989793Y0058089441D01*
X0040883920Y0057906431D01*
X0040873956Y0057884670D01*
X0040804599Y0057684943D01*
X0040798930Y0057661685D01*
X0040797537Y0057652075D01*
X0040807560Y0057581790D01*
X0040853991Y0057528081D01*
X0040922234Y0057507999D01*
X0043633517Y0057507999D01*
X0043701638Y0057528002D01*
X0043748131Y0057581658D01*
X0043758235Y0057651932D01*
X0043756010Y0057663521D01*
X0043729893Y0057771891D01*
X0043722101Y0057794521D01*
X0043634592Y0057986988D01*
X0043622661Y0058007737D01*
X0043500336Y0058180183D01*
X0043484697Y0058198301D01*
X0043331970Y0058344505D01*
X0043313187Y0058359339D01*
X0043280770Y0058380269D01*
X0043400753Y0058474518D01*
X0043418085Y0058491023D01*
X0043556717Y0058650783D01*
X0043570616Y0058670268D01*
X0043676536Y0058853359D01*
X0043686501Y0058875121D01*
X0043755888Y0059074938D01*
X0043761556Y0059098191D01*
X0043791909Y0059307524D01*
X0043793078Y0059331430D01*
X0043783298Y0059542725D01*
X0043779926Y0059566420D01*
X0043730368Y0059772055D01*
X0043722576Y0059794685D01*
X0043635027Y0059987238D01*
X0043623096Y0060007987D01*
X0043500716Y0060180510D01*
X0043485077Y0060198629D01*
X0043332281Y0060344899D01*
X0043313498Y0060359733D01*
X0043280742Y0060380883D01*
X0043400407Y0060474882D01*
X0043417739Y0060491387D01*
X0043556308Y0060651073D01*
X0043570207Y0060670559D01*
X0043676080Y0060853567D01*
X0043686044Y0060875330D01*
X0043755401Y0061075057D01*
X0043761070Y0061098315D01*
X0043762463Y0061107925D01*
X0043752440Y0061178210D01*
X0043706009Y0061231919D01*
X0043637766Y0061251999D01*
X0040926483Y0061251999D01*
X0040858362Y0061231998D01*
X0040811869Y0061178342D01*
X0040801765Y0061108068D01*
X0040803990Y0061096479D01*
X0040830107Y0060988109D01*
X0040837899Y0060965479D01*
X0040925408Y0060773012D01*
X0040937339Y0060752263D01*
X0041059664Y0060579817D01*
X0041075303Y0060561699D01*
X0041228030Y0060415495D01*
X0041246813Y0060400661D01*
X0041279230Y0060379729D01*
X0041159247Y0060285482D01*
X0041141915Y0060268975D01*
X0041003283Y0060109217D01*
X0040989384Y0060089732D01*
X0040883463Y0059906641D01*
X0040873499Y0059884879D01*
X0040804111Y0059685062D01*
X0040798443Y0059661809D01*
X0040768091Y0059452476D01*
X0040766922Y0059428570D01*
X0039634000Y0059428570D01*
X0039634000Y0063428570D01*
X0040766922Y0063428570D01*
X0040776702Y0063217275D01*
X0040780074Y0063193580D01*
X0040829632Y0062987945D01*
X0040837424Y0062965315D01*
X0040924973Y0062772762D01*
X0040936904Y0062752013D01*
X0041059284Y0062579488D01*
X0041074923Y0062561371D01*
X0041227719Y0062415101D01*
X0041246502Y0062400267D01*
X0041279258Y0062379115D01*
X0041159593Y0062285118D01*
X0041142261Y0062268613D01*
X0041003692Y0062108927D01*
X0040989793Y0062089441D01*
X0040883920Y0061906431D01*
X0040873956Y0061884670D01*
X0040804599Y0061684943D01*
X0040798930Y0061661685D01*
X0040797537Y0061652075D01*
X0040807560Y0061581790D01*
X0040853991Y0061528081D01*
X0040922234Y0061507999D01*
X0043633517Y0061507999D01*
X0043701638Y0061528002D01*
X0043748131Y0061581658D01*
X0043758235Y0061651932D01*
X0043756010Y0061663521D01*
X0043729893Y0061771891D01*
X0043722101Y0061794521D01*
X0043634592Y0061986988D01*
X0043622661Y0062007737D01*
X0043500336Y0062180183D01*
X0043484697Y0062198301D01*
X0043331970Y0062344505D01*
X0043313187Y0062359339D01*
X0043280770Y0062380269D01*
X0043400753Y0062474518D01*
X0043418085Y0062491023D01*
X0043556717Y0062650783D01*
X0043570616Y0062670268D01*
X0043676536Y0062853359D01*
X0043686501Y0062875121D01*
X0043755888Y0063074938D01*
X0043761556Y0063098191D01*
X0043791909Y0063307524D01*
X0043793078Y0063331430D01*
X0043783298Y0063542725D01*
X0043779926Y0063566420D01*
X0043730368Y0063772055D01*
X0043722576Y0063794685D01*
X0043635027Y0063987238D01*
X0043623096Y0064007987D01*
X0043500716Y0064180510D01*
X0043485077Y0064198629D01*
X0043332281Y0064344899D01*
X0043313498Y0064359733D01*
X0043280742Y0064380883D01*
X0043400407Y0064474882D01*
X0043417739Y0064491387D01*
X0043556308Y0064651073D01*
X0043570207Y0064670559D01*
X0043676080Y0064853567D01*
X0043686044Y0064875330D01*
X0043755401Y0065075057D01*
X0043761070Y0065098315D01*
X0043762463Y0065107924D01*
X0043752440Y0065178210D01*
X0043706009Y0065231919D01*
X0043637766Y0065251999D01*
X0040926483Y0065251999D01*
X0040858362Y0065231998D01*
X0040811869Y0065178342D01*
X0040801765Y0065108068D01*
X0040803990Y0065096479D01*
X0040830107Y0064988109D01*
X0040837899Y0064965479D01*
X0040925408Y0064773011D01*
X0040937339Y0064752263D01*
X0041059664Y0064579816D01*
X0041075303Y0064561699D01*
X0041228030Y0064415494D01*
X0041246813Y0064400661D01*
X0041279230Y0064379729D01*
X0041159247Y0064285482D01*
X0041141915Y0064268975D01*
X0041003283Y0064109217D01*
X0040989384Y0064089732D01*
X0040883463Y0063906641D01*
X0040873499Y0063884879D01*
X0040804111Y0063685062D01*
X0040798443Y0063661809D01*
X0040768091Y0063452476D01*
X0040766922Y0063428570D01*
X0039634000Y0063428570D01*
X0039634000Y0067428570D01*
X0040766922Y0067428570D01*
X0040776702Y0067217275D01*
X0040780074Y0067193580D01*
X0040829632Y0066987945D01*
X0040837424Y0066965315D01*
X0040924973Y0066772762D01*
X0040936904Y0066752013D01*
X0041059284Y0066579488D01*
X0041074923Y0066561371D01*
X0041227719Y0066415100D01*
X0041246502Y0066400267D01*
X0041279258Y0066379115D01*
X0041159593Y0066285118D01*
X0041142261Y0066268613D01*
X0041003692Y0066108926D01*
X0040989793Y0066089440D01*
X0040883920Y0065906431D01*
X0040873956Y0065884670D01*
X0040804599Y0065684943D01*
X0040798930Y0065661685D01*
X0040797537Y0065652075D01*
X0040807560Y0065581790D01*
X0040853991Y0065528081D01*
X0040922234Y0065507999D01*
X0043633517Y0065507999D01*
X0043701638Y0065528002D01*
X0043748131Y0065581658D01*
X0043758235Y0065651932D01*
X0043756010Y0065663521D01*
X0043729893Y0065771891D01*
X0043722101Y0065794521D01*
X0043634592Y0065986988D01*
X0043622661Y0066007736D01*
X0043500336Y0066180183D01*
X0043484697Y0066198301D01*
X0043331970Y0066344505D01*
X0043313187Y0066359339D01*
X0043280770Y0066380269D01*
X0043400753Y0066474518D01*
X0043418085Y0066491023D01*
X0043556717Y0066650783D01*
X0043570616Y0066670267D01*
X0043676536Y0066853359D01*
X0043686501Y0066875121D01*
X0043755888Y0067074938D01*
X0043761556Y0067098191D01*
X0043791909Y0067307524D01*
X0043793078Y0067331430D01*
X0043783298Y0067542725D01*
X0043779926Y0067566420D01*
X0043730368Y0067772055D01*
X0043722576Y0067794685D01*
X0043635027Y0067987238D01*
X0043623096Y0068007987D01*
X0043500716Y0068180511D01*
X0043485077Y0068198629D01*
X0043332281Y0068344899D01*
X0043313498Y0068359733D01*
X0043280742Y0068380884D01*
X0043400407Y0068474882D01*
X0043417739Y0068491387D01*
X0043556308Y0068651073D01*
X0043570207Y0068670559D01*
X0043676080Y0068853568D01*
X0043686044Y0068875330D01*
X0043755401Y0069075057D01*
X0043761070Y0069098315D01*
X0043762463Y0069107925D01*
X0043752440Y0069178210D01*
X0043706009Y0069231919D01*
X0043637766Y0069252000D01*
X0040926483Y0069252000D01*
X0040858362Y0069231998D01*
X0040811869Y0069178342D01*
X0040801765Y0069108068D01*
X0040803990Y0069096479D01*
X0040830107Y0068988109D01*
X0040837899Y0068965479D01*
X0040925408Y0068773012D01*
X0040937339Y0068752263D01*
X0041059664Y0068579817D01*
X0041075303Y0068561699D01*
X0041228030Y0068415495D01*
X0041246813Y0068400661D01*
X0041279230Y0068379730D01*
X0041159247Y0068285482D01*
X0041141915Y0068268976D01*
X0041003283Y0068109217D01*
X0040989384Y0068089732D01*
X0040883463Y0067906641D01*
X0040873499Y0067884879D01*
X0040804111Y0067685062D01*
X0040798443Y0067661809D01*
X0040768091Y0067452476D01*
X0040766922Y0067428570D01*
X0039634000Y0067428570D01*
X0039634000Y0077378866D01*
X0040675500Y0077378866D01*
X0040676237Y0077365258D01*
X0040682992Y0077303076D01*
X0040690273Y0077272454D01*
X0040741403Y0077136065D01*
X0040758559Y0077104730D01*
X0040845913Y0076988174D01*
X0040871174Y0076962913D01*
X0040987730Y0076875559D01*
X0041019065Y0076858403D01*
X0041155454Y0076807273D01*
X0041186076Y0076799992D01*
X0041248258Y0076793237D01*
X0041261866Y0076792500D01*
X0043058134Y0076792500D01*
X0043071742Y0076793237D01*
X0043133924Y0076799992D01*
X0043164546Y0076807273D01*
X0043300935Y0076858403D01*
X0043332270Y0076875559D01*
X0043448826Y0076962913D01*
X0043474087Y0076988174D01*
X0043561441Y0077104730D01*
X0043578597Y0077136065D01*
X0043629727Y0077272454D01*
X0043637008Y0077303076D01*
X0043643763Y0077365258D01*
X0043644500Y0077378866D01*
X0043644500Y0078030500D01*
X0043921466Y0078030500D01*
X0043943927Y0077963178D01*
X0043956306Y0077936751D01*
X0044049378Y0077786349D01*
X0044067504Y0077763479D01*
X0044192679Y0077638522D01*
X0044215581Y0077620435D01*
X0044366146Y0077527625D01*
X0044392595Y0077515292D01*
X0044433381Y0077501764D01*
X0044409751Y0077490694D01*
X0044259349Y0077397622D01*
X0044236479Y0077379496D01*
X0044111522Y0077254321D01*
X0044093435Y0077231419D01*
X0044000625Y0077080854D01*
X0043988292Y0077054405D01*
X0043932610Y0076886528D01*
X0043926859Y0076859704D01*
X0043916156Y0076755243D01*
X0043915500Y0076742400D01*
X0043915500Y0075741600D01*
X0043916173Y0075728596D01*
X0043927147Y0075622830D01*
X0043932950Y0075595958D01*
X0043988926Y0075428178D01*
X0044001306Y0075401751D01*
X0044094378Y0075251349D01*
X0044112504Y0075228479D01*
X0044237679Y0075103522D01*
X0044260581Y0075085435D01*
X0044411146Y0074992625D01*
X0044437595Y0074980292D01*
X0044605472Y0074924610D01*
X0044632296Y0074918859D01*
X0044736757Y0074908156D01*
X0044749600Y0074907500D01*
X0045550399Y0074907500D01*
X0045563404Y0074908173D01*
X0045669170Y0074919147D01*
X0045696042Y0074924950D01*
X0045863822Y0074980926D01*
X0045890249Y0074993306D01*
X0046040651Y0075086378D01*
X0046063521Y0075104504D01*
X0046149957Y0075191091D01*
X0046237679Y0075103522D01*
X0046260581Y0075085435D01*
X0046411146Y0074992625D01*
X0046437595Y0074980292D01*
X0046605472Y0074924610D01*
X0046632296Y0074918859D01*
X0046736757Y0074908156D01*
X0046749600Y0074907500D01*
X0047268406Y0074907500D01*
X0048105447Y0074070459D01*
X0048102358Y0074071004D01*
X0047880982Y0074090372D01*
X0047859018Y0074090372D01*
X0047637642Y0074071004D01*
X0047616013Y0074067190D01*
X0047401364Y0074009675D01*
X0047380725Y0074002163D01*
X0047179325Y0073908248D01*
X0047160306Y0073897267D01*
X0047097126Y0073853028D01*
X0047052796Y0073797572D01*
X0047045486Y0073726953D01*
X0047080300Y0073660720D01*
X0048051020Y0072690000D01*
X0047080300Y0071719280D01*
X0047046274Y0071656968D01*
X0047051339Y0071586153D01*
X0047097125Y0071526972D01*
X0047160304Y0071482734D01*
X0047179324Y0071471752D01*
X0047289715Y0071420276D01*
X0047179074Y0071368683D01*
X0047160053Y0071357701D01*
X0046977948Y0071230190D01*
X0046961124Y0071216072D01*
X0046829552Y0071084500D01*
X0045167082Y0071084500D01*
X0044217329Y0072034253D01*
X0044154252Y0072098665D01*
X0044132484Y0072116418D01*
X0044096050Y0072139898D01*
X0044062165Y0072166948D01*
X0044038395Y0072181917D01*
X0044008201Y0072196513D01*
X0043980018Y0072214676D01*
X0043954858Y0072227166D01*
X0043914122Y0072241993D01*
X0043875089Y0072260862D01*
X0043848595Y0072270192D01*
X0043815917Y0072277736D01*
X0043784410Y0072289204D01*
X0043757106Y0072295810D01*
X0043714090Y0072301244D01*
X0043671860Y0072310994D01*
X0043643955Y0072314223D01*
X0043603385Y0072314365D01*
X0043601231Y0072314500D01*
X0043564581Y0072314500D01*
X0043462570Y0072314856D01*
X0043459293Y0072314500D01*
X0043429688Y0072314500D01*
X0043445651Y0072324378D01*
X0043468521Y0072342504D01*
X0043593478Y0072467679D01*
X0043611565Y0072490581D01*
X0043704375Y0072641146D01*
X0043716708Y0072667595D01*
X0043720497Y0072679018D01*
X0046469628Y0072679018D01*
X0046488996Y0072457642D01*
X0046492810Y0072436013D01*
X0046550325Y0072221364D01*
X0046557837Y0072200725D01*
X0046651752Y0071999325D01*
X0046662733Y0071980306D01*
X0046706971Y0071917126D01*
X0046762428Y0071872796D01*
X0046833047Y0071865486D01*
X0046899280Y0071900300D01*
X0047599885Y0072600905D01*
X0047633911Y0072663217D01*
X0047628845Y0072734032D01*
X0047599885Y0072779095D01*
X0046899280Y0073479700D01*
X0046836968Y0073513726D01*
X0046766153Y0073508661D01*
X0046706971Y0073462874D01*
X0046662733Y0073399694D01*
X0046651752Y0073380675D01*
X0046557837Y0073179275D01*
X0046550325Y0073158636D01*
X0046492810Y0072943987D01*
X0046488996Y0072922358D01*
X0046469628Y0072700982D01*
X0046469628Y0072679018D01*
X0043720497Y0072679018D01*
X0043772390Y0072835472D01*
X0043778141Y0072862296D01*
X0043788844Y0072966757D01*
X0043789500Y0072979600D01*
X0043789500Y0073780400D01*
X0043788827Y0073793404D01*
X0043777853Y0073899170D01*
X0043772050Y0073926042D01*
X0043716074Y0074093822D01*
X0043703694Y0074120249D01*
X0043610622Y0074270651D01*
X0043592496Y0074293521D01*
X0043467321Y0074418478D01*
X0043444419Y0074436565D01*
X0043293853Y0074529375D01*
X0043267405Y0074541708D01*
X0043099528Y0074597390D01*
X0043072704Y0074603141D01*
X0042968243Y0074613844D01*
X0042955400Y0074614499D01*
X0041604600Y0074614499D01*
X0041591596Y0074613827D01*
X0041485830Y0074602853D01*
X0041458958Y0074597050D01*
X0041291178Y0074541074D01*
X0041264751Y0074528694D01*
X0041114349Y0074435622D01*
X0041091479Y0074417496D01*
X0040966522Y0074292321D01*
X0040948435Y0074269419D01*
X0040855625Y0074118854D01*
X0040843292Y0074092405D01*
X0040787610Y0073924528D01*
X0040781859Y0073897704D01*
X0040771156Y0073793243D01*
X0040770500Y0073780400D01*
X0040770500Y0072979600D01*
X0040771173Y0072966596D01*
X0040782147Y0072860830D01*
X0040787950Y0072833958D01*
X0040843926Y0072666178D01*
X0040856306Y0072639751D01*
X0040949378Y0072489349D01*
X0040967504Y0072466478D01*
X0041092679Y0072341522D01*
X0041115581Y0072323435D01*
X0041167120Y0072291665D01*
X0041159247Y0072285482D01*
X0041141915Y0072268976D01*
X0041003283Y0072109217D01*
X0040989384Y0072089732D01*
X0040883463Y0071906641D01*
X0040873499Y0071884879D01*
X0040804111Y0071685062D01*
X0040798443Y0071661809D01*
X0040768091Y0071452476D01*
X0040766922Y0071428570D01*
X0040776702Y0071217275D01*
X0040780074Y0071193580D01*
X0040829632Y0070987945D01*
X0040837424Y0070965315D01*
X0040924973Y0070772762D01*
X0040936904Y0070752013D01*
X0041059284Y0070579489D01*
X0041074923Y0070561371D01*
X0041227719Y0070415101D01*
X0041246502Y0070400267D01*
X0041279258Y0070379116D01*
X0041159593Y0070285118D01*
X0041142261Y0070268613D01*
X0041003692Y0070108927D01*
X0040989793Y0070089441D01*
X0040883920Y0069906432D01*
X0040873956Y0069884670D01*
X0040804599Y0069684943D01*
X0040798930Y0069661685D01*
X0040797537Y0069652075D01*
X0040807560Y0069581790D01*
X0040853991Y0069528081D01*
X0040922234Y0069508000D01*
X0043633517Y0069508000D01*
X0043701638Y0069528002D01*
X0043748131Y0069581658D01*
X0043758235Y0069651932D01*
X0043756010Y0069663521D01*
X0043729893Y0069771891D01*
X0043722101Y0069794521D01*
X0043645566Y0069962851D01*
X0044112624Y0069495794D01*
X0044175747Y0069431335D01*
X0044197516Y0069413581D01*
X0044233959Y0069390095D01*
X0044267834Y0069363053D01*
X0044291605Y0069348083D01*
X0044321799Y0069333487D01*
X0044349982Y0069315324D01*
X0044375142Y0069302834D01*
X0044405500Y0069291784D01*
X0044405500Y0067754214D01*
X0044404556Y0067664099D01*
X0044407395Y0067636152D01*
X0044416555Y0067593786D01*
X0044421388Y0067550699D01*
X0044427611Y0067523308D01*
X0044438642Y0067491632D01*
X0044445727Y0067458862D01*
X0044454686Y0067432241D01*
X0044473006Y0067392954D01*
X0044487263Y0067352010D01*
X0044499400Y0067326679D01*
X0044517172Y0067298237D01*
X0044531343Y0067267848D01*
X0044545979Y0067243871D01*
X0044572547Y0067209620D01*
X0044595519Y0067172856D01*
X0044612967Y0067150841D01*
X0044641569Y0067122038D01*
X0044642983Y0067120435D01*
X0044668662Y0067094756D01*
X0044740779Y0067022133D01*
X0044743356Y0067020061D01*
X0046395500Y0065367918D01*
X0046395500Y0064925121D01*
X0046346920Y0064928433D01*
X0046316688Y0064926849D01*
X0046253749Y0064915864D01*
X0046190324Y0064908188D01*
X0046160921Y0064900967D01*
X0046154508Y0064898544D01*
X0046147760Y0064897366D01*
X0046118775Y0064888616D01*
X0046060271Y0064862934D01*
X0046000510Y0064840352D01*
X0045973680Y0064826325D01*
X0045968033Y0064822445D01*
X0045961755Y0064819689D01*
X0045935694Y0064804277D01*
X0045885007Y0064765382D01*
X0045832357Y0064729198D01*
X0045809647Y0064709176D01*
X0045768193Y0064662649D01*
X0045450385Y0064344841D01*
X0045406785Y0064306805D01*
X0045386528Y0064284307D01*
X0045349785Y0064232028D01*
X0045310370Y0064181760D01*
X0045294686Y0064155863D01*
X0045291866Y0064149617D01*
X0045287925Y0064144010D01*
X0045273617Y0064117327D01*
X0045250405Y0064057790D01*
X0045224119Y0063999575D01*
X0045215065Y0063970687D01*
X0045213815Y0063963943D01*
X0045211324Y0063957554D01*
X0045203796Y0063928233D01*
X0045195457Y0063864890D01*
X0045183814Y0063802071D01*
X0045181913Y0063771856D01*
X0045185500Y0063709650D01*
X0045185500Y0063457025D01*
X0045181022Y0063434518D01*
X0045178602Y0063409936D01*
X0045178602Y0063350064D01*
X0045180552Y0063330264D01*
X0045180552Y0062929736D01*
X0045178602Y0062909936D01*
X0045178602Y0062850064D01*
X0045181022Y0062825482D01*
X0045185500Y0062802975D01*
X0045185500Y0061460660D01*
X0045126352Y0061401512D01*
X0045062047Y0061337877D01*
X0045043243Y0061314150D01*
X0045023583Y0061282069D01*
X0045000370Y0061252464D01*
X0044984687Y0061226568D01*
X0044971012Y0061196282D01*
X0044953643Y0061167938D01*
X0044941040Y0061140411D01*
X0044929602Y0061104569D01*
X0044914118Y0061070278D01*
X0044905065Y0061041388D01*
X0044899008Y0061008706D01*
X0044888903Y0060977044D01*
X0044883230Y0060947306D01*
X0044880671Y0060909774D01*
X0044873814Y0060872775D01*
X0044871913Y0060842561D01*
X0044873827Y0060809369D01*
X0044871567Y0060776217D01*
X0044873151Y0060745985D01*
X0044879619Y0060708923D01*
X0044881785Y0060671362D01*
X0044881833Y0060671097D01*
X0044879374Y0060670260D01*
X0044853957Y0060658299D01*
X0044699466Y0060563255D01*
X0044677330Y0060545961D01*
X0044547735Y0060419052D01*
X0044529982Y0060397284D01*
X0044431724Y0060244817D01*
X0044419234Y0060219657D01*
X0044357196Y0060049210D01*
X0044350591Y0060021907D01*
X0044342954Y0059961454D01*
X0044341564Y0059959974D01*
X0044323000Y0059934424D01*
X0044313239Y0059916670D01*
X0044300825Y0059900665D01*
X0044284749Y0059873481D01*
X0044267189Y0059832903D01*
X0044245890Y0059794160D01*
X0044234263Y0059764795D01*
X0044229226Y0059745174D01*
X0044221182Y0059726585D01*
X0044212370Y0059696257D01*
X0044205453Y0059652589D01*
X0044194458Y0059609764D01*
X0044190500Y0059578430D01*
X0044190500Y0059558176D01*
X0044187331Y0059538168D01*
X0044186339Y0059506599D01*
X0044190500Y0059462581D01*
X0044190500Y0053508447D01*
X0044122974Y0053485460D01*
X0044097557Y0053473499D01*
X0043943066Y0053378455D01*
X0043920930Y0053361160D01*
X0043791335Y0053234252D01*
X0043773582Y0053212484D01*
X0043675324Y0053060017D01*
X0043662834Y0053034857D01*
X0043600796Y0052864410D01*
X0043594191Y0052837107D01*
X0043571457Y0052657152D01*
X0043571064Y0052629065D01*
X0043588764Y0052448544D01*
X0043594605Y0052421068D01*
X0043651860Y0052248954D01*
X0043663642Y0052223456D01*
X0043757604Y0052068304D01*
X0043774743Y0052046049D01*
X0043900745Y0051915571D01*
X0043922389Y0051897666D01*
X0044074166Y0051798346D01*
X0044099239Y0051785681D01*
X0044269248Y0051722455D01*
X0044296503Y0051715659D01*
X0044476296Y0051691669D01*
X0044504381Y0051691081D01*
X0044685020Y0051707521D01*
X0044712536Y0051713169D01*
X0044885044Y0051769220D01*
X0044910624Y0051780824D01*
X0045066429Y0051873702D01*
X0045088803Y0051890685D01*
X0045220158Y0052015772D01*
X0045238214Y0052037290D01*
X0045338591Y0052188371D01*
X0045351431Y0052213353D01*
X0045415843Y0052382918D01*
X0045422829Y0052410126D01*
X0045432384Y0052478110D01*
X0045448869Y0052491748D01*
X0045495478Y0052541382D01*
X0045515228Y0052561132D01*
X0045525695Y0052573004D01*
X0045528170Y0052576195D01*
X0045558436Y0052608426D01*
X0045577000Y0052633976D01*
X0045586761Y0052651730D01*
X0045599175Y0052667735D01*
X0045615251Y0052694918D01*
X0045632811Y0052735496D01*
X0045654110Y0052774240D01*
X0045665736Y0052803605D01*
X0045670774Y0052823226D01*
X0045678818Y0052841815D01*
X0045687630Y0052872143D01*
X0045694547Y0052915811D01*
X0045705542Y0052958636D01*
X0045709500Y0052989970D01*
X0045709500Y0053010224D01*
X0045712669Y0053030232D01*
X0045713661Y0053061801D01*
X0045712993Y0053068865D01*
X0045763638Y0053071785D01*
X0045793434Y0053077146D01*
X0045957338Y0053127569D01*
X0045984995Y0053139883D01*
X0045986113Y0053140552D01*
X0046210000Y0053140552D01*
X0046234582Y0053142973D01*
X0046293304Y0053154654D01*
X0046338723Y0053173468D01*
X0046360000Y0053187685D01*
X0046381277Y0053173468D01*
X0046426696Y0053154654D01*
X0046485418Y0053142973D01*
X0046510000Y0053140552D01*
X0046715353Y0053140552D01*
X0046796253Y0053059652D01*
X0046810747Y0053042131D01*
X0046860399Y0052995506D01*
X0046880135Y0052975770D01*
X0046892005Y0052965305D01*
X0046895196Y0052962830D01*
X0046927426Y0052932564D01*
X0046952976Y0052914000D01*
X0046970730Y0052904239D01*
X0046986735Y0052891825D01*
X0047013918Y0052875749D01*
X0047054497Y0052858188D01*
X0047093240Y0052836890D01*
X0047122605Y0052825264D01*
X0047142226Y0052820226D01*
X0047160815Y0052812182D01*
X0047191143Y0052803370D01*
X0047234811Y0052796453D01*
X0047277636Y0052785458D01*
X0047308970Y0052781500D01*
X0047329224Y0052781500D01*
X0047349232Y0052778331D01*
X0047380801Y0052777339D01*
X0047424819Y0052781500D01*
X0049277033Y0052781500D01*
X0049299668Y0052779360D01*
X0049367745Y0052781500D01*
X0049395656Y0052781500D01*
X0049411446Y0052782493D01*
X0049415457Y0052783000D01*
X0049459648Y0052784389D01*
X0049490841Y0052789330D01*
X0049510292Y0052794981D01*
X0049530390Y0052797520D01*
X0049560981Y0052805374D01*
X0049602095Y0052821652D01*
X0049644545Y0052833985D01*
X0049673533Y0052846529D01*
X0049690969Y0052856841D01*
X0049709799Y0052864295D01*
X0049737477Y0052879511D01*
X0049773247Y0052905499D01*
X0049811302Y0052928005D01*
X0049836257Y0052947362D01*
X0049850578Y0052961684D01*
X0049866968Y0052973592D01*
X0049889992Y0052995211D01*
X0049918183Y0053029289D01*
X0051367318Y0054478424D01*
X0051388000Y0054444274D01*
X0051388000Y0053890144D01*
X0051388994Y0053874352D01*
X0051404020Y0053755410D01*
X0051411874Y0053724819D01*
X0051470796Y0053575998D01*
X0051486012Y0053548322D01*
X0051580092Y0053418831D01*
X0051601712Y0053395808D01*
X0051725040Y0053293782D01*
X0051751706Y0053276859D01*
X0051812084Y0053248447D01*
X0051816731Y0053241494D01*
X0051851495Y0053206731D01*
X0051901277Y0053173468D01*
X0051946696Y0053154654D01*
X0052005418Y0053142973D01*
X0052030000Y0053140552D01*
X0052480264Y0053140552D01*
X0052500064Y0053138602D01*
X0052559936Y0053138602D01*
X0052584517Y0053141023D01*
X0052682062Y0053160426D01*
X0052705701Y0053167597D01*
X0052761016Y0053190510D01*
X0052782798Y0053202152D01*
X0052865493Y0053257408D01*
X0052884586Y0053273078D01*
X0052926922Y0053315414D01*
X0052942592Y0053334507D01*
X0052997847Y0053417202D01*
X0053009490Y0053438984D01*
X0053032403Y0053494299D01*
X0053039574Y0053517938D01*
X0053058977Y0053615483D01*
X0053061398Y0053640063D01*
X0053061398Y0053699936D01*
X0053059448Y0053719736D01*
X0053059448Y0054120264D01*
X0053061398Y0054140063D01*
X0053061398Y0054199936D01*
X0053058977Y0054224517D01*
X0053039574Y0054322062D01*
X0053032403Y0054345701D01*
X0053009490Y0054401016D01*
X0052997847Y0054422798D01*
X0052972819Y0054460255D01*
X0053003791Y0054506871D01*
X0053016631Y0054531853D01*
X0053059373Y0054644372D01*
X0053132096Y0054634669D01*
X0053160181Y0054634080D01*
X0053340820Y0054650521D01*
X0053368336Y0054656169D01*
X0053540844Y0054712220D01*
X0053566425Y0054723824D01*
X0053722229Y0054816702D01*
X0053744604Y0054833685D01*
X0053875958Y0054958771D01*
X0053894014Y0054980291D01*
X0053994391Y0055131371D01*
X0054007231Y0055156354D01*
X0054071643Y0055325918D01*
X0054078629Y0055353126D01*
X0054103873Y0055532747D01*
X0054105087Y0055548525D01*
X0054105404Y0055571242D01*
X0054104631Y0055587045D01*
X0054084412Y0055767300D01*
X0054078188Y0055794692D01*
X0054018536Y0055965989D01*
X0054006399Y0055991321D01*
X0053910280Y0056145145D01*
X0053892832Y0056167159D01*
X0053765021Y0056295866D01*
X0053743128Y0056313467D01*
X0053589980Y0056410658D01*
X0053564733Y0056422972D01*
X0053393857Y0056483818D01*
X0053366509Y0056490233D01*
X0053186399Y0056511710D01*
X0053158309Y0056511905D01*
X0052977917Y0056492946D01*
X0052950483Y0056486914D01*
X0052778774Y0056428460D01*
X0052753357Y0056416499D01*
X0052616819Y0056332499D01*
X0051466567Y0056332499D01*
X0051443933Y0056334640D01*
X0051375843Y0056332499D01*
X0051347944Y0056332499D01*
X0051332156Y0056331507D01*
X0051328153Y0056331001D01*
X0051283952Y0056329612D01*
X0051252757Y0056324670D01*
X0051233304Y0056319019D01*
X0051213212Y0056316480D01*
X0051182620Y0056308626D01*
X0051141510Y0056292350D01*
X0051099052Y0056280014D01*
X0051070067Y0056267471D01*
X0051052631Y0056257159D01*
X0051033801Y0056249704D01*
X0051006123Y0056234489D01*
X0050970353Y0056208501D01*
X0050932298Y0056185995D01*
X0050907343Y0056166637D01*
X0050893022Y0056152316D01*
X0050876632Y0056140408D01*
X0050853608Y0056118787D01*
X0050825417Y0056084711D01*
X0050062240Y0055321535D01*
X0050054051Y0055394539D01*
X0050047827Y0055421931D01*
X0049988175Y0055593228D01*
X0049976038Y0055618560D01*
X0049918628Y0055710436D01*
X0049955791Y0055766371D01*
X0049968631Y0055791354D01*
X0050033043Y0055960918D01*
X0050040029Y0055988126D01*
X0050065273Y0056167747D01*
X0050066487Y0056183525D01*
X0050066804Y0056206242D01*
X0050066031Y0056222045D01*
X0050045812Y0056402300D01*
X0050039588Y0056429692D01*
X0049979936Y0056600989D01*
X0049967799Y0056626321D01*
X0049950639Y0056653784D01*
X0049968569Y0056680771D01*
X0049981409Y0056705754D01*
X0050045821Y0056875318D01*
X0050052807Y0056902526D01*
X0050078051Y0057082147D01*
X0050079265Y0057097925D01*
X0050079582Y0057120642D01*
X0050078809Y0057136444D01*
X0050058590Y0057316700D01*
X0050052366Y0057344092D01*
X0049992714Y0057515389D01*
X0049980577Y0057540721D01*
X0049884458Y0057694545D01*
X0049867010Y0057716560D01*
X0049739199Y0057845265D01*
X0049724498Y0057857085D01*
X0049724498Y0058557670D01*
X0049726638Y0058580304D01*
X0049724498Y0058648393D01*
X0049724498Y0058676293D01*
X0049723505Y0058692081D01*
X0049722999Y0058696084D01*
X0049721610Y0058740285D01*
X0049716668Y0058771480D01*
X0049711017Y0058790932D01*
X0049708479Y0058811025D01*
X0049700624Y0058841617D01*
X0049684348Y0058882727D01*
X0049672012Y0058925185D01*
X0049659469Y0058954170D01*
X0049649157Y0058971606D01*
X0049641702Y0058990436D01*
X0049626487Y0059018114D01*
X0049600499Y0059053884D01*
X0049577993Y0059091939D01*
X0049558635Y0059116894D01*
X0049544311Y0059131218D01*
X0049532406Y0059147604D01*
X0049510785Y0059170629D01*
X0049476715Y0059198814D01*
X0049449500Y0059226029D01*
X0049449500Y0061108249D01*
X0049469723Y0061099118D01*
X0049498608Y0061090064D01*
X0049505353Y0061088815D01*
X0049511742Y0061086324D01*
X0049541063Y0061078796D01*
X0049604408Y0061070457D01*
X0049667225Y0061058814D01*
X0049697441Y0061056913D01*
X0049759647Y0061060500D01*
X0050445499Y0061060500D01*
X0050445499Y0057251997D01*
X0050446413Y0057236858D01*
X0050461811Y0057109620D01*
X0050469032Y0057080220D01*
X0050529647Y0056919806D01*
X0050543673Y0056892977D01*
X0050640803Y0056751652D01*
X0050660824Y0056728943D01*
X0050788860Y0056614867D01*
X0050813720Y0056597589D01*
X0050965272Y0056517346D01*
X0050993536Y0056506496D01*
X0051159853Y0056464720D01*
X0051189889Y0056460926D01*
X0051361371Y0056460028D01*
X0051391445Y0056463507D01*
X0051558191Y0056503539D01*
X0051586567Y0056514092D01*
X0051589396Y0056515552D01*
X0051780000Y0056515552D01*
X0051804582Y0056517973D01*
X0051863304Y0056529654D01*
X0051908723Y0056548468D01*
X0051930000Y0056562685D01*
X0051951277Y0056548468D01*
X0051996696Y0056529654D01*
X0052055418Y0056517973D01*
X0052080000Y0056515552D01*
X0052530264Y0056515552D01*
X0052550064Y0056513602D01*
X0052609936Y0056513602D01*
X0052634517Y0056516023D01*
X0052732062Y0056535426D01*
X0052755701Y0056542597D01*
X0052811016Y0056565510D01*
X0052832798Y0056577152D01*
X0052915493Y0056632408D01*
X0052934585Y0056648078D01*
X0052976922Y0056690414D01*
X0052992592Y0056709507D01*
X0053047847Y0056792202D01*
X0053059490Y0056813984D01*
X0053082403Y0056869299D01*
X0053089574Y0056892938D01*
X0053108976Y0056990483D01*
X0053111398Y0057015063D01*
X0053111398Y0057074936D01*
X0053109448Y0057094736D01*
X0053109448Y0057495264D01*
X0053111398Y0057515063D01*
X0053111398Y0057574936D01*
X0053108976Y0057599517D01*
X0053096276Y0057663369D01*
X0053190158Y0057752772D01*
X0053208214Y0057774291D01*
X0053308591Y0057925371D01*
X0053321431Y0057950354D01*
X0053385843Y0058119918D01*
X0053392829Y0058147126D01*
X0053412354Y0058286052D01*
X0053462262Y0058290594D01*
X0053489778Y0058296242D01*
X0053662286Y0058352293D01*
X0053687867Y0058363897D01*
X0053843671Y0058456775D01*
X0053866046Y0058473758D01*
X0053997400Y0058598845D01*
X0054015456Y0058620363D01*
X0054115833Y0058771444D01*
X0054128673Y0058796427D01*
X0054193085Y0058965991D01*
X0054200071Y0058993199D01*
X0054225315Y0059172820D01*
X0054226529Y0059188598D01*
X0054226846Y0059211315D01*
X0054226073Y0059227118D01*
X0054205854Y0059407373D01*
X0054199630Y0059434765D01*
X0054139978Y0059606062D01*
X0054127841Y0059631394D01*
X0054031722Y0059785218D01*
X0054014274Y0059807233D01*
X0053886463Y0059935939D01*
X0053864571Y0059953540D01*
X0053711422Y0060050731D01*
X0053686175Y0060063045D01*
X0053515299Y0060123891D01*
X0053487951Y0060130306D01*
X0053307840Y0060151782D01*
X0053279751Y0060151979D01*
X0053109961Y0060134133D01*
X0053078865Y0060165230D01*
X0053071711Y0060171538D01*
X0053083981Y0060171281D01*
X0053264620Y0060187720D01*
X0053292136Y0060193369D01*
X0053464644Y0060249420D01*
X0053490225Y0060261024D01*
X0053646029Y0060353902D01*
X0053668404Y0060370885D01*
X0053799758Y0060495971D01*
X0053817814Y0060517491D01*
X0053918191Y0060668571D01*
X0053931031Y0060693554D01*
X0053995443Y0060863118D01*
X0054002429Y0060890326D01*
X0054027673Y0061069947D01*
X0054028887Y0061085725D01*
X0054029204Y0061108442D01*
X0054028431Y0061124245D01*
X0054008212Y0061304500D01*
X0054001988Y0061331892D01*
X0053942336Y0061503189D01*
X0053930199Y0061528521D01*
X0053834080Y0061682345D01*
X0053816632Y0061704360D01*
X0053688821Y0061833066D01*
X0053666928Y0061850667D01*
X0053513780Y0061947858D01*
X0053488533Y0061960172D01*
X0053317657Y0062021018D01*
X0053290310Y0062027433D01*
X0053274814Y0062029281D01*
X0053107586Y0062196509D01*
X0053089574Y0062287062D01*
X0053082403Y0062310701D01*
X0053059490Y0062366016D01*
X0053047847Y0062387798D01*
X0052992592Y0062470493D01*
X0052976922Y0062489586D01*
X0052934585Y0062531922D01*
X0052915493Y0062547592D01*
X0052832798Y0062602847D01*
X0052811016Y0062614490D01*
X0052755701Y0062637403D01*
X0052732062Y0062644574D01*
X0052634517Y0062663977D01*
X0052609936Y0062666398D01*
X0052550064Y0062666398D01*
X0052530264Y0062664448D01*
X0052080000Y0062664448D01*
X0052055418Y0062662026D01*
X0051996696Y0062650346D01*
X0051951277Y0062631532D01*
X0051930000Y0062617315D01*
X0051908723Y0062631532D01*
X0051863304Y0062650346D01*
X0051804582Y0062662026D01*
X0051780000Y0062664448D01*
X0051610228Y0062664448D01*
X0051594728Y0062672655D01*
X0051566465Y0062683504D01*
X0051534228Y0062691601D01*
X0051503261Y0062703675D01*
X0051473936Y0062711203D01*
X0051436638Y0062716114D01*
X0051400148Y0062725280D01*
X0051370112Y0062729074D01*
X0051330000Y0062729284D01*
X0051326706Y0062729500D01*
X0051288762Y0062729500D01*
X0051198629Y0062729972D01*
X0051194550Y0062729500D01*
X0050080660Y0062729500D01*
X0048264500Y0064545660D01*
X0048264500Y0065745785D01*
X0048265444Y0065835901D01*
X0048262605Y0065863849D01*
X0048252279Y0065911608D01*
X0048248612Y0065944299D01*
X0048242388Y0065971693D01*
X0048234210Y0065995177D01*
X0048224273Y0066041136D01*
X0048215314Y0066067759D01*
X0048190115Y0066121800D01*
X0048182736Y0066142989D01*
X0048170600Y0066168319D01*
X0048162018Y0066182054D01*
X0048149939Y0066207956D01*
X0049444745Y0066207956D01*
X0049445821Y0066190850D01*
X0049483346Y0065905820D01*
X0049486734Y0065889017D01*
X0049562595Y0065611716D01*
X0049568232Y0065595529D01*
X0049681026Y0065331088D01*
X0049688807Y0065315818D01*
X0049836445Y0065069132D01*
X0049846227Y0065055058D01*
X0050025979Y0064830691D01*
X0050037580Y0064818074D01*
X0050246117Y0064620180D01*
X0050259325Y0064609255D01*
X0050492791Y0064441492D01*
X0050507358Y0064432459D01*
X0050761433Y0064297934D01*
X0050777091Y0064290962D01*
X0051047072Y0064192162D01*
X0051063531Y0064187381D01*
X0051344422Y0064126137D01*
X0051361378Y0064123633D01*
X0051586853Y0064105887D01*
X0051596739Y0064105500D01*
X0051752271Y0064105500D01*
X0051760841Y0064105792D01*
X0051975395Y0064120419D01*
X0051992376Y0064122744D01*
X0052273893Y0064181044D01*
X0052290402Y0064185653D01*
X0052561403Y0064281620D01*
X0052577133Y0064288427D01*
X0052832602Y0064420283D01*
X0052847263Y0064429163D01*
X0053082474Y0064594471D01*
X0053095794Y0064605259D01*
X0053306393Y0064800960D01*
X0053318126Y0064813454D01*
X0053500217Y0065035926D01*
X0053510146Y0065049897D01*
X0053660360Y0065295023D01*
X0053668300Y0065310213D01*
X0053783856Y0065573457D01*
X0053789662Y0065589583D01*
X0053868423Y0065866074D01*
X0053871987Y0065882841D01*
X0053912494Y0066167463D01*
X0053913748Y0066184556D01*
X0053915255Y0066472043D01*
X0053914179Y0066489149D01*
X0053876654Y0066774180D01*
X0053873266Y0066790982D01*
X0053797405Y0067068284D01*
X0053791768Y0067084471D01*
X0053678974Y0067348911D01*
X0053671193Y0067364182D01*
X0053523555Y0067610867D01*
X0053513773Y0067624942D01*
X0053334021Y0067849309D01*
X0053322420Y0067861925D01*
X0053113882Y0068059820D01*
X0053100675Y0068070745D01*
X0052867209Y0068238508D01*
X0052852642Y0068247540D01*
X0052598567Y0068382066D01*
X0052582909Y0068389038D01*
X0052312928Y0068487837D01*
X0052296469Y0068492619D01*
X0052015578Y0068553863D01*
X0051998622Y0068556367D01*
X0051773147Y0068574112D01*
X0051763261Y0068574500D01*
X0051607729Y0068574500D01*
X0051599159Y0068574208D01*
X0051384605Y0068559581D01*
X0051367624Y0068557255D01*
X0051086107Y0068498956D01*
X0051069598Y0068494347D01*
X0050798597Y0068398380D01*
X0050782866Y0068391573D01*
X0050527398Y0068259716D01*
X0050512737Y0068250837D01*
X0050277526Y0068085528D01*
X0050264206Y0068074741D01*
X0050053607Y0067879040D01*
X0050041874Y0067866546D01*
X0049859783Y0067644074D01*
X0049849854Y0067630102D01*
X0049699640Y0067384976D01*
X0049691700Y0067369787D01*
X0049576144Y0067106543D01*
X0049570338Y0067090417D01*
X0049491577Y0066813925D01*
X0049488013Y0066797158D01*
X0049447506Y0066512536D01*
X0049446251Y0066495443D01*
X0049444745Y0066207956D01*
X0048149939Y0066207956D01*
X0048138657Y0066232152D01*
X0048136522Y0066235649D01*
X0048338807Y0066289852D01*
X0048359446Y0066297365D01*
X0048560927Y0066391317D01*
X0048579948Y0066402299D01*
X0048762052Y0066529810D01*
X0048778876Y0066543927D01*
X0048936071Y0066701123D01*
X0048950190Y0066717948D01*
X0049077701Y0066900053D01*
X0049088683Y0066919073D01*
X0049182635Y0067120554D01*
X0049190146Y0067141193D01*
X0049247685Y0067355926D01*
X0049251499Y0067377556D01*
X0049270874Y0067599019D01*
X0049270874Y0067620981D01*
X0049251499Y0067842444D01*
X0049247685Y0067864075D01*
X0049237221Y0067903126D01*
X0049821348Y0068487253D01*
X0049838868Y0068501747D01*
X0049885493Y0068551398D01*
X0049905230Y0068571135D01*
X0049915695Y0068583005D01*
X0049918170Y0068586196D01*
X0049948436Y0068618426D01*
X0049967000Y0068643976D01*
X0049976760Y0068661730D01*
X0049989175Y0068677735D01*
X0050005251Y0068704917D01*
X0050022811Y0068745497D01*
X0050044110Y0068784240D01*
X0050055735Y0068813605D01*
X0050060774Y0068833226D01*
X0050068818Y0068851815D01*
X0050077630Y0068882143D01*
X0050084547Y0068925811D01*
X0050095542Y0068968636D01*
X0050099500Y0068999970D01*
X0050099500Y0069020224D01*
X0050102669Y0069040232D01*
X0050103661Y0069071801D01*
X0050099500Y0069115819D01*
X0050099500Y0072379315D01*
X0050246117Y0072240180D01*
X0050259325Y0072229255D01*
X0050492791Y0072061492D01*
X0050507358Y0072052460D01*
X0050761433Y0071917934D01*
X0050777091Y0071910962D01*
X0051047072Y0071812163D01*
X0051063531Y0071807380D01*
X0051344422Y0071746137D01*
X0051361378Y0071743633D01*
X0051586853Y0071725888D01*
X0051596739Y0071725500D01*
X0051752271Y0071725500D01*
X0051760841Y0071725792D01*
X0051975395Y0071740419D01*
X0051992376Y0071742745D01*
X0052273893Y0071801044D01*
X0052290402Y0071805653D01*
X0052561403Y0071901620D01*
X0052577133Y0071908427D01*
X0052832602Y0072040284D01*
X0052847263Y0072049163D01*
X0053082474Y0072214472D01*
X0053095794Y0072225259D01*
X0053306393Y0072420960D01*
X0053318126Y0072433454D01*
X0053500217Y0072655926D01*
X0053510146Y0072669897D01*
X0053660360Y0072915023D01*
X0053668300Y0072930213D01*
X0053783856Y0073193457D01*
X0053789662Y0073209583D01*
X0053868423Y0073486075D01*
X0053871987Y0073502841D01*
X0053912494Y0073787463D01*
X0053913748Y0073804556D01*
X0053915255Y0074092043D01*
X0053914179Y0074109149D01*
X0053876654Y0074394180D01*
X0053873266Y0074410982D01*
X0053797405Y0074688284D01*
X0053791768Y0074704471D01*
X0053678974Y0074968911D01*
X0053671193Y0074984182D01*
X0053523555Y0075230867D01*
X0053513773Y0075244942D01*
X0053334021Y0075469309D01*
X0053322420Y0075481925D01*
X0053113882Y0075679820D01*
X0053100675Y0075690745D01*
X0052867209Y0075858508D01*
X0052852642Y0075867540D01*
X0052598567Y0076002066D01*
X0052582909Y0076009038D01*
X0052312928Y0076107837D01*
X0052296469Y0076112619D01*
X0052015578Y0076173863D01*
X0051998622Y0076176367D01*
X0051773147Y0076194112D01*
X0051763261Y0076194500D01*
X0051607729Y0076194500D01*
X0051599159Y0076194208D01*
X0051384605Y0076179581D01*
X0051367624Y0076177255D01*
X0051086107Y0076118956D01*
X0051069598Y0076114347D01*
X0050798597Y0076018380D01*
X0050782866Y0076011573D01*
X0050527398Y0075879716D01*
X0050512737Y0075870837D01*
X0050277526Y0075705528D01*
X0050264206Y0075694741D01*
X0050053607Y0075499040D01*
X0050041874Y0075486546D01*
X0049859783Y0075264074D01*
X0049849854Y0075250103D01*
X0049699640Y0075004977D01*
X0049691700Y0074989787D01*
X0049582675Y0074741420D01*
X0048384500Y0075939595D01*
X0048384500Y0076742400D01*
X0048383827Y0076755404D01*
X0048372853Y0076861170D01*
X0048367050Y0076888042D01*
X0048311074Y0077055822D01*
X0048298694Y0077082249D01*
X0048205622Y0077232651D01*
X0048187495Y0077255521D01*
X0048062321Y0077380478D01*
X0048039419Y0077398565D01*
X0047888854Y0077491375D01*
X0047862405Y0077503708D01*
X0047847259Y0077508732D01*
X0047868822Y0077515926D01*
X0047895249Y0077528306D01*
X0048045651Y0077621378D01*
X0048068521Y0077639504D01*
X0048193478Y0077764679D01*
X0048211565Y0077787581D01*
X0048304375Y0077938146D01*
X0048316708Y0077964595D01*
X0048320547Y0077976170D01*
X0050285476Y0077976170D01*
X0050290541Y0077905355D01*
X0050321555Y0077858284D01*
X0050324449Y0077855519D01*
X0050334787Y0077846660D01*
X0050623350Y0077625237D01*
X0050634595Y0077617537D01*
X0050945385Y0077428574D01*
X0050957395Y0077422134D01*
X0051286774Y0077267842D01*
X0051299409Y0077262737D01*
X0051643526Y0077144919D01*
X0051656639Y0077141209D01*
X0052011466Y0077061245D01*
X0052024904Y0077058972D01*
X0052386293Y0077017797D01*
X0052399896Y0077016989D01*
X0052763618Y0077015085D01*
X0052777230Y0077015750D01*
X0053139030Y0077053138D01*
X0053152490Y0077055270D01*
X0053508136Y0077131514D01*
X0053521287Y0077135087D01*
X0053866619Y0077249295D01*
X0053879307Y0077254268D01*
X0054210284Y0077405103D01*
X0054222361Y0077411417D01*
X0054535112Y0077597115D01*
X0054546437Y0077604696D01*
X0054837304Y0077823085D01*
X0054847744Y0077831845D01*
X0054876308Y0077858575D01*
X0054912380Y0077919725D01*
X0054909665Y0077990670D01*
X0054879310Y0078039670D01*
X0052689095Y0080229885D01*
X0052626783Y0080263911D01*
X0052555968Y0080258846D01*
X0052510905Y0080229885D01*
X0050319502Y0078038482D01*
X0050285476Y0077976170D01*
X0048320547Y0077976170D01*
X0048372389Y0078132472D01*
X0048378141Y0078159296D01*
X0048388844Y0078263757D01*
X0048389500Y0078276600D01*
X0048389500Y0079327400D01*
X0048388827Y0079340404D01*
X0048377853Y0079446170D01*
X0048372050Y0079473042D01*
X0048316074Y0079640822D01*
X0048303694Y0079667249D01*
X0048210622Y0079817651D01*
X0048192496Y0079840521D01*
X0048067321Y0079965478D01*
X0048044419Y0079983565D01*
X0047893854Y0080076375D01*
X0047867405Y0080088708D01*
X0047859500Y0080091330D01*
X0047859500Y0080125219D01*
X0047990651Y0080206378D01*
X0048013521Y0080224504D01*
X0048138478Y0080349679D01*
X0048156565Y0080372581D01*
X0048238414Y0080505364D01*
X0049111249Y0080505364D01*
X0049129651Y0080142103D01*
X0049131076Y0080128550D01*
X0049188603Y0079769401D01*
X0049191483Y0079756081D01*
X0049287459Y0079405246D01*
X0049291761Y0079392315D01*
X0049425067Y0079053897D01*
X0049430741Y0079041506D01*
X0049599816Y0078719465D01*
X0049606794Y0078707759D01*
X0049809661Y0078405861D01*
X0049817863Y0078394977D01*
X0049956231Y0078230661D01*
X0050015410Y0078191438D01*
X0050086399Y0078190436D01*
X0050141706Y0078222726D01*
X0052329885Y0080410905D01*
X0052363911Y0080473217D01*
X0052358846Y0080544032D01*
X0052329885Y0080589095D01*
X0050141810Y0082777170D01*
X0050079498Y0082811196D01*
X0050008683Y0082806131D01*
X0049956903Y0082769905D01*
X0049832626Y0082624394D01*
X0049824350Y0082613568D01*
X0049619380Y0082313094D01*
X0049612320Y0082301437D01*
X0049441001Y0081980583D01*
X0049435242Y0081968233D01*
X0049299576Y0081630755D01*
X0049295184Y0081617854D01*
X0049196759Y0081267697D01*
X0049193786Y0081254397D01*
X0049133753Y0080895658D01*
X0049132235Y0080882115D01*
X0049111297Y0080518992D01*
X0049111249Y0080505364D01*
X0048238414Y0080505364D01*
X0048249375Y0080523146D01*
X0048261708Y0080549595D01*
X0048317390Y0080717472D01*
X0048323141Y0080744296D01*
X0048333844Y0080848757D01*
X0048334500Y0080861600D01*
X0048334500Y0081862400D01*
X0048333827Y0081875404D01*
X0048322853Y0081981170D01*
X0048317050Y0082008042D01*
X0048261074Y0082175822D01*
X0048248694Y0082202249D01*
X0048155622Y0082352651D01*
X0048137496Y0082375521D01*
X0048012321Y0082500478D01*
X0047989419Y0082518565D01*
X0047838854Y0082611375D01*
X0047812405Y0082623708D01*
X0047644528Y0082679390D01*
X0047617704Y0082685141D01*
X0047513243Y0082695844D01*
X0047500400Y0082696500D01*
X0046699600Y0082696500D01*
X0046686596Y0082695827D01*
X0046580830Y0082684853D01*
X0046553958Y0082679050D01*
X0046386178Y0082623074D01*
X0046359751Y0082610694D01*
X0046209349Y0082517622D01*
X0046186479Y0082499496D01*
X0046099689Y0082412555D01*
X0046012009Y0082500083D01*
X0045989107Y0082518170D01*
X0045838641Y0082610918D01*
X0045812193Y0082623251D01*
X0045644427Y0082678897D01*
X0045617601Y0082684648D01*
X0045513205Y0082695344D01*
X0045500363Y0082696000D01*
X0045354000Y0082696000D01*
X0045285879Y0082675998D01*
X0045239385Y0082622342D01*
X0045228000Y0082570000D01*
X0045228000Y0081234000D01*
X0043992001Y0081234000D01*
X0043923880Y0081213998D01*
X0043877387Y0081160342D01*
X0043866001Y0081108000D01*
X0043866001Y0080861638D01*
X0043866674Y0080848635D01*
X0043877641Y0080742934D01*
X0043883444Y0080716061D01*
X0043939382Y0080548392D01*
X0043951762Y0080521965D01*
X0044044773Y0080371662D01*
X0044062899Y0080348792D01*
X0044187991Y0080223917D01*
X0044210893Y0080205830D01*
X0044361359Y0080113082D01*
X0044387807Y0080100749D01*
X0044408549Y0080093869D01*
X0044391178Y0080088074D01*
X0044364751Y0080075694D01*
X0044214349Y0079982622D01*
X0044191479Y0079964496D01*
X0044066522Y0079839321D01*
X0044048435Y0079816419D01*
X0043955625Y0079665854D01*
X0043943292Y0079639405D01*
X0043913472Y0079549500D01*
X0043486323Y0079549500D01*
X0043474087Y0079565826D01*
X0043448826Y0079591087D01*
X0043332270Y0079678441D01*
X0043300935Y0079695597D01*
X0043181917Y0079740215D01*
X0043286653Y0079844587D01*
X0043300035Y0079860311D01*
X0043430344Y0080041655D01*
X0043440979Y0080059354D01*
X0043539921Y0080259547D01*
X0043547522Y0080278745D01*
X0043612438Y0080492408D01*
X0043616802Y0080512592D01*
X0043621273Y0080546555D01*
X0043610333Y0080616703D01*
X0043563205Y0080669802D01*
X0043496351Y0080689000D01*
X0040825110Y0080689000D01*
X0040756989Y0080668998D01*
X0040710496Y0080615342D01*
X0040700392Y0080545068D01*
X0040702193Y0080535299D01*
X0040736784Y0080381810D01*
X0040742958Y0080362107D01*
X0040826971Y0080155206D01*
X0040836281Y0080136775D01*
X0040952959Y0079946374D01*
X0040965155Y0079929712D01*
X0041111364Y0079760924D01*
X0041126116Y0079746477D01*
X0041135035Y0079739072D01*
X0041019065Y0079695597D01*
X0040987730Y0079678441D01*
X0040871174Y0079591087D01*
X0040845913Y0079565826D01*
X0040758559Y0079449270D01*
X0040741403Y0079417935D01*
X0040690273Y0079281546D01*
X0040682992Y0079250924D01*
X0040676237Y0079188742D01*
X0040675500Y0079175134D01*
X0040675500Y0077378866D01*
X0039634000Y0077378866D01*
X0039634000Y0081084410D01*
X0040696055Y0081084410D01*
X0040708693Y0081014547D01*
X0040757096Y0080962608D01*
X0040821339Y0080945000D01*
X0041906000Y0080945000D01*
X0041974121Y0080965002D01*
X0042020614Y0081018658D01*
X0042032000Y0081071000D01*
X0042288000Y0081071000D01*
X0042308002Y0081002879D01*
X0042361658Y0080956386D01*
X0042414000Y0080945000D01*
X0043496459Y0080945000D01*
X0043564580Y0080965002D01*
X0043611073Y0081018658D01*
X0043621177Y0081088932D01*
X0043618663Y0081101696D01*
X0043572159Y0081286833D01*
X0043565505Y0081306379D01*
X0043476462Y0081511165D01*
X0043466704Y0081529363D01*
X0043410656Y0081616000D01*
X0043866000Y0081616000D01*
X0043886002Y0081547879D01*
X0043939658Y0081501386D01*
X0043992000Y0081490000D01*
X0044846000Y0081490000D01*
X0044914121Y0081510002D01*
X0044960614Y0081563658D01*
X0044972000Y0081616000D01*
X0044972000Y0082569999D01*
X0044951998Y0082638120D01*
X0044898342Y0082684613D01*
X0044846000Y0082695999D01*
X0044699638Y0082695999D01*
X0044686635Y0082695326D01*
X0044580934Y0082684359D01*
X0044554061Y0082678556D01*
X0044386392Y0082622618D01*
X0044359965Y0082610238D01*
X0044209662Y0082517227D01*
X0044186792Y0082499101D01*
X0044061917Y0082374009D01*
X0044043830Y0082351107D01*
X0043951082Y0082200641D01*
X0043938749Y0082174193D01*
X0043883103Y0082006427D01*
X0043877352Y0081979601D01*
X0043866656Y0081875205D01*
X0043866000Y0081862363D01*
X0043866000Y0081616000D01*
X0043410656Y0081616000D01*
X0043345409Y0081716857D01*
X0043332810Y0081733217D01*
X0043182521Y0081898382D01*
X0043167420Y0081912464D01*
X0042992173Y0082050865D01*
X0042974975Y0082062291D01*
X0042779477Y0082170212D01*
X0042760643Y0082178677D01*
X0042550144Y0082253219D01*
X0042530180Y0082258493D01*
X0042436096Y0082275252D01*
X0042365524Y0082267506D01*
X0042310342Y0082222836D01*
X0042288000Y0082151205D01*
X0042288000Y0081071000D01*
X0042032000Y0081071000D01*
X0042032000Y0082152013D01*
X0042011998Y0082220134D01*
X0041958342Y0082266627D01*
X0041886940Y0082276563D01*
X0041825148Y0082267107D01*
X0041805063Y0082262322D01*
X0041592805Y0082192946D01*
X0041573770Y0082184944D01*
X0041375694Y0082081832D01*
X0041358221Y0082070829D01*
X0041179645Y0081936750D01*
X0041164204Y0081923041D01*
X0041009925Y0081761597D01*
X0040996931Y0081745550D01*
X0040871091Y0081561076D01*
X0040860891Y0081543122D01*
X0040766871Y0081340572D01*
X0040759742Y0081321194D01*
X0040700065Y0081106008D01*
X0040696198Y0081085746D01*
X0040696055Y0081084410D01*
X0039634000Y0081084410D01*
X0039634000Y0083366000D01*
X0050613728Y0083366000D01*
X0050353366Y0083169089D01*
G37*
G04 #@! TD.AperFunction*
M02*