G04 #@! TF.GenerationSoftware,KiCad,Pcbnew,(6.0.1)*
G04 #@! TF.CreationDate,2022-07-05T00:42:15-07:00*
G04 #@! TF.ProjectId,mu100-dit,6d753130-302d-4646-9974-2e6b69636164,rev?*
G04 #@! TF.SameCoordinates,PX4a25ef0PY4c3f880*
G04 #@! TF.FileFunction,Legend,Bot*
G04 #@! TF.FilePolarity,Positive*
%FSLAX46Y46*%
G04 Gerber Fmt 4.6, Leading zero omitted, Abs format (unit mm)*
G04 Created by KiCad (PCBNEW (6.0.1)) date 2022-07-05 00:42:15*
%MOMM*%
%LPD*%
G01*
G04 APERTURE LIST*
%ADD10C,0.125*%
%ADD11C,0.15*%
%ADD12C,0.1*%
%ADD13C,0.12*%
G04 APERTURE END LIST*
D10*
X0040510952Y0069580000D02*
X0040558571Y0069603810D01*
X0040630000Y0069603810D01*
X0040701428Y0069580000D01*
X0040749047Y0069532381D01*
X0040772857Y0069484762D01*
X0040796666Y0069389524D01*
X0040796666Y0069318096D01*
X0040772857Y0069222858D01*
X0040749047Y0069175239D01*
X0040701428Y0069127620D01*
X0040630000Y0069103810D01*
X0040582380Y0069103810D01*
X0040510952Y0069127620D01*
X0040487142Y0069151429D01*
X0040487142Y0069318096D01*
X0040582380Y0069318096D01*
X0040272857Y0069103810D02*
X0040272857Y0069603810D01*
X0039987142Y0069103810D01*
X0039987142Y0069603810D01*
X0039749047Y0069103810D02*
X0039749047Y0069603810D01*
X0039630000Y0069603810D01*
X0039558571Y0069580000D01*
X0039510952Y0069532381D01*
X0039487142Y0069484762D01*
X0039463333Y0069389524D01*
X0039463333Y0069318096D01*
X0039487142Y0069222858D01*
X0039510952Y0069175239D01*
X0039558571Y0069127620D01*
X0039630000Y0069103810D01*
X0039749047Y0069103810D01*
X0040710952Y0057650000D02*
X0040758571Y0057673810D01*
X0040830000Y0057673810D01*
X0040901428Y0057650000D01*
X0040949047Y0057602381D01*
X0040972857Y0057554762D01*
X0040996666Y0057459524D01*
X0040996666Y0057388096D01*
X0040972857Y0057292857D01*
X0040949047Y0057245239D01*
X0040901428Y0057197620D01*
X0040830000Y0057173810D01*
X0040782380Y0057173810D01*
X0040710952Y0057197620D01*
X0040687142Y0057221429D01*
X0040687142Y0057388096D01*
X0040782380Y0057388096D01*
X0040472857Y0057173810D02*
X0040472857Y0057673810D01*
X0040187142Y0057173810D01*
X0040187142Y0057673810D01*
X0039949047Y0057173810D02*
X0039949047Y0057673810D01*
X0039830000Y0057673810D01*
X0039758571Y0057650000D01*
X0039710952Y0057602381D01*
X0039687142Y0057554762D01*
X0039663333Y0057459524D01*
X0039663333Y0057388096D01*
X0039687142Y0057292857D01*
X0039710952Y0057245239D01*
X0039758571Y0057197620D01*
X0039830000Y0057173810D01*
X0039949047Y0057173810D01*
X0040825238Y0055173810D02*
X0041063333Y0055173810D01*
X0041063333Y0055673810D01*
X0040372857Y0055173810D02*
X0040539523Y0055411905D01*
X0040658571Y0055173810D02*
X0040658571Y0055673810D01*
X0040468095Y0055673810D01*
X0040420476Y0055650000D01*
X0040396666Y0055626191D01*
X0040372857Y0055578572D01*
X0040372857Y0055507143D01*
X0040396666Y0055459524D01*
X0040420476Y0055435715D01*
X0040468095Y0055411905D01*
X0040658571Y0055411905D01*
X0039872857Y0055221429D02*
X0039896666Y0055197620D01*
X0039968095Y0055173810D01*
X0040015714Y0055173810D01*
X0040087142Y0055197620D01*
X0040134761Y0055245239D01*
X0040158571Y0055292857D01*
X0040182380Y0055388096D01*
X0040182380Y0055459524D01*
X0040158571Y0055554762D01*
X0040134761Y0055602381D01*
X0040087142Y0055650000D01*
X0040015714Y0055673810D01*
X0039968095Y0055673810D01*
X0039896666Y0055650000D01*
X0039872857Y0055626191D01*
X0039658571Y0055173810D02*
X0039658571Y0055673810D01*
X0039372857Y0055173810D02*
X0039587142Y0055459524D01*
X0039372857Y0055673810D02*
X0039658571Y0055388096D01*
D11*
X0052972857Y0051742858D02*
X0053020476Y0051695239D01*
X0053163333Y0051647620D01*
X0053258571Y0051647620D01*
X0053401427Y0051695239D01*
X0053496666Y0051790477D01*
X0053544285Y0051885715D01*
X0053591904Y0052076191D01*
X0053591904Y0052219048D01*
X0053544285Y0052409524D01*
X0053496666Y0052504762D01*
X0053401427Y0052600000D01*
X0053258571Y0052647620D01*
X0053163333Y0052647620D01*
X0053020476Y0052600000D01*
X0052972857Y0052552381D01*
X0052544285Y0051647620D02*
X0052544285Y0052647620D01*
X0051972857Y0051647620D02*
X0052401427Y0052219048D01*
X0051972857Y0052647620D02*
X0052544285Y0052076191D01*
X0051591904Y0051695239D02*
X0051449047Y0051647620D01*
X0051210952Y0051647620D01*
X0051115714Y0051695239D01*
X0051068095Y0051742858D01*
X0051020476Y0051838096D01*
X0051020476Y0051933334D01*
X0051068095Y0052028572D01*
X0051115714Y0052076191D01*
X0051210952Y0052123810D01*
X0051401427Y0052171429D01*
X0051496666Y0052219048D01*
X0051544285Y0052266667D01*
X0051591904Y0052361905D01*
X0051591904Y0052457143D01*
X0051544285Y0052552381D01*
X0051496666Y0052600000D01*
X0051401427Y0052647620D01*
X0051163333Y0052647620D01*
X0051020476Y0052600000D01*
X0050401427Y0052647620D02*
X0050306190Y0052647620D01*
X0050210952Y0052600000D01*
X0050163333Y0052552381D01*
X0050115714Y0052457143D01*
X0050068095Y0052266667D01*
X0050068095Y0052028572D01*
X0050115714Y0051838096D01*
X0050163333Y0051742858D01*
X0050210952Y0051695239D01*
X0050306190Y0051647620D01*
X0050401427Y0051647620D01*
X0050496666Y0051695239D01*
X0050544285Y0051742858D01*
X0050591904Y0051838096D01*
X0050639523Y0052028572D01*
X0050639523Y0052266667D01*
X0050591904Y0052457143D01*
X0050544285Y0052552381D01*
X0050496666Y0052600000D01*
X0050401427Y0052647620D01*
D12*
X0055691904Y0051566667D02*
X0055739523Y0051614286D01*
X0055834761Y0051757143D01*
X0055882380Y0051852381D01*
X0055930000Y0051995239D01*
X0055977619Y0052233334D01*
X0055977619Y0052423810D01*
X0055930000Y0052661905D01*
X0055882380Y0052804762D01*
X0055834761Y0052900000D01*
X0055739523Y0053042857D01*
X0055691904Y0053090477D01*
X0054549047Y0052661905D02*
X0054549047Y0052709524D01*
X0054596666Y0052566666D02*
X0054596666Y0052709524D01*
X0054644285Y0052471429D02*
X0054644285Y0052709524D01*
X0054691904Y0052376191D02*
X0054691904Y0052709524D01*
X0054739523Y0052328572D02*
X0054739523Y0052709524D01*
X0054787142Y0052233334D02*
X0054787142Y0052709524D01*
X0054834761Y0052138096D02*
X0054834761Y0052709524D01*
X0054882380Y0052042857D02*
X0054882380Y0052709524D01*
X0054930000Y0051947620D02*
X0054930000Y0052709524D01*
X0054977619Y0052042857D02*
X0054977619Y0052709524D01*
X0055025238Y0052138096D02*
X0055025238Y0052709524D01*
X0055072857Y0052233334D02*
X0055072857Y0052709524D01*
X0055120476Y0052328572D02*
X0055120476Y0052709524D01*
X0055168095Y0052376191D02*
X0055168095Y0052709524D01*
X0055215714Y0052471429D02*
X0055215714Y0052709524D01*
X0055263333Y0052566666D02*
X0055263333Y0052709524D01*
X0055310952Y0052709524D02*
X0054930000Y0051995239D01*
X0054549047Y0052709524D01*
X0055310952Y0052661905D02*
X0055310952Y0052709524D01*
X0054930000Y0051947620D02*
X0055358571Y0052709524D01*
X0054501428Y0052709524D01*
X0054930000Y0051947620D01*
X0054168095Y0051566667D02*
X0054120476Y0051614286D01*
X0054025238Y0051757143D01*
X0053977619Y0051852381D01*
X0053930000Y0051995239D01*
X0053882380Y0052233334D01*
X0053882380Y0052423810D01*
X0053930000Y0052661905D01*
X0053977619Y0052804762D01*
X0054025238Y0052900000D01*
X0054120476Y0053042857D01*
X0054168095Y0053090477D01*
D11*
X0056254284Y0057047619D02*
X0056254284Y0058047619D01*
X0056016190Y0058047619D01*
X0055873333Y0058000000D01*
X0055778095Y0057904762D01*
X0055730475Y0057809523D01*
X0055682857Y0057619048D01*
X0055682857Y0057476191D01*
X0055730475Y0057285714D01*
X0055778095Y0057190477D01*
X0055873333Y0057095239D01*
X0056016190Y0057047619D01*
X0056254284Y0057047619D01*
X0055254284Y0057047619D02*
X0055254284Y0058047619D01*
X0054444762Y0057571428D02*
X0054778095Y0057571428D01*
X0054778095Y0057047619D02*
X0054778095Y0058047619D01*
X0054301904Y0058047619D01*
X0053730475Y0058047619D02*
X0053635238Y0058047619D01*
X0053540000Y0058000000D01*
X0053492381Y0057952381D01*
X0053444762Y0057857143D01*
X0053397143Y0057666667D01*
X0053397143Y0057428572D01*
X0053444762Y0057238096D01*
X0053492381Y0057142858D01*
X0053540000Y0057095239D01*
X0053635238Y0057047619D01*
X0053730475Y0057047619D01*
X0053825714Y0057095239D01*
X0053873333Y0057142858D01*
X0053920952Y0057238096D01*
X0053968571Y0057428572D01*
X0053968571Y0057666667D01*
X0053920952Y0057857143D01*
X0053873333Y0057952381D01*
X0053825714Y0058000000D01*
X0053730475Y0058047619D01*
X0056254284Y0061352620D02*
X0056254284Y0062352620D01*
X0056016190Y0062352620D01*
X0055873333Y0062305000D01*
X0055778095Y0062209762D01*
X0055730475Y0062114524D01*
X0055682857Y0061924048D01*
X0055682857Y0061781191D01*
X0055730475Y0061590715D01*
X0055778095Y0061495477D01*
X0055873333Y0061400239D01*
X0056016190Y0061352620D01*
X0056254284Y0061352620D01*
X0055254284Y0061352620D02*
X0055254284Y0062352620D01*
X0054444762Y0061876429D02*
X0054778095Y0061876429D01*
X0054778095Y0061352620D02*
X0054778095Y0062352620D01*
X0054301904Y0062352620D01*
X0053968571Y0062257380D02*
X0053920952Y0062305000D01*
X0053825714Y0062352620D01*
X0053587619Y0062352620D01*
X0053492381Y0062305000D01*
X0053444762Y0062257380D01*
X0053397143Y0062162143D01*
X0053397143Y0062066905D01*
X0053444762Y0061924048D01*
X0054016190Y0061352620D01*
X0053397143Y0061352620D01*
D10*
X0040999047Y0067173810D02*
X0040999047Y0067673810D01*
X0040832380Y0067316667D01*
X0040665714Y0067673810D01*
X0040665714Y0067173810D01*
X0040141904Y0067221429D02*
X0040165714Y0067197620D01*
X0040237142Y0067173810D01*
X0040284761Y0067173810D01*
X0040356190Y0067197620D01*
X0040403809Y0067245239D01*
X0040427619Y0067292858D01*
X0040451428Y0067388096D01*
X0040451428Y0067459524D01*
X0040427619Y0067554762D01*
X0040403809Y0067602381D01*
X0040356190Y0067650000D01*
X0040284761Y0067673810D01*
X0040237142Y0067673810D01*
X0040165714Y0067650000D01*
X0040141904Y0067626191D01*
X0039689523Y0067173810D02*
X0039927619Y0067173810D01*
X0039927619Y0067673810D01*
X0039522857Y0067173810D02*
X0039522857Y0067673810D01*
X0039237142Y0067173810D02*
X0039451428Y0067459524D01*
X0039237142Y0067673810D02*
X0039522857Y0067388096D01*
X0040813333Y0059435715D02*
X0040741904Y0059411905D01*
X0040718095Y0059388096D01*
X0040694285Y0059340477D01*
X0040694285Y0059269048D01*
X0040718095Y0059221429D01*
X0040741904Y0059197620D01*
X0040789523Y0059173810D01*
X0040980000Y0059173810D01*
X0040980000Y0059673810D01*
X0040813333Y0059673810D01*
X0040765714Y0059650000D01*
X0040741904Y0059626191D01*
X0040718095Y0059578572D01*
X0040718095Y0059530953D01*
X0040741904Y0059483334D01*
X0040765714Y0059459524D01*
X0040813333Y0059435715D01*
X0040980000Y0059435715D01*
X0040480000Y0059173810D02*
X0040480000Y0059673810D01*
X0039956190Y0059221429D02*
X0039980000Y0059197620D01*
X0040051428Y0059173810D01*
X0040099047Y0059173810D01*
X0040170476Y0059197620D01*
X0040218095Y0059245239D01*
X0040241904Y0059292857D01*
X0040265714Y0059388096D01*
X0040265714Y0059459524D01*
X0040241904Y0059554762D01*
X0040218095Y0059602381D01*
X0040170476Y0059650000D01*
X0040099047Y0059673810D01*
X0040051428Y0059673810D01*
X0039980000Y0059650000D01*
X0039956190Y0059626191D01*
X0039741904Y0059173810D02*
X0039741904Y0059673810D01*
X0039456190Y0059173810D02*
X0039670476Y0059459524D01*
X0039456190Y0059673810D02*
X0039741904Y0059388096D01*
X0040610952Y0061650000D02*
X0040658571Y0061673810D01*
X0040730000Y0061673810D01*
X0040801428Y0061650000D01*
X0040849047Y0061602381D01*
X0040872857Y0061554762D01*
X0040896666Y0061459524D01*
X0040896666Y0061388096D01*
X0040872857Y0061292857D01*
X0040849047Y0061245239D01*
X0040801428Y0061197620D01*
X0040730000Y0061173810D01*
X0040682380Y0061173810D01*
X0040610952Y0061197620D01*
X0040587142Y0061221429D01*
X0040587142Y0061388096D01*
X0040682380Y0061388096D01*
X0040372857Y0061173810D02*
X0040372857Y0061673810D01*
X0040087142Y0061173810D01*
X0040087142Y0061673810D01*
X0039849047Y0061173810D02*
X0039849047Y0061673810D01*
X0039730000Y0061673810D01*
X0039658571Y0061650000D01*
X0039610952Y0061602381D01*
X0039587142Y0061554762D01*
X0039563333Y0061459524D01*
X0039563333Y0061388096D01*
X0039587142Y0061292857D01*
X0039610952Y0061245239D01*
X0039658571Y0061197620D01*
X0039730000Y0061173810D01*
X0039849047Y0061173810D01*
D11*
X0049979523Y0058601428D02*
X0050312857Y0058601428D01*
X0050312857Y0058077619D02*
X0050312857Y0059077619D01*
X0049836666Y0059077619D01*
X0049503333Y0058125239D02*
X0049360476Y0058077619D01*
X0049122380Y0058077619D01*
X0049027142Y0058125239D01*
X0048979523Y0058172858D01*
X0048931904Y0058268096D01*
X0048931904Y0058363333D01*
X0048979523Y0058458572D01*
X0049027142Y0058506191D01*
X0049122380Y0058553810D01*
X0049312857Y0058601428D01*
X0049408095Y0058649048D01*
X0049455714Y0058696667D01*
X0049503333Y0058791905D01*
X0049503333Y0058887142D01*
X0049455714Y0058982381D01*
X0049408095Y0059030000D01*
X0049312857Y0059077619D01*
X0049074761Y0059077619D01*
X0048931904Y0059030000D01*
X0048550952Y0058982381D02*
X0048503333Y0059030000D01*
X0048408095Y0059077619D01*
X0048170000Y0059077619D01*
X0048074761Y0059030000D01*
X0048027142Y0058982381D01*
X0047979523Y0058887142D01*
X0047979523Y0058791905D01*
X0048027142Y0058649048D01*
X0048598571Y0058077619D01*
X0047979523Y0058077619D01*
D10*
X0040710952Y0065650000D02*
X0040758571Y0065673810D01*
X0040830000Y0065673810D01*
X0040901428Y0065650000D01*
X0040949047Y0065602381D01*
X0040972857Y0065554762D01*
X0040996666Y0065459524D01*
X0040996666Y0065388096D01*
X0040972857Y0065292857D01*
X0040949047Y0065245239D01*
X0040901428Y0065197620D01*
X0040830000Y0065173810D01*
X0040782380Y0065173810D01*
X0040710952Y0065197620D01*
X0040687142Y0065221429D01*
X0040687142Y0065388096D01*
X0040782380Y0065388096D01*
X0040472857Y0065173810D02*
X0040472857Y0065673810D01*
X0040187142Y0065173810D01*
X0040187142Y0065673810D01*
X0039949047Y0065173810D02*
X0039949047Y0065673810D01*
X0039830000Y0065673810D01*
X0039758571Y0065650000D01*
X0039710952Y0065602381D01*
X0039687142Y0065554762D01*
X0039663333Y0065459524D01*
X0039663333Y0065388096D01*
X0039687142Y0065292857D01*
X0039710952Y0065245239D01*
X0039758571Y0065197620D01*
X0039830000Y0065173810D01*
X0039949047Y0065173810D01*
D11*
X0048156190Y0050024286D02*
X0048156190Y0049214762D01*
X0048203809Y0049119524D01*
X0048251428Y0049071905D01*
X0048346666Y0049024286D01*
X0048489523Y0049024286D01*
X0048584761Y0049071905D01*
X0048156190Y0049405239D02*
X0048251428Y0049357620D01*
X0048441904Y0049357620D01*
X0048537142Y0049405239D01*
X0048584761Y0049452858D01*
X0048632380Y0049548096D01*
X0048632380Y0049833810D01*
X0048584761Y0049929048D01*
X0048537142Y0049976667D01*
X0048441904Y0050024286D01*
X0048251428Y0050024286D01*
X0048156190Y0049976667D01*
X0047680000Y0049357620D02*
X0047680000Y0050024286D01*
X0047680000Y0050357620D02*
X0047727619Y0050310000D01*
X0047680000Y0050262381D01*
X0047632380Y0050310000D01*
X0047680000Y0050357620D01*
X0047680000Y0050262381D01*
X0047346666Y0050024286D02*
X0046965714Y0050024286D01*
X0047203809Y0050357620D02*
X0047203809Y0049500477D01*
X0047156190Y0049405239D01*
X0047060952Y0049357620D01*
X0046965714Y0049357620D01*
X0046632380Y0049357620D02*
X0046632380Y0050357620D01*
X0046203809Y0049357620D02*
X0046203809Y0049881429D01*
X0046251428Y0049976667D01*
X0046346666Y0050024286D01*
X0046489523Y0050024286D01*
X0046584761Y0049976667D01*
X0046632380Y0049929048D01*
X0045299047Y0050024286D02*
X0045299047Y0049357620D01*
X0045727619Y0050024286D02*
X0045727619Y0049500477D01*
X0045680000Y0049405239D01*
X0045584761Y0049357620D01*
X0045441904Y0049357620D01*
X0045346666Y0049405239D01*
X0045299047Y0049452858D01*
X0044822857Y0049357620D02*
X0044822857Y0050357620D01*
X0044822857Y0049976667D02*
X0044727619Y0050024286D01*
X0044537142Y0050024286D01*
X0044441904Y0049976667D01*
X0044394285Y0049929048D01*
X0044346666Y0049833810D01*
X0044346666Y0049548096D01*
X0044394285Y0049452858D01*
X0044441904Y0049405239D01*
X0044537142Y0049357620D01*
X0044727619Y0049357620D01*
X0044822857Y0049405239D01*
X0043918095Y0049452858D02*
X0043870476Y0049405239D01*
X0043918095Y0049357620D01*
X0043965714Y0049405239D01*
X0043918095Y0049452858D01*
X0043918095Y0049357620D01*
X0043013333Y0049405239D02*
X0043108571Y0049357620D01*
X0043299047Y0049357620D01*
X0043394285Y0049405239D01*
X0043441904Y0049452858D01*
X0043489523Y0049548096D01*
X0043489523Y0049833810D01*
X0043441904Y0049929048D01*
X0043394285Y0049976667D01*
X0043299047Y0050024286D01*
X0043108571Y0050024286D01*
X0043013333Y0049976667D01*
X0042441904Y0049357620D02*
X0042537142Y0049405239D01*
X0042584761Y0049452858D01*
X0042632380Y0049548096D01*
X0042632380Y0049833810D01*
X0042584761Y0049929048D01*
X0042537142Y0049976667D01*
X0042441904Y0050024286D01*
X0042299047Y0050024286D01*
X0042203809Y0049976667D01*
X0042156190Y0049929048D01*
X0042108571Y0049833810D01*
X0042108571Y0049548096D01*
X0042156190Y0049452858D01*
X0042203809Y0049405239D01*
X0042299047Y0049357620D01*
X0042441904Y0049357620D01*
X0041680000Y0049357620D02*
X0041680000Y0050024286D01*
X0041680000Y0049929048D02*
X0041632380Y0049976667D01*
X0041537142Y0050024286D01*
X0041394285Y0050024286D01*
X0041299047Y0049976667D01*
X0041251428Y0049881429D01*
X0041251428Y0049357620D01*
X0041251428Y0049881429D02*
X0041203809Y0049976667D01*
X0041108571Y0050024286D01*
X0040965714Y0050024286D01*
X0040870476Y0049976667D01*
X0040822857Y0049881429D01*
X0040822857Y0049357620D01*
X0039632380Y0050405239D02*
X0040489523Y0049119524D01*
X0047775238Y0048414286D02*
X0047775238Y0047747620D01*
X0047775238Y0048319048D02*
X0047727619Y0048366667D01*
X0047632380Y0048414286D01*
X0047489523Y0048414286D01*
X0047394285Y0048366667D01*
X0047346666Y0048271429D01*
X0047346666Y0047747620D01*
X0046870476Y0047747620D02*
X0046870476Y0048414286D01*
X0046870476Y0048747620D02*
X0046918095Y0048700000D01*
X0046870476Y0048652381D01*
X0046822857Y0048700000D01*
X0046870476Y0048747620D01*
X0046870476Y0048652381D01*
X0046394285Y0047747620D02*
X0046394285Y0048747620D01*
X0046299047Y0048128572D02*
X0046013333Y0047747620D01*
X0046013333Y0048414286D02*
X0046394285Y0048033334D01*
X0045584761Y0047747620D02*
X0045584761Y0048414286D01*
X0045584761Y0048747620D02*
X0045632380Y0048700000D01*
X0045584761Y0048652381D01*
X0045537142Y0048700000D01*
X0045584761Y0048747620D01*
X0045584761Y0048652381D01*
X0045251428Y0048414286D02*
X0044870476Y0048414286D01*
X0045108571Y0048747620D02*
X0045108571Y0047890477D01*
X0045060952Y0047795239D01*
X0044965714Y0047747620D01*
X0044870476Y0047747620D01*
X0044108571Y0047747620D02*
X0044108571Y0048271429D01*
X0044156190Y0048366667D01*
X0044251428Y0048414286D01*
X0044441904Y0048414286D01*
X0044537142Y0048366667D01*
X0044108571Y0047795239D02*
X0044203809Y0047747620D01*
X0044441904Y0047747620D01*
X0044537142Y0047795239D01*
X0044584761Y0047890477D01*
X0044584761Y0047985715D01*
X0044537142Y0048080953D01*
X0044441904Y0048128572D01*
X0044203809Y0048128572D01*
X0044108571Y0048176191D01*
X0043489523Y0047747620D02*
X0043584761Y0047795239D01*
X0043632380Y0047890477D01*
X0043632380Y0048747620D01*
X0043108571Y0047747620D02*
X0043108571Y0048414286D01*
X0043108571Y0048747620D02*
X0043156190Y0048700000D01*
X0043108571Y0048652381D01*
X0043060952Y0048700000D01*
X0043108571Y0048747620D01*
X0043108571Y0048652381D01*
X0042775238Y0048414286D02*
X0042394285Y0048414286D01*
X0042632380Y0048747620D02*
X0042632380Y0047890477D01*
X0042584761Y0047795239D01*
X0042489523Y0047747620D01*
X0042394285Y0047747620D01*
X0041632380Y0047747620D02*
X0041632380Y0048271429D01*
X0041680000Y0048366667D01*
X0041775238Y0048414286D01*
X0041965714Y0048414286D01*
X0042060952Y0048366667D01*
X0041632380Y0047795239D02*
X0041727619Y0047747620D01*
X0041965714Y0047747620D01*
X0042060952Y0047795239D01*
X0042108571Y0047890477D01*
X0042108571Y0047985715D01*
X0042060952Y0048080953D01*
X0041965714Y0048128572D01*
X0041727619Y0048128572D01*
X0041632380Y0048176191D01*
X0040441904Y0048795239D02*
X0041299047Y0047509524D01*
X0048203809Y0046137620D02*
X0048203809Y0047137620D01*
X0047870476Y0046423334D01*
X0047537142Y0047137620D01*
X0047537142Y0046137620D01*
X0047060952Y0047137620D02*
X0047060952Y0046328096D01*
X0047013333Y0046232858D01*
X0046965714Y0046185239D01*
X0046870476Y0046137620D01*
X0046680000Y0046137620D01*
X0046584761Y0046185239D01*
X0046537142Y0046232858D01*
X0046489523Y0046328096D01*
X0046489523Y0047137620D01*
X0045489523Y0046137620D02*
X0046060952Y0046137620D01*
X0045775238Y0046137620D02*
X0045775238Y0047137620D01*
X0045870476Y0046994762D01*
X0045965714Y0046899524D01*
X0046060952Y0046851905D01*
X0044870476Y0047137620D02*
X0044775238Y0047137620D01*
X0044680000Y0047090000D01*
X0044632380Y0047042381D01*
X0044584761Y0046947143D01*
X0044537142Y0046756667D01*
X0044537142Y0046518572D01*
X0044584761Y0046328096D01*
X0044632380Y0046232858D01*
X0044680000Y0046185239D01*
X0044775238Y0046137620D01*
X0044870476Y0046137620D01*
X0044965714Y0046185239D01*
X0045013333Y0046232858D01*
X0045060952Y0046328096D01*
X0045108571Y0046518572D01*
X0045108571Y0046756667D01*
X0045060952Y0046947143D01*
X0045013333Y0047042381D01*
X0044965714Y0047090000D01*
X0044870476Y0047137620D01*
X0043918095Y0047137620D02*
X0043822857Y0047137620D01*
X0043727619Y0047090000D01*
X0043680000Y0047042381D01*
X0043632380Y0046947143D01*
X0043584761Y0046756667D01*
X0043584761Y0046518572D01*
X0043632380Y0046328096D01*
X0043680000Y0046232858D01*
X0043727619Y0046185239D01*
X0043822857Y0046137620D01*
X0043918095Y0046137620D01*
X0044013333Y0046185239D01*
X0044060952Y0046232858D01*
X0044108571Y0046328096D01*
X0044156190Y0046518572D01*
X0044156190Y0046756667D01*
X0044108571Y0046947143D01*
X0044060952Y0047042381D01*
X0044013333Y0047090000D01*
X0043918095Y0047137620D01*
X0043156190Y0046518572D02*
X0042394285Y0046518572D01*
X0041918095Y0046137620D02*
X0041918095Y0047137620D01*
X0041680000Y0047137620D01*
X0041537142Y0047090000D01*
X0041441904Y0046994762D01*
X0041394285Y0046899524D01*
X0041346666Y0046709048D01*
X0041346666Y0046566191D01*
X0041394285Y0046375715D01*
X0041441904Y0046280477D01*
X0041537142Y0046185239D01*
X0041680000Y0046137620D01*
X0041918095Y0046137620D01*
X0040918095Y0046137620D02*
X0040918095Y0047137620D01*
X0040584761Y0047137620D02*
X0040013333Y0047137620D01*
X0040299047Y0046137620D02*
X0040299047Y0047137620D01*
X0049939523Y0063111429D02*
X0050272857Y0063111429D01*
X0050272857Y0062587620D02*
X0050272857Y0063587620D01*
X0049796666Y0063587620D01*
X0049463333Y0062635239D02*
X0049320476Y0062587620D01*
X0049082380Y0062587620D01*
X0048987142Y0062635239D01*
X0048939523Y0062682857D01*
X0048891904Y0062778096D01*
X0048891904Y0062873334D01*
X0048939523Y0062968572D01*
X0048987142Y0063016191D01*
X0049082380Y0063063810D01*
X0049272857Y0063111429D01*
X0049368095Y0063159048D01*
X0049415714Y0063206666D01*
X0049463333Y0063301905D01*
X0049463333Y0063397143D01*
X0049415714Y0063492381D01*
X0049368095Y0063540000D01*
X0049272857Y0063587620D01*
X0049034761Y0063587620D01*
X0048891904Y0063540000D01*
X0048272857Y0063587620D02*
X0048177619Y0063587620D01*
X0048082380Y0063540000D01*
X0048034761Y0063492381D01*
X0047987142Y0063397143D01*
X0047939523Y0063206666D01*
X0047939523Y0062968572D01*
X0047987142Y0062778096D01*
X0048034761Y0062682857D01*
X0048082380Y0062635239D01*
X0048177619Y0062587620D01*
X0048272857Y0062587620D01*
X0048368095Y0062635239D01*
X0048415714Y0062682857D01*
X0048463333Y0062778096D01*
X0048510952Y0062968572D01*
X0048510952Y0063206666D01*
X0048463333Y0063397143D01*
X0048415714Y0063492381D01*
X0048368095Y0063540000D01*
X0048272857Y0063587620D01*
D10*
X0040927619Y0063297619D02*
X0040856190Y0063273810D01*
X0040737142Y0063273810D01*
X0040689523Y0063297619D01*
X0040665714Y0063321428D01*
X0040641904Y0063369048D01*
X0040641904Y0063416667D01*
X0040665714Y0063464286D01*
X0040689523Y0063488096D01*
X0040737142Y0063511905D01*
X0040832380Y0063535714D01*
X0040880000Y0063559523D01*
X0040903809Y0063583334D01*
X0040927619Y0063630953D01*
X0040927619Y0063678572D01*
X0040903809Y0063726191D01*
X0040880000Y0063750000D01*
X0040832380Y0063773810D01*
X0040713333Y0063773810D01*
X0040641904Y0063750000D01*
X0040427619Y0063273810D02*
X0040427619Y0063773810D01*
X0040308571Y0063773810D01*
X0040237142Y0063750000D01*
X0040189523Y0063702381D01*
X0040165714Y0063654762D01*
X0040141904Y0063559523D01*
X0040141904Y0063488096D01*
X0040165714Y0063392858D01*
X0040189523Y0063345239D01*
X0040237142Y0063297619D01*
X0040308571Y0063273810D01*
X0040427619Y0063273810D01*
X0039951428Y0063416667D02*
X0039713333Y0063416667D01*
X0039999047Y0063273810D02*
X0039832380Y0063773810D01*
X0039665714Y0063273810D01*
X0039570476Y0063773810D02*
X0039284761Y0063773810D01*
X0039427619Y0063273810D02*
X0039427619Y0063773810D01*
X0040972857Y0071264286D02*
X0040591904Y0071264286D01*
X0040782380Y0071073810D02*
X0040782380Y0071454762D01*
X0040115714Y0071573810D02*
X0040353809Y0071573810D01*
X0040377619Y0071335715D01*
X0040353809Y0071359524D01*
X0040306190Y0071383334D01*
X0040187142Y0071383334D01*
X0040139523Y0071359524D01*
X0040115714Y0071335715D01*
X0040091904Y0071288096D01*
X0040091904Y0071169048D01*
X0040115714Y0071121429D01*
X0040139523Y0071097620D01*
X0040187142Y0071073810D01*
X0040306190Y0071073810D01*
X0040353809Y0071097620D01*
X0040377619Y0071121429D01*
X0039949047Y0071573810D02*
X0039782380Y0071073810D01*
X0039615714Y0071573810D01*
X0040532857Y0073125810D02*
X0040532857Y0073625810D01*
X0040247142Y0073125810D01*
X0040247142Y0073625810D01*
X0039723333Y0073173429D02*
X0039747142Y0073149620D01*
X0039818571Y0073125810D01*
X0039866190Y0073125810D01*
X0039937619Y0073149620D01*
X0039985238Y0073197239D01*
X0040009047Y0073244858D01*
X0040032857Y0073340096D01*
X0040032857Y0073411524D01*
X0040009047Y0073506762D01*
X0039985238Y0073554381D01*
X0039937619Y0073602000D01*
X0039866190Y0073625810D01*
X0039818571Y0073625810D01*
X0039747142Y0073602000D01*
X0039723333Y0073578191D01*
D11*
X0056254284Y0059222620D02*
X0056254284Y0060222620D01*
X0056016190Y0060222620D01*
X0055873333Y0060175000D01*
X0055778095Y0060079762D01*
X0055730475Y0059984524D01*
X0055682857Y0059794048D01*
X0055682857Y0059651191D01*
X0055730475Y0059460715D01*
X0055778095Y0059365477D01*
X0055873333Y0059270239D01*
X0056016190Y0059222620D01*
X0056254284Y0059222620D01*
X0055254284Y0059222620D02*
X0055254284Y0060222620D01*
X0054444762Y0059746429D02*
X0054778095Y0059746429D01*
X0054778095Y0059222620D02*
X0054778095Y0060222620D01*
X0054301904Y0060222620D01*
X0053397143Y0059222620D02*
X0053968571Y0059222620D01*
X0053682857Y0059222620D02*
X0053682857Y0060222620D01*
X0053778095Y0060079762D01*
X0053873333Y0059984524D01*
X0053968571Y0059936904D01*
X0049969523Y0056261429D02*
X0050302857Y0056261429D01*
X0050302857Y0055737620D02*
X0050302857Y0056737620D01*
X0049826666Y0056737620D01*
X0049493333Y0055785239D02*
X0049350476Y0055737620D01*
X0049112380Y0055737620D01*
X0049017142Y0055785239D01*
X0048969523Y0055832858D01*
X0048921904Y0055928096D01*
X0048921904Y0056023334D01*
X0048969523Y0056118572D01*
X0049017142Y0056166191D01*
X0049112380Y0056213809D01*
X0049302857Y0056261429D01*
X0049398095Y0056309048D01*
X0049445714Y0056356667D01*
X0049493333Y0056451905D01*
X0049493333Y0056547143D01*
X0049445714Y0056642381D01*
X0049398095Y0056690000D01*
X0049302857Y0056737620D01*
X0049064761Y0056737620D01*
X0048921904Y0056690000D01*
X0048588571Y0056737620D02*
X0047969523Y0056737620D01*
X0048302857Y0056356667D01*
X0048160000Y0056356667D01*
X0048064761Y0056309048D01*
X0048017142Y0056261429D01*
X0047969523Y0056166191D01*
X0047969523Y0055928096D01*
X0048017142Y0055832858D01*
X0048064761Y0055785239D01*
X0048160000Y0055737620D01*
X0048445714Y0055737620D01*
X0048540952Y0055785239D01*
X0048588571Y0055832858D01*
X0047272857Y0051742858D02*
X0047320476Y0051695239D01*
X0047463333Y0051647620D01*
X0047558571Y0051647620D01*
X0047701428Y0051695239D01*
X0047796666Y0051790477D01*
X0047844285Y0051885715D01*
X0047891904Y0052076191D01*
X0047891904Y0052219048D01*
X0047844285Y0052409524D01*
X0047796666Y0052504762D01*
X0047701428Y0052600000D01*
X0047558571Y0052647620D01*
X0047463333Y0052647620D01*
X0047320476Y0052600000D01*
X0047272857Y0052552381D01*
X0046844285Y0051647620D02*
X0046844285Y0052647620D01*
X0046272857Y0051647620D02*
X0046701428Y0052219048D01*
X0046272857Y0052647620D02*
X0046844285Y0052076191D01*
X0045891904Y0051695239D02*
X0045749047Y0051647620D01*
X0045510952Y0051647620D01*
X0045415714Y0051695239D01*
X0045368095Y0051742858D01*
X0045320476Y0051838096D01*
X0045320476Y0051933334D01*
X0045368095Y0052028572D01*
X0045415714Y0052076191D01*
X0045510952Y0052123810D01*
X0045701428Y0052171429D01*
X0045796666Y0052219048D01*
X0045844285Y0052266667D01*
X0045891904Y0052361905D01*
X0045891904Y0052457143D01*
X0045844285Y0052552381D01*
X0045796666Y0052600000D01*
X0045701428Y0052647620D01*
X0045463333Y0052647620D01*
X0045320476Y0052600000D01*
X0044368095Y0051647620D02*
X0044939523Y0051647620D01*
X0044653809Y0051647620D02*
X0044653809Y0052647620D01*
X0044749047Y0052504762D01*
X0044844285Y0052409524D01*
X0044939523Y0052361905D01*
X0049939523Y0060811429D02*
X0050272857Y0060811429D01*
X0050272857Y0060287620D02*
X0050272857Y0061287620D01*
X0049796666Y0061287620D01*
X0049463333Y0060335239D02*
X0049320476Y0060287620D01*
X0049082380Y0060287620D01*
X0048987142Y0060335239D01*
X0048939523Y0060382858D01*
X0048891904Y0060478096D01*
X0048891904Y0060573334D01*
X0048939523Y0060668572D01*
X0048987142Y0060716190D01*
X0049082380Y0060763810D01*
X0049272857Y0060811429D01*
X0049368095Y0060859048D01*
X0049415714Y0060906667D01*
X0049463333Y0061001905D01*
X0049463333Y0061097143D01*
X0049415714Y0061192381D01*
X0049368095Y0061239999D01*
X0049272857Y0061287620D01*
X0049034761Y0061287620D01*
X0048891904Y0061239999D01*
X0047939523Y0060287620D02*
X0048510952Y0060287620D01*
X0048225238Y0060287620D02*
X0048225238Y0061287620D01*
X0048320476Y0061144762D01*
X0048415714Y0061049524D01*
X0048510952Y0061001905D01*
X0049146665Y0075759620D02*
X0049480000Y0076235810D01*
X0049718095Y0075759620D02*
X0049718095Y0076759620D01*
X0049337142Y0076759620D01*
X0049241904Y0076712000D01*
X0049194285Y0076664381D01*
X0049146665Y0076569143D01*
X0049146665Y0076426286D01*
X0049194285Y0076331048D01*
X0049241904Y0076283429D01*
X0049337142Y0076235810D01*
X0049718095Y0076235810D01*
X0048194285Y0075759620D02*
X0048765714Y0075759620D01*
X0048480000Y0075759620D02*
X0048480000Y0076759620D01*
X0048575238Y0076616762D01*
X0048670476Y0076521524D01*
X0048765714Y0076473905D01*
X0047091666Y0082624620D02*
X0047425000Y0083100810D01*
X0047663095Y0082624620D02*
X0047663095Y0083624620D01*
X0047282142Y0083624620D01*
X0047186904Y0083577000D01*
X0047139285Y0083529381D01*
X0047091666Y0083434143D01*
X0047091666Y0083291286D01*
X0047139285Y0083196048D01*
X0047186904Y0083148429D01*
X0047282142Y0083100810D01*
X0047663095Y0083100810D01*
X0046710714Y0083529381D02*
X0046663095Y0083577000D01*
X0046567857Y0083624620D01*
X0046329761Y0083624620D01*
X0046234523Y0083577000D01*
X0046186904Y0083529381D01*
X0046139285Y0083434143D01*
X0046139285Y0083338905D01*
X0046186904Y0083196048D01*
X0046758333Y0082624620D01*
X0046139285Y0082624620D01*
X0049216666Y0077594858D02*
X0049264285Y0077547239D01*
X0049407142Y0077499620D01*
X0049502380Y0077499620D01*
X0049645238Y0077547239D01*
X0049740476Y0077642477D01*
X0049788095Y0077737715D01*
X0049835713Y0077928191D01*
X0049835713Y0078071048D01*
X0049788095Y0078261524D01*
X0049740476Y0078356762D01*
X0049645238Y0078452000D01*
X0049502380Y0078499620D01*
X0049407142Y0078499620D01*
X0049264285Y0078452000D01*
X0049216666Y0078404381D01*
X0048359522Y0078166286D02*
X0048359522Y0077499620D01*
X0048597619Y0078547239D02*
X0048835713Y0077832953D01*
X0048216666Y0077832953D01*
D13*
X0045170000Y0058780000D02*
X0045170000Y0058180000D01*
X0045660000Y0057769999D02*
X0047120000Y0057769999D01*
X0047060000Y0059269999D02*
X0045580000Y0059269999D01*
X0047547060Y0058262339D02*
X0047547060Y0058862339D01*
X0047139342Y0057774919D02*
G75*
G03*
X0047549341Y0058264919I-0000072338J0000477059D01*
G01*
X0045577718Y0059267420D02*
G75*
G03*
X0045167718Y0058777420I0000072338J-0000477059D01*
G01*
X0047547060Y0058862339D02*
G75*
G03*
X0047057060Y0059272339I-0000477059J-0000072338D01*
G01*
X0045170000Y0058180000D02*
G75*
G03*
X0045660000Y0057769999I0000477059J0000072338D01*
G01*
X0046377064Y0075507000D02*
X0045922936Y0075507000D01*
X0046377064Y0076977000D02*
X0045922936Y0076977000D01*
X0047060000Y0054680000D02*
X0045580000Y0054680000D01*
X0045660000Y0053180000D02*
X0047120000Y0053180000D01*
X0047547060Y0053672339D02*
X0047547060Y0054272339D01*
X0045170000Y0054190000D02*
X0045170000Y0053590000D01*
X0047547060Y0054272339D02*
G75*
G03*
X0047057060Y0054682339I-0000477059J-0000072338D01*
G01*
X0047139342Y0053184919D02*
G75*
G03*
X0047549341Y0053674919I-0000072338J0000477059D01*
G01*
X0045577718Y0054677420D02*
G75*
G03*
X0045167718Y0054187420I0000072338J-0000477059D01*
G01*
X0045170000Y0053590000D02*
G75*
G03*
X0045660000Y0053180000I0000477059J0000072338D01*
G01*
X0045660000Y0060065000D02*
X0047120000Y0060065000D01*
X0047547060Y0060557339D02*
X0047547060Y0061157339D01*
X0047060000Y0061565000D02*
X0045580000Y0061565000D01*
X0045170000Y0061075000D02*
X0045170000Y0060475000D01*
X0047547060Y0061157339D02*
G75*
G03*
X0047057060Y0061567339I-0000477059J-0000072338D01*
G01*
X0045170000Y0060475000D02*
G75*
G03*
X0045660000Y0060065000I0000477059J0000072338D01*
G01*
X0047139342Y0060069919D02*
G75*
G03*
X0047549341Y0060559919I-0000072338J0000477059D01*
G01*
X0045577718Y0061562420D02*
G75*
G03*
X0045167718Y0061072420I0000072338J-0000477059D01*
G01*
X0052630000Y0062644999D02*
X0051150000Y0062644999D01*
X0053117060Y0061637339D02*
X0053117060Y0062237339D01*
X0050740000Y0062155000D02*
X0050740000Y0061555000D01*
X0051230000Y0061144999D02*
X0052690000Y0061144999D01*
X0051147718Y0062642420D02*
G75*
G03*
X0050737718Y0062152420I0000072338J-0000477059D01*
G01*
X0050740000Y0061555000D02*
G75*
G03*
X0051230000Y0061144999I0000477059J0000072338D01*
G01*
X0052709342Y0061149919D02*
G75*
G03*
X0053119342Y0061639919I-0000072338J0000477059D01*
G01*
X0053117060Y0062237339D02*
G75*
G03*
X0052627060Y0062647339I-0000477059J-0000072338D01*
G01*
X0045660000Y0062390000D02*
X0047120000Y0062390000D01*
X0047547060Y0062882339D02*
X0047547060Y0063482338D01*
X0045170000Y0063400000D02*
X0045170000Y0062800000D01*
X0047060000Y0063890000D02*
X0045580000Y0063890000D01*
X0045577718Y0063887420D02*
G75*
G03*
X0045167718Y0063397420I0000072338J-0000477059D01*
G01*
X0047547060Y0063482338D02*
G75*
G03*
X0047057060Y0063892339I-0000477059J-0000072338D01*
G01*
X0045170000Y0062800000D02*
G75*
G03*
X0045660000Y0062390000I0000477059J0000072338D01*
G01*
X0047139342Y0062394919D02*
G75*
G03*
X0047549341Y0062884919I-0000072338J0000477059D01*
G01*
X0051230000Y0058850000D02*
X0052690000Y0058850000D01*
X0050740000Y0059860000D02*
X0050740000Y0059260000D01*
X0053117060Y0059342338D02*
X0053117060Y0059942339D01*
X0052630000Y0060350000D02*
X0051150000Y0060350000D01*
X0050740000Y0059260000D02*
G75*
G03*
X0051230000Y0058850000I0000477059J0000072338D01*
G01*
X0053117060Y0059942339D02*
G75*
G03*
X0052627060Y0060352339I-0000477059J-0000072338D01*
G01*
X0052709342Y0058854918D02*
G75*
G03*
X0053119342Y0059344919I-0000072338J0000477059D01*
G01*
X0051147718Y0060347420D02*
G75*
G03*
X0050737718Y0059857420I0000072338J-0000477059D01*
G01*
X0050690000Y0054190000D02*
X0050690000Y0053590000D01*
X0053067060Y0053672339D02*
X0053067060Y0054272339D01*
X0052580000Y0054680000D02*
X0051100000Y0054680000D01*
X0051180000Y0053180000D02*
X0052640000Y0053180000D01*
X0051097718Y0054677420D02*
G75*
G03*
X0050687718Y0054187420I0000072338J-0000477059D01*
G01*
X0050690000Y0053590000D02*
G75*
G03*
X0051180000Y0053180000I0000477059J0000072338D01*
G01*
X0052659342Y0053184919D02*
G75*
G03*
X0053069342Y0053674919I-0000072338J0000477059D01*
G01*
X0053067060Y0054272339D02*
G75*
G03*
X0052577060Y0054682339I-0000477059J-0000072338D01*
G01*
X0045872936Y0080627000D02*
X0046327064Y0080627000D01*
X0045872936Y0082097000D02*
X0046327064Y0082097000D01*
X0046391252Y0078067000D02*
X0045868748Y0078067000D01*
X0046391252Y0079537000D02*
X0045868748Y0079537000D01*
X0050740000Y0057565000D02*
X0050740000Y0056965000D01*
X0052630000Y0058055000D02*
X0051150000Y0058055000D01*
X0051230000Y0056555000D02*
X0052690000Y0056555000D01*
X0053117060Y0057047339D02*
X0053117060Y0057647339D01*
X0051147718Y0058052420D02*
G75*
G03*
X0050737718Y0057562420I0000072338J-0000477059D01*
G01*
X0052709342Y0056559919D02*
G75*
G03*
X0053119342Y0057049919I-0000072338J0000477059D01*
G01*
X0053117060Y0057647339D02*
G75*
G03*
X0052627060Y0058057339I-0000477059J-0000072338D01*
G01*
X0050740000Y0056965000D02*
G75*
G03*
X0051230000Y0056555000I0000477059J0000072338D01*
G01*
X0045170000Y0056485000D02*
X0045170000Y0055885000D01*
X0045660000Y0055475000D02*
X0047120000Y0055475000D01*
X0047060000Y0056975000D02*
X0045580000Y0056975000D01*
X0047547060Y0055967338D02*
X0047547060Y0056567339D01*
X0045170000Y0055885000D02*
G75*
G03*
X0045660000Y0055475000I0000477059J0000072338D01*
G01*
X0045577718Y0056972420D02*
G75*
G03*
X0045167718Y0056482420I0000072338J-0000477059D01*
G01*
X0047139342Y0055479918D02*
G75*
G03*
X0047549341Y0055969919I-0000072338J0000477059D01*
G01*
X0047547060Y0056567339D02*
G75*
G03*
X0047057060Y0056977339I-0000477059J-0000072338D01*
G01*
M02*