G04 #@! TF.GenerationSoftware,KiCad,Pcbnew,(6.0.1)*
G04 #@! TF.CreationDate,2022-07-05T00:42:15-07:00*
G04 #@! TF.ProjectId,mu100-dit,6d753130-302d-4646-9974-2e6b69636164,rev?*
G04 #@! TF.SameCoordinates,PX4a25ef0PY4c3f880*
G04 #@! TF.FileFunction,Copper,L1,Top*
G04 #@! TF.FilePolarity,Positive*
%FSLAX46Y46*%
G04 Gerber Fmt 4.6, Leading zero omitted, Abs format (unit mm)*
G04 Created by KiCad (PCBNEW (6.0.1)) date 2022-07-05 00:42:15*
%MOMM*%
%LPD*%
G01*
G04 APERTURE LIST*
G04 Aperture macros list*
%AMRoundRect*
4,1,4,2,3,4,5,6,7,8,9,2,3,0*
1,1,$1,$2,$3*
1,1,$1,$2,$3*
1,1,$1,$2,$3*
1,1,$1,$2,$3*
20,1,$1,$2,$3,$4,$5,0*
20,1,$1,$2,$3,$4,$5,0*
20,1,$1,$2,$3,$4,$5,0*
20,1,$1,$2,$3,$4,$5,0*%
G04 Aperture macros list end*
G04 #@! TA.AperFunction,SMDPad,CuDef*
%AMCOMP136*
4,1,3,
-0.3375,-0.475,
0.3375,-0.475,
0.3375,0.475,
-0.3375,0.475,
0*
4,1,19,
-0.3375,-0.22499999999999998,
-0.26024575140626316,-0.2372358709262116,
-0.19055368692688174,-0.27274575140626311,
-0.13524575140626316,-0.32805368692688169,
-0.099735870926211639,-0.39774575140626311,
-0.087500000000000022,-0.475,
-0.099735870926211612,-0.55225424859373684,
-0.13524575140626316,-0.62194631307311821,
-0.19055368692688171,-0.67725424859373684,
-0.26024575140626316,-0.71276412907378839,
-0.33749999999999997,-0.725,
-0.41475424859373694,-0.71276412907378839,
-0.48444631307311825,-0.67725424859373684,
-0.53975424859373689,-0.62194631307311832,
-0.57526412907378843,-0.55225424859373684,
-0.5875,-0.47500000000000003,
-0.57526412907378843,-0.39774575140626317,
-0.53975424859373689,-0.32805368692688175,
-0.48444631307311836,-0.27274575140626311,
-0.41475424859373694,-0.2372358709262116,
0*
4,1,19,
0.3375,-0.22499999999999998,
0.41475424859373689,-0.2372358709262116,
0.48444631307311831,-0.27274575140626311,
0.53975424859373689,-0.32805368692688169,
0.57526412907378843,-0.39774575140626311,
0.5875,-0.475,
0.57526412907378843,-0.55225424859373684,
0.53975424859373689,-0.62194631307311821,
0.48444631307311836,-0.67725424859373684,
0.41475424859373689,-0.71276412907378839,
0.33750000000000008,-0.725,
0.2602457514062631,-0.71276412907378839,
0.19055368692688177,-0.67725424859373684,
0.13524575140626319,-0.62194631307311832,
0.099735870926211639,-0.55225424859373684,
0.087500000000000022,-0.47500000000000003,
0.099735870926211612,-0.39774575140626317,
0.13524575140626313,-0.32805368692688175,
0.19055368692688168,-0.27274575140626311,
0.2602457514062631,-0.2372358709262116,
0*
4,1,19,
0.3375,0.725,
0.41475424859373689,0.71276412907378839,
0.48444631307311831,0.67725424859373684,
0.53975424859373689,0.62194631307311821,
0.57526412907378843,0.55225424859373684,
0.5875,0.475,
0.57526412907378843,0.39774575140626311,
0.53975424859373689,0.32805368692688175,
0.48444631307311836,0.27274575140626311,
0.41475424859373689,0.2372358709262116,
0.33750000000000008,0.22499999999999998,
0.2602457514062631,0.2372358709262116,
0.19055368692688177,0.27274575140626311,
0.13524575140626319,0.32805368692688164,
0.099735870926211639,0.39774575140626311,
0.087500000000000022,0.47499999999999992,
0.099735870926211612,0.55225424859373673,
0.13524575140626313,0.62194631307311821,
0.19055368692688168,0.67725424859373684,
0.2602457514062631,0.71276412907378839,
0*
4,1,19,
-0.3375,0.725,
-0.26024575140626316,0.71276412907378839,
-0.19055368692688174,0.67725424859373684,
-0.13524575140626316,0.62194631307311821,
-0.099735870926211639,0.55225424859373684,
-0.087500000000000022,0.475,
-0.099735870926211612,0.39774575140626311,
-0.13524575140626316,0.32805368692688175,
-0.19055368692688171,0.27274575140626311,
-0.26024575140626316,0.2372358709262116,
-0.33749999999999997,0.22499999999999998,
-0.41475424859373694,0.2372358709262116,
-0.48444631307311825,0.27274575140626311,
-0.53975424859373689,0.32805368692688164,
-0.57526412907378843,0.39774575140626311,
-0.5875,0.47499999999999992,
-0.57526412907378843,0.55225424859373673,
-0.53975424859373689,0.62194631307311821,
-0.48444631307311836,0.67725424859373684,
-0.41475424859373694,0.71276412907378839,
0*
4,1,3,
-0.3375,-0.725,
-0.3375,-0.22499999999999998,
0.3375,-0.22499999999999998,
0.3375,-0.725,
0*
4,1,3,
0.5875,-0.475,
0.087500000000000022,-0.475,
0.087500000000000022,0.475,
0.5875,0.475,
0*
4,1,3,
0.3375,0.725,
0.3375,0.22499999999999998,
-0.3375,0.22499999999999998,
-0.3375,0.725,
0*
4,1,3,
-0.5875,0.475,
-0.087500000000000022,0.475,
-0.087500000000000022,-0.475,
-0.5875,-0.475,
0*%
%ADD10COMP136,0.25X-0.3375X-0.475X0.3375X-0.475X0.3375X0.475X-0.3375X0.475X0*%
G04 #@! TD*
G04 #@! TA.AperFunction,ComponentPad*
%AMCOMP137*
4,1,3,
-0.625,0.35,
-0.625,-0.35,
0.625,-0.35,
0.625,0.35,
0*
4,1,19,
-0.625,0.6,
-0.54774575140626314,0.58776412907378839,
-0.47805368692688172,0.55225424859373684,
-0.42274575140626314,0.49694631307311826,
-0.38723587092621159,0.42725424859373684,
-0.375,0.35,
-0.38723587092621159,0.27274575140626311,
-0.42274575140626314,0.20305368692688172,
-0.47805368692688166,0.14774575140626314,
-0.54774575140626314,0.1122358709262116,
-0.625,0.099999999999999978,
-0.702254248593737,0.1122358709262116,
-0.77194631307311823,0.14774575140626309,
-0.82725424859373686,0.20305368692688167,
-0.86276412907378841,0.27274575140626311,
-0.875,0.34999999999999992,
-0.86276412907378841,0.42725424859373679,
-0.82725424859373686,0.49694631307311821,
-0.77194631307311834,0.55225424859373684,
-0.70225424859373686,0.58776412907378839,
0*
4,1,19,
-0.625,-0.099999999999999978,
-0.54774575140626314,-0.1122358709262116,
-0.47805368692688172,-0.14774575140626311,
-0.42274575140626314,-0.20305368692688169,
-0.38723587092621159,-0.27274575140626311,
-0.375,-0.35,
-0.38723587092621159,-0.42725424859373684,
-0.42274575140626314,-0.49694631307311821,
-0.47805368692688166,-0.55225424859373684,
-0.54774575140626314,-0.58776412907378839,
-0.625,-0.6,
-0.702254248593737,-0.58776412907378839,
-0.77194631307311823,-0.55225424859373684,
-0.82725424859373686,-0.49694631307311832,
-0.86276412907378841,-0.42725424859373684,
-0.875,-0.35000000000000003,
-0.86276412907378841,-0.27274575140626317,
-0.82725424859373686,-0.20305368692688175,
-0.77194631307311834,-0.14774575140626314,
-0.70225424859373686,-0.1122358709262116,
0*
4,1,19,
0.625,-0.099999999999999978,
0.70225424859373686,-0.1122358709262116,
0.77194631307311834,-0.14774575140626311,
0.82725424859373686,-0.20305368692688169,
0.86276412907378841,-0.27274575140626311,
0.875,-0.35,
0.86276412907378841,-0.42725424859373684,
0.82725424859373686,-0.49694631307311821,
0.77194631307311834,-0.55225424859373684,
0.70225424859373686,-0.58776412907378839,
0.625,-0.6,
0.547745751406263,-0.58776412907378839,
0.47805368692688177,-0.55225424859373684,
0.42274575140626314,-0.49694631307311832,
0.38723587092621159,-0.42725424859373684,
0.375,-0.35000000000000003,
0.38723587092621159,-0.27274575140626317,
0.42274575140626314,-0.20305368692688175,
0.47805368692688166,-0.14774575140626314,
0.54774575140626314,-0.1122358709262116,
0*
4,1,19,
0.625,0.6,
0.70225424859373686,0.58776412907378839,
0.77194631307311834,0.55225424859373684,
0.82725424859373686,0.49694631307311826,
0.86276412907378841,0.42725424859373684,
0.875,0.35,
0.86276412907378841,0.27274575140626311,
0.82725424859373686,0.20305368692688172,
0.77194631307311834,0.14774575140626314,
0.70225424859373686,0.1122358709262116,
0.625,0.099999999999999978,
0.547745751406263,0.1122358709262116,
0.47805368692688177,0.14774575140626309,
0.42274575140626314,0.20305368692688167,
0.38723587092621159,0.27274575140626311,
0.375,0.34999999999999992,
0.38723587092621159,0.42725424859373679,
0.42274575140626314,0.49694631307311821,
0.47805368692688166,0.55225424859373684,
0.54774575140626314,0.58776412907378839,
0*
4,1,3,
-0.875,0.35,
-0.375,0.35,
-0.375,-0.35,
-0.875,-0.35,
0*
4,1,3,
-0.625,-0.6,
-0.625,-0.099999999999999978,
0.625,-0.099999999999999978,
0.625,-0.6,
0*
4,1,3,
0.875,-0.35,
0.375,-0.35,
0.375,0.35,
0.875,0.35,
0*
4,1,3,
0.625,0.6,
0.625,0.099999999999999978,
-0.625,0.099999999999999978,
-0.625,0.6,
0*%
%ADD11COMP137,0.25X-0.625X0.35X-0.625X-0.35X0.625X-0.35X0.625X0.35X0*%
G04 #@! TD*
G04 #@! TA.AperFunction,ComponentPad*
%ADD12O,1.75X1.2*%
G04 #@! TD*
G04 #@! TA.AperFunction,SMDPad,CuDef*
%AMCOMP138*
4,1,3,
-0.6375,-0.1,
0.6375,-0.1,
0.6375,0.1,
-0.6375,0.1,
0*
4,1,19,
-0.6375,0,
-0.60659830056250519,-0.00489434837048465,
-0.57872147477075264,-0.019098300562505249,
-0.55659830056250525,-0.041221474770752692,
-0.54239434837048461,-0.069098300562505266,
-0.5375,-0.1,
-0.54239434837048461,-0.13090169943749475,
-0.55659830056250525,-0.15877852522924732,
-0.57872147477075264,-0.18090169943749473,
-0.60659830056250519,-0.19510565162951538,
-0.6375,-0.2,
-0.66840169943749472,-0.19510565162951538,
-0.69627852522924727,-0.18090169943749476,
-0.71840169943749466,-0.15877852522924735,
-0.7326056516295153,-0.13090169943749477,
-0.73749999999999993,-0.10000000000000002,
-0.7326056516295153,-0.06909830056250528,
-0.71840169943749466,-0.041221474770752713,
-0.69627852522924727,-0.019098300562505263,
-0.66840169943749472,-0.00489434837048465,
0*
4,1,19,
0.6375,0,
0.66840169943749472,-0.00489434837048465,
0.69627852522924727,-0.019098300562505249,
0.71840169943749466,-0.041221474770752692,
0.7326056516295153,-0.069098300562505266,
0.73749999999999993,-0.1,
0.7326056516295153,-0.13090169943749475,
0.71840169943749466,-0.15877852522924732,
0.69627852522924727,-0.18090169943749473,
0.66840169943749472,-0.19510565162951538,
0.6375,-0.2,
0.60659830056250519,-0.19510565162951538,
0.57872147477075264,-0.18090169943749476,
0.55659830056250525,-0.15877852522924735,
0.54239434837048461,-0.13090169943749477,
0.5375,-0.10000000000000002,
0.54239434837048461,-0.06909830056250528,
0.55659830056250525,-0.041221474770752713,
0.57872147477075264,-0.019098300562505263,
0.60659830056250519,-0.00489434837048465,
0*
4,1,19,
0.6375,0.2,
0.66840169943749472,0.19510565162951538,
0.69627852522924727,0.18090169943749476,
0.71840169943749466,0.15877852522924732,
0.7326056516295153,0.13090169943749475,
0.73749999999999993,0.1,
0.7326056516295153,0.069098300562505266,
0.71840169943749466,0.0412214747707527,
0.69627852522924727,0.019098300562505263,
0.66840169943749472,0.00489434837048465,
0.6375,0,
0.60659830056250519,0.00489434837048465,
0.57872147477075264,0.019098300562505249,
0.55659830056250525,0.041221474770752678,
0.54239434837048461,0.069098300562505252,
0.5375,0.099999999999999992,
0.54239434837048461,0.13090169943749475,
0.55659830056250525,0.15877852522924729,
0.57872147477075264,0.18090169943749473,
0.60659830056250519,0.19510565162951538,
0*
4,1,19,
-0.6375,0.2,
-0.60659830056250519,0.19510565162951538,
-0.57872147477075264,0.18090169943749476,
-0.55659830056250525,0.15877852522924732,
-0.54239434837048461,0.13090169943749475,
-0.5375,0.1,
-0.54239434837048461,0.069098300562505266,
-0.55659830056250525,0.0412214747707527,
-0.57872147477075264,0.019098300562505263,
-0.60659830056250519,0.00489434837048465,
-0.6375,0,
-0.66840169943749472,0.00489434837048465,
-0.69627852522924727,0.019098300562505249,
-0.71840169943749466,0.041221474770752678,
-0.7326056516295153,0.069098300562505252,
-0.73749999999999993,0.099999999999999992,
-0.7326056516295153,0.13090169943749475,
-0.71840169943749466,0.15877852522924729,
-0.69627852522924727,0.18090169943749473,
-0.66840169943749472,0.19510565162951538,
0*
4,1,3,
-0.6375,-0.2,
-0.6375,0,
0.6375,0,
0.6375,-0.2,
0*
4,1,3,
0.73749999999999993,-0.1,
0.5375,-0.1,
0.5375,0.1,
0.73749999999999993,0.1,
0*
4,1,3,
0.6375,0.2,
0.6375,0,
-0.6375,0,
-0.6375,0.2,
0*
4,1,3,
-0.73749999999999993,0.1,
-0.5375,0.1,
-0.5375,-0.1,
-0.73749999999999993,-0.1,
0*%
%ADD13COMP138,0.1X-0.6375X-0.1X0.6375X-0.1X0.6375X0.1X-0.6375X0.1X0*%
G04 #@! TD*
G04 #@! TA.AperFunction,ConnectorPad*
%ADD14C,5.7*%
G04 #@! TD*
G04 #@! TA.AperFunction,ComponentPad*
%ADD15C,3.6*%
G04 #@! TD*
G04 #@! TA.AperFunction,ComponentPad*
%ADD16C,1.524*%
G04 #@! TD*
G04 #@! TA.AperFunction,SMDPad,CuDef*
%ADD17R,1.9X0.8*%
G04 #@! TD*
G04 #@! TA.AperFunction,SMDPad,CuDef*
%AMCOMP139*
4,1,3,
0.3375,0.475,
-0.3375,0.475,
-0.3375,-0.475,
0.3375,-0.475,
0*
4,1,19,
0.3375,0.725,
0.41475424859373689,0.71276412907378839,
0.48444631307311831,0.67725424859373684,
0.53975424859373689,0.62194631307311821,
0.57526412907378843,0.55225424859373684,
0.5875,0.475,
0.57526412907378843,0.39774575140626311,
0.53975424859373689,0.32805368692688175,
0.48444631307311836,0.27274575140626311,
0.41475424859373689,0.2372358709262116,
0.33750000000000008,0.22499999999999998,
0.2602457514062631,0.2372358709262116,
0.19055368692688177,0.27274575140626311,
0.13524575140626319,0.32805368692688164,
0.099735870926211639,0.39774575140626311,
0.087500000000000022,0.47499999999999992,
0.099735870926211612,0.55225424859373673,
0.13524575140626313,0.62194631307311821,
0.19055368692688168,0.67725424859373684,
0.2602457514062631,0.71276412907378839,
0*
4,1,19,
-0.3375,0.725,
-0.26024575140626316,0.71276412907378839,
-0.19055368692688174,0.67725424859373684,
-0.13524575140626316,0.62194631307311821,
-0.099735870926211639,0.55225424859373684,
-0.087500000000000022,0.475,
-0.099735870926211612,0.39774575140626311,
-0.13524575140626316,0.32805368692688175,
-0.19055368692688171,0.27274575140626311,
-0.26024575140626316,0.2372358709262116,
-0.33749999999999997,0.22499999999999998,
-0.41475424859373694,0.2372358709262116,
-0.48444631307311825,0.27274575140626311,
-0.53975424859373689,0.32805368692688164,
-0.57526412907378843,0.39774575140626311,
-0.5875,0.47499999999999992,
-0.57526412907378843,0.55225424859373673,
-0.53975424859373689,0.62194631307311821,
-0.48444631307311836,0.67725424859373684,
-0.41475424859373694,0.71276412907378839,
0*
4,1,19,
-0.3375,-0.22499999999999998,
-0.26024575140626316,-0.2372358709262116,
-0.19055368692688174,-0.27274575140626311,
-0.13524575140626316,-0.32805368692688169,
-0.099735870926211639,-0.39774575140626311,
-0.087500000000000022,-0.475,
-0.099735870926211612,-0.55225424859373684,
-0.13524575140626316,-0.62194631307311821,
-0.19055368692688171,-0.67725424859373684,
-0.26024575140626316,-0.71276412907378839,
-0.33749999999999997,-0.725,
-0.41475424859373694,-0.71276412907378839,
-0.48444631307311825,-0.67725424859373684,
-0.53975424859373689,-0.62194631307311832,
-0.57526412907378843,-0.55225424859373684,
-0.5875,-0.47500000000000003,
-0.57526412907378843,-0.39774575140626317,
-0.53975424859373689,-0.32805368692688175,
-0.48444631307311836,-0.27274575140626311,
-0.41475424859373694,-0.2372358709262116,
0*
4,1,19,
0.3375,-0.22499999999999998,
0.41475424859373689,-0.2372358709262116,
0.48444631307311831,-0.27274575140626311,
0.53975424859373689,-0.32805368692688169,
0.57526412907378843,-0.39774575140626311,
0.5875,-0.475,
0.57526412907378843,-0.55225424859373684,
0.53975424859373689,-0.62194631307311821,
0.48444631307311836,-0.67725424859373684,
0.41475424859373689,-0.71276412907378839,
0.33750000000000008,-0.725,
0.2602457514062631,-0.71276412907378839,
0.19055368692688177,-0.67725424859373684,
0.13524575140626319,-0.62194631307311832,
0.099735870926211639,-0.55225424859373684,
0.087500000000000022,-0.47500000000000003,
0.099735870926211612,-0.39774575140626317,
0.13524575140626313,-0.32805368692688175,
0.19055368692688168,-0.27274575140626311,
0.2602457514062631,-0.2372358709262116,
0*
4,1,3,
0.3375,0.725,
0.3375,0.22499999999999998,
-0.3375,0.22499999999999998,
-0.3375,0.725,
0*
4,1,3,
-0.5875,0.475,
-0.087500000000000022,0.475,
-0.087500000000000022,-0.475,
-0.5875,-0.475,
0*
4,1,3,
-0.3375,-0.725,
-0.3375,-0.22499999999999998,
0.3375,-0.22499999999999998,
0.3375,-0.725,
0*
4,1,3,
0.5875,-0.475,
0.087500000000000022,-0.475,
0.087500000000000022,0.475,
0.5875,0.475,
0*%
%ADD18COMP139,0.25X0.3375X0.475X-0.3375X0.475X-0.3375X-0.475X0.3375X-0.475X0*%
G04 #@! TD*
G04 #@! TA.AperFunction,ComponentPad*
%ADD19R,1.7X1.7*%
G04 #@! TD*
G04 #@! TA.AperFunction,ComponentPad*
%ADD20O,1.7X1.7*%
G04 #@! TD*
G04 #@! TA.AperFunction,ViaPad*
%ADD21C,0.8*%
G04 #@! TD*
G04 #@! TA.AperFunction,ViaPad*
%ADD22C,0.6*%
G04 #@! TD*
G04 #@! TA.AperFunction,Conductor*
%ADD23C,0.25*%
G04 #@! TD*
G04 #@! TA.AperFunction,Conductor*
%ADD24C,0.4*%
G04 #@! TD*
G04 #@! TA.AperFunction,Conductor*
%ADD25C,0.6*%
G04 #@! TD*
G04 #@! TA.AperFunction,Conductor*
%ADD26C,0.5*%
G04 #@! TD*
G04 #@! TA.AperFunction,Conductor*
%ADD27C,0.254*%
G04 #@! TD*
G04 APERTURE END LIST*
D10*
X0039000000Y0084000000D02*
X0042542500Y0046725000D03*
X0044617500Y0046725000D03*
D11*
X0042280000Y0073380000D03*
D12*
X0042280000Y0071380000D03*
X0042280000Y0069380000D03*
X0042280000Y0067380000D03*
X0042280000Y0065379999D03*
X0042280000Y0063379999D03*
X0042280000Y0061379999D03*
X0042280000Y0059379999D03*
X0042280000Y0057379999D03*
X0042280000Y0055379999D03*
D13*
X0046989500Y0060538573D03*
X0046989500Y0059888573D03*
X0046989500Y0059238573D03*
X0046989500Y0058588573D03*
X0046989500Y0057938573D03*
X0046989500Y0057288573D03*
X0046989500Y0056638573D03*
X0046989500Y0055988573D03*
X0046989500Y0055338573D03*
X0046989500Y0054688573D03*
X0046989500Y0054038573D03*
X0046989500Y0053388573D03*
X0054414500Y0053388573D03*
X0054414500Y0054038573D03*
X0054414500Y0054688573D03*
X0054414500Y0055338573D03*
X0054414500Y0055988573D03*
X0054414500Y0056638573D03*
X0054414500Y0057288573D03*
X0054414500Y0057938573D03*
X0054414500Y0058588573D03*
X0054414500Y0059238573D03*
X0054414500Y0059888573D03*
X0054414500Y0060538573D03*
D14*
X0052600000Y0080500000D03*
D15*
X0052600000Y0080500000D03*
D16*
X0047870000Y0072690000D03*
X0047870000Y0070150000D03*
X0047870000Y0067610000D03*
D10*
X0052458500Y0062812000D03*
X0054533500Y0062812000D03*
D17*
X0042080000Y0051250000D03*
X0042080000Y0049350000D03*
X0045080000Y0050300000D03*
D18*
X0048945499Y0062812000D03*
X0046870500Y0062812000D03*
D14*
X0052600000Y0047500000D03*
D15*
X0052600000Y0047500000D03*
D19*
X0042160000Y0078277000D03*
D20*
X0042160000Y0080817000D03*
D21*
X0048450000Y0064670000D03*
X0044100000Y0069070000D03*
X0045310000Y0071410000D03*
X0048910000Y0076030000D03*
X0050320000Y0068600000D03*
X0046220000Y0065200000D03*
X0050380000Y0071250000D03*
X0047250000Y0074320000D03*
D22*
X0044510000Y0052629999D03*
X0045266400Y0059814800D03*
X0049139978Y0057122400D03*
X0049127200Y0056208000D03*
X0049135439Y0055200239D03*
X0049127200Y0054277600D03*
X0052480000Y0058367000D03*
X0053287242Y0059213073D03*
X0053089600Y0061110200D03*
X0052175200Y0054948499D03*
X0053165800Y0055573000D03*
D23*
X0045277427Y0058588573D02*
X0046989500Y0058588573D01*
X0044352000Y0059513999D02*
X0045277427Y0058588573D01*
X0044352000Y0065307999D02*
X0044352000Y0059513999D01*
X0042280000Y0067380000D02*
X0044352000Y0065307999D01*
D24*
X0044905000Y0054050000D02*
X0041405000Y0054050000D01*
X0048241427Y0059888573D02*
X0048380000Y0059750000D01*
X0049368573Y0053388573D02*
X0046989500Y0053388573D01*
X0046989500Y0060538573D02*
X0048380000Y0060538573D01*
X0039838000Y0059706000D02*
X0040542000Y0059001999D01*
X0051080000Y0055650000D02*
X0051080000Y0055100000D01*
X0042280000Y0065379999D02*
X0041078000Y0065379999D01*
X0039730000Y0064032000D02*
X0039730000Y0059930000D01*
X0053128573Y0056648573D02*
X0053925500Y0056648573D01*
X0040542000Y0054913000D02*
X0040542000Y0057478000D01*
X0049406573Y0053388573D02*
X0052418000Y0056400000D01*
X0042280000Y0069380000D02*
X0040506000Y0069380000D01*
X0040640000Y0057379999D02*
X0040542000Y0057478000D01*
X0040506000Y0069380000D02*
X0039730000Y0068604000D01*
X0046989500Y0053388573D02*
X0045566427Y0053388573D01*
X0046989500Y0059888573D02*
X0048241427Y0059888573D01*
X0052880000Y0056400000D02*
X0053128573Y0056648573D01*
X0052418000Y0056400000D02*
X0052880000Y0056400000D01*
X0039730000Y0059930000D02*
X0039838000Y0059822000D01*
X0048380000Y0059540000D02*
X0050160000Y0057760000D01*
X0041078000Y0065379999D02*
X0039730000Y0064032000D01*
X0050160000Y0057760000D02*
X0050160000Y0056519999D01*
X0039838000Y0059822000D02*
X0039838000Y0059706000D01*
X0045566427Y0053388573D02*
X0044905000Y0054050000D01*
X0048380000Y0059750000D02*
X0048380000Y0059540000D01*
X0040542000Y0059001999D02*
X0040542000Y0057478000D01*
X0051080000Y0055100000D02*
X0049368573Y0053388573D01*
X0041405000Y0054050000D02*
X0040542000Y0054913000D01*
X0041180000Y0061379999D02*
X0039730000Y0059930000D01*
X0039730000Y0068604000D02*
X0039730000Y0064032000D01*
X0048380000Y0060538573D02*
X0048380000Y0059750000D01*
X0042280000Y0061379999D02*
X0041180000Y0061379999D01*
X0050160000Y0056519999D02*
X0050980000Y0055700000D01*
X0042280000Y0057379999D02*
X0040640000Y0057379999D01*
D25*
X0055340000Y0068490000D02*
X0053940000Y0069890000D01*
X0047080000Y0070150000D02*
X0045280000Y0068350000D01*
X0055340000Y0063640000D02*
X0055340000Y0068490000D01*
D24*
X0044805000Y0050025000D02*
X0044805000Y0047037500D01*
X0055318573Y0055988573D02*
X0055568573Y0055988573D01*
X0055830000Y0052550000D02*
X0054680000Y0051400000D01*
D25*
X0047621000Y0070150000D02*
X0047080000Y0070150000D01*
D26*
X0055610000Y0055989999D02*
X0055810000Y0056190000D01*
D24*
X0044805000Y0047037500D02*
X0044617500Y0046850000D01*
X0055830000Y0055727146D02*
X0055830000Y0052550000D01*
X0055568573Y0055988573D02*
X0055830000Y0055727146D01*
D26*
X0055780000Y0056220000D02*
X0055780000Y0061311499D01*
D25*
X0045280000Y0068350000D02*
X0045280000Y0064402500D01*
D26*
X0055780000Y0061311499D02*
X0054279500Y0062812000D01*
D25*
X0054766000Y0063066000D02*
X0055340000Y0063640000D01*
D24*
X0055830000Y0055727146D02*
X0055830000Y0056170000D01*
X0055830000Y0056170000D02*
X0055810000Y0056190000D01*
X0045080000Y0050300000D02*
X0044805000Y0050025000D01*
X0055568573Y0055988573D02*
X0054414500Y0055988573D01*
D26*
X0055810000Y0056190000D02*
X0055780000Y0056220000D01*
D25*
X0053940000Y0069890000D02*
X0048130000Y0069890000D01*
D24*
X0046180000Y0051400000D02*
X0045080000Y0050300000D01*
D25*
X0045280000Y0064402500D02*
X0046870500Y0062812000D01*
D24*
X0054680000Y0051400000D02*
X0046180000Y0051400000D01*
D25*
X0048130000Y0069890000D02*
X0047870000Y0070150000D01*
D23*
X0044910357Y0056638573D02*
X0043651784Y0055379999D01*
X0046989500Y0056638573D02*
X0044910357Y0056638573D01*
X0043651784Y0055379999D02*
X0042280000Y0055379999D01*
X0043740000Y0061920000D02*
X0043740000Y0058852000D01*
X0042280000Y0063379999D02*
X0043740000Y0061920000D01*
X0044653427Y0057938573D02*
X0046989500Y0057938573D01*
X0043740000Y0058852000D02*
X0044653427Y0057938573D01*
X0045842627Y0059238573D02*
X0046989500Y0059238573D01*
X0043960000Y0052629999D02*
X0042580000Y0051250000D01*
X0044510000Y0052629999D02*
X0043960000Y0052629999D01*
X0045266400Y0059814800D02*
X0045842627Y0059238573D01*
X0042580000Y0051250000D02*
X0042080000Y0051250000D01*
X0047949662Y0055988573D02*
X0046989500Y0055988573D01*
X0049083489Y0057122400D02*
X0047949662Y0055988573D01*
X0049139978Y0057122400D02*
X0049083489Y0057122400D01*
X0049127200Y0056208000D02*
X0048804807Y0056208000D01*
X0048804807Y0056208000D02*
X0047935380Y0055338573D01*
X0047935380Y0055338573D02*
X0046989500Y0055338573D01*
X0049135439Y0055200239D02*
X0048930239Y0055200239D01*
X0048418573Y0054688573D02*
X0046989500Y0054688573D01*
X0048930239Y0055200239D02*
X0048418573Y0054688573D01*
X0049127200Y0054277600D02*
X0048888173Y0054038573D01*
X0048888173Y0054038573D02*
X0046989500Y0054038573D01*
X0051880000Y0057700000D02*
X0053488066Y0057700000D01*
X0050690000Y0063810000D02*
X0050690000Y0058890000D01*
X0053726639Y0057938573D02*
X0054414500Y0057938573D01*
X0050690000Y0058890000D02*
X0051880000Y0057700000D01*
X0048860000Y0065640000D02*
X0050690000Y0063810000D01*
X0053488066Y0057700000D02*
X0053726639Y0057938573D01*
X0048860000Y0067289999D02*
X0048860000Y0065640000D01*
X0047870000Y0067610000D02*
X0048540000Y0067610000D01*
X0048540000Y0067610000D02*
X0048860000Y0067289999D01*
X0052701572Y0058588573D02*
X0054414500Y0058588573D01*
X0052480000Y0058367000D02*
X0052701572Y0058588573D01*
X0053287242Y0059213073D02*
X0053312742Y0059238573D01*
X0053312742Y0059238573D02*
X0054414500Y0059238573D01*
X0053089600Y0061110200D02*
X0053089600Y0060540400D01*
X0053352480Y0060262732D02*
X0053726639Y0059888573D01*
X0053089600Y0060540400D02*
X0053352480Y0060277519D01*
X0053726639Y0059888573D02*
X0054414500Y0059888573D01*
X0053352480Y0060277519D02*
X0053352480Y0060262732D01*
X0052581500Y0054948499D02*
X0052841426Y0054688573D01*
X0052175200Y0054948499D02*
X0052581500Y0054948499D01*
X0052841426Y0054688573D02*
X0054414500Y0054688573D01*
X0042280000Y0059379999D02*
X0044371427Y0057288573D01*
X0044371427Y0057288573D02*
X0046989500Y0057288573D01*
X0053400227Y0055338573D02*
X0054414500Y0055338573D01*
X0053165800Y0055573000D02*
X0053400227Y0055338573D01*
D27*
X0050353366Y0083169089D02*
X0050342956Y0083160293D01*
X0050323004Y0083141491D01*
X0050287146Y0083080215D01*
X0050290108Y0083009281D01*
X0050320323Y0082960697D01*
X0052510905Y0080770115D01*
X0052573217Y0080736089D01*
X0052644031Y0080741154D01*
X0052689095Y0080770115D01*
X0054880072Y0082961093D01*
X0054914099Y0083023405D01*
X0054909034Y0083094220D01*
X0054877713Y0083141583D01*
X0054866318Y0083152397D01*
X0054855937Y0083161232D01*
X0054587140Y0083366000D01*
X0055966000Y0083366000D01*
X0055966000Y0081399684D01*
X0055908698Y0081606310D01*
X0055904352Y0081619226D01*
X0055769864Y0081957177D01*
X0055764148Y0081969548D01*
X0055593948Y0082290997D01*
X0055586931Y0082302678D01*
X0055383012Y0082603866D01*
X0055374772Y0082614721D01*
X0055243419Y0082769608D01*
X0055184105Y0082808625D01*
X0055113112Y0082809380D01*
X0055058228Y0082777208D01*
X0052870115Y0080589095D01*
X0052836089Y0080526783D01*
X0052841154Y0080455968D01*
X0052870115Y0080410905D01*
X0055058180Y0078222840D01*
X0055120492Y0078188814D01*
X0055191306Y0078193879D01*
X0055242800Y0078229770D01*
X0055359941Y0078365958D01*
X0055368256Y0078376756D01*
X0055574273Y0078676513D01*
X0055581373Y0078688145D01*
X0055753812Y0079008398D01*
X0055759615Y0079020729D01*
X0055896457Y0079357732D01*
X0055900894Y0079370617D01*
X0055966000Y0079599174D01*
X0055966000Y0069185899D01*
X0055939221Y0069212866D01*
X0055936644Y0069214938D01*
X0054607329Y0070544253D01*
X0054544252Y0070608665D01*
X0054522484Y0070626418D01*
X0054486050Y0070649898D01*
X0054452165Y0070676948D01*
X0054428395Y0070691917D01*
X0054398201Y0070706513D01*
X0054370018Y0070724676D01*
X0054344858Y0070737166D01*
X0054304122Y0070751993D01*
X0054265089Y0070770862D01*
X0054238595Y0070780192D01*
X0054205917Y0070787736D01*
X0054174410Y0070799204D01*
X0054147106Y0070805810D01*
X0054104091Y0070811244D01*
X0054061859Y0070820994D01*
X0054033955Y0070824223D01*
X0053993385Y0070824365D01*
X0053991231Y0070824500D01*
X0053954581Y0070824500D01*
X0053852570Y0070824856D01*
X0053849293Y0070824500D01*
X0049096343Y0070824500D01*
X0049088683Y0070840926D01*
X0049077701Y0070859947D01*
X0048950190Y0071042052D01*
X0048936071Y0071058876D01*
X0048778876Y0071216072D01*
X0048762052Y0071230190D01*
X0048579948Y0071357701D01*
X0048560927Y0071368683D01*
X0048450285Y0071420276D01*
X0048560676Y0071471752D01*
X0048579696Y0071482734D01*
X0048642875Y0071526972D01*
X0048687204Y0071582429D01*
X0048694513Y0071653048D01*
X0048659700Y0071719280D01*
X0047959095Y0072419885D01*
X0047896783Y0072453911D01*
X0047825968Y0072448846D01*
X0047780905Y0072419885D01*
X0047080300Y0071719280D01*
X0047046274Y0071656968D01*
X0047051339Y0071586153D01*
X0047097125Y0071526972D01*
X0047160304Y0071482734D01*
X0047179324Y0071471752D01*
X0047289715Y0071420276D01*
X0047179074Y0071368683D01*
X0047160053Y0071357701D01*
X0046977948Y0071230190D01*
X0046961124Y0071216072D01*
X0046803928Y0071058876D01*
X0046790812Y0071043247D01*
X0046767239Y0071035314D01*
X0046727944Y0071016991D01*
X0046687011Y0071002736D01*
X0046661679Y0070990600D01*
X0046633237Y0070972828D01*
X0046602848Y0070958657D01*
X0046578872Y0070944022D01*
X0046544618Y0070917452D01*
X0046507855Y0070894480D01*
X0046485839Y0070877031D01*
X0046457030Y0070848422D01*
X0046455435Y0070847016D01*
X0046429898Y0070821479D01*
X0046357134Y0070749221D01*
X0046355058Y0070746639D01*
X0044625748Y0069017330D01*
X0044561335Y0068954252D01*
X0044543582Y0068932484D01*
X0044520102Y0068896050D01*
X0044493052Y0068862165D01*
X0044478083Y0068838395D01*
X0044463487Y0068808201D01*
X0044445324Y0068780018D01*
X0044432834Y0068754858D01*
X0044418007Y0068714122D01*
X0044399138Y0068675089D01*
X0044389808Y0068648595D01*
X0044382264Y0068615917D01*
X0044370796Y0068584410D01*
X0044364190Y0068557106D01*
X0044358756Y0068514091D01*
X0044349006Y0068471859D01*
X0044345777Y0068443955D01*
X0044345635Y0068403385D01*
X0044345500Y0068401231D01*
X0044345500Y0068364581D01*
X0044345144Y0068262570D01*
X0044345500Y0068259293D01*
X0044345500Y0066388594D01*
X0043730956Y0067003138D01*
X0043755888Y0067074938D01*
X0043761556Y0067098191D01*
X0043791909Y0067307524D01*
X0043793078Y0067331430D01*
X0043783298Y0067542725D01*
X0043779926Y0067566420D01*
X0043730368Y0067772055D01*
X0043722576Y0067794685D01*
X0043635027Y0067987238D01*
X0043623096Y0068007987D01*
X0043500716Y0068180511D01*
X0043485077Y0068198629D01*
X0043332281Y0068344899D01*
X0043313498Y0068359733D01*
X0043280742Y0068380884D01*
X0043400407Y0068474882D01*
X0043417739Y0068491387D01*
X0043556308Y0068651073D01*
X0043570207Y0068670559D01*
X0043676080Y0068853568D01*
X0043686044Y0068875330D01*
X0043755401Y0069075057D01*
X0043761070Y0069098315D01*
X0043762463Y0069107925D01*
X0043752440Y0069178210D01*
X0043706009Y0069231919D01*
X0043637766Y0069252000D01*
X0040926483Y0069252000D01*
X0040858362Y0069231998D01*
X0040811869Y0069178342D01*
X0040801765Y0069108068D01*
X0040803990Y0069096479D01*
X0040830107Y0068988109D01*
X0040837899Y0068965479D01*
X0040925408Y0068773012D01*
X0040937339Y0068752263D01*
X0041059664Y0068579817D01*
X0041075303Y0068561699D01*
X0041228030Y0068415495D01*
X0041246813Y0068400661D01*
X0041279230Y0068379730D01*
X0041159247Y0068285482D01*
X0041141915Y0068268976D01*
X0041003283Y0068109217D01*
X0040989384Y0068089732D01*
X0040883463Y0067906641D01*
X0040873499Y0067884879D01*
X0040804111Y0067685062D01*
X0040798443Y0067661809D01*
X0040768091Y0067452476D01*
X0040766922Y0067428570D01*
X0040776702Y0067217275D01*
X0040780074Y0067193580D01*
X0040829632Y0066987945D01*
X0040837424Y0066965315D01*
X0040924973Y0066772762D01*
X0040936904Y0066752013D01*
X0041059284Y0066579488D01*
X0041074923Y0066561371D01*
X0041227719Y0066415100D01*
X0041246502Y0066400267D01*
X0041279258Y0066379115D01*
X0041159593Y0066285118D01*
X0041142261Y0066268613D01*
X0041003692Y0066108926D01*
X0040989793Y0066089440D01*
X0040883920Y0065906431D01*
X0040873956Y0065884670D01*
X0040804599Y0065684943D01*
X0040798930Y0065661685D01*
X0040797537Y0065652075D01*
X0040807560Y0065581790D01*
X0040853991Y0065528081D01*
X0040922234Y0065507999D01*
X0042408000Y0065507999D01*
X0042408000Y0065251999D01*
X0040926483Y0065251999D01*
X0040858362Y0065231998D01*
X0040811869Y0065178342D01*
X0040801765Y0065108068D01*
X0040803990Y0065096479D01*
X0040830107Y0064988109D01*
X0040837899Y0064965479D01*
X0040925408Y0064773011D01*
X0040937339Y0064752263D01*
X0041059664Y0064579816D01*
X0041075303Y0064561699D01*
X0041228030Y0064415494D01*
X0041246813Y0064400661D01*
X0041279230Y0064379729D01*
X0041159247Y0064285482D01*
X0041141915Y0064268975D01*
X0041003283Y0064109217D01*
X0040989384Y0064089732D01*
X0040883463Y0063906641D01*
X0040873499Y0063884879D01*
X0040804111Y0063685062D01*
X0040798443Y0063661809D01*
X0040768091Y0063452476D01*
X0040766922Y0063428570D01*
X0040776702Y0063217275D01*
X0040780074Y0063193580D01*
X0040829632Y0062987945D01*
X0040837424Y0062965315D01*
X0040924973Y0062772762D01*
X0040936904Y0062752013D01*
X0041059284Y0062579488D01*
X0041074923Y0062561371D01*
X0041227719Y0062415101D01*
X0041246502Y0062400267D01*
X0041279258Y0062379115D01*
X0041159593Y0062285118D01*
X0041142261Y0062268613D01*
X0041003692Y0062108927D01*
X0040989793Y0062089441D01*
X0040883920Y0061906431D01*
X0040873956Y0061884670D01*
X0040804599Y0061684943D01*
X0040798930Y0061661685D01*
X0040797537Y0061652075D01*
X0040807560Y0061581790D01*
X0040853991Y0061528081D01*
X0040922234Y0061507999D01*
X0042408000Y0061507999D01*
X0042408000Y0061251999D01*
X0040926483Y0061251999D01*
X0040858362Y0061231998D01*
X0040811869Y0061178342D01*
X0040801765Y0061108068D01*
X0040803990Y0061096479D01*
X0040830107Y0060988109D01*
X0040837899Y0060965479D01*
X0040925408Y0060773012D01*
X0040937339Y0060752263D01*
X0041059664Y0060579817D01*
X0041075303Y0060561699D01*
X0041228030Y0060415495D01*
X0041246813Y0060400661D01*
X0041279230Y0060379729D01*
X0041159247Y0060285482D01*
X0041141915Y0060268975D01*
X0041003283Y0060109217D01*
X0040989384Y0060089732D01*
X0040883463Y0059906641D01*
X0040873499Y0059884879D01*
X0040804111Y0059685062D01*
X0040798443Y0059661809D01*
X0040768091Y0059452476D01*
X0040766922Y0059428570D01*
X0040776702Y0059217275D01*
X0040780074Y0059193580D01*
X0040829632Y0058987945D01*
X0040837424Y0058965315D01*
X0040924973Y0058772762D01*
X0040936904Y0058752013D01*
X0041059284Y0058579488D01*
X0041074923Y0058561371D01*
X0041227719Y0058415101D01*
X0041246502Y0058400267D01*
X0041279258Y0058379115D01*
X0041159593Y0058285118D01*
X0041142261Y0058268613D01*
X0041003692Y0058108927D01*
X0040989793Y0058089441D01*
X0040883920Y0057906431D01*
X0040873956Y0057884670D01*
X0040804599Y0057684943D01*
X0040798930Y0057661685D01*
X0040797537Y0057652075D01*
X0040807560Y0057581790D01*
X0040853991Y0057528081D01*
X0040922234Y0057507999D01*
X0042408000Y0057507999D01*
X0042408000Y0057251999D01*
X0040926483Y0057251999D01*
X0040858362Y0057231998D01*
X0040811869Y0057178342D01*
X0040801765Y0057108068D01*
X0040803990Y0057096479D01*
X0040830107Y0056988109D01*
X0040837899Y0056965479D01*
X0040925408Y0056773012D01*
X0040937339Y0056752263D01*
X0041059664Y0056579817D01*
X0041075303Y0056561699D01*
X0041228030Y0056415495D01*
X0041246813Y0056400661D01*
X0041279230Y0056379729D01*
X0041159247Y0056285482D01*
X0041141915Y0056268975D01*
X0041003283Y0056109217D01*
X0040989384Y0056089732D01*
X0040883463Y0055906641D01*
X0040873499Y0055884879D01*
X0040804111Y0055685062D01*
X0040798443Y0055661809D01*
X0040768091Y0055452476D01*
X0040766922Y0055428570D01*
X0040776702Y0055217275D01*
X0040780074Y0055193580D01*
X0040829632Y0054987945D01*
X0040837424Y0054965315D01*
X0040924973Y0054772762D01*
X0040936904Y0054752013D01*
X0041059284Y0054579488D01*
X0041074923Y0054561371D01*
X0041227719Y0054415101D01*
X0041246502Y0054400267D01*
X0041424200Y0054285528D01*
X0041445450Y0054274514D01*
X0041641639Y0054195448D01*
X0041664587Y0054188649D01*
X0041872187Y0054148108D01*
X0041890183Y0054145922D01*
X0041895745Y0054145650D01*
X0041901899Y0054145500D01*
X0042607846Y0054145500D01*
X0042619813Y0054146070D01*
X0042777533Y0054161118D01*
X0042801035Y0054165643D01*
X0043004003Y0054225187D01*
X0043026226Y0054234076D01*
X0043214272Y0054330926D01*
X0043234413Y0054343856D01*
X0043400753Y0054474518D01*
X0043418085Y0054491023D01*
X0043530439Y0054620500D01*
X0043573017Y0054620500D01*
X0043595652Y0054618359D01*
X0043663729Y0054620500D01*
X0043691640Y0054620500D01*
X0043707430Y0054621493D01*
X0043711441Y0054622000D01*
X0043755632Y0054623389D01*
X0043786825Y0054628330D01*
X0043806276Y0054633981D01*
X0043826374Y0054636520D01*
X0043856965Y0054644374D01*
X0043898079Y0054660652D01*
X0043940529Y0054672985D01*
X0043969516Y0054685529D01*
X0043986953Y0054695841D01*
X0044005783Y0054703296D01*
X0044033461Y0054718511D01*
X0044069231Y0054744499D01*
X0044107286Y0054767005D01*
X0044132241Y0054786363D01*
X0044146562Y0054800684D01*
X0044162952Y0054812591D01*
X0044185976Y0054834212D01*
X0044214167Y0054868289D01*
X0045224952Y0055879073D01*
X0045617501Y0055879073D01*
X0045617501Y0055848687D01*
X0045618579Y0055832244D01*
X0045634240Y0055713278D01*
X0045642753Y0055681505D01*
X0045650181Y0055663573D01*
X0045642753Y0055645641D01*
X0045634240Y0055613869D01*
X0045618578Y0055494904D01*
X0045617500Y0055478458D01*
X0045617501Y0055198689D01*
X0045618579Y0055182244D01*
X0045634240Y0055063278D01*
X0045642753Y0055031504D01*
X0045650181Y0055013573D01*
X0045642753Y0054995641D01*
X0045634240Y0054963869D01*
X0045618578Y0054844904D01*
X0045617500Y0054828458D01*
X0045617501Y0054548688D01*
X0045618579Y0054532244D01*
X0045634240Y0054413278D01*
X0045642753Y0054381505D01*
X0045650181Y0054363573D01*
X0045642753Y0054345641D01*
X0045634240Y0054313869D01*
X0045618578Y0054194904D01*
X0045617500Y0054178458D01*
X0045617501Y0053898689D01*
X0045618579Y0053882244D01*
X0045634240Y0053763278D01*
X0045642753Y0053731505D01*
X0045650452Y0053712919D01*
X0045643241Y0053695510D01*
X0045634728Y0053663740D01*
X0045626997Y0053605019D01*
X0045637936Y0053534870D01*
X0045685064Y0053481772D01*
X0045751919Y0053462573D01*
X0045791431Y0053462573D01*
X0045818051Y0053427882D01*
X0045841309Y0053404624D01*
X0045958665Y0053314572D01*
X0045751920Y0053314572D01*
X0045683799Y0053294571D01*
X0045637306Y0053240915D01*
X0045626998Y0053172128D01*
X0045634728Y0053113408D01*
X0045643241Y0053081635D01*
X0045704504Y0052933732D01*
X0045720951Y0052905246D01*
X0045818408Y0052778239D01*
X0045841666Y0052754981D01*
X0045968673Y0052657523D01*
X0045997159Y0052641076D01*
X0046145062Y0052579814D01*
X0046176834Y0052571301D01*
X0046295707Y0052555651D01*
X0046312153Y0052554573D01*
X0046789500Y0052554573D01*
X0046857621Y0052574574D01*
X0046904114Y0052628231D01*
X0046915500Y0052680572D01*
X0046915500Y0053188573D01*
X0046910949Y0053204074D01*
X0047063500Y0053204074D01*
X0047063500Y0052680574D01*
X0047083501Y0052612453D01*
X0047137158Y0052565960D01*
X0047189500Y0052554574D01*
X0047666846Y0052554574D01*
X0047683291Y0052555651D01*
X0047802165Y0052571301D01*
X0047833938Y0052579814D01*
X0047981841Y0052641076D01*
X0048010327Y0052657523D01*
X0048137333Y0052754981D01*
X0048160592Y0052778239D01*
X0048258049Y0052905246D01*
X0048274496Y0052933732D01*
X0048335758Y0053081635D01*
X0048344272Y0053113406D01*
X0048359922Y0053232280D01*
X0048361000Y0053248727D01*
X0048361000Y0053279073D01*
X0048809405Y0053279073D01*
X0048832041Y0053276933D01*
X0048900118Y0053279073D01*
X0048928029Y0053279073D01*
X0048943819Y0053280066D01*
X0048947829Y0053280573D01*
X0048992021Y0053281962D01*
X0049023213Y0053286902D01*
X0049042665Y0053292553D01*
X0049062763Y0053295093D01*
X0049093354Y0053302947D01*
X0049134468Y0053319225D01*
X0049176918Y0053331558D01*
X0049205906Y0053344102D01*
X0049210409Y0053346765D01*
X0049302220Y0053355121D01*
X0049329736Y0053360769D01*
X0049502244Y0053416820D01*
X0049527825Y0053428424D01*
X0049683628Y0053521302D01*
X0049706004Y0053538285D01*
X0049837358Y0053663371D01*
X0049855413Y0053684891D01*
X0049955791Y0053835971D01*
X0049968631Y0053860954D01*
X0050033043Y0054030518D01*
X0050040029Y0054057726D01*
X0050065273Y0054237347D01*
X0050066487Y0054253125D01*
X0050066804Y0054275842D01*
X0050066031Y0054291645D01*
X0050045812Y0054471900D01*
X0050039588Y0054499292D01*
X0049979936Y0054670589D01*
X0049967799Y0054695921D01*
X0049945786Y0054731150D01*
X0049964030Y0054758610D01*
X0049976870Y0054783592D01*
X0050041282Y0054953157D01*
X0050048268Y0054980365D01*
X0050073512Y0055159986D01*
X0050074726Y0055175764D01*
X0050075043Y0055198481D01*
X0050074270Y0055214284D01*
X0050054051Y0055394539D01*
X0050047827Y0055421931D01*
X0049988175Y0055593228D01*
X0049976038Y0055618560D01*
X0049918628Y0055710436D01*
X0049955791Y0055766371D01*
X0049968631Y0055791354D01*
X0050033043Y0055960918D01*
X0050040029Y0055988126D01*
X0050065273Y0056167747D01*
X0050066487Y0056183525D01*
X0050066804Y0056206242D01*
X0050066031Y0056222045D01*
X0050045812Y0056402300D01*
X0050039588Y0056429692D01*
X0049979936Y0056600989D01*
X0049967799Y0056626321D01*
X0049950639Y0056653784D01*
X0049968569Y0056680771D01*
X0049981409Y0056705754D01*
X0050045821Y0056875318D01*
X0050052807Y0056902526D01*
X0050078051Y0057082147D01*
X0050079265Y0057097925D01*
X0050079582Y0057120642D01*
X0050078809Y0057136444D01*
X0050058590Y0057316700D01*
X0050052366Y0057344092D01*
X0049992714Y0057515389D01*
X0049980577Y0057540721D01*
X0049884458Y0057694545D01*
X0049867010Y0057716560D01*
X0049739199Y0057845265D01*
X0049717307Y0057862867D01*
X0049564158Y0057960058D01*
X0049538911Y0057972372D01*
X0049368035Y0058033218D01*
X0049340687Y0058039632D01*
X0049160577Y0058061110D01*
X0049132487Y0058061306D01*
X0048952095Y0058042345D01*
X0048924661Y0058036314D01*
X0048752952Y0057977860D01*
X0048727535Y0057965899D01*
X0048573043Y0057870855D01*
X0048550908Y0057853561D01*
X0048421313Y0057726652D01*
X0048403560Y0057704884D01*
X0048335038Y0057598559D01*
X0048328818Y0057613573D01*
X0048336247Y0057631505D01*
X0048344760Y0057663277D01*
X0048360422Y0057782242D01*
X0048361500Y0057798688D01*
X0048361499Y0058078457D01*
X0048360421Y0058094902D01*
X0048344760Y0058213868D01*
X0048336247Y0058245641D01*
X0048328818Y0058263573D01*
X0048336247Y0058281504D01*
X0048344760Y0058313277D01*
X0048360422Y0058432242D01*
X0048361500Y0058448688D01*
X0048361499Y0058728457D01*
X0048360421Y0058744901D01*
X0048344760Y0058863868D01*
X0048336247Y0058895641D01*
X0048328818Y0058913573D01*
X0048336247Y0058931505D01*
X0048344760Y0058963277D01*
X0048360422Y0059082242D01*
X0048361500Y0059098687D01*
X0048361499Y0059378457D01*
X0048360421Y0059394902D01*
X0048344760Y0059513868D01*
X0048336247Y0059545641D01*
X0048328548Y0059564227D01*
X0048335758Y0059581635D01*
X0048344272Y0059613406D01*
X0048352003Y0059672126D01*
X0048341064Y0059742275D01*
X0048293936Y0059795373D01*
X0048227081Y0059814572D01*
X0048187569Y0059814572D01*
X0048160949Y0059849264D01*
X0048137691Y0059872522D01*
X0048020335Y0059962573D01*
X0048227080Y0059962573D01*
X0048295201Y0059982575D01*
X0048341694Y0060036231D01*
X0048352002Y0060105018D01*
X0048344272Y0060163737D01*
X0048335758Y0060195510D01*
X0048328277Y0060213573D01*
X0048335758Y0060231635D01*
X0048344272Y0060263406D01*
X0048352003Y0060322126D01*
X0048341064Y0060392275D01*
X0048293936Y0060445374D01*
X0048227081Y0060464573D01*
X0047189500Y0060464573D01*
X0047121379Y0060444571D01*
X0047074886Y0060390915D01*
X0047063500Y0060338573D01*
X0047063500Y0060088573D01*
X0047068051Y0060073071D01*
X0046915500Y0060073071D01*
X0046915500Y0060738573D01*
X0047063500Y0060738573D01*
X0047083501Y0060670452D01*
X0047137158Y0060623959D01*
X0047189500Y0060612573D01*
X0048227080Y0060612573D01*
X0048295201Y0060632575D01*
X0048341694Y0060686231D01*
X0048352002Y0060755018D01*
X0048344272Y0060813738D01*
X0048335758Y0060845511D01*
X0048274496Y0060993414D01*
X0048258049Y0061021900D01*
X0048160592Y0061148907D01*
X0048137333Y0061172165D01*
X0048010327Y0061269622D01*
X0047981841Y0061286069D01*
X0047833938Y0061347332D01*
X0047802166Y0061355845D01*
X0047683293Y0061371494D01*
X0047666847Y0061372573D01*
X0047189500Y0061372573D01*
X0047121379Y0061352571D01*
X0047074886Y0061298915D01*
X0047063500Y0061246573D01*
X0047063500Y0060738573D01*
X0046915500Y0060738573D01*
X0046915500Y0061246572D01*
X0046895498Y0061314693D01*
X0046841842Y0061361186D01*
X0046789500Y0061372572D01*
X0046312154Y0061372572D01*
X0046295709Y0061371494D01*
X0046176835Y0061355845D01*
X0046145062Y0061347332D01*
X0045997159Y0061286069D01*
X0045968673Y0061269622D01*
X0045841666Y0061172165D01*
X0045818408Y0061148907D01*
X0045720951Y0061021900D01*
X0045704504Y0060993414D01*
X0045643241Y0060845511D01*
X0045634728Y0060813739D01*
X0045619078Y0060694866D01*
X0045618205Y0060681553D01*
X0045494457Y0060725618D01*
X0045467109Y0060732033D01*
X0045286999Y0060753510D01*
X0045258909Y0060753706D01*
X0045111500Y0060738213D01*
X0045111500Y0063249417D01*
X0045648500Y0062712418D01*
X0045648500Y0062286600D01*
X0045649173Y0062273596D01*
X0045660147Y0062167829D01*
X0045665950Y0062140958D01*
X0045721926Y0061973178D01*
X0045734306Y0061946751D01*
X0045827378Y0061796349D01*
X0045845504Y0061773478D01*
X0045970679Y0061648522D01*
X0045993581Y0061630435D01*
X0046144146Y0061537625D01*
X0046170595Y0061525292D01*
X0046338472Y0061469610D01*
X0046365296Y0061463859D01*
X0046469757Y0061453156D01*
X0046482600Y0061452500D01*
X0047258400Y0061452500D01*
X0047271404Y0061453173D01*
X0047377170Y0061464147D01*
X0047404042Y0061469950D01*
X0047571822Y0061525926D01*
X0047598248Y0061538306D01*
X0047748651Y0061631378D01*
X0047771521Y0061649504D01*
X0047896478Y0061774679D01*
X0047908316Y0061789668D01*
X0047920899Y0061773792D01*
X0048045991Y0061648917D01*
X0048068893Y0061630830D01*
X0048219359Y0061538082D01*
X0048245807Y0061525749D01*
X0048413573Y0061470103D01*
X0048440399Y0061464352D01*
X0048544795Y0061453655D01*
X0048557637Y0061453000D01*
X0048691500Y0061453000D01*
X0048759620Y0061473002D01*
X0048806114Y0061526658D01*
X0048817500Y0061579000D01*
X0048817500Y0064044999D01*
X0048797498Y0064113119D01*
X0048743842Y0064159613D01*
X0048691500Y0064170998D01*
X0048557638Y0064170998D01*
X0048544635Y0064170326D01*
X0048438934Y0064159358D01*
X0048412061Y0064153555D01*
X0048244392Y0064097618D01*
X0048217965Y0064085238D01*
X0048067662Y0063992227D01*
X0048044792Y0063974101D01*
X0047919917Y0063849008D01*
X0047908326Y0063834333D01*
X0047895496Y0063850521D01*
X0047770320Y0063975477D01*
X0047747419Y0063993565D01*
X0047596854Y0064086375D01*
X0047570405Y0064098708D01*
X0047402528Y0064154390D01*
X0047375704Y0064160140D01*
X0047271243Y0064170844D01*
X0047258400Y0064171500D01*
X0046832582Y0064171500D01*
X0046214500Y0064789581D01*
X0046214500Y0067962918D01*
X0047181682Y0068930100D01*
X0047289123Y0068880000D01*
X0047179074Y0068828683D01*
X0047160053Y0068817701D01*
X0046977948Y0068690190D01*
X0046961124Y0068676072D01*
X0046803928Y0068518876D01*
X0046789810Y0068502052D01*
X0046662299Y0068319947D01*
X0046651317Y0068300926D01*
X0046557365Y0068099446D01*
X0046549853Y0068078807D01*
X0046492315Y0067864074D01*
X0046488501Y0067842444D01*
X0046469126Y0067620981D01*
X0046469126Y0067599019D01*
X0046488501Y0067377556D01*
X0046492315Y0067355926D01*
X0046549853Y0067141193D01*
X0046557365Y0067120554D01*
X0046651317Y0066919073D01*
X0046662299Y0066900053D01*
X0046789810Y0066717948D01*
X0046803928Y0066701123D01*
X0046961124Y0066543927D01*
X0046977948Y0066529810D01*
X0047160052Y0066402299D01*
X0047179073Y0066391317D01*
X0047380554Y0066297365D01*
X0047401193Y0066289852D01*
X0047615926Y0066232315D01*
X0047637556Y0066228500D01*
X0047859019Y0066209126D01*
X0047880981Y0066209126D01*
X0048100500Y0066228331D01*
X0048100500Y0065718767D01*
X0048098360Y0065696132D01*
X0048100500Y0065628055D01*
X0048100500Y0065600144D01*
X0048101493Y0065584354D01*
X0048102000Y0065580343D01*
X0048103389Y0065536152D01*
X0048108330Y0065504959D01*
X0048113981Y0065485507D01*
X0048116520Y0065465409D01*
X0048124374Y0065434819D01*
X0048140652Y0065393705D01*
X0048152985Y0065351254D01*
X0048165529Y0065322267D01*
X0048175841Y0065304831D01*
X0048183296Y0065286001D01*
X0048198511Y0065258323D01*
X0048224499Y0065222553D01*
X0048247005Y0065184498D01*
X0048266363Y0065159543D01*
X0048280684Y0065145222D01*
X0048292592Y0065128832D01*
X0048314212Y0065105807D01*
X0048348289Y0065077617D01*
X0049254906Y0064170999D01*
X0049199500Y0064170999D01*
X0049131379Y0064150998D01*
X0049084886Y0064097342D01*
X0049073499Y0064045000D01*
X0049073499Y0061579001D01*
X0049093502Y0061510880D01*
X0049147158Y0061464387D01*
X0049199500Y0061453001D01*
X0049333362Y0061453001D01*
X0049346365Y0061453674D01*
X0049452066Y0061464641D01*
X0049478939Y0061470444D01*
X0049646608Y0061526382D01*
X0049673035Y0061538762D01*
X0049823338Y0061631772D01*
X0049846208Y0061649899D01*
X0049930500Y0061734337D01*
X0049930500Y0058968767D01*
X0049928360Y0058946132D01*
X0049930500Y0058878055D01*
X0049930500Y0058850144D01*
X0049931493Y0058834354D01*
X0049932000Y0058830343D01*
X0049933389Y0058786152D01*
X0049938330Y0058754959D01*
X0049943981Y0058735507D01*
X0049946520Y0058715410D01*
X0049954374Y0058684819D01*
X0049970652Y0058643705D01*
X0049982985Y0058601254D01*
X0049995529Y0058572267D01*
X0050005841Y0058554831D01*
X0050013296Y0058536001D01*
X0050028511Y0058508323D01*
X0050054499Y0058472553D01*
X0050077005Y0058434498D01*
X0050096363Y0058409543D01*
X0050110684Y0058395222D01*
X0050122592Y0058378832D01*
X0050144211Y0058355807D01*
X0050178289Y0058327617D01*
X0051287248Y0057218658D01*
X0051301747Y0057201132D01*
X0051351414Y0057154492D01*
X0051371135Y0057134771D01*
X0051383007Y0057124303D01*
X0051386194Y0057121832D01*
X0051418426Y0057091564D01*
X0051443979Y0057072998D01*
X0051461730Y0057063240D01*
X0051477732Y0057050827D01*
X0051504917Y0057034751D01*
X0051545486Y0057017195D01*
X0051584240Y0056995890D01*
X0051613606Y0056984263D01*
X0051633226Y0056979226D01*
X0051651813Y0056971182D01*
X0051682143Y0056962370D01*
X0051725811Y0056955453D01*
X0051768636Y0056944458D01*
X0051799970Y0056940500D01*
X0051820223Y0056940500D01*
X0051840232Y0056937331D01*
X0051871801Y0056936339D01*
X0051915819Y0056940500D01*
X0053066898Y0056940500D01*
X0053059728Y0056913740D01*
X0053051997Y0056855019D01*
X0053062936Y0056784870D01*
X0053110064Y0056731772D01*
X0053176919Y0056712573D01*
X0053216431Y0056712573D01*
X0053243051Y0056677882D01*
X0053266309Y0056654624D01*
X0053287226Y0056638573D01*
X0053266308Y0056622522D01*
X0053243051Y0056599264D01*
X0053216431Y0056564572D01*
X0053176920Y0056564572D01*
X0053108799Y0056544571D01*
X0053072698Y0056502908D01*
X0052977917Y0056492946D01*
X0052950483Y0056486914D01*
X0052778774Y0056428460D01*
X0052753357Y0056416499D01*
X0052598866Y0056321455D01*
X0052576730Y0056304161D01*
X0052447135Y0056177251D01*
X0052429382Y0056155484D01*
X0052331124Y0056003017D01*
X0052318634Y0055977857D01*
X0052281904Y0055876943D01*
X0052195799Y0055887209D01*
X0052167709Y0055887406D01*
X0051987317Y0055868446D01*
X0051959883Y0055862414D01*
X0051788174Y0055803960D01*
X0051762757Y0055791999D01*
X0051608266Y0055696955D01*
X0051586130Y0055679660D01*
X0051456535Y0055552752D01*
X0051438782Y0055530984D01*
X0051340524Y0055378517D01*
X0051328034Y0055353357D01*
X0051265996Y0055182910D01*
X0051259391Y0055155607D01*
X0051236657Y0054975652D01*
X0051236264Y0054947565D01*
X0051253964Y0054767044D01*
X0051259805Y0054739568D01*
X0051317060Y0054567454D01*
X0051328842Y0054541956D01*
X0051422804Y0054386804D01*
X0051439943Y0054364549D01*
X0051565945Y0054234071D01*
X0051587589Y0054216166D01*
X0051739366Y0054116845D01*
X0051764438Y0054104181D01*
X0051934448Y0054040955D01*
X0051961703Y0054034159D01*
X0052141496Y0054010169D01*
X0052169581Y0054009581D01*
X0052350220Y0054026021D01*
X0052377736Y0054031669D01*
X0052428051Y0054048017D01*
X0052439159Y0054039401D01*
X0052466344Y0054023324D01*
X0052506913Y0054005768D01*
X0052545667Y0053984463D01*
X0052575033Y0053972836D01*
X0052594653Y0053967799D01*
X0052613240Y0053959755D01*
X0052643570Y0053950942D01*
X0052687238Y0053944026D01*
X0052730063Y0053933031D01*
X0052761397Y0053929073D01*
X0052781651Y0053929073D01*
X0052801659Y0053925904D01*
X0052833228Y0053924912D01*
X0052877246Y0053929073D01*
X0053042501Y0053929073D01*
X0053042501Y0053898688D01*
X0053043579Y0053882244D01*
X0053059240Y0053763278D01*
X0053067752Y0053731505D01*
X0053075181Y0053713573D01*
X0053067752Y0053695640D01*
X0053059240Y0053663869D01*
X0053043578Y0053544904D01*
X0053042500Y0053528458D01*
X0053042501Y0053248689D01*
X0053043579Y0053232244D01*
X0053059240Y0053113278D01*
X0053067752Y0053081505D01*
X0053129067Y0052933479D01*
X0053145514Y0052904992D01*
X0053243051Y0052777881D01*
X0053266309Y0052754624D01*
X0053393421Y0052657087D01*
X0053421907Y0052640640D01*
X0053569932Y0052579325D01*
X0053601704Y0052570813D01*
X0053720669Y0052555150D01*
X0053737115Y0052554073D01*
X0054653912Y0052554074D01*
X0054334339Y0052234500D01*
X0046208922Y0052234500D01*
X0046151218Y0052238434D01*
X0046120985Y0052236850D01*
X0046058028Y0052225862D01*
X0045994621Y0052218188D01*
X0045965220Y0052210968D01*
X0045958811Y0052208546D01*
X0045952054Y0052207367D01*
X0045923072Y0052198617D01*
X0045864560Y0052172933D01*
X0045804806Y0052150352D01*
X0045777976Y0052136326D01*
X0045772329Y0052132445D01*
X0045766051Y0052129689D01*
X0045739990Y0052114277D01*
X0045689303Y0052075382D01*
X0045636653Y0052039198D01*
X0045613943Y0052019176D01*
X0045572489Y0051972649D01*
X0044934340Y0051334500D01*
X0044081866Y0051334500D01*
X0044068258Y0051333763D01*
X0044006076Y0051327008D01*
X0043975454Y0051319727D01*
X0043839065Y0051268597D01*
X0043807730Y0051251441D01*
X0043691174Y0051164087D01*
X0043665913Y0051138826D01*
X0043664500Y0051136941D01*
X0043664500Y0051260406D01*
X0044165232Y0051761138D01*
X0044269248Y0051722455D01*
X0044296503Y0051715659D01*
X0044476296Y0051691669D01*
X0044504381Y0051691081D01*
X0044685020Y0051707521D01*
X0044712536Y0051713169D01*
X0044885044Y0051769220D01*
X0044910624Y0051780824D01*
X0045066429Y0051873702D01*
X0045088803Y0051890685D01*
X0045220158Y0052015772D01*
X0045238214Y0052037290D01*
X0045338591Y0052188371D01*
X0045351431Y0052213353D01*
X0045415843Y0052382918D01*
X0045422829Y0052410126D01*
X0045448073Y0052589747D01*
X0045449287Y0052605525D01*
X0045449604Y0052628242D01*
X0045448831Y0052644045D01*
X0045428612Y0052824300D01*
X0045422388Y0052851692D01*
X0045362736Y0053022988D01*
X0045350599Y0053048321D01*
X0045254480Y0053202145D01*
X0045237032Y0053224160D01*
X0045109221Y0053352866D01*
X0045087329Y0053370467D01*
X0044934180Y0053467658D01*
X0044908933Y0053479972D01*
X0044738057Y0053540818D01*
X0044710709Y0053547233D01*
X0044530599Y0053568709D01*
X0044502509Y0053568906D01*
X0044322117Y0053549946D01*
X0044294683Y0053543914D01*
X0044122974Y0053485460D01*
X0044097557Y0053473499D01*
X0043961718Y0053389930D01*
X0043948045Y0053389500D01*
X0043920144Y0053389500D01*
X0043904356Y0053388507D01*
X0043900353Y0053388001D01*
X0043856152Y0053386612D01*
X0043824957Y0053381671D01*
X0043805504Y0053376019D01*
X0043785412Y0053373481D01*
X0043754820Y0053365626D01*
X0043713710Y0053349350D01*
X0043671252Y0053337014D01*
X0043642267Y0053324471D01*
X0043624831Y0053314159D01*
X0043606001Y0053306704D01*
X0043578323Y0053291489D01*
X0043542553Y0053265501D01*
X0043504498Y0053242995D01*
X0043479543Y0053223637D01*
X0043465222Y0053209316D01*
X0043448832Y0053197407D01*
X0043425808Y0053175788D01*
X0043397622Y0053141717D01*
X0042540404Y0052284500D01*
X0041081866Y0052284500D01*
X0041068258Y0052283763D01*
X0041006076Y0052277007D01*
X0040975454Y0052269727D01*
X0040839065Y0052218597D01*
X0040807730Y0052201441D01*
X0040691174Y0052114087D01*
X0040665913Y0052088826D01*
X0040578559Y0051972270D01*
X0040561403Y0051940935D01*
X0040510273Y0051804546D01*
X0040502992Y0051773924D01*
X0040496237Y0051711742D01*
X0040495500Y0051698134D01*
X0040495500Y0050801866D01*
X0040496237Y0050788258D01*
X0040502992Y0050726076D01*
X0040510273Y0050695454D01*
X0040561403Y0050559065D01*
X0040578559Y0050527730D01*
X0040665913Y0050411174D01*
X0040691174Y0050385913D01*
X0040806224Y0050299687D01*
X0040691531Y0050213730D01*
X0040666270Y0050188469D01*
X0040579002Y0050072027D01*
X0040561846Y0050040692D01*
X0040510766Y0049904437D01*
X0040503485Y0049873815D01*
X0040496737Y0049811697D01*
X0040496000Y0049798089D01*
X0040496000Y0049604000D01*
X0040516002Y0049535879D01*
X0040569658Y0049489386D01*
X0040622000Y0049478000D01*
X0043537999Y0049478000D01*
X0043606120Y0049498002D01*
X0043623382Y0049517923D01*
X0043665913Y0049461174D01*
X0043691174Y0049435913D01*
X0043807730Y0049348559D01*
X0043839065Y0049331403D01*
X0043970500Y0049282130D01*
X0043970500Y0048029197D01*
X0043916177Y0048011073D01*
X0043889751Y0047998694D01*
X0043739349Y0047905622D01*
X0043716479Y0047887496D01*
X0043591522Y0047762321D01*
X0043579684Y0047747332D01*
X0043567101Y0047763208D01*
X0043442009Y0047888083D01*
X0043419107Y0047906170D01*
X0043268641Y0047998918D01*
X0043242193Y0048011251D01*
X0043074427Y0048066897D01*
X0043047601Y0048072648D01*
X0042943205Y0048083344D01*
X0042930363Y0048084000D01*
X0042796500Y0048084000D01*
X0042728379Y0048063998D01*
X0042681886Y0048010342D01*
X0042670500Y0047958000D01*
X0042670500Y0045492001D01*
X0042690502Y0045423880D01*
X0042744158Y0045377387D01*
X0042796500Y0045366001D01*
X0042930362Y0045366001D01*
X0042943365Y0045366674D01*
X0043049066Y0045377641D01*
X0043075939Y0045383444D01*
X0043243608Y0045439382D01*
X0043270035Y0045451762D01*
X0043420338Y0045544773D01*
X0043443208Y0045562899D01*
X0043568083Y0045687991D01*
X0043579674Y0045702667D01*
X0043592504Y0045686479D01*
X0043717679Y0045561522D01*
X0043740581Y0045543435D01*
X0043891146Y0045450625D01*
X0043917595Y0045438292D01*
X0044085472Y0045382610D01*
X0044112296Y0045376859D01*
X0044216757Y0045366156D01*
X0044229600Y0045365500D01*
X0045005400Y0045365500D01*
X0045018404Y0045366173D01*
X0045124170Y0045377147D01*
X0045151042Y0045382950D01*
X0045318822Y0045438926D01*
X0045345249Y0045451306D01*
X0045495651Y0045544378D01*
X0045518521Y0045562504D01*
X0045643478Y0045687679D01*
X0045661565Y0045710581D01*
X0045754374Y0045861146D01*
X0045766708Y0045887595D01*
X0045822390Y0046055472D01*
X0045828141Y0046082296D01*
X0045838844Y0046186757D01*
X0045839500Y0046199600D01*
X0045839500Y0047250400D01*
X0045838827Y0047263404D01*
X0045827853Y0047369170D01*
X0045822050Y0047396042D01*
X0045785577Y0047505364D01*
X0049111249Y0047505364D01*
X0049129651Y0047142103D01*
X0049131076Y0047128550D01*
X0049188603Y0046769401D01*
X0049191483Y0046756081D01*
X0049287459Y0046405246D01*
X0049291761Y0046392315D01*
X0049425067Y0046053897D01*
X0049430741Y0046041506D01*
X0049599816Y0045719465D01*
X0049606794Y0045707759D01*
X0049809661Y0045405861D01*
X0049817863Y0045394977D01*
X0049956231Y0045230661D01*
X0050015410Y0045191438D01*
X0050086399Y0045190436D01*
X0050141706Y0045222726D01*
X0052329885Y0047410905D01*
X0052363911Y0047473217D01*
X0052358846Y0047544032D01*
X0052329885Y0047589095D01*
X0050141810Y0049777170D01*
X0050079498Y0049811196D01*
X0050008683Y0049806131D01*
X0049956903Y0049769905D01*
X0049832626Y0049624394D01*
X0049824350Y0049613568D01*
X0049619380Y0049313094D01*
X0049612320Y0049301437D01*
X0049441001Y0048980583D01*
X0049435242Y0048968233D01*
X0049299576Y0048630755D01*
X0049295184Y0048617854D01*
X0049196759Y0048267697D01*
X0049193786Y0048254397D01*
X0049133753Y0047895658D01*
X0049132235Y0047882115D01*
X0049111297Y0047518992D01*
X0049111249Y0047505364D01*
X0045785577Y0047505364D01*
X0045766074Y0047563822D01*
X0045753694Y0047590249D01*
X0045660622Y0047740651D01*
X0045642495Y0047763521D01*
X0045639500Y0047766511D01*
X0045639500Y0049265500D01*
X0046078134Y0049265500D01*
X0046091742Y0049266237D01*
X0046153924Y0049272992D01*
X0046184546Y0049280273D01*
X0046320935Y0049331403D01*
X0046352270Y0049348559D01*
X0046468826Y0049435913D01*
X0046494087Y0049461174D01*
X0046581441Y0049577730D01*
X0046598597Y0049609065D01*
X0046649727Y0049745454D01*
X0046657008Y0049776076D01*
X0046663763Y0049838258D01*
X0046664500Y0049851866D01*
X0046664500Y0050565500D01*
X0050937790Y0050565500D01*
X0050654766Y0050396113D01*
X0050643468Y0050388492D01*
X0050353366Y0050169089D01*
X0050342956Y0050160293D01*
X0050323004Y0050141491D01*
X0050287146Y0050080215D01*
X0050290108Y0050009281D01*
X0050320323Y0049960697D01*
X0052510905Y0047770115D01*
X0052573217Y0047736089D01*
X0052644031Y0047741154D01*
X0052689095Y0047770115D01*
X0054880072Y0049961093D01*
X0054914099Y0050023405D01*
X0054909034Y0050094220D01*
X0054877713Y0050141583D01*
X0054866318Y0050152397D01*
X0054855937Y0050161232D01*
X0054566602Y0050381646D01*
X0054555331Y0050389306D01*
X0054263251Y0050565500D01*
X0054651088Y0050565500D01*
X0054708782Y0050561567D01*
X0054739015Y0050563151D01*
X0054801962Y0050574137D01*
X0054865379Y0050581811D01*
X0054894780Y0050589032D01*
X0054901189Y0050591454D01*
X0054907946Y0050592633D01*
X0054936930Y0050601384D01*
X0054995441Y0050627069D01*
X0055055193Y0050649647D01*
X0055082020Y0050663671D01*
X0055087670Y0050667554D01*
X0055093955Y0050670313D01*
X0055120010Y0050685723D01*
X0055170697Y0050724618D01*
X0055223347Y0050760802D01*
X0055246057Y0050780824D01*
X0055287510Y0050827351D01*
X0055966000Y0051505840D01*
X0055966000Y0048399684D01*
X0055908698Y0048606310D01*
X0055904352Y0048619226D01*
X0055769864Y0048957177D01*
X0055764148Y0048969548D01*
X0055593948Y0049290997D01*
X0055586931Y0049302678D01*
X0055383012Y0049603866D01*
X0055374772Y0049614721D01*
X0055243419Y0049769608D01*
X0055184105Y0049808625D01*
X0055113112Y0049809380D01*
X0055058228Y0049777208D01*
X0052870115Y0047589095D01*
X0052836089Y0047526783D01*
X0052841154Y0047455968D01*
X0052870115Y0047410905D01*
X0055058180Y0045222840D01*
X0055120492Y0045188814D01*
X0055191306Y0045193879D01*
X0055242800Y0045229770D01*
X0055359941Y0045365958D01*
X0055368256Y0045376756D01*
X0055574273Y0045676513D01*
X0055581373Y0045688145D01*
X0055753812Y0046008398D01*
X0055759615Y0046020729D01*
X0055896457Y0046357732D01*
X0055900894Y0046370617D01*
X0055966000Y0046599174D01*
X0055966000Y0044634000D01*
X0054585466Y0044634000D01*
X0054837304Y0044823085D01*
X0054847744Y0044831845D01*
X0054876308Y0044858575D01*
X0054912380Y0044919725D01*
X0054909665Y0044990670D01*
X0054879310Y0045039670D01*
X0052689095Y0047229885D01*
X0052626783Y0047263911D01*
X0052555968Y0047258846D01*
X0052510905Y0047229885D01*
X0050319502Y0045038482D01*
X0050285476Y0044976170D01*
X0050290541Y0044905355D01*
X0050321555Y0044858284D01*
X0050324449Y0044855519D01*
X0050334787Y0044846660D01*
X0050611930Y0044634000D01*
X0039634000Y0044634000D01*
X0039634000Y0046199638D01*
X0041321001Y0046199638D01*
X0041321674Y0046186635D01*
X0041332641Y0046080934D01*
X0041338444Y0046054061D01*
X0041394382Y0045886392D01*
X0041406762Y0045859965D01*
X0041499773Y0045709662D01*
X0041517899Y0045686792D01*
X0041642991Y0045561917D01*
X0041665893Y0045543830D01*
X0041816359Y0045451082D01*
X0041842807Y0045438749D01*
X0042010573Y0045383103D01*
X0042037399Y0045377352D01*
X0042141795Y0045366656D01*
X0042154637Y0045366000D01*
X0042288500Y0045366000D01*
X0042356621Y0045386002D01*
X0042403114Y0045439658D01*
X0042414500Y0045492000D01*
X0042414500Y0046471000D01*
X0042394498Y0046539121D01*
X0042340842Y0046585614D01*
X0042288500Y0046597000D01*
X0041447001Y0046597000D01*
X0041378880Y0046576998D01*
X0041332387Y0046523342D01*
X0041321001Y0046471000D01*
X0041321001Y0046199638D01*
X0039634000Y0046199638D01*
X0039634000Y0046979000D01*
X0041321000Y0046979000D01*
X0041341002Y0046910879D01*
X0041394658Y0046864386D01*
X0041447000Y0046853000D01*
X0042288500Y0046853000D01*
X0042356621Y0046873002D01*
X0042403114Y0046926658D01*
X0042414500Y0046979000D01*
X0042414500Y0047957999D01*
X0042394498Y0048026120D01*
X0042340842Y0048072613D01*
X0042288500Y0048083999D01*
X0042154638Y0048083999D01*
X0042141635Y0048083326D01*
X0042035934Y0048072359D01*
X0042009061Y0048066556D01*
X0041841392Y0048010618D01*
X0041814965Y0047998238D01*
X0041664662Y0047905227D01*
X0041641792Y0047887101D01*
X0041516917Y0047762009D01*
X0041498830Y0047739107D01*
X0041406082Y0047588641D01*
X0041393749Y0047562193D01*
X0041338103Y0047394427D01*
X0041332352Y0047367601D01*
X0041321656Y0047263205D01*
X0041321000Y0047250363D01*
X0041321000Y0046979000D01*
X0039634000Y0046979000D01*
X0039634000Y0048901912D01*
X0040496001Y0048901912D01*
X0040496738Y0048888307D01*
X0040503485Y0048826188D01*
X0040510766Y0048795563D01*
X0040561846Y0048659308D01*
X0040579002Y0048627973D01*
X0040666270Y0048511531D01*
X0040691531Y0048486270D01*
X0040807973Y0048399002D01*
X0040839308Y0048381846D01*
X0040975563Y0048330766D01*
X0041006185Y0048323485D01*
X0041068303Y0048316737D01*
X0041081911Y0048316000D01*
X0041826000Y0048316000D01*
X0041894121Y0048336002D01*
X0041940614Y0048389658D01*
X0041952000Y0048442000D01*
X0041952000Y0048442001D01*
X0042208000Y0048442001D01*
X0042228002Y0048373880D01*
X0042281658Y0048327387D01*
X0042334000Y0048316001D01*
X0043078088Y0048316001D01*
X0043091693Y0048316738D01*
X0043153812Y0048323485D01*
X0043184437Y0048330766D01*
X0043320692Y0048381846D01*
X0043352027Y0048399002D01*
X0043468469Y0048486270D01*
X0043493730Y0048511531D01*
X0043580998Y0048627973D01*
X0043598154Y0048659308D01*
X0043649234Y0048795563D01*
X0043656515Y0048826185D01*
X0043663263Y0048888303D01*
X0043664000Y0048901911D01*
X0043664000Y0049096000D01*
X0043643998Y0049164121D01*
X0043590342Y0049210614D01*
X0043538000Y0049222000D01*
X0042334000Y0049222000D01*
X0042265879Y0049201998D01*
X0042219386Y0049148342D01*
X0042208000Y0049096000D01*
X0042208000Y0048442001D01*
X0041952000Y0048442001D01*
X0041952000Y0049096000D01*
X0041931998Y0049164121D01*
X0041878342Y0049210614D01*
X0041826000Y0049222000D01*
X0040622001Y0049222000D01*
X0040553880Y0049201998D01*
X0040507387Y0049148342D01*
X0040496001Y0049096000D01*
X0040496001Y0048901912D01*
X0039634000Y0048901912D01*
X0039634000Y0071428570D01*
X0040766922Y0071428570D01*
X0040776702Y0071217275D01*
X0040780074Y0071193580D01*
X0040829632Y0070987945D01*
X0040837424Y0070965315D01*
X0040924973Y0070772762D01*
X0040936904Y0070752013D01*
X0041059284Y0070579489D01*
X0041074923Y0070561371D01*
X0041227719Y0070415101D01*
X0041246502Y0070400267D01*
X0041279258Y0070379116D01*
X0041159593Y0070285118D01*
X0041142261Y0070268613D01*
X0041003692Y0070108927D01*
X0040989793Y0070089441D01*
X0040883920Y0069906432D01*
X0040873956Y0069884670D01*
X0040804599Y0069684943D01*
X0040798930Y0069661685D01*
X0040797537Y0069652075D01*
X0040807560Y0069581790D01*
X0040853991Y0069528081D01*
X0040922234Y0069508000D01*
X0043633517Y0069508000D01*
X0043701638Y0069528002D01*
X0043748131Y0069581658D01*
X0043758235Y0069651932D01*
X0043756010Y0069663521D01*
X0043729893Y0069771891D01*
X0043722101Y0069794521D01*
X0043634592Y0069986988D01*
X0043622661Y0070007737D01*
X0043500336Y0070180183D01*
X0043484697Y0070198301D01*
X0043331970Y0070344505D01*
X0043313187Y0070359339D01*
X0043280770Y0070380270D01*
X0043400753Y0070474518D01*
X0043418085Y0070491024D01*
X0043556717Y0070650783D01*
X0043570616Y0070670268D01*
X0043676536Y0070853359D01*
X0043686501Y0070875121D01*
X0043755888Y0071074938D01*
X0043761556Y0071098191D01*
X0043791909Y0071307524D01*
X0043793078Y0071331430D01*
X0043783298Y0071542725D01*
X0043779926Y0071566420D01*
X0043730368Y0071772055D01*
X0043722576Y0071794685D01*
X0043635027Y0071987238D01*
X0043623096Y0072007987D01*
X0043500716Y0072180511D01*
X0043485077Y0072198629D01*
X0043389813Y0072289824D01*
X0043445651Y0072324378D01*
X0043468521Y0072342504D01*
X0043593478Y0072467679D01*
X0043611565Y0072490581D01*
X0043704375Y0072641146D01*
X0043716708Y0072667595D01*
X0043720497Y0072679018D01*
X0046469628Y0072679018D01*
X0046488996Y0072457642D01*
X0046492810Y0072436013D01*
X0046550325Y0072221364D01*
X0046557837Y0072200725D01*
X0046651752Y0071999325D01*
X0046662733Y0071980306D01*
X0046706971Y0071917126D01*
X0046762428Y0071872796D01*
X0046833047Y0071865486D01*
X0046899280Y0071900300D01*
X0047599885Y0072600905D01*
X0047633911Y0072663217D01*
X0047630080Y0072716782D01*
X0048106089Y0072716782D01*
X0048111154Y0072645968D01*
X0048140115Y0072600905D01*
X0048840720Y0071900300D01*
X0048903031Y0071866274D01*
X0048973847Y0071871339D01*
X0049033029Y0071917126D01*
X0049077267Y0071980306D01*
X0049088248Y0071999325D01*
X0049182163Y0072200725D01*
X0049189675Y0072221364D01*
X0049247190Y0072436013D01*
X0049251004Y0072457642D01*
X0049270372Y0072679018D01*
X0049270372Y0072700982D01*
X0049251004Y0072922358D01*
X0049247190Y0072943987D01*
X0049189675Y0073158636D01*
X0049182163Y0073179275D01*
X0049088248Y0073380675D01*
X0049077267Y0073399694D01*
X0049033029Y0073462874D01*
X0048977572Y0073507204D01*
X0048906953Y0073514514D01*
X0048840720Y0073479700D01*
X0048140115Y0072779095D01*
X0048106089Y0072716782D01*
X0047630080Y0072716782D01*
X0047628845Y0072734032D01*
X0047599885Y0072779095D01*
X0046899280Y0073479700D01*
X0046836968Y0073513726D01*
X0046766153Y0073508661D01*
X0046706971Y0073462874D01*
X0046662733Y0073399694D01*
X0046651752Y0073380675D01*
X0046557837Y0073179275D01*
X0046550325Y0073158636D01*
X0046492810Y0072943987D01*
X0046488996Y0072922358D01*
X0046469628Y0072700982D01*
X0046469628Y0072679018D01*
X0043720497Y0072679018D01*
X0043772390Y0072835472D01*
X0043778141Y0072862296D01*
X0043788844Y0072966757D01*
X0043789500Y0072979600D01*
X0043789500Y0073726953D01*
X0047045486Y0073726953D01*
X0047080300Y0073660720D01*
X0047780905Y0072960115D01*
X0047843216Y0072926089D01*
X0047914032Y0072931153D01*
X0047959095Y0072960115D01*
X0048659700Y0073660720D01*
X0048693726Y0073723032D01*
X0048688660Y0073793847D01*
X0048662271Y0073827957D01*
X0049444745Y0073827957D01*
X0049445821Y0073810851D01*
X0049483346Y0073525820D01*
X0049486734Y0073509018D01*
X0049562595Y0073231716D01*
X0049568232Y0073215529D01*
X0049681026Y0072951089D01*
X0049688807Y0072935818D01*
X0049836445Y0072689133D01*
X0049846227Y0072675058D01*
X0050025979Y0072450691D01*
X0050037580Y0072438075D01*
X0050246117Y0072240180D01*
X0050259325Y0072229255D01*
X0050492791Y0072061492D01*
X0050507358Y0072052460D01*
X0050761433Y0071917934D01*
X0050777091Y0071910962D01*
X0051047072Y0071812163D01*
X0051063531Y0071807380D01*
X0051344422Y0071746137D01*
X0051361378Y0071743633D01*
X0051586853Y0071725888D01*
X0051596739Y0071725500D01*
X0051752271Y0071725500D01*
X0051760841Y0071725792D01*
X0051975395Y0071740419D01*
X0051992376Y0071742745D01*
X0052273893Y0071801044D01*
X0052290402Y0071805653D01*
X0052561403Y0071901620D01*
X0052577133Y0071908427D01*
X0052832602Y0072040284D01*
X0052847263Y0072049163D01*
X0053082474Y0072214472D01*
X0053095794Y0072225259D01*
X0053306393Y0072420960D01*
X0053318126Y0072433454D01*
X0053500217Y0072655926D01*
X0053510146Y0072669897D01*
X0053660360Y0072915023D01*
X0053668300Y0072930213D01*
X0053783856Y0073193457D01*
X0053789662Y0073209583D01*
X0053868423Y0073486075D01*
X0053871987Y0073502841D01*
X0053912494Y0073787463D01*
X0053913748Y0073804556D01*
X0053915255Y0074092043D01*
X0053914179Y0074109149D01*
X0053876654Y0074394180D01*
X0053873266Y0074410982D01*
X0053797405Y0074688284D01*
X0053791768Y0074704471D01*
X0053678974Y0074968911D01*
X0053671193Y0074984182D01*
X0053523555Y0075230867D01*
X0053513773Y0075244942D01*
X0053334021Y0075469309D01*
X0053322420Y0075481925D01*
X0053113882Y0075679820D01*
X0053100675Y0075690745D01*
X0052867209Y0075858508D01*
X0052852642Y0075867540D01*
X0052598567Y0076002066D01*
X0052582909Y0076009038D01*
X0052312928Y0076107837D01*
X0052296469Y0076112619D01*
X0052015578Y0076173863D01*
X0051998622Y0076176367D01*
X0051773147Y0076194112D01*
X0051763261Y0076194500D01*
X0051607729Y0076194500D01*
X0051599159Y0076194208D01*
X0051384605Y0076179581D01*
X0051367624Y0076177255D01*
X0051086107Y0076118956D01*
X0051069598Y0076114347D01*
X0050798597Y0076018380D01*
X0050782866Y0076011573D01*
X0050527398Y0075879716D01*
X0050512737Y0075870837D01*
X0050277526Y0075705528D01*
X0050264206Y0075694741D01*
X0050053607Y0075499040D01*
X0050041874Y0075486546D01*
X0049859783Y0075264074D01*
X0049849854Y0075250103D01*
X0049699640Y0075004977D01*
X0049691700Y0074989787D01*
X0049576144Y0074726542D01*
X0049570338Y0074710417D01*
X0049491577Y0074433925D01*
X0049488013Y0074417159D01*
X0049447506Y0074132537D01*
X0049446251Y0074115444D01*
X0049444745Y0073827957D01*
X0048662271Y0073827957D01*
X0048642875Y0073853028D01*
X0048579696Y0073897266D01*
X0048560676Y0073908248D01*
X0048359275Y0074002163D01*
X0048338636Y0074009675D01*
X0048123987Y0074067190D01*
X0048102358Y0074071004D01*
X0047880982Y0074090372D01*
X0047859018Y0074090372D01*
X0047637642Y0074071004D01*
X0047616013Y0074067190D01*
X0047401364Y0074009675D01*
X0047380725Y0074002163D01*
X0047179325Y0073908248D01*
X0047160306Y0073897267D01*
X0047097126Y0073853028D01*
X0047052796Y0073797572D01*
X0047045486Y0073726953D01*
X0043789500Y0073726953D01*
X0043789500Y0073780400D01*
X0043788827Y0073793404D01*
X0043777853Y0073899170D01*
X0043772050Y0073926042D01*
X0043716074Y0074093822D01*
X0043703694Y0074120249D01*
X0043610622Y0074270651D01*
X0043592496Y0074293521D01*
X0043467321Y0074418478D01*
X0043444419Y0074436565D01*
X0043293853Y0074529375D01*
X0043267405Y0074541708D01*
X0043099528Y0074597390D01*
X0043072704Y0074603141D01*
X0042968243Y0074613844D01*
X0042955400Y0074614499D01*
X0041604600Y0074614499D01*
X0041591596Y0074613827D01*
X0041485830Y0074602853D01*
X0041458958Y0074597050D01*
X0041291178Y0074541074D01*
X0041264751Y0074528694D01*
X0041114349Y0074435622D01*
X0041091479Y0074417496D01*
X0040966522Y0074292321D01*
X0040948435Y0074269419D01*
X0040855625Y0074118854D01*
X0040843292Y0074092405D01*
X0040787610Y0073924528D01*
X0040781859Y0073897704D01*
X0040771156Y0073793243D01*
X0040770500Y0073780400D01*
X0040770500Y0072979600D01*
X0040771173Y0072966596D01*
X0040782147Y0072860830D01*
X0040787950Y0072833958D01*
X0040843926Y0072666178D01*
X0040856306Y0072639751D01*
X0040949378Y0072489349D01*
X0040967504Y0072466478D01*
X0041092679Y0072341522D01*
X0041115581Y0072323435D01*
X0041167120Y0072291665D01*
X0041159247Y0072285482D01*
X0041141915Y0072268976D01*
X0041003283Y0072109217D01*
X0040989384Y0072089732D01*
X0040883463Y0071906641D01*
X0040873499Y0071884879D01*
X0040804111Y0071685062D01*
X0040798443Y0071661809D01*
X0040768091Y0071452476D01*
X0040766922Y0071428570D01*
X0039634000Y0071428570D01*
X0039634000Y0077378866D01*
X0040675500Y0077378866D01*
X0040676237Y0077365258D01*
X0040682992Y0077303076D01*
X0040690273Y0077272454D01*
X0040741403Y0077136065D01*
X0040758559Y0077104730D01*
X0040845913Y0076988174D01*
X0040871174Y0076962913D01*
X0040987730Y0076875559D01*
X0041019065Y0076858403D01*
X0041155454Y0076807273D01*
X0041186076Y0076799992D01*
X0041248258Y0076793237D01*
X0041261866Y0076792500D01*
X0043058134Y0076792500D01*
X0043071742Y0076793237D01*
X0043133924Y0076799992D01*
X0043164546Y0076807273D01*
X0043300935Y0076858403D01*
X0043332270Y0076875559D01*
X0043448826Y0076962913D01*
X0043474087Y0076988174D01*
X0043561441Y0077104730D01*
X0043578597Y0077136065D01*
X0043629727Y0077272454D01*
X0043637008Y0077303076D01*
X0043643763Y0077365258D01*
X0043644500Y0077378866D01*
X0043644500Y0077976170D01*
X0050285476Y0077976170D01*
X0050290541Y0077905355D01*
X0050321555Y0077858284D01*
X0050324449Y0077855519D01*
X0050334787Y0077846660D01*
X0050623350Y0077625237D01*
X0050634595Y0077617537D01*
X0050945385Y0077428574D01*
X0050957395Y0077422134D01*
X0051286774Y0077267842D01*
X0051299409Y0077262737D01*
X0051643526Y0077144919D01*
X0051656639Y0077141209D01*
X0052011466Y0077061245D01*
X0052024904Y0077058972D01*
X0052386293Y0077017797D01*
X0052399896Y0077016989D01*
X0052763618Y0077015085D01*
X0052777230Y0077015750D01*
X0053139030Y0077053138D01*
X0053152490Y0077055270D01*
X0053508136Y0077131514D01*
X0053521287Y0077135087D01*
X0053866619Y0077249295D01*
X0053879307Y0077254268D01*
X0054210284Y0077405103D01*
X0054222361Y0077411417D01*
X0054535112Y0077597115D01*
X0054546437Y0077604696D01*
X0054837304Y0077823085D01*
X0054847744Y0077831845D01*
X0054876308Y0077858575D01*
X0054912380Y0077919725D01*
X0054909665Y0077990670D01*
X0054879310Y0078039670D01*
X0052689095Y0080229885D01*
X0052626783Y0080263911D01*
X0052555968Y0080258846D01*
X0052510905Y0080229885D01*
X0050319502Y0078038482D01*
X0050285476Y0077976170D01*
X0043644500Y0077976170D01*
X0043644500Y0079175134D01*
X0043643763Y0079188742D01*
X0043637008Y0079250924D01*
X0043629727Y0079281546D01*
X0043578597Y0079417935D01*
X0043561441Y0079449270D01*
X0043474087Y0079565826D01*
X0043448826Y0079591087D01*
X0043332270Y0079678441D01*
X0043300935Y0079695597D01*
X0043181917Y0079740215D01*
X0043286653Y0079844587D01*
X0043300035Y0079860311D01*
X0043430344Y0080041655D01*
X0043440979Y0080059354D01*
X0043539921Y0080259547D01*
X0043547522Y0080278745D01*
X0043612438Y0080492408D01*
X0043615239Y0080505364D01*
X0049111249Y0080505364D01*
X0049129651Y0080142103D01*
X0049131076Y0080128550D01*
X0049188603Y0079769401D01*
X0049191483Y0079756081D01*
X0049287459Y0079405246D01*
X0049291761Y0079392315D01*
X0049425067Y0079053897D01*
X0049430741Y0079041506D01*
X0049599816Y0078719465D01*
X0049606794Y0078707759D01*
X0049809661Y0078405861D01*
X0049817863Y0078394977D01*
X0049956231Y0078230661D01*
X0050015410Y0078191438D01*
X0050086399Y0078190436D01*
X0050141706Y0078222726D01*
X0052329885Y0080410905D01*
X0052363911Y0080473217D01*
X0052358846Y0080544032D01*
X0052329885Y0080589095D01*
X0050141810Y0082777170D01*
X0050079498Y0082811196D01*
X0050008683Y0082806131D01*
X0049956903Y0082769905D01*
X0049832626Y0082624394D01*
X0049824350Y0082613568D01*
X0049619380Y0082313094D01*
X0049612320Y0082301437D01*
X0049441001Y0081980583D01*
X0049435242Y0081968233D01*
X0049299576Y0081630755D01*
X0049295184Y0081617854D01*
X0049196759Y0081267697D01*
X0049193786Y0081254397D01*
X0049133753Y0080895658D01*
X0049132235Y0080882115D01*
X0049111297Y0080518992D01*
X0049111249Y0080505364D01*
X0043615239Y0080505364D01*
X0043616802Y0080512592D01*
X0043621273Y0080546555D01*
X0043610333Y0080616703D01*
X0043563205Y0080669802D01*
X0043496351Y0080689000D01*
X0040825110Y0080689000D01*
X0040756989Y0080668998D01*
X0040710496Y0080615342D01*
X0040700392Y0080545068D01*
X0040702193Y0080535299D01*
X0040736784Y0080381810D01*
X0040742958Y0080362107D01*
X0040826971Y0080155206D01*
X0040836281Y0080136775D01*
X0040952959Y0079946374D01*
X0040965155Y0079929712D01*
X0041111364Y0079760924D01*
X0041126116Y0079746477D01*
X0041135035Y0079739072D01*
X0041019065Y0079695597D01*
X0040987730Y0079678441D01*
X0040871174Y0079591087D01*
X0040845913Y0079565826D01*
X0040758559Y0079449270D01*
X0040741403Y0079417935D01*
X0040690273Y0079281546D01*
X0040682992Y0079250924D01*
X0040676237Y0079188742D01*
X0040675500Y0079175134D01*
X0040675500Y0077378866D01*
X0039634000Y0077378866D01*
X0039634000Y0081084410D01*
X0040696055Y0081084410D01*
X0040708693Y0081014547D01*
X0040757096Y0080962608D01*
X0040821339Y0080945000D01*
X0041906000Y0080945000D01*
X0041974121Y0080965002D01*
X0042020614Y0081018658D01*
X0042032000Y0081071000D01*
X0042288000Y0081071000D01*
X0042308002Y0081002879D01*
X0042361658Y0080956386D01*
X0042414000Y0080945000D01*
X0043496459Y0080945000D01*
X0043564580Y0080965002D01*
X0043611073Y0081018658D01*
X0043621177Y0081088932D01*
X0043618663Y0081101696D01*
X0043572159Y0081286833D01*
X0043565505Y0081306379D01*
X0043476462Y0081511165D01*
X0043466704Y0081529363D01*
X0043345409Y0081716857D01*
X0043332810Y0081733217D01*
X0043182521Y0081898382D01*
X0043167420Y0081912464D01*
X0042992173Y0082050865D01*
X0042974975Y0082062291D01*
X0042779477Y0082170212D01*
X0042760643Y0082178677D01*
X0042550144Y0082253219D01*
X0042530180Y0082258493D01*
X0042436096Y0082275252D01*
X0042365524Y0082267506D01*
X0042310342Y0082222836D01*
X0042288000Y0082151205D01*
X0042288000Y0081071000D01*
X0042032000Y0081071000D01*
X0042032000Y0082152013D01*
X0042011998Y0082220134D01*
X0041958342Y0082266627D01*
X0041886940Y0082276563D01*
X0041825148Y0082267107D01*
X0041805063Y0082262322D01*
X0041592805Y0082192946D01*
X0041573770Y0082184944D01*
X0041375694Y0082081832D01*
X0041358221Y0082070829D01*
X0041179645Y0081936750D01*
X0041164204Y0081923041D01*
X0041009925Y0081761597D01*
X0040996931Y0081745550D01*
X0040871091Y0081561076D01*
X0040860891Y0081543122D01*
X0040766871Y0081340572D01*
X0040759742Y0081321194D01*
X0040700065Y0081106008D01*
X0040696198Y0081085746D01*
X0040696055Y0081084410D01*
X0039634000Y0081084410D01*
X0039634000Y0083366000D01*
X0050613728Y0083366000D01*
X0050353366Y0083169089D02*
X0050613728Y0083366000D01*
G04 #@! TA.AperFunction,Conductor*
G36*
X0050353366Y0083169089D02*
G01*
X0050342956Y0083160293D01*
X0050323004Y0083141491D01*
X0050287146Y0083080215D01*
X0050290108Y0083009281D01*
X0050320323Y0082960697D01*
X0052510905Y0080770115D01*
X0052573217Y0080736089D01*
X0052644031Y0080741154D01*
X0052689095Y0080770115D01*
X0054880072Y0082961093D01*
X0054914099Y0083023405D01*
X0054909034Y0083094220D01*
X0054877713Y0083141583D01*
X0054866318Y0083152397D01*
X0054855937Y0083161232D01*
X0054587140Y0083366000D01*
X0055966000Y0083366000D01*
X0055966000Y0081399684D01*
X0055908698Y0081606310D01*
X0055904352Y0081619226D01*
X0055769864Y0081957177D01*
X0055764148Y0081969548D01*
X0055593948Y0082290997D01*
X0055586931Y0082302678D01*
X0055383012Y0082603866D01*
X0055374772Y0082614721D01*
X0055243419Y0082769608D01*
X0055184105Y0082808625D01*
X0055113112Y0082809380D01*
X0055058228Y0082777208D01*
X0052870115Y0080589095D01*
X0052836089Y0080526783D01*
X0052841154Y0080455968D01*
X0052870115Y0080410905D01*
X0055058180Y0078222840D01*
X0055120492Y0078188814D01*
X0055191306Y0078193879D01*
X0055242800Y0078229770D01*
X0055359941Y0078365958D01*
X0055368256Y0078376756D01*
X0055574273Y0078676513D01*
X0055581373Y0078688145D01*
X0055753812Y0079008398D01*
X0055759615Y0079020729D01*
X0055896457Y0079357732D01*
X0055900894Y0079370617D01*
X0055966000Y0079599174D01*
X0055966000Y0069185899D01*
X0055939221Y0069212866D01*
X0055936644Y0069214938D01*
X0054607329Y0070544253D01*
X0054544252Y0070608665D01*
X0054522484Y0070626418D01*
X0054486050Y0070649898D01*
X0054452165Y0070676948D01*
X0054428395Y0070691917D01*
X0054398201Y0070706513D01*
X0054370018Y0070724676D01*
X0054344858Y0070737166D01*
X0054304122Y0070751993D01*
X0054265089Y0070770862D01*
X0054238595Y0070780192D01*
X0054205917Y0070787736D01*
X0054174410Y0070799204D01*
X0054147106Y0070805810D01*
X0054104091Y0070811244D01*
X0054061859Y0070820994D01*
X0054033955Y0070824223D01*
X0053993385Y0070824365D01*
X0053991231Y0070824500D01*
X0053954581Y0070824500D01*
X0053852570Y0070824856D01*
X0053849293Y0070824500D01*
X0049096343Y0070824500D01*
X0049088683Y0070840926D01*
X0049077701Y0070859947D01*
X0048950190Y0071042052D01*
X0048936071Y0071058876D01*
X0048778876Y0071216072D01*
X0048762052Y0071230190D01*
X0048579948Y0071357701D01*
X0048560927Y0071368683D01*
X0048450285Y0071420276D01*
X0048560676Y0071471752D01*
X0048579696Y0071482734D01*
X0048642875Y0071526972D01*
X0048687204Y0071582429D01*
X0048694513Y0071653048D01*
X0048659700Y0071719280D01*
X0047959095Y0072419885D01*
X0047896783Y0072453911D01*
X0047825968Y0072448846D01*
X0047780905Y0072419885D01*
X0047080300Y0071719280D01*
X0047046274Y0071656968D01*
X0047051339Y0071586153D01*
X0047097125Y0071526972D01*
X0047160304Y0071482734D01*
X0047179324Y0071471752D01*
X0047289715Y0071420276D01*
X0047179074Y0071368683D01*
X0047160053Y0071357701D01*
X0046977948Y0071230190D01*
X0046961124Y0071216072D01*
X0046803928Y0071058876D01*
X0046790812Y0071043247D01*
X0046767239Y0071035314D01*
X0046727944Y0071016991D01*
X0046687011Y0071002736D01*
X0046661679Y0070990600D01*
X0046633237Y0070972828D01*
X0046602848Y0070958657D01*
X0046578872Y0070944022D01*
X0046544618Y0070917452D01*
X0046507855Y0070894480D01*
X0046485839Y0070877031D01*
X0046457030Y0070848422D01*
X0046455435Y0070847016D01*
X0046429898Y0070821479D01*
X0046357134Y0070749221D01*
X0046355058Y0070746639D01*
X0044625748Y0069017330D01*
X0044561335Y0068954252D01*
X0044543582Y0068932484D01*
X0044520102Y0068896050D01*
X0044493052Y0068862165D01*
X0044478083Y0068838395D01*
X0044463487Y0068808201D01*
X0044445324Y0068780018D01*
X0044432834Y0068754858D01*
X0044418007Y0068714122D01*
X0044399138Y0068675089D01*
X0044389808Y0068648595D01*
X0044382264Y0068615917D01*
X0044370796Y0068584410D01*
X0044364190Y0068557106D01*
X0044358756Y0068514091D01*
X0044349006Y0068471859D01*
X0044345777Y0068443955D01*
X0044345635Y0068403385D01*
X0044345500Y0068401231D01*
X0044345500Y0068364581D01*
X0044345144Y0068262570D01*
X0044345500Y0068259293D01*
X0044345500Y0066388594D01*
X0043730956Y0067003138D01*
X0043755888Y0067074938D01*
X0043761556Y0067098191D01*
X0043791909Y0067307524D01*
X0043793078Y0067331430D01*
X0043783298Y0067542725D01*
X0043779926Y0067566420D01*
X0043730368Y0067772055D01*
X0043722576Y0067794685D01*
X0043635027Y0067987238D01*
X0043623096Y0068007987D01*
X0043500716Y0068180511D01*
X0043485077Y0068198629D01*
X0043332281Y0068344899D01*
X0043313498Y0068359733D01*
X0043280742Y0068380884D01*
X0043400407Y0068474882D01*
X0043417739Y0068491387D01*
X0043556308Y0068651073D01*
X0043570207Y0068670559D01*
X0043676080Y0068853568D01*
X0043686044Y0068875330D01*
X0043755401Y0069075057D01*
X0043761070Y0069098315D01*
X0043762463Y0069107925D01*
X0043752440Y0069178210D01*
X0043706009Y0069231919D01*
X0043637766Y0069252000D01*
X0040926483Y0069252000D01*
X0040858362Y0069231998D01*
X0040811869Y0069178342D01*
X0040801765Y0069108068D01*
X0040803990Y0069096479D01*
X0040830107Y0068988109D01*
X0040837899Y0068965479D01*
X0040925408Y0068773012D01*
X0040937339Y0068752263D01*
X0041059664Y0068579817D01*
X0041075303Y0068561699D01*
X0041228030Y0068415495D01*
X0041246813Y0068400661D01*
X0041279230Y0068379730D01*
X0041159247Y0068285482D01*
X0041141915Y0068268976D01*
X0041003283Y0068109217D01*
X0040989384Y0068089732D01*
X0040883463Y0067906641D01*
X0040873499Y0067884879D01*
X0040804111Y0067685062D01*
X0040798443Y0067661809D01*
X0040768091Y0067452476D01*
X0040766922Y0067428570D01*
X0040776702Y0067217275D01*
X0040780074Y0067193580D01*
X0040829632Y0066987945D01*
X0040837424Y0066965315D01*
X0040924973Y0066772762D01*
X0040936904Y0066752013D01*
X0041059284Y0066579488D01*
X0041074923Y0066561371D01*
X0041227719Y0066415100D01*
X0041246502Y0066400267D01*
X0041279258Y0066379115D01*
X0041159593Y0066285118D01*
X0041142261Y0066268613D01*
X0041003692Y0066108926D01*
X0040989793Y0066089440D01*
X0040883920Y0065906431D01*
X0040873956Y0065884670D01*
X0040804599Y0065684943D01*
X0040798930Y0065661685D01*
X0040797537Y0065652075D01*
X0040807560Y0065581790D01*
X0040853991Y0065528081D01*
X0040922234Y0065507999D01*
X0042408000Y0065507999D01*
X0042408000Y0065251999D01*
X0040926483Y0065251999D01*
X0040858362Y0065231998D01*
X0040811869Y0065178342D01*
X0040801765Y0065108068D01*
X0040803990Y0065096479D01*
X0040830107Y0064988109D01*
X0040837899Y0064965479D01*
X0040925408Y0064773011D01*
X0040937339Y0064752263D01*
X0041059664Y0064579816D01*
X0041075303Y0064561699D01*
X0041228030Y0064415494D01*
X0041246813Y0064400661D01*
X0041279230Y0064379729D01*
X0041159247Y0064285482D01*
X0041141915Y0064268975D01*
X0041003283Y0064109217D01*
X0040989384Y0064089732D01*
X0040883463Y0063906641D01*
X0040873499Y0063884879D01*
X0040804111Y0063685062D01*
X0040798443Y0063661809D01*
X0040768091Y0063452476D01*
X0040766922Y0063428570D01*
X0040776702Y0063217275D01*
X0040780074Y0063193580D01*
X0040829632Y0062987945D01*
X0040837424Y0062965315D01*
X0040924973Y0062772762D01*
X0040936904Y0062752013D01*
X0041059284Y0062579488D01*
X0041074923Y0062561371D01*
X0041227719Y0062415101D01*
X0041246502Y0062400267D01*
X0041279258Y0062379115D01*
X0041159593Y0062285118D01*
X0041142261Y0062268613D01*
X0041003692Y0062108927D01*
X0040989793Y0062089441D01*
X0040883920Y0061906431D01*
X0040873956Y0061884670D01*
X0040804599Y0061684943D01*
X0040798930Y0061661685D01*
X0040797537Y0061652075D01*
X0040807560Y0061581790D01*
X0040853991Y0061528081D01*
X0040922234Y0061507999D01*
X0042408000Y0061507999D01*
X0042408000Y0061251999D01*
X0040926483Y0061251999D01*
X0040858362Y0061231998D01*
X0040811869Y0061178342D01*
X0040801765Y0061108068D01*
X0040803990Y0061096479D01*
X0040830107Y0060988109D01*
X0040837899Y0060965479D01*
X0040925408Y0060773012D01*
X0040937339Y0060752263D01*
X0041059664Y0060579817D01*
X0041075303Y0060561699D01*
X0041228030Y0060415495D01*
X0041246813Y0060400661D01*
X0041279230Y0060379729D01*
X0041159247Y0060285482D01*
X0041141915Y0060268975D01*
X0041003283Y0060109217D01*
X0040989384Y0060089732D01*
X0040883463Y0059906641D01*
X0040873499Y0059884879D01*
X0040804111Y0059685062D01*
X0040798443Y0059661809D01*
X0040768091Y0059452476D01*
X0040766922Y0059428570D01*
X0040776702Y0059217275D01*
X0040780074Y0059193580D01*
X0040829632Y0058987945D01*
X0040837424Y0058965315D01*
X0040924973Y0058772762D01*
X0040936904Y0058752013D01*
X0041059284Y0058579488D01*
X0041074923Y0058561371D01*
X0041227719Y0058415101D01*
X0041246502Y0058400267D01*
X0041279258Y0058379115D01*
X0041159593Y0058285118D01*
X0041142261Y0058268613D01*
X0041003692Y0058108927D01*
X0040989793Y0058089441D01*
X0040883920Y0057906431D01*
X0040873956Y0057884670D01*
X0040804599Y0057684943D01*
X0040798930Y0057661685D01*
X0040797537Y0057652075D01*
X0040807560Y0057581790D01*
X0040853991Y0057528081D01*
X0040922234Y0057507999D01*
X0042408000Y0057507999D01*
X0042408000Y0057251999D01*
X0040926483Y0057251999D01*
X0040858362Y0057231998D01*
X0040811869Y0057178342D01*
X0040801765Y0057108068D01*
X0040803990Y0057096479D01*
X0040830107Y0056988109D01*
X0040837899Y0056965479D01*
X0040925408Y0056773012D01*
X0040937339Y0056752263D01*
X0041059664Y0056579817D01*
X0041075303Y0056561699D01*
X0041228030Y0056415495D01*
X0041246813Y0056400661D01*
X0041279230Y0056379729D01*
X0041159247Y0056285482D01*
X0041141915Y0056268975D01*
X0041003283Y0056109217D01*
X0040989384Y0056089732D01*
X0040883463Y0055906641D01*
X0040873499Y0055884879D01*
X0040804111Y0055685062D01*
X0040798443Y0055661809D01*
X0040768091Y0055452476D01*
X0040766922Y0055428570D01*
X0040776702Y0055217275D01*
X0040780074Y0055193580D01*
X0040829632Y0054987945D01*
X0040837424Y0054965315D01*
X0040924973Y0054772762D01*
X0040936904Y0054752013D01*
X0041059284Y0054579488D01*
X0041074923Y0054561371D01*
X0041227719Y0054415101D01*
X0041246502Y0054400267D01*
X0041424200Y0054285528D01*
X0041445450Y0054274514D01*
X0041641639Y0054195448D01*
X0041664587Y0054188649D01*
X0041872187Y0054148108D01*
X0041890183Y0054145922D01*
X0041895745Y0054145650D01*
X0041901899Y0054145500D01*
X0042607846Y0054145500D01*
X0042619813Y0054146070D01*
X0042777533Y0054161118D01*
X0042801035Y0054165643D01*
X0043004003Y0054225187D01*
X0043026226Y0054234076D01*
X0043214272Y0054330926D01*
X0043234413Y0054343856D01*
X0043400753Y0054474518D01*
X0043418085Y0054491023D01*
X0043530439Y0054620500D01*
X0043573017Y0054620500D01*
X0043595652Y0054618359D01*
X0043663729Y0054620500D01*
X0043691640Y0054620500D01*
X0043707430Y0054621493D01*
X0043711441Y0054622000D01*
X0043755632Y0054623389D01*
X0043786825Y0054628330D01*
X0043806276Y0054633981D01*
X0043826374Y0054636520D01*
X0043856965Y0054644374D01*
X0043898079Y0054660652D01*
X0043940529Y0054672985D01*
X0043969516Y0054685529D01*
X0043986953Y0054695841D01*
X0044005783Y0054703296D01*
X0044033461Y0054718511D01*
X0044069231Y0054744499D01*
X0044107286Y0054767005D01*
X0044132241Y0054786363D01*
X0044146562Y0054800684D01*
X0044162952Y0054812591D01*
X0044185976Y0054834212D01*
X0044214167Y0054868289D01*
X0045224952Y0055879073D01*
X0045617501Y0055879073D01*
X0045617501Y0055848687D01*
X0045618579Y0055832244D01*
X0045634240Y0055713278D01*
X0045642753Y0055681505D01*
X0045650181Y0055663573D01*
X0045642753Y0055645641D01*
X0045634240Y0055613869D01*
X0045618578Y0055494904D01*
X0045617500Y0055478458D01*
X0045617501Y0055198689D01*
X0045618579Y0055182244D01*
X0045634240Y0055063278D01*
X0045642753Y0055031504D01*
X0045650181Y0055013573D01*
X0045642753Y0054995641D01*
X0045634240Y0054963869D01*
X0045618578Y0054844904D01*
X0045617500Y0054828458D01*
X0045617501Y0054548688D01*
X0045618579Y0054532244D01*
X0045634240Y0054413278D01*
X0045642753Y0054381505D01*
X0045650181Y0054363573D01*
X0045642753Y0054345641D01*
X0045634240Y0054313869D01*
X0045618578Y0054194904D01*
X0045617500Y0054178458D01*
X0045617501Y0053898689D01*
X0045618579Y0053882244D01*
X0045634240Y0053763278D01*
X0045642753Y0053731505D01*
X0045650452Y0053712919D01*
X0045643241Y0053695510D01*
X0045634728Y0053663740D01*
X0045626997Y0053605019D01*
X0045637936Y0053534870D01*
X0045685064Y0053481772D01*
X0045751919Y0053462573D01*
X0045791431Y0053462573D01*
X0045818051Y0053427882D01*
X0045841309Y0053404624D01*
X0045958665Y0053314572D01*
X0045751920Y0053314572D01*
X0045683799Y0053294571D01*
X0045637306Y0053240915D01*
X0045626998Y0053172128D01*
X0045634728Y0053113408D01*
X0045643241Y0053081635D01*
X0045704504Y0052933732D01*
X0045720951Y0052905246D01*
X0045818408Y0052778239D01*
X0045841666Y0052754981D01*
X0045968673Y0052657523D01*
X0045997159Y0052641076D01*
X0046145062Y0052579814D01*
X0046176834Y0052571301D01*
X0046295707Y0052555651D01*
X0046312153Y0052554573D01*
X0046789500Y0052554573D01*
X0046857621Y0052574574D01*
X0046904114Y0052628231D01*
X0046915500Y0052680572D01*
X0046915500Y0053188573D01*
X0046910949Y0053204074D01*
X0047063500Y0053204074D01*
X0047063500Y0052680574D01*
X0047083501Y0052612453D01*
X0047137158Y0052565960D01*
X0047189500Y0052554574D01*
X0047666846Y0052554574D01*
X0047683291Y0052555651D01*
X0047802165Y0052571301D01*
X0047833938Y0052579814D01*
X0047981841Y0052641076D01*
X0048010327Y0052657523D01*
X0048137333Y0052754981D01*
X0048160592Y0052778239D01*
X0048258049Y0052905246D01*
X0048274496Y0052933732D01*
X0048335758Y0053081635D01*
X0048344272Y0053113406D01*
X0048359922Y0053232280D01*
X0048361000Y0053248727D01*
X0048361000Y0053279073D01*
X0048809405Y0053279073D01*
X0048832041Y0053276933D01*
X0048900118Y0053279073D01*
X0048928029Y0053279073D01*
X0048943819Y0053280066D01*
X0048947829Y0053280573D01*
X0048992021Y0053281962D01*
X0049023213Y0053286902D01*
X0049042665Y0053292553D01*
X0049062763Y0053295093D01*
X0049093354Y0053302947D01*
X0049134468Y0053319225D01*
X0049176918Y0053331558D01*
X0049205906Y0053344102D01*
X0049210409Y0053346765D01*
X0049302220Y0053355121D01*
X0049329736Y0053360769D01*
X0049502244Y0053416820D01*
X0049527825Y0053428424D01*
X0049683628Y0053521302D01*
X0049706004Y0053538285D01*
X0049837358Y0053663371D01*
X0049855413Y0053684891D01*
X0049955791Y0053835971D01*
X0049968631Y0053860954D01*
X0050033043Y0054030518D01*
X0050040029Y0054057726D01*
X0050065273Y0054237347D01*
X0050066487Y0054253125D01*
X0050066804Y0054275842D01*
X0050066031Y0054291645D01*
X0050045812Y0054471900D01*
X0050039588Y0054499292D01*
X0049979936Y0054670589D01*
X0049967799Y0054695921D01*
X0049945786Y0054731150D01*
X0049964030Y0054758610D01*
X0049976870Y0054783592D01*
X0050041282Y0054953157D01*
X0050048268Y0054980365D01*
X0050073512Y0055159986D01*
X0050074726Y0055175764D01*
X0050075043Y0055198481D01*
X0050074270Y0055214284D01*
X0050054051Y0055394539D01*
X0050047827Y0055421931D01*
X0049988175Y0055593228D01*
X0049976038Y0055618560D01*
X0049918628Y0055710436D01*
X0049955791Y0055766371D01*
X0049968631Y0055791354D01*
X0050033043Y0055960918D01*
X0050040029Y0055988126D01*
X0050065273Y0056167747D01*
X0050066487Y0056183525D01*
X0050066804Y0056206242D01*
X0050066031Y0056222045D01*
X0050045812Y0056402300D01*
X0050039588Y0056429692D01*
X0049979936Y0056600989D01*
X0049967799Y0056626321D01*
X0049950639Y0056653784D01*
X0049968569Y0056680771D01*
X0049981409Y0056705754D01*
X0050045821Y0056875318D01*
X0050052807Y0056902526D01*
X0050078051Y0057082147D01*
X0050079265Y0057097925D01*
X0050079582Y0057120642D01*
X0050078809Y0057136444D01*
X0050058590Y0057316700D01*
X0050052366Y0057344092D01*
X0049992714Y0057515389D01*
X0049980577Y0057540721D01*
X0049884458Y0057694545D01*
X0049867010Y0057716560D01*
X0049739199Y0057845265D01*
X0049717307Y0057862867D01*
X0049564158Y0057960058D01*
X0049538911Y0057972372D01*
X0049368035Y0058033218D01*
X0049340687Y0058039632D01*
X0049160577Y0058061110D01*
X0049132487Y0058061306D01*
X0048952095Y0058042345D01*
X0048924661Y0058036314D01*
X0048752952Y0057977860D01*
X0048727535Y0057965899D01*
X0048573043Y0057870855D01*
X0048550908Y0057853561D01*
X0048421313Y0057726652D01*
X0048403560Y0057704884D01*
X0048335038Y0057598559D01*
X0048328818Y0057613573D01*
X0048336247Y0057631505D01*
X0048344760Y0057663277D01*
X0048360422Y0057782242D01*
X0048361500Y0057798688D01*
X0048361499Y0058078457D01*
X0048360421Y0058094902D01*
X0048344760Y0058213868D01*
X0048336247Y0058245641D01*
X0048328818Y0058263573D01*
X0048336247Y0058281504D01*
X0048344760Y0058313277D01*
X0048360422Y0058432242D01*
X0048361500Y0058448688D01*
X0048361499Y0058728457D01*
X0048360421Y0058744901D01*
X0048344760Y0058863868D01*
X0048336247Y0058895641D01*
X0048328818Y0058913573D01*
X0048336247Y0058931505D01*
X0048344760Y0058963277D01*
X0048360422Y0059082242D01*
X0048361500Y0059098687D01*
X0048361499Y0059378457D01*
X0048360421Y0059394902D01*
X0048344760Y0059513868D01*
X0048336247Y0059545641D01*
X0048328548Y0059564227D01*
X0048335758Y0059581635D01*
X0048344272Y0059613406D01*
X0048352003Y0059672126D01*
X0048341064Y0059742275D01*
X0048293936Y0059795373D01*
X0048227081Y0059814572D01*
X0048187569Y0059814572D01*
X0048160949Y0059849264D01*
X0048137691Y0059872522D01*
X0048020335Y0059962573D01*
X0048227080Y0059962573D01*
X0048295201Y0059982575D01*
X0048341694Y0060036231D01*
X0048352002Y0060105018D01*
X0048344272Y0060163737D01*
X0048335758Y0060195510D01*
X0048328277Y0060213573D01*
X0048335758Y0060231635D01*
X0048344272Y0060263406D01*
X0048352003Y0060322126D01*
X0048341064Y0060392275D01*
X0048293936Y0060445374D01*
X0048227081Y0060464573D01*
X0047189500Y0060464573D01*
X0047121379Y0060444571D01*
X0047074886Y0060390915D01*
X0047063500Y0060338573D01*
X0047063500Y0060088573D01*
X0047068051Y0060073071D01*
X0046915500Y0060073071D01*
X0046915500Y0060738573D01*
X0047063500Y0060738573D01*
X0047083501Y0060670452D01*
X0047137158Y0060623959D01*
X0047189500Y0060612573D01*
X0048227080Y0060612573D01*
X0048295201Y0060632575D01*
X0048341694Y0060686231D01*
X0048352002Y0060755018D01*
X0048344272Y0060813738D01*
X0048335758Y0060845511D01*
X0048274496Y0060993414D01*
X0048258049Y0061021900D01*
X0048160592Y0061148907D01*
X0048137333Y0061172165D01*
X0048010327Y0061269622D01*
X0047981841Y0061286069D01*
X0047833938Y0061347332D01*
X0047802166Y0061355845D01*
X0047683293Y0061371494D01*
X0047666847Y0061372573D01*
X0047189500Y0061372573D01*
X0047121379Y0061352571D01*
X0047074886Y0061298915D01*
X0047063500Y0061246573D01*
X0047063500Y0060738573D01*
X0046915500Y0060738573D01*
X0046915500Y0061246572D01*
X0046895498Y0061314693D01*
X0046841842Y0061361186D01*
X0046789500Y0061372572D01*
X0046312154Y0061372572D01*
X0046295709Y0061371494D01*
X0046176835Y0061355845D01*
X0046145062Y0061347332D01*
X0045997159Y0061286069D01*
X0045968673Y0061269622D01*
X0045841666Y0061172165D01*
X0045818408Y0061148907D01*
X0045720951Y0061021900D01*
X0045704504Y0060993414D01*
X0045643241Y0060845511D01*
X0045634728Y0060813739D01*
X0045619078Y0060694866D01*
X0045618205Y0060681553D01*
X0045494457Y0060725618D01*
X0045467109Y0060732033D01*
X0045286999Y0060753510D01*
X0045258909Y0060753706D01*
X0045111500Y0060738213D01*
X0045111500Y0063249417D01*
X0045648500Y0062712418D01*
X0045648500Y0062286600D01*
X0045649173Y0062273596D01*
X0045660147Y0062167829D01*
X0045665950Y0062140958D01*
X0045721926Y0061973178D01*
X0045734306Y0061946751D01*
X0045827378Y0061796349D01*
X0045845504Y0061773478D01*
X0045970679Y0061648522D01*
X0045993581Y0061630435D01*
X0046144146Y0061537625D01*
X0046170595Y0061525292D01*
X0046338472Y0061469610D01*
X0046365296Y0061463859D01*
X0046469757Y0061453156D01*
X0046482600Y0061452500D01*
X0047258400Y0061452500D01*
X0047271404Y0061453173D01*
X0047377170Y0061464147D01*
X0047404042Y0061469950D01*
X0047571822Y0061525926D01*
X0047598248Y0061538306D01*
X0047748651Y0061631378D01*
X0047771521Y0061649504D01*
X0047896478Y0061774679D01*
X0047908316Y0061789668D01*
X0047920899Y0061773792D01*
X0048045991Y0061648917D01*
X0048068893Y0061630830D01*
X0048219359Y0061538082D01*
X0048245807Y0061525749D01*
X0048413573Y0061470103D01*
X0048440399Y0061464352D01*
X0048544795Y0061453655D01*
X0048557637Y0061453000D01*
X0048691500Y0061453000D01*
X0048759620Y0061473002D01*
X0048806114Y0061526658D01*
X0048817500Y0061579000D01*
X0048817500Y0064044999D01*
X0048797498Y0064113119D01*
X0048743842Y0064159613D01*
X0048691500Y0064170998D01*
X0048557638Y0064170998D01*
X0048544635Y0064170326D01*
X0048438934Y0064159358D01*
X0048412061Y0064153555D01*
X0048244392Y0064097618D01*
X0048217965Y0064085238D01*
X0048067662Y0063992227D01*
X0048044792Y0063974101D01*
X0047919917Y0063849008D01*
X0047908326Y0063834333D01*
X0047895496Y0063850521D01*
X0047770320Y0063975477D01*
X0047747419Y0063993565D01*
X0047596854Y0064086375D01*
X0047570405Y0064098708D01*
X0047402528Y0064154390D01*
X0047375704Y0064160140D01*
X0047271243Y0064170844D01*
X0047258400Y0064171500D01*
X0046832582Y0064171500D01*
X0046214500Y0064789581D01*
X0046214500Y0067962918D01*
X0047181682Y0068930100D01*
X0047289123Y0068880000D01*
X0047179074Y0068828683D01*
X0047160053Y0068817701D01*
X0046977948Y0068690190D01*
X0046961124Y0068676072D01*
X0046803928Y0068518876D01*
X0046789810Y0068502052D01*
X0046662299Y0068319947D01*
X0046651317Y0068300926D01*
X0046557365Y0068099446D01*
X0046549853Y0068078807D01*
X0046492315Y0067864074D01*
X0046488501Y0067842444D01*
X0046469126Y0067620981D01*
X0046469126Y0067599019D01*
X0046488501Y0067377556D01*
X0046492315Y0067355926D01*
X0046549853Y0067141193D01*
X0046557365Y0067120554D01*
X0046651317Y0066919073D01*
X0046662299Y0066900053D01*
X0046789810Y0066717948D01*
X0046803928Y0066701123D01*
X0046961124Y0066543927D01*
X0046977948Y0066529810D01*
X0047160052Y0066402299D01*
X0047179073Y0066391317D01*
X0047380554Y0066297365D01*
X0047401193Y0066289852D01*
X0047615926Y0066232315D01*
X0047637556Y0066228500D01*
X0047859019Y0066209126D01*
X0047880981Y0066209126D01*
X0048100500Y0066228331D01*
X0048100500Y0065718767D01*
X0048098360Y0065696132D01*
X0048100500Y0065628055D01*
X0048100500Y0065600144D01*
X0048101493Y0065584354D01*
X0048102000Y0065580343D01*
X0048103389Y0065536152D01*
X0048108330Y0065504959D01*
X0048113981Y0065485507D01*
X0048116520Y0065465409D01*
X0048124374Y0065434819D01*
X0048140652Y0065393705D01*
X0048152985Y0065351254D01*
X0048165529Y0065322267D01*
X0048175841Y0065304831D01*
X0048183296Y0065286001D01*
X0048198511Y0065258323D01*
X0048224499Y0065222553D01*
X0048247005Y0065184498D01*
X0048266363Y0065159543D01*
X0048280684Y0065145222D01*
X0048292592Y0065128832D01*
X0048314212Y0065105807D01*
X0048348289Y0065077617D01*
X0049254906Y0064170999D01*
X0049199500Y0064170999D01*
X0049131379Y0064150998D01*
X0049084886Y0064097342D01*
X0049073499Y0064045000D01*
X0049073499Y0061579001D01*
X0049093502Y0061510880D01*
X0049147158Y0061464387D01*
X0049199500Y0061453001D01*
X0049333362Y0061453001D01*
X0049346365Y0061453674D01*
X0049452066Y0061464641D01*
X0049478939Y0061470444D01*
X0049646608Y0061526382D01*
X0049673035Y0061538762D01*
X0049823338Y0061631772D01*
X0049846208Y0061649899D01*
X0049930500Y0061734337D01*
X0049930500Y0058968767D01*
X0049928360Y0058946132D01*
X0049930500Y0058878055D01*
X0049930500Y0058850144D01*
X0049931493Y0058834354D01*
X0049932000Y0058830343D01*
X0049933389Y0058786152D01*
X0049938330Y0058754959D01*
X0049943981Y0058735507D01*
X0049946520Y0058715410D01*
X0049954374Y0058684819D01*
X0049970652Y0058643705D01*
X0049982985Y0058601254D01*
X0049995529Y0058572267D01*
X0050005841Y0058554831D01*
X0050013296Y0058536001D01*
X0050028511Y0058508323D01*
X0050054499Y0058472553D01*
X0050077005Y0058434498D01*
X0050096363Y0058409543D01*
X0050110684Y0058395222D01*
X0050122592Y0058378832D01*
X0050144211Y0058355807D01*
X0050178289Y0058327617D01*
X0051287248Y0057218658D01*
X0051301747Y0057201132D01*
X0051351414Y0057154492D01*
X0051371135Y0057134771D01*
X0051383007Y0057124303D01*
X0051386194Y0057121832D01*
X0051418426Y0057091564D01*
X0051443979Y0057072998D01*
X0051461730Y0057063240D01*
X0051477732Y0057050827D01*
X0051504917Y0057034751D01*
X0051545486Y0057017195D01*
X0051584240Y0056995890D01*
X0051613606Y0056984263D01*
X0051633226Y0056979226D01*
X0051651813Y0056971182D01*
X0051682143Y0056962370D01*
X0051725811Y0056955453D01*
X0051768636Y0056944458D01*
X0051799970Y0056940500D01*
X0051820223Y0056940500D01*
X0051840232Y0056937331D01*
X0051871801Y0056936339D01*
X0051915819Y0056940500D01*
X0053066898Y0056940500D01*
X0053059728Y0056913740D01*
X0053051997Y0056855019D01*
X0053062936Y0056784870D01*
X0053110064Y0056731772D01*
X0053176919Y0056712573D01*
X0053216431Y0056712573D01*
X0053243051Y0056677882D01*
X0053266309Y0056654624D01*
X0053287226Y0056638573D01*
X0053266308Y0056622522D01*
X0053243051Y0056599264D01*
X0053216431Y0056564572D01*
X0053176920Y0056564572D01*
X0053108799Y0056544571D01*
X0053072698Y0056502908D01*
X0052977917Y0056492946D01*
X0052950483Y0056486914D01*
X0052778774Y0056428460D01*
X0052753357Y0056416499D01*
X0052598866Y0056321455D01*
X0052576730Y0056304161D01*
X0052447135Y0056177251D01*
X0052429382Y0056155484D01*
X0052331124Y0056003017D01*
X0052318634Y0055977857D01*
X0052281904Y0055876943D01*
X0052195799Y0055887209D01*
X0052167709Y0055887406D01*
X0051987317Y0055868446D01*
X0051959883Y0055862414D01*
X0051788174Y0055803960D01*
X0051762757Y0055791999D01*
X0051608266Y0055696955D01*
X0051586130Y0055679660D01*
X0051456535Y0055552752D01*
X0051438782Y0055530984D01*
X0051340524Y0055378517D01*
X0051328034Y0055353357D01*
X0051265996Y0055182910D01*
X0051259391Y0055155607D01*
X0051236657Y0054975652D01*
X0051236264Y0054947565D01*
X0051253964Y0054767044D01*
X0051259805Y0054739568D01*
X0051317060Y0054567454D01*
X0051328842Y0054541956D01*
X0051422804Y0054386804D01*
X0051439943Y0054364549D01*
X0051565945Y0054234071D01*
X0051587589Y0054216166D01*
X0051739366Y0054116845D01*
X0051764438Y0054104181D01*
X0051934448Y0054040955D01*
X0051961703Y0054034159D01*
X0052141496Y0054010169D01*
X0052169581Y0054009581D01*
X0052350220Y0054026021D01*
X0052377736Y0054031669D01*
X0052428051Y0054048017D01*
X0052439159Y0054039401D01*
X0052466344Y0054023324D01*
X0052506913Y0054005768D01*
X0052545667Y0053984463D01*
X0052575033Y0053972836D01*
X0052594653Y0053967799D01*
X0052613240Y0053959755D01*
X0052643570Y0053950942D01*
X0052687238Y0053944026D01*
X0052730063Y0053933031D01*
X0052761397Y0053929073D01*
X0052781651Y0053929073D01*
X0052801659Y0053925904D01*
X0052833228Y0053924912D01*
X0052877246Y0053929073D01*
X0053042501Y0053929073D01*
X0053042501Y0053898688D01*
X0053043579Y0053882244D01*
X0053059240Y0053763278D01*
X0053067752Y0053731505D01*
X0053075181Y0053713573D01*
X0053067752Y0053695640D01*
X0053059240Y0053663869D01*
X0053043578Y0053544904D01*
X0053042500Y0053528458D01*
X0053042501Y0053248689D01*
X0053043579Y0053232244D01*
X0053059240Y0053113278D01*
X0053067752Y0053081505D01*
X0053129067Y0052933479D01*
X0053145514Y0052904992D01*
X0053243051Y0052777881D01*
X0053266309Y0052754624D01*
X0053393421Y0052657087D01*
X0053421907Y0052640640D01*
X0053569932Y0052579325D01*
X0053601704Y0052570813D01*
X0053720669Y0052555150D01*
X0053737115Y0052554073D01*
X0054653912Y0052554074D01*
X0054334339Y0052234500D01*
X0046208922Y0052234500D01*
X0046151218Y0052238434D01*
X0046120985Y0052236850D01*
X0046058028Y0052225862D01*
X0045994621Y0052218188D01*
X0045965220Y0052210968D01*
X0045958811Y0052208546D01*
X0045952054Y0052207367D01*
X0045923072Y0052198617D01*
X0045864560Y0052172933D01*
X0045804806Y0052150352D01*
X0045777976Y0052136326D01*
X0045772329Y0052132445D01*
X0045766051Y0052129689D01*
X0045739990Y0052114277D01*
X0045689303Y0052075382D01*
X0045636653Y0052039198D01*
X0045613943Y0052019176D01*
X0045572489Y0051972649D01*
X0044934340Y0051334500D01*
X0044081866Y0051334500D01*
X0044068258Y0051333763D01*
X0044006076Y0051327008D01*
X0043975454Y0051319727D01*
X0043839065Y0051268597D01*
X0043807730Y0051251441D01*
X0043691174Y0051164087D01*
X0043665913Y0051138826D01*
X0043664500Y0051136941D01*
X0043664500Y0051260406D01*
X0044165232Y0051761138D01*
X0044269248Y0051722455D01*
X0044296503Y0051715659D01*
X0044476296Y0051691669D01*
X0044504381Y0051691081D01*
X0044685020Y0051707521D01*
X0044712536Y0051713169D01*
X0044885044Y0051769220D01*
X0044910624Y0051780824D01*
X0045066429Y0051873702D01*
X0045088803Y0051890685D01*
X0045220158Y0052015772D01*
X0045238214Y0052037290D01*
X0045338591Y0052188371D01*
X0045351431Y0052213353D01*
X0045415843Y0052382918D01*
X0045422829Y0052410126D01*
X0045448073Y0052589747D01*
X0045449287Y0052605525D01*
X0045449604Y0052628242D01*
X0045448831Y0052644045D01*
X0045428612Y0052824300D01*
X0045422388Y0052851692D01*
X0045362736Y0053022988D01*
X0045350599Y0053048321D01*
X0045254480Y0053202145D01*
X0045237032Y0053224160D01*
X0045109221Y0053352866D01*
X0045087329Y0053370467D01*
X0044934180Y0053467658D01*
X0044908933Y0053479972D01*
X0044738057Y0053540818D01*
X0044710709Y0053547233D01*
X0044530599Y0053568709D01*
X0044502509Y0053568906D01*
X0044322117Y0053549946D01*
X0044294683Y0053543914D01*
X0044122974Y0053485460D01*
X0044097557Y0053473499D01*
X0043961718Y0053389930D01*
X0043948045Y0053389500D01*
X0043920144Y0053389500D01*
X0043904356Y0053388507D01*
X0043900353Y0053388001D01*
X0043856152Y0053386612D01*
X0043824957Y0053381671D01*
X0043805504Y0053376019D01*
X0043785412Y0053373481D01*
X0043754820Y0053365626D01*
X0043713710Y0053349350D01*
X0043671252Y0053337014D01*
X0043642267Y0053324471D01*
X0043624831Y0053314159D01*
X0043606001Y0053306704D01*
X0043578323Y0053291489D01*
X0043542553Y0053265501D01*
X0043504498Y0053242995D01*
X0043479543Y0053223637D01*
X0043465222Y0053209316D01*
X0043448832Y0053197407D01*
X0043425808Y0053175788D01*
X0043397622Y0053141717D01*
X0042540404Y0052284500D01*
X0041081866Y0052284500D01*
X0041068258Y0052283763D01*
X0041006076Y0052277007D01*
X0040975454Y0052269727D01*
X0040839065Y0052218597D01*
X0040807730Y0052201441D01*
X0040691174Y0052114087D01*
X0040665913Y0052088826D01*
X0040578559Y0051972270D01*
X0040561403Y0051940935D01*
X0040510273Y0051804546D01*
X0040502992Y0051773924D01*
X0040496237Y0051711742D01*
X0040495500Y0051698134D01*
X0040495500Y0050801866D01*
X0040496237Y0050788258D01*
X0040502992Y0050726076D01*
X0040510273Y0050695454D01*
X0040561403Y0050559065D01*
X0040578559Y0050527730D01*
X0040665913Y0050411174D01*
X0040691174Y0050385913D01*
X0040806224Y0050299687D01*
X0040691531Y0050213730D01*
X0040666270Y0050188469D01*
X0040579002Y0050072027D01*
X0040561846Y0050040692D01*
X0040510766Y0049904437D01*
X0040503485Y0049873815D01*
X0040496737Y0049811697D01*
X0040496000Y0049798089D01*
X0040496000Y0049604000D01*
X0040516002Y0049535879D01*
X0040569658Y0049489386D01*
X0040622000Y0049478000D01*
X0043537999Y0049478000D01*
X0043606120Y0049498002D01*
X0043623382Y0049517923D01*
X0043665913Y0049461174D01*
X0043691174Y0049435913D01*
X0043807730Y0049348559D01*
X0043839065Y0049331403D01*
X0043970500Y0049282130D01*
X0043970500Y0048029197D01*
X0043916177Y0048011073D01*
X0043889751Y0047998694D01*
X0043739349Y0047905622D01*
X0043716479Y0047887496D01*
X0043591522Y0047762321D01*
X0043579684Y0047747332D01*
X0043567101Y0047763208D01*
X0043442009Y0047888083D01*
X0043419107Y0047906170D01*
X0043268641Y0047998918D01*
X0043242193Y0048011251D01*
X0043074427Y0048066897D01*
X0043047601Y0048072648D01*
X0042943205Y0048083344D01*
X0042930363Y0048084000D01*
X0042796500Y0048084000D01*
X0042728379Y0048063998D01*
X0042681886Y0048010342D01*
X0042670500Y0047958000D01*
X0042670500Y0045492001D01*
X0042690502Y0045423880D01*
X0042744158Y0045377387D01*
X0042796500Y0045366001D01*
X0042930362Y0045366001D01*
X0042943365Y0045366674D01*
X0043049066Y0045377641D01*
X0043075939Y0045383444D01*
X0043243608Y0045439382D01*
X0043270035Y0045451762D01*
X0043420338Y0045544773D01*
X0043443208Y0045562899D01*
X0043568083Y0045687991D01*
X0043579674Y0045702667D01*
X0043592504Y0045686479D01*
X0043717679Y0045561522D01*
X0043740581Y0045543435D01*
X0043891146Y0045450625D01*
X0043917595Y0045438292D01*
X0044085472Y0045382610D01*
X0044112296Y0045376859D01*
X0044216757Y0045366156D01*
X0044229600Y0045365500D01*
X0045005400Y0045365500D01*
X0045018404Y0045366173D01*
X0045124170Y0045377147D01*
X0045151042Y0045382950D01*
X0045318822Y0045438926D01*
X0045345249Y0045451306D01*
X0045495651Y0045544378D01*
X0045518521Y0045562504D01*
X0045643478Y0045687679D01*
X0045661565Y0045710581D01*
X0045754374Y0045861146D01*
X0045766708Y0045887595D01*
X0045822390Y0046055472D01*
X0045828141Y0046082296D01*
X0045838844Y0046186757D01*
X0045839500Y0046199600D01*
X0045839500Y0047250400D01*
X0045838827Y0047263404D01*
X0045827853Y0047369170D01*
X0045822050Y0047396042D01*
X0045785577Y0047505364D01*
X0049111249Y0047505364D01*
X0049129651Y0047142103D01*
X0049131076Y0047128550D01*
X0049188603Y0046769401D01*
X0049191483Y0046756081D01*
X0049287459Y0046405246D01*
X0049291761Y0046392315D01*
X0049425067Y0046053897D01*
X0049430741Y0046041506D01*
X0049599816Y0045719465D01*
X0049606794Y0045707759D01*
X0049809661Y0045405861D01*
X0049817863Y0045394977D01*
X0049956231Y0045230661D01*
X0050015410Y0045191438D01*
X0050086399Y0045190436D01*
X0050141706Y0045222726D01*
X0052329885Y0047410905D01*
X0052363911Y0047473217D01*
X0052358846Y0047544032D01*
X0052329885Y0047589095D01*
X0050141810Y0049777170D01*
X0050079498Y0049811196D01*
X0050008683Y0049806131D01*
X0049956903Y0049769905D01*
X0049832626Y0049624394D01*
X0049824350Y0049613568D01*
X0049619380Y0049313094D01*
X0049612320Y0049301437D01*
X0049441001Y0048980583D01*
X0049435242Y0048968233D01*
X0049299576Y0048630755D01*
X0049295184Y0048617854D01*
X0049196759Y0048267697D01*
X0049193786Y0048254397D01*
X0049133753Y0047895658D01*
X0049132235Y0047882115D01*
X0049111297Y0047518992D01*
X0049111249Y0047505364D01*
X0045785577Y0047505364D01*
X0045766074Y0047563822D01*
X0045753694Y0047590249D01*
X0045660622Y0047740651D01*
X0045642495Y0047763521D01*
X0045639500Y0047766511D01*
X0045639500Y0049265500D01*
X0046078134Y0049265500D01*
X0046091742Y0049266237D01*
X0046153924Y0049272992D01*
X0046184546Y0049280273D01*
X0046320935Y0049331403D01*
X0046352270Y0049348559D01*
X0046468826Y0049435913D01*
X0046494087Y0049461174D01*
X0046581441Y0049577730D01*
X0046598597Y0049609065D01*
X0046649727Y0049745454D01*
X0046657008Y0049776076D01*
X0046663763Y0049838258D01*
X0046664500Y0049851866D01*
X0046664500Y0050565500D01*
X0050937790Y0050565500D01*
X0050654766Y0050396113D01*
X0050643468Y0050388492D01*
X0050353366Y0050169089D01*
X0050342956Y0050160293D01*
X0050323004Y0050141491D01*
X0050287146Y0050080215D01*
X0050290108Y0050009281D01*
X0050320323Y0049960697D01*
X0052510905Y0047770115D01*
X0052573217Y0047736089D01*
X0052644031Y0047741154D01*
X0052689095Y0047770115D01*
X0054880072Y0049961093D01*
X0054914099Y0050023405D01*
X0054909034Y0050094220D01*
X0054877713Y0050141583D01*
X0054866318Y0050152397D01*
X0054855937Y0050161232D01*
X0054566602Y0050381646D01*
X0054555331Y0050389306D01*
X0054263251Y0050565500D01*
X0054651088Y0050565500D01*
X0054708782Y0050561567D01*
X0054739015Y0050563151D01*
X0054801962Y0050574137D01*
X0054865379Y0050581811D01*
X0054894780Y0050589032D01*
X0054901189Y0050591454D01*
X0054907946Y0050592633D01*
X0054936930Y0050601384D01*
X0054995441Y0050627069D01*
X0055055193Y0050649647D01*
X0055082020Y0050663671D01*
X0055087670Y0050667554D01*
X0055093955Y0050670313D01*
X0055120010Y0050685723D01*
X0055170697Y0050724618D01*
X0055223347Y0050760802D01*
X0055246057Y0050780824D01*
X0055287510Y0050827351D01*
X0055966000Y0051505840D01*
X0055966000Y0048399684D01*
X0055908698Y0048606310D01*
X0055904352Y0048619226D01*
X0055769864Y0048957177D01*
X0055764148Y0048969548D01*
X0055593948Y0049290997D01*
X0055586931Y0049302678D01*
X0055383012Y0049603866D01*
X0055374772Y0049614721D01*
X0055243419Y0049769608D01*
X0055184105Y0049808625D01*
X0055113112Y0049809380D01*
X0055058228Y0049777208D01*
X0052870115Y0047589095D01*
X0052836089Y0047526783D01*
X0052841154Y0047455968D01*
X0052870115Y0047410905D01*
X0055058180Y0045222840D01*
X0055120492Y0045188814D01*
X0055191306Y0045193879D01*
X0055242800Y0045229770D01*
X0055359941Y0045365958D01*
X0055368256Y0045376756D01*
X0055574273Y0045676513D01*
X0055581373Y0045688145D01*
X0055753812Y0046008398D01*
X0055759615Y0046020729D01*
X0055896457Y0046357732D01*
X0055900894Y0046370617D01*
X0055966000Y0046599174D01*
X0055966000Y0044634000D01*
X0054585466Y0044634000D01*
X0054837304Y0044823085D01*
X0054847744Y0044831845D01*
X0054876308Y0044858575D01*
X0054912380Y0044919725D01*
X0054909665Y0044990670D01*
X0054879310Y0045039670D01*
X0052689095Y0047229885D01*
X0052626783Y0047263911D01*
X0052555968Y0047258846D01*
X0052510905Y0047229885D01*
X0050319502Y0045038482D01*
X0050285476Y0044976170D01*
X0050290541Y0044905355D01*
X0050321555Y0044858284D01*
X0050324449Y0044855519D01*
X0050334787Y0044846660D01*
X0050611930Y0044634000D01*
X0039634000Y0044634000D01*
X0039634000Y0046199638D01*
X0041321001Y0046199638D01*
X0041321674Y0046186635D01*
X0041332641Y0046080934D01*
X0041338444Y0046054061D01*
X0041394382Y0045886392D01*
X0041406762Y0045859965D01*
X0041499773Y0045709662D01*
X0041517899Y0045686792D01*
X0041642991Y0045561917D01*
X0041665893Y0045543830D01*
X0041816359Y0045451082D01*
X0041842807Y0045438749D01*
X0042010573Y0045383103D01*
X0042037399Y0045377352D01*
X0042141795Y0045366656D01*
X0042154637Y0045366000D01*
X0042288500Y0045366000D01*
X0042356621Y0045386002D01*
X0042403114Y0045439658D01*
X0042414500Y0045492000D01*
X0042414500Y0046471000D01*
X0042394498Y0046539121D01*
X0042340842Y0046585614D01*
X0042288500Y0046597000D01*
X0041447001Y0046597000D01*
X0041378880Y0046576998D01*
X0041332387Y0046523342D01*
X0041321001Y0046471000D01*
X0041321001Y0046199638D01*
X0039634000Y0046199638D01*
X0039634000Y0046979000D01*
X0041321000Y0046979000D01*
X0041341002Y0046910879D01*
X0041394658Y0046864386D01*
X0041447000Y0046853000D01*
X0042288500Y0046853000D01*
X0042356621Y0046873002D01*
X0042403114Y0046926658D01*
X0042414500Y0046979000D01*
X0042414500Y0047957999D01*
X0042394498Y0048026120D01*
X0042340842Y0048072613D01*
X0042288500Y0048083999D01*
X0042154638Y0048083999D01*
X0042141635Y0048083326D01*
X0042035934Y0048072359D01*
X0042009061Y0048066556D01*
X0041841392Y0048010618D01*
X0041814965Y0047998238D01*
X0041664662Y0047905227D01*
X0041641792Y0047887101D01*
X0041516917Y0047762009D01*
X0041498830Y0047739107D01*
X0041406082Y0047588641D01*
X0041393749Y0047562193D01*
X0041338103Y0047394427D01*
X0041332352Y0047367601D01*
X0041321656Y0047263205D01*
X0041321000Y0047250363D01*
X0041321000Y0046979000D01*
X0039634000Y0046979000D01*
X0039634000Y0048901912D01*
X0040496001Y0048901912D01*
X0040496738Y0048888307D01*
X0040503485Y0048826188D01*
X0040510766Y0048795563D01*
X0040561846Y0048659308D01*
X0040579002Y0048627973D01*
X0040666270Y0048511531D01*
X0040691531Y0048486270D01*
X0040807973Y0048399002D01*
X0040839308Y0048381846D01*
X0040975563Y0048330766D01*
X0041006185Y0048323485D01*
X0041068303Y0048316737D01*
X0041081911Y0048316000D01*
X0041826000Y0048316000D01*
X0041894121Y0048336002D01*
X0041940614Y0048389658D01*
X0041952000Y0048442000D01*
X0041952000Y0048442001D01*
X0042208000Y0048442001D01*
X0042228002Y0048373880D01*
X0042281658Y0048327387D01*
X0042334000Y0048316001D01*
X0043078088Y0048316001D01*
X0043091693Y0048316738D01*
X0043153812Y0048323485D01*
X0043184437Y0048330766D01*
X0043320692Y0048381846D01*
X0043352027Y0048399002D01*
X0043468469Y0048486270D01*
X0043493730Y0048511531D01*
X0043580998Y0048627973D01*
X0043598154Y0048659308D01*
X0043649234Y0048795563D01*
X0043656515Y0048826185D01*
X0043663263Y0048888303D01*
X0043664000Y0048901911D01*
X0043664000Y0049096000D01*
X0043643998Y0049164121D01*
X0043590342Y0049210614D01*
X0043538000Y0049222000D01*
X0042334000Y0049222000D01*
X0042265879Y0049201998D01*
X0042219386Y0049148342D01*
X0042208000Y0049096000D01*
X0042208000Y0048442001D01*
X0041952000Y0048442001D01*
X0041952000Y0049096000D01*
X0041931998Y0049164121D01*
X0041878342Y0049210614D01*
X0041826000Y0049222000D01*
X0040622001Y0049222000D01*
X0040553880Y0049201998D01*
X0040507387Y0049148342D01*
X0040496001Y0049096000D01*
X0040496001Y0048901912D01*
X0039634000Y0048901912D01*
X0039634000Y0071428570D01*
X0040766922Y0071428570D01*
X0040776702Y0071217275D01*
X0040780074Y0071193580D01*
X0040829632Y0070987945D01*
X0040837424Y0070965315D01*
X0040924973Y0070772762D01*
X0040936904Y0070752013D01*
X0041059284Y0070579489D01*
X0041074923Y0070561371D01*
X0041227719Y0070415101D01*
X0041246502Y0070400267D01*
X0041279258Y0070379116D01*
X0041159593Y0070285118D01*
X0041142261Y0070268613D01*
X0041003692Y0070108927D01*
X0040989793Y0070089441D01*
X0040883920Y0069906432D01*
X0040873956Y0069884670D01*
X0040804599Y0069684943D01*
X0040798930Y0069661685D01*
X0040797537Y0069652075D01*
X0040807560Y0069581790D01*
X0040853991Y0069528081D01*
X0040922234Y0069508000D01*
X0043633517Y0069508000D01*
X0043701638Y0069528002D01*
X0043748131Y0069581658D01*
X0043758235Y0069651932D01*
X0043756010Y0069663521D01*
X0043729893Y0069771891D01*
X0043722101Y0069794521D01*
X0043634592Y0069986988D01*
X0043622661Y0070007737D01*
X0043500336Y0070180183D01*
X0043484697Y0070198301D01*
X0043331970Y0070344505D01*
X0043313187Y0070359339D01*
X0043280770Y0070380270D01*
X0043400753Y0070474518D01*
X0043418085Y0070491024D01*
X0043556717Y0070650783D01*
X0043570616Y0070670268D01*
X0043676536Y0070853359D01*
X0043686501Y0070875121D01*
X0043755888Y0071074938D01*
X0043761556Y0071098191D01*
X0043791909Y0071307524D01*
X0043793078Y0071331430D01*
X0043783298Y0071542725D01*
X0043779926Y0071566420D01*
X0043730368Y0071772055D01*
X0043722576Y0071794685D01*
X0043635027Y0071987238D01*
X0043623096Y0072007987D01*
X0043500716Y0072180511D01*
X0043485077Y0072198629D01*
X0043389813Y0072289824D01*
X0043445651Y0072324378D01*
X0043468521Y0072342504D01*
X0043593478Y0072467679D01*
X0043611565Y0072490581D01*
X0043704375Y0072641146D01*
X0043716708Y0072667595D01*
X0043720497Y0072679018D01*
X0046469628Y0072679018D01*
X0046488996Y0072457642D01*
X0046492810Y0072436013D01*
X0046550325Y0072221364D01*
X0046557837Y0072200725D01*
X0046651752Y0071999325D01*
X0046662733Y0071980306D01*
X0046706971Y0071917126D01*
X0046762428Y0071872796D01*
X0046833047Y0071865486D01*
X0046899280Y0071900300D01*
X0047599885Y0072600905D01*
X0047633911Y0072663217D01*
X0047630080Y0072716782D01*
X0048106089Y0072716782D01*
X0048111154Y0072645968D01*
X0048140115Y0072600905D01*
X0048840720Y0071900300D01*
X0048903031Y0071866274D01*
X0048973847Y0071871339D01*
X0049033029Y0071917126D01*
X0049077267Y0071980306D01*
X0049088248Y0071999325D01*
X0049182163Y0072200725D01*
X0049189675Y0072221364D01*
X0049247190Y0072436013D01*
X0049251004Y0072457642D01*
X0049270372Y0072679018D01*
X0049270372Y0072700982D01*
X0049251004Y0072922358D01*
X0049247190Y0072943987D01*
X0049189675Y0073158636D01*
X0049182163Y0073179275D01*
X0049088248Y0073380675D01*
X0049077267Y0073399694D01*
X0049033029Y0073462874D01*
X0048977572Y0073507204D01*
X0048906953Y0073514514D01*
X0048840720Y0073479700D01*
X0048140115Y0072779095D01*
X0048106089Y0072716782D01*
X0047630080Y0072716782D01*
X0047628845Y0072734032D01*
X0047599885Y0072779095D01*
X0046899280Y0073479700D01*
X0046836968Y0073513726D01*
X0046766153Y0073508661D01*
X0046706971Y0073462874D01*
X0046662733Y0073399694D01*
X0046651752Y0073380675D01*
X0046557837Y0073179275D01*
X0046550325Y0073158636D01*
X0046492810Y0072943987D01*
X0046488996Y0072922358D01*
X0046469628Y0072700982D01*
X0046469628Y0072679018D01*
X0043720497Y0072679018D01*
X0043772390Y0072835472D01*
X0043778141Y0072862296D01*
X0043788844Y0072966757D01*
X0043789500Y0072979600D01*
X0043789500Y0073726953D01*
X0047045486Y0073726953D01*
X0047080300Y0073660720D01*
X0047780905Y0072960115D01*
X0047843216Y0072926089D01*
X0047914032Y0072931153D01*
X0047959095Y0072960115D01*
X0048659700Y0073660720D01*
X0048693726Y0073723032D01*
X0048688660Y0073793847D01*
X0048662271Y0073827957D01*
X0049444745Y0073827957D01*
X0049445821Y0073810851D01*
X0049483346Y0073525820D01*
X0049486734Y0073509018D01*
X0049562595Y0073231716D01*
X0049568232Y0073215529D01*
X0049681026Y0072951089D01*
X0049688807Y0072935818D01*
X0049836445Y0072689133D01*
X0049846227Y0072675058D01*
X0050025979Y0072450691D01*
X0050037580Y0072438075D01*
X0050246117Y0072240180D01*
X0050259325Y0072229255D01*
X0050492791Y0072061492D01*
X0050507358Y0072052460D01*
X0050761433Y0071917934D01*
X0050777091Y0071910962D01*
X0051047072Y0071812163D01*
X0051063531Y0071807380D01*
X0051344422Y0071746137D01*
X0051361378Y0071743633D01*
X0051586853Y0071725888D01*
X0051596739Y0071725500D01*
X0051752271Y0071725500D01*
X0051760841Y0071725792D01*
X0051975395Y0071740419D01*
X0051992376Y0071742745D01*
X0052273893Y0071801044D01*
X0052290402Y0071805653D01*
X0052561403Y0071901620D01*
X0052577133Y0071908427D01*
X0052832602Y0072040284D01*
X0052847263Y0072049163D01*
X0053082474Y0072214472D01*
X0053095794Y0072225259D01*
X0053306393Y0072420960D01*
X0053318126Y0072433454D01*
X0053500217Y0072655926D01*
X0053510146Y0072669897D01*
X0053660360Y0072915023D01*
X0053668300Y0072930213D01*
X0053783856Y0073193457D01*
X0053789662Y0073209583D01*
X0053868423Y0073486075D01*
X0053871987Y0073502841D01*
X0053912494Y0073787463D01*
X0053913748Y0073804556D01*
X0053915255Y0074092043D01*
X0053914179Y0074109149D01*
X0053876654Y0074394180D01*
X0053873266Y0074410982D01*
X0053797405Y0074688284D01*
X0053791768Y0074704471D01*
X0053678974Y0074968911D01*
X0053671193Y0074984182D01*
X0053523555Y0075230867D01*
X0053513773Y0075244942D01*
X0053334021Y0075469309D01*
X0053322420Y0075481925D01*
X0053113882Y0075679820D01*
X0053100675Y0075690745D01*
X0052867209Y0075858508D01*
X0052852642Y0075867540D01*
X0052598567Y0076002066D01*
X0052582909Y0076009038D01*
X0052312928Y0076107837D01*
X0052296469Y0076112619D01*
X0052015578Y0076173863D01*
X0051998622Y0076176367D01*
X0051773147Y0076194112D01*
X0051763261Y0076194500D01*
X0051607729Y0076194500D01*
X0051599159Y0076194208D01*
X0051384605Y0076179581D01*
X0051367624Y0076177255D01*
X0051086107Y0076118956D01*
X0051069598Y0076114347D01*
X0050798597Y0076018380D01*
X0050782866Y0076011573D01*
X0050527398Y0075879716D01*
X0050512737Y0075870837D01*
X0050277526Y0075705528D01*
X0050264206Y0075694741D01*
X0050053607Y0075499040D01*
X0050041874Y0075486546D01*
X0049859783Y0075264074D01*
X0049849854Y0075250103D01*
X0049699640Y0075004977D01*
X0049691700Y0074989787D01*
X0049576144Y0074726542D01*
X0049570338Y0074710417D01*
X0049491577Y0074433925D01*
X0049488013Y0074417159D01*
X0049447506Y0074132537D01*
X0049446251Y0074115444D01*
X0049444745Y0073827957D01*
X0048662271Y0073827957D01*
X0048642875Y0073853028D01*
X0048579696Y0073897266D01*
X0048560676Y0073908248D01*
X0048359275Y0074002163D01*
X0048338636Y0074009675D01*
X0048123987Y0074067190D01*
X0048102358Y0074071004D01*
X0047880982Y0074090372D01*
X0047859018Y0074090372D01*
X0047637642Y0074071004D01*
X0047616013Y0074067190D01*
X0047401364Y0074009675D01*
X0047380725Y0074002163D01*
X0047179325Y0073908248D01*
X0047160306Y0073897267D01*
X0047097126Y0073853028D01*
X0047052796Y0073797572D01*
X0047045486Y0073726953D01*
X0043789500Y0073726953D01*
X0043789500Y0073780400D01*
X0043788827Y0073793404D01*
X0043777853Y0073899170D01*
X0043772050Y0073926042D01*
X0043716074Y0074093822D01*
X0043703694Y0074120249D01*
X0043610622Y0074270651D01*
X0043592496Y0074293521D01*
X0043467321Y0074418478D01*
X0043444419Y0074436565D01*
X0043293853Y0074529375D01*
X0043267405Y0074541708D01*
X0043099528Y0074597390D01*
X0043072704Y0074603141D01*
X0042968243Y0074613844D01*
X0042955400Y0074614499D01*
X0041604600Y0074614499D01*
X0041591596Y0074613827D01*
X0041485830Y0074602853D01*
X0041458958Y0074597050D01*
X0041291178Y0074541074D01*
X0041264751Y0074528694D01*
X0041114349Y0074435622D01*
X0041091479Y0074417496D01*
X0040966522Y0074292321D01*
X0040948435Y0074269419D01*
X0040855625Y0074118854D01*
X0040843292Y0074092405D01*
X0040787610Y0073924528D01*
X0040781859Y0073897704D01*
X0040771156Y0073793243D01*
X0040770500Y0073780400D01*
X0040770500Y0072979600D01*
X0040771173Y0072966596D01*
X0040782147Y0072860830D01*
X0040787950Y0072833958D01*
X0040843926Y0072666178D01*
X0040856306Y0072639751D01*
X0040949378Y0072489349D01*
X0040967504Y0072466478D01*
X0041092679Y0072341522D01*
X0041115581Y0072323435D01*
X0041167120Y0072291665D01*
X0041159247Y0072285482D01*
X0041141915Y0072268976D01*
X0041003283Y0072109217D01*
X0040989384Y0072089732D01*
X0040883463Y0071906641D01*
X0040873499Y0071884879D01*
X0040804111Y0071685062D01*
X0040798443Y0071661809D01*
X0040768091Y0071452476D01*
X0040766922Y0071428570D01*
X0039634000Y0071428570D01*
X0039634000Y0077378866D01*
X0040675500Y0077378866D01*
X0040676237Y0077365258D01*
X0040682992Y0077303076D01*
X0040690273Y0077272454D01*
X0040741403Y0077136065D01*
X0040758559Y0077104730D01*
X0040845913Y0076988174D01*
X0040871174Y0076962913D01*
X0040987730Y0076875559D01*
X0041019065Y0076858403D01*
X0041155454Y0076807273D01*
X0041186076Y0076799992D01*
X0041248258Y0076793237D01*
X0041261866Y0076792500D01*
X0043058134Y0076792500D01*
X0043071742Y0076793237D01*
X0043133924Y0076799992D01*
X0043164546Y0076807273D01*
X0043300935Y0076858403D01*
X0043332270Y0076875559D01*
X0043448826Y0076962913D01*
X0043474087Y0076988174D01*
X0043561441Y0077104730D01*
X0043578597Y0077136065D01*
X0043629727Y0077272454D01*
X0043637008Y0077303076D01*
X0043643763Y0077365258D01*
X0043644500Y0077378866D01*
X0043644500Y0077976170D01*
X0050285476Y0077976170D01*
X0050290541Y0077905355D01*
X0050321555Y0077858284D01*
X0050324449Y0077855519D01*
X0050334787Y0077846660D01*
X0050623350Y0077625237D01*
X0050634595Y0077617537D01*
X0050945385Y0077428574D01*
X0050957395Y0077422134D01*
X0051286774Y0077267842D01*
X0051299409Y0077262737D01*
X0051643526Y0077144919D01*
X0051656639Y0077141209D01*
X0052011466Y0077061245D01*
X0052024904Y0077058972D01*
X0052386293Y0077017797D01*
X0052399896Y0077016989D01*
X0052763618Y0077015085D01*
X0052777230Y0077015750D01*
X0053139030Y0077053138D01*
X0053152490Y0077055270D01*
X0053508136Y0077131514D01*
X0053521287Y0077135087D01*
X0053866619Y0077249295D01*
X0053879307Y0077254268D01*
X0054210284Y0077405103D01*
X0054222361Y0077411417D01*
X0054535112Y0077597115D01*
X0054546437Y0077604696D01*
X0054837304Y0077823085D01*
X0054847744Y0077831845D01*
X0054876308Y0077858575D01*
X0054912380Y0077919725D01*
X0054909665Y0077990670D01*
X0054879310Y0078039670D01*
X0052689095Y0080229885D01*
X0052626783Y0080263911D01*
X0052555968Y0080258846D01*
X0052510905Y0080229885D01*
X0050319502Y0078038482D01*
X0050285476Y0077976170D01*
X0043644500Y0077976170D01*
X0043644500Y0079175134D01*
X0043643763Y0079188742D01*
X0043637008Y0079250924D01*
X0043629727Y0079281546D01*
X0043578597Y0079417935D01*
X0043561441Y0079449270D01*
X0043474087Y0079565826D01*
X0043448826Y0079591087D01*
X0043332270Y0079678441D01*
X0043300935Y0079695597D01*
X0043181917Y0079740215D01*
X0043286653Y0079844587D01*
X0043300035Y0079860311D01*
X0043430344Y0080041655D01*
X0043440979Y0080059354D01*
X0043539921Y0080259547D01*
X0043547522Y0080278745D01*
X0043612438Y0080492408D01*
X0043615239Y0080505364D01*
X0049111249Y0080505364D01*
X0049129651Y0080142103D01*
X0049131076Y0080128550D01*
X0049188603Y0079769401D01*
X0049191483Y0079756081D01*
X0049287459Y0079405246D01*
X0049291761Y0079392315D01*
X0049425067Y0079053897D01*
X0049430741Y0079041506D01*
X0049599816Y0078719465D01*
X0049606794Y0078707759D01*
X0049809661Y0078405861D01*
X0049817863Y0078394977D01*
X0049956231Y0078230661D01*
X0050015410Y0078191438D01*
X0050086399Y0078190436D01*
X0050141706Y0078222726D01*
X0052329885Y0080410905D01*
X0052363911Y0080473217D01*
X0052358846Y0080544032D01*
X0052329885Y0080589095D01*
X0050141810Y0082777170D01*
X0050079498Y0082811196D01*
X0050008683Y0082806131D01*
X0049956903Y0082769905D01*
X0049832626Y0082624394D01*
X0049824350Y0082613568D01*
X0049619380Y0082313094D01*
X0049612320Y0082301437D01*
X0049441001Y0081980583D01*
X0049435242Y0081968233D01*
X0049299576Y0081630755D01*
X0049295184Y0081617854D01*
X0049196759Y0081267697D01*
X0049193786Y0081254397D01*
X0049133753Y0080895658D01*
X0049132235Y0080882115D01*
X0049111297Y0080518992D01*
X0049111249Y0080505364D01*
X0043615239Y0080505364D01*
X0043616802Y0080512592D01*
X0043621273Y0080546555D01*
X0043610333Y0080616703D01*
X0043563205Y0080669802D01*
X0043496351Y0080689000D01*
X0040825110Y0080689000D01*
X0040756989Y0080668998D01*
X0040710496Y0080615342D01*
X0040700392Y0080545068D01*
X0040702193Y0080535299D01*
X0040736784Y0080381810D01*
X0040742958Y0080362107D01*
X0040826971Y0080155206D01*
X0040836281Y0080136775D01*
X0040952959Y0079946374D01*
X0040965155Y0079929712D01*
X0041111364Y0079760924D01*
X0041126116Y0079746477D01*
X0041135035Y0079739072D01*
X0041019065Y0079695597D01*
X0040987730Y0079678441D01*
X0040871174Y0079591087D01*
X0040845913Y0079565826D01*
X0040758559Y0079449270D01*
X0040741403Y0079417935D01*
X0040690273Y0079281546D01*
X0040682992Y0079250924D01*
X0040676237Y0079188742D01*
X0040675500Y0079175134D01*
X0040675500Y0077378866D01*
X0039634000Y0077378866D01*
X0039634000Y0081084410D01*
X0040696055Y0081084410D01*
X0040708693Y0081014547D01*
X0040757096Y0080962608D01*
X0040821339Y0080945000D01*
X0041906000Y0080945000D01*
X0041974121Y0080965002D01*
X0042020614Y0081018658D01*
X0042032000Y0081071000D01*
X0042288000Y0081071000D01*
X0042308002Y0081002879D01*
X0042361658Y0080956386D01*
X0042414000Y0080945000D01*
X0043496459Y0080945000D01*
X0043564580Y0080965002D01*
X0043611073Y0081018658D01*
X0043621177Y0081088932D01*
X0043618663Y0081101696D01*
X0043572159Y0081286833D01*
X0043565505Y0081306379D01*
X0043476462Y0081511165D01*
X0043466704Y0081529363D01*
X0043345409Y0081716857D01*
X0043332810Y0081733217D01*
X0043182521Y0081898382D01*
X0043167420Y0081912464D01*
X0042992173Y0082050865D01*
X0042974975Y0082062291D01*
X0042779477Y0082170212D01*
X0042760643Y0082178677D01*
X0042550144Y0082253219D01*
X0042530180Y0082258493D01*
X0042436096Y0082275252D01*
X0042365524Y0082267506D01*
X0042310342Y0082222836D01*
X0042288000Y0082151205D01*
X0042288000Y0081071000D01*
X0042032000Y0081071000D01*
X0042032000Y0082152013D01*
X0042011998Y0082220134D01*
X0041958342Y0082266627D01*
X0041886940Y0082276563D01*
X0041825148Y0082267107D01*
X0041805063Y0082262322D01*
X0041592805Y0082192946D01*
X0041573770Y0082184944D01*
X0041375694Y0082081832D01*
X0041358221Y0082070829D01*
X0041179645Y0081936750D01*
X0041164204Y0081923041D01*
X0041009925Y0081761597D01*
X0040996931Y0081745550D01*
X0040871091Y0081561076D01*
X0040860891Y0081543122D01*
X0040766871Y0081340572D01*
X0040759742Y0081321194D01*
X0040700065Y0081106008D01*
X0040696198Y0081085746D01*
X0040696055Y0081084410D01*
X0039634000Y0081084410D01*
X0039634000Y0083366000D01*
X0050613728Y0083366000D01*
X0050353366Y0083169089D01*
G37*
G04 #@! TD.AperFunction*
X0054405500Y0068102918D02*
X0054405500Y0064171500D01*
X0054145600Y0064171500D01*
X0054132596Y0064170827D01*
X0054026830Y0064159853D01*
X0053999958Y0064154050D01*
X0053832178Y0064098074D01*
X0053805751Y0064085694D01*
X0053655349Y0063992622D01*
X0053632479Y0063974496D01*
X0053507522Y0063849321D01*
X0053495684Y0063834332D01*
X0053483101Y0063850207D01*
X0053358008Y0063975083D01*
X0053335107Y0063993170D01*
X0053184641Y0064085917D01*
X0053158193Y0064098251D01*
X0052990427Y0064153897D01*
X0052963601Y0064159648D01*
X0052859205Y0064170344D01*
X0052846363Y0064170999D01*
X0052712500Y0064170999D01*
X0052644379Y0064150998D01*
X0052597886Y0064097342D01*
X0052586500Y0064045000D01*
X0052586500Y0062684000D01*
X0052330500Y0062684000D01*
X0052330500Y0064044999D01*
X0052310498Y0064113119D01*
X0052256842Y0064159613D01*
X0052214687Y0064168783D01*
X0052273893Y0064181044D01*
X0052290402Y0064185653D01*
X0052561403Y0064281620D01*
X0052577133Y0064288427D01*
X0052832602Y0064420283D01*
X0052847263Y0064429163D01*
X0053082474Y0064594471D01*
X0053095794Y0064605259D01*
X0053306393Y0064800960D01*
X0053318126Y0064813454D01*
X0053500217Y0065035926D01*
X0053510146Y0065049897D01*
X0053660360Y0065295023D01*
X0053668300Y0065310213D01*
X0053783856Y0065573457D01*
X0053789662Y0065589583D01*
X0053868423Y0065866074D01*
X0053871987Y0065882841D01*
X0053912494Y0066167463D01*
X0053913748Y0066184556D01*
X0053915255Y0066472043D01*
X0053914179Y0066489149D01*
X0053876654Y0066774180D01*
X0053873266Y0066790982D01*
X0053797405Y0067068284D01*
X0053791768Y0067084471D01*
X0053678974Y0067348911D01*
X0053671193Y0067364182D01*
X0053523555Y0067610867D01*
X0053513773Y0067624942D01*
X0053334021Y0067849309D01*
X0053322420Y0067861925D01*
X0053113882Y0068059820D01*
X0053100675Y0068070745D01*
X0052867209Y0068238508D01*
X0052852642Y0068247540D01*
X0052598567Y0068382066D01*
X0052582909Y0068389038D01*
X0052312928Y0068487837D01*
X0052296469Y0068492619D01*
X0052015578Y0068553863D01*
X0051998622Y0068556367D01*
X0051773147Y0068574112D01*
X0051763261Y0068574500D01*
X0051607729Y0068574500D01*
X0051599159Y0068574208D01*
X0051384605Y0068559581D01*
X0051367624Y0068557255D01*
X0051086107Y0068498956D01*
X0051069598Y0068494347D01*
X0050798597Y0068398380D01*
X0050782866Y0068391573D01*
X0050527398Y0068259716D01*
X0050512737Y0068250837D01*
X0050277526Y0068085528D01*
X0050264206Y0068074741D01*
X0050053607Y0067879040D01*
X0050041874Y0067866546D01*
X0049859783Y0067644074D01*
X0049849854Y0067630102D01*
X0049699640Y0067384976D01*
X0049691700Y0067369787D01*
X0049619500Y0067205311D01*
X0049619500Y0067211237D01*
X0049621639Y0067233867D01*
X0049619500Y0067301925D01*
X0049619500Y0067329856D01*
X0049618506Y0067345654D01*
X0049617999Y0067349664D01*
X0049616611Y0067393847D01*
X0049611670Y0067425041D01*
X0049606020Y0067444491D01*
X0049603480Y0067464591D01*
X0049595625Y0067495180D01*
X0049579352Y0067536284D01*
X0049567015Y0067578747D01*
X0049554472Y0067607732D01*
X0049544161Y0067625168D01*
X0049536704Y0067644001D01*
X0049521488Y0067671677D01*
X0049495509Y0067707434D01*
X0049472996Y0067745502D01*
X0049453637Y0067770458D01*
X0049439313Y0067784782D01*
X0049427408Y0067801168D01*
X0049405787Y0067824192D01*
X0049371722Y0067852373D01*
X0049206566Y0068017529D01*
X0049190146Y0068078808D01*
X0049182635Y0068099446D01*
X0049088683Y0068300926D01*
X0049077701Y0068319947D01*
X0048950190Y0068502052D01*
X0048936071Y0068518876D01*
X0048778876Y0068676072D01*
X0048762052Y0068690190D01*
X0048579948Y0068817701D01*
X0048560927Y0068828683D01*
X0048450877Y0068880000D01*
X0048560927Y0068931317D01*
X0048579948Y0068942299D01*
X0048598801Y0068955500D01*
X0053552918Y0068955500D01*
X0054405500Y0068102918D02*
X0053552918Y0068955500D01*
G04 #@! TA.AperFunction,Conductor*
G36*
X0054405500Y0068102918D02*
G01*
X0054405500Y0064171500D01*
X0054145600Y0064171500D01*
X0054132596Y0064170827D01*
X0054026830Y0064159853D01*
X0053999958Y0064154050D01*
X0053832178Y0064098074D01*
X0053805751Y0064085694D01*
X0053655349Y0063992622D01*
X0053632479Y0063974496D01*
X0053507522Y0063849321D01*
X0053495684Y0063834332D01*
X0053483101Y0063850207D01*
X0053358008Y0063975083D01*
X0053335107Y0063993170D01*
X0053184641Y0064085917D01*
X0053158193Y0064098251D01*
X0052990427Y0064153897D01*
X0052963601Y0064159648D01*
X0052859205Y0064170344D01*
X0052846363Y0064170999D01*
X0052712500Y0064170999D01*
X0052644379Y0064150998D01*
X0052597886Y0064097342D01*
X0052586500Y0064045000D01*
X0052586500Y0062684000D01*
X0052330500Y0062684000D01*
X0052330500Y0064044999D01*
X0052310498Y0064113119D01*
X0052256842Y0064159613D01*
X0052214687Y0064168783D01*
X0052273893Y0064181044D01*
X0052290402Y0064185653D01*
X0052561403Y0064281620D01*
X0052577133Y0064288427D01*
X0052832602Y0064420283D01*
X0052847263Y0064429163D01*
X0053082474Y0064594471D01*
X0053095794Y0064605259D01*
X0053306393Y0064800960D01*
X0053318126Y0064813454D01*
X0053500217Y0065035926D01*
X0053510146Y0065049897D01*
X0053660360Y0065295023D01*
X0053668300Y0065310213D01*
X0053783856Y0065573457D01*
X0053789662Y0065589583D01*
X0053868423Y0065866074D01*
X0053871987Y0065882841D01*
X0053912494Y0066167463D01*
X0053913748Y0066184556D01*
X0053915255Y0066472043D01*
X0053914179Y0066489149D01*
X0053876654Y0066774180D01*
X0053873266Y0066790982D01*
X0053797405Y0067068284D01*
X0053791768Y0067084471D01*
X0053678974Y0067348911D01*
X0053671193Y0067364182D01*
X0053523555Y0067610867D01*
X0053513773Y0067624942D01*
X0053334021Y0067849309D01*
X0053322420Y0067861925D01*
X0053113882Y0068059820D01*
X0053100675Y0068070745D01*
X0052867209Y0068238508D01*
X0052852642Y0068247540D01*
X0052598567Y0068382066D01*
X0052582909Y0068389038D01*
X0052312928Y0068487837D01*
X0052296469Y0068492619D01*
X0052015578Y0068553863D01*
X0051998622Y0068556367D01*
X0051773147Y0068574112D01*
X0051763261Y0068574500D01*
X0051607729Y0068574500D01*
X0051599159Y0068574208D01*
X0051384605Y0068559581D01*
X0051367624Y0068557255D01*
X0051086107Y0068498956D01*
X0051069598Y0068494347D01*
X0050798597Y0068398380D01*
X0050782866Y0068391573D01*
X0050527398Y0068259716D01*
X0050512737Y0068250837D01*
X0050277526Y0068085528D01*
X0050264206Y0068074741D01*
X0050053607Y0067879040D01*
X0050041874Y0067866546D01*
X0049859783Y0067644074D01*
X0049849854Y0067630102D01*
X0049699640Y0067384976D01*
X0049691700Y0067369787D01*
X0049619500Y0067205311D01*
X0049619500Y0067211237D01*
X0049621639Y0067233867D01*
X0049619500Y0067301925D01*
X0049619500Y0067329856D01*
X0049618506Y0067345654D01*
X0049617999Y0067349664D01*
X0049616611Y0067393847D01*
X0049611670Y0067425041D01*
X0049606020Y0067444491D01*
X0049603480Y0067464591D01*
X0049595625Y0067495180D01*
X0049579352Y0067536284D01*
X0049567015Y0067578747D01*
X0049554472Y0067607732D01*
X0049544161Y0067625168D01*
X0049536704Y0067644001D01*
X0049521488Y0067671677D01*
X0049495509Y0067707434D01*
X0049472996Y0067745502D01*
X0049453637Y0067770458D01*
X0049439313Y0067784782D01*
X0049427408Y0067801168D01*
X0049405787Y0067824192D01*
X0049371722Y0067852373D01*
X0049206566Y0068017529D01*
X0049190146Y0068078808D01*
X0049182635Y0068099446D01*
X0049088683Y0068300926D01*
X0049077701Y0068319947D01*
X0048950190Y0068502052D01*
X0048936071Y0068518876D01*
X0048778876Y0068676072D01*
X0048762052Y0068690190D01*
X0048579948Y0068817701D01*
X0048560927Y0068828683D01*
X0048450877Y0068880000D01*
X0048560927Y0068931317D01*
X0048579948Y0068942299D01*
X0048598801Y0068955500D01*
X0053552918Y0068955500D01*
X0054405500Y0068102918D01*
G37*
G04 #@! TD.AperFunction*
M02*