G04 #@! TF.GenerationSoftware,KiCad,Pcbnew,(6.0.1)*
G04 #@! TF.CreationDate,2022-07-05T00:42:15-07:00*
G04 #@! TF.ProjectId,mu100-dit,6d753130-302d-4646-9974-2e6b69636164,rev?*
G04 #@! TF.SameCoordinates,PX4a25ef0PY4c3f880*
G04 #@! TF.FileFunction,Soldermask,Top*
G04 #@! TF.FilePolarity,Negative*
%FSLAX46Y46*%
G04 Gerber Fmt 4.6, Leading zero omitted, Abs format (unit mm)*
G04 Created by KiCad (PCBNEW (6.0.1)) date 2022-07-05 00:42:15*
%MOMM*%
%LPD*%
G01*
G04 APERTURE LIST*
G04 Aperture macros list*
%AMRoundRect*
4,1,4,2,3,4,5,6,7,8,9,2,3,0*
1,1,$1,$2,$3*
1,1,$1,$2,$3*
1,1,$1,$2,$3*
1,1,$1,$2,$3*
20,1,$1,$2,$3,$4,$5,0*
20,1,$1,$2,$3,$4,$5,0*
20,1,$1,$2,$3,$4,$5,0*
20,1,$1,$2,$3,$4,$5,0*%
G04 Aperture macros list end*
%AMCOMP20*
4,1,3,
-0.3375,-0.475,
0.3375,-0.475,
0.3375,0.475,
-0.3375,0.475,
0*
4,1,19,
-0.3375,-0.22499999999999998,
-0.26024575140626316,-0.2372358709262116,
-0.19055368692688174,-0.27274575140626311,
-0.13524575140626316,-0.32805368692688169,
-0.099735870926211639,-0.39774575140626311,
-0.087500000000000022,-0.475,
-0.099735870926211612,-0.55225424859373684,
-0.13524575140626316,-0.62194631307311821,
-0.19055368692688171,-0.67725424859373684,
-0.26024575140626316,-0.71276412907378839,
-0.33749999999999997,-0.725,
-0.41475424859373694,-0.71276412907378839,
-0.48444631307311825,-0.67725424859373684,
-0.53975424859373689,-0.62194631307311832,
-0.57526412907378843,-0.55225424859373684,
-0.5875,-0.47500000000000003,
-0.57526412907378843,-0.39774575140626317,
-0.53975424859373689,-0.32805368692688175,
-0.48444631307311836,-0.27274575140626311,
-0.41475424859373694,-0.2372358709262116,
0*
4,1,19,
0.3375,-0.22499999999999998,
0.41475424859373689,-0.2372358709262116,
0.48444631307311831,-0.27274575140626311,
0.53975424859373689,-0.32805368692688169,
0.57526412907378843,-0.39774575140626311,
0.5875,-0.475,
0.57526412907378843,-0.55225424859373684,
0.53975424859373689,-0.62194631307311821,
0.48444631307311836,-0.67725424859373684,
0.41475424859373689,-0.71276412907378839,
0.33750000000000008,-0.725,
0.2602457514062631,-0.71276412907378839,
0.19055368692688177,-0.67725424859373684,
0.13524575140626319,-0.62194631307311832,
0.099735870926211639,-0.55225424859373684,
0.087500000000000022,-0.47500000000000003,
0.099735870926211612,-0.39774575140626317,
0.13524575140626313,-0.32805368692688175,
0.19055368692688168,-0.27274575140626311,
0.2602457514062631,-0.2372358709262116,
0*
4,1,19,
0.3375,0.725,
0.41475424859373689,0.71276412907378839,
0.48444631307311831,0.67725424859373684,
0.53975424859373689,0.62194631307311821,
0.57526412907378843,0.55225424859373684,
0.5875,0.475,
0.57526412907378843,0.39774575140626311,
0.53975424859373689,0.32805368692688175,
0.48444631307311836,0.27274575140626311,
0.41475424859373689,0.2372358709262116,
0.33750000000000008,0.22499999999999998,
0.2602457514062631,0.2372358709262116,
0.19055368692688177,0.27274575140626311,
0.13524575140626319,0.32805368692688164,
0.099735870926211639,0.39774575140626311,
0.087500000000000022,0.47499999999999992,
0.099735870926211612,0.55225424859373673,
0.13524575140626313,0.62194631307311821,
0.19055368692688168,0.67725424859373684,
0.2602457514062631,0.71276412907378839,
0*
4,1,19,
-0.3375,0.725,
-0.26024575140626316,0.71276412907378839,
-0.19055368692688174,0.67725424859373684,
-0.13524575140626316,0.62194631307311821,
-0.099735870926211639,0.55225424859373684,
-0.087500000000000022,0.475,
-0.099735870926211612,0.39774575140626311,
-0.13524575140626316,0.32805368692688175,
-0.19055368692688171,0.27274575140626311,
-0.26024575140626316,0.2372358709262116,
-0.33749999999999997,0.22499999999999998,
-0.41475424859373694,0.2372358709262116,
-0.48444631307311825,0.27274575140626311,
-0.53975424859373689,0.32805368692688164,
-0.57526412907378843,0.39774575140626311,
-0.5875,0.47499999999999992,
-0.57526412907378843,0.55225424859373673,
-0.53975424859373689,0.62194631307311821,
-0.48444631307311836,0.67725424859373684,
-0.41475424859373694,0.71276412907378839,
0*
4,1,3,
-0.3375,-0.725,
-0.3375,-0.22499999999999998,
0.3375,-0.22499999999999998,
0.3375,-0.725,
0*
4,1,3,
0.5875,-0.475,
0.087500000000000022,-0.475,
0.087500000000000022,0.475,
0.5875,0.475,
0*
4,1,3,
0.3375,0.725,
0.3375,0.22499999999999998,
-0.3375,0.22499999999999998,
-0.3375,0.725,
0*
4,1,3,
-0.5875,0.475,
-0.087500000000000022,0.475,
-0.087500000000000022,-0.475,
-0.5875,-0.475,
0*%
%ADD10COMP20,0.25X-0.3375X-0.475X0.3375X-0.475X0.3375X0.475X-0.3375X0.475X0*%
%AMCOMP21*
4,1,3,
-0.625,0.35,
-0.625,-0.35,
0.625,-0.35,
0.625,0.35,
0*
4,1,19,
-0.625,0.6,
-0.54774575140626314,0.58776412907378839,
-0.47805368692688172,0.55225424859373684,
-0.42274575140626314,0.49694631307311826,
-0.38723587092621159,0.42725424859373684,
-0.375,0.35,
-0.38723587092621159,0.27274575140626311,
-0.42274575140626314,0.20305368692688172,
-0.47805368692688166,0.14774575140626314,
-0.54774575140626314,0.1122358709262116,
-0.625,0.099999999999999978,
-0.702254248593737,0.1122358709262116,
-0.77194631307311823,0.14774575140626309,
-0.82725424859373686,0.20305368692688167,
-0.86276412907378841,0.27274575140626311,
-0.875,0.34999999999999992,
-0.86276412907378841,0.42725424859373679,
-0.82725424859373686,0.49694631307311821,
-0.77194631307311834,0.55225424859373684,
-0.70225424859373686,0.58776412907378839,
0*
4,1,19,
-0.625,-0.099999999999999978,
-0.54774575140626314,-0.1122358709262116,
-0.47805368692688172,-0.14774575140626311,
-0.42274575140626314,-0.20305368692688169,
-0.38723587092621159,-0.27274575140626311,
-0.375,-0.35,
-0.38723587092621159,-0.42725424859373684,
-0.42274575140626314,-0.49694631307311821,
-0.47805368692688166,-0.55225424859373684,
-0.54774575140626314,-0.58776412907378839,
-0.625,-0.6,
-0.702254248593737,-0.58776412907378839,
-0.77194631307311823,-0.55225424859373684,
-0.82725424859373686,-0.49694631307311832,
-0.86276412907378841,-0.42725424859373684,
-0.875,-0.35000000000000003,
-0.86276412907378841,-0.27274575140626317,
-0.82725424859373686,-0.20305368692688175,
-0.77194631307311834,-0.14774575140626314,
-0.70225424859373686,-0.1122358709262116,
0*
4,1,19,
0.625,-0.099999999999999978,
0.70225424859373686,-0.1122358709262116,
0.77194631307311834,-0.14774575140626311,
0.82725424859373686,-0.20305368692688169,
0.86276412907378841,-0.27274575140626311,
0.875,-0.35,
0.86276412907378841,-0.42725424859373684,
0.82725424859373686,-0.49694631307311821,
0.77194631307311834,-0.55225424859373684,
0.70225424859373686,-0.58776412907378839,
0.625,-0.6,
0.547745751406263,-0.58776412907378839,
0.47805368692688177,-0.55225424859373684,
0.42274575140626314,-0.49694631307311832,
0.38723587092621159,-0.42725424859373684,
0.375,-0.35000000000000003,
0.38723587092621159,-0.27274575140626317,
0.42274575140626314,-0.20305368692688175,
0.47805368692688166,-0.14774575140626314,
0.54774575140626314,-0.1122358709262116,
0*
4,1,19,
0.625,0.6,
0.70225424859373686,0.58776412907378839,
0.77194631307311834,0.55225424859373684,
0.82725424859373686,0.49694631307311826,
0.86276412907378841,0.42725424859373684,
0.875,0.35,
0.86276412907378841,0.27274575140626311,
0.82725424859373686,0.20305368692688172,
0.77194631307311834,0.14774575140626314,
0.70225424859373686,0.1122358709262116,
0.625,0.099999999999999978,
0.547745751406263,0.1122358709262116,
0.47805368692688177,0.14774575140626309,
0.42274575140626314,0.20305368692688167,
0.38723587092621159,0.27274575140626311,
0.375,0.34999999999999992,
0.38723587092621159,0.42725424859373679,
0.42274575140626314,0.49694631307311821,
0.47805368692688166,0.55225424859373684,
0.54774575140626314,0.58776412907378839,
0*
4,1,3,
-0.875,0.35,
-0.375,0.35,
-0.375,-0.35,
-0.875,-0.35,
0*
4,1,3,
-0.625,-0.6,
-0.625,-0.099999999999999978,
0.625,-0.099999999999999978,
0.625,-0.6,
0*
4,1,3,
0.875,-0.35,
0.375,-0.35,
0.375,0.35,
0.875,0.35,
0*
4,1,3,
0.625,0.6,
0.625,0.099999999999999978,
-0.625,0.099999999999999978,
-0.625,0.6,
0*%
%ADD11COMP21,0.25X-0.625X0.35X-0.625X-0.35X0.625X-0.35X0.625X0.35X0*%
%ADD12O,1.75X1.2*%
%AMCOMP22*
4,1,3,
-0.6375,-0.1,
0.6375,-0.1,
0.6375,0.1,
-0.6375,0.1,
0*
4,1,19,
-0.6375,0,
-0.60659830056250519,-0.00489434837048465,
-0.57872147477075264,-0.019098300562505249,
-0.55659830056250525,-0.041221474770752692,
-0.54239434837048461,-0.069098300562505266,
-0.5375,-0.1,
-0.54239434837048461,-0.13090169943749475,
-0.55659830056250525,-0.15877852522924732,
-0.57872147477075264,-0.18090169943749473,
-0.60659830056250519,-0.19510565162951538,
-0.6375,-0.2,
-0.66840169943749472,-0.19510565162951538,
-0.69627852522924727,-0.18090169943749476,
-0.71840169943749466,-0.15877852522924735,
-0.7326056516295153,-0.13090169943749477,
-0.73749999999999993,-0.10000000000000002,
-0.7326056516295153,-0.06909830056250528,
-0.71840169943749466,-0.041221474770752713,
-0.69627852522924727,-0.019098300562505263,
-0.66840169943749472,-0.00489434837048465,
0*
4,1,19,
0.6375,0,
0.66840169943749472,-0.00489434837048465,
0.69627852522924727,-0.019098300562505249,
0.71840169943749466,-0.041221474770752692,
0.7326056516295153,-0.069098300562505266,
0.73749999999999993,-0.1,
0.7326056516295153,-0.13090169943749475,
0.71840169943749466,-0.15877852522924732,
0.69627852522924727,-0.18090169943749473,
0.66840169943749472,-0.19510565162951538,
0.6375,-0.2,
0.60659830056250519,-0.19510565162951538,
0.57872147477075264,-0.18090169943749476,
0.55659830056250525,-0.15877852522924735,
0.54239434837048461,-0.13090169943749477,
0.5375,-0.10000000000000002,
0.54239434837048461,-0.06909830056250528,
0.55659830056250525,-0.041221474770752713,
0.57872147477075264,-0.019098300562505263,
0.60659830056250519,-0.00489434837048465,
0*
4,1,19,
0.6375,0.2,
0.66840169943749472,0.19510565162951538,
0.69627852522924727,0.18090169943749476,
0.71840169943749466,0.15877852522924732,
0.7326056516295153,0.13090169943749475,
0.73749999999999993,0.1,
0.7326056516295153,0.069098300562505266,
0.71840169943749466,0.0412214747707527,
0.69627852522924727,0.019098300562505263,
0.66840169943749472,0.00489434837048465,
0.6375,0,
0.60659830056250519,0.00489434837048465,
0.57872147477075264,0.019098300562505249,
0.55659830056250525,0.041221474770752678,
0.54239434837048461,0.069098300562505252,
0.5375,0.099999999999999992,
0.54239434837048461,0.13090169943749475,
0.55659830056250525,0.15877852522924729,
0.57872147477075264,0.18090169943749473,
0.60659830056250519,0.19510565162951538,
0*
4,1,19,
-0.6375,0.2,
-0.60659830056250519,0.19510565162951538,
-0.57872147477075264,0.18090169943749476,
-0.55659830056250525,0.15877852522924732,
-0.54239434837048461,0.13090169943749475,
-0.5375,0.1,
-0.54239434837048461,0.069098300562505266,
-0.55659830056250525,0.0412214747707527,
-0.57872147477075264,0.019098300562505263,
-0.60659830056250519,0.00489434837048465,
-0.6375,0,
-0.66840169943749472,0.00489434837048465,
-0.69627852522924727,0.019098300562505249,
-0.71840169943749466,0.041221474770752678,
-0.7326056516295153,0.069098300562505252,
-0.73749999999999993,0.099999999999999992,
-0.7326056516295153,0.13090169943749475,
-0.71840169943749466,0.15877852522924729,
-0.69627852522924727,0.18090169943749473,
-0.66840169943749472,0.19510565162951538,
0*
4,1,3,
-0.6375,-0.2,
-0.6375,0,
0.6375,0,
0.6375,-0.2,
0*
4,1,3,
0.73749999999999993,-0.1,
0.5375,-0.1,
0.5375,0.1,
0.73749999999999993,0.1,
0*
4,1,3,
0.6375,0.2,
0.6375,0,
-0.6375,0,
-0.6375,0.2,
0*
4,1,3,
-0.73749999999999993,0.1,
-0.5375,0.1,
-0.5375,-0.1,
-0.73749999999999993,-0.1,
0*%
%ADD13COMP22,0.1X-0.6375X-0.1X0.6375X-0.1X0.6375X0.1X-0.6375X0.1X0*%
%ADD14C,5.7*%
%ADD15C,3.6*%
%ADD16C,3.2*%
%ADD17C,1.524*%
%ADD18R,1.9X0.8*%
%AMCOMP23*
4,1,3,
0.3375,0.475,
-0.3375,0.475,
-0.3375,-0.475,
0.3375,-0.475,
0*
4,1,19,
0.3375,0.725,
0.41475424859373689,0.71276412907378839,
0.48444631307311831,0.67725424859373684,
0.53975424859373689,0.62194631307311821,
0.57526412907378843,0.55225424859373684,
0.5875,0.475,
0.57526412907378843,0.39774575140626311,
0.53975424859373689,0.32805368692688175,
0.48444631307311836,0.27274575140626311,
0.41475424859373689,0.2372358709262116,
0.33750000000000008,0.22499999999999998,
0.2602457514062631,0.2372358709262116,
0.19055368692688177,0.27274575140626311,
0.13524575140626319,0.32805368692688164,
0.099735870926211639,0.39774575140626311,
0.087500000000000022,0.47499999999999992,
0.099735870926211612,0.55225424859373673,
0.13524575140626313,0.62194631307311821,
0.19055368692688168,0.67725424859373684,
0.2602457514062631,0.71276412907378839,
0*
4,1,19,
-0.3375,0.725,
-0.26024575140626316,0.71276412907378839,
-0.19055368692688174,0.67725424859373684,
-0.13524575140626316,0.62194631307311821,
-0.099735870926211639,0.55225424859373684,
-0.087500000000000022,0.475,
-0.099735870926211612,0.39774575140626311,
-0.13524575140626316,0.32805368692688175,
-0.19055368692688171,0.27274575140626311,
-0.26024575140626316,0.2372358709262116,
-0.33749999999999997,0.22499999999999998,
-0.41475424859373694,0.2372358709262116,
-0.48444631307311825,0.27274575140626311,
-0.53975424859373689,0.32805368692688164,
-0.57526412907378843,0.39774575140626311,
-0.5875,0.47499999999999992,
-0.57526412907378843,0.55225424859373673,
-0.53975424859373689,0.62194631307311821,
-0.48444631307311836,0.67725424859373684,
-0.41475424859373694,0.71276412907378839,
0*
4,1,19,
-0.3375,-0.22499999999999998,
-0.26024575140626316,-0.2372358709262116,
-0.19055368692688174,-0.27274575140626311,
-0.13524575140626316,-0.32805368692688169,
-0.099735870926211639,-0.39774575140626311,
-0.087500000000000022,-0.475,
-0.099735870926211612,-0.55225424859373684,
-0.13524575140626316,-0.62194631307311821,
-0.19055368692688171,-0.67725424859373684,
-0.26024575140626316,-0.71276412907378839,
-0.33749999999999997,-0.725,
-0.41475424859373694,-0.71276412907378839,
-0.48444631307311825,-0.67725424859373684,
-0.53975424859373689,-0.62194631307311832,
-0.57526412907378843,-0.55225424859373684,
-0.5875,-0.47500000000000003,
-0.57526412907378843,-0.39774575140626317,
-0.53975424859373689,-0.32805368692688175,
-0.48444631307311836,-0.27274575140626311,
-0.41475424859373694,-0.2372358709262116,
0*
4,1,19,
0.3375,-0.22499999999999998,
0.41475424859373689,-0.2372358709262116,
0.48444631307311831,-0.27274575140626311,
0.53975424859373689,-0.32805368692688169,
0.57526412907378843,-0.39774575140626311,
0.5875,-0.475,
0.57526412907378843,-0.55225424859373684,
0.53975424859373689,-0.62194631307311821,
0.48444631307311836,-0.67725424859373684,
0.41475424859373689,-0.71276412907378839,
0.33750000000000008,-0.725,
0.2602457514062631,-0.71276412907378839,
0.19055368692688177,-0.67725424859373684,
0.13524575140626319,-0.62194631307311832,
0.099735870926211639,-0.55225424859373684,
0.087500000000000022,-0.47500000000000003,
0.099735870926211612,-0.39774575140626317,
0.13524575140626313,-0.32805368692688175,
0.19055368692688168,-0.27274575140626311,
0.2602457514062631,-0.2372358709262116,
0*
4,1,3,
0.3375,0.725,
0.3375,0.22499999999999998,
-0.3375,0.22499999999999998,
-0.3375,0.725,
0*
4,1,3,
-0.5875,0.475,
-0.087500000000000022,0.475,
-0.087500000000000022,-0.475,
-0.5875,-0.475,
0*
4,1,3,
-0.3375,-0.725,
-0.3375,-0.22499999999999998,
0.3375,-0.22499999999999998,
0.3375,-0.725,
0*
4,1,3,
0.5875,-0.475,
0.087500000000000022,-0.475,
0.087500000000000022,0.475,
0.5875,0.475,
0*%
%ADD19COMP23,0.25X0.3375X0.475X-0.3375X0.475X-0.3375X-0.475X0.3375X-0.475X0*%
%ADD20R,1.7X1.7*%
%ADD21O,1.7X1.7*%
G04 APERTURE END LIST*
D10*
X0000000000Y0040000000D02*
X0003542500Y0002725000D03*
X0005617500Y0002725000D03*
D11*
X0003280000Y0029380000D03*
D12*
X0003280000Y0027380000D03*
X0003280000Y0025380000D03*
X0003280000Y0023380000D03*
X0003280000Y0021380000D03*
X0003280000Y0019380000D03*
X0003280000Y0017380000D03*
X0003280000Y0015379999D03*
X0003280000Y0013379999D03*
X0003280000Y0011379999D03*
D13*
X0007989500Y0016538573D03*
X0007989500Y0015888573D03*
X0007989500Y0015238572D03*
X0007989500Y0014588573D03*
X0007989500Y0013938573D03*
X0007989500Y0013288573D03*
X0007989500Y0012638573D03*
X0007989500Y0011988572D03*
X0007989500Y0011338573D03*
X0007989500Y0010688573D03*
X0007989500Y0010038573D03*
X0007989500Y0009388573D03*
X0015414500Y0009388573D03*
X0015414500Y0010038573D03*
X0015414500Y0010688573D03*
X0015414500Y0011338573D03*
X0015414500Y0011988572D03*
X0015414500Y0012638573D03*
X0015414500Y0013288573D03*
X0015414500Y0013938573D03*
X0015414500Y0014588573D03*
X0015414500Y0015238572D03*
X0015414500Y0015888573D03*
X0015414500Y0016538573D03*
D14*
X0013600000Y0036500000D03*
D15*
X0013600000Y0036500000D03*
D16*
X0012680000Y0029960000D03*
X0012680000Y0022340000D03*
D17*
X0008870000Y0028689999D03*
X0008870000Y0026150000D03*
X0008870000Y0023610000D03*
D10*
X0013458500Y0018812000D03*
X0015533500Y0018812000D03*
D18*
X0003080000Y0007250000D03*
X0003080000Y0005350000D03*
X0006080000Y0006299999D03*
D19*
X0009945500Y0018812000D03*
X0007870500Y0018812000D03*
D14*
X0013600000Y0003500000D03*
D15*
X0013600000Y0003500000D03*
D20*
X0003160000Y0034277000D03*
D21*
X0003160000Y0036817000D03*
M02*