G04 #@! TF.GenerationSoftware,KiCad,Pcbnew,(6.0.1)*
G04 #@! TF.CreationDate,2022-07-05T00:42:15-07:00*
G04 #@! TF.ProjectId,mu100-dit,6d753130-302d-4646-9974-2e6b69636164,rev?*
G04 #@! TF.SameCoordinates,PX4a25ef0PY4c3f880*
G04 #@! TF.FileFunction,Legend,Top*
G04 #@! TF.FilePolarity,Positive*
%FSLAX46Y46*%
G04 Gerber Fmt 4.6, Leading zero omitted, Abs format (unit mm)*
G04 Created by KiCad (PCBNEW (6.0.1)) date 2022-07-05 00:42:15*
%MOMM*%
%LPD*%
G01*
G04 APERTURE LIST*
%ADD10C,0.15*%
%ADD11C,0.12*%
%ADD12C,0.05*%
G04 APERTURE END LIST*
D10*
X0040270000Y0076545000D02*
X0039750000Y0075615000D01*
X0040270000Y0076545000D02*
X0039230000Y0076545000D01*
X0039230000Y0076540000D02*
X0039750000Y0075610000D01*
X0045070095Y0081102000D02*
X0044974857Y0081149620D01*
X0044832000Y0081149620D01*
X0044689142Y0081102000D01*
X0044593904Y0081006762D01*
X0044546285Y0080911524D01*
X0044498666Y0080721048D01*
X0044498666Y0080578191D01*
X0044546285Y0080387715D01*
X0044593904Y0080292477D01*
X0044689142Y0080197239D01*
X0044832000Y0080149620D01*
X0044927238Y0080149620D01*
X0045070095Y0080197239D01*
X0045117714Y0080244858D01*
X0045117714Y0080578191D01*
X0044927238Y0080578191D01*
X0045546285Y0080149620D02*
X0045546285Y0081149620D01*
X0046117714Y0080149620D01*
X0046117714Y0081149620D01*
X0046593904Y0080149620D02*
X0046593904Y0081149620D01*
X0046832000Y0081149620D01*
X0046974857Y0081102000D01*
X0047070095Y0081006762D01*
X0047117714Y0080911524D01*
X0047165333Y0080721048D01*
X0047165333Y0080578191D01*
X0047117714Y0080387715D01*
X0047070095Y0080292477D01*
X0046974857Y0080197239D01*
X0046832000Y0080149620D01*
X0046593904Y0080149620D01*
X0040442142Y0082652143D02*
X0040406428Y0082616429D01*
X0040299285Y0082580715D01*
X0040227857Y0082580715D01*
X0040120714Y0082616429D01*
X0040049285Y0082687858D01*
X0040013571Y0082759286D01*
X0039977857Y0082902143D01*
X0039977857Y0083009286D01*
X0040013571Y0083152143D01*
X0040049285Y0083223572D01*
X0040120714Y0083295000D01*
X0040227857Y0083330715D01*
X0040299285Y0083330715D01*
X0040406428Y0083295000D01*
X0040442142Y0083259286D01*
X0040870714Y0082580715D02*
X0040799285Y0082616429D01*
X0040763571Y0082652143D01*
X0040727857Y0082723572D01*
X0040727857Y0082937858D01*
X0040763571Y0083009286D01*
X0040799285Y0083045000D01*
X0040870714Y0083080715D01*
X0040977857Y0083080715D01*
X0041049285Y0083045000D01*
X0041085000Y0083009286D01*
X0041120714Y0082937858D01*
X0041120714Y0082723572D01*
X0041085000Y0082652143D01*
X0041049285Y0082616429D01*
X0040977857Y0082580715D01*
X0040870714Y0082580715D01*
X0041763571Y0082580715D02*
X0041763571Y0082973572D01*
X0041727857Y0083045000D01*
X0041656428Y0083080715D01*
X0041513571Y0083080715D01*
X0041442142Y0083045000D01*
X0041763571Y0082616429D02*
X0041692142Y0082580715D01*
X0041513571Y0082580715D01*
X0041442142Y0082616429D01*
X0041406428Y0082687858D01*
X0041406428Y0082759286D01*
X0041442142Y0082830715D01*
X0041513571Y0082866429D01*
X0041692142Y0082866429D01*
X0041763571Y0082902143D01*
X0042049285Y0082580715D02*
X0042442142Y0083080715D01*
X0042049285Y0083080715D02*
X0042442142Y0082580715D01*
X0043513571Y0082295000D02*
X0043477857Y0082330715D01*
X0043406428Y0082437858D01*
X0043370714Y0082509286D01*
X0043335000Y0082616429D01*
X0043299285Y0082795000D01*
X0043299285Y0082937858D01*
X0043335000Y0083116429D01*
X0043370714Y0083223572D01*
X0043406428Y0083295000D01*
X0043477857Y0083402143D01*
X0043513571Y0083437858D01*
X0043942142Y0083330715D02*
X0044085000Y0083330715D01*
X0044156428Y0083295000D01*
X0044227857Y0083223572D01*
X0044263571Y0083080715D01*
X0044263571Y0082830715D01*
X0044227857Y0082687858D01*
X0044156428Y0082616429D01*
X0044085000Y0082580715D01*
X0043942142Y0082580715D01*
X0043870714Y0082616429D01*
X0043799285Y0082687858D01*
X0043763571Y0082830715D01*
X0043763571Y0083080715D01*
X0043799285Y0083223572D01*
X0043870714Y0083295000D01*
X0043942142Y0083330715D01*
X0044585000Y0082580715D02*
X0044585000Y0083330715D01*
X0044870714Y0083330715D01*
X0044942142Y0083295000D01*
X0044977857Y0083259286D01*
X0045013571Y0083187858D01*
X0045013571Y0083080715D01*
X0044977857Y0083009286D01*
X0044942142Y0082973572D01*
X0044870714Y0082937858D01*
X0044585000Y0082937858D01*
X0045227857Y0083330715D02*
X0045656428Y0083330715D01*
X0045442142Y0082580715D02*
X0045442142Y0083330715D01*
X0045906428Y0082652143D02*
X0045942142Y0082616429D01*
X0045906428Y0082580715D01*
X0045870714Y0082616429D01*
X0045906428Y0082652143D01*
X0045906428Y0082580715D01*
X0046192142Y0082295000D02*
X0046227857Y0082330715D01*
X0046299285Y0082437858D01*
X0046335000Y0082509286D01*
X0046370714Y0082616429D01*
X0046406428Y0082795000D01*
X0046406428Y0082937858D01*
X0046370714Y0083116429D01*
X0046335000Y0083223572D01*
X0046299285Y0083295000D01*
X0046227857Y0083402143D01*
X0046192142Y0083437858D01*
X0044911047Y0077930572D02*
X0044958666Y0077978191D01*
X0045053904Y0078025810D01*
X0045244380Y0077930572D01*
X0045339619Y0077978191D01*
X0045387238Y0078025810D01*
X0046463333Y0046317858D02*
X0046415714Y0046270239D01*
X0046272857Y0046222620D01*
X0046177619Y0046222620D01*
X0046034761Y0046270239D01*
X0045939523Y0046365477D01*
X0045891904Y0046460715D01*
X0045844285Y0046651191D01*
X0045844285Y0046794048D01*
X0045891904Y0046984524D01*
X0045939523Y0047079762D01*
X0046034761Y0047175000D01*
X0046177619Y0047222620D01*
X0046272857Y0047222620D01*
X0046415714Y0047175000D01*
X0046463333Y0047127381D01*
X0046796666Y0047222620D02*
X0047415714Y0047222620D01*
X0047082380Y0046841667D01*
X0047225238Y0046841667D01*
X0047320476Y0046794048D01*
X0047368095Y0046746429D01*
X0047415714Y0046651191D01*
X0047415714Y0046413096D01*
X0047368095Y0046317858D01*
X0047320476Y0046270239D01*
X0047225238Y0046222620D01*
X0046939523Y0046222620D01*
X0046844285Y0046270239D01*
X0046796666Y0046317858D01*
X0039626666Y0053057620D02*
X0039626666Y0052343334D01*
X0039579047Y0052200477D01*
X0039483809Y0052105239D01*
X0039340952Y0052057620D01*
X0039245714Y0052057620D01*
X0040626666Y0052057620D02*
X0040055238Y0052057620D01*
X0040340952Y0052057620D02*
X0040340952Y0053057620D01*
X0040245714Y0052914761D01*
X0040150476Y0052819524D01*
X0040055238Y0052771905D01*
X0050168095Y0052697620D02*
X0050168095Y0051888096D01*
X0050215714Y0051792858D01*
X0050263333Y0051745239D01*
X0050358571Y0051697620D01*
X0050549047Y0051697620D01*
X0050644285Y0051745239D01*
X0050691904Y0051792858D01*
X0050739523Y0051888096D01*
X0050739523Y0052697620D01*
X0051168095Y0052602381D02*
X0051215714Y0052650000D01*
X0051310952Y0052697620D01*
X0051549047Y0052697620D01*
X0051644285Y0052650000D01*
X0051691904Y0052602381D01*
X0051739523Y0052507143D01*
X0051739523Y0052411905D01*
X0051691904Y0052269048D01*
X0051120476Y0051697620D01*
X0051739523Y0051697620D01*
X0049668095Y0077417620D02*
X0049668095Y0076608096D01*
X0049715714Y0076512858D01*
X0049763333Y0076465239D01*
X0049858571Y0076417620D01*
X0050049047Y0076417620D01*
X0050144285Y0076465239D01*
X0050191904Y0076512858D01*
X0050239523Y0076608096D01*
X0050239523Y0077417620D01*
X0051239523Y0076417620D02*
X0050668095Y0076417620D01*
X0050953809Y0076417620D02*
X0050953809Y0077417620D01*
X0050858571Y0077274762D01*
X0050763333Y0077179524D01*
X0050668095Y0077131905D01*
X0056387142Y0062633334D02*
X0056434761Y0062585715D01*
X0056482380Y0062442858D01*
X0056482380Y0062347620D01*
X0056434761Y0062204762D01*
X0056339523Y0062109524D01*
X0056244285Y0062061904D01*
X0056053809Y0062014286D01*
X0055910952Y0062014286D01*
X0055720476Y0062061904D01*
X0055625237Y0062109524D01*
X0055530000Y0062204762D01*
X0055482380Y0062347620D01*
X0055482380Y0062442858D01*
X0055530000Y0062585715D01*
X0055577619Y0062633334D01*
X0055577619Y0063014286D02*
X0055530000Y0063061904D01*
X0055482380Y0063157143D01*
X0055482380Y0063395239D01*
X0055530000Y0063490477D01*
X0055577619Y0063538095D01*
X0055672857Y0063585715D01*
X0055768095Y0063585715D01*
X0055910952Y0063538095D01*
X0056482380Y0062966667D01*
X0056482380Y0063585715D01*
X0046568095Y0050697620D02*
X0046568095Y0049888096D01*
X0046615714Y0049792858D01*
X0046663333Y0049745239D01*
X0046758571Y0049697620D01*
X0046949047Y0049697620D01*
X0047044285Y0049745239D01*
X0047091904Y0049792858D01*
X0047139523Y0049888096D01*
X0047139523Y0050697620D01*
X0047520476Y0050697620D02*
X0048139523Y0050697620D01*
X0047806190Y0050316667D01*
X0047949047Y0050316667D01*
X0048044285Y0050269048D01*
X0048091904Y0050221429D01*
X0048139523Y0050126191D01*
X0048139523Y0049888096D01*
X0048091904Y0049792858D01*
X0048044285Y0049745239D01*
X0047949047Y0049697620D01*
X0047663333Y0049697620D01*
X0047568095Y0049745239D01*
X0047520476Y0049792858D01*
X0050937142Y0062645334D02*
X0050984761Y0062597715D01*
X0051032380Y0062454858D01*
X0051032380Y0062359620D01*
X0050984761Y0062216762D01*
X0050889523Y0062121524D01*
X0050794285Y0062073905D01*
X0050603809Y0062026286D01*
X0050460952Y0062026286D01*
X0050270476Y0062073905D01*
X0050175238Y0062121524D01*
X0050080000Y0062216762D01*
X0050032380Y0062359620D01*
X0050032380Y0062454858D01*
X0050080000Y0062597715D01*
X0050127618Y0062645334D01*
X0051032380Y0063597715D02*
X0051032380Y0063026286D01*
X0051032380Y0063312000D02*
X0050032380Y0063312000D01*
X0050175238Y0063216762D01*
X0050270476Y0063121524D01*
X0050318095Y0063026286D01*
D11*
X0043318748Y0047460000D02*
X0043841252Y0047460000D01*
X0043318748Y0045990000D02*
X0043841252Y0045990000D01*
X0040480000Y0056280000D02*
X0039980000Y0056280000D01*
X0039980000Y0070480000D02*
X0040480000Y0070480000D01*
X0039980000Y0056379999D02*
X0040480000Y0056379999D01*
X0039980000Y0062480000D02*
X0040480000Y0062480000D01*
X0041480000Y0053320000D02*
X0041480000Y0053930000D01*
X0044090000Y0072880000D02*
X0043480000Y0072880000D01*
X0039980000Y0066480000D02*
X0040480000Y0066480000D01*
X0040480000Y0066480000D02*
X0040480000Y0066280000D01*
X0040480000Y0062480000D02*
X0040480000Y0062280000D01*
X0039980000Y0056480000D02*
X0040480000Y0056480000D01*
X0040480000Y0070280000D02*
X0039980000Y0070280000D01*
X0040480000Y0060480000D02*
X0040480000Y0060280000D01*
X0039980000Y0058480000D02*
X0040480000Y0058480000D01*
X0039980000Y0072380000D02*
X0040480000Y0072380000D01*
X0040480000Y0066280000D02*
X0039980000Y0066280000D01*
X0040480000Y0056480000D02*
X0040480000Y0056280000D01*
X0039980000Y0062379999D02*
X0040480000Y0062379999D01*
X0039370000Y0053320000D02*
X0044090000Y0053320000D01*
X0044090000Y0075440000D02*
X0039370000Y0075440000D01*
X0039370000Y0075440000D02*
X0039370000Y0053320000D01*
X0040480000Y0072280000D02*
X0039980000Y0072280000D01*
X0044390000Y0075740000D02*
X0043140000Y0075740000D01*
X0042780000Y0075440000D02*
X0042780000Y0074830000D01*
X0039980000Y0068380000D02*
X0040480000Y0068380000D01*
X0040480000Y0062280000D02*
X0039980000Y0062280000D01*
X0040480000Y0058280000D02*
X0039980000Y0058280000D01*
X0039980000Y0064379999D02*
X0040480000Y0064379999D01*
X0039980000Y0070380000D02*
X0040480000Y0070380000D01*
X0039980000Y0058379999D02*
X0040480000Y0058379999D01*
X0040480000Y0064480000D02*
X0040480000Y0064280000D01*
X0039980000Y0072480000D02*
X0040480000Y0072480000D01*
X0040480000Y0058480000D02*
X0040480000Y0058280000D01*
X0039980000Y0074830000D02*
X0039980000Y0053930000D01*
X0040480000Y0068480000D02*
X0040480000Y0068280000D01*
X0040480000Y0072480000D02*
X0040480000Y0072280000D01*
X0039980000Y0068480000D02*
X0040480000Y0068480000D01*
X0043480000Y0072880000D02*
X0043480000Y0074830000D01*
X0040480000Y0060280000D02*
X0039980000Y0060280000D01*
X0044390000Y0074490000D02*
X0044390000Y0075740000D01*
X0044290000Y0073680000D02*
X0044290000Y0073980000D01*
X0041480000Y0075440000D02*
X0041480000Y0074830000D01*
X0039980000Y0060480000D02*
X0040480000Y0060480000D01*
X0042780000Y0053320000D02*
X0042780000Y0053930000D01*
X0039980000Y0053930000D02*
X0043480000Y0053930000D01*
X0043480000Y0074830000D02*
X0039980000Y0074830000D01*
X0040480000Y0064280000D02*
X0039980000Y0064280000D01*
X0040480000Y0070480000D02*
X0040480000Y0070280000D01*
X0039980000Y0064480000D02*
X0040480000Y0064480000D01*
X0044190000Y0073680000D02*
X0044190000Y0073980000D01*
X0044090000Y0053320000D02*
X0044090000Y0075440000D01*
X0043480000Y0055879999D02*
X0044090000Y0055879999D01*
X0040480000Y0068280000D02*
X0039980000Y0068280000D01*
X0039980000Y0060379999D02*
X0040480000Y0060379999D01*
X0039980000Y0066379999D02*
X0040480000Y0066379999D01*
X0044090000Y0073680000D02*
X0044290000Y0073680000D01*
X0043480000Y0053930000D02*
X0043480000Y0055879999D01*
X0044290000Y0073980000D02*
X0044090000Y0073980000D01*
X0050702000Y0052928573D02*
X0047652000Y0052928573D01*
X0050702000Y0052928573D02*
X0053752000Y0052928573D01*
X0050702000Y0060998573D02*
X0053752000Y0060998573D01*
X0050702000Y0060998573D02*
X0046252000Y0060998573D01*
D12*
X0056379999Y0076050000D02*
X0045280000Y0076050000D01*
X0045280000Y0076050000D02*
X0045280000Y0064250000D01*
X0045280000Y0064250000D02*
X0056379999Y0064250000D01*
X0056379999Y0064250000D02*
X0056379999Y0076050000D01*
D11*
X0053234747Y0063547000D02*
X0053757252Y0063547000D01*
X0053234747Y0062077000D02*
X0053757252Y0062077000D01*
X0044340000Y0048720000D02*
X0042880000Y0048720000D01*
X0044340000Y0048720000D02*
X0044340000Y0049650000D01*
X0044340000Y0051880000D02*
X0044340000Y0050950000D01*
X0044340000Y0051880000D02*
X0041180000Y0051880000D01*
X0048169252Y0062077000D02*
X0047646748Y0062077000D01*
X0048169252Y0063547000D02*
X0047646748Y0063547000D01*
X0043490000Y0082147000D02*
X0040830000Y0082147000D01*
X0043490000Y0078277000D02*
X0043490000Y0076947000D01*
X0040830000Y0079547000D02*
X0040830000Y0082147000D01*
X0043490000Y0076947000D02*
X0042160000Y0076947000D01*
X0043490000Y0079547000D02*
X0043490000Y0082147000D01*
X0043490000Y0079547000D02*
X0040830000Y0079547000D01*
M02*