%
M48
METRIC,000.000
T01C0.30
T02C0.40
T03C0.75
T04C0.80
T05C1.00
T06C3.20
%
T01
X044510Y052629
X045266Y059815
X049127Y056208
X049127Y054278
X049135Y055200
X049140Y057122
X052175Y054949
X052480Y058367
X053090Y061110
X053166Y055573
X053287Y059213
T02
X044100Y069070
X045310Y071410
X046220Y065200
X047250Y074320
X048450Y064670
X048910Y076030
X050320Y068600
X050380Y071250
T03
X042280Y073380
X042280Y071380
X042280Y069380
X042280Y067380
X042280Y065379
X042280Y063379
X042280Y061379
X042280Y059379
X042280Y057379
X042280Y055379
T04
X047870Y072690
X047870Y070150
X047870Y067610
T05
X042160Y080817
X042160Y078277
T06
X052600Y080500
X052600Y047500
M30