G04 #@! TF.GenerationSoftware,KiCad,Pcbnew,(6.0.1)*
G04 #@! TF.CreationDate,2022-07-05T00:40:55-07:00*
G04 #@! TF.ProjectId,mu100-dit-connector-board,6d753130-302d-4646-9974-2d636f6e6e65,rev?*
G04 #@! TF.SameCoordinates,PX4a615b8PY2b4db18*
G04 #@! TF.FileFunction,Copper,L2,Bot*
G04 #@! TF.FilePolarity,Positive*
%FSLAX46Y46*%
G04 Gerber Fmt 4.6, Leading zero omitted, Abs format (unit mm)*
G04 Created by KiCad (PCBNEW (6.0.1)) date 2022-07-05 00:40:55*
%MOMM*%
%LPD*%
G01*
G04 APERTURE LIST*
G04 Aperture macros list*
%AMRoundRect*
4,1,4,2,3,4,5,6,7,8,9,2,3,0*
1,1,$1,$2,$3*
1,1,$1,$2,$3*
1,1,$1,$2,$3*
1,1,$1,$2,$3*
20,1,$1,$2,$3,$4,$5,0*
20,1,$1,$2,$3,$4,$5,0*
20,1,$1,$2,$3,$4,$5,0*
20,1,$1,$2,$3,$4,$5,0*%
G04 Aperture macros list end*
G04 #@! TA.AperFunction,ComponentPad*
%AMCOMP147*
4,1,3,
-0.65,0.35,
-0.65,-0.35,
0.65,-0.35,
0.65,0.35,
0*
4,1,19,
-0.65,0.6,
-0.57274575140626316,0.58776412907378839,
-0.50305368692688179,0.55225424859373684,
-0.44774575140626316,0.49694631307311826,
-0.41223587092621161,0.42725424859373684,
-0.4,0.35,
-0.41223587092621161,0.27274575140626311,
-0.44774575140626316,0.20305368692688172,
-0.50305368692688168,0.14774575140626314,
-0.57274575140626316,0.1122358709262116,
-0.65,0.099999999999999978,
-0.727254248593737,0.1122358709262116,
-0.79694631307311825,0.14774575140626309,
-0.85225424859373689,0.20305368692688167,
-0.88776412907378843,0.27274575140626311,
-0.9,0.34999999999999992,
-0.88776412907378843,0.42725424859373679,
-0.85225424859373689,0.49694631307311821,
-0.79694631307311836,0.55225424859373684,
-0.72725424859373689,0.58776412907378839,
0*
4,1,19,
-0.65,-0.099999999999999978,
-0.57274575140626316,-0.1122358709262116,
-0.50305368692688179,-0.14774575140626311,
-0.44774575140626316,-0.20305368692688169,
-0.41223587092621161,-0.27274575140626311,
-0.4,-0.35,
-0.41223587092621161,-0.42725424859373684,
-0.44774575140626316,-0.49694631307311821,
-0.50305368692688168,-0.55225424859373684,
-0.57274575140626316,-0.58776412907378839,
-0.65,-0.6,
-0.727254248593737,-0.58776412907378839,
-0.79694631307311825,-0.55225424859373684,
-0.85225424859373689,-0.49694631307311832,
-0.88776412907378843,-0.42725424859373684,
-0.9,-0.35000000000000003,
-0.88776412907378843,-0.27274575140626317,
-0.85225424859373689,-0.20305368692688175,
-0.79694631307311836,-0.14774575140626314,
-0.72725424859373689,-0.1122358709262116,
0*
4,1,19,
0.65,-0.099999999999999978,
0.72725424859373689,-0.1122358709262116,
0.79694631307311825,-0.14774575140626311,
0.85225424859373689,-0.20305368692688169,
0.88776412907378843,-0.27274575140626311,
0.9,-0.35,
0.88776412907378843,-0.42725424859373684,
0.85225424859373689,-0.49694631307311821,
0.79694631307311836,-0.55225424859373684,
0.72725424859373689,-0.58776412907378839,
0.65,-0.6,
0.572745751406263,-0.58776412907378839,
0.50305368692688179,-0.55225424859373684,
0.44774575140626316,-0.49694631307311832,
0.41223587092621161,-0.42725424859373684,
0.4,-0.35000000000000003,
0.41223587092621161,-0.27274575140626317,
0.44774575140626316,-0.20305368692688175,
0.50305368692688168,-0.14774575140626314,
0.57274575140626316,-0.1122358709262116,
0*
4,1,19,
0.65,0.6,
0.72725424859373689,0.58776412907378839,
0.79694631307311825,0.55225424859373684,
0.85225424859373689,0.49694631307311826,
0.88776412907378843,0.42725424859373684,
0.9,0.35,
0.88776412907378843,0.27274575140626311,
0.85225424859373689,0.20305368692688172,
0.79694631307311836,0.14774575140626314,
0.72725424859373689,0.1122358709262116,
0.65,0.099999999999999978,
0.572745751406263,0.1122358709262116,
0.50305368692688179,0.14774575140626309,
0.44774575140626316,0.20305368692688167,
0.41223587092621161,0.27274575140626311,
0.4,0.34999999999999992,
0.41223587092621161,0.42725424859373679,
0.44774575140626316,0.49694631307311821,
0.50305368692688168,0.55225424859373684,
0.57274575140626316,0.58776412907378839,
0*
4,1,3,
-0.9,0.35,
-0.4,0.35,
-0.4,-0.35,
-0.9,-0.35,
0*
4,1,3,
-0.65,-0.6,
-0.65,-0.099999999999999978,
0.65,-0.099999999999999978,
0.65,-0.6,
0*
4,1,3,
0.9,-0.35,
0.4,-0.35,
0.4,0.35,
0.9,0.35,
0*
4,1,3,
0.65,0.6,
0.65,0.099999999999999978,
-0.65,0.099999999999999978,
-0.65,0.6,
0*%
%ADD10COMP147,0.25X-0.65X0.35X-0.65X-0.35X0.65X-0.35X0.65X0.35X0*%
G04 #@! TD*
G04 #@! TA.AperFunction,ComponentPad*
%ADD11O,1.8X1.2*%
G04 #@! TD*
G04 #@! TA.AperFunction,ComponentPad*
%AMCOMP148*
4,1,3,
0.625,-0.35,
0.625,0.35,
-0.625,0.35,
-0.625,-0.35,
0*
4,1,19,
0.625,-0.099999999999999978,
0.70225424859373686,-0.1122358709262116,
0.77194631307311834,-0.14774575140626311,
0.82725424859373686,-0.20305368692688169,
0.86276412907378841,-0.27274575140626311,
0.875,-0.35,
0.86276412907378841,-0.42725424859373684,
0.82725424859373686,-0.49694631307311821,
0.77194631307311834,-0.55225424859373684,
0.70225424859373686,-0.58776412907378839,
0.625,-0.6,
0.547745751406263,-0.58776412907378839,
0.47805368692688177,-0.55225424859373684,
0.42274575140626314,-0.49694631307311832,
0.38723587092621159,-0.42725424859373684,
0.375,-0.35000000000000003,
0.38723587092621159,-0.27274575140626317,
0.42274575140626314,-0.20305368692688175,
0.47805368692688166,-0.14774575140626314,
0.54774575140626314,-0.1122358709262116,
0*
4,1,19,
0.625,0.6,
0.70225424859373686,0.58776412907378839,
0.77194631307311834,0.55225424859373684,
0.82725424859373686,0.49694631307311826,
0.86276412907378841,0.42725424859373684,
0.875,0.35,
0.86276412907378841,0.27274575140626311,
0.82725424859373686,0.20305368692688172,
0.77194631307311834,0.14774575140626314,
0.70225424859373686,0.1122358709262116,
0.625,0.099999999999999978,
0.547745751406263,0.1122358709262116,
0.47805368692688177,0.14774575140626309,
0.42274575140626314,0.20305368692688167,
0.38723587092621159,0.27274575140626311,
0.375,0.34999999999999992,
0.38723587092621159,0.42725424859373679,
0.42274575140626314,0.49694631307311821,
0.47805368692688166,0.55225424859373684,
0.54774575140626314,0.58776412907378839,
0*
4,1,19,
-0.625,0.6,
-0.54774575140626314,0.58776412907378839,
-0.47805368692688172,0.55225424859373684,
-0.42274575140626314,0.49694631307311826,
-0.38723587092621159,0.42725424859373684,
-0.375,0.35,
-0.38723587092621159,0.27274575140626311,
-0.42274575140626314,0.20305368692688172,
-0.47805368692688166,0.14774575140626314,
-0.54774575140626314,0.1122358709262116,
-0.625,0.099999999999999978,
-0.702254248593737,0.1122358709262116,
-0.77194631307311823,0.14774575140626309,
-0.82725424859373686,0.20305368692688167,
-0.86276412907378841,0.27274575140626311,
-0.875,0.34999999999999992,
-0.86276412907378841,0.42725424859373679,
-0.82725424859373686,0.49694631307311821,
-0.77194631307311834,0.55225424859373684,
-0.70225424859373686,0.58776412907378839,
0*
4,1,19,
-0.625,-0.099999999999999978,
-0.54774575140626314,-0.1122358709262116,
-0.47805368692688172,-0.14774575140626311,
-0.42274575140626314,-0.20305368692688169,
-0.38723587092621159,-0.27274575140626311,
-0.375,-0.35,
-0.38723587092621159,-0.42725424859373684,
-0.42274575140626314,-0.49694631307311821,
-0.47805368692688166,-0.55225424859373684,
-0.54774575140626314,-0.58776412907378839,
-0.625,-0.6,
-0.702254248593737,-0.58776412907378839,
-0.77194631307311823,-0.55225424859373684,
-0.82725424859373686,-0.49694631307311832,
-0.86276412907378841,-0.42725424859373684,
-0.875,-0.35000000000000003,
-0.86276412907378841,-0.27274575140626317,
-0.82725424859373686,-0.20305368692688175,
-0.77194631307311834,-0.14774575140626314,
-0.70225424859373686,-0.1122358709262116,
0*
4,1,3,
0.875,-0.35,
0.375,-0.35,
0.375,0.35,
0.875,0.35,
0*
4,1,3,
0.625,0.6,
0.625,0.099999999999999978,
-0.625,0.099999999999999978,
-0.625,0.6,
0*
4,1,3,
-0.875,0.35,
-0.375,0.35,
-0.375,-0.35,
-0.875,-0.35,
0*
4,1,3,
-0.625,-0.6,
-0.625,-0.099999999999999978,
0.625,-0.099999999999999978,
0.625,-0.6,
0*%
%ADD12COMP148,0.25X0.625X-0.35X0.625X0.35X-0.625X0.35X-0.625X-0.35X0*%
G04 #@! TD*
G04 #@! TA.AperFunction,ComponentPad*
%ADD13O,1.75X1.2*%
G04 #@! TD*
G04 #@! TA.AperFunction,ComponentPad*
%ADD14R,1.35X1.35*%
G04 #@! TD*
G04 #@! TA.AperFunction,ComponentPad*
%ADD15O,1.35X1.35*%
G04 #@! TD*
G04 #@! TA.AperFunction,ViaPad*
%ADD16C,0.8*%
G04 #@! TD*
G04 #@! TA.AperFunction,Conductor*
%ADD17C,0.4*%
G04 #@! TD*
G04 #@! TA.AperFunction,Conductor*
%ADD18C,0.25*%
G04 #@! TD*
G04 APERTURE END LIST*
D10*
X0020000000Y0040000000D02*
X0024855000Y0036165000D03*
D11*
X0024855000Y0034165000D03*
X0024855000Y0032165000D03*
X0024855000Y0030165000D03*
X0024855000Y0028165000D03*
X0024855000Y0026165000D03*
X0024855000Y0024165000D03*
X0024855000Y0022165000D03*
X0024855000Y0020165000D03*
X0024855000Y0018165000D03*
X0024855000Y0016165000D03*
X0024855000Y0014165000D03*
X0024855000Y0012165000D03*
X0024855000Y0010165000D03*
X0024855000Y0008164999D03*
X0024855000Y0006164999D03*
X0024855000Y0004164999D03*
D12*
X0032814999Y0011175000D03*
D13*
X0032814999Y0013175000D03*
X0032814999Y0015175000D03*
X0032814999Y0017175000D03*
X0032814999Y0019175000D03*
X0032814999Y0021175000D03*
X0032814999Y0023175000D03*
X0032814999Y0025175000D03*
X0032814999Y0027175000D03*
X0032814999Y0029175000D03*
D14*
X0021995000Y0036165000D03*
D15*
X0021995000Y0034165000D03*
X0021995000Y0032165000D03*
X0021995000Y0030165000D03*
X0021995000Y0028165000D03*
X0021995000Y0026165000D03*
X0021995000Y0024165000D03*
X0021995000Y0022165000D03*
X0021995000Y0020165000D03*
X0021995000Y0018165000D03*
X0021995000Y0016165000D03*
X0021995000Y0014165000D03*
X0021995000Y0012165000D03*
X0021995000Y0010165000D03*
X0021995000Y0008164999D03*
X0021995000Y0006164999D03*
X0021995000Y0004164999D03*
D16*
X0034095000Y0031685000D03*
X0032064999Y0032475000D03*
X0027035000Y0030605000D03*
X0028395000Y0030115000D03*
X0030075000Y0030055000D03*
X0026762999Y0026335400D03*
X0027220200Y0019096400D03*
D17*
X0025664400Y0034165000D02*
X0027271000Y0032558400D01*
X0024855000Y0032165000D02*
X0025959600Y0033269599D01*
X0024855000Y0034165000D02*
X0025664400Y0034165000D01*
X0026178800Y0033269599D02*
X0028185400Y0031262999D01*
X0034315480Y0029831920D02*
X0034315480Y0013796479D01*
X0032884400Y0031262999D02*
X0034315480Y0029831920D01*
X0025959600Y0033269599D02*
X0026178800Y0033269599D01*
X0033694000Y0013175000D02*
X0032814999Y0013175000D01*
X0028185400Y0031262999D02*
X0032884400Y0031262999D01*
X0034315480Y0013796479D02*
X0033694000Y0013175000D01*
X0027271000Y0032558400D02*
X0025248400Y0032558400D01*
D18*
X0026762999Y0026335400D02*
X0026762999Y0025813000D01*
X0026305799Y0015615800D02*
X0024855000Y0014165000D01*
X0026762999Y0025813000D02*
X0026305799Y0025355800D01*
X0026305799Y0025355800D02*
X0026305799Y0015615800D01*
X0027220200Y0018334400D02*
X0026762999Y0017877200D01*
X0027220200Y0019096400D02*
X0027220200Y0018334400D01*
X0026762999Y0017877200D02*
X0026762999Y0013736999D01*
X0026762999Y0013736999D02*
X0025191000Y0012165000D01*
X0025191000Y0012165000D02*
X0024855000Y0012165000D01*
G04 #@! TA.AperFunction,Conductor*
G36*
X0026325000Y0027675000D02*
G01*
X0024800031Y0027675000D01*
X0024800000Y0027680000D01*
X0021600000Y0027680000D01*
X0021599953Y0027675000D01*
X0021525000Y0027675000D01*
X0021525000Y0030675000D01*
X0026325000Y0030675000D01*
X0026325000Y0027675000D01*
G37*
G04 #@! TD.AperFunction*
G04 #@! TA.AperFunction,Conductor*
G36*
X0027329272Y0031117158D02*
G01*
X0027663950Y0030782480D01*
X0027669804Y0030776215D01*
X0027707839Y0030732615D01*
X0027714053Y0030728248D01*
X0027760119Y0030695872D01*
X0027765414Y0030691938D01*
X0027815682Y0030652524D01*
X0027822598Y0030649400D01*
X0027824884Y0030648017D01*
X0027839565Y0030639643D01*
X0027841925Y0030638378D01*
X0027848139Y0030634010D01*
X0027855218Y0030631250D01*
X0027855220Y0030631249D01*
X0027907675Y0030610798D01*
X0027913744Y0030608247D01*
X0027971973Y0030581955D01*
X0027979440Y0030580571D01*
X0027981995Y0030579770D01*
X0027998248Y0030575141D01*
X0028000828Y0030574478D01*
X0028007908Y0030571718D01*
X0028015439Y0030570726D01*
X0028015442Y0030570726D01*
X0028045061Y0030566827D01*
X0028071261Y0030563378D01*
X0028077759Y0030562348D01*
X0028140586Y0030550704D01*
X0028148166Y0030551141D01*
X0028148167Y0030551141D01*
X0028202792Y0030554291D01*
X0028210046Y0030554500D01*
X0032538740Y0030554500D01*
X0032606861Y0030534498D01*
X0032627834Y0030517595D01*
X0032646834Y0030498595D01*
X0032680861Y0030436283D01*
X0032675796Y0030365468D01*
X0032633249Y0030308632D01*
X0032566729Y0030283821D01*
X0032557740Y0030283500D01*
X0032487154Y0030283500D01*
X0032329434Y0030268452D01*
X0032126466Y0030208908D01*
X0032121139Y0030206164D01*
X0032121138Y0030206164D01*
X0031943751Y0030114804D01*
X0031943748Y0030114801D01*
X0031938420Y0030112057D01*
X0031772080Y0029981396D01*
X0031768148Y0029976865D01*
X0031768145Y0029976862D01*
X0031699365Y0029897601D01*
X0031633448Y0029821637D01*
X0031630448Y0029816451D01*
X0031630445Y0029816447D01*
X0031549616Y0029676728D01*
X0031527527Y0029638545D01*
X0031458139Y0029438729D01*
X0031457278Y0029432794D01*
X0031457278Y0029432792D01*
X0031432898Y0029264643D01*
X0031427787Y0029229396D01*
X0031437567Y0029018101D01*
X0031438971Y0029012276D01*
X0031438971Y0029012275D01*
X0031469067Y0028887397D01*
X0031487125Y0028812466D01*
X0031574674Y0028619913D01*
X0031697054Y0028447389D01*
X0031849850Y0028301119D01*
X0031854881Y0028297870D01*
X0031854888Y0028297865D01*
X0031882607Y0028279967D01*
X0031928984Y0028226211D01*
X0031938937Y0028155915D01*
X0031909304Y0028091397D01*
X0031892091Y0028075030D01*
X0031777143Y0027984738D01*
X0031768494Y0027976501D01*
X0031637788Y0027825877D01*
X0031630853Y0027816153D01*
X0031530990Y0027643532D01*
X0031526016Y0027632669D01*
X0031460593Y0027444273D01*
X0031460352Y0027443284D01*
X0031461820Y0027432992D01*
X0031475385Y0027429000D01*
X0032942999Y0027429000D01*
X0033011121Y0027408998D01*
X0033057614Y0027355342D01*
X0033069000Y0027303000D01*
X0033069000Y0027047000D01*
X0033048997Y0026978879D01*
X0032995342Y0026932386D01*
X0032942999Y0026921000D01*
X0031479598Y0026921000D01*
X0031466067Y0026917026D01*
X0031464712Y0026907601D01*
X0031486193Y0026818463D01*
X0031490083Y0026807168D01*
X0031572629Y0026625618D01*
X0031578576Y0026615276D01*
X0031693968Y0026452603D01*
X0031701760Y0026443575D01*
X0031845831Y0026305658D01*
X0031855200Y0026298259D01*
X0031882576Y0026280582D01*
X0031928955Y0026226827D01*
X0031938909Y0026156532D01*
X0031909278Y0026092015D01*
X0031892063Y0026075644D01*
X0031772080Y0025981396D01*
X0031768148Y0025976865D01*
X0031768145Y0025976862D01*
X0031649554Y0025840198D01*
X0031633448Y0025821637D01*
X0031630448Y0025816451D01*
X0031630445Y0025816447D01*
X0031602561Y0025768247D01*
X0031527527Y0025638545D01*
X0031458139Y0025438729D01*
X0031457278Y0025432794D01*
X0031457278Y0025432792D01*
X0031441907Y0025326777D01*
X0031427787Y0025229396D01*
X0031437567Y0025018101D01*
X0031487125Y0024812466D01*
X0031574674Y0024619913D01*
X0031697054Y0024447389D01*
X0031849850Y0024301119D01*
X0031854881Y0024297870D01*
X0031854888Y0024297865D01*
X0031882607Y0024279967D01*
X0031928984Y0024226211D01*
X0031938937Y0024155915D01*
X0031909304Y0024091397D01*
X0031892091Y0024075030D01*
X0031777143Y0023984738D01*
X0031768494Y0023976501D01*
X0031637788Y0023825877D01*
X0031630853Y0023816153D01*
X0031530990Y0023643533D01*
X0031526016Y0023632669D01*
X0031460593Y0023444273D01*
X0031460352Y0023443284D01*
X0031461820Y0023432992D01*
X0031475385Y0023429000D01*
X0032942999Y0023429000D01*
X0033011121Y0023408998D01*
X0033057614Y0023355342D01*
X0033069000Y0023303000D01*
X0033069000Y0023047000D01*
X0033048997Y0022978879D01*
X0032995342Y0022932386D01*
X0032942999Y0022921000D01*
X0031479598Y0022921000D01*
X0031466067Y0022917027D01*
X0031464712Y0022907601D01*
X0031486193Y0022818463D01*
X0031490083Y0022807168D01*
X0031572629Y0022625618D01*
X0031578576Y0022615276D01*
X0031693968Y0022452603D01*
X0031701760Y0022443575D01*
X0031845831Y0022305658D01*
X0031855200Y0022298259D01*
X0031882576Y0022280582D01*
X0031928955Y0022226828D01*
X0031938909Y0022156532D01*
X0031909278Y0022092015D01*
X0031892063Y0022075644D01*
X0031772080Y0021981396D01*
X0031768148Y0021976865D01*
X0031768145Y0021976862D01*
X0031649554Y0021840198D01*
X0031633448Y0021821637D01*
X0031630448Y0021816451D01*
X0031630445Y0021816447D01*
X0031602561Y0021768247D01*
X0031527527Y0021638546D01*
X0031458139Y0021438729D01*
X0031427787Y0021229396D01*
X0031437567Y0021018101D01*
X0031487125Y0020812466D01*
X0031574674Y0020619913D01*
X0031697054Y0020447389D01*
X0031849850Y0020301119D01*
X0031854881Y0020297870D01*
X0031854888Y0020297865D01*
X0031882607Y0020279967D01*
X0031928984Y0020226211D01*
X0031938937Y0020155915D01*
X0031909304Y0020091398D01*
X0031892091Y0020075030D01*
X0031777143Y0019984738D01*
X0031768494Y0019976501D01*
X0031637788Y0019825877D01*
X0031630853Y0019816153D01*
X0031530990Y0019643533D01*
X0031526016Y0019632669D01*
X0031460593Y0019444273D01*
X0031460352Y0019443284D01*
X0031461820Y0019432992D01*
X0031475385Y0019429000D01*
X0032942999Y0019429000D01*
X0033011121Y0019408998D01*
X0033057614Y0019355342D01*
X0033069000Y0019303000D01*
X0033069000Y0019047000D01*
X0033048997Y0018978879D01*
X0032995342Y0018932386D01*
X0032942999Y0018921000D01*
X0031479598Y0018921000D01*
X0031466067Y0018917027D01*
X0031464712Y0018907601D01*
X0031486193Y0018818463D01*
X0031490083Y0018807168D01*
X0031572629Y0018625618D01*
X0031578576Y0018615276D01*
X0031693968Y0018452603D01*
X0031701760Y0018443575D01*
X0031845831Y0018305658D01*
X0031855200Y0018298259D01*
X0031882576Y0018280582D01*
X0031928955Y0018226828D01*
X0031938909Y0018156532D01*
X0031909278Y0018092015D01*
X0031892063Y0018075644D01*
X0031772080Y0017981396D01*
X0031768148Y0017976865D01*
X0031768145Y0017976862D01*
X0031716853Y0017917753D01*
X0031633448Y0017821637D01*
X0031630448Y0017816451D01*
X0031630445Y0017816447D01*
X0031602561Y0017768247D01*
X0031527527Y0017638546D01*
X0031458139Y0017438729D01*
X0031427787Y0017229396D01*
X0031437567Y0017018101D01*
X0031487125Y0016812466D01*
X0031574674Y0016619913D01*
X0031697054Y0016447389D01*
X0031849850Y0016301119D01*
X0031854881Y0016297870D01*
X0031854888Y0016297865D01*
X0031882607Y0016279967D01*
X0031928984Y0016226211D01*
X0031938937Y0016155915D01*
X0031909304Y0016091398D01*
X0031892091Y0016075030D01*
X0031777143Y0015984738D01*
X0031768494Y0015976500D01*
X0031637788Y0015825876D01*
X0031630853Y0015816153D01*
X0031530990Y0015643533D01*
X0031526016Y0015632669D01*
X0031460593Y0015444272D01*
X0031460352Y0015443283D01*
X0031461820Y0015432991D01*
X0031475385Y0015428999D01*
X0032942999Y0015428999D01*
X0033011121Y0015408998D01*
X0033057614Y0015355342D01*
X0033069000Y0015303000D01*
X0033069000Y0015047000D01*
X0033048997Y0014978879D01*
X0032995342Y0014932386D01*
X0032942999Y0014921000D01*
X0031479598Y0014921000D01*
X0031466067Y0014917027D01*
X0031464712Y0014907601D01*
X0031486193Y0014818463D01*
X0031490083Y0014807168D01*
X0031572629Y0014625618D01*
X0031578576Y0014615276D01*
X0031693968Y0014452603D01*
X0031701760Y0014443575D01*
X0031845831Y0014305658D01*
X0031855200Y0014298259D01*
X0031882576Y0014280581D01*
X0031928955Y0014226828D01*
X0031938909Y0014156531D01*
X0031909278Y0014092015D01*
X0031892063Y0014075644D01*
X0031772080Y0013981396D01*
X0031768148Y0013976865D01*
X0031768145Y0013976862D01*
X0031649554Y0013840198D01*
X0031633448Y0013821636D01*
X0031630448Y0013816451D01*
X0031630445Y0013816447D01*
X0031549903Y0013677223D01*
X0031527527Y0013638546D01*
X0031458139Y0013438728D01*
X0031457278Y0013432794D01*
X0031457278Y0013432792D01*
X0031429266Y0013239593D01*
X0031427787Y0013229396D01*
X0031437567Y0013018101D01*
X0031438971Y0013012276D01*
X0031438971Y0013012274D01*
X0031475695Y0012859895D01*
X0031487125Y0012812466D01*
X0031574674Y0012619913D01*
X0031697054Y0012447389D01*
X0031701380Y0012443247D01*
X0031701386Y0012443241D01*
X0031792317Y0012356193D01*
X0031827694Y0012294639D01*
X0031824175Y0012223730D01*
X0031782879Y0012165979D01*
X0031771496Y0012158035D01*
X0031715652Y0012123477D01*
X0031590695Y0011998303D01*
X0031497885Y0011847738D01*
X0031495581Y0011840791D01*
X0031447642Y0011696258D01*
X0031442203Y0011679860D01*
X0031431500Y0011575399D01*
X0031431500Y0010774600D01*
X0031442474Y0010668834D01*
X0031498450Y0010501054D01*
X0031591521Y0010350652D01*
X0031716697Y0010225695D01*
X0031722927Y0010221855D01*
X0031722928Y0010221854D01*
X0031860090Y0010137305D01*
X0031867262Y0010132885D01*
X0031916356Y0010116601D01*
X0032028610Y0010079367D01*
X0032028613Y0010079367D01*
X0032035139Y0010077203D01*
X0032041975Y0010076502D01*
X0032041978Y0010076502D01*
X0032085031Y0010072091D01*
X0032139600Y0010066500D01*
X0033490400Y0010066500D01*
X0033493646Y0010066837D01*
X0033493650Y0010066837D01*
X0033589308Y0010076761D01*
X0033589312Y0010076763D01*
X0033596166Y0010077473D01*
X0033602702Y0010079654D01*
X0033602704Y0010079654D01*
X0033734806Y0010123728D01*
X0033763946Y0010133450D01*
X0033914348Y0010226522D01*
X0034039305Y0010351697D01*
X0034076549Y0010412118D01*
X0034128275Y0010496032D01*
X0034128276Y0010496034D01*
X0034132115Y0010502262D01*
X0034187797Y0010670138D01*
X0034198499Y0010774600D01*
X0034198499Y0011575399D01*
X0034187526Y0011681166D01*
X0034180758Y0011701453D01*
X0034133868Y0011841998D01*
X0034131550Y0011848946D01*
X0034038478Y0011999348D01*
X0033913303Y0012124305D01*
X0033861764Y0012156075D01*
X0033814271Y0012208846D01*
X0033802847Y0012278918D01*
X0033831120Y0012344042D01*
X0033850045Y0012362418D01*
X0033857920Y0012368604D01*
X0033981688Y0012511234D01*
X0034018150Y0012540054D01*
X0034024656Y0012542513D01*
X0034030917Y0012546814D01*
X0034033286Y0012548054D01*
X0034048097Y0012556299D01*
X0034050351Y0012557632D01*
X0034057305Y0012560685D01*
X0034108002Y0012599587D01*
X0034113332Y0012603459D01*
X0034159720Y0012635338D01*
X0034159725Y0012635344D01*
X0034165981Y0012639643D01*
X0034207426Y0012686160D01*
X0034212408Y0012691437D01*
X0034351905Y0012830934D01*
X0034414217Y0012864960D01*
X0034485032Y0012859895D01*
X0034541868Y0012817348D01*
X0034566679Y0012750827D01*
X0034567000Y0012741838D01*
X0034567000Y0000634000D01*
X0034546998Y0000565879D01*
X0034493342Y0000519385D01*
X0034441000Y0000508000D01*
X0020634000Y0000508000D01*
X0020565879Y0000528002D01*
X0020519386Y0000581657D01*
X0020508000Y0000634000D01*
X0020508000Y0002539600D01*
X0020528002Y0002607720D01*
X0020581658Y0002654214D01*
X0020634000Y0002665599D01*
X0027238400Y0002665599D01*
X0027238400Y0007774999D01*
X0026364139Y0007774999D01*
X0026296018Y0007795001D01*
X0026249525Y0007848658D01*
X0026239443Y0007919080D01*
X0026266352Y0008104664D01*
X0026266352Y0008104666D01*
X0026267213Y0008110603D01*
X0026257433Y0008321898D01*
X0026207875Y0008527534D01*
X0026168412Y0008614329D01*
X0026122806Y0008714632D01*
X0026120326Y0008720087D01*
X0025997946Y0008892610D01*
X0025845150Y0009038881D01*
X0025839255Y0009042687D01*
X0025812837Y0009059746D01*
X0025766460Y0009113501D01*
X0025756507Y0009183796D01*
X0025786139Y0009248314D01*
X0025803353Y0009264683D01*
X0025918202Y0009354897D01*
X0025922920Y0009358604D01*
X0025926852Y0009363135D01*
X0025926855Y0009363138D01*
X0026057621Y0009513833D01*
X0026061552Y0009518363D01*
X0026064552Y0009523549D01*
X0026064555Y0009523553D01*
X0026164467Y0009696258D01*
X0026167473Y0009701453D01*
X0026236861Y0009901271D01*
X0026260867Y0010066837D01*
X0026266352Y0010104664D01*
X0026266352Y0010104667D01*
X0026267213Y0010110603D01*
X0026257433Y0010321898D01*
X0026212582Y0010508002D01*
X0026209281Y0010521701D01*
X0026209280Y0010521702D01*
X0026207875Y0010527534D01*
X0026168412Y0010614329D01*
X0026140511Y0010675692D01*
X0026120326Y0010720087D01*
X0025997946Y0010892610D01*
X0025845150Y0011038881D01*
X0025839255Y0011042687D01*
X0025812837Y0011059746D01*
X0025766460Y0011113501D01*
X0025756507Y0011183796D01*
X0025786139Y0011248314D01*
X0025803353Y0011264683D01*
X0025918202Y0011354897D01*
X0025922920Y0011358604D01*
X0025926852Y0011363135D01*
X0025926855Y0011363138D01*
X0026057621Y0011513833D01*
X0026061552Y0011518363D01*
X0026064552Y0011523549D01*
X0026064555Y0011523553D01*
X0026164467Y0011696258D01*
X0026167473Y0011701453D01*
X0026236861Y0011901271D01*
X0026267213Y0012110603D01*
X0026261141Y0012241796D01*
X0026259403Y0012279347D01*
X0026276234Y0012348320D01*
X0026296173Y0012374269D01*
X0027155258Y0013233353D01*
X0027163536Y0013240887D01*
X0027170018Y0013245000D01*
X0027216644Y0013294652D01*
X0027219398Y0013297493D01*
X0027239135Y0013317229D01*
X0027241615Y0013320426D01*
X0027249320Y0013329449D01*
X0027274159Y0013355899D01*
X0027279586Y0013361678D01*
X0027283405Y0013368625D01*
X0027283407Y0013368628D01*
X0027289348Y0013379434D01*
X0027300199Y0013395952D01*
X0027307758Y0013405698D01*
X0027312614Y0013411959D01*
X0027315759Y0013419228D01*
X0027315762Y0013419232D01*
X0027330174Y0013452537D01*
X0027335391Y0013463187D01*
X0027356695Y0013501940D01*
X0027361733Y0013521563D01*
X0027368137Y0013540265D01*
X0027373033Y0013551580D01*
X0027373033Y0013551580D01*
X0027376181Y0013558855D01*
X0027377420Y0013566678D01*
X0027377423Y0013566688D01*
X0027383099Y0013602523D01*
X0027385505Y0013614144D01*
X0027394528Y0013649289D01*
X0027394528Y0013649290D01*
X0027396500Y0013656970D01*
X0027396500Y0013677223D01*
X0027398051Y0013696935D01*
X0027399980Y0013709114D01*
X0027401220Y0013716943D01*
X0027397059Y0013760962D01*
X0027396500Y0013772818D01*
X0027396500Y0017562606D01*
X0027416502Y0017630727D01*
X0027433405Y0017651701D01*
X0027612447Y0017830743D01*
X0027620737Y0017838287D01*
X0027627218Y0017842400D01*
X0027673859Y0017892068D01*
X0027676613Y0017894909D01*
X0027696334Y0017914630D01*
X0027698812Y0017917825D01*
X0027706518Y0017926847D01*
X0027731358Y0017953299D01*
X0027736786Y0017959079D01*
X0027746546Y0017976832D01*
X0027757399Y0017993355D01*
X0027764953Y0018003094D01*
X0027769813Y0018009359D01*
X0027787376Y0018049943D01*
X0027792583Y0018060573D01*
X0027813895Y0018099340D01*
X0027815866Y0018107017D01*
X0027815868Y0018107022D01*
X0027818932Y0018118958D01*
X0027825338Y0018137670D01*
X0027830234Y0018148983D01*
X0027833381Y0018156255D01*
X0027840297Y0018199919D01*
X0027842704Y0018211540D01*
X0027851728Y0018246689D01*
X0027851728Y0018246690D01*
X0027853700Y0018254370D01*
X0027853700Y0018274631D01*
X0027855251Y0018294342D01*
X0027855871Y0018298259D01*
X0027858418Y0018314343D01*
X0027854259Y0018358354D01*
X0027853700Y0018370211D01*
X0027853700Y0018393876D01*
X0027873702Y0018461997D01*
X0027886058Y0018478179D01*
X0027959240Y0018559456D01*
X0028054727Y0018724844D01*
X0028113742Y0018906472D01*
X0028114852Y0018917027D01*
X0028133014Y0019089835D01*
X0028133704Y0019096400D01*
X0028124440Y0019184535D01*
X0028114432Y0019279765D01*
X0028114432Y0019279767D01*
X0028113742Y0019286328D01*
X0028054727Y0019467956D01*
X0027959240Y0019633344D01*
X0027831453Y0019775266D01*
X0027676952Y0019887518D01*
X0027670924Y0019890202D01*
X0027670922Y0019890203D01*
X0027508519Y0019962509D01*
X0027508518Y0019962509D01*
X0027502488Y0019965194D01*
X0027409087Y0019985047D01*
X0027322144Y0020003528D01*
X0027322139Y0020003528D01*
X0027315687Y0020004900D01*
X0027124713Y0020004900D01*
X0027114465Y0020002722D01*
X0027091496Y0019997840D01*
X0027020705Y0020003243D01*
X0026964073Y0020046060D01*
X0026939580Y0020112698D01*
X0026939300Y0020121087D01*
X0026939300Y0025041206D01*
X0026959302Y0025109327D01*
X0026976205Y0025130301D01*
X0027155247Y0025309343D01*
X0027163536Y0025316887D01*
X0027170018Y0025320999D01*
X0027216659Y0025370668D01*
X0027219413Y0025373509D01*
X0027239134Y0025393230D01*
X0027241612Y0025396425D01*
X0027249318Y0025405447D01*
X0027274158Y0025431899D01*
X0027279586Y0025437679D01*
X0027289346Y0025455432D01*
X0027300199Y0025471955D01*
X0027307753Y0025481693D01*
X0027312613Y0025487959D01*
X0027330176Y0025528543D01*
X0027335383Y0025539172D01*
X0027356695Y0025577939D01*
X0027358666Y0025585617D01*
X0027358668Y0025585622D01*
X0027361732Y0025597558D01*
X0027368138Y0025616270D01*
X0027373033Y0025627581D01*
X0027376181Y0025634855D01*
X0027377202Y0025641301D01*
X0027404181Y0025689771D01*
X0027497617Y0025793543D01*
X0027497620Y0025793547D01*
X0027502040Y0025798456D01*
X0027597527Y0025963844D01*
X0027656542Y0026145471D01*
X0027657705Y0026156532D01*
X0027675814Y0026328834D01*
X0027676504Y0026335400D01*
X0027668441Y0026412118D01*
X0027657232Y0026518765D01*
X0027657232Y0026518767D01*
X0027656542Y0026525328D01*
X0027597527Y0026706956D01*
X0027502040Y0026872344D01*
X0027470295Y0026907601D01*
X0027378675Y0027009355D01*
X0027378674Y0027009356D01*
X0027374253Y0027014266D01*
X0027219752Y0027126518D01*
X0027213724Y0027129202D01*
X0027213722Y0027129203D01*
X0027051319Y0027201509D01*
X0027051318Y0027201509D01*
X0027045288Y0027204194D01*
X0026951887Y0027224047D01*
X0026864944Y0027242528D01*
X0026864939Y0027242528D01*
X0026858487Y0027243900D01*
X0026667513Y0027243900D01*
X0026661061Y0027242528D01*
X0026661056Y0027242528D01*
X0026574113Y0027224047D01*
X0026480712Y0027204194D01*
X0026474682Y0027201509D01*
X0026474681Y0027201509D01*
X0026312278Y0027129203D01*
X0026312276Y0027129202D01*
X0026306248Y0027126518D01*
X0026151747Y0027014266D01*
X0026119885Y0026978879D01*
X0026108644Y0026966395D01*
X0026048198Y0026929155D01*
X0025977215Y0026930507D01*
X0025927877Y0026959687D01*
X0025849480Y0027034736D01*
X0025845150Y0027038881D01*
X0025840119Y0027042130D01*
X0025840112Y0027042135D01*
X0025812393Y0027060033D01*
X0025766016Y0027113789D01*
X0025756063Y0027184085D01*
X0025785696Y0027248602D01*
X0025802909Y0027264970D01*
X0025917856Y0027355262D01*
X0025926506Y0027363498D01*
X0026057212Y0027514122D01*
X0026064147Y0027523847D01*
X0026164010Y0027696467D01*
X0026168984Y0027707331D01*
X0026234407Y0027895727D01*
X0026234648Y0027896715D01*
X0026233180Y0027907007D01*
X0026219615Y0027911000D01*
X0023494598Y0027911000D01*
X0023481067Y0027907027D01*
X0023479712Y0027897601D01*
X0023494673Y0027835520D01*
X0023491188Y0027764609D01*
X0023449918Y0027706839D01*
X0023383967Y0027680553D01*
X0023372180Y0027680000D01*
X0023255587Y0027680000D01*
X0023187466Y0027700001D01*
X0023140973Y0027753658D01*
X0023130869Y0027823932D01*
X0023136274Y0027846501D01*
X0023148385Y0027882179D01*
X0023151017Y0027893143D01*
X0023149040Y0027907007D01*
X0023135474Y0027911000D01*
X0020856981Y0027911000D01*
X0020843450Y0027907027D01*
X0020842158Y0027898038D01*
X0020873656Y0027774015D01*
X0020877497Y0027763168D01*
X0020963685Y0027576211D01*
X0020969436Y0027566250D01*
X0021088254Y0027398127D01*
X0021095725Y0027389379D01*
X0021235118Y0027253588D01*
X0021269956Y0027191727D01*
X0021265819Y0027120852D01*
X0021230274Y0027068604D01*
X0021132842Y0026983158D01*
X0020998181Y0026812342D01*
X0020896905Y0026619846D01*
X0020895192Y0026614328D01*
X0020842171Y0026443575D01*
X0020832403Y0026412118D01*
X0020806837Y0026196113D01*
X0020821063Y0025979067D01*
X0020822484Y0025973471D01*
X0020822485Y0025973466D01*
X0020873184Y0025773842D01*
X0020874605Y0025768247D01*
X0020965668Y0025570715D01*
X0020969001Y0025565998D01*
X0021063774Y0025431899D01*
X0021091204Y0025393086D01*
X0021095346Y0025389051D01*
X0021234741Y0025253259D01*
X0021269579Y0025191398D01*
X0021265442Y0025120522D01*
X0021229899Y0025068274D01*
X0021132842Y0024983158D01*
X0020998181Y0024812342D01*
X0020896905Y0024619846D01*
X0020832403Y0024412118D01*
X0020806837Y0024196113D01*
X0020821063Y0023979067D01*
X0020874605Y0023768247D01*
X0020965668Y0023570715D01*
X0020969001Y0023565999D01*
X0021055029Y0023444273D01*
X0021091204Y0023393086D01*
X0021095346Y0023389051D01*
X0021234741Y0023253259D01*
X0021269579Y0023191398D01*
X0021265442Y0023120522D01*
X0021229899Y0023068274D01*
X0021132842Y0022983158D01*
X0020998181Y0022812342D01*
X0020896905Y0022619846D01*
X0020895192Y0022614329D01*
X0020842171Y0022443575D01*
X0020832403Y0022412118D01*
X0020806837Y0022196113D01*
X0020821063Y0021979067D01*
X0020822484Y0021973471D01*
X0020822485Y0021973466D01*
X0020862364Y0021816447D01*
X0020874605Y0021768247D01*
X0020965668Y0021570715D01*
X0020969001Y0021565999D01*
X0021063143Y0021432792D01*
X0021091204Y0021393086D01*
X0021095346Y0021389051D01*
X0021234741Y0021253259D01*
X0021269579Y0021191398D01*
X0021265442Y0021120522D01*
X0021229899Y0021068274D01*
X0021132842Y0020983158D01*
X0020998181Y0020812342D01*
X0020896905Y0020619846D01*
X0020832403Y0020412118D01*
X0020806837Y0020196113D01*
X0020821063Y0019979067D01*
X0020822484Y0019973471D01*
X0020822485Y0019973466D01*
X0020845299Y0019883637D01*
X0020874605Y0019768247D01*
X0020965668Y0019570715D01*
X0020969001Y0019565999D01*
X0021055029Y0019444273D01*
X0021091204Y0019393086D01*
X0021095346Y0019389051D01*
X0021234741Y0019253259D01*
X0021269579Y0019191398D01*
X0021265442Y0019120522D01*
X0021229899Y0019068274D01*
X0021132842Y0018983158D01*
X0020998181Y0018812342D01*
X0020896905Y0018619846D01*
X0020895192Y0018614329D01*
X0020842171Y0018443575D01*
X0020832403Y0018412118D01*
X0020806837Y0018196113D01*
X0020821063Y0017979067D01*
X0020822484Y0017973471D01*
X0020822485Y0017973466D01*
X0020862364Y0017816447D01*
X0020874605Y0017768247D01*
X0020965668Y0017570715D01*
X0020969001Y0017565999D01*
X0021063143Y0017432792D01*
X0021091204Y0017393086D01*
X0021095346Y0017389051D01*
X0021234741Y0017253259D01*
X0021269579Y0017191398D01*
X0021265442Y0017120522D01*
X0021229899Y0017068274D01*
X0021132842Y0016983158D01*
X0020998181Y0016812342D01*
X0020896905Y0016619845D01*
X0020832403Y0016412118D01*
X0020806837Y0016196113D01*
X0020821063Y0015979067D01*
X0020874605Y0015768246D01*
X0020965668Y0015570715D01*
X0020969001Y0015565999D01*
X0021055029Y0015444272D01*
X0021091204Y0015393086D01*
X0021095346Y0015389050D01*
X0021234741Y0015253259D01*
X0021269579Y0015191398D01*
X0021265442Y0015120522D01*
X0021229899Y0015068273D01*
X0021132842Y0014983158D01*
X0020998181Y0014812342D01*
X0020896905Y0014619845D01*
X0020895192Y0014614329D01*
X0020842171Y0014443575D01*
X0020832403Y0014412118D01*
X0020806837Y0014196113D01*
X0020821063Y0013979067D01*
X0020822484Y0013973471D01*
X0020822485Y0013973465D01*
X0020862364Y0013816447D01*
X0020874605Y0013768246D01*
X0020877022Y0013763003D01*
X0020907480Y0013696935D01*
X0020965668Y0013570715D01*
X0020969001Y0013565999D01*
X0021063143Y0013432792D01*
X0021091204Y0013393086D01*
X0021095346Y0013389050D01*
X0021234741Y0013253259D01*
X0021269579Y0013191398D01*
X0021265442Y0013120522D01*
X0021229899Y0013068273D01*
X0021132842Y0012983158D01*
X0020998181Y0012812342D01*
X0020896905Y0012619845D01*
X0020832403Y0012412118D01*
X0020806837Y0012196113D01*
X0020821063Y0011979067D01*
X0020822484Y0011973471D01*
X0020822485Y0011973465D01*
X0020855874Y0011841998D01*
X0020874605Y0011768246D01*
X0020965668Y0011570715D01*
X0021091204Y0011393086D01*
X0021095346Y0011389050D01*
X0021234741Y0011253259D01*
X0021269579Y0011191398D01*
X0021265442Y0011120522D01*
X0021229899Y0011068273D01*
X0021132842Y0010983158D01*
X0021129270Y0010978627D01*
X0021064726Y0010896753D01*
X0020998181Y0010812342D01*
X0020896905Y0010619845D01*
X0020832403Y0010412118D01*
X0020806837Y0010196113D01*
X0020821063Y0009979067D01*
X0020874605Y0009768246D01*
X0020965668Y0009570715D01*
X0021091204Y0009393086D01*
X0021095346Y0009389050D01*
X0021234741Y0009253259D01*
X0021269579Y0009191398D01*
X0021265442Y0009120522D01*
X0021229899Y0009068273D01*
X0021132842Y0008983158D01*
X0021129270Y0008978627D01*
X0021064726Y0008896753D01*
X0020998181Y0008812342D01*
X0020896905Y0008619845D01*
X0020832403Y0008412118D01*
X0020806837Y0008196113D01*
X0020821063Y0007979067D01*
X0020833013Y0007932015D01*
X0020830395Y0007861068D01*
X0020789835Y0007802798D01*
X0020724211Y0007775706D01*
X0020710890Y0007774999D01*
X0020634000Y0007774999D01*
X0020565879Y0007795001D01*
X0020519386Y0007848658D01*
X0020508000Y0007901000D01*
X0020508000Y0028422201D01*
X0020840218Y0028422201D01*
X0020846950Y0028419000D01*
X0021722885Y0028419000D01*
X0021738124Y0028423475D01*
X0021739329Y0028424865D01*
X0021741000Y0028432548D01*
X0021741000Y0028437115D01*
X0022249000Y0028437115D01*
X0022253475Y0028421875D01*
X0022254865Y0028420671D01*
X0022262548Y0028419000D01*
X0023134485Y0028419000D01*
X0023148016Y0028422973D01*
X0023149185Y0028431108D01*
X0023148571Y0028433284D01*
X0023475352Y0028433284D01*
X0023476820Y0028422992D01*
X0023490385Y0028419000D01*
X0024582885Y0028419000D01*
X0024598124Y0028423475D01*
X0024599329Y0028424865D01*
X0024601000Y0028432548D01*
X0024601000Y0028437115D01*
X0025109000Y0028437115D01*
X0025113475Y0028421875D01*
X0025114865Y0028420671D01*
X0025122548Y0028419000D01*
X0026215402Y0028419000D01*
X0026228932Y0028422973D01*
X0026230288Y0028432399D01*
X0026208806Y0028521537D01*
X0026204917Y0028532832D01*
X0026122371Y0028714382D01*
X0026116424Y0028724724D01*
X0026001032Y0028887397D01*
X0025993239Y0028896425D01*
X0025849169Y0029034342D01*
X0025839799Y0029041742D01*
X0025811979Y0029059705D01*
X0025765601Y0029113460D01*
X0025755647Y0029183756D01*
X0025785278Y0029248272D01*
X0025802493Y0029264643D01*
X0025917856Y0029355262D01*
X0025926506Y0029363498D01*
X0026057212Y0029514122D01*
X0026064147Y0029523847D01*
X0026164010Y0029696467D01*
X0026168984Y0029707331D01*
X0026234407Y0029895727D01*
X0026234648Y0029896715D01*
X0026233180Y0029907007D01*
X0026219615Y0029911000D01*
X0025127115Y0029911000D01*
X0025111876Y0029906525D01*
X0025110671Y0029905135D01*
X0025109000Y0029897452D01*
X0025109000Y0028437115D01*
X0024601000Y0028437115D01*
X0024601000Y0029892885D01*
X0024596525Y0029908124D01*
X0024595135Y0029909329D01*
X0024587452Y0029911000D01*
X0023494598Y0029911000D01*
X0023481067Y0029907027D01*
X0023479712Y0029897601D01*
X0023501194Y0029808463D01*
X0023505083Y0029797168D01*
X0023587629Y0029615617D01*
X0023593576Y0029605276D01*
X0023708968Y0029442603D01*
X0023716761Y0029433574D01*
X0023860831Y0029295658D01*
X0023870201Y0029288258D01*
X0023898021Y0029270295D01*
X0023944399Y0029216540D01*
X0023954353Y0029146244D01*
X0023924722Y0029081727D01*
X0023907507Y0029065357D01*
X0023792143Y0028974738D01*
X0023783494Y0028966501D01*
X0023652788Y0028815877D01*
X0023645853Y0028806153D01*
X0023545990Y0028633533D01*
X0023541016Y0028622669D01*
X0023475593Y0028434272D01*
X0023475352Y0028433284D01*
X0023148571Y0028433284D01*
X0023105725Y0028585206D01*
X0023101603Y0028595945D01*
X0023010549Y0028780583D01*
X0023004538Y0028790392D01*
X0022881360Y0028955349D01*
X0022873671Y0028963889D01*
X0022755320Y0029073290D01*
X0022718875Y0029134220D01*
X0022721156Y0029205180D01*
X0022760280Y0029262690D01*
X0022830652Y0029321218D01*
X0022838782Y0029329347D01*
X0022970420Y0029487625D01*
X0022976944Y0029497118D01*
X0023077531Y0029676728D01*
X0023082210Y0029687237D01*
X0023148386Y0029882182D01*
X0023151017Y0029893143D01*
X0023149040Y0029907007D01*
X0023135474Y0029911000D01*
X0022267115Y0029911000D01*
X0022251876Y0029906525D01*
X0022250671Y0029905135D01*
X0022249000Y0029897452D01*
X0022249000Y0028437115D01*
X0021741000Y0028437115D01*
X0021741000Y0029892885D01*
X0021736525Y0029908124D01*
X0021735135Y0029909329D01*
X0021727452Y0029911000D01*
X0020856981Y0029911000D01*
X0020843450Y0029907027D01*
X0020842158Y0029898038D01*
X0020873656Y0029774015D01*
X0020877497Y0029763168D01*
X0020963685Y0029576211D01*
X0020969436Y0029566250D01*
X0021088254Y0029398127D01*
X0021095720Y0029389385D01*
X0021235477Y0029253239D01*
X0021270314Y0029191377D01*
X0021266177Y0029120501D01*
X0021230632Y0029068253D01*
X0021137552Y0028986624D01*
X0021129630Y0028978276D01*
X0021002180Y0028816606D01*
X0020995909Y0028806950D01*
X0020900060Y0028624771D01*
X0020895655Y0028614137D01*
X0020840436Y0028436300D01*
X0020840218Y0028422201D01*
X0020508000Y0028422201D01*
X0020508000Y0030678800D01*
X0020812794Y0030678800D01*
X0020831665Y0030662447D01*
X0020870049Y0030602721D01*
X0020869486Y0030529859D01*
X0020840436Y0030436300D01*
X0020840218Y0030422201D01*
X0020846950Y0030419000D01*
X0023134485Y0030419000D01*
X0023148016Y0030422973D01*
X0023149185Y0030431107D01*
X0023124510Y0030518598D01*
X0023125270Y0030589591D01*
X0023164291Y0030648902D01*
X0023229184Y0030677702D01*
X0023245779Y0030678800D01*
X0023383372Y0030678800D01*
X0023451493Y0030658798D01*
X0023497986Y0030605142D01*
X0023508090Y0030534868D01*
X0023502399Y0030511466D01*
X0023475595Y0030434279D01*
X0023475352Y0030433284D01*
X0023476820Y0030422992D01*
X0023490385Y0030419000D01*
X0026215402Y0030419000D01*
X0026228932Y0030422973D01*
X0026230288Y0030432399D01*
X0026208806Y0030521537D01*
X0026204915Y0030532836D01*
X0026186051Y0030574327D01*
X0026176065Y0030644618D01*
X0026205666Y0030709149D01*
X0026251223Y0030742333D01*
X0027190651Y0031143921D01*
X0027261150Y0031152305D01*
X0027329272Y0031117158D01*
G37*
G04 #@! TD.AperFunction*
G04 #@! TA.AperFunction,Conductor*
G36*
X0023006129Y0039486455D02*
G01*
X0023176656Y0039434121D01*
X0027283566Y0038173724D01*
X0027342822Y0038134616D01*
X0027371527Y0038069681D01*
X0027372600Y0038053269D01*
X0027372600Y0036089000D01*
X0027390992Y0036081722D01*
X0034487362Y0033273580D01*
X0034543344Y0033229916D01*
X0034567000Y0033156419D01*
X0034567000Y0030886560D01*
X0034546998Y0030818438D01*
X0034493342Y0030771946D01*
X0034423068Y0030761842D01*
X0034358488Y0030791336D01*
X0034351905Y0030797465D01*
X0033405850Y0031743520D01*
X0033399996Y0031749785D01*
X0033383890Y0031768247D01*
X0033361961Y0031793385D01*
X0033309680Y0031830129D01*
X0033304386Y0031834061D01*
X0033260092Y0031868791D01*
X0033254118Y0031873476D01*
X0033247202Y0031876599D01*
X0033244916Y0031877983D01*
X0033230235Y0031886357D01*
X0033227874Y0031887622D01*
X0033221660Y0031891990D01*
X0033214582Y0031894750D01*
X0033214579Y0031894751D01*
X0033162125Y0031915202D01*
X0033156056Y0031917752D01*
X0033097827Y0031944045D01*
X0033090360Y0031945429D01*
X0033087805Y0031946230D01*
X0033071551Y0031950859D01*
X0033068972Y0031951522D01*
X0033061891Y0031954282D01*
X0033054360Y0031955273D01*
X0033054358Y0031955274D01*
X0033024738Y0031959173D01*
X0032998539Y0031962622D01*
X0032992041Y0031963652D01*
X0032929214Y0031975296D01*
X0032921633Y0031974859D01*
X0032921633Y0031974859D01*
X0032867008Y0031971709D01*
X0032859754Y0031971500D01*
X0029554864Y0031971500D01*
X0029486743Y0031991502D01*
X0029440250Y0032045158D01*
X0029432192Y0032101200D01*
X0029430000Y0032101200D01*
X0029430000Y0034514200D01*
X0029418329Y0034517560D01*
X0027789523Y0034986459D01*
X0026308790Y0035412729D01*
X0026248860Y0035450797D01*
X0026219026Y0035515221D01*
X0026224054Y0035573480D01*
X0026250632Y0035653611D01*
X0026250632Y0035653613D01*
X0026252797Y0035660139D01*
X0026263500Y0035764600D01*
X0026263500Y0036565400D01*
X0026252526Y0036671166D01*
X0026196550Y0036838946D01*
X0026103478Y0036989348D01*
X0025978303Y0037114305D01*
X0025972072Y0037118146D01*
X0025833968Y0037203275D01*
X0025833966Y0037203276D01*
X0025827738Y0037207115D01*
X0025667254Y0037260345D01*
X0025666389Y0037260632D01*
X0025666387Y0037260632D01*
X0025659861Y0037262797D01*
X0025653025Y0037263497D01*
X0025653022Y0037263498D01*
X0025609969Y0037267909D01*
X0025555400Y0037273500D01*
X0024154600Y0037273500D01*
X0024151354Y0037273163D01*
X0024151350Y0037273163D01*
X0024055692Y0037263238D01*
X0024055688Y0037263237D01*
X0024048834Y0037262526D01*
X0024042298Y0037260345D01*
X0024042296Y0037260345D01*
X0023910194Y0037216272D01*
X0023881054Y0037206550D01*
X0023730652Y0037113478D01*
X0023605695Y0036988303D01*
X0023601855Y0036982073D01*
X0023601854Y0036982072D01*
X0023543950Y0036888134D01*
X0023512885Y0036837738D01*
X0023457203Y0036669861D01*
X0023446500Y0036565400D01*
X0023446500Y0035764600D01*
X0023457474Y0035658834D01*
X0023459656Y0035652294D01*
X0023459657Y0035652288D01*
X0023461997Y0035645274D01*
X0023464581Y0035574324D01*
X0023428396Y0035513241D01*
X0023364931Y0035481418D01*
X0023342473Y0035479400D01*
X0023304500Y0035479400D01*
X0023236379Y0035499402D01*
X0023189886Y0035553058D01*
X0023178500Y0035605400D01*
X0023178500Y0036888134D01*
X0023171745Y0036950316D01*
X0023120615Y0037086705D01*
X0023033261Y0037203261D01*
X0022916705Y0037290615D01*
X0022780316Y0037341745D01*
X0022718134Y0037348500D01*
X0021271866Y0037348500D01*
X0021209684Y0037341745D01*
X0021073295Y0037290615D01*
X0020956739Y0037203261D01*
X0020869385Y0037086705D01*
X0020818255Y0036950316D01*
X0020811500Y0036888134D01*
X0020811500Y0035509281D01*
X0020808621Y0035482499D01*
X0020807947Y0035479400D01*
X0020508000Y0035479400D01*
X0020508000Y0039366000D01*
X0020528002Y0039434121D01*
X0020581658Y0039480614D01*
X0020634000Y0039492000D01*
X0022969162Y0039492000D01*
X0023006129Y0039486455D01*
G37*
G04 #@! TD.AperFunction*
G04 #@! TA.AperFunction,Conductor*
G36*
X0025335701Y0034699317D02*
G01*
X0027439000Y0033984132D01*
X0027439002Y0033984132D01*
X0027448800Y0033980800D01*
X0028493354Y0033980800D01*
X0028561475Y0033960798D01*
X0028607968Y0033907142D01*
X0028619335Y0033856972D01*
X0028640390Y0032635772D01*
X0028621566Y0032567317D01*
X0028568719Y0032519906D01*
X0028514409Y0032507599D01*
X0027474200Y0032507599D01*
X0025365261Y0031578663D01*
X0025313654Y0031567975D01*
X0021559953Y0031592387D01*
X0021491964Y0031612831D01*
X0021445821Y0031666788D01*
X0021434773Y0031718155D01*
X0021429616Y0034556403D01*
X0021449494Y0034624560D01*
X0021503066Y0034671150D01*
X0021554827Y0034682630D01*
X0024047840Y0034698225D01*
X0025294350Y0034706023D01*
X0025335701Y0034699317D01*
G37*
G04 #@! TD.AperFunction*
G04 #@! TA.AperFunction,Conductor*
G36*
X0020805000Y0030494999D02*
G01*
X0020500000Y0030494999D01*
X0020500000Y0035775000D01*
X0020805000Y0035775000D01*
X0020805000Y0030494999D01*
G37*
G04 #@! TD.AperFunction*
M02*