G04 #@! TF.GenerationSoftware,KiCad,Pcbnew,(6.0.1)*
G04 #@! TF.CreationDate,2022-07-05T00:40:55-07:00*
G04 #@! TF.ProjectId,mu100-dit-connector-board,6d753130-302d-4646-9974-2d636f6e6e65,rev?*
G04 #@! TF.SameCoordinates,PX4a615b8PY2b4db18*
G04 #@! TF.FileFunction,Legend,Bot*
G04 #@! TF.FilePolarity,Positive*
%FSLAX46Y46*%
G04 Gerber Fmt 4.6, Leading zero omitted, Abs format (unit mm)*
G04 Created by KiCad (PCBNEW (6.0.1)) date 2022-07-05 00:40:55*
%MOMM*%
%LPD*%
G01*
G04 APERTURE LIST*
%ADD10C,0.15*%
%ADD11C,0.12*%
G04 APERTURE END LIST*
D10*
X0021940000Y0038855000D02*
X0021110000Y0038855000D01*
X0021955000Y0037445000D02*
X0022775000Y0038845000D01*
X0022785000Y0038855000D02*
X0021955000Y0038855000D01*
X0030182000Y0002976199D02*
X0029881999Y0002976199D01*
X0029582000Y0007176200D02*
X0020982000Y0007176200D01*
X0033000999Y0007388199D02*
X0033831000Y0007388199D01*
X0032986000Y0008798200D02*
X0032165999Y0007398200D01*
X0030881999Y0002976199D02*
X0030582000Y0002976199D01*
X0031582000Y0002976199D02*
X0031282000Y0002976199D01*
X0029355000Y0036195000D02*
X0030755000Y0035375000D01*
X0030765000Y0035365000D02*
X0030765000Y0036195000D01*
X0021110000Y0038855000D02*
X0021925000Y0037475000D01*
X0032156000Y0007388199D02*
X0032986000Y0007388199D01*
X0029582000Y0002976199D02*
X0020982000Y0002976199D01*
X0030765000Y0036210000D02*
X0030765000Y0037040000D01*
X0030765000Y0037040000D02*
X0029384999Y0036225000D01*
X0030881999Y0007176200D02*
X0030582000Y0007176200D01*
X0033831000Y0007388199D02*
X0033016000Y0008768200D01*
X0031582000Y0007176200D02*
X0031282000Y0007176200D01*
X0030182000Y0007176200D02*
X0029881999Y0007176200D01*
X0030213785Y0006297629D02*
X0030213785Y0006726199D01*
X0030213785Y0006511915D02*
X0029463785Y0006511915D01*
X0029570928Y0006583342D01*
X0029642357Y0006654772D01*
X0029678071Y0006726199D01*
X0029463785Y0005654772D02*
X0029463785Y0005797629D01*
X0029499499Y0005869058D01*
X0029535214Y0005904772D01*
X0029642357Y0005976199D01*
X0029785214Y0006011915D01*
X0030070928Y0006011915D01*
X0030142357Y0005976199D01*
X0030178071Y0005940486D01*
X0030213785Y0005869058D01*
X0030213785Y0005726199D01*
X0030178071Y0005654772D01*
X0030142357Y0005619058D01*
X0030070928Y0005583342D01*
X0029892357Y0005583342D01*
X0029820928Y0005619058D01*
X0029785214Y0005654772D01*
X0029749499Y0005726199D01*
X0029749499Y0005869058D01*
X0029785214Y0005940486D01*
X0029820928Y0005976199D01*
X0029892357Y0006011915D01*
X0029928071Y0005261915D02*
X0029928071Y0004690486D01*
X0030213785Y0003940486D02*
X0030213785Y0004369058D01*
X0030213785Y0004154772D02*
X0029463785Y0004154772D01*
X0029570928Y0004226199D01*
X0029642357Y0004297629D01*
X0029678071Y0004369058D01*
X0029463785Y0003690486D02*
X0029463785Y0003190486D01*
X0030213785Y0003511915D01*
X0031421284Y0006333342D02*
X0030671284Y0006333342D01*
X0031207000Y0006083342D01*
X0030671284Y0005833342D01*
X0031421284Y0005833342D01*
X0030671284Y0005476199D02*
X0031278427Y0005476199D01*
X0031349857Y0005440486D01*
X0031385571Y0005404772D01*
X0031421284Y0005333342D01*
X0031421284Y0005190486D01*
X0031385571Y0005119058D01*
X0031349857Y0005083342D01*
X0031278427Y0005047629D01*
X0030671284Y0005047629D01*
X0031421284Y0004654772D02*
X0031421284Y0004511915D01*
X0031385571Y0004440486D01*
X0031349857Y0004404772D01*
X0031242714Y0004333342D01*
X0031099857Y0004297629D01*
X0030814142Y0004297629D01*
X0030742714Y0004333342D01*
X0030707000Y0004369058D01*
X0030671284Y0004440486D01*
X0030671284Y0004583342D01*
X0030707000Y0004654772D01*
X0030742714Y0004690486D01*
X0030814142Y0004726199D01*
X0030992714Y0004726199D01*
X0031064142Y0004690486D01*
X0031099857Y0004654772D01*
X0031135571Y0004583342D01*
X0031135571Y0004440486D01*
X0031099857Y0004369058D01*
X0031064142Y0004333342D01*
X0030992714Y0004297629D01*
X0030671284Y0003833342D02*
X0030671284Y0003761915D01*
X0030707000Y0003690486D01*
X0030742714Y0003654772D01*
X0030814142Y0003619058D01*
X0030957000Y0003583342D01*
X0031135571Y0003583342D01*
X0031278427Y0003619058D01*
X0031349857Y0003654772D01*
X0031385571Y0003690486D01*
X0031421284Y0003761915D01*
X0031421284Y0003833342D01*
X0031385571Y0003904772D01*
X0031349857Y0003940486D01*
X0031278427Y0003976199D01*
X0031135571Y0004011915D01*
X0030957000Y0004011915D01*
X0030814142Y0003976199D01*
X0030742714Y0003940486D01*
X0030707000Y0003904772D01*
X0030671284Y0003833342D01*
X0032628785Y0005851199D02*
X0032593071Y0005922629D01*
X0032557356Y0005958342D01*
X0032485928Y0005994058D01*
X0032271642Y0005994058D01*
X0032200214Y0005958342D01*
X0032164500Y0005922629D01*
X0032128785Y0005851199D01*
X0032128785Y0005744058D01*
X0032164500Y0005672629D01*
X0032200214Y0005636915D01*
X0032271642Y0005601199D01*
X0032485928Y0005601199D01*
X0032557356Y0005636915D01*
X0032593071Y0005672629D01*
X0032628785Y0005744058D01*
X0032628785Y0005851199D01*
X0032128785Y0005279772D02*
X0032628785Y0005279772D01*
X0032200214Y0005279772D02*
X0032164500Y0005244058D01*
X0032128785Y0005172629D01*
X0032128785Y0005065486D01*
X0032164500Y0004994058D01*
X0032235928Y0004958342D01*
X0032628785Y0004958342D01*
X0032628785Y0004494058D02*
X0032593071Y0004565486D01*
X0032521642Y0004601199D01*
X0031878785Y0004601199D01*
X0032128785Y0004279772D02*
X0032628785Y0004101199D01*
X0032128785Y0003922629D02*
X0032628785Y0004101199D01*
X0032807356Y0004172629D01*
X0032843071Y0004208342D01*
X0032878785Y0004279772D01*
X0027537380Y0038328334D02*
X0028251666Y0038328334D01*
X0028394523Y0038375953D01*
X0028489761Y0038471191D01*
X0028537380Y0038614048D01*
X0028537380Y0038709286D01*
X0027632619Y0037899762D02*
X0027585000Y0037852143D01*
X0027537380Y0037756905D01*
X0027537380Y0037518810D01*
X0027585000Y0037423572D01*
X0027632619Y0037375953D01*
X0027727857Y0037328334D01*
X0027823095Y0037328334D01*
X0027965952Y0037375953D01*
X0028537380Y0037947381D01*
X0028537380Y0037328334D01*
X0031997380Y0032866334D02*
X0032711666Y0032866334D01*
X0032854523Y0032913953D01*
X0032949761Y0033009191D01*
X0032997380Y0033152048D01*
X0032997380Y0033247286D01*
X0031997380Y0032485381D02*
X0031997380Y0031866334D01*
X0032378332Y0032199666D01*
X0032378332Y0032056810D01*
X0032425952Y0031961572D01*
X0032473571Y0031913953D01*
X0032568809Y0031866334D01*
X0032806904Y0031866334D01*
X0032902141Y0031913953D01*
X0032949761Y0031961572D01*
X0032997380Y0032056810D01*
X0032997380Y0032342523D01*
X0032949761Y0032437762D01*
X0032902141Y0032485381D01*
D11*
X0025505000Y0000515000D02*
X0025505000Y0001164999D01*
X0029005000Y0000515000D02*
X0029005000Y0001164999D01*
X0029005000Y0039815000D02*
X0025505000Y0039815000D01*
X0029005000Y0000515000D02*
X0025505000Y0000515000D01*
X0029005000Y0039165000D02*
X0029005000Y0039815000D01*
X0025505000Y0039815000D02*
X0025505000Y0039165000D01*
X0029005000Y0039165000D02*
X0023805000Y0039165000D01*
X0023805000Y0039165000D02*
X0023805000Y0001164999D01*
X0023805000Y0001164999D02*
X0029005000Y0001164999D01*
X0029005000Y0001164999D02*
X0029005000Y0039165000D01*
X0031015000Y0014075000D02*
X0031015000Y0014274999D01*
X0030515000Y0018175000D02*
X0031015000Y0018175000D01*
X0030515000Y0009725000D02*
X0030515000Y0030625000D01*
X0031015000Y0024075000D02*
X0031015000Y0024275000D01*
X0031015000Y0012075000D02*
X0031015000Y0012274999D01*
X0031015000Y0016075000D02*
X0031015000Y0016274999D01*
X0031015000Y0026275000D02*
X0030515000Y0026275000D01*
X0034925000Y0008815000D02*
X0033675000Y0008815000D01*
X0031015000Y0028075000D02*
X0031015000Y0028275000D01*
X0030515000Y0024175000D02*
X0031015000Y0024175000D01*
X0034625000Y0011675000D02*
X0034015000Y0011675000D01*
X0029905000Y0009114999D02*
X0029905000Y0031235000D01*
X0034015000Y0030625000D02*
X0034015000Y0028675000D01*
X0030515000Y0012175000D02*
X0031015000Y0012175000D01*
X0034925000Y0010065000D02*
X0034925000Y0008815000D01*
X0034625000Y0010875000D02*
X0034825000Y0010875000D01*
X0030515000Y0016075000D02*
X0031015000Y0016075000D01*
X0031015000Y0026075000D02*
X0031015000Y0026275000D01*
X0031015000Y0014274999D02*
X0030515000Y0014274999D01*
X0030515000Y0012075000D02*
X0031015000Y0012075000D01*
X0034015000Y0028675000D02*
X0034625000Y0028675000D01*
X0031015000Y0022275000D02*
X0030515000Y0022275000D01*
X0030515000Y0020075000D02*
X0031015000Y0020075000D01*
X0034625000Y0009114999D02*
X0029905000Y0009114999D01*
X0031015000Y0018275000D02*
X0030515000Y0018275000D01*
X0030515000Y0024075000D02*
X0031015000Y0024075000D01*
X0030515000Y0022175000D02*
X0031015000Y0022175000D01*
X0034015000Y0011675000D02*
X0034015000Y0009725000D01*
X0033314999Y0031235000D02*
X0033314999Y0030625000D01*
X0034825000Y0010875000D02*
X0034825000Y0010575000D01*
X0031015000Y0028275000D02*
X0030515000Y0028275000D01*
X0031015000Y0018075000D02*
X0031015000Y0018275000D01*
X0032015000Y0031235000D02*
X0032015000Y0030625000D01*
X0030515000Y0022075000D02*
X0031015000Y0022075000D01*
X0030515000Y0014175000D02*
X0031015000Y0014175000D01*
X0031015000Y0012274999D02*
X0030515000Y0012274999D01*
X0034725000Y0010875000D02*
X0034725000Y0010575000D01*
X0030515000Y0030625000D02*
X0034015000Y0030625000D01*
X0033314999Y0009114999D02*
X0033314999Y0009725000D01*
X0031015000Y0024275000D02*
X0030515000Y0024275000D01*
X0030515000Y0018075000D02*
X0031015000Y0018075000D01*
X0034625000Y0031235000D02*
X0034625000Y0009114999D01*
X0034015000Y0009725000D02*
X0030515000Y0009725000D01*
X0030515000Y0026175000D02*
X0031015000Y0026175000D01*
X0034825000Y0010575000D02*
X0034625000Y0010575000D01*
X0030515000Y0028175000D02*
X0031015000Y0028175000D01*
X0031015000Y0022075000D02*
X0031015000Y0022275000D01*
X0030515000Y0016175000D02*
X0031015000Y0016175000D01*
X0030515000Y0014075000D02*
X0031015000Y0014075000D01*
X0031015000Y0020075000D02*
X0031015000Y0020275000D01*
X0030515000Y0020175000D02*
X0031015000Y0020175000D01*
X0032015000Y0009114999D02*
X0032015000Y0009725000D01*
X0030515000Y0026075000D02*
X0031015000Y0026075000D01*
X0030515000Y0028075000D02*
X0031015000Y0028075000D01*
X0029905000Y0031235000D02*
X0034625000Y0031235000D01*
X0031015000Y0020275000D02*
X0030515000Y0020275000D01*
X0031015000Y0016274999D02*
X0030515000Y0016274999D01*
M02*