G04 #@! TF.GenerationSoftware,KiCad,Pcbnew,(6.0.1)*
G04 #@! TF.CreationDate,2022-07-05T00:40:55-07:00*
G04 #@! TF.ProjectId,mu100-dit-connector-board,6d753130-302d-4646-9974-2d636f6e6e65,rev?*
G04 #@! TF.SameCoordinates,PX4a615b8PY2b4db18*
G04 #@! TF.FileFunction,Soldermask,Top*
G04 #@! TF.FilePolarity,Negative*
%FSLAX46Y46*%
G04 Gerber Fmt 4.6, Leading zero omitted, Abs format (unit mm)*
G04 Created by KiCad (PCBNEW (6.0.1)) date 2022-07-05 00:40:55*
%MOMM*%
%LPD*%
G01*
G04 APERTURE LIST*
G04 Aperture macros list*
%AMRoundRect*
4,1,4,2,3,4,5,6,7,8,9,2,3,0*
1,1,$1,$2,$3*
1,1,$1,$2,$3*
1,1,$1,$2,$3*
1,1,$1,$2,$3*
20,1,$1,$2,$3,$4,$5,0*
20,1,$1,$2,$3,$4,$5,0*
20,1,$1,$2,$3,$4,$5,0*
20,1,$1,$2,$3,$4,$5,0*%
G04 Aperture macros list end*
%AMCOMP155*
4,1,3,
-0.65,0.35,
-0.65,-0.35,
0.65,-0.35,
0.65,0.35,
0*
4,1,19,
-0.65,0.6,
-0.57274575140626316,0.58776412907378839,
-0.50305368692688179,0.55225424859373684,
-0.44774575140626316,0.49694631307311826,
-0.41223587092621161,0.42725424859373684,
-0.4,0.35,
-0.41223587092621161,0.27274575140626311,
-0.44774575140626316,0.20305368692688172,
-0.50305368692688168,0.14774575140626314,
-0.57274575140626316,0.1122358709262116,
-0.65,0.099999999999999978,
-0.727254248593737,0.1122358709262116,
-0.79694631307311825,0.14774575140626309,
-0.85225424859373689,0.20305368692688167,
-0.88776412907378843,0.27274575140626311,
-0.9,0.34999999999999992,
-0.88776412907378843,0.42725424859373679,
-0.85225424859373689,0.49694631307311821,
-0.79694631307311836,0.55225424859373684,
-0.72725424859373689,0.58776412907378839,
0*
4,1,19,
-0.65,-0.099999999999999978,
-0.57274575140626316,-0.1122358709262116,
-0.50305368692688179,-0.14774575140626311,
-0.44774575140626316,-0.20305368692688169,
-0.41223587092621161,-0.27274575140626311,
-0.4,-0.35,
-0.41223587092621161,-0.42725424859373684,
-0.44774575140626316,-0.49694631307311821,
-0.50305368692688168,-0.55225424859373684,
-0.57274575140626316,-0.58776412907378839,
-0.65,-0.6,
-0.727254248593737,-0.58776412907378839,
-0.79694631307311825,-0.55225424859373684,
-0.85225424859373689,-0.49694631307311832,
-0.88776412907378843,-0.42725424859373684,
-0.9,-0.35000000000000003,
-0.88776412907378843,-0.27274575140626317,
-0.85225424859373689,-0.20305368692688175,
-0.79694631307311836,-0.14774575140626314,
-0.72725424859373689,-0.1122358709262116,
0*
4,1,19,
0.65,-0.099999999999999978,
0.72725424859373689,-0.1122358709262116,
0.79694631307311825,-0.14774575140626311,
0.85225424859373689,-0.20305368692688169,
0.88776412907378843,-0.27274575140626311,
0.9,-0.35,
0.88776412907378843,-0.42725424859373684,
0.85225424859373689,-0.49694631307311821,
0.79694631307311836,-0.55225424859373684,
0.72725424859373689,-0.58776412907378839,
0.65,-0.6,
0.572745751406263,-0.58776412907378839,
0.50305368692688179,-0.55225424859373684,
0.44774575140626316,-0.49694631307311832,
0.41223587092621161,-0.42725424859373684,
0.4,-0.35000000000000003,
0.41223587092621161,-0.27274575140626317,
0.44774575140626316,-0.20305368692688175,
0.50305368692688168,-0.14774575140626314,
0.57274575140626316,-0.1122358709262116,
0*
4,1,19,
0.65,0.6,
0.72725424859373689,0.58776412907378839,
0.79694631307311825,0.55225424859373684,
0.85225424859373689,0.49694631307311826,
0.88776412907378843,0.42725424859373684,
0.9,0.35,
0.88776412907378843,0.27274575140626311,
0.85225424859373689,0.20305368692688172,
0.79694631307311836,0.14774575140626314,
0.72725424859373689,0.1122358709262116,
0.65,0.099999999999999978,
0.572745751406263,0.1122358709262116,
0.50305368692688179,0.14774575140626309,
0.44774575140626316,0.20305368692688167,
0.41223587092621161,0.27274575140626311,
0.4,0.34999999999999992,
0.41223587092621161,0.42725424859373679,
0.44774575140626316,0.49694631307311821,
0.50305368692688168,0.55225424859373684,
0.57274575140626316,0.58776412907378839,
0*
4,1,3,
-0.9,0.35,
-0.4,0.35,
-0.4,-0.35,
-0.9,-0.35,
0*
4,1,3,
-0.65,-0.6,
-0.65,-0.099999999999999978,
0.65,-0.099999999999999978,
0.65,-0.6,
0*
4,1,3,
0.9,-0.35,
0.4,-0.35,
0.4,0.35,
0.9,0.35,
0*
4,1,3,
0.65,0.6,
0.65,0.099999999999999978,
-0.65,0.099999999999999978,
-0.65,0.6,
0*%
%ADD10COMP155,0.25X-0.65X0.35X-0.65X-0.35X0.65X-0.35X0.65X0.35X0*%
%ADD11O,1.8X1.2*%
%AMCOMP156*
4,1,3,
0.625,-0.35,
0.625,0.35,
-0.625,0.35,
-0.625,-0.35,
0*
4,1,19,
0.625,-0.099999999999999978,
0.70225424859373686,-0.1122358709262116,
0.77194631307311834,-0.14774575140626311,
0.82725424859373686,-0.20305368692688169,
0.86276412907378841,-0.27274575140626311,
0.875,-0.35,
0.86276412907378841,-0.42725424859373684,
0.82725424859373686,-0.49694631307311821,
0.77194631307311834,-0.55225424859373684,
0.70225424859373686,-0.58776412907378839,
0.625,-0.6,
0.547745751406263,-0.58776412907378839,
0.47805368692688177,-0.55225424859373684,
0.42274575140626314,-0.49694631307311832,
0.38723587092621159,-0.42725424859373684,
0.375,-0.35000000000000003,
0.38723587092621159,-0.27274575140626317,
0.42274575140626314,-0.20305368692688175,
0.47805368692688166,-0.14774575140626314,
0.54774575140626314,-0.1122358709262116,
0*
4,1,19,
0.625,0.6,
0.70225424859373686,0.58776412907378839,
0.77194631307311834,0.55225424859373684,
0.82725424859373686,0.49694631307311826,
0.86276412907378841,0.42725424859373684,
0.875,0.35,
0.86276412907378841,0.27274575140626311,
0.82725424859373686,0.20305368692688172,
0.77194631307311834,0.14774575140626314,
0.70225424859373686,0.1122358709262116,
0.625,0.099999999999999978,
0.547745751406263,0.1122358709262116,
0.47805368692688177,0.14774575140626309,
0.42274575140626314,0.20305368692688167,
0.38723587092621159,0.27274575140626311,
0.375,0.34999999999999992,
0.38723587092621159,0.42725424859373679,
0.42274575140626314,0.49694631307311821,
0.47805368692688166,0.55225424859373684,
0.54774575140626314,0.58776412907378839,
0*
4,1,19,
-0.625,0.6,
-0.54774575140626314,0.58776412907378839,
-0.47805368692688172,0.55225424859373684,
-0.42274575140626314,0.49694631307311826,
-0.38723587092621159,0.42725424859373684,
-0.375,0.35,
-0.38723587092621159,0.27274575140626311,
-0.42274575140626314,0.20305368692688172,
-0.47805368692688166,0.14774575140626314,
-0.54774575140626314,0.1122358709262116,
-0.625,0.099999999999999978,
-0.702254248593737,0.1122358709262116,
-0.77194631307311823,0.14774575140626309,
-0.82725424859373686,0.20305368692688167,
-0.86276412907378841,0.27274575140626311,
-0.875,0.34999999999999992,
-0.86276412907378841,0.42725424859373679,
-0.82725424859373686,0.49694631307311821,
-0.77194631307311834,0.55225424859373684,
-0.70225424859373686,0.58776412907378839,
0*
4,1,19,
-0.625,-0.099999999999999978,
-0.54774575140626314,-0.1122358709262116,
-0.47805368692688172,-0.14774575140626311,
-0.42274575140626314,-0.20305368692688169,
-0.38723587092621159,-0.27274575140626311,
-0.375,-0.35,
-0.38723587092621159,-0.42725424859373684,
-0.42274575140626314,-0.49694631307311821,
-0.47805368692688166,-0.55225424859373684,
-0.54774575140626314,-0.58776412907378839,
-0.625,-0.6,
-0.702254248593737,-0.58776412907378839,
-0.77194631307311823,-0.55225424859373684,
-0.82725424859373686,-0.49694631307311832,
-0.86276412907378841,-0.42725424859373684,
-0.875,-0.35000000000000003,
-0.86276412907378841,-0.27274575140626317,
-0.82725424859373686,-0.20305368692688175,
-0.77194631307311834,-0.14774575140626314,
-0.70225424859373686,-0.1122358709262116,
0*
4,1,3,
0.875,-0.35,
0.375,-0.35,
0.375,0.35,
0.875,0.35,
0*
4,1,3,
0.625,0.6,
0.625,0.099999999999999978,
-0.625,0.099999999999999978,
-0.625,0.6,
0*
4,1,3,
-0.875,0.35,
-0.375,0.35,
-0.375,-0.35,
-0.875,-0.35,
0*
4,1,3,
-0.625,-0.6,
-0.625,-0.099999999999999978,
0.625,-0.099999999999999978,
0.625,-0.6,
0*%
%ADD12COMP156,0.25X0.625X-0.35X0.625X0.35X-0.625X0.35X-0.625X-0.35X0*%
%ADD13O,1.75X1.2*%
%AMCOMP157*
4,1,3,
-0.35,-0.45,
0.35,-0.45,
0.35,0.45,
-0.35,0.45,
0*
4,1,19,
-0.35,-0.2,
-0.27274575140626311,-0.21223587092621163,
-0.20305368692688169,-0.24774575140626315,
-0.14774575140626311,-0.30305368692688173,
-0.1122358709262116,-0.37274575140626315,
-0.099999999999999978,-0.45,
-0.11223587092621157,-0.52725424859373682,
-0.14774575140626311,-0.5969463130731183,
-0.20305368692688167,-0.65225424859373682,
-0.27274575140626311,-0.68776412907378837,
-0.34999999999999992,-0.7,
-0.4272542485937369,-0.68776412907378837,
-0.49694631307311821,-0.65225424859373693,
-0.55225424859373684,-0.5969463130731183,
-0.58776412907378839,-0.52725424859373693,
-0.6,-0.45000000000000007,
-0.58776412907378839,-0.3727457514062632,
-0.55225424859373684,-0.30305368692688178,
-0.49694631307311832,-0.24774575140626318,
-0.4272542485937369,-0.21223587092621163,
0*
4,1,19,
0.35,-0.2,
0.42725424859373684,-0.21223587092621163,
0.49694631307311826,-0.24774575140626315,
0.55225424859373684,-0.30305368692688173,
0.58776412907378839,-0.37274575140626315,
0.6,-0.45,
0.58776412907378839,-0.52725424859373682,
0.55225424859373684,-0.5969463130731183,
0.49694631307311832,-0.65225424859373682,
0.42725424859373684,-0.68776412907378837,
0.35000000000000003,-0.7,
0.27274575140626306,-0.68776412907378837,
0.20305368692688172,-0.65225424859373693,
0.14774575140626314,-0.5969463130731183,
0.1122358709262116,-0.52725424859373693,
0.099999999999999978,-0.45000000000000007,
0.11223587092621157,-0.3727457514062632,
0.14774575140626309,-0.30305368692688178,
0.20305368692688164,-0.24774575140626318,
0.27274575140626306,-0.21223587092621163,
0*
4,1,19,
0.35,0.7,
0.42725424859373684,0.68776412907378837,
0.49694631307311826,0.65225424859373682,
0.55225424859373684,0.5969463130731183,
0.58776412907378839,0.52725424859373682,
0.6,0.45,
0.58776412907378839,0.3727457514062632,
0.55225424859373684,0.30305368692688173,
0.49694631307311832,0.24774575140626318,
0.42725424859373684,0.21223587092621163,
0.35000000000000003,0.2,
0.27274575140626306,0.21223587092621163,
0.20305368692688172,0.24774575140626312,
0.14774575140626314,0.30305368692688173,
0.1122358709262116,0.37274575140626309,
0.099999999999999978,0.44999999999999996,
0.11223587092621157,0.52725424859373682,
0.14774575140626309,0.5969463130731183,
0.20305368692688164,0.65225424859373682,
0.27274575140626306,0.68776412907378837,
0*
4,1,19,
-0.35,0.7,
-0.27274575140626311,0.68776412907378837,
-0.20305368692688169,0.65225424859373682,
-0.14774575140626311,0.5969463130731183,
-0.1122358709262116,0.52725424859373682,
-0.099999999999999978,0.45,
-0.11223587092621157,0.3727457514062632,
-0.14774575140626311,0.30305368692688173,
-0.20305368692688167,0.24774575140626318,
-0.27274575140626311,0.21223587092621163,
-0.34999999999999992,0.2,
-0.4272542485937369,0.21223587092621163,
-0.49694631307311821,0.24774575140626312,
-0.55225424859373684,0.30305368692688173,
-0.58776412907378839,0.37274575140626309,
-0.6,0.44999999999999996,
-0.58776412907378839,0.52725424859373682,
-0.55225424859373684,0.5969463130731183,
-0.49694631307311832,0.65225424859373682,
-0.4272542485937369,0.68776412907378837,
0*
4,1,3,
-0.35,-0.7,
-0.35,-0.2,
0.35,-0.2,
0.35,-0.7,
0*
4,1,3,
0.6,-0.45,
0.099999999999999978,-0.45,
0.099999999999999978,0.45,
0.6,0.45,
0*
4,1,3,
0.35,0.7,
0.35,0.2,
-0.35,0.2,
-0.35,0.7,
0*
4,1,3,
-0.6,0.45,
-0.099999999999999978,0.45,
-0.099999999999999978,-0.45,
-0.6,-0.45,
0*%
%ADD14COMP157,0.25X-0.35X-0.45X0.35X-0.45X0.35X0.45X-0.35X0.45X0*%
%ADD15R,1.35X1.35*%
%ADD16O,1.35X1.35*%
%AMCOMP158*
4,1,3,
-0.3375,-0.475,
0.3375,-0.475,
0.3375,0.475,
-0.3375,0.475,
0*
4,1,19,
-0.3375,-0.22499999999999998,
-0.26024575140626316,-0.2372358709262116,
-0.19055368692688174,-0.27274575140626311,
-0.13524575140626316,-0.32805368692688169,
-0.099735870926211639,-0.39774575140626311,
-0.087500000000000022,-0.475,
-0.099735870926211612,-0.55225424859373684,
-0.13524575140626316,-0.62194631307311821,
-0.19055368692688171,-0.67725424859373684,
-0.26024575140626316,-0.71276412907378839,
-0.33749999999999997,-0.725,
-0.41475424859373694,-0.71276412907378839,
-0.48444631307311825,-0.67725424859373684,
-0.53975424859373689,-0.62194631307311832,
-0.57526412907378843,-0.55225424859373684,
-0.5875,-0.47500000000000003,
-0.57526412907378843,-0.39774575140626317,
-0.53975424859373689,-0.32805368692688175,
-0.48444631307311836,-0.27274575140626311,
-0.41475424859373694,-0.2372358709262116,
0*
4,1,19,
0.3375,-0.22499999999999998,
0.41475424859373689,-0.2372358709262116,
0.48444631307311831,-0.27274575140626311,
0.53975424859373689,-0.32805368692688169,
0.57526412907378843,-0.39774575140626311,
0.5875,-0.475,
0.57526412907378843,-0.55225424859373684,
0.53975424859373689,-0.62194631307311821,
0.48444631307311836,-0.67725424859373684,
0.41475424859373689,-0.71276412907378839,
0.33750000000000008,-0.725,
0.2602457514062631,-0.71276412907378839,
0.19055368692688177,-0.67725424859373684,
0.13524575140626319,-0.62194631307311832,
0.099735870926211639,-0.55225424859373684,
0.087500000000000022,-0.47500000000000003,
0.099735870926211612,-0.39774575140626317,
0.13524575140626313,-0.32805368692688175,
0.19055368692688168,-0.27274575140626311,
0.2602457514062631,-0.2372358709262116,
0*
4,1,19,
0.3375,0.725,
0.41475424859373689,0.71276412907378839,
0.48444631307311831,0.67725424859373684,
0.53975424859373689,0.62194631307311821,
0.57526412907378843,0.55225424859373684,
0.5875,0.475,
0.57526412907378843,0.39774575140626311,
0.53975424859373689,0.32805368692688175,
0.48444631307311836,0.27274575140626311,
0.41475424859373689,0.2372358709262116,
0.33750000000000008,0.22499999999999998,
0.2602457514062631,0.2372358709262116,
0.19055368692688177,0.27274575140626311,
0.13524575140626319,0.32805368692688164,
0.099735870926211639,0.39774575140626311,
0.087500000000000022,0.47499999999999992,
0.099735870926211612,0.55225424859373673,
0.13524575140626313,0.62194631307311821,
0.19055368692688168,0.67725424859373684,
0.2602457514062631,0.71276412907378839,
0*
4,1,19,
-0.3375,0.725,
-0.26024575140626316,0.71276412907378839,
-0.19055368692688174,0.67725424859373684,
-0.13524575140626316,0.62194631307311821,
-0.099735870926211639,0.55225424859373684,
-0.087500000000000022,0.475,
-0.099735870926211612,0.39774575140626311,
-0.13524575140626316,0.32805368692688175,
-0.19055368692688171,0.27274575140626311,
-0.26024575140626316,0.2372358709262116,
-0.33749999999999997,0.22499999999999998,
-0.41475424859373694,0.2372358709262116,
-0.48444631307311825,0.27274575140626311,
-0.53975424859373689,0.32805368692688164,
-0.57526412907378843,0.39774575140626311,
-0.5875,0.47499999999999992,
-0.57526412907378843,0.55225424859373673,
-0.53975424859373689,0.62194631307311821,
-0.48444631307311836,0.67725424859373684,
-0.41475424859373694,0.71276412907378839,
0*
4,1,3,
-0.3375,-0.725,
-0.3375,-0.22499999999999998,
0.3375,-0.22499999999999998,
0.3375,-0.725,
0*
4,1,3,
0.5875,-0.475,
0.087500000000000022,-0.475,
0.087500000000000022,0.475,
0.5875,0.475,
0*
4,1,3,
0.3375,0.725,
0.3375,0.22499999999999998,
-0.3375,0.22499999999999998,
-0.3375,0.725,
0*
4,1,3,
-0.5875,0.475,
-0.087500000000000022,0.475,
-0.087500000000000022,-0.475,
-0.5875,-0.475,
0*%
%ADD17COMP158,0.25X-0.3375X-0.475X0.3375X-0.475X0.3375X0.475X-0.3375X0.475X0*%
G04 APERTURE END LIST*
D10*
X0020000000Y0040000000D02*
X0024855000Y0036165000D03*
D11*
X0024855000Y0034165000D03*
X0024855000Y0032165000D03*
X0024855000Y0030165000D03*
X0024855000Y0028165000D03*
X0024855000Y0026165000D03*
X0024855000Y0024165000D03*
X0024855000Y0022165000D03*
X0024855000Y0020165000D03*
X0024855000Y0018165000D03*
X0024855000Y0016165000D03*
X0024855000Y0014165000D03*
X0024855000Y0012165000D03*
X0024855000Y0010165000D03*
X0024855000Y0008164999D03*
X0024855000Y0006164999D03*
X0024855000Y0004164999D03*
D12*
X0032814999Y0011175000D03*
D13*
X0032814999Y0013175000D03*
X0032814999Y0015175000D03*
X0032814999Y0017175000D03*
X0032814999Y0019175000D03*
X0032814999Y0021175000D03*
X0032814999Y0023175000D03*
X0032814999Y0025175000D03*
X0032814999Y0027175000D03*
X0032814999Y0029175000D03*
D14*
X0028049000Y0016835000D03*
X0030049000Y0016835000D03*
D15*
X0021995000Y0036165000D03*
D16*
X0021995000Y0034165000D03*
X0021995000Y0032165000D03*
X0021995000Y0030165000D03*
X0021995000Y0028165000D03*
X0021995000Y0026165000D03*
X0021995000Y0024165000D03*
X0021995000Y0022165000D03*
X0021995000Y0020165000D03*
X0021995000Y0018165000D03*
X0021995000Y0016165000D03*
X0021995000Y0014165000D03*
X0021995000Y0012165000D03*
X0021995000Y0010165000D03*
X0021995000Y0008164999D03*
X0021995000Y0006164999D03*
X0021995000Y0004164999D03*
D14*
X0028049000Y0020681668D03*
X0030049000Y0020681668D03*
D17*
X0028061500Y0033244200D03*
X0030136499Y0033244200D03*
D14*
X0028049000Y0024528334D03*
X0030049000Y0024528334D03*
X0028049000Y0028375000D03*
X0030049000Y0028375000D03*
M02*