%
M48
METRIC,000.000
T01C0.40
T02C0.75
T03C0.80
%
T01
X026762Y026335
X027035Y030605
X027220Y019096
X028395Y030115
X030075Y030055
X032064Y032475
X034095Y031685
T02
X032815Y029175
X032815Y027175
X032815Y025175
X032815Y023175
X032815Y021175
X032815Y019175
X032815Y017175
X032815Y015175
X032815Y013175
X032815Y011175
T03
X021995Y036165
X021995Y034165
X021995Y032165
X021995Y030165
X021995Y028165
X021995Y026165
X021995Y024165
X021995Y022165
X021995Y020165
X021995Y018165
X021995Y016165
X021995Y014165
X021995Y012165
X021995Y010165
X021995Y008164
X021995Y006164
X021995Y004164
X024855Y036165
X024855Y034165
X024855Y032165
X024855Y030165
X024855Y028165
X024855Y026165
X024855Y024165
X024855Y022165
X024855Y020165
X024855Y018165
X024855Y016165
X024855Y014165
X024855Y012165
X024855Y010165
X024855Y008164
X024855Y006164
X024855Y004164
M30