G04 #@! TF.GenerationSoftware,KiCad,Pcbnew,(6.0.1)*
G04 #@! TF.CreationDate,2022-07-05T00:42:15-07:00*
G04 #@! TF.ProjectId,mu100-dit,6d753130-302d-4646-9974-2e6b69636164,rev?*
G04 #@! TF.SameCoordinates,PX4a25ef0PY4c3f880*
G04 #@! TF.FileFunction,Legend,Top*
G04 #@! TF.FilePolarity,Positive*
%FSLAX46Y46*%
G04 Gerber Fmt 4.6, Leading zero omitted, Abs format (unit mm)*
G04 Created by KiCad (PCBNEW (6.0.1)) date 2022-07-05 00:42:15*
%MOMM*%
%LPD*%
G01*
G04 APERTURE LIST*
%ADD10C,0.15*%
%ADD11C,0.12*%
%ADD12C,0.05*%
G04 APERTURE END LIST*
D10*
X0001270000Y0032545000D02*
X0000750000Y0031615000D01*
X0001270000Y0032545000D02*
X0000230000Y0032545000D01*
X0000230000Y0032540000D02*
X0000750000Y0031610000D01*
X0006070095Y0037102000D02*
X0005974857Y0037149620D01*
X0005832000Y0037149620D01*
X0005689142Y0037102000D01*
X0005593904Y0037006762D01*
X0005546285Y0036911524D01*
X0005498666Y0036721048D01*
X0005498666Y0036578191D01*
X0005546285Y0036387715D01*
X0005593904Y0036292477D01*
X0005689142Y0036197239D01*
X0005832000Y0036149620D01*
X0005927238Y0036149620D01*
X0006070095Y0036197239D01*
X0006117714Y0036244858D01*
X0006117714Y0036578191D01*
X0005927238Y0036578191D01*
X0006546285Y0036149620D02*
X0006546285Y0037149620D01*
X0007117714Y0036149620D01*
X0007117714Y0037149620D01*
X0007593904Y0036149620D02*
X0007593904Y0037149620D01*
X0007832000Y0037149620D01*
X0007974857Y0037102000D01*
X0008070095Y0037006762D01*
X0008117713Y0036911524D01*
X0008165333Y0036721048D01*
X0008165333Y0036578191D01*
X0008117713Y0036387715D01*
X0008070095Y0036292477D01*
X0007974857Y0036197239D01*
X0007832000Y0036149620D01*
X0007593904Y0036149620D01*
X0001442142Y0038652143D02*
X0001406428Y0038616429D01*
X0001299285Y0038580715D01*
X0001227857Y0038580715D01*
X0001120714Y0038616429D01*
X0001049285Y0038687858D01*
X0001013571Y0038759286D01*
X0000977857Y0038902143D01*
X0000977857Y0039009286D01*
X0001013571Y0039152143D01*
X0001049285Y0039223572D01*
X0001120714Y0039295000D01*
X0001227857Y0039330715D01*
X0001299285Y0039330715D01*
X0001406428Y0039295000D01*
X0001442142Y0039259286D01*
X0001870714Y0038580715D02*
X0001799285Y0038616429D01*
X0001763571Y0038652143D01*
X0001727857Y0038723572D01*
X0001727857Y0038937858D01*
X0001763571Y0039009286D01*
X0001799285Y0039045000D01*
X0001870714Y0039080715D01*
X0001977857Y0039080715D01*
X0002049284Y0039045000D01*
X0002085000Y0039009286D01*
X0002120714Y0038937858D01*
X0002120714Y0038723572D01*
X0002085000Y0038652143D01*
X0002049284Y0038616429D01*
X0001977857Y0038580715D01*
X0001870714Y0038580715D01*
X0002763571Y0038580715D02*
X0002763571Y0038973572D01*
X0002727857Y0039045000D01*
X0002656428Y0039080715D01*
X0002513571Y0039080715D01*
X0002442142Y0039045000D01*
X0002763571Y0038616429D02*
X0002692142Y0038580715D01*
X0002513571Y0038580715D01*
X0002442142Y0038616429D01*
X0002406428Y0038687858D01*
X0002406428Y0038759286D01*
X0002442142Y0038830715D01*
X0002513571Y0038866429D01*
X0002692142Y0038866429D01*
X0002763571Y0038902143D01*
X0003049285Y0038580715D02*
X0003442142Y0039080715D01*
X0003049285Y0039080715D02*
X0003442142Y0038580715D01*
X0004513571Y0038295000D02*
X0004477857Y0038330715D01*
X0004406428Y0038437858D01*
X0004370714Y0038509286D01*
X0004335000Y0038616429D01*
X0004299285Y0038795000D01*
X0004299285Y0038937858D01*
X0004335000Y0039116429D01*
X0004370714Y0039223572D01*
X0004406428Y0039295000D01*
X0004477857Y0039402143D01*
X0004513571Y0039437858D01*
X0004942142Y0039330715D02*
X0005085000Y0039330715D01*
X0005156428Y0039295000D01*
X0005227857Y0039223572D01*
X0005263571Y0039080715D01*
X0005263571Y0038830715D01*
X0005227857Y0038687858D01*
X0005156428Y0038616429D01*
X0005085000Y0038580715D01*
X0004942142Y0038580715D01*
X0004870714Y0038616429D01*
X0004799285Y0038687858D01*
X0004763571Y0038830715D01*
X0004763571Y0039080715D01*
X0004799285Y0039223572D01*
X0004870714Y0039295000D01*
X0004942142Y0039330715D01*
X0005585000Y0038580715D02*
X0005585000Y0039330715D01*
X0005870714Y0039330715D01*
X0005942142Y0039295000D01*
X0005977857Y0039259286D01*
X0006013571Y0039187858D01*
X0006013571Y0039080715D01*
X0005977857Y0039009286D01*
X0005942142Y0038973572D01*
X0005870714Y0038937858D01*
X0005585000Y0038937858D01*
X0006227857Y0039330715D02*
X0006656428Y0039330715D01*
X0006442142Y0038580715D02*
X0006442142Y0039330715D01*
X0006906428Y0038652143D02*
X0006942142Y0038616429D01*
X0006906428Y0038580715D01*
X0006870714Y0038616429D01*
X0006906428Y0038652143D01*
X0006906428Y0038580715D01*
X0007192142Y0038295000D02*
X0007227857Y0038330715D01*
X0007299285Y0038437858D01*
X0007335000Y0038509286D01*
X0007370714Y0038616429D01*
X0007406428Y0038795000D01*
X0007406428Y0038937858D01*
X0007370714Y0039116429D01*
X0007335000Y0039223572D01*
X0007299285Y0039295000D01*
X0007227857Y0039402143D01*
X0007192142Y0039437858D01*
X0005911047Y0033930572D02*
X0005958666Y0033978191D01*
X0006053904Y0034025810D01*
X0006244380Y0033930572D01*
X0006339619Y0033978191D01*
X0006387238Y0034025810D01*
X0007463333Y0002317858D02*
X0007415714Y0002270238D01*
X0007272857Y0002222619D01*
X0007177619Y0002222619D01*
X0007034761Y0002270238D01*
X0006939523Y0002365476D01*
X0006891904Y0002460715D01*
X0006844285Y0002651190D01*
X0006844285Y0002794047D01*
X0006891904Y0002984524D01*
X0006939523Y0003079762D01*
X0007034761Y0003174999D01*
X0007177619Y0003222619D01*
X0007272857Y0003222619D01*
X0007415714Y0003174999D01*
X0007463333Y0003127380D01*
X0007796666Y0003222619D02*
X0008415714Y0003222619D01*
X0008082380Y0002841667D01*
X0008225237Y0002841667D01*
X0008320475Y0002794047D01*
X0008368095Y0002746428D01*
X0008415714Y0002651190D01*
X0008415714Y0002413096D01*
X0008368095Y0002317858D01*
X0008320475Y0002270238D01*
X0008225237Y0002222619D01*
X0007939523Y0002222619D01*
X0007844285Y0002270238D01*
X0007796666Y0002317858D01*
X0000626666Y0009057620D02*
X0000626666Y0008343333D01*
X0000579047Y0008200476D01*
X0000483809Y0008105239D01*
X0000340952Y0008057620D01*
X0000245714Y0008057620D01*
X0001626666Y0008057620D02*
X0001055238Y0008057620D01*
X0001340952Y0008057620D02*
X0001340952Y0009057620D01*
X0001245714Y0008914762D01*
X0001150476Y0008819524D01*
X0001055238Y0008771905D01*
X0011168095Y0008697620D02*
X0011168095Y0007888095D01*
X0011215714Y0007792858D01*
X0011263333Y0007745238D01*
X0011358571Y0007697620D01*
X0011549047Y0007697620D01*
X0011644285Y0007745238D01*
X0011691904Y0007792858D01*
X0011739523Y0007888095D01*
X0011739523Y0008697620D01*
X0012168095Y0008602381D02*
X0012215714Y0008649999D01*
X0012310952Y0008697620D01*
X0012549047Y0008697620D01*
X0012644285Y0008649999D01*
X0012691904Y0008602381D01*
X0012739523Y0008507143D01*
X0012739523Y0008411905D01*
X0012691904Y0008269048D01*
X0012120476Y0007697620D01*
X0012739523Y0007697620D01*
X0010668095Y0033417620D02*
X0010668095Y0032608096D01*
X0010715714Y0032512858D01*
X0010763333Y0032465238D01*
X0010858571Y0032417620D01*
X0011049047Y0032417620D01*
X0011144285Y0032465238D01*
X0011191904Y0032512858D01*
X0011239523Y0032608096D01*
X0011239523Y0033417620D01*
X0012239523Y0032417620D02*
X0011668095Y0032417620D01*
X0011953809Y0032417620D02*
X0011953809Y0033417620D01*
X0011858571Y0033274762D01*
X0011763333Y0033179524D01*
X0011668095Y0033131905D01*
X0017387142Y0018633334D02*
X0017434761Y0018585715D01*
X0017482380Y0018442858D01*
X0017482380Y0018347620D01*
X0017434761Y0018204762D01*
X0017339523Y0018109524D01*
X0017244285Y0018061905D01*
X0017053809Y0018014286D01*
X0016910952Y0018014286D01*
X0016720476Y0018061905D01*
X0016625238Y0018109524D01*
X0016530000Y0018204762D01*
X0016482380Y0018347620D01*
X0016482380Y0018442858D01*
X0016530000Y0018585715D01*
X0016577618Y0018633334D01*
X0016577618Y0019014286D02*
X0016530000Y0019061905D01*
X0016482380Y0019157143D01*
X0016482380Y0019395239D01*
X0016530000Y0019490477D01*
X0016577618Y0019538096D01*
X0016672857Y0019585715D01*
X0016768094Y0019585715D01*
X0016910952Y0019538096D01*
X0017482380Y0018966667D01*
X0017482380Y0019585715D01*
X0007568095Y0006697620D02*
X0007568095Y0005888095D01*
X0007615714Y0005792858D01*
X0007663333Y0005745238D01*
X0007758571Y0005697620D01*
X0007949047Y0005697620D01*
X0008044285Y0005745238D01*
X0008091904Y0005792858D01*
X0008139523Y0005888095D01*
X0008139523Y0006697620D01*
X0008520476Y0006697620D02*
X0009139523Y0006697620D01*
X0008806190Y0006316667D01*
X0008949047Y0006316667D01*
X0009044285Y0006269047D01*
X0009091904Y0006221429D01*
X0009139523Y0006126190D01*
X0009139523Y0005888095D01*
X0009091904Y0005792858D01*
X0009044285Y0005745238D01*
X0008949047Y0005697620D01*
X0008663333Y0005697620D01*
X0008568095Y0005745238D01*
X0008520476Y0005792858D01*
X0011937142Y0018645334D02*
X0011984761Y0018597715D01*
X0012032380Y0018454858D01*
X0012032380Y0018359620D01*
X0011984761Y0018216762D01*
X0011889523Y0018121524D01*
X0011794285Y0018073905D01*
X0011603809Y0018026286D01*
X0011460952Y0018026286D01*
X0011270476Y0018073905D01*
X0011175238Y0018121524D01*
X0011080000Y0018216762D01*
X0011032380Y0018359620D01*
X0011032380Y0018454858D01*
X0011080000Y0018597715D01*
X0011127619Y0018645334D01*
X0012032380Y0019597715D02*
X0012032380Y0019026286D01*
X0012032380Y0019312000D02*
X0011032380Y0019312000D01*
X0011175238Y0019216762D01*
X0011270476Y0019121524D01*
X0011318095Y0019026286D01*
D11*
X0004318748Y0003460000D02*
X0004841252Y0003460000D01*
X0004318748Y0001990000D02*
X0004841252Y0001990000D01*
X0001480000Y0012280000D02*
X0000980000Y0012280000D01*
X0000980000Y0026480000D02*
X0001480000Y0026480000D01*
X0000980000Y0012379999D02*
X0001480000Y0012379999D01*
X0000980000Y0018480000D02*
X0001480000Y0018480000D01*
X0002480000Y0009320000D02*
X0002480000Y0009930000D01*
X0005090000Y0028880000D02*
X0004480000Y0028880000D01*
X0000980000Y0022480000D02*
X0001480000Y0022480000D01*
X0001480000Y0022480000D02*
X0001480000Y0022280000D01*
X0001480000Y0018480000D02*
X0001480000Y0018280000D01*
X0000980000Y0012480000D02*
X0001480000Y0012480000D01*
X0001480000Y0026280000D02*
X0000980000Y0026280000D01*
X0001480000Y0016480000D02*
X0001480000Y0016280000D01*
X0000980000Y0014480000D02*
X0001480000Y0014480000D01*
X0000980000Y0028380000D02*
X0001480000Y0028380000D01*
X0001480000Y0022280000D02*
X0000980000Y0022280000D01*
X0001480000Y0012480000D02*
X0001480000Y0012280000D01*
X0000980000Y0018380000D02*
X0001480000Y0018380000D01*
X0000370000Y0009320000D02*
X0005090000Y0009320000D01*
X0005090000Y0031439999D02*
X0000370000Y0031439999D01*
X0000370000Y0031439999D02*
X0000370000Y0009320000D01*
X0001480000Y0028280000D02*
X0000980000Y0028280000D01*
X0005390000Y0031740000D02*
X0004139999Y0031740000D01*
X0003780000Y0031439999D02*
X0003780000Y0030830000D01*
X0000980000Y0024380000D02*
X0001480000Y0024380000D01*
X0001480000Y0018280000D02*
X0000980000Y0018280000D01*
X0001480000Y0014280000D02*
X0000980000Y0014280000D01*
X0000980000Y0020380000D02*
X0001480000Y0020380000D01*
X0000980000Y0026380000D02*
X0001480000Y0026380000D01*
X0000980000Y0014379999D02*
X0001480000Y0014379999D01*
X0001480000Y0020480000D02*
X0001480000Y0020280000D01*
X0000980000Y0028480000D02*
X0001480000Y0028480000D01*
X0001480000Y0014480000D02*
X0001480000Y0014280000D01*
X0000980000Y0030830000D02*
X0000980000Y0009930000D01*
X0001480000Y0024480000D02*
X0001480000Y0024280000D01*
X0001480000Y0028480000D02*
X0001480000Y0028280000D01*
X0000980000Y0024480000D02*
X0001480000Y0024480000D01*
X0004480000Y0028880000D02*
X0004480000Y0030830000D01*
X0001480000Y0016280000D02*
X0000980000Y0016280000D01*
X0005390000Y0030490000D02*
X0005390000Y0031740000D01*
X0005290000Y0029680000D02*
X0005290000Y0029980000D01*
X0002480000Y0031439999D02*
X0002480000Y0030830000D01*
X0000980000Y0016480000D02*
X0001480000Y0016480000D01*
X0003780000Y0009320000D02*
X0003780000Y0009930000D01*
X0000980000Y0009930000D02*
X0004480000Y0009930000D01*
X0004480000Y0030830000D02*
X0000980000Y0030830000D01*
X0001480000Y0020280000D02*
X0000980000Y0020280000D01*
X0001480000Y0026480000D02*
X0001480000Y0026280000D01*
X0000980000Y0020480000D02*
X0001480000Y0020480000D01*
X0005190000Y0029680000D02*
X0005190000Y0029980000D01*
X0005090000Y0009320000D02*
X0005090000Y0031439999D01*
X0004480000Y0011879999D02*
X0005090000Y0011879999D01*
X0001480000Y0024280000D02*
X0000980000Y0024280000D01*
X0000980000Y0016379999D02*
X0001480000Y0016379999D01*
X0000980000Y0022380000D02*
X0001480000Y0022380000D01*
X0005090000Y0029680000D02*
X0005290000Y0029680000D01*
X0004480000Y0009930000D02*
X0004480000Y0011879999D01*
X0005290000Y0029980000D02*
X0005090000Y0029980000D01*
X0011702000Y0008928573D02*
X0008652000Y0008928573D01*
X0011702000Y0008928573D02*
X0014752000Y0008928573D01*
X0011702000Y0016998573D02*
X0014752000Y0016998573D01*
X0011702000Y0016998573D02*
X0007252000Y0016998573D01*
D12*
X0017380000Y0032049999D02*
X0006280000Y0032049999D01*
X0006280000Y0032049999D02*
X0006280000Y0020250000D01*
X0006280000Y0020250000D02*
X0017380000Y0020250000D01*
X0017380000Y0020250000D02*
X0017380000Y0032049999D01*
D11*
X0014234748Y0019547000D02*
X0014757252Y0019547000D01*
X0014234748Y0018077000D02*
X0014757252Y0018077000D01*
X0005340000Y0004719999D02*
X0003880000Y0004719999D01*
X0005340000Y0004719999D02*
X0005340000Y0005649999D01*
X0005340000Y0007880000D02*
X0005340000Y0006950000D01*
X0005340000Y0007880000D02*
X0002180000Y0007880000D01*
X0009169252Y0018077000D02*
X0008646748Y0018077000D01*
X0009169252Y0019547000D02*
X0008646748Y0019547000D01*
X0004490000Y0038147000D02*
X0001830000Y0038147000D01*
X0004490000Y0034277000D02*
X0004490000Y0032947000D01*
X0001830000Y0035547000D02*
X0001830000Y0038147000D01*
X0004490000Y0032947000D02*
X0003160000Y0032947000D01*
X0004490000Y0035547000D02*
X0004490000Y0038147000D01*
X0004490000Y0035547000D02*
X0001830000Y0035547000D01*
M02*