%
M48
METRIC,000.000
T01C0.50
%
T01
X017850Y017607
X017850Y018607
X017850Y019607
X017850Y020607
X017850Y021607
X017850Y022607
X019750Y022253
X019750Y021253
X019750Y020253
X019750Y019253
X019750Y018253
X019750Y017253
X025354Y043750
X026354Y043750
X027354Y043750
X028354Y043750
X029354Y043750
X029860Y040250
X028860Y040250
X027860Y040250
X026860Y040250
X025860Y040250
X024860Y040250
X017850Y037607
X017850Y038607
X017850Y039607
X017385Y040250
X016385Y040250
X015385Y040250
X017850Y044607
X017850Y045607
X014829Y043750
X015829Y043750
X016829Y043750
X019750Y046253
X019750Y045253
X019750Y044253
X020354Y043750
X021354Y043750
X022354Y043750
X022860Y040250
X021860Y040250
X020860Y040250
X019867Y040211
X019750Y039253
X019750Y038253
X017850Y061607
X017850Y062607
X017850Y063607
X017850Y064607
X017850Y065607
X017850Y066607
X019750Y066253
X019750Y065253
X019750Y064253
X019750Y063253
X019750Y062253
X019750Y061253
X011385Y040250
X010385Y040250
X009385Y040250
X008385Y040250
X007385Y040250
X006385Y040250
X006829Y043750
X007829Y043750
X008829Y043750
X009829Y043750
X010829Y043750
X038750Y021778
X038750Y020778
X038750Y019778
X038750Y018778
X038750Y017778
X038750Y016778
X038750Y015778
X035324Y015607
X035324Y016607
X035324Y017607
X035324Y018607
X035324Y019607
X035324Y020607
X035324Y021607
X035324Y022607
X058750Y022253
X058750Y021253
X058750Y020253
X058750Y019253
X058750Y018253
X058750Y017253
X056849Y017607
X056849Y018607
X056849Y019607
X056849Y020607
X056849Y021607
X056849Y022607
X068860Y040250
X067860Y040250
X066860Y040250
X065860Y040250
X064860Y040250
X065354Y043750
X066354Y043750
X067354Y043750
X068354Y043750
X069354Y043750
X061860Y040250
X060860Y040250
X059860Y040250
X058867Y040211
X058750Y039253
X058750Y038253
X056849Y037607
X056849Y038607
X056849Y039607
X056385Y040250
X055385Y040250
X054385Y040250
X058750Y046253
X058750Y045253
X058750Y044253
X059354Y043750
X060354Y043750
X061354Y043750
X056849Y044607
X056849Y045607
X053829Y043750
X054829Y043750
X055829Y043750
X058750Y066253
X058750Y065253
X058750Y064253
X058750Y063253
X058750Y062253
X058750Y061253
X056849Y061607
X056849Y062607
X056849Y063607
X056849Y064607
X056849Y065607
X056849Y066607
X050385Y040250
X049385Y040250
X048385Y040250
X047385Y040250
X046385Y040250
X045385Y040250
X045829Y043750
X046829Y043750
X047829Y043750
X048829Y043750
X049829Y043750
X035324Y061607
X035324Y062607
X035324Y063607
X035324Y064607
X035324Y065607
X035324Y066607
X038750Y065778
X038750Y064778
X038750Y063778
X038750Y062778
X038750Y061778
M30