%TF.GenerationSoftware,KiCad,Pcbnew,(6.0.1)*%
%TF.CreationDate,2022-07-02T13:08:03-07:00*%
%TF.ProjectId,mu100-dit-connector-board,6d753130-302d-4646-9974-2d636f6e6e65,rev?*%
%TF.SameCoordinates,Original*%
%TF.FileFunction,Copper,L1,Top*%
%TF.FilePolarity,Positive*%
%FSLAX46Y46*%
G04 Gerber Fmt 4.6, Leading zero omitted, Abs format (unit mm)*
G04 Created by KiCad (PCBNEW (6.0.1)) date 2022-07-02 13:08:03*
%MOMM*%
%LPD*%
G01*
G04 APERTURE LIST*
G04 Aperture macros list*
%AMRoundRect*
0 Rectangle with rounded corners*
0 $1 Rounding radius*
0 $2 $3 $4 $5 $6 $7 $8 $9 X,Y pos of 4 corners*
0 Add a 4 corners polygon primitive as box body*
4,1,4,$2,$3,$4,$5,$6,$7,$8,$9,$2,$3,0*
0 Add four circle primitives for the rounded corners*
1,1,$1+$1,$2,$3*
1,1,$1+$1,$4,$5*
1,1,$1+$1,$6,$7*
1,1,$1+$1,$8,$9*
0 Add four rect primitives between the rounded corners*
20,1,$1+$1,$2,$3,$4,$5,0*
20,1,$1+$1,$4,$5,$6,$7,0*
20,1,$1+$1,$6,$7,$8,$9,0*
20,1,$1+$1,$8,$9,$2,$3,0*%
G04 Aperture macros list end*
%TA.AperFunction,ComponentPad*%
%ADD10RoundRect,0.250000X0.350000X0.625000X-0.350000X0.625000X-0.350000X-0.625000X0.350000X-0.625000X0*%
%TD*%
%TA.AperFunction,ComponentPad*%
%ADD11O,1.200000X1.750000*%
%TD*%
%TA.AperFunction,ComponentPad*%
%ADD12RoundRect,0.250000X-0.350000X-0.650000X0.350000X-0.650000X0.350000X0.650000X-0.350000X0.650000X0*%
%TD*%
%TA.AperFunction,ComponentPad*%
%ADD13O,1.200000X1.800000*%
%TD*%
%TA.AperFunction,ComponentPad*%
%ADD14R,1.350000X1.350000*%
%TD*%
%TA.AperFunction,ComponentPad*%
%ADD15O,1.350000X1.350000*%
%TD*%
%TA.AperFunction,ViaPad*%
%ADD16C,0.800000*%
%TD*%
%TA.AperFunction,Conductor*%
%ADD17C,0.400000*%
%TD*%
%TA.AperFunction,Conductor*%
%ADD18C,0.250000*%
%TD*%
G04 APERTURE END LIST*
D10*
%TO.P,J3,1,Pin_1*%
%TO.N,/RESET*%
X90700000Y-68440000D03*
D11*
%TO.P,J3,2,Pin_2*%
%TO.N,+5V*%
X88700000Y-68440000D03*
%TO.P,J3,3,Pin_3*%
%TO.N,GND*%
X86700000Y-68440000D03*
%TO.P,J3,4,Pin_4*%
%TO.N,/MCLK*%
X84700000Y-68440000D03*
%TO.P,J3,5,Pin_5*%
%TO.N,GND*%
X82700000Y-68440000D03*
%TO.P,J3,6,Pin_6*%
%TO.N,/SDAT*%
X80700000Y-68440000D03*
%TO.P,J3,7,Pin_7*%
%TO.N,GND*%
X78700000Y-68440000D03*
%TO.P,J3,8,Pin_8*%
%TO.N,/BICK*%
X76700000Y-68440000D03*
%TO.P,J3,9,Pin_9*%
%TO.N,GND*%
X74700000Y-68440000D03*
%TO.P,J3,10,Pin_10*%
%TO.N,/LRCK*%
X72700000Y-68440000D03*
%TD*%
D12*
%TO.P,J2,1,Pin_1*%
%TO.N,/RER*%
X65710000Y-60830000D03*
D13*
%TO.P,J2,2,Pin_2*%
%TO.N,+5V*%
X67710000Y-60830000D03*
%TO.P,J2,3,Pin_3*%
X69710000Y-60830000D03*
%TO.P,J2,4,Pin_4*%
%TO.N,GND*%
X71710000Y-60830000D03*
%TO.P,J2,5,Pin_5*%
X73710000Y-60830000D03*
%TO.P,J2,6,Pin_6*%
%TO.N,unconnected-(J2-Pad6)*%
X75710000Y-60830000D03*
%TO.P,J2,7,Pin_7*%
%TO.N,/MEL00*%
X77710000Y-60830000D03*
%TO.P,J2,8,Pin_8*%
%TO.N,/SYOD*%
X79710000Y-60830000D03*
%TO.P,J2,9,Pin_9*%
%TO.N,/QCLK*%
X81710000Y-60830000D03*
%TO.P,J2,10,Pin_10*%
%TO.N,unconnected-(J2-Pad10)*%
X83710000Y-60830000D03*
%TO.P,J2,11,Pin_11*%
%TO.N,/CK256*%
X85710000Y-60830000D03*
%TO.P,J2,12,Pin_12*%
%TO.N,/WCLK*%
X87710000Y-60830000D03*
%TO.P,J2,13,Pin_13*%
%TO.N,/DACOL*%
X89710000Y-60830000D03*
%TO.P,J2,14,Pin_14*%
%TO.N,/REA*%
X91710000Y-60830000D03*
%TO.P,J2,15,Pin_15*%
%TO.N,/REB*%
X93710000Y-60830000D03*
%TO.P,J2,16,Pin_16*%
%TO.N,GNDA*%
X95710000Y-60830000D03*
%TO.P,J2,17,Pin_17*%
%TO.N,+9VA*%
X97710000Y-60830000D03*
%TD*%
D14*
%TO.P,J1,1,Pin_1*%
%TO.N,/RER*%
X65710000Y-57970000D03*
D15*
%TO.P,J1,2,Pin_2*%
%TO.N,+5V*%
X67710000Y-57970000D03*
%TO.P,J1,3,Pin_3*%
X69710000Y-57970000D03*
%TO.P,J1,4,Pin_4*%
%TO.N,GND*%
X71710000Y-57970000D03*
%TO.P,J1,5,Pin_5*%
X73710000Y-57970000D03*
%TO.P,J1,6,Pin_6*%
%TO.N,/RESET*%
X75710000Y-57970000D03*
%TO.P,J1,7,Pin_7*%
%TO.N,/MEL00*%
X77710000Y-57970000D03*
%TO.P,J1,8,Pin_8*%
%TO.N,/SYOD*%
X79710000Y-57970000D03*
%TO.P,J1,9,Pin_9*%
%TO.N,/QCLK*%
X81710000Y-57970000D03*
%TO.P,J1,10,Pin_10*%
%TO.N,unconnected-(J1-Pad10)*%
X83710000Y-57970000D03*
%TO.P,J1,11,Pin_11*%
%TO.N,/CK256*%
X85710000Y-57970000D03*
%TO.P,J1,12,Pin_12*%
%TO.N,/WCLK*%
X87710000Y-57970000D03*
%TO.P,J1,13,Pin_13*%
%TO.N,/DACOL*%
X89710000Y-57970000D03*
%TO.P,J1,14,Pin_14*%
%TO.N,/REA*%
X91710000Y-57970000D03*
%TO.P,J1,15,Pin_15*%
%TO.N,/REB*%
X93710000Y-57970000D03*
%TO.P,J1,16,Pin_16*%
%TO.N,GNDA*%
X95710000Y-57970000D03*
%TO.P,J1,17,Pin_17*%
%TO.N,+9VA*%
X97710000Y-57970000D03*
%TD*%
D16*
%TO.N,GND*%
X70866000Y-66802000D03*
X67818000Y-64770000D03*
X72800000Y-64400000D03*
X71628000Y-62738000D03*
X71882000Y-66802000D03*
X66548000Y-63246000D03*
X71600000Y-64400000D03*
X86868000Y-66548000D03*
%TO.N,/WCLK*%
X75800000Y-64000000D03*
%TO.N,/DACOL*%
X82200000Y-64000000D03*
%TD*%
D17*
%TO.N,+5V*%
X88700000Y-66094000D02*
X88700000Y-68440000D01*
X70845031Y-65257031D02*
X87863031Y-65257031D01*
X69710000Y-60830000D02*
X69710000Y-64122000D01*
X69710000Y-64122000D02*
X70845031Y-65257031D01*
X87863031Y-65257031D02*
X88700000Y-66094000D01*
D18*
%TO.N,/RESET*%
X75710000Y-57970000D02*
X74676000Y-59004000D01*
X88080294Y-64732511D02*
X88247784Y-64900000D01*
X88247784Y-64900000D02*
X90700000Y-67352216D01*
X74676000Y-59004000D02*
X74676000Y-64276000D01*
X74676000Y-64276000D02*
X75132511Y-64732511D01*
X75132511Y-64732511D02*
X88080294Y-64732511D01*
X90700000Y-67352216D02*
X90700000Y-68440000D01*
%TO.N,/WCLK*%
X77316000Y-62484000D02*
X86056000Y-62484000D01*
X75800000Y-64000000D02*
X77316000Y-62484000D01*
X86056000Y-62484000D02*
X87710000Y-60830000D01*
%TO.N,/DACOL*%
X82200000Y-64000000D02*
X83266480Y-62933520D01*
X83266480Y-62933520D02*
X87606480Y-62933520D01*
X87606480Y-62933520D02*
X89710000Y-60830000D01*
%TD*%
%TA.AperFunction,Conductor*%
%TO.N,GND*%
G36*
X74200000Y-58584095D02*
G01*
X74199865Y-58584230D01*
X74197385Y-58587427D01*
X74189682Y-58596447D01*
X74159414Y-58628679D01*
X74155595Y-58635625D01*
X74155593Y-58635628D01*
X74149652Y-58646434D01*
X74138801Y-58662953D01*
X74126386Y-58678959D01*
X74123241Y-58686228D01*
X74123238Y-58686232D01*
X74108826Y-58719537D01*
X74103609Y-58730187D01*
X74082305Y-58768940D01*
X74080334Y-58776615D01*
X74080334Y-58776616D01*
X74077267Y-58788562D01*
X74070863Y-58807266D01*
X74062819Y-58825855D01*
X74061580Y-58833678D01*
X74061577Y-58833688D01*
X74055901Y-58869524D01*
X74053495Y-58881144D01*
X74042500Y-58923970D01*
X74042500Y-58944224D01*
X74040949Y-58963934D01*
X74037780Y-58983943D01*
X74038526Y-58991835D01*
X74041941Y-59027961D01*
X74042500Y-59039819D01*
X74042500Y-62300000D01*
X71200000Y-62300000D01*
X71200000Y-57500000D01*
X74200000Y-57500000D01*
X74200000Y-58584095D01*
G37*
%TD.AperFunction*%
%TD*%
%TA.AperFunction,Conductor*%
%TO.N,GND*%
G36*
X64565717Y-56848002D02*
G01*
X64612210Y-56901658D01*
X64622314Y-56971932D01*
X64598423Y-57029564D01*
X64584385Y-57048295D01*
X64533255Y-57184684D01*
X64526500Y-57246866D01*
X64526500Y-58693134D01*
X64533255Y-58755316D01*
X64584385Y-58891705D01*
X64671739Y-59008261D01*
X64788295Y-59095615D01*
X64924684Y-59146745D01*
X64986866Y-59153500D01*
X66313625Y-59153500D01*
X66381746Y-59173502D01*
X66428239Y-59227158D01*
X66439614Y-59277846D01*
X66440309Y-59330788D01*
X66421203Y-59399165D01*
X66368162Y-59446359D01*
X66298027Y-59457384D01*
X66274653Y-59452035D01*
X66221389Y-59434368D01*
X66221387Y-59434368D01*
X66214861Y-59432203D01*
X66208025Y-59431503D01*
X66208022Y-59431502D01*
X66164969Y-59427091D01*
X66110400Y-59421500D01*
X65309600Y-59421500D01*
X65306354Y-59421837D01*
X65306350Y-59421837D01*
X65210692Y-59431762D01*
X65210688Y-59431763D01*
X65203834Y-59432474D01*
X65197298Y-59434655D01*
X65197296Y-59434655D01*
X65105188Y-59465385D01*
X65036054Y-59488450D01*
X64885652Y-59581522D01*
X64760695Y-59706697D01*
X64756855Y-59712927D01*
X64756854Y-59712928D01*
X64675320Y-59845201D01*
X64667885Y-59857262D01*
X64612203Y-60025139D01*
X64601500Y-60129600D01*
X64601500Y-61530400D01*
X64612474Y-61636166D01*
X64614655Y-61642702D01*
X64614655Y-61642704D01*
X64643995Y-61730647D01*
X64668450Y-61803946D01*
X64761522Y-61954348D01*
X64886697Y-62079305D01*
X64892927Y-62083145D01*
X64892928Y-62083146D01*
X65024691Y-62164366D01*
X65037262Y-62172115D01*
X65073942Y-62184281D01*
X65198611Y-62225632D01*
X65198613Y-62225632D01*
X65205139Y-62227797D01*
X65211975Y-62228497D01*
X65211978Y-62228498D01*
X65250386Y-62232433D01*
X65309600Y-62238500D01*
X66110400Y-62238500D01*
X66113646Y-62238163D01*
X66113650Y-62238163D01*
X66209308Y-62228238D01*
X66209312Y-62228237D01*
X66216166Y-62227526D01*
X66222708Y-62225343D01*
X66222710Y-62225343D01*
X66313587Y-62195024D01*
X66384537Y-62192439D01*
X66445621Y-62228622D01*
X66477446Y-62292086D01*
X66479453Y-62312892D01*
X66479963Y-62351719D01*
X66489041Y-62363857D01*
X67880151Y-64223836D01*
X68549333Y-65118564D01*
X68770814Y-65118684D01*
X69653073Y-65119165D01*
X69721182Y-65139204D01*
X69742099Y-65156070D01*
X70323588Y-65737559D01*
X70329442Y-65743824D01*
X70367470Y-65787416D01*
X70419760Y-65824167D01*
X70425002Y-65828059D01*
X70475313Y-65867507D01*
X70482232Y-65870631D01*
X70484524Y-65872019D01*
X70499196Y-65880388D01*
X70501556Y-65881653D01*
X70507770Y-65886021D01*
X70514849Y-65888781D01*
X70514851Y-65888782D01*
X70567306Y-65909233D01*
X70573375Y-65911784D01*
X70631604Y-65938076D01*
X70639077Y-65939461D01*
X70641643Y-65940265D01*
X70657866Y-65944886D01*
X70660458Y-65945551D01*
X70667540Y-65948313D01*
X70675075Y-65949305D01*
X70730892Y-65956653D01*
X70737408Y-65957685D01*
X70775801Y-65964801D01*
X70800217Y-65969326D01*
X70807797Y-65968889D01*
X70807798Y-65968889D01*
X70862411Y-65965740D01*
X70869664Y-65965531D01*
X87517371Y-65965531D01*
X87585492Y-65985533D01*
X87606466Y-66002436D01*
X87954595Y-66350565D01*
X87988621Y-66412877D01*
X87991500Y-66439660D01*
X87991500Y-67251502D01*
X87971498Y-67319623D01*
X87956518Y-67338633D01*
X87826119Y-67474850D01*
X87822870Y-67479881D01*
X87822865Y-67479888D01*
X87804967Y-67507607D01*
X87751211Y-67553984D01*
X87680915Y-67563937D01*
X87616398Y-67534304D01*
X87600030Y-67517091D01*
X87509738Y-67402143D01*
X87501501Y-67393494D01*
X87350877Y-67262788D01*
X87341153Y-67255853D01*
X87168533Y-67155990D01*
X87157669Y-67151016D01*
X86969273Y-67085593D01*
X86968284Y-67085352D01*
X86957992Y-67086820D01*
X86954000Y-67100385D01*
X86954000Y-68568000D01*
X86933998Y-68636121D01*
X86880342Y-68682614D01*
X86828000Y-68694000D01*
X86572000Y-68694000D01*
X86503879Y-68673998D01*
X86457386Y-68620342D01*
X86446000Y-68568000D01*
X86446000Y-67104598D01*
X86442027Y-67091067D01*
X86432601Y-67089712D01*
X86343463Y-67111194D01*
X86332168Y-67115083D01*
X86150618Y-67197629D01*
X86140276Y-67203576D01*
X85977603Y-67318968D01*
X85968575Y-67326761D01*
X85830658Y-67470831D01*
X85823259Y-67480200D01*
X85805582Y-67507577D01*
X85751828Y-67553955D01*
X85681532Y-67563909D01*
X85617015Y-67534278D01*
X85600644Y-67517063D01*
X85510102Y-67401798D01*
X85506396Y-67397080D01*
X85501865Y-67393148D01*
X85501862Y-67393145D01*
X85351167Y-67262379D01*
X85346637Y-67258448D01*
X85341451Y-67255448D01*
X85341447Y-67255445D01*
X85168742Y-67155533D01*
X85163546Y-67152527D01*
X84963729Y-67083139D01*
X84957794Y-67082278D01*
X84957792Y-67082278D01*
X84760336Y-67053648D01*
X84760333Y-67053648D01*
X84754396Y-67052787D01*
X84543101Y-67062567D01*
X84411923Y-67094181D01*
X84343299Y-67110719D01*
X84343297Y-67110720D01*
X84337466Y-67112125D01*
X84332008Y-67114607D01*
X84332004Y-67114608D01*
X84240990Y-67155990D01*
X84144913Y-67199674D01*
X83972389Y-67322054D01*
X83826119Y-67474850D01*
X83822870Y-67479881D01*
X83822865Y-67479888D01*
X83804967Y-67507607D01*
X83751211Y-67553984D01*
X83680915Y-67563937D01*
X83616398Y-67534304D01*
X83600030Y-67517091D01*
X83509738Y-67402143D01*
X83501501Y-67393494D01*
X83350877Y-67262788D01*
X83341153Y-67255853D01*
X83168533Y-67155990D01*
X83157669Y-67151016D01*
X82969273Y-67085593D01*
X82968284Y-67085352D01*
X82957992Y-67086820D01*
X82954000Y-67100385D01*
X82954000Y-68568000D01*
X82933998Y-68636121D01*
X82880342Y-68682614D01*
X82828000Y-68694000D01*
X82572000Y-68694000D01*
X82503879Y-68673998D01*
X82457386Y-68620342D01*
X82446000Y-68568000D01*
X82446000Y-67104598D01*
X82442027Y-67091067D01*
X82432601Y-67089712D01*
X82343463Y-67111194D01*
X82332168Y-67115083D01*
X82150618Y-67197629D01*
X82140276Y-67203576D01*
X81977603Y-67318968D01*
X81968575Y-67326761D01*
X81830658Y-67470831D01*
X81823259Y-67480200D01*
X81805582Y-67507577D01*
X81751828Y-67553955D01*
X81681532Y-67563909D01*
X81617015Y-67534278D01*
X81600644Y-67517063D01*
X81510102Y-67401798D01*
X81506396Y-67397080D01*
X81501865Y-67393148D01*
X81501862Y-67393145D01*
X81351167Y-67262379D01*
X81346637Y-67258448D01*
X81341451Y-67255448D01*
X81341447Y-67255445D01*
X81168742Y-67155533D01*
X81163546Y-67152527D01*
X80963729Y-67083139D01*
X80957794Y-67082278D01*
X80957792Y-67082278D01*
X80760336Y-67053648D01*
X80760333Y-67053648D01*
X80754396Y-67052787D01*
X80543101Y-67062567D01*
X80411923Y-67094181D01*
X80343299Y-67110719D01*
X80343297Y-67110720D01*
X80337466Y-67112125D01*
X80332008Y-67114607D01*
X80332004Y-67114608D01*
X80240990Y-67155990D01*
X80144913Y-67199674D01*
X79972389Y-67322054D01*
X79826119Y-67474850D01*
X79822870Y-67479881D01*
X79822865Y-67479888D01*
X79804967Y-67507607D01*
X79751211Y-67553984D01*
X79680915Y-67563937D01*
X79616398Y-67534304D01*
X79600030Y-67517091D01*
X79509738Y-67402143D01*
X79501501Y-67393494D01*
X79350877Y-67262788D01*
X79341153Y-67255853D01*
X79168533Y-67155990D01*
X79157669Y-67151016D01*
X78969273Y-67085593D01*
X78968284Y-67085352D01*
X78957992Y-67086820D01*
X78954000Y-67100385D01*
X78954000Y-68568000D01*
X78933998Y-68636121D01*
X78880342Y-68682614D01*
X78828000Y-68694000D01*
X78572000Y-68694000D01*
X78503879Y-68673998D01*
X78457386Y-68620342D01*
X78446000Y-68568000D01*
X78446000Y-67104598D01*
X78442027Y-67091067D01*
X78432601Y-67089712D01*
X78343463Y-67111194D01*
X78332168Y-67115083D01*
X78150618Y-67197629D01*
X78140276Y-67203576D01*
X77977603Y-67318968D01*
X77968575Y-67326761D01*
X77830658Y-67470831D01*
X77823259Y-67480200D01*
X77805582Y-67507577D01*
X77751828Y-67553955D01*
X77681532Y-67563909D01*
X77617015Y-67534278D01*
X77600644Y-67517063D01*
X77510102Y-67401798D01*
X77506396Y-67397080D01*
X77501865Y-67393148D01*
X77501862Y-67393145D01*
X77351167Y-67262379D01*
X77346637Y-67258448D01*
X77341451Y-67255448D01*
X77341447Y-67255445D01*
X77168742Y-67155533D01*
X77163546Y-67152527D01*
X76963729Y-67083139D01*
X76957794Y-67082278D01*
X76957792Y-67082278D01*
X76760336Y-67053648D01*
X76760333Y-67053648D01*
X76754396Y-67052787D01*
X76543101Y-67062567D01*
X76411923Y-67094181D01*
X76343299Y-67110719D01*
X76343297Y-67110720D01*
X76337466Y-67112125D01*
X76332008Y-67114607D01*
X76332004Y-67114608D01*
X76240990Y-67155990D01*
X76144913Y-67199674D01*
X75972389Y-67322054D01*
X75826119Y-67474850D01*
X75822870Y-67479881D01*
X75822865Y-67479888D01*
X75804967Y-67507607D01*
X75751211Y-67553984D01*
X75680915Y-67563937D01*
X75616398Y-67534304D01*
X75600030Y-67517091D01*
X75509738Y-67402143D01*
X75501501Y-67393494D01*
X75350877Y-67262788D01*
X75341153Y-67255853D01*
X75168533Y-67155990D01*
X75157669Y-67151016D01*
X74969273Y-67085593D01*
X74968284Y-67085352D01*
X74957992Y-67086820D01*
X74954000Y-67100385D01*
X74954000Y-68568000D01*
X74933998Y-68636121D01*
X74880342Y-68682614D01*
X74828000Y-68694000D01*
X74572000Y-68694000D01*
X74503879Y-68673998D01*
X74457386Y-68620342D01*
X74446000Y-68568000D01*
X74446000Y-67104598D01*
X74442027Y-67091067D01*
X74432601Y-67089712D01*
X74343463Y-67111194D01*
X74332168Y-67115083D01*
X74150618Y-67197629D01*
X74140276Y-67203576D01*
X73977603Y-67318968D01*
X73968575Y-67326761D01*
X73830658Y-67470831D01*
X73823259Y-67480200D01*
X73805582Y-67507577D01*
X73751828Y-67553955D01*
X73681532Y-67563909D01*
X73617015Y-67534278D01*
X73600644Y-67517063D01*
X73510102Y-67401798D01*
X73506396Y-67397080D01*
X73501865Y-67393148D01*
X73501862Y-67393145D01*
X73351167Y-67262379D01*
X73346637Y-67258448D01*
X73341451Y-67255448D01*
X73341447Y-67255445D01*
X73168742Y-67155533D01*
X73163546Y-67152527D01*
X72963729Y-67083139D01*
X72957794Y-67082278D01*
X72957792Y-67082278D01*
X72760336Y-67053648D01*
X72760333Y-67053648D01*
X72754396Y-67052787D01*
X72543101Y-67062567D01*
X72411923Y-67094181D01*
X72343299Y-67110719D01*
X72343297Y-67110720D01*
X72337466Y-67112125D01*
X72332008Y-67114607D01*
X72332004Y-67114608D01*
X72240990Y-67155990D01*
X72144913Y-67199674D01*
X71972389Y-67322054D01*
X71826119Y-67474850D01*
X71711380Y-67652548D01*
X71632314Y-67848737D01*
X71591772Y-68056337D01*
X71591500Y-68061899D01*
X71591500Y-68767846D01*
X71606548Y-68925566D01*
X71666092Y-69128534D01*
X71668836Y-69133861D01*
X71668836Y-69133862D01*
X71716491Y-69226389D01*
X71762942Y-69316580D01*
X71893604Y-69482920D01*
X72017967Y-69590837D01*
X72056306Y-69650588D01*
X72056256Y-69721585D01*
X72017829Y-69781283D01*
X71953228Y-69810730D01*
X71935385Y-69812000D01*
X64324000Y-69812000D01*
X64255879Y-69791998D01*
X64209386Y-69738342D01*
X64198000Y-69686000D01*
X64198000Y-56954000D01*
X64218002Y-56885879D01*
X64271658Y-56839386D01*
X64324000Y-56828000D01*
X64497596Y-56828000D01*
X64565717Y-56848002D01*
G37*
%TD.AperFunction*%
%TA.AperFunction,Conductor*%
G36*
X73906121Y-57736002D02*
G01*
X73952614Y-57789658D01*
X73964000Y-57842000D01*
X73964000Y-59110512D01*
X73968475Y-59125751D01*
X73990422Y-59144769D01*
X73998951Y-59148657D01*
X74037373Y-59208358D01*
X74042500Y-59243934D01*
X74042500Y-59331888D01*
X74022498Y-59400009D01*
X73992540Y-59425967D01*
X73994193Y-59427879D01*
X73968501Y-59450090D01*
X73964000Y-59465385D01*
X73964000Y-62190402D01*
X73968475Y-62205641D01*
X73990472Y-62224702D01*
X73999009Y-62228600D01*
X74037395Y-62288324D01*
X74042500Y-62323827D01*
X74042500Y-64197233D01*
X74041973Y-64208416D01*
X74040298Y-64215909D01*
X74040547Y-64223835D01*
X74040547Y-64223836D01*
X74042438Y-64283986D01*
X74042500Y-64287945D01*
X74042500Y-64315856D01*
X74042997Y-64319790D01*
X74042997Y-64319791D01*
X74043005Y-64319856D01*
X74043938Y-64331693D01*
X74045327Y-64375889D01*
X74047537Y-64383496D01*
X74047538Y-64383502D01*
X74048665Y-64387380D01*
X74048656Y-64390557D01*
X74048778Y-64391328D01*
X74048654Y-64391348D01*
X74048462Y-64458376D01*
X74009907Y-64517992D01*
X73945242Y-64547299D01*
X73927668Y-64548531D01*
X71326000Y-64548531D01*
X71257879Y-64528529D01*
X71211386Y-64474873D01*
X71200000Y-64422531D01*
X71200000Y-62302948D01*
X71220002Y-62234827D01*
X71273658Y-62188334D01*
X71343932Y-62178230D01*
X71367333Y-62183920D01*
X71440727Y-62209407D01*
X71441716Y-62209648D01*
X71452008Y-62208180D01*
X71456000Y-62194615D01*
X71456000Y-62190402D01*
X71964000Y-62190402D01*
X71967973Y-62203933D01*
X71977399Y-62205288D01*
X72066537Y-62183806D01*
X72077832Y-62179917D01*
X72259382Y-62097371D01*
X72269724Y-62091424D01*
X72432397Y-61976032D01*
X72441425Y-61968239D01*
X72579342Y-61824169D01*
X72586742Y-61814799D01*
X72604705Y-61786979D01*
X72658460Y-61740601D01*
X72728756Y-61730647D01*
X72793273Y-61760278D01*
X72809643Y-61777493D01*
X72900262Y-61892857D01*
X72908499Y-61901506D01*
X73059123Y-62032212D01*
X73068847Y-62039147D01*
X73241467Y-62139010D01*
X73252331Y-62143984D01*
X73440727Y-62209407D01*
X73441716Y-62209648D01*
X73452008Y-62208180D01*
X73456000Y-62194615D01*
X73456000Y-61102115D01*
X73451525Y-61086876D01*
X73450135Y-61085671D01*
X73442452Y-61084000D01*
X71982115Y-61084000D01*
X71966876Y-61088475D01*
X71965671Y-61089865D01*
X71964000Y-61097548D01*
X71964000Y-62190402D01*
X71456000Y-62190402D01*
X71456000Y-60557885D01*
X71964000Y-60557885D01*
X71968475Y-60573124D01*
X71969865Y-60574329D01*
X71977548Y-60576000D01*
X73437885Y-60576000D01*
X73453124Y-60571525D01*
X73454329Y-60570135D01*
X73456000Y-60562452D01*
X73456000Y-59469598D01*
X73452027Y-59456067D01*
X73442601Y-59454712D01*
X73353463Y-59476194D01*
X73342168Y-59480083D01*
X73160618Y-59562629D01*
X73150276Y-59568576D01*
X72987603Y-59683968D01*
X72978575Y-59691761D01*
X72840658Y-59835831D01*
X72833258Y-59845201D01*
X72815295Y-59873021D01*
X72761540Y-59919399D01*
X72691244Y-59929353D01*
X72626727Y-59899722D01*
X72610357Y-59882507D01*
X72519738Y-59767143D01*
X72511501Y-59758494D01*
X72360877Y-59627788D01*
X72351153Y-59620853D01*
X72178533Y-59520990D01*
X72167669Y-59516016D01*
X71979273Y-59450593D01*
X71978284Y-59450352D01*
X71967992Y-59451820D01*
X71964000Y-59465385D01*
X71964000Y-60557885D01*
X71456000Y-60557885D01*
X71456000Y-59469598D01*
X71452027Y-59456067D01*
X71442601Y-59454712D01*
X71355520Y-59475698D01*
X71284609Y-59472213D01*
X71226840Y-59430943D01*
X71200553Y-59364992D01*
X71200000Y-59353205D01*
X71200000Y-59225288D01*
X71220002Y-59157167D01*
X71273658Y-59110674D01*
X71343932Y-59100570D01*
X71353808Y-59102395D01*
X71438333Y-59121521D01*
X71452405Y-59120632D01*
X71456000Y-59111233D01*
X71456000Y-59110512D01*
X71964000Y-59110512D01*
X71967966Y-59124018D01*
X71981883Y-59126011D01*
X71992817Y-59123386D01*
X72187763Y-59057210D01*
X72198272Y-59052531D01*
X72377882Y-58951944D01*
X72387375Y-58945420D01*
X72545653Y-58813782D01*
X72553782Y-58805653D01*
X72610249Y-58737759D01*
X72669187Y-58698175D01*
X72740169Y-58696739D01*
X72802938Y-58736502D01*
X72810724Y-58745619D01*
X72958191Y-58889275D01*
X72967124Y-58896509D01*
X73138299Y-59010884D01*
X73148409Y-59016374D01*
X73337566Y-59097642D01*
X73348499Y-59101194D01*
X73438332Y-59121521D01*
X73452405Y-59120632D01*
X73456000Y-59111233D01*
X73456000Y-58242115D01*
X73451525Y-58226876D01*
X73450135Y-58225671D01*
X73442452Y-58224000D01*
X71982115Y-58224000D01*
X71966876Y-58228475D01*
X71965671Y-58229865D01*
X71964000Y-58237548D01*
X71964000Y-59110512D01*
X71456000Y-59110512D01*
X71456000Y-57842000D01*
X71476002Y-57773879D01*
X71529658Y-57727386D01*
X71582000Y-57716000D01*
X73838000Y-57716000D01*
X73906121Y-57736002D01*
G37*
%TD.AperFunction*%
%TD*%
%TA.AperFunction,Conductor*%
%TO.N,+5V*%
G36*
X70147429Y-57422940D02*
G01*
X70193941Y-57476579D01*
X70205339Y-57527597D01*
X70276902Y-64132446D01*
X70257639Y-64200779D01*
X70204490Y-64247851D01*
X70149819Y-64259806D01*
X69662352Y-64255588D01*
X68895662Y-64248954D01*
X68827718Y-64228364D01*
X68796591Y-64199401D01*
X67125927Y-62010237D01*
X67100501Y-61943950D01*
X67100094Y-61932934D01*
X67130254Y-57529093D01*
X67150722Y-57461111D01*
X67204695Y-57414987D01*
X67256207Y-57403956D01*
X70079302Y-57402962D01*
X70147429Y-57422940D01*
G37*
%TD.AperFunction*%
%TD*%
M02*
