%TF.GenerationSoftware,KiCad,Pcbnew,(6.0.1)*%
%TF.CreationDate,2022-07-04T15:46:30-07:00*%
%TF.ProjectId,mu100-dit-connector-board,6d753130-302d-4646-9974-2d636f6e6e65,rev?*%
%TF.SameCoordinates,Original*%
%TF.FileFunction,Copper,L2,Bot*%
%TF.FilePolarity,Positive*%
%FSLAX46Y46*%
G04 Gerber Fmt 4.6, Leading zero omitted, Abs format (unit mm)*
G04 Created by KiCad (PCBNEW (6.0.1)) date 2022-07-04 15:46:30*
%MOMM*%
%LPD*%
G01*
G04 APERTURE LIST*
G04 Aperture macros list*
%AMRoundRect*
0 Rectangle with rounded corners*
0 $1 Rounding radius*
0 $2 $3 $4 $5 $6 $7 $8 $9 X,Y pos of 4 corners*
0 Add a 4 corners polygon primitive as box body*
4,1,4,$2,$3,$4,$5,$6,$7,$8,$9,$2,$3,0*
0 Add four circle primitives for the rounded corners*
1,1,$1+$1,$2,$3*
1,1,$1+$1,$4,$5*
1,1,$1+$1,$6,$7*
1,1,$1+$1,$8,$9*
0 Add four rect primitives between the rounded corners*
20,1,$1+$1,$2,$3,$4,$5,0*
20,1,$1+$1,$4,$5,$6,$7,0*
20,1,$1+$1,$6,$7,$8,$9,0*
20,1,$1+$1,$8,$9,$2,$3,0*%
G04 Aperture macros list end*
%TA.AperFunction,ComponentPad*%
%ADD10RoundRect,0.250000X0.350000X0.625000X-0.350000X0.625000X-0.350000X-0.625000X0.350000X-0.625000X0*%
%TD*%
%TA.AperFunction,ComponentPad*%
%ADD11O,1.200000X1.750000*%
%TD*%
%TA.AperFunction,ComponentPad*%
%ADD12O,1.200000X1.800000*%
%TD*%
%TA.AperFunction,ComponentPad*%
%ADD13RoundRect,0.250000X-0.350000X-0.650000X0.350000X-0.650000X0.350000X0.650000X-0.350000X0.650000X0*%
%TD*%
%TA.AperFunction,SMDPad,CuDef*%
%ADD14RoundRect,0.250000X-0.450000X0.350000X-0.450000X-0.350000X0.450000X-0.350000X0.450000X0.350000X0*%
%TD*%
%TA.AperFunction,ComponentPad*%
%ADD15O,1.350000X1.350000*%
%TD*%
%TA.AperFunction,ComponentPad*%
%ADD16R,1.350000X1.350000*%
%TD*%
%TA.AperFunction,SMDPad,CuDef*%
%ADD17RoundRect,0.250000X-0.475000X0.337500X-0.475000X-0.337500X0.475000X-0.337500X0.475000X0.337500X0*%
%TD*%
%TA.AperFunction,ViaPad*%
%ADD18C,0.800000*%
%TD*%
%TA.AperFunction,Conductor*%
%ADD19C,0.250000*%
%TD*%
%TA.AperFunction,Conductor*%
%ADD20C,0.400000*%
%TD*%
G04 APERTURE END LIST*
D10*
%TO.P,J3,1,Pin_1*%
%TO.N,unconnected-(J3-Pad1)*%
X90700000Y-68790000D03*
D11*
%TO.P,J3,2,Pin_2*%
%TO.N,+5V*%
X88700000Y-68790000D03*
%TO.P,J3,3,Pin_3*%
%TO.N,GND*%
X86700000Y-68790000D03*
%TO.P,J3,4,Pin_4*%
%TO.N,/MCLK*%
X84700000Y-68790000D03*
%TO.P,J3,5,Pin_5*%
%TO.N,GND*%
X82700000Y-68790000D03*
%TO.P,J3,6,Pin_6*%
%TO.N,/SDAT*%
X80700000Y-68790000D03*
%TO.P,J3,7,Pin_7*%
%TO.N,GND*%
X78700000Y-68790000D03*
%TO.P,J3,8,Pin_8*%
%TO.N,/BICK*%
X76700000Y-68790000D03*
%TO.P,J3,9,Pin_9*%
%TO.N,GND*%
X74700000Y-68790000D03*
%TO.P,J3,10,Pin_10*%
%TO.N,/LRCK*%
X72700000Y-68790000D03*
%TD*%
D12*
%TO.P,J2,17,Pin_17*%
%TO.N,+9VA*%
X97710000Y-60830000D03*
%TO.P,J2,16,Pin_16*%
%TO.N,GNDA*%
X95710000Y-60830000D03*
%TO.P,J2,15,Pin_15*%
%TO.N,/REB*%
X93710000Y-60830000D03*
%TO.P,J2,14,Pin_14*%
%TO.N,/REA*%
X91710000Y-60830000D03*
%TO.P,J2,13,Pin_13*%
%TO.N,/DACOL*%
X89710000Y-60830000D03*
%TO.P,J2,12,Pin_12*%
%TO.N,/WCLK*%
X87710000Y-60830000D03*
%TO.P,J2,11,Pin_11*%
%TO.N,/CK256*%
X85710000Y-60830000D03*
%TO.P,J2,10,Pin_10*%
%TO.N,unconnected-(J2-Pad10)*%
X83710000Y-60830000D03*
%TO.P,J2,9,Pin_9*%
%TO.N,/QCLK*%
X81710000Y-60830000D03*
%TO.P,J2,8,Pin_8*%
%TO.N,/SYOD*%
X79710000Y-60830000D03*
%TO.P,J2,7,Pin_7*%
%TO.N,/MEL00*%
X77710000Y-60830000D03*
%TO.P,J2,6,Pin_6*%
%TO.N,unconnected-(J2-Pad6)*%
X75710000Y-60830000D03*
%TO.P,J2,5,Pin_5*%
%TO.N,GND*%
X73710000Y-60830000D03*
%TO.P,J2,4,Pin_4*%
X71710000Y-60830000D03*
%TO.P,J2,3,Pin_3*%
%TO.N,+5V*%
X69710000Y-60830000D03*
%TO.P,J2,2,Pin_2*%
X67710000Y-60830000D03*
D13*
%TO.P,J2,1,Pin_1*%
%TO.N,/RER*%
X65710000Y-60830000D03*
%TD*%
D14*
%TO.P,R1,2*%
%TO.N,/MCLK*%
X85040000Y-66024000D03*
%TO.P,R1,1*%
%TO.N,/CK256*%
X85040000Y-64024000D03*
%TD*%
D15*
%TO.P,J1,17,Pin_17*%
%TO.N,+9VA*%
X97710000Y-57970000D03*
%TO.P,J1,16,Pin_16*%
%TO.N,GNDA*%
X95710000Y-57970000D03*
%TO.P,J1,15,Pin_15*%
%TO.N,/REB*%
X93710000Y-57970000D03*
%TO.P,J1,14,Pin_14*%
%TO.N,/REA*%
X91710000Y-57970000D03*
%TO.P,J1,13,Pin_13*%
%TO.N,/DACOL*%
X89710000Y-57970000D03*
%TO.P,J1,12,Pin_12*%
%TO.N,/WCLK*%
X87710000Y-57970000D03*
%TO.P,J1,11,Pin_11*%
%TO.N,/CK256*%
X85710000Y-57970000D03*
%TO.P,J1,10,Pin_10*%
%TO.N,unconnected-(J1-Pad10)*%
X83710000Y-57970000D03*
%TO.P,J1,9,Pin_9*%
%TO.N,/QCLK*%
X81710000Y-57970000D03*
%TO.P,J1,8,Pin_8*%
%TO.N,/SYOD*%
X79710000Y-57970000D03*
%TO.P,J1,7,Pin_7*%
%TO.N,/MEL00*%
X77710000Y-57970000D03*
%TO.P,J1,6,Pin_6*%
%TO.N,unconnected-(J1-Pad6)*%
X75710000Y-57970000D03*
%TO.P,J1,5,Pin_5*%
%TO.N,GND*%
X73710000Y-57970000D03*
%TO.P,J1,4,Pin_4*%
X71710000Y-57970000D03*
%TO.P,J1,3,Pin_3*%
%TO.N,+5V*%
X69710000Y-57970000D03*
%TO.P,J1,2,Pin_2*%
X67710000Y-57970000D03*
D16*
%TO.P,J1,1,Pin_1*%
%TO.N,/RER*%
X65710000Y-57970000D03*
%TD*%
D14*
%TO.P,R3,1*%
%TO.N,/DACOL*%
X81193332Y-64024000D03*
%TO.P,R3,2*%
%TO.N,/SDAT*%
X81193332Y-66024000D03*
%TD*%
D17*
%TO.P,C1,2*%
%TO.N,GND*%
X68630800Y-66111500D03*
%TO.P,C1,1*%
%TO.N,+5V*%
X68630800Y-64036500D03*
%TD*%
D14*
%TO.P,R2,2*%
%TO.N,/BICK*%
X77346666Y-66024000D03*
%TO.P,R2,1*%
%TO.N,/QCLK*%
X77346666Y-64024000D03*
%TD*%
%TO.P,R4,1*%
%TO.N,/WCLK*%
X73500000Y-64024000D03*
%TO.P,R4,2*%
%TO.N,/LRCK*%
X73500000Y-66024000D03*
%TD*%
D18*
%TO.N,GND*%
X69400000Y-68040000D03*
X71270000Y-63010000D03*
X71760000Y-64370000D03*
X71820000Y-66050000D03*
X70190000Y-70070000D03*
%TO.N,/WCLK*%
X75539600Y-62738000D03*
%TO.N,/DACOL*%
X82778600Y-63195200D03*
%TD*%
D19*
%TO.N,/DACOL*%
X81889800Y-64084000D02*
X80830000Y-64084000D01*
X82778600Y-63195200D02*
X81889800Y-64084000D01*
%TO.N,/WCLK*%
X74233600Y-64044000D02*
X73500000Y-64044000D01*
X75539600Y-62738000D02*
X74233600Y-64044000D01*
D20*
%TO.N,GND*%
X71526400Y-61013600D02*
X71710000Y-60830000D01*
%TO.N,+5V*%
X68630800Y-61909200D02*
X68630800Y-64036500D01*
X69710000Y-60830000D02*
X68630800Y-61909200D01*
X68630800Y-62129200D02*
X68630800Y-64036500D01*
X69460000Y-61300000D02*
X68630800Y-62129200D01*
X67710000Y-57970000D02*
X67710000Y-60830000D01*
D19*
%TO.N,/LRCK*%
X72700000Y-66824000D02*
X72700000Y-68440000D01*
X73500000Y-66024000D02*
X72700000Y-66824000D01*
D20*
%TO.N,+5V*%
X67710000Y-57970000D02*
X69710000Y-57970000D01*
X69710000Y-57970000D02*
X69710000Y-60830000D01*
D19*
%TO.N,/RER*%
X65710000Y-57970000D02*
X65710000Y-60830000D01*
%TO.N,/MEL00*%
X77710000Y-57970000D02*
X77710000Y-60830000D01*
%TO.N,/SYOD*%
X79710000Y-57970000D02*
X79710000Y-60830000D01*
%TO.N,/QCLK*%
X77610000Y-63199000D02*
X77610000Y-64054000D01*
X81710000Y-61292000D02*
X80518000Y-62484000D01*
X80518000Y-62484000D02*
X78325000Y-62484000D01*
X81710000Y-60830000D02*
X81710000Y-61292000D01*
X78325000Y-62484000D02*
X77610000Y-63199000D01*
X81710000Y-57970000D02*
X81710000Y-60830000D01*
%TO.N,/CK256*%
X85710000Y-63354000D02*
X85040000Y-64024000D01*
X85710000Y-60830000D02*
X85710000Y-60530000D01*
X85710000Y-60830000D02*
X85710000Y-57970000D01*
X85710000Y-60830000D02*
X85710000Y-63354000D01*
%TO.N,/WCLK*%
X87710000Y-57970000D02*
X87710000Y-60830000D01*
%TO.N,/DACOL*%
X89710000Y-57970000D02*
X89710000Y-60830000D01*
%TO.N,/REA*%
X91710000Y-57970000D02*
X91710000Y-60830000D01*
%TO.N,/REB*%
X93710000Y-57970000D02*
X93710000Y-60830000D01*
D20*
%TO.N,GNDA*%
X95710000Y-57970000D02*
X95710000Y-60830000D01*
%TO.N,+9VA*%
X97710000Y-57970000D02*
X97710000Y-60830000D01*
D19*
%TO.N,/MCLK*%
X84700000Y-65990000D02*
X84700000Y-68440000D01*
X85040000Y-65650000D02*
X84700000Y-65990000D01*
%TO.N,/SDAT*%
X80700000Y-65840000D02*
X80700000Y-68440000D01*
X80830000Y-65710000D02*
X80700000Y-65840000D01*
%TO.N,/BICK*%
X76700000Y-66590000D02*
X76700000Y-68440000D01*
X77610000Y-65680000D02*
X76700000Y-66590000D01*
%TO.N,/LRCK*%
X73500000Y-65670000D02*
X73305000Y-65670000D01*
%TD*%
%TA.AperFunction,Conductor*%
%TO.N,GND*%
G36*
X74200000Y-57574953D02*
G01*
X74195000Y-57575000D01*
X74195000Y-60775000D01*
X74200000Y-60775031D01*
X74200000Y-62300000D01*
X71200000Y-62300000D01*
X71200000Y-57500000D01*
X74200000Y-57500000D01*
X74200000Y-57574953D01*
G37*
%TD.AperFunction*%
%TD*%
%TA.AperFunction,Conductor*%
%TO.N,+5V*%
G36*
X70156845Y-57409773D02*
G01*
X70224929Y-57429899D01*
X70271325Y-57483639D01*
X70282613Y-57534954D01*
X70307025Y-61288653D01*
X70296337Y-61340261D01*
X69367400Y-63449200D01*
X69367400Y-64489409D01*
X69347398Y-64557530D01*
X69293742Y-64604023D01*
X69239228Y-64615390D01*
X68018028Y-64594335D01*
X67950262Y-64573162D01*
X67904701Y-64518713D01*
X67894200Y-64468354D01*
X67894200Y-63423800D01*
X67175683Y-61310701D01*
X67168977Y-61269350D01*
X67192370Y-57529828D01*
X67212798Y-57461834D01*
X67266744Y-57415677D01*
X67318597Y-57404616D01*
X70156845Y-57409773D01*
G37*
%TD.AperFunction*%
%TD*%
%TA.AperFunction,Conductor*%
%TO.N,GND*%
G36*
X71380000Y-56780000D02*
G01*
X66100000Y-56780000D01*
X66100000Y-56500000D01*
X71380000Y-56500000D01*
X71380000Y-56780000D01*
G37*
%TD.AperFunction*%
%TD*%
%TA.AperFunction,Conductor*%
%TO.N,GND*%
G36*
X66395600Y-56783317D02*
G01*
X66373463Y-56786500D01*
X64986866Y-56786500D01*
X64924684Y-56793255D01*
X64788295Y-56844385D01*
X64671739Y-56931739D01*
X64584385Y-57048295D01*
X64533255Y-57184684D01*
X64526500Y-57246866D01*
X64526500Y-58693134D01*
X64533255Y-58755316D01*
X64584385Y-58891705D01*
X64671739Y-59008261D01*
X64788295Y-59095615D01*
X64924684Y-59146745D01*
X64951914Y-59149703D01*
X64964108Y-59151028D01*
X65029670Y-59178270D01*
X65070096Y-59236634D01*
X65076500Y-59276291D01*
X65076500Y-59393219D01*
X65056498Y-59461340D01*
X65016803Y-59500363D01*
X64885652Y-59581522D01*
X64760695Y-59706697D01*
X64756855Y-59712927D01*
X64756854Y-59712928D01*
X64675320Y-59845201D01*
X64667885Y-59857262D01*
X64612203Y-60025139D01*
X64601500Y-60129600D01*
X64601500Y-61530400D01*
X64612474Y-61636166D01*
X64614655Y-61642702D01*
X64614655Y-61642704D01*
X64647603Y-61741460D01*
X64668450Y-61803946D01*
X64761522Y-61954348D01*
X64886697Y-62079305D01*
X64892927Y-62083145D01*
X64892928Y-62083146D01*
X65000751Y-62149609D01*
X65037262Y-62172115D01*
X65117005Y-62198564D01*
X65198611Y-62225632D01*
X65198613Y-62225632D01*
X65205139Y-62227797D01*
X65211975Y-62228497D01*
X65211978Y-62228498D01*
X65250386Y-62232433D01*
X65309600Y-62238500D01*
X66110400Y-62238500D01*
X66113646Y-62238163D01*
X66113650Y-62238163D01*
X66209308Y-62228238D01*
X66209312Y-62228237D01*
X66216166Y-62227526D01*
X66222702Y-62225345D01*
X66222704Y-62225345D01*
X66301310Y-62199120D01*
X66372260Y-62196536D01*
X66433344Y-62232720D01*
X66462269Y-62283787D01*
X67360800Y-65405000D01*
X67368406Y-65405000D01*
X67416720Y-65447314D01*
X67436361Y-65515539D01*
X67429956Y-65554540D01*
X67410663Y-65612707D01*
X67407795Y-65626086D01*
X67398128Y-65720438D01*
X67397800Y-65726855D01*
X67397800Y-65839385D01*
X67402275Y-65854624D01*
X67403665Y-65855829D01*
X67411348Y-65857500D01*
X69845684Y-65857500D01*
X69860923Y-65853025D01*
X69862128Y-65851635D01*
X69863799Y-65843952D01*
X69863799Y-65726905D01*
X69863462Y-65720386D01*
X69853543Y-65624794D01*
X69850651Y-65611400D01*
X69799209Y-65457208D01*
X69798190Y-65455032D01*
X69797939Y-65453402D01*
X69796894Y-65450268D01*
X69797430Y-65450089D01*
X69787406Y-65384859D01*
X69796433Y-65352055D01*
X70806376Y-62989510D01*
X71132557Y-62226479D01*
X71177725Y-62171704D01*
X71245337Y-62150044D01*
X71289748Y-62156978D01*
X71440727Y-62209407D01*
X71441716Y-62209648D01*
X71452008Y-62208180D01*
X71456000Y-62194615D01*
X71456000Y-62190402D01*
X71964000Y-62190402D01*
X71967973Y-62203933D01*
X71977399Y-62205288D01*
X72066537Y-62183806D01*
X72077832Y-62179917D01*
X72259382Y-62097371D01*
X72269724Y-62091424D01*
X72432397Y-61976032D01*
X72441425Y-61968239D01*
X72579342Y-61824169D01*
X72586742Y-61814799D01*
X72604705Y-61786979D01*
X72658460Y-61740601D01*
X72728756Y-61730647D01*
X72793273Y-61760278D01*
X72809643Y-61777493D01*
X72900262Y-61892857D01*
X72908499Y-61901506D01*
X73059123Y-62032212D01*
X73068847Y-62039147D01*
X73241467Y-62139010D01*
X73252331Y-62143984D01*
X73440727Y-62209407D01*
X73441716Y-62209648D01*
X73452008Y-62208180D01*
X73456000Y-62194615D01*
X73456000Y-61102115D01*
X73451525Y-61086876D01*
X73450135Y-61085671D01*
X73442452Y-61084000D01*
X71982115Y-61084000D01*
X71966876Y-61088475D01*
X71965671Y-61089865D01*
X71964000Y-61097548D01*
X71964000Y-62190402D01*
X71456000Y-62190402D01*
X71456000Y-60557885D01*
X71964000Y-60557885D01*
X71968475Y-60573124D01*
X71969865Y-60574329D01*
X71977548Y-60576000D01*
X73437885Y-60576000D01*
X73453124Y-60571525D01*
X73454329Y-60570135D01*
X73456000Y-60562452D01*
X73456000Y-59469598D01*
X73452027Y-59456067D01*
X73442601Y-59454712D01*
X73353463Y-59476194D01*
X73342168Y-59480083D01*
X73160618Y-59562629D01*
X73150276Y-59568576D01*
X72987603Y-59683968D01*
X72978575Y-59691761D01*
X72840658Y-59835831D01*
X72833258Y-59845201D01*
X72815295Y-59873021D01*
X72761540Y-59919399D01*
X72691244Y-59929353D01*
X72626727Y-59899722D01*
X72610357Y-59882507D01*
X72519738Y-59767143D01*
X72511501Y-59758494D01*
X72360877Y-59627788D01*
X72351153Y-59620853D01*
X72178533Y-59520990D01*
X72167669Y-59516016D01*
X71979273Y-59450593D01*
X71978284Y-59450352D01*
X71967992Y-59451820D01*
X71964000Y-59465385D01*
X71964000Y-60557885D01*
X71456000Y-60557885D01*
X71456000Y-59469598D01*
X71452027Y-59456067D01*
X71442601Y-59454712D01*
X71351721Y-59476614D01*
X71280810Y-59473129D01*
X71223040Y-59431859D01*
X71196753Y-59365908D01*
X71196200Y-59354121D01*
X71196200Y-59224429D01*
X71216202Y-59156308D01*
X71269858Y-59109815D01*
X71340132Y-59099711D01*
X71350007Y-59101536D01*
X71438331Y-59121521D01*
X71452405Y-59120632D01*
X71456000Y-59111233D01*
X71456000Y-59110512D01*
X71964000Y-59110512D01*
X71967966Y-59124018D01*
X71981883Y-59126011D01*
X71992817Y-59123386D01*
X72187763Y-59057210D01*
X72198272Y-59052531D01*
X72377882Y-58951944D01*
X72387375Y-58945420D01*
X72545653Y-58813782D01*
X72553782Y-58805653D01*
X72610249Y-58737759D01*
X72669187Y-58698175D01*
X72740169Y-58696739D01*
X72802938Y-58736502D01*
X72810724Y-58745619D01*
X72958191Y-58889275D01*
X72967124Y-58896509D01*
X73138299Y-59010884D01*
X73148409Y-59016374D01*
X73337566Y-59097642D01*
X73348499Y-59101194D01*
X73438332Y-59121521D01*
X73452405Y-59120632D01*
X73456000Y-59111233D01*
X73456000Y-58242115D01*
X73451525Y-58226876D01*
X73450135Y-58225671D01*
X73442452Y-58224000D01*
X71982115Y-58224000D01*
X71966876Y-58228475D01*
X71965671Y-58229865D01*
X71964000Y-58237548D01*
X71964000Y-59110512D01*
X71456000Y-59110512D01*
X71456000Y-57697885D01*
X71964000Y-57697885D01*
X71968475Y-57713124D01*
X71969865Y-57714329D01*
X71977548Y-57716000D01*
X73437885Y-57716000D01*
X73453124Y-57711525D01*
X73454329Y-57710135D01*
X73456000Y-57702452D01*
X73456000Y-56831337D01*
X73452194Y-56818375D01*
X73437278Y-56816439D01*
X73408202Y-56821435D01*
X73397082Y-56824415D01*
X73203940Y-56895669D01*
X73193562Y-56900619D01*
X73016639Y-57005877D01*
X73007327Y-57012643D01*
X72852547Y-57148381D01*
X72844629Y-57156725D01*
X72809996Y-57200656D01*
X72752115Y-57241768D01*
X72681195Y-57245062D01*
X72619752Y-57209490D01*
X72610088Y-57198037D01*
X72596363Y-57179656D01*
X72588662Y-57171103D01*
X72437490Y-57031361D01*
X72428365Y-57024360D01*
X72254255Y-56914505D01*
X72244008Y-56909284D01*
X72052793Y-56832997D01*
X72041767Y-56829730D01*
X71981770Y-56817797D01*
X71968894Y-56818949D01*
X71964000Y-56834102D01*
X71964000Y-57697885D01*
X71456000Y-57697885D01*
X71456000Y-56831337D01*
X71452194Y-56818375D01*
X71437278Y-56816439D01*
X71408202Y-56821435D01*
X71397078Y-56824416D01*
X71349315Y-56842036D01*
X71278481Y-56846848D01*
X71216291Y-56812600D01*
X71206074Y-56795309D01*
X71196200Y-56786753D01*
X71196200Y-56508000D01*
X93974000Y-56508000D01*
X94042121Y-56528002D01*
X94088614Y-56581658D01*
X94100000Y-56634000D01*
X94100000Y-56687273D01*
X94079998Y-56755394D01*
X94026342Y-56801887D01*
X93949419Y-56810852D01*
X93834239Y-56787941D01*
X93828464Y-56787865D01*
X93828460Y-56787865D01*
X93719419Y-56786438D01*
X93616746Y-56785094D01*
X93611049Y-56786073D01*
X93611048Y-56786073D01*
X93408065Y-56820952D01*
X93408062Y-56820953D01*
X93402375Y-56821930D01*
X93198307Y-56897214D01*
X93011376Y-57008427D01*
X92847842Y-57151842D01*
X92844270Y-57156372D01*
X92844269Y-57156374D01*
X92810007Y-57199834D01*
X92752125Y-57240947D01*
X92681205Y-57244239D01*
X92619763Y-57208667D01*
X92610100Y-57197215D01*
X92596737Y-57179319D01*
X92596730Y-57179312D01*
X92593280Y-57174691D01*
X92589044Y-57170775D01*
X92437796Y-57030963D01*
X92437793Y-57030961D01*
X92433556Y-57027044D01*
X92249599Y-56910976D01*
X92047572Y-56830376D01*
X91834239Y-56787941D01*
X91828464Y-56787865D01*
X91828460Y-56787865D01*
X91719419Y-56786438D01*
X91616746Y-56785094D01*
X91611049Y-56786073D01*
X91611048Y-56786073D01*
X91408065Y-56820952D01*
X91408062Y-56820953D01*
X91402375Y-56821930D01*
X91198307Y-56897214D01*
X91011376Y-57008427D01*
X90847842Y-57151842D01*
X90844270Y-57156372D01*
X90844269Y-57156374D01*
X90810007Y-57199834D01*
X90752125Y-57240947D01*
X90681205Y-57244239D01*
X90619763Y-57208667D01*
X90610100Y-57197215D01*
X90596737Y-57179319D01*
X90596730Y-57179312D01*
X90593280Y-57174691D01*
X90589044Y-57170775D01*
X90437796Y-57030963D01*
X90437793Y-57030961D01*
X90433556Y-57027044D01*
X90249599Y-56910976D01*
X90047572Y-56830376D01*
X89834239Y-56787941D01*
X89828464Y-56787865D01*
X89828460Y-56787865D01*
X89719419Y-56786438D01*
X89616746Y-56785094D01*
X89611049Y-56786073D01*
X89611048Y-56786073D01*
X89408065Y-56820952D01*
X89408062Y-56820953D01*
X89402375Y-56821930D01*
X89198307Y-56897214D01*
X89011376Y-57008427D01*
X88847842Y-57151842D01*
X88844270Y-57156372D01*
X88844269Y-57156374D01*
X88810007Y-57199834D01*
X88752125Y-57240947D01*
X88681205Y-57244239D01*
X88619763Y-57208667D01*
X88610100Y-57197215D01*
X88596737Y-57179319D01*
X88596730Y-57179312D01*
X88593280Y-57174691D01*
X88589044Y-57170775D01*
X88437796Y-57030963D01*
X88437793Y-57030961D01*
X88433556Y-57027044D01*
X88249599Y-56910976D01*
X88047572Y-56830376D01*
X87834239Y-56787941D01*
X87828464Y-56787865D01*
X87828460Y-56787865D01*
X87719419Y-56786438D01*
X87616746Y-56785094D01*
X87611049Y-56786073D01*
X87611048Y-56786073D01*
X87408065Y-56820952D01*
X87408062Y-56820953D01*
X87402375Y-56821930D01*
X87198307Y-56897214D01*
X87011376Y-57008427D01*
X86847842Y-57151842D01*
X86844270Y-57156372D01*
X86844269Y-57156374D01*
X86810007Y-57199834D01*
X86752125Y-57240947D01*
X86681205Y-57244239D01*
X86619763Y-57208667D01*
X86610100Y-57197215D01*
X86596737Y-57179319D01*
X86596730Y-57179312D01*
X86593280Y-57174691D01*
X86589044Y-57170775D01*
X86437796Y-57030963D01*
X86437793Y-57030961D01*
X86433556Y-57027044D01*
X86249599Y-56910976D01*
X86047572Y-56830376D01*
X85834239Y-56787941D01*
X85828464Y-56787865D01*
X85828460Y-56787865D01*
X85719419Y-56786438D01*
X85616746Y-56785094D01*
X85611049Y-56786073D01*
X85611048Y-56786073D01*
X85408065Y-56820952D01*
X85408062Y-56820953D01*
X85402375Y-56821930D01*
X85198307Y-56897214D01*
X85011376Y-57008427D01*
X84847842Y-57151842D01*
X84844270Y-57156372D01*
X84844269Y-57156374D01*
X84810007Y-57199834D01*
X84752125Y-57240947D01*
X84681205Y-57244239D01*
X84619763Y-57208667D01*
X84610100Y-57197215D01*
X84596737Y-57179319D01*
X84596730Y-57179312D01*
X84593280Y-57174691D01*
X84589044Y-57170775D01*
X84437796Y-57030963D01*
X84437793Y-57030961D01*
X84433556Y-57027044D01*
X84249599Y-56910976D01*
X84047572Y-56830376D01*
X83834239Y-56787941D01*
X83828464Y-56787865D01*
X83828460Y-56787865D01*
X83719419Y-56786438D01*
X83616746Y-56785094D01*
X83611049Y-56786073D01*
X83611048Y-56786073D01*
X83408065Y-56820952D01*
X83408062Y-56820953D01*
X83402375Y-56821930D01*
X83198307Y-56897214D01*
X83011376Y-57008427D01*
X82847842Y-57151842D01*
X82844270Y-57156372D01*
X82844269Y-57156374D01*
X82810007Y-57199834D01*
X82752125Y-57240947D01*
X82681205Y-57244239D01*
X82619763Y-57208667D01*
X82610100Y-57197215D01*
X82596737Y-57179319D01*
X82596730Y-57179312D01*
X82593280Y-57174691D01*
X82589044Y-57170775D01*
X82437796Y-57030963D01*
X82437793Y-57030961D01*
X82433556Y-57027044D01*
X82249599Y-56910976D01*
X82047572Y-56830376D01*
X81834239Y-56787941D01*
X81828464Y-56787865D01*
X81828460Y-56787865D01*
X81719419Y-56786438D01*
X81616746Y-56785094D01*
X81611049Y-56786073D01*
X81611048Y-56786073D01*
X81408065Y-56820952D01*
X81408062Y-56820953D01*
X81402375Y-56821930D01*
X81198307Y-56897214D01*
X81011376Y-57008427D01*
X80847842Y-57151842D01*
X80844270Y-57156372D01*
X80844269Y-57156374D01*
X80810007Y-57199834D01*
X80752125Y-57240947D01*
X80681205Y-57244239D01*
X80619763Y-57208667D01*
X80610100Y-57197215D01*
X80596737Y-57179319D01*
X80596730Y-57179312D01*
X80593280Y-57174691D01*
X80589044Y-57170775D01*
X80437796Y-57030963D01*
X80437793Y-57030961D01*
X80433556Y-57027044D01*
X80249599Y-56910976D01*
X80047572Y-56830376D01*
X79834239Y-56787941D01*
X79828464Y-56787865D01*
X79828460Y-56787865D01*
X79719419Y-56786438D01*
X79616746Y-56785094D01*
X79611049Y-56786073D01*
X79611048Y-56786073D01*
X79408065Y-56820952D01*
X79408062Y-56820953D01*
X79402375Y-56821930D01*
X79198307Y-56897214D01*
X79011376Y-57008427D01*
X78847842Y-57151842D01*
X78844270Y-57156372D01*
X78844269Y-57156374D01*
X78810007Y-57199834D01*
X78752125Y-57240947D01*
X78681205Y-57244239D01*
X78619763Y-57208667D01*
X78610100Y-57197215D01*
X78596737Y-57179319D01*
X78596730Y-57179312D01*
X78593280Y-57174691D01*
X78589044Y-57170775D01*
X78437796Y-57030963D01*
X78437793Y-57030961D01*
X78433556Y-57027044D01*
X78249599Y-56910976D01*
X78047572Y-56830376D01*
X77834239Y-56787941D01*
X77828464Y-56787865D01*
X77828460Y-56787865D01*
X77719419Y-56786438D01*
X77616746Y-56785094D01*
X77611049Y-56786073D01*
X77611048Y-56786073D01*
X77408065Y-56820952D01*
X77408062Y-56820953D01*
X77402375Y-56821930D01*
X77198307Y-56897214D01*
X77011376Y-57008427D01*
X76847842Y-57151842D01*
X76844270Y-57156372D01*
X76844269Y-57156374D01*
X76810007Y-57199834D01*
X76752125Y-57240947D01*
X76681205Y-57244239D01*
X76619763Y-57208667D01*
X76610100Y-57197215D01*
X76596737Y-57179319D01*
X76596730Y-57179312D01*
X76593280Y-57174691D01*
X76589044Y-57170775D01*
X76437796Y-57030963D01*
X76437793Y-57030961D01*
X76433556Y-57027044D01*
X76249599Y-56910976D01*
X76047572Y-56830376D01*
X75834239Y-56787941D01*
X75828464Y-56787865D01*
X75828460Y-56787865D01*
X75719419Y-56786438D01*
X75616746Y-56785094D01*
X75611049Y-56786073D01*
X75611048Y-56786073D01*
X75408065Y-56820952D01*
X75408062Y-56820953D01*
X75402375Y-56821930D01*
X75198307Y-56897214D01*
X75011376Y-57008427D01*
X74847842Y-57151842D01*
X74844270Y-57156373D01*
X74809688Y-57200240D01*
X74751807Y-57241353D01*
X74680887Y-57244647D01*
X74619444Y-57209075D01*
X74609780Y-57197622D01*
X74596364Y-57179655D01*
X74588671Y-57171111D01*
X74437490Y-57031361D01*
X74428365Y-57024360D01*
X74254255Y-56914505D01*
X74244008Y-56909284D01*
X74052793Y-56832997D01*
X74041767Y-56829730D01*
X73981770Y-56817797D01*
X73968894Y-56818949D01*
X73964000Y-56834102D01*
X73964000Y-59110512D01*
X73967966Y-59124018D01*
X73981883Y-59126011D01*
X73992821Y-59123385D01*
X74028499Y-59111274D01*
X74099434Y-59108318D01*
X74160707Y-59144182D01*
X74192863Y-59207478D01*
X74195000Y-59230587D01*
X74195000Y-59348371D01*
X74174998Y-59416492D01*
X74121342Y-59462985D01*
X74051068Y-59473089D01*
X74027666Y-59467398D01*
X73979279Y-59450595D01*
X73978284Y-59450352D01*
X73967992Y-59451820D01*
X73964000Y-59465385D01*
X73964000Y-62190402D01*
X73967973Y-62203933D01*
X73977399Y-62205288D01*
X74066537Y-62183806D01*
X74077832Y-62179917D01*
X74259382Y-62097371D01*
X74269724Y-62091424D01*
X74432397Y-61976032D01*
X74441425Y-61968239D01*
X74579342Y-61824169D01*
X74586741Y-61814800D01*
X74604418Y-61787423D01*
X74658172Y-61741045D01*
X74728468Y-61731091D01*
X74792985Y-61760722D01*
X74809356Y-61777937D01*
X74903604Y-61897920D01*
X74908133Y-61901850D01*
X74910853Y-61904706D01*
X74943345Y-61967831D01*
X74936552Y-62038502D01*
X74913245Y-62075907D01*
X74800560Y-62201056D01*
X74705073Y-62366444D01*
X74646058Y-62548072D01*
X74629356Y-62706988D01*
X74628693Y-62713293D01*
X74601680Y-62778950D01*
X74592478Y-62789218D01*
X74421147Y-62960549D01*
X74358835Y-62994575D01*
X74288020Y-62989510D01*
X74278933Y-62985704D01*
X74272738Y-62981885D01*
X74265786Y-62979579D01*
X74111389Y-62928368D01*
X74111387Y-62928368D01*
X74104861Y-62926203D01*
X74098025Y-62925503D01*
X74098022Y-62925502D01*
X74054969Y-62921091D01*
X74000400Y-62915500D01*
X72999600Y-62915500D01*
X72996354Y-62915837D01*
X72996350Y-62915837D01*
X72900692Y-62925762D01*
X72900688Y-62925763D01*
X72893834Y-62926474D01*
X72887298Y-62928655D01*
X72887296Y-62928655D01*
X72861819Y-62937155D01*
X72726054Y-62982450D01*
X72575652Y-63075522D01*
X72450695Y-63200697D01*
X72446855Y-63206927D01*
X72446854Y-63206928D01*
X72374613Y-63324125D01*
X72357885Y-63351262D01*
X72350324Y-63374057D01*
X72316228Y-63476856D01*
X72302203Y-63519139D01*
X72301503Y-63525975D01*
X72301502Y-63525978D01*
X72292120Y-63617551D01*
X72291500Y-63623600D01*
X72291500Y-64424400D01*
X72291837Y-64427646D01*
X72291837Y-64427650D01*
X72301629Y-64522021D01*
X72302474Y-64530166D01*
X72358450Y-64697946D01*
X72451522Y-64848348D01*
X72456704Y-64853521D01*
X72538109Y-64934784D01*
X72572188Y-64997066D01*
X72567185Y-65067886D01*
X72538264Y-65112975D01*
X72518773Y-65132500D01*
X72450695Y-65200697D01*
X72357885Y-65351262D01*
X72302203Y-65519139D01*
X72291500Y-65623600D01*
X72291500Y-66283691D01*
X72271498Y-66351812D01*
X72257352Y-66369942D01*
X72246357Y-66381651D01*
X72243600Y-66384495D01*
X72223865Y-66404230D01*
X72221385Y-66407427D01*
X72213682Y-66416447D01*
X72183414Y-66448679D01*
X72179595Y-66455625D01*
X72179593Y-66455628D01*
X72173652Y-66466434D01*
X72162801Y-66482953D01*
X72150386Y-66498959D01*
X72147241Y-66506228D01*
X72147238Y-66506232D01*
X72132826Y-66539537D01*
X72127609Y-66550187D01*
X72106305Y-66588940D01*
X72104334Y-66596615D01*
X72104334Y-66596616D01*
X72101267Y-66608562D01*
X72094863Y-66627266D01*
X72086819Y-66645855D01*
X72085580Y-66653678D01*
X72085577Y-66653688D01*
X72079901Y-66689524D01*
X72077495Y-66701144D01*
X72077027Y-66702968D01*
X72066500Y-66743970D01*
X72066500Y-66764224D01*
X72064949Y-66783934D01*
X72061780Y-66803943D01*
X72062526Y-66811835D01*
X72065941Y-66847961D01*
X72066500Y-66859819D01*
X72066500Y-67540193D01*
X72046498Y-67608314D01*
X72013399Y-67642963D01*
X71977280Y-67668584D01*
X71977276Y-67668587D01*
X71972389Y-67672054D01*
X71826119Y-67824850D01*
X71711380Y-68002548D01*
X71632314Y-68198737D01*
X71591772Y-68406337D01*
X71591500Y-68411899D01*
X71591500Y-69117846D01*
X71606548Y-69275566D01*
X71666092Y-69478534D01*
X71668836Y-69483861D01*
X71668836Y-69483862D01*
X71716491Y-69576389D01*
X71762942Y-69666580D01*
X71893604Y-69832920D01*
X71898135Y-69836852D01*
X71898138Y-69836855D01*
X71983620Y-69911032D01*
X72053363Y-69971552D01*
X72058549Y-69974552D01*
X72058553Y-69974555D01*
X72154957Y-70030326D01*
X72236454Y-70077473D01*
X72436271Y-70146861D01*
X72442206Y-70147722D01*
X72442208Y-70147722D01*
X72639664Y-70176352D01*
X72639667Y-70176352D01*
X72645604Y-70177213D01*
X72856899Y-70167433D01*
X72988077Y-70135819D01*
X73056701Y-70119281D01*
X73056703Y-70119280D01*
X73062534Y-70117875D01*
X73067992Y-70115393D01*
X73067996Y-70115392D01*
X73183041Y-70063084D01*
X73255087Y-70030326D01*
X73427611Y-69907946D01*
X73573881Y-69755150D01*
X73577130Y-69750119D01*
X73577135Y-69750112D01*
X73595033Y-69722393D01*
X73648789Y-69676016D01*
X73719085Y-69666063D01*
X73783602Y-69695696D01*
X73799970Y-69712909D01*
X73890262Y-69827857D01*
X73898499Y-69836506D01*
X74049123Y-69967212D01*
X74058847Y-69974147D01*
X74231467Y-70074010D01*
X74242331Y-70078984D01*
X74430727Y-70144407D01*
X74431716Y-70144648D01*
X74442008Y-70143180D01*
X74446000Y-70129615D01*
X74446000Y-67454598D01*
X74442027Y-67441067D01*
X74432601Y-67439712D01*
X74343463Y-67461194D01*
X74332168Y-67465083D01*
X74150618Y-67547629D01*
X74140276Y-67553576D01*
X73977603Y-67668968D01*
X73968575Y-67676761D01*
X73830658Y-67820831D01*
X73823259Y-67830200D01*
X73805582Y-67857577D01*
X73751828Y-67903955D01*
X73681532Y-67913909D01*
X73617015Y-67884278D01*
X73600644Y-67867063D01*
X73510102Y-67751798D01*
X73506396Y-67747080D01*
X73376918Y-67634725D01*
X73338579Y-67574973D01*
X73333500Y-67539561D01*
X73333500Y-67258500D01*
X73353502Y-67190379D01*
X73407158Y-67143886D01*
X73459500Y-67132500D01*
X74000400Y-67132500D01*
X74003646Y-67132163D01*
X74003650Y-67132163D01*
X74099308Y-67122238D01*
X74099312Y-67122237D01*
X74106166Y-67121526D01*
X74112702Y-67119345D01*
X74112704Y-67119345D01*
X74266998Y-67067868D01*
X74273946Y-67065550D01*
X74424348Y-66972478D01*
X74549305Y-66847303D01*
X74576033Y-66803943D01*
X74638275Y-66702968D01*
X74638276Y-66702966D01*
X74642115Y-66696738D01*
X74697797Y-66528861D01*
X74708500Y-66424400D01*
X74708500Y-65623600D01*
X74697526Y-65517834D01*
X74674925Y-65450089D01*
X74643868Y-65357002D01*
X74641550Y-65350054D01*
X74548478Y-65199652D01*
X74461891Y-65113216D01*
X74427812Y-65050934D01*
X74432815Y-64980114D01*
X74461736Y-64935025D01*
X74544134Y-64852483D01*
X74549305Y-64847303D01*
X74642115Y-64696738D01*
X74697797Y-64528861D01*
X74699298Y-64514211D01*
X74726139Y-64448484D01*
X74735547Y-64437957D01*
X75490101Y-63683404D01*
X75552413Y-63649379D01*
X75579196Y-63646500D01*
X75635087Y-63646500D01*
X75641539Y-63645128D01*
X75641544Y-63645128D01*
X75742822Y-63623600D01*
X75821888Y-63606794D01*
X75827915Y-63604111D01*
X75827923Y-63604108D01*
X75960918Y-63544895D01*
X76031285Y-63535461D01*
X76095582Y-63565568D01*
X76133395Y-63625657D01*
X76138166Y-63660002D01*
X76138166Y-64424400D01*
X76138503Y-64427646D01*
X76138503Y-64427650D01*
X76148295Y-64522021D01*
X76149140Y-64530166D01*
X76205116Y-64697946D01*
X76298188Y-64848348D01*
X76303370Y-64853521D01*
X76384775Y-64934784D01*
X76418854Y-64997066D01*
X76413851Y-65067886D01*
X76384930Y-65112975D01*
X76365439Y-65132500D01*
X76297361Y-65200697D01*
X76204551Y-65351262D01*
X76148869Y-65519139D01*
X76138166Y-65623600D01*
X76138166Y-66264634D01*
X76122582Y-66325333D01*
X76106305Y-66354940D01*
X76104334Y-66362615D01*
X76104334Y-66362616D01*
X76101267Y-66374562D01*
X76094863Y-66393266D01*
X76090119Y-66404230D01*
X76086819Y-66411855D01*
X76085580Y-66419678D01*
X76085577Y-66419688D01*
X76079901Y-66455524D01*
X76077495Y-66467144D01*
X76070934Y-66492699D01*
X76066500Y-66509970D01*
X76066500Y-66530224D01*
X76064949Y-66549934D01*
X76061780Y-66569943D01*
X76062526Y-66577835D01*
X76065941Y-66613961D01*
X76066500Y-66625819D01*
X76066500Y-67540193D01*
X76046498Y-67608314D01*
X76013399Y-67642963D01*
X75977280Y-67668584D01*
X75977276Y-67668587D01*
X75972389Y-67672054D01*
X75826119Y-67824850D01*
X75822870Y-67829881D01*
X75822865Y-67829888D01*
X75804967Y-67857607D01*
X75751211Y-67903984D01*
X75680915Y-67913937D01*
X75616398Y-67884304D01*
X75600030Y-67867091D01*
X75509738Y-67752143D01*
X75501501Y-67743494D01*
X75350877Y-67612788D01*
X75341153Y-67605853D01*
X75168533Y-67505990D01*
X75157669Y-67501016D01*
X74969273Y-67435593D01*
X74968284Y-67435352D01*
X74957992Y-67436820D01*
X74954000Y-67450385D01*
X74954000Y-70125402D01*
X74957973Y-70138933D01*
X74967399Y-70140288D01*
X75056537Y-70118806D01*
X75067832Y-70114917D01*
X75249382Y-70032371D01*
X75259724Y-70026424D01*
X75422397Y-69911032D01*
X75431425Y-69903239D01*
X75569342Y-69759169D01*
X75576741Y-69749800D01*
X75594418Y-69722423D01*
X75648172Y-69676045D01*
X75718468Y-69666091D01*
X75782985Y-69695722D01*
X75799356Y-69712937D01*
X75893604Y-69832920D01*
X75898135Y-69836852D01*
X75898138Y-69836855D01*
X75983620Y-69911032D01*
X76053363Y-69971552D01*
X76058549Y-69974552D01*
X76058553Y-69974555D01*
X76154957Y-70030326D01*
X76236454Y-70077473D01*
X76436271Y-70146861D01*
X76442206Y-70147722D01*
X76442208Y-70147722D01*
X76639664Y-70176352D01*
X76639667Y-70176352D01*
X76645604Y-70177213D01*
X76856899Y-70167433D01*
X76988077Y-70135819D01*
X77056701Y-70119281D01*
X77056703Y-70119280D01*
X77062534Y-70117875D01*
X77067992Y-70115393D01*
X77067996Y-70115392D01*
X77183041Y-70063084D01*
X77255087Y-70030326D01*
X77427611Y-69907946D01*
X77573881Y-69755150D01*
X77577130Y-69750119D01*
X77577135Y-69750112D01*
X77595033Y-69722393D01*
X77648789Y-69676016D01*
X77719085Y-69666063D01*
X77783602Y-69695696D01*
X77799970Y-69712909D01*
X77890262Y-69827857D01*
X77898499Y-69836506D01*
X78049123Y-69967212D01*
X78058847Y-69974147D01*
X78231467Y-70074010D01*
X78242331Y-70078984D01*
X78430727Y-70144407D01*
X78431716Y-70144648D01*
X78442008Y-70143180D01*
X78446000Y-70129615D01*
X78446000Y-67454598D01*
X78442027Y-67441067D01*
X78432601Y-67439712D01*
X78343463Y-67461194D01*
X78332168Y-67465083D01*
X78150618Y-67547629D01*
X78140276Y-67553576D01*
X77977603Y-67668968D01*
X77968575Y-67676761D01*
X77830658Y-67820831D01*
X77823259Y-67830200D01*
X77805582Y-67857577D01*
X77751828Y-67903955D01*
X77681532Y-67913909D01*
X77617015Y-67884278D01*
X77600644Y-67867063D01*
X77510102Y-67751798D01*
X77506396Y-67747080D01*
X77376918Y-67634725D01*
X77338579Y-67574973D01*
X77333500Y-67539561D01*
X77333500Y-67258500D01*
X77353502Y-67190379D01*
X77407158Y-67143886D01*
X77459500Y-67132500D01*
X77847066Y-67132500D01*
X77850312Y-67132163D01*
X77850316Y-67132163D01*
X77945974Y-67122238D01*
X77945978Y-67122237D01*
X77952832Y-67121526D01*
X77959368Y-67119345D01*
X77959370Y-67119345D01*
X78113664Y-67067868D01*
X78120612Y-67065550D01*
X78271014Y-66972478D01*
X78395971Y-66847303D01*
X78422699Y-66803943D01*
X78484941Y-66702968D01*
X78484942Y-66702966D01*
X78488781Y-66696738D01*
X78544463Y-66528861D01*
X78555166Y-66424400D01*
X78555166Y-65623600D01*
X78544192Y-65517834D01*
X78521591Y-65450089D01*
X78490534Y-65357002D01*
X78488216Y-65350054D01*
X78395144Y-65199652D01*
X78308557Y-65113216D01*
X78274478Y-65050934D01*
X78279481Y-64980114D01*
X78308402Y-64935025D01*
X78390800Y-64852483D01*
X78395971Y-64847303D01*
X78488781Y-64696738D01*
X78544463Y-64528861D01*
X78555166Y-64424400D01*
X78555166Y-63623600D01*
X78554829Y-63620350D01*
X78544904Y-63524692D01*
X78544903Y-63524688D01*
X78544192Y-63517834D01*
X78542011Y-63511296D01*
X78490533Y-63356998D01*
X78490532Y-63356996D01*
X78488216Y-63350054D01*
X78484364Y-63343829D01*
X78482529Y-63339912D01*
X78471746Y-63269740D01*
X78500612Y-63204876D01*
X78507536Y-63197368D01*
X78550499Y-63154405D01*
X78612811Y-63120379D01*
X78639594Y-63117500D01*
X79969628Y-63117500D01*
X80037749Y-63137502D01*
X80084242Y-63191158D01*
X80094346Y-63261432D01*
X80076888Y-63309616D01*
X80067945Y-63324125D01*
X80051217Y-63351262D01*
X80043656Y-63374057D01*
X80009560Y-63476856D01*
X79995535Y-63519139D01*
X79994835Y-63525975D01*
X79994834Y-63525978D01*
X79985452Y-63617551D01*
X79984832Y-63623600D01*
X79984832Y-64424400D01*
X79985169Y-64427646D01*
X79985169Y-64427650D01*
X79994961Y-64522021D01*
X79995806Y-64530166D01*
X80051782Y-64697946D01*
X80144854Y-64848348D01*
X80150036Y-64853521D01*
X80231441Y-64934784D01*
X80265520Y-64997066D01*
X80260517Y-65067886D01*
X80231596Y-65112975D01*
X80212105Y-65132500D01*
X80144027Y-65200697D01*
X80051217Y-65351262D01*
X79995535Y-65519139D01*
X79984832Y-65623600D01*
X79984832Y-66424400D01*
X79985169Y-66427646D01*
X79985169Y-66427650D01*
X79993711Y-66509970D01*
X79995806Y-66530166D01*
X79997987Y-66536702D01*
X79997987Y-66536704D01*
X80022975Y-66611600D01*
X80051782Y-66697946D01*
X80054788Y-66702803D01*
X80066500Y-66755416D01*
X80066500Y-67540193D01*
X80046498Y-67608314D01*
X80013399Y-67642963D01*
X79977280Y-67668584D01*
X79977276Y-67668587D01*
X79972389Y-67672054D01*
X79826119Y-67824850D01*
X79822870Y-67829881D01*
X79822865Y-67829888D01*
X79804967Y-67857607D01*
X79751211Y-67903984D01*
X79680915Y-67913937D01*
X79616398Y-67884304D01*
X79600030Y-67867091D01*
X79509738Y-67752143D01*
X79501501Y-67743494D01*
X79350877Y-67612788D01*
X79341153Y-67605853D01*
X79168533Y-67505990D01*
X79157669Y-67501016D01*
X78969273Y-67435593D01*
X78968284Y-67435352D01*
X78957992Y-67436820D01*
X78954000Y-67450385D01*
X78954000Y-70125402D01*
X78957973Y-70138933D01*
X78967399Y-70140288D01*
X79056537Y-70118806D01*
X79067832Y-70114917D01*
X79249382Y-70032371D01*
X79259724Y-70026424D01*
X79422397Y-69911032D01*
X79431425Y-69903239D01*
X79569342Y-69759169D01*
X79576741Y-69749800D01*
X79594418Y-69722423D01*
X79648172Y-69676045D01*
X79718468Y-69666091D01*
X79782985Y-69695722D01*
X79799356Y-69712937D01*
X79893604Y-69832920D01*
X79898135Y-69836852D01*
X79898138Y-69836855D01*
X79983620Y-69911032D01*
X80053363Y-69971552D01*
X80058549Y-69974552D01*
X80058553Y-69974555D01*
X80154957Y-70030326D01*
X80236454Y-70077473D01*
X80436271Y-70146861D01*
X80442206Y-70147722D01*
X80442208Y-70147722D01*
X80639664Y-70176352D01*
X80639667Y-70176352D01*
X80645604Y-70177213D01*
X80856899Y-70167433D01*
X80988077Y-70135819D01*
X81056701Y-70119281D01*
X81056703Y-70119280D01*
X81062534Y-70117875D01*
X81067992Y-70115393D01*
X81067996Y-70115392D01*
X81183041Y-70063084D01*
X81255087Y-70030326D01*
X81427611Y-69907946D01*
X81573881Y-69755150D01*
X81577130Y-69750119D01*
X81577135Y-69750112D01*
X81595033Y-69722393D01*
X81648789Y-69676016D01*
X81719085Y-69666063D01*
X81783602Y-69695696D01*
X81799970Y-69712909D01*
X81890262Y-69827857D01*
X81898499Y-69836506D01*
X82049123Y-69967212D01*
X82058847Y-69974147D01*
X82231467Y-70074010D01*
X82242331Y-70078984D01*
X82430727Y-70144407D01*
X82431716Y-70144648D01*
X82442008Y-70143180D01*
X82446000Y-70129615D01*
X82446000Y-67454598D01*
X82442027Y-67441067D01*
X82432601Y-67439712D01*
X82343463Y-67461194D01*
X82332168Y-67465083D01*
X82150618Y-67547629D01*
X82140276Y-67553576D01*
X81977603Y-67668968D01*
X81968575Y-67676761D01*
X81830658Y-67820831D01*
X81823259Y-67830200D01*
X81805582Y-67857577D01*
X81751828Y-67903955D01*
X81681532Y-67913909D01*
X81617015Y-67884278D01*
X81600644Y-67867063D01*
X81510102Y-67751798D01*
X81506396Y-67747080D01*
X81376918Y-67634725D01*
X81338579Y-67574973D01*
X81333500Y-67539561D01*
X81333500Y-67258500D01*
X81353502Y-67190379D01*
X81407158Y-67143886D01*
X81459500Y-67132500D01*
X81693732Y-67132500D01*
X81696978Y-67132163D01*
X81696982Y-67132163D01*
X81792640Y-67122238D01*
X81792644Y-67122237D01*
X81799498Y-67121526D01*
X81806034Y-67119345D01*
X81806036Y-67119345D01*
X81960330Y-67067868D01*
X81967278Y-67065550D01*
X82117680Y-66972478D01*
X82242637Y-66847303D01*
X82269365Y-66803943D01*
X82331607Y-66702968D01*
X82331608Y-66702966D01*
X82335447Y-66696738D01*
X82391129Y-66528861D01*
X82401832Y-66424400D01*
X82401832Y-65623600D01*
X82390858Y-65517834D01*
X82368257Y-65450089D01*
X82337200Y-65357002D01*
X82334882Y-65350054D01*
X82241810Y-65199652D01*
X82155223Y-65113216D01*
X82121144Y-65050934D01*
X82126147Y-64980114D01*
X82155068Y-64935025D01*
X82237466Y-64852483D01*
X82242637Y-64847303D01*
X82335447Y-64696738D01*
X82391129Y-64528861D01*
X82392303Y-64517402D01*
X82419146Y-64451675D01*
X82428552Y-64441152D01*
X82729099Y-64140605D01*
X82791411Y-64106579D01*
X82818194Y-64103700D01*
X82874087Y-64103700D01*
X82880539Y-64102328D01*
X82880544Y-64102328D01*
X82967488Y-64083847D01*
X83060888Y-64063994D01*
X83066919Y-64061309D01*
X83229322Y-63989003D01*
X83229324Y-63989002D01*
X83235352Y-63986318D01*
X83389853Y-63874066D01*
X83517640Y-63732144D01*
X83596381Y-63595761D01*
X83647764Y-63546768D01*
X83717477Y-63533332D01*
X83783388Y-63559718D01*
X83824570Y-63617551D01*
X83831500Y-63658761D01*
X83831500Y-64424400D01*
X83831837Y-64427646D01*
X83831837Y-64427650D01*
X83841629Y-64522021D01*
X83842474Y-64530166D01*
X83898450Y-64697946D01*
X83991522Y-64848348D01*
X83996704Y-64853521D01*
X84078109Y-64934784D01*
X84112188Y-64997066D01*
X84107185Y-65067886D01*
X84078264Y-65112975D01*
X84058773Y-65132500D01*
X83990695Y-65200697D01*
X83897885Y-65351262D01*
X83842203Y-65519139D01*
X83831500Y-65623600D01*
X83831500Y-66424400D01*
X83831837Y-66427646D01*
X83831837Y-66427650D01*
X83840379Y-66509970D01*
X83842474Y-66530166D01*
X83844655Y-66536702D01*
X83844655Y-66536704D01*
X83869643Y-66611600D01*
X83898450Y-66697946D01*
X83991522Y-66848348D01*
X83996704Y-66853521D01*
X84029518Y-66886278D01*
X84063597Y-66948561D01*
X84066500Y-66975451D01*
X84066500Y-67540193D01*
X84046498Y-67608314D01*
X84013399Y-67642963D01*
X83977280Y-67668584D01*
X83977276Y-67668587D01*
X83972389Y-67672054D01*
X83826119Y-67824850D01*
X83822870Y-67829881D01*
X83822865Y-67829888D01*
X83804967Y-67857607D01*
X83751211Y-67903984D01*
X83680915Y-67913937D01*
X83616398Y-67884304D01*
X83600030Y-67867091D01*
X83509738Y-67752143D01*
X83501501Y-67743494D01*
X83350877Y-67612788D01*
X83341153Y-67605853D01*
X83168533Y-67505990D01*
X83157669Y-67501016D01*
X82969273Y-67435593D01*
X82968284Y-67435352D01*
X82957992Y-67436820D01*
X82954000Y-67450385D01*
X82954000Y-70125402D01*
X82957973Y-70138933D01*
X82967399Y-70140288D01*
X83056537Y-70118806D01*
X83067832Y-70114917D01*
X83249382Y-70032371D01*
X83259724Y-70026424D01*
X83422397Y-69911032D01*
X83431425Y-69903239D01*
X83569342Y-69759169D01*
X83576741Y-69749800D01*
X83594418Y-69722423D01*
X83648172Y-69676045D01*
X83718468Y-69666091D01*
X83782985Y-69695722D01*
X83799356Y-69712937D01*
X83893604Y-69832920D01*
X83898135Y-69836852D01*
X83898138Y-69836855D01*
X83983620Y-69911032D01*
X84053363Y-69971552D01*
X84058549Y-69974552D01*
X84058553Y-69974555D01*
X84154957Y-70030326D01*
X84236454Y-70077473D01*
X84436271Y-70146861D01*
X84442206Y-70147722D01*
X84442208Y-70147722D01*
X84639664Y-70176352D01*
X84639667Y-70176352D01*
X84645604Y-70177213D01*
X84856899Y-70167433D01*
X84988077Y-70135819D01*
X85056701Y-70119281D01*
X85056703Y-70119280D01*
X85062534Y-70117875D01*
X85067992Y-70115393D01*
X85067996Y-70115392D01*
X85183041Y-70063084D01*
X85255087Y-70030326D01*
X85427611Y-69907946D01*
X85573881Y-69755150D01*
X85577130Y-69750119D01*
X85577135Y-69750112D01*
X85595033Y-69722393D01*
X85648789Y-69676016D01*
X85719085Y-69666063D01*
X85783602Y-69695696D01*
X85799970Y-69712909D01*
X85890262Y-69827857D01*
X85898499Y-69836506D01*
X86049123Y-69967212D01*
X86058847Y-69974147D01*
X86231467Y-70074010D01*
X86242331Y-70078984D01*
X86430727Y-70144407D01*
X86431716Y-70144648D01*
X86442008Y-70143180D01*
X86446000Y-70129615D01*
X86446000Y-70125402D01*
X86954000Y-70125402D01*
X86957973Y-70138933D01*
X86967399Y-70140288D01*
X87056537Y-70118806D01*
X87067832Y-70114917D01*
X87249382Y-70032371D01*
X87259724Y-70026424D01*
X87422397Y-69911032D01*
X87431425Y-69903239D01*
X87569342Y-69759169D01*
X87576741Y-69749800D01*
X87594418Y-69722423D01*
X87648172Y-69676045D01*
X87718468Y-69666091D01*
X87782985Y-69695722D01*
X87799356Y-69712937D01*
X87893604Y-69832920D01*
X87898135Y-69836852D01*
X87898138Y-69836855D01*
X87983620Y-69911032D01*
X88053363Y-69971552D01*
X88058549Y-69974552D01*
X88058553Y-69974555D01*
X88154957Y-70030326D01*
X88236454Y-70077473D01*
X88436271Y-70146861D01*
X88442206Y-70147722D01*
X88442208Y-70147722D01*
X88639664Y-70176352D01*
X88639667Y-70176352D01*
X88645604Y-70177213D01*
X88856899Y-70167433D01*
X88988077Y-70135819D01*
X89056701Y-70119281D01*
X89056703Y-70119280D01*
X89062534Y-70117875D01*
X89067992Y-70115393D01*
X89067996Y-70115392D01*
X89183041Y-70063084D01*
X89255087Y-70030326D01*
X89427611Y-69907946D01*
X89431753Y-69903619D01*
X89431759Y-69903614D01*
X89518806Y-69812683D01*
X89580361Y-69777306D01*
X89651270Y-69780825D01*
X89709021Y-69822121D01*
X89716965Y-69833504D01*
X89751522Y-69889348D01*
X89876697Y-70014305D01*
X89882927Y-70018145D01*
X89882928Y-70018146D01*
X90020090Y-70102694D01*
X90027262Y-70107115D01*
X90063942Y-70119281D01*
X90188611Y-70160632D01*
X90188613Y-70160632D01*
X90195139Y-70162797D01*
X90201975Y-70163497D01*
X90201978Y-70163498D01*
X90240386Y-70167433D01*
X90299600Y-70173500D01*
X91100400Y-70173500D01*
X91103646Y-70173163D01*
X91103650Y-70173163D01*
X91199308Y-70163238D01*
X91199312Y-70163237D01*
X91206166Y-70162526D01*
X91212702Y-70160345D01*
X91212704Y-70160345D01*
X91348867Y-70114917D01*
X91373946Y-70106550D01*
X91524348Y-70013478D01*
X91649305Y-69888303D01*
X91686565Y-69827857D01*
X91738275Y-69743968D01*
X91738276Y-69743966D01*
X91742115Y-69737738D01*
X91797797Y-69569861D01*
X91808500Y-69465400D01*
X91808500Y-68114600D01*
X91797526Y-68008834D01*
X91793749Y-67997511D01*
X91743868Y-67848002D01*
X91741550Y-67841054D01*
X91648478Y-67690652D01*
X91523303Y-67565695D01*
X91517072Y-67561854D01*
X91378968Y-67476725D01*
X91378966Y-67476724D01*
X91372738Y-67472885D01*
X91264005Y-67436820D01*
X91211389Y-67419368D01*
X91211387Y-67419368D01*
X91204861Y-67417203D01*
X91198025Y-67416503D01*
X91198022Y-67416502D01*
X91154969Y-67412091D01*
X91100400Y-67406500D01*
X90299600Y-67406500D01*
X90296354Y-67406837D01*
X90296350Y-67406837D01*
X90200692Y-67416762D01*
X90200688Y-67416763D01*
X90193834Y-67417474D01*
X90187298Y-67419655D01*
X90187296Y-67419655D01*
X90123117Y-67441067D01*
X90026054Y-67473450D01*
X89875652Y-67566522D01*
X89750695Y-67691697D01*
X89746855Y-67697927D01*
X89746854Y-67697928D01*
X89718926Y-67743236D01*
X89666154Y-67790729D01*
X89596082Y-67802153D01*
X89530958Y-67773879D01*
X89512582Y-67754955D01*
X89506396Y-67747080D01*
X89501865Y-67743148D01*
X89501862Y-67743145D01*
X89351167Y-67612379D01*
X89346637Y-67608448D01*
X89341451Y-67605448D01*
X89341447Y-67605445D01*
X89168742Y-67505533D01*
X89163546Y-67502527D01*
X88963729Y-67433139D01*
X88957794Y-67432278D01*
X88957792Y-67432278D01*
X88760336Y-67403648D01*
X88760333Y-67403648D01*
X88754396Y-67402787D01*
X88543101Y-67412567D01*
X88430466Y-67439712D01*
X88343299Y-67460719D01*
X88343297Y-67460720D01*
X88337466Y-67462125D01*
X88332008Y-67464607D01*
X88332004Y-67464608D01*
X88240990Y-67505990D01*
X88144913Y-67549674D01*
X87972389Y-67672054D01*
X87826119Y-67824850D01*
X87822870Y-67829881D01*
X87822865Y-67829888D01*
X87804967Y-67857607D01*
X87751211Y-67903984D01*
X87680915Y-67913937D01*
X87616398Y-67884304D01*
X87600030Y-67867091D01*
X87509738Y-67752143D01*
X87501501Y-67743494D01*
X87350877Y-67612788D01*
X87341153Y-67605853D01*
X87168533Y-67505990D01*
X87157669Y-67501016D01*
X86969273Y-67435593D01*
X86968284Y-67435352D01*
X86957992Y-67436820D01*
X86954000Y-67450385D01*
X86954000Y-70125402D01*
X86446000Y-70125402D01*
X86446000Y-67454598D01*
X86442027Y-67441067D01*
X86432601Y-67439712D01*
X86343463Y-67461194D01*
X86332168Y-67465083D01*
X86150618Y-67547629D01*
X86140276Y-67553576D01*
X85977603Y-67668968D01*
X85968575Y-67676761D01*
X85830658Y-67820831D01*
X85823259Y-67830200D01*
X85805582Y-67857577D01*
X85751828Y-67903955D01*
X85681532Y-67913909D01*
X85617015Y-67884278D01*
X85600644Y-67867063D01*
X85510102Y-67751798D01*
X85506396Y-67747080D01*
X85376918Y-67634725D01*
X85338579Y-67574973D01*
X85333500Y-67539561D01*
X85333500Y-67258500D01*
X85353502Y-67190379D01*
X85407158Y-67143886D01*
X85459500Y-67132500D01*
X85540400Y-67132500D01*
X85543646Y-67132163D01*
X85543650Y-67132163D01*
X85639308Y-67122238D01*
X85639312Y-67122237D01*
X85646166Y-67121526D01*
X85652702Y-67119345D01*
X85652704Y-67119345D01*
X85806998Y-67067868D01*
X85813946Y-67065550D01*
X85964348Y-66972478D01*
X86089305Y-66847303D01*
X86116033Y-66803943D01*
X86178275Y-66702968D01*
X86178276Y-66702966D01*
X86182115Y-66696738D01*
X86237797Y-66528861D01*
X86248500Y-66424400D01*
X86248500Y-65623600D01*
X86237526Y-65517834D01*
X86214925Y-65450089D01*
X86183868Y-65357002D01*
X86181550Y-65350054D01*
X86088478Y-65199652D01*
X86001891Y-65113216D01*
X85967812Y-65050934D01*
X85972815Y-64980114D01*
X86001736Y-64935025D01*
X86084134Y-64852483D01*
X86089305Y-64847303D01*
X86182115Y-64696738D01*
X86237797Y-64528861D01*
X86248500Y-64424400D01*
X86248500Y-63730352D01*
X86262227Y-63680173D01*
X86259614Y-63679042D01*
X86277174Y-63638463D01*
X86282391Y-63627813D01*
X86303695Y-63589060D01*
X86308733Y-63569437D01*
X86315137Y-63550734D01*
X86320033Y-63539420D01*
X86320033Y-63539419D01*
X86323181Y-63532145D01*
X86324420Y-63524322D01*
X86324423Y-63524312D01*
X86330099Y-63488476D01*
X86332505Y-63476856D01*
X86341528Y-63441711D01*
X86341528Y-63441710D01*
X86343500Y-63434030D01*
X86343500Y-63413776D01*
X86345051Y-63394065D01*
X86346980Y-63381886D01*
X86348220Y-63374057D01*
X86344059Y-63330038D01*
X86343500Y-63318181D01*
X86343500Y-62104807D01*
X86363502Y-62036686D01*
X86396601Y-62002037D01*
X86432720Y-61976416D01*
X86432725Y-61976412D01*
X86437611Y-61972946D01*
X86583881Y-61820150D01*
X86595124Y-61802738D01*
X86604746Y-61787837D01*
X86658501Y-61741460D01*
X86728797Y-61731507D01*
X86793314Y-61761139D01*
X86809681Y-61778351D01*
X86903604Y-61897920D01*
X86908133Y-61901850D01*
X86908138Y-61901855D01*
X86993620Y-61976032D01*
X87063363Y-62036552D01*
X87068549Y-62039552D01*
X87068553Y-62039555D01*
X87164957Y-62095326D01*
X87246454Y-62142473D01*
X87446271Y-62211861D01*
X87452206Y-62212722D01*
X87452208Y-62212722D01*
X87649664Y-62241352D01*
X87649667Y-62241352D01*
X87655604Y-62242213D01*
X87866899Y-62232433D01*
X88005127Y-62199120D01*
X88066701Y-62184281D01*
X88066703Y-62184280D01*
X88072534Y-62182875D01*
X88077992Y-62180393D01*
X88077996Y-62180392D01*
X88207155Y-62121666D01*
X88265087Y-62095326D01*
X88437611Y-61972946D01*
X88583881Y-61820150D01*
X88595124Y-61802738D01*
X88604746Y-61787837D01*
X88658501Y-61741460D01*
X88728797Y-61731507D01*
X88793314Y-61761139D01*
X88809681Y-61778351D01*
X88903604Y-61897920D01*
X88908133Y-61901850D01*
X88908138Y-61901855D01*
X88993620Y-61976032D01*
X89063363Y-62036552D01*
X89068549Y-62039552D01*
X89068553Y-62039555D01*
X89164957Y-62095326D01*
X89246454Y-62142473D01*
X89446271Y-62211861D01*
X89452206Y-62212722D01*
X89452208Y-62212722D01*
X89649664Y-62241352D01*
X89649667Y-62241352D01*
X89655604Y-62242213D01*
X89866899Y-62232433D01*
X90005127Y-62199120D01*
X90066701Y-62184281D01*
X90066703Y-62184280D01*
X90072534Y-62182875D01*
X90077992Y-62180393D01*
X90077996Y-62180392D01*
X90207155Y-62121666D01*
X90265087Y-62095326D01*
X90437611Y-61972946D01*
X90583881Y-61820150D01*
X90595124Y-61802738D01*
X90604746Y-61787837D01*
X90658501Y-61741460D01*
X90728797Y-61731507D01*
X90793314Y-61761139D01*
X90809681Y-61778351D01*
X90903604Y-61897920D01*
X90908133Y-61901850D01*
X90908138Y-61901855D01*
X90993620Y-61976032D01*
X91063363Y-62036552D01*
X91068549Y-62039552D01*
X91068553Y-62039555D01*
X91164957Y-62095326D01*
X91246454Y-62142473D01*
X91446271Y-62211861D01*
X91452206Y-62212722D01*
X91452208Y-62212722D01*
X91649664Y-62241352D01*
X91649667Y-62241352D01*
X91655604Y-62242213D01*
X91866899Y-62232433D01*
X92005127Y-62199120D01*
X92066701Y-62184281D01*
X92066703Y-62184280D01*
X92072534Y-62182875D01*
X92077992Y-62180393D01*
X92077996Y-62180392D01*
X92207155Y-62121666D01*
X92265087Y-62095326D01*
X92437611Y-61972946D01*
X92583881Y-61820150D01*
X92595124Y-61802738D01*
X92604746Y-61787837D01*
X92658501Y-61741460D01*
X92728797Y-61731507D01*
X92793314Y-61761139D01*
X92809681Y-61778351D01*
X92903604Y-61897920D01*
X92908133Y-61901850D01*
X92908138Y-61901855D01*
X92993620Y-61976032D01*
X93063363Y-62036552D01*
X93068549Y-62039552D01*
X93068553Y-62039555D01*
X93164957Y-62095326D01*
X93246454Y-62142473D01*
X93446271Y-62211861D01*
X93452206Y-62212722D01*
X93452208Y-62212722D01*
X93649664Y-62241352D01*
X93649667Y-62241352D01*
X93655604Y-62242213D01*
X93866899Y-62232433D01*
X93944480Y-62213736D01*
X94015390Y-62217221D01*
X94073160Y-62258490D01*
X94099447Y-62324441D01*
X94100000Y-62336229D01*
X94100000Y-63213400D01*
X99209400Y-63213400D01*
X99209400Y-56634000D01*
X99229402Y-56565879D01*
X99283058Y-56519386D01*
X99335400Y-56508000D01*
X100056000Y-56508000D01*
X100124121Y-56528002D01*
X100170614Y-56581658D01*
X100182000Y-56634000D01*
X100182000Y-70366000D01*
X100161998Y-70434121D01*
X100108342Y-70480614D01*
X100056000Y-70492000D01*
X68698794Y-70492000D01*
X68630673Y-70471998D01*
X68581634Y-70412362D01*
X67790634Y-68413451D01*
X67031908Y-66496095D01*
X67397801Y-66496095D01*
X67398138Y-66502614D01*
X67408057Y-66598206D01*
X67410949Y-66611600D01*
X67462388Y-66765784D01*
X67468561Y-66778962D01*
X67553863Y-66916807D01*
X67562899Y-66928208D01*
X67677629Y-67042739D01*
X67689040Y-67051751D01*
X67827043Y-67136816D01*
X67840224Y-67142963D01*
X67994510Y-67194138D01*
X68007886Y-67197005D01*
X68102238Y-67206672D01*
X68108654Y-67207000D01*
X68358685Y-67207000D01*
X68373924Y-67202525D01*
X68375129Y-67201135D01*
X68376800Y-67193452D01*
X68376800Y-67188884D01*
X68884800Y-67188884D01*
X68889275Y-67204123D01*
X68890665Y-67205328D01*
X68898348Y-67206999D01*
X69152895Y-67206999D01*
X69159414Y-67206662D01*
X69255006Y-67196743D01*
X69268400Y-67193851D01*
X69422584Y-67142412D01*
X69435762Y-67136239D01*
X69573607Y-67050937D01*
X69585008Y-67041901D01*
X69699539Y-66927171D01*
X69708551Y-66915760D01*
X69793616Y-66777757D01*
X69799763Y-66764576D01*
X69850938Y-66610290D01*
X69853805Y-66596914D01*
X69863472Y-66502562D01*
X69863800Y-66496146D01*
X69863800Y-66383615D01*
X69859325Y-66368376D01*
X69857935Y-66367171D01*
X69850252Y-66365500D01*
X68902915Y-66365500D01*
X68887676Y-66369975D01*
X68886471Y-66371365D01*
X68884800Y-66379048D01*
X68884800Y-67188884D01*
X68376800Y-67188884D01*
X68376800Y-66383615D01*
X68372325Y-66368376D01*
X68370935Y-66367171D01*
X68363252Y-66365500D01*
X67415916Y-66365500D01*
X67400677Y-66369975D01*
X67399472Y-66371365D01*
X67397801Y-66379048D01*
X67397801Y-66496095D01*
X67031908Y-66496095D01*
X66600145Y-65405000D01*
X65786000Y-63347600D01*
X64324000Y-63347600D01*
X64255879Y-63327598D01*
X64209386Y-63273942D01*
X64198000Y-63221600D01*
X64198000Y-56634000D01*
X64218002Y-56565879D01*
X64271658Y-56519386D01*
X64324000Y-56508000D01*
X66395600Y-56508000D01*
X66395600Y-56783317D01*
G37*
%TD.AperFunction*%
%TD*%
M02*
