%TF.GenerationSoftware,KiCad,Pcbnew,(6.0.1)*%
%TF.CreationDate,2022-07-06T22:23:35-07:00*%
%TF.ProjectId,mu100-dit-connector-board,6d753130-302d-4646-9974-2d636f6e6e65,rev?*%
%TF.SameCoordinates,PX4a615b8PY2b4db18*%
%TF.FileFunction,Other,Comment*%
%FSLAX46Y46*%
G04 Gerber Fmt 4.6, Leading zero omitted, Abs format (unit mm)*
G04 Created by KiCad (PCBNEW (6.0.1)) date 2022-07-06 22:23:35*
%MOMM*%
%LPD*%
G01*
G04 APERTURE LIST*
%ADD10C,0.150000*%
%ADD11C,0.100000*%
G04 APERTURE END LIST*
D10*
X71748400Y-72672000D02*
X71508400Y-73272000D01*
D11*
X80515900Y-76032000D02*
X79518400Y-76032000D01*
X79518400Y-76032000D02*
X79518400Y-74432000D01*
X79518400Y-74432000D02*
X80515900Y-74432000D01*
X80515900Y-74432000D02*
X80515900Y-76032000D01*
X80513400Y-58032000D02*
X79515900Y-58032000D01*
X79515900Y-58032000D02*
X79515900Y-56432000D01*
X79515900Y-56432000D02*
X80513400Y-56432000D01*
X80513400Y-56432000D02*
X80513400Y-58032000D01*
D10*
X72708400Y-72672000D02*
X72468400Y-73272000D01*
X69278400Y-71262000D02*
X69038400Y-70662000D01*
X73478400Y-65232000D02*
X79988400Y-65232000D01*
D11*
X80513400Y-64032000D02*
X79515900Y-64032000D01*
X79515900Y-64032000D02*
X79515900Y-62432000D01*
X79515900Y-62432000D02*
X80513400Y-62432000D01*
X80513400Y-62432000D02*
X80513400Y-64032000D01*
D10*
X70008400Y-64632000D02*
X69768400Y-65232000D01*
D11*
X80518400Y-60032000D02*
X79520900Y-60032000D01*
X79520900Y-60032000D02*
X79520900Y-58432000D01*
X79520900Y-58432000D02*
X80518400Y-58432000D01*
X80518400Y-58432000D02*
X80518400Y-60032000D01*
D10*
X73528400Y-53212000D02*
X71558400Y-53212000D01*
X77898400Y-44942000D02*
X77898400Y-45552000D01*
X72948400Y-69252000D02*
X72708400Y-68652000D01*
X71748400Y-68652000D02*
X71508400Y-69252000D01*
X70238400Y-71262000D02*
X69998400Y-70662000D01*
X67798400Y-65232000D02*
X68328400Y-65232000D01*
X69288400Y-65232000D02*
X69048400Y-64632000D01*
X70238400Y-71262000D02*
X70768400Y-71262000D01*
X68558400Y-71862000D02*
X68798400Y-71262000D01*
X68568400Y-65832000D02*
X68808400Y-65232000D01*
D11*
X80520900Y-74032000D02*
X79523400Y-74032000D01*
X79523400Y-74032000D02*
X79523400Y-72432000D01*
X79523400Y-72432000D02*
X80520900Y-72432000D01*
X80520900Y-72432000D02*
X80520900Y-74032000D01*
D10*
X69518400Y-71862000D02*
X69758400Y-71262000D01*
X67788400Y-71262000D02*
X68318400Y-71262000D01*
D11*
X80518400Y-56032000D02*
X79520900Y-56032000D01*
X79520900Y-56032000D02*
X79520900Y-54432000D01*
X79520900Y-54432000D02*
X80518400Y-54432000D01*
X80518400Y-54432000D02*
X80518400Y-56032000D01*
D10*
X72948400Y-69252000D02*
X73478400Y-69252000D01*
X70778400Y-65232000D02*
X73488400Y-65232000D01*
D11*
X80515900Y-52032000D02*
X79518400Y-52032000D01*
X79518400Y-52032000D02*
X79518400Y-50432000D01*
X79518400Y-50432000D02*
X80515900Y-50432000D01*
X80515900Y-50432000D02*
X80515900Y-52032000D01*
D10*
X70498400Y-69252000D02*
X71028400Y-69252000D01*
X68328400Y-65232000D02*
X68568400Y-65832000D01*
D11*
X80515900Y-56032000D02*
X79518400Y-56032000D01*
X79518400Y-56032000D02*
X79518400Y-54432000D01*
X79518400Y-54432000D02*
X80515900Y-54432000D01*
X80515900Y-54432000D02*
X80515900Y-56032000D01*
D10*
X68318400Y-71262000D02*
X68558400Y-71862000D01*
X72708400Y-68652000D02*
X72468400Y-69252000D01*
X69038400Y-70662000D02*
X68798400Y-71262000D01*
D11*
X80518400Y-66032000D02*
X79520900Y-66032000D01*
X79520900Y-66032000D02*
X79520900Y-64432000D01*
X79520900Y-64432000D02*
X80518400Y-64432000D01*
X80518400Y-64432000D02*
X80518400Y-66032000D01*
D10*
X72948400Y-73272000D02*
X73478400Y-73272000D01*
D11*
X80515900Y-68032000D02*
X79518400Y-68032000D01*
X79518400Y-68032000D02*
X79518400Y-66432000D01*
X79518400Y-66432000D02*
X80515900Y-66432000D01*
X80515900Y-66432000D02*
X80515900Y-68032000D01*
D10*
X71268400Y-73872000D02*
X71508400Y-73272000D01*
D11*
X80520900Y-68032000D02*
X79523400Y-68032000D01*
X79523400Y-68032000D02*
X79523400Y-66432000D01*
X79523400Y-66432000D02*
X80520900Y-66432000D01*
X80520900Y-66432000D02*
X80520900Y-68032000D01*
X80523400Y-72032000D02*
X79525900Y-72032000D01*
X79525900Y-72032000D02*
X79525900Y-70432000D01*
X79525900Y-70432000D02*
X80523400Y-70432000D01*
X80523400Y-70432000D02*
X80523400Y-72032000D01*
D10*
X69278400Y-71262000D02*
X69518400Y-71862000D01*
D11*
X80518400Y-70032000D02*
X79520900Y-70032000D01*
X79520900Y-70032000D02*
X79520900Y-68432000D01*
X79520900Y-68432000D02*
X80518400Y-68432000D01*
X80518400Y-68432000D02*
X80518400Y-70032000D01*
D10*
X72228400Y-69852000D02*
X72468400Y-69252000D01*
X73478400Y-71262000D02*
X79988400Y-71262000D01*
X73478400Y-53222000D02*
X79988400Y-53222000D01*
X71578400Y-55212000D02*
X73458400Y-55212000D01*
X72228400Y-73872000D02*
X72468400Y-73272000D01*
X71988400Y-69252000D02*
X71748400Y-68652000D01*
X73478400Y-69252000D02*
X79988400Y-69252000D01*
X71068400Y-56867000D02*
X71068400Y-57257000D01*
X71988400Y-73272000D02*
X71748400Y-72672000D01*
X73478400Y-51212000D02*
X71558400Y-51212000D01*
X71038400Y-57252000D02*
X70658400Y-56872000D01*
X73538400Y-57272000D02*
X71578400Y-57272000D01*
X71988400Y-69252000D02*
X72228400Y-69852000D01*
X69528400Y-65832000D02*
X69768400Y-65232000D01*
X69048400Y-64632000D02*
X68808400Y-65232000D01*
X71558400Y-53212000D02*
X71558400Y-52412000D01*
X71028400Y-73272000D02*
X71268400Y-73872000D01*
D11*
X80520900Y-54032000D02*
X79523400Y-54032000D01*
X79523400Y-54032000D02*
X79523400Y-52432000D01*
X79523400Y-52432000D02*
X80520900Y-52432000D01*
X80520900Y-52432000D02*
X80520900Y-54032000D01*
D10*
X70558400Y-52412000D02*
X71578400Y-52412000D01*
X73478400Y-55232000D02*
X79988400Y-55232000D01*
X71578400Y-57272000D02*
X71578400Y-55212000D01*
X70248400Y-65232000D02*
X70008400Y-64632000D01*
X70908400Y-52782000D02*
X70558400Y-52432000D01*
X65028400Y-65232000D02*
X67798400Y-65232000D01*
X70248400Y-65232000D02*
X70778400Y-65232000D01*
X71558400Y-51212000D02*
X71558400Y-52412000D01*
X71988400Y-73272000D02*
X72228400Y-73872000D01*
X73478400Y-73272000D02*
X79988400Y-73272000D01*
X70768400Y-71262000D02*
X73478400Y-71262000D01*
D11*
X80518400Y-50032000D02*
X79520900Y-50032000D01*
X79520900Y-50032000D02*
X79520900Y-48432000D01*
X79520900Y-48432000D02*
X80518400Y-48432000D01*
X80518400Y-48432000D02*
X80518400Y-50032000D01*
D10*
X71068400Y-56862000D02*
X71568400Y-56862000D01*
X65018400Y-73272000D02*
X71028400Y-73272000D01*
D11*
X80515900Y-62032000D02*
X79518400Y-62032000D01*
X79518400Y-62032000D02*
X79518400Y-60432000D01*
X79518400Y-60432000D02*
X80515900Y-60432000D01*
X80515900Y-60432000D02*
X80515900Y-62032000D01*
D10*
X72948400Y-73272000D02*
X72708400Y-72672000D01*
X71068400Y-56462000D02*
X71068400Y-56862000D01*
D11*
X80515900Y-62032000D02*
X79518400Y-62032000D01*
X79518400Y-62032000D02*
X79518400Y-60432000D01*
X79518400Y-60432000D02*
X80515900Y-60432000D01*
X80515900Y-60432000D02*
X80515900Y-62032000D01*
X80518400Y-74032000D02*
X79520900Y-74032000D01*
X79520900Y-74032000D02*
X79520900Y-72432000D01*
X79520900Y-72432000D02*
X80518400Y-72432000D01*
X80518400Y-72432000D02*
X80518400Y-74032000D01*
D10*
X65018400Y-69252000D02*
X70498400Y-69252000D01*
X65018400Y-71262000D02*
X67788400Y-71262000D01*
X69998400Y-70662000D02*
X69758400Y-71262000D01*
X71268400Y-69852000D02*
X71508400Y-69252000D01*
X70658400Y-56872000D02*
X71068400Y-56462000D01*
X73478400Y-57242000D02*
X79988400Y-57242000D01*
X73478400Y-51212000D02*
X79988400Y-51212000D01*
X70918400Y-52072000D02*
X70558400Y-52432000D01*
X69288400Y-65232000D02*
X69528400Y-65832000D01*
X81518400Y-84197000D02*
X76318400Y-84197000D01*
X76318400Y-84197000D02*
X76318400Y-45557000D01*
X76318400Y-45557000D02*
X81518400Y-45557000D01*
X81518400Y-45557000D02*
X81518400Y-84197000D01*
X71028400Y-69252000D02*
X71268400Y-69852000D01*
X57990542Y-68744142D02*
X57942923Y-68791761D01*
X57800066Y-68839380D01*
X57704828Y-68839380D01*
X57561971Y-68791761D01*
X57466733Y-68696523D01*
X57419114Y-68601285D01*
X57371495Y-68410809D01*
X57371495Y-68267952D01*
X57419114Y-68077476D01*
X57466733Y-67982238D01*
X57561971Y-67887000D01*
X57704828Y-67839380D01*
X57800066Y-67839380D01*
X57942923Y-67887000D01*
X57990542Y-67934619D01*
X58419114Y-68839380D02*
X58419114Y-67839380D01*
X58990542Y-68839380D02*
X58561971Y-68267952D01*
X58990542Y-67839380D02*
X58419114Y-68410809D01*
X59371495Y-67934619D02*
X59419114Y-67887000D01*
X59514352Y-67839380D01*
X59752447Y-67839380D01*
X59847685Y-67887000D01*
X59895304Y-67934619D01*
X59942923Y-68029857D01*
X59942923Y-68125095D01*
X59895304Y-68267952D01*
X59323876Y-68839380D01*
X59942923Y-68839380D01*
X60847685Y-67839380D02*
X60371495Y-67839380D01*
X60323876Y-68315571D01*
X60371495Y-68267952D01*
X60466733Y-68220333D01*
X60704828Y-68220333D01*
X60800066Y-68267952D01*
X60847685Y-68315571D01*
X60895304Y-68410809D01*
X60895304Y-68648904D01*
X60847685Y-68744142D01*
X60800066Y-68791761D01*
X60704828Y-68839380D01*
X60466733Y-68839380D01*
X60371495Y-68791761D01*
X60323876Y-68744142D01*
X61752447Y-67839380D02*
X61561971Y-67839380D01*
X61466733Y-67887000D01*
X61419114Y-67934619D01*
X61323876Y-68077476D01*
X61276257Y-68267952D01*
X61276257Y-68648904D01*
X61323876Y-68744142D01*
X61371495Y-68791761D01*
X61466733Y-68839380D01*
X61657209Y-68839380D01*
X61752447Y-68791761D01*
X61800066Y-68744142D01*
X61847685Y-68648904D01*
X61847685Y-68410809D01*
X61800066Y-68315571D01*
X61752447Y-68267952D01*
X61657209Y-68220333D01*
X61466733Y-68220333D01*
X61371495Y-68267952D01*
X61323876Y-68315571D01*
X61276257Y-68410809D01*
X63323876Y-69220333D02*
X63276257Y-69172714D01*
X63181019Y-69029857D01*
X63133400Y-68934619D01*
X63085780Y-68791761D01*
X63038161Y-68553666D01*
X63038161Y-68363190D01*
X63085780Y-68125095D01*
X63133400Y-67982238D01*
X63181019Y-67887000D01*
X63276257Y-67744142D01*
X63323876Y-67696523D01*
X63704828Y-68839380D02*
X63704828Y-67839380D01*
X64038161Y-68553666D01*
X64371495Y-67839380D01*
X64371495Y-68839380D01*
X65419114Y-68744142D02*
X65371495Y-68791761D01*
X65228638Y-68839380D01*
X65133400Y-68839380D01*
X64990542Y-68791761D01*
X64895304Y-68696523D01*
X64847685Y-68601285D01*
X64800066Y-68410809D01*
X64800066Y-68267952D01*
X64847685Y-68077476D01*
X64895304Y-67982238D01*
X64990542Y-67887000D01*
X65133400Y-67839380D01*
X65228638Y-67839380D01*
X65371495Y-67887000D01*
X65419114Y-67934619D01*
X66323876Y-68839380D02*
X65847685Y-68839380D01*
X65847685Y-67839380D01*
X66657209Y-68839380D02*
X66657209Y-67839380D01*
X67228638Y-68839380D02*
X66800066Y-68267952D01*
X67228638Y-67839380D02*
X66657209Y-68410809D01*
X67561971Y-69220333D02*
X67609590Y-69172714D01*
X67704828Y-69029857D01*
X67752447Y-68934619D01*
X67800066Y-68791761D01*
X67847685Y-68553666D01*
X67847685Y-68363190D01*
X67800066Y-68125095D01*
X67752447Y-67982238D01*
X67704828Y-67887000D01*
X67609590Y-67744142D01*
X67561971Y-67696523D01*
X59061971Y-64984619D02*
X58966733Y-64937000D01*
X58871495Y-64841761D01*
X58728638Y-64698904D01*
X58633400Y-64651285D01*
X58538161Y-64651285D01*
X58585780Y-64889380D02*
X58490542Y-64841761D01*
X58395304Y-64746523D01*
X58347685Y-64556047D01*
X58347685Y-64222714D01*
X58395304Y-64032238D01*
X58490542Y-63937000D01*
X58585780Y-63889380D01*
X58776257Y-63889380D01*
X58871495Y-63937000D01*
X58966733Y-64032238D01*
X59014352Y-64222714D01*
X59014352Y-64556047D01*
X58966733Y-64746523D01*
X58871495Y-64841761D01*
X58776257Y-64889380D01*
X58585780Y-64889380D01*
X60014352Y-64794142D02*
X59966733Y-64841761D01*
X59823876Y-64889380D01*
X59728638Y-64889380D01*
X59585780Y-64841761D01*
X59490542Y-64746523D01*
X59442923Y-64651285D01*
X59395304Y-64460809D01*
X59395304Y-64317952D01*
X59442923Y-64127476D01*
X59490542Y-64032238D01*
X59585780Y-63937000D01*
X59728638Y-63889380D01*
X59823876Y-63889380D01*
X59966733Y-63937000D01*
X60014352Y-63984619D01*
X60919114Y-64889380D02*
X60442923Y-64889380D01*
X60442923Y-63889380D01*
X61252447Y-64889380D02*
X61252447Y-63889380D01*
X61823876Y-64889380D02*
X61395304Y-64317952D01*
X61823876Y-63889380D02*
X61252447Y-64460809D01*
X63300066Y-65270333D02*
X63252447Y-65222714D01*
X63157209Y-65079857D01*
X63109590Y-64984619D01*
X63061971Y-64841761D01*
X63014352Y-64603666D01*
X63014352Y-64413190D01*
X63061971Y-64175095D01*
X63109590Y-64032238D01*
X63157209Y-63937000D01*
X63252447Y-63794142D01*
X63300066Y-63746523D01*
X64014352Y-64365571D02*
X64157209Y-64413190D01*
X64204828Y-64460809D01*
X64252447Y-64556047D01*
X64252447Y-64698904D01*
X64204828Y-64794142D01*
X64157209Y-64841761D01*
X64061971Y-64889380D01*
X63681019Y-64889380D01*
X63681019Y-63889380D01*
X64014352Y-63889380D01*
X64109590Y-63937000D01*
X64157209Y-63984619D01*
X64204828Y-64079857D01*
X64204828Y-64175095D01*
X64157209Y-64270333D01*
X64109590Y-64317952D01*
X64014352Y-64365571D01*
X63681019Y-64365571D01*
X65252447Y-64794142D02*
X65204828Y-64841761D01*
X65061971Y-64889380D01*
X64966733Y-64889380D01*
X64823876Y-64841761D01*
X64728638Y-64746523D01*
X64681019Y-64651285D01*
X64633400Y-64460809D01*
X64633400Y-64317952D01*
X64681019Y-64127476D01*
X64728638Y-64032238D01*
X64823876Y-63937000D01*
X64966733Y-63889380D01*
X65061971Y-63889380D01*
X65204828Y-63937000D01*
X65252447Y-63984619D01*
X65681019Y-64889380D02*
X65681019Y-63889380D01*
X66252447Y-64889380D02*
X65823876Y-64317952D01*
X66252447Y-63889380D02*
X65681019Y-64460809D01*
X66585780Y-65270333D02*
X66633400Y-65222714D01*
X66728638Y-65079857D01*
X66776257Y-64984619D01*
X66823876Y-64841761D01*
X66871495Y-64603666D01*
X66871495Y-64413190D01*
X66823876Y-64175095D01*
X66776257Y-64032238D01*
X66728638Y-63937000D01*
X66633400Y-63794142D01*
X66585780Y-63746523D01*
X70523400Y-56505095D02*
X70571019Y-56409857D01*
X70571019Y-56267000D01*
X70523400Y-56124142D01*
X70428161Y-56028904D01*
X70332923Y-55981285D01*
X70142447Y-55933666D01*
X69999590Y-55933666D01*
X69809114Y-55981285D01*
X69713876Y-56028904D01*
X69618638Y-56124142D01*
X69571019Y-56267000D01*
X69571019Y-56362238D01*
X69618638Y-56505095D01*
X69666257Y-56552714D01*
X69999590Y-56552714D01*
X69999590Y-56362238D01*
X69571019Y-56981285D02*
X70571019Y-56981285D01*
X69571019Y-57552714D01*
X70571019Y-57552714D01*
X69571019Y-58028904D02*
X70571019Y-58028904D01*
X70571019Y-58267000D01*
X70523400Y-58409857D01*
X70428161Y-58505095D01*
X70332923Y-58552714D01*
X70142447Y-58600333D01*
X69999590Y-58600333D01*
X69809114Y-58552714D01*
X69713876Y-58505095D01*
X69618638Y-58409857D01*
X69571019Y-58267000D01*
X69571019Y-58028904D01*
X69209114Y-69876285D02*
X69209114Y-70376285D01*
X69030542Y-69590571D02*
X68851971Y-70126285D01*
X69316257Y-70126285D01*
X69530542Y-69626285D02*
X70030542Y-69626285D01*
X69709114Y-70376285D01*
X71583400Y-72256285D02*
X71154828Y-72256285D01*
X71369114Y-72256285D02*
X71369114Y-71506285D01*
X71297685Y-71613428D01*
X71226257Y-71684857D01*
X71154828Y-71720571D01*
X72047685Y-71506285D02*
X72119114Y-71506285D01*
X72190542Y-71542000D01*
X72226257Y-71577714D01*
X72261971Y-71649142D01*
X72297685Y-71792000D01*
X72297685Y-71970571D01*
X72261971Y-72113428D01*
X72226257Y-72184857D01*
X72190542Y-72220571D01*
X72119114Y-72256285D01*
X72047685Y-72256285D01*
X71976257Y-72220571D01*
X71940542Y-72184857D01*
X71904828Y-72113428D01*
X71869114Y-71970571D01*
X71869114Y-71792000D01*
X71904828Y-71649142D01*
X71940542Y-71577714D01*
X71976257Y-71542000D01*
X72047685Y-71506285D01*
X72761971Y-71506285D02*
X72833400Y-71506285D01*
X72904828Y-71542000D01*
X72940542Y-71577714D01*
X72976257Y-71649142D01*
X73011971Y-71792000D01*
X73011971Y-71970571D01*
X72976257Y-72113428D01*
X72940542Y-72184857D01*
X72904828Y-72220571D01*
X72833400Y-72256285D01*
X72761971Y-72256285D01*
X72690542Y-72220571D01*
X72654828Y-72184857D01*
X72619114Y-72113428D01*
X72583400Y-71970571D01*
X72583400Y-71792000D01*
X72619114Y-71649142D01*
X72654828Y-71577714D01*
X72690542Y-71542000D01*
X72761971Y-71506285D01*
X57681019Y-72999380D02*
X57681019Y-71999380D01*
X57919114Y-71999380D01*
X58061971Y-72047000D01*
X58157209Y-72142238D01*
X58204828Y-72237476D01*
X58252447Y-72427952D01*
X58252447Y-72570809D01*
X58204828Y-72761285D01*
X58157209Y-72856523D01*
X58061971Y-72951761D01*
X57919114Y-72999380D01*
X57681019Y-72999380D01*
X58633400Y-72713666D02*
X59109590Y-72713666D01*
X58538161Y-72999380D02*
X58871495Y-71999380D01*
X59204828Y-72999380D01*
X60109590Y-72904142D02*
X60061971Y-72951761D01*
X59919114Y-72999380D01*
X59823876Y-72999380D01*
X59681019Y-72951761D01*
X59585780Y-72856523D01*
X59538161Y-72761285D01*
X59490542Y-72570809D01*
X59490542Y-72427952D01*
X59538161Y-72237476D01*
X59585780Y-72142238D01*
X59681019Y-72047000D01*
X59823876Y-71999380D01*
X59919114Y-71999380D01*
X60061971Y-72047000D01*
X60109590Y-72094619D01*
X60728638Y-71999380D02*
X60919114Y-71999380D01*
X61014352Y-72047000D01*
X61109590Y-72142238D01*
X61157209Y-72332714D01*
X61157209Y-72666047D01*
X61109590Y-72856523D01*
X61014352Y-72951761D01*
X60919114Y-72999380D01*
X60728638Y-72999380D01*
X60633400Y-72951761D01*
X60538161Y-72856523D01*
X60490542Y-72666047D01*
X60490542Y-72332714D01*
X60538161Y-72142238D01*
X60633400Y-72047000D01*
X60728638Y-71999380D01*
X62061971Y-72999380D02*
X61585780Y-72999380D01*
X61585780Y-71999380D01*
X63442923Y-73380333D02*
X63395304Y-73332714D01*
X63300066Y-73189857D01*
X63252447Y-73094619D01*
X63204828Y-72951761D01*
X63157209Y-72713666D01*
X63157209Y-72523190D01*
X63204828Y-72285095D01*
X63252447Y-72142238D01*
X63300066Y-72047000D01*
X63395304Y-71904142D01*
X63442923Y-71856523D01*
X63776257Y-72951761D02*
X63919114Y-72999380D01*
X64157209Y-72999380D01*
X64252447Y-72951761D01*
X64300066Y-72904142D01*
X64347685Y-72808904D01*
X64347685Y-72713666D01*
X64300066Y-72618428D01*
X64252447Y-72570809D01*
X64157209Y-72523190D01*
X63966733Y-72475571D01*
X63871495Y-72427952D01*
X63823876Y-72380333D01*
X63776257Y-72285095D01*
X63776257Y-72189857D01*
X63823876Y-72094619D01*
X63871495Y-72047000D01*
X63966733Y-71999380D01*
X64204828Y-71999380D01*
X64347685Y-72047000D01*
X64776257Y-72999380D02*
X64776257Y-71999380D01*
X65014352Y-71999380D01*
X65157209Y-72047000D01*
X65252447Y-72142238D01*
X65300066Y-72237476D01*
X65347685Y-72427952D01*
X65347685Y-72570809D01*
X65300066Y-72761285D01*
X65252447Y-72856523D01*
X65157209Y-72951761D01*
X65014352Y-72999380D01*
X64776257Y-72999380D01*
X65728638Y-72713666D02*
X66204828Y-72713666D01*
X65633400Y-72999380D02*
X65966733Y-71999380D01*
X66300066Y-72999380D01*
X66490542Y-71999380D02*
X67061971Y-71999380D01*
X66776257Y-72999380D02*
X66776257Y-71999380D01*
X67300066Y-73380333D02*
X67347685Y-73332714D01*
X67442923Y-73189857D01*
X67490542Y-73094619D01*
X67538161Y-72951761D01*
X67585780Y-72713666D01*
X67585780Y-72523190D01*
X67538161Y-72285095D01*
X67490542Y-72142238D01*
X67442923Y-72047000D01*
X67347685Y-71904142D01*
X67300066Y-71856523D01*
X60382142Y-41722380D02*
X60382142Y-40722380D01*
X60715476Y-41436666D01*
X61048809Y-40722380D01*
X61048809Y-41722380D01*
X61524999Y-40722380D02*
X61524999Y-41531904D01*
X61572619Y-41627142D01*
X61620238Y-41674761D01*
X61715476Y-41722380D01*
X61905952Y-41722380D01*
X62001190Y-41674761D01*
X62048809Y-41627142D01*
X62096428Y-41531904D01*
X62096428Y-40722380D01*
X62620238Y-41722380D02*
X62810714Y-41722380D01*
X62905952Y-41674761D01*
X62953571Y-41627142D01*
X63048809Y-41484285D01*
X63096428Y-41293809D01*
X63096428Y-40912857D01*
X63048809Y-40817619D01*
X63001190Y-40770000D01*
X62905952Y-40722380D01*
X62715476Y-40722380D01*
X62620238Y-40770000D01*
X62572619Y-40817619D01*
X62524999Y-40912857D01*
X62524999Y-41150952D01*
X62572619Y-41246190D01*
X62620238Y-41293809D01*
X62715476Y-41341428D01*
X62905952Y-41341428D01*
X63001190Y-41293809D01*
X63048809Y-41246190D01*
X63096428Y-41150952D01*
X63715476Y-40722380D02*
X63810714Y-40722380D01*
X63905952Y-40770000D01*
X63953571Y-40817619D01*
X64001190Y-40912857D01*
X64048809Y-41103333D01*
X64048809Y-41341428D01*
X64001190Y-41531904D01*
X63953571Y-41627142D01*
X63905952Y-41674761D01*
X63810714Y-41722380D01*
X63715476Y-41722380D01*
X63620238Y-41674761D01*
X63572619Y-41627142D01*
X63524999Y-41531904D01*
X63477380Y-41341428D01*
X63477380Y-41103333D01*
X63524999Y-40912857D01*
X63572619Y-40817619D01*
X63620238Y-40770000D01*
X63715476Y-40722380D01*
X65191666Y-40674761D02*
X64334523Y-41960476D01*
X66048809Y-41722380D02*
X65477380Y-41722380D01*
X65763095Y-41722380D02*
X65763095Y-40722380D01*
X65667857Y-40865238D01*
X65572619Y-40960476D01*
X65477380Y-41008095D01*
X66667857Y-40722380D02*
X66763095Y-40722380D01*
X66858333Y-40770000D01*
X66905952Y-40817619D01*
X66953571Y-40912857D01*
X67001190Y-41103333D01*
X67001190Y-41341428D01*
X66953571Y-41531904D01*
X66905952Y-41627142D01*
X66858333Y-41674761D01*
X66763095Y-41722380D01*
X66667857Y-41722380D01*
X66572619Y-41674761D01*
X66524999Y-41627142D01*
X66477380Y-41531904D01*
X66429761Y-41341428D01*
X66429761Y-41103333D01*
X66477380Y-40912857D01*
X66524999Y-40817619D01*
X66572619Y-40770000D01*
X66667857Y-40722380D01*
X67620238Y-40722380D02*
X67715476Y-40722380D01*
X67810714Y-40770000D01*
X67858333Y-40817619D01*
X67905952Y-40912857D01*
X67953571Y-41103333D01*
X67953571Y-41341428D01*
X67905952Y-41531904D01*
X67858333Y-41627142D01*
X67810714Y-41674761D01*
X67715476Y-41722380D01*
X67620238Y-41722380D01*
X67525000Y-41674761D01*
X67477380Y-41627142D01*
X67429761Y-41531904D01*
X67382142Y-41341428D01*
X67382142Y-41103333D01*
X67429761Y-40912857D01*
X67477380Y-40817619D01*
X67525000Y-40770000D01*
X67620238Y-40722380D01*
X68953571Y-41722380D02*
X68620238Y-41246190D01*
X68382142Y-41722380D02*
X68382142Y-40722380D01*
X68763095Y-40722380D01*
X68858333Y-40770000D01*
X68905952Y-40817619D01*
X68953571Y-40912857D01*
X68953571Y-41055714D01*
X68905952Y-41150952D01*
X68858333Y-41198571D01*
X68763095Y-41246190D01*
X68382142Y-41246190D01*
X69382142Y-41627142D02*
X69429761Y-41674761D01*
X69382142Y-41722380D01*
X69334523Y-41674761D01*
X69382142Y-41627142D01*
X69382142Y-41722380D01*
X69382142Y-41103333D02*
X69429761Y-41150952D01*
X69382142Y-41198571D01*
X69334523Y-41150952D01*
X69382142Y-41103333D01*
X69382142Y-41198571D01*
X70572619Y-41674761D02*
X70715476Y-41722380D01*
X70953571Y-41722380D01*
X71048809Y-41674761D01*
X71096428Y-41627142D01*
X71144047Y-41531904D01*
X71144047Y-41436666D01*
X71096428Y-41341428D01*
X71048809Y-41293809D01*
X70953571Y-41246190D01*
X70763095Y-41198571D01*
X70667857Y-41150952D01*
X70620238Y-41103333D01*
X70572619Y-41008095D01*
X70572619Y-40912857D01*
X70620238Y-40817619D01*
X70667857Y-40770000D01*
X70763095Y-40722380D01*
X71001190Y-40722380D01*
X71144047Y-40770000D01*
X71715476Y-41722380D02*
X71620238Y-41674761D01*
X71572619Y-41579523D01*
X71572619Y-40722380D01*
X72239285Y-41722380D02*
X72144047Y-41674761D01*
X72096428Y-41627142D01*
X72048809Y-41531904D01*
X72048809Y-41246190D01*
X72096428Y-41150952D01*
X72144047Y-41103333D01*
X72239285Y-41055714D01*
X72382142Y-41055714D01*
X72477380Y-41103333D01*
X72524999Y-41150952D01*
X72572619Y-41246190D01*
X72572619Y-41531904D01*
X72524999Y-41627142D01*
X72477380Y-41674761D01*
X72382142Y-41722380D01*
X72239285Y-41722380D01*
X72858333Y-41055714D02*
X73239285Y-41055714D01*
X73001190Y-40722380D02*
X73001190Y-41579523D01*
X73048809Y-41674761D01*
X73144047Y-41722380D01*
X73239285Y-41722380D01*
X73524999Y-41674761D02*
X73620238Y-41722380D01*
X73810714Y-41722380D01*
X73905952Y-41674761D01*
X73953571Y-41579523D01*
X73953571Y-41531904D01*
X73905952Y-41436666D01*
X73810714Y-41389047D01*
X73667857Y-41389047D01*
X73572619Y-41341428D01*
X73524999Y-41246190D01*
X73524999Y-41198571D01*
X73572619Y-41103333D01*
X73667857Y-41055714D01*
X73810714Y-41055714D01*
X73905952Y-41103333D01*
X75144047Y-41722380D02*
X75144047Y-41055714D01*
X75144047Y-40722380D02*
X75096428Y-40770000D01*
X75144047Y-40817619D01*
X75191666Y-40770000D01*
X75144047Y-40722380D01*
X75144047Y-40817619D01*
X75620238Y-41055714D02*
X75620238Y-41722380D01*
X75620238Y-41150952D02*
X75667857Y-41103333D01*
X75763095Y-41055714D01*
X75905952Y-41055714D01*
X76001190Y-41103333D01*
X76048809Y-41198571D01*
X76048809Y-41722380D01*
X76382142Y-41055714D02*
X76763095Y-41055714D01*
X76524999Y-40722380D02*
X76524999Y-41579523D01*
X76572619Y-41674761D01*
X76667857Y-41722380D01*
X76763095Y-41722380D01*
X77239285Y-41722380D02*
X77144047Y-41674761D01*
X77096428Y-41627142D01*
X77048809Y-41531904D01*
X77048809Y-41246190D01*
X77096428Y-41150952D01*
X77144047Y-41103333D01*
X77239285Y-41055714D01*
X77382142Y-41055714D01*
X77477380Y-41103333D01*
X77524999Y-41150952D01*
X77572619Y-41246190D01*
X77572619Y-41531904D01*
X77524999Y-41627142D01*
X77477380Y-41674761D01*
X77382142Y-41722380D01*
X77239285Y-41722380D01*
X78763095Y-41722380D02*
X78763095Y-40722380D01*
X79096428Y-41436666D01*
X79429761Y-40722380D01*
X79429761Y-41722380D01*
X80048809Y-41722380D02*
X79953571Y-41674761D01*
X79905952Y-41627142D01*
X79858333Y-41531904D01*
X79858333Y-41246190D01*
X79905952Y-41150952D01*
X79953571Y-41103333D01*
X80048809Y-41055714D01*
X80191666Y-41055714D01*
X80286904Y-41103333D01*
X80334523Y-41150952D01*
X80382142Y-41246190D01*
X80382142Y-41531904D01*
X80334523Y-41627142D01*
X80286904Y-41674761D01*
X80191666Y-41722380D01*
X80048809Y-41722380D01*
X80953571Y-41722380D02*
X80858333Y-41674761D01*
X80810714Y-41579523D01*
X80810714Y-40722380D01*
X81715476Y-41674761D02*
X81620238Y-41722380D01*
X81429761Y-41722380D01*
X81334523Y-41674761D01*
X81286904Y-41579523D01*
X81286904Y-41198571D01*
X81334523Y-41103333D01*
X81429761Y-41055714D01*
X81620238Y-41055714D01*
X81715476Y-41103333D01*
X81763095Y-41198571D01*
X81763095Y-41293809D01*
X81286904Y-41389047D01*
X82096428Y-41722380D02*
X82620238Y-41055714D01*
X82096428Y-41055714D02*
X82620238Y-41722380D01*
X84191666Y-41674761D02*
X84096428Y-41722380D01*
X83905952Y-41722380D01*
X83810714Y-41674761D01*
X83763095Y-41627142D01*
X83715476Y-41531904D01*
X83715476Y-41246190D01*
X83763095Y-41150952D01*
X83810714Y-41103333D01*
X83905952Y-41055714D01*
X84096428Y-41055714D01*
X84191666Y-41103333D01*
X84763095Y-41722380D02*
X84667857Y-41674761D01*
X84620238Y-41627142D01*
X84572619Y-41531904D01*
X84572619Y-41246190D01*
X84620238Y-41150952D01*
X84667857Y-41103333D01*
X84763095Y-41055714D01*
X84905952Y-41055714D01*
X85001190Y-41103333D01*
X85048809Y-41150952D01*
X85096428Y-41246190D01*
X85096428Y-41531904D01*
X85048809Y-41627142D01*
X85001190Y-41674761D01*
X84905952Y-41722380D01*
X84763095Y-41722380D01*
X85524999Y-41055714D02*
X85524999Y-41722380D01*
X85524999Y-41150952D02*
X85572619Y-41103333D01*
X85667857Y-41055714D01*
X85810714Y-41055714D01*
X85905952Y-41103333D01*
X85953571Y-41198571D01*
X85953571Y-41722380D01*
X86429761Y-41055714D02*
X86429761Y-41722380D01*
X86429761Y-41150952D02*
X86477380Y-41103333D01*
X86572619Y-41055714D01*
X86715476Y-41055714D01*
X86810714Y-41103333D01*
X86858333Y-41198571D01*
X86858333Y-41722380D01*
X87715476Y-41674761D02*
X87620238Y-41722380D01*
X87429761Y-41722380D01*
X87334523Y-41674761D01*
X87286904Y-41579523D01*
X87286904Y-41198571D01*
X87334523Y-41103333D01*
X87429761Y-41055714D01*
X87620238Y-41055714D01*
X87715476Y-41103333D01*
X87763095Y-41198571D01*
X87763095Y-41293809D01*
X87286904Y-41389047D01*
X88620238Y-41674761D02*
X88524999Y-41722380D01*
X88334523Y-41722380D01*
X88239285Y-41674761D01*
X88191666Y-41627142D01*
X88144047Y-41531904D01*
X88144047Y-41246190D01*
X88191666Y-41150952D01*
X88239285Y-41103333D01*
X88334523Y-41055714D01*
X88524999Y-41055714D01*
X88620238Y-41103333D01*
X88905952Y-41055714D02*
X89286904Y-41055714D01*
X89048809Y-40722380D02*
X89048809Y-41579523D01*
X89096428Y-41674761D01*
X89191666Y-41722380D01*
X89286904Y-41722380D01*
X89763095Y-41722380D02*
X89667857Y-41674761D01*
X89620238Y-41627142D01*
X89572619Y-41531904D01*
X89572619Y-41246190D01*
X89620238Y-41150952D01*
X89667857Y-41103333D01*
X89763095Y-41055714D01*
X89905952Y-41055714D01*
X90001190Y-41103333D01*
X90048809Y-41150952D01*
X90096428Y-41246190D01*
X90096428Y-41531904D01*
X90048809Y-41627142D01*
X90001190Y-41674761D01*
X89905952Y-41722380D01*
X89763095Y-41722380D01*
X90524999Y-41722380D02*
X90524999Y-41055714D01*
X90524999Y-41246190D02*
X90572619Y-41150952D01*
X90620238Y-41103333D01*
X90715476Y-41055714D01*
X90810714Y-41055714D01*
X57977380Y-43332380D02*
X57977380Y-42332380D01*
X58310714Y-43046666D01*
X58644047Y-42332380D01*
X58644047Y-43332380D01*
X59120238Y-42332380D02*
X59120238Y-43141904D01*
X59167857Y-43237142D01*
X59215476Y-43284761D01*
X59310714Y-43332380D01*
X59501190Y-43332380D01*
X59596428Y-43284761D01*
X59644047Y-43237142D01*
X59691666Y-43141904D01*
X59691666Y-42332380D01*
X60215476Y-43332380D02*
X60405952Y-43332380D01*
X60501190Y-43284761D01*
X60548809Y-43237142D01*
X60644047Y-43094285D01*
X60691666Y-42903809D01*
X60691666Y-42522857D01*
X60644047Y-42427619D01*
X60596428Y-42380000D01*
X60501190Y-42332380D01*
X60310714Y-42332380D01*
X60215476Y-42380000D01*
X60167857Y-42427619D01*
X60120238Y-42522857D01*
X60120238Y-42760952D01*
X60167857Y-42856190D01*
X60215476Y-42903809D01*
X60310714Y-42951428D01*
X60501190Y-42951428D01*
X60596428Y-42903809D01*
X60644047Y-42856190D01*
X60691666Y-42760952D01*
X61310714Y-42332380D02*
X61405952Y-42332380D01*
X61501190Y-42380000D01*
X61548809Y-42427619D01*
X61596428Y-42522857D01*
X61644047Y-42713333D01*
X61644047Y-42951428D01*
X61596428Y-43141904D01*
X61548809Y-43237142D01*
X61501190Y-43284761D01*
X61405952Y-43332380D01*
X61310714Y-43332380D01*
X61215476Y-43284761D01*
X61167857Y-43237142D01*
X61120238Y-43141904D01*
X61072619Y-42951428D01*
X61072619Y-42713333D01*
X61120238Y-42522857D01*
X61167857Y-42427619D01*
X61215476Y-42380000D01*
X61310714Y-42332380D01*
X62786904Y-42284761D02*
X61929761Y-43570476D01*
X63644047Y-43332380D02*
X63072619Y-43332380D01*
X63358333Y-43332380D02*
X63358333Y-42332380D01*
X63263095Y-42475238D01*
X63167857Y-42570476D01*
X63072619Y-42618095D01*
X64263095Y-42332380D02*
X64358333Y-42332380D01*
X64453571Y-42380000D01*
X64501190Y-42427619D01*
X64548809Y-42522857D01*
X64596428Y-42713333D01*
X64596428Y-42951428D01*
X64548809Y-43141904D01*
X64501190Y-43237142D01*
X64453571Y-43284761D01*
X64358333Y-43332380D01*
X64263095Y-43332380D01*
X64167857Y-43284761D01*
X64120238Y-43237142D01*
X64072619Y-43141904D01*
X64024999Y-42951428D01*
X64024999Y-42713333D01*
X64072619Y-42522857D01*
X64120238Y-42427619D01*
X64167857Y-42380000D01*
X64263095Y-42332380D01*
X65215476Y-42332380D02*
X65310714Y-42332380D01*
X65405952Y-42380000D01*
X65453571Y-42427619D01*
X65501190Y-42522857D01*
X65548809Y-42713333D01*
X65548809Y-42951428D01*
X65501190Y-43141904D01*
X65453571Y-43237142D01*
X65405952Y-43284761D01*
X65310714Y-43332380D01*
X65215476Y-43332380D01*
X65120238Y-43284761D01*
X65072619Y-43237142D01*
X65024999Y-43141904D01*
X64977380Y-42951428D01*
X64977380Y-42713333D01*
X65024999Y-42522857D01*
X65072619Y-42427619D01*
X65120238Y-42380000D01*
X65215476Y-42332380D01*
X65977380Y-43237142D02*
X66024999Y-43284761D01*
X65977380Y-43332380D01*
X65929761Y-43284761D01*
X65977380Y-43237142D01*
X65977380Y-43332380D01*
X65977380Y-42713333D02*
X66024999Y-42760952D01*
X65977380Y-42808571D01*
X65929761Y-42760952D01*
X65977380Y-42713333D01*
X65977380Y-42808571D01*
X67167857Y-43284761D02*
X67310714Y-43332380D01*
X67548809Y-43332380D01*
X67644047Y-43284761D01*
X67691666Y-43237142D01*
X67739285Y-43141904D01*
X67739285Y-43046666D01*
X67691666Y-42951428D01*
X67644047Y-42903809D01*
X67548809Y-42856190D01*
X67358333Y-42808571D01*
X67263095Y-42760952D01*
X67215476Y-42713333D01*
X67167857Y-42618095D01*
X67167857Y-42522857D01*
X67215476Y-42427619D01*
X67263095Y-42380000D01*
X67358333Y-42332380D01*
X67596428Y-42332380D01*
X67739285Y-42380000D01*
X68310714Y-43332380D02*
X68215476Y-43284761D01*
X68167857Y-43237142D01*
X68120238Y-43141904D01*
X68120238Y-42856190D01*
X68167857Y-42760952D01*
X68215476Y-42713333D01*
X68310714Y-42665714D01*
X68453571Y-42665714D01*
X68548809Y-42713333D01*
X68596428Y-42760952D01*
X68644047Y-42856190D01*
X68644047Y-43141904D01*
X68596428Y-43237142D01*
X68548809Y-43284761D01*
X68453571Y-43332380D01*
X68310714Y-43332380D01*
X69215476Y-43332380D02*
X69120238Y-43284761D01*
X69072619Y-43189523D01*
X69072619Y-42332380D01*
X70025000Y-43332380D02*
X70025000Y-42332380D01*
X70025000Y-43284761D02*
X69929761Y-43332380D01*
X69739285Y-43332380D01*
X69644047Y-43284761D01*
X69596428Y-43237142D01*
X69548809Y-43141904D01*
X69548809Y-42856190D01*
X69596428Y-42760952D01*
X69644047Y-42713333D01*
X69739285Y-42665714D01*
X69929761Y-42665714D01*
X70025000Y-42713333D01*
X70882142Y-43284761D02*
X70786904Y-43332380D01*
X70596428Y-43332380D01*
X70501190Y-43284761D01*
X70453571Y-43189523D01*
X70453571Y-42808571D01*
X70501190Y-42713333D01*
X70596428Y-42665714D01*
X70786904Y-42665714D01*
X70882142Y-42713333D01*
X70929761Y-42808571D01*
X70929761Y-42903809D01*
X70453571Y-42999047D01*
X71358333Y-43332380D02*
X71358333Y-42665714D01*
X71358333Y-42856190D02*
X71405952Y-42760952D01*
X71453571Y-42713333D01*
X71548809Y-42665714D01*
X71644047Y-42665714D01*
X72358333Y-43284761D02*
X72263095Y-43332380D01*
X72072619Y-43332380D01*
X71977380Y-43284761D01*
X71929761Y-43189523D01*
X71929761Y-42808571D01*
X71977380Y-42713333D01*
X72072619Y-42665714D01*
X72263095Y-42665714D01*
X72358333Y-42713333D01*
X72405952Y-42808571D01*
X72405952Y-42903809D01*
X71929761Y-42999047D01*
X73263095Y-43332380D02*
X73263095Y-42332380D01*
X73263095Y-43284761D02*
X73167857Y-43332380D01*
X72977380Y-43332380D01*
X72882142Y-43284761D01*
X72834523Y-43237142D01*
X72786904Y-43141904D01*
X72786904Y-42856190D01*
X72834523Y-42760952D01*
X72882142Y-42713333D01*
X72977380Y-42665714D01*
X73167857Y-42665714D01*
X73263095Y-42713333D01*
X74644047Y-43332380D02*
X74548809Y-43284761D01*
X74501190Y-43237142D01*
X74453571Y-43141904D01*
X74453571Y-42856190D01*
X74501190Y-42760952D01*
X74548809Y-42713333D01*
X74644047Y-42665714D01*
X74786904Y-42665714D01*
X74882142Y-42713333D01*
X74929761Y-42760952D01*
X74977380Y-42856190D01*
X74977380Y-43141904D01*
X74929761Y-43237142D01*
X74882142Y-43284761D01*
X74786904Y-43332380D01*
X74644047Y-43332380D01*
X75405952Y-42665714D02*
X75405952Y-43332380D01*
X75405952Y-42760952D02*
X75453571Y-42713333D01*
X75548809Y-42665714D01*
X75691666Y-42665714D01*
X75786904Y-42713333D01*
X75834523Y-42808571D01*
X75834523Y-43332380D01*
X76167857Y-42665714D02*
X76548809Y-42665714D01*
X76310714Y-42332380D02*
X76310714Y-43189523D01*
X76358333Y-43284761D01*
X76453571Y-43332380D01*
X76548809Y-43332380D01*
X77024999Y-43332380D02*
X76929761Y-43284761D01*
X76882142Y-43237142D01*
X76834523Y-43141904D01*
X76834523Y-42856190D01*
X76882142Y-42760952D01*
X76929761Y-42713333D01*
X77024999Y-42665714D01*
X77167857Y-42665714D01*
X77263095Y-42713333D01*
X77310714Y-42760952D01*
X77358333Y-42856190D01*
X77358333Y-43141904D01*
X77310714Y-43237142D01*
X77263095Y-43284761D01*
X77167857Y-43332380D01*
X77024999Y-43332380D01*
X78977380Y-42665714D02*
X78977380Y-43332380D01*
X78548809Y-42665714D02*
X78548809Y-43189523D01*
X78596428Y-43284761D01*
X78691666Y-43332380D01*
X78834523Y-43332380D01*
X78929761Y-43284761D01*
X78977380Y-43237142D01*
X79453571Y-42665714D02*
X79453571Y-43332380D01*
X79453571Y-42760952D02*
X79501190Y-42713333D01*
X79596428Y-42665714D01*
X79739285Y-42665714D01*
X79834523Y-42713333D01*
X79882142Y-42808571D01*
X79882142Y-43332380D01*
X80358333Y-42665714D02*
X80358333Y-43665714D01*
X80358333Y-42713333D02*
X80453571Y-42665714D01*
X80644047Y-42665714D01*
X80739285Y-42713333D01*
X80786904Y-42760952D01*
X80834523Y-42856190D01*
X80834523Y-43141904D01*
X80786904Y-43237142D01*
X80739285Y-43284761D01*
X80644047Y-43332380D01*
X80453571Y-43332380D01*
X80358333Y-43284761D01*
X81405952Y-43332380D02*
X81310714Y-43284761D01*
X81263095Y-43237142D01*
X81215476Y-43141904D01*
X81215476Y-42856190D01*
X81263095Y-42760952D01*
X81310714Y-42713333D01*
X81405952Y-42665714D01*
X81548809Y-42665714D01*
X81644047Y-42713333D01*
X81691666Y-42760952D01*
X81739285Y-42856190D01*
X81739285Y-43141904D01*
X81691666Y-43237142D01*
X81644047Y-43284761D01*
X81548809Y-43332380D01*
X81405952Y-43332380D01*
X82167857Y-42665714D02*
X82167857Y-43665714D01*
X82167857Y-42713333D02*
X82263095Y-42665714D01*
X82453571Y-42665714D01*
X82548809Y-42713333D01*
X82596428Y-42760952D01*
X82644047Y-42856190D01*
X82644047Y-43141904D01*
X82596428Y-43237142D01*
X82548809Y-43284761D01*
X82453571Y-43332380D01*
X82263095Y-43332380D01*
X82167857Y-43284761D01*
X83501190Y-42665714D02*
X83501190Y-43332380D01*
X83072619Y-42665714D02*
X83072619Y-43189523D01*
X83120238Y-43284761D01*
X83215476Y-43332380D01*
X83358333Y-43332380D01*
X83453571Y-43284761D01*
X83501190Y-43237142D01*
X84120238Y-43332380D02*
X84024999Y-43284761D01*
X83977380Y-43189523D01*
X83977380Y-42332380D01*
X84929761Y-43332380D02*
X84929761Y-42808571D01*
X84882142Y-42713333D01*
X84786904Y-42665714D01*
X84596428Y-42665714D01*
X84501190Y-42713333D01*
X84929761Y-43284761D02*
X84834523Y-43332380D01*
X84596428Y-43332380D01*
X84501190Y-43284761D01*
X84453571Y-43189523D01*
X84453571Y-43094285D01*
X84501190Y-42999047D01*
X84596428Y-42951428D01*
X84834523Y-42951428D01*
X84929761Y-42903809D01*
X85263095Y-42665714D02*
X85644047Y-42665714D01*
X85405952Y-42332380D02*
X85405952Y-43189523D01*
X85453571Y-43284761D01*
X85548809Y-43332380D01*
X85644047Y-43332380D01*
X86358333Y-43284761D02*
X86263095Y-43332380D01*
X86072619Y-43332380D01*
X85977380Y-43284761D01*
X85929761Y-43189523D01*
X85929761Y-42808571D01*
X85977380Y-42713333D01*
X86072619Y-42665714D01*
X86263095Y-42665714D01*
X86358333Y-42713333D01*
X86405952Y-42808571D01*
X86405952Y-42903809D01*
X85929761Y-42999047D01*
X87263095Y-43332380D02*
X87263095Y-42332380D01*
X87263095Y-43284761D02*
X87167857Y-43332380D01*
X86977380Y-43332380D01*
X86882142Y-43284761D01*
X86834523Y-43237142D01*
X86786904Y-43141904D01*
X86786904Y-42856190D01*
X86834523Y-42760952D01*
X86882142Y-42713333D01*
X86977380Y-42665714D01*
X87167857Y-42665714D01*
X87263095Y-42713333D01*
X88501190Y-43332380D02*
X88501190Y-42332380D01*
X88929761Y-43332380D02*
X88929761Y-42808571D01*
X88882142Y-42713333D01*
X88786904Y-42665714D01*
X88644047Y-42665714D01*
X88548809Y-42713333D01*
X88501190Y-42760952D01*
X89786904Y-43284761D02*
X89691666Y-43332380D01*
X89501190Y-43332380D01*
X89405952Y-43284761D01*
X89358333Y-43189523D01*
X89358333Y-42808571D01*
X89405952Y-42713333D01*
X89501190Y-42665714D01*
X89691666Y-42665714D01*
X89786904Y-42713333D01*
X89834523Y-42808571D01*
X89834523Y-42903809D01*
X89358333Y-42999047D01*
X90691666Y-43332380D02*
X90691666Y-42808571D01*
X90644047Y-42713333D01*
X90548809Y-42665714D01*
X90358333Y-42665714D01*
X90263095Y-42713333D01*
X90691666Y-43284761D02*
X90596428Y-43332380D01*
X90358333Y-43332380D01*
X90263095Y-43284761D01*
X90215476Y-43189523D01*
X90215476Y-43094285D01*
X90263095Y-42999047D01*
X90358333Y-42951428D01*
X90596428Y-42951428D01*
X90691666Y-42903809D01*
X91596428Y-43332380D02*
X91596428Y-42332380D01*
X91596428Y-43284761D02*
X91501190Y-43332380D01*
X91310714Y-43332380D01*
X91215476Y-43284761D01*
X91167857Y-43237142D01*
X91120238Y-43141904D01*
X91120238Y-42856190D01*
X91167857Y-42760952D01*
X91215476Y-42713333D01*
X91310714Y-42665714D01*
X91501190Y-42665714D01*
X91596428Y-42713333D01*
X92453571Y-43284761D02*
X92358333Y-43332380D01*
X92167857Y-43332380D01*
X92072619Y-43284761D01*
X92024999Y-43189523D01*
X92024999Y-42808571D01*
X92072619Y-42713333D01*
X92167857Y-42665714D01*
X92358333Y-42665714D01*
X92453571Y-42713333D01*
X92501190Y-42808571D01*
X92501190Y-42903809D01*
X92024999Y-42999047D01*
X92929761Y-43332380D02*
X92929761Y-42665714D01*
X92929761Y-42856190D02*
X92977380Y-42760952D01*
X93024999Y-42713333D01*
X93120238Y-42665714D01*
X93215476Y-42665714D01*
X69199114Y-63846285D02*
X69199114Y-64346285D01*
X69020542Y-63560571D02*
X68841971Y-64096285D01*
X69306257Y-64096285D01*
X69520542Y-63596285D02*
X70020542Y-63596285D01*
X69699114Y-64346285D01*
X70441019Y-52276523D02*
X70441019Y-51800333D01*
X69964828Y-51752714D01*
X70012447Y-51800333D01*
X70060066Y-51895571D01*
X70060066Y-52133666D01*
X70012447Y-52228904D01*
X69964828Y-52276523D01*
X69869590Y-52324142D01*
X69631495Y-52324142D01*
X69536257Y-52276523D01*
X69488638Y-52228904D01*
X69441019Y-52133666D01*
X69441019Y-51895571D01*
X69488638Y-51800333D01*
X69536257Y-51752714D01*
X70441019Y-52609857D02*
X69441019Y-52943190D01*
X70441019Y-53276523D01*
X71869114Y-67736285D02*
X71869114Y-68236285D01*
X71690542Y-67450571D02*
X71511971Y-67986285D01*
X71976257Y-67986285D01*
X72190542Y-67486285D02*
X72690542Y-67486285D01*
X72369114Y-68236285D01*
X57817685Y-69829380D02*
X58055780Y-70829380D01*
X58246257Y-70115095D01*
X58436733Y-70829380D01*
X58674828Y-69829380D01*
X59627209Y-70734142D02*
X59579590Y-70781761D01*
X59436733Y-70829380D01*
X59341495Y-70829380D01*
X59198638Y-70781761D01*
X59103400Y-70686523D01*
X59055780Y-70591285D01*
X59008161Y-70400809D01*
X59008161Y-70257952D01*
X59055780Y-70067476D01*
X59103400Y-69972238D01*
X59198638Y-69877000D01*
X59341495Y-69829380D01*
X59436733Y-69829380D01*
X59579590Y-69877000D01*
X59627209Y-69924619D01*
X60531971Y-70829380D02*
X60055780Y-70829380D01*
X60055780Y-69829380D01*
X60865304Y-70829380D02*
X60865304Y-69829380D01*
X61436733Y-70829380D02*
X61008161Y-70257952D01*
X61436733Y-69829380D02*
X60865304Y-70400809D01*
X62912923Y-71210333D02*
X62865304Y-71162714D01*
X62770066Y-71019857D01*
X62722447Y-70924619D01*
X62674828Y-70781761D01*
X62627209Y-70543666D01*
X62627209Y-70353190D01*
X62674828Y-70115095D01*
X62722447Y-69972238D01*
X62770066Y-69877000D01*
X62865304Y-69734142D01*
X62912923Y-69686523D01*
X63770066Y-70829380D02*
X63293876Y-70829380D01*
X63293876Y-69829380D01*
X64674828Y-70829380D02*
X64341495Y-70353190D01*
X64103400Y-70829380D02*
X64103400Y-69829380D01*
X64484352Y-69829380D01*
X64579590Y-69877000D01*
X64627209Y-69924619D01*
X64674828Y-70019857D01*
X64674828Y-70162714D01*
X64627209Y-70257952D01*
X64579590Y-70305571D01*
X64484352Y-70353190D01*
X64103400Y-70353190D01*
X65674828Y-70734142D02*
X65627209Y-70781761D01*
X65484352Y-70829380D01*
X65389114Y-70829380D01*
X65246257Y-70781761D01*
X65151019Y-70686523D01*
X65103400Y-70591285D01*
X65055780Y-70400809D01*
X65055780Y-70257952D01*
X65103400Y-70067476D01*
X65151019Y-69972238D01*
X65246257Y-69877000D01*
X65389114Y-69829380D01*
X65484352Y-69829380D01*
X65627209Y-69877000D01*
X65674828Y-69924619D01*
X66103400Y-70829380D02*
X66103400Y-69829380D01*
X66674828Y-70829380D02*
X66246257Y-70257952D01*
X66674828Y-69829380D02*
X66103400Y-70400809D01*
X67008161Y-71210333D02*
X67055780Y-71162714D01*
X67151019Y-71019857D01*
X67198638Y-70924619D01*
X67246257Y-70781761D01*
X67293876Y-70543666D01*
X67293876Y-70353190D01*
X67246257Y-70115095D01*
X67198638Y-69972238D01*
X67151019Y-69877000D01*
X67055780Y-69734142D01*
X67008161Y-69686523D01*
M02*
