%TF.GenerationSoftware,KiCad,Pcbnew,(6.0.1)*%
%TF.CreationDate,2022-07-05T17:23:16-07:00*%
%TF.ProjectId,mu100-dit-connector-board-panelized,6d753130-302d-4646-9974-2d636f6e6e65,rev?*%
%TF.SameCoordinates,Original*%
%TF.FileFunction,Paste,Top*%
%TF.FilePolarity,Positive*%
%FSLAX46Y46*%
G04 Gerber Fmt 4.6, Leading zero omitted, Abs format (unit mm)*
G04 Created by KiCad (PCBNEW (6.0.1)) date 2022-07-05 17:23:16*
%MOMM*%
%LPD*%
G01*
G04 APERTURE LIST*
G04 Aperture macros list*
%AMRoundRect*
0 Rectangle with rounded corners*
0 $1 Rounding radius*
0 $2 $3 $4 $5 $6 $7 $8 $9 X,Y pos of 4 corners*
0 Add a 4 corners polygon primitive as box body*
4,1,4,$2,$3,$4,$5,$6,$7,$8,$9,$2,$3,0*
0 Add four circle primitives for the rounded corners*
1,1,$1+$1,$2,$3*
1,1,$1+$1,$4,$5*
1,1,$1+$1,$6,$7*
1,1,$1+$1,$8,$9*
0 Add four rect primitives between the rounded corners*
20,1,$1+$1,$2,$3,$4,$5,0*
20,1,$1+$1,$4,$5,$6,$7,0*
20,1,$1+$1,$6,$7,$8,$9,0*
20,1,$1+$1,$8,$9,$2,$3,0*%
G04 Aperture macros list end*
%ADD10RoundRect,0.250000X-0.350000X-0.450000X0.350000X-0.450000X0.350000X0.450000X-0.350000X0.450000X0*%
%ADD11RoundRect,0.250000X-0.337500X-0.475000X0.337500X-0.475000X0.337500X0.475000X-0.337500X0.475000X0*%
G04 APERTURE END LIST*
D10*
%TO.C,R11*%
X57199000Y-42318332D03*
X59199000Y-42318332D03*
%TD*%
%TO.C,R2*%
X23049000Y-38471666D03*
X25049000Y-38471666D03*
%TD*%
%TO.C,R18*%
X91349000Y-34625000D03*
X93349000Y-34625000D03*
%TD*%
D11*
%TO.C,C9*%
X74286500Y-71755800D03*
X76361500Y-71755800D03*
%TD*%
D10*
%TO.C,R34*%
X74274000Y-76625000D03*
X76274000Y-76625000D03*
%TD*%
D11*
%TO.C,C6*%
X23061500Y-71755800D03*
X25136500Y-71755800D03*
%TD*%
%TO.C,C5*%
X91361500Y-29755800D03*
X93436500Y-29755800D03*
%TD*%
%TO.C,C8*%
X57211500Y-71755800D03*
X59286500Y-71755800D03*
%TD*%
D10*
%TO.C,R16*%
X74274000Y-42318332D03*
X76274000Y-42318332D03*
%TD*%
%TO.C,R22*%
X23049000Y-76625000D03*
X25049000Y-76625000D03*
%TD*%
D11*
%TO.C,C1*%
X23061500Y-29755800D03*
X25136500Y-29755800D03*
%TD*%
D10*
%TO.C,R31*%
X57199000Y-80471666D03*
X59199000Y-80471666D03*
%TD*%
%TO.C,R41*%
X91349000Y-88165000D03*
X93349000Y-88165000D03*
%TD*%
%TO.C,R27*%
X40124000Y-80471666D03*
X42124000Y-80471666D03*
%TD*%
%TO.C,R39*%
X91349000Y-80471666D03*
X93349000Y-80471666D03*
%TD*%
%TO.C,R37*%
X74274000Y-88165000D03*
X76274000Y-88165000D03*
%TD*%
D11*
%TO.C,C7*%
X40136500Y-71755800D03*
X42211500Y-71755800D03*
%TD*%
D10*
%TO.C,R30*%
X57199000Y-76625000D03*
X59199000Y-76625000D03*
%TD*%
%TO.C,R28*%
X40124000Y-84318332D03*
X42124000Y-84318332D03*
%TD*%
%TO.C,R14*%
X74274000Y-38471666D03*
X76274000Y-38471666D03*
%TD*%
%TO.C,R24*%
X23049000Y-84318332D03*
X25049000Y-84318332D03*
%TD*%
%TO.C,R36*%
X74274000Y-84318332D03*
X76274000Y-84318332D03*
%TD*%
%TO.C,R35*%
X74274000Y-80471666D03*
X76274000Y-80471666D03*
%TD*%
%TO.C,R20*%
X91349000Y-42318332D03*
X93349000Y-42318332D03*
%TD*%
%TO.C,R10*%
X57199000Y-38471666D03*
X59199000Y-38471666D03*
%TD*%
%TO.C,R7*%
X40124000Y-42318332D03*
X42124000Y-42318332D03*
%TD*%
%TO.C,R9*%
X57199000Y-34625000D03*
X59199000Y-34625000D03*
%TD*%
%TO.C,R5*%
X40124000Y-34625000D03*
X42124000Y-34625000D03*
%TD*%
%TO.C,R12*%
X57199000Y-46165000D03*
X59199000Y-46165000D03*
%TD*%
%TO.C,R38*%
X91349000Y-76625000D03*
X93349000Y-76625000D03*
%TD*%
%TO.C,R26*%
X40124000Y-76625000D03*
X42124000Y-76625000D03*
%TD*%
%TO.C,R21*%
X91349000Y-46165000D03*
X93349000Y-46165000D03*
%TD*%
D11*
%TO.C,C10*%
X91361500Y-71755800D03*
X93436500Y-71755800D03*
%TD*%
%TO.C,C4*%
X74286500Y-29755800D03*
X76361500Y-29755800D03*
%TD*%
%TO.C,C2*%
X40136500Y-29755800D03*
X42211500Y-29755800D03*
%TD*%
D10*
%TO.C,R6*%
X40124000Y-38471666D03*
X42124000Y-38471666D03*
%TD*%
%TO.C,R29*%
X40124000Y-88165000D03*
X42124000Y-88165000D03*
%TD*%
%TO.C,R33*%
X57199000Y-88165000D03*
X59199000Y-88165000D03*
%TD*%
%TO.C,R1*%
X23049000Y-46165000D03*
X25049000Y-46165000D03*
%TD*%
%TO.C,R23*%
X23049000Y-80471666D03*
X25049000Y-80471666D03*
%TD*%
%TO.C,R17*%
X74274000Y-46165000D03*
X76274000Y-46165000D03*
%TD*%
%TO.C,R32*%
X57199000Y-84318332D03*
X59199000Y-84318332D03*
%TD*%
%TO.C,R25*%
X23049000Y-88165000D03*
X25049000Y-88165000D03*
%TD*%
%TO.C,R8*%
X40124000Y-46165000D03*
X42124000Y-46165000D03*
%TD*%
%TO.C,R13*%
X74274000Y-34625000D03*
X76274000Y-34625000D03*
%TD*%
%TO.C,R3*%
X23049000Y-42318332D03*
X25049000Y-42318332D03*
%TD*%
%TO.C,R4*%
X23049000Y-34625000D03*
X25049000Y-34625000D03*
%TD*%
D11*
%TO.C,C3*%
X57211500Y-29755800D03*
X59286500Y-29755800D03*
%TD*%
D10*
%TO.C,R19*%
X91349000Y-38471666D03*
X93349000Y-38471666D03*
%TD*%
%TO.C,R40*%
X91349000Y-84318332D03*
X93349000Y-84318332D03*
%TD*%
M02*
