%TF.GenerationSoftware,KiCad,Pcbnew,(6.0.1)*%
%TF.CreationDate,2022-07-04T15:46:30-07:00*%
%TF.ProjectId,mu100-dit-connector-board,6d753130-302d-4646-9974-2d636f6e6e65,rev?*%
%TF.SameCoordinates,Original*%
%TF.FileFunction,Other,Comment*%
%FSLAX46Y46*%
G04 Gerber Fmt 4.6, Leading zero omitted, Abs format (unit mm)*
G04 Created by KiCad (PCBNEW (6.0.1)) date 2022-07-04 15:46:30*
%MOMM*%
%LPD*%
G01*
G04 APERTURE LIST*
%ADD10C,0.150000*%
%ADD11C,0.100000*%
G04 APERTURE END LIST*
D10*
X62020000Y-55880000D02*
X61410000Y-55880000D01*
X90187619Y-36617619D02*
X91187619Y-36617619D01*
X91187619Y-36855714D01*
X91140000Y-36998571D01*
X91044761Y-37093809D01*
X90949523Y-37141428D01*
X90759047Y-37189047D01*
X90616190Y-37189047D01*
X90425714Y-37141428D01*
X90330476Y-37093809D01*
X90235238Y-36998571D01*
X90187619Y-36855714D01*
X90187619Y-36617619D01*
X90473333Y-37570000D02*
X90473333Y-38046190D01*
X90187619Y-37474761D02*
X91187619Y-37808095D01*
X90187619Y-38141428D01*
X90282857Y-39046190D02*
X90235238Y-38998571D01*
X90187619Y-38855714D01*
X90187619Y-38760476D01*
X90235238Y-38617619D01*
X90330476Y-38522380D01*
X90425714Y-38474761D01*
X90616190Y-38427142D01*
X90759047Y-38427142D01*
X90949523Y-38474761D01*
X91044761Y-38522380D01*
X91140000Y-38617619D01*
X91187619Y-38760476D01*
X91187619Y-38855714D01*
X91140000Y-38998571D01*
X91092380Y-39046190D01*
X91187619Y-39665238D02*
X91187619Y-39855714D01*
X91140000Y-39950952D01*
X91044761Y-40046190D01*
X90854285Y-40093809D01*
X90520952Y-40093809D01*
X90330476Y-40046190D01*
X90235238Y-39950952D01*
X90187619Y-39855714D01*
X90187619Y-39665238D01*
X90235238Y-39570000D01*
X90330476Y-39474761D01*
X90520952Y-39427142D01*
X90854285Y-39427142D01*
X91044761Y-39474761D01*
X91140000Y-39570000D01*
X91187619Y-39665238D01*
X90187619Y-40998571D02*
X90187619Y-40522380D01*
X91187619Y-40522380D01*
X89806666Y-42379523D02*
X89854285Y-42331904D01*
X89997142Y-42236666D01*
X90092380Y-42189047D01*
X90235238Y-42141428D01*
X90473333Y-42093809D01*
X90663809Y-42093809D01*
X90901904Y-42141428D01*
X91044761Y-42189047D01*
X91140000Y-42236666D01*
X91282857Y-42331904D01*
X91330476Y-42379523D01*
X90235238Y-42712857D02*
X90187619Y-42855714D01*
X90187619Y-43093809D01*
X90235238Y-43189047D01*
X90282857Y-43236666D01*
X90378095Y-43284285D01*
X90473333Y-43284285D01*
X90568571Y-43236666D01*
X90616190Y-43189047D01*
X90663809Y-43093809D01*
X90711428Y-42903333D01*
X90759047Y-42808095D01*
X90806666Y-42760476D01*
X90901904Y-42712857D01*
X90997142Y-42712857D01*
X91092380Y-42760476D01*
X91140000Y-42808095D01*
X91187619Y-42903333D01*
X91187619Y-43141428D01*
X91140000Y-43284285D01*
X90187619Y-43712857D02*
X91187619Y-43712857D01*
X91187619Y-43950952D01*
X91140000Y-44093809D01*
X91044761Y-44189047D01*
X90949523Y-44236666D01*
X90759047Y-44284285D01*
X90616190Y-44284285D01*
X90425714Y-44236666D01*
X90330476Y-44189047D01*
X90235238Y-44093809D01*
X90187619Y-43950952D01*
X90187619Y-43712857D01*
X90473333Y-44665238D02*
X90473333Y-45141428D01*
X90187619Y-44570000D02*
X91187619Y-44903333D01*
X90187619Y-45236666D01*
X91187619Y-45427142D02*
X91187619Y-45998571D01*
X90187619Y-45712857D02*
X91187619Y-45712857D01*
X89806666Y-46236666D02*
X89854285Y-46284285D01*
X89997142Y-46379523D01*
X90092380Y-46427142D01*
X90235238Y-46474761D01*
X90473333Y-46522380D01*
X90663809Y-46522380D01*
X90901904Y-46474761D01*
X91044761Y-46427142D01*
X91140000Y-46379523D01*
X91282857Y-46284285D01*
X91330476Y-46236666D01*
X89017619Y-36754285D02*
X88017619Y-36992380D01*
X88731904Y-37182857D01*
X88017619Y-37373333D01*
X89017619Y-37611428D01*
X88112857Y-38563809D02*
X88065238Y-38516190D01*
X88017619Y-38373333D01*
X88017619Y-38278095D01*
X88065238Y-38135238D01*
X88160476Y-38040000D01*
X88255714Y-37992380D01*
X88446190Y-37944761D01*
X88589047Y-37944761D01*
X88779523Y-37992380D01*
X88874761Y-38040000D01*
X88970000Y-38135238D01*
X89017619Y-38278095D01*
X89017619Y-38373333D01*
X88970000Y-38516190D01*
X88922380Y-38563809D01*
X88017619Y-39468571D02*
X88017619Y-38992380D01*
X89017619Y-38992380D01*
X88017619Y-39801904D02*
X89017619Y-39801904D01*
X88017619Y-40373333D02*
X88589047Y-39944761D01*
X89017619Y-40373333D02*
X88446190Y-39801904D01*
X87636666Y-41849523D02*
X87684285Y-41801904D01*
X87827142Y-41706666D01*
X87922380Y-41659047D01*
X88065238Y-41611428D01*
X88303333Y-41563809D01*
X88493809Y-41563809D01*
X88731904Y-41611428D01*
X88874761Y-41659047D01*
X88970000Y-41706666D01*
X89112857Y-41801904D01*
X89160476Y-41849523D01*
X88017619Y-42706666D02*
X88017619Y-42230476D01*
X89017619Y-42230476D01*
X88017619Y-43611428D02*
X88493809Y-43278095D01*
X88017619Y-43040000D02*
X89017619Y-43040000D01*
X89017619Y-43420952D01*
X88970000Y-43516190D01*
X88922380Y-43563809D01*
X88827142Y-43611428D01*
X88684285Y-43611428D01*
X88589047Y-43563809D01*
X88541428Y-43516190D01*
X88493809Y-43420952D01*
X88493809Y-43040000D01*
X88112857Y-44611428D02*
X88065238Y-44563809D01*
X88017619Y-44420952D01*
X88017619Y-44325714D01*
X88065238Y-44182857D01*
X88160476Y-44087619D01*
X88255714Y-44040000D01*
X88446190Y-43992380D01*
X88589047Y-43992380D01*
X88779523Y-44040000D01*
X88874761Y-44087619D01*
X88970000Y-44182857D01*
X89017619Y-44325714D01*
X89017619Y-44420952D01*
X88970000Y-44563809D01*
X88922380Y-44611428D01*
X88017619Y-45040000D02*
X89017619Y-45040000D01*
X88017619Y-45611428D02*
X88589047Y-45182857D01*
X89017619Y-45611428D02*
X88446190Y-45040000D01*
X87636666Y-45944761D02*
X87684285Y-45992380D01*
X87827142Y-46087619D01*
X87922380Y-46135238D01*
X88065238Y-46182857D01*
X88303333Y-46230476D01*
X88493809Y-46230476D01*
X88731904Y-46182857D01*
X88874761Y-46135238D01*
X88970000Y-46087619D01*
X89112857Y-45992380D01*
X89160476Y-45944761D01*
X86122857Y-36927142D02*
X86075238Y-36879523D01*
X86027619Y-36736666D01*
X86027619Y-36641428D01*
X86075238Y-36498571D01*
X86170476Y-36403333D01*
X86265714Y-36355714D01*
X86456190Y-36308095D01*
X86599047Y-36308095D01*
X86789523Y-36355714D01*
X86884761Y-36403333D01*
X86980000Y-36498571D01*
X87027619Y-36641428D01*
X87027619Y-36736666D01*
X86980000Y-36879523D01*
X86932380Y-36927142D01*
X86027619Y-37355714D02*
X87027619Y-37355714D01*
X86027619Y-37927142D02*
X86599047Y-37498571D01*
X87027619Y-37927142D02*
X86456190Y-37355714D01*
X86932380Y-38308095D02*
X86980000Y-38355714D01*
X87027619Y-38450952D01*
X87027619Y-38689047D01*
X86980000Y-38784285D01*
X86932380Y-38831904D01*
X86837142Y-38879523D01*
X86741904Y-38879523D01*
X86599047Y-38831904D01*
X86027619Y-38260476D01*
X86027619Y-38879523D01*
X87027619Y-39784285D02*
X87027619Y-39308095D01*
X86551428Y-39260476D01*
X86599047Y-39308095D01*
X86646666Y-39403333D01*
X86646666Y-39641428D01*
X86599047Y-39736666D01*
X86551428Y-39784285D01*
X86456190Y-39831904D01*
X86218095Y-39831904D01*
X86122857Y-39784285D01*
X86075238Y-39736666D01*
X86027619Y-39641428D01*
X86027619Y-39403333D01*
X86075238Y-39308095D01*
X86122857Y-39260476D01*
X87027619Y-40689047D02*
X87027619Y-40498571D01*
X86980000Y-40403333D01*
X86932380Y-40355714D01*
X86789523Y-40260476D01*
X86599047Y-40212857D01*
X86218095Y-40212857D01*
X86122857Y-40260476D01*
X86075238Y-40308095D01*
X86027619Y-40403333D01*
X86027619Y-40593809D01*
X86075238Y-40689047D01*
X86122857Y-40736666D01*
X86218095Y-40784285D01*
X86456190Y-40784285D01*
X86551428Y-40736666D01*
X86599047Y-40689047D01*
X86646666Y-40593809D01*
X86646666Y-40403333D01*
X86599047Y-40308095D01*
X86551428Y-40260476D01*
X86456190Y-40212857D01*
X85646666Y-42260476D02*
X85694285Y-42212857D01*
X85837142Y-42117619D01*
X85932380Y-42070000D01*
X86075238Y-42022380D01*
X86313333Y-41974761D01*
X86503809Y-41974761D01*
X86741904Y-42022380D01*
X86884761Y-42070000D01*
X86980000Y-42117619D01*
X87122857Y-42212857D01*
X87170476Y-42260476D01*
X86027619Y-42641428D02*
X87027619Y-42641428D01*
X86313333Y-42974761D01*
X87027619Y-43308095D01*
X86027619Y-43308095D01*
X86122857Y-44355714D02*
X86075238Y-44308095D01*
X86027619Y-44165238D01*
X86027619Y-44070000D01*
X86075238Y-43927142D01*
X86170476Y-43831904D01*
X86265714Y-43784285D01*
X86456190Y-43736666D01*
X86599047Y-43736666D01*
X86789523Y-43784285D01*
X86884761Y-43831904D01*
X86980000Y-43927142D01*
X87027619Y-44070000D01*
X87027619Y-44165238D01*
X86980000Y-44308095D01*
X86932380Y-44355714D01*
X86027619Y-45260476D02*
X86027619Y-44784285D01*
X87027619Y-44784285D01*
X86027619Y-45593809D02*
X87027619Y-45593809D01*
X86027619Y-46165238D02*
X86599047Y-45736666D01*
X87027619Y-46165238D02*
X86456190Y-45593809D01*
X85646666Y-46498571D02*
X85694285Y-46546190D01*
X85837142Y-46641428D01*
X85932380Y-46689047D01*
X86075238Y-46736666D01*
X86313333Y-46784285D01*
X86503809Y-46784285D01*
X86741904Y-46736666D01*
X86884761Y-46689047D01*
X86980000Y-46641428D01*
X87122857Y-46546190D01*
X87170476Y-46498571D01*
X81982380Y-37998571D02*
X82030000Y-37903333D01*
X82125238Y-37808095D01*
X82268095Y-37665238D01*
X82315714Y-37570000D01*
X82315714Y-37474761D01*
X82077619Y-37522380D02*
X82125238Y-37427142D01*
X82220476Y-37331904D01*
X82410952Y-37284285D01*
X82744285Y-37284285D01*
X82934761Y-37331904D01*
X83030000Y-37427142D01*
X83077619Y-37522380D01*
X83077619Y-37712857D01*
X83030000Y-37808095D01*
X82934761Y-37903333D01*
X82744285Y-37950952D01*
X82410952Y-37950952D01*
X82220476Y-37903333D01*
X82125238Y-37808095D01*
X82077619Y-37712857D01*
X82077619Y-37522380D01*
X82172857Y-38950952D02*
X82125238Y-38903333D01*
X82077619Y-38760476D01*
X82077619Y-38665238D01*
X82125238Y-38522380D01*
X82220476Y-38427142D01*
X82315714Y-38379523D01*
X82506190Y-38331904D01*
X82649047Y-38331904D01*
X82839523Y-38379523D01*
X82934761Y-38427142D01*
X83030000Y-38522380D01*
X83077619Y-38665238D01*
X83077619Y-38760476D01*
X83030000Y-38903333D01*
X82982380Y-38950952D01*
X82077619Y-39855714D02*
X82077619Y-39379523D01*
X83077619Y-39379523D01*
X82077619Y-40189047D02*
X83077619Y-40189047D01*
X82077619Y-40760476D02*
X82649047Y-40331904D01*
X83077619Y-40760476D02*
X82506190Y-40189047D01*
X81696666Y-42236666D02*
X81744285Y-42189047D01*
X81887142Y-42093809D01*
X81982380Y-42046190D01*
X82125238Y-41998571D01*
X82363333Y-41950952D01*
X82553809Y-41950952D01*
X82791904Y-41998571D01*
X82934761Y-42046190D01*
X83030000Y-42093809D01*
X83172857Y-42189047D01*
X83220476Y-42236666D01*
X82601428Y-42950952D02*
X82553809Y-43093809D01*
X82506190Y-43141428D01*
X82410952Y-43189047D01*
X82268095Y-43189047D01*
X82172857Y-43141428D01*
X82125238Y-43093809D01*
X82077619Y-42998571D01*
X82077619Y-42617619D01*
X83077619Y-42617619D01*
X83077619Y-42950952D01*
X83030000Y-43046190D01*
X82982380Y-43093809D01*
X82887142Y-43141428D01*
X82791904Y-43141428D01*
X82696666Y-43093809D01*
X82649047Y-43046190D01*
X82601428Y-42950952D01*
X82601428Y-42617619D01*
X82172857Y-44189047D02*
X82125238Y-44141428D01*
X82077619Y-43998571D01*
X82077619Y-43903333D01*
X82125238Y-43760476D01*
X82220476Y-43665238D01*
X82315714Y-43617619D01*
X82506190Y-43570000D01*
X82649047Y-43570000D01*
X82839523Y-43617619D01*
X82934761Y-43665238D01*
X83030000Y-43760476D01*
X83077619Y-43903333D01*
X83077619Y-43998571D01*
X83030000Y-44141428D01*
X82982380Y-44189047D01*
X82077619Y-44617619D02*
X83077619Y-44617619D01*
X82077619Y-45189047D02*
X82649047Y-44760476D01*
X83077619Y-45189047D02*
X82506190Y-44617619D01*
X81696666Y-45522380D02*
X81744285Y-45570000D01*
X81887142Y-45665238D01*
X81982380Y-45712857D01*
X82125238Y-45760476D01*
X82363333Y-45808095D01*
X82553809Y-45808095D01*
X82791904Y-45760476D01*
X82934761Y-45712857D01*
X83030000Y-45665238D01*
X83172857Y-45570000D01*
X83220476Y-45522380D01*
X85720000Y-48480000D02*
X85720000Y-43000000D01*
X81700000Y-45780000D02*
X81700000Y-43010000D01*
X87730000Y-45770000D02*
X87730000Y-43000000D01*
X73725000Y-49050000D02*
X73335000Y-49050000D01*
X73340000Y-48640000D02*
X73720000Y-49020000D01*
X72930000Y-49050000D02*
X73340000Y-48640000D01*
X73330000Y-49050000D02*
X72930000Y-49050000D01*
X73330000Y-49550000D02*
X73330000Y-49050000D01*
X73740000Y-49560000D02*
X73740000Y-51520000D01*
X71680000Y-49560000D02*
X73740000Y-49560000D01*
X71680000Y-51440000D02*
X71680000Y-49560000D01*
X69680000Y-49540000D02*
X69680000Y-51510000D01*
X68880000Y-49540000D02*
X69680000Y-49540000D01*
X67680000Y-49540000D02*
X67680000Y-51460000D01*
X68880000Y-49540000D02*
X67680000Y-49540000D01*
X72898095Y-47390000D02*
X72802857Y-47342380D01*
X72660000Y-47342380D01*
X72517142Y-47390000D01*
X72421904Y-47485238D01*
X72374285Y-47580476D01*
X72326666Y-47770952D01*
X72326666Y-47913809D01*
X72374285Y-48104285D01*
X72421904Y-48199523D01*
X72517142Y-48294761D01*
X72660000Y-48342380D01*
X72755238Y-48342380D01*
X72898095Y-48294761D01*
X72945714Y-48247142D01*
X72945714Y-47913809D01*
X72755238Y-47913809D01*
X73374285Y-48342380D02*
X73374285Y-47342380D01*
X73945714Y-48342380D01*
X73945714Y-47342380D01*
X74421904Y-48342380D02*
X74421904Y-47342380D01*
X74660000Y-47342380D01*
X74802857Y-47390000D01*
X74898095Y-47485238D01*
X74945714Y-47580476D01*
X74993333Y-47770952D01*
X74993333Y-47913809D01*
X74945714Y-48104285D01*
X74898095Y-48199523D01*
X74802857Y-48294761D01*
X74660000Y-48342380D01*
X74421904Y-48342380D01*
X68669523Y-47212380D02*
X68193333Y-47212380D01*
X68145714Y-47688571D01*
X68193333Y-47640952D01*
X68288571Y-47593333D01*
X68526666Y-47593333D01*
X68621904Y-47640952D01*
X68669523Y-47688571D01*
X68717142Y-47783809D01*
X68717142Y-48021904D01*
X68669523Y-48117142D01*
X68621904Y-48164761D01*
X68526666Y-48212380D01*
X68288571Y-48212380D01*
X68193333Y-48164761D01*
X68145714Y-48117142D01*
X69002857Y-47212380D02*
X69336190Y-48212380D01*
X69669523Y-47212380D01*
X68900000Y-48540000D02*
X69250000Y-48890000D01*
X68900000Y-48540000D02*
X68540000Y-48900000D01*
X68880000Y-49560000D02*
X68880000Y-48540000D01*
X83130714Y-46945714D02*
X82630714Y-46945714D01*
X83416428Y-46767142D02*
X82880714Y-46588571D01*
X82880714Y-47052857D01*
X83380714Y-47267142D02*
X83380714Y-47767142D01*
X82630714Y-47445714D01*
X81700000Y-51470000D02*
X81700000Y-48760000D01*
X81700000Y-46790000D02*
X82300000Y-46550000D01*
X81700000Y-48760000D02*
X81700000Y-48230000D01*
X82300000Y-47510000D02*
X81700000Y-47270000D01*
X81100000Y-47030000D02*
X81700000Y-47270000D01*
X81100000Y-47990000D02*
X81700000Y-48230000D01*
X82300000Y-46550000D02*
X81700000Y-46310000D01*
X81700000Y-47750000D02*
X81100000Y-47990000D01*
X81700000Y-46790000D02*
X81100000Y-47030000D01*
X81700000Y-46310000D02*
X81700000Y-45780000D01*
X81700000Y-47750000D02*
X82300000Y-47510000D01*
X89160714Y-46935714D02*
X88660714Y-46935714D01*
X89446428Y-46757142D02*
X88910714Y-46578571D01*
X88910714Y-47042857D01*
X89410714Y-47257142D02*
X89410714Y-47757142D01*
X88660714Y-47435714D01*
X87020714Y-49595714D02*
X86520714Y-49595714D01*
X87306428Y-49417142D02*
X86770714Y-49238571D01*
X86770714Y-49702857D01*
X87270714Y-49917142D02*
X87270714Y-50417142D01*
X86520714Y-50095714D01*
X85720000Y-50450000D02*
X85120000Y-50690000D01*
X85720000Y-50450000D02*
X86320000Y-50210000D01*
X87730000Y-51460000D02*
X87730000Y-48750000D01*
X85720000Y-49010000D02*
X85720000Y-48480000D01*
X85120000Y-49730000D02*
X85720000Y-49970000D01*
X86320000Y-49250000D02*
X85720000Y-49010000D01*
X85720000Y-49490000D02*
X86320000Y-49250000D01*
X86320000Y-50210000D02*
X85720000Y-49970000D01*
X85720000Y-51460000D02*
X85720000Y-50930000D01*
X85720000Y-49490000D02*
X85120000Y-49730000D01*
X85120000Y-50690000D02*
X85720000Y-50930000D01*
X88330000Y-47500000D02*
X87730000Y-47260000D01*
X88330000Y-46540000D02*
X87730000Y-46300000D01*
X87730000Y-48750000D02*
X87730000Y-48220000D01*
X87730000Y-46780000D02*
X88330000Y-46540000D01*
X87130000Y-47980000D02*
X87730000Y-48220000D01*
X87130000Y-47020000D02*
X87730000Y-47260000D01*
X87730000Y-46780000D02*
X87130000Y-47020000D01*
X87730000Y-47740000D02*
X88330000Y-47500000D01*
X87730000Y-46300000D02*
X87730000Y-45770000D01*
X87730000Y-47740000D02*
X87130000Y-47980000D01*
X90540714Y-49310000D02*
X90540714Y-48881428D01*
X90540714Y-49095714D02*
X91290714Y-49095714D01*
X91183571Y-49024285D01*
X91112142Y-48952857D01*
X91076428Y-48881428D01*
X91290714Y-49774285D02*
X91290714Y-49845714D01*
X91255000Y-49917142D01*
X91219285Y-49952857D01*
X91147857Y-49988571D01*
X91005000Y-50024285D01*
X90826428Y-50024285D01*
X90683571Y-49988571D01*
X90612142Y-49952857D01*
X90576428Y-49917142D01*
X90540714Y-49845714D01*
X90540714Y-49774285D01*
X90576428Y-49702857D01*
X90612142Y-49667142D01*
X90683571Y-49631428D01*
X90826428Y-49595714D01*
X91005000Y-49595714D01*
X91147857Y-49631428D01*
X91219285Y-49667142D01*
X91255000Y-49702857D01*
X91290714Y-49774285D01*
X91290714Y-50488571D02*
X91290714Y-50560000D01*
X91255000Y-50631428D01*
X91219285Y-50667142D01*
X91147857Y-50702857D01*
X91005000Y-50738571D01*
X90826428Y-50738571D01*
X90683571Y-50702857D01*
X90612142Y-50667142D01*
X90576428Y-50631428D01*
X90540714Y-50560000D01*
X90540714Y-50488571D01*
X90576428Y-50417142D01*
X90612142Y-50381428D01*
X90683571Y-50345714D01*
X90826428Y-50310000D01*
X91005000Y-50310000D01*
X91147857Y-50345714D01*
X91219285Y-50381428D01*
X91255000Y-50417142D01*
X91290714Y-50488571D01*
X90340000Y-50210000D02*
X89740000Y-49970000D01*
X89740000Y-49490000D02*
X90340000Y-49250000D01*
X89740000Y-50450000D02*
X89140000Y-50690000D01*
X89140000Y-49730000D02*
X89740000Y-49970000D01*
X89740000Y-50450000D02*
X90340000Y-50210000D01*
X89740000Y-49490000D02*
X89140000Y-49730000D01*
X90340000Y-49250000D02*
X89740000Y-49010000D01*
X89740000Y-49010000D02*
X89740000Y-43000000D01*
X89740000Y-51460000D02*
X89740000Y-50930000D01*
X89140000Y-50690000D02*
X89740000Y-50930000D01*
X67680000Y-57970000D02*
X67680000Y-51460000D01*
X69690000Y-57970000D02*
X69690000Y-51460000D01*
X73710000Y-57970000D02*
X73710000Y-51460000D01*
X71700000Y-57970000D02*
X71700000Y-51460000D01*
X81700000Y-57970000D02*
X81700000Y-51460000D01*
X89740000Y-57970000D02*
X89740000Y-51460000D01*
X87730000Y-57970000D02*
X87730000Y-51460000D01*
X85720000Y-57970000D02*
X85720000Y-51460000D01*
D11*
X66900000Y-57500000D02*
X68500000Y-57500000D01*
X68500000Y-57500000D02*
X68500000Y-58497500D01*
X68500000Y-58497500D02*
X66900000Y-58497500D01*
X66900000Y-58497500D02*
X66900000Y-57500000D01*
X72900000Y-57497500D02*
X74500000Y-57497500D01*
X74500000Y-57497500D02*
X74500000Y-58495000D01*
X74500000Y-58495000D02*
X72900000Y-58495000D01*
X72900000Y-58495000D02*
X72900000Y-57497500D01*
X86900000Y-57507500D02*
X88500000Y-57507500D01*
X88500000Y-57507500D02*
X88500000Y-58505000D01*
X88500000Y-58505000D02*
X86900000Y-58505000D01*
X86900000Y-58505000D02*
X86900000Y-57507500D01*
X88900000Y-57502500D02*
X90500000Y-57502500D01*
X90500000Y-57502500D02*
X90500000Y-58500000D01*
X90500000Y-58500000D02*
X88900000Y-58500000D01*
X88900000Y-58500000D02*
X88900000Y-57502500D01*
X74900000Y-57502500D02*
X76500000Y-57502500D01*
X76500000Y-57502500D02*
X76500000Y-58500000D01*
X76500000Y-58500000D02*
X74900000Y-58500000D01*
X74900000Y-58500000D02*
X74900000Y-57502500D01*
X78900000Y-57497500D02*
X80500000Y-57497500D01*
X80500000Y-57497500D02*
X80500000Y-58495000D01*
X80500000Y-58495000D02*
X78900000Y-58495000D01*
X78900000Y-58495000D02*
X78900000Y-57497500D01*
X90900000Y-57500000D02*
X92500000Y-57500000D01*
X92500000Y-57500000D02*
X92500000Y-58497500D01*
X92500000Y-58497500D02*
X90900000Y-58497500D01*
X90900000Y-58497500D02*
X90900000Y-57500000D01*
X70900000Y-57502500D02*
X72500000Y-57502500D01*
X72500000Y-57502500D02*
X72500000Y-58500000D01*
X72500000Y-58500000D02*
X70900000Y-58500000D01*
X70900000Y-58500000D02*
X70900000Y-57502500D01*
X80900000Y-57502500D02*
X82500000Y-57502500D01*
X82500000Y-57502500D02*
X82500000Y-58500000D01*
X82500000Y-58500000D02*
X80900000Y-58500000D01*
X80900000Y-58500000D02*
X80900000Y-57502500D01*
X76900000Y-57500000D02*
X78500000Y-57500000D01*
X78500000Y-57500000D02*
X78500000Y-58497500D01*
X78500000Y-58497500D02*
X76900000Y-58497500D01*
X76900000Y-58497500D02*
X76900000Y-57500000D01*
X76900000Y-57500000D02*
X78500000Y-57500000D01*
X78500000Y-57500000D02*
X78500000Y-58497500D01*
X78500000Y-58497500D02*
X76900000Y-58497500D01*
X76900000Y-58497500D02*
X76900000Y-57500000D01*
X68900000Y-57505000D02*
X70500000Y-57505000D01*
X70500000Y-57505000D02*
X70500000Y-58502500D01*
X70500000Y-58502500D02*
X68900000Y-58502500D01*
X68900000Y-58502500D02*
X68900000Y-57505000D01*
X84900000Y-57502500D02*
X86500000Y-57502500D01*
X86500000Y-57502500D02*
X86500000Y-58500000D01*
X86500000Y-58500000D02*
X84900000Y-58500000D01*
X84900000Y-58500000D02*
X84900000Y-57502500D01*
X88900000Y-57505000D02*
X90500000Y-57505000D01*
X90500000Y-57505000D02*
X90500000Y-58502500D01*
X90500000Y-58502500D02*
X88900000Y-58502500D01*
X88900000Y-58502500D02*
X88900000Y-57505000D01*
X70900000Y-57500000D02*
X72500000Y-57500000D01*
X72500000Y-57500000D02*
X72500000Y-58497500D01*
X72500000Y-58497500D02*
X70900000Y-58497500D01*
X70900000Y-58497500D02*
X70900000Y-57500000D01*
X82900000Y-57500000D02*
X84500000Y-57500000D01*
X84500000Y-57500000D02*
X84500000Y-58497500D01*
X84500000Y-58497500D02*
X82900000Y-58497500D01*
X82900000Y-58497500D02*
X82900000Y-57500000D01*
X82900000Y-57505000D02*
X84500000Y-57505000D01*
X84500000Y-57505000D02*
X84500000Y-58502500D01*
X84500000Y-58502500D02*
X82900000Y-58502500D01*
X82900000Y-58502500D02*
X82900000Y-57505000D01*
X64900000Y-57502500D02*
X66500000Y-57502500D01*
X66500000Y-57502500D02*
X66500000Y-58500000D01*
X66500000Y-58500000D02*
X64900000Y-58500000D01*
X64900000Y-58500000D02*
X64900000Y-57502500D01*
D10*
X49026666Y-56237380D02*
X49026666Y-55237380D01*
X49360000Y-55951666D01*
X49693333Y-55237380D01*
X49693333Y-56237380D01*
X50312380Y-56237380D02*
X50217142Y-56189761D01*
X50169523Y-56142142D01*
X50121904Y-56046904D01*
X50121904Y-55761190D01*
X50169523Y-55665952D01*
X50217142Y-55618333D01*
X50312380Y-55570714D01*
X50455238Y-55570714D01*
X50550476Y-55618333D01*
X50598095Y-55665952D01*
X50645714Y-55761190D01*
X50645714Y-56046904D01*
X50598095Y-56142142D01*
X50550476Y-56189761D01*
X50455238Y-56237380D01*
X50312380Y-56237380D01*
X51217142Y-56237380D02*
X51121904Y-56189761D01*
X51074285Y-56094523D01*
X51074285Y-55237380D01*
X51979047Y-56189761D02*
X51883809Y-56237380D01*
X51693333Y-56237380D01*
X51598095Y-56189761D01*
X51550476Y-56094523D01*
X51550476Y-55713571D01*
X51598095Y-55618333D01*
X51693333Y-55570714D01*
X51883809Y-55570714D01*
X51979047Y-55618333D01*
X52026666Y-55713571D01*
X52026666Y-55808809D01*
X51550476Y-55904047D01*
X52360000Y-56237380D02*
X52883809Y-55570714D01*
X52360000Y-55570714D02*
X52883809Y-56237380D01*
X54455238Y-56189761D02*
X54360000Y-56237380D01*
X54169523Y-56237380D01*
X54074285Y-56189761D01*
X54026666Y-56142142D01*
X53979047Y-56046904D01*
X53979047Y-55761190D01*
X54026666Y-55665952D01*
X54074285Y-55618333D01*
X54169523Y-55570714D01*
X54360000Y-55570714D01*
X54455238Y-55618333D01*
X55026666Y-56237380D02*
X54931428Y-56189761D01*
X54883809Y-56142142D01*
X54836190Y-56046904D01*
X54836190Y-55761190D01*
X54883809Y-55665952D01*
X54931428Y-55618333D01*
X55026666Y-55570714D01*
X55169523Y-55570714D01*
X55264761Y-55618333D01*
X55312380Y-55665952D01*
X55360000Y-55761190D01*
X55360000Y-56046904D01*
X55312380Y-56142142D01*
X55264761Y-56189761D01*
X55169523Y-56237380D01*
X55026666Y-56237380D01*
X55788571Y-55570714D02*
X55788571Y-56237380D01*
X55788571Y-55665952D02*
X55836190Y-55618333D01*
X55931428Y-55570714D01*
X56074285Y-55570714D01*
X56169523Y-55618333D01*
X56217142Y-55713571D01*
X56217142Y-56237380D01*
X56693333Y-55570714D02*
X56693333Y-56237380D01*
X56693333Y-55665952D02*
X56740952Y-55618333D01*
X56836190Y-55570714D01*
X56979047Y-55570714D01*
X57074285Y-55618333D01*
X57121904Y-55713571D01*
X57121904Y-56237380D01*
X57979047Y-56189761D02*
X57883809Y-56237380D01*
X57693333Y-56237380D01*
X57598095Y-56189761D01*
X57550476Y-56094523D01*
X57550476Y-55713571D01*
X57598095Y-55618333D01*
X57693333Y-55570714D01*
X57883809Y-55570714D01*
X57979047Y-55618333D01*
X58026666Y-55713571D01*
X58026666Y-55808809D01*
X57550476Y-55904047D01*
X58883809Y-56189761D02*
X58788571Y-56237380D01*
X58598095Y-56237380D01*
X58502857Y-56189761D01*
X58455238Y-56142142D01*
X58407619Y-56046904D01*
X58407619Y-55761190D01*
X58455238Y-55665952D01*
X58502857Y-55618333D01*
X58598095Y-55570714D01*
X58788571Y-55570714D01*
X58883809Y-55618333D01*
X59169523Y-55570714D02*
X59550476Y-55570714D01*
X59312380Y-55237380D02*
X59312380Y-56094523D01*
X59360000Y-56189761D01*
X59455238Y-56237380D01*
X59550476Y-56237380D01*
X60026666Y-56237380D02*
X59931428Y-56189761D01*
X59883809Y-56142142D01*
X59836190Y-56046904D01*
X59836190Y-55761190D01*
X59883809Y-55665952D01*
X59931428Y-55618333D01*
X60026666Y-55570714D01*
X60169523Y-55570714D01*
X60264761Y-55618333D01*
X60312380Y-55665952D01*
X60360000Y-55761190D01*
X60360000Y-56046904D01*
X60312380Y-56142142D01*
X60264761Y-56189761D01*
X60169523Y-56237380D01*
X60026666Y-56237380D01*
X60788571Y-56237380D02*
X60788571Y-55570714D01*
X60788571Y-55761190D02*
X60836190Y-55665952D01*
X60883809Y-55618333D01*
X60979047Y-55570714D01*
X61074285Y-55570714D01*
X52336190Y-57847380D02*
X52240952Y-57799761D01*
X52193333Y-57752142D01*
X52145714Y-57656904D01*
X52145714Y-57371190D01*
X52193333Y-57275952D01*
X52240952Y-57228333D01*
X52336190Y-57180714D01*
X52479047Y-57180714D01*
X52574285Y-57228333D01*
X52621904Y-57275952D01*
X52669523Y-57371190D01*
X52669523Y-57656904D01*
X52621904Y-57752142D01*
X52574285Y-57799761D01*
X52479047Y-57847380D01*
X52336190Y-57847380D01*
X53098095Y-57180714D02*
X53098095Y-57847380D01*
X53098095Y-57275952D02*
X53145714Y-57228333D01*
X53240952Y-57180714D01*
X53383809Y-57180714D01*
X53479047Y-57228333D01*
X53526666Y-57323571D01*
X53526666Y-57847380D01*
X54764761Y-57847380D02*
X54764761Y-56847380D01*
X54764761Y-57228333D02*
X54860000Y-57180714D01*
X55050476Y-57180714D01*
X55145714Y-57228333D01*
X55193333Y-57275952D01*
X55240952Y-57371190D01*
X55240952Y-57656904D01*
X55193333Y-57752142D01*
X55145714Y-57799761D01*
X55050476Y-57847380D01*
X54860000Y-57847380D01*
X54764761Y-57799761D01*
X55812380Y-57847380D02*
X55717142Y-57799761D01*
X55669523Y-57752142D01*
X55621904Y-57656904D01*
X55621904Y-57371190D01*
X55669523Y-57275952D01*
X55717142Y-57228333D01*
X55812380Y-57180714D01*
X55955238Y-57180714D01*
X56050476Y-57228333D01*
X56098095Y-57275952D01*
X56145714Y-57371190D01*
X56145714Y-57656904D01*
X56098095Y-57752142D01*
X56050476Y-57799761D01*
X55955238Y-57847380D01*
X55812380Y-57847380D01*
X57002857Y-57847380D02*
X57002857Y-57323571D01*
X56955238Y-57228333D01*
X56860000Y-57180714D01*
X56669523Y-57180714D01*
X56574285Y-57228333D01*
X57002857Y-57799761D02*
X56907619Y-57847380D01*
X56669523Y-57847380D01*
X56574285Y-57799761D01*
X56526666Y-57704523D01*
X56526666Y-57609285D01*
X56574285Y-57514047D01*
X56669523Y-57466428D01*
X56907619Y-57466428D01*
X57002857Y-57418809D01*
X57479047Y-57847380D02*
X57479047Y-57180714D01*
X57479047Y-57371190D02*
X57526666Y-57275952D01*
X57574285Y-57228333D01*
X57669523Y-57180714D01*
X57764761Y-57180714D01*
X58526666Y-57847380D02*
X58526666Y-56847380D01*
X58526666Y-57799761D02*
X58431428Y-57847380D01*
X58240952Y-57847380D01*
X58145714Y-57799761D01*
X58098095Y-57752142D01*
X58050476Y-57656904D01*
X58050476Y-57371190D01*
X58098095Y-57275952D01*
X58145714Y-57228333D01*
X58240952Y-57180714D01*
X58431428Y-57180714D01*
X58526666Y-57228333D01*
X62025000Y-54300000D02*
X100665000Y-54300000D01*
X100665000Y-54300000D02*
X100665000Y-59500000D01*
X100665000Y-59500000D02*
X62025000Y-59500000D01*
X62025000Y-59500000D02*
X62025000Y-54300000D01*
M02*
