M48
; DRILL file {KiCad (6.0.1)} date Tue Jul  5 17:23:16 2022
; FORMAT={-:-/ absolute / inch / decimal}
; #@! TF.CreationDate,2022-07-05T17:23:16-07:00
; #@! TF.GenerationSoftware,Kicad,Pcbnew,(6.0.1)
; #@! TF.FileFunction,Plated,1,2,PTH
FMAT,2
INCH
; #@! TA.AperFunction,Plated,PTH,ViaDrill
T1C0.0157
; #@! TA.AperFunction,Plated,PTH,ComponentDrill
T2C0.0295
; #@! TA.AperFunction,Plated,PTH,ComponentDrill
T3C0.0315
%
G90
G05
T1
X0.8568Y-1.4435
X0.8568Y-3.097
X0.8675Y-1.2754
X0.8675Y-2.9289
X0.8748Y-1.7285
X0.8748Y-3.382
X0.9211Y-1.2947
X0.9211Y-2.9482
X0.9872Y-1.297
X0.9872Y-2.9506
X1.0656Y-1.2018
X1.0656Y-2.8553
X1.1455Y-1.2329
X1.1455Y-2.8864
X1.5291Y-1.4435
X1.5291Y-3.097
X1.5398Y-1.2754
X1.5398Y-2.9289
X1.5471Y-1.7285
X1.5471Y-3.382
X1.5933Y-1.2947
X1.5933Y-2.9482
X1.6594Y-1.297
X1.6594Y-2.9506
X1.7378Y-1.2018
X1.7378Y-2.8553
X1.8177Y-1.2329
X1.8177Y-2.8864
X2.2013Y-1.4435
X2.2013Y-3.097
X2.212Y-1.2754
X2.212Y-2.9289
X2.2193Y-1.7285
X2.2193Y-3.382
X2.2656Y-1.2947
X2.2656Y-2.9482
X2.3317Y-1.297
X2.3317Y-2.9506
X2.41Y-1.2018
X2.41Y-2.8553
X2.49Y-1.2329
X2.49Y-2.8864
X2.8735Y-1.4435
X2.8735Y-3.097
X2.8843Y-1.2754
X2.8843Y-2.9289
X2.8915Y-1.7285
X2.8915Y-3.382
X2.9378Y-1.2947
X2.9378Y-2.9482
X3.0039Y-1.297
X3.0039Y-2.9506
X3.0823Y-1.2018
X3.0823Y-2.8553
X3.1622Y-1.2329
X3.1622Y-2.8864
X3.5458Y-1.4435
X3.5458Y-3.097
X3.5565Y-1.2754
X3.5565Y-2.9289
X3.5638Y-1.7285
X3.5638Y-3.382
X3.61Y-1.2947
X3.61Y-2.9482
X3.6762Y-1.297
X3.6762Y-2.9506
X3.7545Y-1.2018
X3.7545Y-2.8553
X3.8344Y-1.2329
X3.8344Y-2.8864
T2
X1.0951Y-1.3317
X1.0951Y-1.4104
X1.0951Y-1.4892
X1.0951Y-1.5679
X1.0951Y-1.6467
X1.0951Y-1.7254
X1.0951Y-1.8041
X1.0951Y-1.8829
X1.0951Y-1.9616
X1.0951Y-2.0404
X1.0951Y-2.9852
X1.0951Y-3.064
X1.0951Y-3.1427
X1.0951Y-3.2215
X1.0951Y-3.3002
X1.0951Y-3.3789
X1.0951Y-3.4577
X1.0951Y-3.5364
X1.0951Y-3.6152
X1.0951Y-3.6939
X1.7673Y-1.3317
X1.7673Y-1.4104
X1.7673Y-1.4892
X1.7673Y-1.5679
X1.7673Y-1.6467
X1.7673Y-1.7254
X1.7673Y-1.8041
X1.7673Y-1.8829
X1.7673Y-1.9616
X1.7673Y-2.0404
X1.7673Y-2.9852
X1.7673Y-3.064
X1.7673Y-3.1427
X1.7673Y-3.2215
X1.7673Y-3.3002
X1.7673Y-3.3789
X1.7673Y-3.4577
X1.7673Y-3.5364
X1.7673Y-3.6152
X1.7673Y-3.6939
X2.4396Y-1.3317
X2.4396Y-1.4104
X2.4396Y-1.4892
X2.4396Y-1.5679
X2.4396Y-1.6467
X2.4396Y-1.7254
X2.4396Y-1.8041
X2.4396Y-1.8829
X2.4396Y-1.9616
X2.4396Y-2.0404
X2.4396Y-2.9852
X2.4396Y-3.064
X2.4396Y-3.1427
X2.4396Y-3.2215
X2.4396Y-3.3002
X2.4396Y-3.3789
X2.4396Y-3.4577
X2.4396Y-3.5364
X2.4396Y-3.6152
X2.4396Y-3.6939
X3.1118Y-1.3317
X3.1118Y-1.4104
X3.1118Y-1.4892
X3.1118Y-1.5679
X3.1118Y-1.6467
X3.1118Y-1.7254
X3.1118Y-1.8041
X3.1118Y-1.8829
X3.1118Y-1.9616
X3.1118Y-2.0404
X3.1118Y-2.9852
X3.1118Y-3.064
X3.1118Y-3.1427
X3.1118Y-3.2215
X3.1118Y-3.3002
X3.1118Y-3.3789
X3.1118Y-3.4577
X3.1118Y-3.5364
X3.1118Y-3.6152
X3.1118Y-3.6939
X3.7841Y-1.3317
X3.7841Y-1.4104
X3.7841Y-1.4892
X3.7841Y-1.5679
X3.7841Y-1.6467
X3.7841Y-1.7254
X3.7841Y-1.8041
X3.7841Y-1.8829
X3.7841Y-1.9616
X3.7841Y-2.0404
X3.7841Y-2.9852
X3.7841Y-3.064
X3.7841Y-3.1427
X3.7841Y-3.2215
X3.7841Y-3.3002
X3.7841Y-3.3789
X3.7841Y-3.4577
X3.7841Y-3.5364
X3.7841Y-3.6152
X3.7841Y-3.6939
T3
X0.6691Y-1.0565
X0.6691Y-1.1352
X0.6691Y-1.214
X0.6691Y-1.2927
X0.6691Y-1.3715
X0.6691Y-1.4502
X0.6691Y-1.5289
X0.6691Y-1.6077
X0.6691Y-1.6864
X0.6691Y-1.7652
X0.6691Y-1.8439
X0.6691Y-1.9226
X0.6691Y-2.0014
X0.6691Y-2.0801
X0.6691Y-2.1589
X0.6691Y-2.2376
X0.6691Y-2.3163
X0.6691Y-2.71
X0.6691Y-2.7888
X0.6691Y-2.8675
X0.6691Y-2.9463
X0.6691Y-3.025
X0.6691Y-3.1037
X0.6691Y-3.1825
X0.6691Y-3.2612
X0.6691Y-3.34
X0.6691Y-3.4187
X0.6691Y-3.4974
X0.6691Y-3.5762
X0.6691Y-3.6549
X0.6691Y-3.7337
X0.6691Y-3.8124
X0.6691Y-3.8911
X0.6691Y-3.9699
X0.7817Y-1.0565
X0.7817Y-1.1352
X0.7817Y-1.214
X0.7817Y-1.2927
X0.7817Y-1.3715
X0.7817Y-1.4502
X0.7817Y-1.5289
X0.7817Y-1.6077
X0.7817Y-1.6864
X0.7817Y-1.7652
X0.7817Y-1.8439
X0.7817Y-1.9226
X0.7817Y-2.0014
X0.7817Y-2.0801
X0.7817Y-2.1589
X0.7817Y-2.2376
X0.7817Y-2.3163
X0.7817Y-2.71
X0.7817Y-2.7888
X0.7817Y-2.8675
X0.7817Y-2.9463
X0.7817Y-3.025
X0.7817Y-3.1037
X0.7817Y-3.1825
X0.7817Y-3.2612
X0.7817Y-3.34
X0.7817Y-3.4187
X0.7817Y-3.4974
X0.7817Y-3.5762
X0.7817Y-3.6549
X0.7817Y-3.7337
X0.7817Y-3.8124
X0.7817Y-3.8911
X0.7817Y-3.9699
X1.3413Y-1.0565
X1.3413Y-1.1352
X1.3413Y-1.214
X1.3413Y-1.2927
X1.3413Y-1.3715
X1.3413Y-1.4502
X1.3413Y-1.5289
X1.3413Y-1.6077
X1.3413Y-1.6864
X1.3413Y-1.7652
X1.3413Y-1.8439
X1.3413Y-1.9226
X1.3413Y-2.0014
X1.3413Y-2.0801
X1.3413Y-2.1589
X1.3413Y-2.2376
X1.3413Y-2.3163
X1.3413Y-2.71
X1.3413Y-2.7888
X1.3413Y-2.8675
X1.3413Y-2.9463
X1.3413Y-3.025
X1.3413Y-3.1037
X1.3413Y-3.1825
X1.3413Y-3.2612
X1.3413Y-3.34
X1.3413Y-3.4187
X1.3413Y-3.4974
X1.3413Y-3.5762
X1.3413Y-3.6549
X1.3413Y-3.7337
X1.3413Y-3.8124
X1.3413Y-3.8911
X1.3413Y-3.9699
X1.4539Y-1.0565
X1.4539Y-1.1352
X1.4539Y-1.214
X1.4539Y-1.2927
X1.4539Y-1.3715
X1.4539Y-1.4502
X1.4539Y-1.5289
X1.4539Y-1.6077
X1.4539Y-1.6864
X1.4539Y-1.7652
X1.4539Y-1.8439
X1.4539Y-1.9226
X1.4539Y-2.0014
X1.4539Y-2.0801
X1.4539Y-2.1589
X1.4539Y-2.2376
X1.4539Y-2.3163
X1.4539Y-2.71
X1.4539Y-2.7888
X1.4539Y-2.8675
X1.4539Y-2.9463
X1.4539Y-3.025
X1.4539Y-3.1037
X1.4539Y-3.1825
X1.4539Y-3.2612
X1.4539Y-3.34
X1.4539Y-3.4187
X1.4539Y-3.4974
X1.4539Y-3.5762
X1.4539Y-3.6549
X1.4539Y-3.7337
X1.4539Y-3.8124
X1.4539Y-3.8911
X1.4539Y-3.9699
X2.0136Y-1.0565
X2.0136Y-1.1352
X2.0136Y-1.214
X2.0136Y-1.2927
X2.0136Y-1.3715
X2.0136Y-1.4502
X2.0136Y-1.5289
X2.0136Y-1.6077
X2.0136Y-1.6864
X2.0136Y-1.7652
X2.0136Y-1.8439
X2.0136Y-1.9226
X2.0136Y-2.0014
X2.0136Y-2.0801
X2.0136Y-2.1589
X2.0136Y-2.2376
X2.0136Y-2.3163
X2.0136Y-2.71
X2.0136Y-2.7888
X2.0136Y-2.8675
X2.0136Y-2.9463
X2.0136Y-3.025
X2.0136Y-3.1037
X2.0136Y-3.1825
X2.0136Y-3.2612
X2.0136Y-3.34
X2.0136Y-3.4187
X2.0136Y-3.4974
X2.0136Y-3.5762
X2.0136Y-3.6549
X2.0136Y-3.7337
X2.0136Y-3.8124
X2.0136Y-3.8911
X2.0136Y-3.9699
X2.1262Y-1.0565
X2.1262Y-1.1352
X2.1262Y-1.214
X2.1262Y-1.2927
X2.1262Y-1.3715
X2.1262Y-1.4502
X2.1262Y-1.5289
X2.1262Y-1.6077
X2.1262Y-1.6864
X2.1262Y-1.7652
X2.1262Y-1.8439
X2.1262Y-1.9226
X2.1262Y-2.0014
X2.1262Y-2.0801
X2.1262Y-2.1589
X2.1262Y-2.2376
X2.1262Y-2.3163
X2.1262Y-2.71
X2.1262Y-2.7888
X2.1262Y-2.8675
X2.1262Y-2.9463
X2.1262Y-3.025
X2.1262Y-3.1037
X2.1262Y-3.1825
X2.1262Y-3.2612
X2.1262Y-3.34
X2.1262Y-3.4187
X2.1262Y-3.4974
X2.1262Y-3.5762
X2.1262Y-3.6549
X2.1262Y-3.7337
X2.1262Y-3.8124
X2.1262Y-3.8911
X2.1262Y-3.9699
X2.6858Y-1.0565
X2.6858Y-1.1352
X2.6858Y-1.214
X2.6858Y-1.2927
X2.6858Y-1.3715
X2.6858Y-1.4502
X2.6858Y-1.5289
X2.6858Y-1.6077
X2.6858Y-1.6864
X2.6858Y-1.7652
X2.6858Y-1.8439
X2.6858Y-1.9226
X2.6858Y-2.0014
X2.6858Y-2.0801
X2.6858Y-2.1589
X2.6858Y-2.2376
X2.6858Y-2.3163
X2.6858Y-2.71
X2.6858Y-2.7888
X2.6858Y-2.8675
X2.6858Y-2.9463
X2.6858Y-3.025
X2.6858Y-3.1037
X2.6858Y-3.1825
X2.6858Y-3.2612
X2.6858Y-3.34
X2.6858Y-3.4187
X2.6858Y-3.4974
X2.6858Y-3.5762
X2.6858Y-3.6549
X2.6858Y-3.7337
X2.6858Y-3.8124
X2.6858Y-3.8911
X2.6858Y-3.9699
X2.7984Y-1.0565
X2.7984Y-1.1352
X2.7984Y-1.214
X2.7984Y-1.2927
X2.7984Y-1.3715
X2.7984Y-1.4502
X2.7984Y-1.5289
X2.7984Y-1.6077
X2.7984Y-1.6864
X2.7984Y-1.7652
X2.7984Y-1.8439
X2.7984Y-1.9226
X2.7984Y-2.0014
X2.7984Y-2.0801
X2.7984Y-2.1589
X2.7984Y-2.2376
X2.7984Y-2.3163
X2.7984Y-2.71
X2.7984Y-2.7888
X2.7984Y-2.8675
X2.7984Y-2.9463
X2.7984Y-3.025
X2.7984Y-3.1037
X2.7984Y-3.1825
X2.7984Y-3.2612
X2.7984Y-3.34
X2.7984Y-3.4187
X2.7984Y-3.4974
X2.7984Y-3.5762
X2.7984Y-3.6549
X2.7984Y-3.7337
X2.7984Y-3.8124
X2.7984Y-3.8911
X2.7984Y-3.9699
X3.3581Y-1.0565
X3.3581Y-1.1352
X3.3581Y-1.214
X3.3581Y-1.2927
X3.3581Y-1.3715
X3.3581Y-1.4502
X3.3581Y-1.5289
X3.3581Y-1.6077
X3.3581Y-1.6864
X3.3581Y-1.7652
X3.3581Y-1.8439
X3.3581Y-1.9226
X3.3581Y-2.0014
X3.3581Y-2.0801
X3.3581Y-2.1589
X3.3581Y-2.2376
X3.3581Y-2.3163
X3.3581Y-2.71
X3.3581Y-2.7888
X3.3581Y-2.8675
X3.3581Y-2.9463
X3.3581Y-3.025
X3.3581Y-3.1037
X3.3581Y-3.1825
X3.3581Y-3.2612
X3.3581Y-3.34
X3.3581Y-3.4187
X3.3581Y-3.4974
X3.3581Y-3.5762
X3.3581Y-3.6549
X3.3581Y-3.7337
X3.3581Y-3.8124
X3.3581Y-3.8911
X3.3581Y-3.9699
X3.4707Y-1.0565
X3.4707Y-1.1352
X3.4707Y-1.214
X3.4707Y-1.2927
X3.4707Y-1.3715
X3.4707Y-1.4502
X3.4707Y-1.5289
X3.4707Y-1.6077
X3.4707Y-1.6864
X3.4707Y-1.7652
X3.4707Y-1.8439
X3.4707Y-1.9226
X3.4707Y-2.0014
X3.4707Y-2.0801
X3.4707Y-2.1589
X3.4707Y-2.2376
X3.4707Y-2.3163
X3.4707Y-2.71
X3.4707Y-2.7888
X3.4707Y-2.8675
X3.4707Y-2.9463
X3.4707Y-3.025
X3.4707Y-3.1037
X3.4707Y-3.1825
X3.4707Y-3.2612
X3.4707Y-3.34
X3.4707Y-3.4187
X3.4707Y-3.4974
X3.4707Y-3.5762
X3.4707Y-3.6549
X3.4707Y-3.7337
X3.4707Y-3.8124
X3.4707Y-3.8911
X3.4707Y-3.9699
T0
M30
