%TF.GenerationSoftware,KiCad,Pcbnew,(6.0.1)*%
%TF.CreationDate,2022-07-02T18:05:27-07:00*%
%TF.ProjectId,mu100-dit-connector-board,6d753130-302d-4646-9974-2d636f6e6e65,rev?*%
%TF.SameCoordinates,Original*%
%TF.FileFunction,Copper,L2,Bot*%
%TF.FilePolarity,Positive*%
%FSLAX46Y46*%
G04 Gerber Fmt 4.6, Leading zero omitted, Abs format (unit mm)*
G04 Created by KiCad (PCBNEW (6.0.1)) date 2022-07-02 18:05:27*
%MOMM*%
%LPD*%
G01*
G04 APERTURE LIST*
G04 Aperture macros list*
%AMRoundRect*
0 Rectangle with rounded corners*
0 $1 Rounding radius*
0 $2 $3 $4 $5 $6 $7 $8 $9 X,Y pos of 4 corners*
0 Add a 4 corners polygon primitive as box body*
4,1,4,$2,$3,$4,$5,$6,$7,$8,$9,$2,$3,0*
0 Add four circle primitives for the rounded corners*
1,1,$1+$1,$2,$3*
1,1,$1+$1,$4,$5*
1,1,$1+$1,$6,$7*
1,1,$1+$1,$8,$9*
0 Add four rect primitives between the rounded corners*
20,1,$1+$1,$2,$3,$4,$5,0*
20,1,$1+$1,$4,$5,$6,$7,0*
20,1,$1+$1,$6,$7,$8,$9,0*
20,1,$1+$1,$8,$9,$2,$3,0*%
G04 Aperture macros list end*
%TA.AperFunction,ComponentPad*%
%ADD10RoundRect,0.250000X0.350000X0.625000X-0.350000X0.625000X-0.350000X-0.625000X0.350000X-0.625000X0*%
%TD*%
%TA.AperFunction,ComponentPad*%
%ADD11O,1.200000X1.750000*%
%TD*%
%TA.AperFunction,ComponentPad*%
%ADD12RoundRect,0.250000X-0.350000X-0.650000X0.350000X-0.650000X0.350000X0.650000X-0.350000X0.650000X0*%
%TD*%
%TA.AperFunction,ComponentPad*%
%ADD13O,1.200000X1.800000*%
%TD*%
%TA.AperFunction,SMDPad,CuDef*%
%ADD14RoundRect,0.250000X-0.450000X0.350000X-0.450000X-0.350000X0.450000X-0.350000X0.450000X0.350000X0*%
%TD*%
%TA.AperFunction,ComponentPad*%
%ADD15R,1.350000X1.350000*%
%TD*%
%TA.AperFunction,ComponentPad*%
%ADD16O,1.350000X1.350000*%
%TD*%
%TA.AperFunction,SMDPad,CuDef*%
%ADD17RoundRect,0.250000X-0.475000X0.337500X-0.475000X-0.337500X0.475000X-0.337500X0.475000X0.337500X0*%
%TD*%
%TA.AperFunction,ViaPad*%
%ADD18C,0.800000*%
%TD*%
%TA.AperFunction,Conductor*%
%ADD19C,0.400000*%
%TD*%
%TA.AperFunction,Conductor*%
%ADD20C,0.250000*%
%TD*%
G04 APERTURE END LIST*
D10*
%TO.P,J3,1,Pin_1*%
%TO.N,unconnected-(J3-Pad1)*%
X90700000Y-68440000D03*
D11*
%TO.P,J3,2,Pin_2*%
%TO.N,+5V*%
X88700000Y-68440000D03*
%TO.P,J3,3,Pin_3*%
%TO.N,GND*%
X86700000Y-68440000D03*
%TO.P,J3,4,Pin_4*%
%TO.N,/MCLK*%
X84700000Y-68440000D03*
%TO.P,J3,5,Pin_5*%
%TO.N,GND*%
X82700000Y-68440000D03*
%TO.P,J3,6,Pin_6*%
%TO.N,/SDAT*%
X80700000Y-68440000D03*
%TO.P,J3,7,Pin_7*%
%TO.N,GND*%
X78700000Y-68440000D03*
%TO.P,J3,8,Pin_8*%
%TO.N,/BICK*%
X76700000Y-68440000D03*
%TO.P,J3,9,Pin_9*%
%TO.N,GND*%
X74700000Y-68440000D03*
%TO.P,J3,10,Pin_10*%
%TO.N,/LRCK*%
X72700000Y-68440000D03*
%TD*%
D12*
%TO.P,J2,1,Pin_1*%
%TO.N,/RER*%
X65710000Y-60830000D03*
D13*
%TO.P,J2,2,Pin_2*%
%TO.N,+5V*%
X67710000Y-60830000D03*
%TO.P,J2,3,Pin_3*%
X69710000Y-60830000D03*
%TO.P,J2,4,Pin_4*%
%TO.N,GND*%
X71710000Y-60830000D03*
%TO.P,J2,5,Pin_5*%
X73710000Y-60830000D03*
%TO.P,J2,6,Pin_6*%
%TO.N,unconnected-(J2-Pad6)*%
X75710000Y-60830000D03*
%TO.P,J2,7,Pin_7*%
%TO.N,/MEL00*%
X77710000Y-60830000D03*
%TO.P,J2,8,Pin_8*%
%TO.N,/SYOD*%
X79710000Y-60830000D03*
%TO.P,J2,9,Pin_9*%
%TO.N,/QCLK*%
X81710000Y-60830000D03*
%TO.P,J2,10,Pin_10*%
%TO.N,unconnected-(J2-Pad10)*%
X83710000Y-60830000D03*
%TO.P,J2,11,Pin_11*%
%TO.N,/CK256*%
X85710000Y-60830000D03*
%TO.P,J2,12,Pin_12*%
%TO.N,/WCLK*%
X87710000Y-60830000D03*
%TO.P,J2,13,Pin_13*%
%TO.N,/DACOL*%
X89710000Y-60830000D03*
%TO.P,J2,14,Pin_14*%
%TO.N,/REA*%
X91710000Y-60830000D03*
%TO.P,J2,15,Pin_15*%
%TO.N,/REB*%
X93710000Y-60830000D03*
%TO.P,J2,16,Pin_16*%
%TO.N,GNDA*%
X95710000Y-60830000D03*
%TO.P,J2,17,Pin_17*%
%TO.N,+9VA*%
X97710000Y-60830000D03*
%TD*%
D14*
%TO.P,R1,1*%
%TO.N,/CK256*%
X85040000Y-64024000D03*
%TO.P,R1,2*%
%TO.N,/MCLK*%
X85040000Y-66024000D03*
%TD*%
D15*
%TO.P,J1,1,Pin_1*%
%TO.N,/RER*%
X65710000Y-57970000D03*
D16*
%TO.P,J1,2,Pin_2*%
%TO.N,+5V*%
X67710000Y-57970000D03*
%TO.P,J1,3,Pin_3*%
X69710000Y-57970000D03*
%TO.P,J1,4,Pin_4*%
%TO.N,GND*%
X71710000Y-57970000D03*
%TO.P,J1,5,Pin_5*%
X73710000Y-57970000D03*
%TO.P,J1,6,Pin_6*%
%TO.N,unconnected-(J1-Pad6)*%
X75710000Y-57970000D03*
%TO.P,J1,7,Pin_7*%
%TO.N,/MEL00*%
X77710000Y-57970000D03*
%TO.P,J1,8,Pin_8*%
%TO.N,/SYOD*%
X79710000Y-57970000D03*
%TO.P,J1,9,Pin_9*%
%TO.N,/QCLK*%
X81710000Y-57970000D03*
%TO.P,J1,10,Pin_10*%
%TO.N,unconnected-(J1-Pad10)*%
X83710000Y-57970000D03*
%TO.P,J1,11,Pin_11*%
%TO.N,/CK256*%
X85710000Y-57970000D03*
%TO.P,J1,12,Pin_12*%
%TO.N,/WCLK*%
X87710000Y-57970000D03*
%TO.P,J1,13,Pin_13*%
%TO.N,/DACOL*%
X89710000Y-57970000D03*
%TO.P,J1,14,Pin_14*%
%TO.N,/REA*%
X91710000Y-57970000D03*
%TO.P,J1,15,Pin_15*%
%TO.N,/REB*%
X93710000Y-57970000D03*
%TO.P,J1,16,Pin_16*%
%TO.N,GNDA*%
X95710000Y-57970000D03*
%TO.P,J1,17,Pin_17*%
%TO.N,+9VA*%
X97710000Y-57970000D03*
%TD*%
D14*
%TO.P,R3,1*%
%TO.N,/DACOL*%
X80830000Y-64084000D03*
%TO.P,R3,2*%
%TO.N,/SDAT*%
X80830000Y-66084000D03*
%TD*%
D17*
%TO.P,C1,1*%
%TO.N,+5V*%
X69460000Y-64036500D03*
%TO.P,C1,2*%
%TO.N,GND*%
X69460000Y-66111500D03*
%TD*%
D14*
%TO.P,R2,1*%
%TO.N,/QCLK*%
X77610000Y-64054000D03*
%TO.P,R2,2*%
%TO.N,/BICK*%
X77610000Y-66054000D03*
%TD*%
%TO.P,R4,1*%
%TO.N,/WCLK*%
X74420000Y-64044000D03*
%TO.P,R4,2*%
%TO.N,/LRCK*%
X74420000Y-66044000D03*
%TD*%
D18*
%TO.N,GND*%
X71270000Y-66050000D03*
X67620000Y-65030000D03*
X72530000Y-64020000D03*
X71628000Y-62738000D03*
X72380000Y-66070000D03*
X66520000Y-63980000D03*
X71590000Y-64000000D03*
%TO.N,/WCLK*%
X75800000Y-64000000D03*
%TO.N,/DACOL*%
X82200000Y-64000000D03*
%TD*%
D19*
%TO.N,+5V*%
X67710000Y-57970000D02*
X69710000Y-57970000D01*
X67710000Y-60830000D02*
X69710000Y-60830000D01*
X69710000Y-60830000D02*
X69710000Y-63782500D01*
X67710000Y-57970000D02*
X67710000Y-61797500D01*
X69710000Y-57970000D02*
X69710000Y-60830000D01*
D20*
%TO.N,/RER*%
X65710000Y-57970000D02*
X65710000Y-60830000D01*
%TO.N,/MEL00*%
X77710000Y-57970000D02*
X77710000Y-60830000D01*
%TO.N,/SYOD*%
X79710000Y-57970000D02*
X79710000Y-60830000D01*
%TO.N,/QCLK*%
X77610000Y-63199000D02*
X77610000Y-64054000D01*
X81710000Y-61292000D02*
X80518000Y-62484000D01*
X80518000Y-62484000D02*
X78325000Y-62484000D01*
X81710000Y-60830000D02*
X81710000Y-61292000D01*
X78325000Y-62484000D02*
X77610000Y-63199000D01*
X81710000Y-57970000D02*
X81710000Y-60830000D01*
%TO.N,/CK256*%
X85710000Y-63354000D02*
X85040000Y-64024000D01*
X85710000Y-60830000D02*
X85710000Y-60530000D01*
X85710000Y-60830000D02*
X85710000Y-57970000D01*
X85710000Y-60830000D02*
X85710000Y-63354000D01*
%TO.N,/WCLK*%
X75800000Y-64000000D02*
X74464000Y-64000000D01*
X87710000Y-57970000D02*
X87710000Y-60830000D01*
X74464000Y-64000000D02*
X74420000Y-64044000D01*
%TO.N,/DACOL*%
X82200000Y-64000000D02*
X82116000Y-64084000D01*
X89710000Y-57970000D02*
X89710000Y-60830000D01*
X82116000Y-64084000D02*
X80830000Y-64084000D01*
%TO.N,/REA*%
X91710000Y-57970000D02*
X91710000Y-60830000D01*
%TO.N,/REB*%
X93710000Y-57970000D02*
X93710000Y-60830000D01*
D19*
%TO.N,GNDA*%
X95710000Y-57970000D02*
X95710000Y-60830000D01*
%TO.N,+9VA*%
X97710000Y-57970000D02*
X97710000Y-60830000D01*
D20*
%TO.N,/MCLK*%
X84700000Y-65990000D02*
X84700000Y-68440000D01*
X85040000Y-65650000D02*
X84700000Y-65990000D01*
%TO.N,/SDAT*%
X80700000Y-65840000D02*
X80700000Y-68440000D01*
X80830000Y-65710000D02*
X80700000Y-65840000D01*
%TO.N,/BICK*%
X76700000Y-66590000D02*
X76700000Y-68440000D01*
X77610000Y-65680000D02*
X76700000Y-66590000D01*
%TO.N,/LRCK*%
X74225000Y-65670000D02*
X72700000Y-67195000D01*
X74420000Y-65670000D02*
X74225000Y-65670000D01*
X72700000Y-67195000D02*
X72700000Y-68440000D01*
%TD*%
%TA.AperFunction,Conductor*%
%TO.N,GND*%
G36*
X74200000Y-62300000D02*
G01*
X71200000Y-62300000D01*
X71200000Y-57500000D01*
X74200000Y-57500000D01*
X74200000Y-62300000D01*
G37*
%TD.AperFunction*%
%TD*%
%TA.AperFunction,Conductor*%
%TO.N,GND*%
G36*
X100134121Y-56988002D02*
G01*
X100180614Y-57041658D01*
X100192000Y-57094000D01*
X100192000Y-69686000D01*
X100171998Y-69754121D01*
X100118342Y-69800614D01*
X100066000Y-69812000D01*
X91679901Y-69812000D01*
X91611780Y-69791998D01*
X91565287Y-69738342D01*
X91555183Y-69668068D01*
X91584677Y-69603488D01*
X91590728Y-69596982D01*
X91644134Y-69543483D01*
X91649305Y-69538303D01*
X91686565Y-69477857D01*
X91738275Y-69393968D01*
X91738276Y-69393966D01*
X91742115Y-69387738D01*
X91797797Y-69219861D01*
X91808500Y-69115400D01*
X91808500Y-67764600D01*
X91797526Y-67658834D01*
X91793749Y-67647511D01*
X91743868Y-67498002D01*
X91741550Y-67491054D01*
X91648478Y-67340652D01*
X91523303Y-67215695D01*
X91504530Y-67204123D01*
X91378968Y-67126725D01*
X91378966Y-67126724D01*
X91372738Y-67122885D01*
X91264005Y-67086820D01*
X91211389Y-67069368D01*
X91211387Y-67069368D01*
X91204861Y-67067203D01*
X91198025Y-67066503D01*
X91198022Y-67066502D01*
X91151093Y-67061694D01*
X91100400Y-67056500D01*
X90299600Y-67056500D01*
X90296354Y-67056837D01*
X90296350Y-67056837D01*
X90200692Y-67066762D01*
X90200688Y-67066763D01*
X90193834Y-67067474D01*
X90187298Y-67069655D01*
X90187296Y-67069655D01*
X90123117Y-67091067D01*
X90026054Y-67123450D01*
X89875652Y-67216522D01*
X89870479Y-67221704D01*
X89833933Y-67258314D01*
X89750695Y-67341697D01*
X89718980Y-67393149D01*
X89718926Y-67393236D01*
X89666154Y-67440729D01*
X89596082Y-67452153D01*
X89530958Y-67423879D01*
X89512582Y-67404955D01*
X89506396Y-67397080D01*
X89501865Y-67393148D01*
X89501862Y-67393145D01*
X89351167Y-67262379D01*
X89346637Y-67258448D01*
X89341451Y-67255448D01*
X89341447Y-67255445D01*
X89168742Y-67155533D01*
X89163546Y-67152527D01*
X88963729Y-67083139D01*
X88957794Y-67082278D01*
X88957792Y-67082278D01*
X88760336Y-67053648D01*
X88760333Y-67053648D01*
X88754396Y-67052787D01*
X88543101Y-67062567D01*
X88432035Y-67089334D01*
X88343299Y-67110719D01*
X88343297Y-67110720D01*
X88337466Y-67112125D01*
X88332008Y-67114607D01*
X88332004Y-67114608D01*
X88216959Y-67166916D01*
X88144913Y-67199674D01*
X87972389Y-67322054D01*
X87826119Y-67474850D01*
X87822870Y-67479881D01*
X87822865Y-67479888D01*
X87804967Y-67507607D01*
X87751211Y-67553984D01*
X87680915Y-67563937D01*
X87616398Y-67534304D01*
X87600030Y-67517091D01*
X87509738Y-67402143D01*
X87501501Y-67393494D01*
X87350877Y-67262788D01*
X87341153Y-67255853D01*
X87168533Y-67155990D01*
X87157669Y-67151016D01*
X86969273Y-67085593D01*
X86968284Y-67085352D01*
X86957992Y-67086820D01*
X86954000Y-67100385D01*
X86954000Y-68568000D01*
X86933998Y-68636121D01*
X86880342Y-68682614D01*
X86828000Y-68694000D01*
X86572000Y-68694000D01*
X86503879Y-68673998D01*
X86457386Y-68620342D01*
X86446000Y-68568000D01*
X86446000Y-67104598D01*
X86442027Y-67091067D01*
X86432601Y-67089712D01*
X86343463Y-67111194D01*
X86332168Y-67115083D01*
X86150618Y-67197629D01*
X86140276Y-67203576D01*
X85977603Y-67318968D01*
X85968575Y-67326761D01*
X85830658Y-67470831D01*
X85823259Y-67480200D01*
X85805582Y-67507577D01*
X85751828Y-67553955D01*
X85681532Y-67563909D01*
X85617015Y-67534278D01*
X85600644Y-67517063D01*
X85510102Y-67401798D01*
X85506396Y-67397080D01*
X85456363Y-67353664D01*
X85418023Y-67293912D01*
X85418074Y-67222915D01*
X85456501Y-67163216D01*
X85521103Y-67133770D01*
X85533898Y-67132859D01*
X85533888Y-67132668D01*
X85537136Y-67132500D01*
X85540400Y-67132500D01*
X85543646Y-67132163D01*
X85543650Y-67132163D01*
X85639308Y-67122238D01*
X85639312Y-67122237D01*
X85646166Y-67121526D01*
X85652702Y-67119345D01*
X85652704Y-67119345D01*
X85806998Y-67067868D01*
X85813946Y-67065550D01*
X85964348Y-66972478D01*
X86089305Y-66847303D01*
X86093146Y-66841072D01*
X86178275Y-66702968D01*
X86178276Y-66702966D01*
X86182115Y-66696738D01*
X86230807Y-66549935D01*
X86235632Y-66535389D01*
X86235632Y-66535387D01*
X86237797Y-66528861D01*
X86242020Y-66487650D01*
X86244710Y-66461389D01*
X86248500Y-66424400D01*
X86248500Y-65623600D01*
X86247370Y-65612710D01*
X86238238Y-65524692D01*
X86238237Y-65524688D01*
X86237526Y-65517834D01*
X86234663Y-65509251D01*
X86183868Y-65357002D01*
X86181550Y-65350054D01*
X86088478Y-65199652D01*
X86001891Y-65113216D01*
X85967812Y-65050934D01*
X85972815Y-64980114D01*
X86001736Y-64935025D01*
X86084134Y-64852483D01*
X86089305Y-64847303D01*
X86123938Y-64791118D01*
X86178275Y-64702968D01*
X86178276Y-64702966D01*
X86182115Y-64696738D01*
X86230115Y-64552022D01*
X86235632Y-64535389D01*
X86235632Y-64535387D01*
X86237797Y-64528861D01*
X86242020Y-64487650D01*
X86242909Y-64478969D01*
X86248500Y-64424400D01*
X86248500Y-63730352D01*
X86262227Y-63680173D01*
X86259614Y-63679042D01*
X86277174Y-63638463D01*
X86282391Y-63627813D01*
X86303695Y-63589060D01*
X86308733Y-63569437D01*
X86315137Y-63550734D01*
X86320033Y-63539420D01*
X86320033Y-63539419D01*
X86323181Y-63532145D01*
X86324420Y-63524322D01*
X86324423Y-63524312D01*
X86330099Y-63488476D01*
X86332505Y-63476856D01*
X86341528Y-63441711D01*
X86341528Y-63441710D01*
X86343500Y-63434030D01*
X86343500Y-63413776D01*
X86345051Y-63394065D01*
X86346980Y-63381886D01*
X86348220Y-63374057D01*
X86344059Y-63330038D01*
X86343500Y-63318181D01*
X86343500Y-62104807D01*
X86363502Y-62036686D01*
X86396601Y-62002037D01*
X86432720Y-61976416D01*
X86432725Y-61976412D01*
X86437611Y-61972946D01*
X86583881Y-61820150D01*
X86595124Y-61802738D01*
X86604746Y-61787837D01*
X86658501Y-61741460D01*
X86728797Y-61731507D01*
X86793314Y-61761139D01*
X86809681Y-61778351D01*
X86903604Y-61897920D01*
X86908133Y-61901850D01*
X86908138Y-61901855D01*
X87033080Y-62010274D01*
X87063363Y-62036552D01*
X87068549Y-62039552D01*
X87068553Y-62039555D01*
X87164957Y-62095326D01*
X87246454Y-62142473D01*
X87446271Y-62211861D01*
X87452206Y-62212722D01*
X87452208Y-62212722D01*
X87649664Y-62241352D01*
X87649667Y-62241352D01*
X87655604Y-62242213D01*
X87866899Y-62232433D01*
X87998077Y-62200819D01*
X88066701Y-62184281D01*
X88066703Y-62184280D01*
X88072534Y-62182875D01*
X88077992Y-62180393D01*
X88077996Y-62180392D01*
X88193041Y-62128084D01*
X88265087Y-62095326D01*
X88437611Y-61972946D01*
X88583881Y-61820150D01*
X88595124Y-61802738D01*
X88604746Y-61787837D01*
X88658501Y-61741460D01*
X88728797Y-61731507D01*
X88793314Y-61761139D01*
X88809681Y-61778351D01*
X88903604Y-61897920D01*
X88908133Y-61901850D01*
X88908138Y-61901855D01*
X89033080Y-62010274D01*
X89063363Y-62036552D01*
X89068549Y-62039552D01*
X89068553Y-62039555D01*
X89164957Y-62095326D01*
X89246454Y-62142473D01*
X89446271Y-62211861D01*
X89452206Y-62212722D01*
X89452208Y-62212722D01*
X89649664Y-62241352D01*
X89649667Y-62241352D01*
X89655604Y-62242213D01*
X89866899Y-62232433D01*
X89998077Y-62200819D01*
X90066701Y-62184281D01*
X90066703Y-62184280D01*
X90072534Y-62182875D01*
X90077992Y-62180393D01*
X90077996Y-62180392D01*
X90193041Y-62128084D01*
X90265087Y-62095326D01*
X90437611Y-61972946D01*
X90583881Y-61820150D01*
X90595124Y-61802738D01*
X90604746Y-61787837D01*
X90658501Y-61741460D01*
X90728797Y-61731507D01*
X90793314Y-61761139D01*
X90809681Y-61778351D01*
X90903604Y-61897920D01*
X90908133Y-61901850D01*
X90908138Y-61901855D01*
X91033080Y-62010274D01*
X91063363Y-62036552D01*
X91068549Y-62039552D01*
X91068553Y-62039555D01*
X91164957Y-62095326D01*
X91246454Y-62142473D01*
X91446271Y-62211861D01*
X91452206Y-62212722D01*
X91452208Y-62212722D01*
X91649664Y-62241352D01*
X91649667Y-62241352D01*
X91655604Y-62242213D01*
X91866899Y-62232433D01*
X91998077Y-62200819D01*
X92066701Y-62184281D01*
X92066703Y-62184280D01*
X92072534Y-62182875D01*
X92077992Y-62180393D01*
X92077996Y-62180392D01*
X92193041Y-62128084D01*
X92265087Y-62095326D01*
X92437611Y-61972946D01*
X92583881Y-61820150D01*
X92595124Y-61802738D01*
X92604746Y-61787837D01*
X92658501Y-61741460D01*
X92728797Y-61731507D01*
X92793314Y-61761139D01*
X92809681Y-61778351D01*
X92903604Y-61897920D01*
X92908133Y-61901850D01*
X92908138Y-61901855D01*
X93033080Y-62010274D01*
X93063363Y-62036552D01*
X93068549Y-62039552D01*
X93068553Y-62039555D01*
X93164957Y-62095326D01*
X93246454Y-62142473D01*
X93446271Y-62211861D01*
X93452206Y-62212722D01*
X93452208Y-62212722D01*
X93649664Y-62241352D01*
X93649667Y-62241352D01*
X93655604Y-62242213D01*
X93866899Y-62232433D01*
X93998077Y-62200819D01*
X94066701Y-62184281D01*
X94066703Y-62184280D01*
X94072534Y-62182875D01*
X94077992Y-62180393D01*
X94077996Y-62180392D01*
X94193041Y-62128084D01*
X94265087Y-62095326D01*
X94437611Y-61972946D01*
X94583881Y-61820150D01*
X94595124Y-61802738D01*
X94604746Y-61787837D01*
X94658501Y-61741460D01*
X94728797Y-61731507D01*
X94793314Y-61761139D01*
X94809681Y-61778351D01*
X94903604Y-61897920D01*
X94908133Y-61901850D01*
X94908138Y-61901855D01*
X95033080Y-62010274D01*
X95063363Y-62036552D01*
X95068549Y-62039552D01*
X95068553Y-62039555D01*
X95164957Y-62095326D01*
X95246454Y-62142473D01*
X95446271Y-62211861D01*
X95452206Y-62212722D01*
X95452208Y-62212722D01*
X95649664Y-62241352D01*
X95649667Y-62241352D01*
X95655604Y-62242213D01*
X95866899Y-62232433D01*
X95998077Y-62200819D01*
X96066701Y-62184281D01*
X96066703Y-62184280D01*
X96072534Y-62182875D01*
X96077992Y-62180393D01*
X96077996Y-62180392D01*
X96193041Y-62128084D01*
X96265087Y-62095326D01*
X96437611Y-61972946D01*
X96583881Y-61820150D01*
X96595124Y-61802738D01*
X96604746Y-61787837D01*
X96658501Y-61741460D01*
X96728797Y-61731507D01*
X96793314Y-61761139D01*
X96809681Y-61778351D01*
X96903604Y-61897920D01*
X96908133Y-61901850D01*
X96908138Y-61901855D01*
X97033080Y-62010274D01*
X97063363Y-62036552D01*
X97068549Y-62039552D01*
X97068553Y-62039555D01*
X97164957Y-62095326D01*
X97246454Y-62142473D01*
X97446271Y-62211861D01*
X97452206Y-62212722D01*
X97452208Y-62212722D01*
X97649664Y-62241352D01*
X97649667Y-62241352D01*
X97655604Y-62242213D01*
X97866899Y-62232433D01*
X97998077Y-62200819D01*
X98066701Y-62184281D01*
X98066703Y-62184280D01*
X98072534Y-62182875D01*
X98077992Y-62180393D01*
X98077996Y-62180392D01*
X98193041Y-62128084D01*
X98265087Y-62095326D01*
X98437611Y-61972946D01*
X98583881Y-61820150D01*
X98698620Y-61642452D01*
X98777686Y-61446263D01*
X98818228Y-61238663D01*
X98818500Y-61233101D01*
X98818500Y-60477154D01*
X98803452Y-60319434D01*
X98743908Y-60116466D01*
X98696872Y-60025139D01*
X98649804Y-59933751D01*
X98649802Y-59933748D01*
X98647058Y-59928420D01*
X98566914Y-59826392D01*
X98540564Y-59760466D01*
X98540000Y-59748559D01*
X98540000Y-58868555D01*
X98560002Y-58800434D01*
X98569126Y-58787986D01*
X98685834Y-58647659D01*
X98689532Y-58643213D01*
X98795813Y-58453435D01*
X98797669Y-58447968D01*
X98797671Y-58447963D01*
X98863874Y-58252935D01*
X98863875Y-58252930D01*
X98865730Y-58247466D01*
X98896941Y-58032205D01*
X98898570Y-57970000D01*
X98878667Y-57753400D01*
X98871331Y-57727386D01*
X98821195Y-57549619D01*
X98819626Y-57544055D01*
X98723423Y-57348974D01*
X98593280Y-57174691D01*
X98593877Y-57174245D01*
X98565111Y-57114304D01*
X98573874Y-57043850D01*
X98619337Y-56989319D01*
X98689464Y-56968000D01*
X100066000Y-56968000D01*
X100134121Y-56988002D01*
G37*
%TD.AperFunction*%
%TA.AperFunction,Conductor*%
G36*
X64500809Y-56988002D02*
G01*
X64547302Y-57041658D01*
X64557406Y-57111932D01*
X64550670Y-57138229D01*
X64533255Y-57184684D01*
X64526500Y-57246866D01*
X64526500Y-58693134D01*
X64533255Y-58755316D01*
X64584385Y-58891705D01*
X64671739Y-59008261D01*
X64788295Y-59095615D01*
X64924684Y-59146745D01*
X64951914Y-59149703D01*
X64964108Y-59151028D01*
X65029670Y-59178270D01*
X65070096Y-59236634D01*
X65076500Y-59276291D01*
X65076500Y-59393219D01*
X65056498Y-59461340D01*
X65016803Y-59500363D01*
X64885652Y-59581522D01*
X64760695Y-59706697D01*
X64756855Y-59712927D01*
X64756854Y-59712928D01*
X64675320Y-59845201D01*
X64667885Y-59857262D01*
X64612203Y-60025139D01*
X64601500Y-60129600D01*
X64601500Y-61530400D01*
X64612474Y-61636166D01*
X64614655Y-61642702D01*
X64614655Y-61642704D01*
X64647603Y-61741460D01*
X64668450Y-61803946D01*
X64761522Y-61954348D01*
X64886697Y-62079305D01*
X64892927Y-62083145D01*
X64892928Y-62083146D01*
X64992367Y-62144441D01*
X65037262Y-62172115D01*
X65092396Y-62190402D01*
X65198611Y-62225632D01*
X65198613Y-62225632D01*
X65205139Y-62227797D01*
X65211975Y-62228497D01*
X65211978Y-62228498D01*
X65250386Y-62232433D01*
X65309600Y-62238500D01*
X66110400Y-62238500D01*
X66113646Y-62238163D01*
X66113650Y-62238163D01*
X66209308Y-62228238D01*
X66209312Y-62228237D01*
X66216166Y-62227526D01*
X66222708Y-62225343D01*
X66222710Y-62225343D01*
X66313587Y-62195024D01*
X66384537Y-62192439D01*
X66445621Y-62228622D01*
X66477446Y-62292086D01*
X66479453Y-62312892D01*
X66479963Y-62351719D01*
X67440310Y-63816635D01*
X68355408Y-65212530D01*
X68376028Y-65280466D01*
X68357293Y-65347725D01*
X68297186Y-65445238D01*
X68291037Y-65458424D01*
X68239862Y-65612710D01*
X68236995Y-65626086D01*
X68227328Y-65720438D01*
X68227000Y-65726855D01*
X68227000Y-65839385D01*
X68231475Y-65854624D01*
X68232865Y-65855829D01*
X68240548Y-65857500D01*
X70674884Y-65857500D01*
X70690123Y-65853025D01*
X70691328Y-65851635D01*
X70692999Y-65843952D01*
X70692999Y-65726905D01*
X70692662Y-65720388D01*
X70685177Y-65648255D01*
X70698042Y-65578434D01*
X70746612Y-65526652D01*
X70810572Y-65509251D01*
X71120734Y-65509419D01*
X71199788Y-65509462D01*
X71199837Y-63394065D01*
X71199863Y-62302897D01*
X71219867Y-62234777D01*
X71273523Y-62188285D01*
X71343798Y-62178183D01*
X71367197Y-62183873D01*
X71440721Y-62209405D01*
X71441716Y-62209648D01*
X71452008Y-62208180D01*
X71456000Y-62194615D01*
X71456000Y-62190402D01*
X71964000Y-62190402D01*
X71967973Y-62203933D01*
X71977399Y-62205288D01*
X72066537Y-62183806D01*
X72077832Y-62179917D01*
X72259382Y-62097371D01*
X72269724Y-62091424D01*
X72432397Y-61976032D01*
X72441425Y-61968239D01*
X72579342Y-61824169D01*
X72586742Y-61814799D01*
X72604705Y-61786979D01*
X72658460Y-61740601D01*
X72728756Y-61730647D01*
X72793273Y-61760278D01*
X72809643Y-61777493D01*
X72900262Y-61892857D01*
X72908499Y-61901506D01*
X73059123Y-62032212D01*
X73068847Y-62039147D01*
X73241467Y-62139010D01*
X73252331Y-62143984D01*
X73440727Y-62209407D01*
X73441716Y-62209648D01*
X73452008Y-62208180D01*
X73456000Y-62194615D01*
X73456000Y-61102115D01*
X73451525Y-61086876D01*
X73450135Y-61085671D01*
X73442452Y-61084000D01*
X71982115Y-61084000D01*
X71966876Y-61088475D01*
X71965671Y-61089865D01*
X71964000Y-61097548D01*
X71964000Y-62190402D01*
X71456000Y-62190402D01*
X71456000Y-60557885D01*
X71964000Y-60557885D01*
X71968475Y-60573124D01*
X71969865Y-60574329D01*
X71977548Y-60576000D01*
X73437885Y-60576000D01*
X73453124Y-60571525D01*
X73454329Y-60570135D01*
X73456000Y-60562452D01*
X73456000Y-59469598D01*
X73452027Y-59456067D01*
X73442601Y-59454712D01*
X73353463Y-59476194D01*
X73342168Y-59480083D01*
X73160618Y-59562629D01*
X73150276Y-59568576D01*
X72987603Y-59683968D01*
X72978575Y-59691761D01*
X72840658Y-59835831D01*
X72833258Y-59845201D01*
X72815295Y-59873021D01*
X72761540Y-59919399D01*
X72691244Y-59929353D01*
X72626727Y-59899722D01*
X72610357Y-59882507D01*
X72519738Y-59767143D01*
X72511501Y-59758494D01*
X72360877Y-59627788D01*
X72351153Y-59620853D01*
X72178533Y-59520990D01*
X72167669Y-59516016D01*
X71979273Y-59450593D01*
X71978284Y-59450352D01*
X71967992Y-59451820D01*
X71964000Y-59465385D01*
X71964000Y-60557885D01*
X71456000Y-60557885D01*
X71456000Y-59469598D01*
X71452027Y-59456067D01*
X71442601Y-59454712D01*
X71355453Y-59475715D01*
X71284542Y-59472230D01*
X71226772Y-59430961D01*
X71200485Y-59365010D01*
X71199932Y-59353219D01*
X71199935Y-59225271D01*
X71219939Y-59157151D01*
X71273595Y-59110659D01*
X71343870Y-59100557D01*
X71353742Y-59102381D01*
X71438331Y-59121521D01*
X71452405Y-59120632D01*
X71456000Y-59111233D01*
X71456000Y-59110512D01*
X71964000Y-59110512D01*
X71967966Y-59124018D01*
X71981883Y-59126011D01*
X71992817Y-59123386D01*
X72187763Y-59057210D01*
X72198272Y-59052531D01*
X72377882Y-58951944D01*
X72387375Y-58945420D01*
X72545653Y-58813782D01*
X72553782Y-58805653D01*
X72610249Y-58737759D01*
X72669187Y-58698175D01*
X72740169Y-58696739D01*
X72802938Y-58736502D01*
X72810724Y-58745619D01*
X72958191Y-58889275D01*
X72967124Y-58896509D01*
X73138299Y-59010884D01*
X73148409Y-59016374D01*
X73337566Y-59097642D01*
X73348499Y-59101194D01*
X73438332Y-59121521D01*
X73452405Y-59120632D01*
X73456000Y-59111233D01*
X73456000Y-58242115D01*
X73451525Y-58226876D01*
X73450135Y-58225671D01*
X73442452Y-58224000D01*
X71982115Y-58224000D01*
X71966876Y-58228475D01*
X71965671Y-58229865D01*
X71964000Y-58237548D01*
X71964000Y-59110512D01*
X71456000Y-59110512D01*
X71456000Y-57842000D01*
X71476002Y-57773879D01*
X71529658Y-57727386D01*
X71582000Y-57716000D01*
X73838000Y-57716000D01*
X73906121Y-57736002D01*
X73952614Y-57789658D01*
X73964000Y-57842000D01*
X73964000Y-59110512D01*
X73967966Y-59124018D01*
X73981883Y-59126011D01*
X73992817Y-59123386D01*
X74187763Y-59057210D01*
X74198272Y-59052531D01*
X74377884Y-58951943D01*
X74382637Y-58948677D01*
X74450108Y-58926580D01*
X74518814Y-58944468D01*
X74566942Y-58996662D01*
X74580000Y-59052520D01*
X74580000Y-59541772D01*
X74559998Y-59609893D01*
X74506342Y-59656386D01*
X74436068Y-59666490D01*
X74371418Y-59636937D01*
X74360871Y-59627784D01*
X74351153Y-59620853D01*
X74178533Y-59520990D01*
X74167669Y-59516016D01*
X73979273Y-59450593D01*
X73978284Y-59450352D01*
X73967992Y-59451820D01*
X73964000Y-59465385D01*
X73964000Y-62190402D01*
X73967973Y-62203933D01*
X73977399Y-62205288D01*
X74066537Y-62183806D01*
X74077832Y-62179917D01*
X74259382Y-62097371D01*
X74269724Y-62091424D01*
X74432397Y-61976032D01*
X74441425Y-61968239D01*
X74579342Y-61824169D01*
X74586741Y-61814800D01*
X74604418Y-61787423D01*
X74658172Y-61741045D01*
X74728468Y-61731091D01*
X74792985Y-61760722D01*
X74809356Y-61777937D01*
X74903604Y-61897920D01*
X74908133Y-61901850D01*
X74908138Y-61901855D01*
X75033080Y-62010274D01*
X75063363Y-62036552D01*
X75068549Y-62039552D01*
X75068553Y-62039555D01*
X75164957Y-62095326D01*
X75246454Y-62142473D01*
X75446271Y-62211861D01*
X75452206Y-62212722D01*
X75452208Y-62212722D01*
X75649664Y-62241352D01*
X75649667Y-62241352D01*
X75655604Y-62242213D01*
X75866899Y-62232433D01*
X75998077Y-62200819D01*
X76066701Y-62184281D01*
X76066703Y-62184280D01*
X76072534Y-62182875D01*
X76077992Y-62180393D01*
X76077996Y-62180392D01*
X76193041Y-62128084D01*
X76265087Y-62095326D01*
X76437611Y-61972946D01*
X76583881Y-61820150D01*
X76595124Y-61802738D01*
X76604746Y-61787837D01*
X76658501Y-61741460D01*
X76728797Y-61731507D01*
X76793314Y-61761139D01*
X76809681Y-61778351D01*
X76903604Y-61897920D01*
X76908133Y-61901850D01*
X76908138Y-61901855D01*
X77033080Y-62010274D01*
X77063363Y-62036552D01*
X77068549Y-62039552D01*
X77068553Y-62039555D01*
X77164957Y-62095326D01*
X77246454Y-62142473D01*
X77445588Y-62211624D01*
X77503377Y-62252865D01*
X77529696Y-62318803D01*
X77516188Y-62388503D01*
X77493349Y-62419746D01*
X77217747Y-62695348D01*
X77209461Y-62702888D01*
X77202982Y-62707000D01*
X77197557Y-62712777D01*
X77156357Y-62756651D01*
X77153602Y-62759493D01*
X77133865Y-62779230D01*
X77131385Y-62782427D01*
X77123682Y-62791447D01*
X77093414Y-62823679D01*
X77089595Y-62830625D01*
X77089593Y-62830628D01*
X77083652Y-62841434D01*
X77072801Y-62857953D01*
X77060386Y-62873959D01*
X77050553Y-62896681D01*
X77005144Y-62951253D01*
X76974794Y-62966163D01*
X76836054Y-63012450D01*
X76685652Y-63105522D01*
X76560695Y-63230697D01*
X76556855Y-63236927D01*
X76556854Y-63236928D01*
X76547303Y-63252423D01*
X76494531Y-63299916D01*
X76424460Y-63311340D01*
X76365983Y-63288244D01*
X76279648Y-63225517D01*
X76262094Y-63212763D01*
X76262093Y-63212762D01*
X76256752Y-63208882D01*
X76250724Y-63206198D01*
X76250722Y-63206197D01*
X76088319Y-63133891D01*
X76088318Y-63133891D01*
X76082288Y-63131206D01*
X75985834Y-63110704D01*
X75901944Y-63092872D01*
X75901939Y-63092872D01*
X75895487Y-63091500D01*
X75704513Y-63091500D01*
X75698061Y-63092872D01*
X75698056Y-63092872D01*
X75582193Y-63117500D01*
X75517712Y-63131206D01*
X75511679Y-63133892D01*
X75511676Y-63133893D01*
X75501425Y-63138457D01*
X75431057Y-63147890D01*
X75366761Y-63117781D01*
X75361161Y-63112522D01*
X75358509Y-63109874D01*
X75343303Y-63094695D01*
X75312199Y-63075522D01*
X75198968Y-63005725D01*
X75198966Y-63005724D01*
X75192738Y-63001885D01*
X75112995Y-62975436D01*
X75031389Y-62948368D01*
X75031387Y-62948368D01*
X75024861Y-62946203D01*
X75018025Y-62945503D01*
X75018022Y-62945502D01*
X74969200Y-62940500D01*
X74920400Y-62935500D01*
X73919600Y-62935500D01*
X73916354Y-62935837D01*
X73916350Y-62935837D01*
X73820692Y-62945762D01*
X73820688Y-62945763D01*
X73813834Y-62946474D01*
X73807298Y-62948655D01*
X73807296Y-62948655D01*
X73712949Y-62980132D01*
X73646054Y-63002450D01*
X73495652Y-63095522D01*
X73370695Y-63220697D01*
X73366855Y-63226927D01*
X73366854Y-63226928D01*
X73314822Y-63311340D01*
X73277885Y-63371262D01*
X73259696Y-63426101D01*
X73228837Y-63519139D01*
X73222203Y-63539139D01*
X73221503Y-63545975D01*
X73221502Y-63545978D01*
X73218773Y-63572611D01*
X73211500Y-63643600D01*
X73211500Y-64444400D01*
X73211837Y-64447646D01*
X73211837Y-64447650D01*
X73220941Y-64535389D01*
X73222474Y-64550166D01*
X73278450Y-64717946D01*
X73371522Y-64868348D01*
X73376704Y-64873521D01*
X73458109Y-64954784D01*
X73492188Y-65017066D01*
X73487185Y-65087886D01*
X73458264Y-65132975D01*
X73448041Y-65143216D01*
X73370695Y-65220697D01*
X73366855Y-65226927D01*
X73366854Y-65226928D01*
X73346039Y-65260697D01*
X73277885Y-65371262D01*
X73253348Y-65445238D01*
X73228837Y-65519139D01*
X73222203Y-65539139D01*
X73221503Y-65545975D01*
X73221502Y-65545978D01*
X73218908Y-65571296D01*
X73211500Y-65643600D01*
X73211500Y-65735405D01*
X73191498Y-65803526D01*
X73174595Y-65824501D01*
X72740396Y-66258699D01*
X72307742Y-66691353D01*
X72299463Y-66698887D01*
X72292982Y-66703000D01*
X72249043Y-66749791D01*
X72246357Y-66752651D01*
X72243602Y-66755493D01*
X72223865Y-66775230D01*
X72221385Y-66778427D01*
X72213682Y-66787447D01*
X72183414Y-66819679D01*
X72179595Y-66826625D01*
X72179593Y-66826628D01*
X72173652Y-66837434D01*
X72162801Y-66853953D01*
X72150386Y-66869959D01*
X72147241Y-66877228D01*
X72147238Y-66877232D01*
X72132826Y-66910537D01*
X72127609Y-66921187D01*
X72106305Y-66959940D01*
X72104334Y-66967615D01*
X72104334Y-66967616D01*
X72101267Y-66979562D01*
X72094863Y-66998266D01*
X72086819Y-67016855D01*
X72085580Y-67024678D01*
X72085577Y-67024688D01*
X72079901Y-67060524D01*
X72077495Y-67072144D01*
X72074672Y-67083139D01*
X72066500Y-67114970D01*
X72066500Y-67135224D01*
X72064949Y-67154934D01*
X72061780Y-67174943D01*
X72062526Y-67182835D01*
X72062277Y-67190758D01*
X72060441Y-67190700D01*
X72048840Y-67250589D01*
X72009800Y-67295516D01*
X71977280Y-67318584D01*
X71977276Y-67318587D01*
X71972389Y-67322054D01*
X71826119Y-67474850D01*
X71711380Y-67652548D01*
X71632314Y-67848737D01*
X71591772Y-68056337D01*
X71591500Y-68061899D01*
X71591500Y-68767846D01*
X71606548Y-68925566D01*
X71666092Y-69128534D01*
X71668836Y-69133861D01*
X71668836Y-69133862D01*
X71716491Y-69226389D01*
X71762942Y-69316580D01*
X71893604Y-69482920D01*
X72017967Y-69590837D01*
X72056306Y-69650588D01*
X72056256Y-69721585D01*
X72017829Y-69781283D01*
X71953228Y-69810730D01*
X71935385Y-69812000D01*
X64324000Y-69812000D01*
X64255879Y-69791998D01*
X64209386Y-69738342D01*
X64198000Y-69686000D01*
X64198000Y-66496095D01*
X68227001Y-66496095D01*
X68227338Y-66502614D01*
X68237257Y-66598206D01*
X68240149Y-66611600D01*
X68291588Y-66765784D01*
X68297761Y-66778962D01*
X68383063Y-66916807D01*
X68392099Y-66928208D01*
X68506829Y-67042739D01*
X68518240Y-67051751D01*
X68656243Y-67136816D01*
X68669424Y-67142963D01*
X68823710Y-67194138D01*
X68837086Y-67197005D01*
X68931438Y-67206672D01*
X68937854Y-67207000D01*
X69187885Y-67207000D01*
X69203124Y-67202525D01*
X69204329Y-67201135D01*
X69206000Y-67193452D01*
X69206000Y-67188884D01*
X69714000Y-67188884D01*
X69718475Y-67204123D01*
X69719865Y-67205328D01*
X69727548Y-67206999D01*
X69982095Y-67206999D01*
X69988614Y-67206662D01*
X70084206Y-67196743D01*
X70097600Y-67193851D01*
X70251784Y-67142412D01*
X70264962Y-67136239D01*
X70402807Y-67050937D01*
X70414208Y-67041901D01*
X70528739Y-66927171D01*
X70537751Y-66915760D01*
X70622816Y-66777757D01*
X70628963Y-66764576D01*
X70680138Y-66610290D01*
X70683005Y-66596914D01*
X70692672Y-66502562D01*
X70693000Y-66496146D01*
X70693000Y-66383615D01*
X70688525Y-66368376D01*
X70687135Y-66367171D01*
X70679452Y-66365500D01*
X69732115Y-66365500D01*
X69716876Y-66369975D01*
X69715671Y-66371365D01*
X69714000Y-66379048D01*
X69714000Y-67188884D01*
X69206000Y-67188884D01*
X69206000Y-66383615D01*
X69201525Y-66368376D01*
X69200135Y-66367171D01*
X69192452Y-66365500D01*
X68245116Y-66365500D01*
X68229877Y-66369975D01*
X68228672Y-66371365D01*
X68227001Y-66379048D01*
X68227001Y-66496095D01*
X64198000Y-66496095D01*
X64198000Y-57094000D01*
X64218002Y-57025879D01*
X64271658Y-56979386D01*
X64324000Y-56968000D01*
X64432688Y-56968000D01*
X64500809Y-56988002D01*
G37*
%TD.AperFunction*%
%TA.AperFunction,Conductor*%
G36*
X79711402Y-63137502D02*
G01*
X79757895Y-63191158D01*
X79767999Y-63261432D01*
X79750541Y-63309615D01*
X79687885Y-63411262D01*
X79685581Y-63418209D01*
X79635421Y-63569438D01*
X79632203Y-63579139D01*
X79631503Y-63585975D01*
X79631502Y-63585978D01*
X79630475Y-63596001D01*
X79621500Y-63683600D01*
X79621500Y-64484400D01*
X79621837Y-64487646D01*
X79621837Y-64487650D01*
X79628324Y-64550166D01*
X79632474Y-64590166D01*
X79688450Y-64757946D01*
X79781522Y-64908348D01*
X79838057Y-64964784D01*
X79868109Y-64994784D01*
X79902188Y-65057066D01*
X79897185Y-65127886D01*
X79868264Y-65172975D01*
X79820625Y-65220697D01*
X79780695Y-65260697D01*
X79776855Y-65266927D01*
X79776854Y-65266928D01*
X79710218Y-65375032D01*
X79687885Y-65411262D01*
X79685581Y-65418209D01*
X79640312Y-65554692D01*
X79632203Y-65579139D01*
X79631503Y-65585975D01*
X79631502Y-65585978D01*
X79627975Y-65620402D01*
X79621500Y-65683600D01*
X79621500Y-66484400D01*
X79621837Y-66487646D01*
X79621837Y-66487650D01*
X79631195Y-66577835D01*
X79632474Y-66590166D01*
X79634655Y-66596702D01*
X79634655Y-66596704D01*
X79670511Y-66704176D01*
X79688450Y-66757946D01*
X79781522Y-66908348D01*
X79906697Y-67033305D01*
X79912927Y-67037145D01*
X79912928Y-67037146D01*
X79997592Y-67089334D01*
X80045086Y-67142107D01*
X80056509Y-67212178D01*
X80028235Y-67277302D01*
X80004376Y-67299364D01*
X79972389Y-67322054D01*
X79826119Y-67474850D01*
X79822870Y-67479881D01*
X79822865Y-67479888D01*
X79804967Y-67507607D01*
X79751211Y-67553984D01*
X79680915Y-67563937D01*
X79616398Y-67534304D01*
X79600030Y-67517091D01*
X79509738Y-67402143D01*
X79501501Y-67393494D01*
X79350877Y-67262788D01*
X79341153Y-67255853D01*
X79168533Y-67155990D01*
X79157669Y-67151016D01*
X78969273Y-67085593D01*
X78968284Y-67085352D01*
X78957992Y-67086820D01*
X78954000Y-67100385D01*
X78954000Y-68568000D01*
X78933998Y-68636121D01*
X78880342Y-68682614D01*
X78828000Y-68694000D01*
X78572000Y-68694000D01*
X78503879Y-68673998D01*
X78457386Y-68620342D01*
X78446000Y-68568000D01*
X78446000Y-67127352D01*
X78466002Y-67059231D01*
X78505695Y-67020209D01*
X78534348Y-67002478D01*
X78659305Y-66877303D01*
X78673698Y-66853953D01*
X78748275Y-66732968D01*
X78748276Y-66732966D01*
X78752115Y-66726738D01*
X78794747Y-66598206D01*
X78805632Y-66565389D01*
X78805632Y-66565387D01*
X78807797Y-66558861D01*
X78809523Y-66542022D01*
X78815093Y-66487650D01*
X78818500Y-66454400D01*
X78818500Y-65653600D01*
X78818163Y-65650350D01*
X78808238Y-65554692D01*
X78808237Y-65554688D01*
X78807526Y-65547834D01*
X78802009Y-65531296D01*
X78753868Y-65387002D01*
X78751550Y-65380054D01*
X78658478Y-65229652D01*
X78571891Y-65143216D01*
X78537812Y-65080934D01*
X78542815Y-65010114D01*
X78571736Y-64965025D01*
X78654134Y-64882483D01*
X78659305Y-64877303D01*
X78668664Y-64862120D01*
X78748275Y-64732968D01*
X78748276Y-64732966D01*
X78752115Y-64726738D01*
X78797414Y-64590166D01*
X78805632Y-64565389D01*
X78805632Y-64565387D01*
X78807797Y-64558861D01*
X78810629Y-64531226D01*
X78818172Y-64457598D01*
X78818500Y-64454400D01*
X78818500Y-63653600D01*
X78817796Y-63646817D01*
X78808238Y-63554692D01*
X78808237Y-63554688D01*
X78807526Y-63547834D01*
X78799679Y-63524312D01*
X78753868Y-63387002D01*
X78751550Y-63380054D01*
X78746110Y-63371262D01*
X78708077Y-63309803D01*
X78689239Y-63241351D01*
X78710400Y-63173582D01*
X78764841Y-63128010D01*
X78815221Y-63117500D01*
X79643281Y-63117500D01*
X79711402Y-63137502D01*
G37*
%TD.AperFunction*%
%TA.AperFunction,Conductor*%
G36*
X84793314Y-61761139D02*
G01*
X84809681Y-61778351D01*
X84903604Y-61897920D01*
X85033082Y-62010275D01*
X85071421Y-62070027D01*
X85076500Y-62105439D01*
X85076500Y-62789500D01*
X85056498Y-62857621D01*
X85002842Y-62904114D01*
X84950500Y-62915500D01*
X84539600Y-62915500D01*
X84536354Y-62915837D01*
X84536350Y-62915837D01*
X84440692Y-62925762D01*
X84440688Y-62925763D01*
X84433834Y-62926474D01*
X84427298Y-62928655D01*
X84427296Y-62928655D01*
X84343913Y-62956474D01*
X84266054Y-62982450D01*
X84115652Y-63075522D01*
X83990695Y-63200697D01*
X83986855Y-63206927D01*
X83986854Y-63206928D01*
X83914613Y-63324125D01*
X83897885Y-63351262D01*
X83890402Y-63373824D01*
X83856228Y-63476856D01*
X83842203Y-63519139D01*
X83841503Y-63525975D01*
X83841502Y-63525978D01*
X83834328Y-63596001D01*
X83831500Y-63623600D01*
X83831500Y-64424400D01*
X83831837Y-64427646D01*
X83831837Y-64427650D01*
X83838063Y-64487650D01*
X83842474Y-64530166D01*
X83844655Y-64536702D01*
X83844655Y-64536704D01*
X83864673Y-64596704D01*
X83898450Y-64697946D01*
X83991522Y-64848348D01*
X84015339Y-64872123D01*
X84078109Y-64934784D01*
X84112188Y-64997066D01*
X84107185Y-65067886D01*
X84078264Y-65112975D01*
X84063379Y-65127886D01*
X83990695Y-65200697D01*
X83986855Y-65206927D01*
X83986854Y-65206928D01*
X83972203Y-65230697D01*
X83897885Y-65351262D01*
X83888947Y-65378209D01*
X83845413Y-65509462D01*
X83842203Y-65519139D01*
X83841503Y-65525975D01*
X83841502Y-65525978D01*
X83837091Y-65569031D01*
X83831500Y-65623600D01*
X83831500Y-66424400D01*
X83831837Y-66427646D01*
X83831837Y-66427650D01*
X83840379Y-66509970D01*
X83842474Y-66530166D01*
X83844655Y-66536702D01*
X83844655Y-66536704D01*
X83869643Y-66611600D01*
X83898450Y-66697946D01*
X83991522Y-66848348D01*
X83996704Y-66853521D01*
X84029518Y-66886278D01*
X84063597Y-66948561D01*
X84066500Y-66975451D01*
X84066500Y-67190193D01*
X84046498Y-67258314D01*
X84013399Y-67292963D01*
X83977280Y-67318584D01*
X83977276Y-67318587D01*
X83972389Y-67322054D01*
X83826119Y-67474850D01*
X83822870Y-67479881D01*
X83822865Y-67479888D01*
X83804967Y-67507607D01*
X83751211Y-67553984D01*
X83680915Y-67563937D01*
X83616398Y-67534304D01*
X83600030Y-67517091D01*
X83509738Y-67402143D01*
X83501501Y-67393494D01*
X83350877Y-67262788D01*
X83341153Y-67255853D01*
X83168533Y-67155990D01*
X83157669Y-67151016D01*
X82969273Y-67085593D01*
X82968284Y-67085352D01*
X82957992Y-67086820D01*
X82954000Y-67100385D01*
X82954000Y-68568000D01*
X82933998Y-68636121D01*
X82880342Y-68682614D01*
X82828000Y-68694000D01*
X82572000Y-68694000D01*
X82503879Y-68673998D01*
X82457386Y-68620342D01*
X82446000Y-68568000D01*
X82446000Y-67104598D01*
X82442027Y-67091067D01*
X82432601Y-67089712D01*
X82343463Y-67111194D01*
X82332168Y-67115083D01*
X82150618Y-67197629D01*
X82140276Y-67203576D01*
X81977603Y-67318968D01*
X81968575Y-67326761D01*
X81830658Y-67470831D01*
X81823259Y-67480200D01*
X81805582Y-67507577D01*
X81751828Y-67553955D01*
X81681532Y-67563909D01*
X81617015Y-67534278D01*
X81600644Y-67517063D01*
X81510102Y-67401798D01*
X81506396Y-67397080D01*
X81474312Y-67369239D01*
X81435973Y-67309489D01*
X81436023Y-67238492D01*
X81474449Y-67178793D01*
X81517017Y-67154553D01*
X81596993Y-67127870D01*
X81596995Y-67127869D01*
X81603946Y-67125550D01*
X81754348Y-67032478D01*
X81879305Y-66907303D01*
X81894604Y-66882483D01*
X81968275Y-66762968D01*
X81968276Y-66762966D01*
X81972115Y-66756738D01*
X82020255Y-66611600D01*
X82025632Y-66595389D01*
X82025632Y-66595387D01*
X82027797Y-66588861D01*
X82029736Y-66569943D01*
X82033811Y-66530166D01*
X82038500Y-66484400D01*
X82038500Y-65683600D01*
X82035721Y-65656817D01*
X82028238Y-65584692D01*
X82028237Y-65584688D01*
X82027526Y-65577834D01*
X82012439Y-65532611D01*
X81973868Y-65417002D01*
X81971550Y-65410054D01*
X81878478Y-65259652D01*
X81791891Y-65173216D01*
X81757812Y-65110934D01*
X81762815Y-65040114D01*
X81791736Y-64995025D01*
X81869358Y-64917268D01*
X81931641Y-64883189D01*
X81984728Y-64883039D01*
X82098056Y-64907128D01*
X82098061Y-64907128D01*
X82104513Y-64908500D01*
X82295487Y-64908500D01*
X82301939Y-64907128D01*
X82301944Y-64907128D01*
X82414565Y-64883189D01*
X82482288Y-64868794D01*
X82516592Y-64853521D01*
X82650722Y-64793803D01*
X82650724Y-64793802D01*
X82656752Y-64791118D01*
X82811253Y-64678866D01*
X82939040Y-64536944D01*
X83034527Y-64371556D01*
X83093542Y-64189928D01*
X83113504Y-64000000D01*
X83093542Y-63810072D01*
X83034527Y-63628444D01*
X82939040Y-63463056D01*
X82865393Y-63381262D01*
X82815675Y-63326045D01*
X82815674Y-63326044D01*
X82811253Y-63321134D01*
X82679648Y-63225517D01*
X82662094Y-63212763D01*
X82662093Y-63212762D01*
X82656752Y-63208882D01*
X82650724Y-63206198D01*
X82650722Y-63206197D01*
X82488319Y-63133891D01*
X82488318Y-63133891D01*
X82482288Y-63131206D01*
X82385834Y-63110704D01*
X82301944Y-63092872D01*
X82301939Y-63092872D01*
X82295487Y-63091500D01*
X82104513Y-63091500D01*
X82098061Y-63092872D01*
X82098056Y-63092872D01*
X82014166Y-63110704D01*
X81917712Y-63131206D01*
X81911682Y-63133891D01*
X81911681Y-63133891D01*
X81878449Y-63148687D01*
X81808082Y-63158121D01*
X81753501Y-63134373D01*
X81753303Y-63134695D01*
X81745417Y-63129834D01*
X81608968Y-63045725D01*
X81608966Y-63045724D01*
X81602738Y-63041885D01*
X81495470Y-63006306D01*
X81441389Y-62988368D01*
X81441387Y-62988368D01*
X81434861Y-62986203D01*
X81428025Y-62985503D01*
X81428022Y-62985502D01*
X81375608Y-62980132D01*
X81330400Y-62975500D01*
X81226594Y-62975500D01*
X81158473Y-62955498D01*
X81111980Y-62901842D01*
X81101876Y-62831568D01*
X81131370Y-62766988D01*
X81137499Y-62760405D01*
X81621182Y-62276722D01*
X81683494Y-62242696D01*
X81704448Y-62239952D01*
X81866899Y-62232433D01*
X81998077Y-62200819D01*
X82066701Y-62184281D01*
X82066703Y-62184280D01*
X82072534Y-62182875D01*
X82077992Y-62180393D01*
X82077996Y-62180392D01*
X82193041Y-62128084D01*
X82265087Y-62095326D01*
X82437611Y-61972946D01*
X82583881Y-61820150D01*
X82595124Y-61802738D01*
X82604746Y-61787837D01*
X82658501Y-61741460D01*
X82728797Y-61731507D01*
X82793314Y-61761139D01*
X82809681Y-61778351D01*
X82903604Y-61897920D01*
X82908133Y-61901850D01*
X82908138Y-61901855D01*
X83033080Y-62010274D01*
X83063363Y-62036552D01*
X83068549Y-62039552D01*
X83068553Y-62039555D01*
X83164957Y-62095326D01*
X83246454Y-62142473D01*
X83446271Y-62211861D01*
X83452206Y-62212722D01*
X83452208Y-62212722D01*
X83649664Y-62241352D01*
X83649667Y-62241352D01*
X83655604Y-62242213D01*
X83866899Y-62232433D01*
X83998077Y-62200819D01*
X84066701Y-62184281D01*
X84066703Y-62184280D01*
X84072534Y-62182875D01*
X84077992Y-62180393D01*
X84077996Y-62180392D01*
X84193041Y-62128084D01*
X84265087Y-62095326D01*
X84437611Y-61972946D01*
X84583881Y-61820150D01*
X84595124Y-61802738D01*
X84604746Y-61787837D01*
X84658501Y-61741460D01*
X84728797Y-61731507D01*
X84793314Y-61761139D01*
G37*
%TD.AperFunction*%
%TD*%
%TA.AperFunction,Conductor*%
%TO.N,+5V*%
G36*
X70147310Y-57422940D02*
G01*
X70193822Y-57476579D01*
X70205221Y-57527717D01*
X70273974Y-64485276D01*
X70254646Y-64553591D01*
X70201452Y-64600612D01*
X70146890Y-64612516D01*
X69058918Y-64603102D01*
X68898084Y-64601710D01*
X68830139Y-64581120D01*
X68793987Y-64545081D01*
X67120871Y-62007954D01*
X67100061Y-61937725D01*
X67130254Y-57529093D01*
X67150722Y-57461111D01*
X67204695Y-57414987D01*
X67256207Y-57403956D01*
X70079183Y-57402962D01*
X70147310Y-57422940D01*
G37*
%TD.AperFunction*%
%TD*%
M02*
