M48
; DRILL file {KiCad (6.0.1)} date Sat Jul  2 13:08:03 2022
; FORMAT={-:-/ absolute / inch / decimal}
; #@! TF.CreationDate,2022-07-02T13:08:03-07:00
; #@! TF.GenerationSoftware,Kicad,Pcbnew,(6.0.1)
; #@! TF.FileFunction,Plated,1,2,PTH
FMAT,2
INCH
; #@! TA.AperFunction,Plated,PTH,ViaDrill
T1C0.0157
; #@! TA.AperFunction,Plated,PTH,ComponentDrill
T2C0.0295
; #@! TA.AperFunction,Plated,PTH,ComponentDrill
T3C0.0315
%
G90
G05
T1
X2.62Y-2.49
X2.67Y-2.55
X2.79Y-2.63
X2.8189Y-2.5354
X2.82Y-2.47
X2.83Y-2.63
X2.8661Y-2.5354
X2.9843Y-2.5197
X3.2362Y-2.5197
X3.42Y-2.62
T2
X2.8622Y-2.6945
X2.9409Y-2.6945
X3.0197Y-2.6945
X3.0984Y-2.6945
X3.1772Y-2.6945
X3.2559Y-2.6945
X3.3346Y-2.6945
X3.4134Y-2.6945
X3.4921Y-2.6945
X3.5709Y-2.6945
T3
X2.587Y-2.2823
X2.587Y-2.3949
X2.6657Y-2.2823
X2.6657Y-2.3949
X2.7445Y-2.2823
X2.7445Y-2.3949
X2.8232Y-2.2823
X2.8232Y-2.3949
X2.902Y-2.2823
X2.902Y-2.3949
X2.9807Y-2.2823
X2.9807Y-2.3949
X3.0594Y-2.2823
X3.0594Y-2.3949
X3.1382Y-2.2823
X3.1382Y-2.3949
X3.2169Y-2.2823
X3.2169Y-2.3949
X3.2957Y-2.2823
X3.2957Y-2.3949
X3.3744Y-2.2823
X3.3744Y-2.3949
X3.4531Y-2.2823
X3.4531Y-2.3949
X3.5319Y-2.2823
X3.5319Y-2.3949
X3.6106Y-2.2823
X3.6106Y-2.3949
X3.6894Y-2.2823
X3.6894Y-2.3949
X3.7681Y-2.2823
X3.7681Y-2.3949
X3.8469Y-2.2823
X3.8469Y-2.3949
T0
M30
