%TF.GenerationSoftware,KiCad,Pcbnew,(6.0.1)*%
%TF.CreationDate,2022-07-02T13:08:03-07:00*%
%TF.ProjectId,mu100-dit-connector-board,6d753130-302d-4646-9974-2d636f6e6e65,rev?*%
%TF.SameCoordinates,Original*%
%TF.FileFunction,Legend,Bot*%
%TF.FilePolarity,Positive*%
%FSLAX46Y46*%
G04 Gerber Fmt 4.6, Leading zero omitted, Abs format (unit mm)*
G04 Created by KiCad (PCBNEW (6.0.1)) date 2022-07-02 13:08:03*
%MOMM*%
%LPD*%
G01*
G04 APERTURE LIST*
G04 Aperture macros list*
%AMRoundRect*
0 Rectangle with rounded corners*
0 $1 Rounding radius*
0 $2 $3 $4 $5 $6 $7 $8 $9 X,Y pos of 4 corners*
0 Add a 4 corners polygon primitive as box body*
4,1,4,$2,$3,$4,$5,$6,$7,$8,$9,$2,$3,0*
0 Add four circle primitives for the rounded corners*
1,1,$1+$1,$2,$3*
1,1,$1+$1,$4,$5*
1,1,$1+$1,$6,$7*
1,1,$1+$1,$8,$9*
0 Add four rect primitives between the rounded corners*
20,1,$1+$1,$2,$3,$4,$5,0*
20,1,$1+$1,$4,$5,$6,$7,0*
20,1,$1+$1,$6,$7,$8,$9,0*
20,1,$1+$1,$8,$9,$2,$3,0*%
G04 Aperture macros list end*
%ADD10C,0.125000*%
%ADD11C,0.150000*%
%ADD12C,0.120000*%
%ADD13RoundRect,0.250000X0.350000X0.625000X-0.350000X0.625000X-0.350000X-0.625000X0.350000X-0.625000X0*%
%ADD14O,1.200000X1.750000*%
%ADD15RoundRect,0.250000X-0.350000X-0.650000X0.350000X-0.650000X0.350000X0.650000X-0.350000X0.650000X0*%
%ADD16O,1.200000X1.800000*%
%ADD17RoundRect,0.250000X-0.450000X0.350000X-0.450000X-0.350000X0.450000X-0.350000X0.450000X0.350000X0*%
%ADD18R,1.350000X1.350000*%
%ADD19O,1.350000X1.350000*%
%ADD20RoundRect,0.250000X-0.475000X0.337500X-0.475000X-0.337500X0.475000X-0.337500X0.475000X0.337500X0*%
%ADD21C,0.800000*%
G04 APERTURE END LIST*
D10*
X89642857Y-69935714D02*
X89261904Y-69935714D01*
X89452380Y-70126190D02*
X89452380Y-69745238D01*
X88785714Y-69626190D02*
X89023809Y-69626190D01*
X89047619Y-69864285D01*
X89023809Y-69840476D01*
X88976190Y-69816666D01*
X88857142Y-69816666D01*
X88809523Y-69840476D01*
X88785714Y-69864285D01*
X88761904Y-69911904D01*
X88761904Y-70030952D01*
X88785714Y-70078571D01*
X88809523Y-70102380D01*
X88857142Y-70126190D01*
X88976190Y-70126190D01*
X89023809Y-70102380D01*
X89047619Y-70078571D01*
X88619047Y-69626190D02*
X88452380Y-70126190D01*
X88285714Y-69626190D01*
X87080952Y-69650000D02*
X87128571Y-69626190D01*
X87200000Y-69626190D01*
X87271428Y-69650000D01*
X87319047Y-69697619D01*
X87342857Y-69745238D01*
X87366666Y-69840476D01*
X87366666Y-69911904D01*
X87342857Y-70007142D01*
X87319047Y-70054761D01*
X87271428Y-70102380D01*
X87200000Y-70126190D01*
X87152380Y-70126190D01*
X87080952Y-70102380D01*
X87057142Y-70078571D01*
X87057142Y-69911904D01*
X87152380Y-69911904D01*
X86842857Y-70126190D02*
X86842857Y-69626190D01*
X86557142Y-70126190D01*
X86557142Y-69626190D01*
X86319047Y-70126190D02*
X86319047Y-69626190D01*
X86200000Y-69626190D01*
X86128571Y-69650000D01*
X86080952Y-69697619D01*
X86057142Y-69745238D01*
X86033333Y-69840476D01*
X86033333Y-69911904D01*
X86057142Y-70007142D01*
X86080952Y-70054761D01*
X86128571Y-70102380D01*
X86200000Y-70126190D01*
X86319047Y-70126190D01*
X75080952Y-69650000D02*
X75128571Y-69626190D01*
X75200000Y-69626190D01*
X75271428Y-69650000D01*
X75319047Y-69697619D01*
X75342857Y-69745238D01*
X75366666Y-69840476D01*
X75366666Y-69911904D01*
X75342857Y-70007142D01*
X75319047Y-70054761D01*
X75271428Y-70102380D01*
X75200000Y-70126190D01*
X75152380Y-70126190D01*
X75080952Y-70102380D01*
X75057142Y-70078571D01*
X75057142Y-69911904D01*
X75152380Y-69911904D01*
X74842857Y-70126190D02*
X74842857Y-69626190D01*
X74557142Y-70126190D01*
X74557142Y-69626190D01*
X74319047Y-70126190D02*
X74319047Y-69626190D01*
X74200000Y-69626190D01*
X74128571Y-69650000D01*
X74080952Y-69697619D01*
X74057142Y-69745238D01*
X74033333Y-69840476D01*
X74033333Y-69911904D01*
X74057142Y-70007142D01*
X74080952Y-70054761D01*
X74128571Y-70102380D01*
X74200000Y-70126190D01*
X74319047Y-70126190D01*
X73295238Y-70126190D02*
X73533333Y-70126190D01*
X73533333Y-69626190D01*
X72842857Y-70126190D02*
X73009523Y-69888095D01*
X73128571Y-70126190D02*
X73128571Y-69626190D01*
X72938095Y-69626190D01*
X72890476Y-69650000D01*
X72866666Y-69673809D01*
X72842857Y-69721428D01*
X72842857Y-69792857D01*
X72866666Y-69840476D01*
X72890476Y-69864285D01*
X72938095Y-69888095D01*
X73128571Y-69888095D01*
X72342857Y-70078571D02*
X72366666Y-70102380D01*
X72438095Y-70126190D01*
X72485714Y-70126190D01*
X72557142Y-70102380D01*
X72604761Y-70054761D01*
X72628571Y-70007142D01*
X72652380Y-69911904D01*
X72652380Y-69840476D01*
X72628571Y-69745238D01*
X72604761Y-69697619D01*
X72557142Y-69650000D01*
X72485714Y-69626190D01*
X72438095Y-69626190D01*
X72366666Y-69650000D01*
X72342857Y-69673809D01*
X72128571Y-70126190D02*
X72128571Y-69626190D01*
X71842857Y-70126190D02*
X72057142Y-69840476D01*
X71842857Y-69626190D02*
X72128571Y-69911904D01*
X79080952Y-69650000D02*
X79128571Y-69626190D01*
X79200000Y-69626190D01*
X79271428Y-69650000D01*
X79319047Y-69697619D01*
X79342857Y-69745238D01*
X79366666Y-69840476D01*
X79366666Y-69911904D01*
X79342857Y-70007142D01*
X79319047Y-70054761D01*
X79271428Y-70102380D01*
X79200000Y-70126190D01*
X79152380Y-70126190D01*
X79080952Y-70102380D01*
X79057142Y-70078571D01*
X79057142Y-69911904D01*
X79152380Y-69911904D01*
X78842857Y-70126190D02*
X78842857Y-69626190D01*
X78557142Y-70126190D01*
X78557142Y-69626190D01*
X78319047Y-70126190D02*
X78319047Y-69626190D01*
X78200000Y-69626190D01*
X78128571Y-69650000D01*
X78080952Y-69697619D01*
X78057142Y-69745238D01*
X78033333Y-69840476D01*
X78033333Y-69911904D01*
X78057142Y-70007142D01*
X78080952Y-70054761D01*
X78128571Y-70102380D01*
X78200000Y-70126190D01*
X78319047Y-70126190D01*
X85569047Y-70126190D02*
X85569047Y-69626190D01*
X85402380Y-69983333D01*
X85235714Y-69626190D01*
X85235714Y-70126190D01*
X84711904Y-70078571D02*
X84735714Y-70102380D01*
X84807142Y-70126190D01*
X84854761Y-70126190D01*
X84926190Y-70102380D01*
X84973809Y-70054761D01*
X84997619Y-70007142D01*
X85021428Y-69911904D01*
X85021428Y-69840476D01*
X84997619Y-69745238D01*
X84973809Y-69697619D01*
X84926190Y-69650000D01*
X84854761Y-69626190D01*
X84807142Y-69626190D01*
X84735714Y-69650000D01*
X84711904Y-69673809D01*
X84259523Y-70126190D02*
X84497619Y-70126190D01*
X84497619Y-69626190D01*
X84092857Y-70126190D02*
X84092857Y-69626190D01*
X83807142Y-70126190D02*
X84021428Y-69840476D01*
X83807142Y-69626190D02*
X84092857Y-69911904D01*
X81497619Y-70102380D02*
X81426190Y-70126190D01*
X81307142Y-70126190D01*
X81259523Y-70102380D01*
X81235714Y-70078571D01*
X81211904Y-70030952D01*
X81211904Y-69983333D01*
X81235714Y-69935714D01*
X81259523Y-69911904D01*
X81307142Y-69888095D01*
X81402380Y-69864285D01*
X81450000Y-69840476D01*
X81473809Y-69816666D01*
X81497619Y-69769047D01*
X81497619Y-69721428D01*
X81473809Y-69673809D01*
X81450000Y-69650000D01*
X81402380Y-69626190D01*
X81283333Y-69626190D01*
X81211904Y-69650000D01*
X80997619Y-70126190D02*
X80997619Y-69626190D01*
X80878571Y-69626190D01*
X80807142Y-69650000D01*
X80759523Y-69697619D01*
X80735714Y-69745238D01*
X80711904Y-69840476D01*
X80711904Y-69911904D01*
X80735714Y-70007142D01*
X80759523Y-70054761D01*
X80807142Y-70102380D01*
X80878571Y-70126190D01*
X80997619Y-70126190D01*
X80521428Y-69983333D02*
X80283333Y-69983333D01*
X80569047Y-70126190D02*
X80402380Y-69626190D01*
X80235714Y-70126190D01*
X80140476Y-69626190D02*
X79854761Y-69626190D01*
X79997619Y-70126190D02*
X79997619Y-69626190D01*
X83080952Y-69650000D02*
X83128571Y-69626190D01*
X83200000Y-69626190D01*
X83271428Y-69650000D01*
X83319047Y-69697619D01*
X83342857Y-69745238D01*
X83366666Y-69840476D01*
X83366666Y-69911904D01*
X83342857Y-70007142D01*
X83319047Y-70054761D01*
X83271428Y-70102380D01*
X83200000Y-70126190D01*
X83152380Y-70126190D01*
X83080952Y-70102380D01*
X83057142Y-70078571D01*
X83057142Y-69911904D01*
X83152380Y-69911904D01*
X82842857Y-70126190D02*
X82842857Y-69626190D01*
X82557142Y-70126190D01*
X82557142Y-69626190D01*
X82319047Y-70126190D02*
X82319047Y-69626190D01*
X82200000Y-69626190D01*
X82128571Y-69650000D01*
X82080952Y-69697619D01*
X82057142Y-69745238D01*
X82033333Y-69840476D01*
X82033333Y-69911904D01*
X82057142Y-70007142D01*
X82080952Y-70054761D01*
X82128571Y-70102380D01*
X82200000Y-70126190D01*
X82319047Y-70126190D01*
X91478571Y-69637500D02*
X90978571Y-69637500D01*
X91073809Y-70278690D02*
X91240476Y-70040595D01*
X91359523Y-70278690D02*
X91359523Y-69778690D01*
X91169047Y-69778690D01*
X91121428Y-69802500D01*
X91097619Y-69826309D01*
X91073809Y-69873928D01*
X91073809Y-69945357D01*
X91097619Y-69992976D01*
X91121428Y-70016785D01*
X91169047Y-70040595D01*
X91359523Y-70040595D01*
X90978571Y-69637500D02*
X90502380Y-69637500D01*
X90883333Y-70254880D02*
X90811904Y-70278690D01*
X90692857Y-70278690D01*
X90645238Y-70254880D01*
X90621428Y-70231071D01*
X90597619Y-70183452D01*
X90597619Y-70135833D01*
X90621428Y-70088214D01*
X90645238Y-70064404D01*
X90692857Y-70040595D01*
X90788095Y-70016785D01*
X90835714Y-69992976D01*
X90859523Y-69969166D01*
X90883333Y-69921547D01*
X90883333Y-69873928D01*
X90859523Y-69826309D01*
X90835714Y-69802500D01*
X90788095Y-69778690D01*
X90669047Y-69778690D01*
X90597619Y-69802500D01*
X90502380Y-69637500D02*
X90121428Y-69637500D01*
X90454761Y-69778690D02*
X90169047Y-69778690D01*
X90311904Y-70278690D02*
X90311904Y-69778690D01*
X77283333Y-69864285D02*
X77211904Y-69888095D01*
X77188095Y-69911904D01*
X77164285Y-69959523D01*
X77164285Y-70030952D01*
X77188095Y-70078571D01*
X77211904Y-70102380D01*
X77259523Y-70126190D01*
X77450000Y-70126190D01*
X77450000Y-69626190D01*
X77283333Y-69626190D01*
X77235714Y-69650000D01*
X77211904Y-69673809D01*
X77188095Y-69721428D01*
X77188095Y-69769047D01*
X77211904Y-69816666D01*
X77235714Y-69840476D01*
X77283333Y-69864285D01*
X77450000Y-69864285D01*
X76950000Y-70126190D02*
X76950000Y-69626190D01*
X76426190Y-70078571D02*
X76450000Y-70102380D01*
X76521428Y-70126190D01*
X76569047Y-70126190D01*
X76640476Y-70102380D01*
X76688095Y-70054761D01*
X76711904Y-70007142D01*
X76735714Y-69911904D01*
X76735714Y-69840476D01*
X76711904Y-69745238D01*
X76688095Y-69697619D01*
X76640476Y-69650000D01*
X76569047Y-69626190D01*
X76521428Y-69626190D01*
X76450000Y-69650000D01*
X76426190Y-69673809D01*
X76211904Y-70126190D02*
X76211904Y-69626190D01*
X75926190Y-70126190D02*
X76140476Y-69840476D01*
X75926190Y-69626190D02*
X76211904Y-69911904D01*
D11*
%TO.C,R1*%
X83842380Y-64857333D02*
X83366190Y-64524000D01*
X83842380Y-64285904D02*
X82842380Y-64285904D01*
X82842380Y-64666857D01*
X82890000Y-64762095D01*
X82937619Y-64809714D01*
X83032857Y-64857333D01*
X83175714Y-64857333D01*
X83270952Y-64809714D01*
X83318571Y-64762095D01*
X83366190Y-64666857D01*
X83366190Y-64285904D01*
X83842380Y-65809714D02*
X83842380Y-65238285D01*
X83842380Y-65524000D02*
X82842380Y-65524000D01*
X82985238Y-65428761D01*
X83080476Y-65333523D01*
X83128095Y-65238285D01*
%TO.C,J1*%
X63102380Y-57636666D02*
X63816666Y-57636666D01*
X63959523Y-57589047D01*
X64054761Y-57493809D01*
X64102380Y-57350952D01*
X64102380Y-57255714D01*
X64102380Y-58636666D02*
X64102380Y-58065238D01*
X64102380Y-58350952D02*
X63102380Y-58350952D01*
X63245238Y-58255714D01*
X63340476Y-58160476D01*
X63388095Y-58065238D01*
%TO.C,R3*%
X79632380Y-64917333D02*
X79156190Y-64584000D01*
X79632380Y-64345904D02*
X78632380Y-64345904D01*
X78632380Y-64726857D01*
X78680000Y-64822095D01*
X78727619Y-64869714D01*
X78822857Y-64917333D01*
X78965714Y-64917333D01*
X79060952Y-64869714D01*
X79108571Y-64822095D01*
X79156190Y-64726857D01*
X79156190Y-64345904D01*
X78632380Y-65250666D02*
X78632380Y-65869714D01*
X79013333Y-65536380D01*
X79013333Y-65679238D01*
X79060952Y-65774476D01*
X79108571Y-65822095D01*
X79203809Y-65869714D01*
X79441904Y-65869714D01*
X79537142Y-65822095D01*
X79584761Y-65774476D01*
X79632380Y-65679238D01*
X79632380Y-65393523D01*
X79584761Y-65298285D01*
X79537142Y-65250666D01*
%TO.C,C1*%
X68137142Y-64523333D02*
X68184761Y-64475714D01*
X68232380Y-64332857D01*
X68232380Y-64237619D01*
X68184761Y-64094761D01*
X68089523Y-63999523D01*
X67994285Y-63951904D01*
X67803809Y-63904285D01*
X67660952Y-63904285D01*
X67470476Y-63951904D01*
X67375238Y-63999523D01*
X67280000Y-64094761D01*
X67232380Y-64237619D01*
X67232380Y-64332857D01*
X67280000Y-64475714D01*
X67327619Y-64523333D01*
X68232380Y-65475714D02*
X68232380Y-64904285D01*
X68232380Y-65190000D02*
X67232380Y-65190000D01*
X67375238Y-65094761D01*
X67470476Y-64999523D01*
X67518095Y-64904285D01*
%TO.C,R2*%
X76412380Y-64887333D02*
X75936190Y-64554000D01*
X76412380Y-64315904D02*
X75412380Y-64315904D01*
X75412380Y-64696857D01*
X75460000Y-64792095D01*
X75507619Y-64839714D01*
X75602857Y-64887333D01*
X75745714Y-64887333D01*
X75840952Y-64839714D01*
X75888571Y-64792095D01*
X75936190Y-64696857D01*
X75936190Y-64315904D01*
X75507619Y-65268285D02*
X75460000Y-65315904D01*
X75412380Y-65411142D01*
X75412380Y-65649238D01*
X75460000Y-65744476D01*
X75507619Y-65792095D01*
X75602857Y-65839714D01*
X75698095Y-65839714D01*
X75840952Y-65792095D01*
X76412380Y-65220666D01*
X76412380Y-65839714D01*
%TO.C,R4*%
X73222380Y-64877333D02*
X72746190Y-64544000D01*
X73222380Y-64305904D02*
X72222380Y-64305904D01*
X72222380Y-64686857D01*
X72270000Y-64782095D01*
X72317619Y-64829714D01*
X72412857Y-64877333D01*
X72555714Y-64877333D01*
X72650952Y-64829714D01*
X72698571Y-64782095D01*
X72746190Y-64686857D01*
X72746190Y-64305904D01*
X72555714Y-65734476D02*
X73222380Y-65734476D01*
X72174761Y-65496380D02*
X72889047Y-65258285D01*
X72889047Y-65877333D01*
D12*
%TO.C,R1*%
X85775000Y-64796936D02*
X85775000Y-65251064D01*
X84305000Y-64796936D02*
X84305000Y-65251064D01*
%TO.C,J1*%
X66710000Y-59030000D02*
X98770000Y-59030000D01*
X65710000Y-56910000D02*
X64650000Y-56910000D01*
X66710000Y-56910000D02*
X98770000Y-56910000D01*
X98770000Y-56910000D02*
X98770000Y-59030000D01*
X64650000Y-56910000D02*
X64650000Y-57970000D01*
X66710000Y-56910000D02*
X66710000Y-59030000D01*
%TO.C,R3*%
X81565000Y-64856936D02*
X81565000Y-65311064D01*
X80095000Y-64856936D02*
X80095000Y-65311064D01*
%TO.C,C1*%
X68725000Y-64428748D02*
X68725000Y-64951252D01*
X70195000Y-64428748D02*
X70195000Y-64951252D01*
%TO.C,R2*%
X76875000Y-64826936D02*
X76875000Y-65281064D01*
X78345000Y-64826936D02*
X78345000Y-65281064D01*
%TO.C,R4*%
X73685000Y-64816936D02*
X73685000Y-65271064D01*
X75155000Y-64816936D02*
X75155000Y-65271064D01*
%TD*%
%LPC*%
D13*
%TO.C,J3*%
X90700000Y-68440000D03*
D14*
X88700000Y-68440000D03*
X86700000Y-68440000D03*
X84700000Y-68440000D03*
X82700000Y-68440000D03*
X80700000Y-68440000D03*
X78700000Y-68440000D03*
X76700000Y-68440000D03*
X74700000Y-68440000D03*
X72700000Y-68440000D03*
%TD*%
D15*
%TO.C,J2*%
X65710000Y-60830000D03*
D16*
X67710000Y-60830000D03*
X69710000Y-60830000D03*
X71710000Y-60830000D03*
X73710000Y-60830000D03*
X75710000Y-60830000D03*
X77710000Y-60830000D03*
X79710000Y-60830000D03*
X81710000Y-60830000D03*
X83710000Y-60830000D03*
X85710000Y-60830000D03*
X87710000Y-60830000D03*
X89710000Y-60830000D03*
X91710000Y-60830000D03*
X93710000Y-60830000D03*
X95710000Y-60830000D03*
X97710000Y-60830000D03*
%TD*%
D17*
%TO.C,R1*%
X85040000Y-64024000D03*
X85040000Y-66024000D03*
%TD*%
D18*
%TO.C,J1*%
X65710000Y-57970000D03*
D19*
X67710000Y-57970000D03*
X69710000Y-57970000D03*
X71710000Y-57970000D03*
X73710000Y-57970000D03*
X75710000Y-57970000D03*
X77710000Y-57970000D03*
X79710000Y-57970000D03*
X81710000Y-57970000D03*
X83710000Y-57970000D03*
X85710000Y-57970000D03*
X87710000Y-57970000D03*
X89710000Y-57970000D03*
X91710000Y-57970000D03*
X93710000Y-57970000D03*
X95710000Y-57970000D03*
X97710000Y-57970000D03*
%TD*%
D17*
%TO.C,R3*%
X80830000Y-64084000D03*
X80830000Y-66084000D03*
%TD*%
D20*
%TO.C,C1*%
X69460000Y-63652500D03*
X69460000Y-65727500D03*
%TD*%
D17*
%TO.C,R2*%
X77610000Y-64054000D03*
X77610000Y-66054000D03*
%TD*%
%TO.C,R4*%
X74420000Y-64044000D03*
X74420000Y-66044000D03*
%TD*%
D21*
X70866000Y-66802000D03*
X67818000Y-64770000D03*
X72800000Y-64400000D03*
X71628000Y-62738000D03*
X71882000Y-66802000D03*
X66548000Y-63246000D03*
X71600000Y-64400000D03*
X86868000Y-66548000D03*
X75800000Y-64000000D03*
X82200000Y-64000000D03*
M02*
