%TF.GenerationSoftware,KiCad,Pcbnew,(6.0.1)*%
%TF.CreationDate,2022-07-04T21:24:21-07:00*%
%TF.ProjectId,mu100-dit-connector-board,6d753130-302d-4646-9974-2d636f6e6e65,rev?*%
%TF.SameCoordinates,Original*%
%TF.FileFunction,Legend,Top*%
%TF.FilePolarity,Positive*%
%FSLAX46Y46*%
G04 Gerber Fmt 4.6, Leading zero omitted, Abs format (unit mm)*
G04 Created by KiCad (PCBNEW (6.0.1)) date 2022-07-04 21:24:21*
%MOMM*%
%LPD*%
G01*
G04 APERTURE LIST*
G04 Aperture macros list*
%AMRoundRect*
0 Rectangle with rounded corners*
0 $1 Rounding radius*
0 $2 $3 $4 $5 $6 $7 $8 $9 X,Y pos of 4 corners*
0 Add a 4 corners polygon primitive as box body*
4,1,4,$2,$3,$4,$5,$6,$7,$8,$9,$2,$3,0*
0 Add four circle primitives for the rounded corners*
1,1,$1+$1,$2,$3*
1,1,$1+$1,$4,$5*
1,1,$1+$1,$6,$7*
1,1,$1+$1,$8,$9*
0 Add four rect primitives between the rounded corners*
20,1,$1+$1,$2,$3,$4,$5,0*
20,1,$1+$1,$4,$5,$6,$7,0*
20,1,$1+$1,$6,$7,$8,$9,0*
20,1,$1+$1,$8,$9,$2,$3,0*%
G04 Aperture macros list end*
%ADD10C,0.150000*%
%ADD11C,0.120000*%
%ADD12O,1.200000X1.750000*%
%ADD13RoundRect,0.250000X0.350000X0.625000X-0.350000X0.625000X-0.350000X-0.625000X0.350000X-0.625000X0*%
%ADD14O,1.200000X1.800000*%
%ADD15RoundRect,0.250000X-0.350000X-0.650000X0.350000X-0.650000X0.350000X0.650000X-0.350000X0.650000X0*%
%ADD16O,1.350000X1.350000*%
%ADD17R,1.350000X1.350000*%
%ADD18C,0.800000*%
G04 APERTURE END LIST*
D10*
X63020000Y-57085000D02*
X63020000Y-57915000D01*
X63030000Y-58750000D02*
X64430000Y-57930000D01*
X63020000Y-57930000D02*
X63020000Y-58760000D01*
X98898800Y-65857000D02*
X98898800Y-66157000D01*
X94698800Y-56957000D02*
X94698800Y-65557000D01*
X94486800Y-69806000D02*
X94486800Y-68976000D01*
X94476800Y-68141000D02*
X93076800Y-68961000D01*
X98898800Y-66557000D02*
X98898800Y-66857000D01*
X98898800Y-67257000D02*
X98898800Y-67557000D01*
X66500000Y-66730000D02*
X65680000Y-65330000D01*
X65680000Y-66740000D02*
X66510000Y-66740000D01*
X64400000Y-57900000D02*
X63020000Y-57085000D01*
X94486800Y-68961000D02*
X94486800Y-68131000D01*
X98898800Y-56957000D02*
X98898800Y-65557000D01*
X64835000Y-66740000D02*
X65665000Y-66740000D01*
X65650000Y-65360000D02*
X64835000Y-66740000D01*
X79920000Y-65300000D02*
X80750000Y-65300000D01*
X80740000Y-65290000D02*
X79920000Y-63890000D01*
X94698800Y-66557000D02*
X94698800Y-66857000D01*
X93106800Y-68991000D02*
X94486800Y-69806000D01*
X94698800Y-67257000D02*
X94698800Y-67557000D01*
X94698800Y-65857000D02*
X94698800Y-66157000D01*
X95541657Y-66792535D02*
X95541657Y-66042535D01*
X95791657Y-66578250D01*
X96041657Y-66042535D01*
X96041657Y-66792535D01*
X96398800Y-66042535D02*
X96398800Y-66649678D01*
X96434514Y-66721107D01*
X96470228Y-66756821D01*
X96541657Y-66792535D01*
X96684514Y-66792535D01*
X96755942Y-66756821D01*
X96791657Y-66721107D01*
X96827371Y-66649678D01*
X96827371Y-66042535D01*
X97220228Y-66792535D02*
X97363085Y-66792535D01*
X97434514Y-66756821D01*
X97470228Y-66721107D01*
X97541657Y-66613964D01*
X97577371Y-66471107D01*
X97577371Y-66185392D01*
X97541657Y-66113964D01*
X97505942Y-66078250D01*
X97434514Y-66042535D01*
X97291657Y-66042535D01*
X97220228Y-66078250D01*
X97184514Y-66113964D01*
X97148800Y-66185392D01*
X97148800Y-66363964D01*
X97184514Y-66435392D01*
X97220228Y-66471107D01*
X97291657Y-66506821D01*
X97434514Y-66506821D01*
X97505942Y-66471107D01*
X97541657Y-66435392D01*
X97577371Y-66363964D01*
X98041657Y-66042535D02*
X98113085Y-66042535D01*
X98184514Y-66078250D01*
X98220228Y-66113964D01*
X98255942Y-66185392D01*
X98291657Y-66328250D01*
X98291657Y-66506821D01*
X98255942Y-66649678D01*
X98220228Y-66721107D01*
X98184514Y-66756821D01*
X98113085Y-66792535D01*
X98041657Y-66792535D01*
X97970228Y-66756821D01*
X97934514Y-66721107D01*
X97898800Y-66649678D01*
X97863085Y-66506821D01*
X97863085Y-66328250D01*
X97898800Y-66185392D01*
X97934514Y-66113964D01*
X97970228Y-66078250D01*
X98041657Y-66042535D01*
X96023800Y-68000035D02*
X95952371Y-67964321D01*
X95916657Y-67928607D01*
X95880942Y-67857178D01*
X95880942Y-67642892D01*
X95916657Y-67571464D01*
X95952371Y-67535750D01*
X96023800Y-67500035D01*
X96130942Y-67500035D01*
X96202371Y-67535750D01*
X96238085Y-67571464D01*
X96273800Y-67642892D01*
X96273800Y-67857178D01*
X96238085Y-67928607D01*
X96202371Y-67964321D01*
X96130942Y-68000035D01*
X96023800Y-68000035D01*
X96595228Y-67500035D02*
X96595228Y-68000035D01*
X96595228Y-67571464D02*
X96630942Y-67535750D01*
X96702371Y-67500035D01*
X96809514Y-67500035D01*
X96880942Y-67535750D01*
X96916657Y-67607178D01*
X96916657Y-68000035D01*
X97380942Y-68000035D02*
X97309514Y-67964321D01*
X97273800Y-67892892D01*
X97273800Y-67250035D01*
X97595228Y-67500035D02*
X97773800Y-68000035D01*
X97952371Y-67500035D02*
X97773800Y-68000035D01*
X97702371Y-68178607D01*
X97666657Y-68214321D01*
X97595228Y-68250035D01*
%TO.C,J3*%
X69008666Y-67972380D02*
X69008666Y-68686666D01*
X68961047Y-68829523D01*
X68865809Y-68924761D01*
X68722952Y-68972380D01*
X68627714Y-68972380D01*
X69389619Y-67972380D02*
X70008666Y-67972380D01*
X69675333Y-68353333D01*
X69818190Y-68353333D01*
X69913428Y-68400952D01*
X69961047Y-68448571D01*
X70008666Y-68543809D01*
X70008666Y-68781904D01*
X69961047Y-68877142D01*
X69913428Y-68924761D01*
X69818190Y-68972380D01*
X69532476Y-68972380D01*
X69437238Y-68924761D01*
X69389619Y-68877142D01*
%TO.C,J2*%
X80336666Y-62522380D02*
X80336666Y-63236666D01*
X80289047Y-63379523D01*
X80193809Y-63474761D01*
X80050952Y-63522380D01*
X79955714Y-63522380D01*
X80765238Y-62617619D02*
X80812857Y-62570000D01*
X80908095Y-62522380D01*
X81146190Y-62522380D01*
X81241428Y-62570000D01*
X81289047Y-62617619D01*
X81336666Y-62712857D01*
X81336666Y-62808095D01*
X81289047Y-62950952D01*
X80717619Y-63522380D01*
X81336666Y-63522380D01*
D11*
%TO.C,J3*%
X85600000Y-66990000D02*
X85600000Y-66490000D01*
X81600000Y-66990000D02*
X81600000Y-66490000D01*
X70640000Y-65880000D02*
X70640000Y-70600000D01*
X73800000Y-66490000D02*
X73800000Y-66990000D01*
X75800000Y-66490000D02*
X75800000Y-66990000D01*
X92760000Y-67990000D02*
X92150000Y-67990000D01*
X81700000Y-66490000D02*
X81700000Y-66990000D01*
X81800000Y-66990000D02*
X81600000Y-66990000D01*
X87800000Y-66490000D02*
X87800000Y-66990000D01*
X85700000Y-66490000D02*
X85700000Y-66990000D01*
X79800000Y-66990000D02*
X79600000Y-66990000D01*
X73700000Y-66490000D02*
X73700000Y-66990000D01*
X91300000Y-70800000D02*
X91300000Y-70600000D01*
X75700000Y-66490000D02*
X75700000Y-66990000D01*
X92150000Y-69990000D02*
X92150000Y-66490000D01*
X70640000Y-70600000D02*
X92760000Y-70600000D01*
X83800000Y-66490000D02*
X83800000Y-66990000D01*
X77600000Y-66990000D02*
X77600000Y-66490000D01*
X92760000Y-69290000D02*
X92150000Y-69290000D01*
X71250000Y-66490000D02*
X71250000Y-69990000D01*
X91000000Y-70700000D02*
X91300000Y-70700000D01*
X89600000Y-66990000D02*
X89600000Y-66490000D01*
X87700000Y-66490000D02*
X87700000Y-66990000D01*
X79800000Y-66490000D02*
X79800000Y-66990000D01*
X70640000Y-67990000D02*
X71250000Y-67990000D01*
X83800000Y-66990000D02*
X83600000Y-66990000D01*
X73600000Y-66990000D02*
X73600000Y-66490000D01*
X91000000Y-70800000D02*
X91300000Y-70800000D01*
X70640000Y-69290000D02*
X71250000Y-69290000D01*
X90200000Y-69990000D02*
X92150000Y-69990000D01*
X79700000Y-66490000D02*
X79700000Y-66990000D01*
X77800000Y-66490000D02*
X77800000Y-66990000D01*
X83600000Y-66990000D02*
X83600000Y-66490000D01*
X92760000Y-70600000D02*
X92760000Y-65880000D01*
X81800000Y-66490000D02*
X81800000Y-66990000D01*
X79600000Y-66990000D02*
X79600000Y-66490000D01*
X73200000Y-69990000D02*
X73200000Y-70600000D01*
X89800000Y-66490000D02*
X89800000Y-66990000D01*
X87600000Y-66990000D02*
X87600000Y-66490000D01*
X75800000Y-66990000D02*
X75600000Y-66990000D01*
X85800000Y-66490000D02*
X85800000Y-66990000D01*
X91000000Y-70600000D02*
X91000000Y-70800000D01*
X91810000Y-70900000D02*
X93060000Y-70900000D01*
X89700000Y-66490000D02*
X89700000Y-66990000D01*
X71250000Y-69990000D02*
X73200000Y-69990000D01*
X92760000Y-65880000D02*
X70640000Y-65880000D01*
X90200000Y-70600000D02*
X90200000Y-69990000D01*
X77700000Y-66490000D02*
X77700000Y-66990000D01*
X73800000Y-66990000D02*
X73600000Y-66990000D01*
X93060000Y-70900000D02*
X93060000Y-69650000D01*
X75600000Y-66990000D02*
X75600000Y-66490000D01*
X85800000Y-66990000D02*
X85600000Y-66990000D01*
X89800000Y-66990000D02*
X89600000Y-66990000D01*
X77800000Y-66990000D02*
X77600000Y-66990000D01*
X92150000Y-66490000D02*
X71250000Y-66490000D01*
X83700000Y-66490000D02*
X83700000Y-66990000D01*
X87800000Y-66990000D02*
X87600000Y-66990000D01*
%TO.C,J2*%
X62710000Y-64980000D02*
X100710000Y-64980000D01*
X100710000Y-64980000D02*
X100710000Y-59780000D01*
X100710000Y-59780000D02*
X62710000Y-59780000D01*
X62710000Y-59780000D02*
X62710000Y-64980000D01*
X62060000Y-61480000D02*
X62710000Y-61480000D01*
X62710000Y-64980000D02*
X62060000Y-64980000D01*
X101360000Y-64980000D02*
X101360000Y-61480000D01*
X62060000Y-64980000D02*
X62060000Y-61480000D01*
X101360000Y-64980000D02*
X100710000Y-64980000D01*
X101360000Y-61480000D02*
X100710000Y-61480000D01*
%TD*%
%LPC*%
D12*
%TO.C,J3*%
X72700000Y-68790000D03*
X74700000Y-68790000D03*
X76700000Y-68790000D03*
X78700000Y-68790000D03*
X80700000Y-68790000D03*
X82700000Y-68790000D03*
X84700000Y-68790000D03*
X86700000Y-68790000D03*
X88700000Y-68790000D03*
D13*
X90700000Y-68790000D03*
%TD*%
D14*
%TO.C,J2*%
X97710000Y-60830000D03*
X95710000Y-60830000D03*
X93710000Y-60830000D03*
X91710000Y-60830000D03*
X89710000Y-60830000D03*
X87710000Y-60830000D03*
X85710000Y-60830000D03*
X83710000Y-60830000D03*
X81710000Y-60830000D03*
X79710000Y-60830000D03*
X77710000Y-60830000D03*
X75710000Y-60830000D03*
X73710000Y-60830000D03*
X71710000Y-60830000D03*
X69710000Y-60830000D03*
X67710000Y-60830000D03*
D15*
X65710000Y-60830000D03*
%TD*%
D16*
%TO.C,J1*%
X97710000Y-57970000D03*
X95710000Y-57970000D03*
X93710000Y-57970000D03*
X91710000Y-57970000D03*
X89710000Y-57970000D03*
X87710000Y-57970000D03*
X85710000Y-57970000D03*
X83710000Y-57970000D03*
X81710000Y-57970000D03*
X79710000Y-57970000D03*
X77710000Y-57970000D03*
X75710000Y-57970000D03*
X73710000Y-57970000D03*
X71710000Y-57970000D03*
X69710000Y-57970000D03*
X67710000Y-57970000D03*
D17*
X65710000Y-57970000D03*
%TD*%
D18*
X70190000Y-70070000D03*
X69400000Y-68040000D03*
X71270000Y-63010000D03*
X71760000Y-64370000D03*
X71820000Y-66050000D03*
X75539600Y-62738000D03*
X82778600Y-63195200D03*
M02*
