M48
; DRILL file {KiCad (6.0.1)} date Tue Jul  5 17:23:16 2022
; FORMAT={-:-/ absolute / inch / decimal}
; #@! TF.CreationDate,2022-07-05T17:23:16-07:00
; #@! TF.GenerationSoftware,Kicad,Pcbnew,(6.0.1)
; #@! TF.FileFunction,NonPlated,1,2,NPTH
FMAT,2
INCH
; #@! TA.AperFunction,NonPlated,NPTH,ComponentDrill
T1C0.0197
%
G90
G05
T1
X0.7096Y-0.9134
X0.7096Y-2.4724
X0.7096Y-2.5669
X0.7096Y-4.126
X0.749Y-0.9134
X0.749Y-2.4724
X0.749Y-2.5669
X0.749Y-4.126
X0.7884Y-0.9134
X0.7884Y-2.4724
X0.7884Y-2.5669
X0.7884Y-4.126
X0.8278Y-0.9134
X0.8278Y-2.4724
X0.8278Y-2.5669
X0.8278Y-4.126
X0.8671Y-0.9134
X0.8671Y-2.4724
X0.8671Y-2.5669
X0.8671Y-4.126
X0.9075Y-0.9134
X0.9075Y-2.4724
X0.9075Y-2.5669
X0.9075Y-4.126
X0.9469Y-0.9134
X0.9469Y-2.4724
X0.9469Y-2.5669
X0.9469Y-4.126
X0.9862Y-0.9134
X0.9862Y-2.4724
X0.9862Y-2.5669
X0.9862Y-4.126
X1.0256Y-0.9134
X1.0256Y-2.4724
X1.0256Y-2.5669
X1.0256Y-4.126
X1.065Y-0.9134
X1.065Y-2.4724
X1.065Y-2.5669
X1.065Y-4.126
X1.1762Y-1.6142
X1.1762Y-1.6535
X1.1762Y-1.6929
X1.1762Y-1.7323
X1.1762Y-1.7717
X1.1762Y-3.2677
X1.1762Y-3.3071
X1.1762Y-3.3465
X1.1762Y-3.3858
X1.1762Y-3.4252
X1.2707Y-1.6142
X1.2707Y-1.6535
X1.2707Y-1.6929
X1.2707Y-1.7323
X1.2707Y-1.7717
X1.2707Y-3.2677
X1.2707Y-3.3071
X1.2707Y-3.3465
X1.2707Y-3.3858
X1.2707Y-3.4252
X1.3819Y-0.9134
X1.3819Y-2.4724
X1.3819Y-2.5669
X1.3819Y-4.126
X1.4213Y-0.9134
X1.4213Y-2.4724
X1.4213Y-2.5669
X1.4213Y-4.126
X1.4606Y-0.9134
X1.4606Y-2.4724
X1.4606Y-2.5669
X1.4606Y-4.126
X1.5Y-0.9134
X1.5Y-2.4724
X1.5Y-2.5669
X1.5Y-4.126
X1.5394Y-0.9134
X1.5394Y-2.4724
X1.5394Y-2.5669
X1.5394Y-4.126
X1.5797Y-0.9134
X1.5797Y-2.4724
X1.5797Y-2.5669
X1.5797Y-4.126
X1.6191Y-0.9134
X1.6191Y-2.4724
X1.6191Y-2.5669
X1.6191Y-4.126
X1.6585Y-0.9134
X1.6585Y-2.4724
X1.6585Y-2.5669
X1.6585Y-4.126
X1.6978Y-0.9134
X1.6978Y-2.4724
X1.6978Y-2.5669
X1.6978Y-4.126
X1.7372Y-0.9134
X1.7372Y-2.4724
X1.7372Y-2.5669
X1.7372Y-4.126
X1.8484Y-1.6142
X1.8484Y-1.6535
X1.8484Y-1.6929
X1.8484Y-1.7323
X1.8484Y-1.7717
X1.8484Y-3.2677
X1.8484Y-3.3071
X1.8484Y-3.3465
X1.8484Y-3.3858
X1.8484Y-3.4252
X1.9429Y-1.6142
X1.9429Y-1.6535
X1.9429Y-1.6929
X1.9429Y-1.7323
X1.9429Y-1.7717
X1.9429Y-3.2677
X1.9429Y-3.3071
X1.9429Y-3.3465
X1.9429Y-3.3858
X1.9429Y-3.4252
X2.0541Y-0.9134
X2.0541Y-2.4724
X2.0541Y-2.5669
X2.0541Y-4.126
X2.0935Y-0.9134
X2.0935Y-2.4724
X2.0935Y-2.5669
X2.0935Y-4.126
X2.1329Y-0.9134
X2.1329Y-2.4724
X2.1329Y-2.5669
X2.1329Y-4.126
X2.1722Y-0.9134
X2.1722Y-2.4724
X2.1722Y-2.5669
X2.1722Y-4.126
X2.2116Y-0.9134
X2.2116Y-2.4724
X2.2116Y-2.5669
X2.2116Y-4.126
X2.252Y-0.9134
X2.252Y-2.4724
X2.252Y-2.5669
X2.252Y-4.126
X2.2913Y-0.9134
X2.2913Y-2.4724
X2.2913Y-2.5669
X2.2913Y-4.126
X2.3307Y-0.9134
X2.3307Y-2.4724
X2.3307Y-2.5669
X2.3307Y-4.126
X2.3701Y-0.9134
X2.3701Y-2.4724
X2.3701Y-2.5669
X2.3701Y-4.126
X2.4094Y-0.9134
X2.4094Y-2.4724
X2.4094Y-2.5669
X2.4094Y-4.126
X2.5207Y-1.6142
X2.5207Y-1.6535
X2.5207Y-1.6929
X2.5207Y-1.7323
X2.5207Y-1.7717
X2.5207Y-3.2677
X2.5207Y-3.3071
X2.5207Y-3.3465
X2.5207Y-3.3858
X2.5207Y-3.4252
X2.6152Y-1.6142
X2.6152Y-1.6535
X2.6152Y-1.6929
X2.6152Y-1.7323
X2.6152Y-1.7717
X2.6152Y-3.2677
X2.6152Y-3.3071
X2.6152Y-3.3465
X2.6152Y-3.3858
X2.6152Y-3.4252
X2.7264Y-0.9134
X2.7264Y-2.4724
X2.7264Y-2.5669
X2.7264Y-4.126
X2.7657Y-0.9134
X2.7657Y-2.4724
X2.7657Y-2.5669
X2.7657Y-4.126
X2.8051Y-0.9134
X2.8051Y-2.4724
X2.8051Y-2.5669
X2.8051Y-4.126
X2.8445Y-0.9134
X2.8445Y-2.4724
X2.8445Y-2.5669
X2.8445Y-4.126
X2.8839Y-0.9134
X2.8839Y-2.4724
X2.8839Y-2.5669
X2.8839Y-4.126
X2.9242Y-0.9134
X2.9242Y-2.4724
X2.9242Y-2.5669
X2.9242Y-4.126
X2.9636Y-0.9134
X2.9636Y-2.4724
X2.9636Y-2.5669
X2.9636Y-4.126
X3.003Y-0.9134
X3.003Y-2.4724
X3.003Y-2.5669
X3.003Y-4.126
X3.0423Y-0.9134
X3.0423Y-2.4724
X3.0423Y-2.5669
X3.0423Y-4.126
X3.0817Y-0.9134
X3.0817Y-2.4724
X3.0817Y-2.5669
X3.0817Y-4.126
X3.1929Y-1.6142
X3.1929Y-1.6535
X3.1929Y-1.6929
X3.1929Y-1.7323
X3.1929Y-1.7717
X3.1929Y-3.2677
X3.1929Y-3.3071
X3.1929Y-3.3465
X3.1929Y-3.3858
X3.1929Y-3.4252
X3.2874Y-1.6142
X3.2874Y-1.6535
X3.2874Y-1.6929
X3.2874Y-1.7323
X3.2874Y-1.7717
X3.2874Y-3.2677
X3.2874Y-3.3071
X3.2874Y-3.3465
X3.2874Y-3.3858
X3.2874Y-3.4252
X3.3986Y-0.9134
X3.3986Y-2.4724
X3.3986Y-2.5669
X3.3986Y-4.126
X3.438Y-0.9134
X3.438Y-2.4724
X3.438Y-2.5669
X3.438Y-4.126
X3.4774Y-0.9134
X3.4774Y-2.4724
X3.4774Y-2.5669
X3.4774Y-4.126
X3.5167Y-0.9134
X3.5167Y-2.4724
X3.5167Y-2.5669
X3.5167Y-4.126
X3.5561Y-0.9134
X3.5561Y-2.4724
X3.5561Y-2.5669
X3.5561Y-4.126
X3.5965Y-0.9134
X3.5965Y-2.4724
X3.5965Y-2.5669
X3.5965Y-4.126
X3.6358Y-0.9134
X3.6358Y-2.4724
X3.6358Y-2.5669
X3.6358Y-4.126
X3.6752Y-0.9134
X3.6752Y-2.4724
X3.6752Y-2.5669
X3.6752Y-4.126
X3.7146Y-0.9134
X3.7146Y-2.4724
X3.7146Y-2.5669
X3.7146Y-4.126
X3.7539Y-0.9134
X3.7539Y-2.4724
X3.7539Y-2.5669
X3.7539Y-4.126
T0
M30
