%TF.GenerationSoftware,KiCad,Pcbnew,(6.0.1)*%
%TF.CreationDate,2022-07-04T15:46:30-07:00*%
%TF.ProjectId,mu100-dit-connector-board,6d753130-302d-4646-9974-2d636f6e6e65,rev?*%
%TF.SameCoordinates,Original*%
%TF.FileFunction,Legend,Bot*%
%TF.FilePolarity,Positive*%
%FSLAX46Y46*%
G04 Gerber Fmt 4.6, Leading zero omitted, Abs format (unit mm)*
G04 Created by KiCad (PCBNEW (6.0.1)) date 2022-07-04 15:46:30*
%MOMM*%
%LPD*%
G01*
G04 APERTURE LIST*
G04 Aperture macros list*
%AMRoundRect*
0 Rectangle with rounded corners*
0 $1 Rounding radius*
0 $2 $3 $4 $5 $6 $7 $8 $9 X,Y pos of 4 corners*
0 Add a 4 corners polygon primitive as box body*
4,1,4,$2,$3,$4,$5,$6,$7,$8,$9,$2,$3,0*
0 Add four circle primitives for the rounded corners*
1,1,$1+$1,$2,$3*
1,1,$1+$1,$4,$5*
1,1,$1+$1,$6,$7*
1,1,$1+$1,$8,$9*
0 Add four rect primitives between the rounded corners*
20,1,$1+$1,$2,$3,$4,$5,0*
20,1,$1+$1,$4,$5,$6,$7,0*
20,1,$1+$1,$6,$7,$8,$9,0*
20,1,$1+$1,$8,$9,$2,$3,0*%
G04 Aperture macros list end*
%ADD10C,0.150000*%
%ADD11C,0.125000*%
%ADD12C,0.120000*%
%ADD13RoundRect,0.250000X0.350000X0.625000X-0.350000X0.625000X-0.350000X-0.625000X0.350000X-0.625000X0*%
%ADD14O,1.200000X1.750000*%
%ADD15O,1.200000X1.800000*%
%ADD16RoundRect,0.250000X-0.350000X-0.650000X0.350000X-0.650000X0.350000X0.650000X-0.350000X0.650000X0*%
%ADD17RoundRect,0.250000X-0.450000X0.350000X-0.450000X-0.350000X0.450000X-0.350000X0.450000X0.350000X0*%
%ADD18O,1.350000X1.350000*%
%ADD19R,1.350000X1.350000*%
%ADD20RoundRect,0.250000X-0.475000X0.337500X-0.475000X-0.337500X0.475000X-0.337500X0.475000X0.337500X0*%
%ADD21C,0.800000*%
G04 APERTURE END LIST*
D10*
X99406190Y-63045714D02*
X99406190Y-63855238D01*
X99453809Y-63950476D01*
X99501428Y-63998095D01*
X99596666Y-64045714D01*
X99739523Y-64045714D01*
X99834761Y-63998095D01*
X99406190Y-63664761D02*
X99501428Y-63712380D01*
X99691904Y-63712380D01*
X99787142Y-63664761D01*
X99834761Y-63617142D01*
X99882380Y-63521904D01*
X99882380Y-63236190D01*
X99834761Y-63140952D01*
X99787142Y-63093333D01*
X99691904Y-63045714D01*
X99501428Y-63045714D01*
X99406190Y-63093333D01*
X98930000Y-63712380D02*
X98930000Y-63045714D01*
X98930000Y-62712380D02*
X98977619Y-62760000D01*
X98930000Y-62807619D01*
X98882380Y-62760000D01*
X98930000Y-62712380D01*
X98930000Y-62807619D01*
X98596666Y-63045714D02*
X98215714Y-63045714D01*
X98453809Y-62712380D02*
X98453809Y-63569523D01*
X98406190Y-63664761D01*
X98310952Y-63712380D01*
X98215714Y-63712380D01*
X97882380Y-63712380D02*
X97882380Y-62712380D01*
X97453809Y-63712380D02*
X97453809Y-63188571D01*
X97501428Y-63093333D01*
X97596666Y-63045714D01*
X97739523Y-63045714D01*
X97834761Y-63093333D01*
X97882380Y-63140952D01*
X96549047Y-63045714D02*
X96549047Y-63712380D01*
X96977619Y-63045714D02*
X96977619Y-63569523D01*
X96930000Y-63664761D01*
X96834761Y-63712380D01*
X96691904Y-63712380D01*
X96596666Y-63664761D01*
X96549047Y-63617142D01*
X96072857Y-63712380D02*
X96072857Y-62712380D01*
X96072857Y-63093333D02*
X95977619Y-63045714D01*
X95787142Y-63045714D01*
X95691904Y-63093333D01*
X95644285Y-63140952D01*
X95596666Y-63236190D01*
X95596666Y-63521904D01*
X95644285Y-63617142D01*
X95691904Y-63664761D01*
X95787142Y-63712380D01*
X95977619Y-63712380D01*
X96072857Y-63664761D01*
X95168095Y-63617142D02*
X95120476Y-63664761D01*
X95168095Y-63712380D01*
X95215714Y-63664761D01*
X95168095Y-63617142D01*
X95168095Y-63712380D01*
X94263333Y-63664761D02*
X94358571Y-63712380D01*
X94549047Y-63712380D01*
X94644285Y-63664761D01*
X94691904Y-63617142D01*
X94739523Y-63521904D01*
X94739523Y-63236190D01*
X94691904Y-63140952D01*
X94644285Y-63093333D01*
X94549047Y-63045714D01*
X94358571Y-63045714D01*
X94263333Y-63093333D01*
X93691904Y-63712380D02*
X93787142Y-63664761D01*
X93834761Y-63617142D01*
X93882380Y-63521904D01*
X93882380Y-63236190D01*
X93834761Y-63140952D01*
X93787142Y-63093333D01*
X93691904Y-63045714D01*
X93549047Y-63045714D01*
X93453809Y-63093333D01*
X93406190Y-63140952D01*
X93358571Y-63236190D01*
X93358571Y-63521904D01*
X93406190Y-63617142D01*
X93453809Y-63664761D01*
X93549047Y-63712380D01*
X93691904Y-63712380D01*
X92930000Y-63712380D02*
X92930000Y-63045714D01*
X92930000Y-63140952D02*
X92882380Y-63093333D01*
X92787142Y-63045714D01*
X92644285Y-63045714D01*
X92549047Y-63093333D01*
X92501428Y-63188571D01*
X92501428Y-63712380D01*
X92501428Y-63188571D02*
X92453809Y-63093333D01*
X92358571Y-63045714D01*
X92215714Y-63045714D01*
X92120476Y-63093333D01*
X92072857Y-63188571D01*
X92072857Y-63712380D01*
X90882380Y-62664761D02*
X91739523Y-63950476D01*
X99025238Y-64655714D02*
X99025238Y-65322380D01*
X99025238Y-64750952D02*
X98977619Y-64703333D01*
X98882380Y-64655714D01*
X98739523Y-64655714D01*
X98644285Y-64703333D01*
X98596666Y-64798571D01*
X98596666Y-65322380D01*
X98120476Y-65322380D02*
X98120476Y-64655714D01*
X98120476Y-64322380D02*
X98168095Y-64370000D01*
X98120476Y-64417619D01*
X98072857Y-64370000D01*
X98120476Y-64322380D01*
X98120476Y-64417619D01*
X97644285Y-65322380D02*
X97644285Y-64322380D01*
X97549047Y-64941428D02*
X97263333Y-65322380D01*
X97263333Y-64655714D02*
X97644285Y-65036666D01*
X96834761Y-65322380D02*
X96834761Y-64655714D01*
X96834761Y-64322380D02*
X96882380Y-64370000D01*
X96834761Y-64417619D01*
X96787142Y-64370000D01*
X96834761Y-64322380D01*
X96834761Y-64417619D01*
X96501428Y-64655714D02*
X96120476Y-64655714D01*
X96358571Y-64322380D02*
X96358571Y-65179523D01*
X96310952Y-65274761D01*
X96215714Y-65322380D01*
X96120476Y-65322380D01*
X95358571Y-65322380D02*
X95358571Y-64798571D01*
X95406190Y-64703333D01*
X95501428Y-64655714D01*
X95691904Y-64655714D01*
X95787142Y-64703333D01*
X95358571Y-65274761D02*
X95453809Y-65322380D01*
X95691904Y-65322380D01*
X95787142Y-65274761D01*
X95834761Y-65179523D01*
X95834761Y-65084285D01*
X95787142Y-64989047D01*
X95691904Y-64941428D01*
X95453809Y-64941428D01*
X95358571Y-64893809D01*
X94739523Y-65322380D02*
X94834761Y-65274761D01*
X94882380Y-65179523D01*
X94882380Y-64322380D01*
X94358571Y-65322380D02*
X94358571Y-64655714D01*
X94358571Y-64322380D02*
X94406190Y-64370000D01*
X94358571Y-64417619D01*
X94310952Y-64370000D01*
X94358571Y-64322380D01*
X94358571Y-64417619D01*
X94025238Y-64655714D02*
X93644285Y-64655714D01*
X93882380Y-64322380D02*
X93882380Y-65179523D01*
X93834761Y-65274761D01*
X93739523Y-65322380D01*
X93644285Y-65322380D01*
X92882380Y-65322380D02*
X92882380Y-64798571D01*
X92930000Y-64703333D01*
X93025238Y-64655714D01*
X93215714Y-64655714D01*
X93310952Y-64703333D01*
X92882380Y-65274761D02*
X92977619Y-65322380D01*
X93215714Y-65322380D01*
X93310952Y-65274761D01*
X93358571Y-65179523D01*
X93358571Y-65084285D01*
X93310952Y-64989047D01*
X93215714Y-64941428D01*
X92977619Y-64941428D01*
X92882380Y-64893809D01*
X91691904Y-64274761D02*
X92549047Y-65560476D01*
X99453809Y-66932380D02*
X99453809Y-65932380D01*
X99120476Y-66646666D01*
X98787142Y-65932380D01*
X98787142Y-66932380D01*
X98310952Y-65932380D02*
X98310952Y-66741904D01*
X98263333Y-66837142D01*
X98215714Y-66884761D01*
X98120476Y-66932380D01*
X97930000Y-66932380D01*
X97834761Y-66884761D01*
X97787142Y-66837142D01*
X97739523Y-66741904D01*
X97739523Y-65932380D01*
X96739523Y-66932380D02*
X97310952Y-66932380D01*
X97025238Y-66932380D02*
X97025238Y-65932380D01*
X97120476Y-66075238D01*
X97215714Y-66170476D01*
X97310952Y-66218095D01*
X96120476Y-65932380D02*
X96025238Y-65932380D01*
X95930000Y-65980000D01*
X95882380Y-66027619D01*
X95834761Y-66122857D01*
X95787142Y-66313333D01*
X95787142Y-66551428D01*
X95834761Y-66741904D01*
X95882380Y-66837142D01*
X95930000Y-66884761D01*
X96025238Y-66932380D01*
X96120476Y-66932380D01*
X96215714Y-66884761D01*
X96263333Y-66837142D01*
X96310952Y-66741904D01*
X96358571Y-66551428D01*
X96358571Y-66313333D01*
X96310952Y-66122857D01*
X96263333Y-66027619D01*
X96215714Y-65980000D01*
X96120476Y-65932380D01*
X95168095Y-65932380D02*
X95072857Y-65932380D01*
X94977619Y-65980000D01*
X94930000Y-66027619D01*
X94882380Y-66122857D01*
X94834761Y-66313333D01*
X94834761Y-66551428D01*
X94882380Y-66741904D01*
X94930000Y-66837142D01*
X94977619Y-66884761D01*
X95072857Y-66932380D01*
X95168095Y-66932380D01*
X95263333Y-66884761D01*
X95310952Y-66837142D01*
X95358571Y-66741904D01*
X95406190Y-66551428D01*
X95406190Y-66313333D01*
X95358571Y-66122857D01*
X95310952Y-66027619D01*
X95263333Y-65980000D01*
X95168095Y-65932380D01*
X94406190Y-66551428D02*
X93644285Y-66551428D01*
X93168095Y-66932380D02*
X93168095Y-65932380D01*
X92930000Y-65932380D01*
X92787142Y-65980000D01*
X92691904Y-66075238D01*
X92644285Y-66170476D01*
X92596666Y-66360952D01*
X92596666Y-66503809D01*
X92644285Y-66694285D01*
X92691904Y-66789523D01*
X92787142Y-66884761D01*
X92930000Y-66932380D01*
X93168095Y-66932380D01*
X92168095Y-66932380D02*
X92168095Y-65932380D01*
X91834761Y-65932380D02*
X91263333Y-65932380D01*
X91549047Y-66932380D02*
X91549047Y-65932380D01*
D11*
X89641657Y-70492714D02*
X89260704Y-70492714D01*
X89451180Y-70683190D02*
X89451180Y-70302238D01*
X88784514Y-70183190D02*
X89022609Y-70183190D01*
X89046419Y-70421285D01*
X89022609Y-70397476D01*
X88974990Y-70373666D01*
X88855942Y-70373666D01*
X88808323Y-70397476D01*
X88784514Y-70421285D01*
X88760704Y-70468904D01*
X88760704Y-70587952D01*
X88784514Y-70635571D01*
X88808323Y-70659380D01*
X88855942Y-70683190D01*
X88974990Y-70683190D01*
X89022609Y-70659380D01*
X89046419Y-70635571D01*
X88617847Y-70183190D02*
X88451180Y-70683190D01*
X88284514Y-70183190D01*
X87079752Y-70207000D02*
X87127371Y-70183190D01*
X87198800Y-70183190D01*
X87270228Y-70207000D01*
X87317847Y-70254619D01*
X87341657Y-70302238D01*
X87365466Y-70397476D01*
X87365466Y-70468904D01*
X87341657Y-70564142D01*
X87317847Y-70611761D01*
X87270228Y-70659380D01*
X87198800Y-70683190D01*
X87151180Y-70683190D01*
X87079752Y-70659380D01*
X87055942Y-70635571D01*
X87055942Y-70468904D01*
X87151180Y-70468904D01*
X86841657Y-70683190D02*
X86841657Y-70183190D01*
X86555942Y-70683190D01*
X86555942Y-70183190D01*
X86317847Y-70683190D02*
X86317847Y-70183190D01*
X86198800Y-70183190D01*
X86127371Y-70207000D01*
X86079752Y-70254619D01*
X86055942Y-70302238D01*
X86032133Y-70397476D01*
X86032133Y-70468904D01*
X86055942Y-70564142D01*
X86079752Y-70611761D01*
X86127371Y-70659380D01*
X86198800Y-70683190D01*
X86317847Y-70683190D01*
X75079752Y-70207000D02*
X75127371Y-70183190D01*
X75198800Y-70183190D01*
X75270228Y-70207000D01*
X75317847Y-70254619D01*
X75341657Y-70302238D01*
X75365466Y-70397476D01*
X75365466Y-70468904D01*
X75341657Y-70564142D01*
X75317847Y-70611761D01*
X75270228Y-70659380D01*
X75198800Y-70683190D01*
X75151180Y-70683190D01*
X75079752Y-70659380D01*
X75055942Y-70635571D01*
X75055942Y-70468904D01*
X75151180Y-70468904D01*
X74841657Y-70683190D02*
X74841657Y-70183190D01*
X74555942Y-70683190D01*
X74555942Y-70183190D01*
X74317847Y-70683190D02*
X74317847Y-70183190D01*
X74198800Y-70183190D01*
X74127371Y-70207000D01*
X74079752Y-70254619D01*
X74055942Y-70302238D01*
X74032133Y-70397476D01*
X74032133Y-70468904D01*
X74055942Y-70564142D01*
X74079752Y-70611761D01*
X74127371Y-70659380D01*
X74198800Y-70683190D01*
X74317847Y-70683190D01*
X73294038Y-70683190D02*
X73532133Y-70683190D01*
X73532133Y-70183190D01*
X72841657Y-70683190D02*
X73008323Y-70445095D01*
X73127371Y-70683190D02*
X73127371Y-70183190D01*
X72936895Y-70183190D01*
X72889276Y-70207000D01*
X72865466Y-70230809D01*
X72841657Y-70278428D01*
X72841657Y-70349857D01*
X72865466Y-70397476D01*
X72889276Y-70421285D01*
X72936895Y-70445095D01*
X73127371Y-70445095D01*
X72341657Y-70635571D02*
X72365466Y-70659380D01*
X72436895Y-70683190D01*
X72484514Y-70683190D01*
X72555942Y-70659380D01*
X72603561Y-70611761D01*
X72627371Y-70564142D01*
X72651180Y-70468904D01*
X72651180Y-70397476D01*
X72627371Y-70302238D01*
X72603561Y-70254619D01*
X72555942Y-70207000D01*
X72484514Y-70183190D01*
X72436895Y-70183190D01*
X72365466Y-70207000D01*
X72341657Y-70230809D01*
X72127371Y-70683190D02*
X72127371Y-70183190D01*
X71841657Y-70683190D02*
X72055942Y-70397476D01*
X71841657Y-70183190D02*
X72127371Y-70468904D01*
X79079752Y-70207000D02*
X79127371Y-70183190D01*
X79198800Y-70183190D01*
X79270228Y-70207000D01*
X79317847Y-70254619D01*
X79341657Y-70302238D01*
X79365466Y-70397476D01*
X79365466Y-70468904D01*
X79341657Y-70564142D01*
X79317847Y-70611761D01*
X79270228Y-70659380D01*
X79198800Y-70683190D01*
X79151180Y-70683190D01*
X79079752Y-70659380D01*
X79055942Y-70635571D01*
X79055942Y-70468904D01*
X79151180Y-70468904D01*
X78841657Y-70683190D02*
X78841657Y-70183190D01*
X78555942Y-70683190D01*
X78555942Y-70183190D01*
X78317847Y-70683190D02*
X78317847Y-70183190D01*
X78198800Y-70183190D01*
X78127371Y-70207000D01*
X78079752Y-70254619D01*
X78055942Y-70302238D01*
X78032133Y-70397476D01*
X78032133Y-70468904D01*
X78055942Y-70564142D01*
X78079752Y-70611761D01*
X78127371Y-70659380D01*
X78198800Y-70683190D01*
X78317847Y-70683190D01*
X85567847Y-70683190D02*
X85567847Y-70183190D01*
X85401180Y-70540333D01*
X85234514Y-70183190D01*
X85234514Y-70683190D01*
X84710704Y-70635571D02*
X84734514Y-70659380D01*
X84805942Y-70683190D01*
X84853561Y-70683190D01*
X84924990Y-70659380D01*
X84972609Y-70611761D01*
X84996419Y-70564142D01*
X85020228Y-70468904D01*
X85020228Y-70397476D01*
X84996419Y-70302238D01*
X84972609Y-70254619D01*
X84924990Y-70207000D01*
X84853561Y-70183190D01*
X84805942Y-70183190D01*
X84734514Y-70207000D01*
X84710704Y-70230809D01*
X84258323Y-70683190D02*
X84496419Y-70683190D01*
X84496419Y-70183190D01*
X84091657Y-70683190D02*
X84091657Y-70183190D01*
X83805942Y-70683190D02*
X84020228Y-70397476D01*
X83805942Y-70183190D02*
X84091657Y-70468904D01*
X81496419Y-70659380D02*
X81424990Y-70683190D01*
X81305942Y-70683190D01*
X81258323Y-70659380D01*
X81234514Y-70635571D01*
X81210704Y-70587952D01*
X81210704Y-70540333D01*
X81234514Y-70492714D01*
X81258323Y-70468904D01*
X81305942Y-70445095D01*
X81401180Y-70421285D01*
X81448800Y-70397476D01*
X81472609Y-70373666D01*
X81496419Y-70326047D01*
X81496419Y-70278428D01*
X81472609Y-70230809D01*
X81448800Y-70207000D01*
X81401180Y-70183190D01*
X81282133Y-70183190D01*
X81210704Y-70207000D01*
X80996419Y-70683190D02*
X80996419Y-70183190D01*
X80877371Y-70183190D01*
X80805942Y-70207000D01*
X80758323Y-70254619D01*
X80734514Y-70302238D01*
X80710704Y-70397476D01*
X80710704Y-70468904D01*
X80734514Y-70564142D01*
X80758323Y-70611761D01*
X80805942Y-70659380D01*
X80877371Y-70683190D01*
X80996419Y-70683190D01*
X80520228Y-70540333D02*
X80282133Y-70540333D01*
X80567847Y-70683190D02*
X80401180Y-70183190D01*
X80234514Y-70683190D01*
X80139276Y-70183190D02*
X79853561Y-70183190D01*
X79996419Y-70683190D02*
X79996419Y-70183190D01*
X83079752Y-70207000D02*
X83127371Y-70183190D01*
X83198800Y-70183190D01*
X83270228Y-70207000D01*
X83317847Y-70254619D01*
X83341657Y-70302238D01*
X83365466Y-70397476D01*
X83365466Y-70468904D01*
X83341657Y-70564142D01*
X83317847Y-70611761D01*
X83270228Y-70659380D01*
X83198800Y-70683190D01*
X83151180Y-70683190D01*
X83079752Y-70659380D01*
X83055942Y-70635571D01*
X83055942Y-70468904D01*
X83151180Y-70468904D01*
X82841657Y-70683190D02*
X82841657Y-70183190D01*
X82555942Y-70683190D01*
X82555942Y-70183190D01*
X82317847Y-70683190D02*
X82317847Y-70183190D01*
X82198800Y-70183190D01*
X82127371Y-70207000D01*
X82079752Y-70254619D01*
X82055942Y-70302238D01*
X82032133Y-70397476D01*
X82032133Y-70468904D01*
X82055942Y-70564142D01*
X82079752Y-70611761D01*
X82127371Y-70659380D01*
X82198800Y-70683190D01*
X82317847Y-70683190D01*
X91191657Y-70683190D02*
X91191657Y-70183190D01*
X90905942Y-70683190D01*
X90905942Y-70183190D01*
X90382133Y-70635571D02*
X90405942Y-70659380D01*
X90477371Y-70683190D01*
X90524990Y-70683190D01*
X90596419Y-70659380D01*
X90644038Y-70611761D01*
X90667847Y-70564142D01*
X90691657Y-70468904D01*
X90691657Y-70397476D01*
X90667847Y-70302238D01*
X90644038Y-70254619D01*
X90596419Y-70207000D01*
X90524990Y-70183190D01*
X90477371Y-70183190D01*
X90405942Y-70207000D01*
X90382133Y-70230809D01*
X77282133Y-70421285D02*
X77210704Y-70445095D01*
X77186895Y-70468904D01*
X77163085Y-70516523D01*
X77163085Y-70587952D01*
X77186895Y-70635571D01*
X77210704Y-70659380D01*
X77258323Y-70683190D01*
X77448800Y-70683190D01*
X77448800Y-70183190D01*
X77282133Y-70183190D01*
X77234514Y-70207000D01*
X77210704Y-70230809D01*
X77186895Y-70278428D01*
X77186895Y-70326047D01*
X77210704Y-70373666D01*
X77234514Y-70397476D01*
X77282133Y-70421285D01*
X77448800Y-70421285D01*
X76948800Y-70683190D02*
X76948800Y-70183190D01*
X76424990Y-70635571D02*
X76448800Y-70659380D01*
X76520228Y-70683190D01*
X76567847Y-70683190D01*
X76639276Y-70659380D01*
X76686895Y-70611761D01*
X76710704Y-70564142D01*
X76734514Y-70468904D01*
X76734514Y-70397476D01*
X76710704Y-70302238D01*
X76686895Y-70254619D01*
X76639276Y-70207000D01*
X76567847Y-70183190D01*
X76520228Y-70183190D01*
X76448800Y-70207000D01*
X76424990Y-70230809D01*
X76210704Y-70683190D02*
X76210704Y-70183190D01*
X75924990Y-70683190D02*
X76139276Y-70397476D01*
X75924990Y-70183190D02*
X76210704Y-70468904D01*
D10*
%TO.C,R1*%
X83842380Y-64857333D02*
X83366190Y-64524000D01*
X83842380Y-64285904D02*
X82842380Y-64285904D01*
X82842380Y-64666857D01*
X82890000Y-64762095D01*
X82937619Y-64809714D01*
X83032857Y-64857333D01*
X83175714Y-64857333D01*
X83270952Y-64809714D01*
X83318571Y-64762095D01*
X83366190Y-64666857D01*
X83366190Y-64285904D01*
X83842380Y-65809714D02*
X83842380Y-65238285D01*
X83842380Y-65524000D02*
X82842380Y-65524000D01*
X82985238Y-65428761D01*
X83080476Y-65333523D01*
X83128095Y-65238285D01*
%TO.C,J1*%
X63102380Y-57636666D02*
X63816666Y-57636666D01*
X63959523Y-57589047D01*
X64054761Y-57493809D01*
X64102380Y-57350952D01*
X64102380Y-57255714D01*
X64102380Y-58636666D02*
X64102380Y-58065238D01*
X64102380Y-58350952D02*
X63102380Y-58350952D01*
X63245238Y-58255714D01*
X63340476Y-58160476D01*
X63388095Y-58065238D01*
%TO.C,R3*%
X79995712Y-64857333D02*
X79519522Y-64524000D01*
X79995712Y-64285904D02*
X78995712Y-64285904D01*
X78995712Y-64666857D01*
X79043332Y-64762095D01*
X79090951Y-64809714D01*
X79186189Y-64857333D01*
X79329046Y-64857333D01*
X79424284Y-64809714D01*
X79471903Y-64762095D01*
X79519522Y-64666857D01*
X79519522Y-64285904D01*
X78995712Y-65190666D02*
X78995712Y-65809714D01*
X79376665Y-65476380D01*
X79376665Y-65619238D01*
X79424284Y-65714476D01*
X79471903Y-65762095D01*
X79567141Y-65809714D01*
X79805236Y-65809714D01*
X79900474Y-65762095D01*
X79948093Y-65714476D01*
X79995712Y-65619238D01*
X79995712Y-65333523D01*
X79948093Y-65238285D01*
X79900474Y-65190666D01*
%TO.C,C1*%
X67307942Y-64907333D02*
X67355561Y-64859714D01*
X67403180Y-64716857D01*
X67403180Y-64621619D01*
X67355561Y-64478761D01*
X67260323Y-64383523D01*
X67165085Y-64335904D01*
X66974609Y-64288285D01*
X66831752Y-64288285D01*
X66641276Y-64335904D01*
X66546038Y-64383523D01*
X66450800Y-64478761D01*
X66403180Y-64621619D01*
X66403180Y-64716857D01*
X66450800Y-64859714D01*
X66498419Y-64907333D01*
X67403180Y-65859714D02*
X67403180Y-65288285D01*
X67403180Y-65574000D02*
X66403180Y-65574000D01*
X66546038Y-65478761D01*
X66641276Y-65383523D01*
X66688895Y-65288285D01*
%TO.C,R2*%
X76149046Y-64857333D02*
X75672856Y-64524000D01*
X76149046Y-64285904D02*
X75149046Y-64285904D01*
X75149046Y-64666857D01*
X75196666Y-64762095D01*
X75244285Y-64809714D01*
X75339523Y-64857333D01*
X75482380Y-64857333D01*
X75577618Y-64809714D01*
X75625237Y-64762095D01*
X75672856Y-64666857D01*
X75672856Y-64285904D01*
X75244285Y-65238285D02*
X75196666Y-65285904D01*
X75149046Y-65381142D01*
X75149046Y-65619238D01*
X75196666Y-65714476D01*
X75244285Y-65762095D01*
X75339523Y-65809714D01*
X75434761Y-65809714D01*
X75577618Y-65762095D01*
X76149046Y-65190666D01*
X76149046Y-65809714D01*
%TO.C,R4*%
X72302380Y-64857333D02*
X71826190Y-64524000D01*
X72302380Y-64285904D02*
X71302380Y-64285904D01*
X71302380Y-64666857D01*
X71350000Y-64762095D01*
X71397619Y-64809714D01*
X71492857Y-64857333D01*
X71635714Y-64857333D01*
X71730952Y-64809714D01*
X71778571Y-64762095D01*
X71826190Y-64666857D01*
X71826190Y-64285904D01*
X71635714Y-65714476D02*
X72302380Y-65714476D01*
X71254761Y-65476380D02*
X71969047Y-65238285D01*
X71969047Y-65857333D01*
D12*
%TO.C,R1*%
X84305000Y-64796936D02*
X84305000Y-65251064D01*
X85775000Y-64796936D02*
X85775000Y-65251064D01*
%TO.C,J1*%
X66710000Y-56910000D02*
X66710000Y-59030000D01*
X64650000Y-56910000D02*
X64650000Y-57970000D01*
X98770000Y-56910000D02*
X98770000Y-59030000D01*
X66710000Y-56910000D02*
X98770000Y-56910000D01*
X65710000Y-56910000D02*
X64650000Y-56910000D01*
X66710000Y-59030000D02*
X98770000Y-59030000D01*
%TO.C,R3*%
X81928332Y-64796936D02*
X81928332Y-65251064D01*
X80458332Y-64796936D02*
X80458332Y-65251064D01*
%TO.C,C1*%
X69365800Y-64812748D02*
X69365800Y-65335252D01*
X67895800Y-64812748D02*
X67895800Y-65335252D01*
%TO.C,R2*%
X78081666Y-64796936D02*
X78081666Y-65251064D01*
X76611666Y-64796936D02*
X76611666Y-65251064D01*
%TO.C,R4*%
X72765000Y-64796936D02*
X72765000Y-65251064D01*
X74235000Y-64796936D02*
X74235000Y-65251064D01*
%TD*%
%LPC*%
D13*
%TO.C,J3*%
X90700000Y-68790000D03*
D14*
X88700000Y-68790000D03*
X86700000Y-68790000D03*
X84700000Y-68790000D03*
X82700000Y-68790000D03*
X80700000Y-68790000D03*
X78700000Y-68790000D03*
X76700000Y-68790000D03*
X74700000Y-68790000D03*
X72700000Y-68790000D03*
%TD*%
D15*
%TO.C,J2*%
X97710000Y-60830000D03*
X95710000Y-60830000D03*
X93710000Y-60830000D03*
X91710000Y-60830000D03*
X89710000Y-60830000D03*
X87710000Y-60830000D03*
X85710000Y-60830000D03*
X83710000Y-60830000D03*
X81710000Y-60830000D03*
X79710000Y-60830000D03*
X77710000Y-60830000D03*
X75710000Y-60830000D03*
X73710000Y-60830000D03*
X71710000Y-60830000D03*
X69710000Y-60830000D03*
X67710000Y-60830000D03*
D16*
X65710000Y-60830000D03*
%TD*%
D17*
%TO.C,R1*%
X85040000Y-66024000D03*
X85040000Y-64024000D03*
%TD*%
D18*
%TO.C,J1*%
X97710000Y-57970000D03*
X95710000Y-57970000D03*
X93710000Y-57970000D03*
X91710000Y-57970000D03*
X89710000Y-57970000D03*
X87710000Y-57970000D03*
X85710000Y-57970000D03*
X83710000Y-57970000D03*
X81710000Y-57970000D03*
X79710000Y-57970000D03*
X77710000Y-57970000D03*
X75710000Y-57970000D03*
X73710000Y-57970000D03*
X71710000Y-57970000D03*
X69710000Y-57970000D03*
X67710000Y-57970000D03*
D19*
X65710000Y-57970000D03*
%TD*%
D17*
%TO.C,R3*%
X81193332Y-64024000D03*
X81193332Y-66024000D03*
%TD*%
D20*
%TO.C,C1*%
X68630800Y-66111500D03*
X68630800Y-64036500D03*
%TD*%
D17*
%TO.C,R2*%
X77346666Y-66024000D03*
X77346666Y-64024000D03*
%TD*%
%TO.C,R4*%
X73500000Y-64024000D03*
X73500000Y-66024000D03*
%TD*%
D21*
X69400000Y-68040000D03*
X71270000Y-63010000D03*
X71760000Y-64370000D03*
X71820000Y-66050000D03*
X70190000Y-70070000D03*
X75539600Y-62738000D03*
X82778600Y-63195200D03*
M02*
