%TF.GenerationSoftware,KiCad,Pcbnew,(6.0.1)*%
%TF.CreationDate,2022-07-06T21:26:52-07:00*%
%TF.ProjectId,mu100-dit,6d753130-302d-4646-9974-2e6b69636164,rev?*%
%TF.SameCoordinates,PX4a25ef0PY4c3f880*%
%TF.FileFunction,Copper,L2,Bot*%
%TF.FilePolarity,Positive*%
%FSLAX46Y46*%
G04 Gerber Fmt 4.6, Leading zero omitted, Abs format (unit mm)*
G04 Created by KiCad (PCBNEW (6.0.1)) date 2022-07-06 21:26:52*
%MOMM*%
%LPD*%
G01*
G04 APERTURE LIST*
G04 Aperture macros list*
%AMRoundRect*
0 Rectangle with rounded corners*
0 $1 Rounding radius*
0 $2 $3 $4 $5 $6 $7 $8 $9 X,Y pos of 4 corners*
0 Add a 4 corners polygon primitive as box body*
4,1,4,$2,$3,$4,$5,$6,$7,$8,$9,$2,$3,0*
0 Add four circle primitives for the rounded corners*
1,1,$1+$1,$2,$3*
1,1,$1+$1,$4,$5*
1,1,$1+$1,$6,$7*
1,1,$1+$1,$8,$9*
0 Add four rect primitives between the rounded corners*
20,1,$1+$1,$2,$3,$4,$5,0*
20,1,$1+$1,$4,$5,$6,$7,0*
20,1,$1+$1,$6,$7,$8,$9,0*
20,1,$1+$1,$8,$9,$2,$3,0*%
%AMFreePoly0*
4,1,13,0.500000,-0.500000,0.000000,-0.500000,-0.095671,-0.480970,-0.176777,-0.426777,-0.230970,-0.345671,-0.250000,-0.250000,-0.250000,0.250000,-0.230970,0.345671,-0.176777,0.426777,-0.095671,0.480970,0.000000,0.500000,0.500000,0.500000,0.500000,-0.500000,0.500000,-0.500000,$1*%
G04 Aperture macros list end*
%TA.AperFunction,ComponentPad*%
%ADD10RoundRect,0.250000X-0.625000X0.350000X-0.625000X-0.350000X0.625000X-0.350000X0.625000X0.350000X0*%
%TD*%
%TA.AperFunction,ComponentPad*%
%ADD11O,1.750000X1.200000*%
%TD*%
%TA.AperFunction,ConnectorPad*%
%ADD12C,5.700000*%
%TD*%
%TA.AperFunction,ComponentPad*%
%ADD13C,3.600000*%
%TD*%
%TA.AperFunction,ComponentPad*%
%ADD14C,1.524000*%
%TD*%
%TA.AperFunction,ComponentPad*%
%ADD15R,1.700000X1.700000*%
%TD*%
%TA.AperFunction,ComponentPad*%
%ADD16O,1.700000X1.700000*%
%TD*%
%TA.AperFunction,SMDPad,CuDef*%
%ADD17FreePoly0,0.000000*%
%TD*%
%TA.AperFunction,SMDPad,CuDef*%
%ADD18FreePoly0,180.000000*%
%TD*%
%TA.AperFunction,ViaPad*%
%ADD19C,0.800000*%
%TD*%
%TA.AperFunction,ViaPad*%
%ADD20C,0.750000*%
%TD*%
%TA.AperFunction,ViaPad*%
%ADD21C,0.600000*%
%TD*%
%TA.AperFunction,Conductor*%
%ADD22C,0.250000*%
%TD*%
%TA.AperFunction,Conductor*%
%ADD23C,0.600000*%
%TD*%
%TA.AperFunction,Conductor*%
%ADD24C,0.400000*%
%TD*%
%TA.AperFunction,Conductor*%
%ADD25C,0.254000*%
%TD*%
G04 APERTURE END LIST*
D10*
%TO.P,J1,1,Pin_1*%
%TO.N,unconnected-(J1-Pad1)*%
X81030000Y-90572000D03*
D11*
%TO.P,J1,2,Pin_2*%
%TO.N,+5V*%
X81030000Y-92572000D03*
%TO.P,J1,3,Pin_3*%
%TO.N,GND*%
X81030000Y-94572000D03*
%TO.P,J1,4,Pin_4*%
%TO.N,/MCLK*%
X81030000Y-96572000D03*
%TO.P,J1,5,Pin_5*%
%TO.N,GND*%
X81030000Y-98572000D03*
%TO.P,J1,6,Pin_6*%
%TO.N,/SDAT*%
X81030000Y-100572000D03*
%TO.P,J1,7,Pin_7*%
%TO.N,GND*%
X81030000Y-102572000D03*
%TO.P,J1,8,Pin_8*%
%TO.N,/BICK*%
X81030000Y-104572000D03*
%TO.P,J1,9,Pin_9*%
%TO.N,GND*%
X81030000Y-106572000D03*
%TO.P,J1,10,Pin_10*%
%TO.N,/LRCK*%
X81030000Y-108572000D03*
%TD*%
D12*
%TO.P,H1,1,1*%
%TO.N,GND*%
X91350000Y-83452000D03*
D13*
X91350000Y-83452000D03*
%TD*%
D14*
%TO.P,U1,1,GND*%
%TO.N,GND*%
X86620000Y-91262000D03*
%TO.P,U1,2,VCC*%
%TO.N,+5V*%
X86620000Y-93802000D03*
%TO.P,U1,3,Input*%
%TO.N,/TXP*%
X86620000Y-96342000D03*
%TD*%
D12*
%TO.P,H2,1,1*%
%TO.N,GND*%
X91350000Y-116452000D03*
D13*
X91350000Y-116452000D03*
%TD*%
D15*
%TO.P,J2,1,Pin_1*%
%TO.N,Net-(C4-Pad2)*%
X80510000Y-85675000D03*
D16*
%TO.P,J2,2,Pin_2*%
%TO.N,GND*%
X80510000Y-83135000D03*
%TD*%
D17*
%TO.P,JP3,1,1*%
%TO.N,+5V*%
X84560000Y-105442000D03*
D18*
%TO.P,JP3,2,2*%
%TO.N,/FS2*%
X85860000Y-105442000D03*
%TD*%
D17*
%TO.P,JP9,1,1*%
%TO.N,+5V*%
X84560000Y-110032000D03*
D18*
%TO.P,JP9,2,2*%
%TO.N,/CKS1*%
X85860000Y-110032000D03*
%TD*%
D17*
%TO.P,JP2,1,1*%
%TO.N,+5V*%
X84560000Y-103147000D03*
D18*
%TO.P,JP2,2,2*%
%TO.N,/FS1*%
X85860000Y-103147000D03*
%TD*%
D17*
%TO.P,JP7,1,1*%
%TO.N,+5V*%
X90030000Y-102067000D03*
D18*
%TO.P,JP7,2,2*%
%TO.N,/DIF2*%
X91330000Y-102067000D03*
%TD*%
D17*
%TO.P,JP1,1,1*%
%TO.N,+5V*%
X84560000Y-100822000D03*
D18*
%TO.P,JP1,2,2*%
%TO.N,/FS0*%
X85860000Y-100822000D03*
%TD*%
D17*
%TO.P,JP6,1,1*%
%TO.N,+5V*%
X90030000Y-104362000D03*
D18*
%TO.P,JP6,2,2*%
%TO.N,/DIF1*%
X91330000Y-104362000D03*
%TD*%
D17*
%TO.P,JP8,1,1*%
%TO.N,GND*%
X89980000Y-110032000D03*
D18*
%TO.P,JP8,2,2*%
%TO.N,/CKS0*%
X91280000Y-110032000D03*
%TD*%
D17*
%TO.P,JP5,1,1*%
%TO.N,+5V*%
X90030000Y-106657000D03*
D18*
%TO.P,JP5,2,2*%
%TO.N,/DIF0*%
X91330000Y-106657000D03*
%TD*%
D17*
%TO.P,JP4,1,1*%
%TO.N,+5V*%
X84560000Y-107737000D03*
D18*
%TO.P,JP4,2,2*%
%TO.N,/FS3*%
X85860000Y-107737000D03*
%TD*%
D19*
%TO.N,GND*%
X88110000Y-113772000D03*
X87480000Y-111482000D03*
X90030000Y-111532000D03*
X81763200Y-88054600D03*
X87500000Y-99482000D03*
D20*
X83300000Y-96802600D03*
X83990000Y-101972000D03*
D19*
X85930000Y-113752000D03*
X92750000Y-99122000D03*
D20*
X83300000Y-99738600D03*
D19*
X84060000Y-92542000D03*
X79248600Y-117290000D03*
X87850000Y-87882000D03*
X78715200Y-114623000D03*
D20*
X83300000Y-95352000D03*
X83300000Y-98270600D03*
D19*
X92430000Y-95692000D03*
X85300000Y-98872000D03*
X89130000Y-92702000D03*
X87910000Y-81082000D03*
D21*
%TO.N,/RESET*%
X83330000Y-111502000D03*
X83980000Y-104232000D03*
%TO.N,/FS0*%
X87889978Y-106829600D03*
%TO.N,/FS1*%
X87877200Y-107744000D03*
%TO.N,/FS2*%
X87885439Y-108751761D03*
%TO.N,/FS3*%
X87877200Y-109674400D03*
D19*
%TO.N,/TXP*%
X83846000Y-87978400D03*
D21*
%TO.N,/DIF0*%
X91999400Y-105388927D03*
%TO.N,/DIF1*%
X91999400Y-104564600D03*
%TO.N,/DIF2*%
X91839600Y-102841800D03*
%TO.N,/CKS0*%
X90925200Y-109003500D03*
%TO.N,/CKS1*%
X91915800Y-108379000D03*
%TD*%
D22*
%TO.N,GND*%
X86790000Y-91262000D02*
X86620000Y-91262000D01*
D23*
%TO.N,+5V*%
X84530000Y-94752000D02*
X84530000Y-96647000D01*
X81030000Y-92572000D02*
X82350000Y-92572000D01*
D24*
X84860000Y-109704500D02*
X84860000Y-105842000D01*
X90030000Y-102057000D02*
X90030000Y-106657000D01*
D23*
X82350000Y-92572000D02*
X84530000Y-94752000D01*
D24*
X84870000Y-101132000D02*
X84560000Y-100822000D01*
D23*
X84530000Y-96647000D02*
X86080000Y-98197000D01*
D24*
X88485000Y-102057000D02*
X90030000Y-102057000D01*
D23*
X83530000Y-93802000D02*
X86620000Y-93802000D01*
D24*
X84870000Y-105132000D02*
X84870000Y-103457000D01*
X84560000Y-100822000D02*
X84560000Y-100627704D01*
X85325704Y-99862000D02*
X86290000Y-99862000D01*
X84460000Y-103147000D02*
X84770000Y-102837000D01*
D23*
X86080000Y-98202000D02*
X86300489Y-98422489D01*
X86300489Y-99811511D02*
X86290000Y-99822000D01*
D24*
X84460000Y-105442000D02*
X84770000Y-105132000D01*
X86290000Y-99862000D02*
X88485000Y-102057000D01*
X84870000Y-102837000D02*
X84870000Y-101132000D01*
X84560000Y-100627704D02*
X85325704Y-99862000D01*
X84770000Y-103457000D02*
X84460000Y-103147000D01*
D23*
X82300000Y-92572000D02*
X83530000Y-93802000D01*
D24*
X84760000Y-105842000D02*
X84460000Y-105542000D01*
D23*
X86300489Y-98422489D02*
X86300489Y-99811511D01*
D22*
%TO.N,/RESET*%
X83980000Y-104232000D02*
X83700000Y-104512000D01*
X83700000Y-104512000D02*
X83700000Y-111132000D01*
X83700000Y-111132000D02*
X83330000Y-111502000D01*
%TO.N,/FS0*%
X87714998Y-106654620D02*
X87714998Y-102599498D01*
X87889978Y-106829600D02*
X87714998Y-106654620D01*
X87714998Y-102599498D02*
X85927500Y-100812000D01*
%TO.N,/FS1*%
X87265478Y-104587478D02*
X85897500Y-103219500D01*
X87265478Y-107132278D02*
X87265478Y-104587478D01*
X87877200Y-107744000D02*
X87265478Y-107132278D01*
X85897500Y-103219500D02*
X85897500Y-103137000D01*
%TO.N,/FS2*%
X86560000Y-105432000D02*
X86007500Y-105432000D01*
X86815958Y-107682280D02*
X86815958Y-105687958D01*
X87885439Y-108751761D02*
X86815958Y-107682280D01*
X86815958Y-105687958D02*
X86560000Y-105432000D01*
%TO.N,/FS3*%
X87877200Y-109626700D02*
X85977500Y-107727000D01*
X87877200Y-109674400D02*
X87877200Y-109626700D01*
%TO.N,/TXP*%
X83846000Y-87978400D02*
X85725600Y-87978400D01*
X85725600Y-87978400D02*
X88090000Y-90342800D01*
X88090000Y-90342800D02*
X88090000Y-94872000D01*
X88090000Y-94872000D02*
X86620000Y-96342000D01*
%TO.N,/DIF0*%
X91999400Y-105388927D02*
X90947500Y-106440827D01*
X90947500Y-106440827D02*
X90947500Y-106647000D01*
%TO.N,/DIF1*%
X91999400Y-104564600D02*
X91532600Y-104564600D01*
X91532600Y-104564600D02*
X91320000Y-104352000D01*
%TO.N,/DIF2*%
X91839600Y-102811600D02*
X91085000Y-102057000D01*
X91839600Y-102841800D02*
X91839600Y-102811600D01*
%TO.N,/CKS0*%
X90925200Y-109003500D02*
X90897500Y-109031200D01*
X90897500Y-109031200D02*
X90897500Y-110022000D01*
%TO.N,/CKS1*%
X88105800Y-110411000D02*
X86139000Y-110411000D01*
X86139000Y-110411000D02*
X85760000Y-110032000D01*
X90137800Y-108379000D02*
X88105800Y-110411000D01*
X91915800Y-108379000D02*
X90137800Y-108379000D01*
%TD*%
%TO.N,GND*%
D25*
X89103366Y-80782911D02*
X89092956Y-80791707D01*
X89073004Y-80810509D01*
X89037146Y-80871785D01*
X89040108Y-80942719D01*
X89070323Y-80991303D01*
X91260905Y-83181885D01*
X91323217Y-83215911D01*
X91394032Y-83210846D01*
X91439095Y-83181885D01*
X93630073Y-80990907D01*
X93664099Y-80928595D01*
X93659034Y-80857780D01*
X93627713Y-80810417D01*
X93616318Y-80799603D01*
X93605937Y-80790768D01*
X93337140Y-80586000D01*
X95116000Y-80586000D01*
X95116000Y-119318000D01*
X93335466Y-119318000D01*
X93587304Y-119128915D01*
X93597744Y-119120155D01*
X93626308Y-119093425D01*
X93662380Y-119032275D01*
X93659665Y-118961330D01*
X93629310Y-118912330D01*
X91439095Y-116722115D01*
X91376783Y-116688089D01*
X91305968Y-116693154D01*
X91260905Y-116722115D01*
X89069502Y-118913518D01*
X89035476Y-118975830D01*
X89040541Y-119046645D01*
X89071555Y-119093716D01*
X89074449Y-119096481D01*
X89084787Y-119105340D01*
X89361930Y-119318000D01*
X78384000Y-119318000D01*
X78384000Y-116446636D01*
X87861249Y-116446636D01*
X87879651Y-116809897D01*
X87881076Y-116823450D01*
X87938603Y-117182599D01*
X87941483Y-117195919D01*
X88037460Y-117546754D01*
X88041761Y-117559685D01*
X88175068Y-117898103D01*
X88180741Y-117910494D01*
X88349816Y-118232535D01*
X88356794Y-118244241D01*
X88559661Y-118546139D01*
X88567863Y-118557023D01*
X88706231Y-118721339D01*
X88765410Y-118760562D01*
X88836399Y-118761564D01*
X88891706Y-118729274D01*
X91079885Y-116541095D01*
X91113911Y-116478783D01*
X91110080Y-116425217D01*
X91586089Y-116425217D01*
X91591154Y-116496032D01*
X91620115Y-116541095D01*
X93808180Y-118729160D01*
X93870492Y-118763186D01*
X93941307Y-118758121D01*
X93992800Y-118722230D01*
X94109941Y-118586042D01*
X94118256Y-118575244D01*
X94324273Y-118275487D01*
X94331373Y-118263855D01*
X94503812Y-117943602D01*
X94509615Y-117931271D01*
X94646458Y-117594268D01*
X94650894Y-117581383D01*
X94750540Y-117231572D01*
X94753560Y-117218283D01*
X94814844Y-116859756D01*
X94816410Y-116846218D01*
X94838615Y-116483170D01*
X94838849Y-116475918D01*
X94838931Y-116452440D01*
X94838748Y-116445186D01*
X94819078Y-116081992D01*
X94817606Y-116068444D01*
X94758826Y-115709498D01*
X94755899Y-115696188D01*
X94658698Y-115345690D01*
X94654352Y-115332774D01*
X94519865Y-114994823D01*
X94514148Y-114982452D01*
X94343949Y-114661003D01*
X94336931Y-114649322D01*
X94133012Y-114348134D01*
X94124772Y-114337279D01*
X93993419Y-114182392D01*
X93934105Y-114143375D01*
X93863112Y-114142620D01*
X93808228Y-114174792D01*
X91620115Y-116362905D01*
X91586089Y-116425217D01*
X91110080Y-116425217D01*
X91108846Y-116407968D01*
X91079885Y-116362905D01*
X88891810Y-114174830D01*
X88829498Y-114140804D01*
X88758683Y-114145869D01*
X88706903Y-114182095D01*
X88582626Y-114327606D01*
X88574350Y-114338432D01*
X88369380Y-114638906D01*
X88362320Y-114650563D01*
X88191001Y-114971417D01*
X88185242Y-114983767D01*
X88049576Y-115321245D01*
X88045184Y-115334146D01*
X87946759Y-115684303D01*
X87943786Y-115697603D01*
X87883754Y-116056342D01*
X87882235Y-116069885D01*
X87861297Y-116433008D01*
X87861249Y-116446636D01*
X78384000Y-116446636D01*
X78384000Y-113871785D01*
X89037146Y-113871785D01*
X89040108Y-113942719D01*
X89070323Y-113991303D01*
X91260905Y-116181885D01*
X91323217Y-116215911D01*
X91394032Y-116210846D01*
X91439095Y-116181885D01*
X93630073Y-113990907D01*
X93664099Y-113928595D01*
X93659034Y-113857780D01*
X93627713Y-113810417D01*
X93616318Y-113799603D01*
X93605937Y-113790768D01*
X93316602Y-113570354D01*
X93305331Y-113562694D01*
X92993884Y-113374817D01*
X92981852Y-113368419D01*
X92651936Y-113215277D01*
X92639282Y-113210216D01*
X92294756Y-113093601D01*
X92281630Y-113089937D01*
X91926525Y-113011212D01*
X91913080Y-113008986D01*
X91551550Y-112969073D01*
X91537944Y-112968312D01*
X91174218Y-112967677D01*
X91160609Y-112968390D01*
X90798941Y-113007041D01*
X90785488Y-113009220D01*
X90430111Y-113086705D01*
X90416973Y-113090324D01*
X90072042Y-113205736D01*
X90059371Y-113210753D01*
X89728922Y-113362742D01*
X89716867Y-113369098D01*
X89404766Y-113555887D01*
X89393468Y-113563508D01*
X89103366Y-113782911D01*
X89092956Y-113791707D01*
X89073004Y-113810509D01*
X89037146Y-113871785D01*
X78384000Y-113871785D01*
X78384000Y-108523430D01*
X79516922Y-108523430D01*
X79526702Y-108734725D01*
X79530074Y-108758420D01*
X79579632Y-108964055D01*
X79587424Y-108986685D01*
X79674973Y-109179238D01*
X79686904Y-109199987D01*
X79809284Y-109372511D01*
X79824923Y-109390629D01*
X79977719Y-109536899D01*
X79996502Y-109551733D01*
X80174200Y-109666472D01*
X80195450Y-109677486D01*
X80391639Y-109756552D01*
X80414587Y-109763350D01*
X80622187Y-109803892D01*
X80640183Y-109806078D01*
X80645745Y-109806350D01*
X80651899Y-109806500D01*
X81357846Y-109806500D01*
X81369813Y-109805930D01*
X81527533Y-109790882D01*
X81551035Y-109786357D01*
X81754003Y-109726813D01*
X81776226Y-109717924D01*
X81964272Y-109621074D01*
X81984413Y-109608144D01*
X82150753Y-109477482D01*
X82168085Y-109460976D01*
X82306717Y-109301217D01*
X82320616Y-109281732D01*
X82426537Y-109098641D01*
X82436501Y-109076879D01*
X82505889Y-108877062D01*
X82511557Y-108853809D01*
X82541909Y-108644476D01*
X82543078Y-108620570D01*
X82533298Y-108409275D01*
X82529926Y-108385580D01*
X82480368Y-108179945D01*
X82472576Y-108157315D01*
X82385027Y-107964762D01*
X82373096Y-107944013D01*
X82250716Y-107771489D01*
X82235077Y-107753371D01*
X82082281Y-107607101D01*
X82063498Y-107592267D01*
X82030742Y-107571116D01*
X82150407Y-107477118D01*
X82167739Y-107460613D01*
X82306308Y-107300927D01*
X82320207Y-107281441D01*
X82426080Y-107098432D01*
X82436044Y-107076670D01*
X82505401Y-106876943D01*
X82511070Y-106853685D01*
X82512463Y-106844075D01*
X82502440Y-106773790D01*
X82456009Y-106720081D01*
X82387766Y-106700000D01*
X79676483Y-106700000D01*
X79608362Y-106720002D01*
X79561869Y-106773658D01*
X79551765Y-106843932D01*
X79553990Y-106855521D01*
X79580107Y-106963891D01*
X79587899Y-106986521D01*
X79675408Y-107178988D01*
X79687339Y-107199737D01*
X79809664Y-107372183D01*
X79825303Y-107390301D01*
X79978030Y-107536505D01*
X79996813Y-107551339D01*
X80029230Y-107572270D01*
X79909247Y-107666518D01*
X79891915Y-107683024D01*
X79753283Y-107842783D01*
X79739384Y-107862268D01*
X79633463Y-108045359D01*
X79623499Y-108067121D01*
X79554111Y-108266938D01*
X79548443Y-108290191D01*
X79518091Y-108499524D01*
X79516922Y-108523430D01*
X78384000Y-108523430D01*
X78384000Y-104523430D01*
X79516922Y-104523430D01*
X79526702Y-104734725D01*
X79530074Y-104758420D01*
X79579632Y-104964055D01*
X79587424Y-104986685D01*
X79674973Y-105179238D01*
X79686904Y-105199987D01*
X79809284Y-105372511D01*
X79824923Y-105390629D01*
X79977719Y-105536899D01*
X79996502Y-105551733D01*
X80029258Y-105572884D01*
X79909593Y-105666882D01*
X79892261Y-105683387D01*
X79753692Y-105843073D01*
X79739793Y-105862559D01*
X79633920Y-106045568D01*
X79623956Y-106067330D01*
X79554599Y-106267057D01*
X79548930Y-106290315D01*
X79547537Y-106299925D01*
X79557560Y-106370210D01*
X79603991Y-106423919D01*
X79672234Y-106444000D01*
X82383517Y-106444000D01*
X82451638Y-106423998D01*
X82498131Y-106370342D01*
X82508235Y-106300068D01*
X82506010Y-106288479D01*
X82479893Y-106180109D01*
X82472101Y-106157479D01*
X82384592Y-105965012D01*
X82372661Y-105944263D01*
X82250336Y-105771817D01*
X82234697Y-105753699D01*
X82081970Y-105607495D01*
X82063187Y-105592661D01*
X82030770Y-105571730D01*
X82150753Y-105477482D01*
X82168085Y-105460976D01*
X82306717Y-105301217D01*
X82320616Y-105281732D01*
X82426537Y-105098641D01*
X82436501Y-105076879D01*
X82505889Y-104877062D01*
X82511557Y-104853809D01*
X82541909Y-104644476D01*
X82543078Y-104620570D01*
X82533298Y-104409275D01*
X82529926Y-104385580D01*
X82480368Y-104179945D01*
X82472576Y-104157315D01*
X82385027Y-103964762D01*
X82373096Y-103944013D01*
X82250716Y-103771489D01*
X82235077Y-103753371D01*
X82082281Y-103607101D01*
X82063498Y-103592267D01*
X82030742Y-103571116D01*
X82150407Y-103477118D01*
X82167739Y-103460613D01*
X82306308Y-103300927D01*
X82320207Y-103281441D01*
X82426080Y-103098432D01*
X82436044Y-103076670D01*
X82505401Y-102876943D01*
X82511070Y-102853685D01*
X82512463Y-102844075D01*
X82502440Y-102773790D01*
X82456009Y-102720081D01*
X82387766Y-102700000D01*
X79676483Y-102700000D01*
X79608362Y-102720002D01*
X79561869Y-102773658D01*
X79551765Y-102843932D01*
X79553990Y-102855521D01*
X79580107Y-102963891D01*
X79587899Y-102986521D01*
X79675408Y-103178988D01*
X79687339Y-103199737D01*
X79809664Y-103372183D01*
X79825303Y-103390301D01*
X79978030Y-103536505D01*
X79996813Y-103551339D01*
X80029230Y-103572270D01*
X79909247Y-103666518D01*
X79891915Y-103683024D01*
X79753283Y-103842783D01*
X79739384Y-103862268D01*
X79633463Y-104045359D01*
X79623499Y-104067121D01*
X79554111Y-104266938D01*
X79548443Y-104290191D01*
X79518091Y-104499524D01*
X79516922Y-104523430D01*
X78384000Y-104523430D01*
X78384000Y-100523430D01*
X79516922Y-100523430D01*
X79526702Y-100734725D01*
X79530074Y-100758420D01*
X79579632Y-100964055D01*
X79587424Y-100986685D01*
X79674973Y-101179238D01*
X79686904Y-101199987D01*
X79809284Y-101372511D01*
X79824923Y-101390629D01*
X79977719Y-101536899D01*
X79996502Y-101551733D01*
X80029258Y-101572884D01*
X79909593Y-101666882D01*
X79892261Y-101683387D01*
X79753692Y-101843073D01*
X79739793Y-101862559D01*
X79633920Y-102045568D01*
X79623956Y-102067330D01*
X79554599Y-102267057D01*
X79548930Y-102290315D01*
X79547537Y-102299925D01*
X79557560Y-102370210D01*
X79603991Y-102423919D01*
X79672234Y-102444000D01*
X82383517Y-102444000D01*
X82451638Y-102423998D01*
X82498131Y-102370342D01*
X82508235Y-102300068D01*
X82506010Y-102288479D01*
X82479893Y-102180109D01*
X82472101Y-102157479D01*
X82384592Y-101965012D01*
X82372661Y-101944263D01*
X82250336Y-101771817D01*
X82234697Y-101753699D01*
X82081970Y-101607495D01*
X82063187Y-101592661D01*
X82030770Y-101571730D01*
X82150753Y-101477482D01*
X82168085Y-101460976D01*
X82306717Y-101301217D01*
X82320616Y-101281732D01*
X82426537Y-101098641D01*
X82436501Y-101076879D01*
X82505889Y-100877062D01*
X82511557Y-100853809D01*
X82541909Y-100644476D01*
X82543078Y-100620570D01*
X82533298Y-100409275D01*
X82529926Y-100385580D01*
X82480368Y-100179945D01*
X82472576Y-100157315D01*
X82385027Y-99964762D01*
X82373096Y-99944013D01*
X82250716Y-99771489D01*
X82235077Y-99753371D01*
X82082281Y-99607101D01*
X82063498Y-99592267D01*
X82030742Y-99571116D01*
X82150407Y-99477118D01*
X82167739Y-99460613D01*
X82306308Y-99300927D01*
X82320207Y-99281441D01*
X82426080Y-99098432D01*
X82436044Y-99076670D01*
X82505401Y-98876943D01*
X82511070Y-98853685D01*
X82512463Y-98844075D01*
X82502440Y-98773790D01*
X82456009Y-98720081D01*
X82387766Y-98700000D01*
X79676483Y-98700000D01*
X79608362Y-98720002D01*
X79561869Y-98773658D01*
X79551765Y-98843932D01*
X79553990Y-98855521D01*
X79580107Y-98963891D01*
X79587899Y-98986521D01*
X79675408Y-99178988D01*
X79687339Y-99199737D01*
X79809664Y-99372183D01*
X79825303Y-99390301D01*
X79978030Y-99536505D01*
X79996813Y-99551339D01*
X80029230Y-99572270D01*
X79909247Y-99666518D01*
X79891915Y-99683024D01*
X79753283Y-99842783D01*
X79739384Y-99862268D01*
X79633463Y-100045359D01*
X79623499Y-100067121D01*
X79554111Y-100266938D01*
X79548443Y-100290191D01*
X79518091Y-100499524D01*
X79516922Y-100523430D01*
X78384000Y-100523430D01*
X78384000Y-96523430D01*
X79516922Y-96523430D01*
X79526702Y-96734725D01*
X79530074Y-96758420D01*
X79579632Y-96964055D01*
X79587424Y-96986685D01*
X79674973Y-97179238D01*
X79686904Y-97199987D01*
X79809284Y-97372511D01*
X79824923Y-97390629D01*
X79977719Y-97536899D01*
X79996502Y-97551733D01*
X80029258Y-97572884D01*
X79909593Y-97666882D01*
X79892261Y-97683387D01*
X79753692Y-97843073D01*
X79739793Y-97862559D01*
X79633920Y-98045568D01*
X79623956Y-98067330D01*
X79554599Y-98267057D01*
X79548930Y-98290315D01*
X79547537Y-98299925D01*
X79557560Y-98370210D01*
X79603991Y-98423919D01*
X79672234Y-98444000D01*
X82383517Y-98444000D01*
X82451638Y-98423998D01*
X82498131Y-98370342D01*
X82508235Y-98300068D01*
X82506010Y-98288479D01*
X82479893Y-98180109D01*
X82472101Y-98157479D01*
X82384592Y-97965012D01*
X82372661Y-97944263D01*
X82250336Y-97771817D01*
X82234697Y-97753699D01*
X82081970Y-97607495D01*
X82063187Y-97592661D01*
X82030770Y-97571730D01*
X82150753Y-97477482D01*
X82168085Y-97460976D01*
X82306717Y-97301217D01*
X82320616Y-97281732D01*
X82426537Y-97098641D01*
X82436501Y-97076879D01*
X82505889Y-96877062D01*
X82511557Y-96853809D01*
X82541909Y-96644476D01*
X82543078Y-96620570D01*
X82533298Y-96409275D01*
X82529926Y-96385580D01*
X82480368Y-96179945D01*
X82472576Y-96157315D01*
X82385027Y-95964762D01*
X82373096Y-95944013D01*
X82250716Y-95771489D01*
X82235077Y-95753371D01*
X82082281Y-95607101D01*
X82063498Y-95592267D01*
X82030742Y-95571116D01*
X82150407Y-95477118D01*
X82167739Y-95460613D01*
X82306308Y-95300927D01*
X82320207Y-95281441D01*
X82426080Y-95098432D01*
X82436044Y-95076670D01*
X82505401Y-94876943D01*
X82511070Y-94853685D01*
X82512463Y-94844075D01*
X82502440Y-94773790D01*
X82456009Y-94720081D01*
X82387766Y-94700000D01*
X79676483Y-94700000D01*
X79608362Y-94720002D01*
X79561869Y-94773658D01*
X79551765Y-94843932D01*
X79553990Y-94855521D01*
X79580107Y-94963891D01*
X79587899Y-94986521D01*
X79675408Y-95178988D01*
X79687339Y-95199737D01*
X79809664Y-95372183D01*
X79825303Y-95390301D01*
X79978030Y-95536505D01*
X79996813Y-95551339D01*
X80029230Y-95572270D01*
X79909247Y-95666518D01*
X79891915Y-95683024D01*
X79753283Y-95842783D01*
X79739384Y-95862268D01*
X79633463Y-96045359D01*
X79623499Y-96067121D01*
X79554111Y-96266938D01*
X79548443Y-96290191D01*
X79518091Y-96499524D01*
X79516922Y-96523430D01*
X78384000Y-96523430D01*
X78384000Y-92523430D01*
X79516922Y-92523430D01*
X79526702Y-92734725D01*
X79530074Y-92758420D01*
X79579632Y-92964055D01*
X79587424Y-92986685D01*
X79674973Y-93179238D01*
X79686904Y-93199987D01*
X79809284Y-93372511D01*
X79824923Y-93390629D01*
X79977719Y-93536899D01*
X79996502Y-93551733D01*
X80029258Y-93572884D01*
X79909593Y-93666882D01*
X79892261Y-93683387D01*
X79753692Y-93843073D01*
X79739793Y-93862559D01*
X79633920Y-94045568D01*
X79623956Y-94067330D01*
X79554599Y-94267057D01*
X79548930Y-94290315D01*
X79547537Y-94299925D01*
X79557560Y-94370210D01*
X79603991Y-94423919D01*
X79672234Y-94444000D01*
X82383517Y-94444000D01*
X82451638Y-94423998D01*
X82498131Y-94370342D01*
X82508235Y-94300068D01*
X82506010Y-94288479D01*
X82479893Y-94180109D01*
X82472101Y-94157479D01*
X82395566Y-93989149D01*
X82862624Y-94456206D01*
X82925747Y-94520665D01*
X82947516Y-94538419D01*
X82983959Y-94561905D01*
X83017834Y-94588947D01*
X83041605Y-94603917D01*
X83071803Y-94618515D01*
X83080609Y-94624190D01*
X83595500Y-95139081D01*
X83595500Y-96637786D01*
X83594556Y-96727901D01*
X83597395Y-96755848D01*
X83606555Y-96798213D01*
X83611388Y-96841301D01*
X83617611Y-96868692D01*
X83628642Y-96900368D01*
X83635727Y-96933138D01*
X83644686Y-96959759D01*
X83663006Y-96999046D01*
X83677264Y-97039990D01*
X83689400Y-97065321D01*
X83707172Y-97093763D01*
X83721343Y-97124152D01*
X83735979Y-97148129D01*
X83762547Y-97182380D01*
X83785519Y-97219144D01*
X83802967Y-97241159D01*
X83831569Y-97269962D01*
X83832983Y-97271565D01*
X83858662Y-97297244D01*
X83930779Y-97369866D01*
X83933356Y-97371938D01*
X85360084Y-98798666D01*
X85365989Y-98806279D01*
X85365989Y-99027500D01*
X85354616Y-99027500D01*
X85296922Y-99023567D01*
X85266689Y-99025151D01*
X85203742Y-99036137D01*
X85140325Y-99043811D01*
X85110924Y-99051032D01*
X85104515Y-99053454D01*
X85097758Y-99054633D01*
X85068774Y-99063384D01*
X85010263Y-99089069D01*
X84950511Y-99111647D01*
X84923684Y-99125671D01*
X84918034Y-99129554D01*
X84911749Y-99132313D01*
X84885694Y-99147723D01*
X84835007Y-99186618D01*
X84782357Y-99222802D01*
X84759647Y-99242824D01*
X84718193Y-99289351D01*
X83990385Y-100017159D01*
X83946785Y-100055194D01*
X83926528Y-100077692D01*
X83889785Y-100129972D01*
X83850370Y-100180240D01*
X83834686Y-100206137D01*
X83831866Y-100212383D01*
X83827925Y-100217990D01*
X83813617Y-100244673D01*
X83790405Y-100304210D01*
X83764119Y-100362425D01*
X83755065Y-100391312D01*
X83753815Y-100398057D01*
X83751324Y-100404446D01*
X83743796Y-100433767D01*
X83735457Y-100497110D01*
X83723814Y-100559928D01*
X83721913Y-100590144D01*
X83725500Y-100652350D01*
X83725500Y-100793088D01*
X83721567Y-100850782D01*
X83723151Y-100881015D01*
X83734137Y-100943962D01*
X83741811Y-101007379D01*
X83749032Y-101036780D01*
X83751454Y-101043189D01*
X83752633Y-101049946D01*
X83761384Y-101078930D01*
X83787069Y-101137441D01*
X83809647Y-101197193D01*
X83823671Y-101224020D01*
X83827554Y-101229670D01*
X83830313Y-101235955D01*
X83845723Y-101262010D01*
X83884618Y-101312697D01*
X83920802Y-101365347D01*
X83940824Y-101388058D01*
X83987360Y-101429520D01*
X84035500Y-101477660D01*
X84035500Y-102391340D01*
X83876352Y-102550488D01*
X83812047Y-102614123D01*
X83793243Y-102637849D01*
X83773583Y-102669931D01*
X83750370Y-102699536D01*
X83734687Y-102725432D01*
X83721012Y-102755718D01*
X83703643Y-102784062D01*
X83691040Y-102811589D01*
X83679602Y-102847430D01*
X83664118Y-102881722D01*
X83655065Y-102910612D01*
X83649008Y-102943294D01*
X83638903Y-102974956D01*
X83633230Y-103004694D01*
X83630671Y-103042226D01*
X83623814Y-103079225D01*
X83621913Y-103109439D01*
X83623827Y-103142631D01*
X83621567Y-103175783D01*
X83623151Y-103206015D01*
X83629619Y-103243077D01*
X83631785Y-103280638D01*
X83637146Y-103310434D01*
X83646918Y-103342198D01*
X83649550Y-103357280D01*
X83592974Y-103376540D01*
X83567557Y-103388501D01*
X83413066Y-103483545D01*
X83390930Y-103500839D01*
X83261335Y-103627748D01*
X83243582Y-103649516D01*
X83145324Y-103801983D01*
X83132834Y-103827143D01*
X83070796Y-103997590D01*
X83064191Y-104024893D01*
X83053988Y-104105657D01*
X83050825Y-104109735D01*
X83034749Y-104136918D01*
X83017189Y-104177497D01*
X82995890Y-104216240D01*
X82984264Y-104245605D01*
X82979226Y-104265226D01*
X82971182Y-104283815D01*
X82962370Y-104314143D01*
X82955453Y-104357811D01*
X82944458Y-104400636D01*
X82940500Y-104431970D01*
X82940500Y-104452224D01*
X82937331Y-104472232D01*
X82936339Y-104503801D01*
X82940500Y-104547819D01*
X82940500Y-110647704D01*
X82917557Y-110658501D01*
X82763066Y-110753545D01*
X82740930Y-110770839D01*
X82611335Y-110897748D01*
X82593582Y-110919516D01*
X82495324Y-111071983D01*
X82482834Y-111097143D01*
X82420796Y-111267590D01*
X82414191Y-111294893D01*
X82391457Y-111474848D01*
X82391064Y-111502935D01*
X82408764Y-111683455D01*
X82414605Y-111710932D01*
X82471860Y-111883045D01*
X82483642Y-111908544D01*
X82577604Y-112063695D01*
X82594743Y-112085951D01*
X82720745Y-112216429D01*
X82742389Y-112234334D01*
X82894166Y-112333654D01*
X82919239Y-112346319D01*
X83089248Y-112409545D01*
X83116503Y-112416341D01*
X83296296Y-112440331D01*
X83324381Y-112440919D01*
X83505020Y-112424479D01*
X83532536Y-112418831D01*
X83705044Y-112362780D01*
X83730625Y-112351176D01*
X83886429Y-112258298D01*
X83908804Y-112241315D01*
X84040158Y-112116228D01*
X84058214Y-112094709D01*
X84158591Y-111943629D01*
X84171431Y-111918646D01*
X84235843Y-111749082D01*
X84242829Y-111721873D01*
X84252412Y-111653683D01*
X84265230Y-111640865D01*
X84275695Y-111628995D01*
X84278170Y-111625804D01*
X84308436Y-111593574D01*
X84327000Y-111568024D01*
X84336761Y-111550270D01*
X84349175Y-111534265D01*
X84365251Y-111507082D01*
X84382811Y-111466503D01*
X84404110Y-111427760D01*
X84415736Y-111398395D01*
X84420774Y-111378774D01*
X84428818Y-111360185D01*
X84437630Y-111329857D01*
X84444547Y-111286189D01*
X84455542Y-111243364D01*
X84459500Y-111212030D01*
X84459500Y-111191776D01*
X84462669Y-111171768D01*
X84463661Y-111140199D01*
X84459500Y-111096181D01*
X84459500Y-110801830D01*
X84505483Y-110810977D01*
X84530064Y-110813398D01*
X84589936Y-110813398D01*
X84609736Y-110811448D01*
X85060000Y-110811448D01*
X85084582Y-110809027D01*
X85143304Y-110797346D01*
X85188723Y-110778532D01*
X85210000Y-110764315D01*
X85231277Y-110778532D01*
X85276696Y-110797346D01*
X85335418Y-110809027D01*
X85360000Y-110811448D01*
X85465353Y-110811448D01*
X85546253Y-110892348D01*
X85560747Y-110909868D01*
X85610399Y-110956494D01*
X85630135Y-110976230D01*
X85642005Y-110986695D01*
X85645196Y-110989170D01*
X85677426Y-111019436D01*
X85702976Y-111038000D01*
X85720730Y-111047761D01*
X85736735Y-111060175D01*
X85763918Y-111076251D01*
X85804497Y-111093811D01*
X85843240Y-111115110D01*
X85872605Y-111126736D01*
X85892226Y-111131774D01*
X85910815Y-111139818D01*
X85941143Y-111148630D01*
X85984811Y-111155547D01*
X86027636Y-111166542D01*
X86058970Y-111170500D01*
X86079224Y-111170500D01*
X86099232Y-111173669D01*
X86130801Y-111174661D01*
X86174819Y-111170500D01*
X88027033Y-111170500D01*
X88049668Y-111172640D01*
X88117745Y-111170500D01*
X88145656Y-111170500D01*
X88161446Y-111169507D01*
X88165457Y-111169000D01*
X88209648Y-111167611D01*
X88240841Y-111162670D01*
X88260292Y-111157019D01*
X88280390Y-111154480D01*
X88310981Y-111146626D01*
X88352095Y-111130348D01*
X88394545Y-111118015D01*
X88423533Y-111105471D01*
X88440969Y-111095159D01*
X88459799Y-111087704D01*
X88487477Y-111072489D01*
X88523247Y-111046501D01*
X88561302Y-111023995D01*
X88586257Y-111004637D01*
X88600578Y-110990316D01*
X88616968Y-110978408D01*
X88639992Y-110956788D01*
X88668183Y-110922711D01*
X90117318Y-109473576D01*
X90138000Y-109507726D01*
X90138000Y-110061856D01*
X90138994Y-110077648D01*
X90154020Y-110196589D01*
X90161874Y-110227181D01*
X90220796Y-110376001D01*
X90236012Y-110403678D01*
X90330092Y-110533168D01*
X90351712Y-110556192D01*
X90475040Y-110658218D01*
X90501707Y-110675141D01*
X90562085Y-110703553D01*
X90566731Y-110710506D01*
X90601495Y-110745269D01*
X90651277Y-110778532D01*
X90696696Y-110797346D01*
X90755418Y-110809027D01*
X90780000Y-110811448D01*
X91230264Y-110811448D01*
X91250064Y-110813398D01*
X91309936Y-110813398D01*
X91334517Y-110810977D01*
X91432062Y-110791574D01*
X91455701Y-110784403D01*
X91511016Y-110761490D01*
X91532798Y-110749847D01*
X91615493Y-110694592D01*
X91634586Y-110678922D01*
X91676922Y-110636586D01*
X91692592Y-110617493D01*
X91747847Y-110534798D01*
X91759490Y-110513016D01*
X91782403Y-110457701D01*
X91789574Y-110434062D01*
X91808977Y-110336517D01*
X91811398Y-110311936D01*
X91811398Y-110252064D01*
X91809448Y-110232264D01*
X91809448Y-109831736D01*
X91811398Y-109811936D01*
X91811398Y-109752064D01*
X91808977Y-109727483D01*
X91789574Y-109629938D01*
X91782403Y-109606299D01*
X91759490Y-109550984D01*
X91747847Y-109529202D01*
X91722819Y-109491745D01*
X91753791Y-109445129D01*
X91766631Y-109420146D01*
X91809373Y-109307628D01*
X91882096Y-109317331D01*
X91910181Y-109317919D01*
X92090820Y-109301479D01*
X92118336Y-109295831D01*
X92290844Y-109239780D01*
X92316425Y-109228176D01*
X92472229Y-109135298D01*
X92494604Y-109118315D01*
X92625958Y-108993228D01*
X92644014Y-108971709D01*
X92744391Y-108820629D01*
X92757231Y-108795646D01*
X92821643Y-108626082D01*
X92828629Y-108598874D01*
X92853873Y-108419253D01*
X92855087Y-108403475D01*
X92855404Y-108380758D01*
X92854631Y-108364955D01*
X92834412Y-108184700D01*
X92828188Y-108157308D01*
X92768536Y-107986011D01*
X92756399Y-107960679D01*
X92660280Y-107806855D01*
X92642832Y-107784840D01*
X92515021Y-107656134D01*
X92493129Y-107638533D01*
X92339980Y-107541342D01*
X92314733Y-107529028D01*
X92201600Y-107488743D01*
X92201600Y-106305827D01*
X92201936Y-106305758D01*
X92374444Y-106249707D01*
X92400025Y-106238103D01*
X92555829Y-106145225D01*
X92578204Y-106128242D01*
X92709558Y-106003155D01*
X92727614Y-105981636D01*
X92827991Y-105830556D01*
X92840831Y-105805573D01*
X92905243Y-105636009D01*
X92912229Y-105608801D01*
X92937473Y-105429180D01*
X92938687Y-105413402D01*
X92939004Y-105390685D01*
X92938231Y-105374882D01*
X92918012Y-105194627D01*
X92911788Y-105167235D01*
X92852136Y-104995938D01*
X92842718Y-104976279D01*
X92905243Y-104811682D01*
X92912229Y-104784474D01*
X92937473Y-104604853D01*
X92938687Y-104589075D01*
X92939004Y-104566358D01*
X92938231Y-104550555D01*
X92918012Y-104370300D01*
X92911788Y-104342908D01*
X92852136Y-104171611D01*
X92839999Y-104146279D01*
X92743880Y-103992455D01*
X92726432Y-103970440D01*
X92598621Y-103841734D01*
X92576729Y-103824133D01*
X92423580Y-103726942D01*
X92398333Y-103714628D01*
X92274511Y-103670537D01*
X92396029Y-103598098D01*
X92418404Y-103581115D01*
X92549758Y-103456028D01*
X92567814Y-103434509D01*
X92668191Y-103283429D01*
X92681031Y-103258446D01*
X92745443Y-103088882D01*
X92752429Y-103061674D01*
X92777673Y-102882053D01*
X92778887Y-102866275D01*
X92779204Y-102843558D01*
X92778431Y-102827755D01*
X92758212Y-102647500D01*
X92751988Y-102620108D01*
X92692336Y-102448811D01*
X92680199Y-102423479D01*
X92584080Y-102269655D01*
X92566632Y-102247640D01*
X92438821Y-102118934D01*
X92416929Y-102101333D01*
X92263780Y-102004142D01*
X92238533Y-101991828D01*
X92067657Y-101930982D01*
X92040310Y-101924567D01*
X92024814Y-101922719D01*
X91857586Y-101755491D01*
X91839574Y-101664938D01*
X91832403Y-101641299D01*
X91809490Y-101585984D01*
X91797847Y-101564202D01*
X91742592Y-101481507D01*
X91726922Y-101462414D01*
X91684586Y-101420078D01*
X91665493Y-101404408D01*
X91582798Y-101349153D01*
X91561016Y-101337510D01*
X91505701Y-101314597D01*
X91482062Y-101307426D01*
X91384517Y-101288023D01*
X91359936Y-101285602D01*
X91300064Y-101285602D01*
X91280264Y-101287552D01*
X90830000Y-101287552D01*
X90805418Y-101289973D01*
X90746696Y-101301654D01*
X90701277Y-101320468D01*
X90680000Y-101334685D01*
X90658723Y-101320468D01*
X90613304Y-101301654D01*
X90554582Y-101289973D01*
X90530000Y-101287552D01*
X90360228Y-101287552D01*
X90344728Y-101279345D01*
X90316465Y-101268496D01*
X90284228Y-101260399D01*
X90253261Y-101248325D01*
X90223936Y-101240796D01*
X90186638Y-101235886D01*
X90150148Y-101226720D01*
X90120112Y-101222926D01*
X90080000Y-101222716D01*
X90076706Y-101222500D01*
X90038762Y-101222500D01*
X89948629Y-101222028D01*
X89944550Y-101222500D01*
X88830660Y-101222500D01*
X87234989Y-99626829D01*
X87234989Y-98431749D01*
X87235933Y-98341587D01*
X87233094Y-98313641D01*
X87223934Y-98271276D01*
X87219101Y-98228188D01*
X87212878Y-98200797D01*
X87201847Y-98169121D01*
X87194762Y-98136351D01*
X87185803Y-98109730D01*
X87167481Y-98070438D01*
X87153225Y-98029500D01*
X87141088Y-98004168D01*
X87123323Y-97975737D01*
X87109147Y-97945337D01*
X87094512Y-97921361D01*
X87067940Y-97887104D01*
X87044969Y-97850343D01*
X87027522Y-97828330D01*
X86998920Y-97799527D01*
X86997506Y-97797924D01*
X86971827Y-97772245D01*
X86943821Y-97744043D01*
X88194745Y-97744043D01*
X88195821Y-97761149D01*
X88233346Y-98046180D01*
X88236734Y-98062982D01*
X88312595Y-98340284D01*
X88318232Y-98356471D01*
X88431026Y-98620911D01*
X88438807Y-98636182D01*
X88586445Y-98882867D01*
X88596227Y-98896942D01*
X88775979Y-99121309D01*
X88787580Y-99133925D01*
X88996118Y-99331820D01*
X89009325Y-99342745D01*
X89242791Y-99510508D01*
X89257358Y-99519540D01*
X89511433Y-99654066D01*
X89527091Y-99661038D01*
X89797072Y-99759837D01*
X89813531Y-99764619D01*
X90094422Y-99825863D01*
X90111378Y-99828367D01*
X90336853Y-99846112D01*
X90346739Y-99846500D01*
X90502271Y-99846500D01*
X90510841Y-99846208D01*
X90725395Y-99831581D01*
X90742376Y-99829255D01*
X91023893Y-99770956D01*
X91040402Y-99766347D01*
X91311403Y-99670380D01*
X91327133Y-99663573D01*
X91582602Y-99531716D01*
X91597263Y-99522837D01*
X91832474Y-99357528D01*
X91845794Y-99346741D01*
X92056393Y-99151040D01*
X92068126Y-99138546D01*
X92250217Y-98916074D01*
X92260146Y-98902103D01*
X92410360Y-98656977D01*
X92418300Y-98641787D01*
X92533856Y-98378543D01*
X92539662Y-98362417D01*
X92618423Y-98085925D01*
X92621987Y-98069159D01*
X92662494Y-97784537D01*
X92663749Y-97767444D01*
X92665255Y-97479957D01*
X92664179Y-97462851D01*
X92626654Y-97177820D01*
X92623266Y-97161018D01*
X92547405Y-96883716D01*
X92541768Y-96867529D01*
X92428974Y-96603089D01*
X92421193Y-96587818D01*
X92273555Y-96341133D01*
X92263773Y-96327058D01*
X92084021Y-96102691D01*
X92072420Y-96090075D01*
X91863882Y-95892180D01*
X91850675Y-95881255D01*
X91617209Y-95713492D01*
X91602642Y-95704460D01*
X91348567Y-95569934D01*
X91332909Y-95562962D01*
X91062928Y-95464163D01*
X91046469Y-95459381D01*
X90765578Y-95398137D01*
X90748622Y-95395633D01*
X90523147Y-95377888D01*
X90513261Y-95377500D01*
X90357729Y-95377500D01*
X90349159Y-95377792D01*
X90134605Y-95392419D01*
X90117624Y-95394745D01*
X89836107Y-95453044D01*
X89819598Y-95457653D01*
X89548597Y-95553620D01*
X89532867Y-95560427D01*
X89277398Y-95692284D01*
X89262737Y-95701163D01*
X89027526Y-95866472D01*
X89014206Y-95877259D01*
X88803607Y-96072960D01*
X88791874Y-96085454D01*
X88609783Y-96307926D01*
X88599854Y-96321897D01*
X88449640Y-96567023D01*
X88441700Y-96582213D01*
X88326144Y-96845457D01*
X88320338Y-96861583D01*
X88241577Y-97138075D01*
X88238013Y-97154841D01*
X88197506Y-97439463D01*
X88196251Y-97456556D01*
X88194745Y-97744043D01*
X86943821Y-97744043D01*
X86910058Y-97710043D01*
X87088807Y-97662147D01*
X87109446Y-97654635D01*
X87310927Y-97560683D01*
X87329948Y-97549701D01*
X87512052Y-97422190D01*
X87528876Y-97408072D01*
X87686072Y-97250876D01*
X87700190Y-97234052D01*
X87827701Y-97051947D01*
X87838683Y-97032926D01*
X87932635Y-96831446D01*
X87940147Y-96810807D01*
X87997685Y-96596074D01*
X88001499Y-96574444D01*
X88020874Y-96352981D01*
X88020874Y-96331019D01*
X88001499Y-96109556D01*
X87997685Y-96087925D01*
X87987221Y-96048874D01*
X88571348Y-95464747D01*
X88588868Y-95450253D01*
X88635493Y-95400602D01*
X88655230Y-95380865D01*
X88665695Y-95368995D01*
X88668170Y-95365804D01*
X88698436Y-95333574D01*
X88717000Y-95308024D01*
X88726761Y-95290270D01*
X88739175Y-95274265D01*
X88755251Y-95247082D01*
X88772811Y-95206503D01*
X88794110Y-95167760D01*
X88805736Y-95138395D01*
X88810774Y-95118774D01*
X88818818Y-95100185D01*
X88827630Y-95069857D01*
X88834547Y-95026189D01*
X88845542Y-94983364D01*
X88849500Y-94952030D01*
X88849500Y-94931776D01*
X88852669Y-94911768D01*
X88853661Y-94880199D01*
X88849500Y-94836181D01*
X88849500Y-91572685D01*
X88996118Y-91711820D01*
X89009325Y-91722745D01*
X89242791Y-91890508D01*
X89257358Y-91899540D01*
X89511433Y-92034066D01*
X89527091Y-92041038D01*
X89797072Y-92139837D01*
X89813531Y-92144619D01*
X90094422Y-92205863D01*
X90111378Y-92208367D01*
X90336853Y-92226112D01*
X90346739Y-92226500D01*
X90502271Y-92226500D01*
X90510841Y-92226208D01*
X90725395Y-92211581D01*
X90742376Y-92209255D01*
X91023893Y-92150956D01*
X91040402Y-92146347D01*
X91311403Y-92050380D01*
X91327133Y-92043573D01*
X91582602Y-91911716D01*
X91597263Y-91902837D01*
X91832474Y-91737528D01*
X91845794Y-91726741D01*
X92056393Y-91531040D01*
X92068126Y-91518546D01*
X92250217Y-91296074D01*
X92260146Y-91282103D01*
X92410360Y-91036977D01*
X92418300Y-91021787D01*
X92533856Y-90758543D01*
X92539662Y-90742417D01*
X92618423Y-90465925D01*
X92621987Y-90449159D01*
X92662494Y-90164537D01*
X92663749Y-90147444D01*
X92665255Y-89859957D01*
X92664179Y-89842851D01*
X92626654Y-89557820D01*
X92623266Y-89541018D01*
X92547405Y-89263716D01*
X92541768Y-89247529D01*
X92428974Y-88983089D01*
X92421193Y-88967818D01*
X92273555Y-88721133D01*
X92263773Y-88707058D01*
X92084021Y-88482691D01*
X92072420Y-88470075D01*
X91863882Y-88272180D01*
X91850675Y-88261255D01*
X91617209Y-88093492D01*
X91602642Y-88084460D01*
X91348567Y-87949934D01*
X91332909Y-87942962D01*
X91062928Y-87844163D01*
X91046469Y-87839381D01*
X90765578Y-87778137D01*
X90748622Y-87775633D01*
X90523147Y-87757888D01*
X90513261Y-87757500D01*
X90357729Y-87757500D01*
X90349159Y-87757792D01*
X90134605Y-87772419D01*
X90117624Y-87774745D01*
X89836107Y-87833044D01*
X89819598Y-87837653D01*
X89548597Y-87933620D01*
X89532867Y-87940427D01*
X89277398Y-88072284D01*
X89262737Y-88081163D01*
X89027526Y-88246472D01*
X89014206Y-88257259D01*
X88803607Y-88452960D01*
X88791874Y-88465454D01*
X88609783Y-88687926D01*
X88599854Y-88701897D01*
X88449640Y-88947023D01*
X88441700Y-88962213D01*
X88326144Y-89225457D01*
X88320338Y-89241583D01*
X88263258Y-89441964D01*
X86318347Y-87497052D01*
X86303853Y-87479532D01*
X86254202Y-87432907D01*
X86234465Y-87413170D01*
X86222595Y-87402705D01*
X86219404Y-87400230D01*
X86187174Y-87369964D01*
X86161624Y-87351400D01*
X86143870Y-87341639D01*
X86127865Y-87329225D01*
X86100682Y-87313149D01*
X86060103Y-87295589D01*
X86021360Y-87274290D01*
X85991995Y-87262664D01*
X85972374Y-87257626D01*
X85953785Y-87249582D01*
X85923457Y-87240770D01*
X85879789Y-87233853D01*
X85836964Y-87222858D01*
X85805630Y-87218900D01*
X85785376Y-87218900D01*
X85765368Y-87215731D01*
X85733799Y-87214739D01*
X85689781Y-87218900D01*
X84554200Y-87218900D01*
X84550889Y-87215223D01*
X84531314Y-87197598D01*
X84376813Y-87085346D01*
X84354001Y-87072175D01*
X84179537Y-86994499D01*
X84154485Y-86986359D01*
X83967684Y-86946653D01*
X83941487Y-86943900D01*
X83750513Y-86943900D01*
X83724316Y-86946653D01*
X83537515Y-86986359D01*
X83512463Y-86994499D01*
X83337999Y-87072175D01*
X83315187Y-87085346D01*
X83160686Y-87197598D01*
X83141111Y-87215224D01*
X83013324Y-87357146D01*
X82997841Y-87378456D01*
X82902354Y-87543844D01*
X82891640Y-87567908D01*
X82832625Y-87749536D01*
X82827148Y-87775302D01*
X82807186Y-87965230D01*
X82807186Y-87991570D01*
X82827148Y-88181498D01*
X82832625Y-88207264D01*
X82891640Y-88388892D01*
X82902354Y-88412956D01*
X82997841Y-88578344D01*
X83013324Y-88599654D01*
X83141111Y-88741576D01*
X83160686Y-88759202D01*
X83315187Y-88871454D01*
X83337999Y-88884625D01*
X83512463Y-88962301D01*
X83537515Y-88970441D01*
X83724316Y-89010147D01*
X83750513Y-89012900D01*
X83941487Y-89012900D01*
X83967684Y-89010147D01*
X84154485Y-88970441D01*
X84179537Y-88962301D01*
X84354001Y-88884625D01*
X84376813Y-88871454D01*
X84531314Y-88759202D01*
X84550889Y-88741577D01*
X84554200Y-88737900D01*
X85411006Y-88737900D01*
X86540710Y-89867604D01*
X86387642Y-89880996D01*
X86366013Y-89884810D01*
X86151364Y-89942325D01*
X86130725Y-89949837D01*
X85929325Y-90043752D01*
X85910306Y-90054733D01*
X85847126Y-90098971D01*
X85802796Y-90154428D01*
X85795486Y-90225047D01*
X85830300Y-90291280D01*
X86801020Y-91262000D01*
X85830300Y-92232720D01*
X85796274Y-92295032D01*
X85801339Y-92365847D01*
X85847125Y-92425028D01*
X85910304Y-92469266D01*
X85929324Y-92480248D01*
X86039715Y-92531724D01*
X85929074Y-92583317D01*
X85910053Y-92594299D01*
X85727948Y-92721810D01*
X85711124Y-92735928D01*
X85579552Y-92867500D01*
X83967082Y-92867500D01*
X83017329Y-91917747D01*
X82954252Y-91853335D01*
X82932484Y-91835582D01*
X82896050Y-91812102D01*
X82862165Y-91785052D01*
X82838395Y-91770083D01*
X82808201Y-91755487D01*
X82780018Y-91737324D01*
X82754858Y-91724834D01*
X82714122Y-91710007D01*
X82675089Y-91691138D01*
X82648595Y-91681808D01*
X82615917Y-91674264D01*
X82584410Y-91662796D01*
X82557106Y-91656190D01*
X82514091Y-91650756D01*
X82471860Y-91641006D01*
X82443955Y-91637777D01*
X82403385Y-91637635D01*
X82401231Y-91637500D01*
X82364581Y-91637500D01*
X82262570Y-91637144D01*
X82261013Y-91637313D01*
X82212570Y-91637144D01*
X82209293Y-91637500D01*
X82179688Y-91637500D01*
X82195651Y-91627622D01*
X82218521Y-91609496D01*
X82343478Y-91484321D01*
X82361565Y-91461419D01*
X82454375Y-91310854D01*
X82466708Y-91284405D01*
X82470497Y-91272982D01*
X85219628Y-91272982D01*
X85238996Y-91494358D01*
X85242810Y-91515987D01*
X85300325Y-91730636D01*
X85307837Y-91751275D01*
X85401752Y-91952675D01*
X85412733Y-91971694D01*
X85456971Y-92034874D01*
X85512428Y-92079204D01*
X85583047Y-92086514D01*
X85649280Y-92051700D01*
X86349885Y-91351095D01*
X86383911Y-91288783D01*
X86378846Y-91217968D01*
X86349885Y-91172905D01*
X85649280Y-90472300D01*
X85586968Y-90438274D01*
X85516153Y-90443339D01*
X85456971Y-90489126D01*
X85412733Y-90552306D01*
X85401752Y-90571325D01*
X85307837Y-90772725D01*
X85300325Y-90793364D01*
X85242810Y-91008013D01*
X85238996Y-91029642D01*
X85219628Y-91251018D01*
X85219628Y-91272982D01*
X82470497Y-91272982D01*
X82522390Y-91116528D01*
X82528141Y-91089704D01*
X82538844Y-90985243D01*
X82539500Y-90972400D01*
X82539500Y-90171600D01*
X82538827Y-90158596D01*
X82527853Y-90052830D01*
X82522050Y-90025958D01*
X82466074Y-89858178D01*
X82453694Y-89831751D01*
X82360622Y-89681349D01*
X82342496Y-89658479D01*
X82217321Y-89533522D01*
X82194419Y-89515435D01*
X82043854Y-89422625D01*
X82017405Y-89410292D01*
X81849528Y-89354610D01*
X81822704Y-89348859D01*
X81718243Y-89338156D01*
X81705400Y-89337500D01*
X80354600Y-89337500D01*
X80341596Y-89338173D01*
X80235830Y-89349147D01*
X80208958Y-89354950D01*
X80041178Y-89410926D01*
X80014751Y-89423306D01*
X79864349Y-89516378D01*
X79841479Y-89534504D01*
X79716522Y-89659679D01*
X79698435Y-89682581D01*
X79605625Y-89833146D01*
X79593292Y-89859595D01*
X79537610Y-90027472D01*
X79531859Y-90054296D01*
X79521156Y-90158757D01*
X79520500Y-90171600D01*
X79520500Y-90972400D01*
X79521173Y-90985404D01*
X79532147Y-91091170D01*
X79537950Y-91118042D01*
X79593926Y-91285822D01*
X79606306Y-91312249D01*
X79699378Y-91462651D01*
X79717504Y-91485521D01*
X79842679Y-91610478D01*
X79865581Y-91628565D01*
X79917120Y-91660334D01*
X79909247Y-91666518D01*
X79891915Y-91683024D01*
X79753283Y-91842783D01*
X79739384Y-91862268D01*
X79633463Y-92045359D01*
X79623499Y-92067121D01*
X79554111Y-92266938D01*
X79548443Y-92290191D01*
X79518091Y-92499524D01*
X79516922Y-92523430D01*
X78384000Y-92523430D01*
X78384000Y-86573134D01*
X79025500Y-86573134D01*
X79026237Y-86586742D01*
X79032992Y-86648924D01*
X79040273Y-86679546D01*
X79091403Y-86815935D01*
X79108559Y-86847270D01*
X79195913Y-86963826D01*
X79221174Y-86989087D01*
X79337730Y-87076441D01*
X79369065Y-87093597D01*
X79505454Y-87144727D01*
X79536076Y-87152008D01*
X79598258Y-87158763D01*
X79611866Y-87159500D01*
X81408134Y-87159500D01*
X81421742Y-87158763D01*
X81483924Y-87152008D01*
X81514546Y-87144727D01*
X81650935Y-87093597D01*
X81682270Y-87076441D01*
X81798826Y-86989087D01*
X81824087Y-86963826D01*
X81911441Y-86847270D01*
X81928597Y-86815935D01*
X81979727Y-86679546D01*
X81987008Y-86648924D01*
X81993763Y-86586742D01*
X81994500Y-86573134D01*
X81994500Y-85975830D01*
X89035476Y-85975830D01*
X89040541Y-86046645D01*
X89071555Y-86093716D01*
X89074449Y-86096481D01*
X89084787Y-86105340D01*
X89373350Y-86326763D01*
X89384595Y-86334463D01*
X89695385Y-86523426D01*
X89707395Y-86529866D01*
X90036774Y-86684158D01*
X90049409Y-86689263D01*
X90393526Y-86807081D01*
X90406639Y-86810791D01*
X90761467Y-86890755D01*
X90774904Y-86893028D01*
X91136293Y-86934203D01*
X91149897Y-86935011D01*
X91513618Y-86936915D01*
X91527230Y-86936250D01*
X91889030Y-86898862D01*
X91902490Y-86896730D01*
X92258136Y-86820486D01*
X92271287Y-86816913D01*
X92616619Y-86702705D01*
X92629307Y-86697732D01*
X92960284Y-86546897D01*
X92972361Y-86540583D01*
X93285112Y-86354885D01*
X93296437Y-86347304D01*
X93587304Y-86128915D01*
X93597744Y-86120155D01*
X93626308Y-86093425D01*
X93662380Y-86032275D01*
X93659665Y-85961330D01*
X93629310Y-85912330D01*
X91439095Y-83722115D01*
X91376783Y-83688089D01*
X91305968Y-83693154D01*
X91260905Y-83722115D01*
X89069502Y-85913518D01*
X89035476Y-85975830D01*
X81994500Y-85975830D01*
X81994500Y-84776866D01*
X81993763Y-84763258D01*
X81987008Y-84701076D01*
X81979727Y-84670454D01*
X81928597Y-84534065D01*
X81911441Y-84502730D01*
X81824087Y-84386174D01*
X81798826Y-84360913D01*
X81682270Y-84273559D01*
X81650935Y-84256403D01*
X81531917Y-84211785D01*
X81636653Y-84107413D01*
X81650035Y-84091689D01*
X81780344Y-83910345D01*
X81790979Y-83892646D01*
X81889921Y-83692453D01*
X81897522Y-83673255D01*
X81962438Y-83459592D01*
X81965239Y-83446636D01*
X87861249Y-83446636D01*
X87879651Y-83809897D01*
X87881076Y-83823450D01*
X87938603Y-84182599D01*
X87941483Y-84195919D01*
X88037460Y-84546754D01*
X88041761Y-84559685D01*
X88175068Y-84898103D01*
X88180741Y-84910494D01*
X88349816Y-85232535D01*
X88356794Y-85244241D01*
X88559661Y-85546139D01*
X88567863Y-85557023D01*
X88706231Y-85721339D01*
X88765410Y-85760562D01*
X88836399Y-85761564D01*
X88891706Y-85729274D01*
X91079885Y-83541095D01*
X91113911Y-83478783D01*
X91110080Y-83425217D01*
X91586089Y-83425217D01*
X91591154Y-83496032D01*
X91620115Y-83541095D01*
X93808180Y-85729160D01*
X93870492Y-85763186D01*
X93941307Y-85758121D01*
X93992800Y-85722230D01*
X94109941Y-85586042D01*
X94118256Y-85575244D01*
X94324273Y-85275487D01*
X94331373Y-85263855D01*
X94503812Y-84943602D01*
X94509615Y-84931271D01*
X94646458Y-84594268D01*
X94650894Y-84581383D01*
X94750540Y-84231572D01*
X94753560Y-84218283D01*
X94814844Y-83859756D01*
X94816410Y-83846218D01*
X94838615Y-83483170D01*
X94838849Y-83475918D01*
X94838931Y-83452440D01*
X94838748Y-83445186D01*
X94819078Y-83081992D01*
X94817606Y-83068444D01*
X94758826Y-82709498D01*
X94755899Y-82696188D01*
X94658698Y-82345690D01*
X94654352Y-82332774D01*
X94519865Y-81994823D01*
X94514148Y-81982452D01*
X94343949Y-81661003D01*
X94336931Y-81649322D01*
X94133012Y-81348134D01*
X94124772Y-81337279D01*
X93993419Y-81182392D01*
X93934105Y-81143375D01*
X93863112Y-81142620D01*
X93808228Y-81174792D01*
X91620115Y-83362905D01*
X91586089Y-83425217D01*
X91110080Y-83425217D01*
X91108846Y-83407968D01*
X91079885Y-83362905D01*
X88891810Y-81174830D01*
X88829498Y-81140804D01*
X88758683Y-81145869D01*
X88706903Y-81182095D01*
X88582626Y-81327606D01*
X88574350Y-81338432D01*
X88369380Y-81638906D01*
X88362320Y-81650563D01*
X88191001Y-81971417D01*
X88185242Y-81983767D01*
X88049576Y-82321245D01*
X88045184Y-82334146D01*
X87946759Y-82684303D01*
X87943786Y-82697603D01*
X87883754Y-83056342D01*
X87882235Y-83069885D01*
X87861297Y-83433008D01*
X87861249Y-83446636D01*
X81965239Y-83446636D01*
X81966802Y-83439408D01*
X81971273Y-83405445D01*
X81960333Y-83335297D01*
X81913205Y-83282198D01*
X81846351Y-83263000D01*
X79175110Y-83263000D01*
X79106989Y-83283002D01*
X79060496Y-83336658D01*
X79050392Y-83406932D01*
X79052193Y-83416701D01*
X79086784Y-83570190D01*
X79092958Y-83589893D01*
X79176971Y-83796794D01*
X79186281Y-83815225D01*
X79302959Y-84005626D01*
X79315155Y-84022288D01*
X79461364Y-84191076D01*
X79476116Y-84205523D01*
X79485035Y-84212928D01*
X79369065Y-84256403D01*
X79337730Y-84273559D01*
X79221174Y-84360913D01*
X79195913Y-84386174D01*
X79108559Y-84502730D01*
X79091403Y-84534065D01*
X79040273Y-84670454D01*
X79032992Y-84701076D01*
X79026237Y-84763258D01*
X79025500Y-84776866D01*
X79025500Y-86573134D01*
X78384000Y-86573134D01*
X78384000Y-82867590D01*
X79046055Y-82867590D01*
X79058693Y-82937453D01*
X79107096Y-82989392D01*
X79171339Y-83007000D01*
X80256000Y-83007000D01*
X80324121Y-82986998D01*
X80370614Y-82933342D01*
X80382000Y-82881000D01*
X80638000Y-82881000D01*
X80658002Y-82949121D01*
X80711658Y-82995614D01*
X80764000Y-83007000D01*
X81846459Y-83007000D01*
X81914580Y-82986998D01*
X81961073Y-82933342D01*
X81971177Y-82863068D01*
X81968663Y-82850304D01*
X81922159Y-82665167D01*
X81915505Y-82645621D01*
X81826462Y-82440835D01*
X81816704Y-82422637D01*
X81695409Y-82235143D01*
X81682810Y-82218783D01*
X81532521Y-82053618D01*
X81517420Y-82039536D01*
X81342173Y-81901135D01*
X81324975Y-81889709D01*
X81129477Y-81781788D01*
X81110643Y-81773323D01*
X80900144Y-81698781D01*
X80880180Y-81693507D01*
X80786096Y-81676748D01*
X80715524Y-81684494D01*
X80660342Y-81729164D01*
X80638000Y-81800795D01*
X80638000Y-82881000D01*
X80382000Y-82881000D01*
X80382000Y-81799987D01*
X80361998Y-81731866D01*
X80308342Y-81685373D01*
X80236940Y-81675437D01*
X80175148Y-81684893D01*
X80155063Y-81689678D01*
X79942805Y-81759054D01*
X79923770Y-81767056D01*
X79725694Y-81870168D01*
X79708221Y-81881171D01*
X79529645Y-82015250D01*
X79514204Y-82028959D01*
X79359925Y-82190403D01*
X79346931Y-82206450D01*
X79221091Y-82390924D01*
X79210891Y-82408878D01*
X79116871Y-82611428D01*
X79109742Y-82630806D01*
X79050065Y-82845992D01*
X79046198Y-82866254D01*
X79046055Y-82867590D01*
X78384000Y-82867590D01*
X78384000Y-80586000D01*
X89363728Y-80586000D01*
X89103366Y-80782911D02*
X89363728Y-80586000D01*
%TA.AperFunction,Conductor*%
G36*
X89103366Y-80782911D02*
G01*
X89092956Y-80791707D01*
X89073004Y-80810509D01*
X89037146Y-80871785D01*
X89040108Y-80942719D01*
X89070323Y-80991303D01*
X91260905Y-83181885D01*
X91323217Y-83215911D01*
X91394032Y-83210846D01*
X91439095Y-83181885D01*
X93630073Y-80990907D01*
X93664099Y-80928595D01*
X93659034Y-80857780D01*
X93627713Y-80810417D01*
X93616318Y-80799603D01*
X93605937Y-80790768D01*
X93337140Y-80586000D01*
X95116000Y-80586000D01*
X95116000Y-119318000D01*
X93335466Y-119318000D01*
X93587304Y-119128915D01*
X93597744Y-119120155D01*
X93626308Y-119093425D01*
X93662380Y-119032275D01*
X93659665Y-118961330D01*
X93629310Y-118912330D01*
X91439095Y-116722115D01*
X91376783Y-116688089D01*
X91305968Y-116693154D01*
X91260905Y-116722115D01*
X89069502Y-118913518D01*
X89035476Y-118975830D01*
X89040541Y-119046645D01*
X89071555Y-119093716D01*
X89074449Y-119096481D01*
X89084787Y-119105340D01*
X89361930Y-119318000D01*
X78384000Y-119318000D01*
X78384000Y-116446636D01*
X87861249Y-116446636D01*
X87879651Y-116809897D01*
X87881076Y-116823450D01*
X87938603Y-117182599D01*
X87941483Y-117195919D01*
X88037460Y-117546754D01*
X88041761Y-117559685D01*
X88175068Y-117898103D01*
X88180741Y-117910494D01*
X88349816Y-118232535D01*
X88356794Y-118244241D01*
X88559661Y-118546139D01*
X88567863Y-118557023D01*
X88706231Y-118721339D01*
X88765410Y-118760562D01*
X88836399Y-118761564D01*
X88891706Y-118729274D01*
X91079885Y-116541095D01*
X91113911Y-116478783D01*
X91110080Y-116425217D01*
X91586089Y-116425217D01*
X91591154Y-116496032D01*
X91620115Y-116541095D01*
X93808180Y-118729160D01*
X93870492Y-118763186D01*
X93941307Y-118758121D01*
X93992800Y-118722230D01*
X94109941Y-118586042D01*
X94118256Y-118575244D01*
X94324273Y-118275487D01*
X94331373Y-118263855D01*
X94503812Y-117943602D01*
X94509615Y-117931271D01*
X94646458Y-117594268D01*
X94650894Y-117581383D01*
X94750540Y-117231572D01*
X94753560Y-117218283D01*
X94814844Y-116859756D01*
X94816410Y-116846218D01*
X94838615Y-116483170D01*
X94838849Y-116475918D01*
X94838931Y-116452440D01*
X94838748Y-116445186D01*
X94819078Y-116081992D01*
X94817606Y-116068444D01*
X94758826Y-115709498D01*
X94755899Y-115696188D01*
X94658698Y-115345690D01*
X94654352Y-115332774D01*
X94519865Y-114994823D01*
X94514148Y-114982452D01*
X94343949Y-114661003D01*
X94336931Y-114649322D01*
X94133012Y-114348134D01*
X94124772Y-114337279D01*
X93993419Y-114182392D01*
X93934105Y-114143375D01*
X93863112Y-114142620D01*
X93808228Y-114174792D01*
X91620115Y-116362905D01*
X91586089Y-116425217D01*
X91110080Y-116425217D01*
X91108846Y-116407968D01*
X91079885Y-116362905D01*
X88891810Y-114174830D01*
X88829498Y-114140804D01*
X88758683Y-114145869D01*
X88706903Y-114182095D01*
X88582626Y-114327606D01*
X88574350Y-114338432D01*
X88369380Y-114638906D01*
X88362320Y-114650563D01*
X88191001Y-114971417D01*
X88185242Y-114983767D01*
X88049576Y-115321245D01*
X88045184Y-115334146D01*
X87946759Y-115684303D01*
X87943786Y-115697603D01*
X87883754Y-116056342D01*
X87882235Y-116069885D01*
X87861297Y-116433008D01*
X87861249Y-116446636D01*
X78384000Y-116446636D01*
X78384000Y-113871785D01*
X89037146Y-113871785D01*
X89040108Y-113942719D01*
X89070323Y-113991303D01*
X91260905Y-116181885D01*
X91323217Y-116215911D01*
X91394032Y-116210846D01*
X91439095Y-116181885D01*
X93630073Y-113990907D01*
X93664099Y-113928595D01*
X93659034Y-113857780D01*
X93627713Y-113810417D01*
X93616318Y-113799603D01*
X93605937Y-113790768D01*
X93316602Y-113570354D01*
X93305331Y-113562694D01*
X92993884Y-113374817D01*
X92981852Y-113368419D01*
X92651936Y-113215277D01*
X92639282Y-113210216D01*
X92294756Y-113093601D01*
X92281630Y-113089937D01*
X91926525Y-113011212D01*
X91913080Y-113008986D01*
X91551550Y-112969073D01*
X91537944Y-112968312D01*
X91174218Y-112967677D01*
X91160609Y-112968390D01*
X90798941Y-113007041D01*
X90785488Y-113009220D01*
X90430111Y-113086705D01*
X90416973Y-113090324D01*
X90072042Y-113205736D01*
X90059371Y-113210753D01*
X89728922Y-113362742D01*
X89716867Y-113369098D01*
X89404766Y-113555887D01*
X89393468Y-113563508D01*
X89103366Y-113782911D01*
X89092956Y-113791707D01*
X89073004Y-113810509D01*
X89037146Y-113871785D01*
X78384000Y-113871785D01*
X78384000Y-108523430D01*
X79516922Y-108523430D01*
X79526702Y-108734725D01*
X79530074Y-108758420D01*
X79579632Y-108964055D01*
X79587424Y-108986685D01*
X79674973Y-109179238D01*
X79686904Y-109199987D01*
X79809284Y-109372511D01*
X79824923Y-109390629D01*
X79977719Y-109536899D01*
X79996502Y-109551733D01*
X80174200Y-109666472D01*
X80195450Y-109677486D01*
X80391639Y-109756552D01*
X80414587Y-109763350D01*
X80622187Y-109803892D01*
X80640183Y-109806078D01*
X80645745Y-109806350D01*
X80651899Y-109806500D01*
X81357846Y-109806500D01*
X81369813Y-109805930D01*
X81527533Y-109790882D01*
X81551035Y-109786357D01*
X81754003Y-109726813D01*
X81776226Y-109717924D01*
X81964272Y-109621074D01*
X81984413Y-109608144D01*
X82150753Y-109477482D01*
X82168085Y-109460976D01*
X82306717Y-109301217D01*
X82320616Y-109281732D01*
X82426537Y-109098641D01*
X82436501Y-109076879D01*
X82505889Y-108877062D01*
X82511557Y-108853809D01*
X82541909Y-108644476D01*
X82543078Y-108620570D01*
X82533298Y-108409275D01*
X82529926Y-108385580D01*
X82480368Y-108179945D01*
X82472576Y-108157315D01*
X82385027Y-107964762D01*
X82373096Y-107944013D01*
X82250716Y-107771489D01*
X82235077Y-107753371D01*
X82082281Y-107607101D01*
X82063498Y-107592267D01*
X82030742Y-107571116D01*
X82150407Y-107477118D01*
X82167739Y-107460613D01*
X82306308Y-107300927D01*
X82320207Y-107281441D01*
X82426080Y-107098432D01*
X82436044Y-107076670D01*
X82505401Y-106876943D01*
X82511070Y-106853685D01*
X82512463Y-106844075D01*
X82502440Y-106773790D01*
X82456009Y-106720081D01*
X82387766Y-106700000D01*
X79676483Y-106700000D01*
X79608362Y-106720002D01*
X79561869Y-106773658D01*
X79551765Y-106843932D01*
X79553990Y-106855521D01*
X79580107Y-106963891D01*
X79587899Y-106986521D01*
X79675408Y-107178988D01*
X79687339Y-107199737D01*
X79809664Y-107372183D01*
X79825303Y-107390301D01*
X79978030Y-107536505D01*
X79996813Y-107551339D01*
X80029230Y-107572270D01*
X79909247Y-107666518D01*
X79891915Y-107683024D01*
X79753283Y-107842783D01*
X79739384Y-107862268D01*
X79633463Y-108045359D01*
X79623499Y-108067121D01*
X79554111Y-108266938D01*
X79548443Y-108290191D01*
X79518091Y-108499524D01*
X79516922Y-108523430D01*
X78384000Y-108523430D01*
X78384000Y-104523430D01*
X79516922Y-104523430D01*
X79526702Y-104734725D01*
X79530074Y-104758420D01*
X79579632Y-104964055D01*
X79587424Y-104986685D01*
X79674973Y-105179238D01*
X79686904Y-105199987D01*
X79809284Y-105372511D01*
X79824923Y-105390629D01*
X79977719Y-105536899D01*
X79996502Y-105551733D01*
X80029258Y-105572884D01*
X79909593Y-105666882D01*
X79892261Y-105683387D01*
X79753692Y-105843073D01*
X79739793Y-105862559D01*
X79633920Y-106045568D01*
X79623956Y-106067330D01*
X79554599Y-106267057D01*
X79548930Y-106290315D01*
X79547537Y-106299925D01*
X79557560Y-106370210D01*
X79603991Y-106423919D01*
X79672234Y-106444000D01*
X82383517Y-106444000D01*
X82451638Y-106423998D01*
X82498131Y-106370342D01*
X82508235Y-106300068D01*
X82506010Y-106288479D01*
X82479893Y-106180109D01*
X82472101Y-106157479D01*
X82384592Y-105965012D01*
X82372661Y-105944263D01*
X82250336Y-105771817D01*
X82234697Y-105753699D01*
X82081970Y-105607495D01*
X82063187Y-105592661D01*
X82030770Y-105571730D01*
X82150753Y-105477482D01*
X82168085Y-105460976D01*
X82306717Y-105301217D01*
X82320616Y-105281732D01*
X82426537Y-105098641D01*
X82436501Y-105076879D01*
X82505889Y-104877062D01*
X82511557Y-104853809D01*
X82541909Y-104644476D01*
X82543078Y-104620570D01*
X82533298Y-104409275D01*
X82529926Y-104385580D01*
X82480368Y-104179945D01*
X82472576Y-104157315D01*
X82385027Y-103964762D01*
X82373096Y-103944013D01*
X82250716Y-103771489D01*
X82235077Y-103753371D01*
X82082281Y-103607101D01*
X82063498Y-103592267D01*
X82030742Y-103571116D01*
X82150407Y-103477118D01*
X82167739Y-103460613D01*
X82306308Y-103300927D01*
X82320207Y-103281441D01*
X82426080Y-103098432D01*
X82436044Y-103076670D01*
X82505401Y-102876943D01*
X82511070Y-102853685D01*
X82512463Y-102844075D01*
X82502440Y-102773790D01*
X82456009Y-102720081D01*
X82387766Y-102700000D01*
X79676483Y-102700000D01*
X79608362Y-102720002D01*
X79561869Y-102773658D01*
X79551765Y-102843932D01*
X79553990Y-102855521D01*
X79580107Y-102963891D01*
X79587899Y-102986521D01*
X79675408Y-103178988D01*
X79687339Y-103199737D01*
X79809664Y-103372183D01*
X79825303Y-103390301D01*
X79978030Y-103536505D01*
X79996813Y-103551339D01*
X80029230Y-103572270D01*
X79909247Y-103666518D01*
X79891915Y-103683024D01*
X79753283Y-103842783D01*
X79739384Y-103862268D01*
X79633463Y-104045359D01*
X79623499Y-104067121D01*
X79554111Y-104266938D01*
X79548443Y-104290191D01*
X79518091Y-104499524D01*
X79516922Y-104523430D01*
X78384000Y-104523430D01*
X78384000Y-100523430D01*
X79516922Y-100523430D01*
X79526702Y-100734725D01*
X79530074Y-100758420D01*
X79579632Y-100964055D01*
X79587424Y-100986685D01*
X79674973Y-101179238D01*
X79686904Y-101199987D01*
X79809284Y-101372511D01*
X79824923Y-101390629D01*
X79977719Y-101536899D01*
X79996502Y-101551733D01*
X80029258Y-101572884D01*
X79909593Y-101666882D01*
X79892261Y-101683387D01*
X79753692Y-101843073D01*
X79739793Y-101862559D01*
X79633920Y-102045568D01*
X79623956Y-102067330D01*
X79554599Y-102267057D01*
X79548930Y-102290315D01*
X79547537Y-102299925D01*
X79557560Y-102370210D01*
X79603991Y-102423919D01*
X79672234Y-102444000D01*
X82383517Y-102444000D01*
X82451638Y-102423998D01*
X82498131Y-102370342D01*
X82508235Y-102300068D01*
X82506010Y-102288479D01*
X82479893Y-102180109D01*
X82472101Y-102157479D01*
X82384592Y-101965012D01*
X82372661Y-101944263D01*
X82250336Y-101771817D01*
X82234697Y-101753699D01*
X82081970Y-101607495D01*
X82063187Y-101592661D01*
X82030770Y-101571730D01*
X82150753Y-101477482D01*
X82168085Y-101460976D01*
X82306717Y-101301217D01*
X82320616Y-101281732D01*
X82426537Y-101098641D01*
X82436501Y-101076879D01*
X82505889Y-100877062D01*
X82511557Y-100853809D01*
X82541909Y-100644476D01*
X82543078Y-100620570D01*
X82533298Y-100409275D01*
X82529926Y-100385580D01*
X82480368Y-100179945D01*
X82472576Y-100157315D01*
X82385027Y-99964762D01*
X82373096Y-99944013D01*
X82250716Y-99771489D01*
X82235077Y-99753371D01*
X82082281Y-99607101D01*
X82063498Y-99592267D01*
X82030742Y-99571116D01*
X82150407Y-99477118D01*
X82167739Y-99460613D01*
X82306308Y-99300927D01*
X82320207Y-99281441D01*
X82426080Y-99098432D01*
X82436044Y-99076670D01*
X82505401Y-98876943D01*
X82511070Y-98853685D01*
X82512463Y-98844075D01*
X82502440Y-98773790D01*
X82456009Y-98720081D01*
X82387766Y-98700000D01*
X79676483Y-98700000D01*
X79608362Y-98720002D01*
X79561869Y-98773658D01*
X79551765Y-98843932D01*
X79553990Y-98855521D01*
X79580107Y-98963891D01*
X79587899Y-98986521D01*
X79675408Y-99178988D01*
X79687339Y-99199737D01*
X79809664Y-99372183D01*
X79825303Y-99390301D01*
X79978030Y-99536505D01*
X79996813Y-99551339D01*
X80029230Y-99572270D01*
X79909247Y-99666518D01*
X79891915Y-99683024D01*
X79753283Y-99842783D01*
X79739384Y-99862268D01*
X79633463Y-100045359D01*
X79623499Y-100067121D01*
X79554111Y-100266938D01*
X79548443Y-100290191D01*
X79518091Y-100499524D01*
X79516922Y-100523430D01*
X78384000Y-100523430D01*
X78384000Y-96523430D01*
X79516922Y-96523430D01*
X79526702Y-96734725D01*
X79530074Y-96758420D01*
X79579632Y-96964055D01*
X79587424Y-96986685D01*
X79674973Y-97179238D01*
X79686904Y-97199987D01*
X79809284Y-97372511D01*
X79824923Y-97390629D01*
X79977719Y-97536899D01*
X79996502Y-97551733D01*
X80029258Y-97572884D01*
X79909593Y-97666882D01*
X79892261Y-97683387D01*
X79753692Y-97843073D01*
X79739793Y-97862559D01*
X79633920Y-98045568D01*
X79623956Y-98067330D01*
X79554599Y-98267057D01*
X79548930Y-98290315D01*
X79547537Y-98299925D01*
X79557560Y-98370210D01*
X79603991Y-98423919D01*
X79672234Y-98444000D01*
X82383517Y-98444000D01*
X82451638Y-98423998D01*
X82498131Y-98370342D01*
X82508235Y-98300068D01*
X82506010Y-98288479D01*
X82479893Y-98180109D01*
X82472101Y-98157479D01*
X82384592Y-97965012D01*
X82372661Y-97944263D01*
X82250336Y-97771817D01*
X82234697Y-97753699D01*
X82081970Y-97607495D01*
X82063187Y-97592661D01*
X82030770Y-97571730D01*
X82150753Y-97477482D01*
X82168085Y-97460976D01*
X82306717Y-97301217D01*
X82320616Y-97281732D01*
X82426537Y-97098641D01*
X82436501Y-97076879D01*
X82505889Y-96877062D01*
X82511557Y-96853809D01*
X82541909Y-96644476D01*
X82543078Y-96620570D01*
X82533298Y-96409275D01*
X82529926Y-96385580D01*
X82480368Y-96179945D01*
X82472576Y-96157315D01*
X82385027Y-95964762D01*
X82373096Y-95944013D01*
X82250716Y-95771489D01*
X82235077Y-95753371D01*
X82082281Y-95607101D01*
X82063498Y-95592267D01*
X82030742Y-95571116D01*
X82150407Y-95477118D01*
X82167739Y-95460613D01*
X82306308Y-95300927D01*
X82320207Y-95281441D01*
X82426080Y-95098432D01*
X82436044Y-95076670D01*
X82505401Y-94876943D01*
X82511070Y-94853685D01*
X82512463Y-94844075D01*
X82502440Y-94773790D01*
X82456009Y-94720081D01*
X82387766Y-94700000D01*
X79676483Y-94700000D01*
X79608362Y-94720002D01*
X79561869Y-94773658D01*
X79551765Y-94843932D01*
X79553990Y-94855521D01*
X79580107Y-94963891D01*
X79587899Y-94986521D01*
X79675408Y-95178988D01*
X79687339Y-95199737D01*
X79809664Y-95372183D01*
X79825303Y-95390301D01*
X79978030Y-95536505D01*
X79996813Y-95551339D01*
X80029230Y-95572270D01*
X79909247Y-95666518D01*
X79891915Y-95683024D01*
X79753283Y-95842783D01*
X79739384Y-95862268D01*
X79633463Y-96045359D01*
X79623499Y-96067121D01*
X79554111Y-96266938D01*
X79548443Y-96290191D01*
X79518091Y-96499524D01*
X79516922Y-96523430D01*
X78384000Y-96523430D01*
X78384000Y-92523430D01*
X79516922Y-92523430D01*
X79526702Y-92734725D01*
X79530074Y-92758420D01*
X79579632Y-92964055D01*
X79587424Y-92986685D01*
X79674973Y-93179238D01*
X79686904Y-93199987D01*
X79809284Y-93372511D01*
X79824923Y-93390629D01*
X79977719Y-93536899D01*
X79996502Y-93551733D01*
X80029258Y-93572884D01*
X79909593Y-93666882D01*
X79892261Y-93683387D01*
X79753692Y-93843073D01*
X79739793Y-93862559D01*
X79633920Y-94045568D01*
X79623956Y-94067330D01*
X79554599Y-94267057D01*
X79548930Y-94290315D01*
X79547537Y-94299925D01*
X79557560Y-94370210D01*
X79603991Y-94423919D01*
X79672234Y-94444000D01*
X82383517Y-94444000D01*
X82451638Y-94423998D01*
X82498131Y-94370342D01*
X82508235Y-94300068D01*
X82506010Y-94288479D01*
X82479893Y-94180109D01*
X82472101Y-94157479D01*
X82395566Y-93989149D01*
X82862624Y-94456206D01*
X82925747Y-94520665D01*
X82947516Y-94538419D01*
X82983959Y-94561905D01*
X83017834Y-94588947D01*
X83041605Y-94603917D01*
X83071803Y-94618515D01*
X83080609Y-94624190D01*
X83595500Y-95139081D01*
X83595500Y-96637786D01*
X83594556Y-96727901D01*
X83597395Y-96755848D01*
X83606555Y-96798213D01*
X83611388Y-96841301D01*
X83617611Y-96868692D01*
X83628642Y-96900368D01*
X83635727Y-96933138D01*
X83644686Y-96959759D01*
X83663006Y-96999046D01*
X83677264Y-97039990D01*
X83689400Y-97065321D01*
X83707172Y-97093763D01*
X83721343Y-97124152D01*
X83735979Y-97148129D01*
X83762547Y-97182380D01*
X83785519Y-97219144D01*
X83802967Y-97241159D01*
X83831569Y-97269962D01*
X83832983Y-97271565D01*
X83858662Y-97297244D01*
X83930779Y-97369866D01*
X83933356Y-97371938D01*
X85360084Y-98798666D01*
X85365989Y-98806279D01*
X85365989Y-99027500D01*
X85354616Y-99027500D01*
X85296922Y-99023567D01*
X85266689Y-99025151D01*
X85203742Y-99036137D01*
X85140325Y-99043811D01*
X85110924Y-99051032D01*
X85104515Y-99053454D01*
X85097758Y-99054633D01*
X85068774Y-99063384D01*
X85010263Y-99089069D01*
X84950511Y-99111647D01*
X84923684Y-99125671D01*
X84918034Y-99129554D01*
X84911749Y-99132313D01*
X84885694Y-99147723D01*
X84835007Y-99186618D01*
X84782357Y-99222802D01*
X84759647Y-99242824D01*
X84718193Y-99289351D01*
X83990385Y-100017159D01*
X83946785Y-100055194D01*
X83926528Y-100077692D01*
X83889785Y-100129972D01*
X83850370Y-100180240D01*
X83834686Y-100206137D01*
X83831866Y-100212383D01*
X83827925Y-100217990D01*
X83813617Y-100244673D01*
X83790405Y-100304210D01*
X83764119Y-100362425D01*
X83755065Y-100391312D01*
X83753815Y-100398057D01*
X83751324Y-100404446D01*
X83743796Y-100433767D01*
X83735457Y-100497110D01*
X83723814Y-100559928D01*
X83721913Y-100590144D01*
X83725500Y-100652350D01*
X83725500Y-100793088D01*
X83721567Y-100850782D01*
X83723151Y-100881015D01*
X83734137Y-100943962D01*
X83741811Y-101007379D01*
X83749032Y-101036780D01*
X83751454Y-101043189D01*
X83752633Y-101049946D01*
X83761384Y-101078930D01*
X83787069Y-101137441D01*
X83809647Y-101197193D01*
X83823671Y-101224020D01*
X83827554Y-101229670D01*
X83830313Y-101235955D01*
X83845723Y-101262010D01*
X83884618Y-101312697D01*
X83920802Y-101365347D01*
X83940824Y-101388058D01*
X83987360Y-101429520D01*
X84035500Y-101477660D01*
X84035500Y-102391340D01*
X83876352Y-102550488D01*
X83812047Y-102614123D01*
X83793243Y-102637849D01*
X83773583Y-102669931D01*
X83750370Y-102699536D01*
X83734687Y-102725432D01*
X83721012Y-102755718D01*
X83703643Y-102784062D01*
X83691040Y-102811589D01*
X83679602Y-102847430D01*
X83664118Y-102881722D01*
X83655065Y-102910612D01*
X83649008Y-102943294D01*
X83638903Y-102974956D01*
X83633230Y-103004694D01*
X83630671Y-103042226D01*
X83623814Y-103079225D01*
X83621913Y-103109439D01*
X83623827Y-103142631D01*
X83621567Y-103175783D01*
X83623151Y-103206015D01*
X83629619Y-103243077D01*
X83631785Y-103280638D01*
X83637146Y-103310434D01*
X83646918Y-103342198D01*
X83649550Y-103357280D01*
X83592974Y-103376540D01*
X83567557Y-103388501D01*
X83413066Y-103483545D01*
X83390930Y-103500839D01*
X83261335Y-103627748D01*
X83243582Y-103649516D01*
X83145324Y-103801983D01*
X83132834Y-103827143D01*
X83070796Y-103997590D01*
X83064191Y-104024893D01*
X83053988Y-104105657D01*
X83050825Y-104109735D01*
X83034749Y-104136918D01*
X83017189Y-104177497D01*
X82995890Y-104216240D01*
X82984264Y-104245605D01*
X82979226Y-104265226D01*
X82971182Y-104283815D01*
X82962370Y-104314143D01*
X82955453Y-104357811D01*
X82944458Y-104400636D01*
X82940500Y-104431970D01*
X82940500Y-104452224D01*
X82937331Y-104472232D01*
X82936339Y-104503801D01*
X82940500Y-104547819D01*
X82940500Y-110647704D01*
X82917557Y-110658501D01*
X82763066Y-110753545D01*
X82740930Y-110770839D01*
X82611335Y-110897748D01*
X82593582Y-110919516D01*
X82495324Y-111071983D01*
X82482834Y-111097143D01*
X82420796Y-111267590D01*
X82414191Y-111294893D01*
X82391457Y-111474848D01*
X82391064Y-111502935D01*
X82408764Y-111683455D01*
X82414605Y-111710932D01*
X82471860Y-111883045D01*
X82483642Y-111908544D01*
X82577604Y-112063695D01*
X82594743Y-112085951D01*
X82720745Y-112216429D01*
X82742389Y-112234334D01*
X82894166Y-112333654D01*
X82919239Y-112346319D01*
X83089248Y-112409545D01*
X83116503Y-112416341D01*
X83296296Y-112440331D01*
X83324381Y-112440919D01*
X83505020Y-112424479D01*
X83532536Y-112418831D01*
X83705044Y-112362780D01*
X83730625Y-112351176D01*
X83886429Y-112258298D01*
X83908804Y-112241315D01*
X84040158Y-112116228D01*
X84058214Y-112094709D01*
X84158591Y-111943629D01*
X84171431Y-111918646D01*
X84235843Y-111749082D01*
X84242829Y-111721873D01*
X84252412Y-111653683D01*
X84265230Y-111640865D01*
X84275695Y-111628995D01*
X84278170Y-111625804D01*
X84308436Y-111593574D01*
X84327000Y-111568024D01*
X84336761Y-111550270D01*
X84349175Y-111534265D01*
X84365251Y-111507082D01*
X84382811Y-111466503D01*
X84404110Y-111427760D01*
X84415736Y-111398395D01*
X84420774Y-111378774D01*
X84428818Y-111360185D01*
X84437630Y-111329857D01*
X84444547Y-111286189D01*
X84455542Y-111243364D01*
X84459500Y-111212030D01*
X84459500Y-111191776D01*
X84462669Y-111171768D01*
X84463661Y-111140199D01*
X84459500Y-111096181D01*
X84459500Y-110801830D01*
X84505483Y-110810977D01*
X84530064Y-110813398D01*
X84589936Y-110813398D01*
X84609736Y-110811448D01*
X85060000Y-110811448D01*
X85084582Y-110809027D01*
X85143304Y-110797346D01*
X85188723Y-110778532D01*
X85210000Y-110764315D01*
X85231277Y-110778532D01*
X85276696Y-110797346D01*
X85335418Y-110809027D01*
X85360000Y-110811448D01*
X85465353Y-110811448D01*
X85546253Y-110892348D01*
X85560747Y-110909868D01*
X85610399Y-110956494D01*
X85630135Y-110976230D01*
X85642005Y-110986695D01*
X85645196Y-110989170D01*
X85677426Y-111019436D01*
X85702976Y-111038000D01*
X85720730Y-111047761D01*
X85736735Y-111060175D01*
X85763918Y-111076251D01*
X85804497Y-111093811D01*
X85843240Y-111115110D01*
X85872605Y-111126736D01*
X85892226Y-111131774D01*
X85910815Y-111139818D01*
X85941143Y-111148630D01*
X85984811Y-111155547D01*
X86027636Y-111166542D01*
X86058970Y-111170500D01*
X86079224Y-111170500D01*
X86099232Y-111173669D01*
X86130801Y-111174661D01*
X86174819Y-111170500D01*
X88027033Y-111170500D01*
X88049668Y-111172640D01*
X88117745Y-111170500D01*
X88145656Y-111170500D01*
X88161446Y-111169507D01*
X88165457Y-111169000D01*
X88209648Y-111167611D01*
X88240841Y-111162670D01*
X88260292Y-111157019D01*
X88280390Y-111154480D01*
X88310981Y-111146626D01*
X88352095Y-111130348D01*
X88394545Y-111118015D01*
X88423533Y-111105471D01*
X88440969Y-111095159D01*
X88459799Y-111087704D01*
X88487477Y-111072489D01*
X88523247Y-111046501D01*
X88561302Y-111023995D01*
X88586257Y-111004637D01*
X88600578Y-110990316D01*
X88616968Y-110978408D01*
X88639992Y-110956788D01*
X88668183Y-110922711D01*
X90117318Y-109473576D01*
X90138000Y-109507726D01*
X90138000Y-110061856D01*
X90138994Y-110077648D01*
X90154020Y-110196589D01*
X90161874Y-110227181D01*
X90220796Y-110376001D01*
X90236012Y-110403678D01*
X90330092Y-110533168D01*
X90351712Y-110556192D01*
X90475040Y-110658218D01*
X90501707Y-110675141D01*
X90562085Y-110703553D01*
X90566731Y-110710506D01*
X90601495Y-110745269D01*
X90651277Y-110778532D01*
X90696696Y-110797346D01*
X90755418Y-110809027D01*
X90780000Y-110811448D01*
X91230264Y-110811448D01*
X91250064Y-110813398D01*
X91309936Y-110813398D01*
X91334517Y-110810977D01*
X91432062Y-110791574D01*
X91455701Y-110784403D01*
X91511016Y-110761490D01*
X91532798Y-110749847D01*
X91615493Y-110694592D01*
X91634586Y-110678922D01*
X91676922Y-110636586D01*
X91692592Y-110617493D01*
X91747847Y-110534798D01*
X91759490Y-110513016D01*
X91782403Y-110457701D01*
X91789574Y-110434062D01*
X91808977Y-110336517D01*
X91811398Y-110311936D01*
X91811398Y-110252064D01*
X91809448Y-110232264D01*
X91809448Y-109831736D01*
X91811398Y-109811936D01*
X91811398Y-109752064D01*
X91808977Y-109727483D01*
X91789574Y-109629938D01*
X91782403Y-109606299D01*
X91759490Y-109550984D01*
X91747847Y-109529202D01*
X91722819Y-109491745D01*
X91753791Y-109445129D01*
X91766631Y-109420146D01*
X91809373Y-109307628D01*
X91882096Y-109317331D01*
X91910181Y-109317919D01*
X92090820Y-109301479D01*
X92118336Y-109295831D01*
X92290844Y-109239780D01*
X92316425Y-109228176D01*
X92472229Y-109135298D01*
X92494604Y-109118315D01*
X92625958Y-108993228D01*
X92644014Y-108971709D01*
X92744391Y-108820629D01*
X92757231Y-108795646D01*
X92821643Y-108626082D01*
X92828629Y-108598874D01*
X92853873Y-108419253D01*
X92855087Y-108403475D01*
X92855404Y-108380758D01*
X92854631Y-108364955D01*
X92834412Y-108184700D01*
X92828188Y-108157308D01*
X92768536Y-107986011D01*
X92756399Y-107960679D01*
X92660280Y-107806855D01*
X92642832Y-107784840D01*
X92515021Y-107656134D01*
X92493129Y-107638533D01*
X92339980Y-107541342D01*
X92314733Y-107529028D01*
X92201600Y-107488743D01*
X92201600Y-106305827D01*
X92201936Y-106305758D01*
X92374444Y-106249707D01*
X92400025Y-106238103D01*
X92555829Y-106145225D01*
X92578204Y-106128242D01*
X92709558Y-106003155D01*
X92727614Y-105981636D01*
X92827991Y-105830556D01*
X92840831Y-105805573D01*
X92905243Y-105636009D01*
X92912229Y-105608801D01*
X92937473Y-105429180D01*
X92938687Y-105413402D01*
X92939004Y-105390685D01*
X92938231Y-105374882D01*
X92918012Y-105194627D01*
X92911788Y-105167235D01*
X92852136Y-104995938D01*
X92842718Y-104976279D01*
X92905243Y-104811682D01*
X92912229Y-104784474D01*
X92937473Y-104604853D01*
X92938687Y-104589075D01*
X92939004Y-104566358D01*
X92938231Y-104550555D01*
X92918012Y-104370300D01*
X92911788Y-104342908D01*
X92852136Y-104171611D01*
X92839999Y-104146279D01*
X92743880Y-103992455D01*
X92726432Y-103970440D01*
X92598621Y-103841734D01*
X92576729Y-103824133D01*
X92423580Y-103726942D01*
X92398333Y-103714628D01*
X92274511Y-103670537D01*
X92396029Y-103598098D01*
X92418404Y-103581115D01*
X92549758Y-103456028D01*
X92567814Y-103434509D01*
X92668191Y-103283429D01*
X92681031Y-103258446D01*
X92745443Y-103088882D01*
X92752429Y-103061674D01*
X92777673Y-102882053D01*
X92778887Y-102866275D01*
X92779204Y-102843558D01*
X92778431Y-102827755D01*
X92758212Y-102647500D01*
X92751988Y-102620108D01*
X92692336Y-102448811D01*
X92680199Y-102423479D01*
X92584080Y-102269655D01*
X92566632Y-102247640D01*
X92438821Y-102118934D01*
X92416929Y-102101333D01*
X92263780Y-102004142D01*
X92238533Y-101991828D01*
X92067657Y-101930982D01*
X92040310Y-101924567D01*
X92024814Y-101922719D01*
X91857586Y-101755491D01*
X91839574Y-101664938D01*
X91832403Y-101641299D01*
X91809490Y-101585984D01*
X91797847Y-101564202D01*
X91742592Y-101481507D01*
X91726922Y-101462414D01*
X91684586Y-101420078D01*
X91665493Y-101404408D01*
X91582798Y-101349153D01*
X91561016Y-101337510D01*
X91505701Y-101314597D01*
X91482062Y-101307426D01*
X91384517Y-101288023D01*
X91359936Y-101285602D01*
X91300064Y-101285602D01*
X91280264Y-101287552D01*
X90830000Y-101287552D01*
X90805418Y-101289973D01*
X90746696Y-101301654D01*
X90701277Y-101320468D01*
X90680000Y-101334685D01*
X90658723Y-101320468D01*
X90613304Y-101301654D01*
X90554582Y-101289973D01*
X90530000Y-101287552D01*
X90360228Y-101287552D01*
X90344728Y-101279345D01*
X90316465Y-101268496D01*
X90284228Y-101260399D01*
X90253261Y-101248325D01*
X90223936Y-101240796D01*
X90186638Y-101235886D01*
X90150148Y-101226720D01*
X90120112Y-101222926D01*
X90080000Y-101222716D01*
X90076706Y-101222500D01*
X90038762Y-101222500D01*
X89948629Y-101222028D01*
X89944550Y-101222500D01*
X88830660Y-101222500D01*
X87234989Y-99626829D01*
X87234989Y-98431749D01*
X87235933Y-98341587D01*
X87233094Y-98313641D01*
X87223934Y-98271276D01*
X87219101Y-98228188D01*
X87212878Y-98200797D01*
X87201847Y-98169121D01*
X87194762Y-98136351D01*
X87185803Y-98109730D01*
X87167481Y-98070438D01*
X87153225Y-98029500D01*
X87141088Y-98004168D01*
X87123323Y-97975737D01*
X87109147Y-97945337D01*
X87094512Y-97921361D01*
X87067940Y-97887104D01*
X87044969Y-97850343D01*
X87027522Y-97828330D01*
X86998920Y-97799527D01*
X86997506Y-97797924D01*
X86971827Y-97772245D01*
X86943821Y-97744043D01*
X88194745Y-97744043D01*
X88195821Y-97761149D01*
X88233346Y-98046180D01*
X88236734Y-98062982D01*
X88312595Y-98340284D01*
X88318232Y-98356471D01*
X88431026Y-98620911D01*
X88438807Y-98636182D01*
X88586445Y-98882867D01*
X88596227Y-98896942D01*
X88775979Y-99121309D01*
X88787580Y-99133925D01*
X88996118Y-99331820D01*
X89009325Y-99342745D01*
X89242791Y-99510508D01*
X89257358Y-99519540D01*
X89511433Y-99654066D01*
X89527091Y-99661038D01*
X89797072Y-99759837D01*
X89813531Y-99764619D01*
X90094422Y-99825863D01*
X90111378Y-99828367D01*
X90336853Y-99846112D01*
X90346739Y-99846500D01*
X90502271Y-99846500D01*
X90510841Y-99846208D01*
X90725395Y-99831581D01*
X90742376Y-99829255D01*
X91023893Y-99770956D01*
X91040402Y-99766347D01*
X91311403Y-99670380D01*
X91327133Y-99663573D01*
X91582602Y-99531716D01*
X91597263Y-99522837D01*
X91832474Y-99357528D01*
X91845794Y-99346741D01*
X92056393Y-99151040D01*
X92068126Y-99138546D01*
X92250217Y-98916074D01*
X92260146Y-98902103D01*
X92410360Y-98656977D01*
X92418300Y-98641787D01*
X92533856Y-98378543D01*
X92539662Y-98362417D01*
X92618423Y-98085925D01*
X92621987Y-98069159D01*
X92662494Y-97784537D01*
X92663749Y-97767444D01*
X92665255Y-97479957D01*
X92664179Y-97462851D01*
X92626654Y-97177820D01*
X92623266Y-97161018D01*
X92547405Y-96883716D01*
X92541768Y-96867529D01*
X92428974Y-96603089D01*
X92421193Y-96587818D01*
X92273555Y-96341133D01*
X92263773Y-96327058D01*
X92084021Y-96102691D01*
X92072420Y-96090075D01*
X91863882Y-95892180D01*
X91850675Y-95881255D01*
X91617209Y-95713492D01*
X91602642Y-95704460D01*
X91348567Y-95569934D01*
X91332909Y-95562962D01*
X91062928Y-95464163D01*
X91046469Y-95459381D01*
X90765578Y-95398137D01*
X90748622Y-95395633D01*
X90523147Y-95377888D01*
X90513261Y-95377500D01*
X90357729Y-95377500D01*
X90349159Y-95377792D01*
X90134605Y-95392419D01*
X90117624Y-95394745D01*
X89836107Y-95453044D01*
X89819598Y-95457653D01*
X89548597Y-95553620D01*
X89532867Y-95560427D01*
X89277398Y-95692284D01*
X89262737Y-95701163D01*
X89027526Y-95866472D01*
X89014206Y-95877259D01*
X88803607Y-96072960D01*
X88791874Y-96085454D01*
X88609783Y-96307926D01*
X88599854Y-96321897D01*
X88449640Y-96567023D01*
X88441700Y-96582213D01*
X88326144Y-96845457D01*
X88320338Y-96861583D01*
X88241577Y-97138075D01*
X88238013Y-97154841D01*
X88197506Y-97439463D01*
X88196251Y-97456556D01*
X88194745Y-97744043D01*
X86943821Y-97744043D01*
X86910058Y-97710043D01*
X87088807Y-97662147D01*
X87109446Y-97654635D01*
X87310927Y-97560683D01*
X87329948Y-97549701D01*
X87512052Y-97422190D01*
X87528876Y-97408072D01*
X87686072Y-97250876D01*
X87700190Y-97234052D01*
X87827701Y-97051947D01*
X87838683Y-97032926D01*
X87932635Y-96831446D01*
X87940147Y-96810807D01*
X87997685Y-96596074D01*
X88001499Y-96574444D01*
X88020874Y-96352981D01*
X88020874Y-96331019D01*
X88001499Y-96109556D01*
X87997685Y-96087925D01*
X87987221Y-96048874D01*
X88571348Y-95464747D01*
X88588868Y-95450253D01*
X88635493Y-95400602D01*
X88655230Y-95380865D01*
X88665695Y-95368995D01*
X88668170Y-95365804D01*
X88698436Y-95333574D01*
X88717000Y-95308024D01*
X88726761Y-95290270D01*
X88739175Y-95274265D01*
X88755251Y-95247082D01*
X88772811Y-95206503D01*
X88794110Y-95167760D01*
X88805736Y-95138395D01*
X88810774Y-95118774D01*
X88818818Y-95100185D01*
X88827630Y-95069857D01*
X88834547Y-95026189D01*
X88845542Y-94983364D01*
X88849500Y-94952030D01*
X88849500Y-94931776D01*
X88852669Y-94911768D01*
X88853661Y-94880199D01*
X88849500Y-94836181D01*
X88849500Y-91572685D01*
X88996118Y-91711820D01*
X89009325Y-91722745D01*
X89242791Y-91890508D01*
X89257358Y-91899540D01*
X89511433Y-92034066D01*
X89527091Y-92041038D01*
X89797072Y-92139837D01*
X89813531Y-92144619D01*
X90094422Y-92205863D01*
X90111378Y-92208367D01*
X90336853Y-92226112D01*
X90346739Y-92226500D01*
X90502271Y-92226500D01*
X90510841Y-92226208D01*
X90725395Y-92211581D01*
X90742376Y-92209255D01*
X91023893Y-92150956D01*
X91040402Y-92146347D01*
X91311403Y-92050380D01*
X91327133Y-92043573D01*
X91582602Y-91911716D01*
X91597263Y-91902837D01*
X91832474Y-91737528D01*
X91845794Y-91726741D01*
X92056393Y-91531040D01*
X92068126Y-91518546D01*
X92250217Y-91296074D01*
X92260146Y-91282103D01*
X92410360Y-91036977D01*
X92418300Y-91021787D01*
X92533856Y-90758543D01*
X92539662Y-90742417D01*
X92618423Y-90465925D01*
X92621987Y-90449159D01*
X92662494Y-90164537D01*
X92663749Y-90147444D01*
X92665255Y-89859957D01*
X92664179Y-89842851D01*
X92626654Y-89557820D01*
X92623266Y-89541018D01*
X92547405Y-89263716D01*
X92541768Y-89247529D01*
X92428974Y-88983089D01*
X92421193Y-88967818D01*
X92273555Y-88721133D01*
X92263773Y-88707058D01*
X92084021Y-88482691D01*
X92072420Y-88470075D01*
X91863882Y-88272180D01*
X91850675Y-88261255D01*
X91617209Y-88093492D01*
X91602642Y-88084460D01*
X91348567Y-87949934D01*
X91332909Y-87942962D01*
X91062928Y-87844163D01*
X91046469Y-87839381D01*
X90765578Y-87778137D01*
X90748622Y-87775633D01*
X90523147Y-87757888D01*
X90513261Y-87757500D01*
X90357729Y-87757500D01*
X90349159Y-87757792D01*
X90134605Y-87772419D01*
X90117624Y-87774745D01*
X89836107Y-87833044D01*
X89819598Y-87837653D01*
X89548597Y-87933620D01*
X89532867Y-87940427D01*
X89277398Y-88072284D01*
X89262737Y-88081163D01*
X89027526Y-88246472D01*
X89014206Y-88257259D01*
X88803607Y-88452960D01*
X88791874Y-88465454D01*
X88609783Y-88687926D01*
X88599854Y-88701897D01*
X88449640Y-88947023D01*
X88441700Y-88962213D01*
X88326144Y-89225457D01*
X88320338Y-89241583D01*
X88263258Y-89441964D01*
X86318347Y-87497052D01*
X86303853Y-87479532D01*
X86254202Y-87432907D01*
X86234465Y-87413170D01*
X86222595Y-87402705D01*
X86219404Y-87400230D01*
X86187174Y-87369964D01*
X86161624Y-87351400D01*
X86143870Y-87341639D01*
X86127865Y-87329225D01*
X86100682Y-87313149D01*
X86060103Y-87295589D01*
X86021360Y-87274290D01*
X85991995Y-87262664D01*
X85972374Y-87257626D01*
X85953785Y-87249582D01*
X85923457Y-87240770D01*
X85879789Y-87233853D01*
X85836964Y-87222858D01*
X85805630Y-87218900D01*
X85785376Y-87218900D01*
X85765368Y-87215731D01*
X85733799Y-87214739D01*
X85689781Y-87218900D01*
X84554200Y-87218900D01*
X84550889Y-87215223D01*
X84531314Y-87197598D01*
X84376813Y-87085346D01*
X84354001Y-87072175D01*
X84179537Y-86994499D01*
X84154485Y-86986359D01*
X83967684Y-86946653D01*
X83941487Y-86943900D01*
X83750513Y-86943900D01*
X83724316Y-86946653D01*
X83537515Y-86986359D01*
X83512463Y-86994499D01*
X83337999Y-87072175D01*
X83315187Y-87085346D01*
X83160686Y-87197598D01*
X83141111Y-87215224D01*
X83013324Y-87357146D01*
X82997841Y-87378456D01*
X82902354Y-87543844D01*
X82891640Y-87567908D01*
X82832625Y-87749536D01*
X82827148Y-87775302D01*
X82807186Y-87965230D01*
X82807186Y-87991570D01*
X82827148Y-88181498D01*
X82832625Y-88207264D01*
X82891640Y-88388892D01*
X82902354Y-88412956D01*
X82997841Y-88578344D01*
X83013324Y-88599654D01*
X83141111Y-88741576D01*
X83160686Y-88759202D01*
X83315187Y-88871454D01*
X83337999Y-88884625D01*
X83512463Y-88962301D01*
X83537515Y-88970441D01*
X83724316Y-89010147D01*
X83750513Y-89012900D01*
X83941487Y-89012900D01*
X83967684Y-89010147D01*
X84154485Y-88970441D01*
X84179537Y-88962301D01*
X84354001Y-88884625D01*
X84376813Y-88871454D01*
X84531314Y-88759202D01*
X84550889Y-88741577D01*
X84554200Y-88737900D01*
X85411006Y-88737900D01*
X86540710Y-89867604D01*
X86387642Y-89880996D01*
X86366013Y-89884810D01*
X86151364Y-89942325D01*
X86130725Y-89949837D01*
X85929325Y-90043752D01*
X85910306Y-90054733D01*
X85847126Y-90098971D01*
X85802796Y-90154428D01*
X85795486Y-90225047D01*
X85830300Y-90291280D01*
X86801020Y-91262000D01*
X85830300Y-92232720D01*
X85796274Y-92295032D01*
X85801339Y-92365847D01*
X85847125Y-92425028D01*
X85910304Y-92469266D01*
X85929324Y-92480248D01*
X86039715Y-92531724D01*
X85929074Y-92583317D01*
X85910053Y-92594299D01*
X85727948Y-92721810D01*
X85711124Y-92735928D01*
X85579552Y-92867500D01*
X83967082Y-92867500D01*
X83017329Y-91917747D01*
X82954252Y-91853335D01*
X82932484Y-91835582D01*
X82896050Y-91812102D01*
X82862165Y-91785052D01*
X82838395Y-91770083D01*
X82808201Y-91755487D01*
X82780018Y-91737324D01*
X82754858Y-91724834D01*
X82714122Y-91710007D01*
X82675089Y-91691138D01*
X82648595Y-91681808D01*
X82615917Y-91674264D01*
X82584410Y-91662796D01*
X82557106Y-91656190D01*
X82514091Y-91650756D01*
X82471860Y-91641006D01*
X82443955Y-91637777D01*
X82403385Y-91637635D01*
X82401231Y-91637500D01*
X82364581Y-91637500D01*
X82262570Y-91637144D01*
X82261013Y-91637313D01*
X82212570Y-91637144D01*
X82209293Y-91637500D01*
X82179688Y-91637500D01*
X82195651Y-91627622D01*
X82218521Y-91609496D01*
X82343478Y-91484321D01*
X82361565Y-91461419D01*
X82454375Y-91310854D01*
X82466708Y-91284405D01*
X82470497Y-91272982D01*
X85219628Y-91272982D01*
X85238996Y-91494358D01*
X85242810Y-91515987D01*
X85300325Y-91730636D01*
X85307837Y-91751275D01*
X85401752Y-91952675D01*
X85412733Y-91971694D01*
X85456971Y-92034874D01*
X85512428Y-92079204D01*
X85583047Y-92086514D01*
X85649280Y-92051700D01*
X86349885Y-91351095D01*
X86383911Y-91288783D01*
X86378846Y-91217968D01*
X86349885Y-91172905D01*
X85649280Y-90472300D01*
X85586968Y-90438274D01*
X85516153Y-90443339D01*
X85456971Y-90489126D01*
X85412733Y-90552306D01*
X85401752Y-90571325D01*
X85307837Y-90772725D01*
X85300325Y-90793364D01*
X85242810Y-91008013D01*
X85238996Y-91029642D01*
X85219628Y-91251018D01*
X85219628Y-91272982D01*
X82470497Y-91272982D01*
X82522390Y-91116528D01*
X82528141Y-91089704D01*
X82538844Y-90985243D01*
X82539500Y-90972400D01*
X82539500Y-90171600D01*
X82538827Y-90158596D01*
X82527853Y-90052830D01*
X82522050Y-90025958D01*
X82466074Y-89858178D01*
X82453694Y-89831751D01*
X82360622Y-89681349D01*
X82342496Y-89658479D01*
X82217321Y-89533522D01*
X82194419Y-89515435D01*
X82043854Y-89422625D01*
X82017405Y-89410292D01*
X81849528Y-89354610D01*
X81822704Y-89348859D01*
X81718243Y-89338156D01*
X81705400Y-89337500D01*
X80354600Y-89337500D01*
X80341596Y-89338173D01*
X80235830Y-89349147D01*
X80208958Y-89354950D01*
X80041178Y-89410926D01*
X80014751Y-89423306D01*
X79864349Y-89516378D01*
X79841479Y-89534504D01*
X79716522Y-89659679D01*
X79698435Y-89682581D01*
X79605625Y-89833146D01*
X79593292Y-89859595D01*
X79537610Y-90027472D01*
X79531859Y-90054296D01*
X79521156Y-90158757D01*
X79520500Y-90171600D01*
X79520500Y-90972400D01*
X79521173Y-90985404D01*
X79532147Y-91091170D01*
X79537950Y-91118042D01*
X79593926Y-91285822D01*
X79606306Y-91312249D01*
X79699378Y-91462651D01*
X79717504Y-91485521D01*
X79842679Y-91610478D01*
X79865581Y-91628565D01*
X79917120Y-91660334D01*
X79909247Y-91666518D01*
X79891915Y-91683024D01*
X79753283Y-91842783D01*
X79739384Y-91862268D01*
X79633463Y-92045359D01*
X79623499Y-92067121D01*
X79554111Y-92266938D01*
X79548443Y-92290191D01*
X79518091Y-92499524D01*
X79516922Y-92523430D01*
X78384000Y-92523430D01*
X78384000Y-86573134D01*
X79025500Y-86573134D01*
X79026237Y-86586742D01*
X79032992Y-86648924D01*
X79040273Y-86679546D01*
X79091403Y-86815935D01*
X79108559Y-86847270D01*
X79195913Y-86963826D01*
X79221174Y-86989087D01*
X79337730Y-87076441D01*
X79369065Y-87093597D01*
X79505454Y-87144727D01*
X79536076Y-87152008D01*
X79598258Y-87158763D01*
X79611866Y-87159500D01*
X81408134Y-87159500D01*
X81421742Y-87158763D01*
X81483924Y-87152008D01*
X81514546Y-87144727D01*
X81650935Y-87093597D01*
X81682270Y-87076441D01*
X81798826Y-86989087D01*
X81824087Y-86963826D01*
X81911441Y-86847270D01*
X81928597Y-86815935D01*
X81979727Y-86679546D01*
X81987008Y-86648924D01*
X81993763Y-86586742D01*
X81994500Y-86573134D01*
X81994500Y-85975830D01*
X89035476Y-85975830D01*
X89040541Y-86046645D01*
X89071555Y-86093716D01*
X89074449Y-86096481D01*
X89084787Y-86105340D01*
X89373350Y-86326763D01*
X89384595Y-86334463D01*
X89695385Y-86523426D01*
X89707395Y-86529866D01*
X90036774Y-86684158D01*
X90049409Y-86689263D01*
X90393526Y-86807081D01*
X90406639Y-86810791D01*
X90761467Y-86890755D01*
X90774904Y-86893028D01*
X91136293Y-86934203D01*
X91149897Y-86935011D01*
X91513618Y-86936915D01*
X91527230Y-86936250D01*
X91889030Y-86898862D01*
X91902490Y-86896730D01*
X92258136Y-86820486D01*
X92271287Y-86816913D01*
X92616619Y-86702705D01*
X92629307Y-86697732D01*
X92960284Y-86546897D01*
X92972361Y-86540583D01*
X93285112Y-86354885D01*
X93296437Y-86347304D01*
X93587304Y-86128915D01*
X93597744Y-86120155D01*
X93626308Y-86093425D01*
X93662380Y-86032275D01*
X93659665Y-85961330D01*
X93629310Y-85912330D01*
X91439095Y-83722115D01*
X91376783Y-83688089D01*
X91305968Y-83693154D01*
X91260905Y-83722115D01*
X89069502Y-85913518D01*
X89035476Y-85975830D01*
X81994500Y-85975830D01*
X81994500Y-84776866D01*
X81993763Y-84763258D01*
X81987008Y-84701076D01*
X81979727Y-84670454D01*
X81928597Y-84534065D01*
X81911441Y-84502730D01*
X81824087Y-84386174D01*
X81798826Y-84360913D01*
X81682270Y-84273559D01*
X81650935Y-84256403D01*
X81531917Y-84211785D01*
X81636653Y-84107413D01*
X81650035Y-84091689D01*
X81780344Y-83910345D01*
X81790979Y-83892646D01*
X81889921Y-83692453D01*
X81897522Y-83673255D01*
X81962438Y-83459592D01*
X81965239Y-83446636D01*
X87861249Y-83446636D01*
X87879651Y-83809897D01*
X87881076Y-83823450D01*
X87938603Y-84182599D01*
X87941483Y-84195919D01*
X88037460Y-84546754D01*
X88041761Y-84559685D01*
X88175068Y-84898103D01*
X88180741Y-84910494D01*
X88349816Y-85232535D01*
X88356794Y-85244241D01*
X88559661Y-85546139D01*
X88567863Y-85557023D01*
X88706231Y-85721339D01*
X88765410Y-85760562D01*
X88836399Y-85761564D01*
X88891706Y-85729274D01*
X91079885Y-83541095D01*
X91113911Y-83478783D01*
X91110080Y-83425217D01*
X91586089Y-83425217D01*
X91591154Y-83496032D01*
X91620115Y-83541095D01*
X93808180Y-85729160D01*
X93870492Y-85763186D01*
X93941307Y-85758121D01*
X93992800Y-85722230D01*
X94109941Y-85586042D01*
X94118256Y-85575244D01*
X94324273Y-85275487D01*
X94331373Y-85263855D01*
X94503812Y-84943602D01*
X94509615Y-84931271D01*
X94646458Y-84594268D01*
X94650894Y-84581383D01*
X94750540Y-84231572D01*
X94753560Y-84218283D01*
X94814844Y-83859756D01*
X94816410Y-83846218D01*
X94838615Y-83483170D01*
X94838849Y-83475918D01*
X94838931Y-83452440D01*
X94838748Y-83445186D01*
X94819078Y-83081992D01*
X94817606Y-83068444D01*
X94758826Y-82709498D01*
X94755899Y-82696188D01*
X94658698Y-82345690D01*
X94654352Y-82332774D01*
X94519865Y-81994823D01*
X94514148Y-81982452D01*
X94343949Y-81661003D01*
X94336931Y-81649322D01*
X94133012Y-81348134D01*
X94124772Y-81337279D01*
X93993419Y-81182392D01*
X93934105Y-81143375D01*
X93863112Y-81142620D01*
X93808228Y-81174792D01*
X91620115Y-83362905D01*
X91586089Y-83425217D01*
X91110080Y-83425217D01*
X91108846Y-83407968D01*
X91079885Y-83362905D01*
X88891810Y-81174830D01*
X88829498Y-81140804D01*
X88758683Y-81145869D01*
X88706903Y-81182095D01*
X88582626Y-81327606D01*
X88574350Y-81338432D01*
X88369380Y-81638906D01*
X88362320Y-81650563D01*
X88191001Y-81971417D01*
X88185242Y-81983767D01*
X88049576Y-82321245D01*
X88045184Y-82334146D01*
X87946759Y-82684303D01*
X87943786Y-82697603D01*
X87883754Y-83056342D01*
X87882235Y-83069885D01*
X87861297Y-83433008D01*
X87861249Y-83446636D01*
X81965239Y-83446636D01*
X81966802Y-83439408D01*
X81971273Y-83405445D01*
X81960333Y-83335297D01*
X81913205Y-83282198D01*
X81846351Y-83263000D01*
X79175110Y-83263000D01*
X79106989Y-83283002D01*
X79060496Y-83336658D01*
X79050392Y-83406932D01*
X79052193Y-83416701D01*
X79086784Y-83570190D01*
X79092958Y-83589893D01*
X79176971Y-83796794D01*
X79186281Y-83815225D01*
X79302959Y-84005626D01*
X79315155Y-84022288D01*
X79461364Y-84191076D01*
X79476116Y-84205523D01*
X79485035Y-84212928D01*
X79369065Y-84256403D01*
X79337730Y-84273559D01*
X79221174Y-84360913D01*
X79195913Y-84386174D01*
X79108559Y-84502730D01*
X79091403Y-84534065D01*
X79040273Y-84670454D01*
X79032992Y-84701076D01*
X79026237Y-84763258D01*
X79025500Y-84776866D01*
X79025500Y-86573134D01*
X78384000Y-86573134D01*
X78384000Y-82867590D01*
X79046055Y-82867590D01*
X79058693Y-82937453D01*
X79107096Y-82989392D01*
X79171339Y-83007000D01*
X80256000Y-83007000D01*
X80324121Y-82986998D01*
X80370614Y-82933342D01*
X80382000Y-82881000D01*
X80638000Y-82881000D01*
X80658002Y-82949121D01*
X80711658Y-82995614D01*
X80764000Y-83007000D01*
X81846459Y-83007000D01*
X81914580Y-82986998D01*
X81961073Y-82933342D01*
X81971177Y-82863068D01*
X81968663Y-82850304D01*
X81922159Y-82665167D01*
X81915505Y-82645621D01*
X81826462Y-82440835D01*
X81816704Y-82422637D01*
X81695409Y-82235143D01*
X81682810Y-82218783D01*
X81532521Y-82053618D01*
X81517420Y-82039536D01*
X81342173Y-81901135D01*
X81324975Y-81889709D01*
X81129477Y-81781788D01*
X81110643Y-81773323D01*
X80900144Y-81698781D01*
X80880180Y-81693507D01*
X80786096Y-81676748D01*
X80715524Y-81684494D01*
X80660342Y-81729164D01*
X80638000Y-81800795D01*
X80638000Y-82881000D01*
X80382000Y-82881000D01*
X80382000Y-81799987D01*
X80361998Y-81731866D01*
X80308342Y-81685373D01*
X80236940Y-81675437D01*
X80175148Y-81684893D01*
X80155063Y-81689678D01*
X79942805Y-81759054D01*
X79923770Y-81767056D01*
X79725694Y-81870168D01*
X79708221Y-81881171D01*
X79529645Y-82015250D01*
X79514204Y-82028959D01*
X79359925Y-82190403D01*
X79346931Y-82206450D01*
X79221091Y-82390924D01*
X79210891Y-82408878D01*
X79116871Y-82611428D01*
X79109742Y-82630806D01*
X79050065Y-82845992D01*
X79046198Y-82866254D01*
X79046055Y-82867590D01*
X78384000Y-82867590D01*
X78384000Y-80586000D01*
X89363728Y-80586000D01*
X89103366Y-80782911D01*
G37*
%TD.AperFunction*%
%TD*%
M02*
