M48
; DRILL file {KiCad (6.0.1)} date Tue Jul  5 00:40:57 2022
; FORMAT={-:-/ absolute / metric / decimal}
; #@! TF.CreationDate,2022-07-05T00:40:57-07:00
; #@! TF.GenerationSoftware,Kicad,Pcbnew,(6.0.1)
; #@! TF.FileFunction,Plated,1,2,PTH
FMAT,2
METRIC
; #@! TA.AperFunction,Plated,PTH,ViaDrill
T1C0.400
; #@! TA.AperFunction,Plated,PTH,ComponentDrill
T2C0.750
; #@! TA.AperFunction,Plated,PTH,ComponentDrill
T3C0.800
%
G90
G05
T1
X6.763Y-13.665
X7.035Y-9.395
X7.22Y-20.904
X8.395Y-9.885
X10.075Y-9.945
X12.065Y-7.525
X14.095Y-8.315
T2
X12.815Y-10.825
X12.815Y-12.825
X12.815Y-14.825
X12.815Y-16.825
X12.815Y-18.825
X12.815Y-20.825
X12.815Y-22.825
X12.815Y-24.825
X12.815Y-26.825
X12.815Y-28.825
T3
X1.995Y-3.835
X1.995Y-5.835
X1.995Y-7.835
X1.995Y-9.835
X1.995Y-11.835
X1.995Y-13.835
X1.995Y-15.835
X1.995Y-17.835
X1.995Y-19.835
X1.995Y-21.835
X1.995Y-23.835
X1.995Y-25.835
X1.995Y-27.835
X1.995Y-29.835
X1.995Y-31.835
X1.995Y-33.835
X1.995Y-35.835
X4.855Y-3.835
X4.855Y-5.835
X4.855Y-7.835
X4.855Y-9.835
X4.855Y-11.835
X4.855Y-13.835
X4.855Y-15.835
X4.855Y-17.835
X4.855Y-19.835
X4.855Y-21.835
X4.855Y-23.835
X4.855Y-25.835
X4.855Y-27.835
X4.855Y-29.835
X4.855Y-31.835
X4.855Y-33.835
X4.855Y-35.835
T0
M30
