%TF.GenerationSoftware,KiCad,Pcbnew,(6.0.1)*%
%TF.CreationDate,2022-07-05T01:24:20-07:00*%
%TF.ProjectId,mu100-dit,6d753130-302d-4646-9974-2e6b69636164,rev?*%
%TF.SameCoordinates,PX4a25ef0PY4c3f880*%
%TF.FileFunction,Copper,L1,Top*%
%TF.FilePolarity,Positive*%
%FSLAX46Y46*%
G04 Gerber Fmt 4.6, Leading zero omitted, Abs format (unit mm)*
G04 Created by KiCad (PCBNEW (6.0.1)) date 2022-07-05 01:24:20*
%MOMM*%
%LPD*%
G01*
G04 APERTURE LIST*
G04 Aperture macros list*
%AMRoundRect*
0 Rectangle with rounded corners*
0 $1 Rounding radius*
0 $2 $3 $4 $5 $6 $7 $8 $9 X,Y pos of 4 corners*
0 Add a 4 corners polygon primitive as box body*
4,1,4,$2,$3,$4,$5,$6,$7,$8,$9,$2,$3,0*
0 Add four circle primitives for the rounded corners*
1,1,$1+$1,$2,$3*
1,1,$1+$1,$4,$5*
1,1,$1+$1,$6,$7*
1,1,$1+$1,$8,$9*
0 Add four rect primitives between the rounded corners*
20,1,$1+$1,$2,$3,$4,$5,0*
20,1,$1+$1,$4,$5,$6,$7,0*
20,1,$1+$1,$6,$7,$8,$9,0*
20,1,$1+$1,$8,$9,$2,$3,0*%
G04 Aperture macros list end*
%TA.AperFunction,SMDPad,CuDef*%
%ADD10RoundRect,0.250000X-0.337500X-0.475000X0.337500X-0.475000X0.337500X0.475000X-0.337500X0.475000X0*%
%TD*%
%TA.AperFunction,ComponentPad*%
%ADD11RoundRect,0.250000X-0.625000X0.350000X-0.625000X-0.350000X0.625000X-0.350000X0.625000X0.350000X0*%
%TD*%
%TA.AperFunction,ComponentPad*%
%ADD12O,1.750000X1.200000*%
%TD*%
%TA.AperFunction,SMDPad,CuDef*%
%ADD13RoundRect,0.100000X-0.637500X-0.100000X0.637500X-0.100000X0.637500X0.100000X-0.637500X0.100000X0*%
%TD*%
%TA.AperFunction,ConnectorPad*%
%ADD14C,5.700000*%
%TD*%
%TA.AperFunction,ComponentPad*%
%ADD15C,3.600000*%
%TD*%
%TA.AperFunction,ComponentPad*%
%ADD16C,1.524000*%
%TD*%
%TA.AperFunction,SMDPad,CuDef*%
%ADD17R,1.900000X0.800000*%
%TD*%
%TA.AperFunction,SMDPad,CuDef*%
%ADD18RoundRect,0.250000X0.337500X0.475000X-0.337500X0.475000X-0.337500X-0.475000X0.337500X-0.475000X0*%
%TD*%
%TA.AperFunction,ComponentPad*%
%ADD19R,1.700000X1.700000*%
%TD*%
%TA.AperFunction,ComponentPad*%
%ADD20O,1.700000X1.700000*%
%TD*%
%TA.AperFunction,ViaPad*%
%ADD21C,0.800000*%
%TD*%
%TA.AperFunction,ViaPad*%
%ADD22C,0.600000*%
%TD*%
%TA.AperFunction,Conductor*%
%ADD23C,0.400000*%
%TD*%
%TA.AperFunction,Conductor*%
%ADD24C,0.600000*%
%TD*%
%TA.AperFunction,Conductor*%
%ADD25C,0.500000*%
%TD*%
%TA.AperFunction,Conductor*%
%ADD26C,0.250000*%
%TD*%
%TA.AperFunction,Conductor*%
%ADD27C,0.254000*%
%TD*%
G04 APERTURE END LIST*
D10*
%TO.P,C3,1*%
%TO.N,GND*%
X81292500Y-117227000D03*
%TO.P,C3,2*%
%TO.N,+5V*%
X83367500Y-117227000D03*
%TD*%
D11*
%TO.P,J1,1,Pin_1*%
%TO.N,unconnected-(J1-Pad1)*%
X81030000Y-90572000D03*
D12*
%TO.P,J1,2,Pin_2*%
%TO.N,+5V*%
X81030000Y-92572000D03*
%TO.P,J1,3,Pin_3*%
%TO.N,GND*%
X81030000Y-94572000D03*
%TO.P,J1,4,Pin_4*%
%TO.N,/MCLK*%
X81030000Y-96572000D03*
%TO.P,J1,5,Pin_5*%
%TO.N,GND*%
X81030000Y-98572000D03*
%TO.P,J1,6,Pin_6*%
%TO.N,/SDAT*%
X81030000Y-100572000D03*
%TO.P,J1,7,Pin_7*%
%TO.N,GND*%
X81030000Y-102572000D03*
%TO.P,J1,8,Pin_8*%
%TO.N,/BICK*%
X81030000Y-104572000D03*
%TO.P,J1,9,Pin_9*%
%TO.N,GND*%
X81030000Y-106572000D03*
%TO.P,J1,10,Pin_10*%
%TO.N,/LRCK*%
X81030000Y-108572000D03*
%TD*%
D13*
%TO.P,U2,1,V1*%
%TO.N,GND*%
X85739500Y-103413427D03*
%TO.P,U2,2,TRANS*%
X85739500Y-104063427D03*
%TO.P,U2,3,PDN*%
%TO.N,/RESET*%
X85739500Y-104713427D03*
%TO.P,U2,4,MCLK*%
%TO.N,/MCLK*%
X85739500Y-105363427D03*
%TO.P,U2,5,SDTI*%
%TO.N,/SDAT*%
X85739500Y-106013427D03*
%TO.P,U2,6,BICK*%
%TO.N,/BICK*%
X85739500Y-106663427D03*
%TO.P,U2,7,LRCK*%
%TO.N,/LRCK*%
X85739500Y-107313427D03*
%TO.P,U2,8,FS0/CSN*%
%TO.N,/FS0*%
X85739500Y-107963427D03*
%TO.P,U2,9,FS1/CDTI*%
%TO.N,/FS1*%
X85739500Y-108613427D03*
%TO.P,U2,10,FS2/CCLK*%
%TO.N,/FS2*%
X85739500Y-109263427D03*
%TO.P,U2,11,FS3/CDTO*%
%TO.N,/FS3*%
X85739500Y-109913427D03*
%TO.P,U2,12,C1*%
%TO.N,GND*%
X85739500Y-110563427D03*
%TO.P,U2,13,ANS*%
%TO.N,unconnected-(U2-Pad13)*%
X93164500Y-110563427D03*
%TO.P,U2,14,BLS*%
%TO.N,unconnected-(U2-Pad14)*%
X93164500Y-109913427D03*
%TO.P,U2,15,CKS0*%
%TO.N,/CKS0*%
X93164500Y-109263427D03*
%TO.P,U2,16,CKS1*%
%TO.N,/CKS1*%
X93164500Y-108613427D03*
%TO.P,U2,17,VDD*%
%TO.N,+5V*%
X93164500Y-107963427D03*
%TO.P,U2,18,VSS*%
%TO.N,GND*%
X93164500Y-107313427D03*
%TO.P,U2,19,TXN*%
%TO.N,unconnected-(U2-Pad19)*%
X93164500Y-106663427D03*
%TO.P,U2,20,TXP*%
%TO.N,/TXP*%
X93164500Y-106013427D03*
%TO.P,U2,21,DIF0*%
%TO.N,/DIF0*%
X93164500Y-105363427D03*
%TO.P,U2,22,DIF1*%
%TO.N,/DIF1*%
X93164500Y-104713427D03*
%TO.P,U2,23,DIF2*%
%TO.N,/DIF2*%
X93164500Y-104063427D03*
%TO.P,U2,24,U1*%
%TO.N,unconnected-(U2-Pad24)*%
X93164500Y-103413427D03*
%TD*%
D14*
%TO.P,H1,1,1*%
%TO.N,GND*%
X91350000Y-83452000D03*
D15*
X91350000Y-83452000D03*
%TD*%
D16*
%TO.P,U1,1,GND*%
%TO.N,GND*%
X86620000Y-91262000D03*
%TO.P,U1,2,VCC*%
%TO.N,+5V*%
X86620000Y-93802000D03*
%TO.P,U1,3,Input*%
%TO.N,/TXP*%
X86620000Y-96342000D03*
%TD*%
D10*
%TO.P,C2,1*%
%TO.N,GND*%
X91208500Y-101140000D03*
%TO.P,C2,2*%
%TO.N,+5V*%
X93283500Y-101140000D03*
%TD*%
D17*
%TO.P,U3,1,\u002ARESET*%
%TO.N,/RESET*%
X80830000Y-112702000D03*
%TO.P,U3,2,GND*%
%TO.N,GND*%
X80830000Y-114602000D03*
%TO.P,U3,3,VCC*%
%TO.N,+5V*%
X83830000Y-113652000D03*
%TD*%
D18*
%TO.P,C1,1*%
%TO.N,GND*%
X87695500Y-101140000D03*
%TO.P,C1,2*%
%TO.N,+5V*%
X85620500Y-101140000D03*
%TD*%
D14*
%TO.P,H2,1,1*%
%TO.N,GND*%
X91350000Y-116452000D03*
D15*
X91350000Y-116452000D03*
%TD*%
D19*
%TO.P,J2,1,Pin_1*%
%TO.N,Net-(C4-Pad2)*%
X80910000Y-85675000D03*
D20*
%TO.P,J2,2,Pin_2*%
%TO.N,GND*%
X80910000Y-83135000D03*
%TD*%
D21*
%TO.N,GND*%
X87200000Y-99282000D03*
X82850000Y-94882000D03*
X84060000Y-92542000D03*
X87660000Y-87922000D03*
X89070000Y-95352000D03*
X84970000Y-98752000D03*
X89130000Y-92702000D03*
X86000000Y-89632000D03*
D22*
%TO.N,/RESET*%
X83260000Y-111322000D03*
X84016400Y-104137200D03*
%TO.N,/FS0*%
X87889978Y-106829600D03*
%TO.N,/FS1*%
X87877200Y-107744000D03*
%TO.N,/FS2*%
X87885439Y-108751761D03*
%TO.N,/FS3*%
X87877200Y-109674400D03*
%TO.N,/DIF0*%
X91230000Y-105585000D03*
%TO.N,/DIF1*%
X92037242Y-104738927D03*
%TO.N,/DIF2*%
X91839600Y-102841800D03*
%TO.N,/CKS0*%
X90925200Y-109003500D03*
%TO.N,/CKS1*%
X91915800Y-108379000D03*
%TD*%
D23*
%TO.N,GND*%
X83655000Y-109902000D02*
X80155000Y-109902000D01*
X86991427Y-104063427D02*
X87130000Y-104202000D01*
X88118573Y-110563427D02*
X85739500Y-110563427D01*
X85739500Y-103413427D02*
X87130000Y-103413427D01*
X78588000Y-104246000D02*
X79292000Y-104950000D01*
X89830000Y-108302000D02*
X89830000Y-108852000D01*
X81030000Y-98572000D02*
X79828000Y-98572000D01*
X78480000Y-99920000D02*
X78480000Y-104022000D01*
X91878573Y-107303427D02*
X92675500Y-107303427D01*
X79292000Y-109039000D02*
X79292000Y-106474000D01*
X88156573Y-110563427D02*
X91168000Y-107552000D01*
X81030000Y-94572000D02*
X79256000Y-94572000D01*
X79390000Y-106572000D02*
X79292000Y-106474000D01*
X79256000Y-94572000D02*
X78480000Y-95348000D01*
X85739500Y-110563427D02*
X84316427Y-110563427D01*
X85739500Y-104063427D02*
X86991427Y-104063427D01*
X91630000Y-107552000D02*
X91878573Y-107303427D01*
X91168000Y-107552000D02*
X91630000Y-107552000D01*
X78480000Y-104022000D02*
X78588000Y-104130000D01*
X87130000Y-104412000D02*
X88910000Y-106192000D01*
X79828000Y-98572000D02*
X78480000Y-99920000D01*
X88910000Y-106192000D02*
X88910000Y-107432000D01*
X78588000Y-104130000D02*
X78588000Y-104246000D01*
X84316427Y-110563427D02*
X83655000Y-109902000D01*
X87130000Y-104202000D02*
X87130000Y-104412000D01*
X79292000Y-104950000D02*
X79292000Y-106474000D01*
X89830000Y-108852000D02*
X88118573Y-110563427D01*
X80155000Y-109902000D02*
X79292000Y-109039000D01*
X79930000Y-102572000D02*
X78480000Y-104022000D01*
X78480000Y-95348000D02*
X78480000Y-99920000D01*
X87130000Y-103413427D02*
X87130000Y-104202000D01*
X81030000Y-102572000D02*
X79930000Y-102572000D01*
X88910000Y-107432000D02*
X89730000Y-108252000D01*
X81030000Y-106572000D02*
X79390000Y-106572000D01*
D24*
%TO.N,+5V*%
X94090000Y-95462000D02*
X92690000Y-94062000D01*
X85830000Y-93802000D02*
X84030000Y-95602000D01*
X94090000Y-100312000D02*
X94090000Y-95462000D01*
D23*
X83555000Y-113927000D02*
X83555000Y-116914500D01*
X94068573Y-107963427D02*
X94318573Y-107963427D01*
X94580000Y-111402000D02*
X93430000Y-112552000D01*
D24*
X86371000Y-93802000D02*
X85830000Y-93802000D01*
D25*
X94360000Y-107962000D02*
X94560000Y-107762000D01*
D23*
X83555000Y-116914500D02*
X83367500Y-117102000D01*
X94580000Y-108224854D02*
X94580000Y-111402000D01*
X94318573Y-107963427D02*
X94580000Y-108224854D01*
D25*
X94530000Y-107732000D02*
X94530000Y-102640500D01*
D24*
X84030000Y-95602000D02*
X84030000Y-99549500D01*
D25*
X94530000Y-102640500D02*
X93029500Y-101140000D01*
D24*
X93516000Y-100886000D02*
X94090000Y-100312000D01*
D23*
X94580000Y-108224854D02*
X94580000Y-107782000D01*
X94580000Y-107782000D02*
X94560000Y-107762000D01*
X83830000Y-113652000D02*
X83555000Y-113927000D01*
X94318573Y-107963427D02*
X93164500Y-107963427D01*
D25*
X94560000Y-107762000D02*
X94530000Y-107732000D01*
D24*
X92690000Y-94062000D02*
X86880000Y-94062000D01*
D23*
X84930000Y-112552000D02*
X83830000Y-113652000D01*
D24*
X84030000Y-99549500D02*
X85620500Y-101140000D01*
D23*
X93430000Y-112552000D02*
X84930000Y-112552000D01*
D24*
X86880000Y-94062000D02*
X86620000Y-93802000D01*
D26*
%TO.N,/LRCK*%
X83660357Y-107313427D02*
X82401784Y-108572000D01*
X85739500Y-107313427D02*
X83660357Y-107313427D01*
X82401784Y-108572000D02*
X81030000Y-108572000D01*
%TO.N,/SDAT*%
X82490000Y-102032000D02*
X82490000Y-105100000D01*
X81030000Y-100572000D02*
X82490000Y-102032000D01*
X83403427Y-106013427D02*
X85739500Y-106013427D01*
X82490000Y-105100000D02*
X83403427Y-106013427D01*
%TO.N,/RESET*%
X84592627Y-104713427D02*
X85739500Y-104713427D01*
X82710000Y-111322000D02*
X81330000Y-112702000D01*
X83260000Y-111322000D02*
X82710000Y-111322000D01*
X84016400Y-104137200D02*
X84592627Y-104713427D01*
X81330000Y-112702000D02*
X80830000Y-112702000D01*
%TO.N,/MCLK*%
X81030000Y-96572000D02*
X83102000Y-98644000D01*
X84027427Y-105363427D02*
X85739500Y-105363427D01*
X83102000Y-104438000D02*
X84027427Y-105363427D01*
X83102000Y-98644000D02*
X83102000Y-104438000D01*
%TO.N,/FS0*%
X86699662Y-107963427D02*
X85739500Y-107963427D01*
X87833489Y-106829600D02*
X86699662Y-107963427D01*
X87889978Y-106829600D02*
X87833489Y-106829600D01*
%TO.N,/FS1*%
X87877200Y-107744000D02*
X87554807Y-107744000D01*
X87554807Y-107744000D02*
X86685380Y-108613427D01*
X86685380Y-108613427D02*
X85739500Y-108613427D01*
%TO.N,/FS2*%
X87885439Y-108751761D02*
X87680239Y-108751761D01*
X87168573Y-109263427D02*
X85739500Y-109263427D01*
X87680239Y-108751761D02*
X87168573Y-109263427D01*
%TO.N,/FS3*%
X87877200Y-109674400D02*
X87638173Y-109913427D01*
X87638173Y-109913427D02*
X85739500Y-109913427D01*
%TO.N,/TXP*%
X90630000Y-106252000D02*
X92238066Y-106252000D01*
X89440000Y-100142000D02*
X89440000Y-105062000D01*
X92476639Y-106013427D02*
X93164500Y-106013427D01*
X89440000Y-105062000D02*
X90630000Y-106252000D01*
X87610000Y-98312000D02*
X89440000Y-100142000D01*
X92238066Y-106252000D02*
X92476639Y-106013427D01*
X87610000Y-96662000D02*
X87610000Y-98312000D01*
X86620000Y-96342000D02*
X87290000Y-96342000D01*
X87290000Y-96342000D02*
X87610000Y-96662000D01*
%TO.N,/DIF0*%
X91451573Y-105363427D02*
X93164500Y-105363427D01*
X91230000Y-105585000D02*
X91451573Y-105363427D01*
%TO.N,/DIF1*%
X92037242Y-104738927D02*
X92062742Y-104713427D01*
X92062742Y-104713427D02*
X93164500Y-104713427D01*
%TO.N,/DIF2*%
X91839600Y-102841800D02*
X91839600Y-103411600D01*
X92102480Y-103689268D02*
X92476639Y-104063427D01*
X91839600Y-103411600D02*
X92102480Y-103674480D01*
X92476639Y-104063427D02*
X93164500Y-104063427D01*
X92102480Y-103674480D02*
X92102480Y-103689268D01*
%TO.N,/CKS0*%
X91331500Y-109003500D02*
X91591427Y-109263427D01*
X90925200Y-109003500D02*
X91331500Y-109003500D01*
X91591427Y-109263427D02*
X93164500Y-109263427D01*
%TO.N,/BICK*%
X81030000Y-104572000D02*
X83121427Y-106663427D01*
X83121427Y-106663427D02*
X85739500Y-106663427D01*
%TO.N,/CKS1*%
X92150227Y-108613427D02*
X93164500Y-108613427D01*
X91915800Y-108379000D02*
X92150227Y-108613427D01*
%TD*%
%TO.N,GND*%
D27*
X89103366Y-80782911D02*
X89092956Y-80791707D01*
X89073004Y-80810509D01*
X89037146Y-80871785D01*
X89040108Y-80942719D01*
X89070323Y-80991303D01*
X91260905Y-83181885D01*
X91323217Y-83215911D01*
X91394032Y-83210846D01*
X91439095Y-83181885D01*
X93630073Y-80990907D01*
X93664099Y-80928595D01*
X93659034Y-80857780D01*
X93627713Y-80810417D01*
X93616318Y-80799603D01*
X93605937Y-80790768D01*
X93337140Y-80586000D01*
X94716000Y-80586000D01*
X94716000Y-82552316D01*
X94658698Y-82345690D01*
X94654352Y-82332774D01*
X94519865Y-81994823D01*
X94514148Y-81982452D01*
X94343949Y-81661003D01*
X94336931Y-81649322D01*
X94133012Y-81348134D01*
X94124772Y-81337279D01*
X93993419Y-81182392D01*
X93934105Y-81143375D01*
X93863112Y-81142620D01*
X93808228Y-81174792D01*
X91620115Y-83362905D01*
X91586089Y-83425217D01*
X91591154Y-83496032D01*
X91620115Y-83541095D01*
X93808180Y-85729160D01*
X93870492Y-85763186D01*
X93941307Y-85758121D01*
X93992800Y-85722230D01*
X94109941Y-85586042D01*
X94118256Y-85575244D01*
X94324273Y-85275487D01*
X94331373Y-85263855D01*
X94503812Y-84943602D01*
X94509615Y-84931271D01*
X94646458Y-84594268D01*
X94650894Y-84581383D01*
X94716000Y-84352826D01*
X94716000Y-94766101D01*
X94689221Y-94739134D01*
X94686644Y-94737062D01*
X93357329Y-93407747D01*
X93294252Y-93343335D01*
X93272484Y-93325582D01*
X93236050Y-93302102D01*
X93202165Y-93275052D01*
X93178395Y-93260083D01*
X93148201Y-93245487D01*
X93120018Y-93227324D01*
X93094858Y-93214834D01*
X93054122Y-93200007D01*
X93015089Y-93181138D01*
X92988595Y-93171808D01*
X92955917Y-93164264D01*
X92924410Y-93152796D01*
X92897106Y-93146190D01*
X92854091Y-93140756D01*
X92811860Y-93131006D01*
X92783955Y-93127777D01*
X92743385Y-93127635D01*
X92741231Y-93127500D01*
X92704581Y-93127500D01*
X92602570Y-93127144D01*
X92599293Y-93127500D01*
X87846343Y-93127500D01*
X87838683Y-93111074D01*
X87827701Y-93092053D01*
X87700190Y-92909948D01*
X87686072Y-92893124D01*
X87528876Y-92735928D01*
X87512052Y-92721810D01*
X87329948Y-92594299D01*
X87310927Y-92583317D01*
X87200285Y-92531724D01*
X87310676Y-92480248D01*
X87329696Y-92469266D01*
X87392875Y-92425028D01*
X87437204Y-92369571D01*
X87444513Y-92298952D01*
X87409700Y-92232720D01*
X86709095Y-91532115D01*
X86646783Y-91498089D01*
X86575968Y-91503154D01*
X86530905Y-91532115D01*
X85830300Y-92232720D01*
X85796274Y-92295032D01*
X85801339Y-92365847D01*
X85847125Y-92425028D01*
X85910304Y-92469266D01*
X85929324Y-92480248D01*
X86039715Y-92531724D01*
X85929074Y-92583317D01*
X85910053Y-92594299D01*
X85727948Y-92721810D01*
X85711124Y-92735928D01*
X85553928Y-92893124D01*
X85540812Y-92908753D01*
X85517239Y-92916686D01*
X85477944Y-92935009D01*
X85437011Y-92949264D01*
X85411679Y-92961400D01*
X85383237Y-92979172D01*
X85352848Y-92993343D01*
X85328872Y-93007978D01*
X85294618Y-93034548D01*
X85257855Y-93057520D01*
X85235839Y-93074969D01*
X85207030Y-93103578D01*
X85205435Y-93104984D01*
X85179898Y-93130521D01*
X85107134Y-93202779D01*
X85105058Y-93205361D01*
X83375748Y-94934670D01*
X83311335Y-94997748D01*
X83293582Y-95019516D01*
X83270102Y-95055950D01*
X83243052Y-95089835D01*
X83228083Y-95113605D01*
X83213487Y-95143799D01*
X83195324Y-95171982D01*
X83182834Y-95197142D01*
X83168007Y-95237878D01*
X83149138Y-95276911D01*
X83139808Y-95303405D01*
X83132264Y-95336083D01*
X83120796Y-95367590D01*
X83114190Y-95394894D01*
X83108756Y-95437909D01*
X83099006Y-95480140D01*
X83095777Y-95508045D01*
X83095635Y-95548615D01*
X83095500Y-95550769D01*
X83095500Y-95587419D01*
X83095144Y-95689430D01*
X83095500Y-95692707D01*
X83095500Y-97563406D01*
X82480956Y-96948862D01*
X82505889Y-96877062D01*
X82511557Y-96853809D01*
X82541909Y-96644476D01*
X82543078Y-96620570D01*
X82533298Y-96409275D01*
X82529926Y-96385580D01*
X82480368Y-96179945D01*
X82472576Y-96157315D01*
X82385027Y-95964762D01*
X82373096Y-95944013D01*
X82250716Y-95771489D01*
X82235077Y-95753371D01*
X82082281Y-95607101D01*
X82063498Y-95592267D01*
X82030742Y-95571116D01*
X82150407Y-95477118D01*
X82167739Y-95460613D01*
X82306308Y-95300927D01*
X82320207Y-95281441D01*
X82426080Y-95098432D01*
X82436044Y-95076670D01*
X82505401Y-94876943D01*
X82511070Y-94853685D01*
X82512463Y-94844075D01*
X82502440Y-94773790D01*
X82456009Y-94720081D01*
X82387766Y-94700000D01*
X79676483Y-94700000D01*
X79608362Y-94720002D01*
X79561869Y-94773658D01*
X79551765Y-94843932D01*
X79553990Y-94855521D01*
X79580107Y-94963891D01*
X79587899Y-94986521D01*
X79675408Y-95178988D01*
X79687339Y-95199737D01*
X79809664Y-95372183D01*
X79825303Y-95390301D01*
X79978030Y-95536505D01*
X79996813Y-95551339D01*
X80029230Y-95572270D01*
X79909247Y-95666518D01*
X79891915Y-95683024D01*
X79753283Y-95842783D01*
X79739384Y-95862268D01*
X79633463Y-96045359D01*
X79623499Y-96067121D01*
X79554111Y-96266938D01*
X79548443Y-96290191D01*
X79518091Y-96499524D01*
X79516922Y-96523430D01*
X79526702Y-96734725D01*
X79530074Y-96758420D01*
X79579632Y-96964055D01*
X79587424Y-96986685D01*
X79674973Y-97179238D01*
X79686904Y-97199987D01*
X79809284Y-97372511D01*
X79824923Y-97390629D01*
X79977719Y-97536899D01*
X79996502Y-97551733D01*
X80029258Y-97572884D01*
X79909593Y-97666882D01*
X79892261Y-97683387D01*
X79753692Y-97843073D01*
X79739793Y-97862559D01*
X79633920Y-98045568D01*
X79623956Y-98067330D01*
X79554599Y-98267057D01*
X79548930Y-98290315D01*
X79547537Y-98299925D01*
X79557560Y-98370210D01*
X79603991Y-98423919D01*
X79672234Y-98444000D01*
X81158000Y-98444000D01*
X81158000Y-98700000D01*
X79676483Y-98700000D01*
X79608362Y-98720002D01*
X79561869Y-98773658D01*
X79551765Y-98843932D01*
X79553990Y-98855521D01*
X79580107Y-98963891D01*
X79587899Y-98986521D01*
X79675408Y-99178988D01*
X79687339Y-99199737D01*
X79809664Y-99372183D01*
X79825303Y-99390301D01*
X79978030Y-99536505D01*
X79996813Y-99551339D01*
X80029230Y-99572270D01*
X79909247Y-99666518D01*
X79891915Y-99683024D01*
X79753283Y-99842783D01*
X79739384Y-99862268D01*
X79633463Y-100045359D01*
X79623499Y-100067121D01*
X79554111Y-100266938D01*
X79548443Y-100290191D01*
X79518091Y-100499524D01*
X79516922Y-100523430D01*
X79526702Y-100734725D01*
X79530074Y-100758420D01*
X79579632Y-100964055D01*
X79587424Y-100986685D01*
X79674973Y-101179238D01*
X79686904Y-101199987D01*
X79809284Y-101372511D01*
X79824923Y-101390629D01*
X79977719Y-101536899D01*
X79996502Y-101551733D01*
X80029258Y-101572884D01*
X79909593Y-101666882D01*
X79892261Y-101683387D01*
X79753692Y-101843073D01*
X79739793Y-101862559D01*
X79633920Y-102045568D01*
X79623956Y-102067330D01*
X79554599Y-102267057D01*
X79548930Y-102290315D01*
X79547537Y-102299925D01*
X79557560Y-102370210D01*
X79603991Y-102423919D01*
X79672234Y-102444000D01*
X81158000Y-102444000D01*
X81158000Y-102700000D01*
X79676483Y-102700000D01*
X79608362Y-102720002D01*
X79561869Y-102773658D01*
X79551765Y-102843932D01*
X79553990Y-102855521D01*
X79580107Y-102963891D01*
X79587899Y-102986521D01*
X79675408Y-103178988D01*
X79687339Y-103199737D01*
X79809664Y-103372183D01*
X79825303Y-103390301D01*
X79978030Y-103536505D01*
X79996813Y-103551339D01*
X80029230Y-103572270D01*
X79909247Y-103666518D01*
X79891915Y-103683024D01*
X79753283Y-103842783D01*
X79739384Y-103862268D01*
X79633463Y-104045359D01*
X79623499Y-104067121D01*
X79554111Y-104266938D01*
X79548443Y-104290191D01*
X79518091Y-104499524D01*
X79516922Y-104523430D01*
X79526702Y-104734725D01*
X79530074Y-104758420D01*
X79579632Y-104964055D01*
X79587424Y-104986685D01*
X79674973Y-105179238D01*
X79686904Y-105199987D01*
X79809284Y-105372511D01*
X79824923Y-105390629D01*
X79977719Y-105536899D01*
X79996502Y-105551733D01*
X80029258Y-105572884D01*
X79909593Y-105666882D01*
X79892261Y-105683387D01*
X79753692Y-105843073D01*
X79739793Y-105862559D01*
X79633920Y-106045568D01*
X79623956Y-106067330D01*
X79554599Y-106267057D01*
X79548930Y-106290315D01*
X79547537Y-106299925D01*
X79557560Y-106370210D01*
X79603991Y-106423919D01*
X79672234Y-106444000D01*
X81158000Y-106444000D01*
X81158000Y-106700000D01*
X79676483Y-106700000D01*
X79608362Y-106720002D01*
X79561869Y-106773658D01*
X79551765Y-106843932D01*
X79553990Y-106855521D01*
X79580107Y-106963891D01*
X79587899Y-106986521D01*
X79675408Y-107178988D01*
X79687339Y-107199737D01*
X79809664Y-107372183D01*
X79825303Y-107390301D01*
X79978030Y-107536505D01*
X79996813Y-107551339D01*
X80029230Y-107572270D01*
X79909247Y-107666518D01*
X79891915Y-107683024D01*
X79753283Y-107842783D01*
X79739384Y-107862268D01*
X79633463Y-108045359D01*
X79623499Y-108067121D01*
X79554111Y-108266938D01*
X79548443Y-108290191D01*
X79518091Y-108499524D01*
X79516922Y-108523430D01*
X79526702Y-108734725D01*
X79530074Y-108758420D01*
X79579632Y-108964055D01*
X79587424Y-108986685D01*
X79674973Y-109179238D01*
X79686904Y-109199987D01*
X79809284Y-109372511D01*
X79824923Y-109390629D01*
X79977719Y-109536899D01*
X79996502Y-109551733D01*
X80174200Y-109666472D01*
X80195450Y-109677486D01*
X80391639Y-109756552D01*
X80414587Y-109763350D01*
X80622187Y-109803892D01*
X80640183Y-109806078D01*
X80645745Y-109806350D01*
X80651899Y-109806500D01*
X81357846Y-109806500D01*
X81369813Y-109805930D01*
X81527533Y-109790882D01*
X81551035Y-109786357D01*
X81754003Y-109726813D01*
X81776226Y-109717924D01*
X81964272Y-109621074D01*
X81984413Y-109608144D01*
X82150753Y-109477482D01*
X82168085Y-109460976D01*
X82280439Y-109331500D01*
X82323017Y-109331500D01*
X82345652Y-109333640D01*
X82413729Y-109331500D01*
X82441640Y-109331500D01*
X82457430Y-109330507D01*
X82461441Y-109330000D01*
X82505632Y-109328611D01*
X82536825Y-109323670D01*
X82556276Y-109318019D01*
X82576374Y-109315480D01*
X82606965Y-109307626D01*
X82648079Y-109291348D01*
X82690529Y-109279015D01*
X82719517Y-109266471D01*
X82736953Y-109256159D01*
X82755783Y-109248704D01*
X82783461Y-109233489D01*
X82819231Y-109207501D01*
X82857286Y-109184995D01*
X82882241Y-109165637D01*
X82896562Y-109151316D01*
X82912952Y-109139408D01*
X82935976Y-109117788D01*
X82964167Y-109083711D01*
X83974952Y-108072927D01*
X84367501Y-108072927D01*
X84367501Y-108103312D01*
X84368579Y-108119756D01*
X84384240Y-108238722D01*
X84392753Y-108270495D01*
X84400181Y-108288427D01*
X84392753Y-108306359D01*
X84384240Y-108338131D01*
X84368578Y-108457096D01*
X84367500Y-108473542D01*
X84367501Y-108753311D01*
X84368579Y-108769756D01*
X84384240Y-108888722D01*
X84392753Y-108920495D01*
X84400181Y-108938427D01*
X84392753Y-108956359D01*
X84384240Y-108988131D01*
X84368578Y-109107096D01*
X84367500Y-109123542D01*
X84367501Y-109403311D01*
X84368579Y-109419756D01*
X84384240Y-109538722D01*
X84392753Y-109570495D01*
X84400181Y-109588427D01*
X84392753Y-109606359D01*
X84384240Y-109638131D01*
X84368578Y-109757096D01*
X84367500Y-109773542D01*
X84367501Y-110053311D01*
X84368579Y-110069756D01*
X84384240Y-110188722D01*
X84392753Y-110220495D01*
X84400452Y-110239081D01*
X84393241Y-110256489D01*
X84384728Y-110288260D01*
X84376997Y-110346980D01*
X84387936Y-110417129D01*
X84435064Y-110470228D01*
X84501919Y-110489427D01*
X84541431Y-110489427D01*
X84568051Y-110524118D01*
X84591309Y-110547376D01*
X84708665Y-110637427D01*
X84501920Y-110637427D01*
X84433799Y-110657429D01*
X84387306Y-110711085D01*
X84376998Y-110779872D01*
X84384728Y-110838592D01*
X84393241Y-110870365D01*
X84454504Y-111018268D01*
X84470951Y-111046754D01*
X84568408Y-111173761D01*
X84591666Y-111197019D01*
X84718673Y-111294476D01*
X84747159Y-111310923D01*
X84895062Y-111372186D01*
X84926834Y-111380699D01*
X85045707Y-111396349D01*
X85062153Y-111397427D01*
X85539500Y-111397427D01*
X85607621Y-111377425D01*
X85654114Y-111323769D01*
X85665500Y-111271427D01*
X85665500Y-110763427D01*
X85660949Y-110747926D01*
X85813500Y-110747926D01*
X85813500Y-111271426D01*
X85833502Y-111339547D01*
X85887158Y-111386040D01*
X85939500Y-111397426D01*
X86416846Y-111397426D01*
X86433291Y-111396348D01*
X86552165Y-111380699D01*
X86583938Y-111372186D01*
X86731841Y-111310923D01*
X86760327Y-111294476D01*
X86887334Y-111197019D01*
X86910592Y-111173761D01*
X87008049Y-111046754D01*
X87024496Y-111018268D01*
X87085759Y-110870365D01*
X87094272Y-110838593D01*
X87109922Y-110719720D01*
X87111000Y-110703273D01*
X87111000Y-110672927D01*
X87559406Y-110672927D01*
X87582041Y-110675067D01*
X87650118Y-110672927D01*
X87678029Y-110672927D01*
X87693819Y-110671934D01*
X87697830Y-110671427D01*
X87742021Y-110670038D01*
X87773214Y-110665097D01*
X87792665Y-110659446D01*
X87812763Y-110656907D01*
X87843354Y-110649053D01*
X87884468Y-110632775D01*
X87926918Y-110620442D01*
X87955906Y-110607898D01*
X87960409Y-110605235D01*
X88052220Y-110596879D01*
X88079736Y-110591231D01*
X88252244Y-110535180D01*
X88277825Y-110523576D01*
X88433629Y-110430698D01*
X88456004Y-110413715D01*
X88587358Y-110288628D01*
X88605414Y-110267109D01*
X88705791Y-110116029D01*
X88718631Y-110091046D01*
X88783043Y-109921482D01*
X88790029Y-109894274D01*
X88815273Y-109714653D01*
X88816487Y-109698875D01*
X88816804Y-109676158D01*
X88816031Y-109660355D01*
X88795812Y-109480100D01*
X88789588Y-109452708D01*
X88729936Y-109281411D01*
X88717799Y-109256078D01*
X88695786Y-109220850D01*
X88714030Y-109193390D01*
X88726870Y-109168407D01*
X88791282Y-108998843D01*
X88798268Y-108971635D01*
X88823512Y-108792014D01*
X88824726Y-108776236D01*
X88825043Y-108753519D01*
X88824270Y-108737716D01*
X88804051Y-108557461D01*
X88797827Y-108530069D01*
X88738175Y-108358772D01*
X88726038Y-108333440D01*
X88668628Y-108241564D01*
X88705791Y-108185629D01*
X88718631Y-108160646D01*
X88783043Y-107991082D01*
X88790029Y-107963874D01*
X88815273Y-107784253D01*
X88816487Y-107768475D01*
X88816804Y-107745758D01*
X88816031Y-107729955D01*
X88795812Y-107549700D01*
X88789588Y-107522308D01*
X88729936Y-107351011D01*
X88717799Y-107325679D01*
X88700639Y-107298216D01*
X88718569Y-107271229D01*
X88731409Y-107246246D01*
X88795821Y-107076682D01*
X88802807Y-107049474D01*
X88828051Y-106869853D01*
X88829265Y-106854075D01*
X88829582Y-106831358D01*
X88828809Y-106815555D01*
X88808590Y-106635300D01*
X88802366Y-106607908D01*
X88742714Y-106436611D01*
X88730577Y-106411279D01*
X88634458Y-106257455D01*
X88617010Y-106235440D01*
X88489199Y-106106734D01*
X88467307Y-106089133D01*
X88314158Y-105991942D01*
X88288911Y-105979628D01*
X88118035Y-105918782D01*
X88090687Y-105912367D01*
X87910577Y-105890890D01*
X87882487Y-105890694D01*
X87702095Y-105909654D01*
X87674661Y-105915686D01*
X87502952Y-105974140D01*
X87477535Y-105986101D01*
X87323044Y-106081145D01*
X87300908Y-106098439D01*
X87171313Y-106225348D01*
X87153560Y-106247116D01*
X87085038Y-106353441D01*
X87078819Y-106338427D01*
X87086247Y-106320495D01*
X87094760Y-106288723D01*
X87110422Y-106169758D01*
X87111500Y-106153312D01*
X87111499Y-105873543D01*
X87110421Y-105857098D01*
X87094760Y-105738132D01*
X87086247Y-105706359D01*
X87078819Y-105688427D01*
X87086247Y-105670495D01*
X87094760Y-105638723D01*
X87110422Y-105519758D01*
X87111500Y-105503312D01*
X87111499Y-105223543D01*
X87110421Y-105207098D01*
X87094760Y-105088132D01*
X87086247Y-105056359D01*
X87078819Y-105038427D01*
X87086247Y-105020495D01*
X87094760Y-104988723D01*
X87110422Y-104869758D01*
X87111500Y-104853312D01*
X87111499Y-104573543D01*
X87110421Y-104557098D01*
X87094760Y-104438132D01*
X87086247Y-104406359D01*
X87078548Y-104387773D01*
X87085759Y-104370365D01*
X87094272Y-104338594D01*
X87102003Y-104279874D01*
X87091064Y-104209725D01*
X87043936Y-104156626D01*
X86977081Y-104137427D01*
X86937569Y-104137427D01*
X86910949Y-104102736D01*
X86887691Y-104079478D01*
X86770335Y-103989427D01*
X86977080Y-103989427D01*
X87045201Y-103969425D01*
X87091694Y-103915769D01*
X87102002Y-103846982D01*
X87094272Y-103788262D01*
X87085759Y-103756489D01*
X87078277Y-103738427D01*
X87085759Y-103720365D01*
X87094272Y-103688594D01*
X87102003Y-103629874D01*
X87091064Y-103559725D01*
X87043936Y-103506626D01*
X86977081Y-103487427D01*
X85939500Y-103487427D01*
X85871379Y-103507429D01*
X85824886Y-103561085D01*
X85813500Y-103613427D01*
X85813500Y-103863427D01*
X85818051Y-103878928D01*
X85665500Y-103878928D01*
X85665500Y-103213427D01*
X85813500Y-103213427D01*
X85833502Y-103281548D01*
X85887158Y-103328041D01*
X85939500Y-103339427D01*
X86977080Y-103339427D01*
X87045201Y-103319425D01*
X87091694Y-103265769D01*
X87102002Y-103196982D01*
X87094272Y-103138262D01*
X87085759Y-103106489D01*
X87024496Y-102958586D01*
X87008049Y-102930100D01*
X86910592Y-102803093D01*
X86887334Y-102779835D01*
X86760327Y-102682378D01*
X86731841Y-102665931D01*
X86583938Y-102604668D01*
X86552166Y-102596155D01*
X86433293Y-102580505D01*
X86416847Y-102579427D01*
X85939500Y-102579427D01*
X85871379Y-102599429D01*
X85824886Y-102653085D01*
X85813500Y-102705427D01*
X85813500Y-103213427D01*
X85665500Y-103213427D01*
X85665500Y-102705428D01*
X85645498Y-102637307D01*
X85591842Y-102590814D01*
X85539500Y-102579428D01*
X85062154Y-102579428D01*
X85045709Y-102580506D01*
X84926835Y-102596155D01*
X84895062Y-102604668D01*
X84747159Y-102665931D01*
X84718673Y-102682378D01*
X84591666Y-102779835D01*
X84568408Y-102803093D01*
X84470951Y-102930100D01*
X84454504Y-102958586D01*
X84393241Y-103106489D01*
X84384728Y-103138261D01*
X84369078Y-103257134D01*
X84368205Y-103270447D01*
X84244457Y-103226382D01*
X84217109Y-103219967D01*
X84036999Y-103198490D01*
X84008909Y-103198294D01*
X83861500Y-103213787D01*
X83861500Y-100702583D01*
X84398500Y-101239582D01*
X84398500Y-101665400D01*
X84399173Y-101678404D01*
X84410147Y-101784170D01*
X84415950Y-101811042D01*
X84471926Y-101978822D01*
X84484306Y-102005249D01*
X84577378Y-102155651D01*
X84595504Y-102178521D01*
X84720679Y-102303478D01*
X84743581Y-102321565D01*
X84894146Y-102414375D01*
X84920595Y-102426708D01*
X85088472Y-102482390D01*
X85115296Y-102488141D01*
X85219757Y-102498844D01*
X85232600Y-102499500D01*
X86008400Y-102499500D01*
X86021404Y-102498827D01*
X86127170Y-102487853D01*
X86154042Y-102482050D01*
X86321822Y-102426074D01*
X86348249Y-102413694D01*
X86498651Y-102320622D01*
X86521521Y-102302496D01*
X86646478Y-102177321D01*
X86658316Y-102162332D01*
X86670899Y-102178208D01*
X86795991Y-102303083D01*
X86818893Y-102321170D01*
X86969359Y-102413918D01*
X86995807Y-102426251D01*
X87163573Y-102481897D01*
X87190399Y-102487648D01*
X87294795Y-102498344D01*
X87307637Y-102499000D01*
X87441500Y-102499000D01*
X87509621Y-102478998D01*
X87556114Y-102425342D01*
X87567500Y-102373000D01*
X87567500Y-99907001D01*
X87547498Y-99838880D01*
X87493842Y-99792387D01*
X87441500Y-99781001D01*
X87307638Y-99781001D01*
X87294635Y-99781674D01*
X87188934Y-99792641D01*
X87162061Y-99798444D01*
X86994392Y-99854382D01*
X86967965Y-99866762D01*
X86817662Y-99959773D01*
X86794792Y-99977899D01*
X86669917Y-100102991D01*
X86658326Y-100117667D01*
X86645496Y-100101479D01*
X86520321Y-99976522D01*
X86497419Y-99958435D01*
X86346854Y-99865625D01*
X86320405Y-99853292D01*
X86152528Y-99797610D01*
X86125704Y-99791859D01*
X86021243Y-99781156D01*
X86008400Y-99780500D01*
X85582582Y-99780500D01*
X84964500Y-99162418D01*
X84964500Y-95989082D01*
X85931682Y-95021900D01*
X86039123Y-95072000D01*
X85929074Y-95123317D01*
X85910053Y-95134299D01*
X85727948Y-95261810D01*
X85711124Y-95275928D01*
X85553928Y-95433124D01*
X85539810Y-95449948D01*
X85412299Y-95632053D01*
X85401317Y-95651074D01*
X85307365Y-95852554D01*
X85299853Y-95873193D01*
X85242315Y-96087926D01*
X85238501Y-96109556D01*
X85219126Y-96331019D01*
X85219126Y-96352981D01*
X85238501Y-96574444D01*
X85242315Y-96596074D01*
X85299853Y-96810807D01*
X85307365Y-96831446D01*
X85401317Y-97032926D01*
X85412299Y-97051947D01*
X85539810Y-97234052D01*
X85553928Y-97250876D01*
X85711124Y-97408072D01*
X85727948Y-97422190D01*
X85910052Y-97549701D01*
X85929073Y-97560683D01*
X86130554Y-97654635D01*
X86151193Y-97662147D01*
X86365926Y-97719685D01*
X86387556Y-97723499D01*
X86609019Y-97742874D01*
X86630981Y-97742874D01*
X86850500Y-97723669D01*
X86850500Y-98233233D01*
X86848360Y-98255868D01*
X86850500Y-98323945D01*
X86850500Y-98351856D01*
X86851493Y-98367646D01*
X86852000Y-98371657D01*
X86853389Y-98415848D01*
X86858330Y-98447041D01*
X86863981Y-98466492D01*
X86866520Y-98486590D01*
X86874374Y-98517181D01*
X86890652Y-98558295D01*
X86902985Y-98600745D01*
X86915529Y-98629733D01*
X86925841Y-98647169D01*
X86933296Y-98665999D01*
X86948511Y-98693677D01*
X86974499Y-98729447D01*
X86997005Y-98767502D01*
X87016363Y-98792457D01*
X87030684Y-98806778D01*
X87042592Y-98823168D01*
X87064212Y-98846192D01*
X87098289Y-98874383D01*
X88004906Y-99781000D01*
X87949500Y-99781000D01*
X87881379Y-99801002D01*
X87834886Y-99854658D01*
X87823500Y-99907000D01*
X87823500Y-102372999D01*
X87843502Y-102441120D01*
X87897158Y-102487613D01*
X87949500Y-102498999D01*
X88083362Y-102498999D01*
X88096365Y-102498326D01*
X88202066Y-102487359D01*
X88228939Y-102481556D01*
X88396608Y-102425618D01*
X88423035Y-102413238D01*
X88573338Y-102320227D01*
X88596208Y-102302101D01*
X88680500Y-102217663D01*
X88680500Y-104983233D01*
X88678360Y-105005868D01*
X88680500Y-105073945D01*
X88680500Y-105101856D01*
X88681493Y-105117646D01*
X88682000Y-105121657D01*
X88683389Y-105165848D01*
X88688330Y-105197041D01*
X88693981Y-105216492D01*
X88696520Y-105236590D01*
X88704374Y-105267181D01*
X88720652Y-105308295D01*
X88732985Y-105350745D01*
X88745529Y-105379733D01*
X88755841Y-105397169D01*
X88763296Y-105415999D01*
X88778511Y-105443677D01*
X88804499Y-105479447D01*
X88827005Y-105517502D01*
X88846363Y-105542457D01*
X88860684Y-105556778D01*
X88872592Y-105573168D01*
X88894212Y-105596192D01*
X88928289Y-105624383D01*
X90037248Y-106733342D01*
X90051747Y-106750868D01*
X90101414Y-106797508D01*
X90121135Y-106817229D01*
X90133007Y-106827696D01*
X90136194Y-106830168D01*
X90168426Y-106860436D01*
X90193979Y-106879001D01*
X90211730Y-106888760D01*
X90227732Y-106901172D01*
X90254917Y-106917249D01*
X90295486Y-106934805D01*
X90334240Y-106956110D01*
X90363606Y-106967737D01*
X90383226Y-106972774D01*
X90401813Y-106980818D01*
X90432143Y-106989630D01*
X90475811Y-106996547D01*
X90518636Y-107007542D01*
X90549970Y-107011500D01*
X90570224Y-107011500D01*
X90590232Y-107014669D01*
X90621801Y-107015661D01*
X90665819Y-107011500D01*
X91816898Y-107011500D01*
X91809728Y-107038260D01*
X91801997Y-107096980D01*
X91812936Y-107167129D01*
X91860064Y-107220228D01*
X91926919Y-107239427D01*
X91966431Y-107239427D01*
X91993051Y-107274118D01*
X92016309Y-107297376D01*
X92037226Y-107313427D01*
X92016308Y-107329478D01*
X91993051Y-107352736D01*
X91966431Y-107387427D01*
X91926920Y-107387427D01*
X91858799Y-107407429D01*
X91822698Y-107449092D01*
X91727917Y-107459054D01*
X91700483Y-107465086D01*
X91528774Y-107523540D01*
X91503357Y-107535501D01*
X91348866Y-107630545D01*
X91326730Y-107647839D01*
X91197135Y-107774748D01*
X91179382Y-107796516D01*
X91081124Y-107948983D01*
X91068634Y-107974143D01*
X91031904Y-108075057D01*
X90945799Y-108064790D01*
X90917709Y-108064594D01*
X90737317Y-108083554D01*
X90709883Y-108089586D01*
X90538174Y-108148040D01*
X90512757Y-108160001D01*
X90358266Y-108255045D01*
X90336130Y-108272339D01*
X90206535Y-108399248D01*
X90188782Y-108421016D01*
X90090524Y-108573483D01*
X90078034Y-108598643D01*
X90015996Y-108769090D01*
X90009391Y-108796393D01*
X89986657Y-108976348D01*
X89986264Y-109004435D01*
X90003964Y-109184955D01*
X90009805Y-109212432D01*
X90067060Y-109384545D01*
X90078842Y-109410044D01*
X90172804Y-109565195D01*
X90189943Y-109587451D01*
X90315945Y-109717929D01*
X90337589Y-109735834D01*
X90489366Y-109835154D01*
X90514439Y-109847819D01*
X90684448Y-109911045D01*
X90711703Y-109917841D01*
X90891496Y-109941831D01*
X90919581Y-109942419D01*
X91100220Y-109925979D01*
X91127736Y-109920331D01*
X91178051Y-109903983D01*
X91189159Y-109912599D01*
X91216344Y-109928676D01*
X91256913Y-109946232D01*
X91295667Y-109967537D01*
X91325033Y-109979164D01*
X91344653Y-109984201D01*
X91363240Y-109992245D01*
X91393570Y-110001057D01*
X91437238Y-110007974D01*
X91480063Y-110018969D01*
X91511397Y-110022927D01*
X91531651Y-110022927D01*
X91551659Y-110026096D01*
X91583228Y-110027088D01*
X91627246Y-110022927D01*
X91792501Y-110022927D01*
X91792501Y-110053312D01*
X91793579Y-110069756D01*
X91809240Y-110188722D01*
X91817753Y-110220495D01*
X91825181Y-110238427D01*
X91817753Y-110256359D01*
X91809240Y-110288131D01*
X91793578Y-110407096D01*
X91792500Y-110423542D01*
X91792501Y-110703311D01*
X91793579Y-110719756D01*
X91809240Y-110838722D01*
X91817753Y-110870495D01*
X91879067Y-111018521D01*
X91895514Y-111047008D01*
X91993051Y-111174119D01*
X92016309Y-111197376D01*
X92143421Y-111294913D01*
X92171907Y-111311360D01*
X92319932Y-111372674D01*
X92351704Y-111381187D01*
X92470669Y-111396849D01*
X92487115Y-111397927D01*
X93403912Y-111397926D01*
X93084339Y-111717500D01*
X84958922Y-111717500D01*
X84901218Y-111713566D01*
X84870985Y-111715150D01*
X84808028Y-111726138D01*
X84744621Y-111733811D01*
X84715220Y-111741032D01*
X84708811Y-111743454D01*
X84702054Y-111744633D01*
X84673072Y-111753383D01*
X84614560Y-111779067D01*
X84554806Y-111801647D01*
X84527976Y-111815674D01*
X84522329Y-111819555D01*
X84516051Y-111822311D01*
X84489990Y-111837723D01*
X84439303Y-111876618D01*
X84386653Y-111912802D01*
X84363943Y-111932824D01*
X84322489Y-111979351D01*
X83684340Y-112617500D01*
X82831866Y-112617500D01*
X82818258Y-112618237D01*
X82756076Y-112624992D01*
X82725454Y-112632273D01*
X82589065Y-112683403D01*
X82557730Y-112700559D01*
X82441174Y-112787913D01*
X82415913Y-112813174D01*
X82414500Y-112815059D01*
X82414500Y-112691594D01*
X82915232Y-112190862D01*
X83019248Y-112229545D01*
X83046503Y-112236341D01*
X83226296Y-112260331D01*
X83254381Y-112260919D01*
X83435020Y-112244479D01*
X83462536Y-112238831D01*
X83635044Y-112182780D01*
X83660625Y-112171176D01*
X83816429Y-112078298D01*
X83838804Y-112061315D01*
X83970158Y-111936228D01*
X83988214Y-111914709D01*
X84088591Y-111763629D01*
X84101431Y-111738646D01*
X84165843Y-111569082D01*
X84172829Y-111541874D01*
X84198073Y-111362253D01*
X84199287Y-111346475D01*
X84199604Y-111323758D01*
X84198831Y-111307955D01*
X84178612Y-111127700D01*
X84172388Y-111100308D01*
X84112736Y-110929011D01*
X84100599Y-110903679D01*
X84004480Y-110749855D01*
X83987032Y-110727840D01*
X83859221Y-110599134D01*
X83837329Y-110581533D01*
X83684180Y-110484342D01*
X83658933Y-110472028D01*
X83488057Y-110411182D01*
X83460709Y-110404767D01*
X83280599Y-110383290D01*
X83252509Y-110383094D01*
X83072117Y-110402054D01*
X83044683Y-110408086D01*
X82872974Y-110466540D01*
X82847557Y-110478501D01*
X82711718Y-110562070D01*
X82698045Y-110562500D01*
X82670144Y-110562500D01*
X82654356Y-110563493D01*
X82650353Y-110563999D01*
X82606152Y-110565388D01*
X82574957Y-110570329D01*
X82555504Y-110575981D01*
X82535412Y-110578519D01*
X82504820Y-110586374D01*
X82463710Y-110602650D01*
X82421252Y-110614986D01*
X82392267Y-110627529D01*
X82374831Y-110637841D01*
X82356001Y-110645296D01*
X82328323Y-110660511D01*
X82292553Y-110686499D01*
X82254498Y-110709005D01*
X82229543Y-110728363D01*
X82215222Y-110742684D01*
X82198832Y-110754592D01*
X82175808Y-110776212D01*
X82147622Y-110810283D01*
X81290404Y-111667500D01*
X79831866Y-111667500D01*
X79818258Y-111668237D01*
X79756076Y-111674992D01*
X79725454Y-111682273D01*
X79589065Y-111733403D01*
X79557730Y-111750559D01*
X79441174Y-111837913D01*
X79415913Y-111863174D01*
X79328559Y-111979730D01*
X79311403Y-112011065D01*
X79260273Y-112147454D01*
X79252992Y-112178076D01*
X79246237Y-112240258D01*
X79245500Y-112253866D01*
X79245500Y-113150134D01*
X79246237Y-113163742D01*
X79252992Y-113225924D01*
X79260273Y-113256546D01*
X79311403Y-113392935D01*
X79328559Y-113424270D01*
X79415913Y-113540826D01*
X79441174Y-113566087D01*
X79556224Y-113652313D01*
X79441531Y-113738270D01*
X79416270Y-113763531D01*
X79329002Y-113879973D01*
X79311846Y-113911308D01*
X79260766Y-114047563D01*
X79253485Y-114078185D01*
X79246737Y-114140303D01*
X79246000Y-114153911D01*
X79246000Y-114348000D01*
X79266002Y-114416121D01*
X79319658Y-114462614D01*
X79372000Y-114474000D01*
X82287999Y-114474000D01*
X82356120Y-114453998D01*
X82373382Y-114434077D01*
X82415913Y-114490826D01*
X82441174Y-114516087D01*
X82557730Y-114603441D01*
X82589065Y-114620597D01*
X82720500Y-114669870D01*
X82720500Y-115922803D01*
X82666177Y-115940927D01*
X82639751Y-115953306D01*
X82489349Y-116046378D01*
X82466479Y-116064504D01*
X82341522Y-116189679D01*
X82329684Y-116204668D01*
X82317101Y-116188792D01*
X82192009Y-116063917D01*
X82169107Y-116045830D01*
X82018641Y-115953082D01*
X81992193Y-115940749D01*
X81824427Y-115885103D01*
X81797601Y-115879352D01*
X81693205Y-115868656D01*
X81680363Y-115868000D01*
X81546500Y-115868000D01*
X81478379Y-115888002D01*
X81431886Y-115941658D01*
X81420500Y-115994000D01*
X81420500Y-118459999D01*
X81440502Y-118528120D01*
X81494158Y-118574613D01*
X81546500Y-118585999D01*
X81680362Y-118585999D01*
X81693365Y-118585326D01*
X81799066Y-118574359D01*
X81825939Y-118568556D01*
X81993608Y-118512618D01*
X82020035Y-118500238D01*
X82170338Y-118407227D01*
X82193208Y-118389101D01*
X82318083Y-118264009D01*
X82329674Y-118249333D01*
X82342504Y-118265521D01*
X82467679Y-118390478D01*
X82490581Y-118408565D01*
X82641146Y-118501375D01*
X82667595Y-118513708D01*
X82835472Y-118569390D01*
X82862296Y-118575141D01*
X82966757Y-118585844D01*
X82979600Y-118586500D01*
X83755400Y-118586500D01*
X83768404Y-118585827D01*
X83874170Y-118574853D01*
X83901042Y-118569050D01*
X84068822Y-118513074D01*
X84095249Y-118500694D01*
X84245651Y-118407622D01*
X84268521Y-118389496D01*
X84393478Y-118264321D01*
X84411565Y-118241419D01*
X84504375Y-118090854D01*
X84516708Y-118064405D01*
X84572390Y-117896528D01*
X84578141Y-117869704D01*
X84588844Y-117765243D01*
X84589500Y-117752400D01*
X84589500Y-116701600D01*
X84588827Y-116688596D01*
X84577853Y-116582830D01*
X84572050Y-116555958D01*
X84535577Y-116446636D01*
X87861249Y-116446636D01*
X87879651Y-116809897D01*
X87881076Y-116823450D01*
X87938603Y-117182599D01*
X87941483Y-117195919D01*
X88037460Y-117546754D01*
X88041761Y-117559685D01*
X88175068Y-117898103D01*
X88180741Y-117910494D01*
X88349816Y-118232535D01*
X88356794Y-118244241D01*
X88559661Y-118546139D01*
X88567863Y-118557023D01*
X88706231Y-118721339D01*
X88765410Y-118760562D01*
X88836399Y-118761564D01*
X88891706Y-118729274D01*
X91079885Y-116541095D01*
X91113911Y-116478783D01*
X91108846Y-116407968D01*
X91079885Y-116362905D01*
X88891810Y-114174830D01*
X88829498Y-114140804D01*
X88758683Y-114145869D01*
X88706903Y-114182095D01*
X88582626Y-114327606D01*
X88574350Y-114338432D01*
X88369380Y-114638906D01*
X88362320Y-114650563D01*
X88191001Y-114971417D01*
X88185242Y-114983767D01*
X88049576Y-115321245D01*
X88045184Y-115334146D01*
X87946759Y-115684303D01*
X87943786Y-115697603D01*
X87883754Y-116056342D01*
X87882235Y-116069885D01*
X87861297Y-116433008D01*
X87861249Y-116446636D01*
X84535577Y-116446636D01*
X84516074Y-116388178D01*
X84503694Y-116361751D01*
X84410622Y-116211349D01*
X84392495Y-116188479D01*
X84389500Y-116185489D01*
X84389500Y-114686500D01*
X84828134Y-114686500D01*
X84841742Y-114685763D01*
X84903924Y-114679008D01*
X84934546Y-114671727D01*
X85070935Y-114620597D01*
X85102270Y-114603441D01*
X85218826Y-114516087D01*
X85244087Y-114490826D01*
X85331441Y-114374270D01*
X85348597Y-114342935D01*
X85399727Y-114206546D01*
X85407008Y-114175924D01*
X85413763Y-114113742D01*
X85414500Y-114100134D01*
X85414500Y-113386500D01*
X89687790Y-113386500D01*
X89404766Y-113555887D01*
X89393468Y-113563508D01*
X89103366Y-113782911D01*
X89092956Y-113791707D01*
X89073004Y-113810509D01*
X89037146Y-113871785D01*
X89040108Y-113942719D01*
X89070323Y-113991303D01*
X91260905Y-116181885D01*
X91323217Y-116215911D01*
X91394032Y-116210846D01*
X91439095Y-116181885D01*
X93630073Y-113990907D01*
X93664099Y-113928595D01*
X93659034Y-113857780D01*
X93627713Y-113810417D01*
X93616318Y-113799603D01*
X93605937Y-113790768D01*
X93316602Y-113570354D01*
X93305331Y-113562694D01*
X93013251Y-113386500D01*
X93401088Y-113386500D01*
X93458782Y-113390433D01*
X93489015Y-113388849D01*
X93551962Y-113377863D01*
X93615379Y-113370189D01*
X93644780Y-113362968D01*
X93651189Y-113360546D01*
X93657946Y-113359367D01*
X93686930Y-113350616D01*
X93745441Y-113324931D01*
X93805193Y-113302353D01*
X93832020Y-113288329D01*
X93837670Y-113284446D01*
X93843955Y-113281687D01*
X93870010Y-113266277D01*
X93920697Y-113227382D01*
X93973347Y-113191198D01*
X93996057Y-113171176D01*
X94037511Y-113124649D01*
X94716000Y-112446160D01*
X94716000Y-115552316D01*
X94658698Y-115345690D01*
X94654352Y-115332774D01*
X94519865Y-114994823D01*
X94514148Y-114982452D01*
X94343949Y-114661003D01*
X94336931Y-114649322D01*
X94133012Y-114348134D01*
X94124772Y-114337279D01*
X93993419Y-114182392D01*
X93934105Y-114143375D01*
X93863112Y-114142620D01*
X93808228Y-114174792D01*
X91620115Y-116362905D01*
X91586089Y-116425217D01*
X91591154Y-116496032D01*
X91620115Y-116541095D01*
X93808180Y-118729160D01*
X93870492Y-118763186D01*
X93941307Y-118758121D01*
X93992800Y-118722230D01*
X94109941Y-118586042D01*
X94118256Y-118575244D01*
X94324273Y-118275487D01*
X94331373Y-118263855D01*
X94503812Y-117943602D01*
X94509615Y-117931271D01*
X94646458Y-117594268D01*
X94650894Y-117581383D01*
X94716000Y-117352826D01*
X94716000Y-119318000D01*
X93335466Y-119318000D01*
X93587304Y-119128915D01*
X93597744Y-119120155D01*
X93626308Y-119093425D01*
X93662380Y-119032275D01*
X93659665Y-118961330D01*
X93629310Y-118912330D01*
X91439095Y-116722115D01*
X91376783Y-116688089D01*
X91305968Y-116693154D01*
X91260905Y-116722115D01*
X89069502Y-118913518D01*
X89035476Y-118975830D01*
X89040541Y-119046645D01*
X89071555Y-119093716D01*
X89074449Y-119096481D01*
X89084787Y-119105340D01*
X89361930Y-119318000D01*
X78384000Y-119318000D01*
X78384000Y-117752362D01*
X80071001Y-117752362D01*
X80071674Y-117765365D01*
X80082641Y-117871066D01*
X80088444Y-117897939D01*
X80144382Y-118065608D01*
X80156762Y-118092035D01*
X80249773Y-118242338D01*
X80267899Y-118265208D01*
X80392991Y-118390083D01*
X80415893Y-118408170D01*
X80566359Y-118500918D01*
X80592807Y-118513251D01*
X80760573Y-118568897D01*
X80787399Y-118574648D01*
X80891795Y-118585344D01*
X80904637Y-118586000D01*
X81038500Y-118586000D01*
X81106621Y-118565998D01*
X81153114Y-118512342D01*
X81164500Y-118460000D01*
X81164500Y-117481000D01*
X81144498Y-117412879D01*
X81090842Y-117366386D01*
X81038500Y-117355000D01*
X80197001Y-117355000D01*
X80128880Y-117375002D01*
X80082387Y-117428658D01*
X80071001Y-117481000D01*
X80071001Y-117752362D01*
X78384000Y-117752362D01*
X78384000Y-116973000D01*
X80071000Y-116973000D01*
X80091002Y-117041121D01*
X80144658Y-117087614D01*
X80197000Y-117099000D01*
X81038500Y-117099000D01*
X81106621Y-117078998D01*
X81153114Y-117025342D01*
X81164500Y-116973000D01*
X81164500Y-115994001D01*
X81144498Y-115925880D01*
X81090842Y-115879387D01*
X81038500Y-115868001D01*
X80904638Y-115868001D01*
X80891635Y-115868674D01*
X80785934Y-115879641D01*
X80759061Y-115885444D01*
X80591392Y-115941382D01*
X80564965Y-115953762D01*
X80414662Y-116046773D01*
X80391792Y-116064899D01*
X80266917Y-116189991D01*
X80248830Y-116212893D01*
X80156082Y-116363359D01*
X80143749Y-116389807D01*
X80088103Y-116557573D01*
X80082352Y-116584399D01*
X80071656Y-116688795D01*
X80071000Y-116701637D01*
X80071000Y-116973000D01*
X78384000Y-116973000D01*
X78384000Y-115050088D01*
X79246001Y-115050088D01*
X79246738Y-115063693D01*
X79253485Y-115125812D01*
X79260766Y-115156437D01*
X79311846Y-115292692D01*
X79329002Y-115324027D01*
X79416270Y-115440469D01*
X79441531Y-115465730D01*
X79557973Y-115552998D01*
X79589308Y-115570154D01*
X79725563Y-115621234D01*
X79756185Y-115628515D01*
X79818303Y-115635263D01*
X79831911Y-115636000D01*
X80576000Y-115636000D01*
X80644121Y-115615998D01*
X80690614Y-115562342D01*
X80702000Y-115510000D01*
X80702000Y-115509999D01*
X80958000Y-115509999D01*
X80978002Y-115578120D01*
X81031658Y-115624613D01*
X81084000Y-115635999D01*
X81828088Y-115635999D01*
X81841693Y-115635262D01*
X81903812Y-115628515D01*
X81934437Y-115621234D01*
X82070692Y-115570154D01*
X82102027Y-115552998D01*
X82218469Y-115465730D01*
X82243730Y-115440469D01*
X82330998Y-115324027D01*
X82348154Y-115292692D01*
X82399234Y-115156437D01*
X82406515Y-115125815D01*
X82413263Y-115063697D01*
X82414000Y-115050089D01*
X82414000Y-114856000D01*
X82393998Y-114787879D01*
X82340342Y-114741386D01*
X82288000Y-114730000D01*
X81084000Y-114730000D01*
X81015879Y-114750002D01*
X80969386Y-114803658D01*
X80958000Y-114856000D01*
X80958000Y-115509999D01*
X80702000Y-115509999D01*
X80702000Y-114856000D01*
X80681998Y-114787879D01*
X80628342Y-114741386D01*
X80576000Y-114730000D01*
X79372001Y-114730000D01*
X79303880Y-114750002D01*
X79257387Y-114803658D01*
X79246001Y-114856000D01*
X79246001Y-115050088D01*
X78384000Y-115050088D01*
X78384000Y-92523430D01*
X79516922Y-92523430D01*
X79526702Y-92734725D01*
X79530074Y-92758420D01*
X79579632Y-92964055D01*
X79587424Y-92986685D01*
X79674973Y-93179238D01*
X79686904Y-93199987D01*
X79809284Y-93372511D01*
X79824923Y-93390629D01*
X79977719Y-93536899D01*
X79996502Y-93551733D01*
X80029258Y-93572884D01*
X79909593Y-93666882D01*
X79892261Y-93683387D01*
X79753692Y-93843073D01*
X79739793Y-93862559D01*
X79633920Y-94045568D01*
X79623956Y-94067330D01*
X79554599Y-94267057D01*
X79548930Y-94290315D01*
X79547537Y-94299925D01*
X79557560Y-94370210D01*
X79603991Y-94423919D01*
X79672234Y-94444000D01*
X82383517Y-94444000D01*
X82451638Y-94423998D01*
X82498131Y-94370342D01*
X82508235Y-94300068D01*
X82506010Y-94288479D01*
X82479893Y-94180109D01*
X82472101Y-94157479D01*
X82384592Y-93965012D01*
X82372661Y-93944263D01*
X82250336Y-93771817D01*
X82234697Y-93753699D01*
X82081970Y-93607495D01*
X82063187Y-93592661D01*
X82030770Y-93571730D01*
X82150753Y-93477482D01*
X82168085Y-93460976D01*
X82306717Y-93301217D01*
X82320616Y-93281732D01*
X82426537Y-93098641D01*
X82436501Y-93076879D01*
X82505889Y-92877062D01*
X82511557Y-92853809D01*
X82541909Y-92644476D01*
X82543078Y-92620570D01*
X82533298Y-92409275D01*
X82529926Y-92385580D01*
X82480368Y-92179945D01*
X82472576Y-92157315D01*
X82385027Y-91964762D01*
X82373096Y-91944013D01*
X82250716Y-91771489D01*
X82235077Y-91753371D01*
X82139813Y-91662176D01*
X82195651Y-91627622D01*
X82218521Y-91609496D01*
X82343478Y-91484321D01*
X82361565Y-91461419D01*
X82454375Y-91310854D01*
X82466708Y-91284405D01*
X82470497Y-91272982D01*
X85219628Y-91272982D01*
X85238996Y-91494358D01*
X85242810Y-91515987D01*
X85300325Y-91730636D01*
X85307837Y-91751275D01*
X85401752Y-91952675D01*
X85412733Y-91971694D01*
X85456971Y-92034874D01*
X85512428Y-92079204D01*
X85583047Y-92086514D01*
X85649280Y-92051700D01*
X86349885Y-91351095D01*
X86383911Y-91288783D01*
X86380080Y-91235217D01*
X86856089Y-91235217D01*
X86861154Y-91306032D01*
X86890115Y-91351095D01*
X87590720Y-92051700D01*
X87653032Y-92085726D01*
X87723847Y-92080661D01*
X87783029Y-92034874D01*
X87827267Y-91971694D01*
X87838248Y-91952675D01*
X87932163Y-91751275D01*
X87939675Y-91730636D01*
X87997190Y-91515987D01*
X88001004Y-91494358D01*
X88020372Y-91272982D01*
X88020372Y-91251018D01*
X88001004Y-91029642D01*
X87997190Y-91008013D01*
X87939675Y-90793364D01*
X87932163Y-90772725D01*
X87838248Y-90571325D01*
X87827267Y-90552306D01*
X87783029Y-90489126D01*
X87727572Y-90444796D01*
X87656953Y-90437486D01*
X87590720Y-90472300D01*
X86890115Y-91172905D01*
X86856089Y-91235217D01*
X86380080Y-91235217D01*
X86378846Y-91217968D01*
X86349885Y-91172905D01*
X85649280Y-90472300D01*
X85586968Y-90438274D01*
X85516153Y-90443339D01*
X85456971Y-90489126D01*
X85412733Y-90552306D01*
X85401752Y-90571325D01*
X85307837Y-90772725D01*
X85300325Y-90793364D01*
X85242810Y-91008013D01*
X85238996Y-91029642D01*
X85219628Y-91251018D01*
X85219628Y-91272982D01*
X82470497Y-91272982D01*
X82522390Y-91116528D01*
X82528141Y-91089704D01*
X82538844Y-90985243D01*
X82539500Y-90972400D01*
X82539500Y-90225047D01*
X85795486Y-90225047D01*
X85830300Y-90291280D01*
X86530905Y-90991885D01*
X86593217Y-91025911D01*
X86664032Y-91020846D01*
X86709095Y-90991885D01*
X87409700Y-90291280D01*
X87443726Y-90228968D01*
X87438661Y-90158153D01*
X87412271Y-90124043D01*
X88194745Y-90124043D01*
X88195821Y-90141149D01*
X88233346Y-90426180D01*
X88236734Y-90442982D01*
X88312595Y-90720284D01*
X88318232Y-90736471D01*
X88431026Y-91000911D01*
X88438807Y-91016182D01*
X88586445Y-91262867D01*
X88596227Y-91276942D01*
X88775979Y-91501309D01*
X88787580Y-91513925D01*
X88996118Y-91711820D01*
X89009325Y-91722745D01*
X89242791Y-91890508D01*
X89257358Y-91899540D01*
X89511433Y-92034066D01*
X89527091Y-92041038D01*
X89797072Y-92139837D01*
X89813531Y-92144619D01*
X90094422Y-92205863D01*
X90111378Y-92208367D01*
X90336853Y-92226112D01*
X90346739Y-92226500D01*
X90502271Y-92226500D01*
X90510841Y-92226208D01*
X90725395Y-92211581D01*
X90742376Y-92209255D01*
X91023893Y-92150956D01*
X91040402Y-92146347D01*
X91311403Y-92050380D01*
X91327133Y-92043573D01*
X91582602Y-91911716D01*
X91597263Y-91902837D01*
X91832474Y-91737528D01*
X91845794Y-91726741D01*
X92056393Y-91531040D01*
X92068126Y-91518546D01*
X92250217Y-91296074D01*
X92260146Y-91282103D01*
X92410360Y-91036977D01*
X92418300Y-91021787D01*
X92533856Y-90758543D01*
X92539662Y-90742417D01*
X92618423Y-90465925D01*
X92621987Y-90449159D01*
X92662494Y-90164537D01*
X92663749Y-90147444D01*
X92665255Y-89859957D01*
X92664179Y-89842851D01*
X92626654Y-89557820D01*
X92623266Y-89541018D01*
X92547405Y-89263716D01*
X92541768Y-89247529D01*
X92428974Y-88983089D01*
X92421193Y-88967818D01*
X92273555Y-88721133D01*
X92263773Y-88707058D01*
X92084021Y-88482691D01*
X92072420Y-88470075D01*
X91863882Y-88272180D01*
X91850675Y-88261255D01*
X91617209Y-88093492D01*
X91602642Y-88084460D01*
X91348567Y-87949934D01*
X91332909Y-87942962D01*
X91062928Y-87844163D01*
X91046469Y-87839381D01*
X90765578Y-87778137D01*
X90748622Y-87775633D01*
X90523147Y-87757888D01*
X90513261Y-87757500D01*
X90357729Y-87757500D01*
X90349159Y-87757792D01*
X90134605Y-87772419D01*
X90117624Y-87774745D01*
X89836107Y-87833044D01*
X89819598Y-87837653D01*
X89548597Y-87933620D01*
X89532867Y-87940427D01*
X89277398Y-88072284D01*
X89262737Y-88081163D01*
X89027526Y-88246472D01*
X89014206Y-88257259D01*
X88803607Y-88452960D01*
X88791874Y-88465454D01*
X88609783Y-88687926D01*
X88599854Y-88701897D01*
X88449640Y-88947023D01*
X88441700Y-88962213D01*
X88326144Y-89225457D01*
X88320338Y-89241583D01*
X88241577Y-89518075D01*
X88238013Y-89534841D01*
X88197506Y-89819463D01*
X88196251Y-89836556D01*
X88194745Y-90124043D01*
X87412271Y-90124043D01*
X87392875Y-90098972D01*
X87329696Y-90054734D01*
X87310676Y-90043752D01*
X87109275Y-89949837D01*
X87088636Y-89942325D01*
X86873987Y-89884810D01*
X86852358Y-89880996D01*
X86630982Y-89861628D01*
X86609018Y-89861628D01*
X86387642Y-89880996D01*
X86366013Y-89884810D01*
X86151364Y-89942325D01*
X86130725Y-89949837D01*
X85929325Y-90043752D01*
X85910306Y-90054733D01*
X85847126Y-90098971D01*
X85802796Y-90154428D01*
X85795486Y-90225047D01*
X82539500Y-90225047D01*
X82539500Y-90171600D01*
X82538827Y-90158596D01*
X82527853Y-90052830D01*
X82522050Y-90025958D01*
X82466074Y-89858178D01*
X82453694Y-89831751D01*
X82360622Y-89681349D01*
X82342496Y-89658479D01*
X82217321Y-89533522D01*
X82194419Y-89515435D01*
X82043854Y-89422625D01*
X82017405Y-89410292D01*
X81849528Y-89354610D01*
X81822704Y-89348859D01*
X81718243Y-89338156D01*
X81705400Y-89337500D01*
X80354600Y-89337500D01*
X80341596Y-89338173D01*
X80235830Y-89349147D01*
X80208958Y-89354950D01*
X80041178Y-89410926D01*
X80014751Y-89423306D01*
X79864349Y-89516378D01*
X79841479Y-89534504D01*
X79716522Y-89659679D01*
X79698435Y-89682581D01*
X79605625Y-89833146D01*
X79593292Y-89859595D01*
X79537610Y-90027472D01*
X79531859Y-90054296D01*
X79521156Y-90158757D01*
X79520500Y-90171600D01*
X79520500Y-90972400D01*
X79521173Y-90985404D01*
X79532147Y-91091170D01*
X79537950Y-91118042D01*
X79593926Y-91285822D01*
X79606306Y-91312249D01*
X79699378Y-91462651D01*
X79717504Y-91485521D01*
X79842679Y-91610478D01*
X79865581Y-91628565D01*
X79917120Y-91660334D01*
X79909247Y-91666518D01*
X79891915Y-91683024D01*
X79753283Y-91842783D01*
X79739384Y-91862268D01*
X79633463Y-92045359D01*
X79623499Y-92067121D01*
X79554111Y-92266938D01*
X79548443Y-92290191D01*
X79518091Y-92499524D01*
X79516922Y-92523430D01*
X78384000Y-92523430D01*
X78384000Y-86573134D01*
X79425500Y-86573134D01*
X79426237Y-86586742D01*
X79432992Y-86648924D01*
X79440273Y-86679546D01*
X79491403Y-86815935D01*
X79508559Y-86847270D01*
X79595913Y-86963826D01*
X79621174Y-86989087D01*
X79737730Y-87076441D01*
X79769065Y-87093597D01*
X79905454Y-87144727D01*
X79936076Y-87152008D01*
X79998258Y-87158763D01*
X80011866Y-87159500D01*
X81808134Y-87159500D01*
X81821742Y-87158763D01*
X81883924Y-87152008D01*
X81914546Y-87144727D01*
X82050935Y-87093597D01*
X82082270Y-87076441D01*
X82198826Y-86989087D01*
X82224087Y-86963826D01*
X82311441Y-86847270D01*
X82328597Y-86815935D01*
X82379727Y-86679546D01*
X82387008Y-86648924D01*
X82393763Y-86586742D01*
X82394500Y-86573134D01*
X82394500Y-85975830D01*
X89035476Y-85975830D01*
X89040541Y-86046645D01*
X89071555Y-86093716D01*
X89074449Y-86096481D01*
X89084787Y-86105340D01*
X89373350Y-86326763D01*
X89384595Y-86334463D01*
X89695385Y-86523426D01*
X89707395Y-86529866D01*
X90036774Y-86684158D01*
X90049409Y-86689263D01*
X90393526Y-86807081D01*
X90406639Y-86810791D01*
X90761467Y-86890755D01*
X90774904Y-86893028D01*
X91136293Y-86934203D01*
X91149897Y-86935011D01*
X91513618Y-86936915D01*
X91527230Y-86936250D01*
X91889030Y-86898862D01*
X91902490Y-86896730D01*
X92258136Y-86820486D01*
X92271287Y-86816913D01*
X92616619Y-86702705D01*
X92629307Y-86697732D01*
X92960284Y-86546897D01*
X92972361Y-86540583D01*
X93285112Y-86354885D01*
X93296437Y-86347304D01*
X93587304Y-86128915D01*
X93597744Y-86120155D01*
X93626308Y-86093425D01*
X93662380Y-86032275D01*
X93659665Y-85961330D01*
X93629310Y-85912330D01*
X91439095Y-83722115D01*
X91376783Y-83688089D01*
X91305968Y-83693154D01*
X91260905Y-83722115D01*
X89069502Y-85913518D01*
X89035476Y-85975830D01*
X82394500Y-85975830D01*
X82394500Y-84776866D01*
X82393763Y-84763258D01*
X82387008Y-84701076D01*
X82379727Y-84670454D01*
X82328597Y-84534065D01*
X82311441Y-84502730D01*
X82224087Y-84386174D01*
X82198826Y-84360913D01*
X82082270Y-84273559D01*
X82050935Y-84256403D01*
X81931917Y-84211785D01*
X82036653Y-84107413D01*
X82050035Y-84091689D01*
X82180344Y-83910345D01*
X82190979Y-83892646D01*
X82289921Y-83692453D01*
X82297522Y-83673255D01*
X82362438Y-83459592D01*
X82365239Y-83446636D01*
X87861249Y-83446636D01*
X87879651Y-83809897D01*
X87881076Y-83823450D01*
X87938603Y-84182599D01*
X87941483Y-84195919D01*
X88037460Y-84546754D01*
X88041761Y-84559685D01*
X88175068Y-84898103D01*
X88180741Y-84910494D01*
X88349816Y-85232535D01*
X88356794Y-85244241D01*
X88559661Y-85546139D01*
X88567863Y-85557023D01*
X88706231Y-85721339D01*
X88765410Y-85760562D01*
X88836399Y-85761564D01*
X88891706Y-85729274D01*
X91079885Y-83541095D01*
X91113911Y-83478783D01*
X91108846Y-83407968D01*
X91079885Y-83362905D01*
X88891810Y-81174830D01*
X88829498Y-81140804D01*
X88758683Y-81145869D01*
X88706903Y-81182095D01*
X88582626Y-81327606D01*
X88574350Y-81338432D01*
X88369380Y-81638906D01*
X88362320Y-81650563D01*
X88191001Y-81971417D01*
X88185242Y-81983767D01*
X88049576Y-82321245D01*
X88045184Y-82334146D01*
X87946759Y-82684303D01*
X87943786Y-82697603D01*
X87883754Y-83056342D01*
X87882235Y-83069885D01*
X87861297Y-83433008D01*
X87861249Y-83446636D01*
X82365239Y-83446636D01*
X82366802Y-83439408D01*
X82371273Y-83405445D01*
X82360333Y-83335297D01*
X82313205Y-83282198D01*
X82246351Y-83263000D01*
X79575110Y-83263000D01*
X79506989Y-83283002D01*
X79460496Y-83336658D01*
X79450392Y-83406932D01*
X79452193Y-83416701D01*
X79486784Y-83570190D01*
X79492958Y-83589893D01*
X79576971Y-83796794D01*
X79586281Y-83815225D01*
X79702959Y-84005626D01*
X79715155Y-84022288D01*
X79861364Y-84191076D01*
X79876116Y-84205523D01*
X79885035Y-84212928D01*
X79769065Y-84256403D01*
X79737730Y-84273559D01*
X79621174Y-84360913D01*
X79595913Y-84386174D01*
X79508559Y-84502730D01*
X79491403Y-84534065D01*
X79440273Y-84670454D01*
X79432992Y-84701076D01*
X79426237Y-84763258D01*
X79425500Y-84776866D01*
X79425500Y-86573134D01*
X78384000Y-86573134D01*
X78384000Y-82867590D01*
X79446055Y-82867590D01*
X79458693Y-82937453D01*
X79507096Y-82989392D01*
X79571339Y-83007000D01*
X80656000Y-83007000D01*
X80724121Y-82986998D01*
X80770614Y-82933342D01*
X80782000Y-82881000D01*
X81038000Y-82881000D01*
X81058002Y-82949121D01*
X81111658Y-82995614D01*
X81164000Y-83007000D01*
X82246459Y-83007000D01*
X82314580Y-82986998D01*
X82361073Y-82933342D01*
X82371177Y-82863068D01*
X82368663Y-82850304D01*
X82322159Y-82665167D01*
X82315505Y-82645621D01*
X82226462Y-82440835D01*
X82216704Y-82422637D01*
X82095409Y-82235143D01*
X82082810Y-82218783D01*
X81932521Y-82053618D01*
X81917420Y-82039536D01*
X81742173Y-81901135D01*
X81724975Y-81889709D01*
X81529477Y-81781788D01*
X81510643Y-81773323D01*
X81300144Y-81698781D01*
X81280180Y-81693507D01*
X81186096Y-81676748D01*
X81115524Y-81684494D01*
X81060342Y-81729164D01*
X81038000Y-81800795D01*
X81038000Y-82881000D01*
X80782000Y-82881000D01*
X80782000Y-81799987D01*
X80761998Y-81731866D01*
X80708342Y-81685373D01*
X80636940Y-81675437D01*
X80575148Y-81684893D01*
X80555063Y-81689678D01*
X80342805Y-81759054D01*
X80323770Y-81767056D01*
X80125694Y-81870168D01*
X80108221Y-81881171D01*
X79929645Y-82015250D01*
X79914204Y-82028959D01*
X79759925Y-82190403D01*
X79746931Y-82206450D01*
X79621091Y-82390924D01*
X79610891Y-82408878D01*
X79516871Y-82611428D01*
X79509742Y-82630806D01*
X79450065Y-82845992D01*
X79446198Y-82866254D01*
X79446055Y-82867590D01*
X78384000Y-82867590D01*
X78384000Y-80586000D01*
X89363728Y-80586000D01*
X89103366Y-80782911D02*
X89363728Y-80586000D01*
%TA.AperFunction,Conductor*%
G36*
X89103366Y-80782911D02*
G01*
X89092956Y-80791707D01*
X89073004Y-80810509D01*
X89037146Y-80871785D01*
X89040108Y-80942719D01*
X89070323Y-80991303D01*
X91260905Y-83181885D01*
X91323217Y-83215911D01*
X91394032Y-83210846D01*
X91439095Y-83181885D01*
X93630073Y-80990907D01*
X93664099Y-80928595D01*
X93659034Y-80857780D01*
X93627713Y-80810417D01*
X93616318Y-80799603D01*
X93605937Y-80790768D01*
X93337140Y-80586000D01*
X94716000Y-80586000D01*
X94716000Y-82552316D01*
X94658698Y-82345690D01*
X94654352Y-82332774D01*
X94519865Y-81994823D01*
X94514148Y-81982452D01*
X94343949Y-81661003D01*
X94336931Y-81649322D01*
X94133012Y-81348134D01*
X94124772Y-81337279D01*
X93993419Y-81182392D01*
X93934105Y-81143375D01*
X93863112Y-81142620D01*
X93808228Y-81174792D01*
X91620115Y-83362905D01*
X91586089Y-83425217D01*
X91591154Y-83496032D01*
X91620115Y-83541095D01*
X93808180Y-85729160D01*
X93870492Y-85763186D01*
X93941307Y-85758121D01*
X93992800Y-85722230D01*
X94109941Y-85586042D01*
X94118256Y-85575244D01*
X94324273Y-85275487D01*
X94331373Y-85263855D01*
X94503812Y-84943602D01*
X94509615Y-84931271D01*
X94646458Y-84594268D01*
X94650894Y-84581383D01*
X94716000Y-84352826D01*
X94716000Y-94766101D01*
X94689221Y-94739134D01*
X94686644Y-94737062D01*
X93357329Y-93407747D01*
X93294252Y-93343335D01*
X93272484Y-93325582D01*
X93236050Y-93302102D01*
X93202165Y-93275052D01*
X93178395Y-93260083D01*
X93148201Y-93245487D01*
X93120018Y-93227324D01*
X93094858Y-93214834D01*
X93054122Y-93200007D01*
X93015089Y-93181138D01*
X92988595Y-93171808D01*
X92955917Y-93164264D01*
X92924410Y-93152796D01*
X92897106Y-93146190D01*
X92854091Y-93140756D01*
X92811860Y-93131006D01*
X92783955Y-93127777D01*
X92743385Y-93127635D01*
X92741231Y-93127500D01*
X92704581Y-93127500D01*
X92602570Y-93127144D01*
X92599293Y-93127500D01*
X87846343Y-93127500D01*
X87838683Y-93111074D01*
X87827701Y-93092053D01*
X87700190Y-92909948D01*
X87686072Y-92893124D01*
X87528876Y-92735928D01*
X87512052Y-92721810D01*
X87329948Y-92594299D01*
X87310927Y-92583317D01*
X87200285Y-92531724D01*
X87310676Y-92480248D01*
X87329696Y-92469266D01*
X87392875Y-92425028D01*
X87437204Y-92369571D01*
X87444513Y-92298952D01*
X87409700Y-92232720D01*
X86709095Y-91532115D01*
X86646783Y-91498089D01*
X86575968Y-91503154D01*
X86530905Y-91532115D01*
X85830300Y-92232720D01*
X85796274Y-92295032D01*
X85801339Y-92365847D01*
X85847125Y-92425028D01*
X85910304Y-92469266D01*
X85929324Y-92480248D01*
X86039715Y-92531724D01*
X85929074Y-92583317D01*
X85910053Y-92594299D01*
X85727948Y-92721810D01*
X85711124Y-92735928D01*
X85553928Y-92893124D01*
X85540812Y-92908753D01*
X85517239Y-92916686D01*
X85477944Y-92935009D01*
X85437011Y-92949264D01*
X85411679Y-92961400D01*
X85383237Y-92979172D01*
X85352848Y-92993343D01*
X85328872Y-93007978D01*
X85294618Y-93034548D01*
X85257855Y-93057520D01*
X85235839Y-93074969D01*
X85207030Y-93103578D01*
X85205435Y-93104984D01*
X85179898Y-93130521D01*
X85107134Y-93202779D01*
X85105058Y-93205361D01*
X83375748Y-94934670D01*
X83311335Y-94997748D01*
X83293582Y-95019516D01*
X83270102Y-95055950D01*
X83243052Y-95089835D01*
X83228083Y-95113605D01*
X83213487Y-95143799D01*
X83195324Y-95171982D01*
X83182834Y-95197142D01*
X83168007Y-95237878D01*
X83149138Y-95276911D01*
X83139808Y-95303405D01*
X83132264Y-95336083D01*
X83120796Y-95367590D01*
X83114190Y-95394894D01*
X83108756Y-95437909D01*
X83099006Y-95480140D01*
X83095777Y-95508045D01*
X83095635Y-95548615D01*
X83095500Y-95550769D01*
X83095500Y-95587419D01*
X83095144Y-95689430D01*
X83095500Y-95692707D01*
X83095500Y-97563406D01*
X82480956Y-96948862D01*
X82505889Y-96877062D01*
X82511557Y-96853809D01*
X82541909Y-96644476D01*
X82543078Y-96620570D01*
X82533298Y-96409275D01*
X82529926Y-96385580D01*
X82480368Y-96179945D01*
X82472576Y-96157315D01*
X82385027Y-95964762D01*
X82373096Y-95944013D01*
X82250716Y-95771489D01*
X82235077Y-95753371D01*
X82082281Y-95607101D01*
X82063498Y-95592267D01*
X82030742Y-95571116D01*
X82150407Y-95477118D01*
X82167739Y-95460613D01*
X82306308Y-95300927D01*
X82320207Y-95281441D01*
X82426080Y-95098432D01*
X82436044Y-95076670D01*
X82505401Y-94876943D01*
X82511070Y-94853685D01*
X82512463Y-94844075D01*
X82502440Y-94773790D01*
X82456009Y-94720081D01*
X82387766Y-94700000D01*
X79676483Y-94700000D01*
X79608362Y-94720002D01*
X79561869Y-94773658D01*
X79551765Y-94843932D01*
X79553990Y-94855521D01*
X79580107Y-94963891D01*
X79587899Y-94986521D01*
X79675408Y-95178988D01*
X79687339Y-95199737D01*
X79809664Y-95372183D01*
X79825303Y-95390301D01*
X79978030Y-95536505D01*
X79996813Y-95551339D01*
X80029230Y-95572270D01*
X79909247Y-95666518D01*
X79891915Y-95683024D01*
X79753283Y-95842783D01*
X79739384Y-95862268D01*
X79633463Y-96045359D01*
X79623499Y-96067121D01*
X79554111Y-96266938D01*
X79548443Y-96290191D01*
X79518091Y-96499524D01*
X79516922Y-96523430D01*
X79526702Y-96734725D01*
X79530074Y-96758420D01*
X79579632Y-96964055D01*
X79587424Y-96986685D01*
X79674973Y-97179238D01*
X79686904Y-97199987D01*
X79809284Y-97372511D01*
X79824923Y-97390629D01*
X79977719Y-97536899D01*
X79996502Y-97551733D01*
X80029258Y-97572884D01*
X79909593Y-97666882D01*
X79892261Y-97683387D01*
X79753692Y-97843073D01*
X79739793Y-97862559D01*
X79633920Y-98045568D01*
X79623956Y-98067330D01*
X79554599Y-98267057D01*
X79548930Y-98290315D01*
X79547537Y-98299925D01*
X79557560Y-98370210D01*
X79603991Y-98423919D01*
X79672234Y-98444000D01*
X81158000Y-98444000D01*
X81158000Y-98700000D01*
X79676483Y-98700000D01*
X79608362Y-98720002D01*
X79561869Y-98773658D01*
X79551765Y-98843932D01*
X79553990Y-98855521D01*
X79580107Y-98963891D01*
X79587899Y-98986521D01*
X79675408Y-99178988D01*
X79687339Y-99199737D01*
X79809664Y-99372183D01*
X79825303Y-99390301D01*
X79978030Y-99536505D01*
X79996813Y-99551339D01*
X80029230Y-99572270D01*
X79909247Y-99666518D01*
X79891915Y-99683024D01*
X79753283Y-99842783D01*
X79739384Y-99862268D01*
X79633463Y-100045359D01*
X79623499Y-100067121D01*
X79554111Y-100266938D01*
X79548443Y-100290191D01*
X79518091Y-100499524D01*
X79516922Y-100523430D01*
X79526702Y-100734725D01*
X79530074Y-100758420D01*
X79579632Y-100964055D01*
X79587424Y-100986685D01*
X79674973Y-101179238D01*
X79686904Y-101199987D01*
X79809284Y-101372511D01*
X79824923Y-101390629D01*
X79977719Y-101536899D01*
X79996502Y-101551733D01*
X80029258Y-101572884D01*
X79909593Y-101666882D01*
X79892261Y-101683387D01*
X79753692Y-101843073D01*
X79739793Y-101862559D01*
X79633920Y-102045568D01*
X79623956Y-102067330D01*
X79554599Y-102267057D01*
X79548930Y-102290315D01*
X79547537Y-102299925D01*
X79557560Y-102370210D01*
X79603991Y-102423919D01*
X79672234Y-102444000D01*
X81158000Y-102444000D01*
X81158000Y-102700000D01*
X79676483Y-102700000D01*
X79608362Y-102720002D01*
X79561869Y-102773658D01*
X79551765Y-102843932D01*
X79553990Y-102855521D01*
X79580107Y-102963891D01*
X79587899Y-102986521D01*
X79675408Y-103178988D01*
X79687339Y-103199737D01*
X79809664Y-103372183D01*
X79825303Y-103390301D01*
X79978030Y-103536505D01*
X79996813Y-103551339D01*
X80029230Y-103572270D01*
X79909247Y-103666518D01*
X79891915Y-103683024D01*
X79753283Y-103842783D01*
X79739384Y-103862268D01*
X79633463Y-104045359D01*
X79623499Y-104067121D01*
X79554111Y-104266938D01*
X79548443Y-104290191D01*
X79518091Y-104499524D01*
X79516922Y-104523430D01*
X79526702Y-104734725D01*
X79530074Y-104758420D01*
X79579632Y-104964055D01*
X79587424Y-104986685D01*
X79674973Y-105179238D01*
X79686904Y-105199987D01*
X79809284Y-105372511D01*
X79824923Y-105390629D01*
X79977719Y-105536899D01*
X79996502Y-105551733D01*
X80029258Y-105572884D01*
X79909593Y-105666882D01*
X79892261Y-105683387D01*
X79753692Y-105843073D01*
X79739793Y-105862559D01*
X79633920Y-106045568D01*
X79623956Y-106067330D01*
X79554599Y-106267057D01*
X79548930Y-106290315D01*
X79547537Y-106299925D01*
X79557560Y-106370210D01*
X79603991Y-106423919D01*
X79672234Y-106444000D01*
X81158000Y-106444000D01*
X81158000Y-106700000D01*
X79676483Y-106700000D01*
X79608362Y-106720002D01*
X79561869Y-106773658D01*
X79551765Y-106843932D01*
X79553990Y-106855521D01*
X79580107Y-106963891D01*
X79587899Y-106986521D01*
X79675408Y-107178988D01*
X79687339Y-107199737D01*
X79809664Y-107372183D01*
X79825303Y-107390301D01*
X79978030Y-107536505D01*
X79996813Y-107551339D01*
X80029230Y-107572270D01*
X79909247Y-107666518D01*
X79891915Y-107683024D01*
X79753283Y-107842783D01*
X79739384Y-107862268D01*
X79633463Y-108045359D01*
X79623499Y-108067121D01*
X79554111Y-108266938D01*
X79548443Y-108290191D01*
X79518091Y-108499524D01*
X79516922Y-108523430D01*
X79526702Y-108734725D01*
X79530074Y-108758420D01*
X79579632Y-108964055D01*
X79587424Y-108986685D01*
X79674973Y-109179238D01*
X79686904Y-109199987D01*
X79809284Y-109372511D01*
X79824923Y-109390629D01*
X79977719Y-109536899D01*
X79996502Y-109551733D01*
X80174200Y-109666472D01*
X80195450Y-109677486D01*
X80391639Y-109756552D01*
X80414587Y-109763350D01*
X80622187Y-109803892D01*
X80640183Y-109806078D01*
X80645745Y-109806350D01*
X80651899Y-109806500D01*
X81357846Y-109806500D01*
X81369813Y-109805930D01*
X81527533Y-109790882D01*
X81551035Y-109786357D01*
X81754003Y-109726813D01*
X81776226Y-109717924D01*
X81964272Y-109621074D01*
X81984413Y-109608144D01*
X82150753Y-109477482D01*
X82168085Y-109460976D01*
X82280439Y-109331500D01*
X82323017Y-109331500D01*
X82345652Y-109333640D01*
X82413729Y-109331500D01*
X82441640Y-109331500D01*
X82457430Y-109330507D01*
X82461441Y-109330000D01*
X82505632Y-109328611D01*
X82536825Y-109323670D01*
X82556276Y-109318019D01*
X82576374Y-109315480D01*
X82606965Y-109307626D01*
X82648079Y-109291348D01*
X82690529Y-109279015D01*
X82719517Y-109266471D01*
X82736953Y-109256159D01*
X82755783Y-109248704D01*
X82783461Y-109233489D01*
X82819231Y-109207501D01*
X82857286Y-109184995D01*
X82882241Y-109165637D01*
X82896562Y-109151316D01*
X82912952Y-109139408D01*
X82935976Y-109117788D01*
X82964167Y-109083711D01*
X83974952Y-108072927D01*
X84367501Y-108072927D01*
X84367501Y-108103312D01*
X84368579Y-108119756D01*
X84384240Y-108238722D01*
X84392753Y-108270495D01*
X84400181Y-108288427D01*
X84392753Y-108306359D01*
X84384240Y-108338131D01*
X84368578Y-108457096D01*
X84367500Y-108473542D01*
X84367501Y-108753311D01*
X84368579Y-108769756D01*
X84384240Y-108888722D01*
X84392753Y-108920495D01*
X84400181Y-108938427D01*
X84392753Y-108956359D01*
X84384240Y-108988131D01*
X84368578Y-109107096D01*
X84367500Y-109123542D01*
X84367501Y-109403311D01*
X84368579Y-109419756D01*
X84384240Y-109538722D01*
X84392753Y-109570495D01*
X84400181Y-109588427D01*
X84392753Y-109606359D01*
X84384240Y-109638131D01*
X84368578Y-109757096D01*
X84367500Y-109773542D01*
X84367501Y-110053311D01*
X84368579Y-110069756D01*
X84384240Y-110188722D01*
X84392753Y-110220495D01*
X84400452Y-110239081D01*
X84393241Y-110256489D01*
X84384728Y-110288260D01*
X84376997Y-110346980D01*
X84387936Y-110417129D01*
X84435064Y-110470228D01*
X84501919Y-110489427D01*
X84541431Y-110489427D01*
X84568051Y-110524118D01*
X84591309Y-110547376D01*
X84708665Y-110637427D01*
X84501920Y-110637427D01*
X84433799Y-110657429D01*
X84387306Y-110711085D01*
X84376998Y-110779872D01*
X84384728Y-110838592D01*
X84393241Y-110870365D01*
X84454504Y-111018268D01*
X84470951Y-111046754D01*
X84568408Y-111173761D01*
X84591666Y-111197019D01*
X84718673Y-111294476D01*
X84747159Y-111310923D01*
X84895062Y-111372186D01*
X84926834Y-111380699D01*
X85045707Y-111396349D01*
X85062153Y-111397427D01*
X85539500Y-111397427D01*
X85607621Y-111377425D01*
X85654114Y-111323769D01*
X85665500Y-111271427D01*
X85665500Y-110763427D01*
X85660949Y-110747926D01*
X85813500Y-110747926D01*
X85813500Y-111271426D01*
X85833502Y-111339547D01*
X85887158Y-111386040D01*
X85939500Y-111397426D01*
X86416846Y-111397426D01*
X86433291Y-111396348D01*
X86552165Y-111380699D01*
X86583938Y-111372186D01*
X86731841Y-111310923D01*
X86760327Y-111294476D01*
X86887334Y-111197019D01*
X86910592Y-111173761D01*
X87008049Y-111046754D01*
X87024496Y-111018268D01*
X87085759Y-110870365D01*
X87094272Y-110838593D01*
X87109922Y-110719720D01*
X87111000Y-110703273D01*
X87111000Y-110672927D01*
X87559406Y-110672927D01*
X87582041Y-110675067D01*
X87650118Y-110672927D01*
X87678029Y-110672927D01*
X87693819Y-110671934D01*
X87697830Y-110671427D01*
X87742021Y-110670038D01*
X87773214Y-110665097D01*
X87792665Y-110659446D01*
X87812763Y-110656907D01*
X87843354Y-110649053D01*
X87884468Y-110632775D01*
X87926918Y-110620442D01*
X87955906Y-110607898D01*
X87960409Y-110605235D01*
X88052220Y-110596879D01*
X88079736Y-110591231D01*
X88252244Y-110535180D01*
X88277825Y-110523576D01*
X88433629Y-110430698D01*
X88456004Y-110413715D01*
X88587358Y-110288628D01*
X88605414Y-110267109D01*
X88705791Y-110116029D01*
X88718631Y-110091046D01*
X88783043Y-109921482D01*
X88790029Y-109894274D01*
X88815273Y-109714653D01*
X88816487Y-109698875D01*
X88816804Y-109676158D01*
X88816031Y-109660355D01*
X88795812Y-109480100D01*
X88789588Y-109452708D01*
X88729936Y-109281411D01*
X88717799Y-109256078D01*
X88695786Y-109220850D01*
X88714030Y-109193390D01*
X88726870Y-109168407D01*
X88791282Y-108998843D01*
X88798268Y-108971635D01*
X88823512Y-108792014D01*
X88824726Y-108776236D01*
X88825043Y-108753519D01*
X88824270Y-108737716D01*
X88804051Y-108557461D01*
X88797827Y-108530069D01*
X88738175Y-108358772D01*
X88726038Y-108333440D01*
X88668628Y-108241564D01*
X88705791Y-108185629D01*
X88718631Y-108160646D01*
X88783043Y-107991082D01*
X88790029Y-107963874D01*
X88815273Y-107784253D01*
X88816487Y-107768475D01*
X88816804Y-107745758D01*
X88816031Y-107729955D01*
X88795812Y-107549700D01*
X88789588Y-107522308D01*
X88729936Y-107351011D01*
X88717799Y-107325679D01*
X88700639Y-107298216D01*
X88718569Y-107271229D01*
X88731409Y-107246246D01*
X88795821Y-107076682D01*
X88802807Y-107049474D01*
X88828051Y-106869853D01*
X88829265Y-106854075D01*
X88829582Y-106831358D01*
X88828809Y-106815555D01*
X88808590Y-106635300D01*
X88802366Y-106607908D01*
X88742714Y-106436611D01*
X88730577Y-106411279D01*
X88634458Y-106257455D01*
X88617010Y-106235440D01*
X88489199Y-106106734D01*
X88467307Y-106089133D01*
X88314158Y-105991942D01*
X88288911Y-105979628D01*
X88118035Y-105918782D01*
X88090687Y-105912367D01*
X87910577Y-105890890D01*
X87882487Y-105890694D01*
X87702095Y-105909654D01*
X87674661Y-105915686D01*
X87502952Y-105974140D01*
X87477535Y-105986101D01*
X87323044Y-106081145D01*
X87300908Y-106098439D01*
X87171313Y-106225348D01*
X87153560Y-106247116D01*
X87085038Y-106353441D01*
X87078819Y-106338427D01*
X87086247Y-106320495D01*
X87094760Y-106288723D01*
X87110422Y-106169758D01*
X87111500Y-106153312D01*
X87111499Y-105873543D01*
X87110421Y-105857098D01*
X87094760Y-105738132D01*
X87086247Y-105706359D01*
X87078819Y-105688427D01*
X87086247Y-105670495D01*
X87094760Y-105638723D01*
X87110422Y-105519758D01*
X87111500Y-105503312D01*
X87111499Y-105223543D01*
X87110421Y-105207098D01*
X87094760Y-105088132D01*
X87086247Y-105056359D01*
X87078819Y-105038427D01*
X87086247Y-105020495D01*
X87094760Y-104988723D01*
X87110422Y-104869758D01*
X87111500Y-104853312D01*
X87111499Y-104573543D01*
X87110421Y-104557098D01*
X87094760Y-104438132D01*
X87086247Y-104406359D01*
X87078548Y-104387773D01*
X87085759Y-104370365D01*
X87094272Y-104338594D01*
X87102003Y-104279874D01*
X87091064Y-104209725D01*
X87043936Y-104156626D01*
X86977081Y-104137427D01*
X86937569Y-104137427D01*
X86910949Y-104102736D01*
X86887691Y-104079478D01*
X86770335Y-103989427D01*
X86977080Y-103989427D01*
X87045201Y-103969425D01*
X87091694Y-103915769D01*
X87102002Y-103846982D01*
X87094272Y-103788262D01*
X87085759Y-103756489D01*
X87078277Y-103738427D01*
X87085759Y-103720365D01*
X87094272Y-103688594D01*
X87102003Y-103629874D01*
X87091064Y-103559725D01*
X87043936Y-103506626D01*
X86977081Y-103487427D01*
X85939500Y-103487427D01*
X85871379Y-103507429D01*
X85824886Y-103561085D01*
X85813500Y-103613427D01*
X85813500Y-103863427D01*
X85818051Y-103878928D01*
X85665500Y-103878928D01*
X85665500Y-103213427D01*
X85813500Y-103213427D01*
X85833502Y-103281548D01*
X85887158Y-103328041D01*
X85939500Y-103339427D01*
X86977080Y-103339427D01*
X87045201Y-103319425D01*
X87091694Y-103265769D01*
X87102002Y-103196982D01*
X87094272Y-103138262D01*
X87085759Y-103106489D01*
X87024496Y-102958586D01*
X87008049Y-102930100D01*
X86910592Y-102803093D01*
X86887334Y-102779835D01*
X86760327Y-102682378D01*
X86731841Y-102665931D01*
X86583938Y-102604668D01*
X86552166Y-102596155D01*
X86433293Y-102580505D01*
X86416847Y-102579427D01*
X85939500Y-102579427D01*
X85871379Y-102599429D01*
X85824886Y-102653085D01*
X85813500Y-102705427D01*
X85813500Y-103213427D01*
X85665500Y-103213427D01*
X85665500Y-102705428D01*
X85645498Y-102637307D01*
X85591842Y-102590814D01*
X85539500Y-102579428D01*
X85062154Y-102579428D01*
X85045709Y-102580506D01*
X84926835Y-102596155D01*
X84895062Y-102604668D01*
X84747159Y-102665931D01*
X84718673Y-102682378D01*
X84591666Y-102779835D01*
X84568408Y-102803093D01*
X84470951Y-102930100D01*
X84454504Y-102958586D01*
X84393241Y-103106489D01*
X84384728Y-103138261D01*
X84369078Y-103257134D01*
X84368205Y-103270447D01*
X84244457Y-103226382D01*
X84217109Y-103219967D01*
X84036999Y-103198490D01*
X84008909Y-103198294D01*
X83861500Y-103213787D01*
X83861500Y-100702583D01*
X84398500Y-101239582D01*
X84398500Y-101665400D01*
X84399173Y-101678404D01*
X84410147Y-101784170D01*
X84415950Y-101811042D01*
X84471926Y-101978822D01*
X84484306Y-102005249D01*
X84577378Y-102155651D01*
X84595504Y-102178521D01*
X84720679Y-102303478D01*
X84743581Y-102321565D01*
X84894146Y-102414375D01*
X84920595Y-102426708D01*
X85088472Y-102482390D01*
X85115296Y-102488141D01*
X85219757Y-102498844D01*
X85232600Y-102499500D01*
X86008400Y-102499500D01*
X86021404Y-102498827D01*
X86127170Y-102487853D01*
X86154042Y-102482050D01*
X86321822Y-102426074D01*
X86348249Y-102413694D01*
X86498651Y-102320622D01*
X86521521Y-102302496D01*
X86646478Y-102177321D01*
X86658316Y-102162332D01*
X86670899Y-102178208D01*
X86795991Y-102303083D01*
X86818893Y-102321170D01*
X86969359Y-102413918D01*
X86995807Y-102426251D01*
X87163573Y-102481897D01*
X87190399Y-102487648D01*
X87294795Y-102498344D01*
X87307637Y-102499000D01*
X87441500Y-102499000D01*
X87509621Y-102478998D01*
X87556114Y-102425342D01*
X87567500Y-102373000D01*
X87567500Y-99907001D01*
X87547498Y-99838880D01*
X87493842Y-99792387D01*
X87441500Y-99781001D01*
X87307638Y-99781001D01*
X87294635Y-99781674D01*
X87188934Y-99792641D01*
X87162061Y-99798444D01*
X86994392Y-99854382D01*
X86967965Y-99866762D01*
X86817662Y-99959773D01*
X86794792Y-99977899D01*
X86669917Y-100102991D01*
X86658326Y-100117667D01*
X86645496Y-100101479D01*
X86520321Y-99976522D01*
X86497419Y-99958435D01*
X86346854Y-99865625D01*
X86320405Y-99853292D01*
X86152528Y-99797610D01*
X86125704Y-99791859D01*
X86021243Y-99781156D01*
X86008400Y-99780500D01*
X85582582Y-99780500D01*
X84964500Y-99162418D01*
X84964500Y-95989082D01*
X85931682Y-95021900D01*
X86039123Y-95072000D01*
X85929074Y-95123317D01*
X85910053Y-95134299D01*
X85727948Y-95261810D01*
X85711124Y-95275928D01*
X85553928Y-95433124D01*
X85539810Y-95449948D01*
X85412299Y-95632053D01*
X85401317Y-95651074D01*
X85307365Y-95852554D01*
X85299853Y-95873193D01*
X85242315Y-96087926D01*
X85238501Y-96109556D01*
X85219126Y-96331019D01*
X85219126Y-96352981D01*
X85238501Y-96574444D01*
X85242315Y-96596074D01*
X85299853Y-96810807D01*
X85307365Y-96831446D01*
X85401317Y-97032926D01*
X85412299Y-97051947D01*
X85539810Y-97234052D01*
X85553928Y-97250876D01*
X85711124Y-97408072D01*
X85727948Y-97422190D01*
X85910052Y-97549701D01*
X85929073Y-97560683D01*
X86130554Y-97654635D01*
X86151193Y-97662147D01*
X86365926Y-97719685D01*
X86387556Y-97723499D01*
X86609019Y-97742874D01*
X86630981Y-97742874D01*
X86850500Y-97723669D01*
X86850500Y-98233233D01*
X86848360Y-98255868D01*
X86850500Y-98323945D01*
X86850500Y-98351856D01*
X86851493Y-98367646D01*
X86852000Y-98371657D01*
X86853389Y-98415848D01*
X86858330Y-98447041D01*
X86863981Y-98466492D01*
X86866520Y-98486590D01*
X86874374Y-98517181D01*
X86890652Y-98558295D01*
X86902985Y-98600745D01*
X86915529Y-98629733D01*
X86925841Y-98647169D01*
X86933296Y-98665999D01*
X86948511Y-98693677D01*
X86974499Y-98729447D01*
X86997005Y-98767502D01*
X87016363Y-98792457D01*
X87030684Y-98806778D01*
X87042592Y-98823168D01*
X87064212Y-98846192D01*
X87098289Y-98874383D01*
X88004906Y-99781000D01*
X87949500Y-99781000D01*
X87881379Y-99801002D01*
X87834886Y-99854658D01*
X87823500Y-99907000D01*
X87823500Y-102372999D01*
X87843502Y-102441120D01*
X87897158Y-102487613D01*
X87949500Y-102498999D01*
X88083362Y-102498999D01*
X88096365Y-102498326D01*
X88202066Y-102487359D01*
X88228939Y-102481556D01*
X88396608Y-102425618D01*
X88423035Y-102413238D01*
X88573338Y-102320227D01*
X88596208Y-102302101D01*
X88680500Y-102217663D01*
X88680500Y-104983233D01*
X88678360Y-105005868D01*
X88680500Y-105073945D01*
X88680500Y-105101856D01*
X88681493Y-105117646D01*
X88682000Y-105121657D01*
X88683389Y-105165848D01*
X88688330Y-105197041D01*
X88693981Y-105216492D01*
X88696520Y-105236590D01*
X88704374Y-105267181D01*
X88720652Y-105308295D01*
X88732985Y-105350745D01*
X88745529Y-105379733D01*
X88755841Y-105397169D01*
X88763296Y-105415999D01*
X88778511Y-105443677D01*
X88804499Y-105479447D01*
X88827005Y-105517502D01*
X88846363Y-105542457D01*
X88860684Y-105556778D01*
X88872592Y-105573168D01*
X88894212Y-105596192D01*
X88928289Y-105624383D01*
X90037248Y-106733342D01*
X90051747Y-106750868D01*
X90101414Y-106797508D01*
X90121135Y-106817229D01*
X90133007Y-106827696D01*
X90136194Y-106830168D01*
X90168426Y-106860436D01*
X90193979Y-106879001D01*
X90211730Y-106888760D01*
X90227732Y-106901172D01*
X90254917Y-106917249D01*
X90295486Y-106934805D01*
X90334240Y-106956110D01*
X90363606Y-106967737D01*
X90383226Y-106972774D01*
X90401813Y-106980818D01*
X90432143Y-106989630D01*
X90475811Y-106996547D01*
X90518636Y-107007542D01*
X90549970Y-107011500D01*
X90570224Y-107011500D01*
X90590232Y-107014669D01*
X90621801Y-107015661D01*
X90665819Y-107011500D01*
X91816898Y-107011500D01*
X91809728Y-107038260D01*
X91801997Y-107096980D01*
X91812936Y-107167129D01*
X91860064Y-107220228D01*
X91926919Y-107239427D01*
X91966431Y-107239427D01*
X91993051Y-107274118D01*
X92016309Y-107297376D01*
X92037226Y-107313427D01*
X92016308Y-107329478D01*
X91993051Y-107352736D01*
X91966431Y-107387427D01*
X91926920Y-107387427D01*
X91858799Y-107407429D01*
X91822698Y-107449092D01*
X91727917Y-107459054D01*
X91700483Y-107465086D01*
X91528774Y-107523540D01*
X91503357Y-107535501D01*
X91348866Y-107630545D01*
X91326730Y-107647839D01*
X91197135Y-107774748D01*
X91179382Y-107796516D01*
X91081124Y-107948983D01*
X91068634Y-107974143D01*
X91031904Y-108075057D01*
X90945799Y-108064790D01*
X90917709Y-108064594D01*
X90737317Y-108083554D01*
X90709883Y-108089586D01*
X90538174Y-108148040D01*
X90512757Y-108160001D01*
X90358266Y-108255045D01*
X90336130Y-108272339D01*
X90206535Y-108399248D01*
X90188782Y-108421016D01*
X90090524Y-108573483D01*
X90078034Y-108598643D01*
X90015996Y-108769090D01*
X90009391Y-108796393D01*
X89986657Y-108976348D01*
X89986264Y-109004435D01*
X90003964Y-109184955D01*
X90009805Y-109212432D01*
X90067060Y-109384545D01*
X90078842Y-109410044D01*
X90172804Y-109565195D01*
X90189943Y-109587451D01*
X90315945Y-109717929D01*
X90337589Y-109735834D01*
X90489366Y-109835154D01*
X90514439Y-109847819D01*
X90684448Y-109911045D01*
X90711703Y-109917841D01*
X90891496Y-109941831D01*
X90919581Y-109942419D01*
X91100220Y-109925979D01*
X91127736Y-109920331D01*
X91178051Y-109903983D01*
X91189159Y-109912599D01*
X91216344Y-109928676D01*
X91256913Y-109946232D01*
X91295667Y-109967537D01*
X91325033Y-109979164D01*
X91344653Y-109984201D01*
X91363240Y-109992245D01*
X91393570Y-110001057D01*
X91437238Y-110007974D01*
X91480063Y-110018969D01*
X91511397Y-110022927D01*
X91531651Y-110022927D01*
X91551659Y-110026096D01*
X91583228Y-110027088D01*
X91627246Y-110022927D01*
X91792501Y-110022927D01*
X91792501Y-110053312D01*
X91793579Y-110069756D01*
X91809240Y-110188722D01*
X91817753Y-110220495D01*
X91825181Y-110238427D01*
X91817753Y-110256359D01*
X91809240Y-110288131D01*
X91793578Y-110407096D01*
X91792500Y-110423542D01*
X91792501Y-110703311D01*
X91793579Y-110719756D01*
X91809240Y-110838722D01*
X91817753Y-110870495D01*
X91879067Y-111018521D01*
X91895514Y-111047008D01*
X91993051Y-111174119D01*
X92016309Y-111197376D01*
X92143421Y-111294913D01*
X92171907Y-111311360D01*
X92319932Y-111372674D01*
X92351704Y-111381187D01*
X92470669Y-111396849D01*
X92487115Y-111397927D01*
X93403912Y-111397926D01*
X93084339Y-111717500D01*
X84958922Y-111717500D01*
X84901218Y-111713566D01*
X84870985Y-111715150D01*
X84808028Y-111726138D01*
X84744621Y-111733811D01*
X84715220Y-111741032D01*
X84708811Y-111743454D01*
X84702054Y-111744633D01*
X84673072Y-111753383D01*
X84614560Y-111779067D01*
X84554806Y-111801647D01*
X84527976Y-111815674D01*
X84522329Y-111819555D01*
X84516051Y-111822311D01*
X84489990Y-111837723D01*
X84439303Y-111876618D01*
X84386653Y-111912802D01*
X84363943Y-111932824D01*
X84322489Y-111979351D01*
X83684340Y-112617500D01*
X82831866Y-112617500D01*
X82818258Y-112618237D01*
X82756076Y-112624992D01*
X82725454Y-112632273D01*
X82589065Y-112683403D01*
X82557730Y-112700559D01*
X82441174Y-112787913D01*
X82415913Y-112813174D01*
X82414500Y-112815059D01*
X82414500Y-112691594D01*
X82915232Y-112190862D01*
X83019248Y-112229545D01*
X83046503Y-112236341D01*
X83226296Y-112260331D01*
X83254381Y-112260919D01*
X83435020Y-112244479D01*
X83462536Y-112238831D01*
X83635044Y-112182780D01*
X83660625Y-112171176D01*
X83816429Y-112078298D01*
X83838804Y-112061315D01*
X83970158Y-111936228D01*
X83988214Y-111914709D01*
X84088591Y-111763629D01*
X84101431Y-111738646D01*
X84165843Y-111569082D01*
X84172829Y-111541874D01*
X84198073Y-111362253D01*
X84199287Y-111346475D01*
X84199604Y-111323758D01*
X84198831Y-111307955D01*
X84178612Y-111127700D01*
X84172388Y-111100308D01*
X84112736Y-110929011D01*
X84100599Y-110903679D01*
X84004480Y-110749855D01*
X83987032Y-110727840D01*
X83859221Y-110599134D01*
X83837329Y-110581533D01*
X83684180Y-110484342D01*
X83658933Y-110472028D01*
X83488057Y-110411182D01*
X83460709Y-110404767D01*
X83280599Y-110383290D01*
X83252509Y-110383094D01*
X83072117Y-110402054D01*
X83044683Y-110408086D01*
X82872974Y-110466540D01*
X82847557Y-110478501D01*
X82711718Y-110562070D01*
X82698045Y-110562500D01*
X82670144Y-110562500D01*
X82654356Y-110563493D01*
X82650353Y-110563999D01*
X82606152Y-110565388D01*
X82574957Y-110570329D01*
X82555504Y-110575981D01*
X82535412Y-110578519D01*
X82504820Y-110586374D01*
X82463710Y-110602650D01*
X82421252Y-110614986D01*
X82392267Y-110627529D01*
X82374831Y-110637841D01*
X82356001Y-110645296D01*
X82328323Y-110660511D01*
X82292553Y-110686499D01*
X82254498Y-110709005D01*
X82229543Y-110728363D01*
X82215222Y-110742684D01*
X82198832Y-110754592D01*
X82175808Y-110776212D01*
X82147622Y-110810283D01*
X81290404Y-111667500D01*
X79831866Y-111667500D01*
X79818258Y-111668237D01*
X79756076Y-111674992D01*
X79725454Y-111682273D01*
X79589065Y-111733403D01*
X79557730Y-111750559D01*
X79441174Y-111837913D01*
X79415913Y-111863174D01*
X79328559Y-111979730D01*
X79311403Y-112011065D01*
X79260273Y-112147454D01*
X79252992Y-112178076D01*
X79246237Y-112240258D01*
X79245500Y-112253866D01*
X79245500Y-113150134D01*
X79246237Y-113163742D01*
X79252992Y-113225924D01*
X79260273Y-113256546D01*
X79311403Y-113392935D01*
X79328559Y-113424270D01*
X79415913Y-113540826D01*
X79441174Y-113566087D01*
X79556224Y-113652313D01*
X79441531Y-113738270D01*
X79416270Y-113763531D01*
X79329002Y-113879973D01*
X79311846Y-113911308D01*
X79260766Y-114047563D01*
X79253485Y-114078185D01*
X79246737Y-114140303D01*
X79246000Y-114153911D01*
X79246000Y-114348000D01*
X79266002Y-114416121D01*
X79319658Y-114462614D01*
X79372000Y-114474000D01*
X82287999Y-114474000D01*
X82356120Y-114453998D01*
X82373382Y-114434077D01*
X82415913Y-114490826D01*
X82441174Y-114516087D01*
X82557730Y-114603441D01*
X82589065Y-114620597D01*
X82720500Y-114669870D01*
X82720500Y-115922803D01*
X82666177Y-115940927D01*
X82639751Y-115953306D01*
X82489349Y-116046378D01*
X82466479Y-116064504D01*
X82341522Y-116189679D01*
X82329684Y-116204668D01*
X82317101Y-116188792D01*
X82192009Y-116063917D01*
X82169107Y-116045830D01*
X82018641Y-115953082D01*
X81992193Y-115940749D01*
X81824427Y-115885103D01*
X81797601Y-115879352D01*
X81693205Y-115868656D01*
X81680363Y-115868000D01*
X81546500Y-115868000D01*
X81478379Y-115888002D01*
X81431886Y-115941658D01*
X81420500Y-115994000D01*
X81420500Y-118459999D01*
X81440502Y-118528120D01*
X81494158Y-118574613D01*
X81546500Y-118585999D01*
X81680362Y-118585999D01*
X81693365Y-118585326D01*
X81799066Y-118574359D01*
X81825939Y-118568556D01*
X81993608Y-118512618D01*
X82020035Y-118500238D01*
X82170338Y-118407227D01*
X82193208Y-118389101D01*
X82318083Y-118264009D01*
X82329674Y-118249333D01*
X82342504Y-118265521D01*
X82467679Y-118390478D01*
X82490581Y-118408565D01*
X82641146Y-118501375D01*
X82667595Y-118513708D01*
X82835472Y-118569390D01*
X82862296Y-118575141D01*
X82966757Y-118585844D01*
X82979600Y-118586500D01*
X83755400Y-118586500D01*
X83768404Y-118585827D01*
X83874170Y-118574853D01*
X83901042Y-118569050D01*
X84068822Y-118513074D01*
X84095249Y-118500694D01*
X84245651Y-118407622D01*
X84268521Y-118389496D01*
X84393478Y-118264321D01*
X84411565Y-118241419D01*
X84504375Y-118090854D01*
X84516708Y-118064405D01*
X84572390Y-117896528D01*
X84578141Y-117869704D01*
X84588844Y-117765243D01*
X84589500Y-117752400D01*
X84589500Y-116701600D01*
X84588827Y-116688596D01*
X84577853Y-116582830D01*
X84572050Y-116555958D01*
X84535577Y-116446636D01*
X87861249Y-116446636D01*
X87879651Y-116809897D01*
X87881076Y-116823450D01*
X87938603Y-117182599D01*
X87941483Y-117195919D01*
X88037460Y-117546754D01*
X88041761Y-117559685D01*
X88175068Y-117898103D01*
X88180741Y-117910494D01*
X88349816Y-118232535D01*
X88356794Y-118244241D01*
X88559661Y-118546139D01*
X88567863Y-118557023D01*
X88706231Y-118721339D01*
X88765410Y-118760562D01*
X88836399Y-118761564D01*
X88891706Y-118729274D01*
X91079885Y-116541095D01*
X91113911Y-116478783D01*
X91108846Y-116407968D01*
X91079885Y-116362905D01*
X88891810Y-114174830D01*
X88829498Y-114140804D01*
X88758683Y-114145869D01*
X88706903Y-114182095D01*
X88582626Y-114327606D01*
X88574350Y-114338432D01*
X88369380Y-114638906D01*
X88362320Y-114650563D01*
X88191001Y-114971417D01*
X88185242Y-114983767D01*
X88049576Y-115321245D01*
X88045184Y-115334146D01*
X87946759Y-115684303D01*
X87943786Y-115697603D01*
X87883754Y-116056342D01*
X87882235Y-116069885D01*
X87861297Y-116433008D01*
X87861249Y-116446636D01*
X84535577Y-116446636D01*
X84516074Y-116388178D01*
X84503694Y-116361751D01*
X84410622Y-116211349D01*
X84392495Y-116188479D01*
X84389500Y-116185489D01*
X84389500Y-114686500D01*
X84828134Y-114686500D01*
X84841742Y-114685763D01*
X84903924Y-114679008D01*
X84934546Y-114671727D01*
X85070935Y-114620597D01*
X85102270Y-114603441D01*
X85218826Y-114516087D01*
X85244087Y-114490826D01*
X85331441Y-114374270D01*
X85348597Y-114342935D01*
X85399727Y-114206546D01*
X85407008Y-114175924D01*
X85413763Y-114113742D01*
X85414500Y-114100134D01*
X85414500Y-113386500D01*
X89687790Y-113386500D01*
X89404766Y-113555887D01*
X89393468Y-113563508D01*
X89103366Y-113782911D01*
X89092956Y-113791707D01*
X89073004Y-113810509D01*
X89037146Y-113871785D01*
X89040108Y-113942719D01*
X89070323Y-113991303D01*
X91260905Y-116181885D01*
X91323217Y-116215911D01*
X91394032Y-116210846D01*
X91439095Y-116181885D01*
X93630073Y-113990907D01*
X93664099Y-113928595D01*
X93659034Y-113857780D01*
X93627713Y-113810417D01*
X93616318Y-113799603D01*
X93605937Y-113790768D01*
X93316602Y-113570354D01*
X93305331Y-113562694D01*
X93013251Y-113386500D01*
X93401088Y-113386500D01*
X93458782Y-113390433D01*
X93489015Y-113388849D01*
X93551962Y-113377863D01*
X93615379Y-113370189D01*
X93644780Y-113362968D01*
X93651189Y-113360546D01*
X93657946Y-113359367D01*
X93686930Y-113350616D01*
X93745441Y-113324931D01*
X93805193Y-113302353D01*
X93832020Y-113288329D01*
X93837670Y-113284446D01*
X93843955Y-113281687D01*
X93870010Y-113266277D01*
X93920697Y-113227382D01*
X93973347Y-113191198D01*
X93996057Y-113171176D01*
X94037511Y-113124649D01*
X94716000Y-112446160D01*
X94716000Y-115552316D01*
X94658698Y-115345690D01*
X94654352Y-115332774D01*
X94519865Y-114994823D01*
X94514148Y-114982452D01*
X94343949Y-114661003D01*
X94336931Y-114649322D01*
X94133012Y-114348134D01*
X94124772Y-114337279D01*
X93993419Y-114182392D01*
X93934105Y-114143375D01*
X93863112Y-114142620D01*
X93808228Y-114174792D01*
X91620115Y-116362905D01*
X91586089Y-116425217D01*
X91591154Y-116496032D01*
X91620115Y-116541095D01*
X93808180Y-118729160D01*
X93870492Y-118763186D01*
X93941307Y-118758121D01*
X93992800Y-118722230D01*
X94109941Y-118586042D01*
X94118256Y-118575244D01*
X94324273Y-118275487D01*
X94331373Y-118263855D01*
X94503812Y-117943602D01*
X94509615Y-117931271D01*
X94646458Y-117594268D01*
X94650894Y-117581383D01*
X94716000Y-117352826D01*
X94716000Y-119318000D01*
X93335466Y-119318000D01*
X93587304Y-119128915D01*
X93597744Y-119120155D01*
X93626308Y-119093425D01*
X93662380Y-119032275D01*
X93659665Y-118961330D01*
X93629310Y-118912330D01*
X91439095Y-116722115D01*
X91376783Y-116688089D01*
X91305968Y-116693154D01*
X91260905Y-116722115D01*
X89069502Y-118913518D01*
X89035476Y-118975830D01*
X89040541Y-119046645D01*
X89071555Y-119093716D01*
X89074449Y-119096481D01*
X89084787Y-119105340D01*
X89361930Y-119318000D01*
X78384000Y-119318000D01*
X78384000Y-117752362D01*
X80071001Y-117752362D01*
X80071674Y-117765365D01*
X80082641Y-117871066D01*
X80088444Y-117897939D01*
X80144382Y-118065608D01*
X80156762Y-118092035D01*
X80249773Y-118242338D01*
X80267899Y-118265208D01*
X80392991Y-118390083D01*
X80415893Y-118408170D01*
X80566359Y-118500918D01*
X80592807Y-118513251D01*
X80760573Y-118568897D01*
X80787399Y-118574648D01*
X80891795Y-118585344D01*
X80904637Y-118586000D01*
X81038500Y-118586000D01*
X81106621Y-118565998D01*
X81153114Y-118512342D01*
X81164500Y-118460000D01*
X81164500Y-117481000D01*
X81144498Y-117412879D01*
X81090842Y-117366386D01*
X81038500Y-117355000D01*
X80197001Y-117355000D01*
X80128880Y-117375002D01*
X80082387Y-117428658D01*
X80071001Y-117481000D01*
X80071001Y-117752362D01*
X78384000Y-117752362D01*
X78384000Y-116973000D01*
X80071000Y-116973000D01*
X80091002Y-117041121D01*
X80144658Y-117087614D01*
X80197000Y-117099000D01*
X81038500Y-117099000D01*
X81106621Y-117078998D01*
X81153114Y-117025342D01*
X81164500Y-116973000D01*
X81164500Y-115994001D01*
X81144498Y-115925880D01*
X81090842Y-115879387D01*
X81038500Y-115868001D01*
X80904638Y-115868001D01*
X80891635Y-115868674D01*
X80785934Y-115879641D01*
X80759061Y-115885444D01*
X80591392Y-115941382D01*
X80564965Y-115953762D01*
X80414662Y-116046773D01*
X80391792Y-116064899D01*
X80266917Y-116189991D01*
X80248830Y-116212893D01*
X80156082Y-116363359D01*
X80143749Y-116389807D01*
X80088103Y-116557573D01*
X80082352Y-116584399D01*
X80071656Y-116688795D01*
X80071000Y-116701637D01*
X80071000Y-116973000D01*
X78384000Y-116973000D01*
X78384000Y-115050088D01*
X79246001Y-115050088D01*
X79246738Y-115063693D01*
X79253485Y-115125812D01*
X79260766Y-115156437D01*
X79311846Y-115292692D01*
X79329002Y-115324027D01*
X79416270Y-115440469D01*
X79441531Y-115465730D01*
X79557973Y-115552998D01*
X79589308Y-115570154D01*
X79725563Y-115621234D01*
X79756185Y-115628515D01*
X79818303Y-115635263D01*
X79831911Y-115636000D01*
X80576000Y-115636000D01*
X80644121Y-115615998D01*
X80690614Y-115562342D01*
X80702000Y-115510000D01*
X80702000Y-115509999D01*
X80958000Y-115509999D01*
X80978002Y-115578120D01*
X81031658Y-115624613D01*
X81084000Y-115635999D01*
X81828088Y-115635999D01*
X81841693Y-115635262D01*
X81903812Y-115628515D01*
X81934437Y-115621234D01*
X82070692Y-115570154D01*
X82102027Y-115552998D01*
X82218469Y-115465730D01*
X82243730Y-115440469D01*
X82330998Y-115324027D01*
X82348154Y-115292692D01*
X82399234Y-115156437D01*
X82406515Y-115125815D01*
X82413263Y-115063697D01*
X82414000Y-115050089D01*
X82414000Y-114856000D01*
X82393998Y-114787879D01*
X82340342Y-114741386D01*
X82288000Y-114730000D01*
X81084000Y-114730000D01*
X81015879Y-114750002D01*
X80969386Y-114803658D01*
X80958000Y-114856000D01*
X80958000Y-115509999D01*
X80702000Y-115509999D01*
X80702000Y-114856000D01*
X80681998Y-114787879D01*
X80628342Y-114741386D01*
X80576000Y-114730000D01*
X79372001Y-114730000D01*
X79303880Y-114750002D01*
X79257387Y-114803658D01*
X79246001Y-114856000D01*
X79246001Y-115050088D01*
X78384000Y-115050088D01*
X78384000Y-92523430D01*
X79516922Y-92523430D01*
X79526702Y-92734725D01*
X79530074Y-92758420D01*
X79579632Y-92964055D01*
X79587424Y-92986685D01*
X79674973Y-93179238D01*
X79686904Y-93199987D01*
X79809284Y-93372511D01*
X79824923Y-93390629D01*
X79977719Y-93536899D01*
X79996502Y-93551733D01*
X80029258Y-93572884D01*
X79909593Y-93666882D01*
X79892261Y-93683387D01*
X79753692Y-93843073D01*
X79739793Y-93862559D01*
X79633920Y-94045568D01*
X79623956Y-94067330D01*
X79554599Y-94267057D01*
X79548930Y-94290315D01*
X79547537Y-94299925D01*
X79557560Y-94370210D01*
X79603991Y-94423919D01*
X79672234Y-94444000D01*
X82383517Y-94444000D01*
X82451638Y-94423998D01*
X82498131Y-94370342D01*
X82508235Y-94300068D01*
X82506010Y-94288479D01*
X82479893Y-94180109D01*
X82472101Y-94157479D01*
X82384592Y-93965012D01*
X82372661Y-93944263D01*
X82250336Y-93771817D01*
X82234697Y-93753699D01*
X82081970Y-93607495D01*
X82063187Y-93592661D01*
X82030770Y-93571730D01*
X82150753Y-93477482D01*
X82168085Y-93460976D01*
X82306717Y-93301217D01*
X82320616Y-93281732D01*
X82426537Y-93098641D01*
X82436501Y-93076879D01*
X82505889Y-92877062D01*
X82511557Y-92853809D01*
X82541909Y-92644476D01*
X82543078Y-92620570D01*
X82533298Y-92409275D01*
X82529926Y-92385580D01*
X82480368Y-92179945D01*
X82472576Y-92157315D01*
X82385027Y-91964762D01*
X82373096Y-91944013D01*
X82250716Y-91771489D01*
X82235077Y-91753371D01*
X82139813Y-91662176D01*
X82195651Y-91627622D01*
X82218521Y-91609496D01*
X82343478Y-91484321D01*
X82361565Y-91461419D01*
X82454375Y-91310854D01*
X82466708Y-91284405D01*
X82470497Y-91272982D01*
X85219628Y-91272982D01*
X85238996Y-91494358D01*
X85242810Y-91515987D01*
X85300325Y-91730636D01*
X85307837Y-91751275D01*
X85401752Y-91952675D01*
X85412733Y-91971694D01*
X85456971Y-92034874D01*
X85512428Y-92079204D01*
X85583047Y-92086514D01*
X85649280Y-92051700D01*
X86349885Y-91351095D01*
X86383911Y-91288783D01*
X86380080Y-91235217D01*
X86856089Y-91235217D01*
X86861154Y-91306032D01*
X86890115Y-91351095D01*
X87590720Y-92051700D01*
X87653032Y-92085726D01*
X87723847Y-92080661D01*
X87783029Y-92034874D01*
X87827267Y-91971694D01*
X87838248Y-91952675D01*
X87932163Y-91751275D01*
X87939675Y-91730636D01*
X87997190Y-91515987D01*
X88001004Y-91494358D01*
X88020372Y-91272982D01*
X88020372Y-91251018D01*
X88001004Y-91029642D01*
X87997190Y-91008013D01*
X87939675Y-90793364D01*
X87932163Y-90772725D01*
X87838248Y-90571325D01*
X87827267Y-90552306D01*
X87783029Y-90489126D01*
X87727572Y-90444796D01*
X87656953Y-90437486D01*
X87590720Y-90472300D01*
X86890115Y-91172905D01*
X86856089Y-91235217D01*
X86380080Y-91235217D01*
X86378846Y-91217968D01*
X86349885Y-91172905D01*
X85649280Y-90472300D01*
X85586968Y-90438274D01*
X85516153Y-90443339D01*
X85456971Y-90489126D01*
X85412733Y-90552306D01*
X85401752Y-90571325D01*
X85307837Y-90772725D01*
X85300325Y-90793364D01*
X85242810Y-91008013D01*
X85238996Y-91029642D01*
X85219628Y-91251018D01*
X85219628Y-91272982D01*
X82470497Y-91272982D01*
X82522390Y-91116528D01*
X82528141Y-91089704D01*
X82538844Y-90985243D01*
X82539500Y-90972400D01*
X82539500Y-90225047D01*
X85795486Y-90225047D01*
X85830300Y-90291280D01*
X86530905Y-90991885D01*
X86593217Y-91025911D01*
X86664032Y-91020846D01*
X86709095Y-90991885D01*
X87409700Y-90291280D01*
X87443726Y-90228968D01*
X87438661Y-90158153D01*
X87412271Y-90124043D01*
X88194745Y-90124043D01*
X88195821Y-90141149D01*
X88233346Y-90426180D01*
X88236734Y-90442982D01*
X88312595Y-90720284D01*
X88318232Y-90736471D01*
X88431026Y-91000911D01*
X88438807Y-91016182D01*
X88586445Y-91262867D01*
X88596227Y-91276942D01*
X88775979Y-91501309D01*
X88787580Y-91513925D01*
X88996118Y-91711820D01*
X89009325Y-91722745D01*
X89242791Y-91890508D01*
X89257358Y-91899540D01*
X89511433Y-92034066D01*
X89527091Y-92041038D01*
X89797072Y-92139837D01*
X89813531Y-92144619D01*
X90094422Y-92205863D01*
X90111378Y-92208367D01*
X90336853Y-92226112D01*
X90346739Y-92226500D01*
X90502271Y-92226500D01*
X90510841Y-92226208D01*
X90725395Y-92211581D01*
X90742376Y-92209255D01*
X91023893Y-92150956D01*
X91040402Y-92146347D01*
X91311403Y-92050380D01*
X91327133Y-92043573D01*
X91582602Y-91911716D01*
X91597263Y-91902837D01*
X91832474Y-91737528D01*
X91845794Y-91726741D01*
X92056393Y-91531040D01*
X92068126Y-91518546D01*
X92250217Y-91296074D01*
X92260146Y-91282103D01*
X92410360Y-91036977D01*
X92418300Y-91021787D01*
X92533856Y-90758543D01*
X92539662Y-90742417D01*
X92618423Y-90465925D01*
X92621987Y-90449159D01*
X92662494Y-90164537D01*
X92663749Y-90147444D01*
X92665255Y-89859957D01*
X92664179Y-89842851D01*
X92626654Y-89557820D01*
X92623266Y-89541018D01*
X92547405Y-89263716D01*
X92541768Y-89247529D01*
X92428974Y-88983089D01*
X92421193Y-88967818D01*
X92273555Y-88721133D01*
X92263773Y-88707058D01*
X92084021Y-88482691D01*
X92072420Y-88470075D01*
X91863882Y-88272180D01*
X91850675Y-88261255D01*
X91617209Y-88093492D01*
X91602642Y-88084460D01*
X91348567Y-87949934D01*
X91332909Y-87942962D01*
X91062928Y-87844163D01*
X91046469Y-87839381D01*
X90765578Y-87778137D01*
X90748622Y-87775633D01*
X90523147Y-87757888D01*
X90513261Y-87757500D01*
X90357729Y-87757500D01*
X90349159Y-87757792D01*
X90134605Y-87772419D01*
X90117624Y-87774745D01*
X89836107Y-87833044D01*
X89819598Y-87837653D01*
X89548597Y-87933620D01*
X89532867Y-87940427D01*
X89277398Y-88072284D01*
X89262737Y-88081163D01*
X89027526Y-88246472D01*
X89014206Y-88257259D01*
X88803607Y-88452960D01*
X88791874Y-88465454D01*
X88609783Y-88687926D01*
X88599854Y-88701897D01*
X88449640Y-88947023D01*
X88441700Y-88962213D01*
X88326144Y-89225457D01*
X88320338Y-89241583D01*
X88241577Y-89518075D01*
X88238013Y-89534841D01*
X88197506Y-89819463D01*
X88196251Y-89836556D01*
X88194745Y-90124043D01*
X87412271Y-90124043D01*
X87392875Y-90098972D01*
X87329696Y-90054734D01*
X87310676Y-90043752D01*
X87109275Y-89949837D01*
X87088636Y-89942325D01*
X86873987Y-89884810D01*
X86852358Y-89880996D01*
X86630982Y-89861628D01*
X86609018Y-89861628D01*
X86387642Y-89880996D01*
X86366013Y-89884810D01*
X86151364Y-89942325D01*
X86130725Y-89949837D01*
X85929325Y-90043752D01*
X85910306Y-90054733D01*
X85847126Y-90098971D01*
X85802796Y-90154428D01*
X85795486Y-90225047D01*
X82539500Y-90225047D01*
X82539500Y-90171600D01*
X82538827Y-90158596D01*
X82527853Y-90052830D01*
X82522050Y-90025958D01*
X82466074Y-89858178D01*
X82453694Y-89831751D01*
X82360622Y-89681349D01*
X82342496Y-89658479D01*
X82217321Y-89533522D01*
X82194419Y-89515435D01*
X82043854Y-89422625D01*
X82017405Y-89410292D01*
X81849528Y-89354610D01*
X81822704Y-89348859D01*
X81718243Y-89338156D01*
X81705400Y-89337500D01*
X80354600Y-89337500D01*
X80341596Y-89338173D01*
X80235830Y-89349147D01*
X80208958Y-89354950D01*
X80041178Y-89410926D01*
X80014751Y-89423306D01*
X79864349Y-89516378D01*
X79841479Y-89534504D01*
X79716522Y-89659679D01*
X79698435Y-89682581D01*
X79605625Y-89833146D01*
X79593292Y-89859595D01*
X79537610Y-90027472D01*
X79531859Y-90054296D01*
X79521156Y-90158757D01*
X79520500Y-90171600D01*
X79520500Y-90972400D01*
X79521173Y-90985404D01*
X79532147Y-91091170D01*
X79537950Y-91118042D01*
X79593926Y-91285822D01*
X79606306Y-91312249D01*
X79699378Y-91462651D01*
X79717504Y-91485521D01*
X79842679Y-91610478D01*
X79865581Y-91628565D01*
X79917120Y-91660334D01*
X79909247Y-91666518D01*
X79891915Y-91683024D01*
X79753283Y-91842783D01*
X79739384Y-91862268D01*
X79633463Y-92045359D01*
X79623499Y-92067121D01*
X79554111Y-92266938D01*
X79548443Y-92290191D01*
X79518091Y-92499524D01*
X79516922Y-92523430D01*
X78384000Y-92523430D01*
X78384000Y-86573134D01*
X79425500Y-86573134D01*
X79426237Y-86586742D01*
X79432992Y-86648924D01*
X79440273Y-86679546D01*
X79491403Y-86815935D01*
X79508559Y-86847270D01*
X79595913Y-86963826D01*
X79621174Y-86989087D01*
X79737730Y-87076441D01*
X79769065Y-87093597D01*
X79905454Y-87144727D01*
X79936076Y-87152008D01*
X79998258Y-87158763D01*
X80011866Y-87159500D01*
X81808134Y-87159500D01*
X81821742Y-87158763D01*
X81883924Y-87152008D01*
X81914546Y-87144727D01*
X82050935Y-87093597D01*
X82082270Y-87076441D01*
X82198826Y-86989087D01*
X82224087Y-86963826D01*
X82311441Y-86847270D01*
X82328597Y-86815935D01*
X82379727Y-86679546D01*
X82387008Y-86648924D01*
X82393763Y-86586742D01*
X82394500Y-86573134D01*
X82394500Y-85975830D01*
X89035476Y-85975830D01*
X89040541Y-86046645D01*
X89071555Y-86093716D01*
X89074449Y-86096481D01*
X89084787Y-86105340D01*
X89373350Y-86326763D01*
X89384595Y-86334463D01*
X89695385Y-86523426D01*
X89707395Y-86529866D01*
X90036774Y-86684158D01*
X90049409Y-86689263D01*
X90393526Y-86807081D01*
X90406639Y-86810791D01*
X90761467Y-86890755D01*
X90774904Y-86893028D01*
X91136293Y-86934203D01*
X91149897Y-86935011D01*
X91513618Y-86936915D01*
X91527230Y-86936250D01*
X91889030Y-86898862D01*
X91902490Y-86896730D01*
X92258136Y-86820486D01*
X92271287Y-86816913D01*
X92616619Y-86702705D01*
X92629307Y-86697732D01*
X92960284Y-86546897D01*
X92972361Y-86540583D01*
X93285112Y-86354885D01*
X93296437Y-86347304D01*
X93587304Y-86128915D01*
X93597744Y-86120155D01*
X93626308Y-86093425D01*
X93662380Y-86032275D01*
X93659665Y-85961330D01*
X93629310Y-85912330D01*
X91439095Y-83722115D01*
X91376783Y-83688089D01*
X91305968Y-83693154D01*
X91260905Y-83722115D01*
X89069502Y-85913518D01*
X89035476Y-85975830D01*
X82394500Y-85975830D01*
X82394500Y-84776866D01*
X82393763Y-84763258D01*
X82387008Y-84701076D01*
X82379727Y-84670454D01*
X82328597Y-84534065D01*
X82311441Y-84502730D01*
X82224087Y-84386174D01*
X82198826Y-84360913D01*
X82082270Y-84273559D01*
X82050935Y-84256403D01*
X81931917Y-84211785D01*
X82036653Y-84107413D01*
X82050035Y-84091689D01*
X82180344Y-83910345D01*
X82190979Y-83892646D01*
X82289921Y-83692453D01*
X82297522Y-83673255D01*
X82362438Y-83459592D01*
X82365239Y-83446636D01*
X87861249Y-83446636D01*
X87879651Y-83809897D01*
X87881076Y-83823450D01*
X87938603Y-84182599D01*
X87941483Y-84195919D01*
X88037460Y-84546754D01*
X88041761Y-84559685D01*
X88175068Y-84898103D01*
X88180741Y-84910494D01*
X88349816Y-85232535D01*
X88356794Y-85244241D01*
X88559661Y-85546139D01*
X88567863Y-85557023D01*
X88706231Y-85721339D01*
X88765410Y-85760562D01*
X88836399Y-85761564D01*
X88891706Y-85729274D01*
X91079885Y-83541095D01*
X91113911Y-83478783D01*
X91108846Y-83407968D01*
X91079885Y-83362905D01*
X88891810Y-81174830D01*
X88829498Y-81140804D01*
X88758683Y-81145869D01*
X88706903Y-81182095D01*
X88582626Y-81327606D01*
X88574350Y-81338432D01*
X88369380Y-81638906D01*
X88362320Y-81650563D01*
X88191001Y-81971417D01*
X88185242Y-81983767D01*
X88049576Y-82321245D01*
X88045184Y-82334146D01*
X87946759Y-82684303D01*
X87943786Y-82697603D01*
X87883754Y-83056342D01*
X87882235Y-83069885D01*
X87861297Y-83433008D01*
X87861249Y-83446636D01*
X82365239Y-83446636D01*
X82366802Y-83439408D01*
X82371273Y-83405445D01*
X82360333Y-83335297D01*
X82313205Y-83282198D01*
X82246351Y-83263000D01*
X79575110Y-83263000D01*
X79506989Y-83283002D01*
X79460496Y-83336658D01*
X79450392Y-83406932D01*
X79452193Y-83416701D01*
X79486784Y-83570190D01*
X79492958Y-83589893D01*
X79576971Y-83796794D01*
X79586281Y-83815225D01*
X79702959Y-84005626D01*
X79715155Y-84022288D01*
X79861364Y-84191076D01*
X79876116Y-84205523D01*
X79885035Y-84212928D01*
X79769065Y-84256403D01*
X79737730Y-84273559D01*
X79621174Y-84360913D01*
X79595913Y-84386174D01*
X79508559Y-84502730D01*
X79491403Y-84534065D01*
X79440273Y-84670454D01*
X79432992Y-84701076D01*
X79426237Y-84763258D01*
X79425500Y-84776866D01*
X79425500Y-86573134D01*
X78384000Y-86573134D01*
X78384000Y-82867590D01*
X79446055Y-82867590D01*
X79458693Y-82937453D01*
X79507096Y-82989392D01*
X79571339Y-83007000D01*
X80656000Y-83007000D01*
X80724121Y-82986998D01*
X80770614Y-82933342D01*
X80782000Y-82881000D01*
X81038000Y-82881000D01*
X81058002Y-82949121D01*
X81111658Y-82995614D01*
X81164000Y-83007000D01*
X82246459Y-83007000D01*
X82314580Y-82986998D01*
X82361073Y-82933342D01*
X82371177Y-82863068D01*
X82368663Y-82850304D01*
X82322159Y-82665167D01*
X82315505Y-82645621D01*
X82226462Y-82440835D01*
X82216704Y-82422637D01*
X82095409Y-82235143D01*
X82082810Y-82218783D01*
X81932521Y-82053618D01*
X81917420Y-82039536D01*
X81742173Y-81901135D01*
X81724975Y-81889709D01*
X81529477Y-81781788D01*
X81510643Y-81773323D01*
X81300144Y-81698781D01*
X81280180Y-81693507D01*
X81186096Y-81676748D01*
X81115524Y-81684494D01*
X81060342Y-81729164D01*
X81038000Y-81800795D01*
X81038000Y-82881000D01*
X80782000Y-82881000D01*
X80782000Y-81799987D01*
X80761998Y-81731866D01*
X80708342Y-81685373D01*
X80636940Y-81675437D01*
X80575148Y-81684893D01*
X80555063Y-81689678D01*
X80342805Y-81759054D01*
X80323770Y-81767056D01*
X80125694Y-81870168D01*
X80108221Y-81881171D01*
X79929645Y-82015250D01*
X79914204Y-82028959D01*
X79759925Y-82190403D01*
X79746931Y-82206450D01*
X79621091Y-82390924D01*
X79610891Y-82408878D01*
X79516871Y-82611428D01*
X79509742Y-82630806D01*
X79450065Y-82845992D01*
X79446198Y-82866254D01*
X79446055Y-82867590D01*
X78384000Y-82867590D01*
X78384000Y-80586000D01*
X89363728Y-80586000D01*
X89103366Y-80782911D01*
G37*
%TD.AperFunction*%
X93155500Y-95849082D02*
X93155500Y-99780500D01*
X92895600Y-99780500D01*
X92882596Y-99781173D01*
X92776830Y-99792147D01*
X92749958Y-99797950D01*
X92582178Y-99853926D01*
X92555751Y-99866306D01*
X92405349Y-99959378D01*
X92382479Y-99977504D01*
X92257522Y-100102679D01*
X92245684Y-100117668D01*
X92233101Y-100101792D01*
X92108009Y-99976917D01*
X92085107Y-99958830D01*
X91934641Y-99866082D01*
X91908193Y-99853749D01*
X91740427Y-99798103D01*
X91713601Y-99792352D01*
X91609205Y-99781656D01*
X91596363Y-99781000D01*
X91462500Y-99781000D01*
X91394379Y-99801002D01*
X91347886Y-99854658D01*
X91336500Y-99907000D01*
X91336500Y-101268000D01*
X91080500Y-101268000D01*
X91080500Y-99907001D01*
X91060498Y-99838880D01*
X91006842Y-99792387D01*
X90964687Y-99783217D01*
X91023893Y-99770956D01*
X91040402Y-99766347D01*
X91311403Y-99670380D01*
X91327133Y-99663573D01*
X91582602Y-99531716D01*
X91597263Y-99522837D01*
X91832474Y-99357528D01*
X91845794Y-99346741D01*
X92056393Y-99151040D01*
X92068126Y-99138546D01*
X92250217Y-98916074D01*
X92260146Y-98902103D01*
X92410360Y-98656977D01*
X92418300Y-98641787D01*
X92533856Y-98378543D01*
X92539662Y-98362417D01*
X92618423Y-98085925D01*
X92621987Y-98069159D01*
X92662494Y-97784537D01*
X92663749Y-97767444D01*
X92665255Y-97479957D01*
X92664179Y-97462851D01*
X92626654Y-97177820D01*
X92623266Y-97161018D01*
X92547405Y-96883716D01*
X92541768Y-96867529D01*
X92428974Y-96603089D01*
X92421193Y-96587818D01*
X92273555Y-96341133D01*
X92263773Y-96327058D01*
X92084021Y-96102691D01*
X92072420Y-96090075D01*
X91863882Y-95892180D01*
X91850675Y-95881255D01*
X91617209Y-95713492D01*
X91602642Y-95704460D01*
X91348567Y-95569934D01*
X91332909Y-95562962D01*
X91062928Y-95464163D01*
X91046469Y-95459381D01*
X90765578Y-95398137D01*
X90748622Y-95395633D01*
X90523147Y-95377888D01*
X90513261Y-95377500D01*
X90357729Y-95377500D01*
X90349159Y-95377792D01*
X90134605Y-95392419D01*
X90117624Y-95394745D01*
X89836107Y-95453044D01*
X89819598Y-95457653D01*
X89548597Y-95553620D01*
X89532867Y-95560427D01*
X89277398Y-95692284D01*
X89262737Y-95701163D01*
X89027526Y-95866472D01*
X89014206Y-95877259D01*
X88803607Y-96072960D01*
X88791874Y-96085454D01*
X88609783Y-96307926D01*
X88599854Y-96321897D01*
X88449640Y-96567023D01*
X88441700Y-96582213D01*
X88369500Y-96746689D01*
X88369500Y-96740763D01*
X88371639Y-96718133D01*
X88369500Y-96650075D01*
X88369500Y-96622144D01*
X88368506Y-96606346D01*
X88367999Y-96602336D01*
X88366611Y-96558153D01*
X88361670Y-96526959D01*
X88356020Y-96507509D01*
X88353480Y-96487409D01*
X88345626Y-96456820D01*
X88329352Y-96415715D01*
X88317015Y-96373253D01*
X88304472Y-96344268D01*
X88294161Y-96326832D01*
X88286704Y-96307999D01*
X88271488Y-96280323D01*
X88245510Y-96244566D01*
X88222996Y-96206498D01*
X88203637Y-96181542D01*
X88189313Y-96167218D01*
X88177408Y-96150832D01*
X88155787Y-96127808D01*
X88121722Y-96099627D01*
X87956566Y-95934471D01*
X87940146Y-95873192D01*
X87932635Y-95852554D01*
X87838683Y-95651074D01*
X87827701Y-95632053D01*
X87700190Y-95449948D01*
X87686072Y-95433124D01*
X87528876Y-95275928D01*
X87512052Y-95261810D01*
X87329948Y-95134299D01*
X87310927Y-95123317D01*
X87200877Y-95072000D01*
X87310927Y-95020683D01*
X87329948Y-95009701D01*
X87348801Y-94996500D01*
X92302918Y-94996500D01*
X93155500Y-95849082D02*
X92302918Y-94996500D01*
%TA.AperFunction,Conductor*%
G36*
X93155500Y-95849082D02*
G01*
X93155500Y-99780500D01*
X92895600Y-99780500D01*
X92882596Y-99781173D01*
X92776830Y-99792147D01*
X92749958Y-99797950D01*
X92582178Y-99853926D01*
X92555751Y-99866306D01*
X92405349Y-99959378D01*
X92382479Y-99977504D01*
X92257522Y-100102679D01*
X92245684Y-100117668D01*
X92233101Y-100101792D01*
X92108009Y-99976917D01*
X92085107Y-99958830D01*
X91934641Y-99866082D01*
X91908193Y-99853749D01*
X91740427Y-99798103D01*
X91713601Y-99792352D01*
X91609205Y-99781656D01*
X91596363Y-99781000D01*
X91462500Y-99781000D01*
X91394379Y-99801002D01*
X91347886Y-99854658D01*
X91336500Y-99907000D01*
X91336500Y-101268000D01*
X91080500Y-101268000D01*
X91080500Y-99907001D01*
X91060498Y-99838880D01*
X91006842Y-99792387D01*
X90964687Y-99783217D01*
X91023893Y-99770956D01*
X91040402Y-99766347D01*
X91311403Y-99670380D01*
X91327133Y-99663573D01*
X91582602Y-99531716D01*
X91597263Y-99522837D01*
X91832474Y-99357528D01*
X91845794Y-99346741D01*
X92056393Y-99151040D01*
X92068126Y-99138546D01*
X92250217Y-98916074D01*
X92260146Y-98902103D01*
X92410360Y-98656977D01*
X92418300Y-98641787D01*
X92533856Y-98378543D01*
X92539662Y-98362417D01*
X92618423Y-98085925D01*
X92621987Y-98069159D01*
X92662494Y-97784537D01*
X92663749Y-97767444D01*
X92665255Y-97479957D01*
X92664179Y-97462851D01*
X92626654Y-97177820D01*
X92623266Y-97161018D01*
X92547405Y-96883716D01*
X92541768Y-96867529D01*
X92428974Y-96603089D01*
X92421193Y-96587818D01*
X92273555Y-96341133D01*
X92263773Y-96327058D01*
X92084021Y-96102691D01*
X92072420Y-96090075D01*
X91863882Y-95892180D01*
X91850675Y-95881255D01*
X91617209Y-95713492D01*
X91602642Y-95704460D01*
X91348567Y-95569934D01*
X91332909Y-95562962D01*
X91062928Y-95464163D01*
X91046469Y-95459381D01*
X90765578Y-95398137D01*
X90748622Y-95395633D01*
X90523147Y-95377888D01*
X90513261Y-95377500D01*
X90357729Y-95377500D01*
X90349159Y-95377792D01*
X90134605Y-95392419D01*
X90117624Y-95394745D01*
X89836107Y-95453044D01*
X89819598Y-95457653D01*
X89548597Y-95553620D01*
X89532867Y-95560427D01*
X89277398Y-95692284D01*
X89262737Y-95701163D01*
X89027526Y-95866472D01*
X89014206Y-95877259D01*
X88803607Y-96072960D01*
X88791874Y-96085454D01*
X88609783Y-96307926D01*
X88599854Y-96321897D01*
X88449640Y-96567023D01*
X88441700Y-96582213D01*
X88369500Y-96746689D01*
X88369500Y-96740763D01*
X88371639Y-96718133D01*
X88369500Y-96650075D01*
X88369500Y-96622144D01*
X88368506Y-96606346D01*
X88367999Y-96602336D01*
X88366611Y-96558153D01*
X88361670Y-96526959D01*
X88356020Y-96507509D01*
X88353480Y-96487409D01*
X88345626Y-96456820D01*
X88329352Y-96415715D01*
X88317015Y-96373253D01*
X88304472Y-96344268D01*
X88294161Y-96326832D01*
X88286704Y-96307999D01*
X88271488Y-96280323D01*
X88245510Y-96244566D01*
X88222996Y-96206498D01*
X88203637Y-96181542D01*
X88189313Y-96167218D01*
X88177408Y-96150832D01*
X88155787Y-96127808D01*
X88121722Y-96099627D01*
X87956566Y-95934471D01*
X87940146Y-95873192D01*
X87932635Y-95852554D01*
X87838683Y-95651074D01*
X87827701Y-95632053D01*
X87700190Y-95449948D01*
X87686072Y-95433124D01*
X87528876Y-95275928D01*
X87512052Y-95261810D01*
X87329948Y-95134299D01*
X87310927Y-95123317D01*
X87200877Y-95072000D01*
X87310927Y-95020683D01*
X87329948Y-95009701D01*
X87348801Y-94996500D01*
X92302918Y-94996500D01*
X93155500Y-95849082D01*
G37*
%TD.AperFunction*%
%TD*%
M02*
