%TF.GenerationSoftware,KiCad,Pcbnew,(6.0.1)*%
%TF.CreationDate,2022-07-02T13:05:34-07:00*%
%TF.ProjectId,mu100-dit,6d753130-302d-4646-9974-2e6b69636164,rev?*%
%TF.SameCoordinates,Original*%
%TF.FileFunction,Legend,Top*%
%TF.FilePolarity,Positive*%
%FSLAX46Y46*%
G04 Gerber Fmt 4.6, Leading zero omitted, Abs format (unit mm)*
G04 Created by KiCad (PCBNEW (6.0.1)) date 2022-07-02 13:05:34*
%MOMM*%
%LPD*%
G01*
G04 APERTURE LIST*
G04 Aperture macros list*
%AMRoundRect*
0 Rectangle with rounded corners*
0 $1 Rounding radius*
0 $2 $3 $4 $5 $6 $7 $8 $9 X,Y pos of 4 corners*
0 Add a 4 corners polygon primitive as box body*
4,1,4,$2,$3,$4,$5,$6,$7,$8,$9,$2,$3,0*
0 Add four circle primitives for the rounded corners*
1,1,$1+$1,$2,$3*
1,1,$1+$1,$4,$5*
1,1,$1+$1,$6,$7*
1,1,$1+$1,$8,$9*
0 Add four rect primitives between the rounded corners*
20,1,$1+$1,$2,$3,$4,$5,0*
20,1,$1+$1,$4,$5,$6,$7,0*
20,1,$1+$1,$6,$7,$8,$9,0*
20,1,$1+$1,$8,$9,$2,$3,0*%
G04 Aperture macros list end*
%ADD10C,0.150000*%
%ADD11C,0.120000*%
%ADD12C,0.050000*%
%ADD13C,5.600000*%
%ADD14C,3.600000*%
%ADD15RoundRect,0.250000X-0.625000X0.350000X-0.625000X-0.350000X0.625000X-0.350000X0.625000X0.350000X0*%
%ADD16O,1.750000X1.200000*%
%ADD17RoundRect,0.100000X-0.637500X-0.100000X0.637500X-0.100000X0.637500X0.100000X-0.637500X0.100000X0*%
%ADD18C,1.524000*%
%ADD19C,3.200000*%
%ADD20RoundRect,0.250000X-0.337500X-0.475000X0.337500X-0.475000X0.337500X0.475000X-0.337500X0.475000X0*%
%ADD21RoundRect,0.250000X0.337500X0.475000X-0.337500X0.475000X-0.337500X-0.475000X0.337500X-0.475000X0*%
%ADD22C,0.800000*%
%ADD23C,0.500000*%
G04 APERTURE END LIST*
D10*
%TO.C,REF\u002A\u002A*%
X55436666Y-119152380D02*
X55103333Y-118676190D01*
X54865238Y-119152380D02*
X54865238Y-118152380D01*
X55246190Y-118152380D01*
X55341428Y-118200000D01*
X55389047Y-118247619D01*
X55436666Y-118342857D01*
X55436666Y-118485714D01*
X55389047Y-118580952D01*
X55341428Y-118628571D01*
X55246190Y-118676190D01*
X54865238Y-118676190D01*
X55865238Y-118628571D02*
X56198571Y-118628571D01*
X56341428Y-119152380D02*
X55865238Y-119152380D01*
X55865238Y-118152380D01*
X56341428Y-118152380D01*
X57103333Y-118628571D02*
X56770000Y-118628571D01*
X56770000Y-119152380D02*
X56770000Y-118152380D01*
X57246190Y-118152380D01*
X57770000Y-118152380D02*
X57770000Y-118390476D01*
X57531904Y-118295238D02*
X57770000Y-118390476D01*
X58008095Y-118295238D01*
X57627142Y-118580952D02*
X57770000Y-118390476D01*
X57912857Y-118580952D01*
X58531904Y-118152380D02*
X58531904Y-118390476D01*
X58293809Y-118295238D02*
X58531904Y-118390476D01*
X58770000Y-118295238D01*
X58389047Y-118580952D02*
X58531904Y-118390476D01*
X58674761Y-118580952D01*
X55436666Y-86152380D02*
X55103333Y-85676190D01*
X54865238Y-86152380D02*
X54865238Y-85152380D01*
X55246190Y-85152380D01*
X55341428Y-85200000D01*
X55389047Y-85247619D01*
X55436666Y-85342857D01*
X55436666Y-85485714D01*
X55389047Y-85580952D01*
X55341428Y-85628571D01*
X55246190Y-85676190D01*
X54865238Y-85676190D01*
X55865238Y-85628571D02*
X56198571Y-85628571D01*
X56341428Y-86152380D02*
X55865238Y-86152380D01*
X55865238Y-85152380D01*
X56341428Y-85152380D01*
X57103333Y-85628571D02*
X56770000Y-85628571D01*
X56770000Y-86152380D02*
X56770000Y-85152380D01*
X57246190Y-85152380D01*
X57770000Y-85152380D02*
X57770000Y-85390476D01*
X57531904Y-85295238D02*
X57770000Y-85390476D01*
X58008095Y-85295238D01*
X57627142Y-85580952D02*
X57770000Y-85390476D01*
X57912857Y-85580952D01*
X58531904Y-85152380D02*
X58531904Y-85390476D01*
X58293809Y-85295238D02*
X58531904Y-85390476D01*
X58770000Y-85295238D01*
X58389047Y-85580952D02*
X58531904Y-85390476D01*
X58674761Y-85580952D01*
%TO.C,J1*%
X49302380Y-105953333D02*
X50016666Y-105953333D01*
X50159523Y-106000952D01*
X50254761Y-106096190D01*
X50302380Y-106239047D01*
X50302380Y-106334285D01*
X50302380Y-104953333D02*
X50302380Y-105524761D01*
X50302380Y-105239047D02*
X49302380Y-105239047D01*
X49445238Y-105334285D01*
X49540476Y-105429523D01*
X49588095Y-105524761D01*
%TO.C,U2*%
X49236380Y-116839904D02*
X50045904Y-116839904D01*
X50141142Y-116792285D01*
X50188761Y-116744666D01*
X50236380Y-116649428D01*
X50236380Y-116458952D01*
X50188761Y-116363714D01*
X50141142Y-116316095D01*
X50045904Y-116268476D01*
X49236380Y-116268476D01*
X49331619Y-115839904D02*
X49284000Y-115792285D01*
X49236380Y-115697047D01*
X49236380Y-115458952D01*
X49284000Y-115363714D01*
X49331619Y-115316095D01*
X49426857Y-115268476D01*
X49522095Y-115268476D01*
X49664952Y-115316095D01*
X50236380Y-115887523D01*
X50236380Y-115268476D01*
%TO.C,U1*%
X48728380Y-102361904D02*
X49537904Y-102361904D01*
X49633142Y-102314285D01*
X49680761Y-102266666D01*
X49728380Y-102171428D01*
X49728380Y-101980952D01*
X49680761Y-101885714D01*
X49633142Y-101838095D01*
X49537904Y-101790476D01*
X48728380Y-101790476D01*
X49728380Y-100790476D02*
X49728380Y-101361904D01*
X49728380Y-101076190D02*
X48728380Y-101076190D01*
X48871238Y-101171428D01*
X48966476Y-101266666D01*
X49014095Y-101361904D01*
%TO.C,C2*%
X61063142Y-107354666D02*
X61110761Y-107402285D01*
X61158380Y-107545142D01*
X61158380Y-107640380D01*
X61110761Y-107783238D01*
X61015523Y-107878476D01*
X60920285Y-107926095D01*
X60729809Y-107973714D01*
X60586952Y-107973714D01*
X60396476Y-107926095D01*
X60301238Y-107878476D01*
X60206000Y-107783238D01*
X60158380Y-107640380D01*
X60158380Y-107545142D01*
X60206000Y-107402285D01*
X60253619Y-107354666D01*
X60253619Y-106973714D02*
X60206000Y-106926095D01*
X60158380Y-106830857D01*
X60158380Y-106592761D01*
X60206000Y-106497523D01*
X60253619Y-106449904D01*
X60348857Y-106402285D01*
X60444095Y-106402285D01*
X60586952Y-106449904D01*
X61158380Y-107021333D01*
X61158380Y-106402285D01*
%TO.C,C1*%
X55475142Y-107354666D02*
X55522761Y-107402285D01*
X55570380Y-107545142D01*
X55570380Y-107640380D01*
X55522761Y-107783238D01*
X55427523Y-107878476D01*
X55332285Y-107926095D01*
X55141809Y-107973714D01*
X54998952Y-107973714D01*
X54808476Y-107926095D01*
X54713238Y-107878476D01*
X54618000Y-107783238D01*
X54570380Y-107640380D01*
X54570380Y-107545142D01*
X54618000Y-107402285D01*
X54665619Y-107354666D01*
X55570380Y-106402285D02*
X55570380Y-106973714D01*
X55570380Y-106688000D02*
X54570380Y-106688000D01*
X54713238Y-106783238D01*
X54808476Y-106878476D01*
X54856095Y-106973714D01*
D11*
%TO.C,J1*%
X48760000Y-97120000D02*
X48150000Y-97120000D01*
X48860000Y-96320000D02*
X48860000Y-96020000D01*
X44650000Y-107520000D02*
X45150000Y-107520000D01*
X44650000Y-105620000D02*
X45150000Y-105620000D01*
X48760000Y-94560000D02*
X44040000Y-94560000D01*
X45150000Y-103520000D02*
X45150000Y-103720000D01*
X44650000Y-105520000D02*
X45150000Y-105520000D01*
X44650000Y-95170000D02*
X44650000Y-116070000D01*
X44650000Y-111520000D02*
X45150000Y-111520000D01*
X48150000Y-114120000D02*
X48760000Y-114120000D01*
X46150000Y-116680000D02*
X46150000Y-116070000D01*
X45150000Y-107720000D02*
X44650000Y-107720000D01*
X45150000Y-99720000D02*
X44650000Y-99720000D01*
X47450000Y-94560000D02*
X47450000Y-95170000D01*
X45150000Y-109720000D02*
X44650000Y-109720000D01*
X45150000Y-105720000D02*
X44650000Y-105720000D01*
X45150000Y-101520000D02*
X45150000Y-101720000D01*
X44650000Y-109520000D02*
X45150000Y-109520000D01*
X45150000Y-111720000D02*
X44650000Y-111720000D01*
X44040000Y-116680000D02*
X48760000Y-116680000D01*
X44650000Y-103520000D02*
X45150000Y-103520000D01*
X44650000Y-113620000D02*
X45150000Y-113620000D01*
X44650000Y-107620000D02*
X45150000Y-107620000D01*
X46150000Y-94560000D02*
X46150000Y-95170000D01*
X47450000Y-116680000D02*
X47450000Y-116070000D01*
X45150000Y-97520000D02*
X45150000Y-97720000D01*
X48960000Y-96320000D02*
X48960000Y-96020000D01*
X45150000Y-97720000D02*
X44650000Y-97720000D01*
X44040000Y-94560000D02*
X44040000Y-116680000D01*
X45150000Y-107520000D02*
X45150000Y-107720000D01*
X45150000Y-103720000D02*
X44650000Y-103720000D01*
X49060000Y-94260000D02*
X47810000Y-94260000D01*
X48150000Y-116070000D02*
X48150000Y-114120000D01*
X44650000Y-113520000D02*
X45150000Y-113520000D01*
X45150000Y-101720000D02*
X44650000Y-101720000D01*
X44650000Y-103620000D02*
X45150000Y-103620000D01*
X45150000Y-99520000D02*
X45150000Y-99720000D01*
X44650000Y-99620000D02*
X45150000Y-99620000D01*
X44650000Y-99520000D02*
X45150000Y-99520000D01*
X45150000Y-109520000D02*
X45150000Y-109720000D01*
X48760000Y-96320000D02*
X48960000Y-96320000D01*
X48150000Y-97120000D02*
X48150000Y-95170000D01*
X44650000Y-97520000D02*
X45150000Y-97520000D01*
X49060000Y-95510000D02*
X49060000Y-94260000D01*
X44650000Y-109620000D02*
X45150000Y-109620000D01*
X45150000Y-111520000D02*
X45150000Y-111720000D01*
X45150000Y-105520000D02*
X45150000Y-105720000D01*
X44650000Y-116070000D02*
X48150000Y-116070000D01*
X45150000Y-113520000D02*
X45150000Y-113720000D01*
X48150000Y-95170000D02*
X44650000Y-95170000D01*
X44650000Y-97620000D02*
X45150000Y-97620000D01*
X44650000Y-111620000D02*
X45150000Y-111620000D01*
X48960000Y-96020000D02*
X48760000Y-96020000D01*
X45150000Y-113720000D02*
X44650000Y-113720000D01*
X44650000Y-101620000D02*
X45150000Y-101620000D01*
X44650000Y-101520000D02*
X45150000Y-101520000D01*
X48760000Y-116680000D02*
X48760000Y-94560000D01*
%TO.C,U2*%
X55372000Y-109001427D02*
X50922000Y-109001427D01*
X55372000Y-109001427D02*
X58422000Y-109001427D01*
X55372000Y-117071427D02*
X58422000Y-117071427D01*
X55372000Y-117071427D02*
X52322000Y-117071427D01*
D12*
%TO.C,U1*%
X61050000Y-93950000D02*
X49950000Y-93950000D01*
X49950000Y-93950000D02*
X49950000Y-105750000D01*
X49950000Y-105750000D02*
X61050000Y-105750000D01*
X61050000Y-105750000D02*
X61050000Y-93950000D01*
D11*
%TO.C,C2*%
X57904748Y-107923000D02*
X58427252Y-107923000D01*
X57904748Y-106453000D02*
X58427252Y-106453000D01*
%TO.C,C1*%
X52839252Y-106453000D02*
X52316748Y-106453000D01*
X52839252Y-107923000D02*
X52316748Y-107923000D01*
%TD*%
%LPC*%
D13*
%TO.C,REF\u002A\u002A*%
X56770000Y-122500000D03*
D14*
X56770000Y-122500000D03*
%TD*%
D13*
%TO.C,REF\u002A\u002A*%
X56770000Y-89500000D03*
D14*
X56770000Y-89500000D03*
%TD*%
D15*
%TO.C,J1*%
X46950000Y-96620000D03*
D16*
X46950000Y-98620000D03*
X46950000Y-100620000D03*
X46950000Y-102620000D03*
X46950000Y-104620000D03*
X46950000Y-106620000D03*
X46950000Y-108620000D03*
X46950000Y-110620000D03*
X46950000Y-112620000D03*
X46950000Y-114620000D03*
%TD*%
D17*
%TO.C,U2*%
X59084500Y-109461427D03*
X59084500Y-110111427D03*
X59084500Y-110761427D03*
X59084500Y-111411427D03*
X59084500Y-112061427D03*
X59084500Y-112711427D03*
X59084500Y-113361427D03*
X59084500Y-114011427D03*
X59084500Y-114661427D03*
X59084500Y-115311427D03*
X59084500Y-115961427D03*
X59084500Y-116611427D03*
X51659500Y-116611427D03*
X51659500Y-115961427D03*
X51659500Y-115311427D03*
X51659500Y-114661427D03*
X51659500Y-114011427D03*
X51659500Y-113361427D03*
X51659500Y-112711427D03*
X51659500Y-112061427D03*
X51659500Y-111411427D03*
X51659500Y-110761427D03*
X51659500Y-110111427D03*
X51659500Y-109461427D03*
%TD*%
D18*
%TO.C,U1*%
X52540000Y-102390000D03*
X52540000Y-99850000D03*
X52540000Y-97310000D03*
D19*
X56350000Y-103660000D03*
X56350000Y-96040000D03*
%TD*%
D20*
%TO.C,C2*%
X59203500Y-107188000D03*
X57128500Y-107188000D03*
%TD*%
D21*
%TO.C,C1*%
X51540500Y-107188000D03*
X53615500Y-107188000D03*
%TD*%
D22*
X44500000Y-96100000D03*
X57800000Y-105950000D03*
X50038000Y-100649500D03*
X50725000Y-98800000D03*
D23*
X53759989Y-112538411D03*
X53741990Y-113548813D03*
X53730000Y-114420000D03*
X53740000Y-115320000D03*
X56680000Y-111970000D03*
X57660000Y-110760000D03*
X56860000Y-109080000D03*
X57600000Y-116070000D03*
X57540000Y-114650000D03*
M02*
