%TF.GenerationSoftware,KiCad,Pcbnew,(6.0.1)*%
%TF.CreationDate,2022-07-03T22:03:21-07:00*%
%TF.ProjectId,mu100-dit,6d753130-302d-4646-9974-2e6b69636164,rev?*%
%TF.SameCoordinates,Original*%
%TF.FileFunction,Soldermask,Bot*%
%TF.FilePolarity,Negative*%
%FSLAX46Y46*%
G04 Gerber Fmt 4.6, Leading zero omitted, Abs format (unit mm)*
G04 Created by KiCad (PCBNEW (6.0.1)) date 2022-07-03 22:03:21*
%MOMM*%
%LPD*%
G01*
G04 APERTURE LIST*
G04 Aperture macros list*
%AMRoundRect*
0 Rectangle with rounded corners*
0 $1 Rounding radius*
0 $2 $3 $4 $5 $6 $7 $8 $9 X,Y pos of 4 corners*
0 Add a 4 corners polygon primitive as box body*
4,1,4,$2,$3,$4,$5,$6,$7,$8,$9,$2,$3,0*
0 Add four circle primitives for the rounded corners*
1,1,$1+$1,$2,$3*
1,1,$1+$1,$4,$5*
1,1,$1+$1,$6,$7*
1,1,$1+$1,$8,$9*
0 Add four rect primitives between the rounded corners*
20,1,$1+$1,$2,$3,$4,$5,0*
20,1,$1+$1,$4,$5,$6,$7,0*
20,1,$1+$1,$6,$7,$8,$9,0*
20,1,$1+$1,$8,$9,$2,$3,0*%
%AMFreePoly0*
4,1,13,0.500000,-0.500000,0.000000,-0.500000,-0.095671,-0.480970,-0.176777,-0.426777,-0.230970,-0.345671,-0.250000,-0.250000,-0.250000,0.250000,-0.230970,0.345671,-0.176777,0.426777,-0.095671,0.480970,0.000000,0.500000,0.500000,0.500000,0.500000,-0.500000,0.500000,-0.500000,$1*%
G04 Aperture macros list end*
%ADD10FreePoly0,180.000000*%
%ADD11FreePoly0,0.000000*%
%ADD12C,3.200000*%
%ADD13C,1.524000*%
%ADD14RoundRect,0.250000X0.350000X0.450000X-0.350000X0.450000X-0.350000X-0.450000X0.350000X-0.450000X0*%
%ADD15O,1.700000X1.700000*%
%ADD16R,1.700000X1.700000*%
%ADD17RoundRect,0.250000X-0.350000X-0.450000X0.350000X-0.450000X0.350000X0.450000X-0.350000X0.450000X0*%
%ADD18RoundRect,0.250000X0.337500X0.475000X-0.337500X0.475000X-0.337500X-0.475000X0.337500X-0.475000X0*%
%ADD19C,5.700000*%
%ADD20C,3.600000*%
%ADD21RoundRect,0.250000X-0.625000X0.350000X-0.625000X-0.350000X0.625000X-0.350000X0.625000X0.350000X0*%
%ADD22O,1.750000X1.200000*%
%ADD23C,0.800000*%
%ADD24C,0.500000*%
G04 APERTURE END LIST*
D10*
%TO.C,JP9*%
X51680000Y-116080000D03*
D11*
X50380000Y-116080000D03*
%TD*%
%TO.C,JP8*%
X55900000Y-116080000D03*
D10*
X57200000Y-116080000D03*
%TD*%
D11*
%TO.C,JP7*%
X55950000Y-108115000D03*
D10*
X57250000Y-108115000D03*
%TD*%
D11*
%TO.C,JP6*%
X55950000Y-110410000D03*
D10*
X57250000Y-110410000D03*
%TD*%
%TO.C,JP4*%
X51680000Y-113785000D03*
D11*
X50380000Y-113785000D03*
%TD*%
D10*
%TO.C,JP3*%
X51680000Y-111490000D03*
D11*
X50380000Y-111490000D03*
%TD*%
D10*
%TO.C,JP2*%
X51680000Y-109195000D03*
D11*
X50380000Y-109195000D03*
%TD*%
D10*
%TO.C,JP1*%
X51680000Y-106870000D03*
D11*
X50380000Y-106870000D03*
%TD*%
%TO.C,JP5*%
X55950000Y-112705000D03*
D10*
X57250000Y-112705000D03*
%TD*%
D12*
%TO.C,U1*%
X56350000Y-96040000D03*
X56350000Y-103660000D03*
D13*
X52540000Y-97310000D03*
X52540000Y-99850000D03*
X52540000Y-102390000D03*
%TD*%
D14*
%TO.C,R1*%
X49290000Y-93770000D03*
X51290000Y-93770000D03*
%TD*%
D15*
%TO.C,J2*%
X46100000Y-89185000D03*
D16*
X46100000Y-91725000D03*
%TD*%
D17*
%TO.C,R2*%
X51240000Y-88650000D03*
X49240000Y-88650000D03*
%TD*%
D18*
%TO.C,C4*%
X51307500Y-91210000D03*
X49232500Y-91210000D03*
%TD*%
D19*
%TO.C,H2*%
X57270000Y-122500000D03*
D20*
X57270000Y-122500000D03*
%TD*%
D19*
%TO.C,H1*%
X57270000Y-89500000D03*
D20*
X57270000Y-89500000D03*
%TD*%
D21*
%TO.C,J1*%
X46950000Y-96620000D03*
D22*
X46950000Y-98620000D03*
X46950000Y-100620000D03*
X46950000Y-102620000D03*
X46950000Y-104620000D03*
X46950000Y-106620000D03*
X46950000Y-108620000D03*
X46950000Y-110620000D03*
X46950000Y-112620000D03*
X46950000Y-114620000D03*
%TD*%
D23*
X53120000Y-105330000D03*
X50890000Y-104800000D03*
X54990000Y-101400000D03*
X55050000Y-98750000D03*
X53580000Y-93970000D03*
X51920000Y-95680000D03*
X48770000Y-100930000D03*
X49980000Y-98590000D03*
D24*
X49180000Y-117370000D03*
X49900000Y-110320000D03*
X53759978Y-112940000D03*
X53741990Y-113900000D03*
X53743483Y-114800000D03*
X53750000Y-115690000D03*
X57100000Y-111680000D03*
X57880000Y-110720000D03*
X57700000Y-108900000D03*
X56800000Y-115100000D03*
X57800000Y-114600000D03*
M02*
