M48
; DRILL file {KiCad (6.0.1)} date Mon Jul  4 21:25:44 2022
; FORMAT={-:-/ absolute / inch / decimal}
; #@! TF.CreationDate,2022-07-04T21:25:44-07:00
; #@! TF.GenerationSoftware,Kicad,Pcbnew,(6.0.1)
; #@! TF.FileFunction,Plated,1,2,PTH
FMAT,2
INCH
; #@! TA.AperFunction,Plated,PTH,ViaDrill
T1C0.0118
; #@! TA.AperFunction,Plated,PTH,ViaDrill
T2C0.0157
; #@! TA.AperFunction,Plated,PTH,ComponentDrill
T3C0.0295
; #@! TA.AperFunction,Plated,PTH,ComponentDrill
T4C0.0315
; #@! TA.AperFunction,Plated,PTH,ComponentDrill
T5C0.0394
; #@! TA.AperFunction,Plated,PTH,ComponentDrill
T6C0.1260
%
G90
G05
T1
X1.9362Y-4.6209
X1.9646Y-4.3433
X2.1158Y-4.4843
X2.1159Y-4.5197
X2.1161Y-4.5547
X2.1165Y-4.4465
X2.2362Y-4.5315
X2.248Y-4.3969
X2.2717Y-4.2874
X2.2756Y-4.5118
X2.2787Y-4.3591
T2
X1.9201Y-3.9736
X1.9677Y-3.8815
X2.0035Y-4.126
X2.0441Y-3.7669
X2.0913Y-4.1469
X2.1094Y-3.6996
X2.165Y-3.9921
X2.1673Y-3.8878
T3
X1.8484Y-3.8039
X1.8484Y-3.8827
X1.8484Y-3.9614
X1.8484Y-4.0402
X1.8484Y-4.1189
X1.8484Y-4.1976
X1.8484Y-4.2764
X1.8484Y-4.3551
X1.8484Y-4.4339
X1.8484Y-4.5126
T4
X2.0685Y-3.8311
X2.0685Y-3.9311
X2.0685Y-4.0311
T5
X1.815Y-3.5112
X1.815Y-3.6112
T6
X2.2547Y-3.5236
X2.2547Y-4.8228
T0
M30
