%TF.GenerationSoftware,KiCad,Pcbnew,(6.0.1)*%
%TF.CreationDate,2022-07-04T21:25:44-07:00*%
%TF.ProjectId,mu100-dit,6d753130-302d-4646-9974-2e6b69636164,rev?*%
%TF.SameCoordinates,Original*%
%TF.FileFunction,Copper,L2,Bot*%
%TF.FilePolarity,Positive*%
%FSLAX46Y46*%
G04 Gerber Fmt 4.6, Leading zero omitted, Abs format (unit mm)*
G04 Created by KiCad (PCBNEW (6.0.1)) date 2022-07-04 21:25:44*
%MOMM*%
%LPD*%
G01*
G04 APERTURE LIST*
G04 Aperture macros list*
%AMRoundRect*
0 Rectangle with rounded corners*
0 $1 Rounding radius*
0 $2 $3 $4 $5 $6 $7 $8 $9 X,Y pos of 4 corners*
0 Add a 4 corners polygon primitive as box body*
4,1,4,$2,$3,$4,$5,$6,$7,$8,$9,$2,$3,0*
0 Add four circle primitives for the rounded corners*
1,1,$1+$1,$2,$3*
1,1,$1+$1,$4,$5*
1,1,$1+$1,$6,$7*
1,1,$1+$1,$8,$9*
0 Add four rect primitives between the rounded corners*
20,1,$1+$1,$2,$3,$4,$5,0*
20,1,$1+$1,$4,$5,$6,$7,0*
20,1,$1+$1,$6,$7,$8,$9,0*
20,1,$1+$1,$8,$9,$2,$3,0*%
%AMFreePoly0*
4,1,13,0.500000,-0.500000,0.000000,-0.500000,-0.095671,-0.480970,-0.176777,-0.426777,-0.230970,-0.345671,-0.250000,-0.250000,-0.250000,0.250000,-0.230970,0.345671,-0.176777,0.426777,-0.095671,0.480970,0.000000,0.500000,0.500000,0.500000,0.500000,-0.500000,0.500000,-0.500000,$1*%
G04 Aperture macros list end*
%TA.AperFunction,ComponentPad*%
%ADD10RoundRect,0.250000X-0.625000X0.350000X-0.625000X-0.350000X0.625000X-0.350000X0.625000X0.350000X0*%
%TD*%
%TA.AperFunction,ComponentPad*%
%ADD11O,1.750000X1.200000*%
%TD*%
%TA.AperFunction,ConnectorPad*%
%ADD12C,5.700000*%
%TD*%
%TA.AperFunction,ComponentPad*%
%ADD13C,3.600000*%
%TD*%
%TA.AperFunction,ComponentPad*%
%ADD14C,1.524000*%
%TD*%
%TA.AperFunction,ComponentPad*%
%ADD15R,1.700000X1.700000*%
%TD*%
%TA.AperFunction,ComponentPad*%
%ADD16O,1.700000X1.700000*%
%TD*%
%TA.AperFunction,SMDPad,CuDef*%
%ADD17FreePoly0,0.000000*%
%TD*%
%TA.AperFunction,SMDPad,CuDef*%
%ADD18FreePoly0,180.000000*%
%TD*%
%TA.AperFunction,SMDPad,CuDef*%
%ADD19RoundRect,0.250000X0.350000X0.450000X-0.350000X0.450000X-0.350000X-0.450000X0.350000X-0.450000X0*%
%TD*%
%TA.AperFunction,SMDPad,CuDef*%
%ADD20RoundRect,0.250000X-0.350000X-0.450000X0.350000X-0.450000X0.350000X0.450000X-0.350000X0.450000X0*%
%TD*%
%TA.AperFunction,SMDPad,CuDef*%
%ADD21RoundRect,0.250000X0.337500X0.475000X-0.337500X0.475000X-0.337500X-0.475000X0.337500X-0.475000X0*%
%TD*%
%TA.AperFunction,ViaPad*%
%ADD22C,0.800000*%
%TD*%
%TA.AperFunction,ViaPad*%
%ADD23C,0.500000*%
%TD*%
%TA.AperFunction,Conductor*%
%ADD24C,0.250000*%
%TD*%
%TA.AperFunction,Conductor*%
%ADD25C,0.600000*%
%TD*%
%TA.AperFunction,Conductor*%
%ADD26C,0.400000*%
%TD*%
%TA.AperFunction,Conductor*%
%ADD27C,0.254000*%
%TD*%
G04 APERTURE END LIST*
D10*
%TO.P,J1,1,Pin_1*%
%TO.N,unconnected-(J1-Pad1)*%
X46950000Y-96620000D03*
D11*
%TO.P,J1,2,Pin_2*%
%TO.N,+5V*%
X46950000Y-98620000D03*
%TO.P,J1,3,Pin_3*%
%TO.N,GND*%
X46950000Y-100620000D03*
%TO.P,J1,4,Pin_4*%
%TO.N,/MCLK*%
X46950000Y-102620000D03*
%TO.P,J1,5,Pin_5*%
%TO.N,GND*%
X46950000Y-104620000D03*
%TO.P,J1,6,Pin_6*%
%TO.N,/SDAT*%
X46950000Y-106620000D03*
%TO.P,J1,7,Pin_7*%
%TO.N,GND*%
X46950000Y-108620000D03*
%TO.P,J1,8,Pin_8*%
%TO.N,/BICK*%
X46950000Y-110620000D03*
%TO.P,J1,9,Pin_9*%
%TO.N,GND*%
X46950000Y-112620000D03*
%TO.P,J1,10,Pin_10*%
%TO.N,/LRCK*%
X46950000Y-114620000D03*
%TD*%
D12*
%TO.P,H1,1,1*%
%TO.N,GND*%
X57270000Y-89500000D03*
D13*
X57270000Y-89500000D03*
%TD*%
D14*
%TO.P,U1,1,GND*%
%TO.N,GND*%
X52540000Y-97310000D03*
%TO.P,U1,2,VCC*%
%TO.N,+5V*%
X52540000Y-99850000D03*
%TO.P,U1,3,Input*%
%TO.N,/TXP*%
X52540000Y-102390000D03*
%TD*%
D12*
%TO.P,H2,1,1*%
%TO.N,GND*%
X57270000Y-122500000D03*
D13*
X57270000Y-122500000D03*
%TD*%
D15*
%TO.P,J2,1,Pin_1*%
%TO.N,Net-(C4-Pad2)*%
X46100000Y-91725000D03*
D16*
%TO.P,J2,2,Pin_2*%
%TO.N,GND*%
X46100000Y-89185000D03*
%TD*%
D17*
%TO.P,JP3,1,1*%
%TO.N,+5V*%
X50380000Y-111490000D03*
D18*
%TO.P,JP3,2,2*%
%TO.N,/FS2*%
X51680000Y-111490000D03*
%TD*%
D19*
%TO.P,R1,1*%
%TO.N,/TXP*%
X51290000Y-93770000D03*
%TO.P,R1,2*%
%TO.N,Net-(C4-Pad1)*%
X49290000Y-93770000D03*
%TD*%
D17*
%TO.P,JP9,1,1*%
%TO.N,+5V*%
X50380000Y-116080000D03*
D18*
%TO.P,JP9,2,2*%
%TO.N,/CKS1*%
X51680000Y-116080000D03*
%TD*%
D17*
%TO.P,JP2,1,1*%
%TO.N,+5V*%
X50380000Y-109195000D03*
D18*
%TO.P,JP2,2,2*%
%TO.N,/FS1*%
X51680000Y-109195000D03*
%TD*%
D17*
%TO.P,JP7,1,1*%
%TO.N,+5V*%
X55950000Y-108115000D03*
D18*
%TO.P,JP7,2,2*%
%TO.N,/DIF2*%
X57250000Y-108115000D03*
%TD*%
D17*
%TO.P,JP1,1,1*%
%TO.N,+5V*%
X50380000Y-106870000D03*
D18*
%TO.P,JP1,2,2*%
%TO.N,/FS0*%
X51680000Y-106870000D03*
%TD*%
D17*
%TO.P,JP6,1,1*%
%TO.N,+5V*%
X55950000Y-110410000D03*
D18*
%TO.P,JP6,2,2*%
%TO.N,/DIF1*%
X57250000Y-110410000D03*
%TD*%
D17*
%TO.P,JP8,1,1*%
%TO.N,GND*%
X55900000Y-116080000D03*
D18*
%TO.P,JP8,2,2*%
%TO.N,/CKS0*%
X57200000Y-116080000D03*
%TD*%
D20*
%TO.P,R2,1*%
%TO.N,GND*%
X49240000Y-88650000D03*
%TO.P,R2,2*%
%TO.N,Net-(C4-Pad1)*%
X51240000Y-88650000D03*
%TD*%
D21*
%TO.P,C4,1*%
%TO.N,Net-(C4-Pad1)*%
X51307500Y-91210000D03*
%TO.P,C4,2*%
%TO.N,Net-(C4-Pad2)*%
X49232500Y-91210000D03*
%TD*%
D17*
%TO.P,JP5,1,1*%
%TO.N,+5V*%
X55950000Y-112705000D03*
D18*
%TO.P,JP5,2,2*%
%TO.N,/DIF0*%
X57250000Y-112705000D03*
%TD*%
D17*
%TO.P,JP4,1,1*%
%TO.N,+5V*%
X50380000Y-113785000D03*
D18*
%TO.P,JP4,2,2*%
%TO.N,/FS3*%
X51680000Y-113785000D03*
%TD*%
D22*
%TO.N,GND*%
X53120000Y-105330000D03*
X48770000Y-100930000D03*
X49980000Y-98590000D03*
X53580000Y-93970000D03*
X54990000Y-101400000D03*
X50890000Y-104800000D03*
X55050000Y-98750000D03*
X51920000Y-95680000D03*
D23*
%TO.N,/RESET*%
X49180000Y-117370000D03*
X49900000Y-110320000D03*
%TO.N,/FS0*%
X53759978Y-112940000D03*
%TO.N,/FS1*%
X53741990Y-113900000D03*
%TO.N,/FS2*%
X53743483Y-114800000D03*
%TO.N,/FS3*%
X53750000Y-115690000D03*
%TO.N,/DIF0*%
X57100000Y-111680000D03*
%TO.N,/DIF1*%
X57880000Y-110720000D03*
%TO.N,/DIF2*%
X57700000Y-108900000D03*
%TO.N,/CKS0*%
X56800000Y-115100000D03*
%TO.N,/CKS1*%
X57800000Y-114600000D03*
%TD*%
D24*
%TO.N,GND*%
X52710000Y-97310000D02*
X52540000Y-97310000D01*
D25*
%TO.N,+5V*%
X50010000Y-100280000D02*
X50010000Y-102255000D01*
X50010000Y-102255000D02*
X52000000Y-104245000D01*
D26*
X50690000Y-108885000D02*
X50690000Y-106265704D01*
D25*
X49450000Y-99850000D02*
X52540000Y-99850000D01*
D26*
X50690000Y-111180000D02*
X50690000Y-109505000D01*
X50380000Y-109195000D02*
X50690000Y-108885000D01*
D25*
X46950000Y-98620000D02*
X48220000Y-98620000D01*
D26*
X51045704Y-105910000D02*
X52210000Y-105910000D01*
X50380000Y-111490000D02*
X50690000Y-111180000D01*
X52210000Y-105910000D02*
X54405000Y-108105000D01*
X54405000Y-108105000D02*
X55950000Y-108105000D01*
X50362500Y-116070000D02*
X50280000Y-115987500D01*
X50690000Y-109505000D02*
X50380000Y-109195000D01*
X50280000Y-116080000D02*
X50300000Y-116100000D01*
X50690000Y-106265704D02*
X51045704Y-105910000D01*
D25*
X48220000Y-98620000D02*
X49450000Y-99850000D01*
D26*
X50280000Y-115987500D02*
X50280000Y-111490000D01*
X55950000Y-108105000D02*
X55950000Y-112705000D01*
D25*
X52000000Y-104250000D02*
X52000000Y-105790000D01*
D24*
%TO.N,/RESET*%
X49620000Y-116930000D02*
X49180000Y-117370000D01*
X49620000Y-110600000D02*
X49620000Y-116930000D01*
X49900000Y-110320000D02*
X49620000Y-110600000D01*
%TO.N,/FS0*%
X53759978Y-112940000D02*
X53634998Y-112815020D01*
X53360000Y-108372500D02*
X51847500Y-106860000D01*
X53360000Y-111088565D02*
X53360000Y-108372500D01*
X53634998Y-111363563D02*
X53360000Y-111088565D01*
X53634998Y-112815020D02*
X53634998Y-111363563D01*
%TO.N,/FS1*%
X53185478Y-113343488D02*
X53185478Y-111549761D01*
X53741990Y-113900000D02*
X53185478Y-113343488D01*
X53185478Y-111549761D02*
X52840480Y-111204762D01*
X52840480Y-109240480D02*
X52785000Y-109185000D01*
X52785000Y-109185000D02*
X51817500Y-109185000D01*
X52840480Y-111204762D02*
X52840480Y-109240480D01*
%TO.N,/FS2*%
X52735958Y-111735958D02*
X52480000Y-111480000D01*
X52735958Y-113792475D02*
X52735958Y-111735958D01*
X52480000Y-111480000D02*
X51927500Y-111480000D01*
X53743483Y-114800000D02*
X52735958Y-113792475D01*
%TO.N,/FS3*%
X53750000Y-115690000D02*
X53750000Y-115627500D01*
X53750000Y-115627500D02*
X51897500Y-113775000D01*
%TO.N,/TXP*%
X51630000Y-93710000D02*
X51270000Y-93710000D01*
X54010000Y-100920000D02*
X54010000Y-96090000D01*
X54010000Y-96090000D02*
X51630000Y-93710000D01*
X52540000Y-102390000D02*
X54010000Y-100920000D01*
%TO.N,/DIF0*%
X56867500Y-111912500D02*
X56867500Y-112695000D01*
X57100000Y-111680000D02*
X56867500Y-111912500D01*
%TO.N,/DIF1*%
X57560000Y-110720000D02*
X57240000Y-110400000D01*
X57880000Y-110720000D02*
X57560000Y-110720000D01*
%TO.N,/DIF2*%
X57700000Y-108900000D02*
X57700000Y-108800000D01*
X57700000Y-108800000D02*
X57005000Y-108105000D01*
%TO.N,/CKS0*%
X56817500Y-115117500D02*
X56817500Y-116070000D01*
X56800000Y-115100000D02*
X56817500Y-115117500D01*
%TO.N,/CKS1*%
X51960000Y-116360000D02*
X51680000Y-116080000D01*
X54010000Y-116360000D02*
X51960000Y-116360000D01*
X57725489Y-114525489D02*
X55844511Y-114525489D01*
X57800000Y-114600000D02*
X57725489Y-114525489D01*
X55844511Y-114525489D02*
X54010000Y-116360000D01*
%TO.N,Net-(C4-Pad1)*%
X51240000Y-88650000D02*
X51240000Y-91142500D01*
X49290000Y-93227500D02*
X51307500Y-91210000D01*
X49290000Y-93770000D02*
X49290000Y-93227500D01*
X51240000Y-91142500D02*
X51307500Y-91210000D01*
%TO.N,Net-(C4-Pad2)*%
X46435000Y-91210000D02*
X45910000Y-91735000D01*
X49232500Y-91210000D02*
X46435000Y-91210000D01*
%TD*%
%TO.N,GND*%
D27*
X55023366Y-86830911D02*
X55012956Y-86839707D01*
X54993004Y-86858509D01*
X54957146Y-86919785D01*
X54960108Y-86990719D01*
X54990323Y-87039303D01*
X57180905Y-89229885D01*
X57243217Y-89263911D01*
X57314032Y-89258846D01*
X57359095Y-89229885D01*
X59550073Y-87038907D01*
X59584099Y-86976595D01*
X59579034Y-86905780D01*
X59547713Y-86858417D01*
X59536318Y-86847603D01*
X59525937Y-86838768D01*
X59257140Y-86634000D01*
X60636000Y-86634000D01*
X60636000Y-88600316D01*
X60578698Y-88393690D01*
X60574352Y-88380774D01*
X60439865Y-88042823D01*
X60434148Y-88030452D01*
X60263949Y-87709003D01*
X60256931Y-87697322D01*
X60053012Y-87396134D01*
X60044772Y-87385279D01*
X59913419Y-87230392D01*
X59854105Y-87191375D01*
X59783112Y-87190620D01*
X59728228Y-87222792D01*
X57540115Y-89410905D01*
X57506089Y-89473217D01*
X57511154Y-89544032D01*
X57540115Y-89589095D01*
X59728180Y-91777160D01*
X59790492Y-91811186D01*
X59861307Y-91806121D01*
X59912800Y-91770230D01*
X60029941Y-91634042D01*
X60038256Y-91623244D01*
X60244273Y-91323487D01*
X60251373Y-91311855D01*
X60423812Y-90991602D01*
X60429615Y-90979271D01*
X60566458Y-90642268D01*
X60570894Y-90629383D01*
X60636000Y-90400826D01*
X60636000Y-121600316D01*
X60578698Y-121393690D01*
X60574352Y-121380774D01*
X60439865Y-121042823D01*
X60434148Y-121030452D01*
X60263949Y-120709003D01*
X60256931Y-120697322D01*
X60053012Y-120396134D01*
X60044772Y-120385279D01*
X59913419Y-120230392D01*
X59854105Y-120191375D01*
X59783112Y-120190620D01*
X59728228Y-120222792D01*
X57540115Y-122410905D01*
X57506089Y-122473217D01*
X57511154Y-122544032D01*
X57540115Y-122589095D01*
X59728180Y-124777160D01*
X59790492Y-124811186D01*
X59861307Y-124806121D01*
X59912800Y-124770230D01*
X60029941Y-124634042D01*
X60038256Y-124623244D01*
X60244273Y-124323487D01*
X60251373Y-124311855D01*
X60423812Y-123991602D01*
X60429615Y-123979271D01*
X60566458Y-123642268D01*
X60570894Y-123629383D01*
X60636000Y-123400826D01*
X60636000Y-125366000D01*
X59255466Y-125366000D01*
X59507304Y-125176915D01*
X59517744Y-125168155D01*
X59546308Y-125141425D01*
X59582380Y-125080275D01*
X59579665Y-125009330D01*
X59549310Y-124960330D01*
X57359095Y-122770115D01*
X57296783Y-122736089D01*
X57225968Y-122741154D01*
X57180905Y-122770115D01*
X54989502Y-124961518D01*
X54955476Y-125023830D01*
X54960541Y-125094645D01*
X54991555Y-125141716D01*
X54994449Y-125144481D01*
X55004787Y-125153340D01*
X55281930Y-125366000D01*
X44304000Y-125366000D01*
X44304000Y-122494636D01*
X53781249Y-122494636D01*
X53799651Y-122857897D01*
X53801076Y-122871450D01*
X53858603Y-123230599D01*
X53861483Y-123243919D01*
X53957460Y-123594754D01*
X53961761Y-123607685D01*
X54095068Y-123946103D01*
X54100741Y-123958494D01*
X54269816Y-124280535D01*
X54276794Y-124292241D01*
X54479661Y-124594139D01*
X54487863Y-124605023D01*
X54626231Y-124769339D01*
X54685410Y-124808562D01*
X54756399Y-124809564D01*
X54811706Y-124777274D01*
X56999885Y-122589095D01*
X57033911Y-122526783D01*
X57028846Y-122455968D01*
X56999885Y-122410905D01*
X54811810Y-120222830D01*
X54749498Y-120188804D01*
X54678683Y-120193869D01*
X54626903Y-120230095D01*
X54502626Y-120375606D01*
X54494350Y-120386432D01*
X54289380Y-120686906D01*
X54282320Y-120698563D01*
X54111001Y-121019417D01*
X54105242Y-121031767D01*
X53969576Y-121369245D01*
X53965184Y-121382146D01*
X53866759Y-121732303D01*
X53863786Y-121745603D01*
X53803754Y-122104342D01*
X53802235Y-122117885D01*
X53781297Y-122481008D01*
X53781249Y-122494636D01*
X44304000Y-122494636D01*
X44304000Y-119919785D01*
X54957146Y-119919785D01*
X54960108Y-119990719D01*
X54990323Y-120039303D01*
X57180905Y-122229885D01*
X57243217Y-122263911D01*
X57314032Y-122258846D01*
X57359095Y-122229885D01*
X59550073Y-120038907D01*
X59584099Y-119976595D01*
X59579034Y-119905780D01*
X59547713Y-119858417D01*
X59536318Y-119847603D01*
X59525937Y-119838768D01*
X59236602Y-119618354D01*
X59225331Y-119610694D01*
X58913884Y-119422817D01*
X58901852Y-119416419D01*
X58571936Y-119263277D01*
X58559282Y-119258216D01*
X58214756Y-119141601D01*
X58201630Y-119137937D01*
X57846525Y-119059212D01*
X57833080Y-119056986D01*
X57471550Y-119017073D01*
X57457944Y-119016312D01*
X57094218Y-119015677D01*
X57080609Y-119016390D01*
X56718941Y-119055041D01*
X56705488Y-119057220D01*
X56350111Y-119134705D01*
X56336973Y-119138324D01*
X55992042Y-119253736D01*
X55979371Y-119258753D01*
X55648922Y-119410742D01*
X55636867Y-119417098D01*
X55324766Y-119603887D01*
X55313468Y-119611508D01*
X55023366Y-119830911D01*
X55012956Y-119839707D01*
X54993004Y-119858509D01*
X54957146Y-119919785D01*
X44304000Y-119919785D01*
X44304000Y-114571430D01*
X45436922Y-114571430D01*
X45446702Y-114782725D01*
X45450074Y-114806420D01*
X45499632Y-115012055D01*
X45507424Y-115034685D01*
X45594973Y-115227238D01*
X45606904Y-115247987D01*
X45729284Y-115420511D01*
X45744923Y-115438629D01*
X45897719Y-115584899D01*
X45916502Y-115599733D01*
X46094200Y-115714472D01*
X46115450Y-115725486D01*
X46311639Y-115804552D01*
X46334587Y-115811350D01*
X46542187Y-115851892D01*
X46560183Y-115854078D01*
X46565745Y-115854350D01*
X46571899Y-115854500D01*
X47277846Y-115854500D01*
X47289813Y-115853930D01*
X47447533Y-115838882D01*
X47471035Y-115834357D01*
X47674003Y-115774813D01*
X47696226Y-115765924D01*
X47884272Y-115669074D01*
X47904413Y-115656144D01*
X48070753Y-115525482D01*
X48088085Y-115508976D01*
X48226717Y-115349217D01*
X48240616Y-115329732D01*
X48346537Y-115146641D01*
X48356501Y-115124879D01*
X48425889Y-114925062D01*
X48431557Y-114901809D01*
X48461909Y-114692476D01*
X48463078Y-114668570D01*
X48453298Y-114457275D01*
X48449926Y-114433580D01*
X48400368Y-114227945D01*
X48392576Y-114205315D01*
X48305027Y-114012762D01*
X48293096Y-113992013D01*
X48170716Y-113819489D01*
X48155077Y-113801371D01*
X48002281Y-113655101D01*
X47983498Y-113640267D01*
X47950742Y-113619116D01*
X48070407Y-113525118D01*
X48087739Y-113508613D01*
X48226308Y-113348927D01*
X48240207Y-113329441D01*
X48346080Y-113146432D01*
X48356044Y-113124670D01*
X48425401Y-112924943D01*
X48431070Y-112901685D01*
X48432463Y-112892075D01*
X48422440Y-112821790D01*
X48376009Y-112768081D01*
X48307766Y-112748000D01*
X45596483Y-112748000D01*
X45528362Y-112768002D01*
X45481869Y-112821658D01*
X45471765Y-112891932D01*
X45473990Y-112903521D01*
X45500107Y-113011891D01*
X45507899Y-113034521D01*
X45595408Y-113226988D01*
X45607339Y-113247737D01*
X45729664Y-113420183D01*
X45745303Y-113438301D01*
X45898030Y-113584505D01*
X45916813Y-113599339D01*
X45949230Y-113620270D01*
X45829247Y-113714518D01*
X45811915Y-113731024D01*
X45673283Y-113890783D01*
X45659384Y-113910268D01*
X45553463Y-114093359D01*
X45543499Y-114115121D01*
X45474111Y-114314938D01*
X45468443Y-114338191D01*
X45438091Y-114547524D01*
X45436922Y-114571430D01*
X44304000Y-114571430D01*
X44304000Y-110571430D01*
X45436922Y-110571430D01*
X45446702Y-110782725D01*
X45450074Y-110806420D01*
X45499632Y-111012055D01*
X45507424Y-111034685D01*
X45594973Y-111227238D01*
X45606904Y-111247987D01*
X45729284Y-111420511D01*
X45744923Y-111438629D01*
X45897719Y-111584899D01*
X45916502Y-111599733D01*
X45949258Y-111620884D01*
X45829593Y-111714882D01*
X45812261Y-111731387D01*
X45673692Y-111891073D01*
X45659793Y-111910559D01*
X45553920Y-112093568D01*
X45543956Y-112115330D01*
X45474599Y-112315057D01*
X45468930Y-112338315D01*
X45467537Y-112347925D01*
X45477560Y-112418210D01*
X45523991Y-112471919D01*
X45592234Y-112492000D01*
X48303517Y-112492000D01*
X48371638Y-112471998D01*
X48418131Y-112418342D01*
X48428235Y-112348068D01*
X48426010Y-112336479D01*
X48399893Y-112228109D01*
X48392101Y-112205479D01*
X48304592Y-112013012D01*
X48292661Y-111992263D01*
X48170336Y-111819817D01*
X48154697Y-111801699D01*
X48001970Y-111655495D01*
X47983187Y-111640661D01*
X47950770Y-111619730D01*
X48070753Y-111525482D01*
X48088085Y-111508976D01*
X48226717Y-111349217D01*
X48240616Y-111329732D01*
X48346537Y-111146641D01*
X48356501Y-111124879D01*
X48425889Y-110925062D01*
X48431557Y-110901809D01*
X48461909Y-110692476D01*
X48463078Y-110668570D01*
X48453298Y-110457275D01*
X48449926Y-110433580D01*
X48400368Y-110227945D01*
X48392576Y-110205315D01*
X48305027Y-110012762D01*
X48293096Y-109992013D01*
X48170716Y-109819489D01*
X48155077Y-109801371D01*
X48002281Y-109655101D01*
X47983498Y-109640267D01*
X47950742Y-109619116D01*
X48070407Y-109525118D01*
X48087739Y-109508613D01*
X48226308Y-109348927D01*
X48240207Y-109329441D01*
X48346080Y-109146432D01*
X48356044Y-109124670D01*
X48425401Y-108924943D01*
X48431070Y-108901685D01*
X48432463Y-108892075D01*
X48422440Y-108821790D01*
X48376009Y-108768081D01*
X48307766Y-108748000D01*
X45596483Y-108748000D01*
X45528362Y-108768002D01*
X45481869Y-108821658D01*
X45471765Y-108891932D01*
X45473990Y-108903521D01*
X45500107Y-109011891D01*
X45507899Y-109034521D01*
X45595408Y-109226988D01*
X45607339Y-109247737D01*
X45729664Y-109420183D01*
X45745303Y-109438301D01*
X45898030Y-109584505D01*
X45916813Y-109599339D01*
X45949230Y-109620270D01*
X45829247Y-109714518D01*
X45811915Y-109731024D01*
X45673283Y-109890783D01*
X45659384Y-109910268D01*
X45553463Y-110093359D01*
X45543499Y-110115121D01*
X45474111Y-110314938D01*
X45468443Y-110338191D01*
X45438091Y-110547524D01*
X45436922Y-110571430D01*
X44304000Y-110571430D01*
X44304000Y-106571430D01*
X45436922Y-106571430D01*
X45446702Y-106782725D01*
X45450074Y-106806420D01*
X45499632Y-107012055D01*
X45507424Y-107034685D01*
X45594973Y-107227238D01*
X45606904Y-107247987D01*
X45729284Y-107420511D01*
X45744923Y-107438629D01*
X45897719Y-107584899D01*
X45916502Y-107599733D01*
X45949258Y-107620884D01*
X45829593Y-107714882D01*
X45812261Y-107731387D01*
X45673692Y-107891073D01*
X45659793Y-107910559D01*
X45553920Y-108093568D01*
X45543956Y-108115330D01*
X45474599Y-108315057D01*
X45468930Y-108338315D01*
X45467537Y-108347925D01*
X45477560Y-108418210D01*
X45523991Y-108471919D01*
X45592234Y-108492000D01*
X48303517Y-108492000D01*
X48371638Y-108471998D01*
X48418131Y-108418342D01*
X48428235Y-108348068D01*
X48426010Y-108336479D01*
X48399893Y-108228109D01*
X48392101Y-108205479D01*
X48304592Y-108013012D01*
X48292661Y-107992263D01*
X48170336Y-107819817D01*
X48154697Y-107801699D01*
X48001970Y-107655495D01*
X47983187Y-107640661D01*
X47950770Y-107619730D01*
X48070753Y-107525482D01*
X48088085Y-107508976D01*
X48226717Y-107349217D01*
X48240616Y-107329732D01*
X48346537Y-107146641D01*
X48356501Y-107124879D01*
X48425889Y-106925062D01*
X48431557Y-106901809D01*
X48461909Y-106692476D01*
X48463078Y-106668570D01*
X48453298Y-106457275D01*
X48449926Y-106433580D01*
X48400368Y-106227945D01*
X48392576Y-106205315D01*
X48305027Y-106012762D01*
X48293096Y-105992013D01*
X48170716Y-105819489D01*
X48155077Y-105801371D01*
X48002281Y-105655101D01*
X47983498Y-105640267D01*
X47950742Y-105619116D01*
X48070407Y-105525118D01*
X48087739Y-105508613D01*
X48226308Y-105348927D01*
X48240207Y-105329441D01*
X48346080Y-105146432D01*
X48356044Y-105124670D01*
X48425401Y-104924943D01*
X48431070Y-104901685D01*
X48432463Y-104892075D01*
X48422440Y-104821790D01*
X48376009Y-104768081D01*
X48307766Y-104748000D01*
X45596483Y-104748000D01*
X45528362Y-104768002D01*
X45481869Y-104821658D01*
X45471765Y-104891932D01*
X45473990Y-104903521D01*
X45500107Y-105011891D01*
X45507899Y-105034521D01*
X45595408Y-105226988D01*
X45607339Y-105247737D01*
X45729664Y-105420183D01*
X45745303Y-105438301D01*
X45898030Y-105584505D01*
X45916813Y-105599339D01*
X45949230Y-105620270D01*
X45829247Y-105714518D01*
X45811915Y-105731024D01*
X45673283Y-105890783D01*
X45659384Y-105910268D01*
X45553463Y-106093359D01*
X45543499Y-106115121D01*
X45474111Y-106314938D01*
X45468443Y-106338191D01*
X45438091Y-106547524D01*
X45436922Y-106571430D01*
X44304000Y-106571430D01*
X44304000Y-102571430D01*
X45436922Y-102571430D01*
X45446702Y-102782725D01*
X45450074Y-102806420D01*
X45499632Y-103012055D01*
X45507424Y-103034685D01*
X45594973Y-103227238D01*
X45606904Y-103247987D01*
X45729284Y-103420511D01*
X45744923Y-103438629D01*
X45897719Y-103584899D01*
X45916502Y-103599733D01*
X45949258Y-103620884D01*
X45829593Y-103714882D01*
X45812261Y-103731387D01*
X45673692Y-103891073D01*
X45659793Y-103910559D01*
X45553920Y-104093568D01*
X45543956Y-104115330D01*
X45474599Y-104315057D01*
X45468930Y-104338315D01*
X45467537Y-104347925D01*
X45477560Y-104418210D01*
X45523991Y-104471919D01*
X45592234Y-104492000D01*
X48303517Y-104492000D01*
X48371638Y-104471998D01*
X48418131Y-104418342D01*
X48428235Y-104348068D01*
X48426010Y-104336479D01*
X48399893Y-104228109D01*
X48392101Y-104205479D01*
X48304592Y-104013012D01*
X48292661Y-103992263D01*
X48170336Y-103819817D01*
X48154697Y-103801699D01*
X48001970Y-103655495D01*
X47983187Y-103640661D01*
X47950770Y-103619730D01*
X48070753Y-103525482D01*
X48088085Y-103508976D01*
X48226717Y-103349217D01*
X48240616Y-103329732D01*
X48346537Y-103146641D01*
X48356501Y-103124879D01*
X48425889Y-102925062D01*
X48431557Y-102901809D01*
X48461909Y-102692476D01*
X48463078Y-102668570D01*
X48453298Y-102457275D01*
X48449926Y-102433580D01*
X48400368Y-102227945D01*
X48392576Y-102205315D01*
X48305027Y-102012762D01*
X48293096Y-101992013D01*
X48170716Y-101819489D01*
X48155077Y-101801371D01*
X48002281Y-101655101D01*
X47983498Y-101640267D01*
X47950742Y-101619116D01*
X48070407Y-101525118D01*
X48087739Y-101508613D01*
X48226308Y-101348927D01*
X48240207Y-101329441D01*
X48346080Y-101146432D01*
X48356044Y-101124670D01*
X48425401Y-100924943D01*
X48431070Y-100901685D01*
X48432463Y-100892075D01*
X48422440Y-100821790D01*
X48376009Y-100768081D01*
X48307766Y-100748000D01*
X45596483Y-100748000D01*
X45528362Y-100768002D01*
X45481869Y-100821658D01*
X45471765Y-100891932D01*
X45473990Y-100903521D01*
X45500107Y-101011891D01*
X45507899Y-101034521D01*
X45595408Y-101226988D01*
X45607339Y-101247737D01*
X45729664Y-101420183D01*
X45745303Y-101438301D01*
X45898030Y-101584505D01*
X45916813Y-101599339D01*
X45949230Y-101620270D01*
X45829247Y-101714518D01*
X45811915Y-101731024D01*
X45673283Y-101890783D01*
X45659384Y-101910268D01*
X45553463Y-102093359D01*
X45543499Y-102115121D01*
X45474111Y-102314938D01*
X45468443Y-102338191D01*
X45438091Y-102547524D01*
X45436922Y-102571430D01*
X44304000Y-102571430D01*
X44304000Y-92623134D01*
X44615500Y-92623134D01*
X44616237Y-92636742D01*
X44622992Y-92698924D01*
X44630273Y-92729546D01*
X44681403Y-92865935D01*
X44698559Y-92897270D01*
X44785913Y-93013826D01*
X44811174Y-93039087D01*
X44927730Y-93126441D01*
X44959065Y-93143597D01*
X45095454Y-93194727D01*
X45126076Y-93202008D01*
X45188258Y-93208763D01*
X45201866Y-93209500D01*
X46998134Y-93209500D01*
X47011742Y-93208763D01*
X47073924Y-93202008D01*
X47104546Y-93194727D01*
X47240935Y-93143597D01*
X47272270Y-93126441D01*
X47388826Y-93039087D01*
X47414087Y-93013826D01*
X47501441Y-92897270D01*
X47518597Y-92865935D01*
X47569727Y-92729546D01*
X47577008Y-92698924D01*
X47583763Y-92636742D01*
X47584500Y-92623134D01*
X47584500Y-91969500D01*
X48057462Y-91969500D01*
X48083926Y-92048822D01*
X48096306Y-92075249D01*
X48189378Y-92225651D01*
X48207504Y-92248521D01*
X48332679Y-92373478D01*
X48355581Y-92391565D01*
X48506146Y-92484375D01*
X48532595Y-92496708D01*
X48573381Y-92510236D01*
X48549751Y-92521306D01*
X48399349Y-92614378D01*
X48376479Y-92632504D01*
X48251522Y-92757679D01*
X48233435Y-92780581D01*
X48140625Y-92931146D01*
X48128292Y-92957595D01*
X48072610Y-93125472D01*
X48066859Y-93152296D01*
X48056156Y-93256757D01*
X48055500Y-93269600D01*
X48055500Y-94270400D01*
X48056173Y-94283404D01*
X48067147Y-94389170D01*
X48072950Y-94416042D01*
X48128926Y-94583822D01*
X48141306Y-94610249D01*
X48234378Y-94760651D01*
X48252504Y-94783521D01*
X48377679Y-94908478D01*
X48400581Y-94926565D01*
X48551146Y-95019375D01*
X48577595Y-95031708D01*
X48745472Y-95087390D01*
X48772296Y-95093141D01*
X48876757Y-95103844D01*
X48889600Y-95104500D01*
X49690400Y-95104500D01*
X49703404Y-95103827D01*
X49809170Y-95092853D01*
X49836042Y-95087050D01*
X50003822Y-95031074D01*
X50030249Y-95018694D01*
X50180651Y-94925622D01*
X50203521Y-94907496D01*
X50289957Y-94820909D01*
X50377679Y-94908478D01*
X50400581Y-94926565D01*
X50551146Y-95019375D01*
X50577595Y-95031708D01*
X50745472Y-95087390D01*
X50772296Y-95093141D01*
X50876757Y-95103844D01*
X50889600Y-95104500D01*
X51690400Y-95104500D01*
X51703404Y-95103827D01*
X51809170Y-95092853D01*
X51836042Y-95087050D01*
X51908712Y-95062806D01*
X52775447Y-95929541D01*
X52772358Y-95928996D01*
X52550982Y-95909628D01*
X52529018Y-95909628D01*
X52307642Y-95928996D01*
X52286013Y-95932810D01*
X52071364Y-95990325D01*
X52050725Y-95997837D01*
X51849325Y-96091752D01*
X51830306Y-96102733D01*
X51767126Y-96146971D01*
X51722796Y-96202428D01*
X51715486Y-96273047D01*
X51750300Y-96339280D01*
X52721020Y-97310000D01*
X51750300Y-98280720D01*
X51716274Y-98343032D01*
X51721339Y-98413847D01*
X51767125Y-98473028D01*
X51830304Y-98517266D01*
X51849324Y-98528248D01*
X51959715Y-98579724D01*
X51849074Y-98631317D01*
X51830053Y-98642299D01*
X51647948Y-98769810D01*
X51631124Y-98783928D01*
X51499552Y-98915500D01*
X49837082Y-98915500D01*
X48887329Y-97965747D01*
X48824252Y-97901335D01*
X48802484Y-97883582D01*
X48766050Y-97860102D01*
X48732165Y-97833052D01*
X48708395Y-97818083D01*
X48678201Y-97803487D01*
X48650018Y-97785324D01*
X48624858Y-97772834D01*
X48584122Y-97758007D01*
X48545089Y-97739138D01*
X48518595Y-97729808D01*
X48485917Y-97722264D01*
X48454410Y-97710796D01*
X48427106Y-97704190D01*
X48384091Y-97698756D01*
X48341860Y-97689006D01*
X48313955Y-97685777D01*
X48273385Y-97685635D01*
X48271231Y-97685500D01*
X48234581Y-97685500D01*
X48132570Y-97685144D01*
X48129293Y-97685500D01*
X48099688Y-97685500D01*
X48115651Y-97675622D01*
X48138521Y-97657496D01*
X48263478Y-97532321D01*
X48281565Y-97509419D01*
X48374375Y-97358854D01*
X48386708Y-97332405D01*
X48390497Y-97320982D01*
X51139628Y-97320982D01*
X51158996Y-97542358D01*
X51162810Y-97563987D01*
X51220325Y-97778636D01*
X51227837Y-97799275D01*
X51321752Y-98000675D01*
X51332733Y-98019694D01*
X51376971Y-98082874D01*
X51432428Y-98127204D01*
X51503047Y-98134514D01*
X51569280Y-98099700D01*
X52269885Y-97399095D01*
X52303911Y-97336783D01*
X52298846Y-97265968D01*
X52269885Y-97220905D01*
X51569280Y-96520300D01*
X51506968Y-96486274D01*
X51436153Y-96491339D01*
X51376971Y-96537126D01*
X51332733Y-96600306D01*
X51321752Y-96619325D01*
X51227837Y-96820725D01*
X51220325Y-96841364D01*
X51162810Y-97056013D01*
X51158996Y-97077642D01*
X51139628Y-97299018D01*
X51139628Y-97320982D01*
X48390497Y-97320982D01*
X48442390Y-97164528D01*
X48448141Y-97137704D01*
X48458844Y-97033243D01*
X48459500Y-97020400D01*
X48459500Y-96219600D01*
X48458827Y-96206596D01*
X48447853Y-96100830D01*
X48442050Y-96073958D01*
X48386074Y-95906178D01*
X48373694Y-95879751D01*
X48280622Y-95729349D01*
X48262496Y-95706479D01*
X48137321Y-95581522D01*
X48114419Y-95563435D01*
X47963854Y-95470625D01*
X47937405Y-95458292D01*
X47769528Y-95402610D01*
X47742704Y-95396859D01*
X47638243Y-95386156D01*
X47625400Y-95385500D01*
X46274600Y-95385500D01*
X46261596Y-95386173D01*
X46155830Y-95397147D01*
X46128958Y-95402950D01*
X45961178Y-95458926D01*
X45934751Y-95471306D01*
X45784349Y-95564378D01*
X45761479Y-95582504D01*
X45636522Y-95707679D01*
X45618435Y-95730581D01*
X45525625Y-95881146D01*
X45513292Y-95907595D01*
X45457610Y-96075472D01*
X45451859Y-96102296D01*
X45441156Y-96206757D01*
X45440500Y-96219600D01*
X45440500Y-97020400D01*
X45441173Y-97033404D01*
X45452147Y-97139170D01*
X45457950Y-97166042D01*
X45513926Y-97333822D01*
X45526306Y-97360249D01*
X45619378Y-97510651D01*
X45637504Y-97533521D01*
X45762679Y-97658478D01*
X45785581Y-97676565D01*
X45837120Y-97708334D01*
X45829247Y-97714518D01*
X45811915Y-97731024D01*
X45673283Y-97890783D01*
X45659384Y-97910268D01*
X45553463Y-98093359D01*
X45543499Y-98115121D01*
X45474111Y-98314938D01*
X45468443Y-98338191D01*
X45438091Y-98547524D01*
X45436922Y-98571430D01*
X45446702Y-98782725D01*
X45450074Y-98806420D01*
X45499632Y-99012055D01*
X45507424Y-99034685D01*
X45594973Y-99227238D01*
X45606904Y-99247987D01*
X45729284Y-99420511D01*
X45744923Y-99438629D01*
X45897719Y-99584899D01*
X45916502Y-99599733D01*
X45949258Y-99620884D01*
X45829593Y-99714882D01*
X45812261Y-99731387D01*
X45673692Y-99891073D01*
X45659793Y-99910559D01*
X45553920Y-100093568D01*
X45543956Y-100115330D01*
X45474599Y-100315057D01*
X45468930Y-100338315D01*
X45467537Y-100347925D01*
X45477560Y-100418210D01*
X45523991Y-100471919D01*
X45592234Y-100492000D01*
X48303517Y-100492000D01*
X48371638Y-100471998D01*
X48418131Y-100418342D01*
X48428235Y-100348068D01*
X48426010Y-100336479D01*
X48399893Y-100228109D01*
X48392101Y-100205479D01*
X48315566Y-100037149D01*
X48782624Y-100504206D01*
X48845747Y-100568665D01*
X48867516Y-100586419D01*
X48903959Y-100609905D01*
X48937834Y-100636947D01*
X48961605Y-100651917D01*
X48991799Y-100666513D01*
X49019982Y-100684676D01*
X49045142Y-100697166D01*
X49075500Y-100708216D01*
X49075500Y-102245786D01*
X49074556Y-102335901D01*
X49077395Y-102363848D01*
X49086555Y-102406213D01*
X49091388Y-102449301D01*
X49097611Y-102476692D01*
X49108642Y-102508368D01*
X49115727Y-102541138D01*
X49124686Y-102567759D01*
X49143006Y-102607046D01*
X49157264Y-102647990D01*
X49169400Y-102673321D01*
X49187172Y-102701763D01*
X49201343Y-102732152D01*
X49215979Y-102756129D01*
X49242547Y-102790380D01*
X49265519Y-102827144D01*
X49282967Y-102849159D01*
X49311569Y-102877962D01*
X49312983Y-102879565D01*
X49338662Y-102905244D01*
X49410779Y-102977866D01*
X49413356Y-102979938D01*
X51065500Y-104632082D01*
X51065500Y-105074879D01*
X51016920Y-105071567D01*
X50986688Y-105073151D01*
X50923749Y-105084136D01*
X50860324Y-105091811D01*
X50830921Y-105099033D01*
X50824508Y-105101456D01*
X50817760Y-105102634D01*
X50788775Y-105111384D01*
X50730271Y-105137065D01*
X50670510Y-105159647D01*
X50643680Y-105173674D01*
X50638033Y-105177555D01*
X50631755Y-105180311D01*
X50605694Y-105195723D01*
X50555007Y-105234618D01*
X50502357Y-105270802D01*
X50479647Y-105290824D01*
X50438193Y-105337351D01*
X50120385Y-105655159D01*
X50076785Y-105693194D01*
X50056528Y-105715692D01*
X50019785Y-105767972D01*
X49980370Y-105818240D01*
X49964686Y-105844137D01*
X49961866Y-105850383D01*
X49957925Y-105855990D01*
X49943617Y-105882673D01*
X49920405Y-105942210D01*
X49894119Y-106000425D01*
X49885065Y-106029312D01*
X49883815Y-106036057D01*
X49881324Y-106042446D01*
X49873796Y-106071767D01*
X49865457Y-106135110D01*
X49853814Y-106197928D01*
X49851913Y-106228144D01*
X49855500Y-106290350D01*
X49855500Y-106542975D01*
X49851023Y-106565482D01*
X49848602Y-106590064D01*
X49848602Y-106649936D01*
X49850552Y-106669736D01*
X49850552Y-107070264D01*
X49848602Y-107090064D01*
X49848602Y-107149936D01*
X49851023Y-107174518D01*
X49855500Y-107197025D01*
X49855500Y-108539340D01*
X49796352Y-108598488D01*
X49732047Y-108662123D01*
X49713243Y-108685849D01*
X49693583Y-108717931D01*
X49670370Y-108747536D01*
X49654687Y-108773432D01*
X49641012Y-108803718D01*
X49623643Y-108832062D01*
X49611040Y-108859589D01*
X49599602Y-108895430D01*
X49584118Y-108929722D01*
X49575065Y-108958612D01*
X49569008Y-108991294D01*
X49558903Y-109022956D01*
X49553230Y-109052694D01*
X49550671Y-109090226D01*
X49543814Y-109127225D01*
X49541913Y-109157439D01*
X49543827Y-109190631D01*
X49541567Y-109223783D01*
X49543151Y-109254015D01*
X49549619Y-109291077D01*
X49551785Y-109328638D01*
X49557146Y-109358434D01*
X49566918Y-109390198D01*
X49572633Y-109422946D01*
X49581383Y-109451929D01*
X49596509Y-109486387D01*
X49597215Y-109488683D01*
X49534398Y-109510068D01*
X49508981Y-109522028D01*
X49364044Y-109611194D01*
X49341908Y-109628489D01*
X49220328Y-109747550D01*
X49202575Y-109769317D01*
X49110393Y-109912354D01*
X49097903Y-109937515D01*
X49039702Y-110097421D01*
X49036104Y-110112293D01*
X49011564Y-110138426D01*
X48993000Y-110163976D01*
X48983239Y-110181730D01*
X48970825Y-110197735D01*
X48954749Y-110224918D01*
X48937189Y-110265497D01*
X48915890Y-110304240D01*
X48904264Y-110333605D01*
X48899226Y-110353226D01*
X48891182Y-110371815D01*
X48882370Y-110402143D01*
X48875453Y-110445811D01*
X48864458Y-110488636D01*
X48860500Y-110519970D01*
X48860500Y-110540224D01*
X48857331Y-110560232D01*
X48856339Y-110591801D01*
X48860500Y-110635819D01*
X48860500Y-116544374D01*
X48814398Y-116560068D01*
X48788981Y-116572028D01*
X48644044Y-116661194D01*
X48621908Y-116678489D01*
X48500328Y-116797550D01*
X48482575Y-116819317D01*
X48390393Y-116962354D01*
X48377903Y-116987515D01*
X48319702Y-117147421D01*
X48313097Y-117174724D01*
X48291769Y-117343551D01*
X48291376Y-117371639D01*
X48307982Y-117540995D01*
X48313823Y-117568471D01*
X48367536Y-117729939D01*
X48379318Y-117755438D01*
X48467470Y-117900994D01*
X48484609Y-117923250D01*
X48602818Y-118045659D01*
X48624462Y-118063564D01*
X48766853Y-118156742D01*
X48791926Y-118169407D01*
X48951421Y-118228723D01*
X48978677Y-118235519D01*
X49147351Y-118258025D01*
X49175435Y-118258613D01*
X49344903Y-118243190D01*
X49372419Y-118237542D01*
X49534258Y-118184957D01*
X49559840Y-118173353D01*
X49706008Y-118086219D01*
X49728382Y-118069236D01*
X49851613Y-117951885D01*
X49869669Y-117930366D01*
X49963839Y-117788629D01*
X49976679Y-117763646D01*
X50037107Y-117604569D01*
X50043180Y-117580915D01*
X50101348Y-117522747D01*
X50118869Y-117508252D01*
X50165478Y-117458617D01*
X50185228Y-117438868D01*
X50195695Y-117426995D01*
X50198170Y-117423804D01*
X50228436Y-117391574D01*
X50247000Y-117366024D01*
X50256761Y-117348270D01*
X50269175Y-117332265D01*
X50285251Y-117305082D01*
X50302811Y-117264503D01*
X50324110Y-117225760D01*
X50335736Y-117196395D01*
X50340774Y-117176774D01*
X50348818Y-117158185D01*
X50357630Y-117127857D01*
X50364547Y-117084189D01*
X50375542Y-117041364D01*
X50379500Y-117010030D01*
X50379500Y-116989776D01*
X50382669Y-116969768D01*
X50383661Y-116938199D01*
X50382993Y-116931135D01*
X50433638Y-116928215D01*
X50463434Y-116922854D01*
X50627338Y-116872431D01*
X50654995Y-116860117D01*
X50656113Y-116859448D01*
X50880000Y-116859448D01*
X50904582Y-116857027D01*
X50963304Y-116845346D01*
X51008723Y-116826532D01*
X51030000Y-116812315D01*
X51051277Y-116826532D01*
X51096696Y-116845346D01*
X51155418Y-116857027D01*
X51180000Y-116859448D01*
X51382365Y-116859448D01*
X51431399Y-116905494D01*
X51451135Y-116925230D01*
X51463005Y-116935695D01*
X51466196Y-116938170D01*
X51498426Y-116968436D01*
X51523976Y-116987000D01*
X51541730Y-116996761D01*
X51557735Y-117009175D01*
X51584918Y-117025251D01*
X51625497Y-117042811D01*
X51664240Y-117064110D01*
X51693605Y-117075736D01*
X51713226Y-117080774D01*
X51731815Y-117088818D01*
X51762143Y-117097630D01*
X51805811Y-117104547D01*
X51848636Y-117115542D01*
X51879970Y-117119500D01*
X51900224Y-117119500D01*
X51920232Y-117122669D01*
X51951801Y-117123661D01*
X51995819Y-117119500D01*
X53931233Y-117119500D01*
X53953868Y-117121640D01*
X54021945Y-117119500D01*
X54049856Y-117119500D01*
X54065646Y-117118507D01*
X54069657Y-117118000D01*
X54113848Y-117116611D01*
X54145041Y-117111670D01*
X54164492Y-117106019D01*
X54184590Y-117103480D01*
X54215181Y-117095626D01*
X54256295Y-117079348D01*
X54298745Y-117067015D01*
X54327733Y-117054471D01*
X54345169Y-117044159D01*
X54363999Y-117036704D01*
X54391677Y-117021489D01*
X54427447Y-116995501D01*
X54465502Y-116972995D01*
X54490457Y-116953637D01*
X54504778Y-116939316D01*
X54521168Y-116927408D01*
X54544192Y-116905788D01*
X54572383Y-116871711D01*
X55986692Y-115457402D01*
X55987536Y-115459939D01*
X55999318Y-115485438D01*
X56058000Y-115582334D01*
X56058000Y-116109856D01*
X56058994Y-116125648D01*
X56074020Y-116244589D01*
X56081874Y-116275181D01*
X56140796Y-116424001D01*
X56156012Y-116451678D01*
X56250092Y-116581168D01*
X56271712Y-116604192D01*
X56395040Y-116706218D01*
X56421707Y-116723141D01*
X56482085Y-116751553D01*
X56486731Y-116758506D01*
X56521495Y-116793269D01*
X56571277Y-116826532D01*
X56616696Y-116845346D01*
X56675418Y-116857027D01*
X56700000Y-116859448D01*
X57150264Y-116859448D01*
X57170064Y-116861398D01*
X57229936Y-116861398D01*
X57254517Y-116858977D01*
X57352062Y-116839574D01*
X57375701Y-116832403D01*
X57431016Y-116809490D01*
X57452798Y-116797847D01*
X57535493Y-116742592D01*
X57554586Y-116726922D01*
X57596922Y-116684586D01*
X57612592Y-116665493D01*
X57667847Y-116582798D01*
X57679490Y-116561016D01*
X57702403Y-116505701D01*
X57709574Y-116482062D01*
X57728977Y-116384517D01*
X57731398Y-116359936D01*
X57731398Y-116300064D01*
X57729448Y-116280264D01*
X57729448Y-115879736D01*
X57731398Y-115859936D01*
X57731398Y-115800064D01*
X57728977Y-115775483D01*
X57709574Y-115677938D01*
X57702403Y-115654299D01*
X57679490Y-115598984D01*
X57667847Y-115577202D01*
X57612592Y-115494507D01*
X57601490Y-115480980D01*
X57606945Y-115466622D01*
X57767351Y-115488025D01*
X57795435Y-115488613D01*
X57964903Y-115473190D01*
X57992419Y-115467542D01*
X58154258Y-115414957D01*
X58179840Y-115403353D01*
X58326008Y-115316219D01*
X58348382Y-115299236D01*
X58471613Y-115181885D01*
X58489669Y-115160366D01*
X58583839Y-115018629D01*
X58596679Y-114993646D01*
X58657107Y-114834569D01*
X58664093Y-114807360D01*
X58687775Y-114638848D01*
X58688989Y-114623075D01*
X58689287Y-114601762D01*
X58688514Y-114585955D01*
X58669546Y-114416847D01*
X58663322Y-114389455D01*
X58607359Y-114228752D01*
X58595222Y-114203419D01*
X58505046Y-114059109D01*
X58487598Y-114037095D01*
X58367692Y-113916348D01*
X58345800Y-113898747D01*
X58202122Y-113807566D01*
X58176875Y-113795252D01*
X58016567Y-113738169D01*
X57989218Y-113731754D01*
X57820247Y-113711606D01*
X57792159Y-113711410D01*
X57622923Y-113729197D01*
X57595488Y-113735229D01*
X57505130Y-113765989D01*
X55923274Y-113765989D01*
X55900644Y-113763850D01*
X55832586Y-113765989D01*
X55804655Y-113765989D01*
X55788857Y-113766983D01*
X55784847Y-113767490D01*
X55740664Y-113768878D01*
X55709470Y-113773819D01*
X55690020Y-113779469D01*
X55669920Y-113782009D01*
X55639331Y-113789863D01*
X55598226Y-113806137D01*
X55555764Y-113818474D01*
X55526779Y-113831017D01*
X55509343Y-113841328D01*
X55490510Y-113848785D01*
X55462834Y-113864001D01*
X55427077Y-113889979D01*
X55389009Y-113912493D01*
X55364053Y-113931852D01*
X55349729Y-113946176D01*
X55333343Y-113958081D01*
X55310319Y-113979702D01*
X55282138Y-114013767D01*
X54619688Y-114676217D01*
X54613029Y-114616847D01*
X54606805Y-114589455D01*
X54550842Y-114428752D01*
X54538705Y-114403419D01*
X54505161Y-114349738D01*
X54525829Y-114318630D01*
X54538669Y-114293646D01*
X54599097Y-114134569D01*
X54606083Y-114107360D01*
X54629765Y-113938848D01*
X54630979Y-113923075D01*
X54631277Y-113901762D01*
X54630504Y-113885955D01*
X54611536Y-113716847D01*
X54605312Y-113689455D01*
X54549349Y-113528752D01*
X54537212Y-113503419D01*
X54493789Y-113433928D01*
X54543817Y-113358629D01*
X54556657Y-113333646D01*
X54617085Y-113174569D01*
X54624071Y-113147360D01*
X54647753Y-112978848D01*
X54648967Y-112963075D01*
X54649265Y-112941762D01*
X54648492Y-112925955D01*
X54629524Y-112756847D01*
X54623300Y-112729455D01*
X54567337Y-112568752D01*
X54555200Y-112543419D01*
X54465024Y-112399109D01*
X54447576Y-112377095D01*
X54394498Y-112323645D01*
X54394498Y-111442330D01*
X54396638Y-111419696D01*
X54394498Y-111351606D01*
X54394498Y-111323707D01*
X54393505Y-111307919D01*
X54392999Y-111303916D01*
X54391610Y-111259715D01*
X54386669Y-111228520D01*
X54381017Y-111209067D01*
X54378479Y-111188975D01*
X54370624Y-111158383D01*
X54354348Y-111117273D01*
X54342012Y-111074815D01*
X54329469Y-111045830D01*
X54319157Y-111028394D01*
X54311702Y-111009564D01*
X54296487Y-110981886D01*
X54270499Y-110946116D01*
X54247993Y-110908061D01*
X54228635Y-110883106D01*
X54214311Y-110868782D01*
X54202406Y-110852396D01*
X54180785Y-110829371D01*
X54146715Y-110801186D01*
X54119500Y-110773971D01*
X54119500Y-108891751D01*
X54139723Y-108900882D01*
X54168608Y-108909935D01*
X54175353Y-108911185D01*
X54181742Y-108913676D01*
X54211063Y-108921204D01*
X54274408Y-108929543D01*
X54337225Y-108941186D01*
X54367441Y-108943087D01*
X54429647Y-108939500D01*
X55115500Y-108939500D01*
X55115500Y-112748003D01*
X55116413Y-112763141D01*
X55131811Y-112890380D01*
X55139032Y-112919780D01*
X55199647Y-113080194D01*
X55213673Y-113107023D01*
X55310803Y-113248348D01*
X55330824Y-113271057D01*
X55458860Y-113385133D01*
X55483720Y-113402411D01*
X55635272Y-113482654D01*
X55663536Y-113493504D01*
X55829854Y-113535280D01*
X55859889Y-113539074D01*
X56031371Y-113539972D01*
X56061445Y-113536493D01*
X56228191Y-113496461D01*
X56256567Y-113485908D01*
X56259396Y-113484448D01*
X56450000Y-113484448D01*
X56474582Y-113482027D01*
X56533304Y-113470346D01*
X56578723Y-113451532D01*
X56600000Y-113437315D01*
X56621277Y-113451532D01*
X56666696Y-113470346D01*
X56725418Y-113482027D01*
X56750000Y-113484448D01*
X57200264Y-113484448D01*
X57220064Y-113486398D01*
X57279936Y-113486398D01*
X57304517Y-113483977D01*
X57402062Y-113464574D01*
X57425701Y-113457403D01*
X57481016Y-113434490D01*
X57502798Y-113422847D01*
X57585493Y-113367592D01*
X57604586Y-113351922D01*
X57646922Y-113309586D01*
X57662592Y-113290493D01*
X57717847Y-113207798D01*
X57729490Y-113186016D01*
X57752403Y-113130701D01*
X57759574Y-113107062D01*
X57778977Y-113009517D01*
X57781398Y-112984936D01*
X57781398Y-112925064D01*
X57779448Y-112905264D01*
X57779448Y-112504736D01*
X57781398Y-112484936D01*
X57781398Y-112425064D01*
X57778977Y-112400483D01*
X57759574Y-112302938D01*
X57752610Y-112279981D01*
X57771613Y-112261885D01*
X57789669Y-112240366D01*
X57883839Y-112098629D01*
X57896679Y-112073646D01*
X57957107Y-111914569D01*
X57964093Y-111887360D01*
X57987775Y-111718848D01*
X57988989Y-111703075D01*
X57989287Y-111681762D01*
X57988514Y-111665955D01*
X57981005Y-111599005D01*
X58044903Y-111593190D01*
X58072419Y-111587542D01*
X58234258Y-111534957D01*
X58259840Y-111523353D01*
X58406008Y-111436219D01*
X58428382Y-111419236D01*
X58551613Y-111301885D01*
X58569669Y-111280366D01*
X58663839Y-111138629D01*
X58676679Y-111113646D01*
X58737107Y-110954569D01*
X58744093Y-110927360D01*
X58767775Y-110758848D01*
X58768989Y-110743075D01*
X58769287Y-110721762D01*
X58768514Y-110705955D01*
X58749546Y-110536847D01*
X58743322Y-110509455D01*
X58687359Y-110348752D01*
X58675222Y-110323419D01*
X58585046Y-110179109D01*
X58567598Y-110157095D01*
X58447692Y-110036348D01*
X58425800Y-110018747D01*
X58282122Y-109927566D01*
X58256875Y-109915252D01*
X58096567Y-109858169D01*
X58069218Y-109851754D01*
X57900247Y-109831606D01*
X57872159Y-109831410D01*
X57757551Y-109843456D01*
X57748865Y-109834770D01*
X57736996Y-109824305D01*
X57690858Y-109788517D01*
X57695435Y-109788613D01*
X57864903Y-109773190D01*
X57892419Y-109767542D01*
X58054258Y-109714957D01*
X58079840Y-109703353D01*
X58226008Y-109616219D01*
X58248382Y-109599236D01*
X58371613Y-109481885D01*
X58389669Y-109460366D01*
X58483839Y-109318629D01*
X58496679Y-109293646D01*
X58557107Y-109134569D01*
X58564093Y-109107360D01*
X58587775Y-108938848D01*
X58588989Y-108923075D01*
X58589287Y-108901762D01*
X58588514Y-108885955D01*
X58569546Y-108716847D01*
X58563322Y-108689455D01*
X58507359Y-108528752D01*
X58495222Y-108503419D01*
X58405046Y-108359109D01*
X58387598Y-108337095D01*
X58267692Y-108216348D01*
X58245800Y-108198747D01*
X58102122Y-108107566D01*
X58076875Y-108095252D01*
X58065184Y-108091089D01*
X57777586Y-107803491D01*
X57759574Y-107712938D01*
X57752403Y-107689299D01*
X57729490Y-107633984D01*
X57717847Y-107612202D01*
X57662592Y-107529507D01*
X57646922Y-107510414D01*
X57604586Y-107468078D01*
X57585493Y-107452408D01*
X57502798Y-107397153D01*
X57481016Y-107385510D01*
X57425701Y-107362597D01*
X57402062Y-107355426D01*
X57304517Y-107336023D01*
X57279936Y-107333602D01*
X57220064Y-107333602D01*
X57200264Y-107335552D01*
X56750000Y-107335552D01*
X56725418Y-107337973D01*
X56666696Y-107349654D01*
X56621277Y-107368468D01*
X56600000Y-107382685D01*
X56578723Y-107368468D01*
X56533304Y-107349654D01*
X56474582Y-107337973D01*
X56450000Y-107335552D01*
X56280228Y-107335552D01*
X56264728Y-107327345D01*
X56236465Y-107316496D01*
X56204228Y-107308399D01*
X56173261Y-107296325D01*
X56143936Y-107288796D01*
X56106638Y-107283886D01*
X56070148Y-107274720D01*
X56040112Y-107270926D01*
X56000000Y-107270716D01*
X55996706Y-107270500D01*
X55958762Y-107270500D01*
X55868629Y-107270028D01*
X55864550Y-107270500D01*
X54750660Y-107270500D01*
X52934500Y-105454340D01*
X52934500Y-104254214D01*
X52935444Y-104164099D01*
X52932605Y-104136151D01*
X52922279Y-104088392D01*
X52918612Y-104055701D01*
X52912388Y-104028307D01*
X52904210Y-104004823D01*
X52894273Y-103958863D01*
X52885314Y-103932240D01*
X52860115Y-103878200D01*
X52852736Y-103857011D01*
X52840600Y-103831680D01*
X52832018Y-103817945D01*
X52819939Y-103792043D01*
X54114745Y-103792043D01*
X54115821Y-103809149D01*
X54153346Y-104094180D01*
X54156734Y-104110982D01*
X54232595Y-104388284D01*
X54238232Y-104404471D01*
X54351026Y-104668911D01*
X54358807Y-104684182D01*
X54506445Y-104930867D01*
X54516227Y-104944942D01*
X54695979Y-105169309D01*
X54707580Y-105181925D01*
X54916118Y-105379820D01*
X54929325Y-105390745D01*
X55162791Y-105558508D01*
X55177358Y-105567540D01*
X55431433Y-105702066D01*
X55447091Y-105709038D01*
X55717072Y-105807837D01*
X55733531Y-105812619D01*
X56014422Y-105873863D01*
X56031378Y-105876367D01*
X56256853Y-105894112D01*
X56266739Y-105894500D01*
X56422271Y-105894500D01*
X56430841Y-105894208D01*
X56645395Y-105879581D01*
X56662376Y-105877255D01*
X56943893Y-105818956D01*
X56960402Y-105814347D01*
X57231403Y-105718380D01*
X57247133Y-105711573D01*
X57502602Y-105579716D01*
X57517263Y-105570837D01*
X57752474Y-105405528D01*
X57765794Y-105394741D01*
X57976393Y-105199040D01*
X57988126Y-105186546D01*
X58170217Y-104964074D01*
X58180146Y-104950103D01*
X58330360Y-104704977D01*
X58338300Y-104689787D01*
X58453856Y-104426543D01*
X58459662Y-104410417D01*
X58538423Y-104133925D01*
X58541987Y-104117159D01*
X58582494Y-103832537D01*
X58583749Y-103815444D01*
X58585255Y-103527957D01*
X58584179Y-103510851D01*
X58546654Y-103225820D01*
X58543266Y-103209018D01*
X58467405Y-102931716D01*
X58461768Y-102915529D01*
X58348974Y-102651089D01*
X58341193Y-102635818D01*
X58193555Y-102389133D01*
X58183773Y-102375058D01*
X58004021Y-102150691D01*
X57992420Y-102138075D01*
X57783882Y-101940180D01*
X57770675Y-101929255D01*
X57537209Y-101761492D01*
X57522642Y-101752460D01*
X57268567Y-101617934D01*
X57252909Y-101610962D01*
X56982928Y-101512163D01*
X56966469Y-101507381D01*
X56685578Y-101446137D01*
X56668622Y-101443633D01*
X56443147Y-101425888D01*
X56433261Y-101425500D01*
X56277729Y-101425500D01*
X56269159Y-101425792D01*
X56054605Y-101440419D01*
X56037624Y-101442745D01*
X55756107Y-101501044D01*
X55739598Y-101505653D01*
X55468597Y-101601620D01*
X55452867Y-101608427D01*
X55197398Y-101740284D01*
X55182737Y-101749163D01*
X54947526Y-101914472D01*
X54934206Y-101925259D01*
X54723607Y-102120960D01*
X54711874Y-102133454D01*
X54529783Y-102355926D01*
X54519854Y-102369897D01*
X54369640Y-102615023D01*
X54361700Y-102630213D01*
X54246144Y-102893457D01*
X54240338Y-102909583D01*
X54161577Y-103186075D01*
X54158013Y-103202841D01*
X54117506Y-103487463D01*
X54116251Y-103504556D01*
X54114745Y-103792043D01*
X52819939Y-103792043D01*
X52808657Y-103767848D01*
X52806522Y-103764350D01*
X53008807Y-103710147D01*
X53029446Y-103702635D01*
X53230927Y-103608683D01*
X53249948Y-103597701D01*
X53432052Y-103470190D01*
X53448876Y-103456072D01*
X53606072Y-103298876D01*
X53620190Y-103282052D01*
X53747701Y-103099947D01*
X53758683Y-103080926D01*
X53852635Y-102879446D01*
X53860147Y-102858807D01*
X53917685Y-102644074D01*
X53921499Y-102622444D01*
X53940874Y-102400981D01*
X53940874Y-102379019D01*
X53921499Y-102157556D01*
X53917685Y-102135925D01*
X53907221Y-102096874D01*
X54491348Y-101512747D01*
X54508868Y-101498253D01*
X54555493Y-101448602D01*
X54575230Y-101428865D01*
X54585695Y-101416995D01*
X54588170Y-101413804D01*
X54618436Y-101381574D01*
X54637000Y-101356024D01*
X54646761Y-101338270D01*
X54659175Y-101322265D01*
X54675251Y-101295082D01*
X54692811Y-101254503D01*
X54714110Y-101215760D01*
X54725736Y-101186395D01*
X54730774Y-101166774D01*
X54738818Y-101148185D01*
X54747630Y-101117857D01*
X54754547Y-101074189D01*
X54765542Y-101031364D01*
X54769500Y-101000030D01*
X54769500Y-100979776D01*
X54772669Y-100959768D01*
X54773661Y-100928199D01*
X54769500Y-100884181D01*
X54769500Y-97620685D01*
X54916118Y-97759820D01*
X54929325Y-97770745D01*
X55162791Y-97938508D01*
X55177358Y-97947540D01*
X55431433Y-98082066D01*
X55447091Y-98089038D01*
X55717072Y-98187837D01*
X55733531Y-98192619D01*
X56014422Y-98253863D01*
X56031378Y-98256367D01*
X56256853Y-98274112D01*
X56266739Y-98274500D01*
X56422271Y-98274500D01*
X56430841Y-98274208D01*
X56645395Y-98259581D01*
X56662376Y-98257255D01*
X56943893Y-98198956D01*
X56960402Y-98194347D01*
X57231403Y-98098380D01*
X57247133Y-98091573D01*
X57502602Y-97959716D01*
X57517263Y-97950837D01*
X57752474Y-97785528D01*
X57765794Y-97774741D01*
X57976393Y-97579040D01*
X57988126Y-97566546D01*
X58170217Y-97344074D01*
X58180146Y-97330103D01*
X58330360Y-97084977D01*
X58338300Y-97069787D01*
X58453856Y-96806543D01*
X58459662Y-96790417D01*
X58538423Y-96513925D01*
X58541987Y-96497159D01*
X58582494Y-96212537D01*
X58583749Y-96195444D01*
X58585255Y-95907957D01*
X58584179Y-95890851D01*
X58546654Y-95605820D01*
X58543266Y-95589018D01*
X58467405Y-95311716D01*
X58461768Y-95295529D01*
X58348974Y-95031089D01*
X58341193Y-95015818D01*
X58193555Y-94769133D01*
X58183773Y-94755058D01*
X58004021Y-94530691D01*
X57992420Y-94518075D01*
X57783882Y-94320180D01*
X57770675Y-94309255D01*
X57537209Y-94141492D01*
X57522642Y-94132460D01*
X57268567Y-93997934D01*
X57252909Y-93990962D01*
X56982928Y-93892163D01*
X56966469Y-93887381D01*
X56685578Y-93826137D01*
X56668622Y-93823633D01*
X56443147Y-93805888D01*
X56433261Y-93805500D01*
X56277729Y-93805500D01*
X56269159Y-93805792D01*
X56054605Y-93820419D01*
X56037624Y-93822745D01*
X55756107Y-93881044D01*
X55739598Y-93885653D01*
X55468597Y-93981620D01*
X55452867Y-93988427D01*
X55197398Y-94120284D01*
X55182737Y-94129163D01*
X54947526Y-94294472D01*
X54934206Y-94305259D01*
X54723607Y-94500960D01*
X54711874Y-94513454D01*
X54529783Y-94735926D01*
X54519854Y-94749897D01*
X54369640Y-94995023D01*
X54361700Y-95010213D01*
X54252675Y-95258580D01*
X52524500Y-93530405D01*
X52524500Y-93269600D01*
X52523827Y-93256596D01*
X52512853Y-93150830D01*
X52507050Y-93123958D01*
X52451074Y-92956178D01*
X52438694Y-92929751D01*
X52345622Y-92779349D01*
X52327496Y-92756479D01*
X52202321Y-92631522D01*
X52179419Y-92613435D01*
X52028854Y-92520625D01*
X52002405Y-92508292D01*
X51987259Y-92503268D01*
X52008822Y-92496074D01*
X52035249Y-92483694D01*
X52185651Y-92390622D01*
X52208521Y-92372496D01*
X52333478Y-92247321D01*
X52351565Y-92224419D01*
X52444375Y-92073854D01*
X52456708Y-92047405D01*
X52464527Y-92023830D01*
X54955476Y-92023830D01*
X54960541Y-92094645D01*
X54991555Y-92141716D01*
X54994449Y-92144481D01*
X55004787Y-92153340D01*
X55293350Y-92374763D01*
X55304595Y-92382463D01*
X55615385Y-92571426D01*
X55627395Y-92577866D01*
X55956774Y-92732158D01*
X55969409Y-92737263D01*
X56313526Y-92855081D01*
X56326639Y-92858791D01*
X56681467Y-92938755D01*
X56694904Y-92941028D01*
X57056293Y-92982203D01*
X57069897Y-92983011D01*
X57433618Y-92984915D01*
X57447230Y-92984250D01*
X57809030Y-92946862D01*
X57822490Y-92944730D01*
X58178136Y-92868486D01*
X58191287Y-92864913D01*
X58536619Y-92750705D01*
X58549307Y-92745732D01*
X58880284Y-92594897D01*
X58892361Y-92588583D01*
X59205112Y-92402885D01*
X59216437Y-92395304D01*
X59507304Y-92176915D01*
X59517744Y-92168155D01*
X59546308Y-92141425D01*
X59582380Y-92080275D01*
X59579665Y-92009330D01*
X59549310Y-91960330D01*
X57359095Y-89770115D01*
X57296783Y-89736089D01*
X57225968Y-89741154D01*
X57180905Y-89770115D01*
X54989502Y-91961518D01*
X54955476Y-92023830D01*
X52464527Y-92023830D01*
X52512390Y-91879528D01*
X52518141Y-91852704D01*
X52528844Y-91748243D01*
X52529500Y-91735400D01*
X52529500Y-90684600D01*
X52528827Y-90671596D01*
X52517853Y-90565830D01*
X52512050Y-90538958D01*
X52456074Y-90371178D01*
X52443694Y-90344751D01*
X52350622Y-90194349D01*
X52332496Y-90171479D01*
X52207321Y-90046522D01*
X52184419Y-90028435D01*
X52033854Y-89935625D01*
X52007405Y-89923292D01*
X51999500Y-89920670D01*
X51999500Y-89886781D01*
X52130651Y-89805622D01*
X52153521Y-89787496D01*
X52278478Y-89662321D01*
X52296565Y-89639419D01*
X52385811Y-89494636D01*
X53781249Y-89494636D01*
X53799651Y-89857897D01*
X53801076Y-89871450D01*
X53858603Y-90230599D01*
X53861483Y-90243919D01*
X53957460Y-90594754D01*
X53961761Y-90607685D01*
X54095068Y-90946103D01*
X54100741Y-90958494D01*
X54269816Y-91280535D01*
X54276794Y-91292241D01*
X54479661Y-91594139D01*
X54487863Y-91605023D01*
X54626231Y-91769339D01*
X54685410Y-91808562D01*
X54756399Y-91809564D01*
X54811706Y-91777274D01*
X56999885Y-89589095D01*
X57033911Y-89526783D01*
X57028846Y-89455968D01*
X56999885Y-89410905D01*
X54811810Y-87222830D01*
X54749498Y-87188804D01*
X54678683Y-87193869D01*
X54626903Y-87230095D01*
X54502626Y-87375606D01*
X54494350Y-87386432D01*
X54289380Y-87686906D01*
X54282320Y-87698563D01*
X54111001Y-88019417D01*
X54105242Y-88031767D01*
X53969576Y-88369245D01*
X53965184Y-88382146D01*
X53866759Y-88732303D01*
X53863786Y-88745603D01*
X53803754Y-89104342D01*
X53802235Y-89117885D01*
X53781297Y-89481008D01*
X53781249Y-89494636D01*
X52385811Y-89494636D01*
X52389375Y-89488854D01*
X52401708Y-89462405D01*
X52457390Y-89294528D01*
X52463141Y-89267704D01*
X52473844Y-89163243D01*
X52474500Y-89150400D01*
X52474500Y-88149600D01*
X52473827Y-88136596D01*
X52462853Y-88030830D01*
X52457050Y-88003958D01*
X52401074Y-87836178D01*
X52388694Y-87809751D01*
X52295622Y-87659349D01*
X52277496Y-87636479D01*
X52152321Y-87511522D01*
X52129419Y-87493435D01*
X51978854Y-87400625D01*
X51952405Y-87388292D01*
X51784528Y-87332610D01*
X51757704Y-87326859D01*
X51653243Y-87316156D01*
X51640400Y-87315500D01*
X50839600Y-87315500D01*
X50826596Y-87316173D01*
X50720830Y-87327147D01*
X50693958Y-87332950D01*
X50526178Y-87388926D01*
X50499751Y-87401306D01*
X50349349Y-87494378D01*
X50326479Y-87512504D01*
X50239689Y-87599445D01*
X50152009Y-87511917D01*
X50129107Y-87493830D01*
X49978641Y-87401082D01*
X49952193Y-87388749D01*
X49784427Y-87333103D01*
X49757601Y-87327352D01*
X49653205Y-87316656D01*
X49640363Y-87316000D01*
X49494000Y-87316000D01*
X49425879Y-87336002D01*
X49379386Y-87389658D01*
X49368000Y-87442000D01*
X49368000Y-88778000D01*
X48132001Y-88778000D01*
X48063880Y-88798002D01*
X48017387Y-88851658D01*
X48006001Y-88904000D01*
X48006001Y-89150362D01*
X48006674Y-89163365D01*
X48017641Y-89269066D01*
X48023444Y-89295939D01*
X48079382Y-89463608D01*
X48091762Y-89490035D01*
X48184773Y-89640338D01*
X48202899Y-89663208D01*
X48327991Y-89788083D01*
X48350893Y-89806170D01*
X48501359Y-89898918D01*
X48527807Y-89911251D01*
X48548549Y-89918131D01*
X48531178Y-89923926D01*
X48504751Y-89936306D01*
X48354349Y-90029378D01*
X48331479Y-90047504D01*
X48206522Y-90172679D01*
X48188435Y-90195581D01*
X48095625Y-90346146D01*
X48083292Y-90372595D01*
X48057452Y-90450500D01*
X47424824Y-90450500D01*
X47414087Y-90436174D01*
X47388826Y-90410913D01*
X47272270Y-90323559D01*
X47240935Y-90306403D01*
X47121917Y-90261785D01*
X47226653Y-90157413D01*
X47240035Y-90141689D01*
X47370344Y-89960345D01*
X47380979Y-89942646D01*
X47479921Y-89742453D01*
X47487522Y-89723255D01*
X47552438Y-89509592D01*
X47556802Y-89489408D01*
X47561273Y-89455445D01*
X47550333Y-89385297D01*
X47503205Y-89332198D01*
X47436351Y-89313000D01*
X44765110Y-89313000D01*
X44696989Y-89333002D01*
X44650496Y-89386658D01*
X44640392Y-89456932D01*
X44642193Y-89466701D01*
X44676784Y-89620190D01*
X44682958Y-89639893D01*
X44766971Y-89846794D01*
X44776281Y-89865225D01*
X44892959Y-90055626D01*
X44905155Y-90072288D01*
X45051364Y-90241076D01*
X45066116Y-90255523D01*
X45075035Y-90262928D01*
X44959065Y-90306403D01*
X44927730Y-90323559D01*
X44811174Y-90410913D01*
X44785913Y-90436174D01*
X44698559Y-90552730D01*
X44681403Y-90584065D01*
X44630273Y-90720454D01*
X44622992Y-90751076D01*
X44616237Y-90813258D01*
X44615500Y-90826866D01*
X44615500Y-92623134D01*
X44304000Y-92623134D01*
X44304000Y-88917590D01*
X44636055Y-88917590D01*
X44648693Y-88987453D01*
X44697096Y-89039392D01*
X44761339Y-89057000D01*
X45846000Y-89057000D01*
X45914121Y-89036998D01*
X45960614Y-88983342D01*
X45972000Y-88931000D01*
X46228000Y-88931000D01*
X46248002Y-88999121D01*
X46301658Y-89045614D01*
X46354000Y-89057000D01*
X47436459Y-89057000D01*
X47504580Y-89036998D01*
X47551073Y-88983342D01*
X47561177Y-88913068D01*
X47558663Y-88900304D01*
X47512159Y-88715167D01*
X47505505Y-88695621D01*
X47416462Y-88490835D01*
X47406704Y-88472637D01*
X47357125Y-88396000D01*
X48006000Y-88396000D01*
X48026002Y-88464121D01*
X48079658Y-88510614D01*
X48132000Y-88522000D01*
X48986000Y-88522000D01*
X49054121Y-88501998D01*
X49100614Y-88448342D01*
X49112000Y-88396000D01*
X49112000Y-87442001D01*
X49091998Y-87373880D01*
X49038342Y-87327387D01*
X48986000Y-87316001D01*
X48839638Y-87316001D01*
X48826635Y-87316674D01*
X48720934Y-87327641D01*
X48694061Y-87333444D01*
X48526392Y-87389382D01*
X48499965Y-87401762D01*
X48349662Y-87494773D01*
X48326792Y-87512899D01*
X48201917Y-87637991D01*
X48183830Y-87660893D01*
X48091082Y-87811359D01*
X48078749Y-87837807D01*
X48023103Y-88005573D01*
X48017352Y-88032399D01*
X48006656Y-88136795D01*
X48006000Y-88149637D01*
X48006000Y-88396000D01*
X47357125Y-88396000D01*
X47285409Y-88285143D01*
X47272810Y-88268783D01*
X47122521Y-88103618D01*
X47107420Y-88089536D01*
X46932173Y-87951135D01*
X46914975Y-87939709D01*
X46719477Y-87831788D01*
X46700643Y-87823323D01*
X46490144Y-87748781D01*
X46470180Y-87743507D01*
X46376096Y-87726748D01*
X46305524Y-87734494D01*
X46250342Y-87779164D01*
X46228000Y-87850795D01*
X46228000Y-88931000D01*
X45972000Y-88931000D01*
X45972000Y-87849987D01*
X45951998Y-87781866D01*
X45898342Y-87735373D01*
X45826940Y-87725437D01*
X45765148Y-87734893D01*
X45745063Y-87739678D01*
X45532805Y-87809054D01*
X45513770Y-87817056D01*
X45315694Y-87920168D01*
X45298221Y-87931171D01*
X45119645Y-88065250D01*
X45104204Y-88078959D01*
X44949925Y-88240403D01*
X44936931Y-88256450D01*
X44811091Y-88440924D01*
X44800891Y-88458878D01*
X44706871Y-88661428D01*
X44699742Y-88680806D01*
X44640065Y-88895992D01*
X44636198Y-88916254D01*
X44636055Y-88917590D01*
X44304000Y-88917590D01*
X44304000Y-86634000D01*
X55283728Y-86634000D01*
X55023366Y-86830911D02*
X55283728Y-86634000D01*
%TA.AperFunction,Conductor*%
G36*
X55023366Y-86830911D02*
G01*
X55012956Y-86839707D01*
X54993004Y-86858509D01*
X54957146Y-86919785D01*
X54960108Y-86990719D01*
X54990323Y-87039303D01*
X57180905Y-89229885D01*
X57243217Y-89263911D01*
X57314032Y-89258846D01*
X57359095Y-89229885D01*
X59550073Y-87038907D01*
X59584099Y-86976595D01*
X59579034Y-86905780D01*
X59547713Y-86858417D01*
X59536318Y-86847603D01*
X59525937Y-86838768D01*
X59257140Y-86634000D01*
X60636000Y-86634000D01*
X60636000Y-88600316D01*
X60578698Y-88393690D01*
X60574352Y-88380774D01*
X60439865Y-88042823D01*
X60434148Y-88030452D01*
X60263949Y-87709003D01*
X60256931Y-87697322D01*
X60053012Y-87396134D01*
X60044772Y-87385279D01*
X59913419Y-87230392D01*
X59854105Y-87191375D01*
X59783112Y-87190620D01*
X59728228Y-87222792D01*
X57540115Y-89410905D01*
X57506089Y-89473217D01*
X57511154Y-89544032D01*
X57540115Y-89589095D01*
X59728180Y-91777160D01*
X59790492Y-91811186D01*
X59861307Y-91806121D01*
X59912800Y-91770230D01*
X60029941Y-91634042D01*
X60038256Y-91623244D01*
X60244273Y-91323487D01*
X60251373Y-91311855D01*
X60423812Y-90991602D01*
X60429615Y-90979271D01*
X60566458Y-90642268D01*
X60570894Y-90629383D01*
X60636000Y-90400826D01*
X60636000Y-121600316D01*
X60578698Y-121393690D01*
X60574352Y-121380774D01*
X60439865Y-121042823D01*
X60434148Y-121030452D01*
X60263949Y-120709003D01*
X60256931Y-120697322D01*
X60053012Y-120396134D01*
X60044772Y-120385279D01*
X59913419Y-120230392D01*
X59854105Y-120191375D01*
X59783112Y-120190620D01*
X59728228Y-120222792D01*
X57540115Y-122410905D01*
X57506089Y-122473217D01*
X57511154Y-122544032D01*
X57540115Y-122589095D01*
X59728180Y-124777160D01*
X59790492Y-124811186D01*
X59861307Y-124806121D01*
X59912800Y-124770230D01*
X60029941Y-124634042D01*
X60038256Y-124623244D01*
X60244273Y-124323487D01*
X60251373Y-124311855D01*
X60423812Y-123991602D01*
X60429615Y-123979271D01*
X60566458Y-123642268D01*
X60570894Y-123629383D01*
X60636000Y-123400826D01*
X60636000Y-125366000D01*
X59255466Y-125366000D01*
X59507304Y-125176915D01*
X59517744Y-125168155D01*
X59546308Y-125141425D01*
X59582380Y-125080275D01*
X59579665Y-125009330D01*
X59549310Y-124960330D01*
X57359095Y-122770115D01*
X57296783Y-122736089D01*
X57225968Y-122741154D01*
X57180905Y-122770115D01*
X54989502Y-124961518D01*
X54955476Y-125023830D01*
X54960541Y-125094645D01*
X54991555Y-125141716D01*
X54994449Y-125144481D01*
X55004787Y-125153340D01*
X55281930Y-125366000D01*
X44304000Y-125366000D01*
X44304000Y-122494636D01*
X53781249Y-122494636D01*
X53799651Y-122857897D01*
X53801076Y-122871450D01*
X53858603Y-123230599D01*
X53861483Y-123243919D01*
X53957460Y-123594754D01*
X53961761Y-123607685D01*
X54095068Y-123946103D01*
X54100741Y-123958494D01*
X54269816Y-124280535D01*
X54276794Y-124292241D01*
X54479661Y-124594139D01*
X54487863Y-124605023D01*
X54626231Y-124769339D01*
X54685410Y-124808562D01*
X54756399Y-124809564D01*
X54811706Y-124777274D01*
X56999885Y-122589095D01*
X57033911Y-122526783D01*
X57028846Y-122455968D01*
X56999885Y-122410905D01*
X54811810Y-120222830D01*
X54749498Y-120188804D01*
X54678683Y-120193869D01*
X54626903Y-120230095D01*
X54502626Y-120375606D01*
X54494350Y-120386432D01*
X54289380Y-120686906D01*
X54282320Y-120698563D01*
X54111001Y-121019417D01*
X54105242Y-121031767D01*
X53969576Y-121369245D01*
X53965184Y-121382146D01*
X53866759Y-121732303D01*
X53863786Y-121745603D01*
X53803754Y-122104342D01*
X53802235Y-122117885D01*
X53781297Y-122481008D01*
X53781249Y-122494636D01*
X44304000Y-122494636D01*
X44304000Y-119919785D01*
X54957146Y-119919785D01*
X54960108Y-119990719D01*
X54990323Y-120039303D01*
X57180905Y-122229885D01*
X57243217Y-122263911D01*
X57314032Y-122258846D01*
X57359095Y-122229885D01*
X59550073Y-120038907D01*
X59584099Y-119976595D01*
X59579034Y-119905780D01*
X59547713Y-119858417D01*
X59536318Y-119847603D01*
X59525937Y-119838768D01*
X59236602Y-119618354D01*
X59225331Y-119610694D01*
X58913884Y-119422817D01*
X58901852Y-119416419D01*
X58571936Y-119263277D01*
X58559282Y-119258216D01*
X58214756Y-119141601D01*
X58201630Y-119137937D01*
X57846525Y-119059212D01*
X57833080Y-119056986D01*
X57471550Y-119017073D01*
X57457944Y-119016312D01*
X57094218Y-119015677D01*
X57080609Y-119016390D01*
X56718941Y-119055041D01*
X56705488Y-119057220D01*
X56350111Y-119134705D01*
X56336973Y-119138324D01*
X55992042Y-119253736D01*
X55979371Y-119258753D01*
X55648922Y-119410742D01*
X55636867Y-119417098D01*
X55324766Y-119603887D01*
X55313468Y-119611508D01*
X55023366Y-119830911D01*
X55012956Y-119839707D01*
X54993004Y-119858509D01*
X54957146Y-119919785D01*
X44304000Y-119919785D01*
X44304000Y-114571430D01*
X45436922Y-114571430D01*
X45446702Y-114782725D01*
X45450074Y-114806420D01*
X45499632Y-115012055D01*
X45507424Y-115034685D01*
X45594973Y-115227238D01*
X45606904Y-115247987D01*
X45729284Y-115420511D01*
X45744923Y-115438629D01*
X45897719Y-115584899D01*
X45916502Y-115599733D01*
X46094200Y-115714472D01*
X46115450Y-115725486D01*
X46311639Y-115804552D01*
X46334587Y-115811350D01*
X46542187Y-115851892D01*
X46560183Y-115854078D01*
X46565745Y-115854350D01*
X46571899Y-115854500D01*
X47277846Y-115854500D01*
X47289813Y-115853930D01*
X47447533Y-115838882D01*
X47471035Y-115834357D01*
X47674003Y-115774813D01*
X47696226Y-115765924D01*
X47884272Y-115669074D01*
X47904413Y-115656144D01*
X48070753Y-115525482D01*
X48088085Y-115508976D01*
X48226717Y-115349217D01*
X48240616Y-115329732D01*
X48346537Y-115146641D01*
X48356501Y-115124879D01*
X48425889Y-114925062D01*
X48431557Y-114901809D01*
X48461909Y-114692476D01*
X48463078Y-114668570D01*
X48453298Y-114457275D01*
X48449926Y-114433580D01*
X48400368Y-114227945D01*
X48392576Y-114205315D01*
X48305027Y-114012762D01*
X48293096Y-113992013D01*
X48170716Y-113819489D01*
X48155077Y-113801371D01*
X48002281Y-113655101D01*
X47983498Y-113640267D01*
X47950742Y-113619116D01*
X48070407Y-113525118D01*
X48087739Y-113508613D01*
X48226308Y-113348927D01*
X48240207Y-113329441D01*
X48346080Y-113146432D01*
X48356044Y-113124670D01*
X48425401Y-112924943D01*
X48431070Y-112901685D01*
X48432463Y-112892075D01*
X48422440Y-112821790D01*
X48376009Y-112768081D01*
X48307766Y-112748000D01*
X45596483Y-112748000D01*
X45528362Y-112768002D01*
X45481869Y-112821658D01*
X45471765Y-112891932D01*
X45473990Y-112903521D01*
X45500107Y-113011891D01*
X45507899Y-113034521D01*
X45595408Y-113226988D01*
X45607339Y-113247737D01*
X45729664Y-113420183D01*
X45745303Y-113438301D01*
X45898030Y-113584505D01*
X45916813Y-113599339D01*
X45949230Y-113620270D01*
X45829247Y-113714518D01*
X45811915Y-113731024D01*
X45673283Y-113890783D01*
X45659384Y-113910268D01*
X45553463Y-114093359D01*
X45543499Y-114115121D01*
X45474111Y-114314938D01*
X45468443Y-114338191D01*
X45438091Y-114547524D01*
X45436922Y-114571430D01*
X44304000Y-114571430D01*
X44304000Y-110571430D01*
X45436922Y-110571430D01*
X45446702Y-110782725D01*
X45450074Y-110806420D01*
X45499632Y-111012055D01*
X45507424Y-111034685D01*
X45594973Y-111227238D01*
X45606904Y-111247987D01*
X45729284Y-111420511D01*
X45744923Y-111438629D01*
X45897719Y-111584899D01*
X45916502Y-111599733D01*
X45949258Y-111620884D01*
X45829593Y-111714882D01*
X45812261Y-111731387D01*
X45673692Y-111891073D01*
X45659793Y-111910559D01*
X45553920Y-112093568D01*
X45543956Y-112115330D01*
X45474599Y-112315057D01*
X45468930Y-112338315D01*
X45467537Y-112347925D01*
X45477560Y-112418210D01*
X45523991Y-112471919D01*
X45592234Y-112492000D01*
X48303517Y-112492000D01*
X48371638Y-112471998D01*
X48418131Y-112418342D01*
X48428235Y-112348068D01*
X48426010Y-112336479D01*
X48399893Y-112228109D01*
X48392101Y-112205479D01*
X48304592Y-112013012D01*
X48292661Y-111992263D01*
X48170336Y-111819817D01*
X48154697Y-111801699D01*
X48001970Y-111655495D01*
X47983187Y-111640661D01*
X47950770Y-111619730D01*
X48070753Y-111525482D01*
X48088085Y-111508976D01*
X48226717Y-111349217D01*
X48240616Y-111329732D01*
X48346537Y-111146641D01*
X48356501Y-111124879D01*
X48425889Y-110925062D01*
X48431557Y-110901809D01*
X48461909Y-110692476D01*
X48463078Y-110668570D01*
X48453298Y-110457275D01*
X48449926Y-110433580D01*
X48400368Y-110227945D01*
X48392576Y-110205315D01*
X48305027Y-110012762D01*
X48293096Y-109992013D01*
X48170716Y-109819489D01*
X48155077Y-109801371D01*
X48002281Y-109655101D01*
X47983498Y-109640267D01*
X47950742Y-109619116D01*
X48070407Y-109525118D01*
X48087739Y-109508613D01*
X48226308Y-109348927D01*
X48240207Y-109329441D01*
X48346080Y-109146432D01*
X48356044Y-109124670D01*
X48425401Y-108924943D01*
X48431070Y-108901685D01*
X48432463Y-108892075D01*
X48422440Y-108821790D01*
X48376009Y-108768081D01*
X48307766Y-108748000D01*
X45596483Y-108748000D01*
X45528362Y-108768002D01*
X45481869Y-108821658D01*
X45471765Y-108891932D01*
X45473990Y-108903521D01*
X45500107Y-109011891D01*
X45507899Y-109034521D01*
X45595408Y-109226988D01*
X45607339Y-109247737D01*
X45729664Y-109420183D01*
X45745303Y-109438301D01*
X45898030Y-109584505D01*
X45916813Y-109599339D01*
X45949230Y-109620270D01*
X45829247Y-109714518D01*
X45811915Y-109731024D01*
X45673283Y-109890783D01*
X45659384Y-109910268D01*
X45553463Y-110093359D01*
X45543499Y-110115121D01*
X45474111Y-110314938D01*
X45468443Y-110338191D01*
X45438091Y-110547524D01*
X45436922Y-110571430D01*
X44304000Y-110571430D01*
X44304000Y-106571430D01*
X45436922Y-106571430D01*
X45446702Y-106782725D01*
X45450074Y-106806420D01*
X45499632Y-107012055D01*
X45507424Y-107034685D01*
X45594973Y-107227238D01*
X45606904Y-107247987D01*
X45729284Y-107420511D01*
X45744923Y-107438629D01*
X45897719Y-107584899D01*
X45916502Y-107599733D01*
X45949258Y-107620884D01*
X45829593Y-107714882D01*
X45812261Y-107731387D01*
X45673692Y-107891073D01*
X45659793Y-107910559D01*
X45553920Y-108093568D01*
X45543956Y-108115330D01*
X45474599Y-108315057D01*
X45468930Y-108338315D01*
X45467537Y-108347925D01*
X45477560Y-108418210D01*
X45523991Y-108471919D01*
X45592234Y-108492000D01*
X48303517Y-108492000D01*
X48371638Y-108471998D01*
X48418131Y-108418342D01*
X48428235Y-108348068D01*
X48426010Y-108336479D01*
X48399893Y-108228109D01*
X48392101Y-108205479D01*
X48304592Y-108013012D01*
X48292661Y-107992263D01*
X48170336Y-107819817D01*
X48154697Y-107801699D01*
X48001970Y-107655495D01*
X47983187Y-107640661D01*
X47950770Y-107619730D01*
X48070753Y-107525482D01*
X48088085Y-107508976D01*
X48226717Y-107349217D01*
X48240616Y-107329732D01*
X48346537Y-107146641D01*
X48356501Y-107124879D01*
X48425889Y-106925062D01*
X48431557Y-106901809D01*
X48461909Y-106692476D01*
X48463078Y-106668570D01*
X48453298Y-106457275D01*
X48449926Y-106433580D01*
X48400368Y-106227945D01*
X48392576Y-106205315D01*
X48305027Y-106012762D01*
X48293096Y-105992013D01*
X48170716Y-105819489D01*
X48155077Y-105801371D01*
X48002281Y-105655101D01*
X47983498Y-105640267D01*
X47950742Y-105619116D01*
X48070407Y-105525118D01*
X48087739Y-105508613D01*
X48226308Y-105348927D01*
X48240207Y-105329441D01*
X48346080Y-105146432D01*
X48356044Y-105124670D01*
X48425401Y-104924943D01*
X48431070Y-104901685D01*
X48432463Y-104892075D01*
X48422440Y-104821790D01*
X48376009Y-104768081D01*
X48307766Y-104748000D01*
X45596483Y-104748000D01*
X45528362Y-104768002D01*
X45481869Y-104821658D01*
X45471765Y-104891932D01*
X45473990Y-104903521D01*
X45500107Y-105011891D01*
X45507899Y-105034521D01*
X45595408Y-105226988D01*
X45607339Y-105247737D01*
X45729664Y-105420183D01*
X45745303Y-105438301D01*
X45898030Y-105584505D01*
X45916813Y-105599339D01*
X45949230Y-105620270D01*
X45829247Y-105714518D01*
X45811915Y-105731024D01*
X45673283Y-105890783D01*
X45659384Y-105910268D01*
X45553463Y-106093359D01*
X45543499Y-106115121D01*
X45474111Y-106314938D01*
X45468443Y-106338191D01*
X45438091Y-106547524D01*
X45436922Y-106571430D01*
X44304000Y-106571430D01*
X44304000Y-102571430D01*
X45436922Y-102571430D01*
X45446702Y-102782725D01*
X45450074Y-102806420D01*
X45499632Y-103012055D01*
X45507424Y-103034685D01*
X45594973Y-103227238D01*
X45606904Y-103247987D01*
X45729284Y-103420511D01*
X45744923Y-103438629D01*
X45897719Y-103584899D01*
X45916502Y-103599733D01*
X45949258Y-103620884D01*
X45829593Y-103714882D01*
X45812261Y-103731387D01*
X45673692Y-103891073D01*
X45659793Y-103910559D01*
X45553920Y-104093568D01*
X45543956Y-104115330D01*
X45474599Y-104315057D01*
X45468930Y-104338315D01*
X45467537Y-104347925D01*
X45477560Y-104418210D01*
X45523991Y-104471919D01*
X45592234Y-104492000D01*
X48303517Y-104492000D01*
X48371638Y-104471998D01*
X48418131Y-104418342D01*
X48428235Y-104348068D01*
X48426010Y-104336479D01*
X48399893Y-104228109D01*
X48392101Y-104205479D01*
X48304592Y-104013012D01*
X48292661Y-103992263D01*
X48170336Y-103819817D01*
X48154697Y-103801699D01*
X48001970Y-103655495D01*
X47983187Y-103640661D01*
X47950770Y-103619730D01*
X48070753Y-103525482D01*
X48088085Y-103508976D01*
X48226717Y-103349217D01*
X48240616Y-103329732D01*
X48346537Y-103146641D01*
X48356501Y-103124879D01*
X48425889Y-102925062D01*
X48431557Y-102901809D01*
X48461909Y-102692476D01*
X48463078Y-102668570D01*
X48453298Y-102457275D01*
X48449926Y-102433580D01*
X48400368Y-102227945D01*
X48392576Y-102205315D01*
X48305027Y-102012762D01*
X48293096Y-101992013D01*
X48170716Y-101819489D01*
X48155077Y-101801371D01*
X48002281Y-101655101D01*
X47983498Y-101640267D01*
X47950742Y-101619116D01*
X48070407Y-101525118D01*
X48087739Y-101508613D01*
X48226308Y-101348927D01*
X48240207Y-101329441D01*
X48346080Y-101146432D01*
X48356044Y-101124670D01*
X48425401Y-100924943D01*
X48431070Y-100901685D01*
X48432463Y-100892075D01*
X48422440Y-100821790D01*
X48376009Y-100768081D01*
X48307766Y-100748000D01*
X45596483Y-100748000D01*
X45528362Y-100768002D01*
X45481869Y-100821658D01*
X45471765Y-100891932D01*
X45473990Y-100903521D01*
X45500107Y-101011891D01*
X45507899Y-101034521D01*
X45595408Y-101226988D01*
X45607339Y-101247737D01*
X45729664Y-101420183D01*
X45745303Y-101438301D01*
X45898030Y-101584505D01*
X45916813Y-101599339D01*
X45949230Y-101620270D01*
X45829247Y-101714518D01*
X45811915Y-101731024D01*
X45673283Y-101890783D01*
X45659384Y-101910268D01*
X45553463Y-102093359D01*
X45543499Y-102115121D01*
X45474111Y-102314938D01*
X45468443Y-102338191D01*
X45438091Y-102547524D01*
X45436922Y-102571430D01*
X44304000Y-102571430D01*
X44304000Y-92623134D01*
X44615500Y-92623134D01*
X44616237Y-92636742D01*
X44622992Y-92698924D01*
X44630273Y-92729546D01*
X44681403Y-92865935D01*
X44698559Y-92897270D01*
X44785913Y-93013826D01*
X44811174Y-93039087D01*
X44927730Y-93126441D01*
X44959065Y-93143597D01*
X45095454Y-93194727D01*
X45126076Y-93202008D01*
X45188258Y-93208763D01*
X45201866Y-93209500D01*
X46998134Y-93209500D01*
X47011742Y-93208763D01*
X47073924Y-93202008D01*
X47104546Y-93194727D01*
X47240935Y-93143597D01*
X47272270Y-93126441D01*
X47388826Y-93039087D01*
X47414087Y-93013826D01*
X47501441Y-92897270D01*
X47518597Y-92865935D01*
X47569727Y-92729546D01*
X47577008Y-92698924D01*
X47583763Y-92636742D01*
X47584500Y-92623134D01*
X47584500Y-91969500D01*
X48057462Y-91969500D01*
X48083926Y-92048822D01*
X48096306Y-92075249D01*
X48189378Y-92225651D01*
X48207504Y-92248521D01*
X48332679Y-92373478D01*
X48355581Y-92391565D01*
X48506146Y-92484375D01*
X48532595Y-92496708D01*
X48573381Y-92510236D01*
X48549751Y-92521306D01*
X48399349Y-92614378D01*
X48376479Y-92632504D01*
X48251522Y-92757679D01*
X48233435Y-92780581D01*
X48140625Y-92931146D01*
X48128292Y-92957595D01*
X48072610Y-93125472D01*
X48066859Y-93152296D01*
X48056156Y-93256757D01*
X48055500Y-93269600D01*
X48055500Y-94270400D01*
X48056173Y-94283404D01*
X48067147Y-94389170D01*
X48072950Y-94416042D01*
X48128926Y-94583822D01*
X48141306Y-94610249D01*
X48234378Y-94760651D01*
X48252504Y-94783521D01*
X48377679Y-94908478D01*
X48400581Y-94926565D01*
X48551146Y-95019375D01*
X48577595Y-95031708D01*
X48745472Y-95087390D01*
X48772296Y-95093141D01*
X48876757Y-95103844D01*
X48889600Y-95104500D01*
X49690400Y-95104500D01*
X49703404Y-95103827D01*
X49809170Y-95092853D01*
X49836042Y-95087050D01*
X50003822Y-95031074D01*
X50030249Y-95018694D01*
X50180651Y-94925622D01*
X50203521Y-94907496D01*
X50289957Y-94820909D01*
X50377679Y-94908478D01*
X50400581Y-94926565D01*
X50551146Y-95019375D01*
X50577595Y-95031708D01*
X50745472Y-95087390D01*
X50772296Y-95093141D01*
X50876757Y-95103844D01*
X50889600Y-95104500D01*
X51690400Y-95104500D01*
X51703404Y-95103827D01*
X51809170Y-95092853D01*
X51836042Y-95087050D01*
X51908712Y-95062806D01*
X52775447Y-95929541D01*
X52772358Y-95928996D01*
X52550982Y-95909628D01*
X52529018Y-95909628D01*
X52307642Y-95928996D01*
X52286013Y-95932810D01*
X52071364Y-95990325D01*
X52050725Y-95997837D01*
X51849325Y-96091752D01*
X51830306Y-96102733D01*
X51767126Y-96146971D01*
X51722796Y-96202428D01*
X51715486Y-96273047D01*
X51750300Y-96339280D01*
X52721020Y-97310000D01*
X51750300Y-98280720D01*
X51716274Y-98343032D01*
X51721339Y-98413847D01*
X51767125Y-98473028D01*
X51830304Y-98517266D01*
X51849324Y-98528248D01*
X51959715Y-98579724D01*
X51849074Y-98631317D01*
X51830053Y-98642299D01*
X51647948Y-98769810D01*
X51631124Y-98783928D01*
X51499552Y-98915500D01*
X49837082Y-98915500D01*
X48887329Y-97965747D01*
X48824252Y-97901335D01*
X48802484Y-97883582D01*
X48766050Y-97860102D01*
X48732165Y-97833052D01*
X48708395Y-97818083D01*
X48678201Y-97803487D01*
X48650018Y-97785324D01*
X48624858Y-97772834D01*
X48584122Y-97758007D01*
X48545089Y-97739138D01*
X48518595Y-97729808D01*
X48485917Y-97722264D01*
X48454410Y-97710796D01*
X48427106Y-97704190D01*
X48384091Y-97698756D01*
X48341860Y-97689006D01*
X48313955Y-97685777D01*
X48273385Y-97685635D01*
X48271231Y-97685500D01*
X48234581Y-97685500D01*
X48132570Y-97685144D01*
X48129293Y-97685500D01*
X48099688Y-97685500D01*
X48115651Y-97675622D01*
X48138521Y-97657496D01*
X48263478Y-97532321D01*
X48281565Y-97509419D01*
X48374375Y-97358854D01*
X48386708Y-97332405D01*
X48390497Y-97320982D01*
X51139628Y-97320982D01*
X51158996Y-97542358D01*
X51162810Y-97563987D01*
X51220325Y-97778636D01*
X51227837Y-97799275D01*
X51321752Y-98000675D01*
X51332733Y-98019694D01*
X51376971Y-98082874D01*
X51432428Y-98127204D01*
X51503047Y-98134514D01*
X51569280Y-98099700D01*
X52269885Y-97399095D01*
X52303911Y-97336783D01*
X52298846Y-97265968D01*
X52269885Y-97220905D01*
X51569280Y-96520300D01*
X51506968Y-96486274D01*
X51436153Y-96491339D01*
X51376971Y-96537126D01*
X51332733Y-96600306D01*
X51321752Y-96619325D01*
X51227837Y-96820725D01*
X51220325Y-96841364D01*
X51162810Y-97056013D01*
X51158996Y-97077642D01*
X51139628Y-97299018D01*
X51139628Y-97320982D01*
X48390497Y-97320982D01*
X48442390Y-97164528D01*
X48448141Y-97137704D01*
X48458844Y-97033243D01*
X48459500Y-97020400D01*
X48459500Y-96219600D01*
X48458827Y-96206596D01*
X48447853Y-96100830D01*
X48442050Y-96073958D01*
X48386074Y-95906178D01*
X48373694Y-95879751D01*
X48280622Y-95729349D01*
X48262496Y-95706479D01*
X48137321Y-95581522D01*
X48114419Y-95563435D01*
X47963854Y-95470625D01*
X47937405Y-95458292D01*
X47769528Y-95402610D01*
X47742704Y-95396859D01*
X47638243Y-95386156D01*
X47625400Y-95385500D01*
X46274600Y-95385500D01*
X46261596Y-95386173D01*
X46155830Y-95397147D01*
X46128958Y-95402950D01*
X45961178Y-95458926D01*
X45934751Y-95471306D01*
X45784349Y-95564378D01*
X45761479Y-95582504D01*
X45636522Y-95707679D01*
X45618435Y-95730581D01*
X45525625Y-95881146D01*
X45513292Y-95907595D01*
X45457610Y-96075472D01*
X45451859Y-96102296D01*
X45441156Y-96206757D01*
X45440500Y-96219600D01*
X45440500Y-97020400D01*
X45441173Y-97033404D01*
X45452147Y-97139170D01*
X45457950Y-97166042D01*
X45513926Y-97333822D01*
X45526306Y-97360249D01*
X45619378Y-97510651D01*
X45637504Y-97533521D01*
X45762679Y-97658478D01*
X45785581Y-97676565D01*
X45837120Y-97708334D01*
X45829247Y-97714518D01*
X45811915Y-97731024D01*
X45673283Y-97890783D01*
X45659384Y-97910268D01*
X45553463Y-98093359D01*
X45543499Y-98115121D01*
X45474111Y-98314938D01*
X45468443Y-98338191D01*
X45438091Y-98547524D01*
X45436922Y-98571430D01*
X45446702Y-98782725D01*
X45450074Y-98806420D01*
X45499632Y-99012055D01*
X45507424Y-99034685D01*
X45594973Y-99227238D01*
X45606904Y-99247987D01*
X45729284Y-99420511D01*
X45744923Y-99438629D01*
X45897719Y-99584899D01*
X45916502Y-99599733D01*
X45949258Y-99620884D01*
X45829593Y-99714882D01*
X45812261Y-99731387D01*
X45673692Y-99891073D01*
X45659793Y-99910559D01*
X45553920Y-100093568D01*
X45543956Y-100115330D01*
X45474599Y-100315057D01*
X45468930Y-100338315D01*
X45467537Y-100347925D01*
X45477560Y-100418210D01*
X45523991Y-100471919D01*
X45592234Y-100492000D01*
X48303517Y-100492000D01*
X48371638Y-100471998D01*
X48418131Y-100418342D01*
X48428235Y-100348068D01*
X48426010Y-100336479D01*
X48399893Y-100228109D01*
X48392101Y-100205479D01*
X48315566Y-100037149D01*
X48782624Y-100504206D01*
X48845747Y-100568665D01*
X48867516Y-100586419D01*
X48903959Y-100609905D01*
X48937834Y-100636947D01*
X48961605Y-100651917D01*
X48991799Y-100666513D01*
X49019982Y-100684676D01*
X49045142Y-100697166D01*
X49075500Y-100708216D01*
X49075500Y-102245786D01*
X49074556Y-102335901D01*
X49077395Y-102363848D01*
X49086555Y-102406213D01*
X49091388Y-102449301D01*
X49097611Y-102476692D01*
X49108642Y-102508368D01*
X49115727Y-102541138D01*
X49124686Y-102567759D01*
X49143006Y-102607046D01*
X49157264Y-102647990D01*
X49169400Y-102673321D01*
X49187172Y-102701763D01*
X49201343Y-102732152D01*
X49215979Y-102756129D01*
X49242547Y-102790380D01*
X49265519Y-102827144D01*
X49282967Y-102849159D01*
X49311569Y-102877962D01*
X49312983Y-102879565D01*
X49338662Y-102905244D01*
X49410779Y-102977866D01*
X49413356Y-102979938D01*
X51065500Y-104632082D01*
X51065500Y-105074879D01*
X51016920Y-105071567D01*
X50986688Y-105073151D01*
X50923749Y-105084136D01*
X50860324Y-105091811D01*
X50830921Y-105099033D01*
X50824508Y-105101456D01*
X50817760Y-105102634D01*
X50788775Y-105111384D01*
X50730271Y-105137065D01*
X50670510Y-105159647D01*
X50643680Y-105173674D01*
X50638033Y-105177555D01*
X50631755Y-105180311D01*
X50605694Y-105195723D01*
X50555007Y-105234618D01*
X50502357Y-105270802D01*
X50479647Y-105290824D01*
X50438193Y-105337351D01*
X50120385Y-105655159D01*
X50076785Y-105693194D01*
X50056528Y-105715692D01*
X50019785Y-105767972D01*
X49980370Y-105818240D01*
X49964686Y-105844137D01*
X49961866Y-105850383D01*
X49957925Y-105855990D01*
X49943617Y-105882673D01*
X49920405Y-105942210D01*
X49894119Y-106000425D01*
X49885065Y-106029312D01*
X49883815Y-106036057D01*
X49881324Y-106042446D01*
X49873796Y-106071767D01*
X49865457Y-106135110D01*
X49853814Y-106197928D01*
X49851913Y-106228144D01*
X49855500Y-106290350D01*
X49855500Y-106542975D01*
X49851023Y-106565482D01*
X49848602Y-106590064D01*
X49848602Y-106649936D01*
X49850552Y-106669736D01*
X49850552Y-107070264D01*
X49848602Y-107090064D01*
X49848602Y-107149936D01*
X49851023Y-107174518D01*
X49855500Y-107197025D01*
X49855500Y-108539340D01*
X49796352Y-108598488D01*
X49732047Y-108662123D01*
X49713243Y-108685849D01*
X49693583Y-108717931D01*
X49670370Y-108747536D01*
X49654687Y-108773432D01*
X49641012Y-108803718D01*
X49623643Y-108832062D01*
X49611040Y-108859589D01*
X49599602Y-108895430D01*
X49584118Y-108929722D01*
X49575065Y-108958612D01*
X49569008Y-108991294D01*
X49558903Y-109022956D01*
X49553230Y-109052694D01*
X49550671Y-109090226D01*
X49543814Y-109127225D01*
X49541913Y-109157439D01*
X49543827Y-109190631D01*
X49541567Y-109223783D01*
X49543151Y-109254015D01*
X49549619Y-109291077D01*
X49551785Y-109328638D01*
X49557146Y-109358434D01*
X49566918Y-109390198D01*
X49572633Y-109422946D01*
X49581383Y-109451929D01*
X49596509Y-109486387D01*
X49597215Y-109488683D01*
X49534398Y-109510068D01*
X49508981Y-109522028D01*
X49364044Y-109611194D01*
X49341908Y-109628489D01*
X49220328Y-109747550D01*
X49202575Y-109769317D01*
X49110393Y-109912354D01*
X49097903Y-109937515D01*
X49039702Y-110097421D01*
X49036104Y-110112293D01*
X49011564Y-110138426D01*
X48993000Y-110163976D01*
X48983239Y-110181730D01*
X48970825Y-110197735D01*
X48954749Y-110224918D01*
X48937189Y-110265497D01*
X48915890Y-110304240D01*
X48904264Y-110333605D01*
X48899226Y-110353226D01*
X48891182Y-110371815D01*
X48882370Y-110402143D01*
X48875453Y-110445811D01*
X48864458Y-110488636D01*
X48860500Y-110519970D01*
X48860500Y-110540224D01*
X48857331Y-110560232D01*
X48856339Y-110591801D01*
X48860500Y-110635819D01*
X48860500Y-116544374D01*
X48814398Y-116560068D01*
X48788981Y-116572028D01*
X48644044Y-116661194D01*
X48621908Y-116678489D01*
X48500328Y-116797550D01*
X48482575Y-116819317D01*
X48390393Y-116962354D01*
X48377903Y-116987515D01*
X48319702Y-117147421D01*
X48313097Y-117174724D01*
X48291769Y-117343551D01*
X48291376Y-117371639D01*
X48307982Y-117540995D01*
X48313823Y-117568471D01*
X48367536Y-117729939D01*
X48379318Y-117755438D01*
X48467470Y-117900994D01*
X48484609Y-117923250D01*
X48602818Y-118045659D01*
X48624462Y-118063564D01*
X48766853Y-118156742D01*
X48791926Y-118169407D01*
X48951421Y-118228723D01*
X48978677Y-118235519D01*
X49147351Y-118258025D01*
X49175435Y-118258613D01*
X49344903Y-118243190D01*
X49372419Y-118237542D01*
X49534258Y-118184957D01*
X49559840Y-118173353D01*
X49706008Y-118086219D01*
X49728382Y-118069236D01*
X49851613Y-117951885D01*
X49869669Y-117930366D01*
X49963839Y-117788629D01*
X49976679Y-117763646D01*
X50037107Y-117604569D01*
X50043180Y-117580915D01*
X50101348Y-117522747D01*
X50118869Y-117508252D01*
X50165478Y-117458617D01*
X50185228Y-117438868D01*
X50195695Y-117426995D01*
X50198170Y-117423804D01*
X50228436Y-117391574D01*
X50247000Y-117366024D01*
X50256761Y-117348270D01*
X50269175Y-117332265D01*
X50285251Y-117305082D01*
X50302811Y-117264503D01*
X50324110Y-117225760D01*
X50335736Y-117196395D01*
X50340774Y-117176774D01*
X50348818Y-117158185D01*
X50357630Y-117127857D01*
X50364547Y-117084189D01*
X50375542Y-117041364D01*
X50379500Y-117010030D01*
X50379500Y-116989776D01*
X50382669Y-116969768D01*
X50383661Y-116938199D01*
X50382993Y-116931135D01*
X50433638Y-116928215D01*
X50463434Y-116922854D01*
X50627338Y-116872431D01*
X50654995Y-116860117D01*
X50656113Y-116859448D01*
X50880000Y-116859448D01*
X50904582Y-116857027D01*
X50963304Y-116845346D01*
X51008723Y-116826532D01*
X51030000Y-116812315D01*
X51051277Y-116826532D01*
X51096696Y-116845346D01*
X51155418Y-116857027D01*
X51180000Y-116859448D01*
X51382365Y-116859448D01*
X51431399Y-116905494D01*
X51451135Y-116925230D01*
X51463005Y-116935695D01*
X51466196Y-116938170D01*
X51498426Y-116968436D01*
X51523976Y-116987000D01*
X51541730Y-116996761D01*
X51557735Y-117009175D01*
X51584918Y-117025251D01*
X51625497Y-117042811D01*
X51664240Y-117064110D01*
X51693605Y-117075736D01*
X51713226Y-117080774D01*
X51731815Y-117088818D01*
X51762143Y-117097630D01*
X51805811Y-117104547D01*
X51848636Y-117115542D01*
X51879970Y-117119500D01*
X51900224Y-117119500D01*
X51920232Y-117122669D01*
X51951801Y-117123661D01*
X51995819Y-117119500D01*
X53931233Y-117119500D01*
X53953868Y-117121640D01*
X54021945Y-117119500D01*
X54049856Y-117119500D01*
X54065646Y-117118507D01*
X54069657Y-117118000D01*
X54113848Y-117116611D01*
X54145041Y-117111670D01*
X54164492Y-117106019D01*
X54184590Y-117103480D01*
X54215181Y-117095626D01*
X54256295Y-117079348D01*
X54298745Y-117067015D01*
X54327733Y-117054471D01*
X54345169Y-117044159D01*
X54363999Y-117036704D01*
X54391677Y-117021489D01*
X54427447Y-116995501D01*
X54465502Y-116972995D01*
X54490457Y-116953637D01*
X54504778Y-116939316D01*
X54521168Y-116927408D01*
X54544192Y-116905788D01*
X54572383Y-116871711D01*
X55986692Y-115457402D01*
X55987536Y-115459939D01*
X55999318Y-115485438D01*
X56058000Y-115582334D01*
X56058000Y-116109856D01*
X56058994Y-116125648D01*
X56074020Y-116244589D01*
X56081874Y-116275181D01*
X56140796Y-116424001D01*
X56156012Y-116451678D01*
X56250092Y-116581168D01*
X56271712Y-116604192D01*
X56395040Y-116706218D01*
X56421707Y-116723141D01*
X56482085Y-116751553D01*
X56486731Y-116758506D01*
X56521495Y-116793269D01*
X56571277Y-116826532D01*
X56616696Y-116845346D01*
X56675418Y-116857027D01*
X56700000Y-116859448D01*
X57150264Y-116859448D01*
X57170064Y-116861398D01*
X57229936Y-116861398D01*
X57254517Y-116858977D01*
X57352062Y-116839574D01*
X57375701Y-116832403D01*
X57431016Y-116809490D01*
X57452798Y-116797847D01*
X57535493Y-116742592D01*
X57554586Y-116726922D01*
X57596922Y-116684586D01*
X57612592Y-116665493D01*
X57667847Y-116582798D01*
X57679490Y-116561016D01*
X57702403Y-116505701D01*
X57709574Y-116482062D01*
X57728977Y-116384517D01*
X57731398Y-116359936D01*
X57731398Y-116300064D01*
X57729448Y-116280264D01*
X57729448Y-115879736D01*
X57731398Y-115859936D01*
X57731398Y-115800064D01*
X57728977Y-115775483D01*
X57709574Y-115677938D01*
X57702403Y-115654299D01*
X57679490Y-115598984D01*
X57667847Y-115577202D01*
X57612592Y-115494507D01*
X57601490Y-115480980D01*
X57606945Y-115466622D01*
X57767351Y-115488025D01*
X57795435Y-115488613D01*
X57964903Y-115473190D01*
X57992419Y-115467542D01*
X58154258Y-115414957D01*
X58179840Y-115403353D01*
X58326008Y-115316219D01*
X58348382Y-115299236D01*
X58471613Y-115181885D01*
X58489669Y-115160366D01*
X58583839Y-115018629D01*
X58596679Y-114993646D01*
X58657107Y-114834569D01*
X58664093Y-114807360D01*
X58687775Y-114638848D01*
X58688989Y-114623075D01*
X58689287Y-114601762D01*
X58688514Y-114585955D01*
X58669546Y-114416847D01*
X58663322Y-114389455D01*
X58607359Y-114228752D01*
X58595222Y-114203419D01*
X58505046Y-114059109D01*
X58487598Y-114037095D01*
X58367692Y-113916348D01*
X58345800Y-113898747D01*
X58202122Y-113807566D01*
X58176875Y-113795252D01*
X58016567Y-113738169D01*
X57989218Y-113731754D01*
X57820247Y-113711606D01*
X57792159Y-113711410D01*
X57622923Y-113729197D01*
X57595488Y-113735229D01*
X57505130Y-113765989D01*
X55923274Y-113765989D01*
X55900644Y-113763850D01*
X55832586Y-113765989D01*
X55804655Y-113765989D01*
X55788857Y-113766983D01*
X55784847Y-113767490D01*
X55740664Y-113768878D01*
X55709470Y-113773819D01*
X55690020Y-113779469D01*
X55669920Y-113782009D01*
X55639331Y-113789863D01*
X55598226Y-113806137D01*
X55555764Y-113818474D01*
X55526779Y-113831017D01*
X55509343Y-113841328D01*
X55490510Y-113848785D01*
X55462834Y-113864001D01*
X55427077Y-113889979D01*
X55389009Y-113912493D01*
X55364053Y-113931852D01*
X55349729Y-113946176D01*
X55333343Y-113958081D01*
X55310319Y-113979702D01*
X55282138Y-114013767D01*
X54619688Y-114676217D01*
X54613029Y-114616847D01*
X54606805Y-114589455D01*
X54550842Y-114428752D01*
X54538705Y-114403419D01*
X54505161Y-114349738D01*
X54525829Y-114318630D01*
X54538669Y-114293646D01*
X54599097Y-114134569D01*
X54606083Y-114107360D01*
X54629765Y-113938848D01*
X54630979Y-113923075D01*
X54631277Y-113901762D01*
X54630504Y-113885955D01*
X54611536Y-113716847D01*
X54605312Y-113689455D01*
X54549349Y-113528752D01*
X54537212Y-113503419D01*
X54493789Y-113433928D01*
X54543817Y-113358629D01*
X54556657Y-113333646D01*
X54617085Y-113174569D01*
X54624071Y-113147360D01*
X54647753Y-112978848D01*
X54648967Y-112963075D01*
X54649265Y-112941762D01*
X54648492Y-112925955D01*
X54629524Y-112756847D01*
X54623300Y-112729455D01*
X54567337Y-112568752D01*
X54555200Y-112543419D01*
X54465024Y-112399109D01*
X54447576Y-112377095D01*
X54394498Y-112323645D01*
X54394498Y-111442330D01*
X54396638Y-111419696D01*
X54394498Y-111351606D01*
X54394498Y-111323707D01*
X54393505Y-111307919D01*
X54392999Y-111303916D01*
X54391610Y-111259715D01*
X54386669Y-111228520D01*
X54381017Y-111209067D01*
X54378479Y-111188975D01*
X54370624Y-111158383D01*
X54354348Y-111117273D01*
X54342012Y-111074815D01*
X54329469Y-111045830D01*
X54319157Y-111028394D01*
X54311702Y-111009564D01*
X54296487Y-110981886D01*
X54270499Y-110946116D01*
X54247993Y-110908061D01*
X54228635Y-110883106D01*
X54214311Y-110868782D01*
X54202406Y-110852396D01*
X54180785Y-110829371D01*
X54146715Y-110801186D01*
X54119500Y-110773971D01*
X54119500Y-108891751D01*
X54139723Y-108900882D01*
X54168608Y-108909935D01*
X54175353Y-108911185D01*
X54181742Y-108913676D01*
X54211063Y-108921204D01*
X54274408Y-108929543D01*
X54337225Y-108941186D01*
X54367441Y-108943087D01*
X54429647Y-108939500D01*
X55115500Y-108939500D01*
X55115500Y-112748003D01*
X55116413Y-112763141D01*
X55131811Y-112890380D01*
X55139032Y-112919780D01*
X55199647Y-113080194D01*
X55213673Y-113107023D01*
X55310803Y-113248348D01*
X55330824Y-113271057D01*
X55458860Y-113385133D01*
X55483720Y-113402411D01*
X55635272Y-113482654D01*
X55663536Y-113493504D01*
X55829854Y-113535280D01*
X55859889Y-113539074D01*
X56031371Y-113539972D01*
X56061445Y-113536493D01*
X56228191Y-113496461D01*
X56256567Y-113485908D01*
X56259396Y-113484448D01*
X56450000Y-113484448D01*
X56474582Y-113482027D01*
X56533304Y-113470346D01*
X56578723Y-113451532D01*
X56600000Y-113437315D01*
X56621277Y-113451532D01*
X56666696Y-113470346D01*
X56725418Y-113482027D01*
X56750000Y-113484448D01*
X57200264Y-113484448D01*
X57220064Y-113486398D01*
X57279936Y-113486398D01*
X57304517Y-113483977D01*
X57402062Y-113464574D01*
X57425701Y-113457403D01*
X57481016Y-113434490D01*
X57502798Y-113422847D01*
X57585493Y-113367592D01*
X57604586Y-113351922D01*
X57646922Y-113309586D01*
X57662592Y-113290493D01*
X57717847Y-113207798D01*
X57729490Y-113186016D01*
X57752403Y-113130701D01*
X57759574Y-113107062D01*
X57778977Y-113009517D01*
X57781398Y-112984936D01*
X57781398Y-112925064D01*
X57779448Y-112905264D01*
X57779448Y-112504736D01*
X57781398Y-112484936D01*
X57781398Y-112425064D01*
X57778977Y-112400483D01*
X57759574Y-112302938D01*
X57752610Y-112279981D01*
X57771613Y-112261885D01*
X57789669Y-112240366D01*
X57883839Y-112098629D01*
X57896679Y-112073646D01*
X57957107Y-111914569D01*
X57964093Y-111887360D01*
X57987775Y-111718848D01*
X57988989Y-111703075D01*
X57989287Y-111681762D01*
X57988514Y-111665955D01*
X57981005Y-111599005D01*
X58044903Y-111593190D01*
X58072419Y-111587542D01*
X58234258Y-111534957D01*
X58259840Y-111523353D01*
X58406008Y-111436219D01*
X58428382Y-111419236D01*
X58551613Y-111301885D01*
X58569669Y-111280366D01*
X58663839Y-111138629D01*
X58676679Y-111113646D01*
X58737107Y-110954569D01*
X58744093Y-110927360D01*
X58767775Y-110758848D01*
X58768989Y-110743075D01*
X58769287Y-110721762D01*
X58768514Y-110705955D01*
X58749546Y-110536847D01*
X58743322Y-110509455D01*
X58687359Y-110348752D01*
X58675222Y-110323419D01*
X58585046Y-110179109D01*
X58567598Y-110157095D01*
X58447692Y-110036348D01*
X58425800Y-110018747D01*
X58282122Y-109927566D01*
X58256875Y-109915252D01*
X58096567Y-109858169D01*
X58069218Y-109851754D01*
X57900247Y-109831606D01*
X57872159Y-109831410D01*
X57757551Y-109843456D01*
X57748865Y-109834770D01*
X57736996Y-109824305D01*
X57690858Y-109788517D01*
X57695435Y-109788613D01*
X57864903Y-109773190D01*
X57892419Y-109767542D01*
X58054258Y-109714957D01*
X58079840Y-109703353D01*
X58226008Y-109616219D01*
X58248382Y-109599236D01*
X58371613Y-109481885D01*
X58389669Y-109460366D01*
X58483839Y-109318629D01*
X58496679Y-109293646D01*
X58557107Y-109134569D01*
X58564093Y-109107360D01*
X58587775Y-108938848D01*
X58588989Y-108923075D01*
X58589287Y-108901762D01*
X58588514Y-108885955D01*
X58569546Y-108716847D01*
X58563322Y-108689455D01*
X58507359Y-108528752D01*
X58495222Y-108503419D01*
X58405046Y-108359109D01*
X58387598Y-108337095D01*
X58267692Y-108216348D01*
X58245800Y-108198747D01*
X58102122Y-108107566D01*
X58076875Y-108095252D01*
X58065184Y-108091089D01*
X57777586Y-107803491D01*
X57759574Y-107712938D01*
X57752403Y-107689299D01*
X57729490Y-107633984D01*
X57717847Y-107612202D01*
X57662592Y-107529507D01*
X57646922Y-107510414D01*
X57604586Y-107468078D01*
X57585493Y-107452408D01*
X57502798Y-107397153D01*
X57481016Y-107385510D01*
X57425701Y-107362597D01*
X57402062Y-107355426D01*
X57304517Y-107336023D01*
X57279936Y-107333602D01*
X57220064Y-107333602D01*
X57200264Y-107335552D01*
X56750000Y-107335552D01*
X56725418Y-107337973D01*
X56666696Y-107349654D01*
X56621277Y-107368468D01*
X56600000Y-107382685D01*
X56578723Y-107368468D01*
X56533304Y-107349654D01*
X56474582Y-107337973D01*
X56450000Y-107335552D01*
X56280228Y-107335552D01*
X56264728Y-107327345D01*
X56236465Y-107316496D01*
X56204228Y-107308399D01*
X56173261Y-107296325D01*
X56143936Y-107288796D01*
X56106638Y-107283886D01*
X56070148Y-107274720D01*
X56040112Y-107270926D01*
X56000000Y-107270716D01*
X55996706Y-107270500D01*
X55958762Y-107270500D01*
X55868629Y-107270028D01*
X55864550Y-107270500D01*
X54750660Y-107270500D01*
X52934500Y-105454340D01*
X52934500Y-104254214D01*
X52935444Y-104164099D01*
X52932605Y-104136151D01*
X52922279Y-104088392D01*
X52918612Y-104055701D01*
X52912388Y-104028307D01*
X52904210Y-104004823D01*
X52894273Y-103958863D01*
X52885314Y-103932240D01*
X52860115Y-103878200D01*
X52852736Y-103857011D01*
X52840600Y-103831680D01*
X52832018Y-103817945D01*
X52819939Y-103792043D01*
X54114745Y-103792043D01*
X54115821Y-103809149D01*
X54153346Y-104094180D01*
X54156734Y-104110982D01*
X54232595Y-104388284D01*
X54238232Y-104404471D01*
X54351026Y-104668911D01*
X54358807Y-104684182D01*
X54506445Y-104930867D01*
X54516227Y-104944942D01*
X54695979Y-105169309D01*
X54707580Y-105181925D01*
X54916118Y-105379820D01*
X54929325Y-105390745D01*
X55162791Y-105558508D01*
X55177358Y-105567540D01*
X55431433Y-105702066D01*
X55447091Y-105709038D01*
X55717072Y-105807837D01*
X55733531Y-105812619D01*
X56014422Y-105873863D01*
X56031378Y-105876367D01*
X56256853Y-105894112D01*
X56266739Y-105894500D01*
X56422271Y-105894500D01*
X56430841Y-105894208D01*
X56645395Y-105879581D01*
X56662376Y-105877255D01*
X56943893Y-105818956D01*
X56960402Y-105814347D01*
X57231403Y-105718380D01*
X57247133Y-105711573D01*
X57502602Y-105579716D01*
X57517263Y-105570837D01*
X57752474Y-105405528D01*
X57765794Y-105394741D01*
X57976393Y-105199040D01*
X57988126Y-105186546D01*
X58170217Y-104964074D01*
X58180146Y-104950103D01*
X58330360Y-104704977D01*
X58338300Y-104689787D01*
X58453856Y-104426543D01*
X58459662Y-104410417D01*
X58538423Y-104133925D01*
X58541987Y-104117159D01*
X58582494Y-103832537D01*
X58583749Y-103815444D01*
X58585255Y-103527957D01*
X58584179Y-103510851D01*
X58546654Y-103225820D01*
X58543266Y-103209018D01*
X58467405Y-102931716D01*
X58461768Y-102915529D01*
X58348974Y-102651089D01*
X58341193Y-102635818D01*
X58193555Y-102389133D01*
X58183773Y-102375058D01*
X58004021Y-102150691D01*
X57992420Y-102138075D01*
X57783882Y-101940180D01*
X57770675Y-101929255D01*
X57537209Y-101761492D01*
X57522642Y-101752460D01*
X57268567Y-101617934D01*
X57252909Y-101610962D01*
X56982928Y-101512163D01*
X56966469Y-101507381D01*
X56685578Y-101446137D01*
X56668622Y-101443633D01*
X56443147Y-101425888D01*
X56433261Y-101425500D01*
X56277729Y-101425500D01*
X56269159Y-101425792D01*
X56054605Y-101440419D01*
X56037624Y-101442745D01*
X55756107Y-101501044D01*
X55739598Y-101505653D01*
X55468597Y-101601620D01*
X55452867Y-101608427D01*
X55197398Y-101740284D01*
X55182737Y-101749163D01*
X54947526Y-101914472D01*
X54934206Y-101925259D01*
X54723607Y-102120960D01*
X54711874Y-102133454D01*
X54529783Y-102355926D01*
X54519854Y-102369897D01*
X54369640Y-102615023D01*
X54361700Y-102630213D01*
X54246144Y-102893457D01*
X54240338Y-102909583D01*
X54161577Y-103186075D01*
X54158013Y-103202841D01*
X54117506Y-103487463D01*
X54116251Y-103504556D01*
X54114745Y-103792043D01*
X52819939Y-103792043D01*
X52808657Y-103767848D01*
X52806522Y-103764350D01*
X53008807Y-103710147D01*
X53029446Y-103702635D01*
X53230927Y-103608683D01*
X53249948Y-103597701D01*
X53432052Y-103470190D01*
X53448876Y-103456072D01*
X53606072Y-103298876D01*
X53620190Y-103282052D01*
X53747701Y-103099947D01*
X53758683Y-103080926D01*
X53852635Y-102879446D01*
X53860147Y-102858807D01*
X53917685Y-102644074D01*
X53921499Y-102622444D01*
X53940874Y-102400981D01*
X53940874Y-102379019D01*
X53921499Y-102157556D01*
X53917685Y-102135925D01*
X53907221Y-102096874D01*
X54491348Y-101512747D01*
X54508868Y-101498253D01*
X54555493Y-101448602D01*
X54575230Y-101428865D01*
X54585695Y-101416995D01*
X54588170Y-101413804D01*
X54618436Y-101381574D01*
X54637000Y-101356024D01*
X54646761Y-101338270D01*
X54659175Y-101322265D01*
X54675251Y-101295082D01*
X54692811Y-101254503D01*
X54714110Y-101215760D01*
X54725736Y-101186395D01*
X54730774Y-101166774D01*
X54738818Y-101148185D01*
X54747630Y-101117857D01*
X54754547Y-101074189D01*
X54765542Y-101031364D01*
X54769500Y-101000030D01*
X54769500Y-100979776D01*
X54772669Y-100959768D01*
X54773661Y-100928199D01*
X54769500Y-100884181D01*
X54769500Y-97620685D01*
X54916118Y-97759820D01*
X54929325Y-97770745D01*
X55162791Y-97938508D01*
X55177358Y-97947540D01*
X55431433Y-98082066D01*
X55447091Y-98089038D01*
X55717072Y-98187837D01*
X55733531Y-98192619D01*
X56014422Y-98253863D01*
X56031378Y-98256367D01*
X56256853Y-98274112D01*
X56266739Y-98274500D01*
X56422271Y-98274500D01*
X56430841Y-98274208D01*
X56645395Y-98259581D01*
X56662376Y-98257255D01*
X56943893Y-98198956D01*
X56960402Y-98194347D01*
X57231403Y-98098380D01*
X57247133Y-98091573D01*
X57502602Y-97959716D01*
X57517263Y-97950837D01*
X57752474Y-97785528D01*
X57765794Y-97774741D01*
X57976393Y-97579040D01*
X57988126Y-97566546D01*
X58170217Y-97344074D01*
X58180146Y-97330103D01*
X58330360Y-97084977D01*
X58338300Y-97069787D01*
X58453856Y-96806543D01*
X58459662Y-96790417D01*
X58538423Y-96513925D01*
X58541987Y-96497159D01*
X58582494Y-96212537D01*
X58583749Y-96195444D01*
X58585255Y-95907957D01*
X58584179Y-95890851D01*
X58546654Y-95605820D01*
X58543266Y-95589018D01*
X58467405Y-95311716D01*
X58461768Y-95295529D01*
X58348974Y-95031089D01*
X58341193Y-95015818D01*
X58193555Y-94769133D01*
X58183773Y-94755058D01*
X58004021Y-94530691D01*
X57992420Y-94518075D01*
X57783882Y-94320180D01*
X57770675Y-94309255D01*
X57537209Y-94141492D01*
X57522642Y-94132460D01*
X57268567Y-93997934D01*
X57252909Y-93990962D01*
X56982928Y-93892163D01*
X56966469Y-93887381D01*
X56685578Y-93826137D01*
X56668622Y-93823633D01*
X56443147Y-93805888D01*
X56433261Y-93805500D01*
X56277729Y-93805500D01*
X56269159Y-93805792D01*
X56054605Y-93820419D01*
X56037624Y-93822745D01*
X55756107Y-93881044D01*
X55739598Y-93885653D01*
X55468597Y-93981620D01*
X55452867Y-93988427D01*
X55197398Y-94120284D01*
X55182737Y-94129163D01*
X54947526Y-94294472D01*
X54934206Y-94305259D01*
X54723607Y-94500960D01*
X54711874Y-94513454D01*
X54529783Y-94735926D01*
X54519854Y-94749897D01*
X54369640Y-94995023D01*
X54361700Y-95010213D01*
X54252675Y-95258580D01*
X52524500Y-93530405D01*
X52524500Y-93269600D01*
X52523827Y-93256596D01*
X52512853Y-93150830D01*
X52507050Y-93123958D01*
X52451074Y-92956178D01*
X52438694Y-92929751D01*
X52345622Y-92779349D01*
X52327496Y-92756479D01*
X52202321Y-92631522D01*
X52179419Y-92613435D01*
X52028854Y-92520625D01*
X52002405Y-92508292D01*
X51987259Y-92503268D01*
X52008822Y-92496074D01*
X52035249Y-92483694D01*
X52185651Y-92390622D01*
X52208521Y-92372496D01*
X52333478Y-92247321D01*
X52351565Y-92224419D01*
X52444375Y-92073854D01*
X52456708Y-92047405D01*
X52464527Y-92023830D01*
X54955476Y-92023830D01*
X54960541Y-92094645D01*
X54991555Y-92141716D01*
X54994449Y-92144481D01*
X55004787Y-92153340D01*
X55293350Y-92374763D01*
X55304595Y-92382463D01*
X55615385Y-92571426D01*
X55627395Y-92577866D01*
X55956774Y-92732158D01*
X55969409Y-92737263D01*
X56313526Y-92855081D01*
X56326639Y-92858791D01*
X56681467Y-92938755D01*
X56694904Y-92941028D01*
X57056293Y-92982203D01*
X57069897Y-92983011D01*
X57433618Y-92984915D01*
X57447230Y-92984250D01*
X57809030Y-92946862D01*
X57822490Y-92944730D01*
X58178136Y-92868486D01*
X58191287Y-92864913D01*
X58536619Y-92750705D01*
X58549307Y-92745732D01*
X58880284Y-92594897D01*
X58892361Y-92588583D01*
X59205112Y-92402885D01*
X59216437Y-92395304D01*
X59507304Y-92176915D01*
X59517744Y-92168155D01*
X59546308Y-92141425D01*
X59582380Y-92080275D01*
X59579665Y-92009330D01*
X59549310Y-91960330D01*
X57359095Y-89770115D01*
X57296783Y-89736089D01*
X57225968Y-89741154D01*
X57180905Y-89770115D01*
X54989502Y-91961518D01*
X54955476Y-92023830D01*
X52464527Y-92023830D01*
X52512390Y-91879528D01*
X52518141Y-91852704D01*
X52528844Y-91748243D01*
X52529500Y-91735400D01*
X52529500Y-90684600D01*
X52528827Y-90671596D01*
X52517853Y-90565830D01*
X52512050Y-90538958D01*
X52456074Y-90371178D01*
X52443694Y-90344751D01*
X52350622Y-90194349D01*
X52332496Y-90171479D01*
X52207321Y-90046522D01*
X52184419Y-90028435D01*
X52033854Y-89935625D01*
X52007405Y-89923292D01*
X51999500Y-89920670D01*
X51999500Y-89886781D01*
X52130651Y-89805622D01*
X52153521Y-89787496D01*
X52278478Y-89662321D01*
X52296565Y-89639419D01*
X52385811Y-89494636D01*
X53781249Y-89494636D01*
X53799651Y-89857897D01*
X53801076Y-89871450D01*
X53858603Y-90230599D01*
X53861483Y-90243919D01*
X53957460Y-90594754D01*
X53961761Y-90607685D01*
X54095068Y-90946103D01*
X54100741Y-90958494D01*
X54269816Y-91280535D01*
X54276794Y-91292241D01*
X54479661Y-91594139D01*
X54487863Y-91605023D01*
X54626231Y-91769339D01*
X54685410Y-91808562D01*
X54756399Y-91809564D01*
X54811706Y-91777274D01*
X56999885Y-89589095D01*
X57033911Y-89526783D01*
X57028846Y-89455968D01*
X56999885Y-89410905D01*
X54811810Y-87222830D01*
X54749498Y-87188804D01*
X54678683Y-87193869D01*
X54626903Y-87230095D01*
X54502626Y-87375606D01*
X54494350Y-87386432D01*
X54289380Y-87686906D01*
X54282320Y-87698563D01*
X54111001Y-88019417D01*
X54105242Y-88031767D01*
X53969576Y-88369245D01*
X53965184Y-88382146D01*
X53866759Y-88732303D01*
X53863786Y-88745603D01*
X53803754Y-89104342D01*
X53802235Y-89117885D01*
X53781297Y-89481008D01*
X53781249Y-89494636D01*
X52385811Y-89494636D01*
X52389375Y-89488854D01*
X52401708Y-89462405D01*
X52457390Y-89294528D01*
X52463141Y-89267704D01*
X52473844Y-89163243D01*
X52474500Y-89150400D01*
X52474500Y-88149600D01*
X52473827Y-88136596D01*
X52462853Y-88030830D01*
X52457050Y-88003958D01*
X52401074Y-87836178D01*
X52388694Y-87809751D01*
X52295622Y-87659349D01*
X52277496Y-87636479D01*
X52152321Y-87511522D01*
X52129419Y-87493435D01*
X51978854Y-87400625D01*
X51952405Y-87388292D01*
X51784528Y-87332610D01*
X51757704Y-87326859D01*
X51653243Y-87316156D01*
X51640400Y-87315500D01*
X50839600Y-87315500D01*
X50826596Y-87316173D01*
X50720830Y-87327147D01*
X50693958Y-87332950D01*
X50526178Y-87388926D01*
X50499751Y-87401306D01*
X50349349Y-87494378D01*
X50326479Y-87512504D01*
X50239689Y-87599445D01*
X50152009Y-87511917D01*
X50129107Y-87493830D01*
X49978641Y-87401082D01*
X49952193Y-87388749D01*
X49784427Y-87333103D01*
X49757601Y-87327352D01*
X49653205Y-87316656D01*
X49640363Y-87316000D01*
X49494000Y-87316000D01*
X49425879Y-87336002D01*
X49379386Y-87389658D01*
X49368000Y-87442000D01*
X49368000Y-88778000D01*
X48132001Y-88778000D01*
X48063880Y-88798002D01*
X48017387Y-88851658D01*
X48006001Y-88904000D01*
X48006001Y-89150362D01*
X48006674Y-89163365D01*
X48017641Y-89269066D01*
X48023444Y-89295939D01*
X48079382Y-89463608D01*
X48091762Y-89490035D01*
X48184773Y-89640338D01*
X48202899Y-89663208D01*
X48327991Y-89788083D01*
X48350893Y-89806170D01*
X48501359Y-89898918D01*
X48527807Y-89911251D01*
X48548549Y-89918131D01*
X48531178Y-89923926D01*
X48504751Y-89936306D01*
X48354349Y-90029378D01*
X48331479Y-90047504D01*
X48206522Y-90172679D01*
X48188435Y-90195581D01*
X48095625Y-90346146D01*
X48083292Y-90372595D01*
X48057452Y-90450500D01*
X47424824Y-90450500D01*
X47414087Y-90436174D01*
X47388826Y-90410913D01*
X47272270Y-90323559D01*
X47240935Y-90306403D01*
X47121917Y-90261785D01*
X47226653Y-90157413D01*
X47240035Y-90141689D01*
X47370344Y-89960345D01*
X47380979Y-89942646D01*
X47479921Y-89742453D01*
X47487522Y-89723255D01*
X47552438Y-89509592D01*
X47556802Y-89489408D01*
X47561273Y-89455445D01*
X47550333Y-89385297D01*
X47503205Y-89332198D01*
X47436351Y-89313000D01*
X44765110Y-89313000D01*
X44696989Y-89333002D01*
X44650496Y-89386658D01*
X44640392Y-89456932D01*
X44642193Y-89466701D01*
X44676784Y-89620190D01*
X44682958Y-89639893D01*
X44766971Y-89846794D01*
X44776281Y-89865225D01*
X44892959Y-90055626D01*
X44905155Y-90072288D01*
X45051364Y-90241076D01*
X45066116Y-90255523D01*
X45075035Y-90262928D01*
X44959065Y-90306403D01*
X44927730Y-90323559D01*
X44811174Y-90410913D01*
X44785913Y-90436174D01*
X44698559Y-90552730D01*
X44681403Y-90584065D01*
X44630273Y-90720454D01*
X44622992Y-90751076D01*
X44616237Y-90813258D01*
X44615500Y-90826866D01*
X44615500Y-92623134D01*
X44304000Y-92623134D01*
X44304000Y-88917590D01*
X44636055Y-88917590D01*
X44648693Y-88987453D01*
X44697096Y-89039392D01*
X44761339Y-89057000D01*
X45846000Y-89057000D01*
X45914121Y-89036998D01*
X45960614Y-88983342D01*
X45972000Y-88931000D01*
X46228000Y-88931000D01*
X46248002Y-88999121D01*
X46301658Y-89045614D01*
X46354000Y-89057000D01*
X47436459Y-89057000D01*
X47504580Y-89036998D01*
X47551073Y-88983342D01*
X47561177Y-88913068D01*
X47558663Y-88900304D01*
X47512159Y-88715167D01*
X47505505Y-88695621D01*
X47416462Y-88490835D01*
X47406704Y-88472637D01*
X47357125Y-88396000D01*
X48006000Y-88396000D01*
X48026002Y-88464121D01*
X48079658Y-88510614D01*
X48132000Y-88522000D01*
X48986000Y-88522000D01*
X49054121Y-88501998D01*
X49100614Y-88448342D01*
X49112000Y-88396000D01*
X49112000Y-87442001D01*
X49091998Y-87373880D01*
X49038342Y-87327387D01*
X48986000Y-87316001D01*
X48839638Y-87316001D01*
X48826635Y-87316674D01*
X48720934Y-87327641D01*
X48694061Y-87333444D01*
X48526392Y-87389382D01*
X48499965Y-87401762D01*
X48349662Y-87494773D01*
X48326792Y-87512899D01*
X48201917Y-87637991D01*
X48183830Y-87660893D01*
X48091082Y-87811359D01*
X48078749Y-87837807D01*
X48023103Y-88005573D01*
X48017352Y-88032399D01*
X48006656Y-88136795D01*
X48006000Y-88149637D01*
X48006000Y-88396000D01*
X47357125Y-88396000D01*
X47285409Y-88285143D01*
X47272810Y-88268783D01*
X47122521Y-88103618D01*
X47107420Y-88089536D01*
X46932173Y-87951135D01*
X46914975Y-87939709D01*
X46719477Y-87831788D01*
X46700643Y-87823323D01*
X46490144Y-87748781D01*
X46470180Y-87743507D01*
X46376096Y-87726748D01*
X46305524Y-87734494D01*
X46250342Y-87779164D01*
X46228000Y-87850795D01*
X46228000Y-88931000D01*
X45972000Y-88931000D01*
X45972000Y-87849987D01*
X45951998Y-87781866D01*
X45898342Y-87735373D01*
X45826940Y-87725437D01*
X45765148Y-87734893D01*
X45745063Y-87739678D01*
X45532805Y-87809054D01*
X45513770Y-87817056D01*
X45315694Y-87920168D01*
X45298221Y-87931171D01*
X45119645Y-88065250D01*
X45104204Y-88078959D01*
X44949925Y-88240403D01*
X44936931Y-88256450D01*
X44811091Y-88440924D01*
X44800891Y-88458878D01*
X44706871Y-88661428D01*
X44699742Y-88680806D01*
X44640065Y-88895992D01*
X44636198Y-88916254D01*
X44636055Y-88917590D01*
X44304000Y-88917590D01*
X44304000Y-86634000D01*
X55283728Y-86634000D01*
X55023366Y-86830911D01*
G37*
%TD.AperFunction*%
%TD*%
M02*
