%TF.GenerationSoftware,KiCad,Pcbnew,(6.0.1)*%
%TF.CreationDate,2022-07-03T00:07:17-07:00*%
%TF.ProjectId,mu100-dit,6d753130-302d-4646-9974-2e6b69636164,rev?*%
%TF.SameCoordinates,Original*%
%TF.FileFunction,Copper,L1,Top*%
%TF.FilePolarity,Positive*%
%FSLAX46Y46*%
G04 Gerber Fmt 4.6, Leading zero omitted, Abs format (unit mm)*
G04 Created by KiCad (PCBNEW (6.0.1)) date 2022-07-03 00:07:17*
%MOMM*%
%LPD*%
G01*
G04 APERTURE LIST*
G04 Aperture macros list*
%AMRoundRect*
0 Rectangle with rounded corners*
0 $1 Rounding radius*
0 $2 $3 $4 $5 $6 $7 $8 $9 X,Y pos of 4 corners*
0 Add a 4 corners polygon primitive as box body*
4,1,4,$2,$3,$4,$5,$6,$7,$8,$9,$2,$3,0*
0 Add four circle primitives for the rounded corners*
1,1,$1+$1,$2,$3*
1,1,$1+$1,$4,$5*
1,1,$1+$1,$6,$7*
1,1,$1+$1,$8,$9*
0 Add four rect primitives between the rounded corners*
20,1,$1+$1,$2,$3,$4,$5,0*
20,1,$1+$1,$4,$5,$6,$7,0*
20,1,$1+$1,$6,$7,$8,$9,0*
20,1,$1+$1,$8,$9,$2,$3,0*%
G04 Aperture macros list end*
%TA.AperFunction,SMDPad,CuDef*%
%ADD10RoundRect,0.250000X-0.337500X-0.475000X0.337500X-0.475000X0.337500X0.475000X-0.337500X0.475000X0*%
%TD*%
%TA.AperFunction,SMDPad,CuDef*%
%ADD11R,1.900000X0.800000*%
%TD*%
%TA.AperFunction,ComponentPad*%
%ADD12O,1.750000X1.200000*%
%TD*%
%TA.AperFunction,ComponentPad*%
%ADD13RoundRect,0.250000X-0.625000X0.350000X-0.625000X-0.350000X0.625000X-0.350000X0.625000X0.350000X0*%
%TD*%
%TA.AperFunction,SMDPad,CuDef*%
%ADD14RoundRect,0.100000X-0.637500X-0.100000X0.637500X-0.100000X0.637500X0.100000X-0.637500X0.100000X0*%
%TD*%
%TA.AperFunction,ComponentPad*%
%ADD15C,3.600000*%
%TD*%
%TA.AperFunction,ConnectorPad*%
%ADD16C,5.600000*%
%TD*%
%TA.AperFunction,ComponentPad*%
%ADD17C,1.524000*%
%TD*%
%TA.AperFunction,SMDPad,CuDef*%
%ADD18RoundRect,0.250000X0.337500X0.475000X-0.337500X0.475000X-0.337500X-0.475000X0.337500X-0.475000X0*%
%TD*%
%TA.AperFunction,ViaPad*%
%ADD19C,0.500000*%
%TD*%
%TA.AperFunction,ViaPad*%
%ADD20C,0.800000*%
%TD*%
%TA.AperFunction,Conductor*%
%ADD21C,0.250000*%
%TD*%
%TA.AperFunction,Conductor*%
%ADD22C,0.500000*%
%TD*%
%TA.AperFunction,Conductor*%
%ADD23C,0.400000*%
%TD*%
%TA.AperFunction,Conductor*%
%ADD24C,0.600000*%
%TD*%
%TA.AperFunction,Conductor*%
%ADD25C,0.254000*%
%TD*%
G04 APERTURE END LIST*
D10*
%TO.P,C3,1*%
%TO.N,GND*%
X47212500Y-123275000D03*
%TO.P,C3,2*%
%TO.N,+5V*%
X49287500Y-123275000D03*
%TD*%
D11*
%TO.P,U3,1,\u002ARESET*%
%TO.N,/RESET*%
X46750000Y-118750000D03*
%TO.P,U3,2,GND*%
%TO.N,GND*%
X46750000Y-120650000D03*
%TO.P,U3,3,VCC*%
%TO.N,+5V*%
X49750000Y-119700000D03*
%TD*%
D12*
%TO.P,J1,10,Pin_10*%
%TO.N,/LRCK*%
X46950000Y-114620000D03*
%TO.P,J1,9,Pin_9*%
%TO.N,GND*%
X46950000Y-112620000D03*
%TO.P,J1,8,Pin_8*%
%TO.N,/BICK*%
X46950000Y-110620000D03*
%TO.P,J1,7,Pin_7*%
%TO.N,GND*%
X46950000Y-108620000D03*
%TO.P,J1,6,Pin_6*%
%TO.N,/SDAT*%
X46950000Y-106620000D03*
%TO.P,J1,5,Pin_5*%
%TO.N,GND*%
X46950000Y-104620000D03*
%TO.P,J1,4,Pin_4*%
%TO.N,/MCLK*%
X46950000Y-102620000D03*
%TO.P,J1,3,Pin_3*%
%TO.N,GND*%
X46950000Y-100620000D03*
%TO.P,J1,2,Pin_2*%
%TO.N,+5V*%
X46950000Y-98620000D03*
D13*
%TO.P,J1,1,Pin_1*%
%TO.N,unconnected-(J1-Pad1)*%
X46950000Y-96620000D03*
%TD*%
D14*
%TO.P,U2,1,V1*%
%TO.N,GND*%
X51659500Y-109461427D03*
%TO.P,U2,2,TRANS*%
X51659500Y-110111427D03*
%TO.P,U2,3,PDN*%
%TO.N,/RESET*%
X51659500Y-110761427D03*
%TO.P,U2,4,MCLK*%
%TO.N,/MCLK*%
X51659500Y-111411427D03*
%TO.P,U2,5,SDTI*%
%TO.N,/SDAT*%
X51659500Y-112061427D03*
%TO.P,U2,6,BICK*%
%TO.N,/BICK*%
X51659500Y-112711427D03*
%TO.P,U2,7,LRCK*%
%TO.N,/LRCK*%
X51659500Y-113361427D03*
%TO.P,U2,8,FS0/CSN*%
%TO.N,/FS0*%
X51659500Y-114011427D03*
%TO.P,U2,9,FS1/CDTI*%
%TO.N,/FS1*%
X51659500Y-114661427D03*
%TO.P,U2,10,FS2/CCLK*%
%TO.N,/FS2*%
X51659500Y-115311427D03*
%TO.P,U2,11,FS3/CDTO*%
%TO.N,/FS3*%
X51659500Y-115961427D03*
%TO.P,U2,12,C1*%
%TO.N,GND*%
X51659500Y-116611427D03*
%TO.P,U2,13,ANS*%
%TO.N,unconnected-(U2-Pad13)*%
X59084500Y-116611427D03*
%TO.P,U2,14,BLS*%
%TO.N,unconnected-(U2-Pad14)*%
X59084500Y-115961427D03*
%TO.P,U2,15,CKS0*%
%TO.N,/CKS0*%
X59084500Y-115311427D03*
%TO.P,U2,16,CKS1*%
%TO.N,/CKS1*%
X59084500Y-114661427D03*
%TO.P,U2,17,VDD*%
%TO.N,+5V*%
X59084500Y-114011427D03*
%TO.P,U2,18,VSS*%
%TO.N,GND*%
X59084500Y-113361427D03*
%TO.P,U2,19,TXN*%
%TO.N,unconnected-(U2-Pad19)*%
X59084500Y-112711427D03*
%TO.P,U2,20,TXP*%
%TO.N,/TXP*%
X59084500Y-112061427D03*
%TO.P,U2,21,DIF0*%
%TO.N,/DIF0*%
X59084500Y-111411427D03*
%TO.P,U2,22,DIF1*%
%TO.N,/DIF1*%
X59084500Y-110761427D03*
%TO.P,U2,23,DIF2*%
%TO.N,/DIF2*%
X59084500Y-110111427D03*
%TO.P,U2,24,U1*%
%TO.N,unconnected-(U2-Pad24)*%
X59084500Y-109461427D03*
%TD*%
D15*
%TO.P,REF\u002A\u002A,1*%
%TO.N,N/C*%
X57270000Y-89500000D03*
D16*
X57270000Y-89500000D03*
%TD*%
D17*
%TO.P,U1,1,GND*%
%TO.N,GND*%
X52540000Y-97310000D03*
%TO.P,U1,2,VCC*%
%TO.N,+5V*%
X52540000Y-99850000D03*
%TO.P,U1,3,Input*%
%TO.N,/TXP*%
X52540000Y-102390000D03*
%TD*%
D10*
%TO.P,C2,1*%
%TO.N,GND*%
X57128500Y-107188000D03*
%TO.P,C2,2*%
%TO.N,+5V*%
X59203500Y-107188000D03*
%TD*%
D18*
%TO.P,C1,2*%
%TO.N,+5V*%
X51540500Y-107188000D03*
%TO.P,C1,1*%
%TO.N,GND*%
X53615500Y-107188000D03*
%TD*%
D15*
%TO.P,REF\u002A\u002A,1*%
%TO.N,N/C*%
X57270000Y-122500000D03*
D16*
X57270000Y-122500000D03*
%TD*%
D19*
%TO.N,/RESET*%
X49924500Y-110175000D03*
X48850000Y-117300000D03*
D20*
%TO.N,GND*%
X58050000Y-105725000D03*
X49700000Y-100961532D03*
X50625000Y-98675000D03*
D19*
%TO.N,/FS0*%
X53759989Y-112538411D03*
%TO.N,/FS1*%
X53741990Y-113548813D03*
%TO.N,/FS2*%
X53730000Y-114420000D03*
%TO.N,/FS3*%
X53740000Y-115320000D03*
%TO.N,/DIF0*%
X56650000Y-111925000D03*
%TO.N,/DIF1*%
X57660000Y-110760000D03*
%TO.N,/DIF2*%
X56860000Y-109080000D03*
%TO.N,/CKS0*%
X57600000Y-116070000D03*
%TO.N,/CKS1*%
X57540000Y-114650000D03*
%TD*%
D21*
%TO.N,/RESET*%
X49924500Y-110175000D02*
X50510927Y-110761427D01*
X50510927Y-110761427D02*
X51659500Y-110761427D01*
%TO.N,/MCLK*%
X49943427Y-111411427D02*
X51659500Y-111411427D01*
X49350000Y-110818000D02*
X49943427Y-111411427D01*
X48095000Y-102620000D02*
X49350000Y-103875000D01*
X46950000Y-102620000D02*
X48095000Y-102620000D01*
X49350000Y-103875000D02*
X49350000Y-110818000D01*
%TO.N,/DIF0*%
X57163573Y-111411427D02*
X59084500Y-111411427D01*
X56650000Y-111925000D02*
X57163573Y-111411427D01*
D22*
%TO.N,+5V*%
X60475000Y-113775000D02*
X60500000Y-113750000D01*
X60500000Y-113750000D02*
X60500000Y-108738500D01*
X60500000Y-113800000D02*
X60500000Y-117475000D01*
D23*
X60238573Y-114011427D02*
X59084500Y-114011427D01*
X60475000Y-113775000D02*
X60238573Y-114011427D01*
D22*
X60475000Y-113775000D02*
X60500000Y-113800000D01*
X60500000Y-108738500D02*
X58949500Y-107188000D01*
D23*
X50700000Y-118750000D02*
X49750000Y-119700000D01*
X59200000Y-118750000D02*
X50700000Y-118750000D01*
X60500000Y-117450000D02*
X59200000Y-118750000D01*
X60500000Y-114272854D02*
X60500000Y-117450000D01*
X60238573Y-114011427D02*
X60500000Y-114272854D01*
X59988573Y-114011427D02*
X60238573Y-114011427D01*
%TO.N,GND*%
X44400000Y-105968000D02*
X44400000Y-110070000D01*
X44400000Y-101396000D02*
X44400000Y-105968000D01*
X54725000Y-113375000D02*
X55650000Y-114300000D01*
X53150000Y-110250000D02*
X54725000Y-111825000D01*
X53050000Y-110250000D02*
X53150000Y-110250000D01*
X54725000Y-111825000D02*
X54725000Y-113375000D01*
X57798573Y-113351427D02*
X58595500Y-113351427D01*
X57550000Y-113600000D02*
X57798573Y-113351427D01*
X54076573Y-116611427D02*
X57088000Y-113600000D01*
X57088000Y-113600000D02*
X57550000Y-113600000D01*
%TO.N,+5V*%
X49475000Y-122962500D02*
X49287500Y-123150000D01*
X49750000Y-119700000D02*
X49475000Y-119975000D01*
X49475000Y-119975000D02*
X49475000Y-122962500D01*
D21*
%TO.N,/RESET*%
X47250000Y-118750000D02*
X46750000Y-118750000D01*
X48850000Y-117300000D02*
X48700000Y-117300000D01*
X48700000Y-117300000D02*
X47250000Y-118750000D01*
D23*
%TO.N,GND*%
X50236427Y-116611427D02*
X49575000Y-115950000D01*
X49575000Y-115950000D02*
X46075000Y-115950000D01*
X51659500Y-116611427D02*
X50236427Y-116611427D01*
X46075000Y-115950000D02*
X45212000Y-115087000D01*
X45212000Y-115087000D02*
X45212000Y-112522000D01*
D21*
%TO.N,/LRCK*%
X49580357Y-113361427D02*
X48321784Y-114620000D01*
X51659500Y-113361427D02*
X49580357Y-113361427D01*
X48321784Y-114620000D02*
X46950000Y-114620000D01*
D23*
%TO.N,GND*%
X52911427Y-110111427D02*
X53050000Y-110250000D01*
X54038573Y-116611427D02*
X51659500Y-116611427D01*
X51659500Y-109461427D02*
X53050000Y-109461427D01*
X44508000Y-110294000D02*
X45212000Y-110998000D01*
X55750000Y-114350000D02*
X55750000Y-114900000D01*
X46950000Y-104620000D02*
X45748000Y-104620000D01*
X46950000Y-100620000D02*
X45176000Y-100620000D01*
X45310000Y-112620000D02*
X45212000Y-112522000D01*
X45176000Y-100620000D02*
X44400000Y-101396000D01*
X51659500Y-110111427D02*
X52911427Y-110111427D01*
X44400000Y-110070000D02*
X44508000Y-110178000D01*
X45748000Y-104620000D02*
X44400000Y-105968000D01*
X44508000Y-110178000D02*
X44508000Y-110294000D01*
X45212000Y-110998000D02*
X45212000Y-112522000D01*
X55750000Y-114900000D02*
X54038573Y-116611427D01*
X45850000Y-108620000D02*
X44400000Y-110070000D01*
X53050000Y-109461427D02*
X53050000Y-110250000D01*
X46950000Y-108620000D02*
X45850000Y-108620000D01*
X46950000Y-112620000D02*
X45310000Y-112620000D01*
D24*
%TO.N,+5V*%
X50700000Y-105564000D02*
X51540500Y-106404500D01*
X60010000Y-101510000D02*
X58350000Y-99850000D01*
X58350000Y-99850000D02*
X52540000Y-99850000D01*
X59436000Y-106934000D02*
X60010000Y-106360000D01*
X50700000Y-101441000D02*
X50700000Y-105564000D01*
X60010000Y-106360000D02*
X60010000Y-101510000D01*
X51540500Y-106404500D02*
X51540500Y-107188000D01*
X52291000Y-99850000D02*
X50700000Y-101441000D01*
D21*
%TO.N,/SDAT*%
X48768000Y-108438000D02*
X48768000Y-111506000D01*
X46950000Y-106620000D02*
X48768000Y-108438000D01*
X48768000Y-111506000D02*
X49323427Y-112061427D01*
X49323427Y-112061427D02*
X51659500Y-112061427D01*
%TO.N,/FS0*%
X53759989Y-112598799D02*
X52347361Y-114011427D01*
X52347361Y-114011427D02*
X51659500Y-114011427D01*
X53759989Y-112538411D02*
X53759989Y-112598799D01*
%TO.N,/FS1*%
X52605380Y-114661427D02*
X51659500Y-114661427D01*
X53741990Y-113548813D02*
X53717994Y-113548813D01*
X53717994Y-113548813D02*
X52605380Y-114661427D01*
%TO.N,/FS2*%
X53730000Y-114420000D02*
X52838573Y-115311427D01*
X52838573Y-115311427D02*
X51659500Y-115311427D01*
%TO.N,/FS3*%
X53098573Y-115961427D02*
X51659500Y-115961427D01*
X53740000Y-115320000D02*
X53098573Y-115961427D01*
%TO.N,/TXP*%
X55590000Y-106440000D02*
X55590000Y-112200000D01*
X52540000Y-102390000D02*
X52540000Y-103390000D01*
X56114511Y-112724511D02*
X56945489Y-112724511D01*
X55590000Y-112200000D02*
X56114511Y-112724511D01*
X52540000Y-103390000D02*
X55590000Y-106440000D01*
X56945489Y-112724511D02*
X57608573Y-112061427D01*
X57608573Y-112061427D02*
X59084500Y-112061427D01*
%TO.N,/DIF1*%
X57661427Y-110761427D02*
X59084500Y-110761427D01*
X57660000Y-110760000D02*
X57661427Y-110761427D01*
%TO.N,/DIF2*%
X57180000Y-109080000D02*
X58211427Y-110111427D01*
X56860000Y-109080000D02*
X57180000Y-109080000D01*
X58211427Y-110111427D02*
X59084500Y-110111427D01*
%TO.N,/CKS0*%
X58358573Y-115311427D02*
X59084500Y-115311427D01*
X57600000Y-116070000D02*
X58358573Y-115311427D01*
%TO.N,/BICK*%
X46950000Y-110620000D02*
X49041427Y-112711427D01*
X49041427Y-112711427D02*
X51659500Y-112711427D01*
%TO.N,/CKS1*%
X57551427Y-114661427D02*
X59084500Y-114661427D01*
X57540000Y-114650000D02*
X57551427Y-114661427D01*
%TD*%
%TO.N,GND*%
D25*
X55352487Y-86644985D02*
X55341189Y-86652606D01*
X55055363Y-86868775D01*
X55044954Y-86877571D01*
X54784146Y-87123344D01*
X54774748Y-87133212D01*
X54542008Y-87405715D01*
X54533731Y-87416542D01*
X54331783Y-87712587D01*
X54324723Y-87724243D01*
X54155929Y-88040366D01*
X54150170Y-88052717D01*
X54016504Y-88385221D01*
X54012112Y-88398122D01*
X53915138Y-88743117D01*
X53912165Y-88756417D01*
X53853018Y-89109867D01*
X53851499Y-89123410D01*
X53830870Y-89481181D01*
X53830822Y-89494809D01*
X53848953Y-89852715D01*
X53850378Y-89866268D01*
X53907056Y-90220123D01*
X53909936Y-90233443D01*
X54004499Y-90579107D01*
X54008800Y-90592038D01*
X54140141Y-90925467D01*
X54145814Y-90937858D01*
X54312397Y-91255152D01*
X54319376Y-91266858D01*
X54519253Y-91564305D01*
X54527454Y-91575189D01*
X54758285Y-91849310D01*
X54767614Y-91859244D01*
X55026700Y-92106832D01*
X55037047Y-92115700D01*
X55321357Y-92333859D01*
X55332602Y-92341559D01*
X55638811Y-92527737D01*
X55650821Y-92534177D01*
X55975345Y-92686195D01*
X55987980Y-92691300D01*
X56327024Y-92807381D01*
X56340137Y-92811091D01*
X56689734Y-92889876D01*
X56703171Y-92892149D01*
X57059233Y-92932717D01*
X57072837Y-92933525D01*
X57431197Y-92935401D01*
X57444809Y-92934736D01*
X57801276Y-92897899D01*
X57814736Y-92895767D01*
X58165139Y-92820647D01*
X58178290Y-92817074D01*
X58518531Y-92704550D01*
X58531219Y-92699577D01*
X58857317Y-92550966D01*
X58869394Y-92544652D01*
X59177535Y-92361691D01*
X59188860Y-92354110D01*
X59475439Y-92138940D01*
X59485878Y-92130181D01*
X59747543Y-91885320D01*
X59756976Y-91875483D01*
X59990665Y-91603794D01*
X59998980Y-91592997D01*
X60201960Y-91297659D01*
X60209060Y-91286027D01*
X60378957Y-90970495D01*
X60384760Y-90958164D01*
X60519585Y-90626128D01*
X60524021Y-90613243D01*
X60622199Y-90268589D01*
X60625219Y-90255300D01*
X60636000Y-90192229D01*
X60636000Y-100814101D01*
X60609221Y-100787134D01*
X60606644Y-100785062D01*
X59017329Y-99195747D01*
X58954252Y-99131335D01*
X58932484Y-99113582D01*
X58896050Y-99090102D01*
X58862165Y-99063052D01*
X58838395Y-99048083D01*
X58808201Y-99033487D01*
X58780018Y-99015324D01*
X58754858Y-99002834D01*
X58714122Y-98988007D01*
X58675089Y-98969138D01*
X58648595Y-98959808D01*
X58615917Y-98952264D01*
X58584410Y-98940796D01*
X58557106Y-98934190D01*
X58514091Y-98928756D01*
X58471860Y-98919006D01*
X58443955Y-98915777D01*
X58403385Y-98915635D01*
X58401231Y-98915500D01*
X58364581Y-98915500D01*
X58262570Y-98915144D01*
X58259293Y-98915500D01*
X53580448Y-98915500D01*
X53448876Y-98783928D01*
X53432052Y-98769810D01*
X53249948Y-98642299D01*
X53230927Y-98631317D01*
X53120285Y-98579724D01*
X53230676Y-98528248D01*
X53249696Y-98517266D01*
X53312875Y-98473028D01*
X53357204Y-98417571D01*
X53364513Y-98346952D01*
X53329700Y-98280720D01*
X52629095Y-97580115D01*
X52566783Y-97546089D01*
X52495968Y-97551154D01*
X52450905Y-97580115D01*
X51750300Y-98280720D01*
X51716274Y-98343032D01*
X51721339Y-98413847D01*
X51767125Y-98473028D01*
X51830304Y-98517266D01*
X51849324Y-98528248D01*
X51959715Y-98579724D01*
X51849074Y-98631317D01*
X51830053Y-98642299D01*
X51647948Y-98769810D01*
X51631124Y-98783928D01*
X51473928Y-98941124D01*
X51459810Y-98957948D01*
X51332299Y-99140053D01*
X51321317Y-99159074D01*
X51227365Y-99360554D01*
X51219853Y-99381193D01*
X51162315Y-99595926D01*
X51158501Y-99617556D01*
X51154344Y-99665074D01*
X50045747Y-100773671D01*
X49981335Y-100836748D01*
X49963582Y-100858516D01*
X49940102Y-100894950D01*
X49913052Y-100928835D01*
X49898083Y-100952605D01*
X49883487Y-100982799D01*
X49865324Y-101010982D01*
X49852834Y-101036142D01*
X49838007Y-101076878D01*
X49819138Y-101115911D01*
X49809808Y-101142405D01*
X49802264Y-101175083D01*
X49790796Y-101206590D01*
X49784190Y-101233894D01*
X49778756Y-101276909D01*
X49769006Y-101319140D01*
X49765777Y-101347045D01*
X49765635Y-101387615D01*
X49765500Y-101389769D01*
X49765500Y-101426419D01*
X49765144Y-101528430D01*
X49765500Y-101531707D01*
X49765500Y-103216406D01*
X48687747Y-102138652D01*
X48673253Y-102121132D01*
X48623602Y-102074507D01*
X48603865Y-102054770D01*
X48591995Y-102044305D01*
X48588804Y-102041830D01*
X48556574Y-102011564D01*
X48531024Y-101993000D01*
X48513270Y-101983239D01*
X48497265Y-101970825D01*
X48470082Y-101954749D01*
X48429503Y-101937189D01*
X48390760Y-101915890D01*
X48361395Y-101904264D01*
X48341774Y-101899226D01*
X48323185Y-101891182D01*
X48292857Y-101882370D01*
X48249189Y-101875453D01*
X48206364Y-101864458D01*
X48202245Y-101863938D01*
X48170715Y-101819489D01*
X48155077Y-101801371D01*
X48002281Y-101655101D01*
X47983498Y-101640267D01*
X47950742Y-101619116D01*
X48070407Y-101525118D01*
X48087739Y-101508613D01*
X48226308Y-101348927D01*
X48240207Y-101329441D01*
X48346080Y-101146432D01*
X48356044Y-101124670D01*
X48425401Y-100924943D01*
X48431070Y-100901685D01*
X48432463Y-100892075D01*
X48422440Y-100821790D01*
X48376009Y-100768081D01*
X48307766Y-100748000D01*
X45596483Y-100748000D01*
X45528362Y-100768002D01*
X45481869Y-100821658D01*
X45471765Y-100891932D01*
X45473990Y-100903521D01*
X45500107Y-101011891D01*
X45507899Y-101034521D01*
X45595408Y-101226988D01*
X45607339Y-101247737D01*
X45729664Y-101420183D01*
X45745303Y-101438301D01*
X45898030Y-101584505D01*
X45916813Y-101599339D01*
X45949230Y-101620270D01*
X45829247Y-101714518D01*
X45811915Y-101731024D01*
X45673283Y-101890783D01*
X45659384Y-101910268D01*
X45553463Y-102093359D01*
X45543499Y-102115121D01*
X45474111Y-102314938D01*
X45468443Y-102338191D01*
X45438091Y-102547524D01*
X45436922Y-102571430D01*
X45446702Y-102782725D01*
X45450074Y-102806420D01*
X45499632Y-103012055D01*
X45507424Y-103034685D01*
X45594973Y-103227238D01*
X45606904Y-103247987D01*
X45729284Y-103420511D01*
X45744923Y-103438629D01*
X45897719Y-103584899D01*
X45916502Y-103599733D01*
X45949258Y-103620884D01*
X45829593Y-103714882D01*
X45812261Y-103731387D01*
X45673692Y-103891073D01*
X45659793Y-103910559D01*
X45553920Y-104093568D01*
X45543956Y-104115330D01*
X45474599Y-104315057D01*
X45468930Y-104338315D01*
X45467537Y-104347925D01*
X45477560Y-104418210D01*
X45523991Y-104471919D01*
X45592234Y-104492000D01*
X48303517Y-104492000D01*
X48371638Y-104471998D01*
X48418131Y-104418342D01*
X48428235Y-104348068D01*
X48426010Y-104336479D01*
X48399893Y-104228109D01*
X48392101Y-104205479D01*
X48304592Y-104013012D01*
X48292661Y-103992263D01*
X48170336Y-103819817D01*
X48154697Y-103801699D01*
X48001970Y-103655495D01*
X47983187Y-103640661D01*
X47950770Y-103619730D01*
X47989899Y-103588994D01*
X48590500Y-104189596D01*
X48590500Y-107186405D01*
X48400955Y-106996860D01*
X48425888Y-106925063D01*
X48431557Y-106901809D01*
X48461909Y-106692476D01*
X48463078Y-106668570D01*
X48453298Y-106457275D01*
X48449926Y-106433580D01*
X48400368Y-106227945D01*
X48392576Y-106205315D01*
X48305027Y-106012762D01*
X48293096Y-105992013D01*
X48170716Y-105819489D01*
X48155077Y-105801371D01*
X48002281Y-105655101D01*
X47983498Y-105640267D01*
X47950742Y-105619116D01*
X48070407Y-105525118D01*
X48087739Y-105508613D01*
X48226308Y-105348927D01*
X48240207Y-105329441D01*
X48346080Y-105146432D01*
X48356044Y-105124670D01*
X48425401Y-104924943D01*
X48431070Y-104901685D01*
X48432463Y-104892075D01*
X48422440Y-104821790D01*
X48376009Y-104768081D01*
X48307766Y-104748000D01*
X45596483Y-104748000D01*
X45528362Y-104768002D01*
X45481869Y-104821658D01*
X45471765Y-104891932D01*
X45473990Y-104903521D01*
X45500107Y-105011891D01*
X45507899Y-105034521D01*
X45595408Y-105226988D01*
X45607339Y-105247737D01*
X45729664Y-105420183D01*
X45745303Y-105438301D01*
X45898030Y-105584505D01*
X45916813Y-105599339D01*
X45949230Y-105620270D01*
X45829247Y-105714518D01*
X45811915Y-105731024D01*
X45673283Y-105890783D01*
X45659384Y-105910268D01*
X45553463Y-106093359D01*
X45543499Y-106115121D01*
X45474111Y-106314938D01*
X45468443Y-106338191D01*
X45438091Y-106547524D01*
X45436922Y-106571430D01*
X45446702Y-106782725D01*
X45450074Y-106806420D01*
X45499632Y-107012055D01*
X45507424Y-107034685D01*
X45594973Y-107227238D01*
X45606904Y-107247987D01*
X45729284Y-107420511D01*
X45744923Y-107438629D01*
X45897719Y-107584899D01*
X45916502Y-107599733D01*
X45949258Y-107620884D01*
X45829593Y-107714882D01*
X45812261Y-107731387D01*
X45673692Y-107891073D01*
X45659793Y-107910559D01*
X45553920Y-108093568D01*
X45543956Y-108115330D01*
X45474599Y-108315057D01*
X45468930Y-108338315D01*
X45467537Y-108347925D01*
X45477560Y-108418210D01*
X45523991Y-108471919D01*
X45592234Y-108492000D01*
X47078000Y-108492000D01*
X47078000Y-108748000D01*
X45596483Y-108748000D01*
X45528362Y-108768002D01*
X45481869Y-108821658D01*
X45471765Y-108891932D01*
X45473990Y-108903521D01*
X45500107Y-109011891D01*
X45507899Y-109034521D01*
X45595408Y-109226988D01*
X45607339Y-109247737D01*
X45729664Y-109420183D01*
X45745303Y-109438301D01*
X45898030Y-109584505D01*
X45916813Y-109599339D01*
X45949230Y-109620270D01*
X45829247Y-109714518D01*
X45811915Y-109731024D01*
X45673283Y-109890783D01*
X45659384Y-109910268D01*
X45553463Y-110093359D01*
X45543499Y-110115121D01*
X45474111Y-110314938D01*
X45468443Y-110338191D01*
X45438091Y-110547524D01*
X45436922Y-110571430D01*
X45446702Y-110782725D01*
X45450074Y-110806420D01*
X45499632Y-111012055D01*
X45507424Y-111034685D01*
X45594973Y-111227238D01*
X45606904Y-111247987D01*
X45729284Y-111420511D01*
X45744923Y-111438629D01*
X45897719Y-111584899D01*
X45916502Y-111599733D01*
X45949258Y-111620884D01*
X45829593Y-111714882D01*
X45812261Y-111731387D01*
X45673692Y-111891073D01*
X45659793Y-111910559D01*
X45553920Y-112093568D01*
X45543956Y-112115330D01*
X45474599Y-112315057D01*
X45468930Y-112338315D01*
X45467537Y-112347925D01*
X45477560Y-112418210D01*
X45523991Y-112471919D01*
X45592234Y-112492000D01*
X47078000Y-112492000D01*
X47078000Y-112748000D01*
X45596483Y-112748000D01*
X45528362Y-112768002D01*
X45481869Y-112821658D01*
X45471765Y-112891932D01*
X45473990Y-112903521D01*
X45500107Y-113011891D01*
X45507899Y-113034521D01*
X45595408Y-113226988D01*
X45607339Y-113247737D01*
X45729664Y-113420183D01*
X45745303Y-113438301D01*
X45898030Y-113584505D01*
X45916813Y-113599339D01*
X45949230Y-113620270D01*
X45829247Y-113714518D01*
X45811915Y-113731024D01*
X45673283Y-113890783D01*
X45659384Y-113910268D01*
X45553463Y-114093359D01*
X45543499Y-114115121D01*
X45474111Y-114314938D01*
X45468443Y-114338191D01*
X45438091Y-114547524D01*
X45436922Y-114571430D01*
X45446702Y-114782725D01*
X45450074Y-114806420D01*
X45499632Y-115012055D01*
X45507424Y-115034685D01*
X45594973Y-115227238D01*
X45606904Y-115247987D01*
X45729284Y-115420511D01*
X45744923Y-115438629D01*
X45897719Y-115584899D01*
X45916502Y-115599733D01*
X46094200Y-115714472D01*
X46115450Y-115725486D01*
X46311639Y-115804552D01*
X46334587Y-115811350D01*
X46542187Y-115851892D01*
X46560183Y-115854078D01*
X46565745Y-115854350D01*
X46571899Y-115854500D01*
X47277846Y-115854500D01*
X47289813Y-115853930D01*
X47447533Y-115838882D01*
X47471035Y-115834357D01*
X47674003Y-115774813D01*
X47696226Y-115765924D01*
X47884272Y-115669074D01*
X47904413Y-115656144D01*
X48070753Y-115525482D01*
X48088085Y-115508976D01*
X48200439Y-115379500D01*
X48243017Y-115379500D01*
X48265652Y-115381640D01*
X48333729Y-115379500D01*
X48361640Y-115379500D01*
X48377430Y-115378507D01*
X48381441Y-115378000D01*
X48425632Y-115376611D01*
X48456825Y-115371670D01*
X48476276Y-115366019D01*
X48496374Y-115363480D01*
X48526965Y-115355626D01*
X48568079Y-115339348D01*
X48610529Y-115327015D01*
X48639517Y-115314471D01*
X48656953Y-115304159D01*
X48675783Y-115296704D01*
X48703461Y-115281489D01*
X48739231Y-115255501D01*
X48777286Y-115232995D01*
X48802241Y-115213637D01*
X48816562Y-115199316D01*
X48832952Y-115187408D01*
X48855976Y-115165788D01*
X48884167Y-115131711D01*
X49894952Y-114120927D01*
X50287501Y-114120927D01*
X50287501Y-114151312D01*
X50288579Y-114167756D01*
X50304240Y-114286722D01*
X50312753Y-114318495D01*
X50320181Y-114336427D01*
X50312753Y-114354359D01*
X50304240Y-114386131D01*
X50288578Y-114505096D01*
X50287500Y-114521542D01*
X50287501Y-114801311D01*
X50288579Y-114817756D01*
X50304240Y-114936722D01*
X50312753Y-114968495D01*
X50320181Y-114986427D01*
X50312753Y-115004359D01*
X50304240Y-115036131D01*
X50288578Y-115155096D01*
X50287500Y-115171542D01*
X50287501Y-115451311D01*
X50288579Y-115467756D01*
X50304240Y-115586722D01*
X50312753Y-115618495D01*
X50320181Y-115636427D01*
X50312753Y-115654359D01*
X50304240Y-115686131D01*
X50288578Y-115805096D01*
X50287500Y-115821542D01*
X50287501Y-116101311D01*
X50288579Y-116117756D01*
X50304240Y-116236722D01*
X50312753Y-116268495D01*
X50320452Y-116287081D01*
X50313241Y-116304489D01*
X50304728Y-116336260D01*
X50296997Y-116394980D01*
X50307936Y-116465129D01*
X50355064Y-116518228D01*
X50421919Y-116537427D01*
X50461431Y-116537427D01*
X50488051Y-116572118D01*
X50511309Y-116595376D01*
X50628665Y-116685427D01*
X50421920Y-116685427D01*
X50353799Y-116705429D01*
X50307306Y-116759085D01*
X50296998Y-116827872D01*
X50304728Y-116886592D01*
X50313241Y-116918365D01*
X50374504Y-117066268D01*
X50390951Y-117094754D01*
X50488408Y-117221761D01*
X50511666Y-117245019D01*
X50638673Y-117342476D01*
X50667159Y-117358923D01*
X50815062Y-117420186D01*
X50846834Y-117428699D01*
X50965707Y-117444349D01*
X50982153Y-117445427D01*
X51459500Y-117445427D01*
X51527621Y-117425425D01*
X51574114Y-117371769D01*
X51585500Y-117319427D01*
X51585500Y-116811427D01*
X51580949Y-116795926D01*
X51733500Y-116795926D01*
X51733500Y-117319426D01*
X51753502Y-117387547D01*
X51807158Y-117434040D01*
X51859500Y-117445426D01*
X52336846Y-117445426D01*
X52353291Y-117444348D01*
X52472165Y-117428699D01*
X52503938Y-117420186D01*
X52651841Y-117358923D01*
X52680327Y-117342476D01*
X52807334Y-117245019D01*
X52830592Y-117221761D01*
X52928049Y-117094754D01*
X52944496Y-117066268D01*
X53005759Y-116918365D01*
X53014272Y-116886593D01*
X53029922Y-116767720D01*
X53031000Y-116751273D01*
X53031000Y-116721985D01*
X53042441Y-116723067D01*
X53110518Y-116720927D01*
X53138429Y-116720927D01*
X53154219Y-116719934D01*
X53158230Y-116719427D01*
X53202421Y-116718038D01*
X53233614Y-116713097D01*
X53253065Y-116707446D01*
X53273163Y-116704907D01*
X53303754Y-116697053D01*
X53344868Y-116680775D01*
X53387318Y-116668442D01*
X53416306Y-116655898D01*
X53433742Y-116645586D01*
X53452572Y-116638131D01*
X53480250Y-116622916D01*
X53516020Y-116596928D01*
X53554075Y-116574422D01*
X53579030Y-116555064D01*
X53593351Y-116540743D01*
X53609741Y-116528835D01*
X53632765Y-116507214D01*
X53660950Y-116473144D01*
X53953354Y-116180740D01*
X54094258Y-116134957D01*
X54119840Y-116123353D01*
X54266008Y-116036219D01*
X54288382Y-116019236D01*
X54411613Y-115901885D01*
X54429669Y-115880366D01*
X54523839Y-115738629D01*
X54536679Y-115713646D01*
X54597107Y-115554569D01*
X54604093Y-115527360D01*
X54627775Y-115358848D01*
X54628989Y-115343075D01*
X54629287Y-115321762D01*
X54628514Y-115305955D01*
X54609546Y-115136847D01*
X54603322Y-115109455D01*
X54547359Y-114948752D01*
X54535222Y-114923419D01*
X54497554Y-114863139D01*
X54513839Y-114838629D01*
X54526679Y-114813646D01*
X54587107Y-114654569D01*
X54594093Y-114627360D01*
X54617775Y-114458848D01*
X54618989Y-114443075D01*
X54619287Y-114421762D01*
X54618514Y-114405955D01*
X54599546Y-114236847D01*
X54593322Y-114209455D01*
X54537359Y-114048752D01*
X54525222Y-114023418D01*
X54507491Y-113995043D01*
X54525829Y-113967443D01*
X54538669Y-113942459D01*
X54599097Y-113783382D01*
X54606083Y-113756173D01*
X54629765Y-113587661D01*
X54630979Y-113571888D01*
X54631277Y-113550575D01*
X54630504Y-113534768D01*
X54611536Y-113365660D01*
X54605312Y-113338268D01*
X54549349Y-113177565D01*
X54537212Y-113152232D01*
X54477564Y-113056776D01*
X54543828Y-112957040D01*
X54556668Y-112932057D01*
X54617096Y-112772980D01*
X54624082Y-112745771D01*
X54647764Y-112577259D01*
X54648978Y-112561486D01*
X54649276Y-112540173D01*
X54648503Y-112524366D01*
X54629535Y-112355258D01*
X54623311Y-112327866D01*
X54567348Y-112167163D01*
X54555211Y-112141830D01*
X54465035Y-111997520D01*
X54447587Y-111975506D01*
X54327681Y-111854759D01*
X54305789Y-111837158D01*
X54162111Y-111745977D01*
X54136864Y-111733663D01*
X53976556Y-111676580D01*
X53949207Y-111670165D01*
X53780236Y-111650017D01*
X53752148Y-111649821D01*
X53582912Y-111667608D01*
X53555477Y-111673640D01*
X53394387Y-111728479D01*
X53368970Y-111740439D01*
X53224033Y-111829605D01*
X53201897Y-111846900D01*
X53080317Y-111965961D01*
X53062564Y-111987728D01*
X53031499Y-112035930D01*
X53031499Y-111921543D01*
X53030421Y-111905098D01*
X53014760Y-111786132D01*
X53006247Y-111754359D01*
X52998819Y-111736427D01*
X53006247Y-111718495D01*
X53014760Y-111686723D01*
X53030422Y-111567758D01*
X53031500Y-111551312D01*
X53031499Y-111271543D01*
X53030421Y-111255098D01*
X53014760Y-111136132D01*
X53006247Y-111104359D01*
X52998819Y-111086427D01*
X53006247Y-111068495D01*
X53014760Y-111036723D01*
X53030422Y-110917758D01*
X53031500Y-110901312D01*
X53031499Y-110621543D01*
X53030421Y-110605098D01*
X53014760Y-110486132D01*
X53006247Y-110454359D01*
X52998548Y-110435773D01*
X53005759Y-110418365D01*
X53014272Y-110386594D01*
X53022003Y-110327874D01*
X53011064Y-110257725D01*
X52963936Y-110204626D01*
X52897081Y-110185427D01*
X52857569Y-110185427D01*
X52830949Y-110150736D01*
X52807691Y-110127478D01*
X52690335Y-110037427D01*
X52897080Y-110037427D01*
X52965201Y-110017425D01*
X53011694Y-109963769D01*
X53022002Y-109894982D01*
X53014272Y-109836262D01*
X53005759Y-109804489D01*
X52998277Y-109786427D01*
X53005759Y-109768365D01*
X53014272Y-109736594D01*
X53022003Y-109677874D01*
X53011064Y-109607725D01*
X52963936Y-109554626D01*
X52897081Y-109535427D01*
X51859500Y-109535427D01*
X51791379Y-109555429D01*
X51744886Y-109609085D01*
X51733500Y-109661427D01*
X51733500Y-109911427D01*
X51738051Y-109926928D01*
X51585500Y-109926928D01*
X51585500Y-109261427D01*
X51733500Y-109261427D01*
X51753502Y-109329548D01*
X51807158Y-109376041D01*
X51859500Y-109387427D01*
X52897080Y-109387427D01*
X52965201Y-109367425D01*
X53011694Y-109313769D01*
X53022002Y-109244982D01*
X53014272Y-109186262D01*
X53005759Y-109154489D01*
X52944496Y-109006586D01*
X52928049Y-108978100D01*
X52830592Y-108851093D01*
X52807334Y-108827835D01*
X52680327Y-108730378D01*
X52651841Y-108713931D01*
X52503938Y-108652668D01*
X52472166Y-108644155D01*
X52353293Y-108628505D01*
X52336847Y-108627427D01*
X51859500Y-108627427D01*
X51791379Y-108647429D01*
X51744886Y-108701085D01*
X51733500Y-108753427D01*
X51733500Y-109261427D01*
X51585500Y-109261427D01*
X51585500Y-108753428D01*
X51565498Y-108685307D01*
X51511842Y-108638814D01*
X51459500Y-108627428D01*
X50982154Y-108627428D01*
X50965709Y-108628506D01*
X50846835Y-108644155D01*
X50815062Y-108652668D01*
X50667159Y-108713931D01*
X50638673Y-108730378D01*
X50511666Y-108827835D01*
X50488408Y-108851093D01*
X50390951Y-108978100D01*
X50374504Y-109006586D01*
X50313241Y-109154489D01*
X50304728Y-109186261D01*
X50289078Y-109305134D01*
X50288000Y-109321580D01*
X50288000Y-109365489D01*
X50141067Y-109313169D01*
X50113718Y-109306754D01*
X50109500Y-109306251D01*
X50109500Y-106295082D01*
X50335130Y-106520712D01*
X50329859Y-106545296D01*
X50319156Y-106649757D01*
X50318500Y-106662600D01*
X50318500Y-107713400D01*
X50319173Y-107726404D01*
X50330147Y-107832170D01*
X50335950Y-107859042D01*
X50391926Y-108026822D01*
X50404306Y-108053249D01*
X50497378Y-108203651D01*
X50515504Y-108226521D01*
X50640679Y-108351478D01*
X50663581Y-108369565D01*
X50814146Y-108462375D01*
X50840595Y-108474708D01*
X51008472Y-108530390D01*
X51035296Y-108536141D01*
X51139757Y-108546844D01*
X51152600Y-108547500D01*
X51928400Y-108547500D01*
X51941404Y-108546827D01*
X52047170Y-108535853D01*
X52074042Y-108530050D01*
X52241822Y-108474074D01*
X52268249Y-108461694D01*
X52418651Y-108368622D01*
X52441521Y-108350496D01*
X52566478Y-108225321D01*
X52578316Y-108210332D01*
X52590899Y-108226208D01*
X52715991Y-108351083D01*
X52738893Y-108369170D01*
X52889359Y-108461918D01*
X52915807Y-108474251D01*
X53083573Y-108529897D01*
X53110399Y-108535648D01*
X53214795Y-108546344D01*
X53227637Y-108547000D01*
X53361500Y-108547000D01*
X53429621Y-108526998D01*
X53476114Y-108473342D01*
X53487500Y-108421000D01*
X53487500Y-105955001D01*
X53467498Y-105886880D01*
X53413842Y-105840387D01*
X53361500Y-105829001D01*
X53227638Y-105829001D01*
X53214635Y-105829674D01*
X53108934Y-105840641D01*
X53082061Y-105846444D01*
X52914392Y-105902382D01*
X52887965Y-105914762D01*
X52737662Y-106007773D01*
X52714792Y-106025899D01*
X52589917Y-106150991D01*
X52578326Y-106165667D01*
X52565496Y-106149479D01*
X52440321Y-106024522D01*
X52417418Y-106006435D01*
X52378935Y-105982714D01*
X52363328Y-105957737D01*
X52349157Y-105927348D01*
X52334522Y-105903372D01*
X52307952Y-105869118D01*
X52284980Y-105832355D01*
X52267531Y-105810339D01*
X52238922Y-105781530D01*
X52237516Y-105779935D01*
X52211977Y-105754396D01*
X52139721Y-105681634D01*
X52137144Y-105679562D01*
X51634500Y-105176917D01*
X51634500Y-103458905D01*
X51647948Y-103470190D01*
X51799535Y-103576333D01*
X51804374Y-103595181D01*
X51820652Y-103636295D01*
X51832985Y-103678745D01*
X51845529Y-103707733D01*
X51855841Y-103725169D01*
X51863296Y-103743999D01*
X51878511Y-103771677D01*
X51904499Y-103807447D01*
X51927005Y-103845502D01*
X51946363Y-103870457D01*
X51960684Y-103884778D01*
X51972592Y-103901168D01*
X51994212Y-103924192D01*
X52028289Y-103952383D01*
X53904906Y-105829000D01*
X53869500Y-105829000D01*
X53801379Y-105849002D01*
X53754886Y-105902658D01*
X53743500Y-105955000D01*
X53743500Y-108420999D01*
X53763502Y-108489120D01*
X53817158Y-108535613D01*
X53869500Y-108546999D01*
X54003362Y-108546999D01*
X54016365Y-108546326D01*
X54122066Y-108535359D01*
X54148939Y-108529556D01*
X54316608Y-108473618D01*
X54343035Y-108461238D01*
X54493338Y-108368227D01*
X54516208Y-108350101D01*
X54641083Y-108225009D01*
X54659170Y-108202107D01*
X54751918Y-108051641D01*
X54764251Y-108025193D01*
X54819897Y-107857427D01*
X54825648Y-107830601D01*
X54830500Y-107783244D01*
X54830500Y-112121233D01*
X54828360Y-112143868D01*
X54830500Y-112211945D01*
X54830500Y-112239856D01*
X54831493Y-112255646D01*
X54832000Y-112259657D01*
X54833389Y-112303848D01*
X54838330Y-112335041D01*
X54843981Y-112354492D01*
X54846520Y-112374590D01*
X54854374Y-112405181D01*
X54870652Y-112446295D01*
X54882985Y-112488745D01*
X54895529Y-112517733D01*
X54905841Y-112535169D01*
X54913296Y-112553999D01*
X54928511Y-112581677D01*
X54954499Y-112617447D01*
X54977005Y-112655502D01*
X54996363Y-112680457D01*
X55010684Y-112694778D01*
X55022592Y-112711168D01*
X55044212Y-112734192D01*
X55078289Y-112762383D01*
X55521759Y-113205853D01*
X55536258Y-113223379D01*
X55585925Y-113270019D01*
X55605647Y-113289741D01*
X55617511Y-113300202D01*
X55620704Y-113302679D01*
X55652938Y-113332948D01*
X55678491Y-113351513D01*
X55696243Y-113361272D01*
X55712243Y-113373683D01*
X55739431Y-113389762D01*
X55779997Y-113407316D01*
X55818750Y-113428621D01*
X55848116Y-113440247D01*
X55867737Y-113445285D01*
X55886326Y-113453329D01*
X55916654Y-113462141D01*
X55960322Y-113469058D01*
X56003147Y-113480053D01*
X56034481Y-113484011D01*
X56054735Y-113484011D01*
X56074743Y-113487180D01*
X56106312Y-113488172D01*
X56150330Y-113484011D01*
X56866722Y-113484011D01*
X56889357Y-113486151D01*
X56957434Y-113484011D01*
X56985345Y-113484011D01*
X57001135Y-113483018D01*
X57005146Y-113482511D01*
X57049337Y-113481122D01*
X57080530Y-113476181D01*
X57099981Y-113470530D01*
X57120079Y-113467991D01*
X57150670Y-113460137D01*
X57191784Y-113443859D01*
X57234234Y-113431526D01*
X57263222Y-113418982D01*
X57280658Y-113408670D01*
X57299488Y-113401215D01*
X57327166Y-113386000D01*
X57362936Y-113360012D01*
X57400991Y-113337506D01*
X57425946Y-113318148D01*
X57440267Y-113303827D01*
X57456657Y-113291919D01*
X57479681Y-113270299D01*
X57507872Y-113236222D01*
X57735185Y-113008909D01*
X57737753Y-113018495D01*
X57745452Y-113037081D01*
X57738241Y-113054489D01*
X57729728Y-113086260D01*
X57721997Y-113144980D01*
X57732936Y-113215129D01*
X57780064Y-113268228D01*
X57846919Y-113287427D01*
X57886431Y-113287427D01*
X57913051Y-113322118D01*
X57936309Y-113345376D01*
X57957226Y-113361427D01*
X57936308Y-113377478D01*
X57913051Y-113400736D01*
X57886431Y-113435427D01*
X57846920Y-113435427D01*
X57778799Y-113455429D01*
X57732306Y-113509085D01*
X57721998Y-113577872D01*
X57729728Y-113636592D01*
X57738241Y-113668365D01*
X57745452Y-113685773D01*
X57737753Y-113704359D01*
X57729240Y-113736131D01*
X57723326Y-113781051D01*
X57560247Y-113761606D01*
X57532159Y-113761410D01*
X57362923Y-113779197D01*
X57335488Y-113785229D01*
X57174398Y-113840068D01*
X57148981Y-113852028D01*
X57004044Y-113941194D01*
X56981908Y-113958489D01*
X56860328Y-114077550D01*
X56842575Y-114099317D01*
X56750393Y-114242354D01*
X56737903Y-114267515D01*
X56679702Y-114427421D01*
X56673097Y-114454724D01*
X56651769Y-114623551D01*
X56651376Y-114651639D01*
X56667982Y-114820995D01*
X56673823Y-114848471D01*
X56727536Y-115009939D01*
X56739318Y-115035438D01*
X56827470Y-115180994D01*
X56844609Y-115203250D01*
X56962818Y-115325659D01*
X56984462Y-115343564D01*
X57040276Y-115380087D01*
X56920328Y-115497550D01*
X56902575Y-115519317D01*
X56810393Y-115662354D01*
X56797903Y-115687515D01*
X56739702Y-115847421D01*
X56733097Y-115874724D01*
X56711769Y-116043551D01*
X56711376Y-116071639D01*
X56727982Y-116240995D01*
X56733823Y-116268471D01*
X56787536Y-116429939D01*
X56799318Y-116455438D01*
X56887470Y-116600994D01*
X56904609Y-116623250D01*
X57022818Y-116745659D01*
X57044462Y-116763564D01*
X57186853Y-116856742D01*
X57211926Y-116869407D01*
X57371421Y-116928723D01*
X57398677Y-116935519D01*
X57567351Y-116958025D01*
X57595435Y-116958613D01*
X57748597Y-116944674D01*
X57799067Y-117066521D01*
X57815514Y-117095008D01*
X57913051Y-117222119D01*
X57936309Y-117245376D01*
X58063421Y-117342913D01*
X58091907Y-117359360D01*
X58239932Y-117420674D01*
X58271704Y-117429187D01*
X58390669Y-117444849D01*
X58407115Y-117445927D01*
X59323912Y-117445926D01*
X58854339Y-117915500D01*
X50728927Y-117915500D01*
X50671218Y-117911566D01*
X50640985Y-117913150D01*
X50578028Y-117924138D01*
X50514621Y-117931811D01*
X50485220Y-117939032D01*
X50478811Y-117941454D01*
X50472054Y-117942633D01*
X50443072Y-117951383D01*
X50384560Y-117977067D01*
X50324806Y-117999647D01*
X50297976Y-118013674D01*
X50292329Y-118017555D01*
X50286051Y-118020311D01*
X50259990Y-118035723D01*
X50209303Y-118074618D01*
X50156653Y-118110802D01*
X50133943Y-118130824D01*
X50092489Y-118177351D01*
X49604340Y-118665500D01*
X48751866Y-118665500D01*
X48738258Y-118666237D01*
X48676076Y-118672992D01*
X48645454Y-118680273D01*
X48509065Y-118731403D01*
X48477730Y-118748559D01*
X48361174Y-118835913D01*
X48335913Y-118861174D01*
X48334500Y-118863059D01*
X48334500Y-118739594D01*
X48889490Y-118184604D01*
X49014903Y-118173190D01*
X49042419Y-118167542D01*
X49204258Y-118114957D01*
X49229840Y-118103353D01*
X49376008Y-118016219D01*
X49398382Y-117999236D01*
X49521613Y-117881885D01*
X49539669Y-117860366D01*
X49633839Y-117718629D01*
X49646679Y-117693646D01*
X49707107Y-117534569D01*
X49714093Y-117507360D01*
X49737775Y-117338848D01*
X49738989Y-117323075D01*
X49739287Y-117301762D01*
X49738514Y-117285955D01*
X49719546Y-117116847D01*
X49713322Y-117089455D01*
X49657359Y-116928752D01*
X49645222Y-116903419D01*
X49555046Y-116759109D01*
X49537598Y-116737095D01*
X49417692Y-116616348D01*
X49395800Y-116598747D01*
X49252122Y-116507566D01*
X49226875Y-116495252D01*
X49066567Y-116438169D01*
X49039218Y-116431754D01*
X48870247Y-116411606D01*
X48842159Y-116411410D01*
X48672923Y-116429197D01*
X48645488Y-116435229D01*
X48484398Y-116490068D01*
X48458981Y-116502028D01*
X48314044Y-116591194D01*
X48291908Y-116608489D01*
X48170328Y-116727550D01*
X48152575Y-116749317D01*
X48109048Y-116816857D01*
X47210404Y-117715500D01*
X45751866Y-117715500D01*
X45738258Y-117716237D01*
X45676076Y-117722992D01*
X45645454Y-117730273D01*
X45509065Y-117781403D01*
X45477730Y-117798559D01*
X45361174Y-117885913D01*
X45335913Y-117911174D01*
X45248559Y-118027730D01*
X45231403Y-118059065D01*
X45180273Y-118195454D01*
X45172992Y-118226076D01*
X45166237Y-118288258D01*
X45165500Y-118301866D01*
X45165500Y-119198134D01*
X45166237Y-119211742D01*
X45172992Y-119273924D01*
X45180273Y-119304546D01*
X45231403Y-119440935D01*
X45248559Y-119472270D01*
X45335913Y-119588826D01*
X45361174Y-119614087D01*
X45476224Y-119700313D01*
X45361531Y-119786270D01*
X45336270Y-119811531D01*
X45249002Y-119927973D01*
X45231846Y-119959308D01*
X45180766Y-120095563D01*
X45173485Y-120126185D01*
X45166737Y-120188303D01*
X45166000Y-120201911D01*
X45166000Y-120396000D01*
X45186002Y-120464121D01*
X45239658Y-120510614D01*
X45292000Y-120522000D01*
X48207999Y-120522000D01*
X48276120Y-120501998D01*
X48293382Y-120482077D01*
X48335913Y-120538826D01*
X48361174Y-120564087D01*
X48477730Y-120651441D01*
X48509065Y-120668597D01*
X48640500Y-120717870D01*
X48640500Y-121970803D01*
X48586177Y-121988927D01*
X48559751Y-122001306D01*
X48409349Y-122094378D01*
X48386479Y-122112504D01*
X48261522Y-122237679D01*
X48249684Y-122252668D01*
X48237101Y-122236792D01*
X48112009Y-122111917D01*
X48089107Y-122093830D01*
X47938641Y-122001082D01*
X47912193Y-121988749D01*
X47744427Y-121933103D01*
X47717601Y-121927352D01*
X47613205Y-121916656D01*
X47600363Y-121916000D01*
X47466500Y-121916000D01*
X47398379Y-121936002D01*
X47351886Y-121989658D01*
X47340500Y-122042000D01*
X47340500Y-124507999D01*
X47360502Y-124576120D01*
X47414158Y-124622613D01*
X47466500Y-124633999D01*
X47600362Y-124633999D01*
X47613365Y-124633326D01*
X47719066Y-124622359D01*
X47745939Y-124616556D01*
X47913608Y-124560618D01*
X47940035Y-124548238D01*
X48090338Y-124455227D01*
X48113208Y-124437101D01*
X48238083Y-124312009D01*
X48249674Y-124297333D01*
X48262504Y-124313521D01*
X48387679Y-124438478D01*
X48410581Y-124456565D01*
X48561146Y-124549375D01*
X48587595Y-124561708D01*
X48755472Y-124617390D01*
X48782296Y-124623141D01*
X48886757Y-124633844D01*
X48899600Y-124634500D01*
X49675400Y-124634500D01*
X49688404Y-124633827D01*
X49794170Y-124622853D01*
X49821042Y-124617050D01*
X49988822Y-124561074D01*
X50015249Y-124548694D01*
X50165651Y-124455622D01*
X50188521Y-124437496D01*
X50313478Y-124312321D01*
X50331565Y-124289419D01*
X50424375Y-124138854D01*
X50436708Y-124112405D01*
X50492390Y-123944528D01*
X50498141Y-123917704D01*
X50508844Y-123813243D01*
X50509500Y-123800400D01*
X50509500Y-122749600D01*
X50508827Y-122736596D01*
X50497853Y-122630830D01*
X50492050Y-122603958D01*
X50436074Y-122436178D01*
X50423694Y-122409751D01*
X50330622Y-122259349D01*
X50312495Y-122236479D01*
X50309500Y-122233489D01*
X50309500Y-120734500D01*
X50748134Y-120734500D01*
X50761742Y-120733763D01*
X50823924Y-120727008D01*
X50854546Y-120719727D01*
X50990935Y-120668597D01*
X51022270Y-120651441D01*
X51138826Y-120564087D01*
X51164087Y-120538826D01*
X51251441Y-120422270D01*
X51268597Y-120390935D01*
X51319727Y-120254546D01*
X51327008Y-120223924D01*
X51333763Y-120161742D01*
X51334500Y-120148134D01*
X51334500Y-119584500D01*
X55453550Y-119584500D01*
X55352487Y-119644985D01*
X55341189Y-119652606D01*
X55055363Y-119868775D01*
X55044954Y-119877571D01*
X54784146Y-120123344D01*
X54774748Y-120133212D01*
X54542008Y-120405715D01*
X54533731Y-120416542D01*
X54331783Y-120712587D01*
X54324723Y-120724243D01*
X54155929Y-121040366D01*
X54150170Y-121052717D01*
X54016504Y-121385221D01*
X54012112Y-121398122D01*
X53915138Y-121743117D01*
X53912165Y-121756417D01*
X53853018Y-122109867D01*
X53851499Y-122123410D01*
X53830870Y-122481181D01*
X53830822Y-122494809D01*
X53848953Y-122852715D01*
X53850378Y-122866268D01*
X53907056Y-123220123D01*
X53909936Y-123233443D01*
X54004499Y-123579107D01*
X54008800Y-123592038D01*
X54140141Y-123925467D01*
X54145814Y-123937858D01*
X54312397Y-124255152D01*
X54319376Y-124266858D01*
X54519253Y-124564305D01*
X54527454Y-124575189D01*
X54758285Y-124849310D01*
X54767614Y-124859244D01*
X55026700Y-125106832D01*
X55037047Y-125115700D01*
X55321357Y-125333859D01*
X55332602Y-125341559D01*
X55372800Y-125366000D01*
X44304000Y-125366000D01*
X44304000Y-123800362D01*
X45991001Y-123800362D01*
X45991674Y-123813365D01*
X46002641Y-123919066D01*
X46008444Y-123945939D01*
X46064382Y-124113608D01*
X46076762Y-124140035D01*
X46169773Y-124290338D01*
X46187899Y-124313208D01*
X46312991Y-124438083D01*
X46335893Y-124456170D01*
X46486359Y-124548918D01*
X46512807Y-124561251D01*
X46680573Y-124616897D01*
X46707399Y-124622648D01*
X46811795Y-124633344D01*
X46824637Y-124634000D01*
X46958500Y-124634000D01*
X47026621Y-124613998D01*
X47073114Y-124560342D01*
X47084500Y-124508000D01*
X47084500Y-123529000D01*
X47064498Y-123460879D01*
X47010842Y-123414386D01*
X46958500Y-123403000D01*
X46117001Y-123403000D01*
X46048880Y-123423002D01*
X46002387Y-123476658D01*
X45991001Y-123529000D01*
X45991001Y-123800362D01*
X44304000Y-123800362D01*
X44304000Y-123021000D01*
X45991000Y-123021000D01*
X46011002Y-123089121D01*
X46064658Y-123135614D01*
X46117000Y-123147000D01*
X46958500Y-123147000D01*
X47026621Y-123126998D01*
X47073114Y-123073342D01*
X47084500Y-123021000D01*
X47084500Y-122042001D01*
X47064498Y-121973880D01*
X47010842Y-121927387D01*
X46958500Y-121916001D01*
X46824638Y-121916001D01*
X46811635Y-121916674D01*
X46705934Y-121927641D01*
X46679061Y-121933444D01*
X46511392Y-121989382D01*
X46484965Y-122001762D01*
X46334662Y-122094773D01*
X46311792Y-122112899D01*
X46186917Y-122237991D01*
X46168830Y-122260893D01*
X46076082Y-122411359D01*
X46063749Y-122437807D01*
X46008103Y-122605573D01*
X46002352Y-122632399D01*
X45991656Y-122736795D01*
X45991000Y-122749637D01*
X45991000Y-123021000D01*
X44304000Y-123021000D01*
X44304000Y-121098088D01*
X45166001Y-121098088D01*
X45166738Y-121111693D01*
X45173485Y-121173812D01*
X45180766Y-121204437D01*
X45231846Y-121340692D01*
X45249002Y-121372027D01*
X45336270Y-121488469D01*
X45361531Y-121513730D01*
X45477973Y-121600998D01*
X45509308Y-121618154D01*
X45645563Y-121669234D01*
X45676185Y-121676515D01*
X45738303Y-121683263D01*
X45751911Y-121684000D01*
X46496000Y-121684000D01*
X46564121Y-121663998D01*
X46610614Y-121610342D01*
X46622000Y-121558000D01*
X46622000Y-121557999D01*
X46878000Y-121557999D01*
X46898002Y-121626120D01*
X46951658Y-121672613D01*
X47004000Y-121683999D01*
X47748088Y-121683999D01*
X47761693Y-121683262D01*
X47823812Y-121676515D01*
X47854437Y-121669234D01*
X47990692Y-121618154D01*
X48022027Y-121600998D01*
X48138469Y-121513730D01*
X48163730Y-121488469D01*
X48250998Y-121372027D01*
X48268154Y-121340692D01*
X48319234Y-121204437D01*
X48326515Y-121173815D01*
X48333263Y-121111697D01*
X48334000Y-121098089D01*
X48334000Y-120904000D01*
X48313998Y-120835879D01*
X48260342Y-120789386D01*
X48208000Y-120778000D01*
X47004000Y-120778000D01*
X46935879Y-120798002D01*
X46889386Y-120851658D01*
X46878000Y-120904000D01*
X46878000Y-121557999D01*
X46622000Y-121557999D01*
X46622000Y-120904000D01*
X46601998Y-120835879D01*
X46548342Y-120789386D01*
X46496000Y-120778000D01*
X45292001Y-120778000D01*
X45223880Y-120798002D01*
X45177387Y-120851658D01*
X45166001Y-120904000D01*
X45166001Y-121098088D01*
X44304000Y-121098088D01*
X44304000Y-98571430D01*
X45436922Y-98571430D01*
X45446702Y-98782725D01*
X45450074Y-98806420D01*
X45499632Y-99012055D01*
X45507424Y-99034685D01*
X45594973Y-99227238D01*
X45606904Y-99247987D01*
X45729284Y-99420511D01*
X45744923Y-99438629D01*
X45897719Y-99584899D01*
X45916502Y-99599733D01*
X45949258Y-99620884D01*
X45829593Y-99714882D01*
X45812261Y-99731387D01*
X45673692Y-99891073D01*
X45659793Y-99910559D01*
X45553920Y-100093568D01*
X45543956Y-100115330D01*
X45474599Y-100315057D01*
X45468930Y-100338315D01*
X45467537Y-100347925D01*
X45477560Y-100418210D01*
X45523991Y-100471919D01*
X45592234Y-100492000D01*
X48303517Y-100492000D01*
X48371638Y-100471998D01*
X48418131Y-100418342D01*
X48428235Y-100348068D01*
X48426010Y-100336479D01*
X48399893Y-100228109D01*
X48392101Y-100205479D01*
X48304592Y-100013012D01*
X48292661Y-99992263D01*
X48170336Y-99819817D01*
X48154697Y-99801699D01*
X48001970Y-99655495D01*
X47983187Y-99640661D01*
X47950770Y-99619730D01*
X48070753Y-99525482D01*
X48088085Y-99508976D01*
X48226717Y-99349217D01*
X48240616Y-99329732D01*
X48346537Y-99146641D01*
X48356501Y-99124879D01*
X48425889Y-98925062D01*
X48431557Y-98901809D01*
X48461909Y-98692476D01*
X48463078Y-98668570D01*
X48453298Y-98457275D01*
X48449926Y-98433580D01*
X48400368Y-98227945D01*
X48392576Y-98205315D01*
X48305027Y-98012762D01*
X48293096Y-97992013D01*
X48170716Y-97819489D01*
X48155077Y-97801371D01*
X48059813Y-97710176D01*
X48115651Y-97675622D01*
X48138521Y-97657496D01*
X48263478Y-97532321D01*
X48281565Y-97509419D01*
X48374375Y-97358854D01*
X48386708Y-97332405D01*
X48390497Y-97320982D01*
X51139628Y-97320982D01*
X51158996Y-97542358D01*
X51162810Y-97563987D01*
X51220325Y-97778636D01*
X51227837Y-97799275D01*
X51321752Y-98000675D01*
X51332733Y-98019694D01*
X51376971Y-98082874D01*
X51432428Y-98127204D01*
X51503047Y-98134514D01*
X51569280Y-98099700D01*
X52269885Y-97399095D01*
X52303911Y-97336783D01*
X52300080Y-97283217D01*
X52776089Y-97283217D01*
X52781154Y-97354032D01*
X52810115Y-97399095D01*
X53510720Y-98099700D01*
X53573032Y-98133726D01*
X53643847Y-98128661D01*
X53703029Y-98082874D01*
X53747267Y-98019694D01*
X53758248Y-98000675D01*
X53852163Y-97799275D01*
X53859675Y-97778636D01*
X53917190Y-97563987D01*
X53921004Y-97542358D01*
X53940372Y-97320982D01*
X53940372Y-97299018D01*
X53921004Y-97077642D01*
X53917190Y-97056013D01*
X53859675Y-96841364D01*
X53852163Y-96820725D01*
X53758248Y-96619325D01*
X53747267Y-96600306D01*
X53703029Y-96537126D01*
X53647572Y-96492796D01*
X53576953Y-96485486D01*
X53510720Y-96520300D01*
X52810115Y-97220905D01*
X52776089Y-97283217D01*
X52300080Y-97283217D01*
X52298846Y-97265968D01*
X52269885Y-97220905D01*
X51569280Y-96520300D01*
X51506968Y-96486274D01*
X51436153Y-96491339D01*
X51376971Y-96537126D01*
X51332733Y-96600306D01*
X51321752Y-96619325D01*
X51227837Y-96820725D01*
X51220325Y-96841364D01*
X51162810Y-97056013D01*
X51158996Y-97077642D01*
X51139628Y-97299018D01*
X51139628Y-97320982D01*
X48390497Y-97320982D01*
X48442390Y-97164528D01*
X48448141Y-97137704D01*
X48458844Y-97033243D01*
X48459500Y-97020400D01*
X48459500Y-96273047D01*
X51715486Y-96273047D01*
X51750300Y-96339280D01*
X52450905Y-97039885D01*
X52513217Y-97073911D01*
X52584032Y-97068846D01*
X52629095Y-97039885D01*
X53329700Y-96339280D01*
X53363726Y-96276968D01*
X53358661Y-96206153D01*
X53332271Y-96172043D01*
X54114745Y-96172043D01*
X54115821Y-96189149D01*
X54153346Y-96474180D01*
X54156734Y-96490982D01*
X54232595Y-96768284D01*
X54238232Y-96784471D01*
X54351026Y-97048911D01*
X54358807Y-97064182D01*
X54506445Y-97310867D01*
X54516227Y-97324942D01*
X54695979Y-97549309D01*
X54707580Y-97561925D01*
X54916118Y-97759820D01*
X54929325Y-97770745D01*
X55162791Y-97938508D01*
X55177358Y-97947540D01*
X55431433Y-98082066D01*
X55447091Y-98089038D01*
X55717072Y-98187837D01*
X55733531Y-98192619D01*
X56014422Y-98253863D01*
X56031378Y-98256367D01*
X56256853Y-98274112D01*
X56266739Y-98274500D01*
X56422271Y-98274500D01*
X56430841Y-98274208D01*
X56645395Y-98259581D01*
X56662376Y-98257255D01*
X56943893Y-98198956D01*
X56960402Y-98194347D01*
X57231403Y-98098380D01*
X57247133Y-98091573D01*
X57502602Y-97959716D01*
X57517263Y-97950837D01*
X57752474Y-97785528D01*
X57765794Y-97774741D01*
X57976393Y-97579040D01*
X57988126Y-97566546D01*
X58170217Y-97344074D01*
X58180146Y-97330103D01*
X58330360Y-97084977D01*
X58338300Y-97069787D01*
X58453856Y-96806543D01*
X58459662Y-96790417D01*
X58538423Y-96513925D01*
X58541987Y-96497159D01*
X58582494Y-96212537D01*
X58583749Y-96195444D01*
X58585255Y-95907957D01*
X58584179Y-95890851D01*
X58546654Y-95605820D01*
X58543266Y-95589018D01*
X58467405Y-95311716D01*
X58461768Y-95295529D01*
X58348974Y-95031089D01*
X58341193Y-95015818D01*
X58193555Y-94769133D01*
X58183773Y-94755058D01*
X58004021Y-94530691D01*
X57992420Y-94518075D01*
X57783882Y-94320180D01*
X57770675Y-94309255D01*
X57537209Y-94141492D01*
X57522642Y-94132460D01*
X57268567Y-93997934D01*
X57252909Y-93990962D01*
X56982928Y-93892163D01*
X56966469Y-93887381D01*
X56685578Y-93826137D01*
X56668622Y-93823633D01*
X56443147Y-93805888D01*
X56433261Y-93805500D01*
X56277729Y-93805500D01*
X56269159Y-93805792D01*
X56054605Y-93820419D01*
X56037624Y-93822745D01*
X55756107Y-93881044D01*
X55739598Y-93885653D01*
X55468597Y-93981620D01*
X55452867Y-93988427D01*
X55197398Y-94120284D01*
X55182737Y-94129163D01*
X54947526Y-94294472D01*
X54934206Y-94305259D01*
X54723607Y-94500960D01*
X54711874Y-94513454D01*
X54529783Y-94735926D01*
X54519854Y-94749897D01*
X54369640Y-94995023D01*
X54361700Y-95010213D01*
X54246144Y-95273457D01*
X54240338Y-95289583D01*
X54161577Y-95566075D01*
X54158013Y-95582841D01*
X54117506Y-95867463D01*
X54116251Y-95884556D01*
X54114745Y-96172043D01*
X53332271Y-96172043D01*
X53312875Y-96146972D01*
X53249696Y-96102734D01*
X53230676Y-96091752D01*
X53029275Y-95997837D01*
X53008636Y-95990325D01*
X52793987Y-95932810D01*
X52772358Y-95928996D01*
X52550982Y-95909628D01*
X52529018Y-95909628D01*
X52307642Y-95928996D01*
X52286013Y-95932810D01*
X52071364Y-95990325D01*
X52050725Y-95997837D01*
X51849325Y-96091752D01*
X51830306Y-96102733D01*
X51767126Y-96146971D01*
X51722796Y-96202428D01*
X51715486Y-96273047D01*
X48459500Y-96273047D01*
X48459500Y-96219600D01*
X48458827Y-96206596D01*
X48447853Y-96100830D01*
X48442050Y-96073958D01*
X48386074Y-95906178D01*
X48373694Y-95879751D01*
X48280622Y-95729349D01*
X48262496Y-95706479D01*
X48137321Y-95581522D01*
X48114419Y-95563435D01*
X47963854Y-95470625D01*
X47937405Y-95458292D01*
X47769528Y-95402610D01*
X47742704Y-95396859D01*
X47638243Y-95386156D01*
X47625400Y-95385500D01*
X46274600Y-95385500D01*
X46261596Y-95386173D01*
X46155830Y-95397147D01*
X46128958Y-95402950D01*
X45961178Y-95458926D01*
X45934751Y-95471306D01*
X45784349Y-95564378D01*
X45761479Y-95582504D01*
X45636522Y-95707679D01*
X45618435Y-95730581D01*
X45525625Y-95881146D01*
X45513292Y-95907595D01*
X45457610Y-96075472D01*
X45451859Y-96102296D01*
X45441156Y-96206757D01*
X45440500Y-96219600D01*
X45440500Y-97020400D01*
X45441173Y-97033404D01*
X45452147Y-97139170D01*
X45457950Y-97166042D01*
X45513926Y-97333822D01*
X45526306Y-97360249D01*
X45619378Y-97510651D01*
X45637504Y-97533521D01*
X45762679Y-97658478D01*
X45785581Y-97676565D01*
X45837120Y-97708334D01*
X45829247Y-97714518D01*
X45811915Y-97731024D01*
X45673283Y-97890783D01*
X45659384Y-97910268D01*
X45553463Y-98093359D01*
X45543499Y-98115121D01*
X45474111Y-98314938D01*
X45468443Y-98338191D01*
X45438091Y-98547524D01*
X45436922Y-98571430D01*
X44304000Y-98571430D01*
X44304000Y-86634000D01*
X55370842Y-86634000D01*
X55352487Y-86644985D02*
X55370842Y-86634000D01*
%TA.AperFunction,Conductor*%
G36*
X55352487Y-86644985D02*
G01*
X55341189Y-86652606D01*
X55055363Y-86868775D01*
X55044954Y-86877571D01*
X54784146Y-87123344D01*
X54774748Y-87133212D01*
X54542008Y-87405715D01*
X54533731Y-87416542D01*
X54331783Y-87712587D01*
X54324723Y-87724243D01*
X54155929Y-88040366D01*
X54150170Y-88052717D01*
X54016504Y-88385221D01*
X54012112Y-88398122D01*
X53915138Y-88743117D01*
X53912165Y-88756417D01*
X53853018Y-89109867D01*
X53851499Y-89123410D01*
X53830870Y-89481181D01*
X53830822Y-89494809D01*
X53848953Y-89852715D01*
X53850378Y-89866268D01*
X53907056Y-90220123D01*
X53909936Y-90233443D01*
X54004499Y-90579107D01*
X54008800Y-90592038D01*
X54140141Y-90925467D01*
X54145814Y-90937858D01*
X54312397Y-91255152D01*
X54319376Y-91266858D01*
X54519253Y-91564305D01*
X54527454Y-91575189D01*
X54758285Y-91849310D01*
X54767614Y-91859244D01*
X55026700Y-92106832D01*
X55037047Y-92115700D01*
X55321357Y-92333859D01*
X55332602Y-92341559D01*
X55638811Y-92527737D01*
X55650821Y-92534177D01*
X55975345Y-92686195D01*
X55987980Y-92691300D01*
X56327024Y-92807381D01*
X56340137Y-92811091D01*
X56689734Y-92889876D01*
X56703171Y-92892149D01*
X57059233Y-92932717D01*
X57072837Y-92933525D01*
X57431197Y-92935401D01*
X57444809Y-92934736D01*
X57801276Y-92897899D01*
X57814736Y-92895767D01*
X58165139Y-92820647D01*
X58178290Y-92817074D01*
X58518531Y-92704550D01*
X58531219Y-92699577D01*
X58857317Y-92550966D01*
X58869394Y-92544652D01*
X59177535Y-92361691D01*
X59188860Y-92354110D01*
X59475439Y-92138940D01*
X59485878Y-92130181D01*
X59747543Y-91885320D01*
X59756976Y-91875483D01*
X59990665Y-91603794D01*
X59998980Y-91592997D01*
X60201960Y-91297659D01*
X60209060Y-91286027D01*
X60378957Y-90970495D01*
X60384760Y-90958164D01*
X60519585Y-90626128D01*
X60524021Y-90613243D01*
X60622199Y-90268589D01*
X60625219Y-90255300D01*
X60636000Y-90192229D01*
X60636000Y-100814101D01*
X60609221Y-100787134D01*
X60606644Y-100785062D01*
X59017329Y-99195747D01*
X58954252Y-99131335D01*
X58932484Y-99113582D01*
X58896050Y-99090102D01*
X58862165Y-99063052D01*
X58838395Y-99048083D01*
X58808201Y-99033487D01*
X58780018Y-99015324D01*
X58754858Y-99002834D01*
X58714122Y-98988007D01*
X58675089Y-98969138D01*
X58648595Y-98959808D01*
X58615917Y-98952264D01*
X58584410Y-98940796D01*
X58557106Y-98934190D01*
X58514091Y-98928756D01*
X58471860Y-98919006D01*
X58443955Y-98915777D01*
X58403385Y-98915635D01*
X58401231Y-98915500D01*
X58364581Y-98915500D01*
X58262570Y-98915144D01*
X58259293Y-98915500D01*
X53580448Y-98915500D01*
X53448876Y-98783928D01*
X53432052Y-98769810D01*
X53249948Y-98642299D01*
X53230927Y-98631317D01*
X53120285Y-98579724D01*
X53230676Y-98528248D01*
X53249696Y-98517266D01*
X53312875Y-98473028D01*
X53357204Y-98417571D01*
X53364513Y-98346952D01*
X53329700Y-98280720D01*
X52629095Y-97580115D01*
X52566783Y-97546089D01*
X52495968Y-97551154D01*
X52450905Y-97580115D01*
X51750300Y-98280720D01*
X51716274Y-98343032D01*
X51721339Y-98413847D01*
X51767125Y-98473028D01*
X51830304Y-98517266D01*
X51849324Y-98528248D01*
X51959715Y-98579724D01*
X51849074Y-98631317D01*
X51830053Y-98642299D01*
X51647948Y-98769810D01*
X51631124Y-98783928D01*
X51473928Y-98941124D01*
X51459810Y-98957948D01*
X51332299Y-99140053D01*
X51321317Y-99159074D01*
X51227365Y-99360554D01*
X51219853Y-99381193D01*
X51162315Y-99595926D01*
X51158501Y-99617556D01*
X51154344Y-99665074D01*
X50045747Y-100773671D01*
X49981335Y-100836748D01*
X49963582Y-100858516D01*
X49940102Y-100894950D01*
X49913052Y-100928835D01*
X49898083Y-100952605D01*
X49883487Y-100982799D01*
X49865324Y-101010982D01*
X49852834Y-101036142D01*
X49838007Y-101076878D01*
X49819138Y-101115911D01*
X49809808Y-101142405D01*
X49802264Y-101175083D01*
X49790796Y-101206590D01*
X49784190Y-101233894D01*
X49778756Y-101276909D01*
X49769006Y-101319140D01*
X49765777Y-101347045D01*
X49765635Y-101387615D01*
X49765500Y-101389769D01*
X49765500Y-101426419D01*
X49765144Y-101528430D01*
X49765500Y-101531707D01*
X49765500Y-103216406D01*
X48687747Y-102138652D01*
X48673253Y-102121132D01*
X48623602Y-102074507D01*
X48603865Y-102054770D01*
X48591995Y-102044305D01*
X48588804Y-102041830D01*
X48556574Y-102011564D01*
X48531024Y-101993000D01*
X48513270Y-101983239D01*
X48497265Y-101970825D01*
X48470082Y-101954749D01*
X48429503Y-101937189D01*
X48390760Y-101915890D01*
X48361395Y-101904264D01*
X48341774Y-101899226D01*
X48323185Y-101891182D01*
X48292857Y-101882370D01*
X48249189Y-101875453D01*
X48206364Y-101864458D01*
X48202245Y-101863938D01*
X48170715Y-101819489D01*
X48155077Y-101801371D01*
X48002281Y-101655101D01*
X47983498Y-101640267D01*
X47950742Y-101619116D01*
X48070407Y-101525118D01*
X48087739Y-101508613D01*
X48226308Y-101348927D01*
X48240207Y-101329441D01*
X48346080Y-101146432D01*
X48356044Y-101124670D01*
X48425401Y-100924943D01*
X48431070Y-100901685D01*
X48432463Y-100892075D01*
X48422440Y-100821790D01*
X48376009Y-100768081D01*
X48307766Y-100748000D01*
X45596483Y-100748000D01*
X45528362Y-100768002D01*
X45481869Y-100821658D01*
X45471765Y-100891932D01*
X45473990Y-100903521D01*
X45500107Y-101011891D01*
X45507899Y-101034521D01*
X45595408Y-101226988D01*
X45607339Y-101247737D01*
X45729664Y-101420183D01*
X45745303Y-101438301D01*
X45898030Y-101584505D01*
X45916813Y-101599339D01*
X45949230Y-101620270D01*
X45829247Y-101714518D01*
X45811915Y-101731024D01*
X45673283Y-101890783D01*
X45659384Y-101910268D01*
X45553463Y-102093359D01*
X45543499Y-102115121D01*
X45474111Y-102314938D01*
X45468443Y-102338191D01*
X45438091Y-102547524D01*
X45436922Y-102571430D01*
X45446702Y-102782725D01*
X45450074Y-102806420D01*
X45499632Y-103012055D01*
X45507424Y-103034685D01*
X45594973Y-103227238D01*
X45606904Y-103247987D01*
X45729284Y-103420511D01*
X45744923Y-103438629D01*
X45897719Y-103584899D01*
X45916502Y-103599733D01*
X45949258Y-103620884D01*
X45829593Y-103714882D01*
X45812261Y-103731387D01*
X45673692Y-103891073D01*
X45659793Y-103910559D01*
X45553920Y-104093568D01*
X45543956Y-104115330D01*
X45474599Y-104315057D01*
X45468930Y-104338315D01*
X45467537Y-104347925D01*
X45477560Y-104418210D01*
X45523991Y-104471919D01*
X45592234Y-104492000D01*
X48303517Y-104492000D01*
X48371638Y-104471998D01*
X48418131Y-104418342D01*
X48428235Y-104348068D01*
X48426010Y-104336479D01*
X48399893Y-104228109D01*
X48392101Y-104205479D01*
X48304592Y-104013012D01*
X48292661Y-103992263D01*
X48170336Y-103819817D01*
X48154697Y-103801699D01*
X48001970Y-103655495D01*
X47983187Y-103640661D01*
X47950770Y-103619730D01*
X47989899Y-103588994D01*
X48590500Y-104189596D01*
X48590500Y-107186405D01*
X48400955Y-106996860D01*
X48425888Y-106925063D01*
X48431557Y-106901809D01*
X48461909Y-106692476D01*
X48463078Y-106668570D01*
X48453298Y-106457275D01*
X48449926Y-106433580D01*
X48400368Y-106227945D01*
X48392576Y-106205315D01*
X48305027Y-106012762D01*
X48293096Y-105992013D01*
X48170716Y-105819489D01*
X48155077Y-105801371D01*
X48002281Y-105655101D01*
X47983498Y-105640267D01*
X47950742Y-105619116D01*
X48070407Y-105525118D01*
X48087739Y-105508613D01*
X48226308Y-105348927D01*
X48240207Y-105329441D01*
X48346080Y-105146432D01*
X48356044Y-105124670D01*
X48425401Y-104924943D01*
X48431070Y-104901685D01*
X48432463Y-104892075D01*
X48422440Y-104821790D01*
X48376009Y-104768081D01*
X48307766Y-104748000D01*
X45596483Y-104748000D01*
X45528362Y-104768002D01*
X45481869Y-104821658D01*
X45471765Y-104891932D01*
X45473990Y-104903521D01*
X45500107Y-105011891D01*
X45507899Y-105034521D01*
X45595408Y-105226988D01*
X45607339Y-105247737D01*
X45729664Y-105420183D01*
X45745303Y-105438301D01*
X45898030Y-105584505D01*
X45916813Y-105599339D01*
X45949230Y-105620270D01*
X45829247Y-105714518D01*
X45811915Y-105731024D01*
X45673283Y-105890783D01*
X45659384Y-105910268D01*
X45553463Y-106093359D01*
X45543499Y-106115121D01*
X45474111Y-106314938D01*
X45468443Y-106338191D01*
X45438091Y-106547524D01*
X45436922Y-106571430D01*
X45446702Y-106782725D01*
X45450074Y-106806420D01*
X45499632Y-107012055D01*
X45507424Y-107034685D01*
X45594973Y-107227238D01*
X45606904Y-107247987D01*
X45729284Y-107420511D01*
X45744923Y-107438629D01*
X45897719Y-107584899D01*
X45916502Y-107599733D01*
X45949258Y-107620884D01*
X45829593Y-107714882D01*
X45812261Y-107731387D01*
X45673692Y-107891073D01*
X45659793Y-107910559D01*
X45553920Y-108093568D01*
X45543956Y-108115330D01*
X45474599Y-108315057D01*
X45468930Y-108338315D01*
X45467537Y-108347925D01*
X45477560Y-108418210D01*
X45523991Y-108471919D01*
X45592234Y-108492000D01*
X47078000Y-108492000D01*
X47078000Y-108748000D01*
X45596483Y-108748000D01*
X45528362Y-108768002D01*
X45481869Y-108821658D01*
X45471765Y-108891932D01*
X45473990Y-108903521D01*
X45500107Y-109011891D01*
X45507899Y-109034521D01*
X45595408Y-109226988D01*
X45607339Y-109247737D01*
X45729664Y-109420183D01*
X45745303Y-109438301D01*
X45898030Y-109584505D01*
X45916813Y-109599339D01*
X45949230Y-109620270D01*
X45829247Y-109714518D01*
X45811915Y-109731024D01*
X45673283Y-109890783D01*
X45659384Y-109910268D01*
X45553463Y-110093359D01*
X45543499Y-110115121D01*
X45474111Y-110314938D01*
X45468443Y-110338191D01*
X45438091Y-110547524D01*
X45436922Y-110571430D01*
X45446702Y-110782725D01*
X45450074Y-110806420D01*
X45499632Y-111012055D01*
X45507424Y-111034685D01*
X45594973Y-111227238D01*
X45606904Y-111247987D01*
X45729284Y-111420511D01*
X45744923Y-111438629D01*
X45897719Y-111584899D01*
X45916502Y-111599733D01*
X45949258Y-111620884D01*
X45829593Y-111714882D01*
X45812261Y-111731387D01*
X45673692Y-111891073D01*
X45659793Y-111910559D01*
X45553920Y-112093568D01*
X45543956Y-112115330D01*
X45474599Y-112315057D01*
X45468930Y-112338315D01*
X45467537Y-112347925D01*
X45477560Y-112418210D01*
X45523991Y-112471919D01*
X45592234Y-112492000D01*
X47078000Y-112492000D01*
X47078000Y-112748000D01*
X45596483Y-112748000D01*
X45528362Y-112768002D01*
X45481869Y-112821658D01*
X45471765Y-112891932D01*
X45473990Y-112903521D01*
X45500107Y-113011891D01*
X45507899Y-113034521D01*
X45595408Y-113226988D01*
X45607339Y-113247737D01*
X45729664Y-113420183D01*
X45745303Y-113438301D01*
X45898030Y-113584505D01*
X45916813Y-113599339D01*
X45949230Y-113620270D01*
X45829247Y-113714518D01*
X45811915Y-113731024D01*
X45673283Y-113890783D01*
X45659384Y-113910268D01*
X45553463Y-114093359D01*
X45543499Y-114115121D01*
X45474111Y-114314938D01*
X45468443Y-114338191D01*
X45438091Y-114547524D01*
X45436922Y-114571430D01*
X45446702Y-114782725D01*
X45450074Y-114806420D01*
X45499632Y-115012055D01*
X45507424Y-115034685D01*
X45594973Y-115227238D01*
X45606904Y-115247987D01*
X45729284Y-115420511D01*
X45744923Y-115438629D01*
X45897719Y-115584899D01*
X45916502Y-115599733D01*
X46094200Y-115714472D01*
X46115450Y-115725486D01*
X46311639Y-115804552D01*
X46334587Y-115811350D01*
X46542187Y-115851892D01*
X46560183Y-115854078D01*
X46565745Y-115854350D01*
X46571899Y-115854500D01*
X47277846Y-115854500D01*
X47289813Y-115853930D01*
X47447533Y-115838882D01*
X47471035Y-115834357D01*
X47674003Y-115774813D01*
X47696226Y-115765924D01*
X47884272Y-115669074D01*
X47904413Y-115656144D01*
X48070753Y-115525482D01*
X48088085Y-115508976D01*
X48200439Y-115379500D01*
X48243017Y-115379500D01*
X48265652Y-115381640D01*
X48333729Y-115379500D01*
X48361640Y-115379500D01*
X48377430Y-115378507D01*
X48381441Y-115378000D01*
X48425632Y-115376611D01*
X48456825Y-115371670D01*
X48476276Y-115366019D01*
X48496374Y-115363480D01*
X48526965Y-115355626D01*
X48568079Y-115339348D01*
X48610529Y-115327015D01*
X48639517Y-115314471D01*
X48656953Y-115304159D01*
X48675783Y-115296704D01*
X48703461Y-115281489D01*
X48739231Y-115255501D01*
X48777286Y-115232995D01*
X48802241Y-115213637D01*
X48816562Y-115199316D01*
X48832952Y-115187408D01*
X48855976Y-115165788D01*
X48884167Y-115131711D01*
X49894952Y-114120927D01*
X50287501Y-114120927D01*
X50287501Y-114151312D01*
X50288579Y-114167756D01*
X50304240Y-114286722D01*
X50312753Y-114318495D01*
X50320181Y-114336427D01*
X50312753Y-114354359D01*
X50304240Y-114386131D01*
X50288578Y-114505096D01*
X50287500Y-114521542D01*
X50287501Y-114801311D01*
X50288579Y-114817756D01*
X50304240Y-114936722D01*
X50312753Y-114968495D01*
X50320181Y-114986427D01*
X50312753Y-115004359D01*
X50304240Y-115036131D01*
X50288578Y-115155096D01*
X50287500Y-115171542D01*
X50287501Y-115451311D01*
X50288579Y-115467756D01*
X50304240Y-115586722D01*
X50312753Y-115618495D01*
X50320181Y-115636427D01*
X50312753Y-115654359D01*
X50304240Y-115686131D01*
X50288578Y-115805096D01*
X50287500Y-115821542D01*
X50287501Y-116101311D01*
X50288579Y-116117756D01*
X50304240Y-116236722D01*
X50312753Y-116268495D01*
X50320452Y-116287081D01*
X50313241Y-116304489D01*
X50304728Y-116336260D01*
X50296997Y-116394980D01*
X50307936Y-116465129D01*
X50355064Y-116518228D01*
X50421919Y-116537427D01*
X50461431Y-116537427D01*
X50488051Y-116572118D01*
X50511309Y-116595376D01*
X50628665Y-116685427D01*
X50421920Y-116685427D01*
X50353799Y-116705429D01*
X50307306Y-116759085D01*
X50296998Y-116827872D01*
X50304728Y-116886592D01*
X50313241Y-116918365D01*
X50374504Y-117066268D01*
X50390951Y-117094754D01*
X50488408Y-117221761D01*
X50511666Y-117245019D01*
X50638673Y-117342476D01*
X50667159Y-117358923D01*
X50815062Y-117420186D01*
X50846834Y-117428699D01*
X50965707Y-117444349D01*
X50982153Y-117445427D01*
X51459500Y-117445427D01*
X51527621Y-117425425D01*
X51574114Y-117371769D01*
X51585500Y-117319427D01*
X51585500Y-116811427D01*
X51580949Y-116795926D01*
X51733500Y-116795926D01*
X51733500Y-117319426D01*
X51753502Y-117387547D01*
X51807158Y-117434040D01*
X51859500Y-117445426D01*
X52336846Y-117445426D01*
X52353291Y-117444348D01*
X52472165Y-117428699D01*
X52503938Y-117420186D01*
X52651841Y-117358923D01*
X52680327Y-117342476D01*
X52807334Y-117245019D01*
X52830592Y-117221761D01*
X52928049Y-117094754D01*
X52944496Y-117066268D01*
X53005759Y-116918365D01*
X53014272Y-116886593D01*
X53029922Y-116767720D01*
X53031000Y-116751273D01*
X53031000Y-116721985D01*
X53042441Y-116723067D01*
X53110518Y-116720927D01*
X53138429Y-116720927D01*
X53154219Y-116719934D01*
X53158230Y-116719427D01*
X53202421Y-116718038D01*
X53233614Y-116713097D01*
X53253065Y-116707446D01*
X53273163Y-116704907D01*
X53303754Y-116697053D01*
X53344868Y-116680775D01*
X53387318Y-116668442D01*
X53416306Y-116655898D01*
X53433742Y-116645586D01*
X53452572Y-116638131D01*
X53480250Y-116622916D01*
X53516020Y-116596928D01*
X53554075Y-116574422D01*
X53579030Y-116555064D01*
X53593351Y-116540743D01*
X53609741Y-116528835D01*
X53632765Y-116507214D01*
X53660950Y-116473144D01*
X53953354Y-116180740D01*
X54094258Y-116134957D01*
X54119840Y-116123353D01*
X54266008Y-116036219D01*
X54288382Y-116019236D01*
X54411613Y-115901885D01*
X54429669Y-115880366D01*
X54523839Y-115738629D01*
X54536679Y-115713646D01*
X54597107Y-115554569D01*
X54604093Y-115527360D01*
X54627775Y-115358848D01*
X54628989Y-115343075D01*
X54629287Y-115321762D01*
X54628514Y-115305955D01*
X54609546Y-115136847D01*
X54603322Y-115109455D01*
X54547359Y-114948752D01*
X54535222Y-114923419D01*
X54497554Y-114863139D01*
X54513839Y-114838629D01*
X54526679Y-114813646D01*
X54587107Y-114654569D01*
X54594093Y-114627360D01*
X54617775Y-114458848D01*
X54618989Y-114443075D01*
X54619287Y-114421762D01*
X54618514Y-114405955D01*
X54599546Y-114236847D01*
X54593322Y-114209455D01*
X54537359Y-114048752D01*
X54525222Y-114023418D01*
X54507491Y-113995043D01*
X54525829Y-113967443D01*
X54538669Y-113942459D01*
X54599097Y-113783382D01*
X54606083Y-113756173D01*
X54629765Y-113587661D01*
X54630979Y-113571888D01*
X54631277Y-113550575D01*
X54630504Y-113534768D01*
X54611536Y-113365660D01*
X54605312Y-113338268D01*
X54549349Y-113177565D01*
X54537212Y-113152232D01*
X54477564Y-113056776D01*
X54543828Y-112957040D01*
X54556668Y-112932057D01*
X54617096Y-112772980D01*
X54624082Y-112745771D01*
X54647764Y-112577259D01*
X54648978Y-112561486D01*
X54649276Y-112540173D01*
X54648503Y-112524366D01*
X54629535Y-112355258D01*
X54623311Y-112327866D01*
X54567348Y-112167163D01*
X54555211Y-112141830D01*
X54465035Y-111997520D01*
X54447587Y-111975506D01*
X54327681Y-111854759D01*
X54305789Y-111837158D01*
X54162111Y-111745977D01*
X54136864Y-111733663D01*
X53976556Y-111676580D01*
X53949207Y-111670165D01*
X53780236Y-111650017D01*
X53752148Y-111649821D01*
X53582912Y-111667608D01*
X53555477Y-111673640D01*
X53394387Y-111728479D01*
X53368970Y-111740439D01*
X53224033Y-111829605D01*
X53201897Y-111846900D01*
X53080317Y-111965961D01*
X53062564Y-111987728D01*
X53031499Y-112035930D01*
X53031499Y-111921543D01*
X53030421Y-111905098D01*
X53014760Y-111786132D01*
X53006247Y-111754359D01*
X52998819Y-111736427D01*
X53006247Y-111718495D01*
X53014760Y-111686723D01*
X53030422Y-111567758D01*
X53031500Y-111551312D01*
X53031499Y-111271543D01*
X53030421Y-111255098D01*
X53014760Y-111136132D01*
X53006247Y-111104359D01*
X52998819Y-111086427D01*
X53006247Y-111068495D01*
X53014760Y-111036723D01*
X53030422Y-110917758D01*
X53031500Y-110901312D01*
X53031499Y-110621543D01*
X53030421Y-110605098D01*
X53014760Y-110486132D01*
X53006247Y-110454359D01*
X52998548Y-110435773D01*
X53005759Y-110418365D01*
X53014272Y-110386594D01*
X53022003Y-110327874D01*
X53011064Y-110257725D01*
X52963936Y-110204626D01*
X52897081Y-110185427D01*
X52857569Y-110185427D01*
X52830949Y-110150736D01*
X52807691Y-110127478D01*
X52690335Y-110037427D01*
X52897080Y-110037427D01*
X52965201Y-110017425D01*
X53011694Y-109963769D01*
X53022002Y-109894982D01*
X53014272Y-109836262D01*
X53005759Y-109804489D01*
X52998277Y-109786427D01*
X53005759Y-109768365D01*
X53014272Y-109736594D01*
X53022003Y-109677874D01*
X53011064Y-109607725D01*
X52963936Y-109554626D01*
X52897081Y-109535427D01*
X51859500Y-109535427D01*
X51791379Y-109555429D01*
X51744886Y-109609085D01*
X51733500Y-109661427D01*
X51733500Y-109911427D01*
X51738051Y-109926928D01*
X51585500Y-109926928D01*
X51585500Y-109261427D01*
X51733500Y-109261427D01*
X51753502Y-109329548D01*
X51807158Y-109376041D01*
X51859500Y-109387427D01*
X52897080Y-109387427D01*
X52965201Y-109367425D01*
X53011694Y-109313769D01*
X53022002Y-109244982D01*
X53014272Y-109186262D01*
X53005759Y-109154489D01*
X52944496Y-109006586D01*
X52928049Y-108978100D01*
X52830592Y-108851093D01*
X52807334Y-108827835D01*
X52680327Y-108730378D01*
X52651841Y-108713931D01*
X52503938Y-108652668D01*
X52472166Y-108644155D01*
X52353293Y-108628505D01*
X52336847Y-108627427D01*
X51859500Y-108627427D01*
X51791379Y-108647429D01*
X51744886Y-108701085D01*
X51733500Y-108753427D01*
X51733500Y-109261427D01*
X51585500Y-109261427D01*
X51585500Y-108753428D01*
X51565498Y-108685307D01*
X51511842Y-108638814D01*
X51459500Y-108627428D01*
X50982154Y-108627428D01*
X50965709Y-108628506D01*
X50846835Y-108644155D01*
X50815062Y-108652668D01*
X50667159Y-108713931D01*
X50638673Y-108730378D01*
X50511666Y-108827835D01*
X50488408Y-108851093D01*
X50390951Y-108978100D01*
X50374504Y-109006586D01*
X50313241Y-109154489D01*
X50304728Y-109186261D01*
X50289078Y-109305134D01*
X50288000Y-109321580D01*
X50288000Y-109365489D01*
X50141067Y-109313169D01*
X50113718Y-109306754D01*
X50109500Y-109306251D01*
X50109500Y-106295082D01*
X50335130Y-106520712D01*
X50329859Y-106545296D01*
X50319156Y-106649757D01*
X50318500Y-106662600D01*
X50318500Y-107713400D01*
X50319173Y-107726404D01*
X50330147Y-107832170D01*
X50335950Y-107859042D01*
X50391926Y-108026822D01*
X50404306Y-108053249D01*
X50497378Y-108203651D01*
X50515504Y-108226521D01*
X50640679Y-108351478D01*
X50663581Y-108369565D01*
X50814146Y-108462375D01*
X50840595Y-108474708D01*
X51008472Y-108530390D01*
X51035296Y-108536141D01*
X51139757Y-108546844D01*
X51152600Y-108547500D01*
X51928400Y-108547500D01*
X51941404Y-108546827D01*
X52047170Y-108535853D01*
X52074042Y-108530050D01*
X52241822Y-108474074D01*
X52268249Y-108461694D01*
X52418651Y-108368622D01*
X52441521Y-108350496D01*
X52566478Y-108225321D01*
X52578316Y-108210332D01*
X52590899Y-108226208D01*
X52715991Y-108351083D01*
X52738893Y-108369170D01*
X52889359Y-108461918D01*
X52915807Y-108474251D01*
X53083573Y-108529897D01*
X53110399Y-108535648D01*
X53214795Y-108546344D01*
X53227637Y-108547000D01*
X53361500Y-108547000D01*
X53429621Y-108526998D01*
X53476114Y-108473342D01*
X53487500Y-108421000D01*
X53487500Y-105955001D01*
X53467498Y-105886880D01*
X53413842Y-105840387D01*
X53361500Y-105829001D01*
X53227638Y-105829001D01*
X53214635Y-105829674D01*
X53108934Y-105840641D01*
X53082061Y-105846444D01*
X52914392Y-105902382D01*
X52887965Y-105914762D01*
X52737662Y-106007773D01*
X52714792Y-106025899D01*
X52589917Y-106150991D01*
X52578326Y-106165667D01*
X52565496Y-106149479D01*
X52440321Y-106024522D01*
X52417418Y-106006435D01*
X52378935Y-105982714D01*
X52363328Y-105957737D01*
X52349157Y-105927348D01*
X52334522Y-105903372D01*
X52307952Y-105869118D01*
X52284980Y-105832355D01*
X52267531Y-105810339D01*
X52238922Y-105781530D01*
X52237516Y-105779935D01*
X52211977Y-105754396D01*
X52139721Y-105681634D01*
X52137144Y-105679562D01*
X51634500Y-105176917D01*
X51634500Y-103458905D01*
X51647948Y-103470190D01*
X51799535Y-103576333D01*
X51804374Y-103595181D01*
X51820652Y-103636295D01*
X51832985Y-103678745D01*
X51845529Y-103707733D01*
X51855841Y-103725169D01*
X51863296Y-103743999D01*
X51878511Y-103771677D01*
X51904499Y-103807447D01*
X51927005Y-103845502D01*
X51946363Y-103870457D01*
X51960684Y-103884778D01*
X51972592Y-103901168D01*
X51994212Y-103924192D01*
X52028289Y-103952383D01*
X53904906Y-105829000D01*
X53869500Y-105829000D01*
X53801379Y-105849002D01*
X53754886Y-105902658D01*
X53743500Y-105955000D01*
X53743500Y-108420999D01*
X53763502Y-108489120D01*
X53817158Y-108535613D01*
X53869500Y-108546999D01*
X54003362Y-108546999D01*
X54016365Y-108546326D01*
X54122066Y-108535359D01*
X54148939Y-108529556D01*
X54316608Y-108473618D01*
X54343035Y-108461238D01*
X54493338Y-108368227D01*
X54516208Y-108350101D01*
X54641083Y-108225009D01*
X54659170Y-108202107D01*
X54751918Y-108051641D01*
X54764251Y-108025193D01*
X54819897Y-107857427D01*
X54825648Y-107830601D01*
X54830500Y-107783244D01*
X54830500Y-112121233D01*
X54828360Y-112143868D01*
X54830500Y-112211945D01*
X54830500Y-112239856D01*
X54831493Y-112255646D01*
X54832000Y-112259657D01*
X54833389Y-112303848D01*
X54838330Y-112335041D01*
X54843981Y-112354492D01*
X54846520Y-112374590D01*
X54854374Y-112405181D01*
X54870652Y-112446295D01*
X54882985Y-112488745D01*
X54895529Y-112517733D01*
X54905841Y-112535169D01*
X54913296Y-112553999D01*
X54928511Y-112581677D01*
X54954499Y-112617447D01*
X54977005Y-112655502D01*
X54996363Y-112680457D01*
X55010684Y-112694778D01*
X55022592Y-112711168D01*
X55044212Y-112734192D01*
X55078289Y-112762383D01*
X55521759Y-113205853D01*
X55536258Y-113223379D01*
X55585925Y-113270019D01*
X55605647Y-113289741D01*
X55617511Y-113300202D01*
X55620704Y-113302679D01*
X55652938Y-113332948D01*
X55678491Y-113351513D01*
X55696243Y-113361272D01*
X55712243Y-113373683D01*
X55739431Y-113389762D01*
X55779997Y-113407316D01*
X55818750Y-113428621D01*
X55848116Y-113440247D01*
X55867737Y-113445285D01*
X55886326Y-113453329D01*
X55916654Y-113462141D01*
X55960322Y-113469058D01*
X56003147Y-113480053D01*
X56034481Y-113484011D01*
X56054735Y-113484011D01*
X56074743Y-113487180D01*
X56106312Y-113488172D01*
X56150330Y-113484011D01*
X56866722Y-113484011D01*
X56889357Y-113486151D01*
X56957434Y-113484011D01*
X56985345Y-113484011D01*
X57001135Y-113483018D01*
X57005146Y-113482511D01*
X57049337Y-113481122D01*
X57080530Y-113476181D01*
X57099981Y-113470530D01*
X57120079Y-113467991D01*
X57150670Y-113460137D01*
X57191784Y-113443859D01*
X57234234Y-113431526D01*
X57263222Y-113418982D01*
X57280658Y-113408670D01*
X57299488Y-113401215D01*
X57327166Y-113386000D01*
X57362936Y-113360012D01*
X57400991Y-113337506D01*
X57425946Y-113318148D01*
X57440267Y-113303827D01*
X57456657Y-113291919D01*
X57479681Y-113270299D01*
X57507872Y-113236222D01*
X57735185Y-113008909D01*
X57737753Y-113018495D01*
X57745452Y-113037081D01*
X57738241Y-113054489D01*
X57729728Y-113086260D01*
X57721997Y-113144980D01*
X57732936Y-113215129D01*
X57780064Y-113268228D01*
X57846919Y-113287427D01*
X57886431Y-113287427D01*
X57913051Y-113322118D01*
X57936309Y-113345376D01*
X57957226Y-113361427D01*
X57936308Y-113377478D01*
X57913051Y-113400736D01*
X57886431Y-113435427D01*
X57846920Y-113435427D01*
X57778799Y-113455429D01*
X57732306Y-113509085D01*
X57721998Y-113577872D01*
X57729728Y-113636592D01*
X57738241Y-113668365D01*
X57745452Y-113685773D01*
X57737753Y-113704359D01*
X57729240Y-113736131D01*
X57723326Y-113781051D01*
X57560247Y-113761606D01*
X57532159Y-113761410D01*
X57362923Y-113779197D01*
X57335488Y-113785229D01*
X57174398Y-113840068D01*
X57148981Y-113852028D01*
X57004044Y-113941194D01*
X56981908Y-113958489D01*
X56860328Y-114077550D01*
X56842575Y-114099317D01*
X56750393Y-114242354D01*
X56737903Y-114267515D01*
X56679702Y-114427421D01*
X56673097Y-114454724D01*
X56651769Y-114623551D01*
X56651376Y-114651639D01*
X56667982Y-114820995D01*
X56673823Y-114848471D01*
X56727536Y-115009939D01*
X56739318Y-115035438D01*
X56827470Y-115180994D01*
X56844609Y-115203250D01*
X56962818Y-115325659D01*
X56984462Y-115343564D01*
X57040276Y-115380087D01*
X56920328Y-115497550D01*
X56902575Y-115519317D01*
X56810393Y-115662354D01*
X56797903Y-115687515D01*
X56739702Y-115847421D01*
X56733097Y-115874724D01*
X56711769Y-116043551D01*
X56711376Y-116071639D01*
X56727982Y-116240995D01*
X56733823Y-116268471D01*
X56787536Y-116429939D01*
X56799318Y-116455438D01*
X56887470Y-116600994D01*
X56904609Y-116623250D01*
X57022818Y-116745659D01*
X57044462Y-116763564D01*
X57186853Y-116856742D01*
X57211926Y-116869407D01*
X57371421Y-116928723D01*
X57398677Y-116935519D01*
X57567351Y-116958025D01*
X57595435Y-116958613D01*
X57748597Y-116944674D01*
X57799067Y-117066521D01*
X57815514Y-117095008D01*
X57913051Y-117222119D01*
X57936309Y-117245376D01*
X58063421Y-117342913D01*
X58091907Y-117359360D01*
X58239932Y-117420674D01*
X58271704Y-117429187D01*
X58390669Y-117444849D01*
X58407115Y-117445927D01*
X59323912Y-117445926D01*
X58854339Y-117915500D01*
X50728927Y-117915500D01*
X50671218Y-117911566D01*
X50640985Y-117913150D01*
X50578028Y-117924138D01*
X50514621Y-117931811D01*
X50485220Y-117939032D01*
X50478811Y-117941454D01*
X50472054Y-117942633D01*
X50443072Y-117951383D01*
X50384560Y-117977067D01*
X50324806Y-117999647D01*
X50297976Y-118013674D01*
X50292329Y-118017555D01*
X50286051Y-118020311D01*
X50259990Y-118035723D01*
X50209303Y-118074618D01*
X50156653Y-118110802D01*
X50133943Y-118130824D01*
X50092489Y-118177351D01*
X49604340Y-118665500D01*
X48751866Y-118665500D01*
X48738258Y-118666237D01*
X48676076Y-118672992D01*
X48645454Y-118680273D01*
X48509065Y-118731403D01*
X48477730Y-118748559D01*
X48361174Y-118835913D01*
X48335913Y-118861174D01*
X48334500Y-118863059D01*
X48334500Y-118739594D01*
X48889490Y-118184604D01*
X49014903Y-118173190D01*
X49042419Y-118167542D01*
X49204258Y-118114957D01*
X49229840Y-118103353D01*
X49376008Y-118016219D01*
X49398382Y-117999236D01*
X49521613Y-117881885D01*
X49539669Y-117860366D01*
X49633839Y-117718629D01*
X49646679Y-117693646D01*
X49707107Y-117534569D01*
X49714093Y-117507360D01*
X49737775Y-117338848D01*
X49738989Y-117323075D01*
X49739287Y-117301762D01*
X49738514Y-117285955D01*
X49719546Y-117116847D01*
X49713322Y-117089455D01*
X49657359Y-116928752D01*
X49645222Y-116903419D01*
X49555046Y-116759109D01*
X49537598Y-116737095D01*
X49417692Y-116616348D01*
X49395800Y-116598747D01*
X49252122Y-116507566D01*
X49226875Y-116495252D01*
X49066567Y-116438169D01*
X49039218Y-116431754D01*
X48870247Y-116411606D01*
X48842159Y-116411410D01*
X48672923Y-116429197D01*
X48645488Y-116435229D01*
X48484398Y-116490068D01*
X48458981Y-116502028D01*
X48314044Y-116591194D01*
X48291908Y-116608489D01*
X48170328Y-116727550D01*
X48152575Y-116749317D01*
X48109048Y-116816857D01*
X47210404Y-117715500D01*
X45751866Y-117715500D01*
X45738258Y-117716237D01*
X45676076Y-117722992D01*
X45645454Y-117730273D01*
X45509065Y-117781403D01*
X45477730Y-117798559D01*
X45361174Y-117885913D01*
X45335913Y-117911174D01*
X45248559Y-118027730D01*
X45231403Y-118059065D01*
X45180273Y-118195454D01*
X45172992Y-118226076D01*
X45166237Y-118288258D01*
X45165500Y-118301866D01*
X45165500Y-119198134D01*
X45166237Y-119211742D01*
X45172992Y-119273924D01*
X45180273Y-119304546D01*
X45231403Y-119440935D01*
X45248559Y-119472270D01*
X45335913Y-119588826D01*
X45361174Y-119614087D01*
X45476224Y-119700313D01*
X45361531Y-119786270D01*
X45336270Y-119811531D01*
X45249002Y-119927973D01*
X45231846Y-119959308D01*
X45180766Y-120095563D01*
X45173485Y-120126185D01*
X45166737Y-120188303D01*
X45166000Y-120201911D01*
X45166000Y-120396000D01*
X45186002Y-120464121D01*
X45239658Y-120510614D01*
X45292000Y-120522000D01*
X48207999Y-120522000D01*
X48276120Y-120501998D01*
X48293382Y-120482077D01*
X48335913Y-120538826D01*
X48361174Y-120564087D01*
X48477730Y-120651441D01*
X48509065Y-120668597D01*
X48640500Y-120717870D01*
X48640500Y-121970803D01*
X48586177Y-121988927D01*
X48559751Y-122001306D01*
X48409349Y-122094378D01*
X48386479Y-122112504D01*
X48261522Y-122237679D01*
X48249684Y-122252668D01*
X48237101Y-122236792D01*
X48112009Y-122111917D01*
X48089107Y-122093830D01*
X47938641Y-122001082D01*
X47912193Y-121988749D01*
X47744427Y-121933103D01*
X47717601Y-121927352D01*
X47613205Y-121916656D01*
X47600363Y-121916000D01*
X47466500Y-121916000D01*
X47398379Y-121936002D01*
X47351886Y-121989658D01*
X47340500Y-122042000D01*
X47340500Y-124507999D01*
X47360502Y-124576120D01*
X47414158Y-124622613D01*
X47466500Y-124633999D01*
X47600362Y-124633999D01*
X47613365Y-124633326D01*
X47719066Y-124622359D01*
X47745939Y-124616556D01*
X47913608Y-124560618D01*
X47940035Y-124548238D01*
X48090338Y-124455227D01*
X48113208Y-124437101D01*
X48238083Y-124312009D01*
X48249674Y-124297333D01*
X48262504Y-124313521D01*
X48387679Y-124438478D01*
X48410581Y-124456565D01*
X48561146Y-124549375D01*
X48587595Y-124561708D01*
X48755472Y-124617390D01*
X48782296Y-124623141D01*
X48886757Y-124633844D01*
X48899600Y-124634500D01*
X49675400Y-124634500D01*
X49688404Y-124633827D01*
X49794170Y-124622853D01*
X49821042Y-124617050D01*
X49988822Y-124561074D01*
X50015249Y-124548694D01*
X50165651Y-124455622D01*
X50188521Y-124437496D01*
X50313478Y-124312321D01*
X50331565Y-124289419D01*
X50424375Y-124138854D01*
X50436708Y-124112405D01*
X50492390Y-123944528D01*
X50498141Y-123917704D01*
X50508844Y-123813243D01*
X50509500Y-123800400D01*
X50509500Y-122749600D01*
X50508827Y-122736596D01*
X50497853Y-122630830D01*
X50492050Y-122603958D01*
X50436074Y-122436178D01*
X50423694Y-122409751D01*
X50330622Y-122259349D01*
X50312495Y-122236479D01*
X50309500Y-122233489D01*
X50309500Y-120734500D01*
X50748134Y-120734500D01*
X50761742Y-120733763D01*
X50823924Y-120727008D01*
X50854546Y-120719727D01*
X50990935Y-120668597D01*
X51022270Y-120651441D01*
X51138826Y-120564087D01*
X51164087Y-120538826D01*
X51251441Y-120422270D01*
X51268597Y-120390935D01*
X51319727Y-120254546D01*
X51327008Y-120223924D01*
X51333763Y-120161742D01*
X51334500Y-120148134D01*
X51334500Y-119584500D01*
X55453550Y-119584500D01*
X55352487Y-119644985D01*
X55341189Y-119652606D01*
X55055363Y-119868775D01*
X55044954Y-119877571D01*
X54784146Y-120123344D01*
X54774748Y-120133212D01*
X54542008Y-120405715D01*
X54533731Y-120416542D01*
X54331783Y-120712587D01*
X54324723Y-120724243D01*
X54155929Y-121040366D01*
X54150170Y-121052717D01*
X54016504Y-121385221D01*
X54012112Y-121398122D01*
X53915138Y-121743117D01*
X53912165Y-121756417D01*
X53853018Y-122109867D01*
X53851499Y-122123410D01*
X53830870Y-122481181D01*
X53830822Y-122494809D01*
X53848953Y-122852715D01*
X53850378Y-122866268D01*
X53907056Y-123220123D01*
X53909936Y-123233443D01*
X54004499Y-123579107D01*
X54008800Y-123592038D01*
X54140141Y-123925467D01*
X54145814Y-123937858D01*
X54312397Y-124255152D01*
X54319376Y-124266858D01*
X54519253Y-124564305D01*
X54527454Y-124575189D01*
X54758285Y-124849310D01*
X54767614Y-124859244D01*
X55026700Y-125106832D01*
X55037047Y-125115700D01*
X55321357Y-125333859D01*
X55332602Y-125341559D01*
X55372800Y-125366000D01*
X44304000Y-125366000D01*
X44304000Y-123800362D01*
X45991001Y-123800362D01*
X45991674Y-123813365D01*
X46002641Y-123919066D01*
X46008444Y-123945939D01*
X46064382Y-124113608D01*
X46076762Y-124140035D01*
X46169773Y-124290338D01*
X46187899Y-124313208D01*
X46312991Y-124438083D01*
X46335893Y-124456170D01*
X46486359Y-124548918D01*
X46512807Y-124561251D01*
X46680573Y-124616897D01*
X46707399Y-124622648D01*
X46811795Y-124633344D01*
X46824637Y-124634000D01*
X46958500Y-124634000D01*
X47026621Y-124613998D01*
X47073114Y-124560342D01*
X47084500Y-124508000D01*
X47084500Y-123529000D01*
X47064498Y-123460879D01*
X47010842Y-123414386D01*
X46958500Y-123403000D01*
X46117001Y-123403000D01*
X46048880Y-123423002D01*
X46002387Y-123476658D01*
X45991001Y-123529000D01*
X45991001Y-123800362D01*
X44304000Y-123800362D01*
X44304000Y-123021000D01*
X45991000Y-123021000D01*
X46011002Y-123089121D01*
X46064658Y-123135614D01*
X46117000Y-123147000D01*
X46958500Y-123147000D01*
X47026621Y-123126998D01*
X47073114Y-123073342D01*
X47084500Y-123021000D01*
X47084500Y-122042001D01*
X47064498Y-121973880D01*
X47010842Y-121927387D01*
X46958500Y-121916001D01*
X46824638Y-121916001D01*
X46811635Y-121916674D01*
X46705934Y-121927641D01*
X46679061Y-121933444D01*
X46511392Y-121989382D01*
X46484965Y-122001762D01*
X46334662Y-122094773D01*
X46311792Y-122112899D01*
X46186917Y-122237991D01*
X46168830Y-122260893D01*
X46076082Y-122411359D01*
X46063749Y-122437807D01*
X46008103Y-122605573D01*
X46002352Y-122632399D01*
X45991656Y-122736795D01*
X45991000Y-122749637D01*
X45991000Y-123021000D01*
X44304000Y-123021000D01*
X44304000Y-121098088D01*
X45166001Y-121098088D01*
X45166738Y-121111693D01*
X45173485Y-121173812D01*
X45180766Y-121204437D01*
X45231846Y-121340692D01*
X45249002Y-121372027D01*
X45336270Y-121488469D01*
X45361531Y-121513730D01*
X45477973Y-121600998D01*
X45509308Y-121618154D01*
X45645563Y-121669234D01*
X45676185Y-121676515D01*
X45738303Y-121683263D01*
X45751911Y-121684000D01*
X46496000Y-121684000D01*
X46564121Y-121663998D01*
X46610614Y-121610342D01*
X46622000Y-121558000D01*
X46622000Y-121557999D01*
X46878000Y-121557999D01*
X46898002Y-121626120D01*
X46951658Y-121672613D01*
X47004000Y-121683999D01*
X47748088Y-121683999D01*
X47761693Y-121683262D01*
X47823812Y-121676515D01*
X47854437Y-121669234D01*
X47990692Y-121618154D01*
X48022027Y-121600998D01*
X48138469Y-121513730D01*
X48163730Y-121488469D01*
X48250998Y-121372027D01*
X48268154Y-121340692D01*
X48319234Y-121204437D01*
X48326515Y-121173815D01*
X48333263Y-121111697D01*
X48334000Y-121098089D01*
X48334000Y-120904000D01*
X48313998Y-120835879D01*
X48260342Y-120789386D01*
X48208000Y-120778000D01*
X47004000Y-120778000D01*
X46935879Y-120798002D01*
X46889386Y-120851658D01*
X46878000Y-120904000D01*
X46878000Y-121557999D01*
X46622000Y-121557999D01*
X46622000Y-120904000D01*
X46601998Y-120835879D01*
X46548342Y-120789386D01*
X46496000Y-120778000D01*
X45292001Y-120778000D01*
X45223880Y-120798002D01*
X45177387Y-120851658D01*
X45166001Y-120904000D01*
X45166001Y-121098088D01*
X44304000Y-121098088D01*
X44304000Y-98571430D01*
X45436922Y-98571430D01*
X45446702Y-98782725D01*
X45450074Y-98806420D01*
X45499632Y-99012055D01*
X45507424Y-99034685D01*
X45594973Y-99227238D01*
X45606904Y-99247987D01*
X45729284Y-99420511D01*
X45744923Y-99438629D01*
X45897719Y-99584899D01*
X45916502Y-99599733D01*
X45949258Y-99620884D01*
X45829593Y-99714882D01*
X45812261Y-99731387D01*
X45673692Y-99891073D01*
X45659793Y-99910559D01*
X45553920Y-100093568D01*
X45543956Y-100115330D01*
X45474599Y-100315057D01*
X45468930Y-100338315D01*
X45467537Y-100347925D01*
X45477560Y-100418210D01*
X45523991Y-100471919D01*
X45592234Y-100492000D01*
X48303517Y-100492000D01*
X48371638Y-100471998D01*
X48418131Y-100418342D01*
X48428235Y-100348068D01*
X48426010Y-100336479D01*
X48399893Y-100228109D01*
X48392101Y-100205479D01*
X48304592Y-100013012D01*
X48292661Y-99992263D01*
X48170336Y-99819817D01*
X48154697Y-99801699D01*
X48001970Y-99655495D01*
X47983187Y-99640661D01*
X47950770Y-99619730D01*
X48070753Y-99525482D01*
X48088085Y-99508976D01*
X48226717Y-99349217D01*
X48240616Y-99329732D01*
X48346537Y-99146641D01*
X48356501Y-99124879D01*
X48425889Y-98925062D01*
X48431557Y-98901809D01*
X48461909Y-98692476D01*
X48463078Y-98668570D01*
X48453298Y-98457275D01*
X48449926Y-98433580D01*
X48400368Y-98227945D01*
X48392576Y-98205315D01*
X48305027Y-98012762D01*
X48293096Y-97992013D01*
X48170716Y-97819489D01*
X48155077Y-97801371D01*
X48059813Y-97710176D01*
X48115651Y-97675622D01*
X48138521Y-97657496D01*
X48263478Y-97532321D01*
X48281565Y-97509419D01*
X48374375Y-97358854D01*
X48386708Y-97332405D01*
X48390497Y-97320982D01*
X51139628Y-97320982D01*
X51158996Y-97542358D01*
X51162810Y-97563987D01*
X51220325Y-97778636D01*
X51227837Y-97799275D01*
X51321752Y-98000675D01*
X51332733Y-98019694D01*
X51376971Y-98082874D01*
X51432428Y-98127204D01*
X51503047Y-98134514D01*
X51569280Y-98099700D01*
X52269885Y-97399095D01*
X52303911Y-97336783D01*
X52300080Y-97283217D01*
X52776089Y-97283217D01*
X52781154Y-97354032D01*
X52810115Y-97399095D01*
X53510720Y-98099700D01*
X53573032Y-98133726D01*
X53643847Y-98128661D01*
X53703029Y-98082874D01*
X53747267Y-98019694D01*
X53758248Y-98000675D01*
X53852163Y-97799275D01*
X53859675Y-97778636D01*
X53917190Y-97563987D01*
X53921004Y-97542358D01*
X53940372Y-97320982D01*
X53940372Y-97299018D01*
X53921004Y-97077642D01*
X53917190Y-97056013D01*
X53859675Y-96841364D01*
X53852163Y-96820725D01*
X53758248Y-96619325D01*
X53747267Y-96600306D01*
X53703029Y-96537126D01*
X53647572Y-96492796D01*
X53576953Y-96485486D01*
X53510720Y-96520300D01*
X52810115Y-97220905D01*
X52776089Y-97283217D01*
X52300080Y-97283217D01*
X52298846Y-97265968D01*
X52269885Y-97220905D01*
X51569280Y-96520300D01*
X51506968Y-96486274D01*
X51436153Y-96491339D01*
X51376971Y-96537126D01*
X51332733Y-96600306D01*
X51321752Y-96619325D01*
X51227837Y-96820725D01*
X51220325Y-96841364D01*
X51162810Y-97056013D01*
X51158996Y-97077642D01*
X51139628Y-97299018D01*
X51139628Y-97320982D01*
X48390497Y-97320982D01*
X48442390Y-97164528D01*
X48448141Y-97137704D01*
X48458844Y-97033243D01*
X48459500Y-97020400D01*
X48459500Y-96273047D01*
X51715486Y-96273047D01*
X51750300Y-96339280D01*
X52450905Y-97039885D01*
X52513217Y-97073911D01*
X52584032Y-97068846D01*
X52629095Y-97039885D01*
X53329700Y-96339280D01*
X53363726Y-96276968D01*
X53358661Y-96206153D01*
X53332271Y-96172043D01*
X54114745Y-96172043D01*
X54115821Y-96189149D01*
X54153346Y-96474180D01*
X54156734Y-96490982D01*
X54232595Y-96768284D01*
X54238232Y-96784471D01*
X54351026Y-97048911D01*
X54358807Y-97064182D01*
X54506445Y-97310867D01*
X54516227Y-97324942D01*
X54695979Y-97549309D01*
X54707580Y-97561925D01*
X54916118Y-97759820D01*
X54929325Y-97770745D01*
X55162791Y-97938508D01*
X55177358Y-97947540D01*
X55431433Y-98082066D01*
X55447091Y-98089038D01*
X55717072Y-98187837D01*
X55733531Y-98192619D01*
X56014422Y-98253863D01*
X56031378Y-98256367D01*
X56256853Y-98274112D01*
X56266739Y-98274500D01*
X56422271Y-98274500D01*
X56430841Y-98274208D01*
X56645395Y-98259581D01*
X56662376Y-98257255D01*
X56943893Y-98198956D01*
X56960402Y-98194347D01*
X57231403Y-98098380D01*
X57247133Y-98091573D01*
X57502602Y-97959716D01*
X57517263Y-97950837D01*
X57752474Y-97785528D01*
X57765794Y-97774741D01*
X57976393Y-97579040D01*
X57988126Y-97566546D01*
X58170217Y-97344074D01*
X58180146Y-97330103D01*
X58330360Y-97084977D01*
X58338300Y-97069787D01*
X58453856Y-96806543D01*
X58459662Y-96790417D01*
X58538423Y-96513925D01*
X58541987Y-96497159D01*
X58582494Y-96212537D01*
X58583749Y-96195444D01*
X58585255Y-95907957D01*
X58584179Y-95890851D01*
X58546654Y-95605820D01*
X58543266Y-95589018D01*
X58467405Y-95311716D01*
X58461768Y-95295529D01*
X58348974Y-95031089D01*
X58341193Y-95015818D01*
X58193555Y-94769133D01*
X58183773Y-94755058D01*
X58004021Y-94530691D01*
X57992420Y-94518075D01*
X57783882Y-94320180D01*
X57770675Y-94309255D01*
X57537209Y-94141492D01*
X57522642Y-94132460D01*
X57268567Y-93997934D01*
X57252909Y-93990962D01*
X56982928Y-93892163D01*
X56966469Y-93887381D01*
X56685578Y-93826137D01*
X56668622Y-93823633D01*
X56443147Y-93805888D01*
X56433261Y-93805500D01*
X56277729Y-93805500D01*
X56269159Y-93805792D01*
X56054605Y-93820419D01*
X56037624Y-93822745D01*
X55756107Y-93881044D01*
X55739598Y-93885653D01*
X55468597Y-93981620D01*
X55452867Y-93988427D01*
X55197398Y-94120284D01*
X55182737Y-94129163D01*
X54947526Y-94294472D01*
X54934206Y-94305259D01*
X54723607Y-94500960D01*
X54711874Y-94513454D01*
X54529783Y-94735926D01*
X54519854Y-94749897D01*
X54369640Y-94995023D01*
X54361700Y-95010213D01*
X54246144Y-95273457D01*
X54240338Y-95289583D01*
X54161577Y-95566075D01*
X54158013Y-95582841D01*
X54117506Y-95867463D01*
X54116251Y-95884556D01*
X54114745Y-96172043D01*
X53332271Y-96172043D01*
X53312875Y-96146972D01*
X53249696Y-96102734D01*
X53230676Y-96091752D01*
X53029275Y-95997837D01*
X53008636Y-95990325D01*
X52793987Y-95932810D01*
X52772358Y-95928996D01*
X52550982Y-95909628D01*
X52529018Y-95909628D01*
X52307642Y-95928996D01*
X52286013Y-95932810D01*
X52071364Y-95990325D01*
X52050725Y-95997837D01*
X51849325Y-96091752D01*
X51830306Y-96102733D01*
X51767126Y-96146971D01*
X51722796Y-96202428D01*
X51715486Y-96273047D01*
X48459500Y-96273047D01*
X48459500Y-96219600D01*
X48458827Y-96206596D01*
X48447853Y-96100830D01*
X48442050Y-96073958D01*
X48386074Y-95906178D01*
X48373694Y-95879751D01*
X48280622Y-95729349D01*
X48262496Y-95706479D01*
X48137321Y-95581522D01*
X48114419Y-95563435D01*
X47963854Y-95470625D01*
X47937405Y-95458292D01*
X47769528Y-95402610D01*
X47742704Y-95396859D01*
X47638243Y-95386156D01*
X47625400Y-95385500D01*
X46274600Y-95385500D01*
X46261596Y-95386173D01*
X46155830Y-95397147D01*
X46128958Y-95402950D01*
X45961178Y-95458926D01*
X45934751Y-95471306D01*
X45784349Y-95564378D01*
X45761479Y-95582504D01*
X45636522Y-95707679D01*
X45618435Y-95730581D01*
X45525625Y-95881146D01*
X45513292Y-95907595D01*
X45457610Y-96075472D01*
X45451859Y-96102296D01*
X45441156Y-96206757D01*
X45440500Y-96219600D01*
X45440500Y-97020400D01*
X45441173Y-97033404D01*
X45452147Y-97139170D01*
X45457950Y-97166042D01*
X45513926Y-97333822D01*
X45526306Y-97360249D01*
X45619378Y-97510651D01*
X45637504Y-97533521D01*
X45762679Y-97658478D01*
X45785581Y-97676565D01*
X45837120Y-97708334D01*
X45829247Y-97714518D01*
X45811915Y-97731024D01*
X45673283Y-97890783D01*
X45659384Y-97910268D01*
X45553463Y-98093359D01*
X45543499Y-98115121D01*
X45474111Y-98314938D01*
X45468443Y-98338191D01*
X45438091Y-98547524D01*
X45436922Y-98571430D01*
X44304000Y-98571430D01*
X44304000Y-86634000D01*
X55370842Y-86634000D01*
X55352487Y-86644985D01*
G37*
%TD.AperFunction*%
X59075500Y-101897081D02*
X59075500Y-105828500D01*
X58815600Y-105828500D01*
X58802596Y-105829173D01*
X58696830Y-105840147D01*
X58669958Y-105845950D01*
X58502178Y-105901926D01*
X58475751Y-105914306D01*
X58325349Y-106007378D01*
X58302479Y-106025504D01*
X58177522Y-106150679D01*
X58165684Y-106165668D01*
X58153101Y-106149792D01*
X58028009Y-106024917D01*
X58005107Y-106006830D01*
X57854641Y-105914082D01*
X57828193Y-105901749D01*
X57660427Y-105846103D01*
X57633601Y-105840352D01*
X57529205Y-105829656D01*
X57516363Y-105829000D01*
X57382500Y-105829000D01*
X57314379Y-105849002D01*
X57267886Y-105902658D01*
X57256500Y-105955000D01*
X57256500Y-107316000D01*
X57000500Y-107316000D01*
X57000500Y-105955001D01*
X56980498Y-105886880D01*
X56926842Y-105840387D01*
X56884687Y-105831217D01*
X56943893Y-105818956D01*
X56960402Y-105814347D01*
X57231403Y-105718380D01*
X57247133Y-105711573D01*
X57502602Y-105579716D01*
X57517263Y-105570837D01*
X57752474Y-105405528D01*
X57765794Y-105394741D01*
X57976393Y-105199040D01*
X57988126Y-105186546D01*
X58170217Y-104964074D01*
X58180146Y-104950103D01*
X58330360Y-104704977D01*
X58338300Y-104689787D01*
X58453856Y-104426543D01*
X58459662Y-104410417D01*
X58538423Y-104133925D01*
X58541987Y-104117159D01*
X58582494Y-103832537D01*
X58583749Y-103815444D01*
X58585255Y-103527957D01*
X58584179Y-103510851D01*
X58546654Y-103225820D01*
X58543266Y-103209018D01*
X58467405Y-102931716D01*
X58461768Y-102915529D01*
X58348974Y-102651089D01*
X58341193Y-102635818D01*
X58193555Y-102389133D01*
X58183773Y-102375058D01*
X58004021Y-102150691D01*
X57992420Y-102138075D01*
X57783882Y-101940180D01*
X57770675Y-101929255D01*
X57537209Y-101761492D01*
X57522642Y-101752460D01*
X57268567Y-101617934D01*
X57252909Y-101610962D01*
X56982928Y-101512163D01*
X56966469Y-101507381D01*
X56685578Y-101446137D01*
X56668622Y-101443633D01*
X56443147Y-101425888D01*
X56433261Y-101425500D01*
X56277729Y-101425500D01*
X56269159Y-101425792D01*
X56054605Y-101440419D01*
X56037624Y-101442745D01*
X55756107Y-101501044D01*
X55739598Y-101505653D01*
X55468597Y-101601620D01*
X55452867Y-101608427D01*
X55197398Y-101740284D01*
X55182737Y-101749163D01*
X54947526Y-101914472D01*
X54934206Y-101925259D01*
X54723607Y-102120960D01*
X54711874Y-102133454D01*
X54529783Y-102355926D01*
X54519854Y-102369897D01*
X54369640Y-102615023D01*
X54361700Y-102630213D01*
X54246144Y-102893457D01*
X54240338Y-102909583D01*
X54161577Y-103186075D01*
X54158013Y-103202841D01*
X54117506Y-103487463D01*
X54116251Y-103504556D01*
X54114745Y-103792043D01*
X54115821Y-103809149D01*
X54128341Y-103904246D01*
X53564522Y-103340427D01*
X53606073Y-103298876D01*
X53620190Y-103282052D01*
X53747701Y-103099947D01*
X53758683Y-103080926D01*
X53852635Y-102879446D01*
X53860147Y-102858807D01*
X53917685Y-102644074D01*
X53921499Y-102622444D01*
X53940874Y-102400981D01*
X53940874Y-102379019D01*
X53921499Y-102157556D01*
X53917685Y-102135926D01*
X53860147Y-101921193D01*
X53852635Y-101900554D01*
X53758683Y-101699074D01*
X53747701Y-101680053D01*
X53620190Y-101497948D01*
X53606072Y-101481124D01*
X53448876Y-101323928D01*
X53432052Y-101309810D01*
X53249948Y-101182299D01*
X53230927Y-101171317D01*
X53120877Y-101120000D01*
X53230927Y-101068683D01*
X53249948Y-101057701D01*
X53432052Y-100930190D01*
X53448876Y-100916072D01*
X53580448Y-100784500D01*
X57962918Y-100784500D01*
X59075500Y-101897081D02*
X57962918Y-100784500D01*
%TA.AperFunction,Conductor*%
G36*
X59075500Y-101897081D02*
G01*
X59075500Y-105828500D01*
X58815600Y-105828500D01*
X58802596Y-105829173D01*
X58696830Y-105840147D01*
X58669958Y-105845950D01*
X58502178Y-105901926D01*
X58475751Y-105914306D01*
X58325349Y-106007378D01*
X58302479Y-106025504D01*
X58177522Y-106150679D01*
X58165684Y-106165668D01*
X58153101Y-106149792D01*
X58028009Y-106024917D01*
X58005107Y-106006830D01*
X57854641Y-105914082D01*
X57828193Y-105901749D01*
X57660427Y-105846103D01*
X57633601Y-105840352D01*
X57529205Y-105829656D01*
X57516363Y-105829000D01*
X57382500Y-105829000D01*
X57314379Y-105849002D01*
X57267886Y-105902658D01*
X57256500Y-105955000D01*
X57256500Y-107316000D01*
X57000500Y-107316000D01*
X57000500Y-105955001D01*
X56980498Y-105886880D01*
X56926842Y-105840387D01*
X56884687Y-105831217D01*
X56943893Y-105818956D01*
X56960402Y-105814347D01*
X57231403Y-105718380D01*
X57247133Y-105711573D01*
X57502602Y-105579716D01*
X57517263Y-105570837D01*
X57752474Y-105405528D01*
X57765794Y-105394741D01*
X57976393Y-105199040D01*
X57988126Y-105186546D01*
X58170217Y-104964074D01*
X58180146Y-104950103D01*
X58330360Y-104704977D01*
X58338300Y-104689787D01*
X58453856Y-104426543D01*
X58459662Y-104410417D01*
X58538423Y-104133925D01*
X58541987Y-104117159D01*
X58582494Y-103832537D01*
X58583749Y-103815444D01*
X58585255Y-103527957D01*
X58584179Y-103510851D01*
X58546654Y-103225820D01*
X58543266Y-103209018D01*
X58467405Y-102931716D01*
X58461768Y-102915529D01*
X58348974Y-102651089D01*
X58341193Y-102635818D01*
X58193555Y-102389133D01*
X58183773Y-102375058D01*
X58004021Y-102150691D01*
X57992420Y-102138075D01*
X57783882Y-101940180D01*
X57770675Y-101929255D01*
X57537209Y-101761492D01*
X57522642Y-101752460D01*
X57268567Y-101617934D01*
X57252909Y-101610962D01*
X56982928Y-101512163D01*
X56966469Y-101507381D01*
X56685578Y-101446137D01*
X56668622Y-101443633D01*
X56443147Y-101425888D01*
X56433261Y-101425500D01*
X56277729Y-101425500D01*
X56269159Y-101425792D01*
X56054605Y-101440419D01*
X56037624Y-101442745D01*
X55756107Y-101501044D01*
X55739598Y-101505653D01*
X55468597Y-101601620D01*
X55452867Y-101608427D01*
X55197398Y-101740284D01*
X55182737Y-101749163D01*
X54947526Y-101914472D01*
X54934206Y-101925259D01*
X54723607Y-102120960D01*
X54711874Y-102133454D01*
X54529783Y-102355926D01*
X54519854Y-102369897D01*
X54369640Y-102615023D01*
X54361700Y-102630213D01*
X54246144Y-102893457D01*
X54240338Y-102909583D01*
X54161577Y-103186075D01*
X54158013Y-103202841D01*
X54117506Y-103487463D01*
X54116251Y-103504556D01*
X54114745Y-103792043D01*
X54115821Y-103809149D01*
X54128341Y-103904246D01*
X53564522Y-103340427D01*
X53606073Y-103298876D01*
X53620190Y-103282052D01*
X53747701Y-103099947D01*
X53758683Y-103080926D01*
X53852635Y-102879446D01*
X53860147Y-102858807D01*
X53917685Y-102644074D01*
X53921499Y-102622444D01*
X53940874Y-102400981D01*
X53940874Y-102379019D01*
X53921499Y-102157556D01*
X53917685Y-102135926D01*
X53860147Y-101921193D01*
X53852635Y-101900554D01*
X53758683Y-101699074D01*
X53747701Y-101680053D01*
X53620190Y-101497948D01*
X53606072Y-101481124D01*
X53448876Y-101323928D01*
X53432052Y-101309810D01*
X53249948Y-101182299D01*
X53230927Y-101171317D01*
X53120877Y-101120000D01*
X53230927Y-101068683D01*
X53249948Y-101057701D01*
X53432052Y-100930190D01*
X53448876Y-100916072D01*
X53580448Y-100784500D01*
X57962918Y-100784500D01*
X59075500Y-101897081D01*
G37*
%TD.AperFunction*%
%TD*%
M02*
