M48
; DRILL file {KiCad (6.0.1)} date Sat Jul  2 13:05:34 2022
; FORMAT={-:-/ absolute / inch / decimal}
; #@! TF.CreationDate,2022-07-02T13:05:34-07:00
; #@! TF.GenerationSoftware,Kicad,Pcbnew,(6.0.1)
; #@! TF.FileFunction,Plated,1,2,PTH
FMAT,2
INCH
; #@! TA.AperFunction,Plated,PTH,ViaDrill
T1C0.0118
; #@! TA.AperFunction,Plated,PTH,ViaDrill
T2C0.0157
; #@! TA.AperFunction,Plated,PTH,ComponentDrill
T3C0.0295
; #@! TA.AperFunction,Plated,PTH,ComponentDrill
T4C0.0315
; #@! TA.AperFunction,Plated,PTH,ComponentDrill
T5C0.1260
%
G90
G05
T1
X2.1154Y-4.5047
X2.1157Y-4.5402
X2.1158Y-4.4704
X2.1165Y-4.4306
X2.2315Y-4.4083
X2.2386Y-4.2945
X2.2654Y-4.5138
X2.2677Y-4.5697
X2.2701Y-4.3606
T2
X1.752Y-3.7835
X1.97Y-3.9626
X1.997Y-3.8898
X2.2756Y-4.1713
T3
X1.8484Y-3.8039
X1.8484Y-3.8827
X1.8484Y-3.9614
X1.8484Y-4.0402
X1.8484Y-4.1189
X1.8484Y-4.1976
X1.8484Y-4.2764
X1.8484Y-4.3551
X1.8484Y-4.4339
X1.8484Y-4.5126
T4
X2.0685Y-3.8311
X2.0685Y-3.9311
X2.0685Y-4.0311
T5
X2.235Y-3.5236
X2.235Y-4.8228
T0
M30
