%TF.GenerationSoftware,KiCad,Pcbnew,(6.0.1)*%
%TF.CreationDate,2022-07-02T13:05:34-07:00*%
%TF.ProjectId,mu100-dit,6d753130-302d-4646-9974-2e6b69636164,rev?*%
%TF.SameCoordinates,Original*%
%TF.FileFunction,Copper,L2,Bot*%
%TF.FilePolarity,Positive*%
%FSLAX46Y46*%
G04 Gerber Fmt 4.6, Leading zero omitted, Abs format (unit mm)*
G04 Created by KiCad (PCBNEW (6.0.1)) date 2022-07-02 13:05:34*
%MOMM*%
%LPD*%
G01*
G04 APERTURE LIST*
G04 Aperture macros list*
%AMRoundRect*
0 Rectangle with rounded corners*
0 $1 Rounding radius*
0 $2 $3 $4 $5 $6 $7 $8 $9 X,Y pos of 4 corners*
0 Add a 4 corners polygon primitive as box body*
4,1,4,$2,$3,$4,$5,$6,$7,$8,$9,$2,$3,0*
0 Add four circle primitives for the rounded corners*
1,1,$1+$1,$2,$3*
1,1,$1+$1,$4,$5*
1,1,$1+$1,$6,$7*
1,1,$1+$1,$8,$9*
0 Add four rect primitives between the rounded corners*
20,1,$1+$1,$2,$3,$4,$5,0*
20,1,$1+$1,$4,$5,$6,$7,0*
20,1,$1+$1,$6,$7,$8,$9,0*
20,1,$1+$1,$8,$9,$2,$3,0*%
G04 Aperture macros list end*
%TA.AperFunction,ComponentPad*%
%ADD10C,3.600000*%
%TD*%
%TA.AperFunction,ComponentPad*%
%ADD11RoundRect,0.250000X-0.625000X0.350000X-0.625000X-0.350000X0.625000X-0.350000X0.625000X0.350000X0*%
%TD*%
%TA.AperFunction,ComponentPad*%
%ADD12O,1.750000X1.200000*%
%TD*%
%TA.AperFunction,ComponentPad*%
%ADD13C,1.524000*%
%TD*%
%TA.AperFunction,SMDPad,CuDef*%
%ADD14RoundRect,0.155000X-0.212500X-0.155000X0.212500X-0.155000X0.212500X0.155000X-0.212500X0.155000X0*%
%TD*%
%TA.AperFunction,ViaPad*%
%ADD15C,0.800000*%
%TD*%
%TA.AperFunction,ViaPad*%
%ADD16C,0.500000*%
%TD*%
%TA.AperFunction,Conductor*%
%ADD17C,0.600000*%
%TD*%
%TA.AperFunction,Conductor*%
%ADD18C,0.400000*%
%TD*%
%TA.AperFunction,Conductor*%
%ADD19C,0.250000*%
%TD*%
%TA.AperFunction,Conductor*%
%ADD20C,0.254000*%
%TD*%
G04 APERTURE END LIST*
D10*
%TO.P,REF\u002A\u002A,1*%
%TO.N,N/C*%
X56770000Y-122500000D03*
%TD*%
%TO.P,REF\u002A\u002A,1*%
%TO.N,N/C*%
X56770000Y-89500000D03*
%TD*%
D11*
%TO.P,J1,1,Pin_1*%
%TO.N,/RESET*%
X46950000Y-96620000D03*
D12*
%TO.P,J1,2,Pin_2*%
%TO.N,+5V*%
X46950000Y-98620000D03*
%TO.P,J1,3,Pin_3*%
%TO.N,GND*%
X46950000Y-100620000D03*
%TO.P,J1,4,Pin_4*%
%TO.N,/MCLK*%
X46950000Y-102620000D03*
%TO.P,J1,5,Pin_5*%
%TO.N,GND*%
X46950000Y-104620000D03*
%TO.P,J1,6,Pin_6*%
%TO.N,/SDAT*%
X46950000Y-106620000D03*
%TO.P,J1,7,Pin_7*%
%TO.N,GND*%
X46950000Y-108620000D03*
%TO.P,J1,8,Pin_8*%
%TO.N,/BICK*%
X46950000Y-110620000D03*
%TO.P,J1,9,Pin_9*%
%TO.N,GND*%
X46950000Y-112620000D03*
%TO.P,J1,10,Pin_10*%
%TO.N,/LRCK*%
X46950000Y-114620000D03*
%TD*%
D13*
%TO.P,U1,3,Input*%
%TO.N,/TXP*%
X52540000Y-102390000D03*
%TO.P,U1,2,VCC*%
%TO.N,+5V*%
X52540000Y-99850000D03*
%TO.P,U1,1,GND*%
%TO.N,GND*%
X52540000Y-97310000D03*
%TD*%
D14*
%TO.P,JP3,2,2*%
%TO.N,/FS2*%
X51927500Y-111480000D03*
%TO.P,JP3,1,1*%
%TO.N,+5V*%
X50792500Y-111480000D03*
%TD*%
%TO.P,JP9,2,2*%
%TO.N,/CKS1*%
X51897500Y-116070000D03*
%TO.P,JP9,1,1*%
%TO.N,+5V*%
X50762500Y-116070000D03*
%TD*%
%TO.P,JP2,2,2*%
%TO.N,/FS1*%
X51817500Y-109185000D03*
%TO.P,JP2,1,1*%
%TO.N,+5V*%
X50682500Y-109185000D03*
%TD*%
%TO.P,JP7,2,2*%
%TO.N,/DIF2*%
X56867500Y-108105000D03*
%TO.P,JP7,1,1*%
%TO.N,+5V*%
X55732500Y-108105000D03*
%TD*%
%TO.P,JP1,2,2*%
%TO.N,/FS0*%
X51847500Y-106860000D03*
%TO.P,JP1,1,1*%
%TO.N,+5V*%
X50712500Y-106860000D03*
%TD*%
%TO.P,JP6,2,2*%
%TO.N,/DIF1*%
X56867500Y-110400000D03*
%TO.P,JP6,1,1*%
%TO.N,+5V*%
X55732500Y-110400000D03*
%TD*%
%TO.P,JP8,1,1*%
%TO.N,GND*%
X55682500Y-116070000D03*
%TO.P,JP8,2,2*%
%TO.N,/CKS0*%
X56817500Y-116070000D03*
%TD*%
%TO.P,JP5,2,2*%
%TO.N,/DIF0*%
X56867500Y-112695000D03*
%TO.P,JP5,1,1*%
%TO.N,+5V*%
X55732500Y-112695000D03*
%TD*%
%TO.P,JP4,2,2*%
%TO.N,/FS3*%
X51897500Y-113775000D03*
%TO.P,JP4,1,1*%
%TO.N,+5V*%
X50762500Y-113775000D03*
%TD*%
D15*
%TO.N,GND*%
X44500000Y-96100000D03*
X57800000Y-105950000D03*
X50038000Y-100649500D03*
X50725000Y-98800000D03*
D16*
%TO.N,/FS0*%
X53759989Y-112538411D03*
%TO.N,/FS1*%
X53741990Y-113548813D03*
%TO.N,/FS2*%
X53730000Y-114420000D03*
%TO.N,/FS3*%
X53740000Y-115320000D03*
%TO.N,/DIF0*%
X56680000Y-111970000D03*
%TO.N,/DIF1*%
X57660000Y-110760000D03*
%TO.N,/DIF2*%
X56860000Y-109080000D03*
%TO.N,/CKS0*%
X57600000Y-116070000D03*
%TO.N,/CKS1*%
X57540000Y-114650000D03*
%TD*%
D17*
%TO.N,+5V*%
X50767764Y-116064736D02*
X50762500Y-116070000D01*
X50767764Y-109428395D02*
X50767764Y-116064736D01*
X50712500Y-109373131D02*
X50767764Y-109428395D01*
X50712500Y-106860000D02*
X50712500Y-109373131D01*
D18*
X48170000Y-98620000D02*
X49400000Y-99850000D01*
X46950000Y-98620000D02*
X48170000Y-98620000D01*
X49400000Y-99850000D02*
X52540000Y-99850000D01*
%TO.N,GND*%
X55582500Y-116070000D02*
X55682500Y-116170000D01*
D19*
X52710000Y-97310000D02*
X52540000Y-97310000D01*
D18*
X55682500Y-116170000D02*
X55682500Y-116800000D01*
X55582500Y-116900000D02*
X49900000Y-116900000D01*
X49900000Y-116900000D02*
X46000000Y-113000000D01*
X55582500Y-116900000D02*
X60450000Y-116900000D01*
X55682500Y-116800000D02*
X55582500Y-116900000D01*
D17*
%TO.N,+5V*%
X50712500Y-106701869D02*
X50712500Y-106860000D01*
X53210522Y-106000000D02*
X51414369Y-106000000D01*
D18*
X55632500Y-112395000D02*
X55582500Y-112345000D01*
D17*
X51414369Y-106000000D02*
X50712500Y-106701869D01*
X54000000Y-101700000D02*
X54000000Y-105307500D01*
D18*
X55582500Y-112345000D02*
X55582500Y-106890000D01*
D17*
X50762500Y-116070000D02*
X50762500Y-113775000D01*
X53801511Y-105409011D02*
X53210522Y-106000000D01*
X52540000Y-100240000D02*
X54000000Y-101700000D01*
X52540000Y-99850000D02*
X52540000Y-100240000D01*
X54000000Y-105307500D02*
X55582500Y-106890000D01*
D19*
%TO.N,/FS0*%
X53760000Y-108772500D02*
X51847500Y-106860000D01*
X53759989Y-112538411D02*
X53760000Y-112538400D01*
X53760000Y-112538400D02*
X53760000Y-108772500D01*
%TO.N,/FS1*%
X53135489Y-110502989D02*
X51817500Y-109185000D01*
X53135489Y-112942312D02*
X53135489Y-110502989D01*
X53741990Y-113548813D02*
X53135489Y-112942312D01*
%TO.N,/FS2*%
X51927500Y-112617500D02*
X53730000Y-114420000D01*
X51927500Y-111480000D02*
X51927500Y-112617500D01*
%TO.N,/FS3*%
X51897500Y-113775000D02*
X52195000Y-113775000D01*
X52195000Y-113775000D02*
X53740000Y-115320000D01*
%TO.N,/DIF0*%
X56680000Y-111970000D02*
X56867500Y-112157500D01*
X56867500Y-112157500D02*
X56867500Y-112695000D01*
%TO.N,/DIF1*%
X57227500Y-110760000D02*
X56867500Y-110400000D01*
X57660000Y-110760000D02*
X57227500Y-110760000D01*
%TO.N,/DIF2*%
X56860000Y-108112500D02*
X56867500Y-108105000D01*
X56860000Y-109080000D02*
X56860000Y-108112500D01*
%TO.N,/CKS0*%
X57600000Y-116070000D02*
X56817500Y-116070000D01*
%TO.N,/CKS1*%
X57540000Y-114650000D02*
X55450000Y-114650000D01*
X55450000Y-114650000D02*
X54030000Y-116070000D01*
X54030000Y-116070000D02*
X51897500Y-116070000D01*
%TD*%
%TO.N,GND*%
D20*
X60636000Y-125366000D02*
X44304000Y-125366000D01*
X44304000Y-122508241D01*
X54330817Y-122508241D01*
X54350609Y-122810207D01*
X54352760Y-122826547D01*
X54411797Y-123123347D01*
X54416063Y-123139267D01*
X54513335Y-123425821D01*
X54519642Y-123441048D01*
X54653485Y-123712454D01*
X54661726Y-123726728D01*
X54829849Y-123978343D01*
X54839882Y-123991419D01*
X55039410Y-124218936D01*
X55051064Y-124230590D01*
X55278581Y-124430118D01*
X55291657Y-124440151D01*
X55543271Y-124608274D01*
X55557545Y-124616515D01*
X55828952Y-124750358D01*
X55844179Y-124756665D01*
X56130733Y-124853937D01*
X56146653Y-124858203D01*
X56443453Y-124917240D01*
X56459793Y-124919391D01*
X56761759Y-124939183D01*
X56778241Y-124939183D01*
X57080207Y-124919391D01*
X57096547Y-124917240D01*
X57393347Y-124858203D01*
X57409267Y-124853937D01*
X57695821Y-124756665D01*
X57711048Y-124750358D01*
X57982455Y-124616515D01*
X57996729Y-124608274D01*
X58248343Y-124440151D01*
X58261419Y-124430118D01*
X58488936Y-124230590D01*
X58500590Y-124218936D01*
X58700118Y-123991419D01*
X58710151Y-123978343D01*
X58878274Y-123726728D01*
X58886515Y-123712454D01*
X59020358Y-123441048D01*
X59026665Y-123425821D01*
X59123937Y-123139267D01*
X59128203Y-123123347D01*
X59187240Y-122826547D01*
X59189391Y-122810207D01*
X59209183Y-122508241D01*
X59209183Y-122491759D01*
X59189391Y-122189793D01*
X59187240Y-122173453D01*
X59128203Y-121876653D01*
X59123937Y-121860733D01*
X59026665Y-121574179D01*
X59020358Y-121558952D01*
X58886515Y-121287546D01*
X58878274Y-121273272D01*
X58710151Y-121021657D01*
X58700118Y-121008581D01*
X58500590Y-120781064D01*
X58488936Y-120769410D01*
X58261419Y-120569882D01*
X58248343Y-120559849D01*
X57996729Y-120391726D01*
X57982455Y-120383485D01*
X57711048Y-120249642D01*
X57695821Y-120243335D01*
X57409267Y-120146063D01*
X57393347Y-120141797D01*
X57096547Y-120082760D01*
X57080207Y-120080609D01*
X56778241Y-120060817D01*
X56761759Y-120060817D01*
X56459793Y-120080609D01*
X56443453Y-120082760D01*
X56146653Y-120141797D01*
X56130733Y-120146063D01*
X55844179Y-120243335D01*
X55828952Y-120249642D01*
X55557546Y-120383485D01*
X55543272Y-120391726D01*
X55291657Y-120559849D01*
X55278581Y-120569882D01*
X55051064Y-120769410D01*
X55039410Y-120781064D01*
X54839882Y-121008581D01*
X54829849Y-121021657D01*
X54661726Y-121273272D01*
X54653485Y-121287546D01*
X54519642Y-121558952D01*
X54513335Y-121574179D01*
X54416063Y-121860733D01*
X54411797Y-121876653D01*
X54352760Y-122173453D01*
X54350609Y-122189793D01*
X54330817Y-122491759D01*
X54330817Y-122508241D01*
X44304000Y-122508241D01*
X44304000Y-114571430D01*
X45436922Y-114571430D01*
X45446702Y-114782725D01*
X45450074Y-114806420D01*
X45499632Y-115012055D01*
X45507424Y-115034685D01*
X45594973Y-115227238D01*
X45606904Y-115247987D01*
X45729284Y-115420511D01*
X45744923Y-115438629D01*
X45897719Y-115584899D01*
X45916502Y-115599733D01*
X46094200Y-115714472D01*
X46115450Y-115725486D01*
X46311639Y-115804552D01*
X46334587Y-115811350D01*
X46542187Y-115851892D01*
X46560183Y-115854078D01*
X46565745Y-115854350D01*
X46571899Y-115854500D01*
X47277846Y-115854500D01*
X47289813Y-115853930D01*
X47447533Y-115838882D01*
X47471035Y-115834357D01*
X47674003Y-115774813D01*
X47696226Y-115765924D01*
X47884272Y-115669074D01*
X47904413Y-115656144D01*
X48070753Y-115525482D01*
X48088085Y-115508976D01*
X48226717Y-115349217D01*
X48240616Y-115329732D01*
X48346537Y-115146641D01*
X48356501Y-115124879D01*
X48425889Y-114925062D01*
X48431557Y-114901809D01*
X48461909Y-114692476D01*
X48463078Y-114668570D01*
X48453298Y-114457275D01*
X48449926Y-114433580D01*
X48400368Y-114227945D01*
X48392576Y-114205315D01*
X48305027Y-114012762D01*
X48293096Y-113992013D01*
X48170716Y-113819489D01*
X48155077Y-113801371D01*
X48002281Y-113655101D01*
X47983498Y-113640267D01*
X47950742Y-113619116D01*
X48070407Y-113525118D01*
X48087739Y-113508613D01*
X48226308Y-113348927D01*
X48240207Y-113329441D01*
X48346080Y-113146432D01*
X48356044Y-113124670D01*
X48425401Y-112924943D01*
X48431070Y-112901685D01*
X48432463Y-112892075D01*
X48422440Y-112821790D01*
X48376009Y-112768081D01*
X48307766Y-112748000D01*
X45596483Y-112748000D01*
X45528362Y-112768002D01*
X45481869Y-112821658D01*
X45471765Y-112891932D01*
X45473990Y-112903521D01*
X45500107Y-113011891D01*
X45507899Y-113034521D01*
X45595408Y-113226988D01*
X45607339Y-113247737D01*
X45729664Y-113420183D01*
X45745303Y-113438301D01*
X45898030Y-113584505D01*
X45916813Y-113599339D01*
X45949230Y-113620270D01*
X45829247Y-113714518D01*
X45811915Y-113731024D01*
X45673283Y-113890783D01*
X45659384Y-113910268D01*
X45553463Y-114093359D01*
X45543499Y-114115121D01*
X45474111Y-114314938D01*
X45468443Y-114338191D01*
X45438091Y-114547524D01*
X45436922Y-114571430D01*
X44304000Y-114571430D01*
X44304000Y-110571430D01*
X45436922Y-110571430D01*
X45446702Y-110782725D01*
X45450074Y-110806420D01*
X45499632Y-111012055D01*
X45507424Y-111034685D01*
X45594973Y-111227238D01*
X45606904Y-111247987D01*
X45729284Y-111420511D01*
X45744923Y-111438629D01*
X45897719Y-111584899D01*
X45916502Y-111599733D01*
X45949258Y-111620884D01*
X45829593Y-111714882D01*
X45812261Y-111731387D01*
X45673692Y-111891073D01*
X45659793Y-111910559D01*
X45553920Y-112093568D01*
X45543956Y-112115330D01*
X45474599Y-112315057D01*
X45468930Y-112338315D01*
X45467537Y-112347925D01*
X45477560Y-112418210D01*
X45523991Y-112471919D01*
X45592234Y-112492000D01*
X48303517Y-112492000D01*
X48371638Y-112471998D01*
X48418131Y-112418342D01*
X48428235Y-112348068D01*
X48426010Y-112336479D01*
X48399893Y-112228109D01*
X48392101Y-112205479D01*
X48304592Y-112013012D01*
X48292661Y-111992263D01*
X48170336Y-111819817D01*
X48154697Y-111801699D01*
X48001970Y-111655495D01*
X47983187Y-111640661D01*
X47950770Y-111619730D01*
X48070753Y-111525482D01*
X48088085Y-111508976D01*
X48226717Y-111349217D01*
X48240616Y-111329732D01*
X48346537Y-111146641D01*
X48356501Y-111124879D01*
X48425889Y-110925062D01*
X48431557Y-110901809D01*
X48461909Y-110692476D01*
X48463078Y-110668570D01*
X48453298Y-110457275D01*
X48449926Y-110433580D01*
X48400368Y-110227945D01*
X48392576Y-110205315D01*
X48305027Y-110012762D01*
X48293096Y-109992013D01*
X48170716Y-109819489D01*
X48155077Y-109801371D01*
X48002281Y-109655101D01*
X47983498Y-109640267D01*
X47950742Y-109619116D01*
X48070407Y-109525118D01*
X48087739Y-109508613D01*
X48226308Y-109348927D01*
X48240207Y-109329441D01*
X48346080Y-109146432D01*
X48356044Y-109124670D01*
X48425401Y-108924943D01*
X48431070Y-108901685D01*
X48432463Y-108892075D01*
X48422440Y-108821790D01*
X48376009Y-108768081D01*
X48307766Y-108748000D01*
X45596483Y-108748000D01*
X45528362Y-108768002D01*
X45481869Y-108821658D01*
X45471765Y-108891932D01*
X45473990Y-108903521D01*
X45500107Y-109011891D01*
X45507899Y-109034521D01*
X45595408Y-109226988D01*
X45607339Y-109247737D01*
X45729664Y-109420183D01*
X45745303Y-109438301D01*
X45898030Y-109584505D01*
X45916813Y-109599339D01*
X45949230Y-109620270D01*
X45829247Y-109714518D01*
X45811915Y-109731024D01*
X45673283Y-109890783D01*
X45659384Y-109910268D01*
X45553463Y-110093359D01*
X45543499Y-110115121D01*
X45474111Y-110314938D01*
X45468443Y-110338191D01*
X45438091Y-110547524D01*
X45436922Y-110571430D01*
X44304000Y-110571430D01*
X44304000Y-106571430D01*
X45436922Y-106571430D01*
X45446702Y-106782725D01*
X45450074Y-106806420D01*
X45499632Y-107012055D01*
X45507424Y-107034685D01*
X45594973Y-107227238D01*
X45606904Y-107247987D01*
X45729284Y-107420511D01*
X45744923Y-107438629D01*
X45897719Y-107584899D01*
X45916502Y-107599733D01*
X45949258Y-107620884D01*
X45829593Y-107714882D01*
X45812261Y-107731387D01*
X45673692Y-107891073D01*
X45659793Y-107910559D01*
X45553920Y-108093568D01*
X45543956Y-108115330D01*
X45474599Y-108315057D01*
X45468930Y-108338315D01*
X45467537Y-108347925D01*
X45477560Y-108418210D01*
X45523991Y-108471919D01*
X45592234Y-108492000D01*
X48303517Y-108492000D01*
X48371638Y-108471998D01*
X48418131Y-108418342D01*
X48428235Y-108348068D01*
X48426010Y-108336479D01*
X48399893Y-108228109D01*
X48392101Y-108205479D01*
X48304592Y-108013012D01*
X48292661Y-107992263D01*
X48170336Y-107819817D01*
X48154697Y-107801699D01*
X48001970Y-107655495D01*
X47983187Y-107640661D01*
X47950770Y-107619730D01*
X48070753Y-107525482D01*
X48088085Y-107508976D01*
X48226717Y-107349217D01*
X48240616Y-107329732D01*
X48346537Y-107146641D01*
X48356501Y-107124879D01*
X48425889Y-106925062D01*
X48431557Y-106901809D01*
X48461909Y-106692476D01*
X48463078Y-106668570D01*
X48453298Y-106457275D01*
X48449926Y-106433580D01*
X48400368Y-106227945D01*
X48392576Y-106205315D01*
X48305027Y-106012762D01*
X48293096Y-105992013D01*
X48170716Y-105819489D01*
X48155077Y-105801371D01*
X48002281Y-105655101D01*
X47983498Y-105640267D01*
X47950742Y-105619116D01*
X48070407Y-105525118D01*
X48087739Y-105508613D01*
X48226308Y-105348927D01*
X48240207Y-105329441D01*
X48346080Y-105146432D01*
X48356044Y-105124670D01*
X48425401Y-104924943D01*
X48431070Y-104901685D01*
X48432463Y-104892075D01*
X48422440Y-104821790D01*
X48376009Y-104768081D01*
X48307766Y-104748000D01*
X45596483Y-104748000D01*
X45528362Y-104768002D01*
X45481869Y-104821658D01*
X45471765Y-104891932D01*
X45473990Y-104903521D01*
X45500107Y-105011891D01*
X45507899Y-105034521D01*
X45595408Y-105226988D01*
X45607339Y-105247737D01*
X45729664Y-105420183D01*
X45745303Y-105438301D01*
X45898030Y-105584505D01*
X45916813Y-105599339D01*
X45949230Y-105620270D01*
X45829247Y-105714518D01*
X45811915Y-105731024D01*
X45673283Y-105890783D01*
X45659384Y-105910268D01*
X45553463Y-106093359D01*
X45543499Y-106115121D01*
X45474111Y-106314938D01*
X45468443Y-106338191D01*
X45438091Y-106547524D01*
X45436922Y-106571430D01*
X44304000Y-106571430D01*
X44304000Y-102571430D01*
X45436922Y-102571430D01*
X45446702Y-102782725D01*
X45450074Y-102806420D01*
X45499632Y-103012055D01*
X45507424Y-103034685D01*
X45594973Y-103227238D01*
X45606904Y-103247987D01*
X45729284Y-103420511D01*
X45744923Y-103438629D01*
X45897719Y-103584899D01*
X45916502Y-103599733D01*
X45949258Y-103620884D01*
X45829593Y-103714882D01*
X45812261Y-103731387D01*
X45673692Y-103891073D01*
X45659793Y-103910559D01*
X45553920Y-104093568D01*
X45543956Y-104115330D01*
X45474599Y-104315057D01*
X45468930Y-104338315D01*
X45467537Y-104347925D01*
X45477560Y-104418210D01*
X45523991Y-104471919D01*
X45592234Y-104492000D01*
X48303517Y-104492000D01*
X48371638Y-104471998D01*
X48418131Y-104418342D01*
X48428235Y-104348068D01*
X48426010Y-104336479D01*
X48399893Y-104228109D01*
X48392101Y-104205479D01*
X48304592Y-104013012D01*
X48292661Y-103992263D01*
X48170336Y-103819817D01*
X48154697Y-103801699D01*
X48001970Y-103655495D01*
X47983187Y-103640661D01*
X47950770Y-103619730D01*
X48070753Y-103525482D01*
X48088085Y-103508976D01*
X48226717Y-103349217D01*
X48240616Y-103329732D01*
X48346537Y-103146641D01*
X48356501Y-103124879D01*
X48425889Y-102925062D01*
X48431557Y-102901809D01*
X48461909Y-102692476D01*
X48463078Y-102668570D01*
X48453298Y-102457275D01*
X48449926Y-102433580D01*
X48400368Y-102227945D01*
X48392576Y-102205315D01*
X48305027Y-102012762D01*
X48293096Y-101992013D01*
X48170716Y-101819489D01*
X48155077Y-101801371D01*
X48002281Y-101655101D01*
X47983498Y-101640267D01*
X47950742Y-101619116D01*
X48070407Y-101525118D01*
X48087739Y-101508613D01*
X48226308Y-101348927D01*
X48240207Y-101329441D01*
X48346080Y-101146432D01*
X48356044Y-101124670D01*
X48425401Y-100924943D01*
X48431070Y-100901685D01*
X48432463Y-100892075D01*
X48422440Y-100821790D01*
X48376009Y-100768081D01*
X48307766Y-100748000D01*
X45596483Y-100748000D01*
X45528362Y-100768002D01*
X45481869Y-100821658D01*
X45471765Y-100891932D01*
X45473990Y-100903521D01*
X45500107Y-101011891D01*
X45507899Y-101034521D01*
X45595408Y-101226988D01*
X45607339Y-101247737D01*
X45729664Y-101420183D01*
X45745303Y-101438301D01*
X45898030Y-101584505D01*
X45916813Y-101599339D01*
X45949230Y-101620270D01*
X45829247Y-101714518D01*
X45811915Y-101731024D01*
X45673283Y-101890783D01*
X45659384Y-101910268D01*
X45553463Y-102093359D01*
X45543499Y-102115121D01*
X45474111Y-102314938D01*
X45468443Y-102338191D01*
X45438091Y-102547524D01*
X45436922Y-102571430D01*
X44304000Y-102571430D01*
X44304000Y-98571430D01*
X45436922Y-98571430D01*
X45446702Y-98782725D01*
X45450074Y-98806420D01*
X45499632Y-99012055D01*
X45507424Y-99034685D01*
X45594973Y-99227238D01*
X45606904Y-99247987D01*
X45729284Y-99420511D01*
X45744923Y-99438629D01*
X45897719Y-99584899D01*
X45916502Y-99599733D01*
X45949258Y-99620884D01*
X45829593Y-99714882D01*
X45812261Y-99731387D01*
X45673692Y-99891073D01*
X45659793Y-99910559D01*
X45553920Y-100093568D01*
X45543956Y-100115330D01*
X45474599Y-100315057D01*
X45468930Y-100338315D01*
X45467537Y-100347925D01*
X45477560Y-100418210D01*
X45523991Y-100471919D01*
X45592234Y-100492000D01*
X48303517Y-100492000D01*
X48371638Y-100471998D01*
X48418131Y-100418342D01*
X48428235Y-100348068D01*
X48426010Y-100336479D01*
X48399893Y-100228109D01*
X48392101Y-100205479D01*
X48304592Y-100013012D01*
X48292661Y-99992263D01*
X48170336Y-99819817D01*
X48154697Y-99801699D01*
X48001970Y-99655495D01*
X47983187Y-99640661D01*
X47950770Y-99619730D01*
X47972500Y-99602660D01*
X48789455Y-100419615D01*
X48827490Y-100463215D01*
X48849989Y-100483472D01*
X48902247Y-100520199D01*
X48952534Y-100559630D01*
X48978430Y-100575313D01*
X48984679Y-100578135D01*
X48990290Y-100582078D01*
X49016969Y-100596383D01*
X49076499Y-100619593D01*
X49134723Y-100645882D01*
X49163608Y-100654935D01*
X49170353Y-100656185D01*
X49176742Y-100658676D01*
X49206063Y-100666204D01*
X49269408Y-100674543D01*
X49332225Y-100686186D01*
X49362440Y-100688087D01*
X49424651Y-100684500D01*
X51419512Y-100684500D01*
X51459810Y-100742052D01*
X51473928Y-100758876D01*
X51631124Y-100916072D01*
X51647948Y-100930190D01*
X51830052Y-101057701D01*
X51849073Y-101068683D01*
X51959123Y-101120000D01*
X51849074Y-101171317D01*
X51830053Y-101182299D01*
X51647948Y-101309810D01*
X51631124Y-101323928D01*
X51473928Y-101481124D01*
X51459810Y-101497948D01*
X51332299Y-101680053D01*
X51321317Y-101699074D01*
X51227365Y-101900554D01*
X51219853Y-101921193D01*
X51162315Y-102135926D01*
X51158501Y-102157556D01*
X51139126Y-102379019D01*
X51139126Y-102400981D01*
X51158501Y-102622444D01*
X51162315Y-102644074D01*
X51219853Y-102858807D01*
X51227365Y-102879446D01*
X51321317Y-103080926D01*
X51332299Y-103099947D01*
X51459810Y-103282052D01*
X51473928Y-103298876D01*
X51631124Y-103456072D01*
X51647948Y-103470190D01*
X51830052Y-103597701D01*
X51849073Y-103608683D01*
X52050554Y-103702635D01*
X52071193Y-103710147D01*
X52285926Y-103767685D01*
X52307556Y-103771499D01*
X52529019Y-103790874D01*
X52550981Y-103790874D01*
X52772444Y-103771499D01*
X52794074Y-103767685D01*
X53008807Y-103710147D01*
X53029446Y-103702635D01*
X53065500Y-103685823D01*
X53065500Y-104823440D01*
X52823440Y-105065500D01*
X51423629Y-105065500D01*
X51333467Y-105064556D01*
X51305521Y-105067395D01*
X51263156Y-105076555D01*
X51220068Y-105081388D01*
X51192677Y-105087611D01*
X51161001Y-105098642D01*
X51128231Y-105105727D01*
X51101610Y-105114686D01*
X51062318Y-105133008D01*
X51021380Y-105147264D01*
X50996048Y-105159401D01*
X50967617Y-105177166D01*
X50937217Y-105191342D01*
X50913241Y-105205977D01*
X50878984Y-105232549D01*
X50842223Y-105255520D01*
X50820210Y-105272967D01*
X50791407Y-105301569D01*
X50789804Y-105302983D01*
X50764125Y-105328662D01*
X50691503Y-105400779D01*
X50689431Y-105403356D01*
X50058248Y-106034539D01*
X50014455Y-106077424D01*
X49998495Y-106089939D01*
X49884939Y-106203495D01*
X49866258Y-106227319D01*
X49783067Y-106364684D01*
X49770609Y-106392276D01*
X49722585Y-106545520D01*
X49717348Y-106571670D01*
X49711029Y-106640439D01*
X49710500Y-106651968D01*
X49710500Y-107068032D01*
X49711029Y-107079561D01*
X49717348Y-107148330D01*
X49722585Y-107174480D01*
X49770609Y-107327724D01*
X49778000Y-107344094D01*
X49778000Y-108648515D01*
X49753067Y-108689684D01*
X49740609Y-108717276D01*
X49692585Y-108870520D01*
X49687348Y-108896670D01*
X49681029Y-108965439D01*
X49680500Y-108976968D01*
X49680500Y-109393032D01*
X49681029Y-109404561D01*
X49687348Y-109473330D01*
X49692585Y-109499480D01*
X49740609Y-109652724D01*
X49753067Y-109680316D01*
X49833264Y-109812737D01*
X49833264Y-111067623D01*
X49802585Y-111165520D01*
X49797348Y-111191670D01*
X49791029Y-111260439D01*
X49790500Y-111271968D01*
X49790500Y-111688032D01*
X49791029Y-111699561D01*
X49797348Y-111768330D01*
X49802585Y-111794480D01*
X49833264Y-111892377D01*
X49833264Y-113279359D01*
X49833067Y-113279684D01*
X49820609Y-113307276D01*
X49772585Y-113460520D01*
X49767348Y-113486670D01*
X49761029Y-113555439D01*
X49760500Y-113566968D01*
X49760500Y-113983032D01*
X49761029Y-113994561D01*
X49767348Y-114063330D01*
X49772585Y-114089480D01*
X49820609Y-114242724D01*
X49828000Y-114259094D01*
X49828000Y-115585906D01*
X49820609Y-115602276D01*
X49772585Y-115755520D01*
X49767348Y-115781670D01*
X49761029Y-115850439D01*
X49760500Y-115861968D01*
X49760500Y-116278032D01*
X49761029Y-116289561D01*
X49767348Y-116358330D01*
X49772585Y-116384480D01*
X49820609Y-116537724D01*
X49833067Y-116565316D01*
X49916258Y-116702681D01*
X49934939Y-116726505D01*
X50048495Y-116840061D01*
X50072319Y-116858742D01*
X50209684Y-116941933D01*
X50237276Y-116954391D01*
X50390520Y-117002415D01*
X50416670Y-117007652D01*
X50485439Y-117013971D01*
X50496968Y-117014500D01*
X51028032Y-117014500D01*
X51039561Y-117013971D01*
X51108330Y-117007652D01*
X51134480Y-117002415D01*
X51287724Y-116954391D01*
X51315316Y-116941933D01*
X51330000Y-116933040D01*
X51344684Y-116941933D01*
X51372276Y-116954391D01*
X51525520Y-117002415D01*
X51551670Y-117007652D01*
X51620439Y-117013971D01*
X51631968Y-117014500D01*
X52163032Y-117014500D01*
X52174561Y-117013971D01*
X52243330Y-117007652D01*
X52269480Y-117002415D01*
X52422724Y-116954391D01*
X52450316Y-116941933D01*
X52587681Y-116858742D01*
X52611505Y-116840061D01*
X52622066Y-116829500D01*
X53951233Y-116829500D01*
X53973868Y-116831640D01*
X54041945Y-116829500D01*
X54069856Y-116829500D01*
X54085646Y-116828507D01*
X54089657Y-116828000D01*
X54133848Y-116826611D01*
X54165041Y-116821670D01*
X54184492Y-116816019D01*
X54204590Y-116813480D01*
X54235181Y-116805626D01*
X54276295Y-116789348D01*
X54318745Y-116777015D01*
X54347733Y-116764471D01*
X54365169Y-116754159D01*
X54383999Y-116746704D01*
X54411677Y-116731489D01*
X54447447Y-116705501D01*
X54485502Y-116682995D01*
X54510457Y-116663637D01*
X54524778Y-116649316D01*
X54541168Y-116637408D01*
X54564192Y-116615788D01*
X54592383Y-116581711D01*
X54716135Y-116457959D01*
X54741067Y-116537517D01*
X54753525Y-116565110D01*
X54836654Y-116702372D01*
X54855335Y-116726195D01*
X54968805Y-116839665D01*
X54992628Y-116858346D01*
X55129890Y-116941475D01*
X55157483Y-116953933D01*
X55310611Y-117001920D01*
X55336760Y-117007157D01*
X55405472Y-117013471D01*
X55417002Y-117014000D01*
X55428500Y-117014000D01*
X55496621Y-116993998D01*
X55543114Y-116940342D01*
X55554500Y-116888000D01*
X55554500Y-115942000D01*
X55810500Y-115942000D01*
X55810500Y-116888000D01*
X55830502Y-116956121D01*
X55884158Y-117002614D01*
X55936500Y-117014000D01*
X55947998Y-117014000D01*
X55959528Y-117013471D01*
X56028240Y-117007157D01*
X56054389Y-117001920D01*
X56207517Y-116953933D01*
X56235109Y-116941475D01*
X56249518Y-116932748D01*
X56264684Y-116941933D01*
X56292276Y-116954391D01*
X56445520Y-117002415D01*
X56471670Y-117007652D01*
X56540439Y-117013971D01*
X56551968Y-117014500D01*
X57083032Y-117014500D01*
X57094561Y-117013971D01*
X57163330Y-117007652D01*
X57189480Y-117002415D01*
X57342724Y-116954391D01*
X57370317Y-116941933D01*
X57386090Y-116932381D01*
X57398677Y-116935519D01*
X57567351Y-116958025D01*
X57595435Y-116958613D01*
X57764903Y-116943190D01*
X57792419Y-116937542D01*
X57954258Y-116884957D01*
X57979840Y-116873353D01*
X58126008Y-116786219D01*
X58148382Y-116769236D01*
X58271613Y-116651885D01*
X58289669Y-116630366D01*
X58383839Y-116488629D01*
X58396679Y-116463646D01*
X58457107Y-116304569D01*
X58464093Y-116277360D01*
X58487775Y-116108848D01*
X58488989Y-116093075D01*
X58489287Y-116071762D01*
X58488514Y-116055955D01*
X58469546Y-115886847D01*
X58463322Y-115859455D01*
X58407359Y-115698752D01*
X58395222Y-115673419D01*
X58305046Y-115529109D01*
X58287598Y-115507095D01*
X58167692Y-115386348D01*
X58145800Y-115368747D01*
X58099049Y-115339078D01*
X58211613Y-115231885D01*
X58229669Y-115210366D01*
X58323839Y-115068629D01*
X58336679Y-115043646D01*
X58397107Y-114884569D01*
X58404093Y-114857360D01*
X58427775Y-114688848D01*
X58428989Y-114673075D01*
X58429287Y-114651762D01*
X58428514Y-114635955D01*
X58409546Y-114466847D01*
X58403322Y-114439455D01*
X58347359Y-114278752D01*
X58335222Y-114253419D01*
X58245046Y-114109109D01*
X58227598Y-114087095D01*
X58107692Y-113966348D01*
X58085800Y-113948747D01*
X57942122Y-113857566D01*
X57916875Y-113845252D01*
X57756567Y-113788169D01*
X57729218Y-113781754D01*
X57560247Y-113761606D01*
X57532159Y-113761410D01*
X57362923Y-113779197D01*
X57335488Y-113785229D01*
X57174398Y-113840068D01*
X57148981Y-113852029D01*
X57086448Y-113890500D01*
X55528767Y-113890500D01*
X55506132Y-113888360D01*
X55438055Y-113890500D01*
X55410144Y-113890500D01*
X55394354Y-113891493D01*
X55390343Y-113892000D01*
X55346151Y-113893389D01*
X55314959Y-113898330D01*
X55295509Y-113903980D01*
X55275409Y-113906520D01*
X55244820Y-113914374D01*
X55203715Y-113930648D01*
X55161253Y-113942985D01*
X55132268Y-113955528D01*
X55114832Y-113965839D01*
X55095999Y-113973296D01*
X55068323Y-113988512D01*
X55032566Y-114014490D01*
X54994498Y-114037004D01*
X54969542Y-114056363D01*
X54955218Y-114070687D01*
X54938832Y-114082592D01*
X54915808Y-114104213D01*
X54887627Y-114138278D01*
X54618581Y-114407324D01*
X54618514Y-114405955D01*
X54599546Y-114236847D01*
X54593322Y-114209455D01*
X54537359Y-114048752D01*
X54525222Y-114023418D01*
X54507491Y-113995043D01*
X54525829Y-113967443D01*
X54538669Y-113942459D01*
X54599097Y-113783382D01*
X54606083Y-113756173D01*
X54629765Y-113587661D01*
X54630979Y-113571888D01*
X54631277Y-113550575D01*
X54630504Y-113534768D01*
X54611536Y-113365660D01*
X54605312Y-113338268D01*
X54549349Y-113177565D01*
X54537212Y-113152232D01*
X54477564Y-113056776D01*
X54543828Y-112957040D01*
X54556668Y-112932057D01*
X54617096Y-112772980D01*
X54624082Y-112745771D01*
X54647764Y-112577259D01*
X54648978Y-112561486D01*
X54649276Y-112540173D01*
X54648503Y-112524366D01*
X54629535Y-112355258D01*
X54623311Y-112327866D01*
X54567348Y-112167163D01*
X54555211Y-112141829D01*
X54519500Y-112084680D01*
X54519500Y-108851263D01*
X54521639Y-108828633D01*
X54519500Y-108760575D01*
X54519500Y-108732644D01*
X54518506Y-108716846D01*
X54517999Y-108712836D01*
X54516611Y-108668653D01*
X54511670Y-108637459D01*
X54506020Y-108618009D01*
X54503480Y-108597909D01*
X54495625Y-108567318D01*
X54479350Y-108526214D01*
X54467015Y-108483754D01*
X54454471Y-108454766D01*
X54444159Y-108437330D01*
X54436704Y-108418500D01*
X54421488Y-108390822D01*
X54395507Y-108355063D01*
X54372996Y-108316998D01*
X54353637Y-108292042D01*
X54339313Y-108277718D01*
X54327408Y-108261332D01*
X54305787Y-108238308D01*
X54271722Y-108210127D01*
X52996095Y-106934500D01*
X53201308Y-106934500D01*
X53291423Y-106935444D01*
X53319370Y-106932605D01*
X53361735Y-106923445D01*
X53404823Y-106918612D01*
X53432214Y-106912389D01*
X53463890Y-106901358D01*
X53496660Y-106894273D01*
X53523281Y-106885314D01*
X53562568Y-106866994D01*
X53603512Y-106852736D01*
X53628843Y-106840600D01*
X53657285Y-106822828D01*
X53687674Y-106808657D01*
X53711651Y-106794021D01*
X53745902Y-106767453D01*
X53782666Y-106744481D01*
X53804681Y-106727033D01*
X53833484Y-106698431D01*
X53835087Y-106697017D01*
X53860761Y-106671343D01*
X53933388Y-106599221D01*
X53935456Y-106596648D01*
X53951511Y-106580593D01*
X54748000Y-107377082D01*
X54748000Y-107773240D01*
X54742585Y-107790519D01*
X54737348Y-107816670D01*
X54731029Y-107885439D01*
X54730500Y-107896968D01*
X54730500Y-108313032D01*
X54731029Y-108324561D01*
X54737348Y-108393330D01*
X54742585Y-108419481D01*
X54748000Y-108436760D01*
X54748000Y-110068240D01*
X54742585Y-110085519D01*
X54737348Y-110111670D01*
X54731029Y-110180439D01*
X54730500Y-110191968D01*
X54730500Y-110608032D01*
X54731029Y-110619561D01*
X54737348Y-110688330D01*
X54742585Y-110714481D01*
X54748000Y-110731760D01*
X54748000Y-112316088D01*
X54744067Y-112373782D01*
X54744157Y-112375503D01*
X54742585Y-112380520D01*
X54737348Y-112406670D01*
X54731029Y-112475439D01*
X54730500Y-112486968D01*
X54730500Y-112903032D01*
X54731029Y-112914561D01*
X54737348Y-112983330D01*
X54742585Y-113009480D01*
X54790609Y-113162724D01*
X54803067Y-113190316D01*
X54886258Y-113327681D01*
X54904939Y-113351505D01*
X55018495Y-113465061D01*
X55042319Y-113483742D01*
X55179684Y-113566933D01*
X55207276Y-113579391D01*
X55360520Y-113627415D01*
X55386670Y-113632652D01*
X55455439Y-113638971D01*
X55466968Y-113639500D01*
X55998032Y-113639500D01*
X56009561Y-113638971D01*
X56078330Y-113632652D01*
X56104480Y-113627415D01*
X56257724Y-113579391D01*
X56285316Y-113566933D01*
X56300000Y-113558040D01*
X56314684Y-113566933D01*
X56342276Y-113579391D01*
X56495520Y-113627415D01*
X56521670Y-113632652D01*
X56590439Y-113638971D01*
X56601968Y-113639500D01*
X57133032Y-113639500D01*
X57144561Y-113638971D01*
X57213330Y-113632652D01*
X57239480Y-113627415D01*
X57392724Y-113579391D01*
X57420316Y-113566933D01*
X57557681Y-113483742D01*
X57581505Y-113465061D01*
X57695061Y-113351505D01*
X57713742Y-113327681D01*
X57796933Y-113190316D01*
X57809391Y-113162724D01*
X57857415Y-113009480D01*
X57862652Y-112983330D01*
X57868971Y-112914561D01*
X57869500Y-112903032D01*
X57869500Y-112486968D01*
X57868971Y-112475439D01*
X57862652Y-112406670D01*
X57857415Y-112380520D01*
X57809391Y-112227276D01*
X57796933Y-112199684D01*
X57713742Y-112062319D01*
X57695061Y-112038495D01*
X57599351Y-111942785D01*
X57586848Y-111911205D01*
X57574515Y-111868755D01*
X57561971Y-111839767D01*
X57553963Y-111826227D01*
X57549546Y-111786846D01*
X57543322Y-111759455D01*
X57498532Y-111630837D01*
X57627351Y-111648025D01*
X57655435Y-111648613D01*
X57824903Y-111633190D01*
X57852419Y-111627542D01*
X58014258Y-111574957D01*
X58039840Y-111563353D01*
X58186008Y-111476219D01*
X58208382Y-111459236D01*
X58331613Y-111341885D01*
X58349669Y-111320366D01*
X58443839Y-111178629D01*
X58456679Y-111153646D01*
X58517107Y-110994569D01*
X58524093Y-110967360D01*
X58547775Y-110798848D01*
X58548989Y-110783075D01*
X58549287Y-110761762D01*
X58548514Y-110745955D01*
X58529546Y-110576847D01*
X58523322Y-110549455D01*
X58467359Y-110388752D01*
X58455222Y-110363419D01*
X58365046Y-110219109D01*
X58347598Y-110197095D01*
X58227692Y-110076348D01*
X58205800Y-110058747D01*
X58062122Y-109967566D01*
X58036875Y-109955252D01*
X57876567Y-109898169D01*
X57849219Y-109891754D01*
X57784423Y-109884028D01*
X57713742Y-109767319D01*
X57695061Y-109743495D01*
X57581505Y-109629939D01*
X57565128Y-109617098D01*
X57643839Y-109498629D01*
X57656679Y-109473646D01*
X57717107Y-109314569D01*
X57724093Y-109287360D01*
X57747775Y-109118848D01*
X57748989Y-109103075D01*
X57749287Y-109081762D01*
X57748514Y-109065955D01*
X57729546Y-108896847D01*
X57723322Y-108869455D01*
X57688140Y-108768426D01*
X57695061Y-108761505D01*
X57713742Y-108737681D01*
X57796933Y-108600316D01*
X57809391Y-108572724D01*
X57857415Y-108419480D01*
X57862652Y-108393330D01*
X57868971Y-108324561D01*
X57869500Y-108313032D01*
X57869500Y-107896968D01*
X57868971Y-107885439D01*
X57862652Y-107816670D01*
X57857415Y-107790520D01*
X57809391Y-107637276D01*
X57796933Y-107609684D01*
X57713742Y-107472319D01*
X57695061Y-107448495D01*
X57581505Y-107334939D01*
X57557681Y-107316258D01*
X57420316Y-107233067D01*
X57392724Y-107220609D01*
X57239480Y-107172585D01*
X57213330Y-107167348D01*
X57144561Y-107161029D01*
X57133032Y-107160500D01*
X56601968Y-107160500D01*
X56590439Y-107161029D01*
X56521670Y-107167348D01*
X56495520Y-107172585D01*
X56474294Y-107179237D01*
X56512621Y-107018355D01*
X56516044Y-106990475D01*
X56517944Y-106809099D01*
X56515105Y-106781152D01*
X56476773Y-106603863D01*
X56467814Y-106577240D01*
X56391157Y-106412848D01*
X56376522Y-106388872D01*
X56289982Y-106277304D01*
X56279517Y-106265435D01*
X55852680Y-105838598D01*
X56014422Y-105873863D01*
X56031378Y-105876367D01*
X56256853Y-105894112D01*
X56266739Y-105894500D01*
X56422271Y-105894500D01*
X56430841Y-105894208D01*
X56645395Y-105879581D01*
X56662376Y-105877255D01*
X56943893Y-105818956D01*
X56960402Y-105814347D01*
X57231403Y-105718380D01*
X57247133Y-105711573D01*
X57502602Y-105579716D01*
X57517263Y-105570837D01*
X57752474Y-105405528D01*
X57765794Y-105394741D01*
X57976393Y-105199040D01*
X57988126Y-105186546D01*
X58170217Y-104964074D01*
X58180146Y-104950103D01*
X58330360Y-104704977D01*
X58338300Y-104689787D01*
X58453856Y-104426543D01*
X58459662Y-104410417D01*
X58538423Y-104133925D01*
X58541987Y-104117159D01*
X58582494Y-103832537D01*
X58583749Y-103815444D01*
X58585255Y-103527957D01*
X58584179Y-103510851D01*
X58546654Y-103225820D01*
X58543266Y-103209018D01*
X58467405Y-102931716D01*
X58461768Y-102915529D01*
X58348974Y-102651089D01*
X58341193Y-102635818D01*
X58193555Y-102389133D01*
X58183773Y-102375058D01*
X58004021Y-102150691D01*
X57992420Y-102138075D01*
X57783882Y-101940180D01*
X57770675Y-101929255D01*
X57537209Y-101761492D01*
X57522642Y-101752460D01*
X57268567Y-101617934D01*
X57252909Y-101610962D01*
X56982928Y-101512163D01*
X56966469Y-101507381D01*
X56685578Y-101446137D01*
X56668622Y-101443633D01*
X56443147Y-101425888D01*
X56433261Y-101425500D01*
X56277729Y-101425500D01*
X56269159Y-101425792D01*
X56054605Y-101440419D01*
X56037624Y-101442745D01*
X55756107Y-101501044D01*
X55739598Y-101505653D01*
X55468597Y-101601620D01*
X55452867Y-101608427D01*
X55197398Y-101740284D01*
X55182737Y-101749163D01*
X54947526Y-101914472D01*
X54934500Y-101925021D01*
X54934500Y-101709214D01*
X54935444Y-101619099D01*
X54932605Y-101591152D01*
X54923445Y-101548787D01*
X54918612Y-101505699D01*
X54912389Y-101478308D01*
X54901358Y-101446632D01*
X54894273Y-101413862D01*
X54885314Y-101387241D01*
X54866994Y-101347954D01*
X54852736Y-101307010D01*
X54840600Y-101281679D01*
X54822828Y-101253237D01*
X54808657Y-101222848D01*
X54794021Y-101198871D01*
X54767453Y-101164620D01*
X54744481Y-101127856D01*
X54727033Y-101105841D01*
X54698431Y-101077038D01*
X54697017Y-101075435D01*
X54671338Y-101049756D01*
X54599221Y-100977134D01*
X54596644Y-100975062D01*
X53877104Y-100255522D01*
X53917685Y-100104074D01*
X53921499Y-100082444D01*
X53940874Y-99860981D01*
X53940874Y-99839019D01*
X53921499Y-99617556D01*
X53917685Y-99595926D01*
X53860147Y-99381193D01*
X53852635Y-99360554D01*
X53758683Y-99159074D01*
X53747701Y-99140053D01*
X53620190Y-98957948D01*
X53606072Y-98941124D01*
X53448876Y-98783928D01*
X53432052Y-98769810D01*
X53249948Y-98642299D01*
X53230927Y-98631317D01*
X53120285Y-98579724D01*
X53230676Y-98528248D01*
X53249696Y-98517266D01*
X53312875Y-98473028D01*
X53357204Y-98417571D01*
X53364513Y-98346952D01*
X53329700Y-98280720D01*
X52629095Y-97580115D01*
X52566783Y-97546089D01*
X52495968Y-97551154D01*
X52450905Y-97580115D01*
X51750300Y-98280720D01*
X51716274Y-98343032D01*
X51721339Y-98413847D01*
X51767125Y-98473028D01*
X51830304Y-98517266D01*
X51849324Y-98528248D01*
X51959715Y-98579724D01*
X51849074Y-98631317D01*
X51830053Y-98642299D01*
X51647948Y-98769810D01*
X51631124Y-98783928D01*
X51473928Y-98941124D01*
X51459810Y-98957948D01*
X51419512Y-99015500D01*
X49745661Y-99015500D01*
X48780537Y-98050377D01*
X48742510Y-98006786D01*
X48720012Y-97986528D01*
X48667732Y-97949785D01*
X48617464Y-97910370D01*
X48591567Y-97894686D01*
X48585321Y-97891866D01*
X48579714Y-97887925D01*
X48553031Y-97873617D01*
X48493494Y-97850405D01*
X48435279Y-97824119D01*
X48406392Y-97815065D01*
X48399647Y-97813815D01*
X48393258Y-97811324D01*
X48363937Y-97803796D01*
X48300594Y-97795457D01*
X48237776Y-97783814D01*
X48207560Y-97781913D01*
X48145354Y-97785500D01*
X48138498Y-97785500D01*
X48059813Y-97710176D01*
X48115651Y-97675622D01*
X48138521Y-97657496D01*
X48263478Y-97532321D01*
X48281565Y-97509419D01*
X48374375Y-97358854D01*
X48386708Y-97332405D01*
X48390497Y-97320982D01*
X51139628Y-97320982D01*
X51158996Y-97542358D01*
X51162810Y-97563987D01*
X51220325Y-97778636D01*
X51227837Y-97799275D01*
X51321752Y-98000675D01*
X51332733Y-98019694D01*
X51376971Y-98082874D01*
X51432428Y-98127204D01*
X51503047Y-98134514D01*
X51569280Y-98099700D01*
X52269885Y-97399095D01*
X52303911Y-97336783D01*
X52300080Y-97283217D01*
X52776089Y-97283217D01*
X52781154Y-97354032D01*
X52810115Y-97399095D01*
X53510720Y-98099700D01*
X53573032Y-98133726D01*
X53643847Y-98128661D01*
X53703029Y-98082874D01*
X53747267Y-98019694D01*
X53758248Y-98000675D01*
X53852163Y-97799275D01*
X53859675Y-97778636D01*
X53917190Y-97563987D01*
X53921004Y-97542358D01*
X53940372Y-97320982D01*
X53940372Y-97299018D01*
X53921004Y-97077642D01*
X53917190Y-97056013D01*
X53859675Y-96841364D01*
X53852163Y-96820725D01*
X53758248Y-96619325D01*
X53747267Y-96600306D01*
X53703029Y-96537126D01*
X53647572Y-96492796D01*
X53576953Y-96485486D01*
X53510720Y-96520300D01*
X52810115Y-97220905D01*
X52776089Y-97283217D01*
X52300080Y-97283217D01*
X52298846Y-97265968D01*
X52269885Y-97220905D01*
X51569280Y-96520300D01*
X51506968Y-96486274D01*
X51436153Y-96491339D01*
X51376971Y-96537126D01*
X51332733Y-96600306D01*
X51321752Y-96619325D01*
X51227837Y-96820725D01*
X51220325Y-96841364D01*
X51162810Y-97056013D01*
X51158996Y-97077642D01*
X51139628Y-97299018D01*
X51139628Y-97320982D01*
X48390497Y-97320982D01*
X48442390Y-97164528D01*
X48448141Y-97137704D01*
X48458844Y-97033243D01*
X48459500Y-97020400D01*
X48459500Y-96273047D01*
X51715486Y-96273047D01*
X51750300Y-96339280D01*
X52450905Y-97039885D01*
X52513217Y-97073911D01*
X52584032Y-97068846D01*
X52629095Y-97039885D01*
X53329700Y-96339280D01*
X53363726Y-96276968D01*
X53358661Y-96206153D01*
X53332271Y-96172043D01*
X54114745Y-96172043D01*
X54115821Y-96189149D01*
X54153346Y-96474180D01*
X54156734Y-96490982D01*
X54232595Y-96768284D01*
X54238232Y-96784471D01*
X54351026Y-97048911D01*
X54358807Y-97064182D01*
X54506445Y-97310867D01*
X54516227Y-97324942D01*
X54695979Y-97549309D01*
X54707580Y-97561925D01*
X54916118Y-97759820D01*
X54929325Y-97770745D01*
X55162791Y-97938508D01*
X55177358Y-97947540D01*
X55431433Y-98082066D01*
X55447091Y-98089038D01*
X55717072Y-98187837D01*
X55733531Y-98192619D01*
X56014422Y-98253863D01*
X56031378Y-98256367D01*
X56256853Y-98274112D01*
X56266739Y-98274500D01*
X56422271Y-98274500D01*
X56430841Y-98274208D01*
X56645395Y-98259581D01*
X56662376Y-98257255D01*
X56943893Y-98198956D01*
X56960402Y-98194347D01*
X57231403Y-98098380D01*
X57247133Y-98091573D01*
X57502602Y-97959716D01*
X57517263Y-97950837D01*
X57752474Y-97785528D01*
X57765794Y-97774741D01*
X57976393Y-97579040D01*
X57988126Y-97566546D01*
X58170217Y-97344074D01*
X58180146Y-97330103D01*
X58330360Y-97084977D01*
X58338300Y-97069787D01*
X58453856Y-96806543D01*
X58459662Y-96790417D01*
X58538423Y-96513925D01*
X58541987Y-96497159D01*
X58582494Y-96212537D01*
X58583749Y-96195444D01*
X58585255Y-95907957D01*
X58584179Y-95890851D01*
X58546654Y-95605820D01*
X58543266Y-95589018D01*
X58467405Y-95311716D01*
X58461768Y-95295529D01*
X58348974Y-95031089D01*
X58341193Y-95015818D01*
X58193555Y-94769133D01*
X58183773Y-94755058D01*
X58004021Y-94530691D01*
X57992420Y-94518075D01*
X57783882Y-94320180D01*
X57770675Y-94309255D01*
X57537209Y-94141492D01*
X57522642Y-94132460D01*
X57268567Y-93997934D01*
X57252909Y-93990962D01*
X56982928Y-93892163D01*
X56966469Y-93887381D01*
X56685578Y-93826137D01*
X56668622Y-93823633D01*
X56443147Y-93805888D01*
X56433261Y-93805500D01*
X56277729Y-93805500D01*
X56269159Y-93805792D01*
X56054605Y-93820419D01*
X56037624Y-93822745D01*
X55756107Y-93881044D01*
X55739598Y-93885653D01*
X55468597Y-93981620D01*
X55452867Y-93988427D01*
X55197398Y-94120284D01*
X55182737Y-94129163D01*
X54947526Y-94294472D01*
X54934206Y-94305259D01*
X54723607Y-94500960D01*
X54711874Y-94513454D01*
X54529783Y-94735926D01*
X54519854Y-94749897D01*
X54369640Y-94995023D01*
X54361700Y-95010213D01*
X54246144Y-95273457D01*
X54240338Y-95289583D01*
X54161577Y-95566075D01*
X54158013Y-95582841D01*
X54117506Y-95867463D01*
X54116251Y-95884556D01*
X54114745Y-96172043D01*
X53332271Y-96172043D01*
X53312875Y-96146972D01*
X53249696Y-96102734D01*
X53230676Y-96091752D01*
X53029275Y-95997837D01*
X53008636Y-95990325D01*
X52793987Y-95932810D01*
X52772358Y-95928996D01*
X52550982Y-95909628D01*
X52529018Y-95909628D01*
X52307642Y-95928996D01*
X52286013Y-95932810D01*
X52071364Y-95990325D01*
X52050725Y-95997837D01*
X51849325Y-96091752D01*
X51830306Y-96102733D01*
X51767126Y-96146971D01*
X51722796Y-96202428D01*
X51715486Y-96273047D01*
X48459500Y-96273047D01*
X48459500Y-96219600D01*
X48458827Y-96206596D01*
X48447853Y-96100830D01*
X48442050Y-96073958D01*
X48386074Y-95906178D01*
X48373694Y-95879751D01*
X48280622Y-95729349D01*
X48262496Y-95706479D01*
X48137321Y-95581522D01*
X48114419Y-95563435D01*
X47963854Y-95470625D01*
X47937405Y-95458292D01*
X47769528Y-95402610D01*
X47742704Y-95396859D01*
X47638243Y-95386156D01*
X47625400Y-95385500D01*
X46274600Y-95385500D01*
X46261596Y-95386173D01*
X46155830Y-95397147D01*
X46128958Y-95402950D01*
X45961178Y-95458926D01*
X45934751Y-95471306D01*
X45784349Y-95564378D01*
X45761479Y-95582504D01*
X45636522Y-95707679D01*
X45618435Y-95730581D01*
X45525625Y-95881146D01*
X45513292Y-95907595D01*
X45457610Y-96075472D01*
X45451859Y-96102296D01*
X45441156Y-96206757D01*
X45440500Y-96219600D01*
X45440500Y-97020400D01*
X45441173Y-97033404D01*
X45452147Y-97139170D01*
X45457950Y-97166042D01*
X45513926Y-97333822D01*
X45526306Y-97360249D01*
X45619378Y-97510651D01*
X45637504Y-97533521D01*
X45762679Y-97658478D01*
X45785581Y-97676565D01*
X45837120Y-97708334D01*
X45829247Y-97714518D01*
X45811915Y-97731024D01*
X45673283Y-97890783D01*
X45659384Y-97910268D01*
X45553463Y-98093359D01*
X45543499Y-98115121D01*
X45474111Y-98314938D01*
X45468443Y-98338191D01*
X45438091Y-98547524D01*
X45436922Y-98571430D01*
X44304000Y-98571430D01*
X44304000Y-89508241D01*
X54330817Y-89508241D01*
X54350609Y-89810207D01*
X54352760Y-89826547D01*
X54411797Y-90123347D01*
X54416063Y-90139267D01*
X54513335Y-90425821D01*
X54519642Y-90441048D01*
X54653485Y-90712454D01*
X54661726Y-90726728D01*
X54829849Y-90978343D01*
X54839882Y-90991419D01*
X55039410Y-91218936D01*
X55051064Y-91230590D01*
X55278581Y-91430118D01*
X55291657Y-91440151D01*
X55543271Y-91608274D01*
X55557545Y-91616515D01*
X55828952Y-91750358D01*
X55844179Y-91756665D01*
X56130733Y-91853937D01*
X56146653Y-91858203D01*
X56443453Y-91917240D01*
X56459793Y-91919391D01*
X56761759Y-91939183D01*
X56778241Y-91939183D01*
X57080207Y-91919391D01*
X57096547Y-91917240D01*
X57393347Y-91858203D01*
X57409267Y-91853937D01*
X57695821Y-91756665D01*
X57711048Y-91750358D01*
X57982455Y-91616515D01*
X57996729Y-91608274D01*
X58248343Y-91440151D01*
X58261419Y-91430118D01*
X58488936Y-91230590D01*
X58500590Y-91218936D01*
X58700118Y-90991419D01*
X58710151Y-90978343D01*
X58878274Y-90726728D01*
X58886515Y-90712454D01*
X59020358Y-90441048D01*
X59026665Y-90425821D01*
X59123937Y-90139267D01*
X59128203Y-90123347D01*
X59187240Y-89826547D01*
X59189391Y-89810207D01*
X59209183Y-89508241D01*
X59209183Y-89491759D01*
X59189391Y-89189793D01*
X59187240Y-89173453D01*
X59128203Y-88876653D01*
X59123937Y-88860733D01*
X59026665Y-88574179D01*
X59020358Y-88558952D01*
X58886515Y-88287546D01*
X58878274Y-88273272D01*
X58710151Y-88021657D01*
X58700118Y-88008581D01*
X58500590Y-87781064D01*
X58488936Y-87769410D01*
X58261419Y-87569882D01*
X58248343Y-87559849D01*
X57996729Y-87391726D01*
X57982455Y-87383485D01*
X57711048Y-87249642D01*
X57695821Y-87243335D01*
X57409267Y-87146063D01*
X57393347Y-87141797D01*
X57096547Y-87082760D01*
X57080207Y-87080609D01*
X56778241Y-87060817D01*
X56761759Y-87060817D01*
X56459793Y-87080609D01*
X56443453Y-87082760D01*
X56146653Y-87141797D01*
X56130733Y-87146063D01*
X55844179Y-87243335D01*
X55828952Y-87249642D01*
X55557546Y-87383485D01*
X55543272Y-87391726D01*
X55291657Y-87559849D01*
X55278581Y-87569882D01*
X55051064Y-87769410D01*
X55039410Y-87781064D01*
X54839882Y-88008581D01*
X54829849Y-88021657D01*
X54661726Y-88273272D01*
X54653485Y-88287546D01*
X54519642Y-88558952D01*
X54513335Y-88574179D01*
X54416063Y-88860733D01*
X54411797Y-88876653D01*
X54352760Y-89173453D01*
X54350609Y-89189793D01*
X54330817Y-89491759D01*
X54330817Y-89508241D01*
X44304000Y-89508241D01*
X44304000Y-86634000D01*
X60636000Y-86634000D01*
X60636000Y-125366000D02*
X60636000Y-86634000D01*
%TA.AperFunction,Conductor*%
G36*
X60636000Y-125366000D02*
G01*
X44304000Y-125366000D01*
X44304000Y-122508241D01*
X54330817Y-122508241D01*
X54350609Y-122810207D01*
X54352760Y-122826547D01*
X54411797Y-123123347D01*
X54416063Y-123139267D01*
X54513335Y-123425821D01*
X54519642Y-123441048D01*
X54653485Y-123712454D01*
X54661726Y-123726728D01*
X54829849Y-123978343D01*
X54839882Y-123991419D01*
X55039410Y-124218936D01*
X55051064Y-124230590D01*
X55278581Y-124430118D01*
X55291657Y-124440151D01*
X55543271Y-124608274D01*
X55557545Y-124616515D01*
X55828952Y-124750358D01*
X55844179Y-124756665D01*
X56130733Y-124853937D01*
X56146653Y-124858203D01*
X56443453Y-124917240D01*
X56459793Y-124919391D01*
X56761759Y-124939183D01*
X56778241Y-124939183D01*
X57080207Y-124919391D01*
X57096547Y-124917240D01*
X57393347Y-124858203D01*
X57409267Y-124853937D01*
X57695821Y-124756665D01*
X57711048Y-124750358D01*
X57982455Y-124616515D01*
X57996729Y-124608274D01*
X58248343Y-124440151D01*
X58261419Y-124430118D01*
X58488936Y-124230590D01*
X58500590Y-124218936D01*
X58700118Y-123991419D01*
X58710151Y-123978343D01*
X58878274Y-123726728D01*
X58886515Y-123712454D01*
X59020358Y-123441048D01*
X59026665Y-123425821D01*
X59123937Y-123139267D01*
X59128203Y-123123347D01*
X59187240Y-122826547D01*
X59189391Y-122810207D01*
X59209183Y-122508241D01*
X59209183Y-122491759D01*
X59189391Y-122189793D01*
X59187240Y-122173453D01*
X59128203Y-121876653D01*
X59123937Y-121860733D01*
X59026665Y-121574179D01*
X59020358Y-121558952D01*
X58886515Y-121287546D01*
X58878274Y-121273272D01*
X58710151Y-121021657D01*
X58700118Y-121008581D01*
X58500590Y-120781064D01*
X58488936Y-120769410D01*
X58261419Y-120569882D01*
X58248343Y-120559849D01*
X57996729Y-120391726D01*
X57982455Y-120383485D01*
X57711048Y-120249642D01*
X57695821Y-120243335D01*
X57409267Y-120146063D01*
X57393347Y-120141797D01*
X57096547Y-120082760D01*
X57080207Y-120080609D01*
X56778241Y-120060817D01*
X56761759Y-120060817D01*
X56459793Y-120080609D01*
X56443453Y-120082760D01*
X56146653Y-120141797D01*
X56130733Y-120146063D01*
X55844179Y-120243335D01*
X55828952Y-120249642D01*
X55557546Y-120383485D01*
X55543272Y-120391726D01*
X55291657Y-120559849D01*
X55278581Y-120569882D01*
X55051064Y-120769410D01*
X55039410Y-120781064D01*
X54839882Y-121008581D01*
X54829849Y-121021657D01*
X54661726Y-121273272D01*
X54653485Y-121287546D01*
X54519642Y-121558952D01*
X54513335Y-121574179D01*
X54416063Y-121860733D01*
X54411797Y-121876653D01*
X54352760Y-122173453D01*
X54350609Y-122189793D01*
X54330817Y-122491759D01*
X54330817Y-122508241D01*
X44304000Y-122508241D01*
X44304000Y-114571430D01*
X45436922Y-114571430D01*
X45446702Y-114782725D01*
X45450074Y-114806420D01*
X45499632Y-115012055D01*
X45507424Y-115034685D01*
X45594973Y-115227238D01*
X45606904Y-115247987D01*
X45729284Y-115420511D01*
X45744923Y-115438629D01*
X45897719Y-115584899D01*
X45916502Y-115599733D01*
X46094200Y-115714472D01*
X46115450Y-115725486D01*
X46311639Y-115804552D01*
X46334587Y-115811350D01*
X46542187Y-115851892D01*
X46560183Y-115854078D01*
X46565745Y-115854350D01*
X46571899Y-115854500D01*
X47277846Y-115854500D01*
X47289813Y-115853930D01*
X47447533Y-115838882D01*
X47471035Y-115834357D01*
X47674003Y-115774813D01*
X47696226Y-115765924D01*
X47884272Y-115669074D01*
X47904413Y-115656144D01*
X48070753Y-115525482D01*
X48088085Y-115508976D01*
X48226717Y-115349217D01*
X48240616Y-115329732D01*
X48346537Y-115146641D01*
X48356501Y-115124879D01*
X48425889Y-114925062D01*
X48431557Y-114901809D01*
X48461909Y-114692476D01*
X48463078Y-114668570D01*
X48453298Y-114457275D01*
X48449926Y-114433580D01*
X48400368Y-114227945D01*
X48392576Y-114205315D01*
X48305027Y-114012762D01*
X48293096Y-113992013D01*
X48170716Y-113819489D01*
X48155077Y-113801371D01*
X48002281Y-113655101D01*
X47983498Y-113640267D01*
X47950742Y-113619116D01*
X48070407Y-113525118D01*
X48087739Y-113508613D01*
X48226308Y-113348927D01*
X48240207Y-113329441D01*
X48346080Y-113146432D01*
X48356044Y-113124670D01*
X48425401Y-112924943D01*
X48431070Y-112901685D01*
X48432463Y-112892075D01*
X48422440Y-112821790D01*
X48376009Y-112768081D01*
X48307766Y-112748000D01*
X45596483Y-112748000D01*
X45528362Y-112768002D01*
X45481869Y-112821658D01*
X45471765Y-112891932D01*
X45473990Y-112903521D01*
X45500107Y-113011891D01*
X45507899Y-113034521D01*
X45595408Y-113226988D01*
X45607339Y-113247737D01*
X45729664Y-113420183D01*
X45745303Y-113438301D01*
X45898030Y-113584505D01*
X45916813Y-113599339D01*
X45949230Y-113620270D01*
X45829247Y-113714518D01*
X45811915Y-113731024D01*
X45673283Y-113890783D01*
X45659384Y-113910268D01*
X45553463Y-114093359D01*
X45543499Y-114115121D01*
X45474111Y-114314938D01*
X45468443Y-114338191D01*
X45438091Y-114547524D01*
X45436922Y-114571430D01*
X44304000Y-114571430D01*
X44304000Y-110571430D01*
X45436922Y-110571430D01*
X45446702Y-110782725D01*
X45450074Y-110806420D01*
X45499632Y-111012055D01*
X45507424Y-111034685D01*
X45594973Y-111227238D01*
X45606904Y-111247987D01*
X45729284Y-111420511D01*
X45744923Y-111438629D01*
X45897719Y-111584899D01*
X45916502Y-111599733D01*
X45949258Y-111620884D01*
X45829593Y-111714882D01*
X45812261Y-111731387D01*
X45673692Y-111891073D01*
X45659793Y-111910559D01*
X45553920Y-112093568D01*
X45543956Y-112115330D01*
X45474599Y-112315057D01*
X45468930Y-112338315D01*
X45467537Y-112347925D01*
X45477560Y-112418210D01*
X45523991Y-112471919D01*
X45592234Y-112492000D01*
X48303517Y-112492000D01*
X48371638Y-112471998D01*
X48418131Y-112418342D01*
X48428235Y-112348068D01*
X48426010Y-112336479D01*
X48399893Y-112228109D01*
X48392101Y-112205479D01*
X48304592Y-112013012D01*
X48292661Y-111992263D01*
X48170336Y-111819817D01*
X48154697Y-111801699D01*
X48001970Y-111655495D01*
X47983187Y-111640661D01*
X47950770Y-111619730D01*
X48070753Y-111525482D01*
X48088085Y-111508976D01*
X48226717Y-111349217D01*
X48240616Y-111329732D01*
X48346537Y-111146641D01*
X48356501Y-111124879D01*
X48425889Y-110925062D01*
X48431557Y-110901809D01*
X48461909Y-110692476D01*
X48463078Y-110668570D01*
X48453298Y-110457275D01*
X48449926Y-110433580D01*
X48400368Y-110227945D01*
X48392576Y-110205315D01*
X48305027Y-110012762D01*
X48293096Y-109992013D01*
X48170716Y-109819489D01*
X48155077Y-109801371D01*
X48002281Y-109655101D01*
X47983498Y-109640267D01*
X47950742Y-109619116D01*
X48070407Y-109525118D01*
X48087739Y-109508613D01*
X48226308Y-109348927D01*
X48240207Y-109329441D01*
X48346080Y-109146432D01*
X48356044Y-109124670D01*
X48425401Y-108924943D01*
X48431070Y-108901685D01*
X48432463Y-108892075D01*
X48422440Y-108821790D01*
X48376009Y-108768081D01*
X48307766Y-108748000D01*
X45596483Y-108748000D01*
X45528362Y-108768002D01*
X45481869Y-108821658D01*
X45471765Y-108891932D01*
X45473990Y-108903521D01*
X45500107Y-109011891D01*
X45507899Y-109034521D01*
X45595408Y-109226988D01*
X45607339Y-109247737D01*
X45729664Y-109420183D01*
X45745303Y-109438301D01*
X45898030Y-109584505D01*
X45916813Y-109599339D01*
X45949230Y-109620270D01*
X45829247Y-109714518D01*
X45811915Y-109731024D01*
X45673283Y-109890783D01*
X45659384Y-109910268D01*
X45553463Y-110093359D01*
X45543499Y-110115121D01*
X45474111Y-110314938D01*
X45468443Y-110338191D01*
X45438091Y-110547524D01*
X45436922Y-110571430D01*
X44304000Y-110571430D01*
X44304000Y-106571430D01*
X45436922Y-106571430D01*
X45446702Y-106782725D01*
X45450074Y-106806420D01*
X45499632Y-107012055D01*
X45507424Y-107034685D01*
X45594973Y-107227238D01*
X45606904Y-107247987D01*
X45729284Y-107420511D01*
X45744923Y-107438629D01*
X45897719Y-107584899D01*
X45916502Y-107599733D01*
X45949258Y-107620884D01*
X45829593Y-107714882D01*
X45812261Y-107731387D01*
X45673692Y-107891073D01*
X45659793Y-107910559D01*
X45553920Y-108093568D01*
X45543956Y-108115330D01*
X45474599Y-108315057D01*
X45468930Y-108338315D01*
X45467537Y-108347925D01*
X45477560Y-108418210D01*
X45523991Y-108471919D01*
X45592234Y-108492000D01*
X48303517Y-108492000D01*
X48371638Y-108471998D01*
X48418131Y-108418342D01*
X48428235Y-108348068D01*
X48426010Y-108336479D01*
X48399893Y-108228109D01*
X48392101Y-108205479D01*
X48304592Y-108013012D01*
X48292661Y-107992263D01*
X48170336Y-107819817D01*
X48154697Y-107801699D01*
X48001970Y-107655495D01*
X47983187Y-107640661D01*
X47950770Y-107619730D01*
X48070753Y-107525482D01*
X48088085Y-107508976D01*
X48226717Y-107349217D01*
X48240616Y-107329732D01*
X48346537Y-107146641D01*
X48356501Y-107124879D01*
X48425889Y-106925062D01*
X48431557Y-106901809D01*
X48461909Y-106692476D01*
X48463078Y-106668570D01*
X48453298Y-106457275D01*
X48449926Y-106433580D01*
X48400368Y-106227945D01*
X48392576Y-106205315D01*
X48305027Y-106012762D01*
X48293096Y-105992013D01*
X48170716Y-105819489D01*
X48155077Y-105801371D01*
X48002281Y-105655101D01*
X47983498Y-105640267D01*
X47950742Y-105619116D01*
X48070407Y-105525118D01*
X48087739Y-105508613D01*
X48226308Y-105348927D01*
X48240207Y-105329441D01*
X48346080Y-105146432D01*
X48356044Y-105124670D01*
X48425401Y-104924943D01*
X48431070Y-104901685D01*
X48432463Y-104892075D01*
X48422440Y-104821790D01*
X48376009Y-104768081D01*
X48307766Y-104748000D01*
X45596483Y-104748000D01*
X45528362Y-104768002D01*
X45481869Y-104821658D01*
X45471765Y-104891932D01*
X45473990Y-104903521D01*
X45500107Y-105011891D01*
X45507899Y-105034521D01*
X45595408Y-105226988D01*
X45607339Y-105247737D01*
X45729664Y-105420183D01*
X45745303Y-105438301D01*
X45898030Y-105584505D01*
X45916813Y-105599339D01*
X45949230Y-105620270D01*
X45829247Y-105714518D01*
X45811915Y-105731024D01*
X45673283Y-105890783D01*
X45659384Y-105910268D01*
X45553463Y-106093359D01*
X45543499Y-106115121D01*
X45474111Y-106314938D01*
X45468443Y-106338191D01*
X45438091Y-106547524D01*
X45436922Y-106571430D01*
X44304000Y-106571430D01*
X44304000Y-102571430D01*
X45436922Y-102571430D01*
X45446702Y-102782725D01*
X45450074Y-102806420D01*
X45499632Y-103012055D01*
X45507424Y-103034685D01*
X45594973Y-103227238D01*
X45606904Y-103247987D01*
X45729284Y-103420511D01*
X45744923Y-103438629D01*
X45897719Y-103584899D01*
X45916502Y-103599733D01*
X45949258Y-103620884D01*
X45829593Y-103714882D01*
X45812261Y-103731387D01*
X45673692Y-103891073D01*
X45659793Y-103910559D01*
X45553920Y-104093568D01*
X45543956Y-104115330D01*
X45474599Y-104315057D01*
X45468930Y-104338315D01*
X45467537Y-104347925D01*
X45477560Y-104418210D01*
X45523991Y-104471919D01*
X45592234Y-104492000D01*
X48303517Y-104492000D01*
X48371638Y-104471998D01*
X48418131Y-104418342D01*
X48428235Y-104348068D01*
X48426010Y-104336479D01*
X48399893Y-104228109D01*
X48392101Y-104205479D01*
X48304592Y-104013012D01*
X48292661Y-103992263D01*
X48170336Y-103819817D01*
X48154697Y-103801699D01*
X48001970Y-103655495D01*
X47983187Y-103640661D01*
X47950770Y-103619730D01*
X48070753Y-103525482D01*
X48088085Y-103508976D01*
X48226717Y-103349217D01*
X48240616Y-103329732D01*
X48346537Y-103146641D01*
X48356501Y-103124879D01*
X48425889Y-102925062D01*
X48431557Y-102901809D01*
X48461909Y-102692476D01*
X48463078Y-102668570D01*
X48453298Y-102457275D01*
X48449926Y-102433580D01*
X48400368Y-102227945D01*
X48392576Y-102205315D01*
X48305027Y-102012762D01*
X48293096Y-101992013D01*
X48170716Y-101819489D01*
X48155077Y-101801371D01*
X48002281Y-101655101D01*
X47983498Y-101640267D01*
X47950742Y-101619116D01*
X48070407Y-101525118D01*
X48087739Y-101508613D01*
X48226308Y-101348927D01*
X48240207Y-101329441D01*
X48346080Y-101146432D01*
X48356044Y-101124670D01*
X48425401Y-100924943D01*
X48431070Y-100901685D01*
X48432463Y-100892075D01*
X48422440Y-100821790D01*
X48376009Y-100768081D01*
X48307766Y-100748000D01*
X45596483Y-100748000D01*
X45528362Y-100768002D01*
X45481869Y-100821658D01*
X45471765Y-100891932D01*
X45473990Y-100903521D01*
X45500107Y-101011891D01*
X45507899Y-101034521D01*
X45595408Y-101226988D01*
X45607339Y-101247737D01*
X45729664Y-101420183D01*
X45745303Y-101438301D01*
X45898030Y-101584505D01*
X45916813Y-101599339D01*
X45949230Y-101620270D01*
X45829247Y-101714518D01*
X45811915Y-101731024D01*
X45673283Y-101890783D01*
X45659384Y-101910268D01*
X45553463Y-102093359D01*
X45543499Y-102115121D01*
X45474111Y-102314938D01*
X45468443Y-102338191D01*
X45438091Y-102547524D01*
X45436922Y-102571430D01*
X44304000Y-102571430D01*
X44304000Y-98571430D01*
X45436922Y-98571430D01*
X45446702Y-98782725D01*
X45450074Y-98806420D01*
X45499632Y-99012055D01*
X45507424Y-99034685D01*
X45594973Y-99227238D01*
X45606904Y-99247987D01*
X45729284Y-99420511D01*
X45744923Y-99438629D01*
X45897719Y-99584899D01*
X45916502Y-99599733D01*
X45949258Y-99620884D01*
X45829593Y-99714882D01*
X45812261Y-99731387D01*
X45673692Y-99891073D01*
X45659793Y-99910559D01*
X45553920Y-100093568D01*
X45543956Y-100115330D01*
X45474599Y-100315057D01*
X45468930Y-100338315D01*
X45467537Y-100347925D01*
X45477560Y-100418210D01*
X45523991Y-100471919D01*
X45592234Y-100492000D01*
X48303517Y-100492000D01*
X48371638Y-100471998D01*
X48418131Y-100418342D01*
X48428235Y-100348068D01*
X48426010Y-100336479D01*
X48399893Y-100228109D01*
X48392101Y-100205479D01*
X48304592Y-100013012D01*
X48292661Y-99992263D01*
X48170336Y-99819817D01*
X48154697Y-99801699D01*
X48001970Y-99655495D01*
X47983187Y-99640661D01*
X47950770Y-99619730D01*
X47972500Y-99602660D01*
X48789455Y-100419615D01*
X48827490Y-100463215D01*
X48849989Y-100483472D01*
X48902247Y-100520199D01*
X48952534Y-100559630D01*
X48978430Y-100575313D01*
X48984679Y-100578135D01*
X48990290Y-100582078D01*
X49016969Y-100596383D01*
X49076499Y-100619593D01*
X49134723Y-100645882D01*
X49163608Y-100654935D01*
X49170353Y-100656185D01*
X49176742Y-100658676D01*
X49206063Y-100666204D01*
X49269408Y-100674543D01*
X49332225Y-100686186D01*
X49362440Y-100688087D01*
X49424651Y-100684500D01*
X51419512Y-100684500D01*
X51459810Y-100742052D01*
X51473928Y-100758876D01*
X51631124Y-100916072D01*
X51647948Y-100930190D01*
X51830052Y-101057701D01*
X51849073Y-101068683D01*
X51959123Y-101120000D01*
X51849074Y-101171317D01*
X51830053Y-101182299D01*
X51647948Y-101309810D01*
X51631124Y-101323928D01*
X51473928Y-101481124D01*
X51459810Y-101497948D01*
X51332299Y-101680053D01*
X51321317Y-101699074D01*
X51227365Y-101900554D01*
X51219853Y-101921193D01*
X51162315Y-102135926D01*
X51158501Y-102157556D01*
X51139126Y-102379019D01*
X51139126Y-102400981D01*
X51158501Y-102622444D01*
X51162315Y-102644074D01*
X51219853Y-102858807D01*
X51227365Y-102879446D01*
X51321317Y-103080926D01*
X51332299Y-103099947D01*
X51459810Y-103282052D01*
X51473928Y-103298876D01*
X51631124Y-103456072D01*
X51647948Y-103470190D01*
X51830052Y-103597701D01*
X51849073Y-103608683D01*
X52050554Y-103702635D01*
X52071193Y-103710147D01*
X52285926Y-103767685D01*
X52307556Y-103771499D01*
X52529019Y-103790874D01*
X52550981Y-103790874D01*
X52772444Y-103771499D01*
X52794074Y-103767685D01*
X53008807Y-103710147D01*
X53029446Y-103702635D01*
X53065500Y-103685823D01*
X53065500Y-104823440D01*
X52823440Y-105065500D01*
X51423629Y-105065500D01*
X51333467Y-105064556D01*
X51305521Y-105067395D01*
X51263156Y-105076555D01*
X51220068Y-105081388D01*
X51192677Y-105087611D01*
X51161001Y-105098642D01*
X51128231Y-105105727D01*
X51101610Y-105114686D01*
X51062318Y-105133008D01*
X51021380Y-105147264D01*
X50996048Y-105159401D01*
X50967617Y-105177166D01*
X50937217Y-105191342D01*
X50913241Y-105205977D01*
X50878984Y-105232549D01*
X50842223Y-105255520D01*
X50820210Y-105272967D01*
X50791407Y-105301569D01*
X50789804Y-105302983D01*
X50764125Y-105328662D01*
X50691503Y-105400779D01*
X50689431Y-105403356D01*
X50058248Y-106034539D01*
X50014455Y-106077424D01*
X49998495Y-106089939D01*
X49884939Y-106203495D01*
X49866258Y-106227319D01*
X49783067Y-106364684D01*
X49770609Y-106392276D01*
X49722585Y-106545520D01*
X49717348Y-106571670D01*
X49711029Y-106640439D01*
X49710500Y-106651968D01*
X49710500Y-107068032D01*
X49711029Y-107079561D01*
X49717348Y-107148330D01*
X49722585Y-107174480D01*
X49770609Y-107327724D01*
X49778000Y-107344094D01*
X49778000Y-108648515D01*
X49753067Y-108689684D01*
X49740609Y-108717276D01*
X49692585Y-108870520D01*
X49687348Y-108896670D01*
X49681029Y-108965439D01*
X49680500Y-108976968D01*
X49680500Y-109393032D01*
X49681029Y-109404561D01*
X49687348Y-109473330D01*
X49692585Y-109499480D01*
X49740609Y-109652724D01*
X49753067Y-109680316D01*
X49833264Y-109812737D01*
X49833264Y-111067623D01*
X49802585Y-111165520D01*
X49797348Y-111191670D01*
X49791029Y-111260439D01*
X49790500Y-111271968D01*
X49790500Y-111688032D01*
X49791029Y-111699561D01*
X49797348Y-111768330D01*
X49802585Y-111794480D01*
X49833264Y-111892377D01*
X49833264Y-113279359D01*
X49833067Y-113279684D01*
X49820609Y-113307276D01*
X49772585Y-113460520D01*
X49767348Y-113486670D01*
X49761029Y-113555439D01*
X49760500Y-113566968D01*
X49760500Y-113983032D01*
X49761029Y-113994561D01*
X49767348Y-114063330D01*
X49772585Y-114089480D01*
X49820609Y-114242724D01*
X49828000Y-114259094D01*
X49828000Y-115585906D01*
X49820609Y-115602276D01*
X49772585Y-115755520D01*
X49767348Y-115781670D01*
X49761029Y-115850439D01*
X49760500Y-115861968D01*
X49760500Y-116278032D01*
X49761029Y-116289561D01*
X49767348Y-116358330D01*
X49772585Y-116384480D01*
X49820609Y-116537724D01*
X49833067Y-116565316D01*
X49916258Y-116702681D01*
X49934939Y-116726505D01*
X50048495Y-116840061D01*
X50072319Y-116858742D01*
X50209684Y-116941933D01*
X50237276Y-116954391D01*
X50390520Y-117002415D01*
X50416670Y-117007652D01*
X50485439Y-117013971D01*
X50496968Y-117014500D01*
X51028032Y-117014500D01*
X51039561Y-117013971D01*
X51108330Y-117007652D01*
X51134480Y-117002415D01*
X51287724Y-116954391D01*
X51315316Y-116941933D01*
X51330000Y-116933040D01*
X51344684Y-116941933D01*
X51372276Y-116954391D01*
X51525520Y-117002415D01*
X51551670Y-117007652D01*
X51620439Y-117013971D01*
X51631968Y-117014500D01*
X52163032Y-117014500D01*
X52174561Y-117013971D01*
X52243330Y-117007652D01*
X52269480Y-117002415D01*
X52422724Y-116954391D01*
X52450316Y-116941933D01*
X52587681Y-116858742D01*
X52611505Y-116840061D01*
X52622066Y-116829500D01*
X53951233Y-116829500D01*
X53973868Y-116831640D01*
X54041945Y-116829500D01*
X54069856Y-116829500D01*
X54085646Y-116828507D01*
X54089657Y-116828000D01*
X54133848Y-116826611D01*
X54165041Y-116821670D01*
X54184492Y-116816019D01*
X54204590Y-116813480D01*
X54235181Y-116805626D01*
X54276295Y-116789348D01*
X54318745Y-116777015D01*
X54347733Y-116764471D01*
X54365169Y-116754159D01*
X54383999Y-116746704D01*
X54411677Y-116731489D01*
X54447447Y-116705501D01*
X54485502Y-116682995D01*
X54510457Y-116663637D01*
X54524778Y-116649316D01*
X54541168Y-116637408D01*
X54564192Y-116615788D01*
X54592383Y-116581711D01*
X54716135Y-116457959D01*
X54741067Y-116537517D01*
X54753525Y-116565110D01*
X54836654Y-116702372D01*
X54855335Y-116726195D01*
X54968805Y-116839665D01*
X54992628Y-116858346D01*
X55129890Y-116941475D01*
X55157483Y-116953933D01*
X55310611Y-117001920D01*
X55336760Y-117007157D01*
X55405472Y-117013471D01*
X55417002Y-117014000D01*
X55428500Y-117014000D01*
X55496621Y-116993998D01*
X55543114Y-116940342D01*
X55554500Y-116888000D01*
X55554500Y-115942000D01*
X55810500Y-115942000D01*
X55810500Y-116888000D01*
X55830502Y-116956121D01*
X55884158Y-117002614D01*
X55936500Y-117014000D01*
X55947998Y-117014000D01*
X55959528Y-117013471D01*
X56028240Y-117007157D01*
X56054389Y-117001920D01*
X56207517Y-116953933D01*
X56235109Y-116941475D01*
X56249518Y-116932748D01*
X56264684Y-116941933D01*
X56292276Y-116954391D01*
X56445520Y-117002415D01*
X56471670Y-117007652D01*
X56540439Y-117013971D01*
X56551968Y-117014500D01*
X57083032Y-117014500D01*
X57094561Y-117013971D01*
X57163330Y-117007652D01*
X57189480Y-117002415D01*
X57342724Y-116954391D01*
X57370317Y-116941933D01*
X57386090Y-116932381D01*
X57398677Y-116935519D01*
X57567351Y-116958025D01*
X57595435Y-116958613D01*
X57764903Y-116943190D01*
X57792419Y-116937542D01*
X57954258Y-116884957D01*
X57979840Y-116873353D01*
X58126008Y-116786219D01*
X58148382Y-116769236D01*
X58271613Y-116651885D01*
X58289669Y-116630366D01*
X58383839Y-116488629D01*
X58396679Y-116463646D01*
X58457107Y-116304569D01*
X58464093Y-116277360D01*
X58487775Y-116108848D01*
X58488989Y-116093075D01*
X58489287Y-116071762D01*
X58488514Y-116055955D01*
X58469546Y-115886847D01*
X58463322Y-115859455D01*
X58407359Y-115698752D01*
X58395222Y-115673419D01*
X58305046Y-115529109D01*
X58287598Y-115507095D01*
X58167692Y-115386348D01*
X58145800Y-115368747D01*
X58099049Y-115339078D01*
X58211613Y-115231885D01*
X58229669Y-115210366D01*
X58323839Y-115068629D01*
X58336679Y-115043646D01*
X58397107Y-114884569D01*
X58404093Y-114857360D01*
X58427775Y-114688848D01*
X58428989Y-114673075D01*
X58429287Y-114651762D01*
X58428514Y-114635955D01*
X58409546Y-114466847D01*
X58403322Y-114439455D01*
X58347359Y-114278752D01*
X58335222Y-114253419D01*
X58245046Y-114109109D01*
X58227598Y-114087095D01*
X58107692Y-113966348D01*
X58085800Y-113948747D01*
X57942122Y-113857566D01*
X57916875Y-113845252D01*
X57756567Y-113788169D01*
X57729218Y-113781754D01*
X57560247Y-113761606D01*
X57532159Y-113761410D01*
X57362923Y-113779197D01*
X57335488Y-113785229D01*
X57174398Y-113840068D01*
X57148981Y-113852029D01*
X57086448Y-113890500D01*
X55528767Y-113890500D01*
X55506132Y-113888360D01*
X55438055Y-113890500D01*
X55410144Y-113890500D01*
X55394354Y-113891493D01*
X55390343Y-113892000D01*
X55346151Y-113893389D01*
X55314959Y-113898330D01*
X55295509Y-113903980D01*
X55275409Y-113906520D01*
X55244820Y-113914374D01*
X55203715Y-113930648D01*
X55161253Y-113942985D01*
X55132268Y-113955528D01*
X55114832Y-113965839D01*
X55095999Y-113973296D01*
X55068323Y-113988512D01*
X55032566Y-114014490D01*
X54994498Y-114037004D01*
X54969542Y-114056363D01*
X54955218Y-114070687D01*
X54938832Y-114082592D01*
X54915808Y-114104213D01*
X54887627Y-114138278D01*
X54618581Y-114407324D01*
X54618514Y-114405955D01*
X54599546Y-114236847D01*
X54593322Y-114209455D01*
X54537359Y-114048752D01*
X54525222Y-114023418D01*
X54507491Y-113995043D01*
X54525829Y-113967443D01*
X54538669Y-113942459D01*
X54599097Y-113783382D01*
X54606083Y-113756173D01*
X54629765Y-113587661D01*
X54630979Y-113571888D01*
X54631277Y-113550575D01*
X54630504Y-113534768D01*
X54611536Y-113365660D01*
X54605312Y-113338268D01*
X54549349Y-113177565D01*
X54537212Y-113152232D01*
X54477564Y-113056776D01*
X54543828Y-112957040D01*
X54556668Y-112932057D01*
X54617096Y-112772980D01*
X54624082Y-112745771D01*
X54647764Y-112577259D01*
X54648978Y-112561486D01*
X54649276Y-112540173D01*
X54648503Y-112524366D01*
X54629535Y-112355258D01*
X54623311Y-112327866D01*
X54567348Y-112167163D01*
X54555211Y-112141829D01*
X54519500Y-112084680D01*
X54519500Y-108851263D01*
X54521639Y-108828633D01*
X54519500Y-108760575D01*
X54519500Y-108732644D01*
X54518506Y-108716846D01*
X54517999Y-108712836D01*
X54516611Y-108668653D01*
X54511670Y-108637459D01*
X54506020Y-108618009D01*
X54503480Y-108597909D01*
X54495625Y-108567318D01*
X54479350Y-108526214D01*
X54467015Y-108483754D01*
X54454471Y-108454766D01*
X54444159Y-108437330D01*
X54436704Y-108418500D01*
X54421488Y-108390822D01*
X54395507Y-108355063D01*
X54372996Y-108316998D01*
X54353637Y-108292042D01*
X54339313Y-108277718D01*
X54327408Y-108261332D01*
X54305787Y-108238308D01*
X54271722Y-108210127D01*
X52996095Y-106934500D01*
X53201308Y-106934500D01*
X53291423Y-106935444D01*
X53319370Y-106932605D01*
X53361735Y-106923445D01*
X53404823Y-106918612D01*
X53432214Y-106912389D01*
X53463890Y-106901358D01*
X53496660Y-106894273D01*
X53523281Y-106885314D01*
X53562568Y-106866994D01*
X53603512Y-106852736D01*
X53628843Y-106840600D01*
X53657285Y-106822828D01*
X53687674Y-106808657D01*
X53711651Y-106794021D01*
X53745902Y-106767453D01*
X53782666Y-106744481D01*
X53804681Y-106727033D01*
X53833484Y-106698431D01*
X53835087Y-106697017D01*
X53860761Y-106671343D01*
X53933388Y-106599221D01*
X53935456Y-106596648D01*
X53951511Y-106580593D01*
X54748000Y-107377082D01*
X54748000Y-107773240D01*
X54742585Y-107790519D01*
X54737348Y-107816670D01*
X54731029Y-107885439D01*
X54730500Y-107896968D01*
X54730500Y-108313032D01*
X54731029Y-108324561D01*
X54737348Y-108393330D01*
X54742585Y-108419481D01*
X54748000Y-108436760D01*
X54748000Y-110068240D01*
X54742585Y-110085519D01*
X54737348Y-110111670D01*
X54731029Y-110180439D01*
X54730500Y-110191968D01*
X54730500Y-110608032D01*
X54731029Y-110619561D01*
X54737348Y-110688330D01*
X54742585Y-110714481D01*
X54748000Y-110731760D01*
X54748000Y-112316088D01*
X54744067Y-112373782D01*
X54744157Y-112375503D01*
X54742585Y-112380520D01*
X54737348Y-112406670D01*
X54731029Y-112475439D01*
X54730500Y-112486968D01*
X54730500Y-112903032D01*
X54731029Y-112914561D01*
X54737348Y-112983330D01*
X54742585Y-113009480D01*
X54790609Y-113162724D01*
X54803067Y-113190316D01*
X54886258Y-113327681D01*
X54904939Y-113351505D01*
X55018495Y-113465061D01*
X55042319Y-113483742D01*
X55179684Y-113566933D01*
X55207276Y-113579391D01*
X55360520Y-113627415D01*
X55386670Y-113632652D01*
X55455439Y-113638971D01*
X55466968Y-113639500D01*
X55998032Y-113639500D01*
X56009561Y-113638971D01*
X56078330Y-113632652D01*
X56104480Y-113627415D01*
X56257724Y-113579391D01*
X56285316Y-113566933D01*
X56300000Y-113558040D01*
X56314684Y-113566933D01*
X56342276Y-113579391D01*
X56495520Y-113627415D01*
X56521670Y-113632652D01*
X56590439Y-113638971D01*
X56601968Y-113639500D01*
X57133032Y-113639500D01*
X57144561Y-113638971D01*
X57213330Y-113632652D01*
X57239480Y-113627415D01*
X57392724Y-113579391D01*
X57420316Y-113566933D01*
X57557681Y-113483742D01*
X57581505Y-113465061D01*
X57695061Y-113351505D01*
X57713742Y-113327681D01*
X57796933Y-113190316D01*
X57809391Y-113162724D01*
X57857415Y-113009480D01*
X57862652Y-112983330D01*
X57868971Y-112914561D01*
X57869500Y-112903032D01*
X57869500Y-112486968D01*
X57868971Y-112475439D01*
X57862652Y-112406670D01*
X57857415Y-112380520D01*
X57809391Y-112227276D01*
X57796933Y-112199684D01*
X57713742Y-112062319D01*
X57695061Y-112038495D01*
X57599351Y-111942785D01*
X57586848Y-111911205D01*
X57574515Y-111868755D01*
X57561971Y-111839767D01*
X57553963Y-111826227D01*
X57549546Y-111786846D01*
X57543322Y-111759455D01*
X57498532Y-111630837D01*
X57627351Y-111648025D01*
X57655435Y-111648613D01*
X57824903Y-111633190D01*
X57852419Y-111627542D01*
X58014258Y-111574957D01*
X58039840Y-111563353D01*
X58186008Y-111476219D01*
X58208382Y-111459236D01*
X58331613Y-111341885D01*
X58349669Y-111320366D01*
X58443839Y-111178629D01*
X58456679Y-111153646D01*
X58517107Y-110994569D01*
X58524093Y-110967360D01*
X58547775Y-110798848D01*
X58548989Y-110783075D01*
X58549287Y-110761762D01*
X58548514Y-110745955D01*
X58529546Y-110576847D01*
X58523322Y-110549455D01*
X58467359Y-110388752D01*
X58455222Y-110363419D01*
X58365046Y-110219109D01*
X58347598Y-110197095D01*
X58227692Y-110076348D01*
X58205800Y-110058747D01*
X58062122Y-109967566D01*
X58036875Y-109955252D01*
X57876567Y-109898169D01*
X57849219Y-109891754D01*
X57784423Y-109884028D01*
X57713742Y-109767319D01*
X57695061Y-109743495D01*
X57581505Y-109629939D01*
X57565128Y-109617098D01*
X57643839Y-109498629D01*
X57656679Y-109473646D01*
X57717107Y-109314569D01*
X57724093Y-109287360D01*
X57747775Y-109118848D01*
X57748989Y-109103075D01*
X57749287Y-109081762D01*
X57748514Y-109065955D01*
X57729546Y-108896847D01*
X57723322Y-108869455D01*
X57688140Y-108768426D01*
X57695061Y-108761505D01*
X57713742Y-108737681D01*
X57796933Y-108600316D01*
X57809391Y-108572724D01*
X57857415Y-108419480D01*
X57862652Y-108393330D01*
X57868971Y-108324561D01*
X57869500Y-108313032D01*
X57869500Y-107896968D01*
X57868971Y-107885439D01*
X57862652Y-107816670D01*
X57857415Y-107790520D01*
X57809391Y-107637276D01*
X57796933Y-107609684D01*
X57713742Y-107472319D01*
X57695061Y-107448495D01*
X57581505Y-107334939D01*
X57557681Y-107316258D01*
X57420316Y-107233067D01*
X57392724Y-107220609D01*
X57239480Y-107172585D01*
X57213330Y-107167348D01*
X57144561Y-107161029D01*
X57133032Y-107160500D01*
X56601968Y-107160500D01*
X56590439Y-107161029D01*
X56521670Y-107167348D01*
X56495520Y-107172585D01*
X56474294Y-107179237D01*
X56512621Y-107018355D01*
X56516044Y-106990475D01*
X56517944Y-106809099D01*
X56515105Y-106781152D01*
X56476773Y-106603863D01*
X56467814Y-106577240D01*
X56391157Y-106412848D01*
X56376522Y-106388872D01*
X56289982Y-106277304D01*
X56279517Y-106265435D01*
X55852680Y-105838598D01*
X56014422Y-105873863D01*
X56031378Y-105876367D01*
X56256853Y-105894112D01*
X56266739Y-105894500D01*
X56422271Y-105894500D01*
X56430841Y-105894208D01*
X56645395Y-105879581D01*
X56662376Y-105877255D01*
X56943893Y-105818956D01*
X56960402Y-105814347D01*
X57231403Y-105718380D01*
X57247133Y-105711573D01*
X57502602Y-105579716D01*
X57517263Y-105570837D01*
X57752474Y-105405528D01*
X57765794Y-105394741D01*
X57976393Y-105199040D01*
X57988126Y-105186546D01*
X58170217Y-104964074D01*
X58180146Y-104950103D01*
X58330360Y-104704977D01*
X58338300Y-104689787D01*
X58453856Y-104426543D01*
X58459662Y-104410417D01*
X58538423Y-104133925D01*
X58541987Y-104117159D01*
X58582494Y-103832537D01*
X58583749Y-103815444D01*
X58585255Y-103527957D01*
X58584179Y-103510851D01*
X58546654Y-103225820D01*
X58543266Y-103209018D01*
X58467405Y-102931716D01*
X58461768Y-102915529D01*
X58348974Y-102651089D01*
X58341193Y-102635818D01*
X58193555Y-102389133D01*
X58183773Y-102375058D01*
X58004021Y-102150691D01*
X57992420Y-102138075D01*
X57783882Y-101940180D01*
X57770675Y-101929255D01*
X57537209Y-101761492D01*
X57522642Y-101752460D01*
X57268567Y-101617934D01*
X57252909Y-101610962D01*
X56982928Y-101512163D01*
X56966469Y-101507381D01*
X56685578Y-101446137D01*
X56668622Y-101443633D01*
X56443147Y-101425888D01*
X56433261Y-101425500D01*
X56277729Y-101425500D01*
X56269159Y-101425792D01*
X56054605Y-101440419D01*
X56037624Y-101442745D01*
X55756107Y-101501044D01*
X55739598Y-101505653D01*
X55468597Y-101601620D01*
X55452867Y-101608427D01*
X55197398Y-101740284D01*
X55182737Y-101749163D01*
X54947526Y-101914472D01*
X54934500Y-101925021D01*
X54934500Y-101709214D01*
X54935444Y-101619099D01*
X54932605Y-101591152D01*
X54923445Y-101548787D01*
X54918612Y-101505699D01*
X54912389Y-101478308D01*
X54901358Y-101446632D01*
X54894273Y-101413862D01*
X54885314Y-101387241D01*
X54866994Y-101347954D01*
X54852736Y-101307010D01*
X54840600Y-101281679D01*
X54822828Y-101253237D01*
X54808657Y-101222848D01*
X54794021Y-101198871D01*
X54767453Y-101164620D01*
X54744481Y-101127856D01*
X54727033Y-101105841D01*
X54698431Y-101077038D01*
X54697017Y-101075435D01*
X54671338Y-101049756D01*
X54599221Y-100977134D01*
X54596644Y-100975062D01*
X53877104Y-100255522D01*
X53917685Y-100104074D01*
X53921499Y-100082444D01*
X53940874Y-99860981D01*
X53940874Y-99839019D01*
X53921499Y-99617556D01*
X53917685Y-99595926D01*
X53860147Y-99381193D01*
X53852635Y-99360554D01*
X53758683Y-99159074D01*
X53747701Y-99140053D01*
X53620190Y-98957948D01*
X53606072Y-98941124D01*
X53448876Y-98783928D01*
X53432052Y-98769810D01*
X53249948Y-98642299D01*
X53230927Y-98631317D01*
X53120285Y-98579724D01*
X53230676Y-98528248D01*
X53249696Y-98517266D01*
X53312875Y-98473028D01*
X53357204Y-98417571D01*
X53364513Y-98346952D01*
X53329700Y-98280720D01*
X52629095Y-97580115D01*
X52566783Y-97546089D01*
X52495968Y-97551154D01*
X52450905Y-97580115D01*
X51750300Y-98280720D01*
X51716274Y-98343032D01*
X51721339Y-98413847D01*
X51767125Y-98473028D01*
X51830304Y-98517266D01*
X51849324Y-98528248D01*
X51959715Y-98579724D01*
X51849074Y-98631317D01*
X51830053Y-98642299D01*
X51647948Y-98769810D01*
X51631124Y-98783928D01*
X51473928Y-98941124D01*
X51459810Y-98957948D01*
X51419512Y-99015500D01*
X49745661Y-99015500D01*
X48780537Y-98050377D01*
X48742510Y-98006786D01*
X48720012Y-97986528D01*
X48667732Y-97949785D01*
X48617464Y-97910370D01*
X48591567Y-97894686D01*
X48585321Y-97891866D01*
X48579714Y-97887925D01*
X48553031Y-97873617D01*
X48493494Y-97850405D01*
X48435279Y-97824119D01*
X48406392Y-97815065D01*
X48399647Y-97813815D01*
X48393258Y-97811324D01*
X48363937Y-97803796D01*
X48300594Y-97795457D01*
X48237776Y-97783814D01*
X48207560Y-97781913D01*
X48145354Y-97785500D01*
X48138498Y-97785500D01*
X48059813Y-97710176D01*
X48115651Y-97675622D01*
X48138521Y-97657496D01*
X48263478Y-97532321D01*
X48281565Y-97509419D01*
X48374375Y-97358854D01*
X48386708Y-97332405D01*
X48390497Y-97320982D01*
X51139628Y-97320982D01*
X51158996Y-97542358D01*
X51162810Y-97563987D01*
X51220325Y-97778636D01*
X51227837Y-97799275D01*
X51321752Y-98000675D01*
X51332733Y-98019694D01*
X51376971Y-98082874D01*
X51432428Y-98127204D01*
X51503047Y-98134514D01*
X51569280Y-98099700D01*
X52269885Y-97399095D01*
X52303911Y-97336783D01*
X52300080Y-97283217D01*
X52776089Y-97283217D01*
X52781154Y-97354032D01*
X52810115Y-97399095D01*
X53510720Y-98099700D01*
X53573032Y-98133726D01*
X53643847Y-98128661D01*
X53703029Y-98082874D01*
X53747267Y-98019694D01*
X53758248Y-98000675D01*
X53852163Y-97799275D01*
X53859675Y-97778636D01*
X53917190Y-97563987D01*
X53921004Y-97542358D01*
X53940372Y-97320982D01*
X53940372Y-97299018D01*
X53921004Y-97077642D01*
X53917190Y-97056013D01*
X53859675Y-96841364D01*
X53852163Y-96820725D01*
X53758248Y-96619325D01*
X53747267Y-96600306D01*
X53703029Y-96537126D01*
X53647572Y-96492796D01*
X53576953Y-96485486D01*
X53510720Y-96520300D01*
X52810115Y-97220905D01*
X52776089Y-97283217D01*
X52300080Y-97283217D01*
X52298846Y-97265968D01*
X52269885Y-97220905D01*
X51569280Y-96520300D01*
X51506968Y-96486274D01*
X51436153Y-96491339D01*
X51376971Y-96537126D01*
X51332733Y-96600306D01*
X51321752Y-96619325D01*
X51227837Y-96820725D01*
X51220325Y-96841364D01*
X51162810Y-97056013D01*
X51158996Y-97077642D01*
X51139628Y-97299018D01*
X51139628Y-97320982D01*
X48390497Y-97320982D01*
X48442390Y-97164528D01*
X48448141Y-97137704D01*
X48458844Y-97033243D01*
X48459500Y-97020400D01*
X48459500Y-96273047D01*
X51715486Y-96273047D01*
X51750300Y-96339280D01*
X52450905Y-97039885D01*
X52513217Y-97073911D01*
X52584032Y-97068846D01*
X52629095Y-97039885D01*
X53329700Y-96339280D01*
X53363726Y-96276968D01*
X53358661Y-96206153D01*
X53332271Y-96172043D01*
X54114745Y-96172043D01*
X54115821Y-96189149D01*
X54153346Y-96474180D01*
X54156734Y-96490982D01*
X54232595Y-96768284D01*
X54238232Y-96784471D01*
X54351026Y-97048911D01*
X54358807Y-97064182D01*
X54506445Y-97310867D01*
X54516227Y-97324942D01*
X54695979Y-97549309D01*
X54707580Y-97561925D01*
X54916118Y-97759820D01*
X54929325Y-97770745D01*
X55162791Y-97938508D01*
X55177358Y-97947540D01*
X55431433Y-98082066D01*
X55447091Y-98089038D01*
X55717072Y-98187837D01*
X55733531Y-98192619D01*
X56014422Y-98253863D01*
X56031378Y-98256367D01*
X56256853Y-98274112D01*
X56266739Y-98274500D01*
X56422271Y-98274500D01*
X56430841Y-98274208D01*
X56645395Y-98259581D01*
X56662376Y-98257255D01*
X56943893Y-98198956D01*
X56960402Y-98194347D01*
X57231403Y-98098380D01*
X57247133Y-98091573D01*
X57502602Y-97959716D01*
X57517263Y-97950837D01*
X57752474Y-97785528D01*
X57765794Y-97774741D01*
X57976393Y-97579040D01*
X57988126Y-97566546D01*
X58170217Y-97344074D01*
X58180146Y-97330103D01*
X58330360Y-97084977D01*
X58338300Y-97069787D01*
X58453856Y-96806543D01*
X58459662Y-96790417D01*
X58538423Y-96513925D01*
X58541987Y-96497159D01*
X58582494Y-96212537D01*
X58583749Y-96195444D01*
X58585255Y-95907957D01*
X58584179Y-95890851D01*
X58546654Y-95605820D01*
X58543266Y-95589018D01*
X58467405Y-95311716D01*
X58461768Y-95295529D01*
X58348974Y-95031089D01*
X58341193Y-95015818D01*
X58193555Y-94769133D01*
X58183773Y-94755058D01*
X58004021Y-94530691D01*
X57992420Y-94518075D01*
X57783882Y-94320180D01*
X57770675Y-94309255D01*
X57537209Y-94141492D01*
X57522642Y-94132460D01*
X57268567Y-93997934D01*
X57252909Y-93990962D01*
X56982928Y-93892163D01*
X56966469Y-93887381D01*
X56685578Y-93826137D01*
X56668622Y-93823633D01*
X56443147Y-93805888D01*
X56433261Y-93805500D01*
X56277729Y-93805500D01*
X56269159Y-93805792D01*
X56054605Y-93820419D01*
X56037624Y-93822745D01*
X55756107Y-93881044D01*
X55739598Y-93885653D01*
X55468597Y-93981620D01*
X55452867Y-93988427D01*
X55197398Y-94120284D01*
X55182737Y-94129163D01*
X54947526Y-94294472D01*
X54934206Y-94305259D01*
X54723607Y-94500960D01*
X54711874Y-94513454D01*
X54529783Y-94735926D01*
X54519854Y-94749897D01*
X54369640Y-94995023D01*
X54361700Y-95010213D01*
X54246144Y-95273457D01*
X54240338Y-95289583D01*
X54161577Y-95566075D01*
X54158013Y-95582841D01*
X54117506Y-95867463D01*
X54116251Y-95884556D01*
X54114745Y-96172043D01*
X53332271Y-96172043D01*
X53312875Y-96146972D01*
X53249696Y-96102734D01*
X53230676Y-96091752D01*
X53029275Y-95997837D01*
X53008636Y-95990325D01*
X52793987Y-95932810D01*
X52772358Y-95928996D01*
X52550982Y-95909628D01*
X52529018Y-95909628D01*
X52307642Y-95928996D01*
X52286013Y-95932810D01*
X52071364Y-95990325D01*
X52050725Y-95997837D01*
X51849325Y-96091752D01*
X51830306Y-96102733D01*
X51767126Y-96146971D01*
X51722796Y-96202428D01*
X51715486Y-96273047D01*
X48459500Y-96273047D01*
X48459500Y-96219600D01*
X48458827Y-96206596D01*
X48447853Y-96100830D01*
X48442050Y-96073958D01*
X48386074Y-95906178D01*
X48373694Y-95879751D01*
X48280622Y-95729349D01*
X48262496Y-95706479D01*
X48137321Y-95581522D01*
X48114419Y-95563435D01*
X47963854Y-95470625D01*
X47937405Y-95458292D01*
X47769528Y-95402610D01*
X47742704Y-95396859D01*
X47638243Y-95386156D01*
X47625400Y-95385500D01*
X46274600Y-95385500D01*
X46261596Y-95386173D01*
X46155830Y-95397147D01*
X46128958Y-95402950D01*
X45961178Y-95458926D01*
X45934751Y-95471306D01*
X45784349Y-95564378D01*
X45761479Y-95582504D01*
X45636522Y-95707679D01*
X45618435Y-95730581D01*
X45525625Y-95881146D01*
X45513292Y-95907595D01*
X45457610Y-96075472D01*
X45451859Y-96102296D01*
X45441156Y-96206757D01*
X45440500Y-96219600D01*
X45440500Y-97020400D01*
X45441173Y-97033404D01*
X45452147Y-97139170D01*
X45457950Y-97166042D01*
X45513926Y-97333822D01*
X45526306Y-97360249D01*
X45619378Y-97510651D01*
X45637504Y-97533521D01*
X45762679Y-97658478D01*
X45785581Y-97676565D01*
X45837120Y-97708334D01*
X45829247Y-97714518D01*
X45811915Y-97731024D01*
X45673283Y-97890783D01*
X45659384Y-97910268D01*
X45553463Y-98093359D01*
X45543499Y-98115121D01*
X45474111Y-98314938D01*
X45468443Y-98338191D01*
X45438091Y-98547524D01*
X45436922Y-98571430D01*
X44304000Y-98571430D01*
X44304000Y-89508241D01*
X54330817Y-89508241D01*
X54350609Y-89810207D01*
X54352760Y-89826547D01*
X54411797Y-90123347D01*
X54416063Y-90139267D01*
X54513335Y-90425821D01*
X54519642Y-90441048D01*
X54653485Y-90712454D01*
X54661726Y-90726728D01*
X54829849Y-90978343D01*
X54839882Y-90991419D01*
X55039410Y-91218936D01*
X55051064Y-91230590D01*
X55278581Y-91430118D01*
X55291657Y-91440151D01*
X55543271Y-91608274D01*
X55557545Y-91616515D01*
X55828952Y-91750358D01*
X55844179Y-91756665D01*
X56130733Y-91853937D01*
X56146653Y-91858203D01*
X56443453Y-91917240D01*
X56459793Y-91919391D01*
X56761759Y-91939183D01*
X56778241Y-91939183D01*
X57080207Y-91919391D01*
X57096547Y-91917240D01*
X57393347Y-91858203D01*
X57409267Y-91853937D01*
X57695821Y-91756665D01*
X57711048Y-91750358D01*
X57982455Y-91616515D01*
X57996729Y-91608274D01*
X58248343Y-91440151D01*
X58261419Y-91430118D01*
X58488936Y-91230590D01*
X58500590Y-91218936D01*
X58700118Y-90991419D01*
X58710151Y-90978343D01*
X58878274Y-90726728D01*
X58886515Y-90712454D01*
X59020358Y-90441048D01*
X59026665Y-90425821D01*
X59123937Y-90139267D01*
X59128203Y-90123347D01*
X59187240Y-89826547D01*
X59189391Y-89810207D01*
X59209183Y-89508241D01*
X59209183Y-89491759D01*
X59189391Y-89189793D01*
X59187240Y-89173453D01*
X59128203Y-88876653D01*
X59123937Y-88860733D01*
X59026665Y-88574179D01*
X59020358Y-88558952D01*
X58886515Y-88287546D01*
X58878274Y-88273272D01*
X58710151Y-88021657D01*
X58700118Y-88008581D01*
X58500590Y-87781064D01*
X58488936Y-87769410D01*
X58261419Y-87569882D01*
X58248343Y-87559849D01*
X57996729Y-87391726D01*
X57982455Y-87383485D01*
X57711048Y-87249642D01*
X57695821Y-87243335D01*
X57409267Y-87146063D01*
X57393347Y-87141797D01*
X57096547Y-87082760D01*
X57080207Y-87080609D01*
X56778241Y-87060817D01*
X56761759Y-87060817D01*
X56459793Y-87080609D01*
X56443453Y-87082760D01*
X56146653Y-87141797D01*
X56130733Y-87146063D01*
X55844179Y-87243335D01*
X55828952Y-87249642D01*
X55557546Y-87383485D01*
X55543272Y-87391726D01*
X55291657Y-87559849D01*
X55278581Y-87569882D01*
X55051064Y-87769410D01*
X55039410Y-87781064D01*
X54839882Y-88008581D01*
X54829849Y-88021657D01*
X54661726Y-88273272D01*
X54653485Y-88287546D01*
X54519642Y-88558952D01*
X54513335Y-88574179D01*
X54416063Y-88860733D01*
X54411797Y-88876653D01*
X54352760Y-89173453D01*
X54350609Y-89189793D01*
X54330817Y-89491759D01*
X54330817Y-89508241D01*
X44304000Y-89508241D01*
X44304000Y-86634000D01*
X60636000Y-86634000D01*
X60636000Y-125366000D01*
G37*
%TD.AperFunction*%
%TD*%
M02*
