%TF.GenerationSoftware,KiCad,Pcbnew,(6.0.1)*%
%TF.CreationDate,2022-07-05T01:24:20-07:00*%
%TF.ProjectId,mu100-dit,6d753130-302d-4646-9974-2e6b69636164,rev?*%
%TF.SameCoordinates,PX4a25ef0PY4c3f880*%
%TF.FileFunction,Copper,L2,Bot*%
%TF.FilePolarity,Positive*%
%FSLAX46Y46*%
G04 Gerber Fmt 4.6, Leading zero omitted, Abs format (unit mm)*
G04 Created by KiCad (PCBNEW (6.0.1)) date 2022-07-05 01:24:20*
%MOMM*%
%LPD*%
G01*
G04 APERTURE LIST*
G04 Aperture macros list*
%AMRoundRect*
0 Rectangle with rounded corners*
0 $1 Rounding radius*
0 $2 $3 $4 $5 $6 $7 $8 $9 X,Y pos of 4 corners*
0 Add a 4 corners polygon primitive as box body*
4,1,4,$2,$3,$4,$5,$6,$7,$8,$9,$2,$3,0*
0 Add four circle primitives for the rounded corners*
1,1,$1+$1,$2,$3*
1,1,$1+$1,$4,$5*
1,1,$1+$1,$6,$7*
1,1,$1+$1,$8,$9*
0 Add four rect primitives between the rounded corners*
20,1,$1+$1,$2,$3,$4,$5,0*
20,1,$1+$1,$4,$5,$6,$7,0*
20,1,$1+$1,$6,$7,$8,$9,0*
20,1,$1+$1,$8,$9,$2,$3,0*%
%AMFreePoly0*
4,1,13,0.500000,-0.500000,0.000000,-0.500000,-0.095671,-0.480970,-0.176777,-0.426777,-0.230970,-0.345671,-0.250000,-0.250000,-0.250000,0.250000,-0.230970,0.345671,-0.176777,0.426777,-0.095671,0.480970,0.000000,0.500000,0.500000,0.500000,0.500000,-0.500000,0.500000,-0.500000,$1*%
G04 Aperture macros list end*
%TA.AperFunction,ComponentPad*%
%ADD10RoundRect,0.250000X-0.625000X0.350000X-0.625000X-0.350000X0.625000X-0.350000X0.625000X0.350000X0*%
%TD*%
%TA.AperFunction,ComponentPad*%
%ADD11O,1.750000X1.200000*%
%TD*%
%TA.AperFunction,ConnectorPad*%
%ADD12C,5.700000*%
%TD*%
%TA.AperFunction,ComponentPad*%
%ADD13C,3.600000*%
%TD*%
%TA.AperFunction,ComponentPad*%
%ADD14C,1.524000*%
%TD*%
%TA.AperFunction,ComponentPad*%
%ADD15R,1.700000X1.700000*%
%TD*%
%TA.AperFunction,ComponentPad*%
%ADD16O,1.700000X1.700000*%
%TD*%
%TA.AperFunction,SMDPad,CuDef*%
%ADD17FreePoly0,0.000000*%
%TD*%
%TA.AperFunction,SMDPad,CuDef*%
%ADD18FreePoly0,180.000000*%
%TD*%
%TA.AperFunction,SMDPad,CuDef*%
%ADD19RoundRect,0.250000X0.350000X0.450000X-0.350000X0.450000X-0.350000X-0.450000X0.350000X-0.450000X0*%
%TD*%
%TA.AperFunction,SMDPad,CuDef*%
%ADD20RoundRect,0.250000X-0.350000X-0.450000X0.350000X-0.450000X0.350000X0.450000X-0.350000X0.450000X0*%
%TD*%
%TA.AperFunction,SMDPad,CuDef*%
%ADD21RoundRect,0.250000X0.337500X0.475000X-0.337500X0.475000X-0.337500X-0.475000X0.337500X-0.475000X0*%
%TD*%
%TA.AperFunction,ViaPad*%
%ADD22C,0.800000*%
%TD*%
%TA.AperFunction,ViaPad*%
%ADD23C,0.600000*%
%TD*%
%TA.AperFunction,Conductor*%
%ADD24C,0.250000*%
%TD*%
%TA.AperFunction,Conductor*%
%ADD25C,0.600000*%
%TD*%
%TA.AperFunction,Conductor*%
%ADD26C,0.400000*%
%TD*%
%TA.AperFunction,Conductor*%
%ADD27C,0.254000*%
%TD*%
G04 APERTURE END LIST*
D10*
%TO.P,J1,1,Pin_1*%
%TO.N,unconnected-(J1-Pad1)*%
X81030000Y-90572000D03*
D11*
%TO.P,J1,2,Pin_2*%
%TO.N,+5V*%
X81030000Y-92572000D03*
%TO.P,J1,3,Pin_3*%
%TO.N,GND*%
X81030000Y-94572000D03*
%TO.P,J1,4,Pin_4*%
%TO.N,/MCLK*%
X81030000Y-96572000D03*
%TO.P,J1,5,Pin_5*%
%TO.N,GND*%
X81030000Y-98572000D03*
%TO.P,J1,6,Pin_6*%
%TO.N,/SDAT*%
X81030000Y-100572000D03*
%TO.P,J1,7,Pin_7*%
%TO.N,GND*%
X81030000Y-102572000D03*
%TO.P,J1,8,Pin_8*%
%TO.N,/BICK*%
X81030000Y-104572000D03*
%TO.P,J1,9,Pin_9*%
%TO.N,GND*%
X81030000Y-106572000D03*
%TO.P,J1,10,Pin_10*%
%TO.N,/LRCK*%
X81030000Y-108572000D03*
%TD*%
D12*
%TO.P,H1,1,1*%
%TO.N,GND*%
X91350000Y-83452000D03*
D13*
X91350000Y-83452000D03*
%TD*%
D14*
%TO.P,U1,1,GND*%
%TO.N,GND*%
X86620000Y-91262000D03*
%TO.P,U1,2,VCC*%
%TO.N,+5V*%
X86620000Y-93802000D03*
%TO.P,U1,3,Input*%
%TO.N,/TXP*%
X86620000Y-96342000D03*
%TD*%
D12*
%TO.P,H2,1,1*%
%TO.N,GND*%
X91350000Y-116452000D03*
D13*
X91350000Y-116452000D03*
%TD*%
D15*
%TO.P,J2,1,Pin_1*%
%TO.N,Net-(C4-Pad2)*%
X80910000Y-85675000D03*
D16*
%TO.P,J2,2,Pin_2*%
%TO.N,GND*%
X80910000Y-83135000D03*
%TD*%
D17*
%TO.P,JP3,1,1*%
%TO.N,+5V*%
X84460000Y-105442000D03*
D18*
%TO.P,JP3,2,2*%
%TO.N,/FS2*%
X85760000Y-105442000D03*
%TD*%
D19*
%TO.P,R1,1*%
%TO.N,/TXP*%
X85900000Y-87710000D03*
%TO.P,R1,2*%
%TO.N,Net-(C4-Pad1)*%
X83900000Y-87710000D03*
%TD*%
D17*
%TO.P,JP9,1,1*%
%TO.N,+5V*%
X84460000Y-110032000D03*
D18*
%TO.P,JP9,2,2*%
%TO.N,/CKS1*%
X85760000Y-110032000D03*
%TD*%
D17*
%TO.P,JP2,1,1*%
%TO.N,+5V*%
X84460000Y-103147000D03*
D18*
%TO.P,JP2,2,2*%
%TO.N,/FS1*%
X85760000Y-103147000D03*
%TD*%
D17*
%TO.P,JP7,1,1*%
%TO.N,+5V*%
X90030000Y-102067000D03*
D18*
%TO.P,JP7,2,2*%
%TO.N,/DIF2*%
X91330000Y-102067000D03*
%TD*%
D17*
%TO.P,JP1,1,1*%
%TO.N,+5V*%
X84460000Y-100822000D03*
D18*
%TO.P,JP1,2,2*%
%TO.N,/FS0*%
X85760000Y-100822000D03*
%TD*%
D17*
%TO.P,JP6,1,1*%
%TO.N,+5V*%
X90030000Y-104362000D03*
D18*
%TO.P,JP6,2,2*%
%TO.N,/DIF1*%
X91330000Y-104362000D03*
%TD*%
D17*
%TO.P,JP8,1,1*%
%TO.N,GND*%
X89980000Y-110032000D03*
D18*
%TO.P,JP8,2,2*%
%TO.N,/CKS0*%
X91280000Y-110032000D03*
%TD*%
D20*
%TO.P,R2,1*%
%TO.N,GND*%
X83850000Y-82590000D03*
%TO.P,R2,2*%
%TO.N,Net-(C4-Pad1)*%
X85850000Y-82590000D03*
%TD*%
D21*
%TO.P,C4,1*%
%TO.N,Net-(C4-Pad1)*%
X85917500Y-85150000D03*
%TO.P,C4,2*%
%TO.N,Net-(C4-Pad2)*%
X83842500Y-85150000D03*
%TD*%
D17*
%TO.P,JP5,1,1*%
%TO.N,+5V*%
X90030000Y-106657000D03*
D18*
%TO.P,JP5,2,2*%
%TO.N,/DIF0*%
X91330000Y-106657000D03*
%TD*%
D17*
%TO.P,JP4,1,1*%
%TO.N,+5V*%
X84460000Y-107737000D03*
D18*
%TO.P,JP4,2,2*%
%TO.N,/FS3*%
X85760000Y-107737000D03*
%TD*%
D22*
%TO.N,GND*%
X87200000Y-99282000D03*
X82850000Y-94882000D03*
X84060000Y-92542000D03*
X87660000Y-87922000D03*
X89070000Y-95352000D03*
X84970000Y-98752000D03*
X89130000Y-92702000D03*
X86000000Y-89632000D03*
D23*
%TO.N,/RESET*%
X83260000Y-111322000D03*
X84016400Y-104137200D03*
%TO.N,/FS0*%
X87889978Y-106829600D03*
%TO.N,/FS1*%
X87877200Y-107744000D03*
%TO.N,/FS2*%
X87885439Y-108751761D03*
%TO.N,/FS3*%
X87877200Y-109674400D03*
%TO.N,/DIF0*%
X91230000Y-105585000D03*
%TO.N,/DIF1*%
X92037242Y-104738927D03*
%TO.N,/DIF2*%
X91839600Y-102841800D03*
%TO.N,/CKS0*%
X90925200Y-109003500D03*
%TO.N,/CKS1*%
X91915800Y-108379000D03*
%TD*%
D24*
%TO.N,GND*%
X86790000Y-91262000D02*
X86620000Y-91262000D01*
D25*
%TO.N,+5V*%
X84090000Y-94232000D02*
X84090000Y-96207000D01*
X84090000Y-96207000D02*
X86080000Y-98197000D01*
D26*
X84770000Y-102837000D02*
X84770000Y-100217704D01*
D25*
X83530000Y-93802000D02*
X86620000Y-93802000D01*
D26*
X84770000Y-105132000D02*
X84770000Y-103457000D01*
X84460000Y-103147000D02*
X84770000Y-102837000D01*
D25*
X81030000Y-92572000D02*
X82300000Y-92572000D01*
D26*
X85125704Y-99862000D02*
X86290000Y-99862000D01*
X84460000Y-105442000D02*
X84770000Y-105132000D01*
X86290000Y-99862000D02*
X88485000Y-102057000D01*
X88485000Y-102057000D02*
X90030000Y-102057000D01*
X84442500Y-110022000D02*
X84360000Y-109939500D01*
X84770000Y-103457000D02*
X84460000Y-103147000D01*
X84360000Y-110032000D02*
X84380000Y-110052000D01*
X84770000Y-100217704D02*
X85125704Y-99862000D01*
D25*
X82300000Y-92572000D02*
X83530000Y-93802000D01*
D26*
X84360000Y-109939500D02*
X84360000Y-105442000D01*
X90030000Y-102057000D02*
X90030000Y-106657000D01*
D25*
X86080000Y-98202000D02*
X86080000Y-99742000D01*
D24*
%TO.N,/RESET*%
X83700000Y-110882000D02*
X83260000Y-111322000D01*
X83700000Y-104453600D02*
X83700000Y-110882000D01*
X84016400Y-104137200D02*
X83700000Y-104453600D01*
%TO.N,/FS0*%
X87440000Y-105040565D02*
X87440000Y-102324500D01*
X87714998Y-106654620D02*
X87714998Y-105315563D01*
X87714998Y-105315563D02*
X87440000Y-105040565D01*
X87440000Y-102324500D02*
X85927500Y-100812000D01*
X87889978Y-106829600D02*
X87714998Y-106654620D01*
%TO.N,/FS1*%
X86865000Y-103137000D02*
X85897500Y-103137000D01*
X86920480Y-103192480D02*
X86865000Y-103137000D01*
X86920480Y-105156762D02*
X86920480Y-103192480D01*
X87877200Y-107744000D02*
X87265478Y-107132278D01*
X87265478Y-105501761D02*
X86920480Y-105156762D01*
X87265478Y-107132278D02*
X87265478Y-105501761D01*
%TO.N,/FS2*%
X86560000Y-105432000D02*
X86007500Y-105432000D01*
X86815958Y-107682280D02*
X86815958Y-105687958D01*
X87885439Y-108751761D02*
X86815958Y-107682280D01*
X86815958Y-105687958D02*
X86560000Y-105432000D01*
%TO.N,/FS3*%
X87877200Y-109626700D02*
X85977500Y-107727000D01*
X87877200Y-109674400D02*
X87877200Y-109626700D01*
%TO.N,/TXP*%
X88090000Y-94872000D02*
X88090000Y-90042000D01*
X88090000Y-90042000D02*
X85710000Y-87662000D01*
X86620000Y-96342000D02*
X88090000Y-94872000D01*
%TO.N,/DIF0*%
X91230000Y-105585000D02*
X90947500Y-105867500D01*
X90947500Y-105867500D02*
X90947500Y-106647000D01*
%TO.N,/DIF1*%
X92037242Y-104738927D02*
X91706927Y-104738927D01*
X91706927Y-104738927D02*
X91320000Y-104352000D01*
%TO.N,/DIF2*%
X91839600Y-102811600D02*
X91085000Y-102057000D01*
X91839600Y-102841800D02*
X91839600Y-102811600D01*
%TO.N,/CKS0*%
X90925200Y-109003500D02*
X90897500Y-109031200D01*
X90897500Y-109031200D02*
X90897500Y-110022000D01*
%TO.N,/CKS1*%
X88105800Y-110411000D02*
X86139000Y-110411000D01*
X86139000Y-110411000D02*
X85760000Y-110032000D01*
X90137800Y-108379000D02*
X88105800Y-110411000D01*
X91915800Y-108379000D02*
X90137800Y-108379000D01*
%TO.N,Net-(C4-Pad1)*%
X85850000Y-85760000D02*
X85850000Y-82590000D01*
X83900000Y-87710000D02*
X85850000Y-85760000D01*
%TO.N,Net-(C4-Pad2)*%
X83312500Y-85162000D02*
X81423000Y-85162000D01*
X81423000Y-85162000D02*
X80898000Y-85687000D01*
%TD*%
%TO.N,GND*%
D27*
X89103366Y-80782911D02*
X89092956Y-80791707D01*
X89073004Y-80810509D01*
X89037146Y-80871785D01*
X89040108Y-80942719D01*
X89070323Y-80991303D01*
X91260905Y-83181885D01*
X91323217Y-83215911D01*
X91394032Y-83210846D01*
X91439095Y-83181885D01*
X93630073Y-80990907D01*
X93664099Y-80928595D01*
X93659034Y-80857780D01*
X93627713Y-80810417D01*
X93616318Y-80799603D01*
X93605937Y-80790768D01*
X93337140Y-80586000D01*
X94716000Y-80586000D01*
X94716000Y-82552316D01*
X94658698Y-82345690D01*
X94654352Y-82332774D01*
X94519865Y-81994823D01*
X94514148Y-81982452D01*
X94343949Y-81661003D01*
X94336931Y-81649322D01*
X94133012Y-81348134D01*
X94124772Y-81337279D01*
X93993419Y-81182392D01*
X93934105Y-81143375D01*
X93863112Y-81142620D01*
X93808228Y-81174792D01*
X91620115Y-83362905D01*
X91586089Y-83425217D01*
X91591154Y-83496032D01*
X91620115Y-83541095D01*
X93808180Y-85729160D01*
X93870492Y-85763186D01*
X93941307Y-85758121D01*
X93992800Y-85722230D01*
X94109941Y-85586042D01*
X94118256Y-85575244D01*
X94324273Y-85275487D01*
X94331373Y-85263855D01*
X94503812Y-84943602D01*
X94509615Y-84931271D01*
X94646458Y-84594268D01*
X94650894Y-84581383D01*
X94716000Y-84352826D01*
X94716000Y-115552316D01*
X94658698Y-115345690D01*
X94654352Y-115332774D01*
X94519865Y-114994823D01*
X94514148Y-114982452D01*
X94343949Y-114661003D01*
X94336931Y-114649322D01*
X94133012Y-114348134D01*
X94124772Y-114337279D01*
X93993419Y-114182392D01*
X93934105Y-114143375D01*
X93863112Y-114142620D01*
X93808228Y-114174792D01*
X91620115Y-116362905D01*
X91586089Y-116425217D01*
X91591154Y-116496032D01*
X91620115Y-116541095D01*
X93808180Y-118729160D01*
X93870492Y-118763186D01*
X93941307Y-118758121D01*
X93992800Y-118722230D01*
X94109941Y-118586042D01*
X94118256Y-118575244D01*
X94324273Y-118275487D01*
X94331373Y-118263855D01*
X94503812Y-117943602D01*
X94509615Y-117931271D01*
X94646458Y-117594268D01*
X94650894Y-117581383D01*
X94716000Y-117352826D01*
X94716000Y-119318000D01*
X93335466Y-119318000D01*
X93587304Y-119128915D01*
X93597744Y-119120155D01*
X93626308Y-119093425D01*
X93662380Y-119032275D01*
X93659665Y-118961330D01*
X93629310Y-118912330D01*
X91439095Y-116722115D01*
X91376783Y-116688089D01*
X91305968Y-116693154D01*
X91260905Y-116722115D01*
X89069502Y-118913518D01*
X89035476Y-118975830D01*
X89040541Y-119046645D01*
X89071555Y-119093716D01*
X89074449Y-119096481D01*
X89084787Y-119105340D01*
X89361930Y-119318000D01*
X78384000Y-119318000D01*
X78384000Y-116446636D01*
X87861249Y-116446636D01*
X87879651Y-116809897D01*
X87881076Y-116823450D01*
X87938603Y-117182599D01*
X87941483Y-117195919D01*
X88037460Y-117546754D01*
X88041761Y-117559685D01*
X88175068Y-117898103D01*
X88180741Y-117910494D01*
X88349816Y-118232535D01*
X88356794Y-118244241D01*
X88559661Y-118546139D01*
X88567863Y-118557023D01*
X88706231Y-118721339D01*
X88765410Y-118760562D01*
X88836399Y-118761564D01*
X88891706Y-118729274D01*
X91079885Y-116541095D01*
X91113911Y-116478783D01*
X91108846Y-116407968D01*
X91079885Y-116362905D01*
X88891810Y-114174830D01*
X88829498Y-114140804D01*
X88758683Y-114145869D01*
X88706903Y-114182095D01*
X88582626Y-114327606D01*
X88574350Y-114338432D01*
X88369380Y-114638906D01*
X88362320Y-114650563D01*
X88191001Y-114971417D01*
X88185242Y-114983767D01*
X88049576Y-115321245D01*
X88045184Y-115334146D01*
X87946759Y-115684303D01*
X87943786Y-115697603D01*
X87883754Y-116056342D01*
X87882235Y-116069885D01*
X87861297Y-116433008D01*
X87861249Y-116446636D01*
X78384000Y-116446636D01*
X78384000Y-113871785D01*
X89037146Y-113871785D01*
X89040108Y-113942719D01*
X89070323Y-113991303D01*
X91260905Y-116181885D01*
X91323217Y-116215911D01*
X91394032Y-116210846D01*
X91439095Y-116181885D01*
X93630073Y-113990907D01*
X93664099Y-113928595D01*
X93659034Y-113857780D01*
X93627713Y-113810417D01*
X93616318Y-113799603D01*
X93605937Y-113790768D01*
X93316602Y-113570354D01*
X93305331Y-113562694D01*
X92993884Y-113374817D01*
X92981852Y-113368419D01*
X92651936Y-113215277D01*
X92639282Y-113210216D01*
X92294756Y-113093601D01*
X92281630Y-113089937D01*
X91926525Y-113011212D01*
X91913080Y-113008986D01*
X91551550Y-112969073D01*
X91537944Y-112968312D01*
X91174218Y-112967677D01*
X91160609Y-112968390D01*
X90798941Y-113007041D01*
X90785488Y-113009220D01*
X90430111Y-113086705D01*
X90416973Y-113090324D01*
X90072042Y-113205736D01*
X90059371Y-113210753D01*
X89728922Y-113362742D01*
X89716867Y-113369098D01*
X89404766Y-113555887D01*
X89393468Y-113563508D01*
X89103366Y-113782911D01*
X89092956Y-113791707D01*
X89073004Y-113810509D01*
X89037146Y-113871785D01*
X78384000Y-113871785D01*
X78384000Y-108523430D01*
X79516922Y-108523430D01*
X79526702Y-108734725D01*
X79530074Y-108758420D01*
X79579632Y-108964055D01*
X79587424Y-108986685D01*
X79674973Y-109179238D01*
X79686904Y-109199987D01*
X79809284Y-109372511D01*
X79824923Y-109390629D01*
X79977719Y-109536899D01*
X79996502Y-109551733D01*
X80174200Y-109666472D01*
X80195450Y-109677486D01*
X80391639Y-109756552D01*
X80414587Y-109763350D01*
X80622187Y-109803892D01*
X80640183Y-109806078D01*
X80645745Y-109806350D01*
X80651899Y-109806500D01*
X81357846Y-109806500D01*
X81369813Y-109805930D01*
X81527533Y-109790882D01*
X81551035Y-109786357D01*
X81754003Y-109726813D01*
X81776226Y-109717924D01*
X81964272Y-109621074D01*
X81984413Y-109608144D01*
X82150753Y-109477482D01*
X82168085Y-109460976D01*
X82306717Y-109301217D01*
X82320616Y-109281732D01*
X82426537Y-109098641D01*
X82436501Y-109076879D01*
X82505889Y-108877062D01*
X82511557Y-108853809D01*
X82541909Y-108644476D01*
X82543078Y-108620570D01*
X82533298Y-108409275D01*
X82529926Y-108385580D01*
X82480368Y-108179945D01*
X82472576Y-108157315D01*
X82385027Y-107964762D01*
X82373096Y-107944013D01*
X82250716Y-107771489D01*
X82235077Y-107753371D01*
X82082281Y-107607101D01*
X82063498Y-107592267D01*
X82030742Y-107571116D01*
X82150407Y-107477118D01*
X82167739Y-107460613D01*
X82306308Y-107300927D01*
X82320207Y-107281441D01*
X82426080Y-107098432D01*
X82436044Y-107076670D01*
X82505401Y-106876943D01*
X82511070Y-106853685D01*
X82512463Y-106844075D01*
X82502440Y-106773790D01*
X82456009Y-106720081D01*
X82387766Y-106700000D01*
X79676483Y-106700000D01*
X79608362Y-106720002D01*
X79561869Y-106773658D01*
X79551765Y-106843932D01*
X79553990Y-106855521D01*
X79580107Y-106963891D01*
X79587899Y-106986521D01*
X79675408Y-107178988D01*
X79687339Y-107199737D01*
X79809664Y-107372183D01*
X79825303Y-107390301D01*
X79978030Y-107536505D01*
X79996813Y-107551339D01*
X80029230Y-107572270D01*
X79909247Y-107666518D01*
X79891915Y-107683024D01*
X79753283Y-107842783D01*
X79739384Y-107862268D01*
X79633463Y-108045359D01*
X79623499Y-108067121D01*
X79554111Y-108266938D01*
X79548443Y-108290191D01*
X79518091Y-108499524D01*
X79516922Y-108523430D01*
X78384000Y-108523430D01*
X78384000Y-104523430D01*
X79516922Y-104523430D01*
X79526702Y-104734725D01*
X79530074Y-104758420D01*
X79579632Y-104964055D01*
X79587424Y-104986685D01*
X79674973Y-105179238D01*
X79686904Y-105199987D01*
X79809284Y-105372511D01*
X79824923Y-105390629D01*
X79977719Y-105536899D01*
X79996502Y-105551733D01*
X80029258Y-105572884D01*
X79909593Y-105666882D01*
X79892261Y-105683387D01*
X79753692Y-105843073D01*
X79739793Y-105862559D01*
X79633920Y-106045568D01*
X79623956Y-106067330D01*
X79554599Y-106267057D01*
X79548930Y-106290315D01*
X79547537Y-106299925D01*
X79557560Y-106370210D01*
X79603991Y-106423919D01*
X79672234Y-106444000D01*
X82383517Y-106444000D01*
X82451638Y-106423998D01*
X82498131Y-106370342D01*
X82508235Y-106300068D01*
X82506010Y-106288479D01*
X82479893Y-106180109D01*
X82472101Y-106157479D01*
X82384592Y-105965012D01*
X82372661Y-105944263D01*
X82250336Y-105771817D01*
X82234697Y-105753699D01*
X82081970Y-105607495D01*
X82063187Y-105592661D01*
X82030770Y-105571730D01*
X82150753Y-105477482D01*
X82168085Y-105460976D01*
X82306717Y-105301217D01*
X82320616Y-105281732D01*
X82426537Y-105098641D01*
X82436501Y-105076879D01*
X82505889Y-104877062D01*
X82511557Y-104853809D01*
X82541909Y-104644476D01*
X82543078Y-104620570D01*
X82533298Y-104409275D01*
X82529926Y-104385580D01*
X82480368Y-104179945D01*
X82472576Y-104157315D01*
X82385027Y-103964762D01*
X82373096Y-103944013D01*
X82250716Y-103771489D01*
X82235077Y-103753371D01*
X82082281Y-103607101D01*
X82063498Y-103592267D01*
X82030742Y-103571116D01*
X82150407Y-103477118D01*
X82167739Y-103460613D01*
X82306308Y-103300927D01*
X82320207Y-103281441D01*
X82426080Y-103098432D01*
X82436044Y-103076670D01*
X82505401Y-102876943D01*
X82511070Y-102853685D01*
X82512463Y-102844075D01*
X82502440Y-102773790D01*
X82456009Y-102720081D01*
X82387766Y-102700000D01*
X79676483Y-102700000D01*
X79608362Y-102720002D01*
X79561869Y-102773658D01*
X79551765Y-102843932D01*
X79553990Y-102855521D01*
X79580107Y-102963891D01*
X79587899Y-102986521D01*
X79675408Y-103178988D01*
X79687339Y-103199737D01*
X79809664Y-103372183D01*
X79825303Y-103390301D01*
X79978030Y-103536505D01*
X79996813Y-103551339D01*
X80029230Y-103572270D01*
X79909247Y-103666518D01*
X79891915Y-103683024D01*
X79753283Y-103842783D01*
X79739384Y-103862268D01*
X79633463Y-104045359D01*
X79623499Y-104067121D01*
X79554111Y-104266938D01*
X79548443Y-104290191D01*
X79518091Y-104499524D01*
X79516922Y-104523430D01*
X78384000Y-104523430D01*
X78384000Y-100523430D01*
X79516922Y-100523430D01*
X79526702Y-100734725D01*
X79530074Y-100758420D01*
X79579632Y-100964055D01*
X79587424Y-100986685D01*
X79674973Y-101179238D01*
X79686904Y-101199987D01*
X79809284Y-101372511D01*
X79824923Y-101390629D01*
X79977719Y-101536899D01*
X79996502Y-101551733D01*
X80029258Y-101572884D01*
X79909593Y-101666882D01*
X79892261Y-101683387D01*
X79753692Y-101843073D01*
X79739793Y-101862559D01*
X79633920Y-102045568D01*
X79623956Y-102067330D01*
X79554599Y-102267057D01*
X79548930Y-102290315D01*
X79547537Y-102299925D01*
X79557560Y-102370210D01*
X79603991Y-102423919D01*
X79672234Y-102444000D01*
X82383517Y-102444000D01*
X82451638Y-102423998D01*
X82498131Y-102370342D01*
X82508235Y-102300068D01*
X82506010Y-102288479D01*
X82479893Y-102180109D01*
X82472101Y-102157479D01*
X82384592Y-101965012D01*
X82372661Y-101944263D01*
X82250336Y-101771817D01*
X82234697Y-101753699D01*
X82081970Y-101607495D01*
X82063187Y-101592661D01*
X82030770Y-101571730D01*
X82150753Y-101477482D01*
X82168085Y-101460976D01*
X82306717Y-101301217D01*
X82320616Y-101281732D01*
X82426537Y-101098641D01*
X82436501Y-101076879D01*
X82505889Y-100877062D01*
X82511557Y-100853809D01*
X82541909Y-100644476D01*
X82543078Y-100620570D01*
X82533298Y-100409275D01*
X82529926Y-100385580D01*
X82480368Y-100179945D01*
X82472576Y-100157315D01*
X82385027Y-99964762D01*
X82373096Y-99944013D01*
X82250716Y-99771489D01*
X82235077Y-99753371D01*
X82082281Y-99607101D01*
X82063498Y-99592267D01*
X82030742Y-99571116D01*
X82150407Y-99477118D01*
X82167739Y-99460613D01*
X82306308Y-99300927D01*
X82320207Y-99281441D01*
X82426080Y-99098432D01*
X82436044Y-99076670D01*
X82505401Y-98876943D01*
X82511070Y-98853685D01*
X82512463Y-98844075D01*
X82502440Y-98773790D01*
X82456009Y-98720081D01*
X82387766Y-98700000D01*
X79676483Y-98700000D01*
X79608362Y-98720002D01*
X79561869Y-98773658D01*
X79551765Y-98843932D01*
X79553990Y-98855521D01*
X79580107Y-98963891D01*
X79587899Y-98986521D01*
X79675408Y-99178988D01*
X79687339Y-99199737D01*
X79809664Y-99372183D01*
X79825303Y-99390301D01*
X79978030Y-99536505D01*
X79996813Y-99551339D01*
X80029230Y-99572270D01*
X79909247Y-99666518D01*
X79891915Y-99683024D01*
X79753283Y-99842783D01*
X79739384Y-99862268D01*
X79633463Y-100045359D01*
X79623499Y-100067121D01*
X79554111Y-100266938D01*
X79548443Y-100290191D01*
X79518091Y-100499524D01*
X79516922Y-100523430D01*
X78384000Y-100523430D01*
X78384000Y-96523430D01*
X79516922Y-96523430D01*
X79526702Y-96734725D01*
X79530074Y-96758420D01*
X79579632Y-96964055D01*
X79587424Y-96986685D01*
X79674973Y-97179238D01*
X79686904Y-97199987D01*
X79809284Y-97372511D01*
X79824923Y-97390629D01*
X79977719Y-97536899D01*
X79996502Y-97551733D01*
X80029258Y-97572884D01*
X79909593Y-97666882D01*
X79892261Y-97683387D01*
X79753692Y-97843073D01*
X79739793Y-97862559D01*
X79633920Y-98045568D01*
X79623956Y-98067330D01*
X79554599Y-98267057D01*
X79548930Y-98290315D01*
X79547537Y-98299925D01*
X79557560Y-98370210D01*
X79603991Y-98423919D01*
X79672234Y-98444000D01*
X82383517Y-98444000D01*
X82451638Y-98423998D01*
X82498131Y-98370342D01*
X82508235Y-98300068D01*
X82506010Y-98288479D01*
X82479893Y-98180109D01*
X82472101Y-98157479D01*
X82384592Y-97965012D01*
X82372661Y-97944263D01*
X82250336Y-97771817D01*
X82234697Y-97753699D01*
X82081970Y-97607495D01*
X82063187Y-97592661D01*
X82030770Y-97571730D01*
X82150753Y-97477482D01*
X82168085Y-97460976D01*
X82306717Y-97301217D01*
X82320616Y-97281732D01*
X82426537Y-97098641D01*
X82436501Y-97076879D01*
X82505889Y-96877062D01*
X82511557Y-96853809D01*
X82541909Y-96644476D01*
X82543078Y-96620570D01*
X82533298Y-96409275D01*
X82529926Y-96385580D01*
X82480368Y-96179945D01*
X82472576Y-96157315D01*
X82385027Y-95964762D01*
X82373096Y-95944013D01*
X82250716Y-95771489D01*
X82235077Y-95753371D01*
X82082281Y-95607101D01*
X82063498Y-95592267D01*
X82030742Y-95571116D01*
X82150407Y-95477118D01*
X82167739Y-95460613D01*
X82306308Y-95300927D01*
X82320207Y-95281441D01*
X82426080Y-95098432D01*
X82436044Y-95076670D01*
X82505401Y-94876943D01*
X82511070Y-94853685D01*
X82512463Y-94844075D01*
X82502440Y-94773790D01*
X82456009Y-94720081D01*
X82387766Y-94700000D01*
X79676483Y-94700000D01*
X79608362Y-94720002D01*
X79561869Y-94773658D01*
X79551765Y-94843932D01*
X79553990Y-94855521D01*
X79580107Y-94963891D01*
X79587899Y-94986521D01*
X79675408Y-95178988D01*
X79687339Y-95199737D01*
X79809664Y-95372183D01*
X79825303Y-95390301D01*
X79978030Y-95536505D01*
X79996813Y-95551339D01*
X80029230Y-95572270D01*
X79909247Y-95666518D01*
X79891915Y-95683024D01*
X79753283Y-95842783D01*
X79739384Y-95862268D01*
X79633463Y-96045359D01*
X79623499Y-96067121D01*
X79554111Y-96266938D01*
X79548443Y-96290191D01*
X79518091Y-96499524D01*
X79516922Y-96523430D01*
X78384000Y-96523430D01*
X78384000Y-86573134D01*
X79425500Y-86573134D01*
X79426237Y-86586742D01*
X79432992Y-86648924D01*
X79440273Y-86679546D01*
X79491403Y-86815935D01*
X79508559Y-86847270D01*
X79595913Y-86963826D01*
X79621174Y-86989087D01*
X79737730Y-87076441D01*
X79769065Y-87093597D01*
X79905454Y-87144727D01*
X79936076Y-87152008D01*
X79998258Y-87158763D01*
X80011866Y-87159500D01*
X81808134Y-87159500D01*
X81821742Y-87158763D01*
X81883924Y-87152008D01*
X81914546Y-87144727D01*
X82050935Y-87093597D01*
X82082270Y-87076441D01*
X82198826Y-86989087D01*
X82224087Y-86963826D01*
X82311441Y-86847270D01*
X82328597Y-86815935D01*
X82379727Y-86679546D01*
X82387008Y-86648924D01*
X82393763Y-86586742D01*
X82394500Y-86573134D01*
X82394500Y-85921500D01*
X82671466Y-85921500D01*
X82693927Y-85988822D01*
X82706306Y-86015249D01*
X82799378Y-86165651D01*
X82817504Y-86188521D01*
X82942679Y-86313478D01*
X82965581Y-86331565D01*
X83116146Y-86424375D01*
X83142595Y-86436708D01*
X83183381Y-86450236D01*
X83159751Y-86461306D01*
X83009349Y-86554378D01*
X82986479Y-86572504D01*
X82861522Y-86697679D01*
X82843435Y-86720581D01*
X82750625Y-86871146D01*
X82738292Y-86897595D01*
X82682610Y-87065472D01*
X82676859Y-87092296D01*
X82666156Y-87196757D01*
X82665500Y-87209600D01*
X82665500Y-88210400D01*
X82666173Y-88223404D01*
X82677147Y-88329170D01*
X82682950Y-88356042D01*
X82738926Y-88523822D01*
X82751306Y-88550249D01*
X82844378Y-88700651D01*
X82862504Y-88723521D01*
X82987679Y-88848478D01*
X83010581Y-88866565D01*
X83161146Y-88959375D01*
X83187595Y-88971708D01*
X83355472Y-89027390D01*
X83382296Y-89033141D01*
X83486757Y-89043844D01*
X83499600Y-89044500D01*
X84300400Y-89044500D01*
X84313404Y-89043827D01*
X84419170Y-89032853D01*
X84446042Y-89027050D01*
X84613822Y-88971074D01*
X84640249Y-88958694D01*
X84790651Y-88865622D01*
X84813521Y-88847496D01*
X84899957Y-88760909D01*
X84987679Y-88848478D01*
X85010581Y-88866565D01*
X85161146Y-88959375D01*
X85187595Y-88971708D01*
X85355472Y-89027390D01*
X85382296Y-89033141D01*
X85486757Y-89043844D01*
X85499600Y-89044500D01*
X86018406Y-89044500D01*
X86855447Y-89881541D01*
X86852358Y-89880996D01*
X86630982Y-89861628D01*
X86609018Y-89861628D01*
X86387642Y-89880996D01*
X86366013Y-89884810D01*
X86151364Y-89942325D01*
X86130725Y-89949837D01*
X85929325Y-90043752D01*
X85910306Y-90054733D01*
X85847126Y-90098971D01*
X85802796Y-90154428D01*
X85795486Y-90225047D01*
X85830300Y-90291280D01*
X86801020Y-91262000D01*
X85830300Y-92232720D01*
X85796274Y-92295032D01*
X85801339Y-92365847D01*
X85847125Y-92425028D01*
X85910304Y-92469266D01*
X85929324Y-92480248D01*
X86039715Y-92531724D01*
X85929074Y-92583317D01*
X85910053Y-92594299D01*
X85727948Y-92721810D01*
X85711124Y-92735928D01*
X85579552Y-92867500D01*
X83917082Y-92867500D01*
X82967329Y-91917747D01*
X82904252Y-91853335D01*
X82882484Y-91835582D01*
X82846050Y-91812102D01*
X82812165Y-91785052D01*
X82788395Y-91770083D01*
X82758201Y-91755487D01*
X82730018Y-91737324D01*
X82704858Y-91724834D01*
X82664122Y-91710007D01*
X82625089Y-91691138D01*
X82598595Y-91681808D01*
X82565917Y-91674264D01*
X82534410Y-91662796D01*
X82507106Y-91656190D01*
X82464091Y-91650756D01*
X82421860Y-91641006D01*
X82393955Y-91637777D01*
X82353385Y-91637635D01*
X82351231Y-91637500D01*
X82314581Y-91637500D01*
X82212570Y-91637144D01*
X82209293Y-91637500D01*
X82179688Y-91637500D01*
X82195651Y-91627622D01*
X82218521Y-91609496D01*
X82343478Y-91484321D01*
X82361565Y-91461419D01*
X82454375Y-91310854D01*
X82466708Y-91284405D01*
X82470497Y-91272982D01*
X85219628Y-91272982D01*
X85238996Y-91494358D01*
X85242810Y-91515987D01*
X85300325Y-91730636D01*
X85307837Y-91751275D01*
X85401752Y-91952675D01*
X85412733Y-91971694D01*
X85456971Y-92034874D01*
X85512428Y-92079204D01*
X85583047Y-92086514D01*
X85649280Y-92051700D01*
X86349885Y-91351095D01*
X86383911Y-91288783D01*
X86378846Y-91217968D01*
X86349885Y-91172905D01*
X85649280Y-90472300D01*
X85586968Y-90438274D01*
X85516153Y-90443339D01*
X85456971Y-90489126D01*
X85412733Y-90552306D01*
X85401752Y-90571325D01*
X85307837Y-90772725D01*
X85300325Y-90793364D01*
X85242810Y-91008013D01*
X85238996Y-91029642D01*
X85219628Y-91251018D01*
X85219628Y-91272982D01*
X82470497Y-91272982D01*
X82522390Y-91116528D01*
X82528141Y-91089704D01*
X82538844Y-90985243D01*
X82539500Y-90972400D01*
X82539500Y-90171600D01*
X82538827Y-90158596D01*
X82527853Y-90052830D01*
X82522050Y-90025958D01*
X82466074Y-89858178D01*
X82453694Y-89831751D01*
X82360622Y-89681349D01*
X82342496Y-89658479D01*
X82217321Y-89533522D01*
X82194419Y-89515435D01*
X82043854Y-89422625D01*
X82017405Y-89410292D01*
X81849528Y-89354610D01*
X81822704Y-89348859D01*
X81718243Y-89338156D01*
X81705400Y-89337500D01*
X80354600Y-89337500D01*
X80341596Y-89338173D01*
X80235830Y-89349147D01*
X80208958Y-89354950D01*
X80041178Y-89410926D01*
X80014751Y-89423306D01*
X79864349Y-89516378D01*
X79841479Y-89534504D01*
X79716522Y-89659679D01*
X79698435Y-89682581D01*
X79605625Y-89833146D01*
X79593292Y-89859595D01*
X79537610Y-90027472D01*
X79531859Y-90054296D01*
X79521156Y-90158757D01*
X79520500Y-90171600D01*
X79520500Y-90972400D01*
X79521173Y-90985404D01*
X79532147Y-91091170D01*
X79537950Y-91118042D01*
X79593926Y-91285822D01*
X79606306Y-91312249D01*
X79699378Y-91462651D01*
X79717504Y-91485521D01*
X79842679Y-91610478D01*
X79865581Y-91628565D01*
X79917120Y-91660334D01*
X79909247Y-91666518D01*
X79891915Y-91683024D01*
X79753283Y-91842783D01*
X79739384Y-91862268D01*
X79633463Y-92045359D01*
X79623499Y-92067121D01*
X79554111Y-92266938D01*
X79548443Y-92290191D01*
X79518091Y-92499524D01*
X79516922Y-92523430D01*
X79526702Y-92734725D01*
X79530074Y-92758420D01*
X79579632Y-92964055D01*
X79587424Y-92986685D01*
X79674973Y-93179238D01*
X79686904Y-93199987D01*
X79809284Y-93372511D01*
X79824923Y-93390629D01*
X79977719Y-93536899D01*
X79996502Y-93551733D01*
X80029258Y-93572884D01*
X79909593Y-93666882D01*
X79892261Y-93683387D01*
X79753692Y-93843073D01*
X79739793Y-93862559D01*
X79633920Y-94045568D01*
X79623956Y-94067330D01*
X79554599Y-94267057D01*
X79548930Y-94290315D01*
X79547537Y-94299925D01*
X79557560Y-94370210D01*
X79603991Y-94423919D01*
X79672234Y-94444000D01*
X82383517Y-94444000D01*
X82451638Y-94423998D01*
X82498131Y-94370342D01*
X82508235Y-94300068D01*
X82506010Y-94288479D01*
X82479893Y-94180109D01*
X82472101Y-94157479D01*
X82395566Y-93989149D01*
X82862624Y-94456206D01*
X82925747Y-94520665D01*
X82947516Y-94538419D01*
X82983959Y-94561905D01*
X83017834Y-94588947D01*
X83041605Y-94603917D01*
X83071799Y-94618513D01*
X83099982Y-94636676D01*
X83125142Y-94649166D01*
X83155500Y-94660216D01*
X83155500Y-96197786D01*
X83154556Y-96287901D01*
X83157395Y-96315848D01*
X83166555Y-96358213D01*
X83171388Y-96401301D01*
X83177611Y-96428692D01*
X83188642Y-96460368D01*
X83195727Y-96493138D01*
X83204686Y-96519759D01*
X83223006Y-96559046D01*
X83237264Y-96599990D01*
X83249400Y-96625321D01*
X83267172Y-96653763D01*
X83281343Y-96684152D01*
X83295979Y-96708129D01*
X83322547Y-96742380D01*
X83345519Y-96779144D01*
X83362967Y-96801159D01*
X83391569Y-96829962D01*
X83392983Y-96831565D01*
X83418662Y-96857244D01*
X83490779Y-96929866D01*
X83493356Y-96931938D01*
X85145500Y-98584082D01*
X85145500Y-99026879D01*
X85096920Y-99023567D01*
X85066688Y-99025151D01*
X85003749Y-99036136D01*
X84940324Y-99043811D01*
X84910921Y-99051033D01*
X84904508Y-99053456D01*
X84897760Y-99054634D01*
X84868775Y-99063384D01*
X84810271Y-99089065D01*
X84750510Y-99111647D01*
X84723680Y-99125674D01*
X84718033Y-99129555D01*
X84711755Y-99132311D01*
X84685694Y-99147723D01*
X84635007Y-99186618D01*
X84582357Y-99222802D01*
X84559647Y-99242824D01*
X84518193Y-99289351D01*
X84200385Y-99607159D01*
X84156785Y-99645194D01*
X84136528Y-99667692D01*
X84099785Y-99719972D01*
X84060370Y-99770240D01*
X84044686Y-99796137D01*
X84041866Y-99802383D01*
X84037925Y-99807990D01*
X84023617Y-99834673D01*
X84000405Y-99894210D01*
X83974119Y-99952425D01*
X83965065Y-99981312D01*
X83963815Y-99988057D01*
X83961324Y-99994446D01*
X83953796Y-100023767D01*
X83945457Y-100087110D01*
X83933814Y-100149928D01*
X83931913Y-100180144D01*
X83935500Y-100242350D01*
X83935500Y-100494975D01*
X83931023Y-100517482D01*
X83928602Y-100542064D01*
X83928602Y-100601936D01*
X83930552Y-100621736D01*
X83930552Y-101022264D01*
X83928602Y-101042064D01*
X83928602Y-101101936D01*
X83931023Y-101126518D01*
X83935500Y-101149025D01*
X83935500Y-102491340D01*
X83876352Y-102550488D01*
X83812047Y-102614123D01*
X83793243Y-102637849D01*
X83773583Y-102669931D01*
X83750370Y-102699536D01*
X83734687Y-102725432D01*
X83721012Y-102755718D01*
X83703643Y-102784062D01*
X83691040Y-102811589D01*
X83679602Y-102847430D01*
X83664118Y-102881722D01*
X83655065Y-102910612D01*
X83649008Y-102943294D01*
X83638903Y-102974956D01*
X83633230Y-103004694D01*
X83630671Y-103042226D01*
X83623814Y-103079225D01*
X83621913Y-103109439D01*
X83623827Y-103142631D01*
X83621567Y-103175783D01*
X83623151Y-103206015D01*
X83629619Y-103243077D01*
X83631785Y-103280638D01*
X83631833Y-103280903D01*
X83629374Y-103281740D01*
X83603957Y-103293701D01*
X83449466Y-103388745D01*
X83427330Y-103406039D01*
X83297735Y-103532948D01*
X83279982Y-103554716D01*
X83181724Y-103707183D01*
X83169234Y-103732343D01*
X83107196Y-103902790D01*
X83100591Y-103930093D01*
X83092954Y-103990546D01*
X83091564Y-103992026D01*
X83073000Y-104017576D01*
X83063239Y-104035330D01*
X83050825Y-104051335D01*
X83034749Y-104078518D01*
X83017189Y-104119097D01*
X82995890Y-104157840D01*
X82984264Y-104187205D01*
X82979226Y-104206826D01*
X82971182Y-104225415D01*
X82962370Y-104255743D01*
X82955453Y-104299411D01*
X82944458Y-104342236D01*
X82940500Y-104373570D01*
X82940500Y-104393824D01*
X82937331Y-104413832D01*
X82936339Y-104445401D01*
X82940500Y-104489419D01*
X82940500Y-110443553D01*
X82872974Y-110466540D01*
X82847557Y-110478501D01*
X82693066Y-110573545D01*
X82670930Y-110590839D01*
X82541335Y-110717748D01*
X82523582Y-110739516D01*
X82425324Y-110891983D01*
X82412834Y-110917143D01*
X82350796Y-111087590D01*
X82344191Y-111114893D01*
X82321457Y-111294848D01*
X82321064Y-111322935D01*
X82338764Y-111503455D01*
X82344605Y-111530932D01*
X82401860Y-111703045D01*
X82413642Y-111728544D01*
X82507604Y-111883695D01*
X82524743Y-111905951D01*
X82650745Y-112036429D01*
X82672389Y-112054334D01*
X82824166Y-112153654D01*
X82849239Y-112166319D01*
X83019248Y-112229545D01*
X83046503Y-112236341D01*
X83226296Y-112260331D01*
X83254381Y-112260919D01*
X83435020Y-112244479D01*
X83462536Y-112238831D01*
X83635044Y-112182780D01*
X83660625Y-112171176D01*
X83816429Y-112078298D01*
X83838804Y-112061315D01*
X83970158Y-111936228D01*
X83988214Y-111914709D01*
X84088591Y-111763629D01*
X84101431Y-111738646D01*
X84165843Y-111569082D01*
X84172829Y-111541874D01*
X84182384Y-111473890D01*
X84198869Y-111460252D01*
X84245478Y-111410617D01*
X84265228Y-111390868D01*
X84275695Y-111378995D01*
X84278170Y-111375804D01*
X84308436Y-111343574D01*
X84327000Y-111318024D01*
X84336761Y-111300270D01*
X84349175Y-111284265D01*
X84365251Y-111257082D01*
X84382811Y-111216503D01*
X84404110Y-111177760D01*
X84415736Y-111148395D01*
X84420774Y-111128774D01*
X84428818Y-111110185D01*
X84437630Y-111079857D01*
X84444547Y-111036189D01*
X84455542Y-110993364D01*
X84459500Y-110962030D01*
X84459500Y-110941776D01*
X84462669Y-110921768D01*
X84463661Y-110890199D01*
X84462993Y-110883135D01*
X84513638Y-110880215D01*
X84543434Y-110874854D01*
X84707338Y-110824431D01*
X84734995Y-110812117D01*
X84736113Y-110811448D01*
X84960000Y-110811448D01*
X84984582Y-110809027D01*
X85043304Y-110797346D01*
X85088723Y-110778532D01*
X85110000Y-110764315D01*
X85131277Y-110778532D01*
X85176696Y-110797346D01*
X85235418Y-110809027D01*
X85260000Y-110811448D01*
X85465353Y-110811448D01*
X85546253Y-110892348D01*
X85560747Y-110909868D01*
X85610399Y-110956494D01*
X85630135Y-110976230D01*
X85642005Y-110986695D01*
X85645196Y-110989170D01*
X85677426Y-111019436D01*
X85702976Y-111038000D01*
X85720730Y-111047761D01*
X85736735Y-111060175D01*
X85763918Y-111076251D01*
X85804497Y-111093811D01*
X85843240Y-111115110D01*
X85872605Y-111126736D01*
X85892226Y-111131774D01*
X85910815Y-111139818D01*
X85941143Y-111148630D01*
X85984811Y-111155547D01*
X86027636Y-111166542D01*
X86058970Y-111170500D01*
X86079224Y-111170500D01*
X86099232Y-111173669D01*
X86130801Y-111174661D01*
X86174819Y-111170500D01*
X88027033Y-111170500D01*
X88049668Y-111172640D01*
X88117745Y-111170500D01*
X88145656Y-111170500D01*
X88161446Y-111169507D01*
X88165457Y-111169000D01*
X88209648Y-111167611D01*
X88240841Y-111162670D01*
X88260292Y-111157019D01*
X88280390Y-111154480D01*
X88310981Y-111146626D01*
X88352095Y-111130348D01*
X88394545Y-111118015D01*
X88423533Y-111105471D01*
X88440969Y-111095159D01*
X88459799Y-111087704D01*
X88487477Y-111072489D01*
X88523247Y-111046501D01*
X88561302Y-111023995D01*
X88586257Y-111004637D01*
X88600578Y-110990316D01*
X88616968Y-110978408D01*
X88639992Y-110956788D01*
X88668183Y-110922711D01*
X90117318Y-109473576D01*
X90138000Y-109507726D01*
X90138000Y-110061856D01*
X90138994Y-110077648D01*
X90154020Y-110196589D01*
X90161874Y-110227181D01*
X90220796Y-110376001D01*
X90236012Y-110403678D01*
X90330092Y-110533168D01*
X90351712Y-110556192D01*
X90475040Y-110658218D01*
X90501707Y-110675141D01*
X90562085Y-110703553D01*
X90566731Y-110710506D01*
X90601495Y-110745269D01*
X90651277Y-110778532D01*
X90696696Y-110797346D01*
X90755418Y-110809027D01*
X90780000Y-110811448D01*
X91230264Y-110811448D01*
X91250064Y-110813398D01*
X91309936Y-110813398D01*
X91334517Y-110810977D01*
X91432062Y-110791574D01*
X91455701Y-110784403D01*
X91511016Y-110761490D01*
X91532798Y-110749847D01*
X91615493Y-110694592D01*
X91634586Y-110678922D01*
X91676922Y-110636586D01*
X91692592Y-110617493D01*
X91747847Y-110534798D01*
X91759490Y-110513016D01*
X91782403Y-110457701D01*
X91789574Y-110434062D01*
X91808977Y-110336517D01*
X91811398Y-110311936D01*
X91811398Y-110252064D01*
X91809448Y-110232264D01*
X91809448Y-109831736D01*
X91811398Y-109811936D01*
X91811398Y-109752064D01*
X91808977Y-109727483D01*
X91789574Y-109629938D01*
X91782403Y-109606299D01*
X91759490Y-109550984D01*
X91747847Y-109529202D01*
X91722819Y-109491745D01*
X91753791Y-109445129D01*
X91766631Y-109420146D01*
X91809373Y-109307628D01*
X91882096Y-109317331D01*
X91910181Y-109317919D01*
X92090820Y-109301479D01*
X92118336Y-109295831D01*
X92290844Y-109239780D01*
X92316425Y-109228176D01*
X92472229Y-109135298D01*
X92494604Y-109118315D01*
X92625958Y-108993228D01*
X92644014Y-108971709D01*
X92744391Y-108820629D01*
X92757231Y-108795646D01*
X92821643Y-108626082D01*
X92828629Y-108598874D01*
X92853873Y-108419253D01*
X92855087Y-108403475D01*
X92855404Y-108380758D01*
X92854631Y-108364955D01*
X92834412Y-108184700D01*
X92828188Y-108157308D01*
X92768536Y-107986011D01*
X92756399Y-107960679D01*
X92660280Y-107806855D01*
X92642832Y-107784840D01*
X92515021Y-107656134D01*
X92493129Y-107638533D01*
X92339980Y-107541342D01*
X92314733Y-107529028D01*
X92143857Y-107468182D01*
X92116509Y-107461767D01*
X91936399Y-107440290D01*
X91908309Y-107440094D01*
X91727917Y-107459054D01*
X91700483Y-107465086D01*
X91528774Y-107523540D01*
X91503357Y-107535501D01*
X91366819Y-107619500D01*
X90216567Y-107619500D01*
X90193933Y-107617360D01*
X90125843Y-107619500D01*
X90097944Y-107619500D01*
X90082156Y-107620493D01*
X90078153Y-107620999D01*
X90033952Y-107622388D01*
X90002757Y-107627329D01*
X89983304Y-107632981D01*
X89963212Y-107635519D01*
X89932620Y-107643374D01*
X89891510Y-107659650D01*
X89849052Y-107671986D01*
X89820067Y-107684529D01*
X89802631Y-107694841D01*
X89783801Y-107702296D01*
X89756123Y-107717511D01*
X89720353Y-107743499D01*
X89682298Y-107766005D01*
X89657343Y-107785363D01*
X89643022Y-107799684D01*
X89626632Y-107811592D01*
X89603608Y-107833212D01*
X89575417Y-107867289D01*
X88812240Y-108630465D01*
X88804051Y-108557461D01*
X88797827Y-108530069D01*
X88738175Y-108358772D01*
X88726038Y-108333440D01*
X88668628Y-108241564D01*
X88705791Y-108185629D01*
X88718631Y-108160646D01*
X88783043Y-107991082D01*
X88790029Y-107963874D01*
X88815273Y-107784253D01*
X88816487Y-107768475D01*
X88816804Y-107745758D01*
X88816031Y-107729955D01*
X88795812Y-107549700D01*
X88789588Y-107522308D01*
X88729936Y-107351011D01*
X88717799Y-107325679D01*
X88700639Y-107298216D01*
X88718569Y-107271229D01*
X88731409Y-107246246D01*
X88795821Y-107076682D01*
X88802807Y-107049474D01*
X88828051Y-106869853D01*
X88829265Y-106854075D01*
X88829582Y-106831358D01*
X88828809Y-106815555D01*
X88808590Y-106635300D01*
X88802366Y-106607908D01*
X88742714Y-106436611D01*
X88730577Y-106411279D01*
X88634458Y-106257455D01*
X88617010Y-106235440D01*
X88489199Y-106106734D01*
X88474498Y-106094915D01*
X88474498Y-105394330D01*
X88476638Y-105371696D01*
X88474498Y-105303606D01*
X88474498Y-105275707D01*
X88473505Y-105259919D01*
X88472999Y-105255916D01*
X88471610Y-105211715D01*
X88466669Y-105180520D01*
X88461017Y-105161067D01*
X88458479Y-105140975D01*
X88450624Y-105110383D01*
X88434348Y-105069273D01*
X88422012Y-105026815D01*
X88409469Y-104997830D01*
X88399157Y-104980394D01*
X88391702Y-104961564D01*
X88376487Y-104933886D01*
X88350499Y-104898116D01*
X88327993Y-104860061D01*
X88308635Y-104835106D01*
X88294311Y-104820782D01*
X88282406Y-104804396D01*
X88260785Y-104781371D01*
X88226715Y-104753186D01*
X88199500Y-104725971D01*
X88199500Y-102843751D01*
X88219723Y-102852882D01*
X88248608Y-102861935D01*
X88255353Y-102863185D01*
X88261742Y-102865676D01*
X88291063Y-102873204D01*
X88354408Y-102881543D01*
X88417225Y-102893186D01*
X88447441Y-102895087D01*
X88509647Y-102891500D01*
X89195500Y-102891500D01*
X89195500Y-106700003D01*
X89196413Y-106715141D01*
X89211811Y-106842380D01*
X89219032Y-106871780D01*
X89279647Y-107032194D01*
X89293673Y-107059023D01*
X89390803Y-107200348D01*
X89410824Y-107223057D01*
X89538860Y-107337133D01*
X89563720Y-107354411D01*
X89715272Y-107434654D01*
X89743536Y-107445504D01*
X89909854Y-107487280D01*
X89939889Y-107491074D01*
X90111371Y-107491972D01*
X90141445Y-107488493D01*
X90308191Y-107448461D01*
X90336567Y-107437908D01*
X90339396Y-107436448D01*
X90530000Y-107436448D01*
X90554582Y-107434027D01*
X90613304Y-107422346D01*
X90658723Y-107403532D01*
X90680000Y-107389315D01*
X90701277Y-107403532D01*
X90746696Y-107422346D01*
X90805418Y-107434027D01*
X90830000Y-107436448D01*
X91280264Y-107436448D01*
X91300064Y-107438398D01*
X91359936Y-107438398D01*
X91384517Y-107435977D01*
X91482062Y-107416574D01*
X91505701Y-107409403D01*
X91561016Y-107386490D01*
X91582798Y-107374847D01*
X91665493Y-107319592D01*
X91684586Y-107303922D01*
X91726922Y-107261586D01*
X91742592Y-107242493D01*
X91797847Y-107159798D01*
X91809490Y-107138016D01*
X91832403Y-107082701D01*
X91839574Y-107059062D01*
X91858977Y-106961517D01*
X91861398Y-106936936D01*
X91861398Y-106877064D01*
X91859448Y-106857264D01*
X91859448Y-106456736D01*
X91861398Y-106436936D01*
X91861398Y-106377064D01*
X91858977Y-106352483D01*
X91846276Y-106288631D01*
X91940158Y-106199228D01*
X91958214Y-106177709D01*
X92058591Y-106026629D01*
X92071431Y-106001646D01*
X92135843Y-105832082D01*
X92142829Y-105804874D01*
X92162354Y-105665948D01*
X92212262Y-105661406D01*
X92239778Y-105655758D01*
X92412286Y-105599707D01*
X92437867Y-105588103D01*
X92593671Y-105495225D01*
X92616046Y-105478242D01*
X92747400Y-105353155D01*
X92765456Y-105331636D01*
X92865833Y-105180556D01*
X92878673Y-105155573D01*
X92943085Y-104986009D01*
X92950071Y-104958801D01*
X92975315Y-104779180D01*
X92976529Y-104763402D01*
X92976846Y-104740685D01*
X92976073Y-104724882D01*
X92955854Y-104544627D01*
X92949630Y-104517235D01*
X92889978Y-104345938D01*
X92877841Y-104320606D01*
X92781722Y-104166782D01*
X92764274Y-104144767D01*
X92636463Y-104016061D01*
X92614571Y-103998460D01*
X92461422Y-103901269D01*
X92436175Y-103888955D01*
X92265299Y-103828109D01*
X92237951Y-103821694D01*
X92057841Y-103800217D01*
X92029751Y-103800021D01*
X91859962Y-103817867D01*
X91828865Y-103786770D01*
X91821711Y-103780462D01*
X91833981Y-103780719D01*
X92014620Y-103764279D01*
X92042136Y-103758631D01*
X92214644Y-103702580D01*
X92240225Y-103690976D01*
X92396029Y-103598098D01*
X92418404Y-103581115D01*
X92549758Y-103456028D01*
X92567814Y-103434509D01*
X92668191Y-103283429D01*
X92681031Y-103258446D01*
X92745443Y-103088882D01*
X92752429Y-103061674D01*
X92777673Y-102882053D01*
X92778887Y-102866275D01*
X92779204Y-102843558D01*
X92778431Y-102827755D01*
X92758212Y-102647500D01*
X92751988Y-102620108D01*
X92692336Y-102448811D01*
X92680199Y-102423479D01*
X92584080Y-102269655D01*
X92566632Y-102247640D01*
X92438821Y-102118934D01*
X92416929Y-102101333D01*
X92263780Y-102004142D01*
X92238533Y-101991828D01*
X92067657Y-101930982D01*
X92040310Y-101924567D01*
X92024814Y-101922719D01*
X91857586Y-101755491D01*
X91839574Y-101664938D01*
X91832403Y-101641299D01*
X91809490Y-101585984D01*
X91797847Y-101564202D01*
X91742592Y-101481507D01*
X91726922Y-101462414D01*
X91684586Y-101420078D01*
X91665493Y-101404408D01*
X91582798Y-101349153D01*
X91561016Y-101337510D01*
X91505701Y-101314597D01*
X91482062Y-101307426D01*
X91384517Y-101288023D01*
X91359936Y-101285602D01*
X91300064Y-101285602D01*
X91280264Y-101287552D01*
X90830000Y-101287552D01*
X90805418Y-101289973D01*
X90746696Y-101301654D01*
X90701277Y-101320468D01*
X90680000Y-101334685D01*
X90658723Y-101320468D01*
X90613304Y-101301654D01*
X90554582Y-101289973D01*
X90530000Y-101287552D01*
X90360228Y-101287552D01*
X90344728Y-101279345D01*
X90316465Y-101268496D01*
X90284228Y-101260399D01*
X90253261Y-101248325D01*
X90223936Y-101240796D01*
X90186638Y-101235886D01*
X90150148Y-101226720D01*
X90120112Y-101222926D01*
X90080000Y-101222716D01*
X90076706Y-101222500D01*
X90038762Y-101222500D01*
X89948629Y-101222028D01*
X89944550Y-101222500D01*
X88830660Y-101222500D01*
X87014500Y-99406340D01*
X87014500Y-98206214D01*
X87015444Y-98116099D01*
X87012605Y-98088151D01*
X87002279Y-98040392D01*
X86998612Y-98007701D01*
X86992388Y-97980307D01*
X86984210Y-97956823D01*
X86974273Y-97910863D01*
X86965314Y-97884240D01*
X86940115Y-97830200D01*
X86932736Y-97809011D01*
X86920600Y-97783680D01*
X86912018Y-97769945D01*
X86899939Y-97744043D01*
X88194745Y-97744043D01*
X88195821Y-97761149D01*
X88233346Y-98046180D01*
X88236734Y-98062982D01*
X88312595Y-98340284D01*
X88318232Y-98356471D01*
X88431026Y-98620911D01*
X88438807Y-98636182D01*
X88586445Y-98882867D01*
X88596227Y-98896942D01*
X88775979Y-99121309D01*
X88787580Y-99133925D01*
X88996118Y-99331820D01*
X89009325Y-99342745D01*
X89242791Y-99510508D01*
X89257358Y-99519540D01*
X89511433Y-99654066D01*
X89527091Y-99661038D01*
X89797072Y-99759837D01*
X89813531Y-99764619D01*
X90094422Y-99825863D01*
X90111378Y-99828367D01*
X90336853Y-99846112D01*
X90346739Y-99846500D01*
X90502271Y-99846500D01*
X90510841Y-99846208D01*
X90725395Y-99831581D01*
X90742376Y-99829255D01*
X91023893Y-99770956D01*
X91040402Y-99766347D01*
X91311403Y-99670380D01*
X91327133Y-99663573D01*
X91582602Y-99531716D01*
X91597263Y-99522837D01*
X91832474Y-99357528D01*
X91845794Y-99346741D01*
X92056393Y-99151040D01*
X92068126Y-99138546D01*
X92250217Y-98916074D01*
X92260146Y-98902103D01*
X92410360Y-98656977D01*
X92418300Y-98641787D01*
X92533856Y-98378543D01*
X92539662Y-98362417D01*
X92618423Y-98085925D01*
X92621987Y-98069159D01*
X92662494Y-97784537D01*
X92663749Y-97767444D01*
X92665255Y-97479957D01*
X92664179Y-97462851D01*
X92626654Y-97177820D01*
X92623266Y-97161018D01*
X92547405Y-96883716D01*
X92541768Y-96867529D01*
X92428974Y-96603089D01*
X92421193Y-96587818D01*
X92273555Y-96341133D01*
X92263773Y-96327058D01*
X92084021Y-96102691D01*
X92072420Y-96090075D01*
X91863882Y-95892180D01*
X91850675Y-95881255D01*
X91617209Y-95713492D01*
X91602642Y-95704460D01*
X91348567Y-95569934D01*
X91332909Y-95562962D01*
X91062928Y-95464163D01*
X91046469Y-95459381D01*
X90765578Y-95398137D01*
X90748622Y-95395633D01*
X90523147Y-95377888D01*
X90513261Y-95377500D01*
X90357729Y-95377500D01*
X90349159Y-95377792D01*
X90134605Y-95392419D01*
X90117624Y-95394745D01*
X89836107Y-95453044D01*
X89819598Y-95457653D01*
X89548597Y-95553620D01*
X89532867Y-95560427D01*
X89277398Y-95692284D01*
X89262737Y-95701163D01*
X89027526Y-95866472D01*
X89014206Y-95877259D01*
X88803607Y-96072960D01*
X88791874Y-96085454D01*
X88609783Y-96307926D01*
X88599854Y-96321897D01*
X88449640Y-96567023D01*
X88441700Y-96582213D01*
X88326144Y-96845457D01*
X88320338Y-96861583D01*
X88241577Y-97138075D01*
X88238013Y-97154841D01*
X88197506Y-97439463D01*
X88196251Y-97456556D01*
X88194745Y-97744043D01*
X86899939Y-97744043D01*
X86888657Y-97719848D01*
X86886522Y-97716350D01*
X87088807Y-97662147D01*
X87109446Y-97654635D01*
X87310927Y-97560683D01*
X87329948Y-97549701D01*
X87512052Y-97422190D01*
X87528876Y-97408072D01*
X87686072Y-97250876D01*
X87700190Y-97234052D01*
X87827701Y-97051947D01*
X87838683Y-97032926D01*
X87932635Y-96831446D01*
X87940147Y-96810807D01*
X87997685Y-96596074D01*
X88001499Y-96574444D01*
X88020874Y-96352981D01*
X88020874Y-96331019D01*
X88001499Y-96109556D01*
X87997685Y-96087925D01*
X87987221Y-96048874D01*
X88571348Y-95464747D01*
X88588868Y-95450253D01*
X88635493Y-95400602D01*
X88655230Y-95380865D01*
X88665695Y-95368995D01*
X88668170Y-95365804D01*
X88698436Y-95333574D01*
X88717000Y-95308024D01*
X88726761Y-95290270D01*
X88739175Y-95274265D01*
X88755251Y-95247082D01*
X88772811Y-95206503D01*
X88794110Y-95167760D01*
X88805736Y-95138395D01*
X88810774Y-95118774D01*
X88818818Y-95100185D01*
X88827630Y-95069857D01*
X88834547Y-95026189D01*
X88845542Y-94983364D01*
X88849500Y-94952030D01*
X88849500Y-94931776D01*
X88852669Y-94911768D01*
X88853661Y-94880199D01*
X88849500Y-94836181D01*
X88849500Y-91572685D01*
X88996118Y-91711820D01*
X89009325Y-91722745D01*
X89242791Y-91890508D01*
X89257358Y-91899540D01*
X89511433Y-92034066D01*
X89527091Y-92041038D01*
X89797072Y-92139837D01*
X89813531Y-92144619D01*
X90094422Y-92205863D01*
X90111378Y-92208367D01*
X90336853Y-92226112D01*
X90346739Y-92226500D01*
X90502271Y-92226500D01*
X90510841Y-92226208D01*
X90725395Y-92211581D01*
X90742376Y-92209255D01*
X91023893Y-92150956D01*
X91040402Y-92146347D01*
X91311403Y-92050380D01*
X91327133Y-92043573D01*
X91582602Y-91911716D01*
X91597263Y-91902837D01*
X91832474Y-91737528D01*
X91845794Y-91726741D01*
X92056393Y-91531040D01*
X92068126Y-91518546D01*
X92250217Y-91296074D01*
X92260146Y-91282103D01*
X92410360Y-91036977D01*
X92418300Y-91021787D01*
X92533856Y-90758543D01*
X92539662Y-90742417D01*
X92618423Y-90465925D01*
X92621987Y-90449159D01*
X92662494Y-90164537D01*
X92663749Y-90147444D01*
X92665255Y-89859957D01*
X92664179Y-89842851D01*
X92626654Y-89557820D01*
X92623266Y-89541018D01*
X92547405Y-89263716D01*
X92541768Y-89247529D01*
X92428974Y-88983089D01*
X92421193Y-88967818D01*
X92273555Y-88721133D01*
X92263773Y-88707058D01*
X92084021Y-88482691D01*
X92072420Y-88470075D01*
X91863882Y-88272180D01*
X91850675Y-88261255D01*
X91617209Y-88093492D01*
X91602642Y-88084460D01*
X91348567Y-87949934D01*
X91332909Y-87942962D01*
X91062928Y-87844163D01*
X91046469Y-87839381D01*
X90765578Y-87778137D01*
X90748622Y-87775633D01*
X90523147Y-87757888D01*
X90513261Y-87757500D01*
X90357729Y-87757500D01*
X90349159Y-87757792D01*
X90134605Y-87772419D01*
X90117624Y-87774745D01*
X89836107Y-87833044D01*
X89819598Y-87837653D01*
X89548597Y-87933620D01*
X89532867Y-87940427D01*
X89277398Y-88072284D01*
X89262737Y-88081163D01*
X89027526Y-88246472D01*
X89014206Y-88257259D01*
X88803607Y-88452960D01*
X88791874Y-88465454D01*
X88609783Y-88687926D01*
X88599854Y-88701897D01*
X88449640Y-88947023D01*
X88441700Y-88962213D01*
X88332675Y-89210580D01*
X87134500Y-88012405D01*
X87134500Y-87209600D01*
X87133827Y-87196596D01*
X87122853Y-87090830D01*
X87117050Y-87063958D01*
X87061074Y-86896178D01*
X87048694Y-86869751D01*
X86955622Y-86719349D01*
X86937496Y-86696479D01*
X86812321Y-86571522D01*
X86789419Y-86553435D01*
X86638854Y-86460625D01*
X86612405Y-86448292D01*
X86597259Y-86443268D01*
X86618822Y-86436074D01*
X86645249Y-86423694D01*
X86795651Y-86330622D01*
X86818521Y-86312496D01*
X86943478Y-86187321D01*
X86961565Y-86164419D01*
X87054375Y-86013854D01*
X87066708Y-85987405D01*
X87070547Y-85975830D01*
X89035476Y-85975830D01*
X89040541Y-86046645D01*
X89071555Y-86093716D01*
X89074449Y-86096481D01*
X89084787Y-86105340D01*
X89373350Y-86326763D01*
X89384595Y-86334463D01*
X89695385Y-86523426D01*
X89707395Y-86529866D01*
X90036774Y-86684158D01*
X90049409Y-86689263D01*
X90393526Y-86807081D01*
X90406639Y-86810791D01*
X90761467Y-86890755D01*
X90774904Y-86893028D01*
X91136293Y-86934203D01*
X91149897Y-86935011D01*
X91513618Y-86936915D01*
X91527230Y-86936250D01*
X91889030Y-86898862D01*
X91902490Y-86896730D01*
X92258136Y-86820486D01*
X92271287Y-86816913D01*
X92616619Y-86702705D01*
X92629307Y-86697732D01*
X92960284Y-86546897D01*
X92972361Y-86540583D01*
X93285112Y-86354885D01*
X93296437Y-86347304D01*
X93587304Y-86128915D01*
X93597744Y-86120155D01*
X93626308Y-86093425D01*
X93662380Y-86032275D01*
X93659665Y-85961330D01*
X93629310Y-85912330D01*
X91439095Y-83722115D01*
X91376783Y-83688089D01*
X91305968Y-83693154D01*
X91260905Y-83722115D01*
X89069502Y-85913518D01*
X89035476Y-85975830D01*
X87070547Y-85975830D01*
X87122390Y-85819528D01*
X87128141Y-85792704D01*
X87138844Y-85688243D01*
X87139500Y-85675400D01*
X87139500Y-84624600D01*
X87138827Y-84611596D01*
X87127853Y-84505830D01*
X87122050Y-84478958D01*
X87066074Y-84311178D01*
X87053694Y-84284751D01*
X86960622Y-84134349D01*
X86942496Y-84111479D01*
X86817321Y-83986522D01*
X86794419Y-83968435D01*
X86643854Y-83875625D01*
X86617405Y-83863292D01*
X86609500Y-83860670D01*
X86609500Y-83826781D01*
X86740651Y-83745622D01*
X86763521Y-83727496D01*
X86888478Y-83602321D01*
X86906565Y-83579419D01*
X86988414Y-83446636D01*
X87861249Y-83446636D01*
X87879651Y-83809897D01*
X87881076Y-83823450D01*
X87938603Y-84182599D01*
X87941483Y-84195919D01*
X88037460Y-84546754D01*
X88041761Y-84559685D01*
X88175068Y-84898103D01*
X88180741Y-84910494D01*
X88349816Y-85232535D01*
X88356794Y-85244241D01*
X88559661Y-85546139D01*
X88567863Y-85557023D01*
X88706231Y-85721339D01*
X88765410Y-85760562D01*
X88836399Y-85761564D01*
X88891706Y-85729274D01*
X91079885Y-83541095D01*
X91113911Y-83478783D01*
X91108846Y-83407968D01*
X91079885Y-83362905D01*
X88891810Y-81174830D01*
X88829498Y-81140804D01*
X88758683Y-81145869D01*
X88706903Y-81182095D01*
X88582626Y-81327606D01*
X88574350Y-81338432D01*
X88369380Y-81638906D01*
X88362320Y-81650563D01*
X88191001Y-81971417D01*
X88185242Y-81983767D01*
X88049576Y-82321245D01*
X88045184Y-82334146D01*
X87946759Y-82684303D01*
X87943786Y-82697603D01*
X87883754Y-83056342D01*
X87882235Y-83069885D01*
X87861297Y-83433008D01*
X87861249Y-83446636D01*
X86988414Y-83446636D01*
X86999375Y-83428854D01*
X87011708Y-83402405D01*
X87067390Y-83234528D01*
X87073141Y-83207704D01*
X87083844Y-83103243D01*
X87084500Y-83090400D01*
X87084500Y-82089600D01*
X87083827Y-82076596D01*
X87072853Y-81970830D01*
X87067050Y-81943958D01*
X87011074Y-81776178D01*
X86998694Y-81749751D01*
X86905622Y-81599349D01*
X86887496Y-81576479D01*
X86762321Y-81451522D01*
X86739419Y-81433435D01*
X86588854Y-81340625D01*
X86562405Y-81328292D01*
X86394528Y-81272610D01*
X86367704Y-81266859D01*
X86263243Y-81256156D01*
X86250400Y-81255500D01*
X85449600Y-81255500D01*
X85436596Y-81256173D01*
X85330830Y-81267147D01*
X85303958Y-81272950D01*
X85136178Y-81328926D01*
X85109751Y-81341306D01*
X84959349Y-81434378D01*
X84936479Y-81452504D01*
X84849689Y-81539445D01*
X84762009Y-81451917D01*
X84739107Y-81433830D01*
X84588641Y-81341082D01*
X84562193Y-81328749D01*
X84394427Y-81273103D01*
X84367601Y-81267352D01*
X84263205Y-81256656D01*
X84250363Y-81256000D01*
X84104000Y-81256000D01*
X84035879Y-81276002D01*
X83989386Y-81329658D01*
X83978000Y-81382000D01*
X83978000Y-82718000D01*
X82742001Y-82718000D01*
X82673880Y-82738002D01*
X82627387Y-82791658D01*
X82616001Y-82844000D01*
X82616001Y-83090362D01*
X82616674Y-83103365D01*
X82627641Y-83209066D01*
X82633444Y-83235939D01*
X82689382Y-83403608D01*
X82701762Y-83430035D01*
X82794773Y-83580338D01*
X82812899Y-83603208D01*
X82937991Y-83728083D01*
X82960893Y-83746170D01*
X83111359Y-83838918D01*
X83137807Y-83851251D01*
X83158549Y-83858131D01*
X83141178Y-83863926D01*
X83114751Y-83876306D01*
X82964349Y-83969378D01*
X82941479Y-83987504D01*
X82816522Y-84112679D01*
X82798435Y-84135581D01*
X82705625Y-84286146D01*
X82693292Y-84312595D01*
X82663472Y-84402500D01*
X82236323Y-84402500D01*
X82224087Y-84386174D01*
X82198826Y-84360913D01*
X82082270Y-84273559D01*
X82050935Y-84256403D01*
X81931917Y-84211785D01*
X82036653Y-84107413D01*
X82050035Y-84091689D01*
X82180344Y-83910345D01*
X82190979Y-83892646D01*
X82289921Y-83692453D01*
X82297522Y-83673255D01*
X82362438Y-83459592D01*
X82366802Y-83439408D01*
X82371273Y-83405445D01*
X82360333Y-83335297D01*
X82313205Y-83282198D01*
X82246351Y-83263000D01*
X79575110Y-83263000D01*
X79506989Y-83283002D01*
X79460496Y-83336658D01*
X79450392Y-83406932D01*
X79452193Y-83416701D01*
X79486784Y-83570190D01*
X79492958Y-83589893D01*
X79576971Y-83796794D01*
X79586281Y-83815225D01*
X79702959Y-84005626D01*
X79715155Y-84022288D01*
X79861364Y-84191076D01*
X79876116Y-84205523D01*
X79885035Y-84212928D01*
X79769065Y-84256403D01*
X79737730Y-84273559D01*
X79621174Y-84360913D01*
X79595913Y-84386174D01*
X79508559Y-84502730D01*
X79491403Y-84534065D01*
X79440273Y-84670454D01*
X79432992Y-84701076D01*
X79426237Y-84763258D01*
X79425500Y-84776866D01*
X79425500Y-86573134D01*
X78384000Y-86573134D01*
X78384000Y-82867590D01*
X79446055Y-82867590D01*
X79458693Y-82937453D01*
X79507096Y-82989392D01*
X79571339Y-83007000D01*
X80656000Y-83007000D01*
X80724121Y-82986998D01*
X80770614Y-82933342D01*
X80782000Y-82881000D01*
X81038000Y-82881000D01*
X81058002Y-82949121D01*
X81111658Y-82995614D01*
X81164000Y-83007000D01*
X82246459Y-83007000D01*
X82314580Y-82986998D01*
X82361073Y-82933342D01*
X82371177Y-82863068D01*
X82368663Y-82850304D01*
X82322159Y-82665167D01*
X82315505Y-82645621D01*
X82226462Y-82440835D01*
X82216704Y-82422637D01*
X82160656Y-82336000D01*
X82616000Y-82336000D01*
X82636002Y-82404121D01*
X82689658Y-82450614D01*
X82742000Y-82462000D01*
X83596000Y-82462000D01*
X83664121Y-82441998D01*
X83710614Y-82388342D01*
X83722000Y-82336000D01*
X83722000Y-81382001D01*
X83701998Y-81313880D01*
X83648342Y-81267387D01*
X83596000Y-81256001D01*
X83449638Y-81256001D01*
X83436635Y-81256674D01*
X83330934Y-81267641D01*
X83304061Y-81273444D01*
X83136392Y-81329382D01*
X83109965Y-81341762D01*
X82959662Y-81434773D01*
X82936792Y-81452899D01*
X82811917Y-81577991D01*
X82793830Y-81600893D01*
X82701082Y-81751359D01*
X82688749Y-81777807D01*
X82633103Y-81945573D01*
X82627352Y-81972399D01*
X82616656Y-82076795D01*
X82616000Y-82089637D01*
X82616000Y-82336000D01*
X82160656Y-82336000D01*
X82095409Y-82235143D01*
X82082810Y-82218783D01*
X81932521Y-82053618D01*
X81917420Y-82039536D01*
X81742173Y-81901135D01*
X81724975Y-81889709D01*
X81529477Y-81781788D01*
X81510643Y-81773323D01*
X81300144Y-81698781D01*
X81280180Y-81693507D01*
X81186096Y-81676748D01*
X81115524Y-81684494D01*
X81060342Y-81729164D01*
X81038000Y-81800795D01*
X81038000Y-82881000D01*
X80782000Y-82881000D01*
X80782000Y-81799987D01*
X80761998Y-81731866D01*
X80708342Y-81685373D01*
X80636940Y-81675437D01*
X80575148Y-81684893D01*
X80555063Y-81689678D01*
X80342805Y-81759054D01*
X80323770Y-81767056D01*
X80125694Y-81870168D01*
X80108221Y-81881171D01*
X79929645Y-82015250D01*
X79914204Y-82028959D01*
X79759925Y-82190403D01*
X79746931Y-82206450D01*
X79621091Y-82390924D01*
X79610891Y-82408878D01*
X79516871Y-82611428D01*
X79509742Y-82630806D01*
X79450065Y-82845992D01*
X79446198Y-82866254D01*
X79446055Y-82867590D01*
X78384000Y-82867590D01*
X78384000Y-80586000D01*
X89363728Y-80586000D01*
X89103366Y-80782911D02*
X89363728Y-80586000D01*
%TA.AperFunction,Conductor*%
G36*
X89103366Y-80782911D02*
G01*
X89092956Y-80791707D01*
X89073004Y-80810509D01*
X89037146Y-80871785D01*
X89040108Y-80942719D01*
X89070323Y-80991303D01*
X91260905Y-83181885D01*
X91323217Y-83215911D01*
X91394032Y-83210846D01*
X91439095Y-83181885D01*
X93630073Y-80990907D01*
X93664099Y-80928595D01*
X93659034Y-80857780D01*
X93627713Y-80810417D01*
X93616318Y-80799603D01*
X93605937Y-80790768D01*
X93337140Y-80586000D01*
X94716000Y-80586000D01*
X94716000Y-82552316D01*
X94658698Y-82345690D01*
X94654352Y-82332774D01*
X94519865Y-81994823D01*
X94514148Y-81982452D01*
X94343949Y-81661003D01*
X94336931Y-81649322D01*
X94133012Y-81348134D01*
X94124772Y-81337279D01*
X93993419Y-81182392D01*
X93934105Y-81143375D01*
X93863112Y-81142620D01*
X93808228Y-81174792D01*
X91620115Y-83362905D01*
X91586089Y-83425217D01*
X91591154Y-83496032D01*
X91620115Y-83541095D01*
X93808180Y-85729160D01*
X93870492Y-85763186D01*
X93941307Y-85758121D01*
X93992800Y-85722230D01*
X94109941Y-85586042D01*
X94118256Y-85575244D01*
X94324273Y-85275487D01*
X94331373Y-85263855D01*
X94503812Y-84943602D01*
X94509615Y-84931271D01*
X94646458Y-84594268D01*
X94650894Y-84581383D01*
X94716000Y-84352826D01*
X94716000Y-115552316D01*
X94658698Y-115345690D01*
X94654352Y-115332774D01*
X94519865Y-114994823D01*
X94514148Y-114982452D01*
X94343949Y-114661003D01*
X94336931Y-114649322D01*
X94133012Y-114348134D01*
X94124772Y-114337279D01*
X93993419Y-114182392D01*
X93934105Y-114143375D01*
X93863112Y-114142620D01*
X93808228Y-114174792D01*
X91620115Y-116362905D01*
X91586089Y-116425217D01*
X91591154Y-116496032D01*
X91620115Y-116541095D01*
X93808180Y-118729160D01*
X93870492Y-118763186D01*
X93941307Y-118758121D01*
X93992800Y-118722230D01*
X94109941Y-118586042D01*
X94118256Y-118575244D01*
X94324273Y-118275487D01*
X94331373Y-118263855D01*
X94503812Y-117943602D01*
X94509615Y-117931271D01*
X94646458Y-117594268D01*
X94650894Y-117581383D01*
X94716000Y-117352826D01*
X94716000Y-119318000D01*
X93335466Y-119318000D01*
X93587304Y-119128915D01*
X93597744Y-119120155D01*
X93626308Y-119093425D01*
X93662380Y-119032275D01*
X93659665Y-118961330D01*
X93629310Y-118912330D01*
X91439095Y-116722115D01*
X91376783Y-116688089D01*
X91305968Y-116693154D01*
X91260905Y-116722115D01*
X89069502Y-118913518D01*
X89035476Y-118975830D01*
X89040541Y-119046645D01*
X89071555Y-119093716D01*
X89074449Y-119096481D01*
X89084787Y-119105340D01*
X89361930Y-119318000D01*
X78384000Y-119318000D01*
X78384000Y-116446636D01*
X87861249Y-116446636D01*
X87879651Y-116809897D01*
X87881076Y-116823450D01*
X87938603Y-117182599D01*
X87941483Y-117195919D01*
X88037460Y-117546754D01*
X88041761Y-117559685D01*
X88175068Y-117898103D01*
X88180741Y-117910494D01*
X88349816Y-118232535D01*
X88356794Y-118244241D01*
X88559661Y-118546139D01*
X88567863Y-118557023D01*
X88706231Y-118721339D01*
X88765410Y-118760562D01*
X88836399Y-118761564D01*
X88891706Y-118729274D01*
X91079885Y-116541095D01*
X91113911Y-116478783D01*
X91108846Y-116407968D01*
X91079885Y-116362905D01*
X88891810Y-114174830D01*
X88829498Y-114140804D01*
X88758683Y-114145869D01*
X88706903Y-114182095D01*
X88582626Y-114327606D01*
X88574350Y-114338432D01*
X88369380Y-114638906D01*
X88362320Y-114650563D01*
X88191001Y-114971417D01*
X88185242Y-114983767D01*
X88049576Y-115321245D01*
X88045184Y-115334146D01*
X87946759Y-115684303D01*
X87943786Y-115697603D01*
X87883754Y-116056342D01*
X87882235Y-116069885D01*
X87861297Y-116433008D01*
X87861249Y-116446636D01*
X78384000Y-116446636D01*
X78384000Y-113871785D01*
X89037146Y-113871785D01*
X89040108Y-113942719D01*
X89070323Y-113991303D01*
X91260905Y-116181885D01*
X91323217Y-116215911D01*
X91394032Y-116210846D01*
X91439095Y-116181885D01*
X93630073Y-113990907D01*
X93664099Y-113928595D01*
X93659034Y-113857780D01*
X93627713Y-113810417D01*
X93616318Y-113799603D01*
X93605937Y-113790768D01*
X93316602Y-113570354D01*
X93305331Y-113562694D01*
X92993884Y-113374817D01*
X92981852Y-113368419D01*
X92651936Y-113215277D01*
X92639282Y-113210216D01*
X92294756Y-113093601D01*
X92281630Y-113089937D01*
X91926525Y-113011212D01*
X91913080Y-113008986D01*
X91551550Y-112969073D01*
X91537944Y-112968312D01*
X91174218Y-112967677D01*
X91160609Y-112968390D01*
X90798941Y-113007041D01*
X90785488Y-113009220D01*
X90430111Y-113086705D01*
X90416973Y-113090324D01*
X90072042Y-113205736D01*
X90059371Y-113210753D01*
X89728922Y-113362742D01*
X89716867Y-113369098D01*
X89404766Y-113555887D01*
X89393468Y-113563508D01*
X89103366Y-113782911D01*
X89092956Y-113791707D01*
X89073004Y-113810509D01*
X89037146Y-113871785D01*
X78384000Y-113871785D01*
X78384000Y-108523430D01*
X79516922Y-108523430D01*
X79526702Y-108734725D01*
X79530074Y-108758420D01*
X79579632Y-108964055D01*
X79587424Y-108986685D01*
X79674973Y-109179238D01*
X79686904Y-109199987D01*
X79809284Y-109372511D01*
X79824923Y-109390629D01*
X79977719Y-109536899D01*
X79996502Y-109551733D01*
X80174200Y-109666472D01*
X80195450Y-109677486D01*
X80391639Y-109756552D01*
X80414587Y-109763350D01*
X80622187Y-109803892D01*
X80640183Y-109806078D01*
X80645745Y-109806350D01*
X80651899Y-109806500D01*
X81357846Y-109806500D01*
X81369813Y-109805930D01*
X81527533Y-109790882D01*
X81551035Y-109786357D01*
X81754003Y-109726813D01*
X81776226Y-109717924D01*
X81964272Y-109621074D01*
X81984413Y-109608144D01*
X82150753Y-109477482D01*
X82168085Y-109460976D01*
X82306717Y-109301217D01*
X82320616Y-109281732D01*
X82426537Y-109098641D01*
X82436501Y-109076879D01*
X82505889Y-108877062D01*
X82511557Y-108853809D01*
X82541909Y-108644476D01*
X82543078Y-108620570D01*
X82533298Y-108409275D01*
X82529926Y-108385580D01*
X82480368Y-108179945D01*
X82472576Y-108157315D01*
X82385027Y-107964762D01*
X82373096Y-107944013D01*
X82250716Y-107771489D01*
X82235077Y-107753371D01*
X82082281Y-107607101D01*
X82063498Y-107592267D01*
X82030742Y-107571116D01*
X82150407Y-107477118D01*
X82167739Y-107460613D01*
X82306308Y-107300927D01*
X82320207Y-107281441D01*
X82426080Y-107098432D01*
X82436044Y-107076670D01*
X82505401Y-106876943D01*
X82511070Y-106853685D01*
X82512463Y-106844075D01*
X82502440Y-106773790D01*
X82456009Y-106720081D01*
X82387766Y-106700000D01*
X79676483Y-106700000D01*
X79608362Y-106720002D01*
X79561869Y-106773658D01*
X79551765Y-106843932D01*
X79553990Y-106855521D01*
X79580107Y-106963891D01*
X79587899Y-106986521D01*
X79675408Y-107178988D01*
X79687339Y-107199737D01*
X79809664Y-107372183D01*
X79825303Y-107390301D01*
X79978030Y-107536505D01*
X79996813Y-107551339D01*
X80029230Y-107572270D01*
X79909247Y-107666518D01*
X79891915Y-107683024D01*
X79753283Y-107842783D01*
X79739384Y-107862268D01*
X79633463Y-108045359D01*
X79623499Y-108067121D01*
X79554111Y-108266938D01*
X79548443Y-108290191D01*
X79518091Y-108499524D01*
X79516922Y-108523430D01*
X78384000Y-108523430D01*
X78384000Y-104523430D01*
X79516922Y-104523430D01*
X79526702Y-104734725D01*
X79530074Y-104758420D01*
X79579632Y-104964055D01*
X79587424Y-104986685D01*
X79674973Y-105179238D01*
X79686904Y-105199987D01*
X79809284Y-105372511D01*
X79824923Y-105390629D01*
X79977719Y-105536899D01*
X79996502Y-105551733D01*
X80029258Y-105572884D01*
X79909593Y-105666882D01*
X79892261Y-105683387D01*
X79753692Y-105843073D01*
X79739793Y-105862559D01*
X79633920Y-106045568D01*
X79623956Y-106067330D01*
X79554599Y-106267057D01*
X79548930Y-106290315D01*
X79547537Y-106299925D01*
X79557560Y-106370210D01*
X79603991Y-106423919D01*
X79672234Y-106444000D01*
X82383517Y-106444000D01*
X82451638Y-106423998D01*
X82498131Y-106370342D01*
X82508235Y-106300068D01*
X82506010Y-106288479D01*
X82479893Y-106180109D01*
X82472101Y-106157479D01*
X82384592Y-105965012D01*
X82372661Y-105944263D01*
X82250336Y-105771817D01*
X82234697Y-105753699D01*
X82081970Y-105607495D01*
X82063187Y-105592661D01*
X82030770Y-105571730D01*
X82150753Y-105477482D01*
X82168085Y-105460976D01*
X82306717Y-105301217D01*
X82320616Y-105281732D01*
X82426537Y-105098641D01*
X82436501Y-105076879D01*
X82505889Y-104877062D01*
X82511557Y-104853809D01*
X82541909Y-104644476D01*
X82543078Y-104620570D01*
X82533298Y-104409275D01*
X82529926Y-104385580D01*
X82480368Y-104179945D01*
X82472576Y-104157315D01*
X82385027Y-103964762D01*
X82373096Y-103944013D01*
X82250716Y-103771489D01*
X82235077Y-103753371D01*
X82082281Y-103607101D01*
X82063498Y-103592267D01*
X82030742Y-103571116D01*
X82150407Y-103477118D01*
X82167739Y-103460613D01*
X82306308Y-103300927D01*
X82320207Y-103281441D01*
X82426080Y-103098432D01*
X82436044Y-103076670D01*
X82505401Y-102876943D01*
X82511070Y-102853685D01*
X82512463Y-102844075D01*
X82502440Y-102773790D01*
X82456009Y-102720081D01*
X82387766Y-102700000D01*
X79676483Y-102700000D01*
X79608362Y-102720002D01*
X79561869Y-102773658D01*
X79551765Y-102843932D01*
X79553990Y-102855521D01*
X79580107Y-102963891D01*
X79587899Y-102986521D01*
X79675408Y-103178988D01*
X79687339Y-103199737D01*
X79809664Y-103372183D01*
X79825303Y-103390301D01*
X79978030Y-103536505D01*
X79996813Y-103551339D01*
X80029230Y-103572270D01*
X79909247Y-103666518D01*
X79891915Y-103683024D01*
X79753283Y-103842783D01*
X79739384Y-103862268D01*
X79633463Y-104045359D01*
X79623499Y-104067121D01*
X79554111Y-104266938D01*
X79548443Y-104290191D01*
X79518091Y-104499524D01*
X79516922Y-104523430D01*
X78384000Y-104523430D01*
X78384000Y-100523430D01*
X79516922Y-100523430D01*
X79526702Y-100734725D01*
X79530074Y-100758420D01*
X79579632Y-100964055D01*
X79587424Y-100986685D01*
X79674973Y-101179238D01*
X79686904Y-101199987D01*
X79809284Y-101372511D01*
X79824923Y-101390629D01*
X79977719Y-101536899D01*
X79996502Y-101551733D01*
X80029258Y-101572884D01*
X79909593Y-101666882D01*
X79892261Y-101683387D01*
X79753692Y-101843073D01*
X79739793Y-101862559D01*
X79633920Y-102045568D01*
X79623956Y-102067330D01*
X79554599Y-102267057D01*
X79548930Y-102290315D01*
X79547537Y-102299925D01*
X79557560Y-102370210D01*
X79603991Y-102423919D01*
X79672234Y-102444000D01*
X82383517Y-102444000D01*
X82451638Y-102423998D01*
X82498131Y-102370342D01*
X82508235Y-102300068D01*
X82506010Y-102288479D01*
X82479893Y-102180109D01*
X82472101Y-102157479D01*
X82384592Y-101965012D01*
X82372661Y-101944263D01*
X82250336Y-101771817D01*
X82234697Y-101753699D01*
X82081970Y-101607495D01*
X82063187Y-101592661D01*
X82030770Y-101571730D01*
X82150753Y-101477482D01*
X82168085Y-101460976D01*
X82306717Y-101301217D01*
X82320616Y-101281732D01*
X82426537Y-101098641D01*
X82436501Y-101076879D01*
X82505889Y-100877062D01*
X82511557Y-100853809D01*
X82541909Y-100644476D01*
X82543078Y-100620570D01*
X82533298Y-100409275D01*
X82529926Y-100385580D01*
X82480368Y-100179945D01*
X82472576Y-100157315D01*
X82385027Y-99964762D01*
X82373096Y-99944013D01*
X82250716Y-99771489D01*
X82235077Y-99753371D01*
X82082281Y-99607101D01*
X82063498Y-99592267D01*
X82030742Y-99571116D01*
X82150407Y-99477118D01*
X82167739Y-99460613D01*
X82306308Y-99300927D01*
X82320207Y-99281441D01*
X82426080Y-99098432D01*
X82436044Y-99076670D01*
X82505401Y-98876943D01*
X82511070Y-98853685D01*
X82512463Y-98844075D01*
X82502440Y-98773790D01*
X82456009Y-98720081D01*
X82387766Y-98700000D01*
X79676483Y-98700000D01*
X79608362Y-98720002D01*
X79561869Y-98773658D01*
X79551765Y-98843932D01*
X79553990Y-98855521D01*
X79580107Y-98963891D01*
X79587899Y-98986521D01*
X79675408Y-99178988D01*
X79687339Y-99199737D01*
X79809664Y-99372183D01*
X79825303Y-99390301D01*
X79978030Y-99536505D01*
X79996813Y-99551339D01*
X80029230Y-99572270D01*
X79909247Y-99666518D01*
X79891915Y-99683024D01*
X79753283Y-99842783D01*
X79739384Y-99862268D01*
X79633463Y-100045359D01*
X79623499Y-100067121D01*
X79554111Y-100266938D01*
X79548443Y-100290191D01*
X79518091Y-100499524D01*
X79516922Y-100523430D01*
X78384000Y-100523430D01*
X78384000Y-96523430D01*
X79516922Y-96523430D01*
X79526702Y-96734725D01*
X79530074Y-96758420D01*
X79579632Y-96964055D01*
X79587424Y-96986685D01*
X79674973Y-97179238D01*
X79686904Y-97199987D01*
X79809284Y-97372511D01*
X79824923Y-97390629D01*
X79977719Y-97536899D01*
X79996502Y-97551733D01*
X80029258Y-97572884D01*
X79909593Y-97666882D01*
X79892261Y-97683387D01*
X79753692Y-97843073D01*
X79739793Y-97862559D01*
X79633920Y-98045568D01*
X79623956Y-98067330D01*
X79554599Y-98267057D01*
X79548930Y-98290315D01*
X79547537Y-98299925D01*
X79557560Y-98370210D01*
X79603991Y-98423919D01*
X79672234Y-98444000D01*
X82383517Y-98444000D01*
X82451638Y-98423998D01*
X82498131Y-98370342D01*
X82508235Y-98300068D01*
X82506010Y-98288479D01*
X82479893Y-98180109D01*
X82472101Y-98157479D01*
X82384592Y-97965012D01*
X82372661Y-97944263D01*
X82250336Y-97771817D01*
X82234697Y-97753699D01*
X82081970Y-97607495D01*
X82063187Y-97592661D01*
X82030770Y-97571730D01*
X82150753Y-97477482D01*
X82168085Y-97460976D01*
X82306717Y-97301217D01*
X82320616Y-97281732D01*
X82426537Y-97098641D01*
X82436501Y-97076879D01*
X82505889Y-96877062D01*
X82511557Y-96853809D01*
X82541909Y-96644476D01*
X82543078Y-96620570D01*
X82533298Y-96409275D01*
X82529926Y-96385580D01*
X82480368Y-96179945D01*
X82472576Y-96157315D01*
X82385027Y-95964762D01*
X82373096Y-95944013D01*
X82250716Y-95771489D01*
X82235077Y-95753371D01*
X82082281Y-95607101D01*
X82063498Y-95592267D01*
X82030742Y-95571116D01*
X82150407Y-95477118D01*
X82167739Y-95460613D01*
X82306308Y-95300927D01*
X82320207Y-95281441D01*
X82426080Y-95098432D01*
X82436044Y-95076670D01*
X82505401Y-94876943D01*
X82511070Y-94853685D01*
X82512463Y-94844075D01*
X82502440Y-94773790D01*
X82456009Y-94720081D01*
X82387766Y-94700000D01*
X79676483Y-94700000D01*
X79608362Y-94720002D01*
X79561869Y-94773658D01*
X79551765Y-94843932D01*
X79553990Y-94855521D01*
X79580107Y-94963891D01*
X79587899Y-94986521D01*
X79675408Y-95178988D01*
X79687339Y-95199737D01*
X79809664Y-95372183D01*
X79825303Y-95390301D01*
X79978030Y-95536505D01*
X79996813Y-95551339D01*
X80029230Y-95572270D01*
X79909247Y-95666518D01*
X79891915Y-95683024D01*
X79753283Y-95842783D01*
X79739384Y-95862268D01*
X79633463Y-96045359D01*
X79623499Y-96067121D01*
X79554111Y-96266938D01*
X79548443Y-96290191D01*
X79518091Y-96499524D01*
X79516922Y-96523430D01*
X78384000Y-96523430D01*
X78384000Y-86573134D01*
X79425500Y-86573134D01*
X79426237Y-86586742D01*
X79432992Y-86648924D01*
X79440273Y-86679546D01*
X79491403Y-86815935D01*
X79508559Y-86847270D01*
X79595913Y-86963826D01*
X79621174Y-86989087D01*
X79737730Y-87076441D01*
X79769065Y-87093597D01*
X79905454Y-87144727D01*
X79936076Y-87152008D01*
X79998258Y-87158763D01*
X80011866Y-87159500D01*
X81808134Y-87159500D01*
X81821742Y-87158763D01*
X81883924Y-87152008D01*
X81914546Y-87144727D01*
X82050935Y-87093597D01*
X82082270Y-87076441D01*
X82198826Y-86989087D01*
X82224087Y-86963826D01*
X82311441Y-86847270D01*
X82328597Y-86815935D01*
X82379727Y-86679546D01*
X82387008Y-86648924D01*
X82393763Y-86586742D01*
X82394500Y-86573134D01*
X82394500Y-85921500D01*
X82671466Y-85921500D01*
X82693927Y-85988822D01*
X82706306Y-86015249D01*
X82799378Y-86165651D01*
X82817504Y-86188521D01*
X82942679Y-86313478D01*
X82965581Y-86331565D01*
X83116146Y-86424375D01*
X83142595Y-86436708D01*
X83183381Y-86450236D01*
X83159751Y-86461306D01*
X83009349Y-86554378D01*
X82986479Y-86572504D01*
X82861522Y-86697679D01*
X82843435Y-86720581D01*
X82750625Y-86871146D01*
X82738292Y-86897595D01*
X82682610Y-87065472D01*
X82676859Y-87092296D01*
X82666156Y-87196757D01*
X82665500Y-87209600D01*
X82665500Y-88210400D01*
X82666173Y-88223404D01*
X82677147Y-88329170D01*
X82682950Y-88356042D01*
X82738926Y-88523822D01*
X82751306Y-88550249D01*
X82844378Y-88700651D01*
X82862504Y-88723521D01*
X82987679Y-88848478D01*
X83010581Y-88866565D01*
X83161146Y-88959375D01*
X83187595Y-88971708D01*
X83355472Y-89027390D01*
X83382296Y-89033141D01*
X83486757Y-89043844D01*
X83499600Y-89044500D01*
X84300400Y-89044500D01*
X84313404Y-89043827D01*
X84419170Y-89032853D01*
X84446042Y-89027050D01*
X84613822Y-88971074D01*
X84640249Y-88958694D01*
X84790651Y-88865622D01*
X84813521Y-88847496D01*
X84899957Y-88760909D01*
X84987679Y-88848478D01*
X85010581Y-88866565D01*
X85161146Y-88959375D01*
X85187595Y-88971708D01*
X85355472Y-89027390D01*
X85382296Y-89033141D01*
X85486757Y-89043844D01*
X85499600Y-89044500D01*
X86018406Y-89044500D01*
X86855447Y-89881541D01*
X86852358Y-89880996D01*
X86630982Y-89861628D01*
X86609018Y-89861628D01*
X86387642Y-89880996D01*
X86366013Y-89884810D01*
X86151364Y-89942325D01*
X86130725Y-89949837D01*
X85929325Y-90043752D01*
X85910306Y-90054733D01*
X85847126Y-90098971D01*
X85802796Y-90154428D01*
X85795486Y-90225047D01*
X85830300Y-90291280D01*
X86801020Y-91262000D01*
X85830300Y-92232720D01*
X85796274Y-92295032D01*
X85801339Y-92365847D01*
X85847125Y-92425028D01*
X85910304Y-92469266D01*
X85929324Y-92480248D01*
X86039715Y-92531724D01*
X85929074Y-92583317D01*
X85910053Y-92594299D01*
X85727948Y-92721810D01*
X85711124Y-92735928D01*
X85579552Y-92867500D01*
X83917082Y-92867500D01*
X82967329Y-91917747D01*
X82904252Y-91853335D01*
X82882484Y-91835582D01*
X82846050Y-91812102D01*
X82812165Y-91785052D01*
X82788395Y-91770083D01*
X82758201Y-91755487D01*
X82730018Y-91737324D01*
X82704858Y-91724834D01*
X82664122Y-91710007D01*
X82625089Y-91691138D01*
X82598595Y-91681808D01*
X82565917Y-91674264D01*
X82534410Y-91662796D01*
X82507106Y-91656190D01*
X82464091Y-91650756D01*
X82421860Y-91641006D01*
X82393955Y-91637777D01*
X82353385Y-91637635D01*
X82351231Y-91637500D01*
X82314581Y-91637500D01*
X82212570Y-91637144D01*
X82209293Y-91637500D01*
X82179688Y-91637500D01*
X82195651Y-91627622D01*
X82218521Y-91609496D01*
X82343478Y-91484321D01*
X82361565Y-91461419D01*
X82454375Y-91310854D01*
X82466708Y-91284405D01*
X82470497Y-91272982D01*
X85219628Y-91272982D01*
X85238996Y-91494358D01*
X85242810Y-91515987D01*
X85300325Y-91730636D01*
X85307837Y-91751275D01*
X85401752Y-91952675D01*
X85412733Y-91971694D01*
X85456971Y-92034874D01*
X85512428Y-92079204D01*
X85583047Y-92086514D01*
X85649280Y-92051700D01*
X86349885Y-91351095D01*
X86383911Y-91288783D01*
X86378846Y-91217968D01*
X86349885Y-91172905D01*
X85649280Y-90472300D01*
X85586968Y-90438274D01*
X85516153Y-90443339D01*
X85456971Y-90489126D01*
X85412733Y-90552306D01*
X85401752Y-90571325D01*
X85307837Y-90772725D01*
X85300325Y-90793364D01*
X85242810Y-91008013D01*
X85238996Y-91029642D01*
X85219628Y-91251018D01*
X85219628Y-91272982D01*
X82470497Y-91272982D01*
X82522390Y-91116528D01*
X82528141Y-91089704D01*
X82538844Y-90985243D01*
X82539500Y-90972400D01*
X82539500Y-90171600D01*
X82538827Y-90158596D01*
X82527853Y-90052830D01*
X82522050Y-90025958D01*
X82466074Y-89858178D01*
X82453694Y-89831751D01*
X82360622Y-89681349D01*
X82342496Y-89658479D01*
X82217321Y-89533522D01*
X82194419Y-89515435D01*
X82043854Y-89422625D01*
X82017405Y-89410292D01*
X81849528Y-89354610D01*
X81822704Y-89348859D01*
X81718243Y-89338156D01*
X81705400Y-89337500D01*
X80354600Y-89337500D01*
X80341596Y-89338173D01*
X80235830Y-89349147D01*
X80208958Y-89354950D01*
X80041178Y-89410926D01*
X80014751Y-89423306D01*
X79864349Y-89516378D01*
X79841479Y-89534504D01*
X79716522Y-89659679D01*
X79698435Y-89682581D01*
X79605625Y-89833146D01*
X79593292Y-89859595D01*
X79537610Y-90027472D01*
X79531859Y-90054296D01*
X79521156Y-90158757D01*
X79520500Y-90171600D01*
X79520500Y-90972400D01*
X79521173Y-90985404D01*
X79532147Y-91091170D01*
X79537950Y-91118042D01*
X79593926Y-91285822D01*
X79606306Y-91312249D01*
X79699378Y-91462651D01*
X79717504Y-91485521D01*
X79842679Y-91610478D01*
X79865581Y-91628565D01*
X79917120Y-91660334D01*
X79909247Y-91666518D01*
X79891915Y-91683024D01*
X79753283Y-91842783D01*
X79739384Y-91862268D01*
X79633463Y-92045359D01*
X79623499Y-92067121D01*
X79554111Y-92266938D01*
X79548443Y-92290191D01*
X79518091Y-92499524D01*
X79516922Y-92523430D01*
X79526702Y-92734725D01*
X79530074Y-92758420D01*
X79579632Y-92964055D01*
X79587424Y-92986685D01*
X79674973Y-93179238D01*
X79686904Y-93199987D01*
X79809284Y-93372511D01*
X79824923Y-93390629D01*
X79977719Y-93536899D01*
X79996502Y-93551733D01*
X80029258Y-93572884D01*
X79909593Y-93666882D01*
X79892261Y-93683387D01*
X79753692Y-93843073D01*
X79739793Y-93862559D01*
X79633920Y-94045568D01*
X79623956Y-94067330D01*
X79554599Y-94267057D01*
X79548930Y-94290315D01*
X79547537Y-94299925D01*
X79557560Y-94370210D01*
X79603991Y-94423919D01*
X79672234Y-94444000D01*
X82383517Y-94444000D01*
X82451638Y-94423998D01*
X82498131Y-94370342D01*
X82508235Y-94300068D01*
X82506010Y-94288479D01*
X82479893Y-94180109D01*
X82472101Y-94157479D01*
X82395566Y-93989149D01*
X82862624Y-94456206D01*
X82925747Y-94520665D01*
X82947516Y-94538419D01*
X82983959Y-94561905D01*
X83017834Y-94588947D01*
X83041605Y-94603917D01*
X83071799Y-94618513D01*
X83099982Y-94636676D01*
X83125142Y-94649166D01*
X83155500Y-94660216D01*
X83155500Y-96197786D01*
X83154556Y-96287901D01*
X83157395Y-96315848D01*
X83166555Y-96358213D01*
X83171388Y-96401301D01*
X83177611Y-96428692D01*
X83188642Y-96460368D01*
X83195727Y-96493138D01*
X83204686Y-96519759D01*
X83223006Y-96559046D01*
X83237264Y-96599990D01*
X83249400Y-96625321D01*
X83267172Y-96653763D01*
X83281343Y-96684152D01*
X83295979Y-96708129D01*
X83322547Y-96742380D01*
X83345519Y-96779144D01*
X83362967Y-96801159D01*
X83391569Y-96829962D01*
X83392983Y-96831565D01*
X83418662Y-96857244D01*
X83490779Y-96929866D01*
X83493356Y-96931938D01*
X85145500Y-98584082D01*
X85145500Y-99026879D01*
X85096920Y-99023567D01*
X85066688Y-99025151D01*
X85003749Y-99036136D01*
X84940324Y-99043811D01*
X84910921Y-99051033D01*
X84904508Y-99053456D01*
X84897760Y-99054634D01*
X84868775Y-99063384D01*
X84810271Y-99089065D01*
X84750510Y-99111647D01*
X84723680Y-99125674D01*
X84718033Y-99129555D01*
X84711755Y-99132311D01*
X84685694Y-99147723D01*
X84635007Y-99186618D01*
X84582357Y-99222802D01*
X84559647Y-99242824D01*
X84518193Y-99289351D01*
X84200385Y-99607159D01*
X84156785Y-99645194D01*
X84136528Y-99667692D01*
X84099785Y-99719972D01*
X84060370Y-99770240D01*
X84044686Y-99796137D01*
X84041866Y-99802383D01*
X84037925Y-99807990D01*
X84023617Y-99834673D01*
X84000405Y-99894210D01*
X83974119Y-99952425D01*
X83965065Y-99981312D01*
X83963815Y-99988057D01*
X83961324Y-99994446D01*
X83953796Y-100023767D01*
X83945457Y-100087110D01*
X83933814Y-100149928D01*
X83931913Y-100180144D01*
X83935500Y-100242350D01*
X83935500Y-100494975D01*
X83931023Y-100517482D01*
X83928602Y-100542064D01*
X83928602Y-100601936D01*
X83930552Y-100621736D01*
X83930552Y-101022264D01*
X83928602Y-101042064D01*
X83928602Y-101101936D01*
X83931023Y-101126518D01*
X83935500Y-101149025D01*
X83935500Y-102491340D01*
X83876352Y-102550488D01*
X83812047Y-102614123D01*
X83793243Y-102637849D01*
X83773583Y-102669931D01*
X83750370Y-102699536D01*
X83734687Y-102725432D01*
X83721012Y-102755718D01*
X83703643Y-102784062D01*
X83691040Y-102811589D01*
X83679602Y-102847430D01*
X83664118Y-102881722D01*
X83655065Y-102910612D01*
X83649008Y-102943294D01*
X83638903Y-102974956D01*
X83633230Y-103004694D01*
X83630671Y-103042226D01*
X83623814Y-103079225D01*
X83621913Y-103109439D01*
X83623827Y-103142631D01*
X83621567Y-103175783D01*
X83623151Y-103206015D01*
X83629619Y-103243077D01*
X83631785Y-103280638D01*
X83631833Y-103280903D01*
X83629374Y-103281740D01*
X83603957Y-103293701D01*
X83449466Y-103388745D01*
X83427330Y-103406039D01*
X83297735Y-103532948D01*
X83279982Y-103554716D01*
X83181724Y-103707183D01*
X83169234Y-103732343D01*
X83107196Y-103902790D01*
X83100591Y-103930093D01*
X83092954Y-103990546D01*
X83091564Y-103992026D01*
X83073000Y-104017576D01*
X83063239Y-104035330D01*
X83050825Y-104051335D01*
X83034749Y-104078518D01*
X83017189Y-104119097D01*
X82995890Y-104157840D01*
X82984264Y-104187205D01*
X82979226Y-104206826D01*
X82971182Y-104225415D01*
X82962370Y-104255743D01*
X82955453Y-104299411D01*
X82944458Y-104342236D01*
X82940500Y-104373570D01*
X82940500Y-104393824D01*
X82937331Y-104413832D01*
X82936339Y-104445401D01*
X82940500Y-104489419D01*
X82940500Y-110443553D01*
X82872974Y-110466540D01*
X82847557Y-110478501D01*
X82693066Y-110573545D01*
X82670930Y-110590839D01*
X82541335Y-110717748D01*
X82523582Y-110739516D01*
X82425324Y-110891983D01*
X82412834Y-110917143D01*
X82350796Y-111087590D01*
X82344191Y-111114893D01*
X82321457Y-111294848D01*
X82321064Y-111322935D01*
X82338764Y-111503455D01*
X82344605Y-111530932D01*
X82401860Y-111703045D01*
X82413642Y-111728544D01*
X82507604Y-111883695D01*
X82524743Y-111905951D01*
X82650745Y-112036429D01*
X82672389Y-112054334D01*
X82824166Y-112153654D01*
X82849239Y-112166319D01*
X83019248Y-112229545D01*
X83046503Y-112236341D01*
X83226296Y-112260331D01*
X83254381Y-112260919D01*
X83435020Y-112244479D01*
X83462536Y-112238831D01*
X83635044Y-112182780D01*
X83660625Y-112171176D01*
X83816429Y-112078298D01*
X83838804Y-112061315D01*
X83970158Y-111936228D01*
X83988214Y-111914709D01*
X84088591Y-111763629D01*
X84101431Y-111738646D01*
X84165843Y-111569082D01*
X84172829Y-111541874D01*
X84182384Y-111473890D01*
X84198869Y-111460252D01*
X84245478Y-111410617D01*
X84265228Y-111390868D01*
X84275695Y-111378995D01*
X84278170Y-111375804D01*
X84308436Y-111343574D01*
X84327000Y-111318024D01*
X84336761Y-111300270D01*
X84349175Y-111284265D01*
X84365251Y-111257082D01*
X84382811Y-111216503D01*
X84404110Y-111177760D01*
X84415736Y-111148395D01*
X84420774Y-111128774D01*
X84428818Y-111110185D01*
X84437630Y-111079857D01*
X84444547Y-111036189D01*
X84455542Y-110993364D01*
X84459500Y-110962030D01*
X84459500Y-110941776D01*
X84462669Y-110921768D01*
X84463661Y-110890199D01*
X84462993Y-110883135D01*
X84513638Y-110880215D01*
X84543434Y-110874854D01*
X84707338Y-110824431D01*
X84734995Y-110812117D01*
X84736113Y-110811448D01*
X84960000Y-110811448D01*
X84984582Y-110809027D01*
X85043304Y-110797346D01*
X85088723Y-110778532D01*
X85110000Y-110764315D01*
X85131277Y-110778532D01*
X85176696Y-110797346D01*
X85235418Y-110809027D01*
X85260000Y-110811448D01*
X85465353Y-110811448D01*
X85546253Y-110892348D01*
X85560747Y-110909868D01*
X85610399Y-110956494D01*
X85630135Y-110976230D01*
X85642005Y-110986695D01*
X85645196Y-110989170D01*
X85677426Y-111019436D01*
X85702976Y-111038000D01*
X85720730Y-111047761D01*
X85736735Y-111060175D01*
X85763918Y-111076251D01*
X85804497Y-111093811D01*
X85843240Y-111115110D01*
X85872605Y-111126736D01*
X85892226Y-111131774D01*
X85910815Y-111139818D01*
X85941143Y-111148630D01*
X85984811Y-111155547D01*
X86027636Y-111166542D01*
X86058970Y-111170500D01*
X86079224Y-111170500D01*
X86099232Y-111173669D01*
X86130801Y-111174661D01*
X86174819Y-111170500D01*
X88027033Y-111170500D01*
X88049668Y-111172640D01*
X88117745Y-111170500D01*
X88145656Y-111170500D01*
X88161446Y-111169507D01*
X88165457Y-111169000D01*
X88209648Y-111167611D01*
X88240841Y-111162670D01*
X88260292Y-111157019D01*
X88280390Y-111154480D01*
X88310981Y-111146626D01*
X88352095Y-111130348D01*
X88394545Y-111118015D01*
X88423533Y-111105471D01*
X88440969Y-111095159D01*
X88459799Y-111087704D01*
X88487477Y-111072489D01*
X88523247Y-111046501D01*
X88561302Y-111023995D01*
X88586257Y-111004637D01*
X88600578Y-110990316D01*
X88616968Y-110978408D01*
X88639992Y-110956788D01*
X88668183Y-110922711D01*
X90117318Y-109473576D01*
X90138000Y-109507726D01*
X90138000Y-110061856D01*
X90138994Y-110077648D01*
X90154020Y-110196589D01*
X90161874Y-110227181D01*
X90220796Y-110376001D01*
X90236012Y-110403678D01*
X90330092Y-110533168D01*
X90351712Y-110556192D01*
X90475040Y-110658218D01*
X90501707Y-110675141D01*
X90562085Y-110703553D01*
X90566731Y-110710506D01*
X90601495Y-110745269D01*
X90651277Y-110778532D01*
X90696696Y-110797346D01*
X90755418Y-110809027D01*
X90780000Y-110811448D01*
X91230264Y-110811448D01*
X91250064Y-110813398D01*
X91309936Y-110813398D01*
X91334517Y-110810977D01*
X91432062Y-110791574D01*
X91455701Y-110784403D01*
X91511016Y-110761490D01*
X91532798Y-110749847D01*
X91615493Y-110694592D01*
X91634586Y-110678922D01*
X91676922Y-110636586D01*
X91692592Y-110617493D01*
X91747847Y-110534798D01*
X91759490Y-110513016D01*
X91782403Y-110457701D01*
X91789574Y-110434062D01*
X91808977Y-110336517D01*
X91811398Y-110311936D01*
X91811398Y-110252064D01*
X91809448Y-110232264D01*
X91809448Y-109831736D01*
X91811398Y-109811936D01*
X91811398Y-109752064D01*
X91808977Y-109727483D01*
X91789574Y-109629938D01*
X91782403Y-109606299D01*
X91759490Y-109550984D01*
X91747847Y-109529202D01*
X91722819Y-109491745D01*
X91753791Y-109445129D01*
X91766631Y-109420146D01*
X91809373Y-109307628D01*
X91882096Y-109317331D01*
X91910181Y-109317919D01*
X92090820Y-109301479D01*
X92118336Y-109295831D01*
X92290844Y-109239780D01*
X92316425Y-109228176D01*
X92472229Y-109135298D01*
X92494604Y-109118315D01*
X92625958Y-108993228D01*
X92644014Y-108971709D01*
X92744391Y-108820629D01*
X92757231Y-108795646D01*
X92821643Y-108626082D01*
X92828629Y-108598874D01*
X92853873Y-108419253D01*
X92855087Y-108403475D01*
X92855404Y-108380758D01*
X92854631Y-108364955D01*
X92834412Y-108184700D01*
X92828188Y-108157308D01*
X92768536Y-107986011D01*
X92756399Y-107960679D01*
X92660280Y-107806855D01*
X92642832Y-107784840D01*
X92515021Y-107656134D01*
X92493129Y-107638533D01*
X92339980Y-107541342D01*
X92314733Y-107529028D01*
X92143857Y-107468182D01*
X92116509Y-107461767D01*
X91936399Y-107440290D01*
X91908309Y-107440094D01*
X91727917Y-107459054D01*
X91700483Y-107465086D01*
X91528774Y-107523540D01*
X91503357Y-107535501D01*
X91366819Y-107619500D01*
X90216567Y-107619500D01*
X90193933Y-107617360D01*
X90125843Y-107619500D01*
X90097944Y-107619500D01*
X90082156Y-107620493D01*
X90078153Y-107620999D01*
X90033952Y-107622388D01*
X90002757Y-107627329D01*
X89983304Y-107632981D01*
X89963212Y-107635519D01*
X89932620Y-107643374D01*
X89891510Y-107659650D01*
X89849052Y-107671986D01*
X89820067Y-107684529D01*
X89802631Y-107694841D01*
X89783801Y-107702296D01*
X89756123Y-107717511D01*
X89720353Y-107743499D01*
X89682298Y-107766005D01*
X89657343Y-107785363D01*
X89643022Y-107799684D01*
X89626632Y-107811592D01*
X89603608Y-107833212D01*
X89575417Y-107867289D01*
X88812240Y-108630465D01*
X88804051Y-108557461D01*
X88797827Y-108530069D01*
X88738175Y-108358772D01*
X88726038Y-108333440D01*
X88668628Y-108241564D01*
X88705791Y-108185629D01*
X88718631Y-108160646D01*
X88783043Y-107991082D01*
X88790029Y-107963874D01*
X88815273Y-107784253D01*
X88816487Y-107768475D01*
X88816804Y-107745758D01*
X88816031Y-107729955D01*
X88795812Y-107549700D01*
X88789588Y-107522308D01*
X88729936Y-107351011D01*
X88717799Y-107325679D01*
X88700639Y-107298216D01*
X88718569Y-107271229D01*
X88731409Y-107246246D01*
X88795821Y-107076682D01*
X88802807Y-107049474D01*
X88828051Y-106869853D01*
X88829265Y-106854075D01*
X88829582Y-106831358D01*
X88828809Y-106815555D01*
X88808590Y-106635300D01*
X88802366Y-106607908D01*
X88742714Y-106436611D01*
X88730577Y-106411279D01*
X88634458Y-106257455D01*
X88617010Y-106235440D01*
X88489199Y-106106734D01*
X88474498Y-106094915D01*
X88474498Y-105394330D01*
X88476638Y-105371696D01*
X88474498Y-105303606D01*
X88474498Y-105275707D01*
X88473505Y-105259919D01*
X88472999Y-105255916D01*
X88471610Y-105211715D01*
X88466669Y-105180520D01*
X88461017Y-105161067D01*
X88458479Y-105140975D01*
X88450624Y-105110383D01*
X88434348Y-105069273D01*
X88422012Y-105026815D01*
X88409469Y-104997830D01*
X88399157Y-104980394D01*
X88391702Y-104961564D01*
X88376487Y-104933886D01*
X88350499Y-104898116D01*
X88327993Y-104860061D01*
X88308635Y-104835106D01*
X88294311Y-104820782D01*
X88282406Y-104804396D01*
X88260785Y-104781371D01*
X88226715Y-104753186D01*
X88199500Y-104725971D01*
X88199500Y-102843751D01*
X88219723Y-102852882D01*
X88248608Y-102861935D01*
X88255353Y-102863185D01*
X88261742Y-102865676D01*
X88291063Y-102873204D01*
X88354408Y-102881543D01*
X88417225Y-102893186D01*
X88447441Y-102895087D01*
X88509647Y-102891500D01*
X89195500Y-102891500D01*
X89195500Y-106700003D01*
X89196413Y-106715141D01*
X89211811Y-106842380D01*
X89219032Y-106871780D01*
X89279647Y-107032194D01*
X89293673Y-107059023D01*
X89390803Y-107200348D01*
X89410824Y-107223057D01*
X89538860Y-107337133D01*
X89563720Y-107354411D01*
X89715272Y-107434654D01*
X89743536Y-107445504D01*
X89909854Y-107487280D01*
X89939889Y-107491074D01*
X90111371Y-107491972D01*
X90141445Y-107488493D01*
X90308191Y-107448461D01*
X90336567Y-107437908D01*
X90339396Y-107436448D01*
X90530000Y-107436448D01*
X90554582Y-107434027D01*
X90613304Y-107422346D01*
X90658723Y-107403532D01*
X90680000Y-107389315D01*
X90701277Y-107403532D01*
X90746696Y-107422346D01*
X90805418Y-107434027D01*
X90830000Y-107436448D01*
X91280264Y-107436448D01*
X91300064Y-107438398D01*
X91359936Y-107438398D01*
X91384517Y-107435977D01*
X91482062Y-107416574D01*
X91505701Y-107409403D01*
X91561016Y-107386490D01*
X91582798Y-107374847D01*
X91665493Y-107319592D01*
X91684586Y-107303922D01*
X91726922Y-107261586D01*
X91742592Y-107242493D01*
X91797847Y-107159798D01*
X91809490Y-107138016D01*
X91832403Y-107082701D01*
X91839574Y-107059062D01*
X91858977Y-106961517D01*
X91861398Y-106936936D01*
X91861398Y-106877064D01*
X91859448Y-106857264D01*
X91859448Y-106456736D01*
X91861398Y-106436936D01*
X91861398Y-106377064D01*
X91858977Y-106352483D01*
X91846276Y-106288631D01*
X91940158Y-106199228D01*
X91958214Y-106177709D01*
X92058591Y-106026629D01*
X92071431Y-106001646D01*
X92135843Y-105832082D01*
X92142829Y-105804874D01*
X92162354Y-105665948D01*
X92212262Y-105661406D01*
X92239778Y-105655758D01*
X92412286Y-105599707D01*
X92437867Y-105588103D01*
X92593671Y-105495225D01*
X92616046Y-105478242D01*
X92747400Y-105353155D01*
X92765456Y-105331636D01*
X92865833Y-105180556D01*
X92878673Y-105155573D01*
X92943085Y-104986009D01*
X92950071Y-104958801D01*
X92975315Y-104779180D01*
X92976529Y-104763402D01*
X92976846Y-104740685D01*
X92976073Y-104724882D01*
X92955854Y-104544627D01*
X92949630Y-104517235D01*
X92889978Y-104345938D01*
X92877841Y-104320606D01*
X92781722Y-104166782D01*
X92764274Y-104144767D01*
X92636463Y-104016061D01*
X92614571Y-103998460D01*
X92461422Y-103901269D01*
X92436175Y-103888955D01*
X92265299Y-103828109D01*
X92237951Y-103821694D01*
X92057841Y-103800217D01*
X92029751Y-103800021D01*
X91859962Y-103817867D01*
X91828865Y-103786770D01*
X91821711Y-103780462D01*
X91833981Y-103780719D01*
X92014620Y-103764279D01*
X92042136Y-103758631D01*
X92214644Y-103702580D01*
X92240225Y-103690976D01*
X92396029Y-103598098D01*
X92418404Y-103581115D01*
X92549758Y-103456028D01*
X92567814Y-103434509D01*
X92668191Y-103283429D01*
X92681031Y-103258446D01*
X92745443Y-103088882D01*
X92752429Y-103061674D01*
X92777673Y-102882053D01*
X92778887Y-102866275D01*
X92779204Y-102843558D01*
X92778431Y-102827755D01*
X92758212Y-102647500D01*
X92751988Y-102620108D01*
X92692336Y-102448811D01*
X92680199Y-102423479D01*
X92584080Y-102269655D01*
X92566632Y-102247640D01*
X92438821Y-102118934D01*
X92416929Y-102101333D01*
X92263780Y-102004142D01*
X92238533Y-101991828D01*
X92067657Y-101930982D01*
X92040310Y-101924567D01*
X92024814Y-101922719D01*
X91857586Y-101755491D01*
X91839574Y-101664938D01*
X91832403Y-101641299D01*
X91809490Y-101585984D01*
X91797847Y-101564202D01*
X91742592Y-101481507D01*
X91726922Y-101462414D01*
X91684586Y-101420078D01*
X91665493Y-101404408D01*
X91582798Y-101349153D01*
X91561016Y-101337510D01*
X91505701Y-101314597D01*
X91482062Y-101307426D01*
X91384517Y-101288023D01*
X91359936Y-101285602D01*
X91300064Y-101285602D01*
X91280264Y-101287552D01*
X90830000Y-101287552D01*
X90805418Y-101289973D01*
X90746696Y-101301654D01*
X90701277Y-101320468D01*
X90680000Y-101334685D01*
X90658723Y-101320468D01*
X90613304Y-101301654D01*
X90554582Y-101289973D01*
X90530000Y-101287552D01*
X90360228Y-101287552D01*
X90344728Y-101279345D01*
X90316465Y-101268496D01*
X90284228Y-101260399D01*
X90253261Y-101248325D01*
X90223936Y-101240796D01*
X90186638Y-101235886D01*
X90150148Y-101226720D01*
X90120112Y-101222926D01*
X90080000Y-101222716D01*
X90076706Y-101222500D01*
X90038762Y-101222500D01*
X89948629Y-101222028D01*
X89944550Y-101222500D01*
X88830660Y-101222500D01*
X87014500Y-99406340D01*
X87014500Y-98206214D01*
X87015444Y-98116099D01*
X87012605Y-98088151D01*
X87002279Y-98040392D01*
X86998612Y-98007701D01*
X86992388Y-97980307D01*
X86984210Y-97956823D01*
X86974273Y-97910863D01*
X86965314Y-97884240D01*
X86940115Y-97830200D01*
X86932736Y-97809011D01*
X86920600Y-97783680D01*
X86912018Y-97769945D01*
X86899939Y-97744043D01*
X88194745Y-97744043D01*
X88195821Y-97761149D01*
X88233346Y-98046180D01*
X88236734Y-98062982D01*
X88312595Y-98340284D01*
X88318232Y-98356471D01*
X88431026Y-98620911D01*
X88438807Y-98636182D01*
X88586445Y-98882867D01*
X88596227Y-98896942D01*
X88775979Y-99121309D01*
X88787580Y-99133925D01*
X88996118Y-99331820D01*
X89009325Y-99342745D01*
X89242791Y-99510508D01*
X89257358Y-99519540D01*
X89511433Y-99654066D01*
X89527091Y-99661038D01*
X89797072Y-99759837D01*
X89813531Y-99764619D01*
X90094422Y-99825863D01*
X90111378Y-99828367D01*
X90336853Y-99846112D01*
X90346739Y-99846500D01*
X90502271Y-99846500D01*
X90510841Y-99846208D01*
X90725395Y-99831581D01*
X90742376Y-99829255D01*
X91023893Y-99770956D01*
X91040402Y-99766347D01*
X91311403Y-99670380D01*
X91327133Y-99663573D01*
X91582602Y-99531716D01*
X91597263Y-99522837D01*
X91832474Y-99357528D01*
X91845794Y-99346741D01*
X92056393Y-99151040D01*
X92068126Y-99138546D01*
X92250217Y-98916074D01*
X92260146Y-98902103D01*
X92410360Y-98656977D01*
X92418300Y-98641787D01*
X92533856Y-98378543D01*
X92539662Y-98362417D01*
X92618423Y-98085925D01*
X92621987Y-98069159D01*
X92662494Y-97784537D01*
X92663749Y-97767444D01*
X92665255Y-97479957D01*
X92664179Y-97462851D01*
X92626654Y-97177820D01*
X92623266Y-97161018D01*
X92547405Y-96883716D01*
X92541768Y-96867529D01*
X92428974Y-96603089D01*
X92421193Y-96587818D01*
X92273555Y-96341133D01*
X92263773Y-96327058D01*
X92084021Y-96102691D01*
X92072420Y-96090075D01*
X91863882Y-95892180D01*
X91850675Y-95881255D01*
X91617209Y-95713492D01*
X91602642Y-95704460D01*
X91348567Y-95569934D01*
X91332909Y-95562962D01*
X91062928Y-95464163D01*
X91046469Y-95459381D01*
X90765578Y-95398137D01*
X90748622Y-95395633D01*
X90523147Y-95377888D01*
X90513261Y-95377500D01*
X90357729Y-95377500D01*
X90349159Y-95377792D01*
X90134605Y-95392419D01*
X90117624Y-95394745D01*
X89836107Y-95453044D01*
X89819598Y-95457653D01*
X89548597Y-95553620D01*
X89532867Y-95560427D01*
X89277398Y-95692284D01*
X89262737Y-95701163D01*
X89027526Y-95866472D01*
X89014206Y-95877259D01*
X88803607Y-96072960D01*
X88791874Y-96085454D01*
X88609783Y-96307926D01*
X88599854Y-96321897D01*
X88449640Y-96567023D01*
X88441700Y-96582213D01*
X88326144Y-96845457D01*
X88320338Y-96861583D01*
X88241577Y-97138075D01*
X88238013Y-97154841D01*
X88197506Y-97439463D01*
X88196251Y-97456556D01*
X88194745Y-97744043D01*
X86899939Y-97744043D01*
X86888657Y-97719848D01*
X86886522Y-97716350D01*
X87088807Y-97662147D01*
X87109446Y-97654635D01*
X87310927Y-97560683D01*
X87329948Y-97549701D01*
X87512052Y-97422190D01*
X87528876Y-97408072D01*
X87686072Y-97250876D01*
X87700190Y-97234052D01*
X87827701Y-97051947D01*
X87838683Y-97032926D01*
X87932635Y-96831446D01*
X87940147Y-96810807D01*
X87997685Y-96596074D01*
X88001499Y-96574444D01*
X88020874Y-96352981D01*
X88020874Y-96331019D01*
X88001499Y-96109556D01*
X87997685Y-96087925D01*
X87987221Y-96048874D01*
X88571348Y-95464747D01*
X88588868Y-95450253D01*
X88635493Y-95400602D01*
X88655230Y-95380865D01*
X88665695Y-95368995D01*
X88668170Y-95365804D01*
X88698436Y-95333574D01*
X88717000Y-95308024D01*
X88726761Y-95290270D01*
X88739175Y-95274265D01*
X88755251Y-95247082D01*
X88772811Y-95206503D01*
X88794110Y-95167760D01*
X88805736Y-95138395D01*
X88810774Y-95118774D01*
X88818818Y-95100185D01*
X88827630Y-95069857D01*
X88834547Y-95026189D01*
X88845542Y-94983364D01*
X88849500Y-94952030D01*
X88849500Y-94931776D01*
X88852669Y-94911768D01*
X88853661Y-94880199D01*
X88849500Y-94836181D01*
X88849500Y-91572685D01*
X88996118Y-91711820D01*
X89009325Y-91722745D01*
X89242791Y-91890508D01*
X89257358Y-91899540D01*
X89511433Y-92034066D01*
X89527091Y-92041038D01*
X89797072Y-92139837D01*
X89813531Y-92144619D01*
X90094422Y-92205863D01*
X90111378Y-92208367D01*
X90336853Y-92226112D01*
X90346739Y-92226500D01*
X90502271Y-92226500D01*
X90510841Y-92226208D01*
X90725395Y-92211581D01*
X90742376Y-92209255D01*
X91023893Y-92150956D01*
X91040402Y-92146347D01*
X91311403Y-92050380D01*
X91327133Y-92043573D01*
X91582602Y-91911716D01*
X91597263Y-91902837D01*
X91832474Y-91737528D01*
X91845794Y-91726741D01*
X92056393Y-91531040D01*
X92068126Y-91518546D01*
X92250217Y-91296074D01*
X92260146Y-91282103D01*
X92410360Y-91036977D01*
X92418300Y-91021787D01*
X92533856Y-90758543D01*
X92539662Y-90742417D01*
X92618423Y-90465925D01*
X92621987Y-90449159D01*
X92662494Y-90164537D01*
X92663749Y-90147444D01*
X92665255Y-89859957D01*
X92664179Y-89842851D01*
X92626654Y-89557820D01*
X92623266Y-89541018D01*
X92547405Y-89263716D01*
X92541768Y-89247529D01*
X92428974Y-88983089D01*
X92421193Y-88967818D01*
X92273555Y-88721133D01*
X92263773Y-88707058D01*
X92084021Y-88482691D01*
X92072420Y-88470075D01*
X91863882Y-88272180D01*
X91850675Y-88261255D01*
X91617209Y-88093492D01*
X91602642Y-88084460D01*
X91348567Y-87949934D01*
X91332909Y-87942962D01*
X91062928Y-87844163D01*
X91046469Y-87839381D01*
X90765578Y-87778137D01*
X90748622Y-87775633D01*
X90523147Y-87757888D01*
X90513261Y-87757500D01*
X90357729Y-87757500D01*
X90349159Y-87757792D01*
X90134605Y-87772419D01*
X90117624Y-87774745D01*
X89836107Y-87833044D01*
X89819598Y-87837653D01*
X89548597Y-87933620D01*
X89532867Y-87940427D01*
X89277398Y-88072284D01*
X89262737Y-88081163D01*
X89027526Y-88246472D01*
X89014206Y-88257259D01*
X88803607Y-88452960D01*
X88791874Y-88465454D01*
X88609783Y-88687926D01*
X88599854Y-88701897D01*
X88449640Y-88947023D01*
X88441700Y-88962213D01*
X88332675Y-89210580D01*
X87134500Y-88012405D01*
X87134500Y-87209600D01*
X87133827Y-87196596D01*
X87122853Y-87090830D01*
X87117050Y-87063958D01*
X87061074Y-86896178D01*
X87048694Y-86869751D01*
X86955622Y-86719349D01*
X86937496Y-86696479D01*
X86812321Y-86571522D01*
X86789419Y-86553435D01*
X86638854Y-86460625D01*
X86612405Y-86448292D01*
X86597259Y-86443268D01*
X86618822Y-86436074D01*
X86645249Y-86423694D01*
X86795651Y-86330622D01*
X86818521Y-86312496D01*
X86943478Y-86187321D01*
X86961565Y-86164419D01*
X87054375Y-86013854D01*
X87066708Y-85987405D01*
X87070547Y-85975830D01*
X89035476Y-85975830D01*
X89040541Y-86046645D01*
X89071555Y-86093716D01*
X89074449Y-86096481D01*
X89084787Y-86105340D01*
X89373350Y-86326763D01*
X89384595Y-86334463D01*
X89695385Y-86523426D01*
X89707395Y-86529866D01*
X90036774Y-86684158D01*
X90049409Y-86689263D01*
X90393526Y-86807081D01*
X90406639Y-86810791D01*
X90761467Y-86890755D01*
X90774904Y-86893028D01*
X91136293Y-86934203D01*
X91149897Y-86935011D01*
X91513618Y-86936915D01*
X91527230Y-86936250D01*
X91889030Y-86898862D01*
X91902490Y-86896730D01*
X92258136Y-86820486D01*
X92271287Y-86816913D01*
X92616619Y-86702705D01*
X92629307Y-86697732D01*
X92960284Y-86546897D01*
X92972361Y-86540583D01*
X93285112Y-86354885D01*
X93296437Y-86347304D01*
X93587304Y-86128915D01*
X93597744Y-86120155D01*
X93626308Y-86093425D01*
X93662380Y-86032275D01*
X93659665Y-85961330D01*
X93629310Y-85912330D01*
X91439095Y-83722115D01*
X91376783Y-83688089D01*
X91305968Y-83693154D01*
X91260905Y-83722115D01*
X89069502Y-85913518D01*
X89035476Y-85975830D01*
X87070547Y-85975830D01*
X87122390Y-85819528D01*
X87128141Y-85792704D01*
X87138844Y-85688243D01*
X87139500Y-85675400D01*
X87139500Y-84624600D01*
X87138827Y-84611596D01*
X87127853Y-84505830D01*
X87122050Y-84478958D01*
X87066074Y-84311178D01*
X87053694Y-84284751D01*
X86960622Y-84134349D01*
X86942496Y-84111479D01*
X86817321Y-83986522D01*
X86794419Y-83968435D01*
X86643854Y-83875625D01*
X86617405Y-83863292D01*
X86609500Y-83860670D01*
X86609500Y-83826781D01*
X86740651Y-83745622D01*
X86763521Y-83727496D01*
X86888478Y-83602321D01*
X86906565Y-83579419D01*
X86988414Y-83446636D01*
X87861249Y-83446636D01*
X87879651Y-83809897D01*
X87881076Y-83823450D01*
X87938603Y-84182599D01*
X87941483Y-84195919D01*
X88037460Y-84546754D01*
X88041761Y-84559685D01*
X88175068Y-84898103D01*
X88180741Y-84910494D01*
X88349816Y-85232535D01*
X88356794Y-85244241D01*
X88559661Y-85546139D01*
X88567863Y-85557023D01*
X88706231Y-85721339D01*
X88765410Y-85760562D01*
X88836399Y-85761564D01*
X88891706Y-85729274D01*
X91079885Y-83541095D01*
X91113911Y-83478783D01*
X91108846Y-83407968D01*
X91079885Y-83362905D01*
X88891810Y-81174830D01*
X88829498Y-81140804D01*
X88758683Y-81145869D01*
X88706903Y-81182095D01*
X88582626Y-81327606D01*
X88574350Y-81338432D01*
X88369380Y-81638906D01*
X88362320Y-81650563D01*
X88191001Y-81971417D01*
X88185242Y-81983767D01*
X88049576Y-82321245D01*
X88045184Y-82334146D01*
X87946759Y-82684303D01*
X87943786Y-82697603D01*
X87883754Y-83056342D01*
X87882235Y-83069885D01*
X87861297Y-83433008D01*
X87861249Y-83446636D01*
X86988414Y-83446636D01*
X86999375Y-83428854D01*
X87011708Y-83402405D01*
X87067390Y-83234528D01*
X87073141Y-83207704D01*
X87083844Y-83103243D01*
X87084500Y-83090400D01*
X87084500Y-82089600D01*
X87083827Y-82076596D01*
X87072853Y-81970830D01*
X87067050Y-81943958D01*
X87011074Y-81776178D01*
X86998694Y-81749751D01*
X86905622Y-81599349D01*
X86887496Y-81576479D01*
X86762321Y-81451522D01*
X86739419Y-81433435D01*
X86588854Y-81340625D01*
X86562405Y-81328292D01*
X86394528Y-81272610D01*
X86367704Y-81266859D01*
X86263243Y-81256156D01*
X86250400Y-81255500D01*
X85449600Y-81255500D01*
X85436596Y-81256173D01*
X85330830Y-81267147D01*
X85303958Y-81272950D01*
X85136178Y-81328926D01*
X85109751Y-81341306D01*
X84959349Y-81434378D01*
X84936479Y-81452504D01*
X84849689Y-81539445D01*
X84762009Y-81451917D01*
X84739107Y-81433830D01*
X84588641Y-81341082D01*
X84562193Y-81328749D01*
X84394427Y-81273103D01*
X84367601Y-81267352D01*
X84263205Y-81256656D01*
X84250363Y-81256000D01*
X84104000Y-81256000D01*
X84035879Y-81276002D01*
X83989386Y-81329658D01*
X83978000Y-81382000D01*
X83978000Y-82718000D01*
X82742001Y-82718000D01*
X82673880Y-82738002D01*
X82627387Y-82791658D01*
X82616001Y-82844000D01*
X82616001Y-83090362D01*
X82616674Y-83103365D01*
X82627641Y-83209066D01*
X82633444Y-83235939D01*
X82689382Y-83403608D01*
X82701762Y-83430035D01*
X82794773Y-83580338D01*
X82812899Y-83603208D01*
X82937991Y-83728083D01*
X82960893Y-83746170D01*
X83111359Y-83838918D01*
X83137807Y-83851251D01*
X83158549Y-83858131D01*
X83141178Y-83863926D01*
X83114751Y-83876306D01*
X82964349Y-83969378D01*
X82941479Y-83987504D01*
X82816522Y-84112679D01*
X82798435Y-84135581D01*
X82705625Y-84286146D01*
X82693292Y-84312595D01*
X82663472Y-84402500D01*
X82236323Y-84402500D01*
X82224087Y-84386174D01*
X82198826Y-84360913D01*
X82082270Y-84273559D01*
X82050935Y-84256403D01*
X81931917Y-84211785D01*
X82036653Y-84107413D01*
X82050035Y-84091689D01*
X82180344Y-83910345D01*
X82190979Y-83892646D01*
X82289921Y-83692453D01*
X82297522Y-83673255D01*
X82362438Y-83459592D01*
X82366802Y-83439408D01*
X82371273Y-83405445D01*
X82360333Y-83335297D01*
X82313205Y-83282198D01*
X82246351Y-83263000D01*
X79575110Y-83263000D01*
X79506989Y-83283002D01*
X79460496Y-83336658D01*
X79450392Y-83406932D01*
X79452193Y-83416701D01*
X79486784Y-83570190D01*
X79492958Y-83589893D01*
X79576971Y-83796794D01*
X79586281Y-83815225D01*
X79702959Y-84005626D01*
X79715155Y-84022288D01*
X79861364Y-84191076D01*
X79876116Y-84205523D01*
X79885035Y-84212928D01*
X79769065Y-84256403D01*
X79737730Y-84273559D01*
X79621174Y-84360913D01*
X79595913Y-84386174D01*
X79508559Y-84502730D01*
X79491403Y-84534065D01*
X79440273Y-84670454D01*
X79432992Y-84701076D01*
X79426237Y-84763258D01*
X79425500Y-84776866D01*
X79425500Y-86573134D01*
X78384000Y-86573134D01*
X78384000Y-82867590D01*
X79446055Y-82867590D01*
X79458693Y-82937453D01*
X79507096Y-82989392D01*
X79571339Y-83007000D01*
X80656000Y-83007000D01*
X80724121Y-82986998D01*
X80770614Y-82933342D01*
X80782000Y-82881000D01*
X81038000Y-82881000D01*
X81058002Y-82949121D01*
X81111658Y-82995614D01*
X81164000Y-83007000D01*
X82246459Y-83007000D01*
X82314580Y-82986998D01*
X82361073Y-82933342D01*
X82371177Y-82863068D01*
X82368663Y-82850304D01*
X82322159Y-82665167D01*
X82315505Y-82645621D01*
X82226462Y-82440835D01*
X82216704Y-82422637D01*
X82160656Y-82336000D01*
X82616000Y-82336000D01*
X82636002Y-82404121D01*
X82689658Y-82450614D01*
X82742000Y-82462000D01*
X83596000Y-82462000D01*
X83664121Y-82441998D01*
X83710614Y-82388342D01*
X83722000Y-82336000D01*
X83722000Y-81382001D01*
X83701998Y-81313880D01*
X83648342Y-81267387D01*
X83596000Y-81256001D01*
X83449638Y-81256001D01*
X83436635Y-81256674D01*
X83330934Y-81267641D01*
X83304061Y-81273444D01*
X83136392Y-81329382D01*
X83109965Y-81341762D01*
X82959662Y-81434773D01*
X82936792Y-81452899D01*
X82811917Y-81577991D01*
X82793830Y-81600893D01*
X82701082Y-81751359D01*
X82688749Y-81777807D01*
X82633103Y-81945573D01*
X82627352Y-81972399D01*
X82616656Y-82076795D01*
X82616000Y-82089637D01*
X82616000Y-82336000D01*
X82160656Y-82336000D01*
X82095409Y-82235143D01*
X82082810Y-82218783D01*
X81932521Y-82053618D01*
X81917420Y-82039536D01*
X81742173Y-81901135D01*
X81724975Y-81889709D01*
X81529477Y-81781788D01*
X81510643Y-81773323D01*
X81300144Y-81698781D01*
X81280180Y-81693507D01*
X81186096Y-81676748D01*
X81115524Y-81684494D01*
X81060342Y-81729164D01*
X81038000Y-81800795D01*
X81038000Y-82881000D01*
X80782000Y-82881000D01*
X80782000Y-81799987D01*
X80761998Y-81731866D01*
X80708342Y-81685373D01*
X80636940Y-81675437D01*
X80575148Y-81684893D01*
X80555063Y-81689678D01*
X80342805Y-81759054D01*
X80323770Y-81767056D01*
X80125694Y-81870168D01*
X80108221Y-81881171D01*
X79929645Y-82015250D01*
X79914204Y-82028959D01*
X79759925Y-82190403D01*
X79746931Y-82206450D01*
X79621091Y-82390924D01*
X79610891Y-82408878D01*
X79516871Y-82611428D01*
X79509742Y-82630806D01*
X79450065Y-82845992D01*
X79446198Y-82866254D01*
X79446055Y-82867590D01*
X78384000Y-82867590D01*
X78384000Y-80586000D01*
X89363728Y-80586000D01*
X89103366Y-80782911D01*
G37*
%TD.AperFunction*%
%TD*%
M02*
