%TF.GenerationSoftware,KiCad,Pcbnew,(6.0.1)*%
%TF.CreationDate,2022-07-21T19:55:02-07:00*%
%TF.ProjectId,mu100-dit,6d753130-302d-4646-9974-2e6b69636164,rev?*%
%TF.SameCoordinates,PX4a25ef0PY4c3f880*%
%TF.FileFunction,Copper,L1,Top*%
%TF.FilePolarity,Positive*%
%FSLAX46Y46*%
G04 Gerber Fmt 4.6, Leading zero omitted, Abs format (unit mm)*
G04 Created by KiCad (PCBNEW (6.0.1)) date 2022-07-21 19:55:02*
%MOMM*%
%LPD*%
G01*
G04 APERTURE LIST*
G04 Aperture macros list*
%AMRoundRect*
0 Rectangle with rounded corners*
0 $1 Rounding radius*
0 $2 $3 $4 $5 $6 $7 $8 $9 X,Y pos of 4 corners*
0 Add a 4 corners polygon primitive as box body*
4,1,4,$2,$3,$4,$5,$6,$7,$8,$9,$2,$3,0*
0 Add four circle primitives for the rounded corners*
1,1,$1+$1,$2,$3*
1,1,$1+$1,$4,$5*
1,1,$1+$1,$6,$7*
1,1,$1+$1,$8,$9*
0 Add four rect primitives between the rounded corners*
20,1,$1+$1,$2,$3,$4,$5,0*
20,1,$1+$1,$4,$5,$6,$7,0*
20,1,$1+$1,$6,$7,$8,$9,0*
20,1,$1+$1,$8,$9,$2,$3,0*%
G04 Aperture macros list end*
%TA.AperFunction,SMDPad,CuDef*%
%ADD10RoundRect,0.250000X-0.337500X-0.475000X0.337500X-0.475000X0.337500X0.475000X-0.337500X0.475000X0*%
%TD*%
%TA.AperFunction,ComponentPad*%
%ADD11RoundRect,0.250000X-0.625000X0.350000X-0.625000X-0.350000X0.625000X-0.350000X0.625000X0.350000X0*%
%TD*%
%TA.AperFunction,ComponentPad*%
%ADD12O,1.750000X1.200000*%
%TD*%
%TA.AperFunction,SMDPad,CuDef*%
%ADD13RoundRect,0.100000X-0.637500X-0.100000X0.637500X-0.100000X0.637500X0.100000X-0.637500X0.100000X0*%
%TD*%
%TA.AperFunction,SMDPad,CuDef*%
%ADD14RoundRect,0.250000X-0.350000X-0.450000X0.350000X-0.450000X0.350000X0.450000X-0.350000X0.450000X0*%
%TD*%
%TA.AperFunction,ComponentPad*%
%ADD15C,1.524000*%
%TD*%
%TA.AperFunction,SMDPad,CuDef*%
%ADD16R,1.900000X0.800000*%
%TD*%
%TA.AperFunction,SMDPad,CuDef*%
%ADD17RoundRect,0.250000X0.337500X0.475000X-0.337500X0.475000X-0.337500X-0.475000X0.337500X-0.475000X0*%
%TD*%
%TA.AperFunction,ComponentPad*%
%ADD18R,1.700000X1.700000*%
%TD*%
%TA.AperFunction,ComponentPad*%
%ADD19O,1.700000X1.700000*%
%TD*%
%TA.AperFunction,ViaPad*%
%ADD20C,0.800000*%
%TD*%
%TA.AperFunction,ViaPad*%
%ADD21C,0.750000*%
%TD*%
%TA.AperFunction,ViaPad*%
%ADD22C,0.600000*%
%TD*%
%TA.AperFunction,Conductor*%
%ADD23C,0.250000*%
%TD*%
%TA.AperFunction,Conductor*%
%ADD24C,0.400000*%
%TD*%
%TA.AperFunction,Conductor*%
%ADD25C,0.600000*%
%TD*%
%TA.AperFunction,Conductor*%
%ADD26C,0.500000*%
%TD*%
%TA.AperFunction,Conductor*%
%ADD27C,0.254000*%
%TD*%
G04 APERTURE END LIST*
D10*
%TO.P,C3,1*%
%TO.N,GND*%
X81292500Y-117227000D03*
%TO.P,C3,2*%
%TO.N,+5V*%
X83367500Y-117227000D03*
%TD*%
D11*
%TO.P,J1,1,Pin_1*%
%TO.N,unconnected-(J1-Pad1)*%
X81030000Y-90572000D03*
D12*
%TO.P,J1,2,Pin_2*%
%TO.N,+5V*%
X81030000Y-92572000D03*
%TO.P,J1,3,Pin_3*%
%TO.N,GND*%
X81030000Y-94572000D03*
%TO.P,J1,4,Pin_4*%
%TO.N,/MCLK*%
X81030000Y-96572000D03*
%TO.P,J1,5,Pin_5*%
%TO.N,GND*%
X81030000Y-98572000D03*
%TO.P,J1,6,Pin_6*%
%TO.N,/SDAT*%
X81030000Y-100572000D03*
%TO.P,J1,7,Pin_7*%
%TO.N,GND*%
X81030000Y-102572000D03*
%TO.P,J1,8,Pin_8*%
%TO.N,/BICK*%
X81030000Y-104572000D03*
%TO.P,J1,9,Pin_9*%
%TO.N,GND*%
X81030000Y-106572000D03*
%TO.P,J1,10,Pin_10*%
%TO.N,/LRCK*%
X81030000Y-108572000D03*
%TD*%
D13*
%TO.P,U2,1,V1*%
%TO.N,GND*%
X85739500Y-103413427D03*
%TO.P,U2,2,TRANS*%
X85739500Y-104063427D03*
%TO.P,U2,3,PDN*%
%TO.N,/RESET*%
X85739500Y-104713427D03*
%TO.P,U2,4,MCLK*%
%TO.N,/MCLK*%
X85739500Y-105363427D03*
%TO.P,U2,5,SDTI*%
%TO.N,/SDAT*%
X85739500Y-106013427D03*
%TO.P,U2,6,BICK*%
%TO.N,/BICK*%
X85739500Y-106663427D03*
%TO.P,U2,7,LRCK*%
%TO.N,/LRCK*%
X85739500Y-107313427D03*
%TO.P,U2,8,FS0/CSN*%
%TO.N,/FS0*%
X85739500Y-107963427D03*
%TO.P,U2,9,FS1/CDTI*%
%TO.N,/FS1*%
X85739500Y-108613427D03*
%TO.P,U2,10,FS2/CCLK*%
%TO.N,/FS2*%
X85739500Y-109263427D03*
%TO.P,U2,11,FS3/CDTO*%
%TO.N,/FS3*%
X85739500Y-109913427D03*
%TO.P,U2,12,C1*%
%TO.N,GND*%
X85739500Y-110563427D03*
%TO.P,U2,13,ANS*%
%TO.N,unconnected-(U2-Pad13)*%
X93164500Y-110563427D03*
%TO.P,U2,14,BLS*%
%TO.N,unconnected-(U2-Pad14)*%
X93164500Y-109913427D03*
%TO.P,U2,15,CKS0*%
%TO.N,/CKS0*%
X93164500Y-109263427D03*
%TO.P,U2,16,CKS1*%
%TO.N,/CKS1*%
X93164500Y-108613427D03*
%TO.P,U2,17,VDD*%
%TO.N,+5V*%
X93164500Y-107963427D03*
%TO.P,U2,18,VSS*%
%TO.N,GND*%
X93164500Y-107313427D03*
%TO.P,U2,19,TXN*%
%TO.N,unconnected-(U2-Pad19)*%
X93164500Y-106663427D03*
%TO.P,U2,20,TXP*%
%TO.N,/TXP*%
X93164500Y-106013427D03*
%TO.P,U2,21,DIF0*%
%TO.N,/DIF0*%
X93164500Y-105363427D03*
%TO.P,U2,22,DIF1*%
%TO.N,/DIF1*%
X93164500Y-104713427D03*
%TO.P,U2,23,DIF2*%
%TO.N,/DIF2*%
X93164500Y-104063427D03*
%TO.P,U2,24,U1*%
%TO.N,unconnected-(U2-Pad24)*%
X93164500Y-103413427D03*
%TD*%
D14*
%TO.P,R1,1*%
%TO.N,/TXP*%
X83828572Y-86452000D03*
%TO.P,R1,2*%
%TO.N,Net-(C4-Pad1)*%
X85828572Y-86452000D03*
%TD*%
D15*
%TO.P,U1,1,GND*%
%TO.N,GND*%
X86620000Y-91262000D03*
%TO.P,U1,2,VCC*%
%TO.N,+5V*%
X86620000Y-93802000D03*
%TO.P,U1,3,Input*%
%TO.N,/TXP*%
X86620000Y-96342000D03*
%TD*%
D10*
%TO.P,C2,1*%
%TO.N,GND*%
X91208500Y-101140000D03*
%TO.P,C2,2*%
%TO.N,+5V*%
X93283500Y-101140000D03*
%TD*%
D16*
%TO.P,U3,1,~{RESET}*%
%TO.N,/RESET*%
X80830000Y-112702000D03*
%TO.P,U3,2,GND*%
%TO.N,GND*%
X80830000Y-114602000D03*
%TO.P,U3,3,VCC*%
%TO.N,+5V*%
X83830000Y-113652000D03*
%TD*%
D14*
%TO.P,R2,1*%
%TO.N,GND*%
X83828572Y-81702000D03*
%TO.P,R2,2*%
%TO.N,Net-(C4-Pad1)*%
X85828572Y-81702000D03*
%TD*%
D17*
%TO.P,C4,1*%
%TO.N,Net-(C4-Pad1)*%
X85836072Y-84077000D03*
%TO.P,C4,2*%
%TO.N,Net-(C4-Pad2)*%
X83761072Y-84077000D03*
%TD*%
%TO.P,C1,1*%
%TO.N,GND*%
X87695500Y-101140000D03*
%TO.P,C1,2*%
%TO.N,+5V*%
X85620500Y-101140000D03*
%TD*%
D18*
%TO.P,J2,1,Pin_1*%
%TO.N,Net-(C4-Pad2)*%
X80510000Y-85675000D03*
D19*
%TO.P,J2,2,Pin_2*%
%TO.N,GND*%
X80510000Y-83135000D03*
%TD*%
D20*
%TO.N,GND*%
X88110000Y-113772000D03*
X87480000Y-111482000D03*
X90030000Y-111532000D03*
X81763200Y-88054600D03*
X87500000Y-99482000D03*
D21*
X83300000Y-96802600D03*
X83990000Y-101972000D03*
D20*
X85930000Y-113752000D03*
X92750000Y-99122000D03*
D21*
X83300000Y-99738600D03*
D20*
X84060000Y-92542000D03*
X79248600Y-117290000D03*
X78715200Y-114623000D03*
D21*
X83300000Y-95352000D03*
X83300000Y-98270600D03*
D20*
X92430000Y-95692000D03*
X85300000Y-98872000D03*
X89130000Y-92702000D03*
D22*
%TO.N,/RESET*%
X83330000Y-111502000D03*
X83980000Y-104232000D03*
%TO.N,/FS0*%
X87889978Y-106829600D03*
%TO.N,/FS1*%
X87877200Y-107744000D03*
%TO.N,/FS2*%
X87885439Y-108751761D03*
%TO.N,/FS3*%
X87877200Y-109674400D03*
D20*
%TO.N,/TXP*%
X83846000Y-87978400D03*
D22*
%TO.N,/DIF0*%
X91920000Y-105388927D03*
%TO.N,/DIF1*%
X91138872Y-103534614D03*
%TO.N,/DIF2*%
X91750000Y-102702000D03*
%TO.N,/CKS0*%
X90925200Y-109003500D03*
%TO.N,/CKS1*%
X91915800Y-108379000D03*
%TD*%
D23*
%TO.N,/DIF2*%
X92476639Y-104063427D02*
X93164500Y-104063427D01*
X92102480Y-103054480D02*
X92102480Y-103689268D01*
X91750000Y-102702000D02*
X92102480Y-103054480D01*
X92102480Y-103689268D02*
X92476639Y-104063427D01*
D24*
%TO.N,GND*%
X91328000Y-101140000D02*
X91208500Y-101140000D01*
X92640000Y-102452000D02*
X91328000Y-101140000D01*
X93775000Y-102452000D02*
X92640000Y-102452000D01*
X94325480Y-103002480D02*
X93775000Y-102452000D01*
X94108573Y-107313427D02*
X94325480Y-107096520D01*
X94325480Y-107096520D02*
X94325480Y-103002480D01*
X93164500Y-107313427D02*
X94108573Y-107313427D01*
D23*
%TO.N,/DIF0*%
X91945500Y-105363427D02*
X93164500Y-105363427D01*
X91920000Y-105388927D02*
X91945500Y-105363427D01*
%TO.N,/TXP*%
X89440000Y-105231000D02*
X90222427Y-106013427D01*
X90222427Y-106013427D02*
X93164500Y-106013427D01*
X87880000Y-98602000D02*
X89440000Y-100162000D01*
X87880000Y-96902000D02*
X87880000Y-98602000D01*
X89440000Y-100162000D02*
X89440000Y-105231000D01*
X87320000Y-96342000D02*
X87880000Y-96902000D01*
X86620000Y-96342000D02*
X87320000Y-96342000D01*
%TO.N,/DIF1*%
X91138872Y-103534614D02*
X92317685Y-104713427D01*
X92317685Y-104713427D02*
X93164500Y-104713427D01*
D25*
%TO.N,GND*%
X82550000Y-94572000D02*
X83300000Y-95322000D01*
X83300000Y-95352000D02*
X83300000Y-99738600D01*
D24*
X83655000Y-109902000D02*
X80155000Y-109902000D01*
X86991427Y-104063427D02*
X87130000Y-104202000D01*
X88118573Y-110563427D02*
X85739500Y-110563427D01*
X85739500Y-103413427D02*
X87130000Y-103413427D01*
X78588000Y-104246000D02*
X79292000Y-104950000D01*
X89940000Y-108780000D02*
X89940000Y-108162000D01*
X81030000Y-98572000D02*
X79828000Y-98572000D01*
X78480000Y-99920000D02*
X78480000Y-104022000D01*
X90798573Y-107303427D02*
X92675500Y-107303427D01*
D25*
X83990000Y-101972000D02*
X83990000Y-100786010D01*
D24*
X79292000Y-109039000D02*
X79292000Y-106474000D01*
D25*
X83990000Y-102930600D02*
X83990000Y-101972000D01*
X83990000Y-100786010D02*
X83312600Y-100108610D01*
D24*
X88156573Y-110563427D02*
X89940000Y-108780000D01*
X81030000Y-94572000D02*
X79256000Y-94572000D01*
X81030000Y-94572000D02*
X82550000Y-94572000D01*
X84472827Y-103413427D02*
X85739500Y-103413427D01*
X79390000Y-106572000D02*
X79292000Y-106474000D01*
X79256000Y-94572000D02*
X78480000Y-95348000D01*
D25*
X84100000Y-103040600D02*
X83990000Y-102930600D01*
D24*
X85739500Y-110563427D02*
X84316427Y-110563427D01*
X85739500Y-104063427D02*
X86991427Y-104063427D01*
X78480000Y-104022000D02*
X78588000Y-104130000D01*
X87130000Y-104412000D02*
X88910000Y-106192000D01*
X79828000Y-98572000D02*
X78480000Y-99920000D01*
X83828572Y-81702000D02*
X82343000Y-81702000D01*
X88910000Y-106192000D02*
X88910000Y-107432000D01*
X78588000Y-104130000D02*
X78588000Y-104246000D01*
X84316427Y-110563427D02*
X83655000Y-109902000D01*
D25*
X83312600Y-100108610D02*
X83312600Y-99713200D01*
D24*
X87130000Y-104202000D02*
X87130000Y-104412000D01*
X79292000Y-104950000D02*
X79292000Y-106474000D01*
X82343000Y-81702000D02*
X80910000Y-83135000D01*
X80155000Y-109902000D02*
X79292000Y-109039000D01*
X79930000Y-102572000D02*
X78480000Y-104022000D01*
X78480000Y-95348000D02*
X78480000Y-99920000D01*
D25*
X83300000Y-95322000D02*
X83300000Y-95352000D01*
D24*
X87130000Y-103413427D02*
X87130000Y-104202000D01*
X89940000Y-108162000D02*
X90798573Y-107303427D01*
X81030000Y-102572000D02*
X79930000Y-102572000D01*
X84100000Y-103040600D02*
X84472827Y-103413427D01*
X81030000Y-106572000D02*
X79390000Y-106572000D01*
%TO.N,+5V*%
X94420000Y-107952000D02*
X94920000Y-108452000D01*
D25*
X94090000Y-95462000D02*
X92690000Y-94062000D01*
X85620500Y-100892500D02*
X85620500Y-101140000D01*
D24*
X94930000Y-107582000D02*
X94940000Y-107572000D01*
D25*
X94090000Y-100312000D02*
X94090000Y-95462000D01*
D24*
X83555000Y-113927000D02*
X83555000Y-116914500D01*
D26*
X93758000Y-101140000D02*
X93029500Y-101140000D01*
D24*
X94068573Y-107963427D02*
X94318573Y-107963427D01*
D26*
X94990000Y-107562000D02*
X94990000Y-102372000D01*
D24*
X94930000Y-108522000D02*
X94930000Y-107582000D01*
X83555000Y-116914500D02*
X83367500Y-117102000D01*
D26*
X94990000Y-102372000D02*
X93758000Y-101140000D01*
D25*
X93516000Y-100886000D02*
X94090000Y-100312000D01*
D24*
X94920000Y-111062000D02*
X93430000Y-112552000D01*
D25*
X86370000Y-93802000D02*
X84300000Y-95872000D01*
D24*
X94920000Y-108452000D02*
X94920000Y-111062000D01*
D26*
X94540000Y-108012000D02*
X94990000Y-107562000D01*
D24*
X83830000Y-113652000D02*
X83555000Y-113927000D01*
X84930000Y-112552000D02*
X83830000Y-113652000D01*
X93430000Y-112552000D02*
X84930000Y-112552000D01*
D25*
X84300000Y-95872000D02*
X84300000Y-99572000D01*
D24*
X94318573Y-107963427D02*
X93164500Y-107963427D01*
D25*
X84300000Y-99572000D02*
X85620500Y-100892500D01*
X92690000Y-94062000D02*
X86880000Y-94062000D01*
X86371000Y-93802000D02*
X86370000Y-93802000D01*
X86880000Y-94062000D02*
X86620000Y-93802000D01*
D23*
%TO.N,/LRCK*%
X83660357Y-107313427D02*
X82401784Y-108572000D01*
X85739500Y-107313427D02*
X83660357Y-107313427D01*
X82401784Y-108572000D02*
X81030000Y-108572000D01*
%TO.N,/SDAT*%
X83403427Y-106013427D02*
X85739500Y-106013427D01*
X81030000Y-100572000D02*
X81390000Y-100572000D01*
X82610000Y-101792000D02*
X82610000Y-105220000D01*
X82610000Y-105220000D02*
X83403427Y-106013427D01*
X81390000Y-100572000D02*
X82610000Y-101792000D01*
%TO.N,/RESET*%
X83980000Y-104232000D02*
X84461427Y-104713427D01*
X81330000Y-112702000D02*
X80830000Y-112702000D01*
X83330000Y-111502000D02*
X82530000Y-111502000D01*
X82530000Y-111502000D02*
X81330000Y-112702000D01*
X84461427Y-104713427D02*
X85739500Y-104713427D01*
%TO.N,/MCLK*%
X82499800Y-100571800D02*
X83170000Y-101242000D01*
X81580000Y-96572000D02*
X82499800Y-97491800D01*
X83170000Y-101242000D02*
X83170000Y-104782000D01*
X83170000Y-104782000D02*
X83751427Y-105363427D01*
X81030000Y-96572000D02*
X81580000Y-96572000D01*
X83751427Y-105363427D02*
X85739500Y-105363427D01*
X82499800Y-97491800D02*
X82499800Y-100571800D01*
%TO.N,/FS0*%
X86699662Y-107963427D02*
X85739500Y-107963427D01*
X87833489Y-106829600D02*
X86699662Y-107963427D01*
X87889978Y-106829600D02*
X87833489Y-106829600D01*
%TO.N,/FS1*%
X87877200Y-107744000D02*
X87554807Y-107744000D01*
X87554807Y-107744000D02*
X86685380Y-108613427D01*
X86685380Y-108613427D02*
X85739500Y-108613427D01*
%TO.N,/FS2*%
X87885439Y-108751761D02*
X87680239Y-108751761D01*
X87168573Y-109263427D02*
X85739500Y-109263427D01*
X87680239Y-108751761D02*
X87168573Y-109263427D01*
%TO.N,/FS3*%
X87877200Y-109674400D02*
X87638173Y-109913427D01*
X87638173Y-109913427D02*
X85739500Y-109913427D01*
%TO.N,/TXP*%
X83846000Y-87978400D02*
X83828572Y-87960972D01*
X83828572Y-87960972D02*
X83828572Y-86452000D01*
%TO.N,/CKS0*%
X91331500Y-109003500D02*
X91591427Y-109263427D01*
X90925200Y-109003500D02*
X91331500Y-109003500D01*
X91591427Y-109263427D02*
X93164500Y-109263427D01*
%TO.N,/BICK*%
X81030000Y-104572000D02*
X83121427Y-106663427D01*
X83121427Y-106663427D02*
X85739500Y-106663427D01*
%TO.N,/CKS1*%
X92150227Y-108613427D02*
X93164500Y-108613427D01*
X91915800Y-108379000D02*
X92150227Y-108613427D01*
%TO.N,Net-(C4-Pad1)*%
X85828572Y-86252000D02*
X86028572Y-86452000D01*
X85828572Y-81909500D02*
X85828572Y-86252000D01*
%TO.N,Net-(C4-Pad2)*%
X83761072Y-84077000D02*
X82163072Y-85675000D01*
X82163072Y-85675000D02*
X80910000Y-85675000D01*
%TD*%
%TO.N,GND*%
D27*
X82790489Y-80689991D02*
X82772402Y-80712893D01*
X82679654Y-80863359D01*
X82667321Y-80889807D01*
X82611675Y-81057573D01*
X82605924Y-81084399D01*
X82595228Y-81188795D01*
X82594572Y-81201637D01*
X82594572Y-81448000D01*
X82614574Y-81516121D01*
X82668230Y-81562614D01*
X82720572Y-81574000D01*
X83956572Y-81574000D01*
X83956572Y-81830000D01*
X82720573Y-81830000D01*
X82652452Y-81850002D01*
X82605959Y-81903658D01*
X82594573Y-81956000D01*
X82594573Y-82202362D01*
X82595246Y-82215365D01*
X82606213Y-82321066D01*
X82612016Y-82347939D01*
X82667954Y-82515608D01*
X82680334Y-82542035D01*
X82773345Y-82692338D01*
X82791471Y-82715208D01*
X82916563Y-82840083D01*
X82939465Y-82858170D01*
X82942070Y-82859776D01*
X82882921Y-82896378D01*
X82860051Y-82914504D01*
X82735094Y-83039679D01*
X82717007Y-83062581D01*
X82624197Y-83213146D01*
X82611864Y-83239595D01*
X82556182Y-83407472D01*
X82550431Y-83434296D01*
X82539728Y-83538757D01*
X82539072Y-83551600D01*
X82539072Y-84224905D01*
X81994120Y-84769857D01*
X81993763Y-84763258D01*
X81987008Y-84701076D01*
X81979727Y-84670454D01*
X81928597Y-84534065D01*
X81911441Y-84502730D01*
X81824087Y-84386174D01*
X81798826Y-84360913D01*
X81682270Y-84273559D01*
X81650935Y-84256403D01*
X81531917Y-84211785D01*
X81636653Y-84107413D01*
X81650035Y-84091689D01*
X81780344Y-83910345D01*
X81790979Y-83892646D01*
X81889921Y-83692453D01*
X81897522Y-83673255D01*
X81962438Y-83459592D01*
X81966802Y-83439408D01*
X81971273Y-83405445D01*
X81960333Y-83335297D01*
X81913205Y-83282198D01*
X81846351Y-83263000D01*
X79175110Y-83263000D01*
X79106989Y-83283002D01*
X79060496Y-83336658D01*
X79050392Y-83406932D01*
X79052193Y-83416701D01*
X79086784Y-83570190D01*
X79092958Y-83589893D01*
X79176971Y-83796794D01*
X79186281Y-83815225D01*
X79302959Y-84005626D01*
X79315155Y-84022288D01*
X79461364Y-84191076D01*
X79476116Y-84205523D01*
X79485035Y-84212928D01*
X79369065Y-84256403D01*
X79337730Y-84273559D01*
X79221174Y-84360913D01*
X79195913Y-84386174D01*
X79108559Y-84502730D01*
X79091403Y-84534065D01*
X79040273Y-84670454D01*
X79032992Y-84701076D01*
X79026237Y-84763258D01*
X79025500Y-84776866D01*
X79025500Y-86573134D01*
X79026237Y-86586742D01*
X79032992Y-86648924D01*
X79040273Y-86679546D01*
X79091403Y-86815935D01*
X79108559Y-86847270D01*
X79195913Y-86963826D01*
X79221174Y-86989087D01*
X79337730Y-87076441D01*
X79369065Y-87093597D01*
X79505454Y-87144727D01*
X79536076Y-87152008D01*
X79598258Y-87158763D01*
X79611866Y-87159500D01*
X81408134Y-87159500D01*
X81421742Y-87158763D01*
X81483924Y-87152008D01*
X81514546Y-87144727D01*
X81650935Y-87093597D01*
X81682270Y-87076441D01*
X81798826Y-86989087D01*
X81824087Y-86963826D01*
X81911441Y-86847270D01*
X81928597Y-86815935D01*
X81979727Y-86679546D01*
X81987008Y-86648924D01*
X81993763Y-86586742D01*
X81994500Y-86573134D01*
X81994500Y-86434500D01*
X82084305Y-86434500D01*
X82106940Y-86436640D01*
X82175017Y-86434500D01*
X82202928Y-86434500D01*
X82218718Y-86433507D01*
X82222729Y-86433000D01*
X82266920Y-86431611D01*
X82298113Y-86426670D01*
X82317564Y-86421019D01*
X82337662Y-86418480D01*
X82368253Y-86410626D01*
X82409367Y-86394348D01*
X82451817Y-86382015D01*
X82480805Y-86369471D01*
X82498241Y-86359159D01*
X82517071Y-86351704D01*
X82544749Y-86336489D01*
X82580519Y-86310501D01*
X82594072Y-86302486D01*
X82594072Y-86952400D01*
X82594745Y-86965404D01*
X82605719Y-87071170D01*
X82611522Y-87098042D01*
X82667498Y-87265822D01*
X82679878Y-87292249D01*
X82772950Y-87442651D01*
X82791076Y-87465521D01*
X82892256Y-87566525D01*
X82891640Y-87567908D01*
X82832625Y-87749536D01*
X82827148Y-87775302D01*
X82807186Y-87965230D01*
X82807186Y-87991570D01*
X82827148Y-88181498D01*
X82832625Y-88207264D01*
X82891640Y-88388892D01*
X82902354Y-88412956D01*
X82997841Y-88578344D01*
X83013324Y-88599654D01*
X83141111Y-88741576D01*
X83160686Y-88759202D01*
X83315187Y-88871454D01*
X83337999Y-88884625D01*
X83512463Y-88962301D01*
X83537515Y-88970441D01*
X83724316Y-89010147D01*
X83750513Y-89012900D01*
X83941487Y-89012900D01*
X83967684Y-89010147D01*
X84154485Y-88970441D01*
X84179537Y-88962301D01*
X84354001Y-88884625D01*
X84376813Y-88871454D01*
X84531314Y-88759202D01*
X84550889Y-88741576D01*
X84678676Y-88599654D01*
X84694159Y-88578344D01*
X84789646Y-88412956D01*
X84800360Y-88388892D01*
X84859375Y-88207264D01*
X84864852Y-88181498D01*
X84884814Y-87991570D01*
X84884814Y-87965230D01*
X84864852Y-87775302D01*
X84859375Y-87749536D01*
X84800360Y-87567908D01*
X84789646Y-87543844D01*
X84788920Y-87542587D01*
X84828529Y-87502909D01*
X84916251Y-87590478D01*
X84939153Y-87608565D01*
X85089718Y-87701375D01*
X85116167Y-87713708D01*
X85284044Y-87769390D01*
X85310868Y-87775141D01*
X85415329Y-87785844D01*
X85428172Y-87786500D01*
X86228972Y-87786500D01*
X86241976Y-87785827D01*
X86347742Y-87774853D01*
X86374614Y-87769050D01*
X86542394Y-87713074D01*
X86568821Y-87700694D01*
X86719223Y-87607622D01*
X86742093Y-87589496D01*
X86867050Y-87464321D01*
X86885137Y-87441419D01*
X86977947Y-87290854D01*
X86990280Y-87264405D01*
X87045962Y-87096528D01*
X87051713Y-87069704D01*
X87062416Y-86965243D01*
X87063072Y-86952400D01*
X87063072Y-85951600D01*
X87062399Y-85938596D01*
X87051425Y-85832830D01*
X87045622Y-85805958D01*
X86989646Y-85638178D01*
X86977266Y-85611751D01*
X86884194Y-85461349D01*
X86866068Y-85438479D01*
X86740893Y-85313522D01*
X86717991Y-85295435D01*
X86685491Y-85275402D01*
X86714223Y-85257622D01*
X86737093Y-85239496D01*
X86862050Y-85114321D01*
X86880137Y-85091419D01*
X86972947Y-84940854D01*
X86985280Y-84914405D01*
X87040962Y-84746528D01*
X87046713Y-84719704D01*
X87057416Y-84615243D01*
X87058072Y-84602400D01*
X87058072Y-83551600D01*
X87057399Y-83538596D01*
X87046425Y-83432830D01*
X87040622Y-83405958D01*
X86984646Y-83238178D01*
X86972266Y-83211751D01*
X86879194Y-83061349D01*
X86861068Y-83038479D01*
X86735893Y-82913522D01*
X86712991Y-82895435D01*
X86685501Y-82878490D01*
X86719223Y-82857622D01*
X86742093Y-82839496D01*
X86867050Y-82714321D01*
X86885137Y-82691419D01*
X86977947Y-82540854D01*
X86990280Y-82514405D01*
X87045962Y-82346528D01*
X87051713Y-82319704D01*
X87062416Y-82215243D01*
X87063072Y-82202400D01*
X87063072Y-81201600D01*
X87062399Y-81188596D01*
X87051425Y-81082830D01*
X87045622Y-81055958D01*
X86989646Y-80888178D01*
X86977266Y-80861751D01*
X86884194Y-80711349D01*
X86866068Y-80688479D01*
X86763410Y-80586000D01*
X89864193Y-80586000D01*
X89619815Y-80722858D01*
X89607765Y-80730535D01*
X89321989Y-80936265D01*
X89310887Y-80945255D01*
X89050236Y-81182013D01*
X89040222Y-81192203D01*
X88808049Y-81456945D01*
X88799253Y-81468204D01*
X88598543Y-81757528D01*
X88591079Y-81769709D01*
X88424410Y-82079894D01*
X88418372Y-82092842D01*
X88287889Y-82419900D01*
X88283356Y-82433448D01*
X88190736Y-82773175D01*
X88187765Y-82787149D01*
X88134198Y-83135177D01*
X88132829Y-83149398D01*
X88119005Y-83501253D01*
X88119254Y-83515538D01*
X88145350Y-83866696D01*
X88147215Y-83880860D01*
X88212895Y-84226806D01*
X88216351Y-84240668D01*
X88320771Y-84576956D01*
X88325775Y-84590338D01*
X88467592Y-84912643D01*
X88474078Y-84925373D01*
X88651470Y-85229552D01*
X88659355Y-85241465D01*
X88870041Y-85523608D01*
X88879224Y-85534552D01*
X89120495Y-85791030D01*
X89130858Y-85800864D01*
X89399612Y-86028381D01*
X89411022Y-86036979D01*
X89703805Y-86232610D01*
X89716115Y-86239861D01*
X90029161Y-86401091D01*
X90042212Y-86406902D01*
X90371498Y-86531657D01*
X90385124Y-86535953D01*
X90726415Y-86622630D01*
X90740439Y-86625356D01*
X91089349Y-86672841D01*
X91101393Y-86673895D01*
X91216134Y-86678403D01*
X91221081Y-86678500D01*
X91439198Y-86678500D01*
X91446341Y-86678297D01*
X91708703Y-86663399D01*
X91722898Y-86661782D01*
X92069938Y-86602150D01*
X92083859Y-86598936D01*
X92421918Y-86500400D01*
X92435385Y-86495631D01*
X92760116Y-86359460D01*
X92772956Y-86353198D01*
X93080185Y-86181142D01*
X93092235Y-86173465D01*
X93378011Y-85967735D01*
X93389113Y-85958745D01*
X93649764Y-85721987D01*
X93659778Y-85711797D01*
X93891951Y-85447055D01*
X93900747Y-85435796D01*
X94101457Y-85146472D01*
X94108921Y-85134291D01*
X94275590Y-84824106D01*
X94281628Y-84811158D01*
X94412111Y-84484100D01*
X94416644Y-84470552D01*
X94509264Y-84130825D01*
X94512235Y-84116851D01*
X94565802Y-83768823D01*
X94567171Y-83754602D01*
X94580995Y-83402747D01*
X94580746Y-83388462D01*
X94554650Y-83037304D01*
X94552785Y-83023140D01*
X94487105Y-82677194D01*
X94483649Y-82663332D01*
X94379229Y-82327044D01*
X94374225Y-82313662D01*
X94232408Y-81991357D01*
X94225922Y-81978627D01*
X94048530Y-81674448D01*
X94040645Y-81662535D01*
X93829959Y-81380392D01*
X93820776Y-81369448D01*
X93579505Y-81112970D01*
X93569142Y-81103136D01*
X93300388Y-80875619D01*
X93288978Y-80867021D01*
X92996195Y-80671390D01*
X92983885Y-80664139D01*
X92832169Y-80586000D01*
X95116000Y-80586000D01*
X95116000Y-101247129D01*
X94796771Y-100927900D01*
X94808665Y-100916253D01*
X94826419Y-100894484D01*
X94849905Y-100858041D01*
X94876947Y-100824166D01*
X94891917Y-100800395D01*
X94906513Y-100770201D01*
X94924676Y-100742018D01*
X94937166Y-100716858D01*
X94951993Y-100676122D01*
X94970862Y-100637089D01*
X94980191Y-100610596D01*
X94987736Y-100577918D01*
X94999204Y-100546409D01*
X95005810Y-100519106D01*
X95011243Y-100476101D01*
X95020995Y-100433861D01*
X95024224Y-100405955D01*
X95024366Y-100365367D01*
X95024500Y-100363231D01*
X95024500Y-100326867D01*
X95024857Y-100224570D01*
X95024500Y-100221283D01*
X95024500Y-95471214D01*
X95025444Y-95381099D01*
X95022605Y-95353152D01*
X95013445Y-95310787D01*
X95008612Y-95267699D01*
X95002389Y-95240308D01*
X94991358Y-95208632D01*
X94984273Y-95175862D01*
X94975314Y-95149241D01*
X94956994Y-95109954D01*
X94942736Y-95069010D01*
X94930600Y-95043679D01*
X94912828Y-95015237D01*
X94898657Y-94984848D01*
X94884021Y-94960871D01*
X94857453Y-94926620D01*
X94834481Y-94889856D01*
X94817033Y-94867841D01*
X94788431Y-94839038D01*
X94787017Y-94837435D01*
X94761338Y-94811756D01*
X94689221Y-94739134D01*
X94686644Y-94737062D01*
X93357329Y-93407747D01*
X93294252Y-93343335D01*
X93272484Y-93325582D01*
X93236050Y-93302102D01*
X93202165Y-93275052D01*
X93178395Y-93260083D01*
X93148201Y-93245487D01*
X93120018Y-93227324D01*
X93094858Y-93214834D01*
X93054122Y-93200007D01*
X93015089Y-93181138D01*
X92988595Y-93171808D01*
X92955917Y-93164264D01*
X92924410Y-93152796D01*
X92897106Y-93146190D01*
X92854091Y-93140756D01*
X92811860Y-93131006D01*
X92783955Y-93127777D01*
X92743385Y-93127635D01*
X92741231Y-93127500D01*
X92704581Y-93127500D01*
X92602570Y-93127144D01*
X92599293Y-93127500D01*
X87846343Y-93127500D01*
X87838683Y-93111074D01*
X87827701Y-93092053D01*
X87700190Y-92909948D01*
X87686072Y-92893124D01*
X87528876Y-92735928D01*
X87512052Y-92721810D01*
X87329948Y-92594299D01*
X87310927Y-92583317D01*
X87200285Y-92531724D01*
X87310676Y-92480248D01*
X87329696Y-92469266D01*
X87392875Y-92425028D01*
X87437204Y-92369571D01*
X87444513Y-92298952D01*
X87409700Y-92232720D01*
X86709095Y-91532115D01*
X86646783Y-91498089D01*
X86575968Y-91503154D01*
X86530905Y-91532115D01*
X85830300Y-92232720D01*
X85796274Y-92295032D01*
X85801339Y-92365847D01*
X85847125Y-92425028D01*
X85910304Y-92469266D01*
X85929324Y-92480248D01*
X86039715Y-92531724D01*
X85929074Y-92583317D01*
X85910053Y-92594299D01*
X85727948Y-92721810D01*
X85711124Y-92735928D01*
X85553928Y-92893124D01*
X85539810Y-92909948D01*
X85412299Y-93092053D01*
X85401317Y-93111074D01*
X85307365Y-93312554D01*
X85299853Y-93333193D01*
X85242315Y-93547926D01*
X85238501Y-93569556D01*
X85234440Y-93615978D01*
X83645747Y-95204671D01*
X83581335Y-95267748D01*
X83563582Y-95289516D01*
X83540102Y-95325950D01*
X83513052Y-95359835D01*
X83498083Y-95383605D01*
X83483487Y-95413799D01*
X83465324Y-95441982D01*
X83452834Y-95467142D01*
X83438007Y-95507878D01*
X83419138Y-95546911D01*
X83409808Y-95573405D01*
X83402264Y-95606083D01*
X83390796Y-95637590D01*
X83384190Y-95664894D01*
X83378756Y-95707909D01*
X83369006Y-95750140D01*
X83365777Y-95778045D01*
X83365635Y-95818615D01*
X83365500Y-95820769D01*
X83365500Y-95857419D01*
X83365144Y-95959430D01*
X83365500Y-95962707D01*
X83365500Y-99562786D01*
X83364556Y-99652901D01*
X83367395Y-99680848D01*
X83376555Y-99723213D01*
X83381388Y-99766301D01*
X83387611Y-99793692D01*
X83398642Y-99825368D01*
X83405727Y-99858138D01*
X83414686Y-99884759D01*
X83433006Y-99924046D01*
X83447264Y-99964990D01*
X83459400Y-99990321D01*
X83477172Y-100018763D01*
X83491343Y-100049152D01*
X83505979Y-100073129D01*
X83532547Y-100107380D01*
X83555519Y-100144144D01*
X83572967Y-100166159D01*
X83601569Y-100194962D01*
X83602983Y-100196565D01*
X83628662Y-100222244D01*
X83700779Y-100294866D01*
X83703356Y-100296938D01*
X84398500Y-100992082D01*
X84398500Y-101665400D01*
X84399173Y-101678404D01*
X84410147Y-101784170D01*
X84415950Y-101811042D01*
X84471926Y-101978822D01*
X84484306Y-102005249D01*
X84577378Y-102155651D01*
X84595504Y-102178521D01*
X84720679Y-102303478D01*
X84743581Y-102321565D01*
X84894146Y-102414375D01*
X84920595Y-102426708D01*
X85088472Y-102482390D01*
X85115296Y-102488141D01*
X85219757Y-102498844D01*
X85232600Y-102499500D01*
X86008400Y-102499500D01*
X86021404Y-102498827D01*
X86127170Y-102487853D01*
X86154042Y-102482050D01*
X86321822Y-102426074D01*
X86348249Y-102413694D01*
X86498651Y-102320622D01*
X86521521Y-102302496D01*
X86646478Y-102177321D01*
X86658316Y-102162332D01*
X86670899Y-102178208D01*
X86795991Y-102303083D01*
X86818893Y-102321170D01*
X86969359Y-102413918D01*
X86995807Y-102426251D01*
X87163573Y-102481897D01*
X87190399Y-102487648D01*
X87294795Y-102498344D01*
X87307637Y-102499000D01*
X87441500Y-102499000D01*
X87509621Y-102478998D01*
X87556114Y-102425342D01*
X87567500Y-102373000D01*
X87567500Y-99907001D01*
X87547498Y-99838880D01*
X87493842Y-99792387D01*
X87441500Y-99781001D01*
X87307638Y-99781001D01*
X87294635Y-99781674D01*
X87188934Y-99792641D01*
X87162061Y-99798444D01*
X86994392Y-99854382D01*
X86967965Y-99866762D01*
X86817662Y-99959773D01*
X86794792Y-99977899D01*
X86669917Y-100102991D01*
X86658326Y-100117667D01*
X86645496Y-100101479D01*
X86520321Y-99976522D01*
X86497419Y-99958435D01*
X86346854Y-99865625D01*
X86320405Y-99853292D01*
X86152528Y-99797610D01*
X86125704Y-99791859D01*
X86021243Y-99781156D01*
X86008400Y-99780500D01*
X85830082Y-99780500D01*
X85234500Y-99184918D01*
X85234500Y-96528711D01*
X85238501Y-96574444D01*
X85242315Y-96596074D01*
X85299853Y-96810807D01*
X85307365Y-96831446D01*
X85401317Y-97032926D01*
X85412299Y-97051947D01*
X85539810Y-97234052D01*
X85553928Y-97250876D01*
X85711124Y-97408072D01*
X85727948Y-97422190D01*
X85910052Y-97549701D01*
X85929073Y-97560683D01*
X86130554Y-97654635D01*
X86151193Y-97662147D01*
X86365926Y-97719685D01*
X86387556Y-97723499D01*
X86609019Y-97742874D01*
X86630981Y-97742874D01*
X86852444Y-97723499D01*
X86874074Y-97719685D01*
X87088807Y-97662147D01*
X87109446Y-97654635D01*
X87120500Y-97649480D01*
X87120500Y-98523233D01*
X87118360Y-98545868D01*
X87120500Y-98613945D01*
X87120500Y-98641856D01*
X87121493Y-98657646D01*
X87122000Y-98661657D01*
X87123389Y-98705848D01*
X87128330Y-98737041D01*
X87133981Y-98756492D01*
X87136520Y-98776590D01*
X87144374Y-98807181D01*
X87160652Y-98848295D01*
X87172985Y-98890745D01*
X87185529Y-98919733D01*
X87195841Y-98937169D01*
X87203296Y-98955999D01*
X87218511Y-98983677D01*
X87244499Y-99019447D01*
X87267005Y-99057502D01*
X87286363Y-99082457D01*
X87300684Y-99096778D01*
X87312592Y-99113168D01*
X87334212Y-99136192D01*
X87368289Y-99164383D01*
X87984906Y-99781000D01*
X87949500Y-99781000D01*
X87881379Y-99801002D01*
X87834886Y-99854658D01*
X87823500Y-99907000D01*
X87823500Y-102372999D01*
X87843502Y-102441120D01*
X87897158Y-102487613D01*
X87949500Y-102498999D01*
X88083362Y-102498999D01*
X88096365Y-102498326D01*
X88202066Y-102487359D01*
X88228939Y-102481556D01*
X88396608Y-102425618D01*
X88423035Y-102413238D01*
X88573338Y-102320227D01*
X88596208Y-102302101D01*
X88680500Y-102217663D01*
X88680500Y-105152233D01*
X88678360Y-105174868D01*
X88680500Y-105242945D01*
X88680500Y-105270856D01*
X88681493Y-105286646D01*
X88682000Y-105290657D01*
X88683389Y-105334848D01*
X88688330Y-105366041D01*
X88693981Y-105385492D01*
X88696520Y-105405590D01*
X88704374Y-105436181D01*
X88720652Y-105477295D01*
X88732985Y-105519745D01*
X88745529Y-105548733D01*
X88755841Y-105566169D01*
X88763296Y-105584999D01*
X88778511Y-105612677D01*
X88804499Y-105648447D01*
X88827005Y-105686502D01*
X88846363Y-105711457D01*
X88860684Y-105725778D01*
X88872592Y-105742168D01*
X88894211Y-105765191D01*
X88928287Y-105793382D01*
X89629680Y-106494775D01*
X89644174Y-106512295D01*
X89693825Y-106558920D01*
X89713562Y-106578657D01*
X89725432Y-106589122D01*
X89728623Y-106591597D01*
X89760853Y-106621863D01*
X89786403Y-106640427D01*
X89804157Y-106650188D01*
X89820162Y-106662602D01*
X89847345Y-106678678D01*
X89887924Y-106696238D01*
X89926667Y-106717537D01*
X89956032Y-106729163D01*
X89975653Y-106734201D01*
X89994242Y-106742245D01*
X90024570Y-106751057D01*
X90068238Y-106757974D01*
X90111063Y-106768969D01*
X90142397Y-106772927D01*
X90162651Y-106772927D01*
X90182659Y-106776096D01*
X90214228Y-106777088D01*
X90258246Y-106772927D01*
X91792501Y-106772927D01*
X91792501Y-106803312D01*
X91793579Y-106819756D01*
X91809240Y-106938722D01*
X91817753Y-106970495D01*
X91825452Y-106989081D01*
X91818241Y-107006489D01*
X91809728Y-107038260D01*
X91801997Y-107096980D01*
X91812936Y-107167129D01*
X91860064Y-107220228D01*
X91926919Y-107239427D01*
X91966431Y-107239427D01*
X91993051Y-107274118D01*
X92016309Y-107297376D01*
X92037226Y-107313427D01*
X92016308Y-107329478D01*
X91993051Y-107352736D01*
X91966431Y-107387427D01*
X91926920Y-107387427D01*
X91858799Y-107407429D01*
X91822698Y-107449092D01*
X91727917Y-107459054D01*
X91700483Y-107465086D01*
X91528774Y-107523540D01*
X91503357Y-107535501D01*
X91348866Y-107630545D01*
X91326730Y-107647839D01*
X91197135Y-107774748D01*
X91179382Y-107796516D01*
X91081124Y-107948983D01*
X91068634Y-107974143D01*
X91031904Y-108075057D01*
X90945799Y-108064790D01*
X90917709Y-108064594D01*
X90737317Y-108083554D01*
X90709883Y-108089586D01*
X90538174Y-108148040D01*
X90512757Y-108160001D01*
X90358266Y-108255045D01*
X90336130Y-108272339D01*
X90206535Y-108399248D01*
X90188782Y-108421016D01*
X90090524Y-108573483D01*
X90078034Y-108598643D01*
X90015996Y-108769090D01*
X90009391Y-108796393D01*
X89986657Y-108976348D01*
X89986264Y-109004435D01*
X90003964Y-109184955D01*
X90009805Y-109212432D01*
X90067060Y-109384545D01*
X90078842Y-109410044D01*
X90172804Y-109565195D01*
X90189943Y-109587451D01*
X90315945Y-109717929D01*
X90337589Y-109735834D01*
X90489366Y-109835154D01*
X90514439Y-109847819D01*
X90684448Y-109911045D01*
X90711703Y-109917841D01*
X90891496Y-109941831D01*
X90919581Y-109942419D01*
X91100220Y-109925979D01*
X91127736Y-109920331D01*
X91178051Y-109903983D01*
X91189159Y-109912599D01*
X91216344Y-109928676D01*
X91256913Y-109946232D01*
X91295667Y-109967537D01*
X91325033Y-109979164D01*
X91344653Y-109984201D01*
X91363240Y-109992245D01*
X91393570Y-110001057D01*
X91437238Y-110007974D01*
X91480063Y-110018969D01*
X91511397Y-110022927D01*
X91531651Y-110022927D01*
X91551659Y-110026096D01*
X91583228Y-110027088D01*
X91627246Y-110022927D01*
X91792501Y-110022927D01*
X91792501Y-110053312D01*
X91793579Y-110069756D01*
X91809240Y-110188722D01*
X91817753Y-110220495D01*
X91825181Y-110238427D01*
X91817753Y-110256359D01*
X91809240Y-110288131D01*
X91793578Y-110407096D01*
X91792500Y-110423542D01*
X91792501Y-110703311D01*
X91793579Y-110719756D01*
X91809240Y-110838722D01*
X91817753Y-110870495D01*
X91879067Y-111018521D01*
X91895514Y-111047008D01*
X91993051Y-111174119D01*
X92016309Y-111197376D01*
X92143421Y-111294913D01*
X92171907Y-111311360D01*
X92319932Y-111372674D01*
X92351704Y-111381187D01*
X92470669Y-111396849D01*
X92487115Y-111397927D01*
X93403914Y-111397926D01*
X93084340Y-111717500D01*
X84958922Y-111717500D01*
X84901218Y-111713566D01*
X84870985Y-111715150D01*
X84808028Y-111726138D01*
X84744621Y-111733811D01*
X84715220Y-111741032D01*
X84708811Y-111743454D01*
X84702054Y-111744633D01*
X84673072Y-111753383D01*
X84614560Y-111779067D01*
X84554806Y-111801647D01*
X84527976Y-111815674D01*
X84522329Y-111819555D01*
X84516051Y-111822311D01*
X84489990Y-111837723D01*
X84439303Y-111876618D01*
X84386653Y-111912802D01*
X84363943Y-111932824D01*
X84322489Y-111979351D01*
X83684340Y-112617500D01*
X82831866Y-112617500D01*
X82818258Y-112618237D01*
X82756076Y-112624992D01*
X82725454Y-112632273D01*
X82589065Y-112683403D01*
X82557730Y-112700559D01*
X82441174Y-112787913D01*
X82415913Y-112813174D01*
X82414500Y-112815059D01*
X82414500Y-112691594D01*
X82820588Y-112285506D01*
X82894166Y-112333654D01*
X82919239Y-112346319D01*
X83089248Y-112409545D01*
X83116503Y-112416341D01*
X83296296Y-112440331D01*
X83324381Y-112440919D01*
X83505020Y-112424479D01*
X83532536Y-112418831D01*
X83705044Y-112362780D01*
X83730625Y-112351176D01*
X83886429Y-112258298D01*
X83908804Y-112241315D01*
X84040158Y-112116228D01*
X84058214Y-112094709D01*
X84158591Y-111943629D01*
X84171431Y-111918646D01*
X84235843Y-111749082D01*
X84242829Y-111721874D01*
X84268073Y-111542253D01*
X84269287Y-111526475D01*
X84269604Y-111503758D01*
X84268831Y-111487955D01*
X84248612Y-111307700D01*
X84242388Y-111280308D01*
X84182736Y-111109011D01*
X84170599Y-111083679D01*
X84074480Y-110929855D01*
X84057032Y-110907840D01*
X83929221Y-110779134D01*
X83907329Y-110761533D01*
X83754180Y-110664342D01*
X83728933Y-110652028D01*
X83558057Y-110591182D01*
X83530709Y-110584767D01*
X83350599Y-110563290D01*
X83322509Y-110563094D01*
X83142117Y-110582054D01*
X83114683Y-110588086D01*
X82942974Y-110646540D01*
X82917557Y-110658501D01*
X82781019Y-110742500D01*
X82608767Y-110742500D01*
X82586132Y-110740360D01*
X82518055Y-110742500D01*
X82490144Y-110742500D01*
X82474354Y-110743493D01*
X82470343Y-110744000D01*
X82426151Y-110745389D01*
X82394959Y-110750330D01*
X82375509Y-110755980D01*
X82355409Y-110758520D01*
X82324820Y-110766374D01*
X82283715Y-110782648D01*
X82241253Y-110794985D01*
X82212268Y-110807528D01*
X82194832Y-110817839D01*
X82175999Y-110825296D01*
X82148323Y-110840512D01*
X82112566Y-110866490D01*
X82074498Y-110889004D01*
X82049542Y-110908363D01*
X82035218Y-110922687D01*
X82018832Y-110934592D01*
X81995808Y-110956213D01*
X81967627Y-110990278D01*
X81290405Y-111667500D01*
X79831866Y-111667500D01*
X79818258Y-111668237D01*
X79756076Y-111674992D01*
X79725454Y-111682273D01*
X79589065Y-111733403D01*
X79557730Y-111750559D01*
X79441174Y-111837913D01*
X79415913Y-111863174D01*
X79328559Y-111979730D01*
X79311403Y-112011065D01*
X79260273Y-112147454D01*
X79252992Y-112178076D01*
X79246237Y-112240258D01*
X79245500Y-112253866D01*
X79245500Y-113150134D01*
X79246237Y-113163742D01*
X79252992Y-113225924D01*
X79260273Y-113256546D01*
X79311403Y-113392935D01*
X79328559Y-113424270D01*
X79415913Y-113540826D01*
X79441174Y-113566087D01*
X79556224Y-113652313D01*
X79441531Y-113738270D01*
X79416270Y-113763531D01*
X79329002Y-113879973D01*
X79311846Y-113911308D01*
X79260766Y-114047563D01*
X79253485Y-114078185D01*
X79246737Y-114140303D01*
X79246000Y-114153911D01*
X79246000Y-114348000D01*
X79266002Y-114416121D01*
X79319658Y-114462614D01*
X79372000Y-114474000D01*
X82287999Y-114474000D01*
X82356120Y-114453998D01*
X82373382Y-114434077D01*
X82415913Y-114490826D01*
X82441174Y-114516087D01*
X82557730Y-114603441D01*
X82589065Y-114620597D01*
X82720500Y-114669870D01*
X82720500Y-115922803D01*
X82666177Y-115940927D01*
X82639751Y-115953306D01*
X82489349Y-116046378D01*
X82466479Y-116064504D01*
X82341522Y-116189679D01*
X82329684Y-116204668D01*
X82317101Y-116188792D01*
X82192009Y-116063917D01*
X82169107Y-116045830D01*
X82018641Y-115953082D01*
X81992193Y-115940749D01*
X81824427Y-115885103D01*
X81797601Y-115879352D01*
X81693205Y-115868656D01*
X81680363Y-115868000D01*
X81546500Y-115868000D01*
X81478379Y-115888002D01*
X81431886Y-115941658D01*
X81420500Y-115994000D01*
X81420500Y-118459999D01*
X81440502Y-118528120D01*
X81494158Y-118574613D01*
X81546500Y-118585999D01*
X81680362Y-118585999D01*
X81693365Y-118585326D01*
X81799066Y-118574359D01*
X81825939Y-118568556D01*
X81993608Y-118512618D01*
X82020035Y-118500238D01*
X82170338Y-118407227D01*
X82193208Y-118389101D01*
X82318083Y-118264009D01*
X82329674Y-118249333D01*
X82342504Y-118265521D01*
X82467679Y-118390478D01*
X82490581Y-118408565D01*
X82641146Y-118501375D01*
X82667595Y-118513708D01*
X82835472Y-118569390D01*
X82862296Y-118575141D01*
X82966757Y-118585844D01*
X82979600Y-118586500D01*
X83755400Y-118586500D01*
X83768404Y-118585827D01*
X83874170Y-118574853D01*
X83901042Y-118569050D01*
X84068822Y-118513074D01*
X84095249Y-118500694D01*
X84245651Y-118407622D01*
X84268521Y-118389496D01*
X84393478Y-118264321D01*
X84411565Y-118241419D01*
X84504375Y-118090854D01*
X84516708Y-118064405D01*
X84572390Y-117896528D01*
X84578141Y-117869704D01*
X84588844Y-117765243D01*
X84589500Y-117752400D01*
X84589500Y-116701600D01*
X84588827Y-116688596D01*
X84577853Y-116582830D01*
X84572050Y-116555958D01*
X84516074Y-116388178D01*
X84503694Y-116361751D01*
X84410622Y-116211349D01*
X84392495Y-116188479D01*
X84389500Y-116185489D01*
X84389500Y-114686500D01*
X84828134Y-114686500D01*
X84841742Y-114685763D01*
X84903924Y-114679008D01*
X84934546Y-114671727D01*
X85070935Y-114620597D01*
X85102270Y-114603441D01*
X85218826Y-114516087D01*
X85244087Y-114490826D01*
X85331441Y-114374270D01*
X85348597Y-114342935D01*
X85399727Y-114206546D01*
X85407008Y-114175924D01*
X85413763Y-114113742D01*
X85414500Y-114100134D01*
X85414500Y-113386500D01*
X90336749Y-113386500D01*
X90278082Y-113403600D01*
X90264615Y-113408369D01*
X89939884Y-113544540D01*
X89927044Y-113550802D01*
X89619815Y-113722858D01*
X89607765Y-113730535D01*
X89321989Y-113936265D01*
X89310887Y-113945255D01*
X89050236Y-114182013D01*
X89040222Y-114192203D01*
X88808049Y-114456945D01*
X88799253Y-114468204D01*
X88598543Y-114757528D01*
X88591079Y-114769709D01*
X88424410Y-115079894D01*
X88418372Y-115092842D01*
X88287889Y-115419900D01*
X88283356Y-115433448D01*
X88190736Y-115773175D01*
X88187765Y-115787149D01*
X88134198Y-116135177D01*
X88132829Y-116149398D01*
X88119005Y-116501253D01*
X88119254Y-116515538D01*
X88145350Y-116866696D01*
X88147215Y-116880860D01*
X88212895Y-117226806D01*
X88216351Y-117240668D01*
X88320771Y-117576956D01*
X88325775Y-117590338D01*
X88467592Y-117912643D01*
X88474078Y-117925373D01*
X88651470Y-118229552D01*
X88659355Y-118241465D01*
X88870041Y-118523608D01*
X88879224Y-118534552D01*
X89120495Y-118791030D01*
X89130858Y-118800864D01*
X89399612Y-119028381D01*
X89411022Y-119036979D01*
X89703805Y-119232610D01*
X89716115Y-119239861D01*
X89867831Y-119318000D01*
X78384000Y-119318000D01*
X78384000Y-117752362D01*
X80071001Y-117752362D01*
X80071674Y-117765365D01*
X80082641Y-117871066D01*
X80088444Y-117897939D01*
X80144382Y-118065608D01*
X80156762Y-118092035D01*
X80249773Y-118242338D01*
X80267899Y-118265208D01*
X80392991Y-118390083D01*
X80415893Y-118408170D01*
X80566359Y-118500918D01*
X80592807Y-118513251D01*
X80760573Y-118568897D01*
X80787399Y-118574648D01*
X80891795Y-118585344D01*
X80904637Y-118586000D01*
X81038500Y-118586000D01*
X81106621Y-118565998D01*
X81153114Y-118512342D01*
X81164500Y-118460000D01*
X81164500Y-117481000D01*
X81144498Y-117412879D01*
X81090842Y-117366386D01*
X81038500Y-117355000D01*
X80197001Y-117355000D01*
X80128880Y-117375002D01*
X80082387Y-117428658D01*
X80071001Y-117481000D01*
X80071001Y-117752362D01*
X78384000Y-117752362D01*
X78384000Y-116973000D01*
X80071000Y-116973000D01*
X80091002Y-117041121D01*
X80144658Y-117087614D01*
X80197000Y-117099000D01*
X81038500Y-117099000D01*
X81106621Y-117078998D01*
X81153114Y-117025342D01*
X81164500Y-116973000D01*
X81164500Y-115994001D01*
X81144498Y-115925880D01*
X81090842Y-115879387D01*
X81038500Y-115868001D01*
X80904638Y-115868001D01*
X80891635Y-115868674D01*
X80785934Y-115879641D01*
X80759061Y-115885444D01*
X80591392Y-115941382D01*
X80564965Y-115953762D01*
X80414662Y-116046773D01*
X80391792Y-116064899D01*
X80266917Y-116189991D01*
X80248830Y-116212893D01*
X80156082Y-116363359D01*
X80143749Y-116389807D01*
X80088103Y-116557573D01*
X80082352Y-116584399D01*
X80071656Y-116688795D01*
X80071000Y-116701637D01*
X80071000Y-116973000D01*
X78384000Y-116973000D01*
X78384000Y-115050088D01*
X79246001Y-115050088D01*
X79246738Y-115063693D01*
X79253485Y-115125812D01*
X79260766Y-115156437D01*
X79311846Y-115292692D01*
X79329002Y-115324027D01*
X79416270Y-115440469D01*
X79441531Y-115465730D01*
X79557973Y-115552998D01*
X79589308Y-115570154D01*
X79725563Y-115621234D01*
X79756185Y-115628515D01*
X79818303Y-115635263D01*
X79831911Y-115636000D01*
X80576000Y-115636000D01*
X80644121Y-115615998D01*
X80690614Y-115562342D01*
X80702000Y-115510000D01*
X80702000Y-115509999D01*
X80958000Y-115509999D01*
X80978002Y-115578120D01*
X81031658Y-115624613D01*
X81084000Y-115635999D01*
X81828088Y-115635999D01*
X81841693Y-115635262D01*
X81903812Y-115628515D01*
X81934437Y-115621234D01*
X82070692Y-115570154D01*
X82102027Y-115552998D01*
X82218469Y-115465730D01*
X82243730Y-115440469D01*
X82330998Y-115324027D01*
X82348154Y-115292692D01*
X82399234Y-115156437D01*
X82406515Y-115125815D01*
X82413263Y-115063697D01*
X82414000Y-115050089D01*
X82414000Y-114856000D01*
X82393998Y-114787879D01*
X82340342Y-114741386D01*
X82288000Y-114730000D01*
X81084000Y-114730000D01*
X81015879Y-114750002D01*
X80969386Y-114803658D01*
X80958000Y-114856000D01*
X80958000Y-115509999D01*
X80702000Y-115509999D01*
X80702000Y-114856000D01*
X80681998Y-114787879D01*
X80628342Y-114741386D01*
X80576000Y-114730000D01*
X79372001Y-114730000D01*
X79303880Y-114750002D01*
X79257387Y-114803658D01*
X79246001Y-114856000D01*
X79246001Y-115050088D01*
X78384000Y-115050088D01*
X78384000Y-108523430D01*
X79516922Y-108523430D01*
X79526702Y-108734725D01*
X79530074Y-108758420D01*
X79579632Y-108964055D01*
X79587424Y-108986685D01*
X79674973Y-109179238D01*
X79686904Y-109199987D01*
X79809284Y-109372511D01*
X79824923Y-109390629D01*
X79977719Y-109536899D01*
X79996502Y-109551733D01*
X80174200Y-109666472D01*
X80195450Y-109677486D01*
X80391639Y-109756552D01*
X80414587Y-109763350D01*
X80622187Y-109803892D01*
X80640183Y-109806078D01*
X80645745Y-109806350D01*
X80651899Y-109806500D01*
X81357846Y-109806500D01*
X81369813Y-109805930D01*
X81527533Y-109790882D01*
X81551035Y-109786357D01*
X81754003Y-109726813D01*
X81776226Y-109717924D01*
X81964272Y-109621074D01*
X81984413Y-109608144D01*
X82150753Y-109477482D01*
X82168085Y-109460976D01*
X82280439Y-109331500D01*
X82323017Y-109331500D01*
X82345652Y-109333640D01*
X82413729Y-109331500D01*
X82441640Y-109331500D01*
X82457430Y-109330507D01*
X82461441Y-109330000D01*
X82505632Y-109328611D01*
X82536825Y-109323670D01*
X82556276Y-109318019D01*
X82576374Y-109315480D01*
X82606965Y-109307626D01*
X82648079Y-109291348D01*
X82690529Y-109279015D01*
X82719517Y-109266471D01*
X82736953Y-109256159D01*
X82755783Y-109248704D01*
X82783461Y-109233489D01*
X82819231Y-109207501D01*
X82857286Y-109184995D01*
X82882241Y-109165637D01*
X82896562Y-109151316D01*
X82912952Y-109139408D01*
X82935976Y-109117788D01*
X82964167Y-109083711D01*
X83974952Y-108072927D01*
X84367501Y-108072927D01*
X84367501Y-108103312D01*
X84368579Y-108119756D01*
X84384240Y-108238722D01*
X84392753Y-108270495D01*
X84400181Y-108288427D01*
X84392753Y-108306359D01*
X84384240Y-108338131D01*
X84368578Y-108457096D01*
X84367500Y-108473542D01*
X84367501Y-108753311D01*
X84368579Y-108769756D01*
X84384240Y-108888722D01*
X84392753Y-108920495D01*
X84400181Y-108938427D01*
X84392753Y-108956359D01*
X84384240Y-108988131D01*
X84368578Y-109107096D01*
X84367500Y-109123542D01*
X84367501Y-109403311D01*
X84368579Y-109419756D01*
X84384240Y-109538722D01*
X84392753Y-109570495D01*
X84400181Y-109588427D01*
X84392753Y-109606359D01*
X84384240Y-109638131D01*
X84368578Y-109757096D01*
X84367500Y-109773542D01*
X84367501Y-110053311D01*
X84368579Y-110069756D01*
X84384240Y-110188722D01*
X84392753Y-110220495D01*
X84400452Y-110239081D01*
X84393241Y-110256489D01*
X84384728Y-110288260D01*
X84376997Y-110346980D01*
X84387936Y-110417129D01*
X84435064Y-110470228D01*
X84501919Y-110489427D01*
X84541431Y-110489427D01*
X84568051Y-110524118D01*
X84591309Y-110547376D01*
X84708665Y-110637427D01*
X84501920Y-110637427D01*
X84433799Y-110657429D01*
X84387306Y-110711085D01*
X84376998Y-110779872D01*
X84384728Y-110838592D01*
X84393241Y-110870365D01*
X84454504Y-111018268D01*
X84470951Y-111046754D01*
X84568408Y-111173761D01*
X84591666Y-111197019D01*
X84718673Y-111294476D01*
X84747159Y-111310923D01*
X84895062Y-111372186D01*
X84926834Y-111380699D01*
X85045707Y-111396349D01*
X85062153Y-111397427D01*
X85539500Y-111397427D01*
X85607621Y-111377425D01*
X85654114Y-111323769D01*
X85665500Y-111271427D01*
X85665500Y-110763427D01*
X85660949Y-110747926D01*
X85813500Y-110747926D01*
X85813500Y-111271426D01*
X85833502Y-111339547D01*
X85887158Y-111386040D01*
X85939500Y-111397426D01*
X86416846Y-111397426D01*
X86433291Y-111396348D01*
X86552165Y-111380699D01*
X86583938Y-111372186D01*
X86731841Y-111310923D01*
X86760327Y-111294476D01*
X86887334Y-111197019D01*
X86910592Y-111173761D01*
X87008049Y-111046754D01*
X87024496Y-111018268D01*
X87085759Y-110870365D01*
X87094272Y-110838593D01*
X87109922Y-110719720D01*
X87111000Y-110703273D01*
X87111000Y-110672927D01*
X87559406Y-110672927D01*
X87582041Y-110675067D01*
X87650118Y-110672927D01*
X87678029Y-110672927D01*
X87693819Y-110671934D01*
X87697830Y-110671427D01*
X87742021Y-110670038D01*
X87773214Y-110665097D01*
X87792665Y-110659446D01*
X87812763Y-110656907D01*
X87843354Y-110649053D01*
X87884468Y-110632775D01*
X87926918Y-110620442D01*
X87955906Y-110607898D01*
X87960409Y-110605235D01*
X88052220Y-110596879D01*
X88079736Y-110591231D01*
X88252244Y-110535180D01*
X88277825Y-110523576D01*
X88433629Y-110430698D01*
X88456004Y-110413715D01*
X88587358Y-110288628D01*
X88605414Y-110267109D01*
X88705791Y-110116029D01*
X88718631Y-110091046D01*
X88783043Y-109921482D01*
X88790029Y-109894274D01*
X88815273Y-109714653D01*
X88816487Y-109698875D01*
X88816804Y-109676158D01*
X88816031Y-109660355D01*
X88795812Y-109480100D01*
X88789588Y-109452708D01*
X88729936Y-109281411D01*
X88717799Y-109256078D01*
X88695786Y-109220850D01*
X88714030Y-109193390D01*
X88726870Y-109168407D01*
X88791282Y-108998843D01*
X88798268Y-108971635D01*
X88823512Y-108792014D01*
X88824726Y-108776236D01*
X88825043Y-108753519D01*
X88824270Y-108737716D01*
X88804051Y-108557461D01*
X88797827Y-108530069D01*
X88738175Y-108358772D01*
X88726038Y-108333440D01*
X88668628Y-108241564D01*
X88705791Y-108185629D01*
X88718631Y-108160646D01*
X88783043Y-107991082D01*
X88790029Y-107963874D01*
X88815273Y-107784253D01*
X88816487Y-107768475D01*
X88816804Y-107745758D01*
X88816031Y-107729955D01*
X88795812Y-107549700D01*
X88789588Y-107522308D01*
X88729936Y-107351011D01*
X88717799Y-107325679D01*
X88700639Y-107298216D01*
X88718569Y-107271229D01*
X88731409Y-107246246D01*
X88795821Y-107076682D01*
X88802807Y-107049474D01*
X88828051Y-106869853D01*
X88829265Y-106854075D01*
X88829582Y-106831358D01*
X88828809Y-106815555D01*
X88808590Y-106635300D01*
X88802366Y-106607908D01*
X88742714Y-106436611D01*
X88730577Y-106411279D01*
X88634458Y-106257455D01*
X88617010Y-106235440D01*
X88489199Y-106106734D01*
X88467307Y-106089133D01*
X88314158Y-105991942D01*
X88288911Y-105979628D01*
X88118035Y-105918782D01*
X88090687Y-105912367D01*
X87910577Y-105890890D01*
X87882487Y-105890694D01*
X87702095Y-105909654D01*
X87674661Y-105915686D01*
X87502952Y-105974140D01*
X87477535Y-105986101D01*
X87323044Y-106081145D01*
X87300908Y-106098439D01*
X87171313Y-106225348D01*
X87153560Y-106247116D01*
X87085038Y-106353441D01*
X87078819Y-106338427D01*
X87086247Y-106320495D01*
X87094760Y-106288723D01*
X87110422Y-106169758D01*
X87111500Y-106153312D01*
X87111499Y-105873543D01*
X87110421Y-105857098D01*
X87094760Y-105738132D01*
X87086247Y-105706359D01*
X87078819Y-105688427D01*
X87086247Y-105670495D01*
X87094760Y-105638723D01*
X87110422Y-105519758D01*
X87111500Y-105503312D01*
X87111499Y-105223543D01*
X87110421Y-105207098D01*
X87094760Y-105088132D01*
X87086247Y-105056359D01*
X87078819Y-105038427D01*
X87086247Y-105020495D01*
X87094760Y-104988723D01*
X87110422Y-104869758D01*
X87111500Y-104853312D01*
X87111499Y-104573543D01*
X87110421Y-104557098D01*
X87094760Y-104438132D01*
X87086247Y-104406359D01*
X87078548Y-104387773D01*
X87085759Y-104370365D01*
X87094272Y-104338594D01*
X87102003Y-104279874D01*
X87091064Y-104209725D01*
X87043936Y-104156626D01*
X86977081Y-104137427D01*
X86937569Y-104137427D01*
X86910949Y-104102736D01*
X86887691Y-104079478D01*
X86770335Y-103989427D01*
X86977080Y-103989427D01*
X87045201Y-103969425D01*
X87091694Y-103915769D01*
X87102002Y-103846982D01*
X87094272Y-103788262D01*
X87085759Y-103756489D01*
X87078277Y-103738427D01*
X87085759Y-103720365D01*
X87094272Y-103688594D01*
X87102003Y-103629874D01*
X87091064Y-103559725D01*
X87043936Y-103506626D01*
X86977081Y-103487427D01*
X85939500Y-103487427D01*
X85871379Y-103507429D01*
X85824886Y-103561085D01*
X85813500Y-103613427D01*
X85813500Y-103863427D01*
X85818051Y-103878928D01*
X85665500Y-103878928D01*
X85665500Y-103613427D01*
X85645498Y-103545306D01*
X85591842Y-103498813D01*
X85539500Y-103487427D01*
X84550859Y-103487427D01*
X84404180Y-103394342D01*
X84378933Y-103382028D01*
X84208057Y-103321182D01*
X84180709Y-103314767D01*
X84000599Y-103293290D01*
X83972509Y-103293094D01*
X83929500Y-103297614D01*
X83929500Y-103196980D01*
X84376997Y-103196980D01*
X84387936Y-103267129D01*
X84435064Y-103320228D01*
X84501919Y-103339427D01*
X85539500Y-103339427D01*
X85607621Y-103319425D01*
X85654114Y-103265769D01*
X85665500Y-103213427D01*
X85813500Y-103213427D01*
X85833502Y-103281548D01*
X85887158Y-103328041D01*
X85939500Y-103339427D01*
X86977080Y-103339427D01*
X87045201Y-103319425D01*
X87091694Y-103265769D01*
X87102002Y-103196982D01*
X87094272Y-103138262D01*
X87085759Y-103106489D01*
X87024496Y-102958586D01*
X87008049Y-102930100D01*
X86910592Y-102803093D01*
X86887334Y-102779835D01*
X86760327Y-102682378D01*
X86731841Y-102665931D01*
X86583938Y-102604668D01*
X86552166Y-102596155D01*
X86433293Y-102580505D01*
X86416847Y-102579427D01*
X85939500Y-102579427D01*
X85871379Y-102599429D01*
X85824886Y-102653085D01*
X85813500Y-102705427D01*
X85813500Y-103213427D01*
X85665500Y-103213427D01*
X85665500Y-102705428D01*
X85645498Y-102637307D01*
X85591842Y-102590814D01*
X85539500Y-102579428D01*
X85062154Y-102579428D01*
X85045709Y-102580506D01*
X84926835Y-102596155D01*
X84895062Y-102604668D01*
X84747159Y-102665931D01*
X84718673Y-102682378D01*
X84591666Y-102779835D01*
X84568408Y-102803093D01*
X84470951Y-102930100D01*
X84454504Y-102958586D01*
X84393241Y-103106489D01*
X84384728Y-103138260D01*
X84376997Y-103196980D01*
X83929500Y-103196980D01*
X83929500Y-101320767D01*
X83931640Y-101298133D01*
X83929500Y-101230043D01*
X83929500Y-101202144D01*
X83928507Y-101186356D01*
X83928001Y-101182353D01*
X83926612Y-101138152D01*
X83921671Y-101106957D01*
X83916019Y-101087504D01*
X83913481Y-101067412D01*
X83905626Y-101036820D01*
X83889350Y-100995710D01*
X83877014Y-100953252D01*
X83864471Y-100924267D01*
X83854159Y-100906831D01*
X83846704Y-100888001D01*
X83831489Y-100860323D01*
X83805501Y-100824553D01*
X83782995Y-100786498D01*
X83763637Y-100761543D01*
X83749316Y-100747222D01*
X83737408Y-100730832D01*
X83715787Y-100707808D01*
X83681722Y-100679627D01*
X83259300Y-100257204D01*
X83259300Y-97570568D01*
X83261440Y-97547934D01*
X83259300Y-97479844D01*
X83259300Y-97451944D01*
X83258307Y-97436156D01*
X83257801Y-97432153D01*
X83256412Y-97387952D01*
X83251471Y-97356758D01*
X83245818Y-97337300D01*
X83243280Y-97317211D01*
X83235426Y-97286619D01*
X83219152Y-97245515D01*
X83206816Y-97203055D01*
X83194274Y-97174070D01*
X83183959Y-97156628D01*
X83176503Y-97137797D01*
X83161288Y-97110122D01*
X83135300Y-97074352D01*
X83112795Y-97036299D01*
X83093437Y-97011343D01*
X83079116Y-96997022D01*
X83067208Y-96980632D01*
X83045589Y-96957609D01*
X83011513Y-96929418D01*
X82535333Y-96453238D01*
X82533298Y-96409275D01*
X82529926Y-96385580D01*
X82480368Y-96179945D01*
X82472576Y-96157315D01*
X82385027Y-95964762D01*
X82373096Y-95944013D01*
X82250716Y-95771489D01*
X82235077Y-95753371D01*
X82082281Y-95607101D01*
X82063498Y-95592267D01*
X82030742Y-95571116D01*
X82150407Y-95477118D01*
X82167739Y-95460613D01*
X82306308Y-95300927D01*
X82320207Y-95281441D01*
X82426080Y-95098432D01*
X82436044Y-95076670D01*
X82505401Y-94876943D01*
X82511070Y-94853685D01*
X82512463Y-94844075D01*
X82502440Y-94773790D01*
X82456009Y-94720081D01*
X82387766Y-94700000D01*
X79676483Y-94700000D01*
X79608362Y-94720002D01*
X79561869Y-94773658D01*
X79551765Y-94843932D01*
X79553990Y-94855521D01*
X79580107Y-94963891D01*
X79587899Y-94986521D01*
X79675408Y-95178988D01*
X79687339Y-95199737D01*
X79809664Y-95372183D01*
X79825303Y-95390301D01*
X79978030Y-95536505D01*
X79996813Y-95551339D01*
X80029230Y-95572270D01*
X79909247Y-95666518D01*
X79891915Y-95683024D01*
X79753283Y-95842783D01*
X79739384Y-95862268D01*
X79633463Y-96045359D01*
X79623499Y-96067121D01*
X79554111Y-96266938D01*
X79548443Y-96290191D01*
X79518091Y-96499524D01*
X79516922Y-96523430D01*
X79526702Y-96734725D01*
X79530074Y-96758420D01*
X79579632Y-96964055D01*
X79587424Y-96986685D01*
X79674973Y-97179238D01*
X79686904Y-97199987D01*
X79809284Y-97372511D01*
X79824923Y-97390629D01*
X79977719Y-97536899D01*
X79996502Y-97551733D01*
X80029258Y-97572884D01*
X79909593Y-97666882D01*
X79892261Y-97683387D01*
X79753692Y-97843073D01*
X79739793Y-97862559D01*
X79633920Y-98045568D01*
X79623956Y-98067330D01*
X79554599Y-98267057D01*
X79548930Y-98290315D01*
X79547537Y-98299925D01*
X79557560Y-98370210D01*
X79603991Y-98423919D01*
X79672234Y-98444000D01*
X81158000Y-98444000D01*
X81158000Y-98700000D01*
X79676483Y-98700000D01*
X79608362Y-98720002D01*
X79561869Y-98773658D01*
X79551765Y-98843932D01*
X79553990Y-98855521D01*
X79580107Y-98963891D01*
X79587899Y-98986521D01*
X79675408Y-99178988D01*
X79687339Y-99199737D01*
X79809664Y-99372183D01*
X79825303Y-99390301D01*
X79978030Y-99536505D01*
X79996813Y-99551339D01*
X80029230Y-99572270D01*
X79909247Y-99666518D01*
X79891915Y-99683024D01*
X79753283Y-99842783D01*
X79739384Y-99862268D01*
X79633463Y-100045359D01*
X79623499Y-100067121D01*
X79554111Y-100266938D01*
X79548443Y-100290191D01*
X79518091Y-100499524D01*
X79516922Y-100523430D01*
X79526702Y-100734725D01*
X79530074Y-100758420D01*
X79579632Y-100964055D01*
X79587424Y-100986685D01*
X79674973Y-101179238D01*
X79686904Y-101199987D01*
X79809284Y-101372511D01*
X79824923Y-101390629D01*
X79977719Y-101536899D01*
X79996502Y-101551733D01*
X80029258Y-101572884D01*
X79909593Y-101666882D01*
X79892261Y-101683387D01*
X79753692Y-101843073D01*
X79739793Y-101862559D01*
X79633920Y-102045568D01*
X79623956Y-102067330D01*
X79554599Y-102267057D01*
X79548930Y-102290315D01*
X79547537Y-102299925D01*
X79557560Y-102370210D01*
X79603991Y-102423919D01*
X79672234Y-102444000D01*
X81158000Y-102444000D01*
X81158000Y-102700000D01*
X79676483Y-102700000D01*
X79608362Y-102720002D01*
X79561869Y-102773658D01*
X79551765Y-102843932D01*
X79553990Y-102855521D01*
X79580107Y-102963891D01*
X79587899Y-102986521D01*
X79675408Y-103178988D01*
X79687339Y-103199737D01*
X79809664Y-103372183D01*
X79825303Y-103390301D01*
X79978030Y-103536505D01*
X79996813Y-103551339D01*
X80029230Y-103572270D01*
X79909247Y-103666518D01*
X79891915Y-103683024D01*
X79753283Y-103842783D01*
X79739384Y-103862268D01*
X79633463Y-104045359D01*
X79623499Y-104067121D01*
X79554111Y-104266938D01*
X79548443Y-104290191D01*
X79518091Y-104499524D01*
X79516922Y-104523430D01*
X79526702Y-104734725D01*
X79530074Y-104758420D01*
X79579632Y-104964055D01*
X79587424Y-104986685D01*
X79674973Y-105179238D01*
X79686904Y-105199987D01*
X79809284Y-105372511D01*
X79824923Y-105390629D01*
X79977719Y-105536899D01*
X79996502Y-105551733D01*
X80029258Y-105572884D01*
X79909593Y-105666882D01*
X79892261Y-105683387D01*
X79753692Y-105843073D01*
X79739793Y-105862559D01*
X79633920Y-106045568D01*
X79623956Y-106067330D01*
X79554599Y-106267057D01*
X79548930Y-106290315D01*
X79547537Y-106299925D01*
X79557560Y-106370210D01*
X79603991Y-106423919D01*
X79672234Y-106444000D01*
X81158000Y-106444000D01*
X81158000Y-106700000D01*
X79676483Y-106700000D01*
X79608362Y-106720002D01*
X79561869Y-106773658D01*
X79551765Y-106843932D01*
X79553990Y-106855521D01*
X79580107Y-106963891D01*
X79587899Y-106986521D01*
X79675408Y-107178988D01*
X79687339Y-107199737D01*
X79809664Y-107372183D01*
X79825303Y-107390301D01*
X79978030Y-107536505D01*
X79996813Y-107551339D01*
X80029230Y-107572270D01*
X79909247Y-107666518D01*
X79891915Y-107683024D01*
X79753283Y-107842783D01*
X79739384Y-107862268D01*
X79633463Y-108045359D01*
X79623499Y-108067121D01*
X79554111Y-108266938D01*
X79548443Y-108290191D01*
X79518091Y-108499524D01*
X79516922Y-108523430D01*
X78384000Y-108523430D01*
X78384000Y-92523430D01*
X79516922Y-92523430D01*
X79526702Y-92734725D01*
X79530074Y-92758420D01*
X79579632Y-92964055D01*
X79587424Y-92986685D01*
X79674973Y-93179238D01*
X79686904Y-93199987D01*
X79809284Y-93372511D01*
X79824923Y-93390629D01*
X79977719Y-93536899D01*
X79996502Y-93551733D01*
X80029258Y-93572884D01*
X79909593Y-93666882D01*
X79892261Y-93683387D01*
X79753692Y-93843073D01*
X79739793Y-93862559D01*
X79633920Y-94045568D01*
X79623956Y-94067330D01*
X79554599Y-94267057D01*
X79548930Y-94290315D01*
X79547537Y-94299925D01*
X79557560Y-94370210D01*
X79603991Y-94423919D01*
X79672234Y-94444000D01*
X82383517Y-94444000D01*
X82451638Y-94423998D01*
X82498131Y-94370342D01*
X82508235Y-94300068D01*
X82506010Y-94288479D01*
X82479893Y-94180109D01*
X82472101Y-94157479D01*
X82384592Y-93965012D01*
X82372661Y-93944263D01*
X82250336Y-93771817D01*
X82234697Y-93753699D01*
X82081970Y-93607495D01*
X82063187Y-93592661D01*
X82030770Y-93571730D01*
X82150753Y-93477482D01*
X82168085Y-93460976D01*
X82306717Y-93301217D01*
X82320616Y-93281732D01*
X82426537Y-93098641D01*
X82436501Y-93076879D01*
X82505889Y-92877062D01*
X82511557Y-92853809D01*
X82541909Y-92644476D01*
X82543078Y-92620570D01*
X82533298Y-92409275D01*
X82529926Y-92385580D01*
X82480368Y-92179945D01*
X82472576Y-92157315D01*
X82385027Y-91964762D01*
X82373096Y-91944013D01*
X82250716Y-91771489D01*
X82235077Y-91753371D01*
X82139813Y-91662176D01*
X82195651Y-91627622D01*
X82218521Y-91609496D01*
X82343478Y-91484321D01*
X82361565Y-91461419D01*
X82454375Y-91310854D01*
X82466708Y-91284405D01*
X82470497Y-91272982D01*
X85219628Y-91272982D01*
X85238996Y-91494358D01*
X85242810Y-91515987D01*
X85300325Y-91730636D01*
X85307837Y-91751275D01*
X85401752Y-91952675D01*
X85412733Y-91971694D01*
X85456971Y-92034874D01*
X85512428Y-92079204D01*
X85583047Y-92086514D01*
X85649280Y-92051700D01*
X86349885Y-91351095D01*
X86383911Y-91288783D01*
X86380080Y-91235217D01*
X86856089Y-91235217D01*
X86861154Y-91306032D01*
X86890115Y-91351095D01*
X87590720Y-92051700D01*
X87653032Y-92085726D01*
X87723847Y-92080661D01*
X87783029Y-92034874D01*
X87827267Y-91971694D01*
X87838248Y-91952675D01*
X87932163Y-91751275D01*
X87939675Y-91730636D01*
X87997190Y-91515987D01*
X88001004Y-91494358D01*
X88020372Y-91272982D01*
X88020372Y-91251018D01*
X88001004Y-91029642D01*
X87997190Y-91008013D01*
X87939675Y-90793364D01*
X87932163Y-90772725D01*
X87838248Y-90571325D01*
X87827267Y-90552306D01*
X87783029Y-90489126D01*
X87727572Y-90444796D01*
X87656953Y-90437486D01*
X87590720Y-90472300D01*
X86890115Y-91172905D01*
X86856089Y-91235217D01*
X86380080Y-91235217D01*
X86378846Y-91217968D01*
X86349885Y-91172905D01*
X85649280Y-90472300D01*
X85586968Y-90438274D01*
X85516153Y-90443339D01*
X85456971Y-90489126D01*
X85412733Y-90552306D01*
X85401752Y-90571325D01*
X85307837Y-90772725D01*
X85300325Y-90793364D01*
X85242810Y-91008013D01*
X85238996Y-91029642D01*
X85219628Y-91251018D01*
X85219628Y-91272982D01*
X82470497Y-91272982D01*
X82522390Y-91116528D01*
X82528141Y-91089704D01*
X82538844Y-90985243D01*
X82539500Y-90972400D01*
X82539500Y-90225047D01*
X85795486Y-90225047D01*
X85830300Y-90291280D01*
X86530905Y-90991885D01*
X86593217Y-91025911D01*
X86664032Y-91020846D01*
X86709095Y-90991885D01*
X87409700Y-90291280D01*
X87443726Y-90228968D01*
X87438661Y-90158153D01*
X87412271Y-90124043D01*
X88194745Y-90124043D01*
X88195821Y-90141149D01*
X88233346Y-90426180D01*
X88236734Y-90442982D01*
X88312595Y-90720284D01*
X88318232Y-90736471D01*
X88431026Y-91000911D01*
X88438807Y-91016182D01*
X88586445Y-91262867D01*
X88596227Y-91276942D01*
X88775979Y-91501309D01*
X88787580Y-91513925D01*
X88996118Y-91711820D01*
X89009325Y-91722745D01*
X89242791Y-91890508D01*
X89257358Y-91899540D01*
X89511433Y-92034066D01*
X89527091Y-92041038D01*
X89797072Y-92139837D01*
X89813531Y-92144619D01*
X90094422Y-92205863D01*
X90111378Y-92208367D01*
X90336853Y-92226112D01*
X90346739Y-92226500D01*
X90502271Y-92226500D01*
X90510841Y-92226208D01*
X90725395Y-92211581D01*
X90742376Y-92209255D01*
X91023893Y-92150956D01*
X91040402Y-92146347D01*
X91311403Y-92050380D01*
X91327133Y-92043573D01*
X91582602Y-91911716D01*
X91597263Y-91902837D01*
X91832474Y-91737528D01*
X91845794Y-91726741D01*
X92056393Y-91531040D01*
X92068126Y-91518546D01*
X92250217Y-91296074D01*
X92260146Y-91282103D01*
X92410360Y-91036977D01*
X92418300Y-91021787D01*
X92533856Y-90758543D01*
X92539662Y-90742417D01*
X92618423Y-90465925D01*
X92621987Y-90449159D01*
X92662494Y-90164537D01*
X92663749Y-90147444D01*
X92665255Y-89859957D01*
X92664179Y-89842851D01*
X92626654Y-89557820D01*
X92623266Y-89541018D01*
X92547405Y-89263716D01*
X92541768Y-89247529D01*
X92428974Y-88983089D01*
X92421193Y-88967818D01*
X92273555Y-88721133D01*
X92263773Y-88707058D01*
X92084021Y-88482691D01*
X92072420Y-88470075D01*
X91863882Y-88272180D01*
X91850675Y-88261255D01*
X91617209Y-88093492D01*
X91602642Y-88084460D01*
X91348567Y-87949934D01*
X91332909Y-87942962D01*
X91062928Y-87844163D01*
X91046469Y-87839381D01*
X90765578Y-87778137D01*
X90748622Y-87775633D01*
X90523147Y-87757888D01*
X90513261Y-87757500D01*
X90357729Y-87757500D01*
X90349159Y-87757792D01*
X90134605Y-87772419D01*
X90117624Y-87774745D01*
X89836107Y-87833044D01*
X89819598Y-87837653D01*
X89548597Y-87933620D01*
X89532867Y-87940427D01*
X89277398Y-88072284D01*
X89262737Y-88081163D01*
X89027526Y-88246472D01*
X89014206Y-88257259D01*
X88803607Y-88452960D01*
X88791874Y-88465454D01*
X88609783Y-88687926D01*
X88599854Y-88701897D01*
X88449640Y-88947023D01*
X88441700Y-88962213D01*
X88326144Y-89225457D01*
X88320338Y-89241583D01*
X88241577Y-89518075D01*
X88238013Y-89534841D01*
X88197506Y-89819463D01*
X88196251Y-89836556D01*
X88194745Y-90124043D01*
X87412271Y-90124043D01*
X87392875Y-90098972D01*
X87329696Y-90054734D01*
X87310676Y-90043752D01*
X87109275Y-89949837D01*
X87088636Y-89942325D01*
X86873987Y-89884810D01*
X86852358Y-89880996D01*
X86630982Y-89861628D01*
X86609018Y-89861628D01*
X86387642Y-89880996D01*
X86366013Y-89884810D01*
X86151364Y-89942325D01*
X86130725Y-89949837D01*
X85929325Y-90043752D01*
X85910306Y-90054733D01*
X85847126Y-90098971D01*
X85802796Y-90154428D01*
X85795486Y-90225047D01*
X82539500Y-90225047D01*
X82539500Y-90171600D01*
X82538827Y-90158596D01*
X82527853Y-90052830D01*
X82522050Y-90025958D01*
X82466074Y-89858178D01*
X82453694Y-89831751D01*
X82360622Y-89681349D01*
X82342496Y-89658479D01*
X82217321Y-89533522D01*
X82194419Y-89515435D01*
X82043854Y-89422625D01*
X82017405Y-89410292D01*
X81849528Y-89354610D01*
X81822704Y-89348859D01*
X81718243Y-89338156D01*
X81705400Y-89337500D01*
X80354600Y-89337500D01*
X80341596Y-89338173D01*
X80235830Y-89349147D01*
X80208958Y-89354950D01*
X80041178Y-89410926D01*
X80014751Y-89423306D01*
X79864349Y-89516378D01*
X79841479Y-89534504D01*
X79716522Y-89659679D01*
X79698435Y-89682581D01*
X79605625Y-89833146D01*
X79593292Y-89859595D01*
X79537610Y-90027472D01*
X79531859Y-90054296D01*
X79521156Y-90158757D01*
X79520500Y-90171600D01*
X79520500Y-90972400D01*
X79521173Y-90985404D01*
X79532147Y-91091170D01*
X79537950Y-91118042D01*
X79593926Y-91285822D01*
X79606306Y-91312249D01*
X79699378Y-91462651D01*
X79717504Y-91485521D01*
X79842679Y-91610478D01*
X79865581Y-91628565D01*
X79917120Y-91660334D01*
X79909247Y-91666518D01*
X79891915Y-91683024D01*
X79753283Y-91842783D01*
X79739384Y-91862268D01*
X79633463Y-92045359D01*
X79623499Y-92067121D01*
X79554111Y-92266938D01*
X79548443Y-92290191D01*
X79518091Y-92499524D01*
X79516922Y-92523430D01*
X78384000Y-92523430D01*
X78384000Y-82867590D01*
X79046055Y-82867590D01*
X79058693Y-82937453D01*
X79107096Y-82989392D01*
X79171339Y-83007000D01*
X80256000Y-83007000D01*
X80324121Y-82986998D01*
X80370614Y-82933342D01*
X80382000Y-82881000D01*
X80638000Y-82881000D01*
X80658002Y-82949121D01*
X80711658Y-82995614D01*
X80764000Y-83007000D01*
X81846459Y-83007000D01*
X81914580Y-82986998D01*
X81961073Y-82933342D01*
X81971177Y-82863068D01*
X81968663Y-82850304D01*
X81922159Y-82665167D01*
X81915505Y-82645621D01*
X81826462Y-82440835D01*
X81816704Y-82422637D01*
X81695409Y-82235143D01*
X81682810Y-82218783D01*
X81532521Y-82053618D01*
X81517420Y-82039536D01*
X81342173Y-81901135D01*
X81324975Y-81889709D01*
X81129477Y-81781788D01*
X81110643Y-81773323D01*
X80900144Y-81698781D01*
X80880180Y-81693507D01*
X80786096Y-81676748D01*
X80715524Y-81684494D01*
X80660342Y-81729164D01*
X80638000Y-81800795D01*
X80638000Y-82881000D01*
X80382000Y-82881000D01*
X80382000Y-81799987D01*
X80361998Y-81731866D01*
X80308342Y-81685373D01*
X80236940Y-81675437D01*
X80175148Y-81684893D01*
X80155063Y-81689678D01*
X79942805Y-81759054D01*
X79923770Y-81767056D01*
X79725694Y-81870168D01*
X79708221Y-81881171D01*
X79529645Y-82015250D01*
X79514204Y-82028959D01*
X79359925Y-82190403D01*
X79346931Y-82206450D01*
X79221091Y-82390924D01*
X79210891Y-82408878D01*
X79116871Y-82611428D01*
X79109742Y-82630806D01*
X79050065Y-82845992D01*
X79046198Y-82866254D01*
X79046055Y-82867590D01*
X78384000Y-82867590D01*
X78384000Y-80586000D01*
X82894300Y-80586000D01*
X82790489Y-80689991D02*
X82894300Y-80586000D01*
%TA.AperFunction,Conductor*%
G36*
X82790489Y-80689991D02*
G01*
X82772402Y-80712893D01*
X82679654Y-80863359D01*
X82667321Y-80889807D01*
X82611675Y-81057573D01*
X82605924Y-81084399D01*
X82595228Y-81188795D01*
X82594572Y-81201637D01*
X82594572Y-81448000D01*
X82614574Y-81516121D01*
X82668230Y-81562614D01*
X82720572Y-81574000D01*
X83956572Y-81574000D01*
X83956572Y-81830000D01*
X82720573Y-81830000D01*
X82652452Y-81850002D01*
X82605959Y-81903658D01*
X82594573Y-81956000D01*
X82594573Y-82202362D01*
X82595246Y-82215365D01*
X82606213Y-82321066D01*
X82612016Y-82347939D01*
X82667954Y-82515608D01*
X82680334Y-82542035D01*
X82773345Y-82692338D01*
X82791471Y-82715208D01*
X82916563Y-82840083D01*
X82939465Y-82858170D01*
X82942070Y-82859776D01*
X82882921Y-82896378D01*
X82860051Y-82914504D01*
X82735094Y-83039679D01*
X82717007Y-83062581D01*
X82624197Y-83213146D01*
X82611864Y-83239595D01*
X82556182Y-83407472D01*
X82550431Y-83434296D01*
X82539728Y-83538757D01*
X82539072Y-83551600D01*
X82539072Y-84224905D01*
X81994120Y-84769857D01*
X81993763Y-84763258D01*
X81987008Y-84701076D01*
X81979727Y-84670454D01*
X81928597Y-84534065D01*
X81911441Y-84502730D01*
X81824087Y-84386174D01*
X81798826Y-84360913D01*
X81682270Y-84273559D01*
X81650935Y-84256403D01*
X81531917Y-84211785D01*
X81636653Y-84107413D01*
X81650035Y-84091689D01*
X81780344Y-83910345D01*
X81790979Y-83892646D01*
X81889921Y-83692453D01*
X81897522Y-83673255D01*
X81962438Y-83459592D01*
X81966802Y-83439408D01*
X81971273Y-83405445D01*
X81960333Y-83335297D01*
X81913205Y-83282198D01*
X81846351Y-83263000D01*
X79175110Y-83263000D01*
X79106989Y-83283002D01*
X79060496Y-83336658D01*
X79050392Y-83406932D01*
X79052193Y-83416701D01*
X79086784Y-83570190D01*
X79092958Y-83589893D01*
X79176971Y-83796794D01*
X79186281Y-83815225D01*
X79302959Y-84005626D01*
X79315155Y-84022288D01*
X79461364Y-84191076D01*
X79476116Y-84205523D01*
X79485035Y-84212928D01*
X79369065Y-84256403D01*
X79337730Y-84273559D01*
X79221174Y-84360913D01*
X79195913Y-84386174D01*
X79108559Y-84502730D01*
X79091403Y-84534065D01*
X79040273Y-84670454D01*
X79032992Y-84701076D01*
X79026237Y-84763258D01*
X79025500Y-84776866D01*
X79025500Y-86573134D01*
X79026237Y-86586742D01*
X79032992Y-86648924D01*
X79040273Y-86679546D01*
X79091403Y-86815935D01*
X79108559Y-86847270D01*
X79195913Y-86963826D01*
X79221174Y-86989087D01*
X79337730Y-87076441D01*
X79369065Y-87093597D01*
X79505454Y-87144727D01*
X79536076Y-87152008D01*
X79598258Y-87158763D01*
X79611866Y-87159500D01*
X81408134Y-87159500D01*
X81421742Y-87158763D01*
X81483924Y-87152008D01*
X81514546Y-87144727D01*
X81650935Y-87093597D01*
X81682270Y-87076441D01*
X81798826Y-86989087D01*
X81824087Y-86963826D01*
X81911441Y-86847270D01*
X81928597Y-86815935D01*
X81979727Y-86679546D01*
X81987008Y-86648924D01*
X81993763Y-86586742D01*
X81994500Y-86573134D01*
X81994500Y-86434500D01*
X82084305Y-86434500D01*
X82106940Y-86436640D01*
X82175017Y-86434500D01*
X82202928Y-86434500D01*
X82218718Y-86433507D01*
X82222729Y-86433000D01*
X82266920Y-86431611D01*
X82298113Y-86426670D01*
X82317564Y-86421019D01*
X82337662Y-86418480D01*
X82368253Y-86410626D01*
X82409367Y-86394348D01*
X82451817Y-86382015D01*
X82480805Y-86369471D01*
X82498241Y-86359159D01*
X82517071Y-86351704D01*
X82544749Y-86336489D01*
X82580519Y-86310501D01*
X82594072Y-86302486D01*
X82594072Y-86952400D01*
X82594745Y-86965404D01*
X82605719Y-87071170D01*
X82611522Y-87098042D01*
X82667498Y-87265822D01*
X82679878Y-87292249D01*
X82772950Y-87442651D01*
X82791076Y-87465521D01*
X82892256Y-87566525D01*
X82891640Y-87567908D01*
X82832625Y-87749536D01*
X82827148Y-87775302D01*
X82807186Y-87965230D01*
X82807186Y-87991570D01*
X82827148Y-88181498D01*
X82832625Y-88207264D01*
X82891640Y-88388892D01*
X82902354Y-88412956D01*
X82997841Y-88578344D01*
X83013324Y-88599654D01*
X83141111Y-88741576D01*
X83160686Y-88759202D01*
X83315187Y-88871454D01*
X83337999Y-88884625D01*
X83512463Y-88962301D01*
X83537515Y-88970441D01*
X83724316Y-89010147D01*
X83750513Y-89012900D01*
X83941487Y-89012900D01*
X83967684Y-89010147D01*
X84154485Y-88970441D01*
X84179537Y-88962301D01*
X84354001Y-88884625D01*
X84376813Y-88871454D01*
X84531314Y-88759202D01*
X84550889Y-88741576D01*
X84678676Y-88599654D01*
X84694159Y-88578344D01*
X84789646Y-88412956D01*
X84800360Y-88388892D01*
X84859375Y-88207264D01*
X84864852Y-88181498D01*
X84884814Y-87991570D01*
X84884814Y-87965230D01*
X84864852Y-87775302D01*
X84859375Y-87749536D01*
X84800360Y-87567908D01*
X84789646Y-87543844D01*
X84788920Y-87542587D01*
X84828529Y-87502909D01*
X84916251Y-87590478D01*
X84939153Y-87608565D01*
X85089718Y-87701375D01*
X85116167Y-87713708D01*
X85284044Y-87769390D01*
X85310868Y-87775141D01*
X85415329Y-87785844D01*
X85428172Y-87786500D01*
X86228972Y-87786500D01*
X86241976Y-87785827D01*
X86347742Y-87774853D01*
X86374614Y-87769050D01*
X86542394Y-87713074D01*
X86568821Y-87700694D01*
X86719223Y-87607622D01*
X86742093Y-87589496D01*
X86867050Y-87464321D01*
X86885137Y-87441419D01*
X86977947Y-87290854D01*
X86990280Y-87264405D01*
X87045962Y-87096528D01*
X87051713Y-87069704D01*
X87062416Y-86965243D01*
X87063072Y-86952400D01*
X87063072Y-85951600D01*
X87062399Y-85938596D01*
X87051425Y-85832830D01*
X87045622Y-85805958D01*
X86989646Y-85638178D01*
X86977266Y-85611751D01*
X86884194Y-85461349D01*
X86866068Y-85438479D01*
X86740893Y-85313522D01*
X86717991Y-85295435D01*
X86685491Y-85275402D01*
X86714223Y-85257622D01*
X86737093Y-85239496D01*
X86862050Y-85114321D01*
X86880137Y-85091419D01*
X86972947Y-84940854D01*
X86985280Y-84914405D01*
X87040962Y-84746528D01*
X87046713Y-84719704D01*
X87057416Y-84615243D01*
X87058072Y-84602400D01*
X87058072Y-83551600D01*
X87057399Y-83538596D01*
X87046425Y-83432830D01*
X87040622Y-83405958D01*
X86984646Y-83238178D01*
X86972266Y-83211751D01*
X86879194Y-83061349D01*
X86861068Y-83038479D01*
X86735893Y-82913522D01*
X86712991Y-82895435D01*
X86685501Y-82878490D01*
X86719223Y-82857622D01*
X86742093Y-82839496D01*
X86867050Y-82714321D01*
X86885137Y-82691419D01*
X86977947Y-82540854D01*
X86990280Y-82514405D01*
X87045962Y-82346528D01*
X87051713Y-82319704D01*
X87062416Y-82215243D01*
X87063072Y-82202400D01*
X87063072Y-81201600D01*
X87062399Y-81188596D01*
X87051425Y-81082830D01*
X87045622Y-81055958D01*
X86989646Y-80888178D01*
X86977266Y-80861751D01*
X86884194Y-80711349D01*
X86866068Y-80688479D01*
X86763410Y-80586000D01*
X89864193Y-80586000D01*
X89619815Y-80722858D01*
X89607765Y-80730535D01*
X89321989Y-80936265D01*
X89310887Y-80945255D01*
X89050236Y-81182013D01*
X89040222Y-81192203D01*
X88808049Y-81456945D01*
X88799253Y-81468204D01*
X88598543Y-81757528D01*
X88591079Y-81769709D01*
X88424410Y-82079894D01*
X88418372Y-82092842D01*
X88287889Y-82419900D01*
X88283356Y-82433448D01*
X88190736Y-82773175D01*
X88187765Y-82787149D01*
X88134198Y-83135177D01*
X88132829Y-83149398D01*
X88119005Y-83501253D01*
X88119254Y-83515538D01*
X88145350Y-83866696D01*
X88147215Y-83880860D01*
X88212895Y-84226806D01*
X88216351Y-84240668D01*
X88320771Y-84576956D01*
X88325775Y-84590338D01*
X88467592Y-84912643D01*
X88474078Y-84925373D01*
X88651470Y-85229552D01*
X88659355Y-85241465D01*
X88870041Y-85523608D01*
X88879224Y-85534552D01*
X89120495Y-85791030D01*
X89130858Y-85800864D01*
X89399612Y-86028381D01*
X89411022Y-86036979D01*
X89703805Y-86232610D01*
X89716115Y-86239861D01*
X90029161Y-86401091D01*
X90042212Y-86406902D01*
X90371498Y-86531657D01*
X90385124Y-86535953D01*
X90726415Y-86622630D01*
X90740439Y-86625356D01*
X91089349Y-86672841D01*
X91101393Y-86673895D01*
X91216134Y-86678403D01*
X91221081Y-86678500D01*
X91439198Y-86678500D01*
X91446341Y-86678297D01*
X91708703Y-86663399D01*
X91722898Y-86661782D01*
X92069938Y-86602150D01*
X92083859Y-86598936D01*
X92421918Y-86500400D01*
X92435385Y-86495631D01*
X92760116Y-86359460D01*
X92772956Y-86353198D01*
X93080185Y-86181142D01*
X93092235Y-86173465D01*
X93378011Y-85967735D01*
X93389113Y-85958745D01*
X93649764Y-85721987D01*
X93659778Y-85711797D01*
X93891951Y-85447055D01*
X93900747Y-85435796D01*
X94101457Y-85146472D01*
X94108921Y-85134291D01*
X94275590Y-84824106D01*
X94281628Y-84811158D01*
X94412111Y-84484100D01*
X94416644Y-84470552D01*
X94509264Y-84130825D01*
X94512235Y-84116851D01*
X94565802Y-83768823D01*
X94567171Y-83754602D01*
X94580995Y-83402747D01*
X94580746Y-83388462D01*
X94554650Y-83037304D01*
X94552785Y-83023140D01*
X94487105Y-82677194D01*
X94483649Y-82663332D01*
X94379229Y-82327044D01*
X94374225Y-82313662D01*
X94232408Y-81991357D01*
X94225922Y-81978627D01*
X94048530Y-81674448D01*
X94040645Y-81662535D01*
X93829959Y-81380392D01*
X93820776Y-81369448D01*
X93579505Y-81112970D01*
X93569142Y-81103136D01*
X93300388Y-80875619D01*
X93288978Y-80867021D01*
X92996195Y-80671390D01*
X92983885Y-80664139D01*
X92832169Y-80586000D01*
X95116000Y-80586000D01*
X95116000Y-101247129D01*
X94796771Y-100927900D01*
X94808665Y-100916253D01*
X94826419Y-100894484D01*
X94849905Y-100858041D01*
X94876947Y-100824166D01*
X94891917Y-100800395D01*
X94906513Y-100770201D01*
X94924676Y-100742018D01*
X94937166Y-100716858D01*
X94951993Y-100676122D01*
X94970862Y-100637089D01*
X94980191Y-100610596D01*
X94987736Y-100577918D01*
X94999204Y-100546409D01*
X95005810Y-100519106D01*
X95011243Y-100476101D01*
X95020995Y-100433861D01*
X95024224Y-100405955D01*
X95024366Y-100365367D01*
X95024500Y-100363231D01*
X95024500Y-100326867D01*
X95024857Y-100224570D01*
X95024500Y-100221283D01*
X95024500Y-95471214D01*
X95025444Y-95381099D01*
X95022605Y-95353152D01*
X95013445Y-95310787D01*
X95008612Y-95267699D01*
X95002389Y-95240308D01*
X94991358Y-95208632D01*
X94984273Y-95175862D01*
X94975314Y-95149241D01*
X94956994Y-95109954D01*
X94942736Y-95069010D01*
X94930600Y-95043679D01*
X94912828Y-95015237D01*
X94898657Y-94984848D01*
X94884021Y-94960871D01*
X94857453Y-94926620D01*
X94834481Y-94889856D01*
X94817033Y-94867841D01*
X94788431Y-94839038D01*
X94787017Y-94837435D01*
X94761338Y-94811756D01*
X94689221Y-94739134D01*
X94686644Y-94737062D01*
X93357329Y-93407747D01*
X93294252Y-93343335D01*
X93272484Y-93325582D01*
X93236050Y-93302102D01*
X93202165Y-93275052D01*
X93178395Y-93260083D01*
X93148201Y-93245487D01*
X93120018Y-93227324D01*
X93094858Y-93214834D01*
X93054122Y-93200007D01*
X93015089Y-93181138D01*
X92988595Y-93171808D01*
X92955917Y-93164264D01*
X92924410Y-93152796D01*
X92897106Y-93146190D01*
X92854091Y-93140756D01*
X92811860Y-93131006D01*
X92783955Y-93127777D01*
X92743385Y-93127635D01*
X92741231Y-93127500D01*
X92704581Y-93127500D01*
X92602570Y-93127144D01*
X92599293Y-93127500D01*
X87846343Y-93127500D01*
X87838683Y-93111074D01*
X87827701Y-93092053D01*
X87700190Y-92909948D01*
X87686072Y-92893124D01*
X87528876Y-92735928D01*
X87512052Y-92721810D01*
X87329948Y-92594299D01*
X87310927Y-92583317D01*
X87200285Y-92531724D01*
X87310676Y-92480248D01*
X87329696Y-92469266D01*
X87392875Y-92425028D01*
X87437204Y-92369571D01*
X87444513Y-92298952D01*
X87409700Y-92232720D01*
X86709095Y-91532115D01*
X86646783Y-91498089D01*
X86575968Y-91503154D01*
X86530905Y-91532115D01*
X85830300Y-92232720D01*
X85796274Y-92295032D01*
X85801339Y-92365847D01*
X85847125Y-92425028D01*
X85910304Y-92469266D01*
X85929324Y-92480248D01*
X86039715Y-92531724D01*
X85929074Y-92583317D01*
X85910053Y-92594299D01*
X85727948Y-92721810D01*
X85711124Y-92735928D01*
X85553928Y-92893124D01*
X85539810Y-92909948D01*
X85412299Y-93092053D01*
X85401317Y-93111074D01*
X85307365Y-93312554D01*
X85299853Y-93333193D01*
X85242315Y-93547926D01*
X85238501Y-93569556D01*
X85234440Y-93615978D01*
X83645747Y-95204671D01*
X83581335Y-95267748D01*
X83563582Y-95289516D01*
X83540102Y-95325950D01*
X83513052Y-95359835D01*
X83498083Y-95383605D01*
X83483487Y-95413799D01*
X83465324Y-95441982D01*
X83452834Y-95467142D01*
X83438007Y-95507878D01*
X83419138Y-95546911D01*
X83409808Y-95573405D01*
X83402264Y-95606083D01*
X83390796Y-95637590D01*
X83384190Y-95664894D01*
X83378756Y-95707909D01*
X83369006Y-95750140D01*
X83365777Y-95778045D01*
X83365635Y-95818615D01*
X83365500Y-95820769D01*
X83365500Y-95857419D01*
X83365144Y-95959430D01*
X83365500Y-95962707D01*
X83365500Y-99562786D01*
X83364556Y-99652901D01*
X83367395Y-99680848D01*
X83376555Y-99723213D01*
X83381388Y-99766301D01*
X83387611Y-99793692D01*
X83398642Y-99825368D01*
X83405727Y-99858138D01*
X83414686Y-99884759D01*
X83433006Y-99924046D01*
X83447264Y-99964990D01*
X83459400Y-99990321D01*
X83477172Y-100018763D01*
X83491343Y-100049152D01*
X83505979Y-100073129D01*
X83532547Y-100107380D01*
X83555519Y-100144144D01*
X83572967Y-100166159D01*
X83601569Y-100194962D01*
X83602983Y-100196565D01*
X83628662Y-100222244D01*
X83700779Y-100294866D01*
X83703356Y-100296938D01*
X84398500Y-100992082D01*
X84398500Y-101665400D01*
X84399173Y-101678404D01*
X84410147Y-101784170D01*
X84415950Y-101811042D01*
X84471926Y-101978822D01*
X84484306Y-102005249D01*
X84577378Y-102155651D01*
X84595504Y-102178521D01*
X84720679Y-102303478D01*
X84743581Y-102321565D01*
X84894146Y-102414375D01*
X84920595Y-102426708D01*
X85088472Y-102482390D01*
X85115296Y-102488141D01*
X85219757Y-102498844D01*
X85232600Y-102499500D01*
X86008400Y-102499500D01*
X86021404Y-102498827D01*
X86127170Y-102487853D01*
X86154042Y-102482050D01*
X86321822Y-102426074D01*
X86348249Y-102413694D01*
X86498651Y-102320622D01*
X86521521Y-102302496D01*
X86646478Y-102177321D01*
X86658316Y-102162332D01*
X86670899Y-102178208D01*
X86795991Y-102303083D01*
X86818893Y-102321170D01*
X86969359Y-102413918D01*
X86995807Y-102426251D01*
X87163573Y-102481897D01*
X87190399Y-102487648D01*
X87294795Y-102498344D01*
X87307637Y-102499000D01*
X87441500Y-102499000D01*
X87509621Y-102478998D01*
X87556114Y-102425342D01*
X87567500Y-102373000D01*
X87567500Y-99907001D01*
X87547498Y-99838880D01*
X87493842Y-99792387D01*
X87441500Y-99781001D01*
X87307638Y-99781001D01*
X87294635Y-99781674D01*
X87188934Y-99792641D01*
X87162061Y-99798444D01*
X86994392Y-99854382D01*
X86967965Y-99866762D01*
X86817662Y-99959773D01*
X86794792Y-99977899D01*
X86669917Y-100102991D01*
X86658326Y-100117667D01*
X86645496Y-100101479D01*
X86520321Y-99976522D01*
X86497419Y-99958435D01*
X86346854Y-99865625D01*
X86320405Y-99853292D01*
X86152528Y-99797610D01*
X86125704Y-99791859D01*
X86021243Y-99781156D01*
X86008400Y-99780500D01*
X85830082Y-99780500D01*
X85234500Y-99184918D01*
X85234500Y-96528711D01*
X85238501Y-96574444D01*
X85242315Y-96596074D01*
X85299853Y-96810807D01*
X85307365Y-96831446D01*
X85401317Y-97032926D01*
X85412299Y-97051947D01*
X85539810Y-97234052D01*
X85553928Y-97250876D01*
X85711124Y-97408072D01*
X85727948Y-97422190D01*
X85910052Y-97549701D01*
X85929073Y-97560683D01*
X86130554Y-97654635D01*
X86151193Y-97662147D01*
X86365926Y-97719685D01*
X86387556Y-97723499D01*
X86609019Y-97742874D01*
X86630981Y-97742874D01*
X86852444Y-97723499D01*
X86874074Y-97719685D01*
X87088807Y-97662147D01*
X87109446Y-97654635D01*
X87120500Y-97649480D01*
X87120500Y-98523233D01*
X87118360Y-98545868D01*
X87120500Y-98613945D01*
X87120500Y-98641856D01*
X87121493Y-98657646D01*
X87122000Y-98661657D01*
X87123389Y-98705848D01*
X87128330Y-98737041D01*
X87133981Y-98756492D01*
X87136520Y-98776590D01*
X87144374Y-98807181D01*
X87160652Y-98848295D01*
X87172985Y-98890745D01*
X87185529Y-98919733D01*
X87195841Y-98937169D01*
X87203296Y-98955999D01*
X87218511Y-98983677D01*
X87244499Y-99019447D01*
X87267005Y-99057502D01*
X87286363Y-99082457D01*
X87300684Y-99096778D01*
X87312592Y-99113168D01*
X87334212Y-99136192D01*
X87368289Y-99164383D01*
X87984906Y-99781000D01*
X87949500Y-99781000D01*
X87881379Y-99801002D01*
X87834886Y-99854658D01*
X87823500Y-99907000D01*
X87823500Y-102372999D01*
X87843502Y-102441120D01*
X87897158Y-102487613D01*
X87949500Y-102498999D01*
X88083362Y-102498999D01*
X88096365Y-102498326D01*
X88202066Y-102487359D01*
X88228939Y-102481556D01*
X88396608Y-102425618D01*
X88423035Y-102413238D01*
X88573338Y-102320227D01*
X88596208Y-102302101D01*
X88680500Y-102217663D01*
X88680500Y-105152233D01*
X88678360Y-105174868D01*
X88680500Y-105242945D01*
X88680500Y-105270856D01*
X88681493Y-105286646D01*
X88682000Y-105290657D01*
X88683389Y-105334848D01*
X88688330Y-105366041D01*
X88693981Y-105385492D01*
X88696520Y-105405590D01*
X88704374Y-105436181D01*
X88720652Y-105477295D01*
X88732985Y-105519745D01*
X88745529Y-105548733D01*
X88755841Y-105566169D01*
X88763296Y-105584999D01*
X88778511Y-105612677D01*
X88804499Y-105648447D01*
X88827005Y-105686502D01*
X88846363Y-105711457D01*
X88860684Y-105725778D01*
X88872592Y-105742168D01*
X88894211Y-105765191D01*
X88928287Y-105793382D01*
X89629680Y-106494775D01*
X89644174Y-106512295D01*
X89693825Y-106558920D01*
X89713562Y-106578657D01*
X89725432Y-106589122D01*
X89728623Y-106591597D01*
X89760853Y-106621863D01*
X89786403Y-106640427D01*
X89804157Y-106650188D01*
X89820162Y-106662602D01*
X89847345Y-106678678D01*
X89887924Y-106696238D01*
X89926667Y-106717537D01*
X89956032Y-106729163D01*
X89975653Y-106734201D01*
X89994242Y-106742245D01*
X90024570Y-106751057D01*
X90068238Y-106757974D01*
X90111063Y-106768969D01*
X90142397Y-106772927D01*
X90162651Y-106772927D01*
X90182659Y-106776096D01*
X90214228Y-106777088D01*
X90258246Y-106772927D01*
X91792501Y-106772927D01*
X91792501Y-106803312D01*
X91793579Y-106819756D01*
X91809240Y-106938722D01*
X91817753Y-106970495D01*
X91825452Y-106989081D01*
X91818241Y-107006489D01*
X91809728Y-107038260D01*
X91801997Y-107096980D01*
X91812936Y-107167129D01*
X91860064Y-107220228D01*
X91926919Y-107239427D01*
X91966431Y-107239427D01*
X91993051Y-107274118D01*
X92016309Y-107297376D01*
X92037226Y-107313427D01*
X92016308Y-107329478D01*
X91993051Y-107352736D01*
X91966431Y-107387427D01*
X91926920Y-107387427D01*
X91858799Y-107407429D01*
X91822698Y-107449092D01*
X91727917Y-107459054D01*
X91700483Y-107465086D01*
X91528774Y-107523540D01*
X91503357Y-107535501D01*
X91348866Y-107630545D01*
X91326730Y-107647839D01*
X91197135Y-107774748D01*
X91179382Y-107796516D01*
X91081124Y-107948983D01*
X91068634Y-107974143D01*
X91031904Y-108075057D01*
X90945799Y-108064790D01*
X90917709Y-108064594D01*
X90737317Y-108083554D01*
X90709883Y-108089586D01*
X90538174Y-108148040D01*
X90512757Y-108160001D01*
X90358266Y-108255045D01*
X90336130Y-108272339D01*
X90206535Y-108399248D01*
X90188782Y-108421016D01*
X90090524Y-108573483D01*
X90078034Y-108598643D01*
X90015996Y-108769090D01*
X90009391Y-108796393D01*
X89986657Y-108976348D01*
X89986264Y-109004435D01*
X90003964Y-109184955D01*
X90009805Y-109212432D01*
X90067060Y-109384545D01*
X90078842Y-109410044D01*
X90172804Y-109565195D01*
X90189943Y-109587451D01*
X90315945Y-109717929D01*
X90337589Y-109735834D01*
X90489366Y-109835154D01*
X90514439Y-109847819D01*
X90684448Y-109911045D01*
X90711703Y-109917841D01*
X90891496Y-109941831D01*
X90919581Y-109942419D01*
X91100220Y-109925979D01*
X91127736Y-109920331D01*
X91178051Y-109903983D01*
X91189159Y-109912599D01*
X91216344Y-109928676D01*
X91256913Y-109946232D01*
X91295667Y-109967537D01*
X91325033Y-109979164D01*
X91344653Y-109984201D01*
X91363240Y-109992245D01*
X91393570Y-110001057D01*
X91437238Y-110007974D01*
X91480063Y-110018969D01*
X91511397Y-110022927D01*
X91531651Y-110022927D01*
X91551659Y-110026096D01*
X91583228Y-110027088D01*
X91627246Y-110022927D01*
X91792501Y-110022927D01*
X91792501Y-110053312D01*
X91793579Y-110069756D01*
X91809240Y-110188722D01*
X91817753Y-110220495D01*
X91825181Y-110238427D01*
X91817753Y-110256359D01*
X91809240Y-110288131D01*
X91793578Y-110407096D01*
X91792500Y-110423542D01*
X91792501Y-110703311D01*
X91793579Y-110719756D01*
X91809240Y-110838722D01*
X91817753Y-110870495D01*
X91879067Y-111018521D01*
X91895514Y-111047008D01*
X91993051Y-111174119D01*
X92016309Y-111197376D01*
X92143421Y-111294913D01*
X92171907Y-111311360D01*
X92319932Y-111372674D01*
X92351704Y-111381187D01*
X92470669Y-111396849D01*
X92487115Y-111397927D01*
X93403914Y-111397926D01*
X93084340Y-111717500D01*
X84958922Y-111717500D01*
X84901218Y-111713566D01*
X84870985Y-111715150D01*
X84808028Y-111726138D01*
X84744621Y-111733811D01*
X84715220Y-111741032D01*
X84708811Y-111743454D01*
X84702054Y-111744633D01*
X84673072Y-111753383D01*
X84614560Y-111779067D01*
X84554806Y-111801647D01*
X84527976Y-111815674D01*
X84522329Y-111819555D01*
X84516051Y-111822311D01*
X84489990Y-111837723D01*
X84439303Y-111876618D01*
X84386653Y-111912802D01*
X84363943Y-111932824D01*
X84322489Y-111979351D01*
X83684340Y-112617500D01*
X82831866Y-112617500D01*
X82818258Y-112618237D01*
X82756076Y-112624992D01*
X82725454Y-112632273D01*
X82589065Y-112683403D01*
X82557730Y-112700559D01*
X82441174Y-112787913D01*
X82415913Y-112813174D01*
X82414500Y-112815059D01*
X82414500Y-112691594D01*
X82820588Y-112285506D01*
X82894166Y-112333654D01*
X82919239Y-112346319D01*
X83089248Y-112409545D01*
X83116503Y-112416341D01*
X83296296Y-112440331D01*
X83324381Y-112440919D01*
X83505020Y-112424479D01*
X83532536Y-112418831D01*
X83705044Y-112362780D01*
X83730625Y-112351176D01*
X83886429Y-112258298D01*
X83908804Y-112241315D01*
X84040158Y-112116228D01*
X84058214Y-112094709D01*
X84158591Y-111943629D01*
X84171431Y-111918646D01*
X84235843Y-111749082D01*
X84242829Y-111721874D01*
X84268073Y-111542253D01*
X84269287Y-111526475D01*
X84269604Y-111503758D01*
X84268831Y-111487955D01*
X84248612Y-111307700D01*
X84242388Y-111280308D01*
X84182736Y-111109011D01*
X84170599Y-111083679D01*
X84074480Y-110929855D01*
X84057032Y-110907840D01*
X83929221Y-110779134D01*
X83907329Y-110761533D01*
X83754180Y-110664342D01*
X83728933Y-110652028D01*
X83558057Y-110591182D01*
X83530709Y-110584767D01*
X83350599Y-110563290D01*
X83322509Y-110563094D01*
X83142117Y-110582054D01*
X83114683Y-110588086D01*
X82942974Y-110646540D01*
X82917557Y-110658501D01*
X82781019Y-110742500D01*
X82608767Y-110742500D01*
X82586132Y-110740360D01*
X82518055Y-110742500D01*
X82490144Y-110742500D01*
X82474354Y-110743493D01*
X82470343Y-110744000D01*
X82426151Y-110745389D01*
X82394959Y-110750330D01*
X82375509Y-110755980D01*
X82355409Y-110758520D01*
X82324820Y-110766374D01*
X82283715Y-110782648D01*
X82241253Y-110794985D01*
X82212268Y-110807528D01*
X82194832Y-110817839D01*
X82175999Y-110825296D01*
X82148323Y-110840512D01*
X82112566Y-110866490D01*
X82074498Y-110889004D01*
X82049542Y-110908363D01*
X82035218Y-110922687D01*
X82018832Y-110934592D01*
X81995808Y-110956213D01*
X81967627Y-110990278D01*
X81290405Y-111667500D01*
X79831866Y-111667500D01*
X79818258Y-111668237D01*
X79756076Y-111674992D01*
X79725454Y-111682273D01*
X79589065Y-111733403D01*
X79557730Y-111750559D01*
X79441174Y-111837913D01*
X79415913Y-111863174D01*
X79328559Y-111979730D01*
X79311403Y-112011065D01*
X79260273Y-112147454D01*
X79252992Y-112178076D01*
X79246237Y-112240258D01*
X79245500Y-112253866D01*
X79245500Y-113150134D01*
X79246237Y-113163742D01*
X79252992Y-113225924D01*
X79260273Y-113256546D01*
X79311403Y-113392935D01*
X79328559Y-113424270D01*
X79415913Y-113540826D01*
X79441174Y-113566087D01*
X79556224Y-113652313D01*
X79441531Y-113738270D01*
X79416270Y-113763531D01*
X79329002Y-113879973D01*
X79311846Y-113911308D01*
X79260766Y-114047563D01*
X79253485Y-114078185D01*
X79246737Y-114140303D01*
X79246000Y-114153911D01*
X79246000Y-114348000D01*
X79266002Y-114416121D01*
X79319658Y-114462614D01*
X79372000Y-114474000D01*
X82287999Y-114474000D01*
X82356120Y-114453998D01*
X82373382Y-114434077D01*
X82415913Y-114490826D01*
X82441174Y-114516087D01*
X82557730Y-114603441D01*
X82589065Y-114620597D01*
X82720500Y-114669870D01*
X82720500Y-115922803D01*
X82666177Y-115940927D01*
X82639751Y-115953306D01*
X82489349Y-116046378D01*
X82466479Y-116064504D01*
X82341522Y-116189679D01*
X82329684Y-116204668D01*
X82317101Y-116188792D01*
X82192009Y-116063917D01*
X82169107Y-116045830D01*
X82018641Y-115953082D01*
X81992193Y-115940749D01*
X81824427Y-115885103D01*
X81797601Y-115879352D01*
X81693205Y-115868656D01*
X81680363Y-115868000D01*
X81546500Y-115868000D01*
X81478379Y-115888002D01*
X81431886Y-115941658D01*
X81420500Y-115994000D01*
X81420500Y-118459999D01*
X81440502Y-118528120D01*
X81494158Y-118574613D01*
X81546500Y-118585999D01*
X81680362Y-118585999D01*
X81693365Y-118585326D01*
X81799066Y-118574359D01*
X81825939Y-118568556D01*
X81993608Y-118512618D01*
X82020035Y-118500238D01*
X82170338Y-118407227D01*
X82193208Y-118389101D01*
X82318083Y-118264009D01*
X82329674Y-118249333D01*
X82342504Y-118265521D01*
X82467679Y-118390478D01*
X82490581Y-118408565D01*
X82641146Y-118501375D01*
X82667595Y-118513708D01*
X82835472Y-118569390D01*
X82862296Y-118575141D01*
X82966757Y-118585844D01*
X82979600Y-118586500D01*
X83755400Y-118586500D01*
X83768404Y-118585827D01*
X83874170Y-118574853D01*
X83901042Y-118569050D01*
X84068822Y-118513074D01*
X84095249Y-118500694D01*
X84245651Y-118407622D01*
X84268521Y-118389496D01*
X84393478Y-118264321D01*
X84411565Y-118241419D01*
X84504375Y-118090854D01*
X84516708Y-118064405D01*
X84572390Y-117896528D01*
X84578141Y-117869704D01*
X84588844Y-117765243D01*
X84589500Y-117752400D01*
X84589500Y-116701600D01*
X84588827Y-116688596D01*
X84577853Y-116582830D01*
X84572050Y-116555958D01*
X84516074Y-116388178D01*
X84503694Y-116361751D01*
X84410622Y-116211349D01*
X84392495Y-116188479D01*
X84389500Y-116185489D01*
X84389500Y-114686500D01*
X84828134Y-114686500D01*
X84841742Y-114685763D01*
X84903924Y-114679008D01*
X84934546Y-114671727D01*
X85070935Y-114620597D01*
X85102270Y-114603441D01*
X85218826Y-114516087D01*
X85244087Y-114490826D01*
X85331441Y-114374270D01*
X85348597Y-114342935D01*
X85399727Y-114206546D01*
X85407008Y-114175924D01*
X85413763Y-114113742D01*
X85414500Y-114100134D01*
X85414500Y-113386500D01*
X90336749Y-113386500D01*
X90278082Y-113403600D01*
X90264615Y-113408369D01*
X89939884Y-113544540D01*
X89927044Y-113550802D01*
X89619815Y-113722858D01*
X89607765Y-113730535D01*
X89321989Y-113936265D01*
X89310887Y-113945255D01*
X89050236Y-114182013D01*
X89040222Y-114192203D01*
X88808049Y-114456945D01*
X88799253Y-114468204D01*
X88598543Y-114757528D01*
X88591079Y-114769709D01*
X88424410Y-115079894D01*
X88418372Y-115092842D01*
X88287889Y-115419900D01*
X88283356Y-115433448D01*
X88190736Y-115773175D01*
X88187765Y-115787149D01*
X88134198Y-116135177D01*
X88132829Y-116149398D01*
X88119005Y-116501253D01*
X88119254Y-116515538D01*
X88145350Y-116866696D01*
X88147215Y-116880860D01*
X88212895Y-117226806D01*
X88216351Y-117240668D01*
X88320771Y-117576956D01*
X88325775Y-117590338D01*
X88467592Y-117912643D01*
X88474078Y-117925373D01*
X88651470Y-118229552D01*
X88659355Y-118241465D01*
X88870041Y-118523608D01*
X88879224Y-118534552D01*
X89120495Y-118791030D01*
X89130858Y-118800864D01*
X89399612Y-119028381D01*
X89411022Y-119036979D01*
X89703805Y-119232610D01*
X89716115Y-119239861D01*
X89867831Y-119318000D01*
X78384000Y-119318000D01*
X78384000Y-117752362D01*
X80071001Y-117752362D01*
X80071674Y-117765365D01*
X80082641Y-117871066D01*
X80088444Y-117897939D01*
X80144382Y-118065608D01*
X80156762Y-118092035D01*
X80249773Y-118242338D01*
X80267899Y-118265208D01*
X80392991Y-118390083D01*
X80415893Y-118408170D01*
X80566359Y-118500918D01*
X80592807Y-118513251D01*
X80760573Y-118568897D01*
X80787399Y-118574648D01*
X80891795Y-118585344D01*
X80904637Y-118586000D01*
X81038500Y-118586000D01*
X81106621Y-118565998D01*
X81153114Y-118512342D01*
X81164500Y-118460000D01*
X81164500Y-117481000D01*
X81144498Y-117412879D01*
X81090842Y-117366386D01*
X81038500Y-117355000D01*
X80197001Y-117355000D01*
X80128880Y-117375002D01*
X80082387Y-117428658D01*
X80071001Y-117481000D01*
X80071001Y-117752362D01*
X78384000Y-117752362D01*
X78384000Y-116973000D01*
X80071000Y-116973000D01*
X80091002Y-117041121D01*
X80144658Y-117087614D01*
X80197000Y-117099000D01*
X81038500Y-117099000D01*
X81106621Y-117078998D01*
X81153114Y-117025342D01*
X81164500Y-116973000D01*
X81164500Y-115994001D01*
X81144498Y-115925880D01*
X81090842Y-115879387D01*
X81038500Y-115868001D01*
X80904638Y-115868001D01*
X80891635Y-115868674D01*
X80785934Y-115879641D01*
X80759061Y-115885444D01*
X80591392Y-115941382D01*
X80564965Y-115953762D01*
X80414662Y-116046773D01*
X80391792Y-116064899D01*
X80266917Y-116189991D01*
X80248830Y-116212893D01*
X80156082Y-116363359D01*
X80143749Y-116389807D01*
X80088103Y-116557573D01*
X80082352Y-116584399D01*
X80071656Y-116688795D01*
X80071000Y-116701637D01*
X80071000Y-116973000D01*
X78384000Y-116973000D01*
X78384000Y-115050088D01*
X79246001Y-115050088D01*
X79246738Y-115063693D01*
X79253485Y-115125812D01*
X79260766Y-115156437D01*
X79311846Y-115292692D01*
X79329002Y-115324027D01*
X79416270Y-115440469D01*
X79441531Y-115465730D01*
X79557973Y-115552998D01*
X79589308Y-115570154D01*
X79725563Y-115621234D01*
X79756185Y-115628515D01*
X79818303Y-115635263D01*
X79831911Y-115636000D01*
X80576000Y-115636000D01*
X80644121Y-115615998D01*
X80690614Y-115562342D01*
X80702000Y-115510000D01*
X80702000Y-115509999D01*
X80958000Y-115509999D01*
X80978002Y-115578120D01*
X81031658Y-115624613D01*
X81084000Y-115635999D01*
X81828088Y-115635999D01*
X81841693Y-115635262D01*
X81903812Y-115628515D01*
X81934437Y-115621234D01*
X82070692Y-115570154D01*
X82102027Y-115552998D01*
X82218469Y-115465730D01*
X82243730Y-115440469D01*
X82330998Y-115324027D01*
X82348154Y-115292692D01*
X82399234Y-115156437D01*
X82406515Y-115125815D01*
X82413263Y-115063697D01*
X82414000Y-115050089D01*
X82414000Y-114856000D01*
X82393998Y-114787879D01*
X82340342Y-114741386D01*
X82288000Y-114730000D01*
X81084000Y-114730000D01*
X81015879Y-114750002D01*
X80969386Y-114803658D01*
X80958000Y-114856000D01*
X80958000Y-115509999D01*
X80702000Y-115509999D01*
X80702000Y-114856000D01*
X80681998Y-114787879D01*
X80628342Y-114741386D01*
X80576000Y-114730000D01*
X79372001Y-114730000D01*
X79303880Y-114750002D01*
X79257387Y-114803658D01*
X79246001Y-114856000D01*
X79246001Y-115050088D01*
X78384000Y-115050088D01*
X78384000Y-108523430D01*
X79516922Y-108523430D01*
X79526702Y-108734725D01*
X79530074Y-108758420D01*
X79579632Y-108964055D01*
X79587424Y-108986685D01*
X79674973Y-109179238D01*
X79686904Y-109199987D01*
X79809284Y-109372511D01*
X79824923Y-109390629D01*
X79977719Y-109536899D01*
X79996502Y-109551733D01*
X80174200Y-109666472D01*
X80195450Y-109677486D01*
X80391639Y-109756552D01*
X80414587Y-109763350D01*
X80622187Y-109803892D01*
X80640183Y-109806078D01*
X80645745Y-109806350D01*
X80651899Y-109806500D01*
X81357846Y-109806500D01*
X81369813Y-109805930D01*
X81527533Y-109790882D01*
X81551035Y-109786357D01*
X81754003Y-109726813D01*
X81776226Y-109717924D01*
X81964272Y-109621074D01*
X81984413Y-109608144D01*
X82150753Y-109477482D01*
X82168085Y-109460976D01*
X82280439Y-109331500D01*
X82323017Y-109331500D01*
X82345652Y-109333640D01*
X82413729Y-109331500D01*
X82441640Y-109331500D01*
X82457430Y-109330507D01*
X82461441Y-109330000D01*
X82505632Y-109328611D01*
X82536825Y-109323670D01*
X82556276Y-109318019D01*
X82576374Y-109315480D01*
X82606965Y-109307626D01*
X82648079Y-109291348D01*
X82690529Y-109279015D01*
X82719517Y-109266471D01*
X82736953Y-109256159D01*
X82755783Y-109248704D01*
X82783461Y-109233489D01*
X82819231Y-109207501D01*
X82857286Y-109184995D01*
X82882241Y-109165637D01*
X82896562Y-109151316D01*
X82912952Y-109139408D01*
X82935976Y-109117788D01*
X82964167Y-109083711D01*
X83974952Y-108072927D01*
X84367501Y-108072927D01*
X84367501Y-108103312D01*
X84368579Y-108119756D01*
X84384240Y-108238722D01*
X84392753Y-108270495D01*
X84400181Y-108288427D01*
X84392753Y-108306359D01*
X84384240Y-108338131D01*
X84368578Y-108457096D01*
X84367500Y-108473542D01*
X84367501Y-108753311D01*
X84368579Y-108769756D01*
X84384240Y-108888722D01*
X84392753Y-108920495D01*
X84400181Y-108938427D01*
X84392753Y-108956359D01*
X84384240Y-108988131D01*
X84368578Y-109107096D01*
X84367500Y-109123542D01*
X84367501Y-109403311D01*
X84368579Y-109419756D01*
X84384240Y-109538722D01*
X84392753Y-109570495D01*
X84400181Y-109588427D01*
X84392753Y-109606359D01*
X84384240Y-109638131D01*
X84368578Y-109757096D01*
X84367500Y-109773542D01*
X84367501Y-110053311D01*
X84368579Y-110069756D01*
X84384240Y-110188722D01*
X84392753Y-110220495D01*
X84400452Y-110239081D01*
X84393241Y-110256489D01*
X84384728Y-110288260D01*
X84376997Y-110346980D01*
X84387936Y-110417129D01*
X84435064Y-110470228D01*
X84501919Y-110489427D01*
X84541431Y-110489427D01*
X84568051Y-110524118D01*
X84591309Y-110547376D01*
X84708665Y-110637427D01*
X84501920Y-110637427D01*
X84433799Y-110657429D01*
X84387306Y-110711085D01*
X84376998Y-110779872D01*
X84384728Y-110838592D01*
X84393241Y-110870365D01*
X84454504Y-111018268D01*
X84470951Y-111046754D01*
X84568408Y-111173761D01*
X84591666Y-111197019D01*
X84718673Y-111294476D01*
X84747159Y-111310923D01*
X84895062Y-111372186D01*
X84926834Y-111380699D01*
X85045707Y-111396349D01*
X85062153Y-111397427D01*
X85539500Y-111397427D01*
X85607621Y-111377425D01*
X85654114Y-111323769D01*
X85665500Y-111271427D01*
X85665500Y-110763427D01*
X85660949Y-110747926D01*
X85813500Y-110747926D01*
X85813500Y-111271426D01*
X85833502Y-111339547D01*
X85887158Y-111386040D01*
X85939500Y-111397426D01*
X86416846Y-111397426D01*
X86433291Y-111396348D01*
X86552165Y-111380699D01*
X86583938Y-111372186D01*
X86731841Y-111310923D01*
X86760327Y-111294476D01*
X86887334Y-111197019D01*
X86910592Y-111173761D01*
X87008049Y-111046754D01*
X87024496Y-111018268D01*
X87085759Y-110870365D01*
X87094272Y-110838593D01*
X87109922Y-110719720D01*
X87111000Y-110703273D01*
X87111000Y-110672927D01*
X87559406Y-110672927D01*
X87582041Y-110675067D01*
X87650118Y-110672927D01*
X87678029Y-110672927D01*
X87693819Y-110671934D01*
X87697830Y-110671427D01*
X87742021Y-110670038D01*
X87773214Y-110665097D01*
X87792665Y-110659446D01*
X87812763Y-110656907D01*
X87843354Y-110649053D01*
X87884468Y-110632775D01*
X87926918Y-110620442D01*
X87955906Y-110607898D01*
X87960409Y-110605235D01*
X88052220Y-110596879D01*
X88079736Y-110591231D01*
X88252244Y-110535180D01*
X88277825Y-110523576D01*
X88433629Y-110430698D01*
X88456004Y-110413715D01*
X88587358Y-110288628D01*
X88605414Y-110267109D01*
X88705791Y-110116029D01*
X88718631Y-110091046D01*
X88783043Y-109921482D01*
X88790029Y-109894274D01*
X88815273Y-109714653D01*
X88816487Y-109698875D01*
X88816804Y-109676158D01*
X88816031Y-109660355D01*
X88795812Y-109480100D01*
X88789588Y-109452708D01*
X88729936Y-109281411D01*
X88717799Y-109256078D01*
X88695786Y-109220850D01*
X88714030Y-109193390D01*
X88726870Y-109168407D01*
X88791282Y-108998843D01*
X88798268Y-108971635D01*
X88823512Y-108792014D01*
X88824726Y-108776236D01*
X88825043Y-108753519D01*
X88824270Y-108737716D01*
X88804051Y-108557461D01*
X88797827Y-108530069D01*
X88738175Y-108358772D01*
X88726038Y-108333440D01*
X88668628Y-108241564D01*
X88705791Y-108185629D01*
X88718631Y-108160646D01*
X88783043Y-107991082D01*
X88790029Y-107963874D01*
X88815273Y-107784253D01*
X88816487Y-107768475D01*
X88816804Y-107745758D01*
X88816031Y-107729955D01*
X88795812Y-107549700D01*
X88789588Y-107522308D01*
X88729936Y-107351011D01*
X88717799Y-107325679D01*
X88700639Y-107298216D01*
X88718569Y-107271229D01*
X88731409Y-107246246D01*
X88795821Y-107076682D01*
X88802807Y-107049474D01*
X88828051Y-106869853D01*
X88829265Y-106854075D01*
X88829582Y-106831358D01*
X88828809Y-106815555D01*
X88808590Y-106635300D01*
X88802366Y-106607908D01*
X88742714Y-106436611D01*
X88730577Y-106411279D01*
X88634458Y-106257455D01*
X88617010Y-106235440D01*
X88489199Y-106106734D01*
X88467307Y-106089133D01*
X88314158Y-105991942D01*
X88288911Y-105979628D01*
X88118035Y-105918782D01*
X88090687Y-105912367D01*
X87910577Y-105890890D01*
X87882487Y-105890694D01*
X87702095Y-105909654D01*
X87674661Y-105915686D01*
X87502952Y-105974140D01*
X87477535Y-105986101D01*
X87323044Y-106081145D01*
X87300908Y-106098439D01*
X87171313Y-106225348D01*
X87153560Y-106247116D01*
X87085038Y-106353441D01*
X87078819Y-106338427D01*
X87086247Y-106320495D01*
X87094760Y-106288723D01*
X87110422Y-106169758D01*
X87111500Y-106153312D01*
X87111499Y-105873543D01*
X87110421Y-105857098D01*
X87094760Y-105738132D01*
X87086247Y-105706359D01*
X87078819Y-105688427D01*
X87086247Y-105670495D01*
X87094760Y-105638723D01*
X87110422Y-105519758D01*
X87111500Y-105503312D01*
X87111499Y-105223543D01*
X87110421Y-105207098D01*
X87094760Y-105088132D01*
X87086247Y-105056359D01*
X87078819Y-105038427D01*
X87086247Y-105020495D01*
X87094760Y-104988723D01*
X87110422Y-104869758D01*
X87111500Y-104853312D01*
X87111499Y-104573543D01*
X87110421Y-104557098D01*
X87094760Y-104438132D01*
X87086247Y-104406359D01*
X87078548Y-104387773D01*
X87085759Y-104370365D01*
X87094272Y-104338594D01*
X87102003Y-104279874D01*
X87091064Y-104209725D01*
X87043936Y-104156626D01*
X86977081Y-104137427D01*
X86937569Y-104137427D01*
X86910949Y-104102736D01*
X86887691Y-104079478D01*
X86770335Y-103989427D01*
X86977080Y-103989427D01*
X87045201Y-103969425D01*
X87091694Y-103915769D01*
X87102002Y-103846982D01*
X87094272Y-103788262D01*
X87085759Y-103756489D01*
X87078277Y-103738427D01*
X87085759Y-103720365D01*
X87094272Y-103688594D01*
X87102003Y-103629874D01*
X87091064Y-103559725D01*
X87043936Y-103506626D01*
X86977081Y-103487427D01*
X85939500Y-103487427D01*
X85871379Y-103507429D01*
X85824886Y-103561085D01*
X85813500Y-103613427D01*
X85813500Y-103863427D01*
X85818051Y-103878928D01*
X85665500Y-103878928D01*
X85665500Y-103613427D01*
X85645498Y-103545306D01*
X85591842Y-103498813D01*
X85539500Y-103487427D01*
X84550859Y-103487427D01*
X84404180Y-103394342D01*
X84378933Y-103382028D01*
X84208057Y-103321182D01*
X84180709Y-103314767D01*
X84000599Y-103293290D01*
X83972509Y-103293094D01*
X83929500Y-103297614D01*
X83929500Y-103196980D01*
X84376997Y-103196980D01*
X84387936Y-103267129D01*
X84435064Y-103320228D01*
X84501919Y-103339427D01*
X85539500Y-103339427D01*
X85607621Y-103319425D01*
X85654114Y-103265769D01*
X85665500Y-103213427D01*
X85813500Y-103213427D01*
X85833502Y-103281548D01*
X85887158Y-103328041D01*
X85939500Y-103339427D01*
X86977080Y-103339427D01*
X87045201Y-103319425D01*
X87091694Y-103265769D01*
X87102002Y-103196982D01*
X87094272Y-103138262D01*
X87085759Y-103106489D01*
X87024496Y-102958586D01*
X87008049Y-102930100D01*
X86910592Y-102803093D01*
X86887334Y-102779835D01*
X86760327Y-102682378D01*
X86731841Y-102665931D01*
X86583938Y-102604668D01*
X86552166Y-102596155D01*
X86433293Y-102580505D01*
X86416847Y-102579427D01*
X85939500Y-102579427D01*
X85871379Y-102599429D01*
X85824886Y-102653085D01*
X85813500Y-102705427D01*
X85813500Y-103213427D01*
X85665500Y-103213427D01*
X85665500Y-102705428D01*
X85645498Y-102637307D01*
X85591842Y-102590814D01*
X85539500Y-102579428D01*
X85062154Y-102579428D01*
X85045709Y-102580506D01*
X84926835Y-102596155D01*
X84895062Y-102604668D01*
X84747159Y-102665931D01*
X84718673Y-102682378D01*
X84591666Y-102779835D01*
X84568408Y-102803093D01*
X84470951Y-102930100D01*
X84454504Y-102958586D01*
X84393241Y-103106489D01*
X84384728Y-103138260D01*
X84376997Y-103196980D01*
X83929500Y-103196980D01*
X83929500Y-101320767D01*
X83931640Y-101298133D01*
X83929500Y-101230043D01*
X83929500Y-101202144D01*
X83928507Y-101186356D01*
X83928001Y-101182353D01*
X83926612Y-101138152D01*
X83921671Y-101106957D01*
X83916019Y-101087504D01*
X83913481Y-101067412D01*
X83905626Y-101036820D01*
X83889350Y-100995710D01*
X83877014Y-100953252D01*
X83864471Y-100924267D01*
X83854159Y-100906831D01*
X83846704Y-100888001D01*
X83831489Y-100860323D01*
X83805501Y-100824553D01*
X83782995Y-100786498D01*
X83763637Y-100761543D01*
X83749316Y-100747222D01*
X83737408Y-100730832D01*
X83715787Y-100707808D01*
X83681722Y-100679627D01*
X83259300Y-100257204D01*
X83259300Y-97570568D01*
X83261440Y-97547934D01*
X83259300Y-97479844D01*
X83259300Y-97451944D01*
X83258307Y-97436156D01*
X83257801Y-97432153D01*
X83256412Y-97387952D01*
X83251471Y-97356758D01*
X83245818Y-97337300D01*
X83243280Y-97317211D01*
X83235426Y-97286619D01*
X83219152Y-97245515D01*
X83206816Y-97203055D01*
X83194274Y-97174070D01*
X83183959Y-97156628D01*
X83176503Y-97137797D01*
X83161288Y-97110122D01*
X83135300Y-97074352D01*
X83112795Y-97036299D01*
X83093437Y-97011343D01*
X83079116Y-96997022D01*
X83067208Y-96980632D01*
X83045589Y-96957609D01*
X83011513Y-96929418D01*
X82535333Y-96453238D01*
X82533298Y-96409275D01*
X82529926Y-96385580D01*
X82480368Y-96179945D01*
X82472576Y-96157315D01*
X82385027Y-95964762D01*
X82373096Y-95944013D01*
X82250716Y-95771489D01*
X82235077Y-95753371D01*
X82082281Y-95607101D01*
X82063498Y-95592267D01*
X82030742Y-95571116D01*
X82150407Y-95477118D01*
X82167739Y-95460613D01*
X82306308Y-95300927D01*
X82320207Y-95281441D01*
X82426080Y-95098432D01*
X82436044Y-95076670D01*
X82505401Y-94876943D01*
X82511070Y-94853685D01*
X82512463Y-94844075D01*
X82502440Y-94773790D01*
X82456009Y-94720081D01*
X82387766Y-94700000D01*
X79676483Y-94700000D01*
X79608362Y-94720002D01*
X79561869Y-94773658D01*
X79551765Y-94843932D01*
X79553990Y-94855521D01*
X79580107Y-94963891D01*
X79587899Y-94986521D01*
X79675408Y-95178988D01*
X79687339Y-95199737D01*
X79809664Y-95372183D01*
X79825303Y-95390301D01*
X79978030Y-95536505D01*
X79996813Y-95551339D01*
X80029230Y-95572270D01*
X79909247Y-95666518D01*
X79891915Y-95683024D01*
X79753283Y-95842783D01*
X79739384Y-95862268D01*
X79633463Y-96045359D01*
X79623499Y-96067121D01*
X79554111Y-96266938D01*
X79548443Y-96290191D01*
X79518091Y-96499524D01*
X79516922Y-96523430D01*
X79526702Y-96734725D01*
X79530074Y-96758420D01*
X79579632Y-96964055D01*
X79587424Y-96986685D01*
X79674973Y-97179238D01*
X79686904Y-97199987D01*
X79809284Y-97372511D01*
X79824923Y-97390629D01*
X79977719Y-97536899D01*
X79996502Y-97551733D01*
X80029258Y-97572884D01*
X79909593Y-97666882D01*
X79892261Y-97683387D01*
X79753692Y-97843073D01*
X79739793Y-97862559D01*
X79633920Y-98045568D01*
X79623956Y-98067330D01*
X79554599Y-98267057D01*
X79548930Y-98290315D01*
X79547537Y-98299925D01*
X79557560Y-98370210D01*
X79603991Y-98423919D01*
X79672234Y-98444000D01*
X81158000Y-98444000D01*
X81158000Y-98700000D01*
X79676483Y-98700000D01*
X79608362Y-98720002D01*
X79561869Y-98773658D01*
X79551765Y-98843932D01*
X79553990Y-98855521D01*
X79580107Y-98963891D01*
X79587899Y-98986521D01*
X79675408Y-99178988D01*
X79687339Y-99199737D01*
X79809664Y-99372183D01*
X79825303Y-99390301D01*
X79978030Y-99536505D01*
X79996813Y-99551339D01*
X80029230Y-99572270D01*
X79909247Y-99666518D01*
X79891915Y-99683024D01*
X79753283Y-99842783D01*
X79739384Y-99862268D01*
X79633463Y-100045359D01*
X79623499Y-100067121D01*
X79554111Y-100266938D01*
X79548443Y-100290191D01*
X79518091Y-100499524D01*
X79516922Y-100523430D01*
X79526702Y-100734725D01*
X79530074Y-100758420D01*
X79579632Y-100964055D01*
X79587424Y-100986685D01*
X79674973Y-101179238D01*
X79686904Y-101199987D01*
X79809284Y-101372511D01*
X79824923Y-101390629D01*
X79977719Y-101536899D01*
X79996502Y-101551733D01*
X80029258Y-101572884D01*
X79909593Y-101666882D01*
X79892261Y-101683387D01*
X79753692Y-101843073D01*
X79739793Y-101862559D01*
X79633920Y-102045568D01*
X79623956Y-102067330D01*
X79554599Y-102267057D01*
X79548930Y-102290315D01*
X79547537Y-102299925D01*
X79557560Y-102370210D01*
X79603991Y-102423919D01*
X79672234Y-102444000D01*
X81158000Y-102444000D01*
X81158000Y-102700000D01*
X79676483Y-102700000D01*
X79608362Y-102720002D01*
X79561869Y-102773658D01*
X79551765Y-102843932D01*
X79553990Y-102855521D01*
X79580107Y-102963891D01*
X79587899Y-102986521D01*
X79675408Y-103178988D01*
X79687339Y-103199737D01*
X79809664Y-103372183D01*
X79825303Y-103390301D01*
X79978030Y-103536505D01*
X79996813Y-103551339D01*
X80029230Y-103572270D01*
X79909247Y-103666518D01*
X79891915Y-103683024D01*
X79753283Y-103842783D01*
X79739384Y-103862268D01*
X79633463Y-104045359D01*
X79623499Y-104067121D01*
X79554111Y-104266938D01*
X79548443Y-104290191D01*
X79518091Y-104499524D01*
X79516922Y-104523430D01*
X79526702Y-104734725D01*
X79530074Y-104758420D01*
X79579632Y-104964055D01*
X79587424Y-104986685D01*
X79674973Y-105179238D01*
X79686904Y-105199987D01*
X79809284Y-105372511D01*
X79824923Y-105390629D01*
X79977719Y-105536899D01*
X79996502Y-105551733D01*
X80029258Y-105572884D01*
X79909593Y-105666882D01*
X79892261Y-105683387D01*
X79753692Y-105843073D01*
X79739793Y-105862559D01*
X79633920Y-106045568D01*
X79623956Y-106067330D01*
X79554599Y-106267057D01*
X79548930Y-106290315D01*
X79547537Y-106299925D01*
X79557560Y-106370210D01*
X79603991Y-106423919D01*
X79672234Y-106444000D01*
X81158000Y-106444000D01*
X81158000Y-106700000D01*
X79676483Y-106700000D01*
X79608362Y-106720002D01*
X79561869Y-106773658D01*
X79551765Y-106843932D01*
X79553990Y-106855521D01*
X79580107Y-106963891D01*
X79587899Y-106986521D01*
X79675408Y-107178988D01*
X79687339Y-107199737D01*
X79809664Y-107372183D01*
X79825303Y-107390301D01*
X79978030Y-107536505D01*
X79996813Y-107551339D01*
X80029230Y-107572270D01*
X79909247Y-107666518D01*
X79891915Y-107683024D01*
X79753283Y-107842783D01*
X79739384Y-107862268D01*
X79633463Y-108045359D01*
X79623499Y-108067121D01*
X79554111Y-108266938D01*
X79548443Y-108290191D01*
X79518091Y-108499524D01*
X79516922Y-108523430D01*
X78384000Y-108523430D01*
X78384000Y-92523430D01*
X79516922Y-92523430D01*
X79526702Y-92734725D01*
X79530074Y-92758420D01*
X79579632Y-92964055D01*
X79587424Y-92986685D01*
X79674973Y-93179238D01*
X79686904Y-93199987D01*
X79809284Y-93372511D01*
X79824923Y-93390629D01*
X79977719Y-93536899D01*
X79996502Y-93551733D01*
X80029258Y-93572884D01*
X79909593Y-93666882D01*
X79892261Y-93683387D01*
X79753692Y-93843073D01*
X79739793Y-93862559D01*
X79633920Y-94045568D01*
X79623956Y-94067330D01*
X79554599Y-94267057D01*
X79548930Y-94290315D01*
X79547537Y-94299925D01*
X79557560Y-94370210D01*
X79603991Y-94423919D01*
X79672234Y-94444000D01*
X82383517Y-94444000D01*
X82451638Y-94423998D01*
X82498131Y-94370342D01*
X82508235Y-94300068D01*
X82506010Y-94288479D01*
X82479893Y-94180109D01*
X82472101Y-94157479D01*
X82384592Y-93965012D01*
X82372661Y-93944263D01*
X82250336Y-93771817D01*
X82234697Y-93753699D01*
X82081970Y-93607495D01*
X82063187Y-93592661D01*
X82030770Y-93571730D01*
X82150753Y-93477482D01*
X82168085Y-93460976D01*
X82306717Y-93301217D01*
X82320616Y-93281732D01*
X82426537Y-93098641D01*
X82436501Y-93076879D01*
X82505889Y-92877062D01*
X82511557Y-92853809D01*
X82541909Y-92644476D01*
X82543078Y-92620570D01*
X82533298Y-92409275D01*
X82529926Y-92385580D01*
X82480368Y-92179945D01*
X82472576Y-92157315D01*
X82385027Y-91964762D01*
X82373096Y-91944013D01*
X82250716Y-91771489D01*
X82235077Y-91753371D01*
X82139813Y-91662176D01*
X82195651Y-91627622D01*
X82218521Y-91609496D01*
X82343478Y-91484321D01*
X82361565Y-91461419D01*
X82454375Y-91310854D01*
X82466708Y-91284405D01*
X82470497Y-91272982D01*
X85219628Y-91272982D01*
X85238996Y-91494358D01*
X85242810Y-91515987D01*
X85300325Y-91730636D01*
X85307837Y-91751275D01*
X85401752Y-91952675D01*
X85412733Y-91971694D01*
X85456971Y-92034874D01*
X85512428Y-92079204D01*
X85583047Y-92086514D01*
X85649280Y-92051700D01*
X86349885Y-91351095D01*
X86383911Y-91288783D01*
X86380080Y-91235217D01*
X86856089Y-91235217D01*
X86861154Y-91306032D01*
X86890115Y-91351095D01*
X87590720Y-92051700D01*
X87653032Y-92085726D01*
X87723847Y-92080661D01*
X87783029Y-92034874D01*
X87827267Y-91971694D01*
X87838248Y-91952675D01*
X87932163Y-91751275D01*
X87939675Y-91730636D01*
X87997190Y-91515987D01*
X88001004Y-91494358D01*
X88020372Y-91272982D01*
X88020372Y-91251018D01*
X88001004Y-91029642D01*
X87997190Y-91008013D01*
X87939675Y-90793364D01*
X87932163Y-90772725D01*
X87838248Y-90571325D01*
X87827267Y-90552306D01*
X87783029Y-90489126D01*
X87727572Y-90444796D01*
X87656953Y-90437486D01*
X87590720Y-90472300D01*
X86890115Y-91172905D01*
X86856089Y-91235217D01*
X86380080Y-91235217D01*
X86378846Y-91217968D01*
X86349885Y-91172905D01*
X85649280Y-90472300D01*
X85586968Y-90438274D01*
X85516153Y-90443339D01*
X85456971Y-90489126D01*
X85412733Y-90552306D01*
X85401752Y-90571325D01*
X85307837Y-90772725D01*
X85300325Y-90793364D01*
X85242810Y-91008013D01*
X85238996Y-91029642D01*
X85219628Y-91251018D01*
X85219628Y-91272982D01*
X82470497Y-91272982D01*
X82522390Y-91116528D01*
X82528141Y-91089704D01*
X82538844Y-90985243D01*
X82539500Y-90972400D01*
X82539500Y-90225047D01*
X85795486Y-90225047D01*
X85830300Y-90291280D01*
X86530905Y-90991885D01*
X86593217Y-91025911D01*
X86664032Y-91020846D01*
X86709095Y-90991885D01*
X87409700Y-90291280D01*
X87443726Y-90228968D01*
X87438661Y-90158153D01*
X87412271Y-90124043D01*
X88194745Y-90124043D01*
X88195821Y-90141149D01*
X88233346Y-90426180D01*
X88236734Y-90442982D01*
X88312595Y-90720284D01*
X88318232Y-90736471D01*
X88431026Y-91000911D01*
X88438807Y-91016182D01*
X88586445Y-91262867D01*
X88596227Y-91276942D01*
X88775979Y-91501309D01*
X88787580Y-91513925D01*
X88996118Y-91711820D01*
X89009325Y-91722745D01*
X89242791Y-91890508D01*
X89257358Y-91899540D01*
X89511433Y-92034066D01*
X89527091Y-92041038D01*
X89797072Y-92139837D01*
X89813531Y-92144619D01*
X90094422Y-92205863D01*
X90111378Y-92208367D01*
X90336853Y-92226112D01*
X90346739Y-92226500D01*
X90502271Y-92226500D01*
X90510841Y-92226208D01*
X90725395Y-92211581D01*
X90742376Y-92209255D01*
X91023893Y-92150956D01*
X91040402Y-92146347D01*
X91311403Y-92050380D01*
X91327133Y-92043573D01*
X91582602Y-91911716D01*
X91597263Y-91902837D01*
X91832474Y-91737528D01*
X91845794Y-91726741D01*
X92056393Y-91531040D01*
X92068126Y-91518546D01*
X92250217Y-91296074D01*
X92260146Y-91282103D01*
X92410360Y-91036977D01*
X92418300Y-91021787D01*
X92533856Y-90758543D01*
X92539662Y-90742417D01*
X92618423Y-90465925D01*
X92621987Y-90449159D01*
X92662494Y-90164537D01*
X92663749Y-90147444D01*
X92665255Y-89859957D01*
X92664179Y-89842851D01*
X92626654Y-89557820D01*
X92623266Y-89541018D01*
X92547405Y-89263716D01*
X92541768Y-89247529D01*
X92428974Y-88983089D01*
X92421193Y-88967818D01*
X92273555Y-88721133D01*
X92263773Y-88707058D01*
X92084021Y-88482691D01*
X92072420Y-88470075D01*
X91863882Y-88272180D01*
X91850675Y-88261255D01*
X91617209Y-88093492D01*
X91602642Y-88084460D01*
X91348567Y-87949934D01*
X91332909Y-87942962D01*
X91062928Y-87844163D01*
X91046469Y-87839381D01*
X90765578Y-87778137D01*
X90748622Y-87775633D01*
X90523147Y-87757888D01*
X90513261Y-87757500D01*
X90357729Y-87757500D01*
X90349159Y-87757792D01*
X90134605Y-87772419D01*
X90117624Y-87774745D01*
X89836107Y-87833044D01*
X89819598Y-87837653D01*
X89548597Y-87933620D01*
X89532867Y-87940427D01*
X89277398Y-88072284D01*
X89262737Y-88081163D01*
X89027526Y-88246472D01*
X89014206Y-88257259D01*
X88803607Y-88452960D01*
X88791874Y-88465454D01*
X88609783Y-88687926D01*
X88599854Y-88701897D01*
X88449640Y-88947023D01*
X88441700Y-88962213D01*
X88326144Y-89225457D01*
X88320338Y-89241583D01*
X88241577Y-89518075D01*
X88238013Y-89534841D01*
X88197506Y-89819463D01*
X88196251Y-89836556D01*
X88194745Y-90124043D01*
X87412271Y-90124043D01*
X87392875Y-90098972D01*
X87329696Y-90054734D01*
X87310676Y-90043752D01*
X87109275Y-89949837D01*
X87088636Y-89942325D01*
X86873987Y-89884810D01*
X86852358Y-89880996D01*
X86630982Y-89861628D01*
X86609018Y-89861628D01*
X86387642Y-89880996D01*
X86366013Y-89884810D01*
X86151364Y-89942325D01*
X86130725Y-89949837D01*
X85929325Y-90043752D01*
X85910306Y-90054733D01*
X85847126Y-90098971D01*
X85802796Y-90154428D01*
X85795486Y-90225047D01*
X82539500Y-90225047D01*
X82539500Y-90171600D01*
X82538827Y-90158596D01*
X82527853Y-90052830D01*
X82522050Y-90025958D01*
X82466074Y-89858178D01*
X82453694Y-89831751D01*
X82360622Y-89681349D01*
X82342496Y-89658479D01*
X82217321Y-89533522D01*
X82194419Y-89515435D01*
X82043854Y-89422625D01*
X82017405Y-89410292D01*
X81849528Y-89354610D01*
X81822704Y-89348859D01*
X81718243Y-89338156D01*
X81705400Y-89337500D01*
X80354600Y-89337500D01*
X80341596Y-89338173D01*
X80235830Y-89349147D01*
X80208958Y-89354950D01*
X80041178Y-89410926D01*
X80014751Y-89423306D01*
X79864349Y-89516378D01*
X79841479Y-89534504D01*
X79716522Y-89659679D01*
X79698435Y-89682581D01*
X79605625Y-89833146D01*
X79593292Y-89859595D01*
X79537610Y-90027472D01*
X79531859Y-90054296D01*
X79521156Y-90158757D01*
X79520500Y-90171600D01*
X79520500Y-90972400D01*
X79521173Y-90985404D01*
X79532147Y-91091170D01*
X79537950Y-91118042D01*
X79593926Y-91285822D01*
X79606306Y-91312249D01*
X79699378Y-91462651D01*
X79717504Y-91485521D01*
X79842679Y-91610478D01*
X79865581Y-91628565D01*
X79917120Y-91660334D01*
X79909247Y-91666518D01*
X79891915Y-91683024D01*
X79753283Y-91842783D01*
X79739384Y-91862268D01*
X79633463Y-92045359D01*
X79623499Y-92067121D01*
X79554111Y-92266938D01*
X79548443Y-92290191D01*
X79518091Y-92499524D01*
X79516922Y-92523430D01*
X78384000Y-92523430D01*
X78384000Y-82867590D01*
X79046055Y-82867590D01*
X79058693Y-82937453D01*
X79107096Y-82989392D01*
X79171339Y-83007000D01*
X80256000Y-83007000D01*
X80324121Y-82986998D01*
X80370614Y-82933342D01*
X80382000Y-82881000D01*
X80638000Y-82881000D01*
X80658002Y-82949121D01*
X80711658Y-82995614D01*
X80764000Y-83007000D01*
X81846459Y-83007000D01*
X81914580Y-82986998D01*
X81961073Y-82933342D01*
X81971177Y-82863068D01*
X81968663Y-82850304D01*
X81922159Y-82665167D01*
X81915505Y-82645621D01*
X81826462Y-82440835D01*
X81816704Y-82422637D01*
X81695409Y-82235143D01*
X81682810Y-82218783D01*
X81532521Y-82053618D01*
X81517420Y-82039536D01*
X81342173Y-81901135D01*
X81324975Y-81889709D01*
X81129477Y-81781788D01*
X81110643Y-81773323D01*
X80900144Y-81698781D01*
X80880180Y-81693507D01*
X80786096Y-81676748D01*
X80715524Y-81684494D01*
X80660342Y-81729164D01*
X80638000Y-81800795D01*
X80638000Y-82881000D01*
X80382000Y-82881000D01*
X80382000Y-81799987D01*
X80361998Y-81731866D01*
X80308342Y-81685373D01*
X80236940Y-81675437D01*
X80175148Y-81684893D01*
X80155063Y-81689678D01*
X79942805Y-81759054D01*
X79923770Y-81767056D01*
X79725694Y-81870168D01*
X79708221Y-81881171D01*
X79529645Y-82015250D01*
X79514204Y-82028959D01*
X79359925Y-82190403D01*
X79346931Y-82206450D01*
X79221091Y-82390924D01*
X79210891Y-82408878D01*
X79116871Y-82611428D01*
X79109742Y-82630806D01*
X79050065Y-82845992D01*
X79046198Y-82866254D01*
X79046055Y-82867590D01*
X78384000Y-82867590D01*
X78384000Y-80586000D01*
X82894300Y-80586000D01*
X82790489Y-80689991D01*
G37*
%TD.AperFunction*%
X92751472Y-102482390D02*
X92778296Y-102488141D01*
X92882757Y-102498844D01*
X92895600Y-102499500D01*
X93671400Y-102499500D01*
X93684404Y-102498827D01*
X93790170Y-102487853D01*
X93817042Y-102482050D01*
X93841140Y-102474011D01*
X93960598Y-102593469D01*
X93858331Y-102580005D01*
X93841885Y-102578927D01*
X92699923Y-102578928D01*
X92696120Y-102574025D01*
X92681795Y-102559700D01*
X92673103Y-102547736D01*
X92668612Y-102507700D01*
X92662388Y-102480308D01*
X92651574Y-102449256D01*
X92751472Y-102482390D02*
X92651574Y-102449256D01*
%TA.AperFunction,Conductor*%
G36*
X92751472Y-102482390D02*
G01*
X92778296Y-102488141D01*
X92882757Y-102498844D01*
X92895600Y-102499500D01*
X93671400Y-102499500D01*
X93684404Y-102498827D01*
X93790170Y-102487853D01*
X93817042Y-102482050D01*
X93841140Y-102474011D01*
X93960598Y-102593469D01*
X93858331Y-102580005D01*
X93841885Y-102578927D01*
X92699923Y-102578928D01*
X92696120Y-102574025D01*
X92681795Y-102559700D01*
X92673103Y-102547736D01*
X92668612Y-102507700D01*
X92662388Y-102480308D01*
X92651574Y-102449256D01*
X92751472Y-102482390D01*
G37*
%TD.AperFunction*%
X93155500Y-95849082D02*
X93155500Y-99780500D01*
X92895600Y-99780500D01*
X92882596Y-99781173D01*
X92776830Y-99792147D01*
X92749958Y-99797950D01*
X92582178Y-99853926D01*
X92555751Y-99866306D01*
X92405349Y-99959378D01*
X92382479Y-99977504D01*
X92257522Y-100102679D01*
X92245684Y-100117668D01*
X92233101Y-100101792D01*
X92108009Y-99976917D01*
X92085107Y-99958830D01*
X91934641Y-99866082D01*
X91908193Y-99853749D01*
X91740427Y-99798103D01*
X91713601Y-99792352D01*
X91609205Y-99781656D01*
X91596363Y-99781000D01*
X91462500Y-99781000D01*
X91394379Y-99801002D01*
X91347886Y-99854658D01*
X91336500Y-99907000D01*
X91336500Y-101268000D01*
X91080500Y-101268000D01*
X91080500Y-99907001D01*
X91060498Y-99838880D01*
X91006842Y-99792387D01*
X90964687Y-99783217D01*
X91023893Y-99770956D01*
X91040402Y-99766347D01*
X91311403Y-99670380D01*
X91327133Y-99663573D01*
X91582602Y-99531716D01*
X91597263Y-99522837D01*
X91832474Y-99357528D01*
X91845794Y-99346741D01*
X92056393Y-99151040D01*
X92068126Y-99138546D01*
X92250217Y-98916074D01*
X92260146Y-98902103D01*
X92410360Y-98656977D01*
X92418300Y-98641787D01*
X92533856Y-98378543D01*
X92539662Y-98362417D01*
X92618423Y-98085925D01*
X92621987Y-98069159D01*
X92662494Y-97784537D01*
X92663749Y-97767444D01*
X92665255Y-97479957D01*
X92664179Y-97462851D01*
X92626654Y-97177820D01*
X92623266Y-97161018D01*
X92547405Y-96883716D01*
X92541768Y-96867529D01*
X92428974Y-96603089D01*
X92421193Y-96587818D01*
X92273555Y-96341133D01*
X92263773Y-96327058D01*
X92084021Y-96102691D01*
X92072420Y-96090075D01*
X91863882Y-95892180D01*
X91850675Y-95881255D01*
X91617209Y-95713492D01*
X91602642Y-95704460D01*
X91348567Y-95569934D01*
X91332909Y-95562962D01*
X91062928Y-95464163D01*
X91046469Y-95459381D01*
X90765578Y-95398137D01*
X90748622Y-95395633D01*
X90523147Y-95377888D01*
X90513261Y-95377500D01*
X90357729Y-95377500D01*
X90349159Y-95377792D01*
X90134605Y-95392419D01*
X90117624Y-95394745D01*
X89836107Y-95453044D01*
X89819598Y-95457653D01*
X89548597Y-95553620D01*
X89532867Y-95560427D01*
X89277398Y-95692284D01*
X89262737Y-95701163D01*
X89027526Y-95866472D01*
X89014206Y-95877259D01*
X88803607Y-96072960D01*
X88791874Y-96085454D01*
X88609783Y-96307926D01*
X88599854Y-96321897D01*
X88507975Y-96471829D01*
X88492995Y-96446499D01*
X88473637Y-96421543D01*
X88459316Y-96407222D01*
X88447408Y-96390832D01*
X88425787Y-96367808D01*
X88391722Y-96339627D01*
X87945585Y-95893489D01*
X87940146Y-95873192D01*
X87932635Y-95852554D01*
X87838683Y-95651074D01*
X87827701Y-95632053D01*
X87700190Y-95449948D01*
X87686072Y-95433124D01*
X87528876Y-95275928D01*
X87512052Y-95261810D01*
X87329948Y-95134299D01*
X87310927Y-95123317D01*
X87200877Y-95072000D01*
X87310927Y-95020683D01*
X87329948Y-95009701D01*
X87348801Y-94996500D01*
X92302918Y-94996500D01*
X93155500Y-95849082D02*
X92302918Y-94996500D01*
%TA.AperFunction,Conductor*%
G36*
X93155500Y-95849082D02*
G01*
X93155500Y-99780500D01*
X92895600Y-99780500D01*
X92882596Y-99781173D01*
X92776830Y-99792147D01*
X92749958Y-99797950D01*
X92582178Y-99853926D01*
X92555751Y-99866306D01*
X92405349Y-99959378D01*
X92382479Y-99977504D01*
X92257522Y-100102679D01*
X92245684Y-100117668D01*
X92233101Y-100101792D01*
X92108009Y-99976917D01*
X92085107Y-99958830D01*
X91934641Y-99866082D01*
X91908193Y-99853749D01*
X91740427Y-99798103D01*
X91713601Y-99792352D01*
X91609205Y-99781656D01*
X91596363Y-99781000D01*
X91462500Y-99781000D01*
X91394379Y-99801002D01*
X91347886Y-99854658D01*
X91336500Y-99907000D01*
X91336500Y-101268000D01*
X91080500Y-101268000D01*
X91080500Y-99907001D01*
X91060498Y-99838880D01*
X91006842Y-99792387D01*
X90964687Y-99783217D01*
X91023893Y-99770956D01*
X91040402Y-99766347D01*
X91311403Y-99670380D01*
X91327133Y-99663573D01*
X91582602Y-99531716D01*
X91597263Y-99522837D01*
X91832474Y-99357528D01*
X91845794Y-99346741D01*
X92056393Y-99151040D01*
X92068126Y-99138546D01*
X92250217Y-98916074D01*
X92260146Y-98902103D01*
X92410360Y-98656977D01*
X92418300Y-98641787D01*
X92533856Y-98378543D01*
X92539662Y-98362417D01*
X92618423Y-98085925D01*
X92621987Y-98069159D01*
X92662494Y-97784537D01*
X92663749Y-97767444D01*
X92665255Y-97479957D01*
X92664179Y-97462851D01*
X92626654Y-97177820D01*
X92623266Y-97161018D01*
X92547405Y-96883716D01*
X92541768Y-96867529D01*
X92428974Y-96603089D01*
X92421193Y-96587818D01*
X92273555Y-96341133D01*
X92263773Y-96327058D01*
X92084021Y-96102691D01*
X92072420Y-96090075D01*
X91863882Y-95892180D01*
X91850675Y-95881255D01*
X91617209Y-95713492D01*
X91602642Y-95704460D01*
X91348567Y-95569934D01*
X91332909Y-95562962D01*
X91062928Y-95464163D01*
X91046469Y-95459381D01*
X90765578Y-95398137D01*
X90748622Y-95395633D01*
X90523147Y-95377888D01*
X90513261Y-95377500D01*
X90357729Y-95377500D01*
X90349159Y-95377792D01*
X90134605Y-95392419D01*
X90117624Y-95394745D01*
X89836107Y-95453044D01*
X89819598Y-95457653D01*
X89548597Y-95553620D01*
X89532867Y-95560427D01*
X89277398Y-95692284D01*
X89262737Y-95701163D01*
X89027526Y-95866472D01*
X89014206Y-95877259D01*
X88803607Y-96072960D01*
X88791874Y-96085454D01*
X88609783Y-96307926D01*
X88599854Y-96321897D01*
X88507975Y-96471829D01*
X88492995Y-96446499D01*
X88473637Y-96421543D01*
X88459316Y-96407222D01*
X88447408Y-96390832D01*
X88425787Y-96367808D01*
X88391722Y-96339627D01*
X87945585Y-95893489D01*
X87940146Y-95873192D01*
X87932635Y-95852554D01*
X87838683Y-95651074D01*
X87827701Y-95632053D01*
X87700190Y-95449948D01*
X87686072Y-95433124D01*
X87528876Y-95275928D01*
X87512052Y-95261810D01*
X87329948Y-95134299D01*
X87310927Y-95123317D01*
X87200877Y-95072000D01*
X87310927Y-95020683D01*
X87329948Y-95009701D01*
X87348801Y-94996500D01*
X92302918Y-94996500D01*
X93155500Y-95849082D01*
G37*
%TD.AperFunction*%
%TD*%
M02*
