%TF.GenerationSoftware,KiCad,Pcbnew,(6.0.1)*%
%TF.CreationDate,2022-07-04T21:25:44-07:00*%
%TF.ProjectId,mu100-dit,6d753130-302d-4646-9974-2e6b69636164,rev?*%
%TF.SameCoordinates,Original*%
%TF.FileFunction,Legend,Bot*%
%TF.FilePolarity,Positive*%
%FSLAX46Y46*%
G04 Gerber Fmt 4.6, Leading zero omitted, Abs format (unit mm)*
G04 Created by KiCad (PCBNEW (6.0.1)) date 2022-07-04 21:25:44*
%MOMM*%
%LPD*%
G01*
G04 APERTURE LIST*
G04 Aperture macros list*
%AMRoundRect*
0 Rectangle with rounded corners*
0 $1 Rounding radius*
0 $2 $3 $4 $5 $6 $7 $8 $9 X,Y pos of 4 corners*
0 Add a 4 corners polygon primitive as box body*
4,1,4,$2,$3,$4,$5,$6,$7,$8,$9,$2,$3,0*
0 Add four circle primitives for the rounded corners*
1,1,$1+$1,$2,$3*
1,1,$1+$1,$4,$5*
1,1,$1+$1,$6,$7*
1,1,$1+$1,$8,$9*
0 Add four rect primitives between the rounded corners*
20,1,$1+$1,$2,$3,$4,$5,0*
20,1,$1+$1,$4,$5,$6,$7,0*
20,1,$1+$1,$6,$7,$8,$9,0*
20,1,$1+$1,$8,$9,$2,$3,0*%
%AMFreePoly0*
4,1,13,0.500000,-0.500000,0.000000,-0.500000,-0.095671,-0.480970,-0.176777,-0.426777,-0.230970,-0.345671,-0.250000,-0.250000,-0.250000,0.250000,-0.230970,0.345671,-0.176777,0.426777,-0.095671,0.480970,0.000000,0.500000,0.500000,0.500000,0.500000,-0.500000,0.500000,-0.500000,$1*%
G04 Aperture macros list end*
%ADD10C,0.125000*%
%ADD11C,0.150000*%
%ADD12C,0.100000*%
%ADD13C,0.120000*%
%ADD14RoundRect,0.250000X-0.625000X0.350000X-0.625000X-0.350000X0.625000X-0.350000X0.625000X0.350000X0*%
%ADD15O,1.750000X1.200000*%
%ADD16C,5.700000*%
%ADD17C,3.600000*%
%ADD18C,3.200000*%
%ADD19C,1.524000*%
%ADD20R,1.700000X1.700000*%
%ADD21O,1.700000X1.700000*%
%ADD22FreePoly0,0.000000*%
%ADD23FreePoly0,180.000000*%
%ADD24RoundRect,0.250000X0.350000X0.450000X-0.350000X0.450000X-0.350000X-0.450000X0.350000X-0.450000X0*%
%ADD25RoundRect,0.250000X-0.350000X-0.450000X0.350000X-0.450000X0.350000X0.450000X-0.350000X0.450000X0*%
%ADD26RoundRect,0.250000X0.337500X0.475000X-0.337500X0.475000X-0.337500X-0.475000X0.337500X-0.475000X0*%
%ADD27C,0.800000*%
%ADD28C,0.500000*%
G04 APERTURE END LIST*
D10*
X45180952Y-100420000D02*
X45228571Y-100396190D01*
X45300000Y-100396190D01*
X45371428Y-100420000D01*
X45419047Y-100467619D01*
X45442857Y-100515238D01*
X45466666Y-100610476D01*
X45466666Y-100681904D01*
X45442857Y-100777142D01*
X45419047Y-100824761D01*
X45371428Y-100872380D01*
X45300000Y-100896190D01*
X45252380Y-100896190D01*
X45180952Y-100872380D01*
X45157142Y-100848571D01*
X45157142Y-100681904D01*
X45252380Y-100681904D01*
X44942857Y-100896190D02*
X44942857Y-100396190D01*
X44657142Y-100896190D01*
X44657142Y-100396190D01*
X44419047Y-100896190D02*
X44419047Y-100396190D01*
X44300000Y-100396190D01*
X44228571Y-100420000D01*
X44180952Y-100467619D01*
X44157142Y-100515238D01*
X44133333Y-100610476D01*
X44133333Y-100681904D01*
X44157142Y-100777142D01*
X44180952Y-100824761D01*
X44228571Y-100872380D01*
X44300000Y-100896190D01*
X44419047Y-100896190D01*
X45380952Y-112350000D02*
X45428571Y-112326190D01*
X45500000Y-112326190D01*
X45571428Y-112350000D01*
X45619047Y-112397619D01*
X45642857Y-112445238D01*
X45666666Y-112540476D01*
X45666666Y-112611904D01*
X45642857Y-112707142D01*
X45619047Y-112754761D01*
X45571428Y-112802380D01*
X45500000Y-112826190D01*
X45452380Y-112826190D01*
X45380952Y-112802380D01*
X45357142Y-112778571D01*
X45357142Y-112611904D01*
X45452380Y-112611904D01*
X45142857Y-112826190D02*
X45142857Y-112326190D01*
X44857142Y-112826190D01*
X44857142Y-112326190D01*
X44619047Y-112826190D02*
X44619047Y-112326190D01*
X44500000Y-112326190D01*
X44428571Y-112350000D01*
X44380952Y-112397619D01*
X44357142Y-112445238D01*
X44333333Y-112540476D01*
X44333333Y-112611904D01*
X44357142Y-112707142D01*
X44380952Y-112754761D01*
X44428571Y-112802380D01*
X44500000Y-112826190D01*
X44619047Y-112826190D01*
X45495238Y-114826190D02*
X45733333Y-114826190D01*
X45733333Y-114326190D01*
X45042857Y-114826190D02*
X45209523Y-114588095D01*
X45328571Y-114826190D02*
X45328571Y-114326190D01*
X45138095Y-114326190D01*
X45090476Y-114350000D01*
X45066666Y-114373809D01*
X45042857Y-114421428D01*
X45042857Y-114492857D01*
X45066666Y-114540476D01*
X45090476Y-114564285D01*
X45138095Y-114588095D01*
X45328571Y-114588095D01*
X44542857Y-114778571D02*
X44566666Y-114802380D01*
X44638095Y-114826190D01*
X44685714Y-114826190D01*
X44757142Y-114802380D01*
X44804761Y-114754761D01*
X44828571Y-114707142D01*
X44852380Y-114611904D01*
X44852380Y-114540476D01*
X44828571Y-114445238D01*
X44804761Y-114397619D01*
X44757142Y-114350000D01*
X44685714Y-114326190D01*
X44638095Y-114326190D01*
X44566666Y-114350000D01*
X44542857Y-114373809D01*
X44328571Y-114826190D02*
X44328571Y-114326190D01*
X44042857Y-114826190D02*
X44257142Y-114540476D01*
X44042857Y-114326190D02*
X44328571Y-114611904D01*
D11*
X57642857Y-118257142D02*
X57690476Y-118304761D01*
X57833333Y-118352380D01*
X57928571Y-118352380D01*
X58071428Y-118304761D01*
X58166666Y-118209523D01*
X58214285Y-118114285D01*
X58261904Y-117923809D01*
X58261904Y-117780952D01*
X58214285Y-117590476D01*
X58166666Y-117495238D01*
X58071428Y-117400000D01*
X57928571Y-117352380D01*
X57833333Y-117352380D01*
X57690476Y-117400000D01*
X57642857Y-117447619D01*
X57214285Y-118352380D02*
X57214285Y-117352380D01*
X56642857Y-118352380D02*
X57071428Y-117780952D01*
X56642857Y-117352380D02*
X57214285Y-117923809D01*
X56261904Y-118304761D02*
X56119047Y-118352380D01*
X55880952Y-118352380D01*
X55785714Y-118304761D01*
X55738095Y-118257142D01*
X55690476Y-118161904D01*
X55690476Y-118066666D01*
X55738095Y-117971428D01*
X55785714Y-117923809D01*
X55880952Y-117876190D01*
X56071428Y-117828571D01*
X56166666Y-117780952D01*
X56214285Y-117733333D01*
X56261904Y-117638095D01*
X56261904Y-117542857D01*
X56214285Y-117447619D01*
X56166666Y-117400000D01*
X56071428Y-117352380D01*
X55833333Y-117352380D01*
X55690476Y-117400000D01*
X55071428Y-117352380D02*
X54976190Y-117352380D01*
X54880952Y-117400000D01*
X54833333Y-117447619D01*
X54785714Y-117542857D01*
X54738095Y-117733333D01*
X54738095Y-117971428D01*
X54785714Y-118161904D01*
X54833333Y-118257142D01*
X54880952Y-118304761D01*
X54976190Y-118352380D01*
X55071428Y-118352380D01*
X55166666Y-118304761D01*
X55214285Y-118257142D01*
X55261904Y-118161904D01*
X55309523Y-117971428D01*
X55309523Y-117733333D01*
X55261904Y-117542857D01*
X55214285Y-117447619D01*
X55166666Y-117400000D01*
X55071428Y-117352380D01*
D12*
X60361904Y-118433333D02*
X60409523Y-118385714D01*
X60504761Y-118242857D01*
X60552380Y-118147619D01*
X60600000Y-118004761D01*
X60647619Y-117766666D01*
X60647619Y-117576190D01*
X60600000Y-117338095D01*
X60552380Y-117195238D01*
X60504761Y-117100000D01*
X60409523Y-116957142D01*
X60361904Y-116909523D01*
X59219047Y-117338095D02*
X59219047Y-117290476D01*
X59266666Y-117433333D02*
X59266666Y-117290476D01*
X59314285Y-117528571D02*
X59314285Y-117290476D01*
X59361904Y-117623809D02*
X59361904Y-117290476D01*
X59409523Y-117671428D02*
X59409523Y-117290476D01*
X59457142Y-117766666D02*
X59457142Y-117290476D01*
X59504761Y-117861904D02*
X59504761Y-117290476D01*
X59552380Y-117957142D02*
X59552380Y-117290476D01*
X59600000Y-118052380D02*
X59600000Y-117290476D01*
X59647619Y-117957142D02*
X59647619Y-117290476D01*
X59695238Y-117861904D02*
X59695238Y-117290476D01*
X59742857Y-117766666D02*
X59742857Y-117290476D01*
X59790476Y-117671428D02*
X59790476Y-117290476D01*
X59838095Y-117623809D02*
X59838095Y-117290476D01*
X59885714Y-117528571D02*
X59885714Y-117290476D01*
X59933333Y-117433333D02*
X59933333Y-117290476D01*
X59980952Y-117290476D02*
X59600000Y-118004761D01*
X59219047Y-117290476D01*
X59980952Y-117338095D02*
X59980952Y-117290476D01*
X59600000Y-118052380D02*
X60028571Y-117290476D01*
X59171428Y-117290476D01*
X59600000Y-118052380D01*
X58838095Y-118433333D02*
X58790476Y-118385714D01*
X58695238Y-118242857D01*
X58647619Y-118147619D01*
X58600000Y-118004761D01*
X58552380Y-117766666D01*
X58552380Y-117576190D01*
X58600000Y-117338095D01*
X58647619Y-117195238D01*
X58695238Y-117100000D01*
X58790476Y-116957142D01*
X58838095Y-116909523D01*
D11*
X60924285Y-112952380D02*
X60924285Y-111952380D01*
X60686190Y-111952380D01*
X60543333Y-112000000D01*
X60448095Y-112095238D01*
X60400476Y-112190476D01*
X60352857Y-112380952D01*
X60352857Y-112523809D01*
X60400476Y-112714285D01*
X60448095Y-112809523D01*
X60543333Y-112904761D01*
X60686190Y-112952380D01*
X60924285Y-112952380D01*
X59924285Y-112952380D02*
X59924285Y-111952380D01*
X59114762Y-112428571D02*
X59448095Y-112428571D01*
X59448095Y-112952380D02*
X59448095Y-111952380D01*
X58971904Y-111952380D01*
X58400476Y-111952380D02*
X58305238Y-111952380D01*
X58210000Y-112000000D01*
X58162381Y-112047619D01*
X58114762Y-112142857D01*
X58067143Y-112333333D01*
X58067143Y-112571428D01*
X58114762Y-112761904D01*
X58162381Y-112857142D01*
X58210000Y-112904761D01*
X58305238Y-112952380D01*
X58400476Y-112952380D01*
X58495714Y-112904761D01*
X58543333Y-112857142D01*
X58590952Y-112761904D01*
X58638571Y-112571428D01*
X58638571Y-112333333D01*
X58590952Y-112142857D01*
X58543333Y-112047619D01*
X58495714Y-112000000D01*
X58400476Y-111952380D01*
X60924285Y-108647380D02*
X60924285Y-107647380D01*
X60686190Y-107647380D01*
X60543333Y-107695000D01*
X60448095Y-107790238D01*
X60400476Y-107885476D01*
X60352857Y-108075952D01*
X60352857Y-108218809D01*
X60400476Y-108409285D01*
X60448095Y-108504523D01*
X60543333Y-108599761D01*
X60686190Y-108647380D01*
X60924285Y-108647380D01*
X59924285Y-108647380D02*
X59924285Y-107647380D01*
X59114762Y-108123571D02*
X59448095Y-108123571D01*
X59448095Y-108647380D02*
X59448095Y-107647380D01*
X58971904Y-107647380D01*
X58638571Y-107742619D02*
X58590952Y-107695000D01*
X58495714Y-107647380D01*
X58257619Y-107647380D01*
X58162381Y-107695000D01*
X58114762Y-107742619D01*
X58067143Y-107837857D01*
X58067143Y-107933095D01*
X58114762Y-108075952D01*
X58686190Y-108647380D01*
X58067143Y-108647380D01*
D10*
X45669047Y-102826190D02*
X45669047Y-102326190D01*
X45502380Y-102683333D01*
X45335714Y-102326190D01*
X45335714Y-102826190D01*
X44811904Y-102778571D02*
X44835714Y-102802380D01*
X44907142Y-102826190D01*
X44954761Y-102826190D01*
X45026190Y-102802380D01*
X45073809Y-102754761D01*
X45097619Y-102707142D01*
X45121428Y-102611904D01*
X45121428Y-102540476D01*
X45097619Y-102445238D01*
X45073809Y-102397619D01*
X45026190Y-102350000D01*
X44954761Y-102326190D01*
X44907142Y-102326190D01*
X44835714Y-102350000D01*
X44811904Y-102373809D01*
X44359523Y-102826190D02*
X44597619Y-102826190D01*
X44597619Y-102326190D01*
X44192857Y-102826190D02*
X44192857Y-102326190D01*
X43907142Y-102826190D02*
X44121428Y-102540476D01*
X43907142Y-102326190D02*
X44192857Y-102611904D01*
X45483333Y-110564285D02*
X45411904Y-110588095D01*
X45388095Y-110611904D01*
X45364285Y-110659523D01*
X45364285Y-110730952D01*
X45388095Y-110778571D01*
X45411904Y-110802380D01*
X45459523Y-110826190D01*
X45650000Y-110826190D01*
X45650000Y-110326190D01*
X45483333Y-110326190D01*
X45435714Y-110350000D01*
X45411904Y-110373809D01*
X45388095Y-110421428D01*
X45388095Y-110469047D01*
X45411904Y-110516666D01*
X45435714Y-110540476D01*
X45483333Y-110564285D01*
X45650000Y-110564285D01*
X45150000Y-110826190D02*
X45150000Y-110326190D01*
X44626190Y-110778571D02*
X44650000Y-110802380D01*
X44721428Y-110826190D01*
X44769047Y-110826190D01*
X44840476Y-110802380D01*
X44888095Y-110754761D01*
X44911904Y-110707142D01*
X44935714Y-110611904D01*
X44935714Y-110540476D01*
X44911904Y-110445238D01*
X44888095Y-110397619D01*
X44840476Y-110350000D01*
X44769047Y-110326190D01*
X44721428Y-110326190D01*
X44650000Y-110350000D01*
X44626190Y-110373809D01*
X44411904Y-110826190D02*
X44411904Y-110326190D01*
X44126190Y-110826190D02*
X44340476Y-110540476D01*
X44126190Y-110326190D02*
X44411904Y-110611904D01*
X45280952Y-108350000D02*
X45328571Y-108326190D01*
X45400000Y-108326190D01*
X45471428Y-108350000D01*
X45519047Y-108397619D01*
X45542857Y-108445238D01*
X45566666Y-108540476D01*
X45566666Y-108611904D01*
X45542857Y-108707142D01*
X45519047Y-108754761D01*
X45471428Y-108802380D01*
X45400000Y-108826190D01*
X45352380Y-108826190D01*
X45280952Y-108802380D01*
X45257142Y-108778571D01*
X45257142Y-108611904D01*
X45352380Y-108611904D01*
X45042857Y-108826190D02*
X45042857Y-108326190D01*
X44757142Y-108826190D01*
X44757142Y-108326190D01*
X44519047Y-108826190D02*
X44519047Y-108326190D01*
X44400000Y-108326190D01*
X44328571Y-108350000D01*
X44280952Y-108397619D01*
X44257142Y-108445238D01*
X44233333Y-108540476D01*
X44233333Y-108611904D01*
X44257142Y-108707142D01*
X44280952Y-108754761D01*
X44328571Y-108802380D01*
X44400000Y-108826190D01*
X44519047Y-108826190D01*
D11*
X54649523Y-111398571D02*
X54982857Y-111398571D01*
X54982857Y-111922380D02*
X54982857Y-110922380D01*
X54506666Y-110922380D01*
X54173333Y-111874761D02*
X54030476Y-111922380D01*
X53792380Y-111922380D01*
X53697142Y-111874761D01*
X53649523Y-111827142D01*
X53601904Y-111731904D01*
X53601904Y-111636666D01*
X53649523Y-111541428D01*
X53697142Y-111493809D01*
X53792380Y-111446190D01*
X53982857Y-111398571D01*
X54078095Y-111350952D01*
X54125714Y-111303333D01*
X54173333Y-111208095D01*
X54173333Y-111112857D01*
X54125714Y-111017619D01*
X54078095Y-110970000D01*
X53982857Y-110922380D01*
X53744761Y-110922380D01*
X53601904Y-110970000D01*
X53220952Y-111017619D02*
X53173333Y-110970000D01*
X53078095Y-110922380D01*
X52840000Y-110922380D01*
X52744761Y-110970000D01*
X52697142Y-111017619D01*
X52649523Y-111112857D01*
X52649523Y-111208095D01*
X52697142Y-111350952D01*
X53268571Y-111922380D01*
X52649523Y-111922380D01*
D10*
X45380952Y-104350000D02*
X45428571Y-104326190D01*
X45500000Y-104326190D01*
X45571428Y-104350000D01*
X45619047Y-104397619D01*
X45642857Y-104445238D01*
X45666666Y-104540476D01*
X45666666Y-104611904D01*
X45642857Y-104707142D01*
X45619047Y-104754761D01*
X45571428Y-104802380D01*
X45500000Y-104826190D01*
X45452380Y-104826190D01*
X45380952Y-104802380D01*
X45357142Y-104778571D01*
X45357142Y-104611904D01*
X45452380Y-104611904D01*
X45142857Y-104826190D02*
X45142857Y-104326190D01*
X44857142Y-104826190D01*
X44857142Y-104326190D01*
X44619047Y-104826190D02*
X44619047Y-104326190D01*
X44500000Y-104326190D01*
X44428571Y-104350000D01*
X44380952Y-104397619D01*
X44357142Y-104445238D01*
X44333333Y-104540476D01*
X44333333Y-104611904D01*
X44357142Y-104707142D01*
X44380952Y-104754761D01*
X44428571Y-104802380D01*
X44500000Y-104826190D01*
X44619047Y-104826190D01*
D11*
X52826190Y-119975714D02*
X52826190Y-120785238D01*
X52873809Y-120880476D01*
X52921428Y-120928095D01*
X53016666Y-120975714D01*
X53159523Y-120975714D01*
X53254761Y-120928095D01*
X52826190Y-120594761D02*
X52921428Y-120642380D01*
X53111904Y-120642380D01*
X53207142Y-120594761D01*
X53254761Y-120547142D01*
X53302380Y-120451904D01*
X53302380Y-120166190D01*
X53254761Y-120070952D01*
X53207142Y-120023333D01*
X53111904Y-119975714D01*
X52921428Y-119975714D01*
X52826190Y-120023333D01*
X52350000Y-120642380D02*
X52350000Y-119975714D01*
X52350000Y-119642380D02*
X52397619Y-119690000D01*
X52350000Y-119737619D01*
X52302380Y-119690000D01*
X52350000Y-119642380D01*
X52350000Y-119737619D01*
X52016666Y-119975714D02*
X51635714Y-119975714D01*
X51873809Y-119642380D02*
X51873809Y-120499523D01*
X51826190Y-120594761D01*
X51730952Y-120642380D01*
X51635714Y-120642380D01*
X51302380Y-120642380D02*
X51302380Y-119642380D01*
X50873809Y-120642380D02*
X50873809Y-120118571D01*
X50921428Y-120023333D01*
X51016666Y-119975714D01*
X51159523Y-119975714D01*
X51254761Y-120023333D01*
X51302380Y-120070952D01*
X49969047Y-119975714D02*
X49969047Y-120642380D01*
X50397619Y-119975714D02*
X50397619Y-120499523D01*
X50350000Y-120594761D01*
X50254761Y-120642380D01*
X50111904Y-120642380D01*
X50016666Y-120594761D01*
X49969047Y-120547142D01*
X49492857Y-120642380D02*
X49492857Y-119642380D01*
X49492857Y-120023333D02*
X49397619Y-119975714D01*
X49207142Y-119975714D01*
X49111904Y-120023333D01*
X49064285Y-120070952D01*
X49016666Y-120166190D01*
X49016666Y-120451904D01*
X49064285Y-120547142D01*
X49111904Y-120594761D01*
X49207142Y-120642380D01*
X49397619Y-120642380D01*
X49492857Y-120594761D01*
X48588095Y-120547142D02*
X48540476Y-120594761D01*
X48588095Y-120642380D01*
X48635714Y-120594761D01*
X48588095Y-120547142D01*
X48588095Y-120642380D01*
X47683333Y-120594761D02*
X47778571Y-120642380D01*
X47969047Y-120642380D01*
X48064285Y-120594761D01*
X48111904Y-120547142D01*
X48159523Y-120451904D01*
X48159523Y-120166190D01*
X48111904Y-120070952D01*
X48064285Y-120023333D01*
X47969047Y-119975714D01*
X47778571Y-119975714D01*
X47683333Y-120023333D01*
X47111904Y-120642380D02*
X47207142Y-120594761D01*
X47254761Y-120547142D01*
X47302380Y-120451904D01*
X47302380Y-120166190D01*
X47254761Y-120070952D01*
X47207142Y-120023333D01*
X47111904Y-119975714D01*
X46969047Y-119975714D01*
X46873809Y-120023333D01*
X46826190Y-120070952D01*
X46778571Y-120166190D01*
X46778571Y-120451904D01*
X46826190Y-120547142D01*
X46873809Y-120594761D01*
X46969047Y-120642380D01*
X47111904Y-120642380D01*
X46350000Y-120642380D02*
X46350000Y-119975714D01*
X46350000Y-120070952D02*
X46302380Y-120023333D01*
X46207142Y-119975714D01*
X46064285Y-119975714D01*
X45969047Y-120023333D01*
X45921428Y-120118571D01*
X45921428Y-120642380D01*
X45921428Y-120118571D02*
X45873809Y-120023333D01*
X45778571Y-119975714D01*
X45635714Y-119975714D01*
X45540476Y-120023333D01*
X45492857Y-120118571D01*
X45492857Y-120642380D01*
X44302380Y-119594761D02*
X45159523Y-120880476D01*
X52445238Y-121585714D02*
X52445238Y-122252380D01*
X52445238Y-121680952D02*
X52397619Y-121633333D01*
X52302380Y-121585714D01*
X52159523Y-121585714D01*
X52064285Y-121633333D01*
X52016666Y-121728571D01*
X52016666Y-122252380D01*
X51540476Y-122252380D02*
X51540476Y-121585714D01*
X51540476Y-121252380D02*
X51588095Y-121300000D01*
X51540476Y-121347619D01*
X51492857Y-121300000D01*
X51540476Y-121252380D01*
X51540476Y-121347619D01*
X51064285Y-122252380D02*
X51064285Y-121252380D01*
X50969047Y-121871428D02*
X50683333Y-122252380D01*
X50683333Y-121585714D02*
X51064285Y-121966666D01*
X50254761Y-122252380D02*
X50254761Y-121585714D01*
X50254761Y-121252380D02*
X50302380Y-121300000D01*
X50254761Y-121347619D01*
X50207142Y-121300000D01*
X50254761Y-121252380D01*
X50254761Y-121347619D01*
X49921428Y-121585714D02*
X49540476Y-121585714D01*
X49778571Y-121252380D02*
X49778571Y-122109523D01*
X49730952Y-122204761D01*
X49635714Y-122252380D01*
X49540476Y-122252380D01*
X48778571Y-122252380D02*
X48778571Y-121728571D01*
X48826190Y-121633333D01*
X48921428Y-121585714D01*
X49111904Y-121585714D01*
X49207142Y-121633333D01*
X48778571Y-122204761D02*
X48873809Y-122252380D01*
X49111904Y-122252380D01*
X49207142Y-122204761D01*
X49254761Y-122109523D01*
X49254761Y-122014285D01*
X49207142Y-121919047D01*
X49111904Y-121871428D01*
X48873809Y-121871428D01*
X48778571Y-121823809D01*
X48159523Y-122252380D02*
X48254761Y-122204761D01*
X48302380Y-122109523D01*
X48302380Y-121252380D01*
X47778571Y-122252380D02*
X47778571Y-121585714D01*
X47778571Y-121252380D02*
X47826190Y-121300000D01*
X47778571Y-121347619D01*
X47730952Y-121300000D01*
X47778571Y-121252380D01*
X47778571Y-121347619D01*
X47445238Y-121585714D02*
X47064285Y-121585714D01*
X47302380Y-121252380D02*
X47302380Y-122109523D01*
X47254761Y-122204761D01*
X47159523Y-122252380D01*
X47064285Y-122252380D01*
X46302380Y-122252380D02*
X46302380Y-121728571D01*
X46350000Y-121633333D01*
X46445238Y-121585714D01*
X46635714Y-121585714D01*
X46730952Y-121633333D01*
X46302380Y-122204761D02*
X46397619Y-122252380D01*
X46635714Y-122252380D01*
X46730952Y-122204761D01*
X46778571Y-122109523D01*
X46778571Y-122014285D01*
X46730952Y-121919047D01*
X46635714Y-121871428D01*
X46397619Y-121871428D01*
X46302380Y-121823809D01*
X45111904Y-121204761D02*
X45969047Y-122490476D01*
X52873809Y-123862380D02*
X52873809Y-122862380D01*
X52540476Y-123576666D01*
X52207142Y-122862380D01*
X52207142Y-123862380D01*
X51730952Y-122862380D02*
X51730952Y-123671904D01*
X51683333Y-123767142D01*
X51635714Y-123814761D01*
X51540476Y-123862380D01*
X51350000Y-123862380D01*
X51254761Y-123814761D01*
X51207142Y-123767142D01*
X51159523Y-123671904D01*
X51159523Y-122862380D01*
X50159523Y-123862380D02*
X50730952Y-123862380D01*
X50445238Y-123862380D02*
X50445238Y-122862380D01*
X50540476Y-123005238D01*
X50635714Y-123100476D01*
X50730952Y-123148095D01*
X49540476Y-122862380D02*
X49445238Y-122862380D01*
X49350000Y-122910000D01*
X49302380Y-122957619D01*
X49254761Y-123052857D01*
X49207142Y-123243333D01*
X49207142Y-123481428D01*
X49254761Y-123671904D01*
X49302380Y-123767142D01*
X49350000Y-123814761D01*
X49445238Y-123862380D01*
X49540476Y-123862380D01*
X49635714Y-123814761D01*
X49683333Y-123767142D01*
X49730952Y-123671904D01*
X49778571Y-123481428D01*
X49778571Y-123243333D01*
X49730952Y-123052857D01*
X49683333Y-122957619D01*
X49635714Y-122910000D01*
X49540476Y-122862380D01*
X48588095Y-122862380D02*
X48492857Y-122862380D01*
X48397619Y-122910000D01*
X48350000Y-122957619D01*
X48302380Y-123052857D01*
X48254761Y-123243333D01*
X48254761Y-123481428D01*
X48302380Y-123671904D01*
X48350000Y-123767142D01*
X48397619Y-123814761D01*
X48492857Y-123862380D01*
X48588095Y-123862380D01*
X48683333Y-123814761D01*
X48730952Y-123767142D01*
X48778571Y-123671904D01*
X48826190Y-123481428D01*
X48826190Y-123243333D01*
X48778571Y-123052857D01*
X48730952Y-122957619D01*
X48683333Y-122910000D01*
X48588095Y-122862380D01*
X47826190Y-123481428D02*
X47064285Y-123481428D01*
X46588095Y-123862380D02*
X46588095Y-122862380D01*
X46350000Y-122862380D01*
X46207142Y-122910000D01*
X46111904Y-123005238D01*
X46064285Y-123100476D01*
X46016666Y-123290952D01*
X46016666Y-123433809D01*
X46064285Y-123624285D01*
X46111904Y-123719523D01*
X46207142Y-123814761D01*
X46350000Y-123862380D01*
X46588095Y-123862380D01*
X45588095Y-123862380D02*
X45588095Y-122862380D01*
X45254761Y-122862380D02*
X44683333Y-122862380D01*
X44969047Y-123862380D02*
X44969047Y-122862380D01*
X54609523Y-106888571D02*
X54942857Y-106888571D01*
X54942857Y-107412380D02*
X54942857Y-106412380D01*
X54466666Y-106412380D01*
X54133333Y-107364761D02*
X53990476Y-107412380D01*
X53752380Y-107412380D01*
X53657142Y-107364761D01*
X53609523Y-107317142D01*
X53561904Y-107221904D01*
X53561904Y-107126666D01*
X53609523Y-107031428D01*
X53657142Y-106983809D01*
X53752380Y-106936190D01*
X53942857Y-106888571D01*
X54038095Y-106840952D01*
X54085714Y-106793333D01*
X54133333Y-106698095D01*
X54133333Y-106602857D01*
X54085714Y-106507619D01*
X54038095Y-106460000D01*
X53942857Y-106412380D01*
X53704761Y-106412380D01*
X53561904Y-106460000D01*
X52942857Y-106412380D02*
X52847619Y-106412380D01*
X52752380Y-106460000D01*
X52704761Y-106507619D01*
X52657142Y-106602857D01*
X52609523Y-106793333D01*
X52609523Y-107031428D01*
X52657142Y-107221904D01*
X52704761Y-107317142D01*
X52752380Y-107364761D01*
X52847619Y-107412380D01*
X52942857Y-107412380D01*
X53038095Y-107364761D01*
X53085714Y-107317142D01*
X53133333Y-107221904D01*
X53180952Y-107031428D01*
X53180952Y-106793333D01*
X53133333Y-106602857D01*
X53085714Y-106507619D01*
X53038095Y-106460000D01*
X52942857Y-106412380D01*
D10*
X45597619Y-106702380D02*
X45526190Y-106726190D01*
X45407142Y-106726190D01*
X45359523Y-106702380D01*
X45335714Y-106678571D01*
X45311904Y-106630952D01*
X45311904Y-106583333D01*
X45335714Y-106535714D01*
X45359523Y-106511904D01*
X45407142Y-106488095D01*
X45502380Y-106464285D01*
X45550000Y-106440476D01*
X45573809Y-106416666D01*
X45597619Y-106369047D01*
X45597619Y-106321428D01*
X45573809Y-106273809D01*
X45550000Y-106250000D01*
X45502380Y-106226190D01*
X45383333Y-106226190D01*
X45311904Y-106250000D01*
X45097619Y-106726190D02*
X45097619Y-106226190D01*
X44978571Y-106226190D01*
X44907142Y-106250000D01*
X44859523Y-106297619D01*
X44835714Y-106345238D01*
X44811904Y-106440476D01*
X44811904Y-106511904D01*
X44835714Y-106607142D01*
X44859523Y-106654761D01*
X44907142Y-106702380D01*
X44978571Y-106726190D01*
X45097619Y-106726190D01*
X44621428Y-106583333D02*
X44383333Y-106583333D01*
X44669047Y-106726190D02*
X44502380Y-106226190D01*
X44335714Y-106726190D01*
X44240476Y-106226190D02*
X43954761Y-106226190D01*
X44097619Y-106726190D02*
X44097619Y-106226190D01*
X45642857Y-98735714D02*
X45261904Y-98735714D01*
X45452380Y-98926190D02*
X45452380Y-98545238D01*
X44785714Y-98426190D02*
X45023809Y-98426190D01*
X45047619Y-98664285D01*
X45023809Y-98640476D01*
X44976190Y-98616666D01*
X44857142Y-98616666D01*
X44809523Y-98640476D01*
X44785714Y-98664285D01*
X44761904Y-98711904D01*
X44761904Y-98830952D01*
X44785714Y-98878571D01*
X44809523Y-98902380D01*
X44857142Y-98926190D01*
X44976190Y-98926190D01*
X45023809Y-98902380D01*
X45047619Y-98878571D01*
X44619047Y-98426190D02*
X44452380Y-98926190D01*
X44285714Y-98426190D01*
D11*
X60924285Y-110777380D02*
X60924285Y-109777380D01*
X60686190Y-109777380D01*
X60543333Y-109825000D01*
X60448095Y-109920238D01*
X60400476Y-110015476D01*
X60352857Y-110205952D01*
X60352857Y-110348809D01*
X60400476Y-110539285D01*
X60448095Y-110634523D01*
X60543333Y-110729761D01*
X60686190Y-110777380D01*
X60924285Y-110777380D01*
X59924285Y-110777380D02*
X59924285Y-109777380D01*
X59114762Y-110253571D02*
X59448095Y-110253571D01*
X59448095Y-110777380D02*
X59448095Y-109777380D01*
X58971904Y-109777380D01*
X58067143Y-110777380D02*
X58638571Y-110777380D01*
X58352857Y-110777380D02*
X58352857Y-109777380D01*
X58448095Y-109920238D01*
X58543333Y-110015476D01*
X58638571Y-110063095D01*
X54639523Y-113738571D02*
X54972857Y-113738571D01*
X54972857Y-114262380D02*
X54972857Y-113262380D01*
X54496666Y-113262380D01*
X54163333Y-114214761D02*
X54020476Y-114262380D01*
X53782380Y-114262380D01*
X53687142Y-114214761D01*
X53639523Y-114167142D01*
X53591904Y-114071904D01*
X53591904Y-113976666D01*
X53639523Y-113881428D01*
X53687142Y-113833809D01*
X53782380Y-113786190D01*
X53972857Y-113738571D01*
X54068095Y-113690952D01*
X54115714Y-113643333D01*
X54163333Y-113548095D01*
X54163333Y-113452857D01*
X54115714Y-113357619D01*
X54068095Y-113310000D01*
X53972857Y-113262380D01*
X53734761Y-113262380D01*
X53591904Y-113310000D01*
X53258571Y-113262380D02*
X52639523Y-113262380D01*
X52972857Y-113643333D01*
X52830000Y-113643333D01*
X52734761Y-113690952D01*
X52687142Y-113738571D01*
X52639523Y-113833809D01*
X52639523Y-114071904D01*
X52687142Y-114167142D01*
X52734761Y-114214761D01*
X52830000Y-114262380D01*
X53115714Y-114262380D01*
X53210952Y-114214761D01*
X53258571Y-114167142D01*
X51942857Y-118257142D02*
X51990476Y-118304761D01*
X52133333Y-118352380D01*
X52228571Y-118352380D01*
X52371428Y-118304761D01*
X52466666Y-118209523D01*
X52514285Y-118114285D01*
X52561904Y-117923809D01*
X52561904Y-117780952D01*
X52514285Y-117590476D01*
X52466666Y-117495238D01*
X52371428Y-117400000D01*
X52228571Y-117352380D01*
X52133333Y-117352380D01*
X51990476Y-117400000D01*
X51942857Y-117447619D01*
X51514285Y-118352380D02*
X51514285Y-117352380D01*
X50942857Y-118352380D02*
X51371428Y-117780952D01*
X50942857Y-117352380D02*
X51514285Y-117923809D01*
X50561904Y-118304761D02*
X50419047Y-118352380D01*
X50180952Y-118352380D01*
X50085714Y-118304761D01*
X50038095Y-118257142D01*
X49990476Y-118161904D01*
X49990476Y-118066666D01*
X50038095Y-117971428D01*
X50085714Y-117923809D01*
X50180952Y-117876190D01*
X50371428Y-117828571D01*
X50466666Y-117780952D01*
X50514285Y-117733333D01*
X50561904Y-117638095D01*
X50561904Y-117542857D01*
X50514285Y-117447619D01*
X50466666Y-117400000D01*
X50371428Y-117352380D01*
X50133333Y-117352380D01*
X49990476Y-117400000D01*
X49038095Y-118352380D02*
X49609523Y-118352380D01*
X49323809Y-118352380D02*
X49323809Y-117352380D01*
X49419047Y-117495238D01*
X49514285Y-117590476D01*
X49609523Y-117638095D01*
X54609523Y-109188571D02*
X54942857Y-109188571D01*
X54942857Y-109712380D02*
X54942857Y-108712380D01*
X54466666Y-108712380D01*
X54133333Y-109664761D02*
X53990476Y-109712380D01*
X53752380Y-109712380D01*
X53657142Y-109664761D01*
X53609523Y-109617142D01*
X53561904Y-109521904D01*
X53561904Y-109426666D01*
X53609523Y-109331428D01*
X53657142Y-109283809D01*
X53752380Y-109236190D01*
X53942857Y-109188571D01*
X54038095Y-109140952D01*
X54085714Y-109093333D01*
X54133333Y-108998095D01*
X54133333Y-108902857D01*
X54085714Y-108807619D01*
X54038095Y-108760000D01*
X53942857Y-108712380D01*
X53704761Y-108712380D01*
X53561904Y-108760000D01*
X52609523Y-109712380D02*
X53180952Y-109712380D01*
X52895238Y-109712380D02*
X52895238Y-108712380D01*
X52990476Y-108855238D01*
X53085714Y-108950476D01*
X53180952Y-108998095D01*
%TO.C,R1*%
X53286666Y-94252380D02*
X53620000Y-93776190D01*
X53858095Y-94252380D02*
X53858095Y-93252380D01*
X53477142Y-93252380D01*
X53381904Y-93300000D01*
X53334285Y-93347619D01*
X53286666Y-93442857D01*
X53286666Y-93585714D01*
X53334285Y-93680952D01*
X53381904Y-93728571D01*
X53477142Y-93776190D01*
X53858095Y-93776190D01*
X52334285Y-94252380D02*
X52905714Y-94252380D01*
X52620000Y-94252380D02*
X52620000Y-93252380D01*
X52715238Y-93395238D01*
X52810476Y-93490476D01*
X52905714Y-93538095D01*
%TO.C,R2*%
X53326666Y-89102380D02*
X53660000Y-88626190D01*
X53898095Y-89102380D02*
X53898095Y-88102380D01*
X53517142Y-88102380D01*
X53421904Y-88150000D01*
X53374285Y-88197619D01*
X53326666Y-88292857D01*
X53326666Y-88435714D01*
X53374285Y-88530952D01*
X53421904Y-88578571D01*
X53517142Y-88626190D01*
X53898095Y-88626190D01*
X52945714Y-88197619D02*
X52898095Y-88150000D01*
X52802857Y-88102380D01*
X52564761Y-88102380D01*
X52469523Y-88150000D01*
X52421904Y-88197619D01*
X52374285Y-88292857D01*
X52374285Y-88388095D01*
X52421904Y-88530952D01*
X52993333Y-89102380D01*
X52374285Y-89102380D01*
%TO.C,C4*%
X53356666Y-91547142D02*
X53404285Y-91594761D01*
X53547142Y-91642380D01*
X53642380Y-91642380D01*
X53785238Y-91594761D01*
X53880476Y-91499523D01*
X53928095Y-91404285D01*
X53975714Y-91213809D01*
X53975714Y-91070952D01*
X53928095Y-90880476D01*
X53880476Y-90785238D01*
X53785238Y-90690000D01*
X53642380Y-90642380D01*
X53547142Y-90642380D01*
X53404285Y-90690000D01*
X53356666Y-90737619D01*
X52499523Y-90975714D02*
X52499523Y-91642380D01*
X52737619Y-90594761D02*
X52975714Y-91309047D01*
X52356666Y-91309047D01*
D13*
%TO.C,JP3*%
X49840000Y-111220000D02*
X49840000Y-111820000D01*
X50330000Y-112230000D02*
X51790000Y-112230000D01*
X51730000Y-110730000D02*
X50250000Y-110730000D01*
X52217060Y-111737661D02*
X52217060Y-111137661D01*
X51809342Y-112225081D02*
G75*
G03*
X52219342Y-111735081I-72338J477059D01*
G01*
X50247718Y-110732580D02*
G75*
G03*
X49837718Y-111222580I72338J-477059D01*
G01*
X52217060Y-111137661D02*
G75*
G03*
X51727060Y-110727661I-477059J-72338D01*
G01*
X49840000Y-111820000D02*
G75*
G03*
X50330000Y-112230000I477059J72338D01*
G01*
%TO.C,R1*%
X50517064Y-94505000D02*
X50062936Y-94505000D01*
X50517064Y-93035000D02*
X50062936Y-93035000D01*
%TO.C,JP9*%
X51730000Y-115320000D02*
X50250000Y-115320000D01*
X50330000Y-116820000D02*
X51790000Y-116820000D01*
X52217060Y-116327661D02*
X52217060Y-115727661D01*
X49840000Y-115810000D02*
X49840000Y-116410000D01*
X52217060Y-115727661D02*
G75*
G03*
X51727060Y-115317661I-477059J-72338D01*
G01*
X51809342Y-116815081D02*
G75*
G03*
X52219342Y-116325081I-72338J477059D01*
G01*
X50247718Y-115322580D02*
G75*
G03*
X49837718Y-115812580I72338J-477059D01*
G01*
X49840000Y-116410000D02*
G75*
G03*
X50330000Y-116820000I477059J72338D01*
G01*
%TO.C,JP2*%
X50330000Y-109935000D02*
X51790000Y-109935000D01*
X52217060Y-109442661D02*
X52217060Y-108842661D01*
X51730000Y-108435000D02*
X50250000Y-108435000D01*
X49840000Y-108925000D02*
X49840000Y-109525000D01*
X52217060Y-108842661D02*
G75*
G03*
X51727060Y-108432661I-477059J-72338D01*
G01*
X49840000Y-109525000D02*
G75*
G03*
X50330000Y-109935000I477059J72338D01*
G01*
X51809342Y-109930081D02*
G75*
G03*
X52219342Y-109440081I-72338J477059D01*
G01*
X50247718Y-108437580D02*
G75*
G03*
X49837718Y-108927580I72338J-477059D01*
G01*
%TO.C,JP7*%
X57300000Y-107355000D02*
X55820000Y-107355000D01*
X57787060Y-108362661D02*
X57787060Y-107762661D01*
X55410000Y-107845000D02*
X55410000Y-108445000D01*
X55900000Y-108855000D02*
X57360000Y-108855000D01*
X55817718Y-107357580D02*
G75*
G03*
X55407718Y-107847580I72338J-477059D01*
G01*
X55410000Y-108445000D02*
G75*
G03*
X55900000Y-108855000I477059J72338D01*
G01*
X57379342Y-108850081D02*
G75*
G03*
X57789342Y-108360081I-72338J477059D01*
G01*
X57787060Y-107762661D02*
G75*
G03*
X57297060Y-107352661I-477059J-72338D01*
G01*
%TO.C,JP1*%
X50330000Y-107610000D02*
X51790000Y-107610000D01*
X52217060Y-107117661D02*
X52217060Y-106517661D01*
X49840000Y-106600000D02*
X49840000Y-107200000D01*
X51730000Y-106110000D02*
X50250000Y-106110000D01*
X50247718Y-106112580D02*
G75*
G03*
X49837718Y-106602580I72338J-477059D01*
G01*
X52217060Y-106517661D02*
G75*
G03*
X51727060Y-106107661I-477059J-72338D01*
G01*
X49840000Y-107200000D02*
G75*
G03*
X50330000Y-107610000I477059J72338D01*
G01*
X51809342Y-107605081D02*
G75*
G03*
X52219342Y-107115081I-72338J477059D01*
G01*
%TO.C,JP6*%
X55900000Y-111150000D02*
X57360000Y-111150000D01*
X55410000Y-110140000D02*
X55410000Y-110740000D01*
X57787060Y-110657661D02*
X57787060Y-110057661D01*
X57300000Y-109650000D02*
X55820000Y-109650000D01*
X55410000Y-110740000D02*
G75*
G03*
X55900000Y-111150000I477059J72338D01*
G01*
X57787060Y-110057661D02*
G75*
G03*
X57297060Y-109647661I-477059J-72338D01*
G01*
X57379342Y-111145081D02*
G75*
G03*
X57789342Y-110655081I-72338J477059D01*
G01*
X55817718Y-109652580D02*
G75*
G03*
X55407718Y-110142580I72338J-477059D01*
G01*
%TO.C,JP8*%
X55360000Y-115810000D02*
X55360000Y-116410000D01*
X57737060Y-116327661D02*
X57737060Y-115727661D01*
X57250000Y-115320000D02*
X55770000Y-115320000D01*
X55850000Y-116820000D02*
X57310000Y-116820000D01*
X55767718Y-115322580D02*
G75*
G03*
X55357718Y-115812580I72338J-477059D01*
G01*
X55360000Y-116410000D02*
G75*
G03*
X55850000Y-116820000I477059J72338D01*
G01*
X57329342Y-116815081D02*
G75*
G03*
X57739342Y-116325081I-72338J477059D01*
G01*
X57737060Y-115727661D02*
G75*
G03*
X57247060Y-115317661I-477059J-72338D01*
G01*
%TO.C,R2*%
X50012936Y-89385000D02*
X50467064Y-89385000D01*
X50012936Y-87915000D02*
X50467064Y-87915000D01*
%TO.C,C4*%
X50531252Y-91945000D02*
X50008748Y-91945000D01*
X50531252Y-90475000D02*
X50008748Y-90475000D01*
%TO.C,JP5*%
X55410000Y-112435000D02*
X55410000Y-113035000D01*
X57300000Y-111945000D02*
X55820000Y-111945000D01*
X55900000Y-113445000D02*
X57360000Y-113445000D01*
X57787060Y-112952661D02*
X57787060Y-112352661D01*
X55817718Y-111947580D02*
G75*
G03*
X55407718Y-112437580I72338J-477059D01*
G01*
X57379342Y-113440081D02*
G75*
G03*
X57789342Y-112950081I-72338J477059D01*
G01*
X57787060Y-112352661D02*
G75*
G03*
X57297060Y-111942661I-477059J-72338D01*
G01*
X55410000Y-113035000D02*
G75*
G03*
X55900000Y-113445000I477059J72338D01*
G01*
%TO.C,JP4*%
X49840000Y-113515000D02*
X49840000Y-114115000D01*
X50330000Y-114525000D02*
X51790000Y-114525000D01*
X51730000Y-113025000D02*
X50250000Y-113025000D01*
X52217060Y-114032661D02*
X52217060Y-113432661D01*
X49840000Y-114115000D02*
G75*
G03*
X50330000Y-114525000I477059J72338D01*
G01*
X50247718Y-113027580D02*
G75*
G03*
X49837718Y-113517580I72338J-477059D01*
G01*
X51809342Y-114520081D02*
G75*
G03*
X52219342Y-114030081I-72338J477059D01*
G01*
X52217060Y-113432661D02*
G75*
G03*
X51727060Y-113022661I-477059J-72338D01*
G01*
%TD*%
%LPC*%
D14*
%TO.C,J1*%
X46950000Y-96620000D03*
D15*
X46950000Y-98620000D03*
X46950000Y-100620000D03*
X46950000Y-102620000D03*
X46950000Y-104620000D03*
X46950000Y-106620000D03*
X46950000Y-108620000D03*
X46950000Y-110620000D03*
X46950000Y-112620000D03*
X46950000Y-114620000D03*
%TD*%
D16*
%TO.C,H1*%
X57270000Y-89500000D03*
D17*
X57270000Y-89500000D03*
%TD*%
D18*
%TO.C,U1*%
X56350000Y-96040000D03*
X56350000Y-103660000D03*
D19*
X52540000Y-97310000D03*
X52540000Y-99850000D03*
X52540000Y-102390000D03*
%TD*%
D16*
%TO.C,H2*%
X57270000Y-122500000D03*
D17*
X57270000Y-122500000D03*
%TD*%
D20*
%TO.C,J2*%
X46100000Y-91725000D03*
D21*
X46100000Y-89185000D03*
%TD*%
D22*
%TO.C,JP3*%
X50380000Y-111490000D03*
D23*
X51680000Y-111490000D03*
%TD*%
D24*
%TO.C,R1*%
X51290000Y-93770000D03*
X49290000Y-93770000D03*
%TD*%
D22*
%TO.C,JP9*%
X50380000Y-116080000D03*
D23*
X51680000Y-116080000D03*
%TD*%
D22*
%TO.C,JP2*%
X50380000Y-109195000D03*
D23*
X51680000Y-109195000D03*
%TD*%
D22*
%TO.C,JP7*%
X55950000Y-108115000D03*
D23*
X57250000Y-108115000D03*
%TD*%
D22*
%TO.C,JP1*%
X50380000Y-106870000D03*
D23*
X51680000Y-106870000D03*
%TD*%
D22*
%TO.C,JP6*%
X55950000Y-110410000D03*
D23*
X57250000Y-110410000D03*
%TD*%
D22*
%TO.C,JP8*%
X55900000Y-116080000D03*
D23*
X57200000Y-116080000D03*
%TD*%
D25*
%TO.C,R2*%
X49240000Y-88650000D03*
X51240000Y-88650000D03*
%TD*%
D26*
%TO.C,C4*%
X51307500Y-91210000D03*
X49232500Y-91210000D03*
%TD*%
D22*
%TO.C,JP5*%
X55950000Y-112705000D03*
D23*
X57250000Y-112705000D03*
%TD*%
D22*
%TO.C,JP4*%
X50380000Y-113785000D03*
D23*
X51680000Y-113785000D03*
%TD*%
D27*
X53120000Y-105330000D03*
X48770000Y-100930000D03*
X49980000Y-98590000D03*
X53580000Y-93970000D03*
X54990000Y-101400000D03*
X50890000Y-104800000D03*
X55050000Y-98750000D03*
X51920000Y-95680000D03*
D28*
X49180000Y-117370000D03*
X49900000Y-110320000D03*
X53759978Y-112940000D03*
X53741990Y-113900000D03*
X53743483Y-114800000D03*
X53750000Y-115690000D03*
X57100000Y-111680000D03*
X57880000Y-110720000D03*
X57700000Y-108900000D03*
X56800000Y-115100000D03*
X57800000Y-114600000D03*
M02*
