%TF.GenerationSoftware,KiCad,Pcbnew,(6.0.1)*%
%TF.CreationDate,2022-07-04T21:25:44-07:00*%
%TF.ProjectId,mu100-dit,6d753130-302d-4646-9974-2e6b69636164,rev?*%
%TF.SameCoordinates,Original*%
%TF.FileFunction,Legend,Top*%
%TF.FilePolarity,Positive*%
%FSLAX46Y46*%
G04 Gerber Fmt 4.6, Leading zero omitted, Abs format (unit mm)*
G04 Created by KiCad (PCBNEW (6.0.1)) date 2022-07-04 21:25:44*
%MOMM*%
%LPD*%
G01*
G04 APERTURE LIST*
G04 Aperture macros list*
%AMRoundRect*
0 Rectangle with rounded corners*
0 $1 Rounding radius*
0 $2 $3 $4 $5 $6 $7 $8 $9 X,Y pos of 4 corners*
0 Add a 4 corners polygon primitive as box body*
4,1,4,$2,$3,$4,$5,$6,$7,$8,$9,$2,$3,0*
0 Add four circle primitives for the rounded corners*
1,1,$1+$1,$2,$3*
1,1,$1+$1,$4,$5*
1,1,$1+$1,$6,$7*
1,1,$1+$1,$8,$9*
0 Add four rect primitives between the rounded corners*
20,1,$1+$1,$2,$3,$4,$5,0*
20,1,$1+$1,$4,$5,$6,$7,0*
20,1,$1+$1,$6,$7,$8,$9,0*
20,1,$1+$1,$8,$9,$2,$3,0*%
G04 Aperture macros list end*
%ADD10C,0.150000*%
%ADD11C,0.120000*%
%ADD12C,0.050000*%
%ADD13RoundRect,0.250000X-0.337500X-0.475000X0.337500X-0.475000X0.337500X0.475000X-0.337500X0.475000X0*%
%ADD14RoundRect,0.250000X-0.625000X0.350000X-0.625000X-0.350000X0.625000X-0.350000X0.625000X0.350000X0*%
%ADD15O,1.750000X1.200000*%
%ADD16RoundRect,0.100000X-0.637500X-0.100000X0.637500X-0.100000X0.637500X0.100000X-0.637500X0.100000X0*%
%ADD17C,5.700000*%
%ADD18C,3.600000*%
%ADD19C,3.200000*%
%ADD20C,1.524000*%
%ADD21R,1.900000X0.800000*%
%ADD22RoundRect,0.250000X0.337500X0.475000X-0.337500X0.475000X-0.337500X-0.475000X0.337500X-0.475000X0*%
%ADD23R,1.700000X1.700000*%
%ADD24O,1.700000X1.700000*%
%ADD25C,0.800000*%
%ADD26C,0.500000*%
G04 APERTURE END LIST*
D10*
X44940000Y-93455000D02*
X44420000Y-94385000D01*
X44940000Y-93455000D02*
X43900000Y-93455000D01*
X43900000Y-93460000D02*
X44420000Y-94390000D01*
X48648095Y-88900000D02*
X48552857Y-88852380D01*
X48410000Y-88852380D01*
X48267142Y-88900000D01*
X48171904Y-88995238D01*
X48124285Y-89090476D01*
X48076666Y-89280952D01*
X48076666Y-89423809D01*
X48124285Y-89614285D01*
X48171904Y-89709523D01*
X48267142Y-89804761D01*
X48410000Y-89852380D01*
X48505238Y-89852380D01*
X48648095Y-89804761D01*
X48695714Y-89757142D01*
X48695714Y-89423809D01*
X48505238Y-89423809D01*
X49124285Y-89852380D02*
X49124285Y-88852380D01*
X49695714Y-89852380D01*
X49695714Y-88852380D01*
X50171904Y-89852380D02*
X50171904Y-88852380D01*
X50410000Y-88852380D01*
X50552857Y-88900000D01*
X50648095Y-88995238D01*
X50695714Y-89090476D01*
X50743333Y-89280952D01*
X50743333Y-89423809D01*
X50695714Y-89614285D01*
X50648095Y-89709523D01*
X50552857Y-89804761D01*
X50410000Y-89852380D01*
X50171904Y-89852380D01*
X45112142Y-87347857D02*
X45076428Y-87383571D01*
X44969285Y-87419285D01*
X44897857Y-87419285D01*
X44790714Y-87383571D01*
X44719285Y-87312142D01*
X44683571Y-87240714D01*
X44647857Y-87097857D01*
X44647857Y-86990714D01*
X44683571Y-86847857D01*
X44719285Y-86776428D01*
X44790714Y-86705000D01*
X44897857Y-86669285D01*
X44969285Y-86669285D01*
X45076428Y-86705000D01*
X45112142Y-86740714D01*
X45540714Y-87419285D02*
X45469285Y-87383571D01*
X45433571Y-87347857D01*
X45397857Y-87276428D01*
X45397857Y-87062142D01*
X45433571Y-86990714D01*
X45469285Y-86955000D01*
X45540714Y-86919285D01*
X45647857Y-86919285D01*
X45719285Y-86955000D01*
X45755000Y-86990714D01*
X45790714Y-87062142D01*
X45790714Y-87276428D01*
X45755000Y-87347857D01*
X45719285Y-87383571D01*
X45647857Y-87419285D01*
X45540714Y-87419285D01*
X46433571Y-87419285D02*
X46433571Y-87026428D01*
X46397857Y-86955000D01*
X46326428Y-86919285D01*
X46183571Y-86919285D01*
X46112142Y-86955000D01*
X46433571Y-87383571D02*
X46362142Y-87419285D01*
X46183571Y-87419285D01*
X46112142Y-87383571D01*
X46076428Y-87312142D01*
X46076428Y-87240714D01*
X46112142Y-87169285D01*
X46183571Y-87133571D01*
X46362142Y-87133571D01*
X46433571Y-87097857D01*
X46719285Y-87419285D02*
X47112142Y-86919285D01*
X46719285Y-86919285D02*
X47112142Y-87419285D01*
X48183571Y-87705000D02*
X48147857Y-87669285D01*
X48076428Y-87562142D01*
X48040714Y-87490714D01*
X48005000Y-87383571D01*
X47969285Y-87205000D01*
X47969285Y-87062142D01*
X48005000Y-86883571D01*
X48040714Y-86776428D01*
X48076428Y-86705000D01*
X48147857Y-86597857D01*
X48183571Y-86562142D01*
X48612142Y-86669285D02*
X48755000Y-86669285D01*
X48826428Y-86705000D01*
X48897857Y-86776428D01*
X48933571Y-86919285D01*
X48933571Y-87169285D01*
X48897857Y-87312142D01*
X48826428Y-87383571D01*
X48755000Y-87419285D01*
X48612142Y-87419285D01*
X48540714Y-87383571D01*
X48469285Y-87312142D01*
X48433571Y-87169285D01*
X48433571Y-86919285D01*
X48469285Y-86776428D01*
X48540714Y-86705000D01*
X48612142Y-86669285D01*
X49255000Y-87419285D02*
X49255000Y-86669285D01*
X49540714Y-86669285D01*
X49612142Y-86705000D01*
X49647857Y-86740714D01*
X49683571Y-86812142D01*
X49683571Y-86919285D01*
X49647857Y-86990714D01*
X49612142Y-87026428D01*
X49540714Y-87062142D01*
X49255000Y-87062142D01*
X49897857Y-86669285D02*
X50326428Y-86669285D01*
X50112142Y-87419285D02*
X50112142Y-86669285D01*
X50576428Y-87347857D02*
X50612142Y-87383571D01*
X50576428Y-87419285D01*
X50540714Y-87383571D01*
X50576428Y-87347857D01*
X50576428Y-87419285D01*
X50862142Y-87705000D02*
X50897857Y-87669285D01*
X50969285Y-87562142D01*
X51005000Y-87490714D01*
X51040714Y-87383571D01*
X51076428Y-87205000D01*
X51076428Y-87062142D01*
X51040714Y-86883571D01*
X51005000Y-86776428D01*
X50969285Y-86705000D01*
X50897857Y-86597857D01*
X50862142Y-86562142D01*
X48489047Y-92071428D02*
X48536666Y-92023809D01*
X48631904Y-91976190D01*
X48822380Y-92071428D01*
X48917619Y-92023809D01*
X48965238Y-91976190D01*
%TO.C,C3*%
X51133333Y-123682142D02*
X51085714Y-123729761D01*
X50942857Y-123777380D01*
X50847619Y-123777380D01*
X50704761Y-123729761D01*
X50609523Y-123634523D01*
X50561904Y-123539285D01*
X50514285Y-123348809D01*
X50514285Y-123205952D01*
X50561904Y-123015476D01*
X50609523Y-122920238D01*
X50704761Y-122825000D01*
X50847619Y-122777380D01*
X50942857Y-122777380D01*
X51085714Y-122825000D01*
X51133333Y-122872619D01*
X51466666Y-122777380D02*
X52085714Y-122777380D01*
X51752380Y-123158333D01*
X51895238Y-123158333D01*
X51990476Y-123205952D01*
X52038095Y-123253571D01*
X52085714Y-123348809D01*
X52085714Y-123586904D01*
X52038095Y-123682142D01*
X51990476Y-123729761D01*
X51895238Y-123777380D01*
X51609523Y-123777380D01*
X51514285Y-123729761D01*
X51466666Y-123682142D01*
%TO.C,J1*%
X44296666Y-116942380D02*
X44296666Y-117656666D01*
X44249047Y-117799523D01*
X44153809Y-117894761D01*
X44010952Y-117942380D01*
X43915714Y-117942380D01*
X45296666Y-117942380D02*
X44725238Y-117942380D01*
X45010952Y-117942380D02*
X45010952Y-116942380D01*
X44915714Y-117085238D01*
X44820476Y-117180476D01*
X44725238Y-117228095D01*
%TO.C,U2*%
X54838095Y-117302380D02*
X54838095Y-118111904D01*
X54885714Y-118207142D01*
X54933333Y-118254761D01*
X55028571Y-118302380D01*
X55219047Y-118302380D01*
X55314285Y-118254761D01*
X55361904Y-118207142D01*
X55409523Y-118111904D01*
X55409523Y-117302380D01*
X55838095Y-117397619D02*
X55885714Y-117350000D01*
X55980952Y-117302380D01*
X56219047Y-117302380D01*
X56314285Y-117350000D01*
X56361904Y-117397619D01*
X56409523Y-117492857D01*
X56409523Y-117588095D01*
X56361904Y-117730952D01*
X55790476Y-118302380D01*
X56409523Y-118302380D01*
%TO.C,U1*%
X54338095Y-92582380D02*
X54338095Y-93391904D01*
X54385714Y-93487142D01*
X54433333Y-93534761D01*
X54528571Y-93582380D01*
X54719047Y-93582380D01*
X54814285Y-93534761D01*
X54861904Y-93487142D01*
X54909523Y-93391904D01*
X54909523Y-92582380D01*
X55909523Y-93582380D02*
X55338095Y-93582380D01*
X55623809Y-93582380D02*
X55623809Y-92582380D01*
X55528571Y-92725238D01*
X55433333Y-92820476D01*
X55338095Y-92868095D01*
%TO.C,C2*%
X61057142Y-107366666D02*
X61104761Y-107414285D01*
X61152380Y-107557142D01*
X61152380Y-107652380D01*
X61104761Y-107795238D01*
X61009523Y-107890476D01*
X60914285Y-107938095D01*
X60723809Y-107985714D01*
X60580952Y-107985714D01*
X60390476Y-107938095D01*
X60295238Y-107890476D01*
X60200000Y-107795238D01*
X60152380Y-107652380D01*
X60152380Y-107557142D01*
X60200000Y-107414285D01*
X60247619Y-107366666D01*
X60247619Y-106985714D02*
X60200000Y-106938095D01*
X60152380Y-106842857D01*
X60152380Y-106604761D01*
X60200000Y-106509523D01*
X60247619Y-106461904D01*
X60342857Y-106414285D01*
X60438095Y-106414285D01*
X60580952Y-106461904D01*
X61152380Y-107033333D01*
X61152380Y-106414285D01*
%TO.C,U3*%
X51238095Y-119302380D02*
X51238095Y-120111904D01*
X51285714Y-120207142D01*
X51333333Y-120254761D01*
X51428571Y-120302380D01*
X51619047Y-120302380D01*
X51714285Y-120254761D01*
X51761904Y-120207142D01*
X51809523Y-120111904D01*
X51809523Y-119302380D01*
X52190476Y-119302380D02*
X52809523Y-119302380D01*
X52476190Y-119683333D01*
X52619047Y-119683333D01*
X52714285Y-119730952D01*
X52761904Y-119778571D01*
X52809523Y-119873809D01*
X52809523Y-120111904D01*
X52761904Y-120207142D01*
X52714285Y-120254761D01*
X52619047Y-120302380D01*
X52333333Y-120302380D01*
X52238095Y-120254761D01*
X52190476Y-120207142D01*
%TO.C,C1*%
X55607142Y-107354666D02*
X55654761Y-107402285D01*
X55702380Y-107545142D01*
X55702380Y-107640380D01*
X55654761Y-107783238D01*
X55559523Y-107878476D01*
X55464285Y-107926095D01*
X55273809Y-107973714D01*
X55130952Y-107973714D01*
X54940476Y-107926095D01*
X54845238Y-107878476D01*
X54750000Y-107783238D01*
X54702380Y-107640380D01*
X54702380Y-107545142D01*
X54750000Y-107402285D01*
X54797619Y-107354666D01*
X55702380Y-106402285D02*
X55702380Y-106973714D01*
X55702380Y-106688000D02*
X54702380Y-106688000D01*
X54845238Y-106783238D01*
X54940476Y-106878476D01*
X54988095Y-106973714D01*
D11*
%TO.C,C3*%
X47988748Y-122540000D02*
X48511252Y-122540000D01*
X47988748Y-124010000D02*
X48511252Y-124010000D01*
%TO.C,J1*%
X45150000Y-113720000D02*
X44650000Y-113720000D01*
X44650000Y-99520000D02*
X45150000Y-99520000D01*
X44650000Y-113620000D02*
X45150000Y-113620000D01*
X44650000Y-107520000D02*
X45150000Y-107520000D01*
X46150000Y-116680000D02*
X46150000Y-116070000D01*
X48760000Y-97120000D02*
X48150000Y-97120000D01*
X44650000Y-103520000D02*
X45150000Y-103520000D01*
X45150000Y-103520000D02*
X45150000Y-103720000D01*
X45150000Y-107520000D02*
X45150000Y-107720000D01*
X44650000Y-113520000D02*
X45150000Y-113520000D01*
X45150000Y-99720000D02*
X44650000Y-99720000D01*
X45150000Y-109520000D02*
X45150000Y-109720000D01*
X44650000Y-111520000D02*
X45150000Y-111520000D01*
X44650000Y-97620000D02*
X45150000Y-97620000D01*
X45150000Y-103720000D02*
X44650000Y-103720000D01*
X45150000Y-113520000D02*
X45150000Y-113720000D01*
X44650000Y-107620000D02*
X45150000Y-107620000D01*
X44040000Y-116680000D02*
X48760000Y-116680000D01*
X48760000Y-94560000D02*
X44040000Y-94560000D01*
X44040000Y-94560000D02*
X44040000Y-116680000D01*
X45150000Y-97720000D02*
X44650000Y-97720000D01*
X49060000Y-94260000D02*
X47810000Y-94260000D01*
X47450000Y-94560000D02*
X47450000Y-95170000D01*
X44650000Y-101620000D02*
X45150000Y-101620000D01*
X45150000Y-107720000D02*
X44650000Y-107720000D01*
X45150000Y-111720000D02*
X44650000Y-111720000D01*
X44650000Y-105620000D02*
X45150000Y-105620000D01*
X44650000Y-99620000D02*
X45150000Y-99620000D01*
X44650000Y-111620000D02*
X45150000Y-111620000D01*
X45150000Y-105520000D02*
X45150000Y-105720000D01*
X44650000Y-97520000D02*
X45150000Y-97520000D01*
X45150000Y-111520000D02*
X45150000Y-111720000D01*
X44650000Y-95170000D02*
X44650000Y-116070000D01*
X45150000Y-101520000D02*
X45150000Y-101720000D01*
X45150000Y-97520000D02*
X45150000Y-97720000D01*
X44650000Y-101520000D02*
X45150000Y-101520000D01*
X48150000Y-97120000D02*
X48150000Y-95170000D01*
X45150000Y-109720000D02*
X44650000Y-109720000D01*
X49060000Y-95510000D02*
X49060000Y-94260000D01*
X48960000Y-96320000D02*
X48960000Y-96020000D01*
X46150000Y-94560000D02*
X46150000Y-95170000D01*
X44650000Y-109520000D02*
X45150000Y-109520000D01*
X47450000Y-116680000D02*
X47450000Y-116070000D01*
X44650000Y-116070000D02*
X48150000Y-116070000D01*
X48150000Y-95170000D02*
X44650000Y-95170000D01*
X45150000Y-105720000D02*
X44650000Y-105720000D01*
X45150000Y-99520000D02*
X45150000Y-99720000D01*
X44650000Y-105520000D02*
X45150000Y-105520000D01*
X48860000Y-96320000D02*
X48860000Y-96020000D01*
X48760000Y-116680000D02*
X48760000Y-94560000D01*
X48150000Y-114120000D02*
X48760000Y-114120000D01*
X45150000Y-101720000D02*
X44650000Y-101720000D01*
X44650000Y-109620000D02*
X45150000Y-109620000D01*
X44650000Y-103620000D02*
X45150000Y-103620000D01*
X48760000Y-96320000D02*
X48960000Y-96320000D01*
X48150000Y-116070000D02*
X48150000Y-114120000D01*
X48960000Y-96020000D02*
X48760000Y-96020000D01*
%TO.C,U2*%
X55372000Y-117071427D02*
X52322000Y-117071427D01*
X55372000Y-117071427D02*
X58422000Y-117071427D01*
X55372000Y-109001427D02*
X58422000Y-109001427D01*
X55372000Y-109001427D02*
X50922000Y-109001427D01*
D12*
%TO.C,U1*%
X61050000Y-93950000D02*
X49950000Y-93950000D01*
X49950000Y-93950000D02*
X49950000Y-105750000D01*
X49950000Y-105750000D02*
X61050000Y-105750000D01*
X61050000Y-105750000D02*
X61050000Y-93950000D01*
D11*
%TO.C,C2*%
X57904748Y-106453000D02*
X58427252Y-106453000D01*
X57904748Y-107923000D02*
X58427252Y-107923000D01*
%TO.C,U3*%
X49010000Y-121280000D02*
X47550000Y-121280000D01*
X49010000Y-121280000D02*
X49010000Y-120350000D01*
X49010000Y-118120000D02*
X49010000Y-119050000D01*
X49010000Y-118120000D02*
X45850000Y-118120000D01*
%TO.C,C1*%
X52839252Y-107923000D02*
X52316748Y-107923000D01*
X52839252Y-106453000D02*
X52316748Y-106453000D01*
%TO.C,J2*%
X47430000Y-87855000D02*
X44770000Y-87855000D01*
X47430000Y-91725000D02*
X47430000Y-93055000D01*
X44770000Y-90455000D02*
X44770000Y-87855000D01*
X47430000Y-93055000D02*
X46100000Y-93055000D01*
X47430000Y-90455000D02*
X47430000Y-87855000D01*
X47430000Y-90455000D02*
X44770000Y-90455000D01*
%TD*%
%LPC*%
D13*
%TO.C,C3*%
X47212500Y-123275000D03*
X49287500Y-123275000D03*
%TD*%
D14*
%TO.C,J1*%
X46950000Y-96620000D03*
D15*
X46950000Y-98620000D03*
X46950000Y-100620000D03*
X46950000Y-102620000D03*
X46950000Y-104620000D03*
X46950000Y-106620000D03*
X46950000Y-108620000D03*
X46950000Y-110620000D03*
X46950000Y-112620000D03*
X46950000Y-114620000D03*
%TD*%
D16*
%TO.C,U2*%
X51659500Y-109461427D03*
X51659500Y-110111427D03*
X51659500Y-110761427D03*
X51659500Y-111411427D03*
X51659500Y-112061427D03*
X51659500Y-112711427D03*
X51659500Y-113361427D03*
X51659500Y-114011427D03*
X51659500Y-114661427D03*
X51659500Y-115311427D03*
X51659500Y-115961427D03*
X51659500Y-116611427D03*
X59084500Y-116611427D03*
X59084500Y-115961427D03*
X59084500Y-115311427D03*
X59084500Y-114661427D03*
X59084500Y-114011427D03*
X59084500Y-113361427D03*
X59084500Y-112711427D03*
X59084500Y-112061427D03*
X59084500Y-111411427D03*
X59084500Y-110761427D03*
X59084500Y-110111427D03*
X59084500Y-109461427D03*
%TD*%
D17*
%TO.C,H1*%
X57270000Y-89500000D03*
D18*
X57270000Y-89500000D03*
%TD*%
D19*
%TO.C,U1*%
X56350000Y-96040000D03*
X56350000Y-103660000D03*
D20*
X52540000Y-97310000D03*
X52540000Y-99850000D03*
X52540000Y-102390000D03*
%TD*%
D13*
%TO.C,C2*%
X57128500Y-107188000D03*
X59203500Y-107188000D03*
%TD*%
D21*
%TO.C,U3*%
X46750000Y-118750000D03*
X46750000Y-120650000D03*
X49750000Y-119700000D03*
%TD*%
D22*
%TO.C,C1*%
X53615500Y-107188000D03*
X51540500Y-107188000D03*
%TD*%
D17*
%TO.C,H2*%
X57270000Y-122500000D03*
D18*
X57270000Y-122500000D03*
%TD*%
D23*
%TO.C,J2*%
X46100000Y-91725000D03*
D24*
X46100000Y-89185000D03*
%TD*%
D25*
X53120000Y-105330000D03*
X48770000Y-100930000D03*
X49980000Y-98590000D03*
X53580000Y-93970000D03*
X54990000Y-101400000D03*
X50890000Y-104800000D03*
X55050000Y-98750000D03*
X51920000Y-95680000D03*
D26*
X49180000Y-117370000D03*
X49900000Y-110320000D03*
X53759978Y-112940000D03*
X53741990Y-113900000D03*
X53743483Y-114800000D03*
X53750000Y-115690000D03*
X57100000Y-111680000D03*
X57880000Y-110720000D03*
X57700000Y-108900000D03*
X56800000Y-115100000D03*
X57800000Y-114600000D03*
M02*
