%TF.GenerationSoftware,KiCad,Pcbnew,(6.0.1)*%
%TF.CreationDate,2022-07-05T01:24:20-07:00*%
%TF.ProjectId,mu100-dit,6d753130-302d-4646-9974-2e6b69636164,rev?*%
%TF.SameCoordinates,PX4a25ef0PY4c3f880*%
%TF.FileFunction,Legend,Top*%
%TF.FilePolarity,Positive*%
%FSLAX46Y46*%
G04 Gerber Fmt 4.6, Leading zero omitted, Abs format (unit mm)*
G04 Created by KiCad (PCBNEW (6.0.1)) date 2022-07-05 01:24:20*
%MOMM*%
%LPD*%
G01*
G04 APERTURE LIST*
G04 Aperture macros list*
%AMRoundRect*
0 Rectangle with rounded corners*
0 $1 Rounding radius*
0 $2 $3 $4 $5 $6 $7 $8 $9 X,Y pos of 4 corners*
0 Add a 4 corners polygon primitive as box body*
4,1,4,$2,$3,$4,$5,$6,$7,$8,$9,$2,$3,0*
0 Add four circle primitives for the rounded corners*
1,1,$1+$1,$2,$3*
1,1,$1+$1,$4,$5*
1,1,$1+$1,$6,$7*
1,1,$1+$1,$8,$9*
0 Add four rect primitives between the rounded corners*
20,1,$1+$1,$2,$3,$4,$5,0*
20,1,$1+$1,$4,$5,$6,$7,0*
20,1,$1+$1,$6,$7,$8,$9,0*
20,1,$1+$1,$8,$9,$2,$3,0*%
G04 Aperture macros list end*
%ADD10C,0.150000*%
%ADD11C,0.120000*%
%ADD12C,0.050000*%
%ADD13RoundRect,0.250000X-0.337500X-0.475000X0.337500X-0.475000X0.337500X0.475000X-0.337500X0.475000X0*%
%ADD14RoundRect,0.250000X-0.625000X0.350000X-0.625000X-0.350000X0.625000X-0.350000X0.625000X0.350000X0*%
%ADD15O,1.750000X1.200000*%
%ADD16RoundRect,0.100000X-0.637500X-0.100000X0.637500X-0.100000X0.637500X0.100000X-0.637500X0.100000X0*%
%ADD17C,5.700000*%
%ADD18C,3.600000*%
%ADD19C,3.200000*%
%ADD20C,1.524000*%
%ADD21R,1.900000X0.800000*%
%ADD22RoundRect,0.250000X0.337500X0.475000X-0.337500X0.475000X-0.337500X-0.475000X0.337500X-0.475000X0*%
%ADD23R,1.700000X1.700000*%
%ADD24O,1.700000X1.700000*%
%ADD25C,0.800000*%
%ADD26C,0.600000*%
G04 APERTURE END LIST*
D10*
X79020000Y-87407000D02*
X78500000Y-88337000D01*
X79020000Y-87407000D02*
X77980000Y-87407000D01*
X77980000Y-87412000D02*
X78500000Y-88342000D01*
X83820095Y-82850000D02*
X83724857Y-82802380D01*
X83582000Y-82802380D01*
X83439142Y-82850000D01*
X83343904Y-82945238D01*
X83296285Y-83040476D01*
X83248666Y-83230952D01*
X83248666Y-83373809D01*
X83296285Y-83564285D01*
X83343904Y-83659523D01*
X83439142Y-83754761D01*
X83582000Y-83802380D01*
X83677238Y-83802380D01*
X83820095Y-83754761D01*
X83867714Y-83707142D01*
X83867714Y-83373809D01*
X83677238Y-83373809D01*
X84296285Y-83802380D02*
X84296285Y-82802380D01*
X84867714Y-83802380D01*
X84867714Y-82802380D01*
X85343904Y-83802380D02*
X85343904Y-82802380D01*
X85582000Y-82802380D01*
X85724857Y-82850000D01*
X85820095Y-82945238D01*
X85867714Y-83040476D01*
X85915333Y-83230952D01*
X85915333Y-83373809D01*
X85867714Y-83564285D01*
X85820095Y-83659523D01*
X85724857Y-83754761D01*
X85582000Y-83802380D01*
X85343904Y-83802380D01*
X79192142Y-81299857D02*
X79156428Y-81335571D01*
X79049285Y-81371285D01*
X78977857Y-81371285D01*
X78870714Y-81335571D01*
X78799285Y-81264142D01*
X78763571Y-81192714D01*
X78727857Y-81049857D01*
X78727857Y-80942714D01*
X78763571Y-80799857D01*
X78799285Y-80728428D01*
X78870714Y-80657000D01*
X78977857Y-80621285D01*
X79049285Y-80621285D01*
X79156428Y-80657000D01*
X79192142Y-80692714D01*
X79620714Y-81371285D02*
X79549285Y-81335571D01*
X79513571Y-81299857D01*
X79477857Y-81228428D01*
X79477857Y-81014142D01*
X79513571Y-80942714D01*
X79549285Y-80907000D01*
X79620714Y-80871285D01*
X79727857Y-80871285D01*
X79799285Y-80907000D01*
X79835000Y-80942714D01*
X79870714Y-81014142D01*
X79870714Y-81228428D01*
X79835000Y-81299857D01*
X79799285Y-81335571D01*
X79727857Y-81371285D01*
X79620714Y-81371285D01*
X80513571Y-81371285D02*
X80513571Y-80978428D01*
X80477857Y-80907000D01*
X80406428Y-80871285D01*
X80263571Y-80871285D01*
X80192142Y-80907000D01*
X80513571Y-81335571D02*
X80442142Y-81371285D01*
X80263571Y-81371285D01*
X80192142Y-81335571D01*
X80156428Y-81264142D01*
X80156428Y-81192714D01*
X80192142Y-81121285D01*
X80263571Y-81085571D01*
X80442142Y-81085571D01*
X80513571Y-81049857D01*
X80799285Y-81371285D02*
X81192142Y-80871285D01*
X80799285Y-80871285D02*
X81192142Y-81371285D01*
X82263571Y-81657000D02*
X82227857Y-81621285D01*
X82156428Y-81514142D01*
X82120714Y-81442714D01*
X82085000Y-81335571D01*
X82049285Y-81157000D01*
X82049285Y-81014142D01*
X82085000Y-80835571D01*
X82120714Y-80728428D01*
X82156428Y-80657000D01*
X82227857Y-80549857D01*
X82263571Y-80514142D01*
X82692142Y-80621285D02*
X82835000Y-80621285D01*
X82906428Y-80657000D01*
X82977857Y-80728428D01*
X83013571Y-80871285D01*
X83013571Y-81121285D01*
X82977857Y-81264142D01*
X82906428Y-81335571D01*
X82835000Y-81371285D01*
X82692142Y-81371285D01*
X82620714Y-81335571D01*
X82549285Y-81264142D01*
X82513571Y-81121285D01*
X82513571Y-80871285D01*
X82549285Y-80728428D01*
X82620714Y-80657000D01*
X82692142Y-80621285D01*
X83335000Y-81371285D02*
X83335000Y-80621285D01*
X83620714Y-80621285D01*
X83692142Y-80657000D01*
X83727857Y-80692714D01*
X83763571Y-80764142D01*
X83763571Y-80871285D01*
X83727857Y-80942714D01*
X83692142Y-80978428D01*
X83620714Y-81014142D01*
X83335000Y-81014142D01*
X83977857Y-80621285D02*
X84406428Y-80621285D01*
X84192142Y-81371285D02*
X84192142Y-80621285D01*
X84656428Y-81299857D02*
X84692142Y-81335571D01*
X84656428Y-81371285D01*
X84620714Y-81335571D01*
X84656428Y-81299857D01*
X84656428Y-81371285D01*
X84942142Y-81657000D02*
X84977857Y-81621285D01*
X85049285Y-81514142D01*
X85085000Y-81442714D01*
X85120714Y-81335571D01*
X85156428Y-81157000D01*
X85156428Y-81014142D01*
X85120714Y-80835571D01*
X85085000Y-80728428D01*
X85049285Y-80657000D01*
X84977857Y-80549857D01*
X84942142Y-80514142D01*
X83661047Y-86021428D02*
X83708666Y-85973809D01*
X83803904Y-85926190D01*
X83994380Y-86021428D01*
X84089619Y-85973809D01*
X84137238Y-85926190D01*
%TO.C,C3*%
X85213333Y-117634142D02*
X85165714Y-117681761D01*
X85022857Y-117729380D01*
X84927619Y-117729380D01*
X84784761Y-117681761D01*
X84689523Y-117586523D01*
X84641904Y-117491285D01*
X84594285Y-117300809D01*
X84594285Y-117157952D01*
X84641904Y-116967476D01*
X84689523Y-116872238D01*
X84784761Y-116777000D01*
X84927619Y-116729380D01*
X85022857Y-116729380D01*
X85165714Y-116777000D01*
X85213333Y-116824619D01*
X85546666Y-116729380D02*
X86165714Y-116729380D01*
X85832380Y-117110333D01*
X85975238Y-117110333D01*
X86070476Y-117157952D01*
X86118095Y-117205571D01*
X86165714Y-117300809D01*
X86165714Y-117538904D01*
X86118095Y-117634142D01*
X86070476Y-117681761D01*
X85975238Y-117729380D01*
X85689523Y-117729380D01*
X85594285Y-117681761D01*
X85546666Y-117634142D01*
%TO.C,J1*%
X78376666Y-110894380D02*
X78376666Y-111608666D01*
X78329047Y-111751523D01*
X78233809Y-111846761D01*
X78090952Y-111894380D01*
X77995714Y-111894380D01*
X79376666Y-111894380D02*
X78805238Y-111894380D01*
X79090952Y-111894380D02*
X79090952Y-110894380D01*
X78995714Y-111037238D01*
X78900476Y-111132476D01*
X78805238Y-111180095D01*
%TO.C,U2*%
X88918095Y-111254380D02*
X88918095Y-112063904D01*
X88965714Y-112159142D01*
X89013333Y-112206761D01*
X89108571Y-112254380D01*
X89299047Y-112254380D01*
X89394285Y-112206761D01*
X89441904Y-112159142D01*
X89489523Y-112063904D01*
X89489523Y-111254380D01*
X89918095Y-111349619D02*
X89965714Y-111302000D01*
X90060952Y-111254380D01*
X90299047Y-111254380D01*
X90394285Y-111302000D01*
X90441904Y-111349619D01*
X90489523Y-111444857D01*
X90489523Y-111540095D01*
X90441904Y-111682952D01*
X89870476Y-112254380D01*
X90489523Y-112254380D01*
%TO.C,U1*%
X88418095Y-86534380D02*
X88418095Y-87343904D01*
X88465714Y-87439142D01*
X88513333Y-87486761D01*
X88608571Y-87534380D01*
X88799047Y-87534380D01*
X88894285Y-87486761D01*
X88941904Y-87439142D01*
X88989523Y-87343904D01*
X88989523Y-86534380D01*
X89989523Y-87534380D02*
X89418095Y-87534380D01*
X89703809Y-87534380D02*
X89703809Y-86534380D01*
X89608571Y-86677238D01*
X89513333Y-86772476D01*
X89418095Y-86820095D01*
%TO.C,C2*%
X95137142Y-101318666D02*
X95184761Y-101366285D01*
X95232380Y-101509142D01*
X95232380Y-101604380D01*
X95184761Y-101747238D01*
X95089523Y-101842476D01*
X94994285Y-101890095D01*
X94803809Y-101937714D01*
X94660952Y-101937714D01*
X94470476Y-101890095D01*
X94375238Y-101842476D01*
X94280000Y-101747238D01*
X94232380Y-101604380D01*
X94232380Y-101509142D01*
X94280000Y-101366285D01*
X94327619Y-101318666D01*
X94327619Y-100937714D02*
X94280000Y-100890095D01*
X94232380Y-100794857D01*
X94232380Y-100556761D01*
X94280000Y-100461523D01*
X94327619Y-100413904D01*
X94422857Y-100366285D01*
X94518095Y-100366285D01*
X94660952Y-100413904D01*
X95232380Y-100985333D01*
X95232380Y-100366285D01*
%TO.C,U3*%
X85318095Y-113254380D02*
X85318095Y-114063904D01*
X85365714Y-114159142D01*
X85413333Y-114206761D01*
X85508571Y-114254380D01*
X85699047Y-114254380D01*
X85794285Y-114206761D01*
X85841904Y-114159142D01*
X85889523Y-114063904D01*
X85889523Y-113254380D01*
X86270476Y-113254380D02*
X86889523Y-113254380D01*
X86556190Y-113635333D01*
X86699047Y-113635333D01*
X86794285Y-113682952D01*
X86841904Y-113730571D01*
X86889523Y-113825809D01*
X86889523Y-114063904D01*
X86841904Y-114159142D01*
X86794285Y-114206761D01*
X86699047Y-114254380D01*
X86413333Y-114254380D01*
X86318095Y-114206761D01*
X86270476Y-114159142D01*
%TO.C,C1*%
X89687142Y-101306666D02*
X89734761Y-101354285D01*
X89782380Y-101497142D01*
X89782380Y-101592380D01*
X89734761Y-101735238D01*
X89639523Y-101830476D01*
X89544285Y-101878095D01*
X89353809Y-101925714D01*
X89210952Y-101925714D01*
X89020476Y-101878095D01*
X88925238Y-101830476D01*
X88830000Y-101735238D01*
X88782380Y-101592380D01*
X88782380Y-101497142D01*
X88830000Y-101354285D01*
X88877619Y-101306666D01*
X89782380Y-100354285D02*
X89782380Y-100925714D01*
X89782380Y-100640000D02*
X88782380Y-100640000D01*
X88925238Y-100735238D01*
X89020476Y-100830476D01*
X89068095Y-100925714D01*
D11*
%TO.C,C3*%
X82068748Y-116492000D02*
X82591252Y-116492000D01*
X82068748Y-117962000D02*
X82591252Y-117962000D01*
%TO.C,J1*%
X79230000Y-107672000D02*
X78730000Y-107672000D01*
X78730000Y-93472000D02*
X79230000Y-93472000D01*
X78730000Y-107572000D02*
X79230000Y-107572000D01*
X78730000Y-101472000D02*
X79230000Y-101472000D01*
X80230000Y-110632000D02*
X80230000Y-110022000D01*
X82840000Y-91072000D02*
X82230000Y-91072000D01*
X78730000Y-97472000D02*
X79230000Y-97472000D01*
X79230000Y-97472000D02*
X79230000Y-97672000D01*
X79230000Y-101472000D02*
X79230000Y-101672000D01*
X78730000Y-107472000D02*
X79230000Y-107472000D01*
X79230000Y-93672000D02*
X78730000Y-93672000D01*
X79230000Y-103472000D02*
X79230000Y-103672000D01*
X78730000Y-105472000D02*
X79230000Y-105472000D01*
X78730000Y-91572000D02*
X79230000Y-91572000D01*
X79230000Y-97672000D02*
X78730000Y-97672000D01*
X79230000Y-107472000D02*
X79230000Y-107672000D01*
X78730000Y-101572000D02*
X79230000Y-101572000D01*
X78120000Y-110632000D02*
X82840000Y-110632000D01*
X82840000Y-88512000D02*
X78120000Y-88512000D01*
X78120000Y-88512000D02*
X78120000Y-110632000D01*
X79230000Y-91672000D02*
X78730000Y-91672000D01*
X83140000Y-88212000D02*
X81890000Y-88212000D01*
X81530000Y-88512000D02*
X81530000Y-89122000D01*
X78730000Y-95572000D02*
X79230000Y-95572000D01*
X79230000Y-101672000D02*
X78730000Y-101672000D01*
X79230000Y-105672000D02*
X78730000Y-105672000D01*
X78730000Y-99572000D02*
X79230000Y-99572000D01*
X78730000Y-93572000D02*
X79230000Y-93572000D01*
X78730000Y-105572000D02*
X79230000Y-105572000D01*
X79230000Y-99472000D02*
X79230000Y-99672000D01*
X78730000Y-91472000D02*
X79230000Y-91472000D01*
X79230000Y-105472000D02*
X79230000Y-105672000D01*
X78730000Y-89122000D02*
X78730000Y-110022000D01*
X79230000Y-95472000D02*
X79230000Y-95672000D01*
X79230000Y-91472000D02*
X79230000Y-91672000D01*
X78730000Y-95472000D02*
X79230000Y-95472000D01*
X82230000Y-91072000D02*
X82230000Y-89122000D01*
X79230000Y-103672000D02*
X78730000Y-103672000D01*
X83140000Y-89462000D02*
X83140000Y-88212000D01*
X83040000Y-90272000D02*
X83040000Y-89972000D01*
X80230000Y-88512000D02*
X80230000Y-89122000D01*
X78730000Y-103472000D02*
X79230000Y-103472000D01*
X81530000Y-110632000D02*
X81530000Y-110022000D01*
X78730000Y-110022000D02*
X82230000Y-110022000D01*
X82230000Y-89122000D02*
X78730000Y-89122000D01*
X79230000Y-99672000D02*
X78730000Y-99672000D01*
X79230000Y-93472000D02*
X79230000Y-93672000D01*
X78730000Y-99472000D02*
X79230000Y-99472000D01*
X82940000Y-90272000D02*
X82940000Y-89972000D01*
X82840000Y-110632000D02*
X82840000Y-88512000D01*
X82230000Y-108072000D02*
X82840000Y-108072000D01*
X79230000Y-95672000D02*
X78730000Y-95672000D01*
X78730000Y-103572000D02*
X79230000Y-103572000D01*
X78730000Y-97572000D02*
X79230000Y-97572000D01*
X82840000Y-90272000D02*
X83040000Y-90272000D01*
X82230000Y-110022000D02*
X82230000Y-108072000D01*
X83040000Y-89972000D02*
X82840000Y-89972000D01*
%TO.C,U2*%
X89452000Y-111023427D02*
X86402000Y-111023427D01*
X89452000Y-111023427D02*
X92502000Y-111023427D01*
X89452000Y-102953427D02*
X92502000Y-102953427D01*
X89452000Y-102953427D02*
X85002000Y-102953427D01*
D12*
%TO.C,U1*%
X95130000Y-87902000D02*
X84030000Y-87902000D01*
X84030000Y-87902000D02*
X84030000Y-99702000D01*
X84030000Y-99702000D02*
X95130000Y-99702000D01*
X95130000Y-99702000D02*
X95130000Y-87902000D01*
D11*
%TO.C,C2*%
X91984748Y-100405000D02*
X92507252Y-100405000D01*
X91984748Y-101875000D02*
X92507252Y-101875000D01*
%TO.C,U3*%
X83090000Y-115232000D02*
X81630000Y-115232000D01*
X83090000Y-115232000D02*
X83090000Y-114302000D01*
X83090000Y-112072000D02*
X83090000Y-113002000D01*
X83090000Y-112072000D02*
X79930000Y-112072000D01*
%TO.C,C1*%
X86919252Y-101875000D02*
X86396748Y-101875000D01*
X86919252Y-100405000D02*
X86396748Y-100405000D01*
%TO.C,J2*%
X82240000Y-81805000D02*
X79580000Y-81805000D01*
X82240000Y-85675000D02*
X82240000Y-87005000D01*
X79580000Y-84405000D02*
X79580000Y-81805000D01*
X82240000Y-87005000D02*
X80910000Y-87005000D01*
X82240000Y-84405000D02*
X82240000Y-81805000D01*
X82240000Y-84405000D02*
X79580000Y-84405000D01*
%TD*%
%LPC*%
D13*
%TO.C,C3*%
X81292500Y-117227000D03*
X83367500Y-117227000D03*
%TD*%
D14*
%TO.C,J1*%
X81030000Y-90572000D03*
D15*
X81030000Y-92572000D03*
X81030000Y-94572000D03*
X81030000Y-96572000D03*
X81030000Y-98572000D03*
X81030000Y-100572000D03*
X81030000Y-102572000D03*
X81030000Y-104572000D03*
X81030000Y-106572000D03*
X81030000Y-108572000D03*
%TD*%
D16*
%TO.C,U2*%
X85739500Y-103413427D03*
X85739500Y-104063427D03*
X85739500Y-104713427D03*
X85739500Y-105363427D03*
X85739500Y-106013427D03*
X85739500Y-106663427D03*
X85739500Y-107313427D03*
X85739500Y-107963427D03*
X85739500Y-108613427D03*
X85739500Y-109263427D03*
X85739500Y-109913427D03*
X85739500Y-110563427D03*
X93164500Y-110563427D03*
X93164500Y-109913427D03*
X93164500Y-109263427D03*
X93164500Y-108613427D03*
X93164500Y-107963427D03*
X93164500Y-107313427D03*
X93164500Y-106663427D03*
X93164500Y-106013427D03*
X93164500Y-105363427D03*
X93164500Y-104713427D03*
X93164500Y-104063427D03*
X93164500Y-103413427D03*
%TD*%
D17*
%TO.C,H1*%
X91350000Y-83452000D03*
D18*
X91350000Y-83452000D03*
%TD*%
D19*
%TO.C,U1*%
X90430000Y-89992000D03*
X90430000Y-97612000D03*
D20*
X86620000Y-91262000D03*
X86620000Y-93802000D03*
X86620000Y-96342000D03*
%TD*%
D13*
%TO.C,C2*%
X91208500Y-101140000D03*
X93283500Y-101140000D03*
%TD*%
D21*
%TO.C,U3*%
X80830000Y-112702000D03*
X80830000Y-114602000D03*
X83830000Y-113652000D03*
%TD*%
D22*
%TO.C,C1*%
X87695500Y-101140000D03*
X85620500Y-101140000D03*
%TD*%
D17*
%TO.C,H2*%
X91350000Y-116452000D03*
D18*
X91350000Y-116452000D03*
%TD*%
D23*
%TO.C,J2*%
X80910000Y-85675000D03*
D24*
X80910000Y-83135000D03*
%TD*%
D25*
X87200000Y-99282000D03*
X82850000Y-94882000D03*
X84060000Y-92542000D03*
X87660000Y-87922000D03*
X89070000Y-95352000D03*
X84970000Y-98752000D03*
X89130000Y-92702000D03*
X86000000Y-89632000D03*
D26*
X83260000Y-111322000D03*
X84016400Y-104137200D03*
X87889978Y-106829600D03*
X87877200Y-107744000D03*
X87885439Y-108751761D03*
X87877200Y-109674400D03*
X91230000Y-105585000D03*
X92037242Y-104738927D03*
X91839600Y-102841800D03*
X90925200Y-109003500D03*
X91915800Y-108379000D03*
M02*
