%TF.GenerationSoftware,KiCad,Pcbnew,(6.0.1)*%
%TF.CreationDate,2022-07-17T12:11:28-07:00*%
%TF.ProjectId,mu100-dit,6d753130-302d-4646-9974-2e6b69636164,rev?*%
%TF.SameCoordinates,PX4a25ef0PY4c3f880*%
%TF.FileFunction,Soldermask,Bot*%
%TF.FilePolarity,Negative*%
%FSLAX46Y46*%
G04 Gerber Fmt 4.6, Leading zero omitted, Abs format (unit mm)*
G04 Created by KiCad (PCBNEW (6.0.1)) date 2022-07-17 12:11:28*
%MOMM*%
%LPD*%
G01*
G04 APERTURE LIST*
G04 Aperture macros list*
%AMRoundRect*
0 Rectangle with rounded corners*
0 $1 Rounding radius*
0 $2 $3 $4 $5 $6 $7 $8 $9 X,Y pos of 4 corners*
0 Add a 4 corners polygon primitive as box body*
4,1,4,$2,$3,$4,$5,$6,$7,$8,$9,$2,$3,0*
0 Add four circle primitives for the rounded corners*
1,1,$1+$1,$2,$3*
1,1,$1+$1,$4,$5*
1,1,$1+$1,$6,$7*
1,1,$1+$1,$8,$9*
0 Add four rect primitives between the rounded corners*
20,1,$1+$1,$2,$3,$4,$5,0*
20,1,$1+$1,$4,$5,$6,$7,0*
20,1,$1+$1,$6,$7,$8,$9,0*
20,1,$1+$1,$8,$9,$2,$3,0*%
%AMFreePoly0*
4,1,13,0.500000,-0.500000,0.000000,-0.500000,-0.095671,-0.480970,-0.176777,-0.426777,-0.230970,-0.345671,-0.250000,-0.250000,-0.250000,0.250000,-0.230970,0.345671,-0.176777,0.426777,-0.095671,0.480970,0.000000,0.500000,0.500000,0.500000,0.500000,-0.500000,0.500000,-0.500000,$1*%
G04 Aperture macros list end*
%ADD10C,3.200000*%
%ADD11C,1.524000*%
%ADD12RoundRect,0.250000X-0.625000X0.350000X-0.625000X-0.350000X0.625000X-0.350000X0.625000X0.350000X0*%
%ADD13O,1.750000X1.200000*%
%ADD14C,5.700000*%
%ADD15C,3.600000*%
%ADD16R,1.700000X1.700000*%
%ADD17O,1.700000X1.700000*%
%ADD18FreePoly0,0.000000*%
%ADD19FreePoly0,180.000000*%
%ADD20C,0.800000*%
%ADD21C,0.750000*%
%ADD22C,0.600000*%
G04 APERTURE END LIST*
D10*
%TO.C,U1*%
X90430000Y-97612000D03*
X90430000Y-89992000D03*
D11*
X86620000Y-91262000D03*
X86620000Y-93802000D03*
X86620000Y-96342000D03*
%TD*%
D12*
%TO.C,J1*%
X81030000Y-90572000D03*
D13*
X81030000Y-92572000D03*
X81030000Y-94572000D03*
X81030000Y-96572000D03*
X81030000Y-98572000D03*
X81030000Y-100572000D03*
X81030000Y-102572000D03*
X81030000Y-104572000D03*
X81030000Y-106572000D03*
X81030000Y-108572000D03*
%TD*%
D14*
%TO.C,H1*%
X91350000Y-83452000D03*
D15*
X91350000Y-83452000D03*
%TD*%
D14*
%TO.C,H2*%
X91350000Y-116452000D03*
D15*
X91350000Y-116452000D03*
%TD*%
D16*
%TO.C,J2*%
X80510000Y-85675000D03*
D17*
X80510000Y-83135000D03*
%TD*%
D18*
%TO.C,JP3*%
X84560000Y-105442000D03*
D19*
X85860000Y-105442000D03*
%TD*%
D18*
%TO.C,JP9*%
X84560000Y-110032000D03*
D19*
X85860000Y-110032000D03*
%TD*%
D18*
%TO.C,JP2*%
X84560000Y-103147000D03*
D19*
X85860000Y-103147000D03*
%TD*%
D18*
%TO.C,JP7*%
X90030000Y-102067000D03*
D19*
X91330000Y-102067000D03*
%TD*%
D18*
%TO.C,JP1*%
X84560000Y-100822000D03*
D19*
X85860000Y-100822000D03*
%TD*%
D18*
%TO.C,JP6*%
X90030000Y-104362000D03*
D19*
X91330000Y-104362000D03*
%TD*%
D18*
%TO.C,JP8*%
X89980000Y-110032000D03*
D19*
X91280000Y-110032000D03*
%TD*%
D18*
%TO.C,JP5*%
X90030000Y-106657000D03*
D19*
X91330000Y-106657000D03*
%TD*%
D18*
%TO.C,JP4*%
X84560000Y-107737000D03*
D19*
X85860000Y-107737000D03*
%TD*%
D20*
X88110000Y-113772000D03*
X87480000Y-111482000D03*
X90030000Y-111532000D03*
X81763200Y-88054600D03*
X87500000Y-99482000D03*
D21*
X83300000Y-96802600D03*
X83990000Y-101972000D03*
D20*
X85930000Y-113752000D03*
X92750000Y-99122000D03*
D21*
X83300000Y-99738600D03*
D20*
X84060000Y-92542000D03*
X79248600Y-117290000D03*
X87850000Y-87882000D03*
X78715200Y-114623000D03*
D21*
X83300000Y-95352000D03*
X83300000Y-98270600D03*
D20*
X92430000Y-95692000D03*
X85300000Y-98872000D03*
X89130000Y-92702000D03*
X87910000Y-81082000D03*
D22*
X83330000Y-111502000D03*
X83980000Y-104232000D03*
X87889978Y-106829600D03*
X87877200Y-107744000D03*
X87885439Y-108751761D03*
X87877200Y-109674400D03*
D20*
X83846000Y-87978400D03*
D22*
X91999400Y-105388927D03*
X91999400Y-104564600D03*
X91839600Y-102841800D03*
X90925200Y-109003500D03*
X91915800Y-108379000D03*
M02*
