%TF.GenerationSoftware,KiCad,Pcbnew,(6.0.1)*%
%TF.CreationDate,2022-07-17T12:11:28-07:00*%
%TF.ProjectId,mu100-dit,6d753130-302d-4646-9974-2e6b69636164,rev?*%
%TF.SameCoordinates,PX4a25ef0PY4c3f880*%
%TF.FileFunction,Legend,Bot*%
%TF.FilePolarity,Positive*%
%FSLAX46Y46*%
G04 Gerber Fmt 4.6, Leading zero omitted, Abs format (unit mm)*
G04 Created by KiCad (PCBNEW (6.0.1)) date 2022-07-17 12:11:28*
%MOMM*%
%LPD*%
G01*
G04 APERTURE LIST*
G04 Aperture macros list*
%AMRoundRect*
0 Rectangle with rounded corners*
0 $1 Rounding radius*
0 $2 $3 $4 $5 $6 $7 $8 $9 X,Y pos of 4 corners*
0 Add a 4 corners polygon primitive as box body*
4,1,4,$2,$3,$4,$5,$6,$7,$8,$9,$2,$3,0*
0 Add four circle primitives for the rounded corners*
1,1,$1+$1,$2,$3*
1,1,$1+$1,$4,$5*
1,1,$1+$1,$6,$7*
1,1,$1+$1,$8,$9*
0 Add four rect primitives between the rounded corners*
20,1,$1+$1,$2,$3,$4,$5,0*
20,1,$1+$1,$4,$5,$6,$7,0*
20,1,$1+$1,$6,$7,$8,$9,0*
20,1,$1+$1,$8,$9,$2,$3,0*%
%AMFreePoly0*
4,1,13,0.500000,-0.500000,0.000000,-0.500000,-0.095671,-0.480970,-0.176777,-0.426777,-0.230970,-0.345671,-0.250000,-0.250000,-0.250000,0.250000,-0.230970,0.345671,-0.176777,0.426777,-0.095671,0.480970,0.000000,0.500000,0.500000,0.500000,0.500000,-0.500000,0.500000,-0.500000,$1*%
G04 Aperture macros list end*
%ADD10C,0.125000*%
%ADD11C,0.150000*%
%ADD12C,0.100000*%
%ADD13C,0.120000*%
%ADD14C,3.200000*%
%ADD15C,1.524000*%
%ADD16RoundRect,0.250000X-0.625000X0.350000X-0.625000X-0.350000X0.625000X-0.350000X0.625000X0.350000X0*%
%ADD17O,1.750000X1.200000*%
%ADD18C,5.700000*%
%ADD19C,3.600000*%
%ADD20R,1.700000X1.700000*%
%ADD21O,1.700000X1.700000*%
%ADD22FreePoly0,0.000000*%
%ADD23FreePoly0,180.000000*%
%ADD24C,0.800000*%
%ADD25C,0.750000*%
%ADD26C,0.600000*%
G04 APERTURE END LIST*
D10*
X79260952Y-94372000D02*
X79308571Y-94348190D01*
X79380000Y-94348190D01*
X79451428Y-94372000D01*
X79499047Y-94419619D01*
X79522857Y-94467238D01*
X79546666Y-94562476D01*
X79546666Y-94633904D01*
X79522857Y-94729142D01*
X79499047Y-94776761D01*
X79451428Y-94824380D01*
X79380000Y-94848190D01*
X79332380Y-94848190D01*
X79260952Y-94824380D01*
X79237142Y-94800571D01*
X79237142Y-94633904D01*
X79332380Y-94633904D01*
X79022857Y-94848190D02*
X79022857Y-94348190D01*
X78737142Y-94848190D01*
X78737142Y-94348190D01*
X78499047Y-94848190D02*
X78499047Y-94348190D01*
X78380000Y-94348190D01*
X78308571Y-94372000D01*
X78260952Y-94419619D01*
X78237142Y-94467238D01*
X78213333Y-94562476D01*
X78213333Y-94633904D01*
X78237142Y-94729142D01*
X78260952Y-94776761D01*
X78308571Y-94824380D01*
X78380000Y-94848190D01*
X78499047Y-94848190D01*
X79460952Y-106302000D02*
X79508571Y-106278190D01*
X79580000Y-106278190D01*
X79651428Y-106302000D01*
X79699047Y-106349619D01*
X79722857Y-106397238D01*
X79746666Y-106492476D01*
X79746666Y-106563904D01*
X79722857Y-106659142D01*
X79699047Y-106706761D01*
X79651428Y-106754380D01*
X79580000Y-106778190D01*
X79532380Y-106778190D01*
X79460952Y-106754380D01*
X79437142Y-106730571D01*
X79437142Y-106563904D01*
X79532380Y-106563904D01*
X79222857Y-106778190D02*
X79222857Y-106278190D01*
X78937142Y-106778190D01*
X78937142Y-106278190D01*
X78699047Y-106778190D02*
X78699047Y-106278190D01*
X78580000Y-106278190D01*
X78508571Y-106302000D01*
X78460952Y-106349619D01*
X78437142Y-106397238D01*
X78413333Y-106492476D01*
X78413333Y-106563904D01*
X78437142Y-106659142D01*
X78460952Y-106706761D01*
X78508571Y-106754380D01*
X78580000Y-106778190D01*
X78699047Y-106778190D01*
X79575238Y-108778190D02*
X79813333Y-108778190D01*
X79813333Y-108278190D01*
X79122857Y-108778190D02*
X79289523Y-108540095D01*
X79408571Y-108778190D02*
X79408571Y-108278190D01*
X79218095Y-108278190D01*
X79170476Y-108302000D01*
X79146666Y-108325809D01*
X79122857Y-108373428D01*
X79122857Y-108444857D01*
X79146666Y-108492476D01*
X79170476Y-108516285D01*
X79218095Y-108540095D01*
X79408571Y-108540095D01*
X78622857Y-108730571D02*
X78646666Y-108754380D01*
X78718095Y-108778190D01*
X78765714Y-108778190D01*
X78837142Y-108754380D01*
X78884761Y-108706761D01*
X78908571Y-108659142D01*
X78932380Y-108563904D01*
X78932380Y-108492476D01*
X78908571Y-108397238D01*
X78884761Y-108349619D01*
X78837142Y-108302000D01*
X78765714Y-108278190D01*
X78718095Y-108278190D01*
X78646666Y-108302000D01*
X78622857Y-108325809D01*
X78408571Y-108778190D02*
X78408571Y-108278190D01*
X78122857Y-108778190D02*
X78337142Y-108492476D01*
X78122857Y-108278190D02*
X78408571Y-108563904D01*
D11*
X91722857Y-112209142D02*
X91770476Y-112256761D01*
X91913333Y-112304380D01*
X92008571Y-112304380D01*
X92151428Y-112256761D01*
X92246666Y-112161523D01*
X92294285Y-112066285D01*
X92341904Y-111875809D01*
X92341904Y-111732952D01*
X92294285Y-111542476D01*
X92246666Y-111447238D01*
X92151428Y-111352000D01*
X92008571Y-111304380D01*
X91913333Y-111304380D01*
X91770476Y-111352000D01*
X91722857Y-111399619D01*
X91294285Y-112304380D02*
X91294285Y-111304380D01*
X90722857Y-112304380D02*
X91151428Y-111732952D01*
X90722857Y-111304380D02*
X91294285Y-111875809D01*
X90341904Y-112256761D02*
X90199047Y-112304380D01*
X89960952Y-112304380D01*
X89865714Y-112256761D01*
X89818095Y-112209142D01*
X89770476Y-112113904D01*
X89770476Y-112018666D01*
X89818095Y-111923428D01*
X89865714Y-111875809D01*
X89960952Y-111828190D01*
X90151428Y-111780571D01*
X90246666Y-111732952D01*
X90294285Y-111685333D01*
X90341904Y-111590095D01*
X90341904Y-111494857D01*
X90294285Y-111399619D01*
X90246666Y-111352000D01*
X90151428Y-111304380D01*
X89913333Y-111304380D01*
X89770476Y-111352000D01*
X89151428Y-111304380D02*
X89056190Y-111304380D01*
X88960952Y-111352000D01*
X88913333Y-111399619D01*
X88865714Y-111494857D01*
X88818095Y-111685333D01*
X88818095Y-111923428D01*
X88865714Y-112113904D01*
X88913333Y-112209142D01*
X88960952Y-112256761D01*
X89056190Y-112304380D01*
X89151428Y-112304380D01*
X89246666Y-112256761D01*
X89294285Y-112209142D01*
X89341904Y-112113904D01*
X89389523Y-111923428D01*
X89389523Y-111685333D01*
X89341904Y-111494857D01*
X89294285Y-111399619D01*
X89246666Y-111352000D01*
X89151428Y-111304380D01*
D12*
X94441904Y-112385333D02*
X94489523Y-112337714D01*
X94584761Y-112194857D01*
X94632380Y-112099619D01*
X94680000Y-111956761D01*
X94727619Y-111718666D01*
X94727619Y-111528190D01*
X94680000Y-111290095D01*
X94632380Y-111147238D01*
X94584761Y-111052000D01*
X94489523Y-110909142D01*
X94441904Y-110861523D01*
X93299047Y-111290095D02*
X93299047Y-111242476D01*
X93346666Y-111385333D02*
X93346666Y-111242476D01*
X93394285Y-111480571D02*
X93394285Y-111242476D01*
X93441904Y-111575809D02*
X93441904Y-111242476D01*
X93489523Y-111623428D02*
X93489523Y-111242476D01*
X93537142Y-111718666D02*
X93537142Y-111242476D01*
X93584761Y-111813904D02*
X93584761Y-111242476D01*
X93632380Y-111909142D02*
X93632380Y-111242476D01*
X93680000Y-112004380D02*
X93680000Y-111242476D01*
X93727619Y-111909142D02*
X93727619Y-111242476D01*
X93775238Y-111813904D02*
X93775238Y-111242476D01*
X93822857Y-111718666D02*
X93822857Y-111242476D01*
X93870476Y-111623428D02*
X93870476Y-111242476D01*
X93918095Y-111575809D02*
X93918095Y-111242476D01*
X93965714Y-111480571D02*
X93965714Y-111242476D01*
X94013333Y-111385333D02*
X94013333Y-111242476D01*
X94060952Y-111242476D02*
X93680000Y-111956761D01*
X93299047Y-111242476D01*
X94060952Y-111290095D02*
X94060952Y-111242476D01*
X93680000Y-112004380D02*
X94108571Y-111242476D01*
X93251428Y-111242476D01*
X93680000Y-112004380D01*
X92918095Y-112385333D02*
X92870476Y-112337714D01*
X92775238Y-112194857D01*
X92727619Y-112099619D01*
X92680000Y-111956761D01*
X92632380Y-111718666D01*
X92632380Y-111528190D01*
X92680000Y-111290095D01*
X92727619Y-111147238D01*
X92775238Y-111052000D01*
X92870476Y-110909142D01*
X92918095Y-110861523D01*
D11*
X95004285Y-106904380D02*
X95004285Y-105904380D01*
X94766190Y-105904380D01*
X94623333Y-105952000D01*
X94528095Y-106047238D01*
X94480476Y-106142476D01*
X94432857Y-106332952D01*
X94432857Y-106475809D01*
X94480476Y-106666285D01*
X94528095Y-106761523D01*
X94623333Y-106856761D01*
X94766190Y-106904380D01*
X95004285Y-106904380D01*
X94004285Y-106904380D02*
X94004285Y-105904380D01*
X93194762Y-106380571D02*
X93528095Y-106380571D01*
X93528095Y-106904380D02*
X93528095Y-105904380D01*
X93051904Y-105904380D01*
X92480476Y-105904380D02*
X92385238Y-105904380D01*
X92290000Y-105952000D01*
X92242381Y-105999619D01*
X92194762Y-106094857D01*
X92147143Y-106285333D01*
X92147143Y-106523428D01*
X92194762Y-106713904D01*
X92242381Y-106809142D01*
X92290000Y-106856761D01*
X92385238Y-106904380D01*
X92480476Y-106904380D01*
X92575714Y-106856761D01*
X92623333Y-106809142D01*
X92670952Y-106713904D01*
X92718571Y-106523428D01*
X92718571Y-106285333D01*
X92670952Y-106094857D01*
X92623333Y-105999619D01*
X92575714Y-105952000D01*
X92480476Y-105904380D01*
X95004285Y-102599380D02*
X95004285Y-101599380D01*
X94766190Y-101599380D01*
X94623333Y-101647000D01*
X94528095Y-101742238D01*
X94480476Y-101837476D01*
X94432857Y-102027952D01*
X94432857Y-102170809D01*
X94480476Y-102361285D01*
X94528095Y-102456523D01*
X94623333Y-102551761D01*
X94766190Y-102599380D01*
X95004285Y-102599380D01*
X94004285Y-102599380D02*
X94004285Y-101599380D01*
X93194762Y-102075571D02*
X93528095Y-102075571D01*
X93528095Y-102599380D02*
X93528095Y-101599380D01*
X93051904Y-101599380D01*
X92718571Y-101694619D02*
X92670952Y-101647000D01*
X92575714Y-101599380D01*
X92337619Y-101599380D01*
X92242381Y-101647000D01*
X92194762Y-101694619D01*
X92147143Y-101789857D01*
X92147143Y-101885095D01*
X92194762Y-102027952D01*
X92766190Y-102599380D01*
X92147143Y-102599380D01*
D10*
X79749047Y-96778190D02*
X79749047Y-96278190D01*
X79582380Y-96635333D01*
X79415714Y-96278190D01*
X79415714Y-96778190D01*
X78891904Y-96730571D02*
X78915714Y-96754380D01*
X78987142Y-96778190D01*
X79034761Y-96778190D01*
X79106190Y-96754380D01*
X79153809Y-96706761D01*
X79177619Y-96659142D01*
X79201428Y-96563904D01*
X79201428Y-96492476D01*
X79177619Y-96397238D01*
X79153809Y-96349619D01*
X79106190Y-96302000D01*
X79034761Y-96278190D01*
X78987142Y-96278190D01*
X78915714Y-96302000D01*
X78891904Y-96325809D01*
X78439523Y-96778190D02*
X78677619Y-96778190D01*
X78677619Y-96278190D01*
X78272857Y-96778190D02*
X78272857Y-96278190D01*
X77987142Y-96778190D02*
X78201428Y-96492476D01*
X77987142Y-96278190D02*
X78272857Y-96563904D01*
X79563333Y-104516285D02*
X79491904Y-104540095D01*
X79468095Y-104563904D01*
X79444285Y-104611523D01*
X79444285Y-104682952D01*
X79468095Y-104730571D01*
X79491904Y-104754380D01*
X79539523Y-104778190D01*
X79730000Y-104778190D01*
X79730000Y-104278190D01*
X79563333Y-104278190D01*
X79515714Y-104302000D01*
X79491904Y-104325809D01*
X79468095Y-104373428D01*
X79468095Y-104421047D01*
X79491904Y-104468666D01*
X79515714Y-104492476D01*
X79563333Y-104516285D01*
X79730000Y-104516285D01*
X79230000Y-104778190D02*
X79230000Y-104278190D01*
X78706190Y-104730571D02*
X78730000Y-104754380D01*
X78801428Y-104778190D01*
X78849047Y-104778190D01*
X78920476Y-104754380D01*
X78968095Y-104706761D01*
X78991904Y-104659142D01*
X79015714Y-104563904D01*
X79015714Y-104492476D01*
X78991904Y-104397238D01*
X78968095Y-104349619D01*
X78920476Y-104302000D01*
X78849047Y-104278190D01*
X78801428Y-104278190D01*
X78730000Y-104302000D01*
X78706190Y-104325809D01*
X78491904Y-104778190D02*
X78491904Y-104278190D01*
X78206190Y-104778190D02*
X78420476Y-104492476D01*
X78206190Y-104278190D02*
X78491904Y-104563904D01*
X79360952Y-102302000D02*
X79408571Y-102278190D01*
X79480000Y-102278190D01*
X79551428Y-102302000D01*
X79599047Y-102349619D01*
X79622857Y-102397238D01*
X79646666Y-102492476D01*
X79646666Y-102563904D01*
X79622857Y-102659142D01*
X79599047Y-102706761D01*
X79551428Y-102754380D01*
X79480000Y-102778190D01*
X79432380Y-102778190D01*
X79360952Y-102754380D01*
X79337142Y-102730571D01*
X79337142Y-102563904D01*
X79432380Y-102563904D01*
X79122857Y-102778190D02*
X79122857Y-102278190D01*
X78837142Y-102778190D01*
X78837142Y-102278190D01*
X78599047Y-102778190D02*
X78599047Y-102278190D01*
X78480000Y-102278190D01*
X78408571Y-102302000D01*
X78360952Y-102349619D01*
X78337142Y-102397238D01*
X78313333Y-102492476D01*
X78313333Y-102563904D01*
X78337142Y-102659142D01*
X78360952Y-102706761D01*
X78408571Y-102754380D01*
X78480000Y-102778190D01*
X78599047Y-102778190D01*
D11*
X88729523Y-105350571D02*
X89062857Y-105350571D01*
X89062857Y-105874380D02*
X89062857Y-104874380D01*
X88586666Y-104874380D01*
X88253333Y-105826761D02*
X88110476Y-105874380D01*
X87872380Y-105874380D01*
X87777142Y-105826761D01*
X87729523Y-105779142D01*
X87681904Y-105683904D01*
X87681904Y-105588666D01*
X87729523Y-105493428D01*
X87777142Y-105445809D01*
X87872380Y-105398190D01*
X88062857Y-105350571D01*
X88158095Y-105302952D01*
X88205714Y-105255333D01*
X88253333Y-105160095D01*
X88253333Y-105064857D01*
X88205714Y-104969619D01*
X88158095Y-104922000D01*
X88062857Y-104874380D01*
X87824761Y-104874380D01*
X87681904Y-104922000D01*
X87300952Y-104969619D02*
X87253333Y-104922000D01*
X87158095Y-104874380D01*
X86920000Y-104874380D01*
X86824761Y-104922000D01*
X86777142Y-104969619D01*
X86729523Y-105064857D01*
X86729523Y-105160095D01*
X86777142Y-105302952D01*
X87348571Y-105874380D01*
X86729523Y-105874380D01*
D10*
X79460952Y-98302000D02*
X79508571Y-98278190D01*
X79580000Y-98278190D01*
X79651428Y-98302000D01*
X79699047Y-98349619D01*
X79722857Y-98397238D01*
X79746666Y-98492476D01*
X79746666Y-98563904D01*
X79722857Y-98659142D01*
X79699047Y-98706761D01*
X79651428Y-98754380D01*
X79580000Y-98778190D01*
X79532380Y-98778190D01*
X79460952Y-98754380D01*
X79437142Y-98730571D01*
X79437142Y-98563904D01*
X79532380Y-98563904D01*
X79222857Y-98778190D02*
X79222857Y-98278190D01*
X78937142Y-98778190D01*
X78937142Y-98278190D01*
X78699047Y-98778190D02*
X78699047Y-98278190D01*
X78580000Y-98278190D01*
X78508571Y-98302000D01*
X78460952Y-98349619D01*
X78437142Y-98397238D01*
X78413333Y-98492476D01*
X78413333Y-98563904D01*
X78437142Y-98659142D01*
X78460952Y-98706761D01*
X78508571Y-98754380D01*
X78580000Y-98778190D01*
X78699047Y-98778190D01*
D11*
X86906190Y-113927714D02*
X86906190Y-114737238D01*
X86953809Y-114832476D01*
X87001428Y-114880095D01*
X87096666Y-114927714D01*
X87239523Y-114927714D01*
X87334761Y-114880095D01*
X86906190Y-114546761D02*
X87001428Y-114594380D01*
X87191904Y-114594380D01*
X87287142Y-114546761D01*
X87334761Y-114499142D01*
X87382380Y-114403904D01*
X87382380Y-114118190D01*
X87334761Y-114022952D01*
X87287142Y-113975333D01*
X87191904Y-113927714D01*
X87001428Y-113927714D01*
X86906190Y-113975333D01*
X86430000Y-114594380D02*
X86430000Y-113927714D01*
X86430000Y-113594380D02*
X86477619Y-113642000D01*
X86430000Y-113689619D01*
X86382380Y-113642000D01*
X86430000Y-113594380D01*
X86430000Y-113689619D01*
X86096666Y-113927714D02*
X85715714Y-113927714D01*
X85953809Y-113594380D02*
X85953809Y-114451523D01*
X85906190Y-114546761D01*
X85810952Y-114594380D01*
X85715714Y-114594380D01*
X85382380Y-114594380D02*
X85382380Y-113594380D01*
X84953809Y-114594380D02*
X84953809Y-114070571D01*
X85001428Y-113975333D01*
X85096666Y-113927714D01*
X85239523Y-113927714D01*
X85334761Y-113975333D01*
X85382380Y-114022952D01*
X84049047Y-113927714D02*
X84049047Y-114594380D01*
X84477619Y-113927714D02*
X84477619Y-114451523D01*
X84430000Y-114546761D01*
X84334761Y-114594380D01*
X84191904Y-114594380D01*
X84096666Y-114546761D01*
X84049047Y-114499142D01*
X83572857Y-114594380D02*
X83572857Y-113594380D01*
X83572857Y-113975333D02*
X83477619Y-113927714D01*
X83287142Y-113927714D01*
X83191904Y-113975333D01*
X83144285Y-114022952D01*
X83096666Y-114118190D01*
X83096666Y-114403904D01*
X83144285Y-114499142D01*
X83191904Y-114546761D01*
X83287142Y-114594380D01*
X83477619Y-114594380D01*
X83572857Y-114546761D01*
X82668095Y-114499142D02*
X82620476Y-114546761D01*
X82668095Y-114594380D01*
X82715714Y-114546761D01*
X82668095Y-114499142D01*
X82668095Y-114594380D01*
X81763333Y-114546761D02*
X81858571Y-114594380D01*
X82049047Y-114594380D01*
X82144285Y-114546761D01*
X82191904Y-114499142D01*
X82239523Y-114403904D01*
X82239523Y-114118190D01*
X82191904Y-114022952D01*
X82144285Y-113975333D01*
X82049047Y-113927714D01*
X81858571Y-113927714D01*
X81763333Y-113975333D01*
X81191904Y-114594380D02*
X81287142Y-114546761D01*
X81334761Y-114499142D01*
X81382380Y-114403904D01*
X81382380Y-114118190D01*
X81334761Y-114022952D01*
X81287142Y-113975333D01*
X81191904Y-113927714D01*
X81049047Y-113927714D01*
X80953809Y-113975333D01*
X80906190Y-114022952D01*
X80858571Y-114118190D01*
X80858571Y-114403904D01*
X80906190Y-114499142D01*
X80953809Y-114546761D01*
X81049047Y-114594380D01*
X81191904Y-114594380D01*
X80430000Y-114594380D02*
X80430000Y-113927714D01*
X80430000Y-114022952D02*
X80382380Y-113975333D01*
X80287142Y-113927714D01*
X80144285Y-113927714D01*
X80049047Y-113975333D01*
X80001428Y-114070571D01*
X80001428Y-114594380D01*
X80001428Y-114070571D02*
X79953809Y-113975333D01*
X79858571Y-113927714D01*
X79715714Y-113927714D01*
X79620476Y-113975333D01*
X79572857Y-114070571D01*
X79572857Y-114594380D01*
X78382380Y-113546761D02*
X79239523Y-114832476D01*
X86525238Y-115537714D02*
X86525238Y-116204380D01*
X86525238Y-115632952D02*
X86477619Y-115585333D01*
X86382380Y-115537714D01*
X86239523Y-115537714D01*
X86144285Y-115585333D01*
X86096666Y-115680571D01*
X86096666Y-116204380D01*
X85620476Y-116204380D02*
X85620476Y-115537714D01*
X85620476Y-115204380D02*
X85668095Y-115252000D01*
X85620476Y-115299619D01*
X85572857Y-115252000D01*
X85620476Y-115204380D01*
X85620476Y-115299619D01*
X85144285Y-116204380D02*
X85144285Y-115204380D01*
X85049047Y-115823428D02*
X84763333Y-116204380D01*
X84763333Y-115537714D02*
X85144285Y-115918666D01*
X84334761Y-116204380D02*
X84334761Y-115537714D01*
X84334761Y-115204380D02*
X84382380Y-115252000D01*
X84334761Y-115299619D01*
X84287142Y-115252000D01*
X84334761Y-115204380D01*
X84334761Y-115299619D01*
X84001428Y-115537714D02*
X83620476Y-115537714D01*
X83858571Y-115204380D02*
X83858571Y-116061523D01*
X83810952Y-116156761D01*
X83715714Y-116204380D01*
X83620476Y-116204380D01*
X82858571Y-116204380D02*
X82858571Y-115680571D01*
X82906190Y-115585333D01*
X83001428Y-115537714D01*
X83191904Y-115537714D01*
X83287142Y-115585333D01*
X82858571Y-116156761D02*
X82953809Y-116204380D01*
X83191904Y-116204380D01*
X83287142Y-116156761D01*
X83334761Y-116061523D01*
X83334761Y-115966285D01*
X83287142Y-115871047D01*
X83191904Y-115823428D01*
X82953809Y-115823428D01*
X82858571Y-115775809D01*
X82239523Y-116204380D02*
X82334761Y-116156761D01*
X82382380Y-116061523D01*
X82382380Y-115204380D01*
X81858571Y-116204380D02*
X81858571Y-115537714D01*
X81858571Y-115204380D02*
X81906190Y-115252000D01*
X81858571Y-115299619D01*
X81810952Y-115252000D01*
X81858571Y-115204380D01*
X81858571Y-115299619D01*
X81525238Y-115537714D02*
X81144285Y-115537714D01*
X81382380Y-115204380D02*
X81382380Y-116061523D01*
X81334761Y-116156761D01*
X81239523Y-116204380D01*
X81144285Y-116204380D01*
X80382380Y-116204380D02*
X80382380Y-115680571D01*
X80430000Y-115585333D01*
X80525238Y-115537714D01*
X80715714Y-115537714D01*
X80810952Y-115585333D01*
X80382380Y-116156761D02*
X80477619Y-116204380D01*
X80715714Y-116204380D01*
X80810952Y-116156761D01*
X80858571Y-116061523D01*
X80858571Y-115966285D01*
X80810952Y-115871047D01*
X80715714Y-115823428D01*
X80477619Y-115823428D01*
X80382380Y-115775809D01*
X79191904Y-115156761D02*
X80049047Y-116442476D01*
X86953809Y-117814380D02*
X86953809Y-116814380D01*
X86620476Y-117528666D01*
X86287142Y-116814380D01*
X86287142Y-117814380D01*
X85810952Y-116814380D02*
X85810952Y-117623904D01*
X85763333Y-117719142D01*
X85715714Y-117766761D01*
X85620476Y-117814380D01*
X85430000Y-117814380D01*
X85334761Y-117766761D01*
X85287142Y-117719142D01*
X85239523Y-117623904D01*
X85239523Y-116814380D01*
X84239523Y-117814380D02*
X84810952Y-117814380D01*
X84525238Y-117814380D02*
X84525238Y-116814380D01*
X84620476Y-116957238D01*
X84715714Y-117052476D01*
X84810952Y-117100095D01*
X83620476Y-116814380D02*
X83525238Y-116814380D01*
X83430000Y-116862000D01*
X83382380Y-116909619D01*
X83334761Y-117004857D01*
X83287142Y-117195333D01*
X83287142Y-117433428D01*
X83334761Y-117623904D01*
X83382380Y-117719142D01*
X83430000Y-117766761D01*
X83525238Y-117814380D01*
X83620476Y-117814380D01*
X83715714Y-117766761D01*
X83763333Y-117719142D01*
X83810952Y-117623904D01*
X83858571Y-117433428D01*
X83858571Y-117195333D01*
X83810952Y-117004857D01*
X83763333Y-116909619D01*
X83715714Y-116862000D01*
X83620476Y-116814380D01*
X82668095Y-116814380D02*
X82572857Y-116814380D01*
X82477619Y-116862000D01*
X82430000Y-116909619D01*
X82382380Y-117004857D01*
X82334761Y-117195333D01*
X82334761Y-117433428D01*
X82382380Y-117623904D01*
X82430000Y-117719142D01*
X82477619Y-117766761D01*
X82572857Y-117814380D01*
X82668095Y-117814380D01*
X82763333Y-117766761D01*
X82810952Y-117719142D01*
X82858571Y-117623904D01*
X82906190Y-117433428D01*
X82906190Y-117195333D01*
X82858571Y-117004857D01*
X82810952Y-116909619D01*
X82763333Y-116862000D01*
X82668095Y-116814380D01*
X81906190Y-117433428D02*
X81144285Y-117433428D01*
X80668095Y-117814380D02*
X80668095Y-116814380D01*
X80430000Y-116814380D01*
X80287142Y-116862000D01*
X80191904Y-116957238D01*
X80144285Y-117052476D01*
X80096666Y-117242952D01*
X80096666Y-117385809D01*
X80144285Y-117576285D01*
X80191904Y-117671523D01*
X80287142Y-117766761D01*
X80430000Y-117814380D01*
X80668095Y-117814380D01*
X79668095Y-117814380D02*
X79668095Y-116814380D01*
X79334761Y-116814380D02*
X78763333Y-116814380D01*
X79049047Y-117814380D02*
X79049047Y-116814380D01*
X88689523Y-100840571D02*
X89022857Y-100840571D01*
X89022857Y-101364380D02*
X89022857Y-100364380D01*
X88546666Y-100364380D01*
X88213333Y-101316761D02*
X88070476Y-101364380D01*
X87832380Y-101364380D01*
X87737142Y-101316761D01*
X87689523Y-101269142D01*
X87641904Y-101173904D01*
X87641904Y-101078666D01*
X87689523Y-100983428D01*
X87737142Y-100935809D01*
X87832380Y-100888190D01*
X88022857Y-100840571D01*
X88118095Y-100792952D01*
X88165714Y-100745333D01*
X88213333Y-100650095D01*
X88213333Y-100554857D01*
X88165714Y-100459619D01*
X88118095Y-100412000D01*
X88022857Y-100364380D01*
X87784761Y-100364380D01*
X87641904Y-100412000D01*
X87022857Y-100364380D02*
X86927619Y-100364380D01*
X86832380Y-100412000D01*
X86784761Y-100459619D01*
X86737142Y-100554857D01*
X86689523Y-100745333D01*
X86689523Y-100983428D01*
X86737142Y-101173904D01*
X86784761Y-101269142D01*
X86832380Y-101316761D01*
X86927619Y-101364380D01*
X87022857Y-101364380D01*
X87118095Y-101316761D01*
X87165714Y-101269142D01*
X87213333Y-101173904D01*
X87260952Y-100983428D01*
X87260952Y-100745333D01*
X87213333Y-100554857D01*
X87165714Y-100459619D01*
X87118095Y-100412000D01*
X87022857Y-100364380D01*
D10*
X79677619Y-100654380D02*
X79606190Y-100678190D01*
X79487142Y-100678190D01*
X79439523Y-100654380D01*
X79415714Y-100630571D01*
X79391904Y-100582952D01*
X79391904Y-100535333D01*
X79415714Y-100487714D01*
X79439523Y-100463904D01*
X79487142Y-100440095D01*
X79582380Y-100416285D01*
X79630000Y-100392476D01*
X79653809Y-100368666D01*
X79677619Y-100321047D01*
X79677619Y-100273428D01*
X79653809Y-100225809D01*
X79630000Y-100202000D01*
X79582380Y-100178190D01*
X79463333Y-100178190D01*
X79391904Y-100202000D01*
X79177619Y-100678190D02*
X79177619Y-100178190D01*
X79058571Y-100178190D01*
X78987142Y-100202000D01*
X78939523Y-100249619D01*
X78915714Y-100297238D01*
X78891904Y-100392476D01*
X78891904Y-100463904D01*
X78915714Y-100559142D01*
X78939523Y-100606761D01*
X78987142Y-100654380D01*
X79058571Y-100678190D01*
X79177619Y-100678190D01*
X78701428Y-100535333D02*
X78463333Y-100535333D01*
X78749047Y-100678190D02*
X78582380Y-100178190D01*
X78415714Y-100678190D01*
X78320476Y-100178190D02*
X78034761Y-100178190D01*
X78177619Y-100678190D02*
X78177619Y-100178190D01*
X79722857Y-92687714D02*
X79341904Y-92687714D01*
X79532380Y-92878190D02*
X79532380Y-92497238D01*
X78865714Y-92378190D02*
X79103809Y-92378190D01*
X79127619Y-92616285D01*
X79103809Y-92592476D01*
X79056190Y-92568666D01*
X78937142Y-92568666D01*
X78889523Y-92592476D01*
X78865714Y-92616285D01*
X78841904Y-92663904D01*
X78841904Y-92782952D01*
X78865714Y-92830571D01*
X78889523Y-92854380D01*
X78937142Y-92878190D01*
X79056190Y-92878190D01*
X79103809Y-92854380D01*
X79127619Y-92830571D01*
X78699047Y-92378190D02*
X78532380Y-92878190D01*
X78365714Y-92378190D01*
X79282857Y-90826190D02*
X79282857Y-90326190D01*
X78997142Y-90826190D01*
X78997142Y-90326190D01*
X78473333Y-90778571D02*
X78497142Y-90802380D01*
X78568571Y-90826190D01*
X78616190Y-90826190D01*
X78687619Y-90802380D01*
X78735238Y-90754761D01*
X78759047Y-90707142D01*
X78782857Y-90611904D01*
X78782857Y-90540476D01*
X78759047Y-90445238D01*
X78735238Y-90397619D01*
X78687619Y-90350000D01*
X78616190Y-90326190D01*
X78568571Y-90326190D01*
X78497142Y-90350000D01*
X78473333Y-90373809D01*
D11*
X95004285Y-104729380D02*
X95004285Y-103729380D01*
X94766190Y-103729380D01*
X94623333Y-103777000D01*
X94528095Y-103872238D01*
X94480476Y-103967476D01*
X94432857Y-104157952D01*
X94432857Y-104300809D01*
X94480476Y-104491285D01*
X94528095Y-104586523D01*
X94623333Y-104681761D01*
X94766190Y-104729380D01*
X95004285Y-104729380D01*
X94004285Y-104729380D02*
X94004285Y-103729380D01*
X93194762Y-104205571D02*
X93528095Y-104205571D01*
X93528095Y-104729380D02*
X93528095Y-103729380D01*
X93051904Y-103729380D01*
X92147143Y-104729380D02*
X92718571Y-104729380D01*
X92432857Y-104729380D02*
X92432857Y-103729380D01*
X92528095Y-103872238D01*
X92623333Y-103967476D01*
X92718571Y-104015095D01*
X88719523Y-107690571D02*
X89052857Y-107690571D01*
X89052857Y-108214380D02*
X89052857Y-107214380D01*
X88576666Y-107214380D01*
X88243333Y-108166761D02*
X88100476Y-108214380D01*
X87862380Y-108214380D01*
X87767142Y-108166761D01*
X87719523Y-108119142D01*
X87671904Y-108023904D01*
X87671904Y-107928666D01*
X87719523Y-107833428D01*
X87767142Y-107785809D01*
X87862380Y-107738190D01*
X88052857Y-107690571D01*
X88148095Y-107642952D01*
X88195714Y-107595333D01*
X88243333Y-107500095D01*
X88243333Y-107404857D01*
X88195714Y-107309619D01*
X88148095Y-107262000D01*
X88052857Y-107214380D01*
X87814761Y-107214380D01*
X87671904Y-107262000D01*
X87338571Y-107214380D02*
X86719523Y-107214380D01*
X87052857Y-107595333D01*
X86910000Y-107595333D01*
X86814761Y-107642952D01*
X86767142Y-107690571D01*
X86719523Y-107785809D01*
X86719523Y-108023904D01*
X86767142Y-108119142D01*
X86814761Y-108166761D01*
X86910000Y-108214380D01*
X87195714Y-108214380D01*
X87290952Y-108166761D01*
X87338571Y-108119142D01*
X86022857Y-112209142D02*
X86070476Y-112256761D01*
X86213333Y-112304380D01*
X86308571Y-112304380D01*
X86451428Y-112256761D01*
X86546666Y-112161523D01*
X86594285Y-112066285D01*
X86641904Y-111875809D01*
X86641904Y-111732952D01*
X86594285Y-111542476D01*
X86546666Y-111447238D01*
X86451428Y-111352000D01*
X86308571Y-111304380D01*
X86213333Y-111304380D01*
X86070476Y-111352000D01*
X86022857Y-111399619D01*
X85594285Y-112304380D02*
X85594285Y-111304380D01*
X85022857Y-112304380D02*
X85451428Y-111732952D01*
X85022857Y-111304380D02*
X85594285Y-111875809D01*
X84641904Y-112256761D02*
X84499047Y-112304380D01*
X84260952Y-112304380D01*
X84165714Y-112256761D01*
X84118095Y-112209142D01*
X84070476Y-112113904D01*
X84070476Y-112018666D01*
X84118095Y-111923428D01*
X84165714Y-111875809D01*
X84260952Y-111828190D01*
X84451428Y-111780571D01*
X84546666Y-111732952D01*
X84594285Y-111685333D01*
X84641904Y-111590095D01*
X84641904Y-111494857D01*
X84594285Y-111399619D01*
X84546666Y-111352000D01*
X84451428Y-111304380D01*
X84213333Y-111304380D01*
X84070476Y-111352000D01*
X83118095Y-112304380D02*
X83689523Y-112304380D01*
X83403809Y-112304380D02*
X83403809Y-111304380D01*
X83499047Y-111447238D01*
X83594285Y-111542476D01*
X83689523Y-111590095D01*
X88689523Y-103140571D02*
X89022857Y-103140571D01*
X89022857Y-103664380D02*
X89022857Y-102664380D01*
X88546666Y-102664380D01*
X88213333Y-103616761D02*
X88070476Y-103664380D01*
X87832380Y-103664380D01*
X87737142Y-103616761D01*
X87689523Y-103569142D01*
X87641904Y-103473904D01*
X87641904Y-103378666D01*
X87689523Y-103283428D01*
X87737142Y-103235809D01*
X87832380Y-103188190D01*
X88022857Y-103140571D01*
X88118095Y-103092952D01*
X88165714Y-103045333D01*
X88213333Y-102950095D01*
X88213333Y-102854857D01*
X88165714Y-102759619D01*
X88118095Y-102712000D01*
X88022857Y-102664380D01*
X87784761Y-102664380D01*
X87641904Y-102712000D01*
X86689523Y-103664380D02*
X87260952Y-103664380D01*
X86975238Y-103664380D02*
X86975238Y-102664380D01*
X87070476Y-102807238D01*
X87165714Y-102902476D01*
X87260952Y-102950095D01*
D13*
%TO.C,JP3*%
X84020000Y-105172000D02*
X84020000Y-105772000D01*
X84510000Y-106182000D02*
X85970000Y-106182000D01*
X85910000Y-104682000D02*
X84430000Y-104682000D01*
X86397060Y-105689661D02*
X86397060Y-105089661D01*
X85989342Y-106177081D02*
G75*
G03*
X86399342Y-105687081I-72338J477059D01*
G01*
X84427718Y-104684580D02*
G75*
G03*
X84017718Y-105174580I72338J-477059D01*
G01*
X86397060Y-105089661D02*
G75*
G03*
X85907060Y-104679661I-477059J-72338D01*
G01*
X84020000Y-105772000D02*
G75*
G03*
X84510000Y-106182000I477059J72338D01*
G01*
%TO.C,JP9*%
X85910000Y-109272000D02*
X84430000Y-109272000D01*
X84510000Y-110772000D02*
X85970000Y-110772000D01*
X86397060Y-110279661D02*
X86397060Y-109679661D01*
X84020000Y-109762000D02*
X84020000Y-110362000D01*
X86397060Y-109679661D02*
G75*
G03*
X85907060Y-109269661I-477059J-72338D01*
G01*
X85989342Y-110767081D02*
G75*
G03*
X86399342Y-110277081I-72338J477059D01*
G01*
X84427718Y-109274580D02*
G75*
G03*
X84017718Y-109764580I72338J-477059D01*
G01*
X84020000Y-110362000D02*
G75*
G03*
X84510000Y-110772000I477059J72338D01*
G01*
%TO.C,JP2*%
X84510000Y-103887000D02*
X85970000Y-103887000D01*
X86397060Y-103394661D02*
X86397060Y-102794661D01*
X85910000Y-102387000D02*
X84430000Y-102387000D01*
X84020000Y-102877000D02*
X84020000Y-103477000D01*
X86397060Y-102794661D02*
G75*
G03*
X85907060Y-102384661I-477059J-72338D01*
G01*
X84020000Y-103477000D02*
G75*
G03*
X84510000Y-103887000I477059J72338D01*
G01*
X85989342Y-103882081D02*
G75*
G03*
X86399342Y-103392081I-72338J477059D01*
G01*
X84427718Y-102389580D02*
G75*
G03*
X84017718Y-102879580I72338J-477059D01*
G01*
%TO.C,JP7*%
X91380000Y-101307000D02*
X89900000Y-101307000D01*
X91867060Y-102314661D02*
X91867060Y-101714661D01*
X89490000Y-101797000D02*
X89490000Y-102397000D01*
X89980000Y-102807000D02*
X91440000Y-102807000D01*
X89897718Y-101309580D02*
G75*
G03*
X89487718Y-101799580I72338J-477059D01*
G01*
X89490000Y-102397000D02*
G75*
G03*
X89980000Y-102807000I477059J72338D01*
G01*
X91459342Y-102802081D02*
G75*
G03*
X91869342Y-102312081I-72338J477059D01*
G01*
X91867060Y-101714661D02*
G75*
G03*
X91377060Y-101304661I-477059J-72338D01*
G01*
%TO.C,JP1*%
X84510000Y-101562000D02*
X85970000Y-101562000D01*
X86397060Y-101069661D02*
X86397060Y-100469661D01*
X84020000Y-100552000D02*
X84020000Y-101152000D01*
X85910000Y-100062000D02*
X84430000Y-100062000D01*
X84427718Y-100064580D02*
G75*
G03*
X84017718Y-100554580I72338J-477059D01*
G01*
X86397060Y-100469661D02*
G75*
G03*
X85907060Y-100059661I-477059J-72338D01*
G01*
X84020000Y-101152000D02*
G75*
G03*
X84510000Y-101562000I477059J72338D01*
G01*
X85989342Y-101557081D02*
G75*
G03*
X86399342Y-101067081I-72338J477059D01*
G01*
%TO.C,JP6*%
X89980000Y-105102000D02*
X91440000Y-105102000D01*
X89490000Y-104092000D02*
X89490000Y-104692000D01*
X91867060Y-104609661D02*
X91867060Y-104009661D01*
X91380000Y-103602000D02*
X89900000Y-103602000D01*
X89490000Y-104692000D02*
G75*
G03*
X89980000Y-105102000I477059J72338D01*
G01*
X91867060Y-104009661D02*
G75*
G03*
X91377060Y-103599661I-477059J-72338D01*
G01*
X91459342Y-105097081D02*
G75*
G03*
X91869342Y-104607081I-72338J477059D01*
G01*
X89897718Y-103604580D02*
G75*
G03*
X89487718Y-104094580I72338J-477059D01*
G01*
%TO.C,JP8*%
X89440000Y-109762000D02*
X89440000Y-110362000D01*
X91817060Y-110279661D02*
X91817060Y-109679661D01*
X91330000Y-109272000D02*
X89850000Y-109272000D01*
X89930000Y-110772000D02*
X91390000Y-110772000D01*
X89847718Y-109274580D02*
G75*
G03*
X89437718Y-109764580I72338J-477059D01*
G01*
X89440000Y-110362000D02*
G75*
G03*
X89930000Y-110772000I477059J72338D01*
G01*
X91409342Y-110767081D02*
G75*
G03*
X91819342Y-110277081I-72338J477059D01*
G01*
X91817060Y-109679661D02*
G75*
G03*
X91327060Y-109269661I-477059J-72338D01*
G01*
%TO.C,JP5*%
X89490000Y-106387000D02*
X89490000Y-106987000D01*
X91380000Y-105897000D02*
X89900000Y-105897000D01*
X89980000Y-107397000D02*
X91440000Y-107397000D01*
X91867060Y-106904661D02*
X91867060Y-106304661D01*
X89897718Y-105899580D02*
G75*
G03*
X89487718Y-106389580I72338J-477059D01*
G01*
X91459342Y-107392081D02*
G75*
G03*
X91869342Y-106902081I-72338J477059D01*
G01*
X91867060Y-106304661D02*
G75*
G03*
X91377060Y-105894661I-477059J-72338D01*
G01*
X89490000Y-106987000D02*
G75*
G03*
X89980000Y-107397000I477059J72338D01*
G01*
%TO.C,JP4*%
X84020000Y-107467000D02*
X84020000Y-108067000D01*
X84510000Y-108477000D02*
X85970000Y-108477000D01*
X85910000Y-106977000D02*
X84430000Y-106977000D01*
X86397060Y-107984661D02*
X86397060Y-107384661D01*
X84020000Y-108067000D02*
G75*
G03*
X84510000Y-108477000I477059J72338D01*
G01*
X84427718Y-106979580D02*
G75*
G03*
X84017718Y-107469580I72338J-477059D01*
G01*
X85989342Y-108472081D02*
G75*
G03*
X86399342Y-107982081I-72338J477059D01*
G01*
X86397060Y-107384661D02*
G75*
G03*
X85907060Y-106974661I-477059J-72338D01*
G01*
%TD*%
%LPC*%
D14*
%TO.C,U1*%
X90430000Y-97612000D03*
X90430000Y-89992000D03*
D15*
X86620000Y-91262000D03*
X86620000Y-93802000D03*
X86620000Y-96342000D03*
%TD*%
D16*
%TO.C,J1*%
X81030000Y-90572000D03*
D17*
X81030000Y-92572000D03*
X81030000Y-94572000D03*
X81030000Y-96572000D03*
X81030000Y-98572000D03*
X81030000Y-100572000D03*
X81030000Y-102572000D03*
X81030000Y-104572000D03*
X81030000Y-106572000D03*
X81030000Y-108572000D03*
%TD*%
D18*
%TO.C,H1*%
X91350000Y-83452000D03*
D19*
X91350000Y-83452000D03*
%TD*%
D18*
%TO.C,H2*%
X91350000Y-116452000D03*
D19*
X91350000Y-116452000D03*
%TD*%
D20*
%TO.C,J2*%
X80510000Y-85675000D03*
D21*
X80510000Y-83135000D03*
%TD*%
D22*
%TO.C,JP3*%
X84560000Y-105442000D03*
D23*
X85860000Y-105442000D03*
%TD*%
D22*
%TO.C,JP9*%
X84560000Y-110032000D03*
D23*
X85860000Y-110032000D03*
%TD*%
D22*
%TO.C,JP2*%
X84560000Y-103147000D03*
D23*
X85860000Y-103147000D03*
%TD*%
D22*
%TO.C,JP7*%
X90030000Y-102067000D03*
D23*
X91330000Y-102067000D03*
%TD*%
D22*
%TO.C,JP1*%
X84560000Y-100822000D03*
D23*
X85860000Y-100822000D03*
%TD*%
D22*
%TO.C,JP6*%
X90030000Y-104362000D03*
D23*
X91330000Y-104362000D03*
%TD*%
D22*
%TO.C,JP8*%
X89980000Y-110032000D03*
D23*
X91280000Y-110032000D03*
%TD*%
D22*
%TO.C,JP5*%
X90030000Y-106657000D03*
D23*
X91330000Y-106657000D03*
%TD*%
D22*
%TO.C,JP4*%
X84560000Y-107737000D03*
D23*
X85860000Y-107737000D03*
%TD*%
D24*
X88110000Y-113772000D03*
X87480000Y-111482000D03*
X90030000Y-111532000D03*
X81763200Y-88054600D03*
X87500000Y-99482000D03*
D25*
X83300000Y-96802600D03*
X83990000Y-101972000D03*
D24*
X85930000Y-113752000D03*
X92750000Y-99122000D03*
D25*
X83300000Y-99738600D03*
D24*
X84060000Y-92542000D03*
X79248600Y-117290000D03*
X87850000Y-87882000D03*
X78715200Y-114623000D03*
D25*
X83300000Y-95352000D03*
X83300000Y-98270600D03*
D24*
X92430000Y-95692000D03*
X85300000Y-98872000D03*
X89130000Y-92702000D03*
X87910000Y-81082000D03*
D26*
X83330000Y-111502000D03*
X83980000Y-104232000D03*
X87889978Y-106829600D03*
X87877200Y-107744000D03*
X87885439Y-108751761D03*
X87877200Y-109674400D03*
D24*
X83846000Y-87978400D03*
D26*
X91999400Y-105388927D03*
X91999400Y-104564600D03*
X91839600Y-102841800D03*
X90925200Y-109003500D03*
X91915800Y-108379000D03*
M02*
