M48
; DRILL file {KiCad (6.0.1)} date Sun Jul 17 12:11:28 2022
; FORMAT={-:-/ absolute / inch / decimal}
; #@! TF.CreationDate,2022-07-17T12:11:28-07:00
; #@! TF.GenerationSoftware,Kicad,Pcbnew,(6.0.1)
; #@! TF.FileFunction,Plated,1,2,PTH
FMAT,2
INCH
; #@! TA.AperFunction,Plated,PTH,ViaDrill
T1C0.0118
; #@! TA.AperFunction,Plated,PTH,ViaDrill
T2C0.0138
; #@! TA.AperFunction,Plated,PTH,ViaDrill
T3C0.0157
; #@! TA.AperFunction,Plated,PTH,ComponentDrill
T4C0.0295
; #@! TA.AperFunction,Plated,PTH,ComponentDrill
T5C0.0315
; #@! TA.AperFunction,Plated,PTH,ComponentDrill
T6C0.0394
; #@! TA.AperFunction,Plated,PTH,ComponentDrill
T7C0.1260
%
G90
G05
T1
X3.2807Y-4.3898
X3.3063Y-4.1036
X3.4597Y-4.2419
X3.4597Y-4.3179
X3.4601Y-4.2816
X3.4602Y-4.2059
X3.5797Y-4.2915
X3.6157Y-4.0489
X3.6187Y-4.2669
X3.622Y-4.1167
X3.622Y-4.1492
T2
X3.2795Y-3.754
X3.2795Y-3.8111
X3.2795Y-3.8689
X3.2795Y-3.9267
X3.3067Y-4.0146
T3
X3.099Y-4.5127
X3.12Y-4.6177
X3.219Y-3.4667
X3.301Y-3.4637
X3.3094Y-3.6434
X3.3583Y-3.8926
X3.3831Y-4.4784
X3.4441Y-4.3891
X3.4449Y-3.9166
X3.4587Y-3.4599
X3.461Y-3.1922
X3.4689Y-4.4792
X3.5091Y-3.6497
X3.5445Y-4.391
X3.639Y-3.7674
X3.6516Y-3.9024
T4
X3.1902Y-3.5658
X3.1902Y-3.6446
X3.1902Y-3.7233
X3.1902Y-3.802
X3.1902Y-3.8808
X3.1902Y-3.9595
X3.1902Y-4.0383
X3.1902Y-4.117
X3.1902Y-4.1957
X3.1902Y-4.2745
T5
X3.4102Y-3.593
X3.4102Y-3.693
X3.4102Y-3.793
T6
X3.1697Y-3.273
X3.1697Y-3.373
T7
X3.5965Y-3.2855
X3.5965Y-4.5847
T0
M30
