%TF.GenerationSoftware,KiCad,Pcbnew,(6.0.1)*%
%TF.CreationDate,2022-07-03T00:07:17-07:00*%
%TF.ProjectId,mu100-dit,6d753130-302d-4646-9974-2e6b69636164,rev?*%
%TF.SameCoordinates,Original*%
%TF.FileFunction,Soldermask,Top*%
%TF.FilePolarity,Negative*%
%FSLAX46Y46*%
G04 Gerber Fmt 4.6, Leading zero omitted, Abs format (unit mm)*
G04 Created by KiCad (PCBNEW (6.0.1)) date 2022-07-03 00:07:17*
%MOMM*%
%LPD*%
G01*
G04 APERTURE LIST*
G04 Aperture macros list*
%AMRoundRect*
0 Rectangle with rounded corners*
0 $1 Rounding radius*
0 $2 $3 $4 $5 $6 $7 $8 $9 X,Y pos of 4 corners*
0 Add a 4 corners polygon primitive as box body*
4,1,4,$2,$3,$4,$5,$6,$7,$8,$9,$2,$3,0*
0 Add four circle primitives for the rounded corners*
1,1,$1+$1,$2,$3*
1,1,$1+$1,$4,$5*
1,1,$1+$1,$6,$7*
1,1,$1+$1,$8,$9*
0 Add four rect primitives between the rounded corners*
20,1,$1+$1,$2,$3,$4,$5,0*
20,1,$1+$1,$4,$5,$6,$7,0*
20,1,$1+$1,$6,$7,$8,$9,0*
20,1,$1+$1,$8,$9,$2,$3,0*%
G04 Aperture macros list end*
%ADD10RoundRect,0.250000X-0.337500X-0.475000X0.337500X-0.475000X0.337500X0.475000X-0.337500X0.475000X0*%
%ADD11R,1.900000X0.800000*%
%ADD12O,1.750000X1.200000*%
%ADD13RoundRect,0.250000X-0.625000X0.350000X-0.625000X-0.350000X0.625000X-0.350000X0.625000X0.350000X0*%
%ADD14RoundRect,0.100000X-0.637500X-0.100000X0.637500X-0.100000X0.637500X0.100000X-0.637500X0.100000X0*%
%ADD15C,3.600000*%
%ADD16C,5.600000*%
%ADD17C,3.200000*%
%ADD18C,1.524000*%
%ADD19RoundRect,0.250000X0.337500X0.475000X-0.337500X0.475000X-0.337500X-0.475000X0.337500X-0.475000X0*%
%ADD20C,0.500000*%
%ADD21C,0.800000*%
G04 APERTURE END LIST*
D10*
%TO.C,C3*%
X47212500Y-123275000D03*
X49287500Y-123275000D03*
%TD*%
D11*
%TO.C,U3*%
X46750000Y-118750000D03*
X46750000Y-120650000D03*
X49750000Y-119700000D03*
%TD*%
D12*
%TO.C,J1*%
X46950000Y-114620000D03*
X46950000Y-112620000D03*
X46950000Y-110620000D03*
X46950000Y-108620000D03*
X46950000Y-106620000D03*
X46950000Y-104620000D03*
X46950000Y-102620000D03*
X46950000Y-100620000D03*
X46950000Y-98620000D03*
D13*
X46950000Y-96620000D03*
%TD*%
D14*
%TO.C,U2*%
X51659500Y-109461427D03*
X51659500Y-110111427D03*
X51659500Y-110761427D03*
X51659500Y-111411427D03*
X51659500Y-112061427D03*
X51659500Y-112711427D03*
X51659500Y-113361427D03*
X51659500Y-114011427D03*
X51659500Y-114661427D03*
X51659500Y-115311427D03*
X51659500Y-115961427D03*
X51659500Y-116611427D03*
X59084500Y-116611427D03*
X59084500Y-115961427D03*
X59084500Y-115311427D03*
X59084500Y-114661427D03*
X59084500Y-114011427D03*
X59084500Y-113361427D03*
X59084500Y-112711427D03*
X59084500Y-112061427D03*
X59084500Y-111411427D03*
X59084500Y-110761427D03*
X59084500Y-110111427D03*
X59084500Y-109461427D03*
%TD*%
D15*
%TO.C,REF\u002A\u002A*%
X57270000Y-89500000D03*
D16*
X57270000Y-89500000D03*
%TD*%
D17*
%TO.C,U1*%
X56350000Y-96040000D03*
X56350000Y-103660000D03*
D18*
X52540000Y-97310000D03*
X52540000Y-99850000D03*
X52540000Y-102390000D03*
%TD*%
D10*
%TO.C,C2*%
X57128500Y-107188000D03*
X59203500Y-107188000D03*
%TD*%
D19*
%TO.C,C1*%
X51540500Y-107188000D03*
X53615500Y-107188000D03*
%TD*%
D15*
%TO.C,REF\u002A\u002A*%
X57270000Y-122500000D03*
D16*
X57270000Y-122500000D03*
%TD*%
D20*
X49924500Y-110175000D03*
X48850000Y-117300000D03*
D21*
X58050000Y-105725000D03*
X49700000Y-100961532D03*
X50625000Y-98675000D03*
D20*
X53759989Y-112538411D03*
X53741990Y-113548813D03*
X53730000Y-114420000D03*
X53740000Y-115320000D03*
X56650000Y-111925000D03*
X57660000Y-110760000D03*
X56860000Y-109080000D03*
X57600000Y-116070000D03*
X57540000Y-114650000D03*
M02*
