%TF.GenerationSoftware,KiCad,Pcbnew,(6.0.1)*%
%TF.CreationDate,2022-06-20T00:10:41-07:00*%
%TF.ProjectId,mu100-dit,6d753130-302d-4646-9974-2e6b69636164,rev?*%
%TF.SameCoordinates,Original*%
%TF.FileFunction,Copper,L1,Top*%
%TF.FilePolarity,Positive*%
%FSLAX46Y46*%
G04 Gerber Fmt 4.6, Leading zero omitted, Abs format (unit mm)*
G04 Created by KiCad (PCBNEW (6.0.1)) date 2022-06-20 00:10:41*
%MOMM*%
%LPD*%
G01*
G04 APERTURE LIST*
G04 Aperture macros list*
%AMRoundRect*
0 Rectangle with rounded corners*
0 $1 Rounding radius*
0 $2 $3 $4 $5 $6 $7 $8 $9 X,Y pos of 4 corners*
0 Add a 4 corners polygon primitive as box body*
4,1,4,$2,$3,$4,$5,$6,$7,$8,$9,$2,$3,0*
0 Add four circle primitives for the rounded corners*
1,1,$1+$1,$2,$3*
1,1,$1+$1,$4,$5*
1,1,$1+$1,$6,$7*
1,1,$1+$1,$8,$9*
0 Add four rect primitives between the rounded corners*
20,1,$1+$1,$2,$3,$4,$5,0*
20,1,$1+$1,$4,$5,$6,$7,0*
20,1,$1+$1,$6,$7,$8,$9,0*
20,1,$1+$1,$8,$9,$2,$3,0*%
G04 Aperture macros list end*
%TA.AperFunction,SMDPad,CuDef*%
%ADD10RoundRect,0.250000X0.337500X0.475000X-0.337500X0.475000X-0.337500X-0.475000X0.337500X-0.475000X0*%
%TD*%
%TA.AperFunction,SMDPad,CuDef*%
%ADD11RoundRect,0.250000X-0.337500X-0.475000X0.337500X-0.475000X0.337500X0.475000X-0.337500X0.475000X0*%
%TD*%
%TA.AperFunction,SMDPad,CuDef*%
%ADD12RoundRect,0.100000X-0.637500X-0.100000X0.637500X-0.100000X0.637500X0.100000X-0.637500X0.100000X0*%
%TD*%
%TA.AperFunction,ComponentPad*%
%ADD13C,1.524000*%
%TD*%
%TA.AperFunction,ComponentPad*%
%ADD14RoundRect,0.250000X-0.625000X0.350000X-0.625000X-0.350000X0.625000X-0.350000X0.625000X0.350000X0*%
%TD*%
%TA.AperFunction,ComponentPad*%
%ADD15O,1.750000X1.200000*%
%TD*%
%TA.AperFunction,ViaPad*%
%ADD16C,0.800000*%
%TD*%
%TA.AperFunction,Conductor*%
%ADD17C,0.400000*%
%TD*%
%TA.AperFunction,Conductor*%
%ADD18C,0.250000*%
%TD*%
%TA.AperFunction,Conductor*%
%ADD19C,0.500000*%
%TD*%
%TA.AperFunction,Conductor*%
%ADD20C,0.600000*%
%TD*%
%TA.AperFunction,Conductor*%
%ADD21C,0.254000*%
%TD*%
G04 APERTURE END LIST*
D10*
%TO.P,C1,2*%
%TO.N,+5V*%
X51540500Y-107188000D03*
%TO.P,C1,1*%
%TO.N,GND*%
X53615500Y-107188000D03*
%TD*%
D11*
%TO.P,C2,2*%
%TO.N,+5V*%
X59203500Y-107188000D03*
%TO.P,C2,1*%
%TO.N,GND*%
X57128500Y-107188000D03*
%TD*%
D12*
%TO.P,U2,24,U1*%
%TO.N,unconnected-(U2-Pad24)*%
X59084500Y-109461427D03*
%TO.P,U2,23,DIF2*%
%TO.N,unconnected-(U2-Pad23)*%
X59084500Y-110111427D03*
%TO.P,U2,22,DIF1*%
%TO.N,unconnected-(U2-Pad22)*%
X59084500Y-110761427D03*
%TO.P,U2,21,DIF0*%
%TO.N,+5V*%
X59084500Y-111411427D03*
%TO.P,U2,20,TXP*%
%TO.N,/TXP*%
X59084500Y-112061427D03*
%TO.P,U2,19,TXN*%
%TO.N,unconnected-(U2-Pad19)*%
X59084500Y-112711427D03*
%TO.P,U2,18,VSS*%
%TO.N,GND*%
X59084500Y-113361427D03*
%TO.P,U2,17,VDD*%
%TO.N,+5V*%
X59084500Y-114011427D03*
%TO.P,U2,16,CKS1*%
%TO.N,unconnected-(U2-Pad16)*%
X59084500Y-114661427D03*
%TO.P,U2,15,CKS0*%
%TO.N,unconnected-(U2-Pad15)*%
X59084500Y-115311427D03*
%TO.P,U2,14,BLS*%
%TO.N,unconnected-(U2-Pad14)*%
X59084500Y-115961427D03*
%TO.P,U2,13,ANS*%
%TO.N,unconnected-(U2-Pad13)*%
X59084500Y-116611427D03*
%TO.P,U2,12,C1*%
%TO.N,GND*%
X51659500Y-116611427D03*
%TO.P,U2,11,FS3/CDTO*%
%TO.N,unconnected-(U2-Pad11)*%
X51659500Y-115961427D03*
%TO.P,U2,10,FS2/CCLK*%
%TO.N,unconnected-(U2-Pad10)*%
X51659500Y-115311427D03*
%TO.P,U2,9,FS1/CDTI*%
%TO.N,unconnected-(U2-Pad9)*%
X51659500Y-114661427D03*
%TO.P,U2,8,FS0/CSN*%
%TO.N,unconnected-(U2-Pad8)*%
X51659500Y-114011427D03*
%TO.P,U2,7,LRCK*%
%TO.N,/LRCK*%
X51659500Y-113361427D03*
%TO.P,U2,6,BICK*%
%TO.N,/BICK*%
X51659500Y-112711427D03*
%TO.P,U2,5,SDTI*%
%TO.N,/SDAT*%
X51659500Y-112061427D03*
%TO.P,U2,4,MCLK*%
%TO.N,/MCLK*%
X51659500Y-111411427D03*
%TO.P,U2,3,PDN*%
%TO.N,/RESET*%
X51659500Y-110761427D03*
%TO.P,U2,2,TRANS*%
%TO.N,GND*%
X51659500Y-110111427D03*
%TO.P,U2,1,V1*%
X51659500Y-109461427D03*
%TD*%
D13*
%TO.P,U1,1,GND*%
%TO.N,/TXP*%
X52540000Y-102390000D03*
%TO.P,U1,2,VCC*%
%TO.N,+5V*%
X52540000Y-99850000D03*
%TO.P,U1,3,Input*%
%TO.N,GND*%
X52540000Y-97310000D03*
%TD*%
D14*
%TO.P,J2,1,Pin_1*%
%TO.N,+5V*%
X47916000Y-96282000D03*
D15*
%TO.P,J2,2,Pin_2*%
%TO.N,GND*%
X47916000Y-98282000D03*
%TD*%
D14*
%TO.P,J1,1,Pin_1*%
%TO.N,/RESET*%
X47916000Y-104712000D03*
D15*
%TO.P,J1,2,Pin_2*%
%TO.N,/MCLK*%
X47916000Y-106712000D03*
%TO.P,J1,3,Pin_3*%
%TO.N,/SDAT*%
X47916000Y-108712000D03*
%TO.P,J1,4,Pin_4*%
%TO.N,/BICK*%
X47916000Y-110712000D03*
%TO.P,J1,5,Pin_5*%
%TO.N,/LRCK*%
X47916000Y-112712000D03*
%TD*%
D16*
%TO.N,GND*%
X55626000Y-107188000D03*
%TD*%
D17*
%TO.N,+5V*%
X60103427Y-111411427D02*
X59084500Y-111411427D01*
X60198000Y-111506000D02*
X60103427Y-111411427D01*
D18*
%TO.N,/LRCK*%
X48565427Y-113361427D02*
X51659500Y-113361427D01*
X47916000Y-112712000D02*
X48565427Y-113361427D01*
%TO.N,/TXP*%
X56943427Y-112061427D02*
X59084500Y-112061427D01*
X54864000Y-109982000D02*
X56943427Y-112061427D01*
X54864000Y-106426000D02*
X54864000Y-109982000D01*
%TO.N,/SDAT*%
X50971639Y-112061427D02*
X51659500Y-112061427D01*
X49392960Y-110482748D02*
X50971639Y-112061427D01*
X49392960Y-109844960D02*
X49392960Y-110482748D01*
X48260000Y-108712000D02*
X49392960Y-109844960D01*
D17*
%TO.N,GND*%
X45974000Y-100224000D02*
X47916000Y-98282000D01*
X45974000Y-113792000D02*
X45974000Y-100224000D01*
X48793427Y-116611427D02*
X45974000Y-113792000D01*
X48793427Y-116611427D02*
X52453427Y-116611427D01*
D18*
%TO.N,/RESET*%
X50971639Y-110761427D02*
X51659500Y-110761427D01*
X50292000Y-110081788D02*
X50971639Y-110761427D01*
%TO.N,/BICK*%
X49915427Y-112711427D02*
X51659500Y-112711427D01*
X47916000Y-110712000D02*
X49915427Y-112711427D01*
D19*
%TO.N,+5V*%
X60332376Y-108570876D02*
X60332376Y-113577751D01*
X58949500Y-107188000D02*
X60332376Y-108570876D01*
D18*
%TO.N,/MCLK*%
X49842480Y-108638480D02*
X49842480Y-110236000D01*
X47916000Y-106712000D02*
X49842480Y-108638480D01*
%TO.N,/RESET*%
X50292000Y-107088000D02*
X50292000Y-109982000D01*
X47916000Y-104712000D02*
X50292000Y-107088000D01*
D20*
%TO.N,+5V*%
X56670000Y-99850000D02*
X52540000Y-99850000D01*
X59436000Y-102616000D02*
X56670000Y-99850000D01*
X59436000Y-106934000D02*
X59436000Y-102616000D01*
X50546000Y-105410000D02*
X51540500Y-106404500D01*
X51540500Y-106404500D02*
X51540500Y-107188000D01*
X50546000Y-101595000D02*
X50546000Y-105410000D01*
X52291000Y-99850000D02*
X50546000Y-101595000D01*
D19*
X60332376Y-113577751D02*
X60251300Y-113658827D01*
D17*
X60251300Y-113658827D02*
X60271100Y-113678627D01*
%TO.N,GND*%
X51803427Y-109461427D02*
X55703427Y-113361427D01*
X55703427Y-113361427D02*
X59253000Y-113361427D01*
%TO.N,+5V*%
X59084500Y-114011427D02*
X59938300Y-114011427D01*
X59938300Y-114011427D02*
X60271100Y-113678627D01*
%TO.N,GND*%
X53340000Y-115724854D02*
X52453427Y-116611427D01*
X53340000Y-110998000D02*
X53340000Y-115724854D01*
X51659500Y-110111427D02*
X52453427Y-110111427D01*
X51659500Y-109461427D02*
X51659500Y-110111427D01*
D18*
%TO.N,/MCLK*%
X50957357Y-111411427D02*
X51659500Y-111411427D01*
X49842480Y-110296550D02*
X50957357Y-111411427D01*
%TO.N,/TXP*%
X52540000Y-104102000D02*
X54864000Y-106426000D01*
X52540000Y-102390000D02*
X52540000Y-104102000D01*
%TD*%
%TO.N,GND*%
D21*
X53743500Y-108420999D02*
X53763502Y-108489120D01*
X53817158Y-108535613D01*
X53869500Y-108546999D01*
X54003362Y-108546999D01*
X54016365Y-108546326D01*
X54104500Y-108537182D01*
X54104500Y-109903233D01*
X54102360Y-109925868D01*
X54104500Y-109993945D01*
X54104500Y-110021856D01*
X54105493Y-110037646D01*
X54106000Y-110041657D01*
X54107389Y-110085848D01*
X54112330Y-110117041D01*
X54117981Y-110136492D01*
X54120520Y-110156590D01*
X54128374Y-110187181D01*
X54144652Y-110228295D01*
X54156985Y-110270745D01*
X54169529Y-110299733D01*
X54179841Y-110317169D01*
X54187296Y-110335999D01*
X54202511Y-110363677D01*
X54228499Y-110399447D01*
X54251005Y-110437502D01*
X54270363Y-110462457D01*
X54284684Y-110476778D01*
X54296592Y-110493168D01*
X54318212Y-110516192D01*
X54352289Y-110544383D01*
X56350680Y-112542775D01*
X56365174Y-112560295D01*
X56414825Y-112606920D01*
X56434562Y-112626657D01*
X56446432Y-112637122D01*
X56449623Y-112639597D01*
X56481853Y-112669863D01*
X56507403Y-112688427D01*
X56525157Y-112698188D01*
X56541162Y-112710602D01*
X56568345Y-112726678D01*
X56608924Y-112744238D01*
X56647667Y-112765537D01*
X56677032Y-112777163D01*
X56696653Y-112782201D01*
X56715242Y-112790245D01*
X56745570Y-112799057D01*
X56789238Y-112805974D01*
X56832063Y-112816969D01*
X56863397Y-112820927D01*
X56883651Y-112820927D01*
X56903659Y-112824096D01*
X56935228Y-112825088D01*
X56979246Y-112820927D01*
X57712501Y-112820927D01*
X57712501Y-112851312D01*
X57713579Y-112867756D01*
X57729240Y-112986722D01*
X57737753Y-113018495D01*
X57745452Y-113037081D01*
X57738241Y-113054489D01*
X57729728Y-113086260D01*
X57721997Y-113144980D01*
X57732936Y-113215129D01*
X57780064Y-113268228D01*
X57846919Y-113287427D01*
X57886431Y-113287427D01*
X57913051Y-113322118D01*
X57936309Y-113345376D01*
X57957226Y-113361427D01*
X57936308Y-113377478D01*
X57913051Y-113400736D01*
X57886431Y-113435427D01*
X57846920Y-113435427D01*
X57778799Y-113455429D01*
X57732306Y-113509085D01*
X57721998Y-113577872D01*
X57729728Y-113636592D01*
X57738241Y-113668365D01*
X57745452Y-113685773D01*
X57737753Y-113704359D01*
X57729240Y-113736131D01*
X57713578Y-113855096D01*
X57712500Y-113871542D01*
X57712501Y-114151311D01*
X57713579Y-114167756D01*
X57729240Y-114286722D01*
X57737753Y-114318495D01*
X57745181Y-114336427D01*
X57737753Y-114354359D01*
X57729240Y-114386131D01*
X57713578Y-114505096D01*
X57712500Y-114521542D01*
X57712501Y-114801311D01*
X57713579Y-114817756D01*
X57729240Y-114936722D01*
X57737753Y-114968495D01*
X57745181Y-114986427D01*
X57737753Y-115004359D01*
X57729240Y-115036131D01*
X57713578Y-115155096D01*
X57712500Y-115171542D01*
X57712501Y-115451311D01*
X57713579Y-115467756D01*
X57729240Y-115586722D01*
X57737753Y-115618495D01*
X57745181Y-115636427D01*
X57737753Y-115654359D01*
X57729240Y-115686131D01*
X57713578Y-115805096D01*
X57712500Y-115821542D01*
X57712501Y-116101311D01*
X57713579Y-116117756D01*
X57729240Y-116236722D01*
X57737753Y-116268495D01*
X57745181Y-116286427D01*
X57737753Y-116304359D01*
X57729240Y-116336131D01*
X57713578Y-116455096D01*
X57712500Y-116471542D01*
X57712501Y-116751311D01*
X57713579Y-116767756D01*
X57729240Y-116886722D01*
X57737753Y-116918495D01*
X57756602Y-116964000D01*
X52986856Y-116964000D01*
X53005759Y-116918365D01*
X53014272Y-116886594D01*
X53022003Y-116827874D01*
X53011064Y-116757725D01*
X52963936Y-116704626D01*
X52897081Y-116685427D01*
X52690337Y-116685427D01*
X52807692Y-116595376D01*
X52830949Y-116572118D01*
X52857569Y-116537427D01*
X52897080Y-116537427D01*
X52965201Y-116517425D01*
X53011694Y-116463769D01*
X53022002Y-116394982D01*
X53014272Y-116336262D01*
X53005759Y-116304489D01*
X52998548Y-116287081D01*
X53006247Y-116268495D01*
X53014760Y-116236723D01*
X53030422Y-116117758D01*
X53031500Y-116101312D01*
X53031499Y-115821543D01*
X53030421Y-115805098D01*
X53014760Y-115686132D01*
X53006247Y-115654359D01*
X52998819Y-115636427D01*
X53006247Y-115618495D01*
X53014760Y-115586723D01*
X53030422Y-115467758D01*
X53031500Y-115451312D01*
X53031499Y-115171543D01*
X53030421Y-115155098D01*
X53014760Y-115036132D01*
X53006247Y-115004359D01*
X52998819Y-114986427D01*
X53006247Y-114968495D01*
X53014760Y-114936723D01*
X53030422Y-114817758D01*
X53031500Y-114801312D01*
X53031499Y-114521543D01*
X53030421Y-114505098D01*
X53014760Y-114386132D01*
X53006247Y-114354359D01*
X52998819Y-114336427D01*
X53006247Y-114318495D01*
X53014760Y-114286723D01*
X53030422Y-114167758D01*
X53031500Y-114151312D01*
X53031499Y-113871543D01*
X53030421Y-113855098D01*
X53014760Y-113736132D01*
X53006247Y-113704359D01*
X52998819Y-113686427D01*
X53006247Y-113668495D01*
X53014760Y-113636723D01*
X53030422Y-113517758D01*
X53031500Y-113501312D01*
X53031499Y-113221543D01*
X53030421Y-113205098D01*
X53014760Y-113086132D01*
X53006247Y-113054359D01*
X52998819Y-113036427D01*
X53006247Y-113018495D01*
X53014760Y-112986723D01*
X53030422Y-112867758D01*
X53031500Y-112851312D01*
X53031499Y-112571543D01*
X53030421Y-112555098D01*
X53014760Y-112436132D01*
X53006247Y-112404359D01*
X52998819Y-112386427D01*
X53006247Y-112368495D01*
X53014760Y-112336723D01*
X53030422Y-112217758D01*
X53031500Y-112201312D01*
X53031499Y-111921543D01*
X53030421Y-111905098D01*
X53014760Y-111786132D01*
X53006247Y-111754359D01*
X52998819Y-111736427D01*
X53006247Y-111718495D01*
X53014760Y-111686723D01*
X53030422Y-111567758D01*
X53031500Y-111551312D01*
X53031499Y-111271543D01*
X53030421Y-111255098D01*
X53014760Y-111136132D01*
X53006247Y-111104359D01*
X52998819Y-111086427D01*
X53006247Y-111068495D01*
X53014760Y-111036723D01*
X53030422Y-110917758D01*
X53031500Y-110901312D01*
X53031499Y-110621543D01*
X53030421Y-110605098D01*
X53014760Y-110486132D01*
X53006247Y-110454359D01*
X52998548Y-110435773D01*
X53005759Y-110418365D01*
X53014272Y-110386594D01*
X53022003Y-110327874D01*
X53011064Y-110257725D01*
X52963936Y-110204626D01*
X52897081Y-110185427D01*
X52857569Y-110185427D01*
X52830949Y-110150736D01*
X52807691Y-110127478D01*
X52690335Y-110037427D01*
X52897080Y-110037427D01*
X52965201Y-110017425D01*
X53011694Y-109963769D01*
X53022002Y-109894982D01*
X53014272Y-109836262D01*
X53005759Y-109804489D01*
X52998277Y-109786427D01*
X53005759Y-109768365D01*
X53014272Y-109736594D01*
X53022003Y-109677874D01*
X53011064Y-109607725D01*
X52963936Y-109554626D01*
X52897081Y-109535427D01*
X51859500Y-109535427D01*
X51791379Y-109555429D01*
X51744886Y-109609085D01*
X51733500Y-109661427D01*
X51733500Y-109911427D01*
X51738051Y-109926928D01*
X51585500Y-109926928D01*
X51585500Y-109261427D01*
X51733500Y-109261427D01*
X51753502Y-109329548D01*
X51807158Y-109376041D01*
X51859500Y-109387427D01*
X52897080Y-109387427D01*
X52965201Y-109367425D01*
X53011694Y-109313769D01*
X53022002Y-109244982D01*
X53014272Y-109186262D01*
X53005759Y-109154489D01*
X52944496Y-109006586D01*
X52928049Y-108978100D01*
X52830592Y-108851093D01*
X52807334Y-108827835D01*
X52680327Y-108730378D01*
X52651841Y-108713931D01*
X52503938Y-108652668D01*
X52472166Y-108644155D01*
X52353293Y-108628505D01*
X52336847Y-108627427D01*
X51859500Y-108627427D01*
X51791379Y-108647429D01*
X51744886Y-108701085D01*
X51733500Y-108753427D01*
X51733500Y-109261427D01*
X51585500Y-109261427D01*
X51585500Y-108753428D01*
X51565498Y-108685307D01*
X51511842Y-108638814D01*
X51459500Y-108627428D01*
X51051500Y-108627428D01*
X51051500Y-108537801D01*
X51139757Y-108546844D01*
X51152600Y-108547500D01*
X51928400Y-108547500D01*
X51941404Y-108546827D01*
X52047170Y-108535853D01*
X52074042Y-108530050D01*
X52241822Y-108474074D01*
X52268249Y-108461694D01*
X52418651Y-108368622D01*
X52441521Y-108350496D01*
X52566478Y-108225321D01*
X52578316Y-108210332D01*
X52590899Y-108226208D01*
X52715991Y-108351083D01*
X52738893Y-108369170D01*
X52889359Y-108461918D01*
X52915807Y-108474251D01*
X53083573Y-108529897D01*
X53110399Y-108535648D01*
X53214795Y-108546344D01*
X53227637Y-108547000D01*
X53361500Y-108547000D01*
X53429621Y-108526998D01*
X53476114Y-108473342D01*
X53487500Y-108421000D01*
X53487500Y-107060000D01*
X53743500Y-107060000D01*
X53743500Y-108420999D02*
X53743500Y-107060000D01*
%TA.AperFunction,Conductor*%
G36*
X53743500Y-108420999D02*
G01*
X53763502Y-108489120D01*
X53817158Y-108535613D01*
X53869500Y-108546999D01*
X54003362Y-108546999D01*
X54016365Y-108546326D01*
X54104500Y-108537182D01*
X54104500Y-109903233D01*
X54102360Y-109925868D01*
X54104500Y-109993945D01*
X54104500Y-110021856D01*
X54105493Y-110037646D01*
X54106000Y-110041657D01*
X54107389Y-110085848D01*
X54112330Y-110117041D01*
X54117981Y-110136492D01*
X54120520Y-110156590D01*
X54128374Y-110187181D01*
X54144652Y-110228295D01*
X54156985Y-110270745D01*
X54169529Y-110299733D01*
X54179841Y-110317169D01*
X54187296Y-110335999D01*
X54202511Y-110363677D01*
X54228499Y-110399447D01*
X54251005Y-110437502D01*
X54270363Y-110462457D01*
X54284684Y-110476778D01*
X54296592Y-110493168D01*
X54318212Y-110516192D01*
X54352289Y-110544383D01*
X56350680Y-112542775D01*
X56365174Y-112560295D01*
X56414825Y-112606920D01*
X56434562Y-112626657D01*
X56446432Y-112637122D01*
X56449623Y-112639597D01*
X56481853Y-112669863D01*
X56507403Y-112688427D01*
X56525157Y-112698188D01*
X56541162Y-112710602D01*
X56568345Y-112726678D01*
X56608924Y-112744238D01*
X56647667Y-112765537D01*
X56677032Y-112777163D01*
X56696653Y-112782201D01*
X56715242Y-112790245D01*
X56745570Y-112799057D01*
X56789238Y-112805974D01*
X56832063Y-112816969D01*
X56863397Y-112820927D01*
X56883651Y-112820927D01*
X56903659Y-112824096D01*
X56935228Y-112825088D01*
X56979246Y-112820927D01*
X57712501Y-112820927D01*
X57712501Y-112851312D01*
X57713579Y-112867756D01*
X57729240Y-112986722D01*
X57737753Y-113018495D01*
X57745452Y-113037081D01*
X57738241Y-113054489D01*
X57729728Y-113086260D01*
X57721997Y-113144980D01*
X57732936Y-113215129D01*
X57780064Y-113268228D01*
X57846919Y-113287427D01*
X57886431Y-113287427D01*
X57913051Y-113322118D01*
X57936309Y-113345376D01*
X57957226Y-113361427D01*
X57936308Y-113377478D01*
X57913051Y-113400736D01*
X57886431Y-113435427D01*
X57846920Y-113435427D01*
X57778799Y-113455429D01*
X57732306Y-113509085D01*
X57721998Y-113577872D01*
X57729728Y-113636592D01*
X57738241Y-113668365D01*
X57745452Y-113685773D01*
X57737753Y-113704359D01*
X57729240Y-113736131D01*
X57713578Y-113855096D01*
X57712500Y-113871542D01*
X57712501Y-114151311D01*
X57713579Y-114167756D01*
X57729240Y-114286722D01*
X57737753Y-114318495D01*
X57745181Y-114336427D01*
X57737753Y-114354359D01*
X57729240Y-114386131D01*
X57713578Y-114505096D01*
X57712500Y-114521542D01*
X57712501Y-114801311D01*
X57713579Y-114817756D01*
X57729240Y-114936722D01*
X57737753Y-114968495D01*
X57745181Y-114986427D01*
X57737753Y-115004359D01*
X57729240Y-115036131D01*
X57713578Y-115155096D01*
X57712500Y-115171542D01*
X57712501Y-115451311D01*
X57713579Y-115467756D01*
X57729240Y-115586722D01*
X57737753Y-115618495D01*
X57745181Y-115636427D01*
X57737753Y-115654359D01*
X57729240Y-115686131D01*
X57713578Y-115805096D01*
X57712500Y-115821542D01*
X57712501Y-116101311D01*
X57713579Y-116117756D01*
X57729240Y-116236722D01*
X57737753Y-116268495D01*
X57745181Y-116286427D01*
X57737753Y-116304359D01*
X57729240Y-116336131D01*
X57713578Y-116455096D01*
X57712500Y-116471542D01*
X57712501Y-116751311D01*
X57713579Y-116767756D01*
X57729240Y-116886722D01*
X57737753Y-116918495D01*
X57756602Y-116964000D01*
X52986856Y-116964000D01*
X53005759Y-116918365D01*
X53014272Y-116886594D01*
X53022003Y-116827874D01*
X53011064Y-116757725D01*
X52963936Y-116704626D01*
X52897081Y-116685427D01*
X52690337Y-116685427D01*
X52807692Y-116595376D01*
X52830949Y-116572118D01*
X52857569Y-116537427D01*
X52897080Y-116537427D01*
X52965201Y-116517425D01*
X53011694Y-116463769D01*
X53022002Y-116394982D01*
X53014272Y-116336262D01*
X53005759Y-116304489D01*
X52998548Y-116287081D01*
X53006247Y-116268495D01*
X53014760Y-116236723D01*
X53030422Y-116117758D01*
X53031500Y-116101312D01*
X53031499Y-115821543D01*
X53030421Y-115805098D01*
X53014760Y-115686132D01*
X53006247Y-115654359D01*
X52998819Y-115636427D01*
X53006247Y-115618495D01*
X53014760Y-115586723D01*
X53030422Y-115467758D01*
X53031500Y-115451312D01*
X53031499Y-115171543D01*
X53030421Y-115155098D01*
X53014760Y-115036132D01*
X53006247Y-115004359D01*
X52998819Y-114986427D01*
X53006247Y-114968495D01*
X53014760Y-114936723D01*
X53030422Y-114817758D01*
X53031500Y-114801312D01*
X53031499Y-114521543D01*
X53030421Y-114505098D01*
X53014760Y-114386132D01*
X53006247Y-114354359D01*
X52998819Y-114336427D01*
X53006247Y-114318495D01*
X53014760Y-114286723D01*
X53030422Y-114167758D01*
X53031500Y-114151312D01*
X53031499Y-113871543D01*
X53030421Y-113855098D01*
X53014760Y-113736132D01*
X53006247Y-113704359D01*
X52998819Y-113686427D01*
X53006247Y-113668495D01*
X53014760Y-113636723D01*
X53030422Y-113517758D01*
X53031500Y-113501312D01*
X53031499Y-113221543D01*
X53030421Y-113205098D01*
X53014760Y-113086132D01*
X53006247Y-113054359D01*
X52998819Y-113036427D01*
X53006247Y-113018495D01*
X53014760Y-112986723D01*
X53030422Y-112867758D01*
X53031500Y-112851312D01*
X53031499Y-112571543D01*
X53030421Y-112555098D01*
X53014760Y-112436132D01*
X53006247Y-112404359D01*
X52998819Y-112386427D01*
X53006247Y-112368495D01*
X53014760Y-112336723D01*
X53030422Y-112217758D01*
X53031500Y-112201312D01*
X53031499Y-111921543D01*
X53030421Y-111905098D01*
X53014760Y-111786132D01*
X53006247Y-111754359D01*
X52998819Y-111736427D01*
X53006247Y-111718495D01*
X53014760Y-111686723D01*
X53030422Y-111567758D01*
X53031500Y-111551312D01*
X53031499Y-111271543D01*
X53030421Y-111255098D01*
X53014760Y-111136132D01*
X53006247Y-111104359D01*
X52998819Y-111086427D01*
X53006247Y-111068495D01*
X53014760Y-111036723D01*
X53030422Y-110917758D01*
X53031500Y-110901312D01*
X53031499Y-110621543D01*
X53030421Y-110605098D01*
X53014760Y-110486132D01*
X53006247Y-110454359D01*
X52998548Y-110435773D01*
X53005759Y-110418365D01*
X53014272Y-110386594D01*
X53022003Y-110327874D01*
X53011064Y-110257725D01*
X52963936Y-110204626D01*
X52897081Y-110185427D01*
X52857569Y-110185427D01*
X52830949Y-110150736D01*
X52807691Y-110127478D01*
X52690335Y-110037427D01*
X52897080Y-110037427D01*
X52965201Y-110017425D01*
X53011694Y-109963769D01*
X53022002Y-109894982D01*
X53014272Y-109836262D01*
X53005759Y-109804489D01*
X52998277Y-109786427D01*
X53005759Y-109768365D01*
X53014272Y-109736594D01*
X53022003Y-109677874D01*
X53011064Y-109607725D01*
X52963936Y-109554626D01*
X52897081Y-109535427D01*
X51859500Y-109535427D01*
X51791379Y-109555429D01*
X51744886Y-109609085D01*
X51733500Y-109661427D01*
X51733500Y-109911427D01*
X51738051Y-109926928D01*
X51585500Y-109926928D01*
X51585500Y-109261427D01*
X51733500Y-109261427D01*
X51753502Y-109329548D01*
X51807158Y-109376041D01*
X51859500Y-109387427D01*
X52897080Y-109387427D01*
X52965201Y-109367425D01*
X53011694Y-109313769D01*
X53022002Y-109244982D01*
X53014272Y-109186262D01*
X53005759Y-109154489D01*
X52944496Y-109006586D01*
X52928049Y-108978100D01*
X52830592Y-108851093D01*
X52807334Y-108827835D01*
X52680327Y-108730378D01*
X52651841Y-108713931D01*
X52503938Y-108652668D01*
X52472166Y-108644155D01*
X52353293Y-108628505D01*
X52336847Y-108627427D01*
X51859500Y-108627427D01*
X51791379Y-108647429D01*
X51744886Y-108701085D01*
X51733500Y-108753427D01*
X51733500Y-109261427D01*
X51585500Y-109261427D01*
X51585500Y-108753428D01*
X51565498Y-108685307D01*
X51511842Y-108638814D01*
X51459500Y-108627428D01*
X51051500Y-108627428D01*
X51051500Y-108537801D01*
X51139757Y-108546844D01*
X51152600Y-108547500D01*
X51928400Y-108547500D01*
X51941404Y-108546827D01*
X52047170Y-108535853D01*
X52074042Y-108530050D01*
X52241822Y-108474074D01*
X52268249Y-108461694D01*
X52418651Y-108368622D01*
X52441521Y-108350496D01*
X52566478Y-108225321D01*
X52578316Y-108210332D01*
X52590899Y-108226208D01*
X52715991Y-108351083D01*
X52738893Y-108369170D01*
X52889359Y-108461918D01*
X52915807Y-108474251D01*
X53083573Y-108529897D01*
X53110399Y-108535648D01*
X53214795Y-108546344D01*
X53227637Y-108547000D01*
X53361500Y-108547000D01*
X53429621Y-108526998D01*
X53476114Y-108473342D01*
X53487500Y-108421000D01*
X53487500Y-107060000D01*
X53743500Y-107060000D01*
X53743500Y-108420999D01*
G37*
%TD.AperFunction*%
X54947526Y-94294472D02*
X54934206Y-94305259D01*
X54723607Y-94500960D01*
X54711874Y-94513454D01*
X54529783Y-94735926D01*
X54519854Y-94749897D01*
X54369640Y-94995023D01*
X54361700Y-95010213D01*
X54246144Y-95273457D01*
X54240338Y-95289583D01*
X54161577Y-95566075D01*
X54158013Y-95582841D01*
X54117506Y-95867463D01*
X54116251Y-95884556D01*
X54114745Y-96172043D01*
X54115821Y-96189149D01*
X54153346Y-96474180D01*
X54156734Y-96490982D01*
X54232595Y-96768284D01*
X54238232Y-96784471D01*
X54351026Y-97048911D01*
X54358807Y-97064182D01*
X54506445Y-97310867D01*
X54516227Y-97324942D01*
X54695979Y-97549309D01*
X54707580Y-97561925D01*
X54916118Y-97759820D01*
X54929325Y-97770745D01*
X55162791Y-97938508D01*
X55177358Y-97947540D01*
X55431433Y-98082066D01*
X55447091Y-98089038D01*
X55717072Y-98187837D01*
X55733531Y-98192619D01*
X56014422Y-98253863D01*
X56031378Y-98256367D01*
X56256853Y-98274112D01*
X56266739Y-98274500D01*
X56422271Y-98274500D01*
X56430841Y-98274208D01*
X56645395Y-98259581D01*
X56662376Y-98257255D01*
X56943893Y-98198956D01*
X56960402Y-98194347D01*
X57231403Y-98098380D01*
X57247133Y-98091573D01*
X57502602Y-97959716D01*
X57517263Y-97950837D01*
X57752474Y-97785528D01*
X57765794Y-97774741D01*
X57976393Y-97579040D01*
X57988126Y-97566546D01*
X58170217Y-97344074D01*
X58180146Y-97330103D01*
X58330360Y-97084977D01*
X58338300Y-97069787D01*
X58453856Y-96806543D01*
X58459662Y-96790417D01*
X58538423Y-96513925D01*
X58541987Y-96497159D01*
X58582494Y-96212537D01*
X58583749Y-96195444D01*
X58585255Y-95907957D01*
X58584179Y-95890851D01*
X58546654Y-95605820D01*
X58543266Y-95589018D01*
X58467405Y-95311716D01*
X58461768Y-95295529D01*
X58348974Y-95031089D01*
X58341193Y-95015818D01*
X58193555Y-94769133D01*
X58183773Y-94755058D01*
X58004021Y-94530691D01*
X57992420Y-94518075D01*
X57783882Y-94320180D01*
X57770675Y-94309255D01*
X57685430Y-94248000D01*
X60636000Y-94248000D01*
X60636000Y-107623629D01*
X60425500Y-107413129D01*
X60425500Y-106662600D01*
X60424827Y-106649596D01*
X60413853Y-106543830D01*
X60408050Y-106516958D01*
X60370500Y-106404407D01*
X60370500Y-102625260D01*
X60371444Y-102535098D01*
X60368605Y-102507152D01*
X60359445Y-102464787D01*
X60354612Y-102421699D01*
X60348389Y-102394308D01*
X60337358Y-102362632D01*
X60330273Y-102329862D01*
X60321314Y-102303241D01*
X60302992Y-102263949D01*
X60288736Y-102223011D01*
X60276600Y-102197679D01*
X60258829Y-102169239D01*
X60244659Y-102138850D01*
X60230023Y-102114872D01*
X60203451Y-102080615D01*
X60180480Y-102043854D01*
X60163033Y-102021841D01*
X60134431Y-101993038D01*
X60133017Y-101991435D01*
X60107338Y-101965756D01*
X60035221Y-101893134D01*
X60032644Y-101891062D01*
X57337329Y-99195747D01*
X57274252Y-99131335D01*
X57252484Y-99113582D01*
X57216050Y-99090102D01*
X57182165Y-99063052D01*
X57158395Y-99048083D01*
X57128201Y-99033487D01*
X57100018Y-99015324D01*
X57074858Y-99002834D01*
X57034122Y-98988007D01*
X56995089Y-98969138D01*
X56968595Y-98959808D01*
X56935917Y-98952264D01*
X56904410Y-98940796D01*
X56877106Y-98934190D01*
X56834091Y-98928756D01*
X56791860Y-98919006D01*
X56763955Y-98915777D01*
X56723385Y-98915635D01*
X56721231Y-98915500D01*
X56684581Y-98915500D01*
X56582570Y-98915144D01*
X56579293Y-98915500D01*
X53580448Y-98915500D01*
X53448876Y-98783928D01*
X53432052Y-98769810D01*
X53249948Y-98642299D01*
X53230927Y-98631317D01*
X53120285Y-98579724D01*
X53230676Y-98528248D01*
X53249696Y-98517266D01*
X53312875Y-98473028D01*
X53357204Y-98417571D01*
X53364513Y-98346952D01*
X53329700Y-98280720D01*
X52629095Y-97580115D01*
X52566783Y-97546089D01*
X52495968Y-97551154D01*
X52450905Y-97580115D01*
X51750300Y-98280720D01*
X51716274Y-98343032D01*
X51721339Y-98413847D01*
X51767125Y-98473028D01*
X51830304Y-98517266D01*
X51849324Y-98528248D01*
X51959715Y-98579724D01*
X51849074Y-98631317D01*
X51830053Y-98642299D01*
X51647948Y-98769810D01*
X51631124Y-98783928D01*
X51473928Y-98941124D01*
X51459810Y-98957948D01*
X51332299Y-99140053D01*
X51321317Y-99159074D01*
X51227365Y-99360554D01*
X51219853Y-99381193D01*
X51162315Y-99595926D01*
X51158501Y-99617556D01*
X51154344Y-99665074D01*
X49891747Y-100927671D01*
X49827335Y-100990748D01*
X49809582Y-101012516D01*
X49786102Y-101048950D01*
X49759052Y-101082835D01*
X49744083Y-101106605D01*
X49729487Y-101136799D01*
X49711324Y-101164982D01*
X49698834Y-101190142D01*
X49684007Y-101230878D01*
X49665138Y-101269911D01*
X49655808Y-101296405D01*
X49648264Y-101329083D01*
X49636796Y-101360590D01*
X49630190Y-101387894D01*
X49624756Y-101430909D01*
X49615006Y-101473140D01*
X49611777Y-101501045D01*
X49611635Y-101541615D01*
X49611500Y-101543769D01*
X49611500Y-101580419D01*
X49611144Y-101682430D01*
X49611500Y-101685707D01*
X49611500Y-105333405D01*
X49422845Y-105144750D01*
X49424844Y-105125243D01*
X49425500Y-105112400D01*
X49425500Y-104311600D01*
X49424827Y-104298596D01*
X49413853Y-104192830D01*
X49408050Y-104165958D01*
X49352074Y-103998178D01*
X49339694Y-103971751D01*
X49246622Y-103821349D01*
X49228496Y-103798479D01*
X49103321Y-103673522D01*
X49080419Y-103655435D01*
X48929854Y-103562625D01*
X48903405Y-103550292D01*
X48735528Y-103494610D01*
X48708704Y-103488859D01*
X48604243Y-103478156D01*
X48591400Y-103477500D01*
X47240600Y-103477500D01*
X47227596Y-103478173D01*
X47121830Y-103489147D01*
X47094958Y-103494950D01*
X46927178Y-103550926D01*
X46900751Y-103563306D01*
X46750349Y-103656378D01*
X46727479Y-103674504D01*
X46602522Y-103799679D01*
X46584435Y-103822581D01*
X46491625Y-103973146D01*
X46479292Y-103999595D01*
X46423610Y-104167472D01*
X46417859Y-104194296D01*
X46407156Y-104298757D01*
X46406500Y-104311600D01*
X46406500Y-105112400D01*
X46407173Y-105125404D01*
X46418147Y-105231170D01*
X46423950Y-105258042D01*
X46479926Y-105425822D01*
X46492306Y-105452249D01*
X46585378Y-105602651D01*
X46603504Y-105625521D01*
X46728679Y-105750478D01*
X46751581Y-105768565D01*
X46803120Y-105800334D01*
X46795247Y-105806518D01*
X46777915Y-105823024D01*
X46639283Y-105982783D01*
X46625384Y-106002268D01*
X46519463Y-106185359D01*
X46509499Y-106207121D01*
X46440111Y-106406938D01*
X46434443Y-106430191D01*
X46404091Y-106639524D01*
X46402922Y-106663430D01*
X46412702Y-106874725D01*
X46416074Y-106898420D01*
X46465632Y-107104055D01*
X46473424Y-107126685D01*
X46560973Y-107319238D01*
X46572904Y-107339987D01*
X46695284Y-107512511D01*
X46710923Y-107530629D01*
X46863719Y-107676899D01*
X46882502Y-107691733D01*
X46914814Y-107712597D01*
X46795247Y-107806518D01*
X46777915Y-107823024D01*
X46639283Y-107982783D01*
X46625384Y-108002268D01*
X46519463Y-108185359D01*
X46509499Y-108207121D01*
X46440111Y-108406938D01*
X46434443Y-108430191D01*
X46404091Y-108639524D01*
X46402922Y-108663430D01*
X46412702Y-108874725D01*
X46416074Y-108898420D01*
X46465632Y-109104055D01*
X46473424Y-109126685D01*
X46560973Y-109319238D01*
X46572904Y-109339987D01*
X46695284Y-109512511D01*
X46710923Y-109530629D01*
X46863719Y-109676899D01*
X46882502Y-109691733D01*
X46914814Y-109712597D01*
X46795247Y-109806518D01*
X46777915Y-109823024D01*
X46639283Y-109982783D01*
X46625384Y-110002268D01*
X46519463Y-110185359D01*
X46509499Y-110207121D01*
X46440111Y-110406938D01*
X46434443Y-110430191D01*
X46404091Y-110639524D01*
X46402922Y-110663430D01*
X46412702Y-110874725D01*
X46416074Y-110898420D01*
X46465632Y-111104055D01*
X46473424Y-111126685D01*
X46560973Y-111319238D01*
X46572904Y-111339987D01*
X46695284Y-111512511D01*
X46710923Y-111530629D01*
X46863719Y-111676899D01*
X46882502Y-111691733D01*
X46914814Y-111712597D01*
X46795247Y-111806518D01*
X46777915Y-111823024D01*
X46639283Y-111982783D01*
X46625384Y-112002268D01*
X46519463Y-112185359D01*
X46509499Y-112207121D01*
X46440111Y-112406938D01*
X46434443Y-112430191D01*
X46404091Y-112639524D01*
X46402922Y-112663430D01*
X46412702Y-112874725D01*
X46416074Y-112898420D01*
X46465632Y-113104055D01*
X46473424Y-113126685D01*
X46560973Y-113319238D01*
X46572904Y-113339987D01*
X46695284Y-113512511D01*
X46710923Y-113530629D01*
X46863719Y-113676899D01*
X46882502Y-113691733D01*
X47060200Y-113806472D01*
X47081450Y-113817486D01*
X47277639Y-113896552D01*
X47300587Y-113903350D01*
X47508187Y-113943892D01*
X47526183Y-113946078D01*
X47531745Y-113946350D01*
X47537899Y-113946500D01*
X48078974Y-113946500D01*
X48103853Y-113969863D01*
X48129406Y-113988428D01*
X48147157Y-113998187D01*
X48163159Y-114010599D01*
X48190344Y-114026676D01*
X48230913Y-114044232D01*
X48269667Y-114065537D01*
X48299033Y-114077164D01*
X48318653Y-114082201D01*
X48337240Y-114090245D01*
X48367571Y-114099057D01*
X48411234Y-114105973D01*
X48454063Y-114116969D01*
X48485397Y-114120927D01*
X48505658Y-114120927D01*
X48525660Y-114124095D01*
X48557227Y-114125087D01*
X48601238Y-114120927D01*
X50287501Y-114120927D01*
X50287501Y-114151312D01*
X50288579Y-114167756D01*
X50304240Y-114286722D01*
X50312753Y-114318495D01*
X50320181Y-114336427D01*
X50312753Y-114354359D01*
X50304240Y-114386131D01*
X50288578Y-114505096D01*
X50287500Y-114521542D01*
X50287501Y-114801311D01*
X50288579Y-114817756D01*
X50304240Y-114936722D01*
X50312753Y-114968495D01*
X50320181Y-114986427D01*
X50312753Y-115004359D01*
X50304240Y-115036131D01*
X50288578Y-115155096D01*
X50287500Y-115171542D01*
X50287501Y-115451311D01*
X50288579Y-115467756D01*
X50304240Y-115586722D01*
X50312753Y-115618495D01*
X50320181Y-115636427D01*
X50312753Y-115654359D01*
X50304240Y-115686131D01*
X50288578Y-115805096D01*
X50287500Y-115821542D01*
X50287501Y-116101311D01*
X50288579Y-116117756D01*
X50304240Y-116236722D01*
X50312753Y-116268495D01*
X50320452Y-116287081D01*
X50313241Y-116304489D01*
X50304728Y-116336260D01*
X50296997Y-116394980D01*
X50307936Y-116465129D01*
X50355064Y-116518228D01*
X50421919Y-116537427D01*
X50461431Y-116537427D01*
X50488051Y-116572118D01*
X50511309Y-116595376D01*
X50628665Y-116685427D01*
X50421920Y-116685427D01*
X50353799Y-116705429D01*
X50307306Y-116759085D01*
X50296998Y-116827872D01*
X50304728Y-116886592D01*
X50313241Y-116918365D01*
X50332144Y-116964000D01*
X42290000Y-116964000D01*
X42290000Y-98553932D01*
X46437765Y-98553932D01*
X46439990Y-98565521D01*
X46466107Y-98673891D01*
X46473899Y-98696521D01*
X46561408Y-98888988D01*
X46573339Y-98909737D01*
X46695664Y-99082183D01*
X46711303Y-99100301D01*
X46864030Y-99246505D01*
X46882813Y-99261339D01*
X47060431Y-99376026D01*
X47081681Y-99387040D01*
X47277782Y-99466071D01*
X47300730Y-99472869D01*
X47508236Y-99513392D01*
X47526232Y-99515578D01*
X47531794Y-99515850D01*
X47537948Y-99516000D01*
X47662000Y-99516000D01*
X47730121Y-99495998D01*
X47776614Y-99442342D01*
X47788000Y-99390000D01*
X48044000Y-99390000D01*
X48064002Y-99458121D01*
X48117658Y-99504614D01*
X48170000Y-99516000D01*
X48243825Y-99516000D01*
X48255792Y-99515430D01*
X48413438Y-99500389D01*
X48436940Y-99495864D01*
X48639816Y-99436347D01*
X48662039Y-99427458D01*
X48850001Y-99330651D01*
X48870142Y-99317721D01*
X49036407Y-99187118D01*
X49053739Y-99170613D01*
X49192308Y-99010927D01*
X49206207Y-98991441D01*
X49312080Y-98808432D01*
X49322044Y-98786670D01*
X49391401Y-98586943D01*
X49397070Y-98563685D01*
X49398463Y-98554075D01*
X49388440Y-98483790D01*
X49342009Y-98430081D01*
X49273766Y-98410000D01*
X48170000Y-98410000D01*
X48101879Y-98430002D01*
X48055386Y-98483658D01*
X48044000Y-98536000D01*
X48044000Y-99390000D01*
X47788000Y-99390000D01*
X47788000Y-98536000D01*
X47767998Y-98467879D01*
X47714342Y-98421386D01*
X47662000Y-98410000D01*
X46562483Y-98410000D01*
X46494362Y-98430002D01*
X46447869Y-98483658D01*
X46437765Y-98553932D01*
X42290000Y-98553932D01*
X42290000Y-96682400D01*
X46406500Y-96682400D01*
X46407173Y-96695404D01*
X46418147Y-96801170D01*
X46423950Y-96828042D01*
X46479926Y-96995822D01*
X46492306Y-97022249D01*
X46585378Y-97172651D01*
X46603504Y-97195521D01*
X46728679Y-97320478D01*
X46751581Y-97338565D01*
X46803573Y-97370614D01*
X46795593Y-97376882D01*
X46778261Y-97393387D01*
X46639692Y-97553073D01*
X46625793Y-97572559D01*
X46519920Y-97755568D01*
X46509956Y-97777330D01*
X46440599Y-97977057D01*
X46434930Y-98000315D01*
X46433537Y-98009925D01*
X46443560Y-98080210D01*
X46489991Y-98133919D01*
X46558234Y-98154000D01*
X49269517Y-98154000D01*
X49337638Y-98133998D01*
X49384131Y-98080342D01*
X49394235Y-98010068D01*
X49392010Y-97998479D01*
X49365893Y-97890109D01*
X49358101Y-97867479D01*
X49270592Y-97675012D01*
X49258661Y-97654263D01*
X49136336Y-97481817D01*
X49120697Y-97463699D01*
X49025374Y-97372447D01*
X49081651Y-97337622D01*
X49102646Y-97320982D01*
X51139628Y-97320982D01*
X51158996Y-97542358D01*
X51162810Y-97563987D01*
X51220325Y-97778636D01*
X51227837Y-97799275D01*
X51321752Y-98000675D01*
X51332733Y-98019694D01*
X51376971Y-98082874D01*
X51432428Y-98127204D01*
X51503047Y-98134514D01*
X51569280Y-98099700D01*
X52269885Y-97399095D01*
X52303911Y-97336783D01*
X52300080Y-97283217D01*
X52776089Y-97283217D01*
X52781154Y-97354032D01*
X52810115Y-97399095D01*
X53510720Y-98099700D01*
X53573032Y-98133726D01*
X53643847Y-98128661D01*
X53703029Y-98082874D01*
X53747267Y-98019694D01*
X53758248Y-98000675D01*
X53852163Y-97799275D01*
X53859675Y-97778636D01*
X53917190Y-97563987D01*
X53921004Y-97542358D01*
X53940372Y-97320982D01*
X53940372Y-97299018D01*
X53921004Y-97077642D01*
X53917190Y-97056013D01*
X53859675Y-96841364D01*
X53852163Y-96820725D01*
X53758248Y-96619325D01*
X53747267Y-96600306D01*
X53703029Y-96537126D01*
X53647572Y-96492796D01*
X53576953Y-96485486D01*
X53510720Y-96520300D01*
X52810115Y-97220905D01*
X52776089Y-97283217D01*
X52300080Y-97283217D01*
X52298846Y-97265968D01*
X52269885Y-97220905D01*
X51569280Y-96520300D01*
X51506968Y-96486274D01*
X51436153Y-96491339D01*
X51376971Y-96537126D01*
X51332733Y-96600306D01*
X51321752Y-96619325D01*
X51227837Y-96820725D01*
X51220325Y-96841364D01*
X51162810Y-97056013D01*
X51158996Y-97077642D01*
X51139628Y-97299018D01*
X51139628Y-97320982D01*
X49102646Y-97320982D01*
X49104521Y-97319496D01*
X49229478Y-97194321D01*
X49247565Y-97171419D01*
X49340375Y-97020854D01*
X49352708Y-96994405D01*
X49408390Y-96826528D01*
X49414141Y-96799704D01*
X49424844Y-96695243D01*
X49425500Y-96682400D01*
X49425500Y-96273047D01*
X51715486Y-96273047D01*
X51750300Y-96339280D01*
X52450905Y-97039885D01*
X52513217Y-97073911D01*
X52584032Y-97068846D01*
X52629095Y-97039885D01*
X53329700Y-96339280D01*
X53363726Y-96276968D01*
X53358661Y-96206153D01*
X53312875Y-96146972D01*
X53249696Y-96102734D01*
X53230676Y-96091752D01*
X53029275Y-95997837D01*
X53008636Y-95990325D01*
X52793987Y-95932810D01*
X52772358Y-95928996D01*
X52550982Y-95909628D01*
X52529018Y-95909628D01*
X52307642Y-95928996D01*
X52286013Y-95932810D01*
X52071364Y-95990325D01*
X52050725Y-95997837D01*
X51849325Y-96091752D01*
X51830306Y-96102733D01*
X51767126Y-96146971D01*
X51722796Y-96202428D01*
X51715486Y-96273047D01*
X49425500Y-96273047D01*
X49425500Y-95881600D01*
X49424827Y-95868596D01*
X49413853Y-95762830D01*
X49408050Y-95735958D01*
X49352074Y-95568178D01*
X49339694Y-95541751D01*
X49246622Y-95391349D01*
X49228496Y-95368479D01*
X49103321Y-95243522D01*
X49080419Y-95225435D01*
X48929854Y-95132625D01*
X48903405Y-95120292D01*
X48735528Y-95064610D01*
X48708704Y-95058859D01*
X48604243Y-95048156D01*
X48591400Y-95047500D01*
X47240600Y-95047500D01*
X47227596Y-95048173D01*
X47121830Y-95059147D01*
X47094958Y-95064950D01*
X46927178Y-95120926D01*
X46900751Y-95133306D01*
X46750349Y-95226378D01*
X46727479Y-95244504D01*
X46602522Y-95369679D01*
X46584435Y-95392581D01*
X46491625Y-95543146D01*
X46479292Y-95569595D01*
X46423610Y-95737472D01*
X46417859Y-95764296D01*
X46407156Y-95868757D01*
X46406500Y-95881600D01*
X46406500Y-96682400D01*
X42290000Y-96682400D01*
X42290000Y-94248000D01*
X55013649Y-94248000D01*
X54947526Y-94294472D02*
X55013649Y-94248000D01*
%TA.AperFunction,Conductor*%
G36*
X54947526Y-94294472D02*
G01*
X54934206Y-94305259D01*
X54723607Y-94500960D01*
X54711874Y-94513454D01*
X54529783Y-94735926D01*
X54519854Y-94749897D01*
X54369640Y-94995023D01*
X54361700Y-95010213D01*
X54246144Y-95273457D01*
X54240338Y-95289583D01*
X54161577Y-95566075D01*
X54158013Y-95582841D01*
X54117506Y-95867463D01*
X54116251Y-95884556D01*
X54114745Y-96172043D01*
X54115821Y-96189149D01*
X54153346Y-96474180D01*
X54156734Y-96490982D01*
X54232595Y-96768284D01*
X54238232Y-96784471D01*
X54351026Y-97048911D01*
X54358807Y-97064182D01*
X54506445Y-97310867D01*
X54516227Y-97324942D01*
X54695979Y-97549309D01*
X54707580Y-97561925D01*
X54916118Y-97759820D01*
X54929325Y-97770745D01*
X55162791Y-97938508D01*
X55177358Y-97947540D01*
X55431433Y-98082066D01*
X55447091Y-98089038D01*
X55717072Y-98187837D01*
X55733531Y-98192619D01*
X56014422Y-98253863D01*
X56031378Y-98256367D01*
X56256853Y-98274112D01*
X56266739Y-98274500D01*
X56422271Y-98274500D01*
X56430841Y-98274208D01*
X56645395Y-98259581D01*
X56662376Y-98257255D01*
X56943893Y-98198956D01*
X56960402Y-98194347D01*
X57231403Y-98098380D01*
X57247133Y-98091573D01*
X57502602Y-97959716D01*
X57517263Y-97950837D01*
X57752474Y-97785528D01*
X57765794Y-97774741D01*
X57976393Y-97579040D01*
X57988126Y-97566546D01*
X58170217Y-97344074D01*
X58180146Y-97330103D01*
X58330360Y-97084977D01*
X58338300Y-97069787D01*
X58453856Y-96806543D01*
X58459662Y-96790417D01*
X58538423Y-96513925D01*
X58541987Y-96497159D01*
X58582494Y-96212537D01*
X58583749Y-96195444D01*
X58585255Y-95907957D01*
X58584179Y-95890851D01*
X58546654Y-95605820D01*
X58543266Y-95589018D01*
X58467405Y-95311716D01*
X58461768Y-95295529D01*
X58348974Y-95031089D01*
X58341193Y-95015818D01*
X58193555Y-94769133D01*
X58183773Y-94755058D01*
X58004021Y-94530691D01*
X57992420Y-94518075D01*
X57783882Y-94320180D01*
X57770675Y-94309255D01*
X57685430Y-94248000D01*
X60636000Y-94248000D01*
X60636000Y-107623629D01*
X60425500Y-107413129D01*
X60425500Y-106662600D01*
X60424827Y-106649596D01*
X60413853Y-106543830D01*
X60408050Y-106516958D01*
X60370500Y-106404407D01*
X60370500Y-102625260D01*
X60371444Y-102535098D01*
X60368605Y-102507152D01*
X60359445Y-102464787D01*
X60354612Y-102421699D01*
X60348389Y-102394308D01*
X60337358Y-102362632D01*
X60330273Y-102329862D01*
X60321314Y-102303241D01*
X60302992Y-102263949D01*
X60288736Y-102223011D01*
X60276600Y-102197679D01*
X60258829Y-102169239D01*
X60244659Y-102138850D01*
X60230023Y-102114872D01*
X60203451Y-102080615D01*
X60180480Y-102043854D01*
X60163033Y-102021841D01*
X60134431Y-101993038D01*
X60133017Y-101991435D01*
X60107338Y-101965756D01*
X60035221Y-101893134D01*
X60032644Y-101891062D01*
X57337329Y-99195747D01*
X57274252Y-99131335D01*
X57252484Y-99113582D01*
X57216050Y-99090102D01*
X57182165Y-99063052D01*
X57158395Y-99048083D01*
X57128201Y-99033487D01*
X57100018Y-99015324D01*
X57074858Y-99002834D01*
X57034122Y-98988007D01*
X56995089Y-98969138D01*
X56968595Y-98959808D01*
X56935917Y-98952264D01*
X56904410Y-98940796D01*
X56877106Y-98934190D01*
X56834091Y-98928756D01*
X56791860Y-98919006D01*
X56763955Y-98915777D01*
X56723385Y-98915635D01*
X56721231Y-98915500D01*
X56684581Y-98915500D01*
X56582570Y-98915144D01*
X56579293Y-98915500D01*
X53580448Y-98915500D01*
X53448876Y-98783928D01*
X53432052Y-98769810D01*
X53249948Y-98642299D01*
X53230927Y-98631317D01*
X53120285Y-98579724D01*
X53230676Y-98528248D01*
X53249696Y-98517266D01*
X53312875Y-98473028D01*
X53357204Y-98417571D01*
X53364513Y-98346952D01*
X53329700Y-98280720D01*
X52629095Y-97580115D01*
X52566783Y-97546089D01*
X52495968Y-97551154D01*
X52450905Y-97580115D01*
X51750300Y-98280720D01*
X51716274Y-98343032D01*
X51721339Y-98413847D01*
X51767125Y-98473028D01*
X51830304Y-98517266D01*
X51849324Y-98528248D01*
X51959715Y-98579724D01*
X51849074Y-98631317D01*
X51830053Y-98642299D01*
X51647948Y-98769810D01*
X51631124Y-98783928D01*
X51473928Y-98941124D01*
X51459810Y-98957948D01*
X51332299Y-99140053D01*
X51321317Y-99159074D01*
X51227365Y-99360554D01*
X51219853Y-99381193D01*
X51162315Y-99595926D01*
X51158501Y-99617556D01*
X51154344Y-99665074D01*
X49891747Y-100927671D01*
X49827335Y-100990748D01*
X49809582Y-101012516D01*
X49786102Y-101048950D01*
X49759052Y-101082835D01*
X49744083Y-101106605D01*
X49729487Y-101136799D01*
X49711324Y-101164982D01*
X49698834Y-101190142D01*
X49684007Y-101230878D01*
X49665138Y-101269911D01*
X49655808Y-101296405D01*
X49648264Y-101329083D01*
X49636796Y-101360590D01*
X49630190Y-101387894D01*
X49624756Y-101430909D01*
X49615006Y-101473140D01*
X49611777Y-101501045D01*
X49611635Y-101541615D01*
X49611500Y-101543769D01*
X49611500Y-101580419D01*
X49611144Y-101682430D01*
X49611500Y-101685707D01*
X49611500Y-105333405D01*
X49422845Y-105144750D01*
X49424844Y-105125243D01*
X49425500Y-105112400D01*
X49425500Y-104311600D01*
X49424827Y-104298596D01*
X49413853Y-104192830D01*
X49408050Y-104165958D01*
X49352074Y-103998178D01*
X49339694Y-103971751D01*
X49246622Y-103821349D01*
X49228496Y-103798479D01*
X49103321Y-103673522D01*
X49080419Y-103655435D01*
X48929854Y-103562625D01*
X48903405Y-103550292D01*
X48735528Y-103494610D01*
X48708704Y-103488859D01*
X48604243Y-103478156D01*
X48591400Y-103477500D01*
X47240600Y-103477500D01*
X47227596Y-103478173D01*
X47121830Y-103489147D01*
X47094958Y-103494950D01*
X46927178Y-103550926D01*
X46900751Y-103563306D01*
X46750349Y-103656378D01*
X46727479Y-103674504D01*
X46602522Y-103799679D01*
X46584435Y-103822581D01*
X46491625Y-103973146D01*
X46479292Y-103999595D01*
X46423610Y-104167472D01*
X46417859Y-104194296D01*
X46407156Y-104298757D01*
X46406500Y-104311600D01*
X46406500Y-105112400D01*
X46407173Y-105125404D01*
X46418147Y-105231170D01*
X46423950Y-105258042D01*
X46479926Y-105425822D01*
X46492306Y-105452249D01*
X46585378Y-105602651D01*
X46603504Y-105625521D01*
X46728679Y-105750478D01*
X46751581Y-105768565D01*
X46803120Y-105800334D01*
X46795247Y-105806518D01*
X46777915Y-105823024D01*
X46639283Y-105982783D01*
X46625384Y-106002268D01*
X46519463Y-106185359D01*
X46509499Y-106207121D01*
X46440111Y-106406938D01*
X46434443Y-106430191D01*
X46404091Y-106639524D01*
X46402922Y-106663430D01*
X46412702Y-106874725D01*
X46416074Y-106898420D01*
X46465632Y-107104055D01*
X46473424Y-107126685D01*
X46560973Y-107319238D01*
X46572904Y-107339987D01*
X46695284Y-107512511D01*
X46710923Y-107530629D01*
X46863719Y-107676899D01*
X46882502Y-107691733D01*
X46914814Y-107712597D01*
X46795247Y-107806518D01*
X46777915Y-107823024D01*
X46639283Y-107982783D01*
X46625384Y-108002268D01*
X46519463Y-108185359D01*
X46509499Y-108207121D01*
X46440111Y-108406938D01*
X46434443Y-108430191D01*
X46404091Y-108639524D01*
X46402922Y-108663430D01*
X46412702Y-108874725D01*
X46416074Y-108898420D01*
X46465632Y-109104055D01*
X46473424Y-109126685D01*
X46560973Y-109319238D01*
X46572904Y-109339987D01*
X46695284Y-109512511D01*
X46710923Y-109530629D01*
X46863719Y-109676899D01*
X46882502Y-109691733D01*
X46914814Y-109712597D01*
X46795247Y-109806518D01*
X46777915Y-109823024D01*
X46639283Y-109982783D01*
X46625384Y-110002268D01*
X46519463Y-110185359D01*
X46509499Y-110207121D01*
X46440111Y-110406938D01*
X46434443Y-110430191D01*
X46404091Y-110639524D01*
X46402922Y-110663430D01*
X46412702Y-110874725D01*
X46416074Y-110898420D01*
X46465632Y-111104055D01*
X46473424Y-111126685D01*
X46560973Y-111319238D01*
X46572904Y-111339987D01*
X46695284Y-111512511D01*
X46710923Y-111530629D01*
X46863719Y-111676899D01*
X46882502Y-111691733D01*
X46914814Y-111712597D01*
X46795247Y-111806518D01*
X46777915Y-111823024D01*
X46639283Y-111982783D01*
X46625384Y-112002268D01*
X46519463Y-112185359D01*
X46509499Y-112207121D01*
X46440111Y-112406938D01*
X46434443Y-112430191D01*
X46404091Y-112639524D01*
X46402922Y-112663430D01*
X46412702Y-112874725D01*
X46416074Y-112898420D01*
X46465632Y-113104055D01*
X46473424Y-113126685D01*
X46560973Y-113319238D01*
X46572904Y-113339987D01*
X46695284Y-113512511D01*
X46710923Y-113530629D01*
X46863719Y-113676899D01*
X46882502Y-113691733D01*
X47060200Y-113806472D01*
X47081450Y-113817486D01*
X47277639Y-113896552D01*
X47300587Y-113903350D01*
X47508187Y-113943892D01*
X47526183Y-113946078D01*
X47531745Y-113946350D01*
X47537899Y-113946500D01*
X48078974Y-113946500D01*
X48103853Y-113969863D01*
X48129406Y-113988428D01*
X48147157Y-113998187D01*
X48163159Y-114010599D01*
X48190344Y-114026676D01*
X48230913Y-114044232D01*
X48269667Y-114065537D01*
X48299033Y-114077164D01*
X48318653Y-114082201D01*
X48337240Y-114090245D01*
X48367571Y-114099057D01*
X48411234Y-114105973D01*
X48454063Y-114116969D01*
X48485397Y-114120927D01*
X48505658Y-114120927D01*
X48525660Y-114124095D01*
X48557227Y-114125087D01*
X48601238Y-114120927D01*
X50287501Y-114120927D01*
X50287501Y-114151312D01*
X50288579Y-114167756D01*
X50304240Y-114286722D01*
X50312753Y-114318495D01*
X50320181Y-114336427D01*
X50312753Y-114354359D01*
X50304240Y-114386131D01*
X50288578Y-114505096D01*
X50287500Y-114521542D01*
X50287501Y-114801311D01*
X50288579Y-114817756D01*
X50304240Y-114936722D01*
X50312753Y-114968495D01*
X50320181Y-114986427D01*
X50312753Y-115004359D01*
X50304240Y-115036131D01*
X50288578Y-115155096D01*
X50287500Y-115171542D01*
X50287501Y-115451311D01*
X50288579Y-115467756D01*
X50304240Y-115586722D01*
X50312753Y-115618495D01*
X50320181Y-115636427D01*
X50312753Y-115654359D01*
X50304240Y-115686131D01*
X50288578Y-115805096D01*
X50287500Y-115821542D01*
X50287501Y-116101311D01*
X50288579Y-116117756D01*
X50304240Y-116236722D01*
X50312753Y-116268495D01*
X50320452Y-116287081D01*
X50313241Y-116304489D01*
X50304728Y-116336260D01*
X50296997Y-116394980D01*
X50307936Y-116465129D01*
X50355064Y-116518228D01*
X50421919Y-116537427D01*
X50461431Y-116537427D01*
X50488051Y-116572118D01*
X50511309Y-116595376D01*
X50628665Y-116685427D01*
X50421920Y-116685427D01*
X50353799Y-116705429D01*
X50307306Y-116759085D01*
X50296998Y-116827872D01*
X50304728Y-116886592D01*
X50313241Y-116918365D01*
X50332144Y-116964000D01*
X42290000Y-116964000D01*
X42290000Y-98553932D01*
X46437765Y-98553932D01*
X46439990Y-98565521D01*
X46466107Y-98673891D01*
X46473899Y-98696521D01*
X46561408Y-98888988D01*
X46573339Y-98909737D01*
X46695664Y-99082183D01*
X46711303Y-99100301D01*
X46864030Y-99246505D01*
X46882813Y-99261339D01*
X47060431Y-99376026D01*
X47081681Y-99387040D01*
X47277782Y-99466071D01*
X47300730Y-99472869D01*
X47508236Y-99513392D01*
X47526232Y-99515578D01*
X47531794Y-99515850D01*
X47537948Y-99516000D01*
X47662000Y-99516000D01*
X47730121Y-99495998D01*
X47776614Y-99442342D01*
X47788000Y-99390000D01*
X48044000Y-99390000D01*
X48064002Y-99458121D01*
X48117658Y-99504614D01*
X48170000Y-99516000D01*
X48243825Y-99516000D01*
X48255792Y-99515430D01*
X48413438Y-99500389D01*
X48436940Y-99495864D01*
X48639816Y-99436347D01*
X48662039Y-99427458D01*
X48850001Y-99330651D01*
X48870142Y-99317721D01*
X49036407Y-99187118D01*
X49053739Y-99170613D01*
X49192308Y-99010927D01*
X49206207Y-98991441D01*
X49312080Y-98808432D01*
X49322044Y-98786670D01*
X49391401Y-98586943D01*
X49397070Y-98563685D01*
X49398463Y-98554075D01*
X49388440Y-98483790D01*
X49342009Y-98430081D01*
X49273766Y-98410000D01*
X48170000Y-98410000D01*
X48101879Y-98430002D01*
X48055386Y-98483658D01*
X48044000Y-98536000D01*
X48044000Y-99390000D01*
X47788000Y-99390000D01*
X47788000Y-98536000D01*
X47767998Y-98467879D01*
X47714342Y-98421386D01*
X47662000Y-98410000D01*
X46562483Y-98410000D01*
X46494362Y-98430002D01*
X46447869Y-98483658D01*
X46437765Y-98553932D01*
X42290000Y-98553932D01*
X42290000Y-96682400D01*
X46406500Y-96682400D01*
X46407173Y-96695404D01*
X46418147Y-96801170D01*
X46423950Y-96828042D01*
X46479926Y-96995822D01*
X46492306Y-97022249D01*
X46585378Y-97172651D01*
X46603504Y-97195521D01*
X46728679Y-97320478D01*
X46751581Y-97338565D01*
X46803573Y-97370614D01*
X46795593Y-97376882D01*
X46778261Y-97393387D01*
X46639692Y-97553073D01*
X46625793Y-97572559D01*
X46519920Y-97755568D01*
X46509956Y-97777330D01*
X46440599Y-97977057D01*
X46434930Y-98000315D01*
X46433537Y-98009925D01*
X46443560Y-98080210D01*
X46489991Y-98133919D01*
X46558234Y-98154000D01*
X49269517Y-98154000D01*
X49337638Y-98133998D01*
X49384131Y-98080342D01*
X49394235Y-98010068D01*
X49392010Y-97998479D01*
X49365893Y-97890109D01*
X49358101Y-97867479D01*
X49270592Y-97675012D01*
X49258661Y-97654263D01*
X49136336Y-97481817D01*
X49120697Y-97463699D01*
X49025374Y-97372447D01*
X49081651Y-97337622D01*
X49102646Y-97320982D01*
X51139628Y-97320982D01*
X51158996Y-97542358D01*
X51162810Y-97563987D01*
X51220325Y-97778636D01*
X51227837Y-97799275D01*
X51321752Y-98000675D01*
X51332733Y-98019694D01*
X51376971Y-98082874D01*
X51432428Y-98127204D01*
X51503047Y-98134514D01*
X51569280Y-98099700D01*
X52269885Y-97399095D01*
X52303911Y-97336783D01*
X52300080Y-97283217D01*
X52776089Y-97283217D01*
X52781154Y-97354032D01*
X52810115Y-97399095D01*
X53510720Y-98099700D01*
X53573032Y-98133726D01*
X53643847Y-98128661D01*
X53703029Y-98082874D01*
X53747267Y-98019694D01*
X53758248Y-98000675D01*
X53852163Y-97799275D01*
X53859675Y-97778636D01*
X53917190Y-97563987D01*
X53921004Y-97542358D01*
X53940372Y-97320982D01*
X53940372Y-97299018D01*
X53921004Y-97077642D01*
X53917190Y-97056013D01*
X53859675Y-96841364D01*
X53852163Y-96820725D01*
X53758248Y-96619325D01*
X53747267Y-96600306D01*
X53703029Y-96537126D01*
X53647572Y-96492796D01*
X53576953Y-96485486D01*
X53510720Y-96520300D01*
X52810115Y-97220905D01*
X52776089Y-97283217D01*
X52300080Y-97283217D01*
X52298846Y-97265968D01*
X52269885Y-97220905D01*
X51569280Y-96520300D01*
X51506968Y-96486274D01*
X51436153Y-96491339D01*
X51376971Y-96537126D01*
X51332733Y-96600306D01*
X51321752Y-96619325D01*
X51227837Y-96820725D01*
X51220325Y-96841364D01*
X51162810Y-97056013D01*
X51158996Y-97077642D01*
X51139628Y-97299018D01*
X51139628Y-97320982D01*
X49102646Y-97320982D01*
X49104521Y-97319496D01*
X49229478Y-97194321D01*
X49247565Y-97171419D01*
X49340375Y-97020854D01*
X49352708Y-96994405D01*
X49408390Y-96826528D01*
X49414141Y-96799704D01*
X49424844Y-96695243D01*
X49425500Y-96682400D01*
X49425500Y-96273047D01*
X51715486Y-96273047D01*
X51750300Y-96339280D01*
X52450905Y-97039885D01*
X52513217Y-97073911D01*
X52584032Y-97068846D01*
X52629095Y-97039885D01*
X53329700Y-96339280D01*
X53363726Y-96276968D01*
X53358661Y-96206153D01*
X53312875Y-96146972D01*
X53249696Y-96102734D01*
X53230676Y-96091752D01*
X53029275Y-95997837D01*
X53008636Y-95990325D01*
X52793987Y-95932810D01*
X52772358Y-95928996D01*
X52550982Y-95909628D01*
X52529018Y-95909628D01*
X52307642Y-95928996D01*
X52286013Y-95932810D01*
X52071364Y-95990325D01*
X52050725Y-95997837D01*
X51849325Y-96091752D01*
X51830306Y-96102733D01*
X51767126Y-96146971D01*
X51722796Y-96202428D01*
X51715486Y-96273047D01*
X49425500Y-96273047D01*
X49425500Y-95881600D01*
X49424827Y-95868596D01*
X49413853Y-95762830D01*
X49408050Y-95735958D01*
X49352074Y-95568178D01*
X49339694Y-95541751D01*
X49246622Y-95391349D01*
X49228496Y-95368479D01*
X49103321Y-95243522D01*
X49080419Y-95225435D01*
X48929854Y-95132625D01*
X48903405Y-95120292D01*
X48735528Y-95064610D01*
X48708704Y-95058859D01*
X48604243Y-95048156D01*
X48591400Y-95047500D01*
X47240600Y-95047500D01*
X47227596Y-95048173D01*
X47121830Y-95059147D01*
X47094958Y-95064950D01*
X46927178Y-95120926D01*
X46900751Y-95133306D01*
X46750349Y-95226378D01*
X46727479Y-95244504D01*
X46602522Y-95369679D01*
X46584435Y-95392581D01*
X46491625Y-95543146D01*
X46479292Y-95569595D01*
X46423610Y-95737472D01*
X46417859Y-95764296D01*
X46407156Y-95868757D01*
X46406500Y-95881600D01*
X46406500Y-96682400D01*
X42290000Y-96682400D01*
X42290000Y-94248000D01*
X55013649Y-94248000D01*
X54947526Y-94294472D01*
G37*
%TD.AperFunction*%
X57026542Y-101528123D02*
X56982928Y-101512163D01*
X56966469Y-101507381D01*
X56685578Y-101446137D01*
X56668622Y-101443633D01*
X56443147Y-101425888D01*
X56433261Y-101425500D01*
X56277729Y-101425500D01*
X56269159Y-101425792D01*
X56054605Y-101440419D01*
X56037624Y-101442745D01*
X55756107Y-101501044D01*
X55739598Y-101505653D01*
X55468597Y-101601620D01*
X55452867Y-101608427D01*
X55197398Y-101740284D01*
X55182737Y-101749163D01*
X54947526Y-101914472D01*
X54934206Y-101925259D01*
X54723607Y-102120960D01*
X54711874Y-102133454D01*
X54529783Y-102355926D01*
X54519854Y-102369897D01*
X54369640Y-102615023D01*
X54361700Y-102630213D01*
X54246144Y-102893457D01*
X54240338Y-102909583D01*
X54161577Y-103186075D01*
X54158013Y-103202841D01*
X54117506Y-103487463D01*
X54116251Y-103504556D01*
X54114745Y-103792043D01*
X54115821Y-103809149D01*
X54153346Y-104094180D01*
X54156734Y-104110982D01*
X54232595Y-104388284D01*
X54238232Y-104404471D01*
X54351026Y-104668911D01*
X54358807Y-104684182D01*
X54506445Y-104930867D01*
X54516227Y-104944942D01*
X54695979Y-105169309D01*
X54707580Y-105181925D01*
X54916118Y-105379820D01*
X54929325Y-105390745D01*
X55162791Y-105558508D01*
X55177358Y-105567540D01*
X55431433Y-105702066D01*
X55447091Y-105709038D01*
X55717072Y-105807837D01*
X55733531Y-105812619D01*
X56014422Y-105873863D01*
X56031378Y-105876367D01*
X56256853Y-105894112D01*
X56266739Y-105894500D01*
X56422271Y-105894500D01*
X56430841Y-105894208D01*
X56457299Y-105892404D01*
X56427392Y-105902382D01*
X56400965Y-105914762D01*
X56250662Y-106007773D01*
X56227792Y-106025899D01*
X56102917Y-106150991D01*
X56084830Y-106173893D01*
X55992082Y-106324359D01*
X55979749Y-106350807D01*
X55924103Y-106518573D01*
X55918352Y-106545399D01*
X55907656Y-106649795D01*
X55907000Y-106662637D01*
X55907000Y-106934000D01*
X55927002Y-107002121D01*
X55980658Y-107048614D01*
X56033000Y-107060000D01*
X56874500Y-107060000D01*
X56942621Y-107039998D01*
X56989114Y-106986342D01*
X57000500Y-106934000D01*
X57000500Y-105955001D01*
X56980498Y-105886880D01*
X56926842Y-105840387D01*
X56884687Y-105831217D01*
X56943893Y-105818956D01*
X56960402Y-105814347D01*
X57231403Y-105718380D01*
X57247133Y-105711573D01*
X57502602Y-105579716D01*
X57517263Y-105570837D01*
X57752474Y-105405528D01*
X57765794Y-105394741D01*
X57976393Y-105199040D01*
X57988126Y-105186546D01*
X58170217Y-104964074D01*
X58180146Y-104950103D01*
X58330360Y-104704977D01*
X58338300Y-104689787D01*
X58453856Y-104426543D01*
X58459662Y-104410417D01*
X58501500Y-104263544D01*
X58501500Y-105902244D01*
X58475751Y-105914306D01*
X58325349Y-106007378D01*
X58302479Y-106025504D01*
X58177522Y-106150679D01*
X58165684Y-106165668D01*
X58153101Y-106149792D01*
X58028009Y-106024917D01*
X58005107Y-106006830D01*
X57854641Y-105914082D01*
X57828193Y-105901749D01*
X57660427Y-105846103D01*
X57633601Y-105840352D01*
X57529205Y-105829656D01*
X57516363Y-105829000D01*
X57382500Y-105829000D01*
X57314379Y-105849002D01*
X57267886Y-105902658D01*
X57256500Y-105955000D01*
X57256500Y-108420999D01*
X57276502Y-108489120D01*
X57330158Y-108535613D01*
X57382500Y-108546999D01*
X57516362Y-108546999D01*
X57529365Y-108546326D01*
X57635066Y-108535359D01*
X57661939Y-108529556D01*
X57829608Y-108473618D01*
X57856035Y-108461238D01*
X58006338Y-108368227D01*
X58029208Y-108350101D01*
X58154083Y-108225009D01*
X58165674Y-108210333D01*
X58178504Y-108226521D01*
X58303679Y-108351478D01*
X58326581Y-108369565D01*
X58477146Y-108462375D01*
X58503595Y-108474708D01*
X58671472Y-108530390D01*
X58698296Y-108536141D01*
X58802757Y-108546844D01*
X58815600Y-108547500D01*
X59058129Y-108547500D01*
X59137556Y-108626927D01*
X58407116Y-108626928D01*
X58390671Y-108628006D01*
X58271705Y-108643667D01*
X58239932Y-108652180D01*
X58091906Y-108713494D01*
X58063419Y-108729941D01*
X57936308Y-108827478D01*
X57913051Y-108850736D01*
X57815514Y-108977848D01*
X57799067Y-109006334D01*
X57737753Y-109154359D01*
X57729240Y-109186131D01*
X57713578Y-109305096D01*
X57712500Y-109321542D01*
X57712501Y-109601311D01*
X57713579Y-109617756D01*
X57729240Y-109736722D01*
X57737753Y-109768495D01*
X57745181Y-109786427D01*
X57737753Y-109804359D01*
X57729240Y-109836131D01*
X57713578Y-109955096D01*
X57712500Y-109971542D01*
X57712501Y-110251311D01*
X57713579Y-110267756D01*
X57729240Y-110386722D01*
X57737753Y-110418495D01*
X57745181Y-110436427D01*
X57737753Y-110454359D01*
X57729240Y-110486131D01*
X57713578Y-110605096D01*
X57712500Y-110621542D01*
X57712501Y-110901311D01*
X57713579Y-110917756D01*
X57729240Y-111036722D01*
X57737753Y-111068495D01*
X57745181Y-111086427D01*
X57737753Y-111104359D01*
X57729240Y-111136131D01*
X57713578Y-111255096D01*
X57712500Y-111271543D01*
X57712500Y-111301927D01*
X57258021Y-111301927D01*
X55623500Y-109667405D01*
X55623500Y-107713362D01*
X55907001Y-107713362D01*
X55907674Y-107726365D01*
X55918641Y-107832066D01*
X55924444Y-107858939D01*
X55980382Y-108026608D01*
X55992762Y-108053035D01*
X56085773Y-108203338D01*
X56103899Y-108226208D01*
X56228991Y-108351083D01*
X56251893Y-108369170D01*
X56402359Y-108461918D01*
X56428807Y-108474251D01*
X56596573Y-108529897D01*
X56623399Y-108535648D01*
X56727795Y-108546344D01*
X56740637Y-108547000D01*
X56874500Y-108547000D01*
X56942621Y-108526998D01*
X56989114Y-108473342D01*
X57000500Y-108421000D01*
X57000500Y-107442000D01*
X56980498Y-107373879D01*
X56926842Y-107327386D01*
X56874500Y-107316000D01*
X56033001Y-107316000D01*
X55964880Y-107336002D01*
X55918387Y-107389658D01*
X55907001Y-107442000D01*
X55907001Y-107713362D01*
X55623500Y-107713362D01*
X55623500Y-106504763D01*
X55625639Y-106482133D01*
X55623500Y-106414075D01*
X55623500Y-106386144D01*
X55622506Y-106370346D01*
X55621999Y-106366336D01*
X55620611Y-106322153D01*
X55615670Y-106290959D01*
X55610020Y-106271509D01*
X55607480Y-106251409D01*
X55599626Y-106220820D01*
X55583352Y-106179715D01*
X55571015Y-106137253D01*
X55558472Y-106108268D01*
X55548161Y-106090832D01*
X55540704Y-106071999D01*
X55525488Y-106044323D01*
X55499510Y-106008566D01*
X55476996Y-105970498D01*
X55457637Y-105945542D01*
X55443313Y-105931218D01*
X55431408Y-105914832D01*
X55409787Y-105891808D01*
X55375722Y-105863627D01*
X53299500Y-103787405D01*
X53299500Y-103563004D01*
X53432052Y-103470190D01*
X53448876Y-103456072D01*
X53606072Y-103298876D01*
X53620190Y-103282052D01*
X53747701Y-103099947D01*
X53758683Y-103080926D01*
X53852635Y-102879446D01*
X53860147Y-102858807D01*
X53917685Y-102644074D01*
X53921499Y-102622444D01*
X53940874Y-102400981D01*
X53940874Y-102379019D01*
X53921499Y-102157556D01*
X53917685Y-102135926D01*
X53860147Y-101921193D01*
X53852635Y-101900554D01*
X53758683Y-101699074D01*
X53747701Y-101680053D01*
X53620190Y-101497948D01*
X53606072Y-101481124D01*
X53448876Y-101323928D01*
X53432052Y-101309810D01*
X53249948Y-101182299D01*
X53230927Y-101171317D01*
X53120877Y-101120000D01*
X53230927Y-101068683D01*
X53249948Y-101057701D01*
X53432052Y-100930190D01*
X53448876Y-100916072D01*
X53580448Y-100784500D01*
X56282918Y-100784500D01*
X57026542Y-101528123D02*
X56282918Y-100784500D01*
%TA.AperFunction,Conductor*%
G36*
X57026542Y-101528123D02*
G01*
X56982928Y-101512163D01*
X56966469Y-101507381D01*
X56685578Y-101446137D01*
X56668622Y-101443633D01*
X56443147Y-101425888D01*
X56433261Y-101425500D01*
X56277729Y-101425500D01*
X56269159Y-101425792D01*
X56054605Y-101440419D01*
X56037624Y-101442745D01*
X55756107Y-101501044D01*
X55739598Y-101505653D01*
X55468597Y-101601620D01*
X55452867Y-101608427D01*
X55197398Y-101740284D01*
X55182737Y-101749163D01*
X54947526Y-101914472D01*
X54934206Y-101925259D01*
X54723607Y-102120960D01*
X54711874Y-102133454D01*
X54529783Y-102355926D01*
X54519854Y-102369897D01*
X54369640Y-102615023D01*
X54361700Y-102630213D01*
X54246144Y-102893457D01*
X54240338Y-102909583D01*
X54161577Y-103186075D01*
X54158013Y-103202841D01*
X54117506Y-103487463D01*
X54116251Y-103504556D01*
X54114745Y-103792043D01*
X54115821Y-103809149D01*
X54153346Y-104094180D01*
X54156734Y-104110982D01*
X54232595Y-104388284D01*
X54238232Y-104404471D01*
X54351026Y-104668911D01*
X54358807Y-104684182D01*
X54506445Y-104930867D01*
X54516227Y-104944942D01*
X54695979Y-105169309D01*
X54707580Y-105181925D01*
X54916118Y-105379820D01*
X54929325Y-105390745D01*
X55162791Y-105558508D01*
X55177358Y-105567540D01*
X55431433Y-105702066D01*
X55447091Y-105709038D01*
X55717072Y-105807837D01*
X55733531Y-105812619D01*
X56014422Y-105873863D01*
X56031378Y-105876367D01*
X56256853Y-105894112D01*
X56266739Y-105894500D01*
X56422271Y-105894500D01*
X56430841Y-105894208D01*
X56457299Y-105892404D01*
X56427392Y-105902382D01*
X56400965Y-105914762D01*
X56250662Y-106007773D01*
X56227792Y-106025899D01*
X56102917Y-106150991D01*
X56084830Y-106173893D01*
X55992082Y-106324359D01*
X55979749Y-106350807D01*
X55924103Y-106518573D01*
X55918352Y-106545399D01*
X55907656Y-106649795D01*
X55907000Y-106662637D01*
X55907000Y-106934000D01*
X55927002Y-107002121D01*
X55980658Y-107048614D01*
X56033000Y-107060000D01*
X56874500Y-107060000D01*
X56942621Y-107039998D01*
X56989114Y-106986342D01*
X57000500Y-106934000D01*
X57000500Y-105955001D01*
X56980498Y-105886880D01*
X56926842Y-105840387D01*
X56884687Y-105831217D01*
X56943893Y-105818956D01*
X56960402Y-105814347D01*
X57231403Y-105718380D01*
X57247133Y-105711573D01*
X57502602Y-105579716D01*
X57517263Y-105570837D01*
X57752474Y-105405528D01*
X57765794Y-105394741D01*
X57976393Y-105199040D01*
X57988126Y-105186546D01*
X58170217Y-104964074D01*
X58180146Y-104950103D01*
X58330360Y-104704977D01*
X58338300Y-104689787D01*
X58453856Y-104426543D01*
X58459662Y-104410417D01*
X58501500Y-104263544D01*
X58501500Y-105902244D01*
X58475751Y-105914306D01*
X58325349Y-106007378D01*
X58302479Y-106025504D01*
X58177522Y-106150679D01*
X58165684Y-106165668D01*
X58153101Y-106149792D01*
X58028009Y-106024917D01*
X58005107Y-106006830D01*
X57854641Y-105914082D01*
X57828193Y-105901749D01*
X57660427Y-105846103D01*
X57633601Y-105840352D01*
X57529205Y-105829656D01*
X57516363Y-105829000D01*
X57382500Y-105829000D01*
X57314379Y-105849002D01*
X57267886Y-105902658D01*
X57256500Y-105955000D01*
X57256500Y-108420999D01*
X57276502Y-108489120D01*
X57330158Y-108535613D01*
X57382500Y-108546999D01*
X57516362Y-108546999D01*
X57529365Y-108546326D01*
X57635066Y-108535359D01*
X57661939Y-108529556D01*
X57829608Y-108473618D01*
X57856035Y-108461238D01*
X58006338Y-108368227D01*
X58029208Y-108350101D01*
X58154083Y-108225009D01*
X58165674Y-108210333D01*
X58178504Y-108226521D01*
X58303679Y-108351478D01*
X58326581Y-108369565D01*
X58477146Y-108462375D01*
X58503595Y-108474708D01*
X58671472Y-108530390D01*
X58698296Y-108536141D01*
X58802757Y-108546844D01*
X58815600Y-108547500D01*
X59058129Y-108547500D01*
X59137556Y-108626927D01*
X58407116Y-108626928D01*
X58390671Y-108628006D01*
X58271705Y-108643667D01*
X58239932Y-108652180D01*
X58091906Y-108713494D01*
X58063419Y-108729941D01*
X57936308Y-108827478D01*
X57913051Y-108850736D01*
X57815514Y-108977848D01*
X57799067Y-109006334D01*
X57737753Y-109154359D01*
X57729240Y-109186131D01*
X57713578Y-109305096D01*
X57712500Y-109321542D01*
X57712501Y-109601311D01*
X57713579Y-109617756D01*
X57729240Y-109736722D01*
X57737753Y-109768495D01*
X57745181Y-109786427D01*
X57737753Y-109804359D01*
X57729240Y-109836131D01*
X57713578Y-109955096D01*
X57712500Y-109971542D01*
X57712501Y-110251311D01*
X57713579Y-110267756D01*
X57729240Y-110386722D01*
X57737753Y-110418495D01*
X57745181Y-110436427D01*
X57737753Y-110454359D01*
X57729240Y-110486131D01*
X57713578Y-110605096D01*
X57712500Y-110621542D01*
X57712501Y-110901311D01*
X57713579Y-110917756D01*
X57729240Y-111036722D01*
X57737753Y-111068495D01*
X57745181Y-111086427D01*
X57737753Y-111104359D01*
X57729240Y-111136131D01*
X57713578Y-111255096D01*
X57712500Y-111271543D01*
X57712500Y-111301927D01*
X57258021Y-111301927D01*
X55623500Y-109667405D01*
X55623500Y-107713362D01*
X55907001Y-107713362D01*
X55907674Y-107726365D01*
X55918641Y-107832066D01*
X55924444Y-107858939D01*
X55980382Y-108026608D01*
X55992762Y-108053035D01*
X56085773Y-108203338D01*
X56103899Y-108226208D01*
X56228991Y-108351083D01*
X56251893Y-108369170D01*
X56402359Y-108461918D01*
X56428807Y-108474251D01*
X56596573Y-108529897D01*
X56623399Y-108535648D01*
X56727795Y-108546344D01*
X56740637Y-108547000D01*
X56874500Y-108547000D01*
X56942621Y-108526998D01*
X56989114Y-108473342D01*
X57000500Y-108421000D01*
X57000500Y-107442000D01*
X56980498Y-107373879D01*
X56926842Y-107327386D01*
X56874500Y-107316000D01*
X56033001Y-107316000D01*
X55964880Y-107336002D01*
X55918387Y-107389658D01*
X55907001Y-107442000D01*
X55907001Y-107713362D01*
X55623500Y-107713362D01*
X55623500Y-106504763D01*
X55625639Y-106482133D01*
X55623500Y-106414075D01*
X55623500Y-106386144D01*
X55622506Y-106370346D01*
X55621999Y-106366336D01*
X55620611Y-106322153D01*
X55615670Y-106290959D01*
X55610020Y-106271509D01*
X55607480Y-106251409D01*
X55599626Y-106220820D01*
X55583352Y-106179715D01*
X55571015Y-106137253D01*
X55558472Y-106108268D01*
X55548161Y-106090832D01*
X55540704Y-106071999D01*
X55525488Y-106044323D01*
X55499510Y-106008566D01*
X55476996Y-105970498D01*
X55457637Y-105945542D01*
X55443313Y-105931218D01*
X55431408Y-105914832D01*
X55409787Y-105891808D01*
X55375722Y-105863627D01*
X53299500Y-103787405D01*
X53299500Y-103563004D01*
X53432052Y-103470190D01*
X53448876Y-103456072D01*
X53606072Y-103298876D01*
X53620190Y-103282052D01*
X53747701Y-103099947D01*
X53758683Y-103080926D01*
X53852635Y-102879446D01*
X53860147Y-102858807D01*
X53917685Y-102644074D01*
X53921499Y-102622444D01*
X53940874Y-102400981D01*
X53940874Y-102379019D01*
X53921499Y-102157556D01*
X53917685Y-102135926D01*
X53860147Y-101921193D01*
X53852635Y-101900554D01*
X53758683Y-101699074D01*
X53747701Y-101680053D01*
X53620190Y-101497948D01*
X53606072Y-101481124D01*
X53448876Y-101323928D01*
X53432052Y-101309810D01*
X53249948Y-101182299D01*
X53230927Y-101171317D01*
X53120877Y-101120000D01*
X53230927Y-101068683D01*
X53249948Y-101057701D01*
X53432052Y-100930190D01*
X53448876Y-100916072D01*
X53580448Y-100784500D01*
X56282918Y-100784500D01*
X57026542Y-101528123D01*
G37*
%TD.AperFunction*%
%TD*%
M02*
