%TF.GenerationSoftware,KiCad,Pcbnew,(6.0.1)*%
%TF.CreationDate,2022-06-20T00:10:41-07:00*%
%TF.ProjectId,mu100-dit,6d753130-302d-4646-9974-2e6b69636164,rev?*%
%TF.SameCoordinates,Original*%
%TF.FileFunction,Copper,L2,Bot*%
%TF.FilePolarity,Positive*%
%FSLAX46Y46*%
G04 Gerber Fmt 4.6, Leading zero omitted, Abs format (unit mm)*
G04 Created by KiCad (PCBNEW (6.0.1)) date 2022-06-20 00:10:41*
%MOMM*%
%LPD*%
G01*
G04 APERTURE LIST*
G04 Aperture macros list*
%AMRoundRect*
0 Rectangle with rounded corners*
0 $1 Rounding radius*
0 $2 $3 $4 $5 $6 $7 $8 $9 X,Y pos of 4 corners*
0 Add a 4 corners polygon primitive as box body*
4,1,4,$2,$3,$4,$5,$6,$7,$8,$9,$2,$3,0*
0 Add four circle primitives for the rounded corners*
1,1,$1+$1,$2,$3*
1,1,$1+$1,$4,$5*
1,1,$1+$1,$6,$7*
1,1,$1+$1,$8,$9*
0 Add four rect primitives between the rounded corners*
20,1,$1+$1,$2,$3,$4,$5,0*
20,1,$1+$1,$4,$5,$6,$7,0*
20,1,$1+$1,$6,$7,$8,$9,0*
20,1,$1+$1,$8,$9,$2,$3,0*%
G04 Aperture macros list end*
%TA.AperFunction,ComponentPad*%
%ADD10C,1.524000*%
%TD*%
%TA.AperFunction,ComponentPad*%
%ADD11RoundRect,0.250000X-0.625000X0.350000X-0.625000X-0.350000X0.625000X-0.350000X0.625000X0.350000X0*%
%TD*%
%TA.AperFunction,ComponentPad*%
%ADD12O,1.750000X1.200000*%
%TD*%
%TA.AperFunction,ViaPad*%
%ADD13C,0.800000*%
%TD*%
%TA.AperFunction,Conductor*%
%ADD14C,0.600000*%
%TD*%
%TA.AperFunction,Conductor*%
%ADD15C,0.254000*%
%TD*%
G04 APERTURE END LIST*
D10*
%TO.P,U1,1,GND*%
%TO.N,/TXP*%
X52540000Y-102390000D03*
%TO.P,U1,2,VCC*%
%TO.N,+5V*%
X52540000Y-99850000D03*
%TO.P,U1,3,Input*%
%TO.N,GND*%
X52540000Y-97310000D03*
%TD*%
D11*
%TO.P,J2,1,Pin_1*%
%TO.N,+5V*%
X47916000Y-96282000D03*
D12*
%TO.P,J2,2,Pin_2*%
%TO.N,GND*%
X47916000Y-98282000D03*
%TD*%
D11*
%TO.P,J1,1,Pin_1*%
%TO.N,/RESET*%
X47916000Y-104712000D03*
D12*
%TO.P,J1,2,Pin_2*%
%TO.N,/MCLK*%
X47916000Y-106712000D03*
%TO.P,J1,3,Pin_3*%
%TO.N,/SDAT*%
X47916000Y-108712000D03*
%TO.P,J1,4,Pin_4*%
%TO.N,/BICK*%
X47916000Y-110712000D03*
%TO.P,J1,5,Pin_5*%
%TO.N,/LRCK*%
X47916000Y-112712000D03*
%TD*%
D13*
%TO.N,GND*%
X55626000Y-107188000D03*
%TD*%
D14*
%TO.N,+5V*%
X48972000Y-96282000D02*
X52540000Y-99850000D01*
X48006000Y-96282000D02*
X48972000Y-96282000D01*
%TD*%
%TO.N,GND*%
D15*
X54947526Y-94294472D02*
X54934206Y-94305259D01*
X54723607Y-94500960D01*
X54711874Y-94513454D01*
X54529783Y-94735926D01*
X54519854Y-94749897D01*
X54369640Y-94995023D01*
X54361700Y-95010213D01*
X54246144Y-95273457D01*
X54240338Y-95289583D01*
X54161577Y-95566075D01*
X54158013Y-95582841D01*
X54117506Y-95867463D01*
X54116251Y-95884556D01*
X54114745Y-96172043D01*
X54115821Y-96189149D01*
X54153346Y-96474180D01*
X54156734Y-96490982D01*
X54232595Y-96768284D01*
X54238232Y-96784471D01*
X54351026Y-97048911D01*
X54358807Y-97064182D01*
X54506445Y-97310867D01*
X54516227Y-97324942D01*
X54695979Y-97549309D01*
X54707580Y-97561925D01*
X54916118Y-97759820D01*
X54929325Y-97770745D01*
X55162791Y-97938508D01*
X55177358Y-97947540D01*
X55431433Y-98082066D01*
X55447091Y-98089038D01*
X55717072Y-98187837D01*
X55733531Y-98192619D01*
X56014422Y-98253863D01*
X56031378Y-98256367D01*
X56256853Y-98274112D01*
X56266739Y-98274500D01*
X56422271Y-98274500D01*
X56430841Y-98274208D01*
X56645395Y-98259581D01*
X56662376Y-98257255D01*
X56943893Y-98198956D01*
X56960402Y-98194347D01*
X57231403Y-98098380D01*
X57247133Y-98091573D01*
X57502602Y-97959716D01*
X57517263Y-97950837D01*
X57752474Y-97785528D01*
X57765794Y-97774741D01*
X57976393Y-97579040D01*
X57988126Y-97566546D01*
X58170217Y-97344074D01*
X58180146Y-97330103D01*
X58330360Y-97084977D01*
X58338300Y-97069787D01*
X58453856Y-96806543D01*
X58459662Y-96790417D01*
X58538423Y-96513925D01*
X58541987Y-96497159D01*
X58582494Y-96212537D01*
X58583749Y-96195444D01*
X58585255Y-95907957D01*
X58584179Y-95890851D01*
X58546654Y-95605820D01*
X58543266Y-95589018D01*
X58467405Y-95311716D01*
X58461768Y-95295529D01*
X58348974Y-95031089D01*
X58341193Y-95015818D01*
X58193555Y-94769133D01*
X58183773Y-94755058D01*
X58004021Y-94530691D01*
X57992420Y-94518075D01*
X57783882Y-94320180D01*
X57770675Y-94309255D01*
X57685430Y-94248000D01*
X60636000Y-94248000D01*
X60636000Y-116964000D01*
X42290000Y-116964000D01*
X42290000Y-112663430D01*
X46402922Y-112663430D01*
X46412702Y-112874725D01*
X46416074Y-112898420D01*
X46465632Y-113104055D01*
X46473424Y-113126685D01*
X46560973Y-113319238D01*
X46572904Y-113339987D01*
X46695284Y-113512511D01*
X46710923Y-113530629D01*
X46863719Y-113676899D01*
X46882502Y-113691733D01*
X47060200Y-113806472D01*
X47081450Y-113817486D01*
X47277639Y-113896552D01*
X47300587Y-113903350D01*
X47508187Y-113943892D01*
X47526183Y-113946078D01*
X47531745Y-113946350D01*
X47537899Y-113946500D01*
X48243846Y-113946500D01*
X48255813Y-113945930D01*
X48413533Y-113930882D01*
X48437035Y-113926357D01*
X48640003Y-113866813D01*
X48662226Y-113857924D01*
X48850272Y-113761074D01*
X48870413Y-113748144D01*
X49036753Y-113617482D01*
X49054085Y-113600976D01*
X49192717Y-113441217D01*
X49206616Y-113421732D01*
X49312537Y-113238641D01*
X49322501Y-113216879D01*
X49391889Y-113017062D01*
X49397557Y-112993809D01*
X49427909Y-112784476D01*
X49429078Y-112760570D01*
X49419298Y-112549275D01*
X49415926Y-112525580D01*
X49366368Y-112319945D01*
X49358576Y-112297315D01*
X49271027Y-112104762D01*
X49259096Y-112084013D01*
X49136716Y-111911489D01*
X49121077Y-111893371D01*
X48968281Y-111747101D01*
X48949498Y-111732267D01*
X48917186Y-111711403D01*
X49036753Y-111617482D01*
X49054085Y-111600976D01*
X49192717Y-111441217D01*
X49206616Y-111421732D01*
X49312537Y-111238641D01*
X49322501Y-111216879D01*
X49391889Y-111017062D01*
X49397557Y-110993809D01*
X49427909Y-110784476D01*
X49429078Y-110760570D01*
X49419298Y-110549275D01*
X49415926Y-110525580D01*
X49366368Y-110319945D01*
X49358576Y-110297315D01*
X49271027Y-110104762D01*
X49259096Y-110084013D01*
X49136716Y-109911489D01*
X49121077Y-109893371D01*
X48968281Y-109747101D01*
X48949498Y-109732267D01*
X48917186Y-109711403D01*
X49036753Y-109617482D01*
X49054085Y-109600976D01*
X49192717Y-109441217D01*
X49206616Y-109421732D01*
X49312537Y-109238641D01*
X49322501Y-109216879D01*
X49391889Y-109017062D01*
X49397557Y-108993809D01*
X49427909Y-108784476D01*
X49429078Y-108760570D01*
X49419298Y-108549275D01*
X49415926Y-108525580D01*
X49366368Y-108319945D01*
X49358576Y-108297315D01*
X49271027Y-108104762D01*
X49259096Y-108084013D01*
X49136716Y-107911489D01*
X49121077Y-107893371D01*
X48968281Y-107747101D01*
X48949498Y-107732267D01*
X48917186Y-107711403D01*
X49036753Y-107617482D01*
X49054085Y-107600976D01*
X49192717Y-107441217D01*
X49206616Y-107421732D01*
X49312537Y-107238641D01*
X49322501Y-107216879D01*
X49391889Y-107017062D01*
X49397557Y-106993809D01*
X49427909Y-106784476D01*
X49429078Y-106760570D01*
X49419298Y-106549275D01*
X49415926Y-106525580D01*
X49366368Y-106319945D01*
X49358576Y-106297315D01*
X49271027Y-106104762D01*
X49259096Y-106084013D01*
X49136716Y-105911489D01*
X49121077Y-105893371D01*
X49025813Y-105802176D01*
X49081651Y-105767622D01*
X49104521Y-105749496D01*
X49229478Y-105624321D01*
X49247565Y-105601419D01*
X49340375Y-105450854D01*
X49352708Y-105424405D01*
X49408390Y-105256528D01*
X49414141Y-105229704D01*
X49424844Y-105125243D01*
X49425500Y-105112400D01*
X49425500Y-104311600D01*
X49424827Y-104298596D01*
X49413853Y-104192830D01*
X49408050Y-104165958D01*
X49352074Y-103998178D01*
X49339694Y-103971751D01*
X49246622Y-103821349D01*
X49228496Y-103798479D01*
X49222049Y-103792043D01*
X54114745Y-103792043D01*
X54115821Y-103809149D01*
X54153346Y-104094180D01*
X54156734Y-104110982D01*
X54232595Y-104388284D01*
X54238232Y-104404471D01*
X54351026Y-104668911D01*
X54358807Y-104684182D01*
X54506445Y-104930867D01*
X54516227Y-104944942D01*
X54695979Y-105169309D01*
X54707580Y-105181925D01*
X54916118Y-105379820D01*
X54929325Y-105390745D01*
X55162791Y-105558508D01*
X55177358Y-105567540D01*
X55431433Y-105702066D01*
X55447091Y-105709038D01*
X55717072Y-105807837D01*
X55733531Y-105812619D01*
X56014422Y-105873863D01*
X56031378Y-105876367D01*
X56256853Y-105894112D01*
X56266739Y-105894500D01*
X56422271Y-105894500D01*
X56430841Y-105894208D01*
X56645395Y-105879581D01*
X56662376Y-105877255D01*
X56943893Y-105818956D01*
X56960402Y-105814347D01*
X57231403Y-105718380D01*
X57247133Y-105711573D01*
X57502602Y-105579716D01*
X57517263Y-105570837D01*
X57752474Y-105405528D01*
X57765794Y-105394741D01*
X57976393Y-105199040D01*
X57988126Y-105186546D01*
X58170217Y-104964074D01*
X58180146Y-104950103D01*
X58330360Y-104704977D01*
X58338300Y-104689787D01*
X58453856Y-104426543D01*
X58459662Y-104410417D01*
X58538423Y-104133925D01*
X58541987Y-104117159D01*
X58582494Y-103832537D01*
X58583749Y-103815444D01*
X58585255Y-103527957D01*
X58584179Y-103510851D01*
X58546654Y-103225820D01*
X58543266Y-103209018D01*
X58467405Y-102931716D01*
X58461768Y-102915529D01*
X58348974Y-102651089D01*
X58341193Y-102635818D01*
X58193555Y-102389133D01*
X58183773Y-102375058D01*
X58004021Y-102150691D01*
X57992420Y-102138075D01*
X57783882Y-101940180D01*
X57770675Y-101929255D01*
X57537209Y-101761492D01*
X57522642Y-101752460D01*
X57268567Y-101617934D01*
X57252909Y-101610962D01*
X56982928Y-101512163D01*
X56966469Y-101507381D01*
X56685578Y-101446137D01*
X56668622Y-101443633D01*
X56443147Y-101425888D01*
X56433261Y-101425500D01*
X56277729Y-101425500D01*
X56269159Y-101425792D01*
X56054605Y-101440419D01*
X56037624Y-101442745D01*
X55756107Y-101501044D01*
X55739598Y-101505653D01*
X55468597Y-101601620D01*
X55452867Y-101608427D01*
X55197398Y-101740284D01*
X55182737Y-101749163D01*
X54947526Y-101914472D01*
X54934206Y-101925259D01*
X54723607Y-102120960D01*
X54711874Y-102133454D01*
X54529783Y-102355926D01*
X54519854Y-102369897D01*
X54369640Y-102615023D01*
X54361700Y-102630213D01*
X54246144Y-102893457D01*
X54240338Y-102909583D01*
X54161577Y-103186075D01*
X54158013Y-103202841D01*
X54117506Y-103487463D01*
X54116251Y-103504556D01*
X54114745Y-103792043D01*
X49222049Y-103792043D01*
X49103321Y-103673522D01*
X49080419Y-103655435D01*
X48929854Y-103562625D01*
X48903405Y-103550292D01*
X48735528Y-103494610D01*
X48708704Y-103488859D01*
X48604243Y-103478156D01*
X48591400Y-103477500D01*
X47240600Y-103477500D01*
X47227596Y-103478173D01*
X47121830Y-103489147D01*
X47094958Y-103494950D01*
X46927178Y-103550926D01*
X46900751Y-103563306D01*
X46750349Y-103656378D01*
X46727479Y-103674504D01*
X46602522Y-103799679D01*
X46584435Y-103822581D01*
X46491625Y-103973146D01*
X46479292Y-103999595D01*
X46423610Y-104167472D01*
X46417859Y-104194296D01*
X46407156Y-104298757D01*
X46406500Y-104311600D01*
X46406500Y-105112400D01*
X46407173Y-105125404D01*
X46418147Y-105231170D01*
X46423950Y-105258042D01*
X46479926Y-105425822D01*
X46492306Y-105452249D01*
X46585378Y-105602651D01*
X46603504Y-105625521D01*
X46728679Y-105750478D01*
X46751581Y-105768565D01*
X46803120Y-105800334D01*
X46795247Y-105806518D01*
X46777915Y-105823024D01*
X46639283Y-105982783D01*
X46625384Y-106002268D01*
X46519463Y-106185359D01*
X46509499Y-106207121D01*
X46440111Y-106406938D01*
X46434443Y-106430191D01*
X46404091Y-106639524D01*
X46402922Y-106663430D01*
X46412702Y-106874725D01*
X46416074Y-106898420D01*
X46465632Y-107104055D01*
X46473424Y-107126685D01*
X46560973Y-107319238D01*
X46572904Y-107339987D01*
X46695284Y-107512511D01*
X46710923Y-107530629D01*
X46863719Y-107676899D01*
X46882502Y-107691733D01*
X46914814Y-107712597D01*
X46795247Y-107806518D01*
X46777915Y-107823024D01*
X46639283Y-107982783D01*
X46625384Y-108002268D01*
X46519463Y-108185359D01*
X46509499Y-108207121D01*
X46440111Y-108406938D01*
X46434443Y-108430191D01*
X46404091Y-108639524D01*
X46402922Y-108663430D01*
X46412702Y-108874725D01*
X46416074Y-108898420D01*
X46465632Y-109104055D01*
X46473424Y-109126685D01*
X46560973Y-109319238D01*
X46572904Y-109339987D01*
X46695284Y-109512511D01*
X46710923Y-109530629D01*
X46863719Y-109676899D01*
X46882502Y-109691733D01*
X46914814Y-109712597D01*
X46795247Y-109806518D01*
X46777915Y-109823024D01*
X46639283Y-109982783D01*
X46625384Y-110002268D01*
X46519463Y-110185359D01*
X46509499Y-110207121D01*
X46440111Y-110406938D01*
X46434443Y-110430191D01*
X46404091Y-110639524D01*
X46402922Y-110663430D01*
X46412702Y-110874725D01*
X46416074Y-110898420D01*
X46465632Y-111104055D01*
X46473424Y-111126685D01*
X46560973Y-111319238D01*
X46572904Y-111339987D01*
X46695284Y-111512511D01*
X46710923Y-111530629D01*
X46863719Y-111676899D01*
X46882502Y-111691733D01*
X46914814Y-111712597D01*
X46795247Y-111806518D01*
X46777915Y-111823024D01*
X46639283Y-111982783D01*
X46625384Y-112002268D01*
X46519463Y-112185359D01*
X46509499Y-112207121D01*
X46440111Y-112406938D01*
X46434443Y-112430191D01*
X46404091Y-112639524D01*
X46402922Y-112663430D01*
X42290000Y-112663430D01*
X42290000Y-98553932D01*
X46437765Y-98553932D01*
X46439990Y-98565521D01*
X46466107Y-98673891D01*
X46473899Y-98696521D01*
X46561408Y-98888988D01*
X46573339Y-98909737D01*
X46695664Y-99082183D01*
X46711303Y-99100301D01*
X46864030Y-99246505D01*
X46882813Y-99261339D01*
X47060431Y-99376026D01*
X47081681Y-99387040D01*
X47277782Y-99466071D01*
X47300730Y-99472869D01*
X47508236Y-99513392D01*
X47526232Y-99515578D01*
X47531794Y-99515850D01*
X47537948Y-99516000D01*
X47662000Y-99516000D01*
X47730121Y-99495998D01*
X47776614Y-99442342D01*
X47788000Y-99390000D01*
X48044000Y-99390000D01*
X48064002Y-99458121D01*
X48117658Y-99504614D01*
X48170000Y-99516000D01*
X48243825Y-99516000D01*
X48255792Y-99515430D01*
X48413438Y-99500389D01*
X48436940Y-99495864D01*
X48639816Y-99436347D01*
X48662039Y-99427458D01*
X48850001Y-99330651D01*
X48870142Y-99317721D01*
X49036407Y-99187118D01*
X49053739Y-99170613D01*
X49192308Y-99010927D01*
X49206207Y-98991441D01*
X49312080Y-98808432D01*
X49322044Y-98786670D01*
X49391401Y-98586943D01*
X49397070Y-98563685D01*
X49398463Y-98554075D01*
X49388440Y-98483790D01*
X49342009Y-98430081D01*
X49273766Y-98410000D01*
X48170000Y-98410000D01*
X48101879Y-98430002D01*
X48055386Y-98483658D01*
X48044000Y-98536000D01*
X48044000Y-99390000D01*
X47788000Y-99390000D01*
X47788000Y-98536000D01*
X47767998Y-98467879D01*
X47714342Y-98421386D01*
X47662000Y-98410000D01*
X46562483Y-98410000D01*
X46494362Y-98430002D01*
X46447869Y-98483658D01*
X46437765Y-98553932D01*
X42290000Y-98553932D01*
X42290000Y-96682400D01*
X46406500Y-96682400D01*
X46407173Y-96695404D01*
X46418147Y-96801170D01*
X46423950Y-96828042D01*
X46479926Y-96995822D01*
X46492306Y-97022249D01*
X46585378Y-97172651D01*
X46603504Y-97195521D01*
X46728679Y-97320478D01*
X46751581Y-97338565D01*
X46803573Y-97370614D01*
X46795593Y-97376882D01*
X46778261Y-97393387D01*
X46639692Y-97553073D01*
X46625793Y-97572559D01*
X46519920Y-97755568D01*
X46509956Y-97777330D01*
X46440599Y-97977057D01*
X46434930Y-98000315D01*
X46433537Y-98009925D01*
X46443560Y-98080210D01*
X46489991Y-98133919D01*
X46558234Y-98154000D01*
X49269517Y-98154000D01*
X49337638Y-98133998D01*
X49384131Y-98080342D01*
X49392255Y-98023837D01*
X51144621Y-99776203D01*
X51139126Y-99839019D01*
X51139126Y-99860981D01*
X51158501Y-100082444D01*
X51162315Y-100104074D01*
X51219853Y-100318807D01*
X51227365Y-100339446D01*
X51321317Y-100540926D01*
X51332299Y-100559947D01*
X51459810Y-100742052D01*
X51473928Y-100758876D01*
X51631124Y-100916072D01*
X51647948Y-100930190D01*
X51830052Y-101057701D01*
X51849073Y-101068683D01*
X51959123Y-101120000D01*
X51849074Y-101171317D01*
X51830053Y-101182299D01*
X51647948Y-101309810D01*
X51631124Y-101323928D01*
X51473928Y-101481124D01*
X51459810Y-101497948D01*
X51332299Y-101680053D01*
X51321317Y-101699074D01*
X51227365Y-101900554D01*
X51219853Y-101921193D01*
X51162315Y-102135926D01*
X51158501Y-102157556D01*
X51139126Y-102379019D01*
X51139126Y-102400981D01*
X51158501Y-102622444D01*
X51162315Y-102644074D01*
X51219853Y-102858807D01*
X51227365Y-102879446D01*
X51321317Y-103080926D01*
X51332299Y-103099947D01*
X51459810Y-103282052D01*
X51473928Y-103298876D01*
X51631124Y-103456072D01*
X51647948Y-103470190D01*
X51830052Y-103597701D01*
X51849073Y-103608683D01*
X52050554Y-103702635D01*
X52071193Y-103710147D01*
X52285926Y-103767685D01*
X52307556Y-103771499D01*
X52529019Y-103790874D01*
X52550981Y-103790874D01*
X52772444Y-103771499D01*
X52794074Y-103767685D01*
X53008807Y-103710147D01*
X53029446Y-103702635D01*
X53230927Y-103608683D01*
X53249948Y-103597701D01*
X53432052Y-103470190D01*
X53448876Y-103456072D01*
X53606072Y-103298876D01*
X53620190Y-103282052D01*
X53747701Y-103099947D01*
X53758683Y-103080926D01*
X53852635Y-102879446D01*
X53860147Y-102858807D01*
X53917685Y-102644074D01*
X53921499Y-102622444D01*
X53940874Y-102400981D01*
X53940874Y-102379019D01*
X53921499Y-102157556D01*
X53917685Y-102135926D01*
X53860147Y-101921193D01*
X53852635Y-101900554D01*
X53758683Y-101699074D01*
X53747701Y-101680053D01*
X53620190Y-101497948D01*
X53606072Y-101481124D01*
X53448876Y-101323928D01*
X53432052Y-101309810D01*
X53249948Y-101182299D01*
X53230927Y-101171317D01*
X53120877Y-101120000D01*
X53230927Y-101068683D01*
X53249948Y-101057701D01*
X53432052Y-100930190D01*
X53448876Y-100916072D01*
X53606072Y-100758876D01*
X53620190Y-100742052D01*
X53747701Y-100559947D01*
X53758683Y-100540926D01*
X53852635Y-100339446D01*
X53860147Y-100318807D01*
X53917685Y-100104074D01*
X53921499Y-100082444D01*
X53940874Y-99860981D01*
X53940874Y-99839019D01*
X53921499Y-99617556D01*
X53917685Y-99595926D01*
X53860147Y-99381193D01*
X53852635Y-99360554D01*
X53758683Y-99159074D01*
X53747701Y-99140053D01*
X53620190Y-98957948D01*
X53606072Y-98941124D01*
X53448876Y-98783928D01*
X53432052Y-98769810D01*
X53249948Y-98642299D01*
X53230927Y-98631317D01*
X53120285Y-98579724D01*
X53230676Y-98528248D01*
X53249696Y-98517266D01*
X53312875Y-98473028D01*
X53357204Y-98417571D01*
X53364513Y-98346952D01*
X53329700Y-98280720D01*
X52332197Y-97283217D01*
X52776089Y-97283217D01*
X52781154Y-97354032D01*
X52810115Y-97399095D01*
X53510720Y-98099700D01*
X53573032Y-98133726D01*
X53643847Y-98128661D01*
X53703029Y-98082874D01*
X53747267Y-98019694D01*
X53758248Y-98000675D01*
X53852163Y-97799275D01*
X53859675Y-97778636D01*
X53917190Y-97563987D01*
X53921004Y-97542358D01*
X53940372Y-97320982D01*
X53940372Y-97299018D01*
X53921004Y-97077642D01*
X53917190Y-97056013D01*
X53859675Y-96841364D01*
X53852163Y-96820725D01*
X53758248Y-96619325D01*
X53747267Y-96600306D01*
X53703029Y-96537126D01*
X53647572Y-96492796D01*
X53576953Y-96485486D01*
X53510720Y-96520300D01*
X52810115Y-97220905D01*
X52776089Y-97283217D01*
X52332197Y-97283217D01*
X51569280Y-96520300D01*
X51506968Y-96486274D01*
X51436153Y-96491339D01*
X51376971Y-96537126D01*
X51332733Y-96600306D01*
X51321752Y-96619325D01*
X51227837Y-96820725D01*
X51220325Y-96841364D01*
X51162810Y-97056013D01*
X51158996Y-97077642D01*
X51153383Y-97141801D01*
X50284629Y-96273047D01*
X51715486Y-96273047D01*
X51750300Y-96339280D01*
X52450905Y-97039885D01*
X52513217Y-97073911D01*
X52584032Y-97068846D01*
X52629095Y-97039885D01*
X53329700Y-96339280D01*
X53363726Y-96276968D01*
X53358661Y-96206153D01*
X53312875Y-96146972D01*
X53249696Y-96102734D01*
X53230676Y-96091752D01*
X53029275Y-95997837D01*
X53008636Y-95990325D01*
X52793987Y-95932810D01*
X52772358Y-95928996D01*
X52550982Y-95909628D01*
X52529018Y-95909628D01*
X52307642Y-95928996D01*
X52286013Y-95932810D01*
X52071364Y-95990325D01*
X52050725Y-95997837D01*
X51849325Y-96091752D01*
X51830306Y-96102733D01*
X51767126Y-96146971D01*
X51722796Y-96202428D01*
X51715486Y-96273047D01*
X50284629Y-96273047D01*
X49639329Y-95627747D01*
X49576252Y-95563335D01*
X49554484Y-95545582D01*
X49518050Y-95522102D01*
X49484165Y-95495052D01*
X49460395Y-95480083D01*
X49430201Y-95465487D01*
X49402018Y-95447324D01*
X49376858Y-95434834D01*
X49336122Y-95420007D01*
X49297089Y-95401138D01*
X49270595Y-95391808D01*
X49241699Y-95385137D01*
X49228496Y-95368479D01*
X49103321Y-95243522D01*
X49080419Y-95225435D01*
X48929854Y-95132625D01*
X48903405Y-95120292D01*
X48735528Y-95064610D01*
X48708704Y-95058859D01*
X48604243Y-95048156D01*
X48591400Y-95047500D01*
X47240600Y-95047500D01*
X47227596Y-95048173D01*
X47121830Y-95059147D01*
X47094958Y-95064950D01*
X46927178Y-95120926D01*
X46900751Y-95133306D01*
X46750349Y-95226378D01*
X46727479Y-95244504D01*
X46602522Y-95369679D01*
X46584435Y-95392581D01*
X46491625Y-95543146D01*
X46479292Y-95569595D01*
X46423610Y-95737472D01*
X46417859Y-95764296D01*
X46407156Y-95868757D01*
X46406500Y-95881600D01*
X46406500Y-96682400D01*
X42290000Y-96682400D01*
X42290000Y-94248000D01*
X55013649Y-94248000D01*
X54947526Y-94294472D02*
X55013649Y-94248000D01*
%TA.AperFunction,Conductor*%
G36*
X54947526Y-94294472D02*
G01*
X54934206Y-94305259D01*
X54723607Y-94500960D01*
X54711874Y-94513454D01*
X54529783Y-94735926D01*
X54519854Y-94749897D01*
X54369640Y-94995023D01*
X54361700Y-95010213D01*
X54246144Y-95273457D01*
X54240338Y-95289583D01*
X54161577Y-95566075D01*
X54158013Y-95582841D01*
X54117506Y-95867463D01*
X54116251Y-95884556D01*
X54114745Y-96172043D01*
X54115821Y-96189149D01*
X54153346Y-96474180D01*
X54156734Y-96490982D01*
X54232595Y-96768284D01*
X54238232Y-96784471D01*
X54351026Y-97048911D01*
X54358807Y-97064182D01*
X54506445Y-97310867D01*
X54516227Y-97324942D01*
X54695979Y-97549309D01*
X54707580Y-97561925D01*
X54916118Y-97759820D01*
X54929325Y-97770745D01*
X55162791Y-97938508D01*
X55177358Y-97947540D01*
X55431433Y-98082066D01*
X55447091Y-98089038D01*
X55717072Y-98187837D01*
X55733531Y-98192619D01*
X56014422Y-98253863D01*
X56031378Y-98256367D01*
X56256853Y-98274112D01*
X56266739Y-98274500D01*
X56422271Y-98274500D01*
X56430841Y-98274208D01*
X56645395Y-98259581D01*
X56662376Y-98257255D01*
X56943893Y-98198956D01*
X56960402Y-98194347D01*
X57231403Y-98098380D01*
X57247133Y-98091573D01*
X57502602Y-97959716D01*
X57517263Y-97950837D01*
X57752474Y-97785528D01*
X57765794Y-97774741D01*
X57976393Y-97579040D01*
X57988126Y-97566546D01*
X58170217Y-97344074D01*
X58180146Y-97330103D01*
X58330360Y-97084977D01*
X58338300Y-97069787D01*
X58453856Y-96806543D01*
X58459662Y-96790417D01*
X58538423Y-96513925D01*
X58541987Y-96497159D01*
X58582494Y-96212537D01*
X58583749Y-96195444D01*
X58585255Y-95907957D01*
X58584179Y-95890851D01*
X58546654Y-95605820D01*
X58543266Y-95589018D01*
X58467405Y-95311716D01*
X58461768Y-95295529D01*
X58348974Y-95031089D01*
X58341193Y-95015818D01*
X58193555Y-94769133D01*
X58183773Y-94755058D01*
X58004021Y-94530691D01*
X57992420Y-94518075D01*
X57783882Y-94320180D01*
X57770675Y-94309255D01*
X57685430Y-94248000D01*
X60636000Y-94248000D01*
X60636000Y-116964000D01*
X42290000Y-116964000D01*
X42290000Y-112663430D01*
X46402922Y-112663430D01*
X46412702Y-112874725D01*
X46416074Y-112898420D01*
X46465632Y-113104055D01*
X46473424Y-113126685D01*
X46560973Y-113319238D01*
X46572904Y-113339987D01*
X46695284Y-113512511D01*
X46710923Y-113530629D01*
X46863719Y-113676899D01*
X46882502Y-113691733D01*
X47060200Y-113806472D01*
X47081450Y-113817486D01*
X47277639Y-113896552D01*
X47300587Y-113903350D01*
X47508187Y-113943892D01*
X47526183Y-113946078D01*
X47531745Y-113946350D01*
X47537899Y-113946500D01*
X48243846Y-113946500D01*
X48255813Y-113945930D01*
X48413533Y-113930882D01*
X48437035Y-113926357D01*
X48640003Y-113866813D01*
X48662226Y-113857924D01*
X48850272Y-113761074D01*
X48870413Y-113748144D01*
X49036753Y-113617482D01*
X49054085Y-113600976D01*
X49192717Y-113441217D01*
X49206616Y-113421732D01*
X49312537Y-113238641D01*
X49322501Y-113216879D01*
X49391889Y-113017062D01*
X49397557Y-112993809D01*
X49427909Y-112784476D01*
X49429078Y-112760570D01*
X49419298Y-112549275D01*
X49415926Y-112525580D01*
X49366368Y-112319945D01*
X49358576Y-112297315D01*
X49271027Y-112104762D01*
X49259096Y-112084013D01*
X49136716Y-111911489D01*
X49121077Y-111893371D01*
X48968281Y-111747101D01*
X48949498Y-111732267D01*
X48917186Y-111711403D01*
X49036753Y-111617482D01*
X49054085Y-111600976D01*
X49192717Y-111441217D01*
X49206616Y-111421732D01*
X49312537Y-111238641D01*
X49322501Y-111216879D01*
X49391889Y-111017062D01*
X49397557Y-110993809D01*
X49427909Y-110784476D01*
X49429078Y-110760570D01*
X49419298Y-110549275D01*
X49415926Y-110525580D01*
X49366368Y-110319945D01*
X49358576Y-110297315D01*
X49271027Y-110104762D01*
X49259096Y-110084013D01*
X49136716Y-109911489D01*
X49121077Y-109893371D01*
X48968281Y-109747101D01*
X48949498Y-109732267D01*
X48917186Y-109711403D01*
X49036753Y-109617482D01*
X49054085Y-109600976D01*
X49192717Y-109441217D01*
X49206616Y-109421732D01*
X49312537Y-109238641D01*
X49322501Y-109216879D01*
X49391889Y-109017062D01*
X49397557Y-108993809D01*
X49427909Y-108784476D01*
X49429078Y-108760570D01*
X49419298Y-108549275D01*
X49415926Y-108525580D01*
X49366368Y-108319945D01*
X49358576Y-108297315D01*
X49271027Y-108104762D01*
X49259096Y-108084013D01*
X49136716Y-107911489D01*
X49121077Y-107893371D01*
X48968281Y-107747101D01*
X48949498Y-107732267D01*
X48917186Y-107711403D01*
X49036753Y-107617482D01*
X49054085Y-107600976D01*
X49192717Y-107441217D01*
X49206616Y-107421732D01*
X49312537Y-107238641D01*
X49322501Y-107216879D01*
X49391889Y-107017062D01*
X49397557Y-106993809D01*
X49427909Y-106784476D01*
X49429078Y-106760570D01*
X49419298Y-106549275D01*
X49415926Y-106525580D01*
X49366368Y-106319945D01*
X49358576Y-106297315D01*
X49271027Y-106104762D01*
X49259096Y-106084013D01*
X49136716Y-105911489D01*
X49121077Y-105893371D01*
X49025813Y-105802176D01*
X49081651Y-105767622D01*
X49104521Y-105749496D01*
X49229478Y-105624321D01*
X49247565Y-105601419D01*
X49340375Y-105450854D01*
X49352708Y-105424405D01*
X49408390Y-105256528D01*
X49414141Y-105229704D01*
X49424844Y-105125243D01*
X49425500Y-105112400D01*
X49425500Y-104311600D01*
X49424827Y-104298596D01*
X49413853Y-104192830D01*
X49408050Y-104165958D01*
X49352074Y-103998178D01*
X49339694Y-103971751D01*
X49246622Y-103821349D01*
X49228496Y-103798479D01*
X49222049Y-103792043D01*
X54114745Y-103792043D01*
X54115821Y-103809149D01*
X54153346Y-104094180D01*
X54156734Y-104110982D01*
X54232595Y-104388284D01*
X54238232Y-104404471D01*
X54351026Y-104668911D01*
X54358807Y-104684182D01*
X54506445Y-104930867D01*
X54516227Y-104944942D01*
X54695979Y-105169309D01*
X54707580Y-105181925D01*
X54916118Y-105379820D01*
X54929325Y-105390745D01*
X55162791Y-105558508D01*
X55177358Y-105567540D01*
X55431433Y-105702066D01*
X55447091Y-105709038D01*
X55717072Y-105807837D01*
X55733531Y-105812619D01*
X56014422Y-105873863D01*
X56031378Y-105876367D01*
X56256853Y-105894112D01*
X56266739Y-105894500D01*
X56422271Y-105894500D01*
X56430841Y-105894208D01*
X56645395Y-105879581D01*
X56662376Y-105877255D01*
X56943893Y-105818956D01*
X56960402Y-105814347D01*
X57231403Y-105718380D01*
X57247133Y-105711573D01*
X57502602Y-105579716D01*
X57517263Y-105570837D01*
X57752474Y-105405528D01*
X57765794Y-105394741D01*
X57976393Y-105199040D01*
X57988126Y-105186546D01*
X58170217Y-104964074D01*
X58180146Y-104950103D01*
X58330360Y-104704977D01*
X58338300Y-104689787D01*
X58453856Y-104426543D01*
X58459662Y-104410417D01*
X58538423Y-104133925D01*
X58541987Y-104117159D01*
X58582494Y-103832537D01*
X58583749Y-103815444D01*
X58585255Y-103527957D01*
X58584179Y-103510851D01*
X58546654Y-103225820D01*
X58543266Y-103209018D01*
X58467405Y-102931716D01*
X58461768Y-102915529D01*
X58348974Y-102651089D01*
X58341193Y-102635818D01*
X58193555Y-102389133D01*
X58183773Y-102375058D01*
X58004021Y-102150691D01*
X57992420Y-102138075D01*
X57783882Y-101940180D01*
X57770675Y-101929255D01*
X57537209Y-101761492D01*
X57522642Y-101752460D01*
X57268567Y-101617934D01*
X57252909Y-101610962D01*
X56982928Y-101512163D01*
X56966469Y-101507381D01*
X56685578Y-101446137D01*
X56668622Y-101443633D01*
X56443147Y-101425888D01*
X56433261Y-101425500D01*
X56277729Y-101425500D01*
X56269159Y-101425792D01*
X56054605Y-101440419D01*
X56037624Y-101442745D01*
X55756107Y-101501044D01*
X55739598Y-101505653D01*
X55468597Y-101601620D01*
X55452867Y-101608427D01*
X55197398Y-101740284D01*
X55182737Y-101749163D01*
X54947526Y-101914472D01*
X54934206Y-101925259D01*
X54723607Y-102120960D01*
X54711874Y-102133454D01*
X54529783Y-102355926D01*
X54519854Y-102369897D01*
X54369640Y-102615023D01*
X54361700Y-102630213D01*
X54246144Y-102893457D01*
X54240338Y-102909583D01*
X54161577Y-103186075D01*
X54158013Y-103202841D01*
X54117506Y-103487463D01*
X54116251Y-103504556D01*
X54114745Y-103792043D01*
X49222049Y-103792043D01*
X49103321Y-103673522D01*
X49080419Y-103655435D01*
X48929854Y-103562625D01*
X48903405Y-103550292D01*
X48735528Y-103494610D01*
X48708704Y-103488859D01*
X48604243Y-103478156D01*
X48591400Y-103477500D01*
X47240600Y-103477500D01*
X47227596Y-103478173D01*
X47121830Y-103489147D01*
X47094958Y-103494950D01*
X46927178Y-103550926D01*
X46900751Y-103563306D01*
X46750349Y-103656378D01*
X46727479Y-103674504D01*
X46602522Y-103799679D01*
X46584435Y-103822581D01*
X46491625Y-103973146D01*
X46479292Y-103999595D01*
X46423610Y-104167472D01*
X46417859Y-104194296D01*
X46407156Y-104298757D01*
X46406500Y-104311600D01*
X46406500Y-105112400D01*
X46407173Y-105125404D01*
X46418147Y-105231170D01*
X46423950Y-105258042D01*
X46479926Y-105425822D01*
X46492306Y-105452249D01*
X46585378Y-105602651D01*
X46603504Y-105625521D01*
X46728679Y-105750478D01*
X46751581Y-105768565D01*
X46803120Y-105800334D01*
X46795247Y-105806518D01*
X46777915Y-105823024D01*
X46639283Y-105982783D01*
X46625384Y-106002268D01*
X46519463Y-106185359D01*
X46509499Y-106207121D01*
X46440111Y-106406938D01*
X46434443Y-106430191D01*
X46404091Y-106639524D01*
X46402922Y-106663430D01*
X46412702Y-106874725D01*
X46416074Y-106898420D01*
X46465632Y-107104055D01*
X46473424Y-107126685D01*
X46560973Y-107319238D01*
X46572904Y-107339987D01*
X46695284Y-107512511D01*
X46710923Y-107530629D01*
X46863719Y-107676899D01*
X46882502Y-107691733D01*
X46914814Y-107712597D01*
X46795247Y-107806518D01*
X46777915Y-107823024D01*
X46639283Y-107982783D01*
X46625384Y-108002268D01*
X46519463Y-108185359D01*
X46509499Y-108207121D01*
X46440111Y-108406938D01*
X46434443Y-108430191D01*
X46404091Y-108639524D01*
X46402922Y-108663430D01*
X46412702Y-108874725D01*
X46416074Y-108898420D01*
X46465632Y-109104055D01*
X46473424Y-109126685D01*
X46560973Y-109319238D01*
X46572904Y-109339987D01*
X46695284Y-109512511D01*
X46710923Y-109530629D01*
X46863719Y-109676899D01*
X46882502Y-109691733D01*
X46914814Y-109712597D01*
X46795247Y-109806518D01*
X46777915Y-109823024D01*
X46639283Y-109982783D01*
X46625384Y-110002268D01*
X46519463Y-110185359D01*
X46509499Y-110207121D01*
X46440111Y-110406938D01*
X46434443Y-110430191D01*
X46404091Y-110639524D01*
X46402922Y-110663430D01*
X46412702Y-110874725D01*
X46416074Y-110898420D01*
X46465632Y-111104055D01*
X46473424Y-111126685D01*
X46560973Y-111319238D01*
X46572904Y-111339987D01*
X46695284Y-111512511D01*
X46710923Y-111530629D01*
X46863719Y-111676899D01*
X46882502Y-111691733D01*
X46914814Y-111712597D01*
X46795247Y-111806518D01*
X46777915Y-111823024D01*
X46639283Y-111982783D01*
X46625384Y-112002268D01*
X46519463Y-112185359D01*
X46509499Y-112207121D01*
X46440111Y-112406938D01*
X46434443Y-112430191D01*
X46404091Y-112639524D01*
X46402922Y-112663430D01*
X42290000Y-112663430D01*
X42290000Y-98553932D01*
X46437765Y-98553932D01*
X46439990Y-98565521D01*
X46466107Y-98673891D01*
X46473899Y-98696521D01*
X46561408Y-98888988D01*
X46573339Y-98909737D01*
X46695664Y-99082183D01*
X46711303Y-99100301D01*
X46864030Y-99246505D01*
X46882813Y-99261339D01*
X47060431Y-99376026D01*
X47081681Y-99387040D01*
X47277782Y-99466071D01*
X47300730Y-99472869D01*
X47508236Y-99513392D01*
X47526232Y-99515578D01*
X47531794Y-99515850D01*
X47537948Y-99516000D01*
X47662000Y-99516000D01*
X47730121Y-99495998D01*
X47776614Y-99442342D01*
X47788000Y-99390000D01*
X48044000Y-99390000D01*
X48064002Y-99458121D01*
X48117658Y-99504614D01*
X48170000Y-99516000D01*
X48243825Y-99516000D01*
X48255792Y-99515430D01*
X48413438Y-99500389D01*
X48436940Y-99495864D01*
X48639816Y-99436347D01*
X48662039Y-99427458D01*
X48850001Y-99330651D01*
X48870142Y-99317721D01*
X49036407Y-99187118D01*
X49053739Y-99170613D01*
X49192308Y-99010927D01*
X49206207Y-98991441D01*
X49312080Y-98808432D01*
X49322044Y-98786670D01*
X49391401Y-98586943D01*
X49397070Y-98563685D01*
X49398463Y-98554075D01*
X49388440Y-98483790D01*
X49342009Y-98430081D01*
X49273766Y-98410000D01*
X48170000Y-98410000D01*
X48101879Y-98430002D01*
X48055386Y-98483658D01*
X48044000Y-98536000D01*
X48044000Y-99390000D01*
X47788000Y-99390000D01*
X47788000Y-98536000D01*
X47767998Y-98467879D01*
X47714342Y-98421386D01*
X47662000Y-98410000D01*
X46562483Y-98410000D01*
X46494362Y-98430002D01*
X46447869Y-98483658D01*
X46437765Y-98553932D01*
X42290000Y-98553932D01*
X42290000Y-96682400D01*
X46406500Y-96682400D01*
X46407173Y-96695404D01*
X46418147Y-96801170D01*
X46423950Y-96828042D01*
X46479926Y-96995822D01*
X46492306Y-97022249D01*
X46585378Y-97172651D01*
X46603504Y-97195521D01*
X46728679Y-97320478D01*
X46751581Y-97338565D01*
X46803573Y-97370614D01*
X46795593Y-97376882D01*
X46778261Y-97393387D01*
X46639692Y-97553073D01*
X46625793Y-97572559D01*
X46519920Y-97755568D01*
X46509956Y-97777330D01*
X46440599Y-97977057D01*
X46434930Y-98000315D01*
X46433537Y-98009925D01*
X46443560Y-98080210D01*
X46489991Y-98133919D01*
X46558234Y-98154000D01*
X49269517Y-98154000D01*
X49337638Y-98133998D01*
X49384131Y-98080342D01*
X49392255Y-98023837D01*
X51144621Y-99776203D01*
X51139126Y-99839019D01*
X51139126Y-99860981D01*
X51158501Y-100082444D01*
X51162315Y-100104074D01*
X51219853Y-100318807D01*
X51227365Y-100339446D01*
X51321317Y-100540926D01*
X51332299Y-100559947D01*
X51459810Y-100742052D01*
X51473928Y-100758876D01*
X51631124Y-100916072D01*
X51647948Y-100930190D01*
X51830052Y-101057701D01*
X51849073Y-101068683D01*
X51959123Y-101120000D01*
X51849074Y-101171317D01*
X51830053Y-101182299D01*
X51647948Y-101309810D01*
X51631124Y-101323928D01*
X51473928Y-101481124D01*
X51459810Y-101497948D01*
X51332299Y-101680053D01*
X51321317Y-101699074D01*
X51227365Y-101900554D01*
X51219853Y-101921193D01*
X51162315Y-102135926D01*
X51158501Y-102157556D01*
X51139126Y-102379019D01*
X51139126Y-102400981D01*
X51158501Y-102622444D01*
X51162315Y-102644074D01*
X51219853Y-102858807D01*
X51227365Y-102879446D01*
X51321317Y-103080926D01*
X51332299Y-103099947D01*
X51459810Y-103282052D01*
X51473928Y-103298876D01*
X51631124Y-103456072D01*
X51647948Y-103470190D01*
X51830052Y-103597701D01*
X51849073Y-103608683D01*
X52050554Y-103702635D01*
X52071193Y-103710147D01*
X52285926Y-103767685D01*
X52307556Y-103771499D01*
X52529019Y-103790874D01*
X52550981Y-103790874D01*
X52772444Y-103771499D01*
X52794074Y-103767685D01*
X53008807Y-103710147D01*
X53029446Y-103702635D01*
X53230927Y-103608683D01*
X53249948Y-103597701D01*
X53432052Y-103470190D01*
X53448876Y-103456072D01*
X53606072Y-103298876D01*
X53620190Y-103282052D01*
X53747701Y-103099947D01*
X53758683Y-103080926D01*
X53852635Y-102879446D01*
X53860147Y-102858807D01*
X53917685Y-102644074D01*
X53921499Y-102622444D01*
X53940874Y-102400981D01*
X53940874Y-102379019D01*
X53921499Y-102157556D01*
X53917685Y-102135926D01*
X53860147Y-101921193D01*
X53852635Y-101900554D01*
X53758683Y-101699074D01*
X53747701Y-101680053D01*
X53620190Y-101497948D01*
X53606072Y-101481124D01*
X53448876Y-101323928D01*
X53432052Y-101309810D01*
X53249948Y-101182299D01*
X53230927Y-101171317D01*
X53120877Y-101120000D01*
X53230927Y-101068683D01*
X53249948Y-101057701D01*
X53432052Y-100930190D01*
X53448876Y-100916072D01*
X53606072Y-100758876D01*
X53620190Y-100742052D01*
X53747701Y-100559947D01*
X53758683Y-100540926D01*
X53852635Y-100339446D01*
X53860147Y-100318807D01*
X53917685Y-100104074D01*
X53921499Y-100082444D01*
X53940874Y-99860981D01*
X53940874Y-99839019D01*
X53921499Y-99617556D01*
X53917685Y-99595926D01*
X53860147Y-99381193D01*
X53852635Y-99360554D01*
X53758683Y-99159074D01*
X53747701Y-99140053D01*
X53620190Y-98957948D01*
X53606072Y-98941124D01*
X53448876Y-98783928D01*
X53432052Y-98769810D01*
X53249948Y-98642299D01*
X53230927Y-98631317D01*
X53120285Y-98579724D01*
X53230676Y-98528248D01*
X53249696Y-98517266D01*
X53312875Y-98473028D01*
X53357204Y-98417571D01*
X53364513Y-98346952D01*
X53329700Y-98280720D01*
X52332197Y-97283217D01*
X52776089Y-97283217D01*
X52781154Y-97354032D01*
X52810115Y-97399095D01*
X53510720Y-98099700D01*
X53573032Y-98133726D01*
X53643847Y-98128661D01*
X53703029Y-98082874D01*
X53747267Y-98019694D01*
X53758248Y-98000675D01*
X53852163Y-97799275D01*
X53859675Y-97778636D01*
X53917190Y-97563987D01*
X53921004Y-97542358D01*
X53940372Y-97320982D01*
X53940372Y-97299018D01*
X53921004Y-97077642D01*
X53917190Y-97056013D01*
X53859675Y-96841364D01*
X53852163Y-96820725D01*
X53758248Y-96619325D01*
X53747267Y-96600306D01*
X53703029Y-96537126D01*
X53647572Y-96492796D01*
X53576953Y-96485486D01*
X53510720Y-96520300D01*
X52810115Y-97220905D01*
X52776089Y-97283217D01*
X52332197Y-97283217D01*
X51569280Y-96520300D01*
X51506968Y-96486274D01*
X51436153Y-96491339D01*
X51376971Y-96537126D01*
X51332733Y-96600306D01*
X51321752Y-96619325D01*
X51227837Y-96820725D01*
X51220325Y-96841364D01*
X51162810Y-97056013D01*
X51158996Y-97077642D01*
X51153383Y-97141801D01*
X50284629Y-96273047D01*
X51715486Y-96273047D01*
X51750300Y-96339280D01*
X52450905Y-97039885D01*
X52513217Y-97073911D01*
X52584032Y-97068846D01*
X52629095Y-97039885D01*
X53329700Y-96339280D01*
X53363726Y-96276968D01*
X53358661Y-96206153D01*
X53312875Y-96146972D01*
X53249696Y-96102734D01*
X53230676Y-96091752D01*
X53029275Y-95997837D01*
X53008636Y-95990325D01*
X52793987Y-95932810D01*
X52772358Y-95928996D01*
X52550982Y-95909628D01*
X52529018Y-95909628D01*
X52307642Y-95928996D01*
X52286013Y-95932810D01*
X52071364Y-95990325D01*
X52050725Y-95997837D01*
X51849325Y-96091752D01*
X51830306Y-96102733D01*
X51767126Y-96146971D01*
X51722796Y-96202428D01*
X51715486Y-96273047D01*
X50284629Y-96273047D01*
X49639329Y-95627747D01*
X49576252Y-95563335D01*
X49554484Y-95545582D01*
X49518050Y-95522102D01*
X49484165Y-95495052D01*
X49460395Y-95480083D01*
X49430201Y-95465487D01*
X49402018Y-95447324D01*
X49376858Y-95434834D01*
X49336122Y-95420007D01*
X49297089Y-95401138D01*
X49270595Y-95391808D01*
X49241699Y-95385137D01*
X49228496Y-95368479D01*
X49103321Y-95243522D01*
X49080419Y-95225435D01*
X48929854Y-95132625D01*
X48903405Y-95120292D01*
X48735528Y-95064610D01*
X48708704Y-95058859D01*
X48604243Y-95048156D01*
X48591400Y-95047500D01*
X47240600Y-95047500D01*
X47227596Y-95048173D01*
X47121830Y-95059147D01*
X47094958Y-95064950D01*
X46927178Y-95120926D01*
X46900751Y-95133306D01*
X46750349Y-95226378D01*
X46727479Y-95244504D01*
X46602522Y-95369679D01*
X46584435Y-95392581D01*
X46491625Y-95543146D01*
X46479292Y-95569595D01*
X46423610Y-95737472D01*
X46417859Y-95764296D01*
X46407156Y-95868757D01*
X46406500Y-95881600D01*
X46406500Y-96682400D01*
X42290000Y-96682400D01*
X42290000Y-94248000D01*
X55013649Y-94248000D01*
X54947526Y-94294472D01*
G37*
%TD.AperFunction*%
%TD*%
M02*
