%TF.GenerationSoftware,KiCad,Pcbnew,(6.0.1)*%
%TF.CreationDate,2022-06-20T00:10:41-07:00*%
%TF.ProjectId,mu100-dit,6d753130-302d-4646-9974-2e6b69636164,rev?*%
%TF.SameCoordinates,Original*%
%TF.FileFunction,Soldermask,Top*%
%TF.FilePolarity,Negative*%
%FSLAX46Y46*%
G04 Gerber Fmt 4.6, Leading zero omitted, Abs format (unit mm)*
G04 Created by KiCad (PCBNEW (6.0.1)) date 2022-06-20 00:10:41*
%MOMM*%
%LPD*%
G01*
G04 APERTURE LIST*
G04 Aperture macros list*
%AMRoundRect*
0 Rectangle with rounded corners*
0 $1 Rounding radius*
0 $2 $3 $4 $5 $6 $7 $8 $9 X,Y pos of 4 corners*
0 Add a 4 corners polygon primitive as box body*
4,1,4,$2,$3,$4,$5,$6,$7,$8,$9,$2,$3,0*
0 Add four circle primitives for the rounded corners*
1,1,$1+$1,$2,$3*
1,1,$1+$1,$4,$5*
1,1,$1+$1,$6,$7*
1,1,$1+$1,$8,$9*
0 Add four rect primitives between the rounded corners*
20,1,$1+$1,$2,$3,$4,$5,0*
20,1,$1+$1,$4,$5,$6,$7,0*
20,1,$1+$1,$6,$7,$8,$9,0*
20,1,$1+$1,$8,$9,$2,$3,0*%
G04 Aperture macros list end*
%ADD10RoundRect,0.250000X0.337500X0.475000X-0.337500X0.475000X-0.337500X-0.475000X0.337500X-0.475000X0*%
%ADD11RoundRect,0.250000X-0.337500X-0.475000X0.337500X-0.475000X0.337500X0.475000X-0.337500X0.475000X0*%
%ADD12RoundRect,0.100000X-0.637500X-0.100000X0.637500X-0.100000X0.637500X0.100000X-0.637500X0.100000X0*%
%ADD13C,3.200000*%
%ADD14C,1.524000*%
%ADD15RoundRect,0.250000X-0.625000X0.350000X-0.625000X-0.350000X0.625000X-0.350000X0.625000X0.350000X0*%
%ADD16O,1.750000X1.200000*%
%ADD17C,0.800000*%
G04 APERTURE END LIST*
D10*
%TO.C,C1*%
X51540500Y-107188000D03*
X53615500Y-107188000D03*
%TD*%
D11*
%TO.C,C2*%
X59203500Y-107188000D03*
X57128500Y-107188000D03*
%TD*%
D12*
%TO.C,U2*%
X59084500Y-109461427D03*
X59084500Y-110111427D03*
X59084500Y-110761427D03*
X59084500Y-111411427D03*
X59084500Y-112061427D03*
X59084500Y-112711427D03*
X59084500Y-113361427D03*
X59084500Y-114011427D03*
X59084500Y-114661427D03*
X59084500Y-115311427D03*
X59084500Y-115961427D03*
X59084500Y-116611427D03*
X51659500Y-116611427D03*
X51659500Y-115961427D03*
X51659500Y-115311427D03*
X51659500Y-114661427D03*
X51659500Y-114011427D03*
X51659500Y-113361427D03*
X51659500Y-112711427D03*
X51659500Y-112061427D03*
X51659500Y-111411427D03*
X51659500Y-110761427D03*
X51659500Y-110111427D03*
X51659500Y-109461427D03*
%TD*%
D13*
%TO.C,U1*%
X56350000Y-96040000D03*
X56350000Y-103660000D03*
D14*
X52540000Y-102390000D03*
X52540000Y-99850000D03*
X52540000Y-97310000D03*
%TD*%
D15*
%TO.C,J2*%
X47916000Y-96282000D03*
D16*
X47916000Y-98282000D03*
%TD*%
D15*
%TO.C,J1*%
X47916000Y-104712000D03*
D16*
X47916000Y-106712000D03*
X47916000Y-108712000D03*
X47916000Y-110712000D03*
X47916000Y-112712000D03*
%TD*%
D17*
X55626000Y-107188000D03*
M02*
