%TF.GenerationSoftware,KiCad,Pcbnew,(6.0.1)*%
%TF.CreationDate,2022-07-06T22:16:31-07:00*%
%TF.ProjectId,mu100-dit-connector-board-panelized,6d753130-302d-4646-9974-2d636f6e6e65,rev?*%
%TF.SameCoordinates,Original*%
%TF.FileFunction,Legend,Bot*%
%TF.FilePolarity,Positive*%
%FSLAX46Y46*%
G04 Gerber Fmt 4.6, Leading zero omitted, Abs format (unit mm)*
G04 Created by KiCad (PCBNEW (6.0.1)) date 2022-07-06 22:16:31*
%MOMM*%
%LPD*%
G01*
G04 APERTURE LIST*
G04 Aperture macros list*
%AMRoundRect*
0 Rectangle with rounded corners*
0 $1 Rounding radius*
0 $2 $3 $4 $5 $6 $7 $8 $9 X,Y pos of 4 corners*
0 Add a 4 corners polygon primitive as box body*
4,1,4,$2,$3,$4,$5,$6,$7,$8,$9,$2,$3,0*
0 Add four circle primitives for the rounded corners*
1,1,$1+$1,$2,$3*
1,1,$1+$1,$4,$5*
1,1,$1+$1,$6,$7*
1,1,$1+$1,$8,$9*
0 Add four rect primitives between the rounded corners*
20,1,$1+$1,$2,$3,$4,$5,0*
20,1,$1+$1,$4,$5,$6,$7,0*
20,1,$1+$1,$6,$7,$8,$9,0*
20,1,$1+$1,$8,$9,$2,$3,0*%
G04 Aperture macros list end*
%ADD10C,0.150000*%
%ADD11C,0.120000*%
%ADD12C,1.000000*%
%ADD13C,1.152000*%
%ADD14C,0.500000*%
%ADD15R,1.350000X1.350000*%
%ADD16O,1.350000X1.350000*%
%ADD17RoundRect,0.250000X-0.650000X0.350000X-0.650000X-0.350000X0.650000X-0.350000X0.650000X0.350000X0*%
%ADD18O,1.800000X1.200000*%
%ADD19RoundRect,0.250000X0.625000X-0.350000X0.625000X0.350000X-0.625000X0.350000X-0.625000X-0.350000X0*%
%ADD20O,1.750000X1.200000*%
%ADD21C,0.800000*%
G04 APERTURE END LIST*
D10*
X75807000Y-60023800D02*
X67207000Y-60023800D01*
X34860000Y-66145000D02*
X34030000Y-66145000D01*
X59915000Y-68790000D02*
X59915000Y-67960000D01*
X16940000Y-66145000D02*
X16110000Y-66145000D01*
X59332000Y-60023800D02*
X59032000Y-60023800D01*
X28831000Y-55611800D02*
X28016000Y-54231800D01*
X34015000Y-24145000D02*
X33185000Y-24145000D01*
X16955000Y-25555000D02*
X17775000Y-24155000D01*
X77107000Y-60023800D02*
X76807000Y-60023800D01*
X60032000Y-97823800D02*
X59732000Y-97823800D01*
X28001000Y-55611800D02*
X28831000Y-55611800D01*
X25765000Y-67960000D02*
X24385000Y-68775000D01*
X59332000Y-55823800D02*
X59032000Y-55823800D01*
X51105000Y-25555000D02*
X51925000Y-24155000D01*
X94882000Y-102023800D02*
X94582000Y-102023800D01*
X27156000Y-55611800D02*
X27986000Y-55611800D01*
X24582000Y-60023800D02*
X15982000Y-60023800D01*
X50260000Y-24145000D02*
X51075000Y-25525000D01*
X62151000Y-97611800D02*
X62981000Y-97611800D01*
X76407000Y-102023800D02*
X76107000Y-102023800D01*
X84410000Y-24145000D02*
X85225000Y-25525000D01*
X76407000Y-55823800D02*
X76107000Y-55823800D01*
X43657000Y-102023800D02*
X43357000Y-102023800D01*
X68180000Y-25555000D02*
X69000000Y-24155000D01*
X59332000Y-102023800D02*
X59032000Y-102023800D01*
X92882000Y-55823800D02*
X84282000Y-55823800D01*
X94065000Y-25960000D02*
X92685000Y-26775000D01*
X60032000Y-55823800D02*
X59732000Y-55823800D01*
X60032000Y-60023800D02*
X59732000Y-60023800D01*
X25765000Y-26790000D02*
X25765000Y-25960000D01*
X94182000Y-102023800D02*
X93882000Y-102023800D01*
X25182000Y-97823800D02*
X24882000Y-97823800D01*
X92655000Y-26805000D02*
X94055000Y-27625000D01*
X94065000Y-67960000D02*
X92685000Y-68775000D01*
X28831000Y-97611800D02*
X28016000Y-96231800D01*
X25882000Y-102023800D02*
X25582000Y-102023800D01*
X76407000Y-60023800D02*
X76107000Y-60023800D01*
X25182000Y-55823800D02*
X24882000Y-55823800D01*
X86085000Y-66145000D02*
X85255000Y-66145000D01*
X76990000Y-26790000D02*
X76990000Y-25960000D01*
X34030000Y-25555000D02*
X34850000Y-24155000D01*
X34860000Y-24145000D02*
X34030000Y-24145000D01*
X58732000Y-55823800D02*
X50132000Y-55823800D01*
X16940000Y-24145000D02*
X16110000Y-24145000D01*
X59915000Y-67960000D02*
X58535000Y-68775000D01*
X77107000Y-55823800D02*
X76807000Y-55823800D01*
X51935000Y-24145000D02*
X51105000Y-24145000D01*
X42257000Y-60023800D02*
X41957000Y-60023800D01*
X92882000Y-102023800D02*
X84282000Y-102023800D01*
X77107000Y-97823800D02*
X76807000Y-97823800D01*
X62981000Y-97611800D02*
X62166000Y-96231800D01*
X85240000Y-24145000D02*
X84410000Y-24145000D01*
X60032000Y-102023800D02*
X59732000Y-102023800D01*
X76990000Y-27635000D02*
X76990000Y-26805000D01*
X41657000Y-55823800D02*
X33057000Y-55823800D01*
X45076000Y-55611800D02*
X45906000Y-55611800D01*
X75580000Y-68805000D02*
X76980000Y-69625000D01*
X16955000Y-67555000D02*
X17775000Y-66155000D01*
X42257000Y-97823800D02*
X41957000Y-97823800D01*
X16110000Y-66145000D02*
X16925000Y-67525000D01*
X96301000Y-97611800D02*
X97131000Y-97611800D01*
X94882000Y-60023800D02*
X94582000Y-60023800D01*
X45061000Y-54201800D02*
X44241000Y-55601800D01*
X42957000Y-60023800D02*
X42657000Y-60023800D01*
X43657000Y-60023800D02*
X43357000Y-60023800D01*
X77807000Y-102023800D02*
X77507000Y-102023800D01*
X75580000Y-26805000D02*
X76980000Y-27625000D01*
X41430000Y-68805000D02*
X42830000Y-69625000D01*
X25882000Y-55823800D02*
X25582000Y-55823800D01*
X68165000Y-66145000D02*
X67335000Y-66145000D01*
X25882000Y-97823800D02*
X25582000Y-97823800D01*
X60732000Y-60023800D02*
X60432000Y-60023800D01*
X26582000Y-97823800D02*
X26282000Y-97823800D01*
X79211000Y-54201800D02*
X78391000Y-55601800D01*
X76990000Y-25960000D02*
X75610000Y-26775000D01*
X92882000Y-97823800D02*
X84282000Y-97823800D01*
X58732000Y-97823800D02*
X50132000Y-97823800D01*
X27986000Y-96201800D02*
X27166000Y-97601800D01*
X42957000Y-97823800D02*
X42657000Y-97823800D01*
X96286000Y-54201800D02*
X95466000Y-55601800D01*
X42957000Y-102023800D02*
X42657000Y-102023800D01*
X62136000Y-96201800D02*
X61316000Y-97601800D01*
X80056000Y-97611800D02*
X79241000Y-96231800D01*
X93482000Y-55823800D02*
X93182000Y-55823800D01*
X77807000Y-60023800D02*
X77507000Y-60023800D01*
X42840000Y-69635000D02*
X42840000Y-68805000D01*
X79226000Y-55611800D02*
X80056000Y-55611800D01*
X59915000Y-25960000D02*
X58535000Y-26775000D01*
X61306000Y-97611800D02*
X62136000Y-97611800D01*
X60732000Y-55823800D02*
X60432000Y-55823800D01*
X41430000Y-26805000D02*
X42830000Y-27625000D01*
X94065000Y-27635000D02*
X94065000Y-26805000D01*
X41657000Y-97823800D02*
X33057000Y-97823800D01*
X76407000Y-97823800D02*
X76107000Y-97823800D01*
X42840000Y-27635000D02*
X42840000Y-26805000D01*
X17785000Y-66145000D02*
X16955000Y-66145000D01*
X59915000Y-69635000D02*
X59915000Y-68805000D01*
X76990000Y-68790000D02*
X76990000Y-67960000D01*
X62981000Y-55611800D02*
X62166000Y-54231800D01*
X94882000Y-97823800D02*
X94582000Y-97823800D01*
X58732000Y-102023800D02*
X50132000Y-102023800D01*
X33185000Y-24145000D02*
X34000000Y-25525000D01*
X27156000Y-97611800D02*
X27986000Y-97611800D01*
X62136000Y-54201800D02*
X61316000Y-55601800D01*
X24582000Y-55823800D02*
X15982000Y-55823800D01*
X78381000Y-97611800D02*
X79211000Y-97611800D01*
X45906000Y-97611800D02*
X45091000Y-96231800D01*
X59915000Y-26790000D02*
X59915000Y-25960000D01*
X86085000Y-24145000D02*
X85255000Y-24145000D01*
X44231000Y-97611800D02*
X45061000Y-97611800D01*
X51935000Y-66145000D02*
X51105000Y-66145000D01*
X51090000Y-24145000D02*
X50260000Y-24145000D01*
X24355000Y-26805000D02*
X25755000Y-27625000D01*
X16110000Y-24145000D02*
X16925000Y-25525000D01*
X44231000Y-55611800D02*
X45061000Y-55611800D01*
X94065000Y-69635000D02*
X94065000Y-68805000D01*
X25765000Y-25960000D02*
X24385000Y-26775000D01*
X85255000Y-25555000D02*
X86075000Y-24155000D01*
X41657000Y-60023800D02*
X33057000Y-60023800D01*
X80056000Y-55611800D02*
X79241000Y-54231800D01*
X84410000Y-66145000D02*
X85225000Y-67525000D01*
X67335000Y-66145000D02*
X68150000Y-67525000D01*
X17785000Y-24145000D02*
X16955000Y-24145000D01*
X94182000Y-97823800D02*
X93882000Y-97823800D01*
X77807000Y-97823800D02*
X77507000Y-97823800D01*
X93482000Y-60023800D02*
X93182000Y-60023800D01*
X94882000Y-55823800D02*
X94582000Y-55823800D01*
X58732000Y-60023800D02*
X50132000Y-60023800D01*
X42840000Y-68790000D02*
X42840000Y-67960000D01*
X26582000Y-60023800D02*
X26282000Y-60023800D01*
X97131000Y-55611800D02*
X96316000Y-54231800D01*
X75807000Y-102023800D02*
X67207000Y-102023800D01*
X45076000Y-97611800D02*
X45906000Y-97611800D01*
X60732000Y-102023800D02*
X60432000Y-102023800D01*
X42840000Y-26790000D02*
X42840000Y-25960000D01*
X34030000Y-67555000D02*
X34850000Y-66155000D01*
X85240000Y-66145000D02*
X84410000Y-66145000D01*
X61306000Y-55611800D02*
X62136000Y-55611800D01*
X76990000Y-69635000D02*
X76990000Y-68805000D01*
X25765000Y-27635000D02*
X25765000Y-26805000D01*
X85255000Y-67555000D02*
X86075000Y-66155000D01*
X79226000Y-97611800D02*
X80056000Y-97611800D01*
X42840000Y-25960000D02*
X41460000Y-26775000D01*
X96286000Y-96201800D02*
X95466000Y-97601800D01*
X69010000Y-66145000D02*
X68180000Y-66145000D01*
X77107000Y-102023800D02*
X76807000Y-102023800D01*
X45061000Y-96201800D02*
X44241000Y-97601800D01*
X94182000Y-60023800D02*
X93882000Y-60023800D01*
X97131000Y-97611800D02*
X96316000Y-96231800D01*
X92882000Y-60023800D02*
X84282000Y-60023800D01*
X93482000Y-97823800D02*
X93182000Y-97823800D01*
X94182000Y-55823800D02*
X93882000Y-55823800D01*
X92655000Y-68805000D02*
X94055000Y-69625000D01*
X27986000Y-54201800D02*
X27166000Y-55601800D01*
X25765000Y-68790000D02*
X25765000Y-67960000D01*
X69010000Y-24145000D02*
X68180000Y-24145000D01*
X59332000Y-97823800D02*
X59032000Y-97823800D01*
X68180000Y-67555000D02*
X69000000Y-66155000D01*
X58505000Y-26805000D02*
X59905000Y-27625000D01*
X96301000Y-55611800D02*
X97131000Y-55611800D01*
X67335000Y-24145000D02*
X68150000Y-25525000D01*
X59915000Y-27635000D02*
X59915000Y-26805000D01*
X68165000Y-24145000D02*
X67335000Y-24145000D01*
X51090000Y-66145000D02*
X50260000Y-66145000D01*
X93482000Y-102023800D02*
X93182000Y-102023800D01*
X79211000Y-96201800D02*
X78391000Y-97601800D01*
X42957000Y-55823800D02*
X42657000Y-55823800D01*
X51105000Y-67555000D02*
X51925000Y-66155000D01*
X26582000Y-102023800D02*
X26282000Y-102023800D01*
X26582000Y-55823800D02*
X26282000Y-55823800D01*
X45906000Y-55611800D02*
X45091000Y-54231800D01*
X76990000Y-67960000D02*
X75610000Y-68775000D01*
X25882000Y-60023800D02*
X25582000Y-60023800D01*
X33185000Y-66145000D02*
X34000000Y-67525000D01*
X77807000Y-55823800D02*
X77507000Y-55823800D01*
X94065000Y-26790000D02*
X94065000Y-25960000D01*
X58505000Y-68805000D02*
X59905000Y-69625000D01*
X25765000Y-69635000D02*
X25765000Y-68805000D01*
X43657000Y-55823800D02*
X43357000Y-55823800D01*
X94065000Y-68790000D02*
X94065000Y-67960000D01*
X60732000Y-97823800D02*
X60432000Y-97823800D01*
X62151000Y-55611800D02*
X62981000Y-55611800D01*
X95456000Y-55611800D02*
X96286000Y-55611800D01*
X43657000Y-97823800D02*
X43357000Y-97823800D01*
X50260000Y-66145000D02*
X51075000Y-67525000D01*
X24582000Y-102023800D02*
X15982000Y-102023800D01*
X42257000Y-55823800D02*
X41957000Y-55823800D01*
X75807000Y-55823800D02*
X67207000Y-55823800D01*
X42257000Y-102023800D02*
X41957000Y-102023800D01*
X75807000Y-97823800D02*
X67207000Y-97823800D01*
X34015000Y-66145000D02*
X33185000Y-66145000D01*
X42840000Y-67960000D02*
X41460000Y-68775000D01*
X28001000Y-97611800D02*
X28831000Y-97611800D01*
X41657000Y-102023800D02*
X33057000Y-102023800D01*
X24355000Y-68805000D02*
X25755000Y-69625000D01*
X78381000Y-55611800D02*
X79211000Y-55611800D01*
X95456000Y-97611800D02*
X96286000Y-97611800D01*
X25182000Y-102023800D02*
X24882000Y-102023800D01*
X25182000Y-60023800D02*
X24882000Y-60023800D01*
X24582000Y-97823800D02*
X15982000Y-97823800D01*
X25213785Y-98702371D02*
X25213785Y-98273800D01*
X25213785Y-98488085D02*
X24463785Y-98488085D01*
X24570928Y-98416657D01*
X24642357Y-98345228D01*
X24678071Y-98273800D01*
X24463785Y-99345228D02*
X24463785Y-99202371D01*
X24499500Y-99130942D01*
X24535214Y-99095228D01*
X24642357Y-99023800D01*
X24785214Y-98988085D01*
X25070928Y-98988085D01*
X25142357Y-99023800D01*
X25178071Y-99059514D01*
X25213785Y-99130942D01*
X25213785Y-99273800D01*
X25178071Y-99345228D01*
X25142357Y-99380942D01*
X25070928Y-99416657D01*
X24892357Y-99416657D01*
X24820928Y-99380942D01*
X24785214Y-99345228D01*
X24749500Y-99273800D01*
X24749500Y-99130942D01*
X24785214Y-99059514D01*
X24820928Y-99023800D01*
X24892357Y-98988085D01*
X24928071Y-99738085D02*
X24928071Y-100309514D01*
X25213785Y-101059514D02*
X25213785Y-100630942D01*
X25213785Y-100845228D02*
X24463785Y-100845228D01*
X24570928Y-100773800D01*
X24642357Y-100702371D01*
X24678071Y-100630942D01*
X24463785Y-101309514D02*
X24463785Y-101809514D01*
X25213785Y-101488085D01*
X26421285Y-98666657D02*
X25671285Y-98666657D01*
X26207000Y-98916657D01*
X25671285Y-99166657D01*
X26421285Y-99166657D01*
X25671285Y-99523800D02*
X26278428Y-99523800D01*
X26349857Y-99559514D01*
X26385571Y-99595228D01*
X26421285Y-99666657D01*
X26421285Y-99809514D01*
X26385571Y-99880942D01*
X26349857Y-99916657D01*
X26278428Y-99952371D01*
X25671285Y-99952371D01*
X26421285Y-100345228D02*
X26421285Y-100488085D01*
X26385571Y-100559514D01*
X26349857Y-100595228D01*
X26242714Y-100666657D01*
X26099857Y-100702371D01*
X25814142Y-100702371D01*
X25742714Y-100666657D01*
X25707000Y-100630942D01*
X25671285Y-100559514D01*
X25671285Y-100416657D01*
X25707000Y-100345228D01*
X25742714Y-100309514D01*
X25814142Y-100273800D01*
X25992714Y-100273800D01*
X26064142Y-100309514D01*
X26099857Y-100345228D01*
X26135571Y-100416657D01*
X26135571Y-100559514D01*
X26099857Y-100630942D01*
X26064142Y-100666657D01*
X25992714Y-100702371D01*
X25671285Y-101166657D02*
X25671285Y-101238085D01*
X25707000Y-101309514D01*
X25742714Y-101345228D01*
X25814142Y-101380942D01*
X25957000Y-101416657D01*
X26135571Y-101416657D01*
X26278428Y-101380942D01*
X26349857Y-101345228D01*
X26385571Y-101309514D01*
X26421285Y-101238085D01*
X26421285Y-101166657D01*
X26385571Y-101095228D01*
X26349857Y-101059514D01*
X26278428Y-101023800D01*
X26135571Y-100988085D01*
X25957000Y-100988085D01*
X25814142Y-101023800D01*
X25742714Y-101059514D01*
X25707000Y-101095228D01*
X25671285Y-101166657D01*
X27628785Y-99148800D02*
X27593071Y-99077371D01*
X27557357Y-99041657D01*
X27485928Y-99005942D01*
X27271642Y-99005942D01*
X27200214Y-99041657D01*
X27164500Y-99077371D01*
X27128785Y-99148800D01*
X27128785Y-99255942D01*
X27164500Y-99327371D01*
X27200214Y-99363085D01*
X27271642Y-99398800D01*
X27485928Y-99398800D01*
X27557357Y-99363085D01*
X27593071Y-99327371D01*
X27628785Y-99255942D01*
X27628785Y-99148800D01*
X27128785Y-99720228D02*
X27628785Y-99720228D01*
X27200214Y-99720228D02*
X27164500Y-99755942D01*
X27128785Y-99827371D01*
X27128785Y-99934514D01*
X27164500Y-100005942D01*
X27235928Y-100041657D01*
X27628785Y-100041657D01*
X27628785Y-100505942D02*
X27593071Y-100434514D01*
X27521642Y-100398800D01*
X26878785Y-100398800D01*
X27128785Y-100720228D02*
X27628785Y-100898800D01*
X27128785Y-101077371D02*
X27628785Y-100898800D01*
X27807357Y-100827371D01*
X27843071Y-100791657D01*
X27878785Y-100720228D01*
X93513785Y-98702371D02*
X93513785Y-98273800D01*
X93513785Y-98488085D02*
X92763785Y-98488085D01*
X92870928Y-98416657D01*
X92942357Y-98345228D01*
X92978071Y-98273800D01*
X92763785Y-99345228D02*
X92763785Y-99202371D01*
X92799500Y-99130942D01*
X92835214Y-99095228D01*
X92942357Y-99023800D01*
X93085214Y-98988085D01*
X93370928Y-98988085D01*
X93442357Y-99023800D01*
X93478071Y-99059514D01*
X93513785Y-99130942D01*
X93513785Y-99273800D01*
X93478071Y-99345228D01*
X93442357Y-99380942D01*
X93370928Y-99416657D01*
X93192357Y-99416657D01*
X93120928Y-99380942D01*
X93085214Y-99345228D01*
X93049500Y-99273800D01*
X93049500Y-99130942D01*
X93085214Y-99059514D01*
X93120928Y-99023800D01*
X93192357Y-98988085D01*
X93228071Y-99738085D02*
X93228071Y-100309514D01*
X93513785Y-101059514D02*
X93513785Y-100630942D01*
X93513785Y-100845228D02*
X92763785Y-100845228D01*
X92870928Y-100773800D01*
X92942357Y-100702371D01*
X92978071Y-100630942D01*
X92763785Y-101309514D02*
X92763785Y-101809514D01*
X93513785Y-101488085D01*
X94721285Y-98666657D02*
X93971285Y-98666657D01*
X94507000Y-98916657D01*
X93971285Y-99166657D01*
X94721285Y-99166657D01*
X93971285Y-99523800D02*
X94578428Y-99523800D01*
X94649857Y-99559514D01*
X94685571Y-99595228D01*
X94721285Y-99666657D01*
X94721285Y-99809514D01*
X94685571Y-99880942D01*
X94649857Y-99916657D01*
X94578428Y-99952371D01*
X93971285Y-99952371D01*
X94721285Y-100345228D02*
X94721285Y-100488085D01*
X94685571Y-100559514D01*
X94649857Y-100595228D01*
X94542714Y-100666657D01*
X94399857Y-100702371D01*
X94114142Y-100702371D01*
X94042714Y-100666657D01*
X94007000Y-100630942D01*
X93971285Y-100559514D01*
X93971285Y-100416657D01*
X94007000Y-100345228D01*
X94042714Y-100309514D01*
X94114142Y-100273800D01*
X94292714Y-100273800D01*
X94364142Y-100309514D01*
X94399857Y-100345228D01*
X94435571Y-100416657D01*
X94435571Y-100559514D01*
X94399857Y-100630942D01*
X94364142Y-100666657D01*
X94292714Y-100702371D01*
X93971285Y-101166657D02*
X93971285Y-101238085D01*
X94007000Y-101309514D01*
X94042714Y-101345228D01*
X94114142Y-101380942D01*
X94257000Y-101416657D01*
X94435571Y-101416657D01*
X94578428Y-101380942D01*
X94649857Y-101345228D01*
X94685571Y-101309514D01*
X94721285Y-101238085D01*
X94721285Y-101166657D01*
X94685571Y-101095228D01*
X94649857Y-101059514D01*
X94578428Y-101023800D01*
X94435571Y-100988085D01*
X94257000Y-100988085D01*
X94114142Y-101023800D01*
X94042714Y-101059514D01*
X94007000Y-101095228D01*
X93971285Y-101166657D01*
X95928785Y-99148800D02*
X95893071Y-99077371D01*
X95857357Y-99041657D01*
X95785928Y-99005942D01*
X95571642Y-99005942D01*
X95500214Y-99041657D01*
X95464500Y-99077371D01*
X95428785Y-99148800D01*
X95428785Y-99255942D01*
X95464500Y-99327371D01*
X95500214Y-99363085D01*
X95571642Y-99398800D01*
X95785928Y-99398800D01*
X95857357Y-99363085D01*
X95893071Y-99327371D01*
X95928785Y-99255942D01*
X95928785Y-99148800D01*
X95428785Y-99720228D02*
X95928785Y-99720228D01*
X95500214Y-99720228D02*
X95464500Y-99755942D01*
X95428785Y-99827371D01*
X95428785Y-99934514D01*
X95464500Y-100005942D01*
X95535928Y-100041657D01*
X95928785Y-100041657D01*
X95928785Y-100505942D02*
X95893071Y-100434514D01*
X95821642Y-100398800D01*
X95178785Y-100398800D01*
X95428785Y-100720228D02*
X95928785Y-100898800D01*
X95428785Y-101077371D02*
X95928785Y-100898800D01*
X96107357Y-100827371D01*
X96143071Y-100791657D01*
X96178785Y-100720228D01*
X42288785Y-98702371D02*
X42288785Y-98273800D01*
X42288785Y-98488085D02*
X41538785Y-98488085D01*
X41645928Y-98416657D01*
X41717357Y-98345228D01*
X41753071Y-98273800D01*
X41538785Y-99345228D02*
X41538785Y-99202371D01*
X41574500Y-99130942D01*
X41610214Y-99095228D01*
X41717357Y-99023800D01*
X41860214Y-98988085D01*
X42145928Y-98988085D01*
X42217357Y-99023800D01*
X42253071Y-99059514D01*
X42288785Y-99130942D01*
X42288785Y-99273800D01*
X42253071Y-99345228D01*
X42217357Y-99380942D01*
X42145928Y-99416657D01*
X41967357Y-99416657D01*
X41895928Y-99380942D01*
X41860214Y-99345228D01*
X41824500Y-99273800D01*
X41824500Y-99130942D01*
X41860214Y-99059514D01*
X41895928Y-99023800D01*
X41967357Y-98988085D01*
X42003071Y-99738085D02*
X42003071Y-100309514D01*
X42288785Y-101059514D02*
X42288785Y-100630942D01*
X42288785Y-100845228D02*
X41538785Y-100845228D01*
X41645928Y-100773800D01*
X41717357Y-100702371D01*
X41753071Y-100630942D01*
X41538785Y-101309514D02*
X41538785Y-101809514D01*
X42288785Y-101488085D01*
X43496285Y-98666657D02*
X42746285Y-98666657D01*
X43282000Y-98916657D01*
X42746285Y-99166657D01*
X43496285Y-99166657D01*
X42746285Y-99523800D02*
X43353428Y-99523800D01*
X43424857Y-99559514D01*
X43460571Y-99595228D01*
X43496285Y-99666657D01*
X43496285Y-99809514D01*
X43460571Y-99880942D01*
X43424857Y-99916657D01*
X43353428Y-99952371D01*
X42746285Y-99952371D01*
X43496285Y-100345228D02*
X43496285Y-100488085D01*
X43460571Y-100559514D01*
X43424857Y-100595228D01*
X43317714Y-100666657D01*
X43174857Y-100702371D01*
X42889142Y-100702371D01*
X42817714Y-100666657D01*
X42782000Y-100630942D01*
X42746285Y-100559514D01*
X42746285Y-100416657D01*
X42782000Y-100345228D01*
X42817714Y-100309514D01*
X42889142Y-100273800D01*
X43067714Y-100273800D01*
X43139142Y-100309514D01*
X43174857Y-100345228D01*
X43210571Y-100416657D01*
X43210571Y-100559514D01*
X43174857Y-100630942D01*
X43139142Y-100666657D01*
X43067714Y-100702371D01*
X42746285Y-101166657D02*
X42746285Y-101238085D01*
X42782000Y-101309514D01*
X42817714Y-101345228D01*
X42889142Y-101380942D01*
X43032000Y-101416657D01*
X43210571Y-101416657D01*
X43353428Y-101380942D01*
X43424857Y-101345228D01*
X43460571Y-101309514D01*
X43496285Y-101238085D01*
X43496285Y-101166657D01*
X43460571Y-101095228D01*
X43424857Y-101059514D01*
X43353428Y-101023800D01*
X43210571Y-100988085D01*
X43032000Y-100988085D01*
X42889142Y-101023800D01*
X42817714Y-101059514D01*
X42782000Y-101095228D01*
X42746285Y-101166657D01*
X44703785Y-99148800D02*
X44668071Y-99077371D01*
X44632357Y-99041657D01*
X44560928Y-99005942D01*
X44346642Y-99005942D01*
X44275214Y-99041657D01*
X44239500Y-99077371D01*
X44203785Y-99148800D01*
X44203785Y-99255942D01*
X44239500Y-99327371D01*
X44275214Y-99363085D01*
X44346642Y-99398800D01*
X44560928Y-99398800D01*
X44632357Y-99363085D01*
X44668071Y-99327371D01*
X44703785Y-99255942D01*
X44703785Y-99148800D01*
X44203785Y-99720228D02*
X44703785Y-99720228D01*
X44275214Y-99720228D02*
X44239500Y-99755942D01*
X44203785Y-99827371D01*
X44203785Y-99934514D01*
X44239500Y-100005942D01*
X44310928Y-100041657D01*
X44703785Y-100041657D01*
X44703785Y-100505942D02*
X44668071Y-100434514D01*
X44596642Y-100398800D01*
X43953785Y-100398800D01*
X44203785Y-100720228D02*
X44703785Y-100898800D01*
X44203785Y-101077371D02*
X44703785Y-100898800D01*
X44882357Y-100827371D01*
X44918071Y-100791657D01*
X44953785Y-100720228D01*
X76438785Y-98702371D02*
X76438785Y-98273800D01*
X76438785Y-98488085D02*
X75688785Y-98488085D01*
X75795928Y-98416657D01*
X75867357Y-98345228D01*
X75903071Y-98273800D01*
X75688785Y-99345228D02*
X75688785Y-99202371D01*
X75724500Y-99130942D01*
X75760214Y-99095228D01*
X75867357Y-99023800D01*
X76010214Y-98988085D01*
X76295928Y-98988085D01*
X76367357Y-99023800D01*
X76403071Y-99059514D01*
X76438785Y-99130942D01*
X76438785Y-99273800D01*
X76403071Y-99345228D01*
X76367357Y-99380942D01*
X76295928Y-99416657D01*
X76117357Y-99416657D01*
X76045928Y-99380942D01*
X76010214Y-99345228D01*
X75974500Y-99273800D01*
X75974500Y-99130942D01*
X76010214Y-99059514D01*
X76045928Y-99023800D01*
X76117357Y-98988085D01*
X76153071Y-99738085D02*
X76153071Y-100309514D01*
X76438785Y-101059514D02*
X76438785Y-100630942D01*
X76438785Y-100845228D02*
X75688785Y-100845228D01*
X75795928Y-100773800D01*
X75867357Y-100702371D01*
X75903071Y-100630942D01*
X75688785Y-101309514D02*
X75688785Y-101809514D01*
X76438785Y-101488085D01*
X77646285Y-98666657D02*
X76896285Y-98666657D01*
X77432000Y-98916657D01*
X76896285Y-99166657D01*
X77646285Y-99166657D01*
X76896285Y-99523800D02*
X77503428Y-99523800D01*
X77574857Y-99559514D01*
X77610571Y-99595228D01*
X77646285Y-99666657D01*
X77646285Y-99809514D01*
X77610571Y-99880942D01*
X77574857Y-99916657D01*
X77503428Y-99952371D01*
X76896285Y-99952371D01*
X77646285Y-100345228D02*
X77646285Y-100488085D01*
X77610571Y-100559514D01*
X77574857Y-100595228D01*
X77467714Y-100666657D01*
X77324857Y-100702371D01*
X77039142Y-100702371D01*
X76967714Y-100666657D01*
X76932000Y-100630942D01*
X76896285Y-100559514D01*
X76896285Y-100416657D01*
X76932000Y-100345228D01*
X76967714Y-100309514D01*
X77039142Y-100273800D01*
X77217714Y-100273800D01*
X77289142Y-100309514D01*
X77324857Y-100345228D01*
X77360571Y-100416657D01*
X77360571Y-100559514D01*
X77324857Y-100630942D01*
X77289142Y-100666657D01*
X77217714Y-100702371D01*
X76896285Y-101166657D02*
X76896285Y-101238085D01*
X76932000Y-101309514D01*
X76967714Y-101345228D01*
X77039142Y-101380942D01*
X77182000Y-101416657D01*
X77360571Y-101416657D01*
X77503428Y-101380942D01*
X77574857Y-101345228D01*
X77610571Y-101309514D01*
X77646285Y-101238085D01*
X77646285Y-101166657D01*
X77610571Y-101095228D01*
X77574857Y-101059514D01*
X77503428Y-101023800D01*
X77360571Y-100988085D01*
X77182000Y-100988085D01*
X77039142Y-101023800D01*
X76967714Y-101059514D01*
X76932000Y-101095228D01*
X76896285Y-101166657D01*
X78853785Y-99148800D02*
X78818071Y-99077371D01*
X78782357Y-99041657D01*
X78710928Y-99005942D01*
X78496642Y-99005942D01*
X78425214Y-99041657D01*
X78389500Y-99077371D01*
X78353785Y-99148800D01*
X78353785Y-99255942D01*
X78389500Y-99327371D01*
X78425214Y-99363085D01*
X78496642Y-99398800D01*
X78710928Y-99398800D01*
X78782357Y-99363085D01*
X78818071Y-99327371D01*
X78853785Y-99255942D01*
X78853785Y-99148800D01*
X78353785Y-99720228D02*
X78853785Y-99720228D01*
X78425214Y-99720228D02*
X78389500Y-99755942D01*
X78353785Y-99827371D01*
X78353785Y-99934514D01*
X78389500Y-100005942D01*
X78460928Y-100041657D01*
X78853785Y-100041657D01*
X78853785Y-100505942D02*
X78818071Y-100434514D01*
X78746642Y-100398800D01*
X78103785Y-100398800D01*
X78353785Y-100720228D02*
X78853785Y-100898800D01*
X78353785Y-101077371D02*
X78853785Y-100898800D01*
X79032357Y-100827371D01*
X79068071Y-100791657D01*
X79103785Y-100720228D01*
X59363785Y-56702371D02*
X59363785Y-56273800D01*
X59363785Y-56488085D02*
X58613785Y-56488085D01*
X58720928Y-56416657D01*
X58792357Y-56345228D01*
X58828071Y-56273800D01*
X58613785Y-57345228D02*
X58613785Y-57202371D01*
X58649500Y-57130942D01*
X58685214Y-57095228D01*
X58792357Y-57023800D01*
X58935214Y-56988085D01*
X59220928Y-56988085D01*
X59292357Y-57023800D01*
X59328071Y-57059514D01*
X59363785Y-57130942D01*
X59363785Y-57273800D01*
X59328071Y-57345228D01*
X59292357Y-57380942D01*
X59220928Y-57416657D01*
X59042357Y-57416657D01*
X58970928Y-57380942D01*
X58935214Y-57345228D01*
X58899500Y-57273800D01*
X58899500Y-57130942D01*
X58935214Y-57059514D01*
X58970928Y-57023800D01*
X59042357Y-56988085D01*
X59078071Y-57738085D02*
X59078071Y-58309514D01*
X59363785Y-59059514D02*
X59363785Y-58630942D01*
X59363785Y-58845228D02*
X58613785Y-58845228D01*
X58720928Y-58773800D01*
X58792357Y-58702371D01*
X58828071Y-58630942D01*
X58613785Y-59309514D02*
X58613785Y-59809514D01*
X59363785Y-59488085D01*
X60571285Y-56666657D02*
X59821285Y-56666657D01*
X60357000Y-56916657D01*
X59821285Y-57166657D01*
X60571285Y-57166657D01*
X59821285Y-57523800D02*
X60428428Y-57523800D01*
X60499857Y-57559514D01*
X60535571Y-57595228D01*
X60571285Y-57666657D01*
X60571285Y-57809514D01*
X60535571Y-57880942D01*
X60499857Y-57916657D01*
X60428428Y-57952371D01*
X59821285Y-57952371D01*
X60571285Y-58345228D02*
X60571285Y-58488085D01*
X60535571Y-58559514D01*
X60499857Y-58595228D01*
X60392714Y-58666657D01*
X60249857Y-58702371D01*
X59964142Y-58702371D01*
X59892714Y-58666657D01*
X59857000Y-58630942D01*
X59821285Y-58559514D01*
X59821285Y-58416657D01*
X59857000Y-58345228D01*
X59892714Y-58309514D01*
X59964142Y-58273800D01*
X60142714Y-58273800D01*
X60214142Y-58309514D01*
X60249857Y-58345228D01*
X60285571Y-58416657D01*
X60285571Y-58559514D01*
X60249857Y-58630942D01*
X60214142Y-58666657D01*
X60142714Y-58702371D01*
X59821285Y-59166657D02*
X59821285Y-59238085D01*
X59857000Y-59309514D01*
X59892714Y-59345228D01*
X59964142Y-59380942D01*
X60107000Y-59416657D01*
X60285571Y-59416657D01*
X60428428Y-59380942D01*
X60499857Y-59345228D01*
X60535571Y-59309514D01*
X60571285Y-59238085D01*
X60571285Y-59166657D01*
X60535571Y-59095228D01*
X60499857Y-59059514D01*
X60428428Y-59023800D01*
X60285571Y-58988085D01*
X60107000Y-58988085D01*
X59964142Y-59023800D01*
X59892714Y-59059514D01*
X59857000Y-59095228D01*
X59821285Y-59166657D01*
X61778785Y-57148800D02*
X61743071Y-57077371D01*
X61707357Y-57041657D01*
X61635928Y-57005942D01*
X61421642Y-57005942D01*
X61350214Y-57041657D01*
X61314500Y-57077371D01*
X61278785Y-57148800D01*
X61278785Y-57255942D01*
X61314500Y-57327371D01*
X61350214Y-57363085D01*
X61421642Y-57398800D01*
X61635928Y-57398800D01*
X61707357Y-57363085D01*
X61743071Y-57327371D01*
X61778785Y-57255942D01*
X61778785Y-57148800D01*
X61278785Y-57720228D02*
X61778785Y-57720228D01*
X61350214Y-57720228D02*
X61314500Y-57755942D01*
X61278785Y-57827371D01*
X61278785Y-57934514D01*
X61314500Y-58005942D01*
X61385928Y-58041657D01*
X61778785Y-58041657D01*
X61778785Y-58505942D02*
X61743071Y-58434514D01*
X61671642Y-58398800D01*
X61028785Y-58398800D01*
X61278785Y-58720228D02*
X61778785Y-58898800D01*
X61278785Y-59077371D02*
X61778785Y-58898800D01*
X61957357Y-58827371D01*
X61993071Y-58791657D01*
X62028785Y-58720228D01*
X76438785Y-56702371D02*
X76438785Y-56273800D01*
X76438785Y-56488085D02*
X75688785Y-56488085D01*
X75795928Y-56416657D01*
X75867357Y-56345228D01*
X75903071Y-56273800D01*
X75688785Y-57345228D02*
X75688785Y-57202371D01*
X75724500Y-57130942D01*
X75760214Y-57095228D01*
X75867357Y-57023800D01*
X76010214Y-56988085D01*
X76295928Y-56988085D01*
X76367357Y-57023800D01*
X76403071Y-57059514D01*
X76438785Y-57130942D01*
X76438785Y-57273800D01*
X76403071Y-57345228D01*
X76367357Y-57380942D01*
X76295928Y-57416657D01*
X76117357Y-57416657D01*
X76045928Y-57380942D01*
X76010214Y-57345228D01*
X75974500Y-57273800D01*
X75974500Y-57130942D01*
X76010214Y-57059514D01*
X76045928Y-57023800D01*
X76117357Y-56988085D01*
X76153071Y-57738085D02*
X76153071Y-58309514D01*
X76438785Y-59059514D02*
X76438785Y-58630942D01*
X76438785Y-58845228D02*
X75688785Y-58845228D01*
X75795928Y-58773800D01*
X75867357Y-58702371D01*
X75903071Y-58630942D01*
X75688785Y-59309514D02*
X75688785Y-59809514D01*
X76438785Y-59488085D01*
X77646285Y-56666657D02*
X76896285Y-56666657D01*
X77432000Y-56916657D01*
X76896285Y-57166657D01*
X77646285Y-57166657D01*
X76896285Y-57523800D02*
X77503428Y-57523800D01*
X77574857Y-57559514D01*
X77610571Y-57595228D01*
X77646285Y-57666657D01*
X77646285Y-57809514D01*
X77610571Y-57880942D01*
X77574857Y-57916657D01*
X77503428Y-57952371D01*
X76896285Y-57952371D01*
X77646285Y-58345228D02*
X77646285Y-58488085D01*
X77610571Y-58559514D01*
X77574857Y-58595228D01*
X77467714Y-58666657D01*
X77324857Y-58702371D01*
X77039142Y-58702371D01*
X76967714Y-58666657D01*
X76932000Y-58630942D01*
X76896285Y-58559514D01*
X76896285Y-58416657D01*
X76932000Y-58345228D01*
X76967714Y-58309514D01*
X77039142Y-58273800D01*
X77217714Y-58273800D01*
X77289142Y-58309514D01*
X77324857Y-58345228D01*
X77360571Y-58416657D01*
X77360571Y-58559514D01*
X77324857Y-58630942D01*
X77289142Y-58666657D01*
X77217714Y-58702371D01*
X76896285Y-59166657D02*
X76896285Y-59238085D01*
X76932000Y-59309514D01*
X76967714Y-59345228D01*
X77039142Y-59380942D01*
X77182000Y-59416657D01*
X77360571Y-59416657D01*
X77503428Y-59380942D01*
X77574857Y-59345228D01*
X77610571Y-59309514D01*
X77646285Y-59238085D01*
X77646285Y-59166657D01*
X77610571Y-59095228D01*
X77574857Y-59059514D01*
X77503428Y-59023800D01*
X77360571Y-58988085D01*
X77182000Y-58988085D01*
X77039142Y-59023800D01*
X76967714Y-59059514D01*
X76932000Y-59095228D01*
X76896285Y-59166657D01*
X78853785Y-57148800D02*
X78818071Y-57077371D01*
X78782357Y-57041657D01*
X78710928Y-57005942D01*
X78496642Y-57005942D01*
X78425214Y-57041657D01*
X78389500Y-57077371D01*
X78353785Y-57148800D01*
X78353785Y-57255942D01*
X78389500Y-57327371D01*
X78425214Y-57363085D01*
X78496642Y-57398800D01*
X78710928Y-57398800D01*
X78782357Y-57363085D01*
X78818071Y-57327371D01*
X78853785Y-57255942D01*
X78853785Y-57148800D01*
X78353785Y-57720228D02*
X78853785Y-57720228D01*
X78425214Y-57720228D02*
X78389500Y-57755942D01*
X78353785Y-57827371D01*
X78353785Y-57934514D01*
X78389500Y-58005942D01*
X78460928Y-58041657D01*
X78853785Y-58041657D01*
X78853785Y-58505942D02*
X78818071Y-58434514D01*
X78746642Y-58398800D01*
X78103785Y-58398800D01*
X78353785Y-58720228D02*
X78853785Y-58898800D01*
X78353785Y-59077371D02*
X78853785Y-58898800D01*
X79032357Y-58827371D01*
X79068071Y-58791657D01*
X79103785Y-58720228D01*
X42288785Y-56702371D02*
X42288785Y-56273800D01*
X42288785Y-56488085D02*
X41538785Y-56488085D01*
X41645928Y-56416657D01*
X41717357Y-56345228D01*
X41753071Y-56273800D01*
X41538785Y-57345228D02*
X41538785Y-57202371D01*
X41574500Y-57130942D01*
X41610214Y-57095228D01*
X41717357Y-57023800D01*
X41860214Y-56988085D01*
X42145928Y-56988085D01*
X42217357Y-57023800D01*
X42253071Y-57059514D01*
X42288785Y-57130942D01*
X42288785Y-57273800D01*
X42253071Y-57345228D01*
X42217357Y-57380942D01*
X42145928Y-57416657D01*
X41967357Y-57416657D01*
X41895928Y-57380942D01*
X41860214Y-57345228D01*
X41824500Y-57273800D01*
X41824500Y-57130942D01*
X41860214Y-57059514D01*
X41895928Y-57023800D01*
X41967357Y-56988085D01*
X42003071Y-57738085D02*
X42003071Y-58309514D01*
X42288785Y-59059514D02*
X42288785Y-58630942D01*
X42288785Y-58845228D02*
X41538785Y-58845228D01*
X41645928Y-58773800D01*
X41717357Y-58702371D01*
X41753071Y-58630942D01*
X41538785Y-59309514D02*
X41538785Y-59809514D01*
X42288785Y-59488085D01*
X43496285Y-56666657D02*
X42746285Y-56666657D01*
X43282000Y-56916657D01*
X42746285Y-57166657D01*
X43496285Y-57166657D01*
X42746285Y-57523800D02*
X43353428Y-57523800D01*
X43424857Y-57559514D01*
X43460571Y-57595228D01*
X43496285Y-57666657D01*
X43496285Y-57809514D01*
X43460571Y-57880942D01*
X43424857Y-57916657D01*
X43353428Y-57952371D01*
X42746285Y-57952371D01*
X43496285Y-58345228D02*
X43496285Y-58488085D01*
X43460571Y-58559514D01*
X43424857Y-58595228D01*
X43317714Y-58666657D01*
X43174857Y-58702371D01*
X42889142Y-58702371D01*
X42817714Y-58666657D01*
X42782000Y-58630942D01*
X42746285Y-58559514D01*
X42746285Y-58416657D01*
X42782000Y-58345228D01*
X42817714Y-58309514D01*
X42889142Y-58273800D01*
X43067714Y-58273800D01*
X43139142Y-58309514D01*
X43174857Y-58345228D01*
X43210571Y-58416657D01*
X43210571Y-58559514D01*
X43174857Y-58630942D01*
X43139142Y-58666657D01*
X43067714Y-58702371D01*
X42746285Y-59166657D02*
X42746285Y-59238085D01*
X42782000Y-59309514D01*
X42817714Y-59345228D01*
X42889142Y-59380942D01*
X43032000Y-59416657D01*
X43210571Y-59416657D01*
X43353428Y-59380942D01*
X43424857Y-59345228D01*
X43460571Y-59309514D01*
X43496285Y-59238085D01*
X43496285Y-59166657D01*
X43460571Y-59095228D01*
X43424857Y-59059514D01*
X43353428Y-59023800D01*
X43210571Y-58988085D01*
X43032000Y-58988085D01*
X42889142Y-59023800D01*
X42817714Y-59059514D01*
X42782000Y-59095228D01*
X42746285Y-59166657D01*
X44703785Y-57148800D02*
X44668071Y-57077371D01*
X44632357Y-57041657D01*
X44560928Y-57005942D01*
X44346642Y-57005942D01*
X44275214Y-57041657D01*
X44239500Y-57077371D01*
X44203785Y-57148800D01*
X44203785Y-57255942D01*
X44239500Y-57327371D01*
X44275214Y-57363085D01*
X44346642Y-57398800D01*
X44560928Y-57398800D01*
X44632357Y-57363085D01*
X44668071Y-57327371D01*
X44703785Y-57255942D01*
X44703785Y-57148800D01*
X44203785Y-57720228D02*
X44703785Y-57720228D01*
X44275214Y-57720228D02*
X44239500Y-57755942D01*
X44203785Y-57827371D01*
X44203785Y-57934514D01*
X44239500Y-58005942D01*
X44310928Y-58041657D01*
X44703785Y-58041657D01*
X44703785Y-58505942D02*
X44668071Y-58434514D01*
X44596642Y-58398800D01*
X43953785Y-58398800D01*
X44203785Y-58720228D02*
X44703785Y-58898800D01*
X44203785Y-59077371D02*
X44703785Y-58898800D01*
X44882357Y-58827371D01*
X44918071Y-58791657D01*
X44953785Y-58720228D01*
X93513785Y-56702371D02*
X93513785Y-56273800D01*
X93513785Y-56488085D02*
X92763785Y-56488085D01*
X92870928Y-56416657D01*
X92942357Y-56345228D01*
X92978071Y-56273800D01*
X92763785Y-57345228D02*
X92763785Y-57202371D01*
X92799500Y-57130942D01*
X92835214Y-57095228D01*
X92942357Y-57023800D01*
X93085214Y-56988085D01*
X93370928Y-56988085D01*
X93442357Y-57023800D01*
X93478071Y-57059514D01*
X93513785Y-57130942D01*
X93513785Y-57273800D01*
X93478071Y-57345228D01*
X93442357Y-57380942D01*
X93370928Y-57416657D01*
X93192357Y-57416657D01*
X93120928Y-57380942D01*
X93085214Y-57345228D01*
X93049500Y-57273800D01*
X93049500Y-57130942D01*
X93085214Y-57059514D01*
X93120928Y-57023800D01*
X93192357Y-56988085D01*
X93228071Y-57738085D02*
X93228071Y-58309514D01*
X93513785Y-59059514D02*
X93513785Y-58630942D01*
X93513785Y-58845228D02*
X92763785Y-58845228D01*
X92870928Y-58773800D01*
X92942357Y-58702371D01*
X92978071Y-58630942D01*
X92763785Y-59309514D02*
X92763785Y-59809514D01*
X93513785Y-59488085D01*
X94721285Y-56666657D02*
X93971285Y-56666657D01*
X94507000Y-56916657D01*
X93971285Y-57166657D01*
X94721285Y-57166657D01*
X93971285Y-57523800D02*
X94578428Y-57523800D01*
X94649857Y-57559514D01*
X94685571Y-57595228D01*
X94721285Y-57666657D01*
X94721285Y-57809514D01*
X94685571Y-57880942D01*
X94649857Y-57916657D01*
X94578428Y-57952371D01*
X93971285Y-57952371D01*
X94721285Y-58345228D02*
X94721285Y-58488085D01*
X94685571Y-58559514D01*
X94649857Y-58595228D01*
X94542714Y-58666657D01*
X94399857Y-58702371D01*
X94114142Y-58702371D01*
X94042714Y-58666657D01*
X94007000Y-58630942D01*
X93971285Y-58559514D01*
X93971285Y-58416657D01*
X94007000Y-58345228D01*
X94042714Y-58309514D01*
X94114142Y-58273800D01*
X94292714Y-58273800D01*
X94364142Y-58309514D01*
X94399857Y-58345228D01*
X94435571Y-58416657D01*
X94435571Y-58559514D01*
X94399857Y-58630942D01*
X94364142Y-58666657D01*
X94292714Y-58702371D01*
X93971285Y-59166657D02*
X93971285Y-59238085D01*
X94007000Y-59309514D01*
X94042714Y-59345228D01*
X94114142Y-59380942D01*
X94257000Y-59416657D01*
X94435571Y-59416657D01*
X94578428Y-59380942D01*
X94649857Y-59345228D01*
X94685571Y-59309514D01*
X94721285Y-59238085D01*
X94721285Y-59166657D01*
X94685571Y-59095228D01*
X94649857Y-59059514D01*
X94578428Y-59023800D01*
X94435571Y-58988085D01*
X94257000Y-58988085D01*
X94114142Y-59023800D01*
X94042714Y-59059514D01*
X94007000Y-59095228D01*
X93971285Y-59166657D01*
X95928785Y-57148800D02*
X95893071Y-57077371D01*
X95857357Y-57041657D01*
X95785928Y-57005942D01*
X95571642Y-57005942D01*
X95500214Y-57041657D01*
X95464500Y-57077371D01*
X95428785Y-57148800D01*
X95428785Y-57255942D01*
X95464500Y-57327371D01*
X95500214Y-57363085D01*
X95571642Y-57398800D01*
X95785928Y-57398800D01*
X95857357Y-57363085D01*
X95893071Y-57327371D01*
X95928785Y-57255942D01*
X95928785Y-57148800D01*
X95428785Y-57720228D02*
X95928785Y-57720228D01*
X95500214Y-57720228D02*
X95464500Y-57755942D01*
X95428785Y-57827371D01*
X95428785Y-57934514D01*
X95464500Y-58005942D01*
X95535928Y-58041657D01*
X95928785Y-58041657D01*
X95928785Y-58505942D02*
X95893071Y-58434514D01*
X95821642Y-58398800D01*
X95178785Y-58398800D01*
X95428785Y-58720228D02*
X95928785Y-58898800D01*
X95428785Y-59077371D02*
X95928785Y-58898800D01*
X96107357Y-58827371D01*
X96143071Y-58791657D01*
X96178785Y-58720228D01*
X25213785Y-56702371D02*
X25213785Y-56273800D01*
X25213785Y-56488085D02*
X24463785Y-56488085D01*
X24570928Y-56416657D01*
X24642357Y-56345228D01*
X24678071Y-56273800D01*
X24463785Y-57345228D02*
X24463785Y-57202371D01*
X24499500Y-57130942D01*
X24535214Y-57095228D01*
X24642357Y-57023800D01*
X24785214Y-56988085D01*
X25070928Y-56988085D01*
X25142357Y-57023800D01*
X25178071Y-57059514D01*
X25213785Y-57130942D01*
X25213785Y-57273800D01*
X25178071Y-57345228D01*
X25142357Y-57380942D01*
X25070928Y-57416657D01*
X24892357Y-57416657D01*
X24820928Y-57380942D01*
X24785214Y-57345228D01*
X24749500Y-57273800D01*
X24749500Y-57130942D01*
X24785214Y-57059514D01*
X24820928Y-57023800D01*
X24892357Y-56988085D01*
X24928071Y-57738085D02*
X24928071Y-58309514D01*
X25213785Y-59059514D02*
X25213785Y-58630942D01*
X25213785Y-58845228D02*
X24463785Y-58845228D01*
X24570928Y-58773800D01*
X24642357Y-58702371D01*
X24678071Y-58630942D01*
X24463785Y-59309514D02*
X24463785Y-59809514D01*
X25213785Y-59488085D01*
X26421285Y-56666657D02*
X25671285Y-56666657D01*
X26207000Y-56916657D01*
X25671285Y-57166657D01*
X26421285Y-57166657D01*
X25671285Y-57523800D02*
X26278428Y-57523800D01*
X26349857Y-57559514D01*
X26385571Y-57595228D01*
X26421285Y-57666657D01*
X26421285Y-57809514D01*
X26385571Y-57880942D01*
X26349857Y-57916657D01*
X26278428Y-57952371D01*
X25671285Y-57952371D01*
X26421285Y-58345228D02*
X26421285Y-58488085D01*
X26385571Y-58559514D01*
X26349857Y-58595228D01*
X26242714Y-58666657D01*
X26099857Y-58702371D01*
X25814142Y-58702371D01*
X25742714Y-58666657D01*
X25707000Y-58630942D01*
X25671285Y-58559514D01*
X25671285Y-58416657D01*
X25707000Y-58345228D01*
X25742714Y-58309514D01*
X25814142Y-58273800D01*
X25992714Y-58273800D01*
X26064142Y-58309514D01*
X26099857Y-58345228D01*
X26135571Y-58416657D01*
X26135571Y-58559514D01*
X26099857Y-58630942D01*
X26064142Y-58666657D01*
X25992714Y-58702371D01*
X25671285Y-59166657D02*
X25671285Y-59238085D01*
X25707000Y-59309514D01*
X25742714Y-59345228D01*
X25814142Y-59380942D01*
X25957000Y-59416657D01*
X26135571Y-59416657D01*
X26278428Y-59380942D01*
X26349857Y-59345228D01*
X26385571Y-59309514D01*
X26421285Y-59238085D01*
X26421285Y-59166657D01*
X26385571Y-59095228D01*
X26349857Y-59059514D01*
X26278428Y-59023800D01*
X26135571Y-58988085D01*
X25957000Y-58988085D01*
X25814142Y-59023800D01*
X25742714Y-59059514D01*
X25707000Y-59095228D01*
X25671285Y-59166657D01*
X27628785Y-57148800D02*
X27593071Y-57077371D01*
X27557357Y-57041657D01*
X27485928Y-57005942D01*
X27271642Y-57005942D01*
X27200214Y-57041657D01*
X27164500Y-57077371D01*
X27128785Y-57148800D01*
X27128785Y-57255942D01*
X27164500Y-57327371D01*
X27200214Y-57363085D01*
X27271642Y-57398800D01*
X27485928Y-57398800D01*
X27557357Y-57363085D01*
X27593071Y-57327371D01*
X27628785Y-57255942D01*
X27628785Y-57148800D01*
X27128785Y-57720228D02*
X27628785Y-57720228D01*
X27200214Y-57720228D02*
X27164500Y-57755942D01*
X27128785Y-57827371D01*
X27128785Y-57934514D01*
X27164500Y-58005942D01*
X27235928Y-58041657D01*
X27628785Y-58041657D01*
X27628785Y-58505942D02*
X27593071Y-58434514D01*
X27521642Y-58398800D01*
X26878785Y-58398800D01*
X27128785Y-58720228D02*
X27628785Y-58898800D01*
X27128785Y-59077371D02*
X27628785Y-58898800D01*
X27807357Y-58827371D01*
X27843071Y-58791657D01*
X27878785Y-58720228D01*
X59363785Y-98702371D02*
X59363785Y-98273800D01*
X59363785Y-98488085D02*
X58613785Y-98488085D01*
X58720928Y-98416657D01*
X58792357Y-98345228D01*
X58828071Y-98273800D01*
X58613785Y-99345228D02*
X58613785Y-99202371D01*
X58649500Y-99130942D01*
X58685214Y-99095228D01*
X58792357Y-99023800D01*
X58935214Y-98988085D01*
X59220928Y-98988085D01*
X59292357Y-99023800D01*
X59328071Y-99059514D01*
X59363785Y-99130942D01*
X59363785Y-99273800D01*
X59328071Y-99345228D01*
X59292357Y-99380942D01*
X59220928Y-99416657D01*
X59042357Y-99416657D01*
X58970928Y-99380942D01*
X58935214Y-99345228D01*
X58899500Y-99273800D01*
X58899500Y-99130942D01*
X58935214Y-99059514D01*
X58970928Y-99023800D01*
X59042357Y-98988085D01*
X59078071Y-99738085D02*
X59078071Y-100309514D01*
X59363785Y-101059514D02*
X59363785Y-100630942D01*
X59363785Y-100845228D02*
X58613785Y-100845228D01*
X58720928Y-100773800D01*
X58792357Y-100702371D01*
X58828071Y-100630942D01*
X58613785Y-101309514D02*
X58613785Y-101809514D01*
X59363785Y-101488085D01*
X60571285Y-98666657D02*
X59821285Y-98666657D01*
X60357000Y-98916657D01*
X59821285Y-99166657D01*
X60571285Y-99166657D01*
X59821285Y-99523800D02*
X60428428Y-99523800D01*
X60499857Y-99559514D01*
X60535571Y-99595228D01*
X60571285Y-99666657D01*
X60571285Y-99809514D01*
X60535571Y-99880942D01*
X60499857Y-99916657D01*
X60428428Y-99952371D01*
X59821285Y-99952371D01*
X60571285Y-100345228D02*
X60571285Y-100488085D01*
X60535571Y-100559514D01*
X60499857Y-100595228D01*
X60392714Y-100666657D01*
X60249857Y-100702371D01*
X59964142Y-100702371D01*
X59892714Y-100666657D01*
X59857000Y-100630942D01*
X59821285Y-100559514D01*
X59821285Y-100416657D01*
X59857000Y-100345228D01*
X59892714Y-100309514D01*
X59964142Y-100273800D01*
X60142714Y-100273800D01*
X60214142Y-100309514D01*
X60249857Y-100345228D01*
X60285571Y-100416657D01*
X60285571Y-100559514D01*
X60249857Y-100630942D01*
X60214142Y-100666657D01*
X60142714Y-100702371D01*
X59821285Y-101166657D02*
X59821285Y-101238085D01*
X59857000Y-101309514D01*
X59892714Y-101345228D01*
X59964142Y-101380942D01*
X60107000Y-101416657D01*
X60285571Y-101416657D01*
X60428428Y-101380942D01*
X60499857Y-101345228D01*
X60535571Y-101309514D01*
X60571285Y-101238085D01*
X60571285Y-101166657D01*
X60535571Y-101095228D01*
X60499857Y-101059514D01*
X60428428Y-101023800D01*
X60285571Y-100988085D01*
X60107000Y-100988085D01*
X59964142Y-101023800D01*
X59892714Y-101059514D01*
X59857000Y-101095228D01*
X59821285Y-101166657D01*
X61778785Y-99148800D02*
X61743071Y-99077371D01*
X61707357Y-99041657D01*
X61635928Y-99005942D01*
X61421642Y-99005942D01*
X61350214Y-99041657D01*
X61314500Y-99077371D01*
X61278785Y-99148800D01*
X61278785Y-99255942D01*
X61314500Y-99327371D01*
X61350214Y-99363085D01*
X61421642Y-99398800D01*
X61635928Y-99398800D01*
X61707357Y-99363085D01*
X61743071Y-99327371D01*
X61778785Y-99255942D01*
X61778785Y-99148800D01*
X61278785Y-99720228D02*
X61778785Y-99720228D01*
X61350214Y-99720228D02*
X61314500Y-99755942D01*
X61278785Y-99827371D01*
X61278785Y-99934514D01*
X61314500Y-100005942D01*
X61385928Y-100041657D01*
X61778785Y-100041657D01*
X61778785Y-100505942D02*
X61743071Y-100434514D01*
X61671642Y-100398800D01*
X61028785Y-100398800D01*
X61278785Y-100720228D02*
X61778785Y-100898800D01*
X61278785Y-101077371D02*
X61778785Y-100898800D01*
X61957357Y-100827371D01*
X61993071Y-100791657D01*
X62028785Y-100720228D01*
%TO.C,J2*%
X73762380Y-66671666D02*
X74476666Y-66671666D01*
X74619523Y-66624047D01*
X74714761Y-66528809D01*
X74762380Y-66385952D01*
X74762380Y-66290714D01*
X73857619Y-67100238D02*
X73810000Y-67147857D01*
X73762380Y-67243095D01*
X73762380Y-67481190D01*
X73810000Y-67576428D01*
X73857619Y-67624047D01*
X73952857Y-67671666D01*
X74048095Y-67671666D01*
X74190952Y-67624047D01*
X74762380Y-67052619D01*
X74762380Y-67671666D01*
X90837380Y-66671666D02*
X91551666Y-66671666D01*
X91694523Y-66624047D01*
X91789761Y-66528809D01*
X91837380Y-66385952D01*
X91837380Y-66290714D01*
X90932619Y-67100238D02*
X90885000Y-67147857D01*
X90837380Y-67243095D01*
X90837380Y-67481190D01*
X90885000Y-67576428D01*
X90932619Y-67624047D01*
X91027857Y-67671666D01*
X91123095Y-67671666D01*
X91265952Y-67624047D01*
X91837380Y-67052619D01*
X91837380Y-67671666D01*
X39612380Y-24671666D02*
X40326666Y-24671666D01*
X40469523Y-24624047D01*
X40564761Y-24528809D01*
X40612380Y-24385952D01*
X40612380Y-24290714D01*
X39707619Y-25100238D02*
X39660000Y-25147857D01*
X39612380Y-25243095D01*
X39612380Y-25481190D01*
X39660000Y-25576428D01*
X39707619Y-25624047D01*
X39802857Y-25671666D01*
X39898095Y-25671666D01*
X40040952Y-25624047D01*
X40612380Y-25052619D01*
X40612380Y-25671666D01*
%TO.C,J3*%
X26997380Y-72133666D02*
X27711666Y-72133666D01*
X27854523Y-72086047D01*
X27949761Y-71990809D01*
X27997380Y-71847952D01*
X27997380Y-71752714D01*
X26997380Y-72514619D02*
X26997380Y-73133666D01*
X27378333Y-72800333D01*
X27378333Y-72943190D01*
X27425952Y-73038428D01*
X27473571Y-73086047D01*
X27568809Y-73133666D01*
X27806904Y-73133666D01*
X27902142Y-73086047D01*
X27949761Y-73038428D01*
X27997380Y-72943190D01*
X27997380Y-72657476D01*
X27949761Y-72562238D01*
X27902142Y-72514619D01*
X78222380Y-72133666D02*
X78936666Y-72133666D01*
X79079523Y-72086047D01*
X79174761Y-71990809D01*
X79222380Y-71847952D01*
X79222380Y-71752714D01*
X78222380Y-72514619D02*
X78222380Y-73133666D01*
X78603333Y-72800333D01*
X78603333Y-72943190D01*
X78650952Y-73038428D01*
X78698571Y-73086047D01*
X78793809Y-73133666D01*
X79031904Y-73133666D01*
X79127142Y-73086047D01*
X79174761Y-73038428D01*
X79222380Y-72943190D01*
X79222380Y-72657476D01*
X79174761Y-72562238D01*
X79127142Y-72514619D01*
X44072380Y-30133666D02*
X44786666Y-30133666D01*
X44929523Y-30086047D01*
X45024761Y-29990809D01*
X45072380Y-29847952D01*
X45072380Y-29752714D01*
X44072380Y-30514619D02*
X44072380Y-31133666D01*
X44453333Y-30800333D01*
X44453333Y-30943190D01*
X44500952Y-31038428D01*
X44548571Y-31086047D01*
X44643809Y-31133666D01*
X44881904Y-31133666D01*
X44977142Y-31086047D01*
X45024761Y-31038428D01*
X45072380Y-30943190D01*
X45072380Y-30657476D01*
X45024761Y-30562238D01*
X44977142Y-30514619D01*
X61147380Y-72133666D02*
X61861666Y-72133666D01*
X62004523Y-72086047D01*
X62099761Y-71990809D01*
X62147380Y-71847952D01*
X62147380Y-71752714D01*
X61147380Y-72514619D02*
X61147380Y-73133666D01*
X61528333Y-72800333D01*
X61528333Y-72943190D01*
X61575952Y-73038428D01*
X61623571Y-73086047D01*
X61718809Y-73133666D01*
X61956904Y-73133666D01*
X62052142Y-73086047D01*
X62099761Y-73038428D01*
X62147380Y-72943190D01*
X62147380Y-72657476D01*
X62099761Y-72562238D01*
X62052142Y-72514619D01*
%TO.C,J2*%
X73762380Y-24671666D02*
X74476666Y-24671666D01*
X74619523Y-24624047D01*
X74714761Y-24528809D01*
X74762380Y-24385952D01*
X74762380Y-24290714D01*
X73857619Y-25100238D02*
X73810000Y-25147857D01*
X73762380Y-25243095D01*
X73762380Y-25481190D01*
X73810000Y-25576428D01*
X73857619Y-25624047D01*
X73952857Y-25671666D01*
X74048095Y-25671666D01*
X74190952Y-25624047D01*
X74762380Y-25052619D01*
X74762380Y-25671666D01*
X56687380Y-24671666D02*
X57401666Y-24671666D01*
X57544523Y-24624047D01*
X57639761Y-24528809D01*
X57687380Y-24385952D01*
X57687380Y-24290714D01*
X56782619Y-25100238D02*
X56735000Y-25147857D01*
X56687380Y-25243095D01*
X56687380Y-25481190D01*
X56735000Y-25576428D01*
X56782619Y-25624047D01*
X56877857Y-25671666D01*
X56973095Y-25671666D01*
X57115952Y-25624047D01*
X57687380Y-25052619D01*
X57687380Y-25671666D01*
%TO.C,J3*%
X61147380Y-30133666D02*
X61861666Y-30133666D01*
X62004523Y-30086047D01*
X62099761Y-29990809D01*
X62147380Y-29847952D01*
X62147380Y-29752714D01*
X61147380Y-30514619D02*
X61147380Y-31133666D01*
X61528333Y-30800333D01*
X61528333Y-30943190D01*
X61575952Y-31038428D01*
X61623571Y-31086047D01*
X61718809Y-31133666D01*
X61956904Y-31133666D01*
X62052142Y-31086047D01*
X62099761Y-31038428D01*
X62147380Y-30943190D01*
X62147380Y-30657476D01*
X62099761Y-30562238D01*
X62052142Y-30514619D01*
X44072380Y-72133666D02*
X44786666Y-72133666D01*
X44929523Y-72086047D01*
X45024761Y-71990809D01*
X45072380Y-71847952D01*
X45072380Y-71752714D01*
X44072380Y-72514619D02*
X44072380Y-73133666D01*
X44453333Y-72800333D01*
X44453333Y-72943190D01*
X44500952Y-73038428D01*
X44548571Y-73086047D01*
X44643809Y-73133666D01*
X44881904Y-73133666D01*
X44977142Y-73086047D01*
X45024761Y-73038428D01*
X45072380Y-72943190D01*
X45072380Y-72657476D01*
X45024761Y-72562238D01*
X44977142Y-72514619D01*
X26997380Y-30133666D02*
X27711666Y-30133666D01*
X27854523Y-30086047D01*
X27949761Y-29990809D01*
X27997380Y-29847952D01*
X27997380Y-29752714D01*
X26997380Y-30514619D02*
X26997380Y-31133666D01*
X27378333Y-30800333D01*
X27378333Y-30943190D01*
X27425952Y-31038428D01*
X27473571Y-31086047D01*
X27568809Y-31133666D01*
X27806904Y-31133666D01*
X27902142Y-31086047D01*
X27949761Y-31038428D01*
X27997380Y-30943190D01*
X27997380Y-30657476D01*
X27949761Y-30562238D01*
X27902142Y-30514619D01*
X95297380Y-72133666D02*
X96011666Y-72133666D01*
X96154523Y-72086047D01*
X96249761Y-71990809D01*
X96297380Y-71847952D01*
X96297380Y-71752714D01*
X95297380Y-72514619D02*
X95297380Y-73133666D01*
X95678333Y-72800333D01*
X95678333Y-72943190D01*
X95725952Y-73038428D01*
X95773571Y-73086047D01*
X95868809Y-73133666D01*
X96106904Y-73133666D01*
X96202142Y-73086047D01*
X96249761Y-73038428D01*
X96297380Y-72943190D01*
X96297380Y-72657476D01*
X96249761Y-72562238D01*
X96202142Y-72514619D01*
X95297380Y-30133666D02*
X96011666Y-30133666D01*
X96154523Y-30086047D01*
X96249761Y-29990809D01*
X96297380Y-29847952D01*
X96297380Y-29752714D01*
X95297380Y-30514619D02*
X95297380Y-31133666D01*
X95678333Y-30800333D01*
X95678333Y-30943190D01*
X95725952Y-31038428D01*
X95773571Y-31086047D01*
X95868809Y-31133666D01*
X96106904Y-31133666D01*
X96202142Y-31086047D01*
X96249761Y-31038428D01*
X96297380Y-30943190D01*
X96297380Y-30657476D01*
X96249761Y-30562238D01*
X96202142Y-30514619D01*
%TO.C,J2*%
X22537380Y-66671666D02*
X23251666Y-66671666D01*
X23394523Y-66624047D01*
X23489761Y-66528809D01*
X23537380Y-66385952D01*
X23537380Y-66290714D01*
X22632619Y-67100238D02*
X22585000Y-67147857D01*
X22537380Y-67243095D01*
X22537380Y-67481190D01*
X22585000Y-67576428D01*
X22632619Y-67624047D01*
X22727857Y-67671666D01*
X22823095Y-67671666D01*
X22965952Y-67624047D01*
X23537380Y-67052619D01*
X23537380Y-67671666D01*
%TO.C,J3*%
X78222380Y-30133666D02*
X78936666Y-30133666D01*
X79079523Y-30086047D01*
X79174761Y-29990809D01*
X79222380Y-29847952D01*
X79222380Y-29752714D01*
X78222380Y-30514619D02*
X78222380Y-31133666D01*
X78603333Y-30800333D01*
X78603333Y-30943190D01*
X78650952Y-31038428D01*
X78698571Y-31086047D01*
X78793809Y-31133666D01*
X79031904Y-31133666D01*
X79127142Y-31086047D01*
X79174761Y-31038428D01*
X79222380Y-30943190D01*
X79222380Y-30657476D01*
X79174761Y-30562238D01*
X79127142Y-30514619D01*
%TO.C,J2*%
X39612380Y-66671666D02*
X40326666Y-66671666D01*
X40469523Y-66624047D01*
X40564761Y-66528809D01*
X40612380Y-66385952D01*
X40612380Y-66290714D01*
X39707619Y-67100238D02*
X39660000Y-67147857D01*
X39612380Y-67243095D01*
X39612380Y-67481190D01*
X39660000Y-67576428D01*
X39707619Y-67624047D01*
X39802857Y-67671666D01*
X39898095Y-67671666D01*
X40040952Y-67624047D01*
X40612380Y-67052619D01*
X40612380Y-67671666D01*
X56687380Y-66671666D02*
X57401666Y-66671666D01*
X57544523Y-66624047D01*
X57639761Y-66528809D01*
X57687380Y-66385952D01*
X57687380Y-66290714D01*
X56782619Y-67100238D02*
X56735000Y-67147857D01*
X56687380Y-67243095D01*
X56687380Y-67481190D01*
X56735000Y-67576428D01*
X56782619Y-67624047D01*
X56877857Y-67671666D01*
X56973095Y-67671666D01*
X57115952Y-67624047D01*
X57687380Y-67052619D01*
X57687380Y-67671666D01*
X22537380Y-24671666D02*
X23251666Y-24671666D01*
X23394523Y-24624047D01*
X23489761Y-24528809D01*
X23537380Y-24385952D01*
X23537380Y-24290714D01*
X22632619Y-25100238D02*
X22585000Y-25147857D01*
X22537380Y-25243095D01*
X22537380Y-25481190D01*
X22585000Y-25576428D01*
X22632619Y-25624047D01*
X22727857Y-25671666D01*
X22823095Y-25671666D01*
X22965952Y-25624047D01*
X23537380Y-25052619D01*
X23537380Y-25671666D01*
X90837380Y-24671666D02*
X91551666Y-24671666D01*
X91694523Y-24624047D01*
X91789761Y-24528809D01*
X91837380Y-24385952D01*
X91837380Y-24290714D01*
X90932619Y-25100238D02*
X90885000Y-25147857D01*
X90837380Y-25243095D01*
X90837380Y-25481190D01*
X90885000Y-25576428D01*
X90932619Y-25624047D01*
X91027857Y-25671666D01*
X91123095Y-25671666D01*
X91265952Y-25624047D01*
X91837380Y-25052619D01*
X91837380Y-25671666D01*
D11*
X75230000Y-65835000D02*
X75230000Y-65185000D01*
X75230000Y-104485000D02*
X75230000Y-103835000D01*
X71730000Y-65185000D02*
X71730000Y-65835000D01*
X75230000Y-65185000D02*
X71730000Y-65185000D01*
X75230000Y-104485000D02*
X71730000Y-104485000D01*
X71730000Y-104485000D02*
X71730000Y-103835000D01*
X75230000Y-65835000D02*
X70030000Y-65835000D01*
X70030000Y-65835000D02*
X70030000Y-103835000D01*
X70030000Y-103835000D02*
X75230000Y-103835000D01*
X75230000Y-103835000D02*
X75230000Y-65835000D01*
X88805000Y-104485000D02*
X88805000Y-103835000D01*
X92305000Y-104485000D02*
X88805000Y-104485000D01*
X88805000Y-65185000D02*
X88805000Y-65835000D01*
X92305000Y-104485000D02*
X92305000Y-103835000D01*
X92305000Y-65185000D02*
X88805000Y-65185000D01*
X92305000Y-65835000D02*
X92305000Y-65185000D01*
X92305000Y-65835000D02*
X87105000Y-65835000D01*
X87105000Y-65835000D02*
X87105000Y-103835000D01*
X87105000Y-103835000D02*
X92305000Y-103835000D01*
X92305000Y-103835000D02*
X92305000Y-65835000D01*
X37580000Y-62485000D02*
X37580000Y-61835000D01*
X41080000Y-62485000D02*
X37580000Y-62485000D01*
X37580000Y-23185000D02*
X37580000Y-23835000D01*
X41080000Y-23185000D02*
X37580000Y-23185000D01*
X41080000Y-62485000D02*
X41080000Y-61835000D01*
X41080000Y-23835000D02*
X41080000Y-23185000D01*
X41080000Y-23835000D02*
X35880000Y-23835000D01*
X35880000Y-23835000D02*
X35880000Y-61835000D01*
X35880000Y-61835000D02*
X41080000Y-61835000D01*
X41080000Y-61835000D02*
X41080000Y-23835000D01*
%TO.C,J3*%
X26015000Y-90925000D02*
X26015000Y-90725000D01*
X29625000Y-93325000D02*
X29015000Y-93325000D01*
X26015000Y-88925000D02*
X26015000Y-88725000D01*
X26015000Y-78725000D02*
X25515000Y-78725000D01*
X26015000Y-92925000D02*
X26015000Y-92725000D01*
X29015000Y-95275000D02*
X25515000Y-95275000D01*
X26015000Y-88725000D02*
X25515000Y-88725000D01*
X26015000Y-84725000D02*
X25515000Y-84725000D01*
X26015000Y-76725000D02*
X25515000Y-76725000D01*
X26015000Y-90725000D02*
X25515000Y-90725000D01*
X25515000Y-90825000D02*
X26015000Y-90825000D01*
X26015000Y-82725000D02*
X25515000Y-82725000D01*
X29015000Y-74375000D02*
X29015000Y-76325000D01*
X25515000Y-84925000D02*
X26015000Y-84925000D01*
X25515000Y-84825000D02*
X26015000Y-84825000D01*
X24905000Y-95885000D02*
X24905000Y-73765000D01*
X26015000Y-80725000D02*
X25515000Y-80725000D01*
X26015000Y-76925000D02*
X26015000Y-76725000D01*
X27015000Y-73765000D02*
X27015000Y-74375000D01*
X25515000Y-90925000D02*
X26015000Y-90925000D01*
X25515000Y-88825000D02*
X26015000Y-88825000D01*
X29725000Y-94125000D02*
X29725000Y-94425000D01*
X24905000Y-73765000D02*
X29625000Y-73765000D01*
X26015000Y-80925000D02*
X26015000Y-80725000D01*
X29825000Y-94125000D02*
X29825000Y-94425000D01*
X25515000Y-74375000D02*
X29015000Y-74375000D01*
X25515000Y-92925000D02*
X26015000Y-92925000D01*
X25515000Y-80825000D02*
X26015000Y-80825000D01*
X26015000Y-92725000D02*
X25515000Y-92725000D01*
X29015000Y-76325000D02*
X29625000Y-76325000D01*
X29625000Y-73765000D02*
X29625000Y-95885000D01*
X28315000Y-95885000D02*
X28315000Y-95275000D01*
X26015000Y-78925000D02*
X26015000Y-78725000D01*
X25515000Y-78925000D02*
X26015000Y-78925000D01*
X29925000Y-96185000D02*
X28675000Y-96185000D01*
X26015000Y-82925000D02*
X26015000Y-82725000D01*
X27015000Y-95885000D02*
X27015000Y-95275000D01*
X29625000Y-94125000D02*
X29825000Y-94125000D01*
X25515000Y-95275000D02*
X25515000Y-74375000D01*
X25515000Y-76925000D02*
X26015000Y-76925000D01*
X25515000Y-82825000D02*
X26015000Y-82825000D01*
X25515000Y-86925000D02*
X26015000Y-86925000D01*
X25515000Y-86825000D02*
X26015000Y-86825000D01*
X29825000Y-94425000D02*
X29625000Y-94425000D01*
X29925000Y-94935000D02*
X29925000Y-96185000D01*
X25515000Y-78825000D02*
X26015000Y-78825000D01*
X25515000Y-80925000D02*
X26015000Y-80925000D01*
X29015000Y-93325000D02*
X29015000Y-95275000D01*
X25515000Y-92825000D02*
X26015000Y-92825000D01*
X29625000Y-95885000D02*
X24905000Y-95885000D01*
X26015000Y-86925000D02*
X26015000Y-86725000D01*
X26015000Y-86725000D02*
X25515000Y-86725000D01*
X28315000Y-73765000D02*
X28315000Y-74375000D01*
X25515000Y-82925000D02*
X26015000Y-82925000D01*
X25515000Y-76825000D02*
X26015000Y-76825000D01*
X26015000Y-84925000D02*
X26015000Y-84725000D01*
X25515000Y-88925000D02*
X26015000Y-88925000D01*
X76130000Y-95885000D02*
X76130000Y-73765000D01*
X76740000Y-86825000D02*
X77240000Y-86825000D01*
X77240000Y-82725000D02*
X76740000Y-82725000D01*
X77240000Y-80925000D02*
X77240000Y-80725000D01*
X80850000Y-94125000D02*
X81050000Y-94125000D01*
X77240000Y-82925000D02*
X77240000Y-82725000D01*
X77240000Y-84725000D02*
X76740000Y-84725000D01*
X77240000Y-78725000D02*
X76740000Y-78725000D01*
X80850000Y-95885000D02*
X76130000Y-95885000D01*
X80240000Y-95275000D02*
X76740000Y-95275000D01*
X81050000Y-94125000D02*
X81050000Y-94425000D01*
X76740000Y-90825000D02*
X77240000Y-90825000D01*
X76740000Y-92925000D02*
X77240000Y-92925000D01*
X76740000Y-88925000D02*
X77240000Y-88925000D01*
X76740000Y-86925000D02*
X77240000Y-86925000D01*
X76740000Y-90925000D02*
X77240000Y-90925000D01*
X79540000Y-73765000D02*
X79540000Y-74375000D01*
X76740000Y-76925000D02*
X77240000Y-76925000D01*
X79540000Y-95885000D02*
X79540000Y-95275000D01*
X80950000Y-94125000D02*
X80950000Y-94425000D01*
X77240000Y-84925000D02*
X77240000Y-84725000D01*
X78240000Y-95885000D02*
X78240000Y-95275000D01*
X80850000Y-93325000D02*
X80240000Y-93325000D01*
X77240000Y-76925000D02*
X77240000Y-76725000D01*
X76740000Y-78925000D02*
X77240000Y-78925000D01*
X76740000Y-76825000D02*
X77240000Y-76825000D01*
X76740000Y-82825000D02*
X77240000Y-82825000D01*
X76740000Y-80825000D02*
X77240000Y-80825000D01*
X76740000Y-84925000D02*
X77240000Y-84925000D01*
X76130000Y-73765000D02*
X80850000Y-73765000D01*
X77240000Y-76725000D02*
X76740000Y-76725000D01*
X76740000Y-84825000D02*
X77240000Y-84825000D01*
X76740000Y-74375000D02*
X80240000Y-74375000D01*
X80240000Y-93325000D02*
X80240000Y-95275000D01*
X77240000Y-92725000D02*
X76740000Y-92725000D01*
X77240000Y-92925000D02*
X77240000Y-92725000D01*
X76740000Y-88825000D02*
X77240000Y-88825000D01*
X77240000Y-90725000D02*
X76740000Y-90725000D01*
X76740000Y-78825000D02*
X77240000Y-78825000D01*
X80850000Y-73765000D02*
X80850000Y-95885000D01*
X77240000Y-88925000D02*
X77240000Y-88725000D01*
X80240000Y-74375000D02*
X80240000Y-76325000D01*
X77240000Y-88725000D02*
X76740000Y-88725000D01*
X77240000Y-86925000D02*
X77240000Y-86725000D01*
X76740000Y-80925000D02*
X77240000Y-80925000D01*
X81150000Y-96185000D02*
X79900000Y-96185000D01*
X76740000Y-92825000D02*
X77240000Y-92825000D01*
X76740000Y-95275000D02*
X76740000Y-74375000D01*
X77240000Y-80725000D02*
X76740000Y-80725000D01*
X77240000Y-78925000D02*
X77240000Y-78725000D01*
X77240000Y-90925000D02*
X77240000Y-90725000D01*
X77240000Y-86725000D02*
X76740000Y-86725000D01*
X81150000Y-94935000D02*
X81150000Y-96185000D01*
X80240000Y-76325000D02*
X80850000Y-76325000D01*
X76740000Y-82925000D02*
X77240000Y-82925000D01*
X81050000Y-94425000D02*
X80850000Y-94425000D01*
X78240000Y-73765000D02*
X78240000Y-74375000D01*
X42590000Y-44825000D02*
X43090000Y-44825000D01*
X42590000Y-36925000D02*
X43090000Y-36925000D01*
X46090000Y-34325000D02*
X46700000Y-34325000D01*
X42590000Y-40825000D02*
X43090000Y-40825000D01*
X42590000Y-44925000D02*
X43090000Y-44925000D01*
X43090000Y-46725000D02*
X42590000Y-46725000D01*
X42590000Y-50825000D02*
X43090000Y-50825000D01*
X44090000Y-53885000D02*
X44090000Y-53275000D01*
X46900000Y-52425000D02*
X46700000Y-52425000D01*
X43090000Y-34925000D02*
X43090000Y-34725000D01*
X46090000Y-51325000D02*
X46090000Y-53275000D01*
X46700000Y-31765000D02*
X46700000Y-53885000D01*
X43090000Y-44925000D02*
X43090000Y-44725000D01*
X42590000Y-46925000D02*
X43090000Y-46925000D01*
X47000000Y-54185000D02*
X45750000Y-54185000D01*
X43090000Y-46925000D02*
X43090000Y-46725000D01*
X42590000Y-38925000D02*
X43090000Y-38925000D01*
X43090000Y-48925000D02*
X43090000Y-48725000D01*
X46700000Y-52125000D02*
X46900000Y-52125000D01*
X43090000Y-36925000D02*
X43090000Y-36725000D01*
X43090000Y-40925000D02*
X43090000Y-40725000D01*
X42590000Y-48825000D02*
X43090000Y-48825000D01*
X42590000Y-34925000D02*
X43090000Y-34925000D01*
X42590000Y-42825000D02*
X43090000Y-42825000D01*
X42590000Y-53275000D02*
X42590000Y-32375000D01*
X42590000Y-34825000D02*
X43090000Y-34825000D01*
X42590000Y-38825000D02*
X43090000Y-38825000D01*
X43090000Y-50925000D02*
X43090000Y-50725000D01*
X46900000Y-52125000D02*
X46900000Y-52425000D01*
X46090000Y-53275000D02*
X42590000Y-53275000D01*
X42590000Y-48925000D02*
X43090000Y-48925000D01*
X43090000Y-38725000D02*
X42590000Y-38725000D01*
X46090000Y-32375000D02*
X46090000Y-34325000D01*
X43090000Y-50725000D02*
X42590000Y-50725000D01*
X43090000Y-36725000D02*
X42590000Y-36725000D01*
X41980000Y-31765000D02*
X46700000Y-31765000D01*
X46700000Y-53885000D02*
X41980000Y-53885000D01*
X42590000Y-36825000D02*
X43090000Y-36825000D01*
X43090000Y-44725000D02*
X42590000Y-44725000D01*
X43090000Y-48725000D02*
X42590000Y-48725000D01*
X41980000Y-53885000D02*
X41980000Y-31765000D01*
X44090000Y-31765000D02*
X44090000Y-32375000D01*
X46800000Y-52125000D02*
X46800000Y-52425000D01*
X42590000Y-40925000D02*
X43090000Y-40925000D01*
X46700000Y-51325000D02*
X46090000Y-51325000D01*
X43090000Y-34725000D02*
X42590000Y-34725000D01*
X42590000Y-50925000D02*
X43090000Y-50925000D01*
X42590000Y-32375000D02*
X46090000Y-32375000D01*
X42590000Y-42925000D02*
X43090000Y-42925000D01*
X43090000Y-40725000D02*
X42590000Y-40725000D01*
X45390000Y-31765000D02*
X45390000Y-32375000D01*
X43090000Y-42725000D02*
X42590000Y-42725000D01*
X47000000Y-52935000D02*
X47000000Y-54185000D01*
X43090000Y-42925000D02*
X43090000Y-42725000D01*
X45390000Y-53885000D02*
X45390000Y-53275000D01*
X43090000Y-38925000D02*
X43090000Y-38725000D01*
X42590000Y-46825000D02*
X43090000Y-46825000D01*
X59055000Y-73765000D02*
X63775000Y-73765000D01*
X63975000Y-94425000D02*
X63775000Y-94425000D01*
X63165000Y-76325000D02*
X63775000Y-76325000D01*
X62465000Y-95885000D02*
X62465000Y-95275000D01*
X60165000Y-86725000D02*
X59665000Y-86725000D01*
X63875000Y-94125000D02*
X63875000Y-94425000D01*
X60165000Y-88725000D02*
X59665000Y-88725000D01*
X60165000Y-78725000D02*
X59665000Y-78725000D01*
X59665000Y-76925000D02*
X60165000Y-76925000D01*
X59665000Y-78825000D02*
X60165000Y-78825000D01*
X63775000Y-73765000D02*
X63775000Y-95885000D01*
X60165000Y-84925000D02*
X60165000Y-84725000D01*
X63165000Y-95275000D02*
X59665000Y-95275000D01*
X59665000Y-76825000D02*
X60165000Y-76825000D01*
X64075000Y-94935000D02*
X64075000Y-96185000D01*
X59055000Y-95885000D02*
X59055000Y-73765000D01*
X59665000Y-82925000D02*
X60165000Y-82925000D01*
X59665000Y-78925000D02*
X60165000Y-78925000D01*
X59665000Y-86825000D02*
X60165000Y-86825000D01*
X60165000Y-76725000D02*
X59665000Y-76725000D01*
X59665000Y-95275000D02*
X59665000Y-74375000D01*
X61165000Y-73765000D02*
X61165000Y-74375000D01*
X59665000Y-74375000D02*
X63165000Y-74375000D01*
X59665000Y-80925000D02*
X60165000Y-80925000D01*
X59665000Y-90825000D02*
X60165000Y-90825000D01*
X63775000Y-95885000D02*
X59055000Y-95885000D01*
X59665000Y-92825000D02*
X60165000Y-92825000D01*
X63165000Y-93325000D02*
X63165000Y-95275000D01*
X59665000Y-84825000D02*
X60165000Y-84825000D01*
X59665000Y-90925000D02*
X60165000Y-90925000D01*
X59665000Y-84925000D02*
X60165000Y-84925000D01*
X60165000Y-76925000D02*
X60165000Y-76725000D01*
X63975000Y-94125000D02*
X63975000Y-94425000D01*
X59665000Y-82825000D02*
X60165000Y-82825000D01*
X60165000Y-82925000D02*
X60165000Y-82725000D01*
X63775000Y-93325000D02*
X63165000Y-93325000D01*
X60165000Y-90925000D02*
X60165000Y-90725000D01*
X60165000Y-90725000D02*
X59665000Y-90725000D01*
X59665000Y-80825000D02*
X60165000Y-80825000D01*
X64075000Y-96185000D02*
X62825000Y-96185000D01*
X60165000Y-80725000D02*
X59665000Y-80725000D01*
X60165000Y-84725000D02*
X59665000Y-84725000D01*
X59665000Y-88925000D02*
X60165000Y-88925000D01*
X61165000Y-95885000D02*
X61165000Y-95275000D01*
X60165000Y-88925000D02*
X60165000Y-88725000D01*
X59665000Y-88825000D02*
X60165000Y-88825000D01*
X59665000Y-92925000D02*
X60165000Y-92925000D01*
X62465000Y-73765000D02*
X62465000Y-74375000D01*
X60165000Y-86925000D02*
X60165000Y-86725000D01*
X59665000Y-86925000D02*
X60165000Y-86925000D01*
X60165000Y-82725000D02*
X59665000Y-82725000D01*
X60165000Y-92925000D02*
X60165000Y-92725000D01*
X60165000Y-78925000D02*
X60165000Y-78725000D01*
X60165000Y-80925000D02*
X60165000Y-80725000D01*
X60165000Y-92725000D02*
X59665000Y-92725000D01*
X63165000Y-74375000D02*
X63165000Y-76325000D01*
X63775000Y-94125000D02*
X63975000Y-94125000D01*
%TO.C,J2*%
X75230000Y-23835000D02*
X75230000Y-23185000D01*
X71730000Y-62485000D02*
X71730000Y-61835000D01*
X71730000Y-23185000D02*
X71730000Y-23835000D01*
X75230000Y-23185000D02*
X71730000Y-23185000D01*
X75230000Y-62485000D02*
X71730000Y-62485000D01*
X75230000Y-62485000D02*
X75230000Y-61835000D01*
X75230000Y-23835000D02*
X70030000Y-23835000D01*
X70030000Y-23835000D02*
X70030000Y-61835000D01*
X70030000Y-61835000D02*
X75230000Y-61835000D01*
X75230000Y-61835000D02*
X75230000Y-23835000D01*
X58155000Y-62485000D02*
X58155000Y-61835000D01*
X54655000Y-23185000D02*
X54655000Y-23835000D01*
X58155000Y-62485000D02*
X54655000Y-62485000D01*
X54655000Y-62485000D02*
X54655000Y-61835000D01*
X58155000Y-23185000D02*
X54655000Y-23185000D01*
X58155000Y-23835000D02*
X58155000Y-23185000D01*
X58155000Y-23835000D02*
X52955000Y-23835000D01*
X52955000Y-23835000D02*
X52955000Y-61835000D01*
X52955000Y-61835000D02*
X58155000Y-61835000D01*
X58155000Y-61835000D02*
X58155000Y-23835000D01*
%TO.C,J3*%
X59665000Y-53275000D02*
X59665000Y-32375000D01*
X59665000Y-44925000D02*
X60165000Y-44925000D01*
X60165000Y-46925000D02*
X60165000Y-46725000D01*
X60165000Y-48725000D02*
X59665000Y-48725000D01*
X59665000Y-34825000D02*
X60165000Y-34825000D01*
X60165000Y-50725000D02*
X59665000Y-50725000D01*
X63975000Y-52425000D02*
X63775000Y-52425000D01*
X60165000Y-48925000D02*
X60165000Y-48725000D01*
X63775000Y-51325000D02*
X63165000Y-51325000D01*
X59665000Y-32375000D02*
X63165000Y-32375000D01*
X60165000Y-42725000D02*
X59665000Y-42725000D01*
X59665000Y-44825000D02*
X60165000Y-44825000D01*
X63165000Y-51325000D02*
X63165000Y-53275000D01*
X63775000Y-52125000D02*
X63975000Y-52125000D01*
X62465000Y-53885000D02*
X62465000Y-53275000D01*
X59665000Y-50825000D02*
X60165000Y-50825000D01*
X60165000Y-46725000D02*
X59665000Y-46725000D01*
X59665000Y-40925000D02*
X60165000Y-40925000D01*
X59055000Y-53885000D02*
X59055000Y-31765000D01*
X59665000Y-50925000D02*
X60165000Y-50925000D01*
X60165000Y-38725000D02*
X59665000Y-38725000D01*
X63775000Y-53885000D02*
X59055000Y-53885000D01*
X63165000Y-32375000D02*
X63165000Y-34325000D01*
X61165000Y-53885000D02*
X61165000Y-53275000D01*
X59665000Y-40825000D02*
X60165000Y-40825000D01*
X60165000Y-38925000D02*
X60165000Y-38725000D01*
X64075000Y-52935000D02*
X64075000Y-54185000D01*
X59665000Y-46925000D02*
X60165000Y-46925000D01*
X59665000Y-46825000D02*
X60165000Y-46825000D01*
X59055000Y-31765000D02*
X63775000Y-31765000D01*
X60165000Y-34725000D02*
X59665000Y-34725000D01*
X59665000Y-34925000D02*
X60165000Y-34925000D01*
X60165000Y-40925000D02*
X60165000Y-40725000D01*
X60165000Y-36725000D02*
X59665000Y-36725000D01*
X63875000Y-52125000D02*
X63875000Y-52425000D01*
X62465000Y-31765000D02*
X62465000Y-32375000D01*
X59665000Y-48925000D02*
X60165000Y-48925000D01*
X63165000Y-53275000D02*
X59665000Y-53275000D01*
X59665000Y-48825000D02*
X60165000Y-48825000D01*
X59665000Y-38925000D02*
X60165000Y-38925000D01*
X60165000Y-44725000D02*
X59665000Y-44725000D01*
X60165000Y-42925000D02*
X60165000Y-42725000D01*
X59665000Y-36825000D02*
X60165000Y-36825000D01*
X59665000Y-42925000D02*
X60165000Y-42925000D01*
X61165000Y-31765000D02*
X61165000Y-32375000D01*
X59665000Y-42825000D02*
X60165000Y-42825000D01*
X59665000Y-38825000D02*
X60165000Y-38825000D01*
X60165000Y-40725000D02*
X59665000Y-40725000D01*
X60165000Y-36925000D02*
X60165000Y-36725000D01*
X63975000Y-52125000D02*
X63975000Y-52425000D01*
X59665000Y-36925000D02*
X60165000Y-36925000D01*
X60165000Y-34925000D02*
X60165000Y-34725000D01*
X63165000Y-34325000D02*
X63775000Y-34325000D01*
X60165000Y-44925000D02*
X60165000Y-44725000D01*
X64075000Y-54185000D02*
X62825000Y-54185000D01*
X63775000Y-31765000D02*
X63775000Y-53885000D01*
X60165000Y-50925000D02*
X60165000Y-50725000D01*
X46090000Y-76325000D02*
X46700000Y-76325000D01*
X47000000Y-94935000D02*
X47000000Y-96185000D01*
X44090000Y-73765000D02*
X44090000Y-74375000D01*
X42590000Y-86825000D02*
X43090000Y-86825000D01*
X42590000Y-76925000D02*
X43090000Y-76925000D01*
X42590000Y-78825000D02*
X43090000Y-78825000D01*
X42590000Y-90825000D02*
X43090000Y-90825000D01*
X42590000Y-95275000D02*
X42590000Y-74375000D01*
X46700000Y-95885000D02*
X41980000Y-95885000D01*
X46090000Y-93325000D02*
X46090000Y-95275000D01*
X42590000Y-86925000D02*
X43090000Y-86925000D01*
X43090000Y-88925000D02*
X43090000Y-88725000D01*
X43090000Y-86925000D02*
X43090000Y-86725000D01*
X43090000Y-86725000D02*
X42590000Y-86725000D01*
X43090000Y-88725000D02*
X42590000Y-88725000D01*
X46900000Y-94425000D02*
X46700000Y-94425000D01*
X42590000Y-76825000D02*
X43090000Y-76825000D01*
X42590000Y-90925000D02*
X43090000Y-90925000D01*
X42590000Y-84925000D02*
X43090000Y-84925000D01*
X42590000Y-78925000D02*
X43090000Y-78925000D01*
X45390000Y-73765000D02*
X45390000Y-74375000D01*
X43090000Y-82925000D02*
X43090000Y-82725000D01*
X43090000Y-90725000D02*
X42590000Y-90725000D01*
X41980000Y-95885000D02*
X41980000Y-73765000D01*
X43090000Y-76725000D02*
X42590000Y-76725000D01*
X46900000Y-94125000D02*
X46900000Y-94425000D01*
X46090000Y-95275000D02*
X42590000Y-95275000D01*
X42590000Y-80925000D02*
X43090000Y-80925000D01*
X41980000Y-73765000D02*
X46700000Y-73765000D01*
X45390000Y-95885000D02*
X45390000Y-95275000D01*
X46700000Y-73765000D02*
X46700000Y-95885000D01*
X43090000Y-76925000D02*
X43090000Y-76725000D01*
X43090000Y-80725000D02*
X42590000Y-80725000D01*
X46090000Y-74375000D02*
X46090000Y-76325000D01*
X43090000Y-92925000D02*
X43090000Y-92725000D01*
X43090000Y-82725000D02*
X42590000Y-82725000D01*
X42590000Y-92825000D02*
X43090000Y-92825000D01*
X43090000Y-92725000D02*
X42590000Y-92725000D01*
X42590000Y-88925000D02*
X43090000Y-88925000D01*
X47000000Y-96185000D02*
X45750000Y-96185000D01*
X43090000Y-80925000D02*
X43090000Y-80725000D01*
X44090000Y-95885000D02*
X44090000Y-95275000D01*
X43090000Y-78925000D02*
X43090000Y-78725000D01*
X42590000Y-82825000D02*
X43090000Y-82825000D01*
X43090000Y-78725000D02*
X42590000Y-78725000D01*
X43090000Y-90925000D02*
X43090000Y-90725000D01*
X43090000Y-84725000D02*
X42590000Y-84725000D01*
X42590000Y-88825000D02*
X43090000Y-88825000D01*
X42590000Y-92925000D02*
X43090000Y-92925000D01*
X42590000Y-80825000D02*
X43090000Y-80825000D01*
X42590000Y-84825000D02*
X43090000Y-84825000D01*
X42590000Y-82925000D02*
X43090000Y-82925000D01*
X46700000Y-93325000D02*
X46090000Y-93325000D01*
X46800000Y-94125000D02*
X46800000Y-94425000D01*
X43090000Y-84925000D02*
X43090000Y-84725000D01*
X42590000Y-74375000D02*
X46090000Y-74375000D01*
X46700000Y-94125000D02*
X46900000Y-94125000D01*
X25515000Y-44925000D02*
X26015000Y-44925000D01*
X29015000Y-34325000D02*
X29625000Y-34325000D01*
X25515000Y-36925000D02*
X26015000Y-36925000D01*
X25515000Y-53275000D02*
X25515000Y-32375000D01*
X29625000Y-51325000D02*
X29015000Y-51325000D01*
X29925000Y-52935000D02*
X29925000Y-54185000D01*
X25515000Y-50925000D02*
X26015000Y-50925000D01*
X29625000Y-52125000D02*
X29825000Y-52125000D01*
X26015000Y-42725000D02*
X25515000Y-42725000D01*
X26015000Y-42925000D02*
X26015000Y-42725000D01*
X25515000Y-42925000D02*
X26015000Y-42925000D01*
X26015000Y-36925000D02*
X26015000Y-36725000D01*
X25515000Y-40825000D02*
X26015000Y-40825000D01*
X26015000Y-36725000D02*
X25515000Y-36725000D01*
X26015000Y-38925000D02*
X26015000Y-38725000D01*
X29925000Y-54185000D02*
X28675000Y-54185000D01*
X26015000Y-40725000D02*
X25515000Y-40725000D01*
X29725000Y-52125000D02*
X29725000Y-52425000D01*
X25515000Y-46925000D02*
X26015000Y-46925000D01*
X26015000Y-38725000D02*
X25515000Y-38725000D01*
X25515000Y-36825000D02*
X26015000Y-36825000D01*
X26015000Y-44925000D02*
X26015000Y-44725000D01*
X25515000Y-50825000D02*
X26015000Y-50825000D01*
X26015000Y-50925000D02*
X26015000Y-50725000D01*
X29825000Y-52425000D02*
X29625000Y-52425000D01*
X25515000Y-38925000D02*
X26015000Y-38925000D01*
X27015000Y-53885000D02*
X27015000Y-53275000D01*
X29625000Y-53885000D02*
X24905000Y-53885000D01*
X29015000Y-53275000D02*
X25515000Y-53275000D01*
X25515000Y-40925000D02*
X26015000Y-40925000D01*
X26015000Y-46925000D02*
X26015000Y-46725000D01*
X26015000Y-40925000D02*
X26015000Y-40725000D01*
X26015000Y-34725000D02*
X25515000Y-34725000D01*
X25515000Y-38825000D02*
X26015000Y-38825000D01*
X28315000Y-53885000D02*
X28315000Y-53275000D01*
X25515000Y-48925000D02*
X26015000Y-48925000D01*
X29825000Y-52125000D02*
X29825000Y-52425000D01*
X26015000Y-34925000D02*
X26015000Y-34725000D01*
X28315000Y-31765000D02*
X28315000Y-32375000D01*
X26015000Y-46725000D02*
X25515000Y-46725000D01*
X29015000Y-51325000D02*
X29015000Y-53275000D01*
X29015000Y-32375000D02*
X29015000Y-34325000D01*
X24905000Y-31765000D02*
X29625000Y-31765000D01*
X25515000Y-34825000D02*
X26015000Y-34825000D01*
X29625000Y-31765000D02*
X29625000Y-53885000D01*
X25515000Y-48825000D02*
X26015000Y-48825000D01*
X25515000Y-42825000D02*
X26015000Y-42825000D01*
X26015000Y-48925000D02*
X26015000Y-48725000D01*
X24905000Y-53885000D02*
X24905000Y-31765000D01*
X25515000Y-32375000D02*
X29015000Y-32375000D01*
X27015000Y-31765000D02*
X27015000Y-32375000D01*
X26015000Y-50725000D02*
X25515000Y-50725000D01*
X26015000Y-48725000D02*
X25515000Y-48725000D01*
X26015000Y-44725000D02*
X25515000Y-44725000D01*
X25515000Y-44825000D02*
X26015000Y-44825000D01*
X25515000Y-46825000D02*
X26015000Y-46825000D01*
X25515000Y-34925000D02*
X26015000Y-34925000D01*
X93815000Y-84925000D02*
X94315000Y-84925000D01*
X94315000Y-80725000D02*
X93815000Y-80725000D01*
X93815000Y-90825000D02*
X94315000Y-90825000D01*
X93815000Y-92925000D02*
X94315000Y-92925000D01*
X93815000Y-80825000D02*
X94315000Y-80825000D01*
X94315000Y-90725000D02*
X93815000Y-90725000D01*
X97315000Y-76325000D02*
X97925000Y-76325000D01*
X93815000Y-88825000D02*
X94315000Y-88825000D01*
X97315000Y-74375000D02*
X97315000Y-76325000D01*
X98025000Y-94125000D02*
X98025000Y-94425000D01*
X96615000Y-95885000D02*
X96615000Y-95275000D01*
X97315000Y-95275000D02*
X93815000Y-95275000D01*
X94315000Y-84725000D02*
X93815000Y-84725000D01*
X94315000Y-90925000D02*
X94315000Y-90725000D01*
X93815000Y-90925000D02*
X94315000Y-90925000D01*
X94315000Y-82725000D02*
X93815000Y-82725000D01*
X93815000Y-92825000D02*
X94315000Y-92825000D01*
X93815000Y-82925000D02*
X94315000Y-82925000D01*
X93815000Y-78925000D02*
X94315000Y-78925000D01*
X98225000Y-96185000D02*
X96975000Y-96185000D01*
X95315000Y-73765000D02*
X95315000Y-74375000D01*
X93815000Y-80925000D02*
X94315000Y-80925000D01*
X93815000Y-76825000D02*
X94315000Y-76825000D01*
X93815000Y-78825000D02*
X94315000Y-78825000D01*
X94315000Y-78725000D02*
X93815000Y-78725000D01*
X93815000Y-95275000D02*
X93815000Y-74375000D01*
X94315000Y-92925000D02*
X94315000Y-92725000D01*
X98125000Y-94425000D02*
X97925000Y-94425000D01*
X93815000Y-88925000D02*
X94315000Y-88925000D01*
X95315000Y-95885000D02*
X95315000Y-95275000D01*
X94315000Y-82925000D02*
X94315000Y-82725000D01*
X94315000Y-76725000D02*
X93815000Y-76725000D01*
X97925000Y-94125000D02*
X98125000Y-94125000D01*
X93815000Y-86825000D02*
X94315000Y-86825000D01*
X93815000Y-76925000D02*
X94315000Y-76925000D01*
X94315000Y-88725000D02*
X93815000Y-88725000D01*
X94315000Y-86925000D02*
X94315000Y-86725000D01*
X93205000Y-95885000D02*
X93205000Y-73765000D01*
X94315000Y-84925000D02*
X94315000Y-84725000D01*
X93205000Y-73765000D02*
X97925000Y-73765000D01*
X94315000Y-92725000D02*
X93815000Y-92725000D01*
X97925000Y-95885000D02*
X93205000Y-95885000D01*
X98125000Y-94125000D02*
X98125000Y-94425000D01*
X96615000Y-73765000D02*
X96615000Y-74375000D01*
X94315000Y-76925000D02*
X94315000Y-76725000D01*
X94315000Y-86725000D02*
X93815000Y-86725000D01*
X93815000Y-74375000D02*
X97315000Y-74375000D01*
X94315000Y-78925000D02*
X94315000Y-78725000D01*
X94315000Y-80925000D02*
X94315000Y-80725000D01*
X97925000Y-73765000D02*
X97925000Y-95885000D01*
X93815000Y-82825000D02*
X94315000Y-82825000D01*
X93815000Y-86925000D02*
X94315000Y-86925000D01*
X97315000Y-93325000D02*
X97315000Y-95275000D01*
X93815000Y-84825000D02*
X94315000Y-84825000D01*
X98225000Y-94935000D02*
X98225000Y-96185000D01*
X97925000Y-93325000D02*
X97315000Y-93325000D01*
X94315000Y-88925000D02*
X94315000Y-88725000D01*
X94315000Y-50925000D02*
X94315000Y-50725000D01*
X94315000Y-42725000D02*
X93815000Y-42725000D01*
X93815000Y-40825000D02*
X94315000Y-40825000D01*
X94315000Y-34725000D02*
X93815000Y-34725000D01*
X93815000Y-36825000D02*
X94315000Y-36825000D01*
X94315000Y-44925000D02*
X94315000Y-44725000D01*
X93205000Y-53885000D02*
X93205000Y-31765000D01*
X98225000Y-54185000D02*
X96975000Y-54185000D01*
X94315000Y-42925000D02*
X94315000Y-42725000D01*
X93815000Y-53275000D02*
X93815000Y-32375000D01*
X93815000Y-34925000D02*
X94315000Y-34925000D01*
X97925000Y-52125000D02*
X98125000Y-52125000D01*
X94315000Y-48725000D02*
X93815000Y-48725000D01*
X98225000Y-52935000D02*
X98225000Y-54185000D01*
X93815000Y-50825000D02*
X94315000Y-50825000D01*
X93815000Y-36925000D02*
X94315000Y-36925000D01*
X94315000Y-50725000D02*
X93815000Y-50725000D01*
X93815000Y-48825000D02*
X94315000Y-48825000D01*
X94315000Y-44725000D02*
X93815000Y-44725000D01*
X97315000Y-53275000D02*
X93815000Y-53275000D01*
X94315000Y-38725000D02*
X93815000Y-38725000D01*
X96615000Y-31765000D02*
X96615000Y-32375000D01*
X93205000Y-31765000D02*
X97925000Y-31765000D01*
X93815000Y-46825000D02*
X94315000Y-46825000D01*
X93815000Y-42925000D02*
X94315000Y-42925000D01*
X94315000Y-34925000D02*
X94315000Y-34725000D01*
X93815000Y-50925000D02*
X94315000Y-50925000D01*
X97925000Y-31765000D02*
X97925000Y-53885000D01*
X94315000Y-36925000D02*
X94315000Y-36725000D01*
X93815000Y-44925000D02*
X94315000Y-44925000D01*
X93815000Y-44825000D02*
X94315000Y-44825000D01*
X93815000Y-38925000D02*
X94315000Y-38925000D01*
X95315000Y-31765000D02*
X95315000Y-32375000D01*
X97925000Y-51325000D02*
X97315000Y-51325000D01*
X97925000Y-53885000D02*
X93205000Y-53885000D01*
X93815000Y-42825000D02*
X94315000Y-42825000D01*
X93815000Y-46925000D02*
X94315000Y-46925000D01*
X95315000Y-53885000D02*
X95315000Y-53275000D01*
X98025000Y-52125000D02*
X98025000Y-52425000D01*
X93815000Y-48925000D02*
X94315000Y-48925000D01*
X98125000Y-52125000D02*
X98125000Y-52425000D01*
X96615000Y-53885000D02*
X96615000Y-53275000D01*
X94315000Y-38925000D02*
X94315000Y-38725000D01*
X94315000Y-48925000D02*
X94315000Y-48725000D01*
X93815000Y-34825000D02*
X94315000Y-34825000D01*
X93815000Y-38825000D02*
X94315000Y-38825000D01*
X97315000Y-34325000D02*
X97925000Y-34325000D01*
X98125000Y-52425000D02*
X97925000Y-52425000D01*
X93815000Y-40925000D02*
X94315000Y-40925000D01*
X94315000Y-40925000D02*
X94315000Y-40725000D01*
X94315000Y-46925000D02*
X94315000Y-46725000D01*
X94315000Y-40725000D02*
X93815000Y-40725000D01*
X93815000Y-32375000D02*
X97315000Y-32375000D01*
X97315000Y-32375000D02*
X97315000Y-34325000D01*
X94315000Y-36725000D02*
X93815000Y-36725000D01*
X94315000Y-46725000D02*
X93815000Y-46725000D01*
X97315000Y-51325000D02*
X97315000Y-53275000D01*
%TO.C,J2*%
X24005000Y-104485000D02*
X24005000Y-103835000D01*
X20505000Y-65185000D02*
X20505000Y-65835000D01*
X24005000Y-65835000D02*
X24005000Y-65185000D01*
X20505000Y-104485000D02*
X20505000Y-103835000D01*
X24005000Y-65185000D02*
X20505000Y-65185000D01*
X24005000Y-104485000D02*
X20505000Y-104485000D01*
X24005000Y-65835000D02*
X18805000Y-65835000D01*
X18805000Y-65835000D02*
X18805000Y-103835000D01*
X18805000Y-103835000D02*
X24005000Y-103835000D01*
X24005000Y-103835000D02*
X24005000Y-65835000D01*
%TO.C,J3*%
X79540000Y-31765000D02*
X79540000Y-32375000D01*
X76740000Y-32375000D02*
X80240000Y-32375000D01*
X80240000Y-32375000D02*
X80240000Y-34325000D01*
X77240000Y-40925000D02*
X77240000Y-40725000D01*
X80850000Y-51325000D02*
X80240000Y-51325000D01*
X76740000Y-46825000D02*
X77240000Y-46825000D01*
X77240000Y-46925000D02*
X77240000Y-46725000D01*
X76740000Y-34825000D02*
X77240000Y-34825000D01*
X76740000Y-36825000D02*
X77240000Y-36825000D01*
X81050000Y-52125000D02*
X81050000Y-52425000D01*
X76740000Y-44925000D02*
X77240000Y-44925000D01*
X77240000Y-36925000D02*
X77240000Y-36725000D01*
X76740000Y-48925000D02*
X77240000Y-48925000D01*
X76740000Y-44825000D02*
X77240000Y-44825000D01*
X77240000Y-34725000D02*
X76740000Y-34725000D01*
X77240000Y-34925000D02*
X77240000Y-34725000D01*
X76740000Y-53275000D02*
X76740000Y-32375000D01*
X77240000Y-38725000D02*
X76740000Y-38725000D01*
X77240000Y-42725000D02*
X76740000Y-42725000D01*
X77240000Y-50725000D02*
X76740000Y-50725000D01*
X80950000Y-52125000D02*
X80950000Y-52425000D01*
X77240000Y-40725000D02*
X76740000Y-40725000D01*
X79540000Y-53885000D02*
X79540000Y-53275000D01*
X77240000Y-44725000D02*
X76740000Y-44725000D01*
X76740000Y-36925000D02*
X77240000Y-36925000D01*
X76740000Y-34925000D02*
X77240000Y-34925000D01*
X80850000Y-52125000D02*
X81050000Y-52125000D01*
X77240000Y-38925000D02*
X77240000Y-38725000D01*
X78240000Y-53885000D02*
X78240000Y-53275000D01*
X76740000Y-42825000D02*
X77240000Y-42825000D01*
X81050000Y-52425000D02*
X80850000Y-52425000D01*
X77240000Y-46725000D02*
X76740000Y-46725000D01*
X77240000Y-48925000D02*
X77240000Y-48725000D01*
X77240000Y-42925000D02*
X77240000Y-42725000D01*
X80240000Y-53275000D02*
X76740000Y-53275000D01*
X80850000Y-53885000D02*
X76130000Y-53885000D01*
X76740000Y-40925000D02*
X77240000Y-40925000D01*
X76740000Y-50825000D02*
X77240000Y-50825000D01*
X76130000Y-53885000D02*
X76130000Y-31765000D01*
X76740000Y-40825000D02*
X77240000Y-40825000D01*
X78240000Y-31765000D02*
X78240000Y-32375000D01*
X76740000Y-38925000D02*
X77240000Y-38925000D01*
X76740000Y-42925000D02*
X77240000Y-42925000D01*
X80240000Y-34325000D02*
X80850000Y-34325000D01*
X77240000Y-36725000D02*
X76740000Y-36725000D01*
X80240000Y-51325000D02*
X80240000Y-53275000D01*
X80850000Y-31765000D02*
X80850000Y-53885000D01*
X81150000Y-52935000D02*
X81150000Y-54185000D01*
X77240000Y-44925000D02*
X77240000Y-44725000D01*
X77240000Y-48725000D02*
X76740000Y-48725000D01*
X76130000Y-31765000D02*
X80850000Y-31765000D01*
X76740000Y-48825000D02*
X77240000Y-48825000D01*
X76740000Y-38825000D02*
X77240000Y-38825000D01*
X81150000Y-54185000D02*
X79900000Y-54185000D01*
X76740000Y-50925000D02*
X77240000Y-50925000D01*
X77240000Y-50925000D02*
X77240000Y-50725000D01*
X76740000Y-46925000D02*
X77240000Y-46925000D01*
%TO.C,J2*%
X37580000Y-65185000D02*
X37580000Y-65835000D01*
X41080000Y-65185000D02*
X37580000Y-65185000D01*
X41080000Y-65835000D02*
X41080000Y-65185000D01*
X37580000Y-104485000D02*
X37580000Y-103835000D01*
X41080000Y-104485000D02*
X37580000Y-104485000D01*
X41080000Y-104485000D02*
X41080000Y-103835000D01*
X41080000Y-65835000D02*
X35880000Y-65835000D01*
X35880000Y-65835000D02*
X35880000Y-103835000D01*
X35880000Y-103835000D02*
X41080000Y-103835000D01*
X41080000Y-103835000D02*
X41080000Y-65835000D01*
X54655000Y-65185000D02*
X54655000Y-65835000D01*
X54655000Y-104485000D02*
X54655000Y-103835000D01*
X58155000Y-104485000D02*
X54655000Y-104485000D01*
X58155000Y-65185000D02*
X54655000Y-65185000D01*
X58155000Y-65835000D02*
X58155000Y-65185000D01*
X58155000Y-104485000D02*
X58155000Y-103835000D01*
X58155000Y-65835000D02*
X52955000Y-65835000D01*
X52955000Y-65835000D02*
X52955000Y-103835000D01*
X52955000Y-103835000D02*
X58155000Y-103835000D01*
X58155000Y-103835000D02*
X58155000Y-65835000D01*
X24005000Y-23835000D02*
X24005000Y-23185000D01*
X24005000Y-62485000D02*
X24005000Y-61835000D01*
X24005000Y-62485000D02*
X20505000Y-62485000D01*
X20505000Y-23185000D02*
X20505000Y-23835000D01*
X20505000Y-62485000D02*
X20505000Y-61835000D01*
X24005000Y-23185000D02*
X20505000Y-23185000D01*
X24005000Y-23835000D02*
X18805000Y-23835000D01*
X18805000Y-23835000D02*
X18805000Y-61835000D01*
X18805000Y-61835000D02*
X24005000Y-61835000D01*
X24005000Y-61835000D02*
X24005000Y-23835000D01*
X92305000Y-23835000D02*
X92305000Y-23185000D01*
X88805000Y-62485000D02*
X88805000Y-61835000D01*
X92305000Y-62485000D02*
X88805000Y-62485000D01*
X92305000Y-23185000D02*
X88805000Y-23185000D01*
X88805000Y-23185000D02*
X88805000Y-23835000D01*
X92305000Y-62485000D02*
X92305000Y-61835000D01*
X92305000Y-23835000D02*
X87105000Y-23835000D01*
X87105000Y-23835000D02*
X87105000Y-61835000D01*
X87105000Y-61835000D02*
X92305000Y-61835000D01*
X92305000Y-61835000D02*
X92305000Y-23835000D01*
%TD*%
%LPC*%
D12*
%TO.C,REF\u002A\u002A*%
X20500000Y-110500000D03*
%TD*%
D13*
%TO.C,REF\u002A\u002A*%
X96000000Y-110500000D03*
%TD*%
%TO.C,REF\u002A\u002A*%
X17500000Y-110500000D03*
%TD*%
D12*
%TO.C,REF\u002A\u002A*%
X20500000Y-17500000D03*
%TD*%
D13*
%TO.C,REF\u002A\u002A*%
X96000000Y-17500000D03*
%TD*%
%TO.C,REF\u002A\u002A*%
X17500000Y-17500000D03*
%TD*%
D14*
%TO.C,REF\u002A\u002A*%
X29875000Y-42000000D03*
%TD*%
%TO.C,REF\u002A\u002A*%
X46950000Y-41000000D03*
%TD*%
%TO.C,REF\u002A\u002A*%
X91350000Y-104800000D03*
%TD*%
%TO.C,REF\u002A\u002A*%
X54175000Y-65200000D03*
%TD*%
%TO.C,REF\u002A\u002A*%
X41125000Y-62800000D03*
%TD*%
%TO.C,REF\u002A\u002A*%
X73250000Y-23200000D03*
%TD*%
%TO.C,REF\u002A\u002A*%
X37100000Y-62800000D03*
%TD*%
%TO.C,REF\u002A\u002A*%
X41125000Y-104800000D03*
%TD*%
%TO.C,REF\u002A\u002A*%
X53175000Y-23200000D03*
%TD*%
%TO.C,REF\u002A\u002A*%
X29875000Y-44000000D03*
%TD*%
%TO.C,REF\u002A\u002A*%
X56175000Y-62800000D03*
%TD*%
%TO.C,REF\u002A\u002A*%
X64025000Y-41000000D03*
%TD*%
D15*
%TO.C,J1*%
X16995000Y-68835000D03*
D16*
X16995000Y-70835000D03*
X16995000Y-72835000D03*
X16995000Y-74835000D03*
X16995000Y-76835000D03*
X16995000Y-78835000D03*
X16995000Y-80835000D03*
X16995000Y-82835000D03*
X16995000Y-84835000D03*
X16995000Y-86835000D03*
X16995000Y-88835000D03*
X16995000Y-90835000D03*
X16995000Y-92835000D03*
X16995000Y-94835000D03*
X16995000Y-96835000D03*
X16995000Y-98835000D03*
X16995000Y-100835000D03*
%TD*%
D14*
%TO.C,REF\u002A\u002A*%
X36100000Y-62800000D03*
%TD*%
%TO.C,REF\u002A\u002A*%
X57200000Y-104800000D03*
%TD*%
%TO.C,REF\u002A\u002A*%
X37100000Y-23200000D03*
%TD*%
%TO.C,REF\u002A\u002A*%
X78275000Y-23200000D03*
%TD*%
%TO.C,REF\u002A\u002A*%
X52175000Y-104800000D03*
%TD*%
%TO.C,REF\u002A\u002A*%
X35100000Y-104800000D03*
%TD*%
%TO.C,REF\u002A\u002A*%
X88325000Y-62800000D03*
%TD*%
%TO.C,REF\u002A\u002A*%
X83500000Y-85000000D03*
%TD*%
%TO.C,REF\u002A\u002A*%
X57200000Y-23200000D03*
%TD*%
%TO.C,REF\u002A\u002A*%
X87325000Y-104800000D03*
%TD*%
%TO.C,REF\u002A\u002A*%
X64025000Y-86000000D03*
%TD*%
%TO.C,REF\u002A\u002A*%
X94350000Y-62800000D03*
%TD*%
%TO.C,REF\u002A\u002A*%
X95350000Y-65200000D03*
%TD*%
%TO.C,REF\u002A\u002A*%
X83500000Y-86000000D03*
%TD*%
%TO.C,REF\u002A\u002A*%
X32275000Y-86000000D03*
%TD*%
%TO.C,REF\u002A\u002A*%
X32275000Y-41000000D03*
%TD*%
%TO.C,REF\u002A\u002A*%
X38100000Y-23200000D03*
%TD*%
%TO.C,REF\u002A\u002A*%
X19025000Y-23200000D03*
%TD*%
%TO.C,REF\u002A\u002A*%
X26050000Y-104800000D03*
%TD*%
%TO.C,REF\u002A\u002A*%
X32275000Y-45000000D03*
%TD*%
%TO.C,REF\u002A\u002A*%
X56175000Y-65200000D03*
%TD*%
%TO.C,REF\u002A\u002A*%
X39100000Y-23200000D03*
%TD*%
%TO.C,REF\u002A\u002A*%
X52175000Y-65200000D03*
%TD*%
%TO.C,REF\u002A\u002A*%
X56175000Y-23200000D03*
%TD*%
%TO.C,REF\u002A\u002A*%
X81100000Y-83000000D03*
%TD*%
%TO.C,REF\u002A\u002A*%
X44125000Y-65200000D03*
%TD*%
%TO.C,REF\u002A\u002A*%
X55175000Y-62800000D03*
%TD*%
%TO.C,REF\u002A\u002A*%
X83500000Y-83000000D03*
%TD*%
%TO.C,REF\u002A\u002A*%
X81100000Y-86000000D03*
%TD*%
%TO.C,REF\u002A\u002A*%
X24050000Y-23200000D03*
%TD*%
%TO.C,REF\u002A\u002A*%
X36100000Y-23200000D03*
%TD*%
%TO.C,REF\u002A\u002A*%
X66425000Y-43000000D03*
%TD*%
%TO.C,REF\u002A\u002A*%
X81100000Y-41000000D03*
%TD*%
%TO.C,REF\u002A\u002A*%
X76275000Y-65200000D03*
%TD*%
%TO.C,REF\u002A\u002A*%
X87325000Y-65200000D03*
%TD*%
%TO.C,REF\u002A\u002A*%
X61200000Y-23200000D03*
%TD*%
%TO.C,REF\u002A\u002A*%
X83500000Y-84000000D03*
%TD*%
%TO.C,REF\u002A\u002A*%
X22025000Y-23200000D03*
%TD*%
%TO.C,REF\u002A\u002A*%
X32275000Y-44000000D03*
%TD*%
%TO.C,REF\u002A\u002A*%
X29875000Y-86000000D03*
%TD*%
%TO.C,REF\u002A\u002A*%
X40125000Y-62800000D03*
%TD*%
%TO.C,REF\u002A\u002A*%
X92350000Y-104800000D03*
%TD*%
%TO.C,REF\u002A\u002A*%
X54175000Y-62800000D03*
%TD*%
%TO.C,REF\u002A\u002A*%
X75275000Y-62800000D03*
%TD*%
D15*
%TO.C,J1*%
X16995000Y-26835000D03*
D16*
X16995000Y-28835000D03*
X16995000Y-30835000D03*
X16995000Y-32835000D03*
X16995000Y-34835000D03*
X16995000Y-36835000D03*
X16995000Y-38835000D03*
X16995000Y-40835000D03*
X16995000Y-42835000D03*
X16995000Y-44835000D03*
X16995000Y-46835000D03*
X16995000Y-48835000D03*
X16995000Y-50835000D03*
X16995000Y-52835000D03*
X16995000Y-54835000D03*
X16995000Y-56835000D03*
X16995000Y-58835000D03*
%TD*%
D14*
%TO.C,REF\u002A\u002A*%
X71250000Y-104800000D03*
%TD*%
%TO.C,REF\u002A\u002A*%
X49350000Y-86000000D03*
%TD*%
%TO.C,REF\u002A\u002A*%
X35100000Y-65200000D03*
%TD*%
%TO.C,REF\u002A\u002A*%
X39100000Y-62800000D03*
%TD*%
%TO.C,REF\u002A\u002A*%
X35100000Y-23200000D03*
%TD*%
%TO.C,REF\u002A\u002A*%
X95350000Y-104800000D03*
%TD*%
%TO.C,REF\u002A\u002A*%
X64025000Y-43000000D03*
%TD*%
%TO.C,REF\u002A\u002A*%
X24050000Y-104800000D03*
%TD*%
%TO.C,REF\u002A\u002A*%
X29875000Y-83000000D03*
%TD*%
%TO.C,REF\u002A\u002A*%
X19025000Y-65200000D03*
%TD*%
%TO.C,REF\u002A\u002A*%
X27050000Y-62800000D03*
%TD*%
%TO.C,REF\u002A\u002A*%
X83500000Y-41000000D03*
%TD*%
%TO.C,REF\u002A\u002A*%
X27050000Y-23200000D03*
%TD*%
%TO.C,REF\u002A\u002A*%
X29875000Y-45000000D03*
%TD*%
%TO.C,REF\u002A\u002A*%
X24050000Y-62800000D03*
%TD*%
%TO.C,REF\u002A\u002A*%
X90325000Y-62800000D03*
%TD*%
%TO.C,REF\u002A\u002A*%
X92350000Y-65200000D03*
%TD*%
%TO.C,REF\u002A\u002A*%
X88325000Y-23200000D03*
%TD*%
%TO.C,REF\u002A\u002A*%
X78275000Y-104800000D03*
%TD*%
%TO.C,REF\u002A\u002A*%
X73250000Y-62800000D03*
%TD*%
%TO.C,REF\u002A\u002A*%
X90325000Y-104800000D03*
%TD*%
%TO.C,REF\u002A\u002A*%
X60200000Y-62800000D03*
%TD*%
%TO.C,REF\u002A\u002A*%
X49350000Y-45000000D03*
%TD*%
%TO.C,REF\u002A\u002A*%
X78275000Y-65200000D03*
%TD*%
%TO.C,REF\u002A\u002A*%
X21025000Y-62800000D03*
%TD*%
%TO.C,REF\u002A\u002A*%
X36100000Y-65200000D03*
%TD*%
%TO.C,REF\u002A\u002A*%
X46950000Y-83000000D03*
%TD*%
D15*
%TO.C,J1*%
X85295000Y-68835000D03*
D16*
X85295000Y-70835000D03*
X85295000Y-72835000D03*
X85295000Y-74835000D03*
X85295000Y-76835000D03*
X85295000Y-78835000D03*
X85295000Y-80835000D03*
X85295000Y-82835000D03*
X85295000Y-84835000D03*
X85295000Y-86835000D03*
X85295000Y-88835000D03*
X85295000Y-90835000D03*
X85295000Y-92835000D03*
X85295000Y-94835000D03*
X85295000Y-96835000D03*
X85295000Y-98835000D03*
X85295000Y-100835000D03*
%TD*%
D14*
%TO.C,REF\u002A\u002A*%
X61200000Y-65200000D03*
%TD*%
%TO.C,REF\u002A\u002A*%
X29875000Y-87000000D03*
%TD*%
%TO.C,REF\u002A\u002A*%
X64025000Y-45000000D03*
%TD*%
D15*
%TO.C,J1*%
X34070000Y-26835000D03*
D16*
X34070000Y-28835000D03*
X34070000Y-30835000D03*
X34070000Y-32835000D03*
X34070000Y-34835000D03*
X34070000Y-36835000D03*
X34070000Y-38835000D03*
X34070000Y-40835000D03*
X34070000Y-42835000D03*
X34070000Y-44835000D03*
X34070000Y-46835000D03*
X34070000Y-48835000D03*
X34070000Y-50835000D03*
X34070000Y-52835000D03*
X34070000Y-54835000D03*
X34070000Y-56835000D03*
X34070000Y-58835000D03*
%TD*%
D15*
%TO.C,J1*%
X68220000Y-26835000D03*
D16*
X68220000Y-28835000D03*
X68220000Y-30835000D03*
X68220000Y-32835000D03*
X68220000Y-34835000D03*
X68220000Y-36835000D03*
X68220000Y-38835000D03*
X68220000Y-40835000D03*
X68220000Y-42835000D03*
X68220000Y-44835000D03*
X68220000Y-46835000D03*
X68220000Y-48835000D03*
X68220000Y-50835000D03*
X68220000Y-52835000D03*
X68220000Y-54835000D03*
X68220000Y-56835000D03*
X68220000Y-58835000D03*
%TD*%
D14*
%TO.C,REF\u002A\u002A*%
X32275000Y-84000000D03*
%TD*%
%TO.C,REF\u002A\u002A*%
X74275000Y-62800000D03*
%TD*%
%TO.C,REF\u002A\u002A*%
X20025000Y-104800000D03*
%TD*%
%TO.C,REF\u002A\u002A*%
X49350000Y-41000000D03*
%TD*%
%TO.C,REF\u002A\u002A*%
X42125000Y-62800000D03*
%TD*%
%TO.C,REF\u002A\u002A*%
X60200000Y-23200000D03*
%TD*%
%TO.C,REF\u002A\u002A*%
X29875000Y-41000000D03*
%TD*%
%TO.C,REF\u002A\u002A*%
X21025000Y-104800000D03*
%TD*%
%TO.C,REF\u002A\u002A*%
X18025000Y-65200000D03*
%TD*%
%TO.C,REF\u002A\u002A*%
X18025000Y-104800000D03*
%TD*%
%TO.C,REF\u002A\u002A*%
X58200000Y-62800000D03*
%TD*%
%TO.C,REF\u002A\u002A*%
X19025000Y-104800000D03*
%TD*%
%TO.C,REF\u002A\u002A*%
X23050000Y-23200000D03*
%TD*%
%TO.C,REF\u002A\u002A*%
X69250000Y-62800000D03*
%TD*%
%TO.C,REF\u002A\u002A*%
X59200000Y-104800000D03*
%TD*%
%TO.C,REF\u002A\u002A*%
X60200000Y-104800000D03*
%TD*%
%TO.C,REF\u002A\u002A*%
X52175000Y-62800000D03*
%TD*%
D15*
%TO.C,J1*%
X51145000Y-68835000D03*
D16*
X51145000Y-70835000D03*
X51145000Y-72835000D03*
X51145000Y-74835000D03*
X51145000Y-76835000D03*
X51145000Y-78835000D03*
X51145000Y-80835000D03*
X51145000Y-82835000D03*
X51145000Y-84835000D03*
X51145000Y-86835000D03*
X51145000Y-88835000D03*
X51145000Y-90835000D03*
X51145000Y-92835000D03*
X51145000Y-94835000D03*
X51145000Y-96835000D03*
X51145000Y-98835000D03*
X51145000Y-100835000D03*
%TD*%
D14*
%TO.C,REF\u002A\u002A*%
X76275000Y-62800000D03*
%TD*%
%TO.C,REF\u002A\u002A*%
X81100000Y-87000000D03*
%TD*%
%TO.C,REF\u002A\u002A*%
X23050000Y-62800000D03*
%TD*%
%TO.C,REF\u002A\u002A*%
X93350000Y-104800000D03*
%TD*%
%TO.C,REF\u002A\u002A*%
X86325000Y-104800000D03*
%TD*%
%TO.C,REF\u002A\u002A*%
X25050000Y-62800000D03*
%TD*%
%TO.C,REF\u002A\u002A*%
X66425000Y-83000000D03*
%TD*%
%TO.C,REF\u002A\u002A*%
X55175000Y-104800000D03*
%TD*%
%TO.C,REF\u002A\u002A*%
X26050000Y-23200000D03*
%TD*%
%TO.C,REF\u002A\u002A*%
X27050000Y-65200000D03*
%TD*%
%TO.C,REF\u002A\u002A*%
X32275000Y-85000000D03*
%TD*%
%TO.C,REF\u002A\u002A*%
X93350000Y-65200000D03*
%TD*%
%TO.C,REF\u002A\u002A*%
X35100000Y-62800000D03*
%TD*%
%TO.C,REF\u002A\u002A*%
X72250000Y-104800000D03*
%TD*%
%TO.C,REF\u002A\u002A*%
X81100000Y-85000000D03*
%TD*%
D15*
%TO.C,J1*%
X85295000Y-26835000D03*
D16*
X85295000Y-28835000D03*
X85295000Y-30835000D03*
X85295000Y-32835000D03*
X85295000Y-34835000D03*
X85295000Y-36835000D03*
X85295000Y-38835000D03*
X85295000Y-40835000D03*
X85295000Y-42835000D03*
X85295000Y-44835000D03*
X85295000Y-46835000D03*
X85295000Y-48835000D03*
X85295000Y-50835000D03*
X85295000Y-52835000D03*
X85295000Y-54835000D03*
X85295000Y-56835000D03*
X85295000Y-58835000D03*
%TD*%
D14*
%TO.C,REF\u002A\u002A*%
X91350000Y-23200000D03*
%TD*%
%TO.C,REF\u002A\u002A*%
X18025000Y-62800000D03*
%TD*%
%TO.C,REF\u002A\u002A*%
X32275000Y-42000000D03*
%TD*%
%TO.C,REF\u002A\u002A*%
X83500000Y-42000000D03*
%TD*%
%TO.C,REF\u002A\u002A*%
X83500000Y-44000000D03*
%TD*%
%TO.C,REF\u002A\u002A*%
X49350000Y-84000000D03*
%TD*%
%TO.C,REF\u002A\u002A*%
X26050000Y-62800000D03*
%TD*%
%TO.C,REF\u002A\u002A*%
X23050000Y-65200000D03*
%TD*%
%TO.C,REF\u002A\u002A*%
X77275000Y-62800000D03*
%TD*%
%TO.C,REF\u002A\u002A*%
X69250000Y-23200000D03*
%TD*%
%TO.C,REF\u002A\u002A*%
X90325000Y-65200000D03*
%TD*%
%TO.C,REF\u002A\u002A*%
X46950000Y-44000000D03*
%TD*%
%TO.C,REF\u002A\u002A*%
X57200000Y-62800000D03*
%TD*%
%TO.C,REF\u002A\u002A*%
X44125000Y-62800000D03*
%TD*%
%TO.C,REF\u002A\u002A*%
X72250000Y-23200000D03*
%TD*%
%TO.C,REF\u002A\u002A*%
X49350000Y-43000000D03*
%TD*%
%TO.C,REF\u002A\u002A*%
X42125000Y-23200000D03*
%TD*%
%TO.C,REF\u002A\u002A*%
X64025000Y-87000000D03*
%TD*%
%TO.C,REF\u002A\u002A*%
X86325000Y-23200000D03*
%TD*%
D15*
%TO.C,J1*%
X51145000Y-26835000D03*
D16*
X51145000Y-28835000D03*
X51145000Y-30835000D03*
X51145000Y-32835000D03*
X51145000Y-34835000D03*
X51145000Y-36835000D03*
X51145000Y-38835000D03*
X51145000Y-40835000D03*
X51145000Y-42835000D03*
X51145000Y-44835000D03*
X51145000Y-46835000D03*
X51145000Y-48835000D03*
X51145000Y-50835000D03*
X51145000Y-52835000D03*
X51145000Y-54835000D03*
X51145000Y-56835000D03*
X51145000Y-58835000D03*
%TD*%
D14*
%TO.C,REF\u002A\u002A*%
X77275000Y-65200000D03*
%TD*%
%TO.C,REF\u002A\u002A*%
X32275000Y-83000000D03*
%TD*%
%TO.C,REF\u002A\u002A*%
X39100000Y-104800000D03*
%TD*%
%TO.C,REF\u002A\u002A*%
X93350000Y-23200000D03*
%TD*%
%TO.C,REF\u002A\u002A*%
X70250000Y-65200000D03*
%TD*%
%TO.C,REF\u002A\u002A*%
X38100000Y-104800000D03*
%TD*%
%TO.C,REF\u002A\u002A*%
X83500000Y-43000000D03*
%TD*%
%TO.C,REF\u002A\u002A*%
X61200000Y-104800000D03*
%TD*%
%TO.C,REF\u002A\u002A*%
X60200000Y-65200000D03*
%TD*%
%TO.C,REF\u002A\u002A*%
X52175000Y-23200000D03*
%TD*%
%TO.C,REF\u002A\u002A*%
X88325000Y-104800000D03*
%TD*%
%TO.C,REF\u002A\u002A*%
X41125000Y-65200000D03*
%TD*%
%TO.C,REF\u002A\u002A*%
X46950000Y-86000000D03*
%TD*%
D15*
%TO.C,J1*%
X68220000Y-68835000D03*
D16*
X68220000Y-70835000D03*
X68220000Y-72835000D03*
X68220000Y-74835000D03*
X68220000Y-76835000D03*
X68220000Y-78835000D03*
X68220000Y-80835000D03*
X68220000Y-82835000D03*
X68220000Y-84835000D03*
X68220000Y-86835000D03*
X68220000Y-88835000D03*
X68220000Y-90835000D03*
X68220000Y-92835000D03*
X68220000Y-94835000D03*
X68220000Y-96835000D03*
X68220000Y-98835000D03*
X68220000Y-100835000D03*
%TD*%
D14*
%TO.C,REF\u002A\u002A*%
X49350000Y-87000000D03*
%TD*%
%TO.C,REF\u002A\u002A*%
X81100000Y-43000000D03*
%TD*%
%TO.C,REF\u002A\u002A*%
X42125000Y-65200000D03*
%TD*%
%TO.C,REF\u002A\u002A*%
X46950000Y-84000000D03*
%TD*%
%TO.C,REF\u002A\u002A*%
X40125000Y-65200000D03*
%TD*%
%TO.C,REF\u002A\u002A*%
X73250000Y-65200000D03*
%TD*%
%TO.C,REF\u002A\u002A*%
X89325000Y-62800000D03*
%TD*%
%TO.C,REF\u002A\u002A*%
X95350000Y-62800000D03*
%TD*%
%TO.C,REF\u002A\u002A*%
X39100000Y-65200000D03*
%TD*%
%TO.C,REF\u002A\u002A*%
X42125000Y-104800000D03*
%TD*%
%TO.C,REF\u002A\u002A*%
X49350000Y-83000000D03*
%TD*%
%TO.C,REF\u002A\u002A*%
X43125000Y-104800000D03*
%TD*%
%TO.C,REF\u002A\u002A*%
X66425000Y-87000000D03*
%TD*%
%TO.C,REF\u002A\u002A*%
X77275000Y-23200000D03*
%TD*%
%TO.C,REF\u002A\u002A*%
X64025000Y-84000000D03*
%TD*%
%TO.C,REF\u002A\u002A*%
X70250000Y-104800000D03*
%TD*%
%TO.C,REF\u002A\u002A*%
X29875000Y-85000000D03*
%TD*%
%TO.C,REF\u002A\u002A*%
X81100000Y-42000000D03*
%TD*%
%TO.C,REF\u002A\u002A*%
X74275000Y-104800000D03*
%TD*%
%TO.C,REF\u002A\u002A*%
X66425000Y-85000000D03*
%TD*%
%TO.C,REF\u002A\u002A*%
X49350000Y-85000000D03*
%TD*%
%TO.C,REF\u002A\u002A*%
X44125000Y-23200000D03*
%TD*%
%TO.C,REF\u002A\u002A*%
X77275000Y-104800000D03*
%TD*%
%TO.C,REF\u002A\u002A*%
X64025000Y-85000000D03*
%TD*%
%TO.C,REF\u002A\u002A*%
X27050000Y-104800000D03*
%TD*%
%TO.C,REF\u002A\u002A*%
X75275000Y-23200000D03*
%TD*%
%TO.C,REF\u002A\u002A*%
X91350000Y-65200000D03*
%TD*%
%TO.C,REF\u002A\u002A*%
X53175000Y-62800000D03*
%TD*%
%TO.C,REF\u002A\u002A*%
X64025000Y-83000000D03*
%TD*%
%TO.C,REF\u002A\u002A*%
X89325000Y-23200000D03*
%TD*%
%TO.C,REF\u002A\u002A*%
X83500000Y-45000000D03*
%TD*%
%TO.C,REF\u002A\u002A*%
X59200000Y-23200000D03*
%TD*%
%TO.C,REF\u002A\u002A*%
X23050000Y-104800000D03*
%TD*%
%TO.C,REF\u002A\u002A*%
X53175000Y-65200000D03*
%TD*%
%TO.C,REF\u002A\u002A*%
X66425000Y-42000000D03*
%TD*%
%TO.C,REF\u002A\u002A*%
X25050000Y-104800000D03*
%TD*%
%TO.C,REF\u002A\u002A*%
X69250000Y-104800000D03*
%TD*%
%TO.C,REF\u002A\u002A*%
X20025000Y-65200000D03*
%TD*%
%TO.C,REF\u002A\u002A*%
X81100000Y-45000000D03*
%TD*%
%TO.C,REF\u002A\u002A*%
X86325000Y-62800000D03*
%TD*%
%TO.C,REF\u002A\u002A*%
X43125000Y-23200000D03*
%TD*%
%TO.C,REF\u002A\u002A*%
X64025000Y-42000000D03*
%TD*%
%TO.C,REF\u002A\u002A*%
X59200000Y-62800000D03*
%TD*%
%TO.C,REF\u002A\u002A*%
X75275000Y-104800000D03*
%TD*%
%TO.C,REF\u002A\u002A*%
X58200000Y-104800000D03*
%TD*%
%TO.C,REF\u002A\u002A*%
X40125000Y-23200000D03*
%TD*%
%TO.C,REF\u002A\u002A*%
X61200000Y-62800000D03*
%TD*%
%TO.C,REF\u002A\u002A*%
X89325000Y-65200000D03*
%TD*%
%TO.C,REF\u002A\u002A*%
X58200000Y-23200000D03*
%TD*%
%TO.C,REF\u002A\u002A*%
X93350000Y-62800000D03*
%TD*%
%TO.C,REF\u002A\u002A*%
X36100000Y-104800000D03*
%TD*%
%TO.C,REF\u002A\u002A*%
X66425000Y-44000000D03*
%TD*%
%TO.C,REF\u002A\u002A*%
X43125000Y-62800000D03*
%TD*%
%TO.C,REF\u002A\u002A*%
X32275000Y-43000000D03*
%TD*%
%TO.C,REF\u002A\u002A*%
X25050000Y-65200000D03*
%TD*%
%TO.C,REF\u002A\u002A*%
X71250000Y-65200000D03*
%TD*%
%TO.C,REF\u002A\u002A*%
X72250000Y-65200000D03*
%TD*%
%TO.C,REF\u002A\u002A*%
X55175000Y-65200000D03*
%TD*%
%TO.C,REF\u002A\u002A*%
X91350000Y-62800000D03*
%TD*%
%TO.C,REF\u002A\u002A*%
X70250000Y-62800000D03*
%TD*%
%TO.C,REF\u002A\u002A*%
X37100000Y-65200000D03*
%TD*%
%TO.C,REF\u002A\u002A*%
X78275000Y-62800000D03*
%TD*%
%TO.C,REF\u002A\u002A*%
X73250000Y-104800000D03*
%TD*%
%TO.C,REF\u002A\u002A*%
X41125000Y-23200000D03*
%TD*%
%TO.C,REF\u002A\u002A*%
X94350000Y-65200000D03*
%TD*%
%TO.C,REF\u002A\u002A*%
X75275000Y-65200000D03*
%TD*%
%TO.C,REF\u002A\u002A*%
X55175000Y-23200000D03*
%TD*%
%TO.C,REF\u002A\u002A*%
X92350000Y-23200000D03*
%TD*%
%TO.C,REF\u002A\u002A*%
X69250000Y-65200000D03*
%TD*%
%TO.C,REF\u002A\u002A*%
X40125000Y-104800000D03*
%TD*%
%TO.C,REF\u002A\u002A*%
X32275000Y-87000000D03*
%TD*%
%TO.C,REF\u002A\u002A*%
X86325000Y-65200000D03*
%TD*%
%TO.C,REF\u002A\u002A*%
X46950000Y-87000000D03*
%TD*%
%TO.C,REF\u002A\u002A*%
X49350000Y-44000000D03*
%TD*%
%TO.C,REF\u002A\u002A*%
X56175000Y-104800000D03*
%TD*%
%TO.C,REF\u002A\u002A*%
X95350000Y-23200000D03*
%TD*%
%TO.C,REF\u002A\u002A*%
X38100000Y-62800000D03*
%TD*%
%TO.C,REF\u002A\u002A*%
X74275000Y-65200000D03*
%TD*%
%TO.C,REF\u002A\u002A*%
X70250000Y-23200000D03*
%TD*%
%TO.C,REF\u002A\u002A*%
X87325000Y-23200000D03*
%TD*%
%TO.C,REF\u002A\u002A*%
X44125000Y-104800000D03*
%TD*%
%TO.C,REF\u002A\u002A*%
X46950000Y-85000000D03*
%TD*%
%TO.C,REF\u002A\u002A*%
X66425000Y-41000000D03*
%TD*%
%TO.C,REF\u002A\u002A*%
X46950000Y-43000000D03*
%TD*%
%TO.C,REF\u002A\u002A*%
X71250000Y-23200000D03*
%TD*%
%TO.C,REF\u002A\u002A*%
X19025000Y-62800000D03*
%TD*%
%TO.C,REF\u002A\u002A*%
X71250000Y-62800000D03*
%TD*%
%TO.C,REF\u002A\u002A*%
X18025000Y-23200000D03*
%TD*%
%TO.C,REF\u002A\u002A*%
X22025000Y-62800000D03*
%TD*%
%TO.C,REF\u002A\u002A*%
X37100000Y-104800000D03*
%TD*%
%TO.C,REF\u002A\u002A*%
X20025000Y-23200000D03*
%TD*%
%TO.C,REF\u002A\u002A*%
X83500000Y-87000000D03*
%TD*%
%TO.C,REF\u002A\u002A*%
X94350000Y-23200000D03*
%TD*%
%TO.C,REF\u002A\u002A*%
X58200000Y-65200000D03*
%TD*%
%TO.C,REF\u002A\u002A*%
X21025000Y-65200000D03*
%TD*%
%TO.C,REF\u002A\u002A*%
X53175000Y-104800000D03*
%TD*%
%TO.C,REF\u002A\u002A*%
X38100000Y-65200000D03*
%TD*%
%TO.C,REF\u002A\u002A*%
X22025000Y-104800000D03*
%TD*%
%TO.C,REF\u002A\u002A*%
X90325000Y-23200000D03*
%TD*%
%TO.C,REF\u002A\u002A*%
X74275000Y-23200000D03*
%TD*%
%TO.C,REF\u002A\u002A*%
X94350000Y-104800000D03*
%TD*%
%TO.C,REF\u002A\u002A*%
X46950000Y-42000000D03*
%TD*%
%TO.C,REF\u002A\u002A*%
X21025000Y-23200000D03*
%TD*%
%TO.C,REF\u002A\u002A*%
X46950000Y-45000000D03*
%TD*%
%TO.C,REF\u002A\u002A*%
X43125000Y-65200000D03*
%TD*%
%TO.C,REF\u002A\u002A*%
X26050000Y-65200000D03*
%TD*%
%TO.C,REF\u002A\u002A*%
X66425000Y-86000000D03*
%TD*%
%TO.C,REF\u002A\u002A*%
X66425000Y-45000000D03*
%TD*%
%TO.C,REF\u002A\u002A*%
X59200000Y-65200000D03*
%TD*%
%TO.C,REF\u002A\u002A*%
X76275000Y-23200000D03*
%TD*%
%TO.C,REF\u002A\u002A*%
X72250000Y-62800000D03*
%TD*%
%TO.C,REF\u002A\u002A*%
X20025000Y-62800000D03*
%TD*%
%TO.C,REF\u002A\u002A*%
X87325000Y-62800000D03*
%TD*%
%TO.C,REF\u002A\u002A*%
X54175000Y-104800000D03*
%TD*%
%TO.C,REF\u002A\u002A*%
X76275000Y-104800000D03*
%TD*%
%TO.C,REF\u002A\u002A*%
X81100000Y-44000000D03*
%TD*%
%TO.C,REF\u002A\u002A*%
X25050000Y-23200000D03*
%TD*%
%TO.C,REF\u002A\u002A*%
X54175000Y-23200000D03*
%TD*%
%TO.C,REF\u002A\u002A*%
X92350000Y-62800000D03*
%TD*%
%TO.C,REF\u002A\u002A*%
X22025000Y-65200000D03*
%TD*%
%TO.C,REF\u002A\u002A*%
X57200000Y-65200000D03*
%TD*%
D15*
%TO.C,J1*%
X34070000Y-68835000D03*
D16*
X34070000Y-70835000D03*
X34070000Y-72835000D03*
X34070000Y-74835000D03*
X34070000Y-76835000D03*
X34070000Y-78835000D03*
X34070000Y-80835000D03*
X34070000Y-82835000D03*
X34070000Y-84835000D03*
X34070000Y-86835000D03*
X34070000Y-88835000D03*
X34070000Y-90835000D03*
X34070000Y-92835000D03*
X34070000Y-94835000D03*
X34070000Y-96835000D03*
X34070000Y-98835000D03*
X34070000Y-100835000D03*
%TD*%
D14*
%TO.C,REF\u002A\u002A*%
X49350000Y-42000000D03*
%TD*%
%TO.C,REF\u002A\u002A*%
X88325000Y-65200000D03*
%TD*%
%TO.C,REF\u002A\u002A*%
X29875000Y-84000000D03*
%TD*%
%TO.C,REF\u002A\u002A*%
X81100000Y-84000000D03*
%TD*%
%TO.C,REF\u002A\u002A*%
X29875000Y-43000000D03*
%TD*%
%TO.C,REF\u002A\u002A*%
X64025000Y-44000000D03*
%TD*%
%TO.C,REF\u002A\u002A*%
X89325000Y-104800000D03*
%TD*%
%TO.C,REF\u002A\u002A*%
X24050000Y-65200000D03*
%TD*%
%TO.C,REF\u002A\u002A*%
X66425000Y-84000000D03*
%TD*%
D17*
%TO.C,J2*%
X71080000Y-68835000D03*
D18*
X71080000Y-70835000D03*
X71080000Y-72835000D03*
X71080000Y-74835000D03*
X71080000Y-76835000D03*
X71080000Y-78835000D03*
X71080000Y-80835000D03*
X71080000Y-82835000D03*
X71080000Y-84835000D03*
X71080000Y-86835000D03*
X71080000Y-88835000D03*
X71080000Y-90835000D03*
X71080000Y-92835000D03*
X71080000Y-94835000D03*
X71080000Y-96835000D03*
X71080000Y-98835000D03*
X71080000Y-100835000D03*
%TD*%
D17*
%TO.C,J2*%
X88155000Y-68835000D03*
D18*
X88155000Y-70835000D03*
X88155000Y-72835000D03*
X88155000Y-74835000D03*
X88155000Y-76835000D03*
X88155000Y-78835000D03*
X88155000Y-80835000D03*
X88155000Y-82835000D03*
X88155000Y-84835000D03*
X88155000Y-86835000D03*
X88155000Y-88835000D03*
X88155000Y-90835000D03*
X88155000Y-92835000D03*
X88155000Y-94835000D03*
X88155000Y-96835000D03*
X88155000Y-98835000D03*
X88155000Y-100835000D03*
%TD*%
D17*
%TO.C,J2*%
X36930000Y-26835000D03*
D18*
X36930000Y-28835000D03*
X36930000Y-30835000D03*
X36930000Y-32835000D03*
X36930000Y-34835000D03*
X36930000Y-36835000D03*
X36930000Y-38835000D03*
X36930000Y-40835000D03*
X36930000Y-42835000D03*
X36930000Y-44835000D03*
X36930000Y-46835000D03*
X36930000Y-48835000D03*
X36930000Y-50835000D03*
X36930000Y-52835000D03*
X36930000Y-54835000D03*
X36930000Y-56835000D03*
X36930000Y-58835000D03*
%TD*%
D19*
%TO.C,J3*%
X27815000Y-93825000D03*
D20*
X27815000Y-91825000D03*
X27815000Y-89825000D03*
X27815000Y-87825000D03*
X27815000Y-85825000D03*
X27815000Y-83825000D03*
X27815000Y-81825000D03*
X27815000Y-79825000D03*
X27815000Y-77825000D03*
X27815000Y-75825000D03*
%TD*%
D19*
%TO.C,J3*%
X79040000Y-93825000D03*
D20*
X79040000Y-91825000D03*
X79040000Y-89825000D03*
X79040000Y-87825000D03*
X79040000Y-85825000D03*
X79040000Y-83825000D03*
X79040000Y-81825000D03*
X79040000Y-79825000D03*
X79040000Y-77825000D03*
X79040000Y-75825000D03*
%TD*%
D19*
%TO.C,J3*%
X44890000Y-51825000D03*
D20*
X44890000Y-49825000D03*
X44890000Y-47825000D03*
X44890000Y-45825000D03*
X44890000Y-43825000D03*
X44890000Y-41825000D03*
X44890000Y-39825000D03*
X44890000Y-37825000D03*
X44890000Y-35825000D03*
X44890000Y-33825000D03*
%TD*%
D19*
%TO.C,J3*%
X61965000Y-93825000D03*
D20*
X61965000Y-91825000D03*
X61965000Y-89825000D03*
X61965000Y-87825000D03*
X61965000Y-85825000D03*
X61965000Y-83825000D03*
X61965000Y-81825000D03*
X61965000Y-79825000D03*
X61965000Y-77825000D03*
X61965000Y-75825000D03*
%TD*%
D17*
%TO.C,J2*%
X71080000Y-26835000D03*
D18*
X71080000Y-28835000D03*
X71080000Y-30835000D03*
X71080000Y-32835000D03*
X71080000Y-34835000D03*
X71080000Y-36835000D03*
X71080000Y-38835000D03*
X71080000Y-40835000D03*
X71080000Y-42835000D03*
X71080000Y-44835000D03*
X71080000Y-46835000D03*
X71080000Y-48835000D03*
X71080000Y-50835000D03*
X71080000Y-52835000D03*
X71080000Y-54835000D03*
X71080000Y-56835000D03*
X71080000Y-58835000D03*
%TD*%
D17*
%TO.C,J2*%
X54005000Y-26835000D03*
D18*
X54005000Y-28835000D03*
X54005000Y-30835000D03*
X54005000Y-32835000D03*
X54005000Y-34835000D03*
X54005000Y-36835000D03*
X54005000Y-38835000D03*
X54005000Y-40835000D03*
X54005000Y-42835000D03*
X54005000Y-44835000D03*
X54005000Y-46835000D03*
X54005000Y-48835000D03*
X54005000Y-50835000D03*
X54005000Y-52835000D03*
X54005000Y-54835000D03*
X54005000Y-56835000D03*
X54005000Y-58835000D03*
%TD*%
D19*
%TO.C,J3*%
X61965000Y-51825000D03*
D20*
X61965000Y-49825000D03*
X61965000Y-47825000D03*
X61965000Y-45825000D03*
X61965000Y-43825000D03*
X61965000Y-41825000D03*
X61965000Y-39825000D03*
X61965000Y-37825000D03*
X61965000Y-35825000D03*
X61965000Y-33825000D03*
%TD*%
D19*
%TO.C,J3*%
X44890000Y-93825000D03*
D20*
X44890000Y-91825000D03*
X44890000Y-89825000D03*
X44890000Y-87825000D03*
X44890000Y-85825000D03*
X44890000Y-83825000D03*
X44890000Y-81825000D03*
X44890000Y-79825000D03*
X44890000Y-77825000D03*
X44890000Y-75825000D03*
%TD*%
D19*
%TO.C,J3*%
X27815000Y-51825000D03*
D20*
X27815000Y-49825000D03*
X27815000Y-47825000D03*
X27815000Y-45825000D03*
X27815000Y-43825000D03*
X27815000Y-41825000D03*
X27815000Y-39825000D03*
X27815000Y-37825000D03*
X27815000Y-35825000D03*
X27815000Y-33825000D03*
%TD*%
D19*
%TO.C,J3*%
X96115000Y-93825000D03*
D20*
X96115000Y-91825000D03*
X96115000Y-89825000D03*
X96115000Y-87825000D03*
X96115000Y-85825000D03*
X96115000Y-83825000D03*
X96115000Y-81825000D03*
X96115000Y-79825000D03*
X96115000Y-77825000D03*
X96115000Y-75825000D03*
%TD*%
D19*
%TO.C,J3*%
X96115000Y-51825000D03*
D20*
X96115000Y-49825000D03*
X96115000Y-47825000D03*
X96115000Y-45825000D03*
X96115000Y-43825000D03*
X96115000Y-41825000D03*
X96115000Y-39825000D03*
X96115000Y-37825000D03*
X96115000Y-35825000D03*
X96115000Y-33825000D03*
%TD*%
D17*
%TO.C,J2*%
X19855000Y-68835000D03*
D18*
X19855000Y-70835000D03*
X19855000Y-72835000D03*
X19855000Y-74835000D03*
X19855000Y-76835000D03*
X19855000Y-78835000D03*
X19855000Y-80835000D03*
X19855000Y-82835000D03*
X19855000Y-84835000D03*
X19855000Y-86835000D03*
X19855000Y-88835000D03*
X19855000Y-90835000D03*
X19855000Y-92835000D03*
X19855000Y-94835000D03*
X19855000Y-96835000D03*
X19855000Y-98835000D03*
X19855000Y-100835000D03*
%TD*%
D19*
%TO.C,J3*%
X79040000Y-51825000D03*
D20*
X79040000Y-49825000D03*
X79040000Y-47825000D03*
X79040000Y-45825000D03*
X79040000Y-43825000D03*
X79040000Y-41825000D03*
X79040000Y-39825000D03*
X79040000Y-37825000D03*
X79040000Y-35825000D03*
X79040000Y-33825000D03*
%TD*%
D17*
%TO.C,J2*%
X36930000Y-68835000D03*
D18*
X36930000Y-70835000D03*
X36930000Y-72835000D03*
X36930000Y-74835000D03*
X36930000Y-76835000D03*
X36930000Y-78835000D03*
X36930000Y-80835000D03*
X36930000Y-82835000D03*
X36930000Y-84835000D03*
X36930000Y-86835000D03*
X36930000Y-88835000D03*
X36930000Y-90835000D03*
X36930000Y-92835000D03*
X36930000Y-94835000D03*
X36930000Y-96835000D03*
X36930000Y-98835000D03*
X36930000Y-100835000D03*
%TD*%
D17*
%TO.C,J2*%
X54005000Y-68835000D03*
D18*
X54005000Y-70835000D03*
X54005000Y-72835000D03*
X54005000Y-74835000D03*
X54005000Y-76835000D03*
X54005000Y-78835000D03*
X54005000Y-80835000D03*
X54005000Y-82835000D03*
X54005000Y-84835000D03*
X54005000Y-86835000D03*
X54005000Y-88835000D03*
X54005000Y-90835000D03*
X54005000Y-92835000D03*
X54005000Y-94835000D03*
X54005000Y-96835000D03*
X54005000Y-98835000D03*
X54005000Y-100835000D03*
%TD*%
D17*
%TO.C,J2*%
X19855000Y-26835000D03*
D18*
X19855000Y-28835000D03*
X19855000Y-30835000D03*
X19855000Y-32835000D03*
X19855000Y-34835000D03*
X19855000Y-36835000D03*
X19855000Y-38835000D03*
X19855000Y-40835000D03*
X19855000Y-42835000D03*
X19855000Y-44835000D03*
X19855000Y-46835000D03*
X19855000Y-48835000D03*
X19855000Y-50835000D03*
X19855000Y-52835000D03*
X19855000Y-54835000D03*
X19855000Y-56835000D03*
X19855000Y-58835000D03*
%TD*%
D17*
%TO.C,J2*%
X88155000Y-26835000D03*
D18*
X88155000Y-28835000D03*
X88155000Y-30835000D03*
X88155000Y-32835000D03*
X88155000Y-34835000D03*
X88155000Y-36835000D03*
X88155000Y-38835000D03*
X88155000Y-40835000D03*
X88155000Y-42835000D03*
X88155000Y-44835000D03*
X88155000Y-46835000D03*
X88155000Y-48835000D03*
X88155000Y-50835000D03*
X88155000Y-52835000D03*
X88155000Y-54835000D03*
X88155000Y-56835000D03*
X88155000Y-58835000D03*
%TD*%
D21*
X22220200Y-43903600D03*
X21763000Y-36664600D03*
X29095000Y-31315000D03*
X27065000Y-30525000D03*
X22035000Y-32395000D03*
X23395000Y-32885000D03*
X25075000Y-32945000D03*
X39295200Y-43903600D03*
X38838000Y-36664600D03*
X42150000Y-32945000D03*
X44140000Y-30525000D03*
X39110000Y-32395000D03*
X46170000Y-31315000D03*
X40470000Y-32885000D03*
X56370200Y-43903600D03*
X55913000Y-36664600D03*
X56185000Y-32395000D03*
X61215000Y-30525000D03*
X59225000Y-32945000D03*
X57545000Y-32885000D03*
X63245000Y-31315000D03*
X73445200Y-43903600D03*
X72988000Y-36664600D03*
X80320000Y-31315000D03*
X74620000Y-32885000D03*
X78290000Y-30525000D03*
X76300000Y-32945000D03*
X73260000Y-32395000D03*
X90520200Y-43903600D03*
X90063000Y-36664600D03*
X90335000Y-32395000D03*
X97395000Y-31315000D03*
X95365000Y-30525000D03*
X91695000Y-32885000D03*
X93375000Y-32945000D03*
X22220200Y-85903600D03*
X21763000Y-78664600D03*
X22035000Y-74395000D03*
X29095000Y-73315000D03*
X25075000Y-74945000D03*
X23395000Y-74885000D03*
X27065000Y-72525000D03*
X39295200Y-85903600D03*
X38838000Y-78664600D03*
X42150000Y-74945000D03*
X46170000Y-73315000D03*
X40470000Y-74885000D03*
X39110000Y-74395000D03*
X44140000Y-72525000D03*
X56370200Y-85903600D03*
X55913000Y-78664600D03*
X61215000Y-72525000D03*
X59225000Y-74945000D03*
X57545000Y-74885000D03*
X63245000Y-73315000D03*
X56185000Y-74395000D03*
X73445200Y-85903600D03*
X72988000Y-78664600D03*
X78290000Y-72525000D03*
X80320000Y-73315000D03*
X76300000Y-74945000D03*
X74620000Y-74885000D03*
X73260000Y-74395000D03*
X90520200Y-85903600D03*
X90063000Y-78664600D03*
X90335000Y-74395000D03*
X95365000Y-72525000D03*
X91695000Y-74885000D03*
X93375000Y-74945000D03*
X97395000Y-73315000D03*
M02*
