%TF.GenerationSoftware,KiCad,Pcbnew,(6.0.1)*%
%TF.CreationDate,2022-07-06T22:16:32-07:00*%
%TF.ProjectId,mu100-dit-connector-board-panelized,6d753130-302d-4646-9974-2d636f6e6e65,rev?*%
%TF.SameCoordinates,Original*%
%TF.FileFunction,Other,Comment*%
%FSLAX46Y46*%
G04 Gerber Fmt 4.6, Leading zero omitted, Abs format (unit mm)*
G04 Created by KiCad (PCBNEW (6.0.1)) date 2022-07-06 22:16:32*
%MOMM*%
%LPD*%
G01*
G04 APERTURE LIST*
%ADD10C,0.100000*%
%ADD11C,0.150000*%
G04 APERTURE END LIST*
D10*
X85820000Y-83625000D02*
X84822500Y-83625000D01*
X84822500Y-83625000D02*
X84822500Y-82025000D01*
X84822500Y-82025000D02*
X85820000Y-82025000D01*
X85820000Y-82025000D02*
X85820000Y-83625000D01*
X68745000Y-83625000D02*
X67747500Y-83625000D01*
X67747500Y-83625000D02*
X67747500Y-82025000D01*
X67747500Y-82025000D02*
X68745000Y-82025000D01*
X68745000Y-82025000D02*
X68745000Y-83625000D01*
X85822500Y-81625000D02*
X84825000Y-81625000D01*
X84825000Y-81625000D02*
X84825000Y-80025000D01*
X84825000Y-80025000D02*
X85822500Y-80025000D01*
X85822500Y-80025000D02*
X85822500Y-81625000D01*
X68750000Y-37625000D02*
X67752500Y-37625000D01*
X67752500Y-37625000D02*
X67752500Y-36025000D01*
X67752500Y-36025000D02*
X68750000Y-36025000D01*
X68750000Y-36025000D02*
X68750000Y-37625000D01*
X17522500Y-29625000D02*
X16525000Y-29625000D01*
X16525000Y-29625000D02*
X16525000Y-28025000D01*
X16525000Y-28025000D02*
X17522500Y-28025000D01*
X17522500Y-28025000D02*
X17522500Y-29625000D01*
X17525000Y-33625000D02*
X16527500Y-33625000D01*
X16527500Y-33625000D02*
X16527500Y-32025000D01*
X16527500Y-32025000D02*
X17525000Y-32025000D01*
X17525000Y-32025000D02*
X17525000Y-33625000D01*
X34597500Y-53625000D02*
X33600000Y-53625000D01*
X33600000Y-53625000D02*
X33600000Y-52025000D01*
X33600000Y-52025000D02*
X34597500Y-52025000D01*
X34597500Y-52025000D02*
X34597500Y-53625000D01*
X51670000Y-41625000D02*
X50672500Y-41625000D01*
X50672500Y-41625000D02*
X50672500Y-40025000D01*
X50672500Y-40025000D02*
X51670000Y-40025000D01*
X51670000Y-40025000D02*
X51670000Y-41625000D01*
X34595000Y-35625000D02*
X33597500Y-35625000D01*
X33597500Y-35625000D02*
X33597500Y-34025000D01*
X33597500Y-34025000D02*
X34595000Y-34025000D01*
X34595000Y-34025000D02*
X34595000Y-35625000D01*
X85827500Y-31625000D02*
X84830000Y-31625000D01*
X84830000Y-31625000D02*
X84830000Y-30025000D01*
X84830000Y-30025000D02*
X85827500Y-30025000D01*
X85827500Y-30025000D02*
X85827500Y-31625000D01*
X51672500Y-29625000D02*
X50675000Y-29625000D01*
X50675000Y-29625000D02*
X50675000Y-28025000D01*
X50675000Y-28025000D02*
X51672500Y-28025000D01*
X51672500Y-28025000D02*
X51672500Y-29625000D01*
X17522500Y-95625000D02*
X16525000Y-95625000D01*
X16525000Y-95625000D02*
X16525000Y-94025000D01*
X16525000Y-94025000D02*
X17522500Y-94025000D01*
X17522500Y-94025000D02*
X17522500Y-95625000D01*
X51675000Y-37625000D02*
X50677500Y-37625000D01*
X50677500Y-37625000D02*
X50677500Y-36025000D01*
X50677500Y-36025000D02*
X51675000Y-36025000D01*
X51675000Y-36025000D02*
X51675000Y-37625000D01*
X17520000Y-83625000D02*
X16522500Y-83625000D01*
X16522500Y-83625000D02*
X16522500Y-82025000D01*
X16522500Y-82025000D02*
X17520000Y-82025000D01*
X17520000Y-82025000D02*
X17520000Y-83625000D01*
X34595000Y-41625000D02*
X33597500Y-41625000D01*
X33597500Y-41625000D02*
X33597500Y-40025000D01*
X33597500Y-40025000D02*
X34595000Y-40025000D01*
X34595000Y-40025000D02*
X34595000Y-41625000D01*
X34602500Y-93625000D02*
X33605000Y-93625000D01*
X33605000Y-93625000D02*
X33605000Y-92025000D01*
X33605000Y-92025000D02*
X34602500Y-92025000D01*
X34602500Y-92025000D02*
X34602500Y-93625000D01*
X85820000Y-77625000D02*
X84822500Y-77625000D01*
X84822500Y-77625000D02*
X84822500Y-76025000D01*
X84822500Y-76025000D02*
X85820000Y-76025000D01*
X85820000Y-76025000D02*
X85820000Y-77625000D01*
X51675000Y-33625000D02*
X50677500Y-33625000D01*
X50677500Y-33625000D02*
X50677500Y-32025000D01*
X50677500Y-32025000D02*
X51675000Y-32025000D01*
X51675000Y-32025000D02*
X51675000Y-33625000D01*
X34600000Y-69625000D02*
X33602500Y-69625000D01*
X33602500Y-69625000D02*
X33602500Y-68025000D01*
X33602500Y-68025000D02*
X34600000Y-68025000D01*
X34600000Y-68025000D02*
X34600000Y-69625000D01*
X34600000Y-37625000D02*
X33602500Y-37625000D01*
X33602500Y-37625000D02*
X33602500Y-36025000D01*
X33602500Y-36025000D02*
X34600000Y-36025000D01*
X34600000Y-36025000D02*
X34600000Y-37625000D01*
X17525000Y-37625000D02*
X16527500Y-37625000D01*
X16527500Y-37625000D02*
X16527500Y-36025000D01*
X16527500Y-36025000D02*
X17525000Y-36025000D01*
X17525000Y-36025000D02*
X17525000Y-37625000D01*
X51675000Y-69625000D02*
X50677500Y-69625000D01*
X50677500Y-69625000D02*
X50677500Y-68025000D01*
X50677500Y-68025000D02*
X51675000Y-68025000D01*
X51675000Y-68025000D02*
X51675000Y-69625000D01*
D11*
X31980000Y-22535000D02*
X31980000Y-23145000D01*
D10*
X51672500Y-87625000D02*
X50675000Y-87625000D01*
X50675000Y-87625000D02*
X50675000Y-86025000D01*
X50675000Y-86025000D02*
X51672500Y-86025000D01*
X51672500Y-86025000D02*
X51672500Y-87625000D01*
X68752500Y-51625000D02*
X67755000Y-51625000D01*
X67755000Y-51625000D02*
X67755000Y-50025000D01*
X67755000Y-50025000D02*
X68752500Y-50025000D01*
X68752500Y-50025000D02*
X68752500Y-51625000D01*
X34600000Y-85625000D02*
X33602500Y-85625000D01*
X33602500Y-85625000D02*
X33602500Y-84025000D01*
X33602500Y-84025000D02*
X34600000Y-84025000D01*
X34600000Y-84025000D02*
X34600000Y-85625000D01*
X51672500Y-75625000D02*
X50675000Y-75625000D01*
X50675000Y-75625000D02*
X50675000Y-74025000D01*
X50675000Y-74025000D02*
X51672500Y-74025000D01*
X51672500Y-74025000D02*
X51672500Y-75625000D01*
X85827500Y-73625000D02*
X84830000Y-73625000D01*
X84830000Y-73625000D02*
X84830000Y-72025000D01*
X84830000Y-72025000D02*
X85827500Y-72025000D01*
X85827500Y-72025000D02*
X85827500Y-73625000D01*
X68747500Y-81625000D02*
X67750000Y-81625000D01*
X67750000Y-81625000D02*
X67750000Y-80025000D01*
X67750000Y-80025000D02*
X68747500Y-80025000D01*
X68747500Y-80025000D02*
X68747500Y-81625000D01*
X34597500Y-75625000D02*
X33600000Y-75625000D01*
X33600000Y-75625000D02*
X33600000Y-74025000D01*
X33600000Y-74025000D02*
X34597500Y-74025000D01*
X34597500Y-74025000D02*
X34597500Y-75625000D01*
X68752500Y-73625000D02*
X67755000Y-73625000D01*
X67755000Y-73625000D02*
X67755000Y-72025000D01*
X67755000Y-72025000D02*
X68752500Y-72025000D01*
X68752500Y-72025000D02*
X68752500Y-73625000D01*
X34597500Y-81625000D02*
X33600000Y-81625000D01*
X33600000Y-81625000D02*
X33600000Y-80025000D01*
X33600000Y-80025000D02*
X34597500Y-80025000D01*
X34597500Y-80025000D02*
X34597500Y-81625000D01*
X51675000Y-79625000D02*
X50677500Y-79625000D01*
X50677500Y-79625000D02*
X50677500Y-78025000D01*
X50677500Y-78025000D02*
X51675000Y-78025000D01*
X51675000Y-78025000D02*
X51675000Y-79625000D01*
X68745000Y-77625000D02*
X67747500Y-77625000D01*
X67747500Y-77625000D02*
X67747500Y-76025000D01*
X67747500Y-76025000D02*
X68745000Y-76025000D01*
X68745000Y-76025000D02*
X68745000Y-77625000D01*
X34602500Y-73625000D02*
X33605000Y-73625000D01*
X33605000Y-73625000D02*
X33605000Y-72025000D01*
X33605000Y-72025000D02*
X34602500Y-72025000D01*
X34602500Y-72025000D02*
X34602500Y-73625000D01*
X85830000Y-49625000D02*
X84832500Y-49625000D01*
X84832500Y-49625000D02*
X84832500Y-48025000D01*
X84832500Y-48025000D02*
X85830000Y-48025000D01*
X85830000Y-48025000D02*
X85830000Y-49625000D01*
X85822500Y-33625000D02*
X84825000Y-33625000D01*
X84825000Y-33625000D02*
X84825000Y-32025000D01*
X84825000Y-32025000D02*
X85822500Y-32025000D01*
X85822500Y-32025000D02*
X85822500Y-33625000D01*
X17520000Y-77625000D02*
X16522500Y-77625000D01*
X16522500Y-77625000D02*
X16522500Y-76025000D01*
X16522500Y-76025000D02*
X17520000Y-76025000D01*
X17520000Y-76025000D02*
X17520000Y-77625000D01*
X17525000Y-43625000D02*
X16527500Y-43625000D01*
X16527500Y-43625000D02*
X16527500Y-42025000D01*
X16527500Y-42025000D02*
X17525000Y-42025000D01*
X17525000Y-42025000D02*
X17525000Y-43625000D01*
X85825000Y-85625000D02*
X84827500Y-85625000D01*
X84827500Y-85625000D02*
X84827500Y-84025000D01*
X84827500Y-84025000D02*
X85825000Y-84025000D01*
X85825000Y-84025000D02*
X85825000Y-85625000D01*
X17522500Y-71625000D02*
X16525000Y-71625000D01*
X16525000Y-71625000D02*
X16525000Y-70025000D01*
X16525000Y-70025000D02*
X17522500Y-70025000D01*
X17522500Y-70025000D02*
X17522500Y-71625000D01*
X51670000Y-77625000D02*
X50672500Y-77625000D01*
X50672500Y-77625000D02*
X50672500Y-76025000D01*
X50672500Y-76025000D02*
X51670000Y-76025000D01*
X51670000Y-76025000D02*
X51670000Y-77625000D01*
X34602500Y-51625000D02*
X33605000Y-51625000D01*
X33605000Y-51625000D02*
X33605000Y-50025000D01*
X33605000Y-50025000D02*
X34602500Y-50025000D01*
X34602500Y-50025000D02*
X34602500Y-51625000D01*
X68750000Y-85625000D02*
X67752500Y-85625000D01*
X67752500Y-85625000D02*
X67752500Y-84025000D01*
X67752500Y-84025000D02*
X68750000Y-84025000D01*
X68750000Y-84025000D02*
X68750000Y-85625000D01*
X85822500Y-29625000D02*
X84825000Y-29625000D01*
X84825000Y-29625000D02*
X84825000Y-28025000D01*
X84825000Y-28025000D02*
X85822500Y-28025000D01*
X85822500Y-28025000D02*
X85822500Y-29625000D01*
X68747500Y-75625000D02*
X67750000Y-75625000D01*
X67750000Y-75625000D02*
X67750000Y-74025000D01*
X67750000Y-74025000D02*
X68747500Y-74025000D01*
X68747500Y-74025000D02*
X68747500Y-75625000D01*
X34602500Y-87625000D02*
X33605000Y-87625000D01*
X33605000Y-87625000D02*
X33605000Y-86025000D01*
X33605000Y-86025000D02*
X34602500Y-86025000D01*
X34602500Y-86025000D02*
X34602500Y-87625000D01*
X85822500Y-53625000D02*
X84825000Y-53625000D01*
X84825000Y-53625000D02*
X84825000Y-52025000D01*
X84825000Y-52025000D02*
X85822500Y-52025000D01*
X85822500Y-52025000D02*
X85822500Y-53625000D01*
X85822500Y-39625000D02*
X84825000Y-39625000D01*
X84825000Y-39625000D02*
X84825000Y-38025000D01*
X84825000Y-38025000D02*
X85822500Y-38025000D01*
X85822500Y-38025000D02*
X85822500Y-39625000D01*
X34600000Y-75625000D02*
X33602500Y-75625000D01*
X33602500Y-75625000D02*
X33602500Y-74025000D01*
X33602500Y-74025000D02*
X34600000Y-74025000D01*
X34600000Y-74025000D02*
X34600000Y-75625000D01*
X34600000Y-33625000D02*
X33602500Y-33625000D01*
X33602500Y-33625000D02*
X33602500Y-32025000D01*
X33602500Y-32025000D02*
X34600000Y-32025000D01*
X34600000Y-32025000D02*
X34600000Y-33625000D01*
X34597500Y-29625000D02*
X33600000Y-29625000D01*
X33600000Y-29625000D02*
X33600000Y-28025000D01*
X33600000Y-28025000D02*
X34597500Y-28025000D01*
X34597500Y-28025000D02*
X34597500Y-29625000D01*
X17522500Y-75625000D02*
X16525000Y-75625000D01*
X16525000Y-75625000D02*
X16525000Y-74025000D01*
X16525000Y-74025000D02*
X17522500Y-74025000D01*
X17522500Y-74025000D02*
X17522500Y-75625000D01*
X17520000Y-41625000D02*
X16522500Y-41625000D01*
X16522500Y-41625000D02*
X16522500Y-40025000D01*
X16522500Y-40025000D02*
X17520000Y-40025000D01*
X17520000Y-40025000D02*
X17520000Y-41625000D01*
X17522500Y-39625000D02*
X16525000Y-39625000D01*
X16525000Y-39625000D02*
X16525000Y-38025000D01*
X16525000Y-38025000D02*
X17522500Y-38025000D01*
X17522500Y-38025000D02*
X17522500Y-39625000D01*
X68755000Y-91625000D02*
X67757500Y-91625000D01*
X67757500Y-91625000D02*
X67757500Y-90025000D01*
X67757500Y-90025000D02*
X68755000Y-90025000D01*
X68755000Y-90025000D02*
X68755000Y-91625000D01*
X17522500Y-81625000D02*
X16525000Y-81625000D01*
X16525000Y-81625000D02*
X16525000Y-80025000D01*
X16525000Y-80025000D02*
X17522500Y-80025000D01*
X17522500Y-80025000D02*
X17522500Y-81625000D01*
X85827500Y-87625000D02*
X84830000Y-87625000D01*
X84830000Y-87625000D02*
X84830000Y-86025000D01*
X84830000Y-86025000D02*
X85827500Y-86025000D01*
X85827500Y-86025000D02*
X85827500Y-87625000D01*
X17530000Y-49625000D02*
X16532500Y-49625000D01*
X16532500Y-49625000D02*
X16532500Y-48025000D01*
X16532500Y-48025000D02*
X17530000Y-48025000D01*
X17530000Y-48025000D02*
X17530000Y-49625000D01*
X34597500Y-33625000D02*
X33600000Y-33625000D01*
X33600000Y-33625000D02*
X33600000Y-32025000D01*
X33600000Y-32025000D02*
X34597500Y-32025000D01*
X34597500Y-32025000D02*
X34597500Y-33625000D01*
X17525000Y-69625000D02*
X16527500Y-69625000D01*
X16527500Y-69625000D02*
X16527500Y-68025000D01*
X16527500Y-68025000D02*
X17525000Y-68025000D01*
X17525000Y-68025000D02*
X17525000Y-69625000D01*
X68747500Y-29625000D02*
X67750000Y-29625000D01*
X67750000Y-29625000D02*
X67750000Y-28025000D01*
X67750000Y-28025000D02*
X68747500Y-28025000D01*
X68747500Y-28025000D02*
X68747500Y-29625000D01*
X68747500Y-39625000D02*
X67750000Y-39625000D01*
X67750000Y-39625000D02*
X67750000Y-38025000D01*
X67750000Y-38025000D02*
X68747500Y-38025000D01*
X68747500Y-38025000D02*
X68747500Y-39625000D01*
X34597500Y-71625000D02*
X33600000Y-71625000D01*
X33600000Y-71625000D02*
X33600000Y-70025000D01*
X33600000Y-70025000D02*
X34597500Y-70025000D01*
X34597500Y-70025000D02*
X34597500Y-71625000D01*
X34600000Y-79625000D02*
X33602500Y-79625000D01*
X33602500Y-79625000D02*
X33602500Y-78025000D01*
X33602500Y-78025000D02*
X34600000Y-78025000D01*
X34600000Y-78025000D02*
X34600000Y-79625000D01*
X17522500Y-53625000D02*
X16525000Y-53625000D01*
X16525000Y-53625000D02*
X16525000Y-52025000D01*
X16525000Y-52025000D02*
X17522500Y-52025000D01*
X17522500Y-52025000D02*
X17522500Y-53625000D01*
X85822500Y-45625000D02*
X84825000Y-45625000D01*
X84825000Y-45625000D02*
X84825000Y-44025000D01*
X84825000Y-44025000D02*
X85822500Y-44025000D01*
X85822500Y-44025000D02*
X85822500Y-45625000D01*
X51675000Y-89625000D02*
X50677500Y-89625000D01*
X50677500Y-89625000D02*
X50677500Y-88025000D01*
X50677500Y-88025000D02*
X51675000Y-88025000D01*
X51675000Y-88025000D02*
X51675000Y-89625000D01*
X17530000Y-91625000D02*
X16532500Y-91625000D01*
X16532500Y-91625000D02*
X16532500Y-90025000D01*
X16532500Y-90025000D02*
X17530000Y-90025000D01*
X17530000Y-90025000D02*
X17530000Y-91625000D01*
X85822500Y-75625000D02*
X84825000Y-75625000D01*
X84825000Y-75625000D02*
X84825000Y-74025000D01*
X84825000Y-74025000D02*
X85822500Y-74025000D01*
X85822500Y-74025000D02*
X85822500Y-75625000D01*
X68752500Y-87625000D02*
X67755000Y-87625000D01*
X67755000Y-87625000D02*
X67755000Y-86025000D01*
X67755000Y-86025000D02*
X68752500Y-86025000D01*
X68752500Y-86025000D02*
X68752500Y-87625000D01*
X17525000Y-47625000D02*
X16527500Y-47625000D01*
X16527500Y-47625000D02*
X16527500Y-46025000D01*
X16527500Y-46025000D02*
X17525000Y-46025000D01*
X17525000Y-46025000D02*
X17525000Y-47625000D01*
X34600000Y-43625000D02*
X33602500Y-43625000D01*
X33602500Y-43625000D02*
X33602500Y-42025000D01*
X33602500Y-42025000D02*
X34600000Y-42025000D01*
X34600000Y-42025000D02*
X34600000Y-43625000D01*
X34597500Y-45625000D02*
X33600000Y-45625000D01*
X33600000Y-45625000D02*
X33600000Y-44025000D01*
X33600000Y-44025000D02*
X34597500Y-44025000D01*
X34597500Y-44025000D02*
X34597500Y-45625000D01*
X17522500Y-39625000D02*
X16525000Y-39625000D01*
X16525000Y-39625000D02*
X16525000Y-38025000D01*
X16525000Y-38025000D02*
X17522500Y-38025000D01*
X17522500Y-38025000D02*
X17522500Y-39625000D01*
X17525000Y-85625000D02*
X16527500Y-85625000D01*
X16527500Y-85625000D02*
X16527500Y-84025000D01*
X16527500Y-84025000D02*
X17525000Y-84025000D01*
X17525000Y-84025000D02*
X17525000Y-85625000D01*
X68747500Y-87625000D02*
X67750000Y-87625000D01*
X67750000Y-87625000D02*
X67750000Y-86025000D01*
X67750000Y-86025000D02*
X68747500Y-86025000D01*
X68747500Y-86025000D02*
X68747500Y-87625000D01*
X85825000Y-33625000D02*
X84827500Y-33625000D01*
X84827500Y-33625000D02*
X84827500Y-32025000D01*
X84827500Y-32025000D02*
X85825000Y-32025000D01*
X85825000Y-32025000D02*
X85825000Y-33625000D01*
D11*
X66130000Y-64535000D02*
X66130000Y-65145000D01*
D10*
X34597500Y-87625000D02*
X33600000Y-87625000D01*
X33600000Y-87625000D02*
X33600000Y-86025000D01*
X33600000Y-86025000D02*
X34597500Y-86025000D01*
X34597500Y-86025000D02*
X34597500Y-87625000D01*
X17522500Y-81625000D02*
X16525000Y-81625000D01*
X16525000Y-81625000D02*
X16525000Y-80025000D01*
X16525000Y-80025000D02*
X17522500Y-80025000D01*
X17522500Y-80025000D02*
X17522500Y-81625000D01*
X85822500Y-81625000D02*
X84825000Y-81625000D01*
X84825000Y-81625000D02*
X84825000Y-80025000D01*
X84825000Y-80025000D02*
X85822500Y-80025000D01*
X85822500Y-80025000D02*
X85822500Y-81625000D01*
X85825000Y-47625000D02*
X84827500Y-47625000D01*
X84827500Y-47625000D02*
X84827500Y-46025000D01*
X84827500Y-46025000D02*
X85825000Y-46025000D01*
X85825000Y-46025000D02*
X85825000Y-47625000D01*
X34605000Y-91625000D02*
X33607500Y-91625000D01*
X33607500Y-91625000D02*
X33607500Y-90025000D01*
X33607500Y-90025000D02*
X34605000Y-90025000D01*
X34605000Y-90025000D02*
X34605000Y-91625000D01*
X34602500Y-45625000D02*
X33605000Y-45625000D01*
X33605000Y-45625000D02*
X33605000Y-44025000D01*
X33605000Y-44025000D02*
X34602500Y-44025000D01*
X34602500Y-44025000D02*
X34602500Y-45625000D01*
X85827500Y-51625000D02*
X84830000Y-51625000D01*
X84830000Y-51625000D02*
X84830000Y-50025000D01*
X84830000Y-50025000D02*
X85827500Y-50025000D01*
X85827500Y-50025000D02*
X85827500Y-51625000D01*
X34605000Y-49625000D02*
X33607500Y-49625000D01*
X33607500Y-49625000D02*
X33607500Y-48025000D01*
X33607500Y-48025000D02*
X34605000Y-48025000D01*
X34605000Y-48025000D02*
X34605000Y-49625000D01*
X34600000Y-47625000D02*
X33602500Y-47625000D01*
X33602500Y-47625000D02*
X33602500Y-46025000D01*
X33602500Y-46025000D02*
X34600000Y-46025000D01*
X34600000Y-46025000D02*
X34600000Y-47625000D01*
X68750000Y-79625000D02*
X67752500Y-79625000D01*
X67752500Y-79625000D02*
X67752500Y-78025000D01*
X67752500Y-78025000D02*
X68750000Y-78025000D01*
X68750000Y-78025000D02*
X68750000Y-79625000D01*
X68745000Y-41625000D02*
X67747500Y-41625000D01*
X67747500Y-41625000D02*
X67747500Y-40025000D01*
X67747500Y-40025000D02*
X68745000Y-40025000D01*
X68745000Y-40025000D02*
X68745000Y-41625000D01*
D11*
X83205000Y-64535000D02*
X83205000Y-65145000D01*
D10*
X68750000Y-47625000D02*
X67752500Y-47625000D01*
X67752500Y-47625000D02*
X67752500Y-46025000D01*
X67752500Y-46025000D02*
X68750000Y-46025000D01*
X68750000Y-46025000D02*
X68750000Y-47625000D01*
X68752500Y-31625000D02*
X67755000Y-31625000D01*
X67755000Y-31625000D02*
X67755000Y-30025000D01*
X67755000Y-30025000D02*
X68752500Y-30025000D01*
X68752500Y-30025000D02*
X68752500Y-31625000D01*
X68750000Y-69625000D02*
X67752500Y-69625000D01*
X67752500Y-69625000D02*
X67752500Y-68025000D01*
X67752500Y-68025000D02*
X68750000Y-68025000D01*
X68750000Y-68025000D02*
X68750000Y-69625000D01*
D11*
X31980000Y-64535000D02*
X31980000Y-65145000D01*
X83205000Y-22535000D02*
X83205000Y-23145000D01*
D10*
X68755000Y-49625000D02*
X67757500Y-49625000D01*
X67757500Y-49625000D02*
X67757500Y-48025000D01*
X67757500Y-48025000D02*
X68755000Y-48025000D01*
X68755000Y-48025000D02*
X68755000Y-49625000D01*
D11*
X14905000Y-64535000D02*
X14905000Y-65145000D01*
D10*
X85822500Y-71625000D02*
X84825000Y-71625000D01*
X84825000Y-71625000D02*
X84825000Y-70025000D01*
X84825000Y-70025000D02*
X85822500Y-70025000D01*
X85822500Y-70025000D02*
X85822500Y-71625000D01*
X68747500Y-33625000D02*
X67750000Y-33625000D01*
X67750000Y-33625000D02*
X67750000Y-32025000D01*
X67750000Y-32025000D02*
X68747500Y-32025000D01*
X68747500Y-32025000D02*
X68747500Y-33625000D01*
X17525000Y-27625000D02*
X16527500Y-27625000D01*
X16527500Y-27625000D02*
X16527500Y-26025000D01*
X16527500Y-26025000D02*
X17525000Y-26025000D01*
X17525000Y-26025000D02*
X17525000Y-27625000D01*
X17522500Y-87625000D02*
X16525000Y-87625000D01*
X16525000Y-87625000D02*
X16525000Y-86025000D01*
X16525000Y-86025000D02*
X17522500Y-86025000D01*
X17522500Y-86025000D02*
X17522500Y-87625000D01*
X68752500Y-93625000D02*
X67755000Y-93625000D01*
X67755000Y-93625000D02*
X67755000Y-92025000D01*
X67755000Y-92025000D02*
X68752500Y-92025000D01*
X68752500Y-92025000D02*
X68752500Y-93625000D01*
X85822500Y-95625000D02*
X84825000Y-95625000D01*
X84825000Y-95625000D02*
X84825000Y-94025000D01*
X84825000Y-94025000D02*
X85822500Y-94025000D01*
X85822500Y-94025000D02*
X85822500Y-95625000D01*
X68750000Y-33625000D02*
X67752500Y-33625000D01*
X67752500Y-33625000D02*
X67752500Y-32025000D01*
X67752500Y-32025000D02*
X68750000Y-32025000D01*
X68750000Y-32025000D02*
X68750000Y-33625000D01*
X68750000Y-51625000D02*
X67752500Y-51625000D01*
X67752500Y-51625000D02*
X67752500Y-50025000D01*
X67752500Y-50025000D02*
X68750000Y-50025000D01*
X68750000Y-50025000D02*
X68750000Y-51625000D01*
X17527500Y-93625000D02*
X16530000Y-93625000D01*
X16530000Y-93625000D02*
X16530000Y-92025000D01*
X16530000Y-92025000D02*
X17527500Y-92025000D01*
X17527500Y-92025000D02*
X17527500Y-93625000D01*
X85825000Y-51625000D02*
X84827500Y-51625000D01*
X84827500Y-51625000D02*
X84827500Y-50025000D01*
X84827500Y-50025000D02*
X85825000Y-50025000D01*
X85825000Y-50025000D02*
X85825000Y-51625000D01*
X51675000Y-51625000D02*
X50677500Y-51625000D01*
X50677500Y-51625000D02*
X50677500Y-50025000D01*
X50677500Y-50025000D02*
X51675000Y-50025000D01*
X51675000Y-50025000D02*
X51675000Y-51625000D01*
X51675000Y-43625000D02*
X50677500Y-43625000D01*
X50677500Y-43625000D02*
X50677500Y-42025000D01*
X50677500Y-42025000D02*
X51675000Y-42025000D01*
X51675000Y-42025000D02*
X51675000Y-43625000D01*
X17522500Y-45625000D02*
X16525000Y-45625000D01*
X16525000Y-45625000D02*
X16525000Y-44025000D01*
X16525000Y-44025000D02*
X17522500Y-44025000D01*
X17522500Y-44025000D02*
X17522500Y-45625000D01*
X17527500Y-51625000D02*
X16530000Y-51625000D01*
X16530000Y-51625000D02*
X16530000Y-50025000D01*
X16530000Y-50025000D02*
X17527500Y-50025000D01*
X17527500Y-50025000D02*
X17527500Y-51625000D01*
X51670000Y-83625000D02*
X50672500Y-83625000D01*
X50672500Y-83625000D02*
X50672500Y-82025000D01*
X50672500Y-82025000D02*
X51670000Y-82025000D01*
X51670000Y-82025000D02*
X51670000Y-83625000D01*
X51672500Y-45625000D02*
X50675000Y-45625000D01*
X50675000Y-45625000D02*
X50675000Y-44025000D01*
X50675000Y-44025000D02*
X51672500Y-44025000D01*
X51672500Y-44025000D02*
X51672500Y-45625000D01*
X85825000Y-37625000D02*
X84827500Y-37625000D01*
X84827500Y-37625000D02*
X84827500Y-36025000D01*
X84827500Y-36025000D02*
X85825000Y-36025000D01*
X85825000Y-36025000D02*
X85825000Y-37625000D01*
X51675000Y-27625000D02*
X50677500Y-27625000D01*
X50677500Y-27625000D02*
X50677500Y-26025000D01*
X50677500Y-26025000D02*
X51675000Y-26025000D01*
X51675000Y-26025000D02*
X51675000Y-27625000D01*
X34597500Y-95625000D02*
X33600000Y-95625000D01*
X33600000Y-95625000D02*
X33600000Y-94025000D01*
X33600000Y-94025000D02*
X34597500Y-94025000D01*
X34597500Y-94025000D02*
X34597500Y-95625000D01*
X85827500Y-45625000D02*
X84830000Y-45625000D01*
X84830000Y-45625000D02*
X84830000Y-44025000D01*
X84830000Y-44025000D02*
X85827500Y-44025000D01*
X85827500Y-44025000D02*
X85827500Y-45625000D01*
X17527500Y-45625000D02*
X16530000Y-45625000D01*
X16530000Y-45625000D02*
X16530000Y-44025000D01*
X16530000Y-44025000D02*
X17527500Y-44025000D01*
X17527500Y-44025000D02*
X17527500Y-45625000D01*
X51677500Y-45625000D02*
X50680000Y-45625000D01*
X50680000Y-45625000D02*
X50680000Y-44025000D01*
X50680000Y-44025000D02*
X51677500Y-44025000D01*
X51677500Y-44025000D02*
X51677500Y-45625000D01*
D11*
X49055000Y-22535000D02*
X49055000Y-23145000D01*
X66130000Y-22535000D02*
X66130000Y-23145000D01*
D10*
X85827500Y-93625000D02*
X84830000Y-93625000D01*
X84830000Y-93625000D02*
X84830000Y-92025000D01*
X84830000Y-92025000D02*
X85827500Y-92025000D01*
X85827500Y-92025000D02*
X85827500Y-93625000D01*
X85825000Y-75625000D02*
X84827500Y-75625000D01*
X84827500Y-75625000D02*
X84827500Y-74025000D01*
X84827500Y-74025000D02*
X85825000Y-74025000D01*
X85825000Y-74025000D02*
X85825000Y-75625000D01*
X17527500Y-31625000D02*
X16530000Y-31625000D01*
X16530000Y-31625000D02*
X16530000Y-30025000D01*
X16530000Y-30025000D02*
X17527500Y-30025000D01*
X17527500Y-30025000D02*
X17527500Y-31625000D01*
X51672500Y-71625000D02*
X50675000Y-71625000D01*
X50675000Y-71625000D02*
X50675000Y-70025000D01*
X50675000Y-70025000D02*
X51672500Y-70025000D01*
X51672500Y-70025000D02*
X51672500Y-71625000D01*
X85825000Y-79625000D02*
X84827500Y-79625000D01*
X84827500Y-79625000D02*
X84827500Y-78025000D01*
X84827500Y-78025000D02*
X85825000Y-78025000D01*
X85825000Y-78025000D02*
X85825000Y-79625000D01*
X85830000Y-91625000D02*
X84832500Y-91625000D01*
X84832500Y-91625000D02*
X84832500Y-90025000D01*
X84832500Y-90025000D02*
X85830000Y-90025000D01*
X85830000Y-90025000D02*
X85830000Y-91625000D01*
X17522500Y-33625000D02*
X16525000Y-33625000D01*
X16525000Y-33625000D02*
X16525000Y-32025000D01*
X16525000Y-32025000D02*
X17522500Y-32025000D01*
X17522500Y-32025000D02*
X17522500Y-33625000D01*
X34600000Y-89625000D02*
X33602500Y-89625000D01*
X33602500Y-89625000D02*
X33602500Y-88025000D01*
X33602500Y-88025000D02*
X34600000Y-88025000D01*
X34600000Y-88025000D02*
X34600000Y-89625000D01*
X34600000Y-93625000D02*
X33602500Y-93625000D01*
X33602500Y-93625000D02*
X33602500Y-92025000D01*
X33602500Y-92025000D02*
X34600000Y-92025000D01*
X34600000Y-92025000D02*
X34600000Y-93625000D01*
X85820000Y-41625000D02*
X84822500Y-41625000D01*
X84822500Y-41625000D02*
X84822500Y-40025000D01*
X84822500Y-40025000D02*
X85820000Y-40025000D01*
X85820000Y-40025000D02*
X85820000Y-41625000D01*
X34602500Y-31625000D02*
X33605000Y-31625000D01*
X33605000Y-31625000D02*
X33605000Y-30025000D01*
X33605000Y-30025000D02*
X34602500Y-30025000D01*
X34602500Y-30025000D02*
X34602500Y-31625000D01*
X17527500Y-73625000D02*
X16530000Y-73625000D01*
X16530000Y-73625000D02*
X16530000Y-72025000D01*
X16530000Y-72025000D02*
X17527500Y-72025000D01*
X17527500Y-72025000D02*
X17527500Y-73625000D01*
X51672500Y-53625000D02*
X50675000Y-53625000D01*
X50675000Y-53625000D02*
X50675000Y-52025000D01*
X50675000Y-52025000D02*
X51672500Y-52025000D01*
X51672500Y-52025000D02*
X51672500Y-53625000D01*
X34597500Y-81625000D02*
X33600000Y-81625000D01*
X33600000Y-81625000D02*
X33600000Y-80025000D01*
X33600000Y-80025000D02*
X34597500Y-80025000D01*
X34597500Y-80025000D02*
X34597500Y-81625000D01*
X68750000Y-75625000D02*
X67752500Y-75625000D01*
X67752500Y-75625000D02*
X67752500Y-74025000D01*
X67752500Y-74025000D02*
X68750000Y-74025000D01*
X68750000Y-74025000D02*
X68750000Y-75625000D01*
X68747500Y-95625000D02*
X67750000Y-95625000D01*
X67750000Y-95625000D02*
X67750000Y-94025000D01*
X67750000Y-94025000D02*
X68747500Y-94025000D01*
X68747500Y-94025000D02*
X68747500Y-95625000D01*
X85820000Y-35625000D02*
X84822500Y-35625000D01*
X84822500Y-35625000D02*
X84822500Y-34025000D01*
X84822500Y-34025000D02*
X85820000Y-34025000D01*
X85820000Y-34025000D02*
X85820000Y-35625000D01*
X51672500Y-39625000D02*
X50675000Y-39625000D01*
X50675000Y-39625000D02*
X50675000Y-38025000D01*
X50675000Y-38025000D02*
X51672500Y-38025000D01*
X51672500Y-38025000D02*
X51672500Y-39625000D01*
X51672500Y-81625000D02*
X50675000Y-81625000D01*
X50675000Y-81625000D02*
X50675000Y-80025000D01*
X50675000Y-80025000D02*
X51672500Y-80025000D01*
X51672500Y-80025000D02*
X51672500Y-81625000D01*
X85825000Y-43625000D02*
X84827500Y-43625000D01*
X84827500Y-43625000D02*
X84827500Y-42025000D01*
X84827500Y-42025000D02*
X85825000Y-42025000D01*
X85825000Y-42025000D02*
X85825000Y-43625000D01*
X34595000Y-83625000D02*
X33597500Y-83625000D01*
X33597500Y-83625000D02*
X33597500Y-82025000D01*
X33597500Y-82025000D02*
X34595000Y-82025000D01*
X34595000Y-82025000D02*
X34595000Y-83625000D01*
X34600000Y-27625000D02*
X33602500Y-27625000D01*
X33602500Y-27625000D02*
X33602500Y-26025000D01*
X33602500Y-26025000D02*
X34600000Y-26025000D01*
X34600000Y-26025000D02*
X34600000Y-27625000D01*
X85825000Y-93625000D02*
X84827500Y-93625000D01*
X84827500Y-93625000D02*
X84827500Y-92025000D01*
X84827500Y-92025000D02*
X85825000Y-92025000D01*
X85825000Y-92025000D02*
X85825000Y-93625000D01*
X17520000Y-35625000D02*
X16522500Y-35625000D01*
X16522500Y-35625000D02*
X16522500Y-34025000D01*
X16522500Y-34025000D02*
X17520000Y-34025000D01*
X17520000Y-34025000D02*
X17520000Y-35625000D01*
X68747500Y-71625000D02*
X67750000Y-71625000D01*
X67750000Y-71625000D02*
X67750000Y-70025000D01*
X67750000Y-70025000D02*
X68747500Y-70025000D01*
X68747500Y-70025000D02*
X68747500Y-71625000D01*
X34597500Y-39625000D02*
X33600000Y-39625000D01*
X33600000Y-39625000D02*
X33600000Y-38025000D01*
X33600000Y-38025000D02*
X34597500Y-38025000D01*
X34597500Y-38025000D02*
X34597500Y-39625000D01*
X85825000Y-69625000D02*
X84827500Y-69625000D01*
X84827500Y-69625000D02*
X84827500Y-68025000D01*
X84827500Y-68025000D02*
X85825000Y-68025000D01*
X85825000Y-68025000D02*
X85825000Y-69625000D01*
X17525000Y-89625000D02*
X16527500Y-89625000D01*
X16527500Y-89625000D02*
X16527500Y-88025000D01*
X16527500Y-88025000D02*
X17525000Y-88025000D01*
X17525000Y-88025000D02*
X17525000Y-89625000D01*
D11*
X14905000Y-22535000D02*
X14905000Y-23145000D01*
D10*
X68747500Y-45625000D02*
X67750000Y-45625000D01*
X67750000Y-45625000D02*
X67750000Y-44025000D01*
X67750000Y-44025000D02*
X68747500Y-44025000D01*
X68747500Y-44025000D02*
X68747500Y-45625000D01*
X51675000Y-85625000D02*
X50677500Y-85625000D01*
X50677500Y-85625000D02*
X50677500Y-84025000D01*
X50677500Y-84025000D02*
X51675000Y-84025000D01*
X51675000Y-84025000D02*
X51675000Y-85625000D01*
X17525000Y-93625000D02*
X16527500Y-93625000D01*
X16527500Y-93625000D02*
X16527500Y-92025000D01*
X16527500Y-92025000D02*
X17525000Y-92025000D01*
X17525000Y-92025000D02*
X17525000Y-93625000D01*
X51677500Y-31625000D02*
X50680000Y-31625000D01*
X50680000Y-31625000D02*
X50680000Y-30025000D01*
X50680000Y-30025000D02*
X51677500Y-30025000D01*
X51677500Y-30025000D02*
X51677500Y-31625000D01*
X68750000Y-93625000D02*
X67752500Y-93625000D01*
X67752500Y-93625000D02*
X67752500Y-92025000D01*
X67752500Y-92025000D02*
X68750000Y-92025000D01*
X68750000Y-92025000D02*
X68750000Y-93625000D01*
X85822500Y-87625000D02*
X84825000Y-87625000D01*
X84825000Y-87625000D02*
X84825000Y-86025000D01*
X84825000Y-86025000D02*
X85822500Y-86025000D01*
X85822500Y-86025000D02*
X85822500Y-87625000D01*
X17525000Y-51625000D02*
X16527500Y-51625000D01*
X16527500Y-51625000D02*
X16527500Y-50025000D01*
X16527500Y-50025000D02*
X17525000Y-50025000D01*
X17525000Y-50025000D02*
X17525000Y-51625000D01*
X51680000Y-49625000D02*
X50682500Y-49625000D01*
X50682500Y-49625000D02*
X50682500Y-48025000D01*
X50682500Y-48025000D02*
X51680000Y-48025000D01*
X51680000Y-48025000D02*
X51680000Y-49625000D01*
X68747500Y-81625000D02*
X67750000Y-81625000D01*
X67750000Y-81625000D02*
X67750000Y-80025000D01*
X67750000Y-80025000D02*
X68747500Y-80025000D01*
X68747500Y-80025000D02*
X68747500Y-81625000D01*
X85825000Y-27625000D02*
X84827500Y-27625000D01*
X84827500Y-27625000D02*
X84827500Y-26025000D01*
X84827500Y-26025000D02*
X85825000Y-26025000D01*
X85825000Y-26025000D02*
X85825000Y-27625000D01*
X51675000Y-75625000D02*
X50677500Y-75625000D01*
X50677500Y-75625000D02*
X50677500Y-74025000D01*
X50677500Y-74025000D02*
X51675000Y-74025000D01*
X51675000Y-74025000D02*
X51675000Y-75625000D01*
X68747500Y-53625000D02*
X67750000Y-53625000D01*
X67750000Y-53625000D02*
X67750000Y-52025000D01*
X67750000Y-52025000D02*
X68747500Y-52025000D01*
X68747500Y-52025000D02*
X68747500Y-53625000D01*
X34597500Y-39625000D02*
X33600000Y-39625000D01*
X33600000Y-39625000D02*
X33600000Y-38025000D01*
X33600000Y-38025000D02*
X34597500Y-38025000D01*
X34597500Y-38025000D02*
X34597500Y-39625000D01*
X51677500Y-87625000D02*
X50680000Y-87625000D01*
X50680000Y-87625000D02*
X50680000Y-86025000D01*
X50680000Y-86025000D02*
X51677500Y-86025000D01*
X51677500Y-86025000D02*
X51677500Y-87625000D01*
X17525000Y-75625000D02*
X16527500Y-75625000D01*
X16527500Y-75625000D02*
X16527500Y-74025000D01*
X16527500Y-74025000D02*
X17525000Y-74025000D01*
X17525000Y-74025000D02*
X17525000Y-75625000D01*
X51677500Y-73625000D02*
X50680000Y-73625000D01*
X50680000Y-73625000D02*
X50680000Y-72025000D01*
X50680000Y-72025000D02*
X51677500Y-72025000D01*
X51677500Y-72025000D02*
X51677500Y-73625000D01*
X51680000Y-91625000D02*
X50682500Y-91625000D01*
X50682500Y-91625000D02*
X50682500Y-90025000D01*
X50682500Y-90025000D02*
X51680000Y-90025000D01*
X51680000Y-90025000D02*
X51680000Y-91625000D01*
X68752500Y-45625000D02*
X67755000Y-45625000D01*
X67755000Y-45625000D02*
X67755000Y-44025000D01*
X67755000Y-44025000D02*
X68752500Y-44025000D01*
X68752500Y-44025000D02*
X68752500Y-45625000D01*
X85822500Y-39625000D02*
X84825000Y-39625000D01*
X84825000Y-39625000D02*
X84825000Y-38025000D01*
X84825000Y-38025000D02*
X85822500Y-38025000D01*
X85822500Y-38025000D02*
X85822500Y-39625000D01*
X68745000Y-35625000D02*
X67747500Y-35625000D01*
X67747500Y-35625000D02*
X67747500Y-34025000D01*
X67747500Y-34025000D02*
X68745000Y-34025000D01*
X68745000Y-34025000D02*
X68745000Y-35625000D01*
X51672500Y-95625000D02*
X50675000Y-95625000D01*
X50675000Y-95625000D02*
X50675000Y-94025000D01*
X50675000Y-94025000D02*
X51672500Y-94025000D01*
X51672500Y-94025000D02*
X51672500Y-95625000D01*
X51677500Y-93625000D02*
X50680000Y-93625000D01*
X50680000Y-93625000D02*
X50680000Y-92025000D01*
X50680000Y-92025000D02*
X51677500Y-92025000D01*
X51677500Y-92025000D02*
X51677500Y-93625000D01*
X68750000Y-43625000D02*
X67752500Y-43625000D01*
X67752500Y-43625000D02*
X67752500Y-42025000D01*
X67752500Y-42025000D02*
X68750000Y-42025000D01*
X68750000Y-42025000D02*
X68750000Y-43625000D01*
X34600000Y-51625000D02*
X33602500Y-51625000D01*
X33602500Y-51625000D02*
X33602500Y-50025000D01*
X33602500Y-50025000D02*
X34600000Y-50025000D01*
X34600000Y-50025000D02*
X34600000Y-51625000D01*
X68747500Y-39625000D02*
X67750000Y-39625000D01*
X67750000Y-39625000D02*
X67750000Y-38025000D01*
X67750000Y-38025000D02*
X68747500Y-38025000D01*
X68747500Y-38025000D02*
X68747500Y-39625000D01*
D11*
X49055000Y-64535000D02*
X49055000Y-65145000D01*
D10*
X51670000Y-35625000D02*
X50672500Y-35625000D01*
X50672500Y-35625000D02*
X50672500Y-34025000D01*
X50672500Y-34025000D02*
X51670000Y-34025000D01*
X51670000Y-34025000D02*
X51670000Y-35625000D01*
X51675000Y-47625000D02*
X50677500Y-47625000D01*
X50677500Y-47625000D02*
X50677500Y-46025000D01*
X50677500Y-46025000D02*
X51675000Y-46025000D01*
X51675000Y-46025000D02*
X51675000Y-47625000D01*
X51672500Y-39625000D02*
X50675000Y-39625000D01*
X50675000Y-39625000D02*
X50675000Y-38025000D01*
X50675000Y-38025000D02*
X51672500Y-38025000D01*
X51672500Y-38025000D02*
X51672500Y-39625000D01*
X17527500Y-87625000D02*
X16530000Y-87625000D01*
X16530000Y-87625000D02*
X16530000Y-86025000D01*
X16530000Y-86025000D02*
X17527500Y-86025000D01*
X17527500Y-86025000D02*
X17527500Y-87625000D01*
X17525000Y-79625000D02*
X16527500Y-79625000D01*
X16527500Y-79625000D02*
X16527500Y-78025000D01*
X16527500Y-78025000D02*
X17525000Y-78025000D01*
X17525000Y-78025000D02*
X17525000Y-79625000D01*
X68750000Y-89625000D02*
X67752500Y-89625000D01*
X67752500Y-89625000D02*
X67752500Y-88025000D01*
X67752500Y-88025000D02*
X68750000Y-88025000D01*
X68750000Y-88025000D02*
X68750000Y-89625000D01*
X51675000Y-93625000D02*
X50677500Y-93625000D01*
X50677500Y-93625000D02*
X50677500Y-92025000D01*
X50677500Y-92025000D02*
X51675000Y-92025000D01*
X51675000Y-92025000D02*
X51675000Y-93625000D01*
X68750000Y-27625000D02*
X67752500Y-27625000D01*
X67752500Y-27625000D02*
X67752500Y-26025000D01*
X67752500Y-26025000D02*
X68750000Y-26025000D01*
X68750000Y-26025000D02*
X68750000Y-27625000D01*
X34595000Y-77625000D02*
X33597500Y-77625000D01*
X33597500Y-77625000D02*
X33597500Y-76025000D01*
X33597500Y-76025000D02*
X34595000Y-76025000D01*
X34595000Y-76025000D02*
X34595000Y-77625000D01*
X51672500Y-33625000D02*
X50675000Y-33625000D01*
X50675000Y-33625000D02*
X50675000Y-32025000D01*
X50675000Y-32025000D02*
X51672500Y-32025000D01*
X51672500Y-32025000D02*
X51672500Y-33625000D01*
X85825000Y-89625000D02*
X84827500Y-89625000D01*
X84827500Y-89625000D02*
X84827500Y-88025000D01*
X84827500Y-88025000D02*
X85825000Y-88025000D01*
X85825000Y-88025000D02*
X85825000Y-89625000D01*
X51672500Y-81625000D02*
X50675000Y-81625000D01*
X50675000Y-81625000D02*
X50675000Y-80025000D01*
X50675000Y-80025000D02*
X51672500Y-80025000D01*
X51672500Y-80025000D02*
X51672500Y-81625000D01*
X51677500Y-51625000D02*
X50680000Y-51625000D01*
X50680000Y-51625000D02*
X50680000Y-50025000D01*
X50680000Y-50025000D02*
X51677500Y-50025000D01*
X51677500Y-50025000D02*
X51677500Y-51625000D01*
M02*
