%TF.GenerationSoftware,KiCad,Pcbnew,(6.0.1)*%
%TF.CreationDate,2022-07-06T22:16:31-07:00*%
%TF.ProjectId,mu100-dit-connector-board-panelized,6d753130-302d-4646-9974-2d636f6e6e65,rev?*%
%TF.SameCoordinates,Original*%
%TF.FileFunction,Soldermask,Top*%
%TF.FilePolarity,Negative*%
%FSLAX46Y46*%
G04 Gerber Fmt 4.6, Leading zero omitted, Abs format (unit mm)*
G04 Created by KiCad (PCBNEW (6.0.1)) date 2022-07-06 22:16:31*
%MOMM*%
%LPD*%
G01*
G04 APERTURE LIST*
G04 Aperture macros list*
%AMRoundRect*
0 Rectangle with rounded corners*
0 $1 Rounding radius*
0 $2 $3 $4 $5 $6 $7 $8 $9 X,Y pos of 4 corners*
0 Add a 4 corners polygon primitive as box body*
4,1,4,$2,$3,$4,$5,$6,$7,$8,$9,$2,$3,0*
0 Add four circle primitives for the rounded corners*
1,1,$1+$1,$2,$3*
1,1,$1+$1,$4,$5*
1,1,$1+$1,$6,$7*
1,1,$1+$1,$8,$9*
0 Add four rect primitives between the rounded corners*
20,1,$1+$1,$2,$3,$4,$5,0*
20,1,$1+$1,$4,$5,$6,$7,0*
20,1,$1+$1,$6,$7,$8,$9,0*
20,1,$1+$1,$8,$9,$2,$3,0*%
G04 Aperture macros list end*
%ADD10C,1.000000*%
%ADD11C,1.152000*%
%ADD12C,0.500000*%
%ADD13RoundRect,0.250000X-0.350000X-0.450000X0.350000X-0.450000X0.350000X0.450000X-0.350000X0.450000X0*%
%ADD14R,1.350000X1.350000*%
%ADD15O,1.350000X1.350000*%
%ADD16RoundRect,0.250000X-0.337500X-0.475000X0.337500X-0.475000X0.337500X0.475000X-0.337500X0.475000X0*%
%ADD17RoundRect,0.250000X-0.650000X0.350000X-0.650000X-0.350000X0.650000X-0.350000X0.650000X0.350000X0*%
%ADD18O,1.800000X1.200000*%
%ADD19RoundRect,0.250000X0.625000X-0.350000X0.625000X0.350000X-0.625000X0.350000X-0.625000X-0.350000X0*%
%ADD20O,1.750000X1.200000*%
%ADD21C,0.800000*%
G04 APERTURE END LIST*
D10*
%TO.C,REF\u002A\u002A*%
X20500000Y-110500000D03*
%TD*%
%TO.C,REF\u002A\u002A*%
X93000000Y-110500000D03*
%TD*%
D11*
%TO.C,REF\u002A\u002A*%
X96000000Y-110500000D03*
%TD*%
%TO.C,REF\u002A\u002A*%
X17500000Y-110500000D03*
%TD*%
D10*
%TO.C,REF\u002A\u002A*%
X20500000Y-17500000D03*
%TD*%
%TO.C,REF\u002A\u002A*%
X93000000Y-17500000D03*
%TD*%
D11*
%TO.C,REF\u002A\u002A*%
X96000000Y-17500000D03*
%TD*%
%TO.C,REF\u002A\u002A*%
X17500000Y-17500000D03*
%TD*%
D12*
%TO.C,REF\u002A\u002A*%
X29875000Y-42000000D03*
%TD*%
%TO.C,REF\u002A\u002A*%
X46950000Y-41000000D03*
%TD*%
%TO.C,REF\u002A\u002A*%
X91350000Y-104800000D03*
%TD*%
%TO.C,REF\u002A\u002A*%
X54175000Y-65200000D03*
%TD*%
%TO.C,REF\u002A\u002A*%
X41125000Y-62800000D03*
%TD*%
%TO.C,REF\u002A\u002A*%
X73250000Y-23200000D03*
%TD*%
%TO.C,REF\u002A\u002A*%
X37100000Y-62800000D03*
%TD*%
%TO.C,REF\u002A\u002A*%
X41125000Y-104800000D03*
%TD*%
D13*
%TO.C,R11*%
X57199000Y-42318332D03*
X59199000Y-42318332D03*
%TD*%
D12*
%TO.C,REF\u002A\u002A*%
X53175000Y-23200000D03*
%TD*%
%TO.C,REF\u002A\u002A*%
X29875000Y-44000000D03*
%TD*%
%TO.C,REF\u002A\u002A*%
X56175000Y-62800000D03*
%TD*%
%TO.C,REF\u002A\u002A*%
X64025000Y-41000000D03*
%TD*%
D13*
%TO.C,R2*%
X23049000Y-38471666D03*
X25049000Y-38471666D03*
%TD*%
D14*
%TO.C,J1*%
X16995000Y-68835000D03*
D15*
X16995000Y-70835000D03*
X16995000Y-72835000D03*
X16995000Y-74835000D03*
X16995000Y-76835000D03*
X16995000Y-78835000D03*
X16995000Y-80835000D03*
X16995000Y-82835000D03*
X16995000Y-84835000D03*
X16995000Y-86835000D03*
X16995000Y-88835000D03*
X16995000Y-90835000D03*
X16995000Y-92835000D03*
X16995000Y-94835000D03*
X16995000Y-96835000D03*
X16995000Y-98835000D03*
X16995000Y-100835000D03*
%TD*%
D13*
%TO.C,R18*%
X91349000Y-34625000D03*
X93349000Y-34625000D03*
%TD*%
D12*
%TO.C,REF\u002A\u002A*%
X36100000Y-62800000D03*
%TD*%
%TO.C,REF\u002A\u002A*%
X57200000Y-104800000D03*
%TD*%
D16*
%TO.C,C9*%
X74286500Y-71755800D03*
X76361500Y-71755800D03*
%TD*%
D12*
%TO.C,REF\u002A\u002A*%
X37100000Y-23200000D03*
%TD*%
%TO.C,REF\u002A\u002A*%
X78275000Y-23200000D03*
%TD*%
%TO.C,REF\u002A\u002A*%
X52175000Y-104800000D03*
%TD*%
%TO.C,REF\u002A\u002A*%
X35100000Y-104800000D03*
%TD*%
%TO.C,REF\u002A\u002A*%
X88325000Y-62800000D03*
%TD*%
%TO.C,REF\u002A\u002A*%
X83500000Y-85000000D03*
%TD*%
D13*
%TO.C,R34*%
X74274000Y-76625000D03*
X76274000Y-76625000D03*
%TD*%
D16*
%TO.C,C6*%
X23061500Y-71755800D03*
X25136500Y-71755800D03*
%TD*%
D12*
%TO.C,REF\u002A\u002A*%
X57200000Y-23200000D03*
%TD*%
%TO.C,REF\u002A\u002A*%
X87325000Y-104800000D03*
%TD*%
%TO.C,REF\u002A\u002A*%
X64025000Y-86000000D03*
%TD*%
%TO.C,REF\u002A\u002A*%
X94350000Y-62800000D03*
%TD*%
%TO.C,REF\u002A\u002A*%
X95350000Y-65200000D03*
%TD*%
%TO.C,REF\u002A\u002A*%
X83500000Y-86000000D03*
%TD*%
%TO.C,REF\u002A\u002A*%
X32275000Y-86000000D03*
%TD*%
%TO.C,REF\u002A\u002A*%
X32275000Y-41000000D03*
%TD*%
%TO.C,REF\u002A\u002A*%
X38100000Y-23200000D03*
%TD*%
%TO.C,REF\u002A\u002A*%
X19025000Y-23200000D03*
%TD*%
D16*
%TO.C,C5*%
X91361500Y-29755800D03*
X93436500Y-29755800D03*
%TD*%
D12*
%TO.C,REF\u002A\u002A*%
X26050000Y-104800000D03*
%TD*%
%TO.C,REF\u002A\u002A*%
X32275000Y-45000000D03*
%TD*%
%TO.C,REF\u002A\u002A*%
X56175000Y-65200000D03*
%TD*%
D16*
%TO.C,C8*%
X57211500Y-71755800D03*
X59286500Y-71755800D03*
%TD*%
D12*
%TO.C,REF\u002A\u002A*%
X39100000Y-23200000D03*
%TD*%
%TO.C,REF\u002A\u002A*%
X52175000Y-65200000D03*
%TD*%
%TO.C,REF\u002A\u002A*%
X56175000Y-23200000D03*
%TD*%
%TO.C,REF\u002A\u002A*%
X81100000Y-83000000D03*
%TD*%
%TO.C,REF\u002A\u002A*%
X44125000Y-65200000D03*
%TD*%
%TO.C,REF\u002A\u002A*%
X55175000Y-62800000D03*
%TD*%
%TO.C,REF\u002A\u002A*%
X83500000Y-83000000D03*
%TD*%
%TO.C,REF\u002A\u002A*%
X81100000Y-86000000D03*
%TD*%
%TO.C,REF\u002A\u002A*%
X24050000Y-23200000D03*
%TD*%
%TO.C,REF\u002A\u002A*%
X36100000Y-23200000D03*
%TD*%
%TO.C,REF\u002A\u002A*%
X66425000Y-43000000D03*
%TD*%
%TO.C,REF\u002A\u002A*%
X81100000Y-41000000D03*
%TD*%
%TO.C,REF\u002A\u002A*%
X76275000Y-65200000D03*
%TD*%
%TO.C,REF\u002A\u002A*%
X87325000Y-65200000D03*
%TD*%
%TO.C,REF\u002A\u002A*%
X61200000Y-23200000D03*
%TD*%
%TO.C,REF\u002A\u002A*%
X83500000Y-84000000D03*
%TD*%
%TO.C,REF\u002A\u002A*%
X22025000Y-23200000D03*
%TD*%
%TO.C,REF\u002A\u002A*%
X32275000Y-44000000D03*
%TD*%
%TO.C,REF\u002A\u002A*%
X29875000Y-86000000D03*
%TD*%
%TO.C,REF\u002A\u002A*%
X40125000Y-62800000D03*
%TD*%
D13*
%TO.C,R16*%
X74274000Y-42318332D03*
X76274000Y-42318332D03*
%TD*%
%TO.C,R22*%
X23049000Y-76625000D03*
X25049000Y-76625000D03*
%TD*%
D12*
%TO.C,REF\u002A\u002A*%
X92350000Y-104800000D03*
%TD*%
%TO.C,REF\u002A\u002A*%
X54175000Y-62800000D03*
%TD*%
%TO.C,REF\u002A\u002A*%
X75275000Y-62800000D03*
%TD*%
D14*
%TO.C,J1*%
X16995000Y-26835000D03*
D15*
X16995000Y-28835000D03*
X16995000Y-30835000D03*
X16995000Y-32835000D03*
X16995000Y-34835000D03*
X16995000Y-36835000D03*
X16995000Y-38835000D03*
X16995000Y-40835000D03*
X16995000Y-42835000D03*
X16995000Y-44835000D03*
X16995000Y-46835000D03*
X16995000Y-48835000D03*
X16995000Y-50835000D03*
X16995000Y-52835000D03*
X16995000Y-54835000D03*
X16995000Y-56835000D03*
X16995000Y-58835000D03*
%TD*%
D16*
%TO.C,C1*%
X23061500Y-29755800D03*
X25136500Y-29755800D03*
%TD*%
D12*
%TO.C,REF\u002A\u002A*%
X71250000Y-104800000D03*
%TD*%
D13*
%TO.C,R31*%
X57199000Y-80471666D03*
X59199000Y-80471666D03*
%TD*%
D12*
%TO.C,REF\u002A\u002A*%
X49350000Y-86000000D03*
%TD*%
D13*
%TO.C,R41*%
X91349000Y-88165000D03*
X93349000Y-88165000D03*
%TD*%
D12*
%TO.C,REF\u002A\u002A*%
X35100000Y-65200000D03*
%TD*%
%TO.C,REF\u002A\u002A*%
X39100000Y-62800000D03*
%TD*%
%TO.C,REF\u002A\u002A*%
X35100000Y-23200000D03*
%TD*%
%TO.C,REF\u002A\u002A*%
X95350000Y-104800000D03*
%TD*%
%TO.C,REF\u002A\u002A*%
X64025000Y-43000000D03*
%TD*%
%TO.C,REF\u002A\u002A*%
X24050000Y-104800000D03*
%TD*%
%TO.C,REF\u002A\u002A*%
X29875000Y-83000000D03*
%TD*%
%TO.C,REF\u002A\u002A*%
X19025000Y-65200000D03*
%TD*%
%TO.C,REF\u002A\u002A*%
X27050000Y-62800000D03*
%TD*%
%TO.C,REF\u002A\u002A*%
X83500000Y-41000000D03*
%TD*%
%TO.C,REF\u002A\u002A*%
X27050000Y-23200000D03*
%TD*%
%TO.C,REF\u002A\u002A*%
X29875000Y-45000000D03*
%TD*%
%TO.C,REF\u002A\u002A*%
X24050000Y-62800000D03*
%TD*%
%TO.C,REF\u002A\u002A*%
X90325000Y-62800000D03*
%TD*%
%TO.C,REF\u002A\u002A*%
X92350000Y-65200000D03*
%TD*%
%TO.C,REF\u002A\u002A*%
X88325000Y-23200000D03*
%TD*%
%TO.C,REF\u002A\u002A*%
X78275000Y-104800000D03*
%TD*%
%TO.C,REF\u002A\u002A*%
X73250000Y-62800000D03*
%TD*%
%TO.C,REF\u002A\u002A*%
X90325000Y-104800000D03*
%TD*%
%TO.C,REF\u002A\u002A*%
X60200000Y-62800000D03*
%TD*%
%TO.C,REF\u002A\u002A*%
X49350000Y-45000000D03*
%TD*%
%TO.C,REF\u002A\u002A*%
X78275000Y-65200000D03*
%TD*%
%TO.C,REF\u002A\u002A*%
X21025000Y-62800000D03*
%TD*%
%TO.C,REF\u002A\u002A*%
X36100000Y-65200000D03*
%TD*%
%TO.C,REF\u002A\u002A*%
X46950000Y-83000000D03*
%TD*%
D14*
%TO.C,J1*%
X85295000Y-68835000D03*
D15*
X85295000Y-70835000D03*
X85295000Y-72835000D03*
X85295000Y-74835000D03*
X85295000Y-76835000D03*
X85295000Y-78835000D03*
X85295000Y-80835000D03*
X85295000Y-82835000D03*
X85295000Y-84835000D03*
X85295000Y-86835000D03*
X85295000Y-88835000D03*
X85295000Y-90835000D03*
X85295000Y-92835000D03*
X85295000Y-94835000D03*
X85295000Y-96835000D03*
X85295000Y-98835000D03*
X85295000Y-100835000D03*
%TD*%
D12*
%TO.C,REF\u002A\u002A*%
X61200000Y-65200000D03*
%TD*%
%TO.C,REF\u002A\u002A*%
X29875000Y-87000000D03*
%TD*%
%TO.C,REF\u002A\u002A*%
X64025000Y-45000000D03*
%TD*%
D14*
%TO.C,J1*%
X34070000Y-26835000D03*
D15*
X34070000Y-28835000D03*
X34070000Y-30835000D03*
X34070000Y-32835000D03*
X34070000Y-34835000D03*
X34070000Y-36835000D03*
X34070000Y-38835000D03*
X34070000Y-40835000D03*
X34070000Y-42835000D03*
X34070000Y-44835000D03*
X34070000Y-46835000D03*
X34070000Y-48835000D03*
X34070000Y-50835000D03*
X34070000Y-52835000D03*
X34070000Y-54835000D03*
X34070000Y-56835000D03*
X34070000Y-58835000D03*
%TD*%
D13*
%TO.C,R27*%
X40124000Y-80471666D03*
X42124000Y-80471666D03*
%TD*%
D14*
%TO.C,J1*%
X68220000Y-26835000D03*
D15*
X68220000Y-28835000D03*
X68220000Y-30835000D03*
X68220000Y-32835000D03*
X68220000Y-34835000D03*
X68220000Y-36835000D03*
X68220000Y-38835000D03*
X68220000Y-40835000D03*
X68220000Y-42835000D03*
X68220000Y-44835000D03*
X68220000Y-46835000D03*
X68220000Y-48835000D03*
X68220000Y-50835000D03*
X68220000Y-52835000D03*
X68220000Y-54835000D03*
X68220000Y-56835000D03*
X68220000Y-58835000D03*
%TD*%
D12*
%TO.C,REF\u002A\u002A*%
X32275000Y-84000000D03*
%TD*%
%TO.C,REF\u002A\u002A*%
X74275000Y-62800000D03*
%TD*%
%TO.C,REF\u002A\u002A*%
X20025000Y-104800000D03*
%TD*%
%TO.C,REF\u002A\u002A*%
X49350000Y-41000000D03*
%TD*%
%TO.C,REF\u002A\u002A*%
X42125000Y-62800000D03*
%TD*%
%TO.C,REF\u002A\u002A*%
X60200000Y-23200000D03*
%TD*%
%TO.C,REF\u002A\u002A*%
X29875000Y-41000000D03*
%TD*%
%TO.C,REF\u002A\u002A*%
X21025000Y-104800000D03*
%TD*%
%TO.C,REF\u002A\u002A*%
X18025000Y-65200000D03*
%TD*%
%TO.C,REF\u002A\u002A*%
X18025000Y-104800000D03*
%TD*%
%TO.C,REF\u002A\u002A*%
X58200000Y-62800000D03*
%TD*%
%TO.C,REF\u002A\u002A*%
X19025000Y-104800000D03*
%TD*%
%TO.C,REF\u002A\u002A*%
X23050000Y-23200000D03*
%TD*%
%TO.C,REF\u002A\u002A*%
X69250000Y-62800000D03*
%TD*%
%TO.C,REF\u002A\u002A*%
X59200000Y-104800000D03*
%TD*%
%TO.C,REF\u002A\u002A*%
X60200000Y-104800000D03*
%TD*%
%TO.C,REF\u002A\u002A*%
X52175000Y-62800000D03*
%TD*%
D14*
%TO.C,J1*%
X51145000Y-68835000D03*
D15*
X51145000Y-70835000D03*
X51145000Y-72835000D03*
X51145000Y-74835000D03*
X51145000Y-76835000D03*
X51145000Y-78835000D03*
X51145000Y-80835000D03*
X51145000Y-82835000D03*
X51145000Y-84835000D03*
X51145000Y-86835000D03*
X51145000Y-88835000D03*
X51145000Y-90835000D03*
X51145000Y-92835000D03*
X51145000Y-94835000D03*
X51145000Y-96835000D03*
X51145000Y-98835000D03*
X51145000Y-100835000D03*
%TD*%
D12*
%TO.C,REF\u002A\u002A*%
X76275000Y-62800000D03*
%TD*%
%TO.C,REF\u002A\u002A*%
X81100000Y-87000000D03*
%TD*%
%TO.C,REF\u002A\u002A*%
X23050000Y-62800000D03*
%TD*%
%TO.C,REF\u002A\u002A*%
X93350000Y-104800000D03*
%TD*%
%TO.C,REF\u002A\u002A*%
X86325000Y-104800000D03*
%TD*%
%TO.C,REF\u002A\u002A*%
X25050000Y-62800000D03*
%TD*%
%TO.C,REF\u002A\u002A*%
X66425000Y-83000000D03*
%TD*%
%TO.C,REF\u002A\u002A*%
X55175000Y-104800000D03*
%TD*%
D13*
%TO.C,R39*%
X91349000Y-80471666D03*
X93349000Y-80471666D03*
%TD*%
D12*
%TO.C,REF\u002A\u002A*%
X26050000Y-23200000D03*
%TD*%
%TO.C,REF\u002A\u002A*%
X27050000Y-65200000D03*
%TD*%
%TO.C,REF\u002A\u002A*%
X32275000Y-85000000D03*
%TD*%
%TO.C,REF\u002A\u002A*%
X93350000Y-65200000D03*
%TD*%
%TO.C,REF\u002A\u002A*%
X35100000Y-62800000D03*
%TD*%
%TO.C,REF\u002A\u002A*%
X72250000Y-104800000D03*
%TD*%
%TO.C,REF\u002A\u002A*%
X81100000Y-85000000D03*
%TD*%
D13*
%TO.C,R37*%
X74274000Y-88165000D03*
X76274000Y-88165000D03*
%TD*%
D14*
%TO.C,J1*%
X85295000Y-26835000D03*
D15*
X85295000Y-28835000D03*
X85295000Y-30835000D03*
X85295000Y-32835000D03*
X85295000Y-34835000D03*
X85295000Y-36835000D03*
X85295000Y-38835000D03*
X85295000Y-40835000D03*
X85295000Y-42835000D03*
X85295000Y-44835000D03*
X85295000Y-46835000D03*
X85295000Y-48835000D03*
X85295000Y-50835000D03*
X85295000Y-52835000D03*
X85295000Y-54835000D03*
X85295000Y-56835000D03*
X85295000Y-58835000D03*
%TD*%
D12*
%TO.C,REF\u002A\u002A*%
X91350000Y-23200000D03*
%TD*%
D16*
%TO.C,C7*%
X40136500Y-71755800D03*
X42211500Y-71755800D03*
%TD*%
D12*
%TO.C,REF\u002A\u002A*%
X18025000Y-62800000D03*
%TD*%
D13*
%TO.C,R30*%
X57199000Y-76625000D03*
X59199000Y-76625000D03*
%TD*%
D12*
%TO.C,REF\u002A\u002A*%
X32275000Y-42000000D03*
%TD*%
%TO.C,REF\u002A\u002A*%
X83500000Y-42000000D03*
%TD*%
%TO.C,REF\u002A\u002A*%
X83500000Y-44000000D03*
%TD*%
%TO.C,REF\u002A\u002A*%
X49350000Y-84000000D03*
%TD*%
%TO.C,REF\u002A\u002A*%
X26050000Y-62800000D03*
%TD*%
%TO.C,REF\u002A\u002A*%
X23050000Y-65200000D03*
%TD*%
%TO.C,REF\u002A\u002A*%
X77275000Y-62800000D03*
%TD*%
%TO.C,REF\u002A\u002A*%
X69250000Y-23200000D03*
%TD*%
%TO.C,REF\u002A\u002A*%
X90325000Y-65200000D03*
%TD*%
D13*
%TO.C,R28*%
X40124000Y-84318332D03*
X42124000Y-84318332D03*
%TD*%
D12*
%TO.C,REF\u002A\u002A*%
X46950000Y-44000000D03*
%TD*%
%TO.C,REF\u002A\u002A*%
X57200000Y-62800000D03*
%TD*%
%TO.C,REF\u002A\u002A*%
X44125000Y-62800000D03*
%TD*%
%TO.C,REF\u002A\u002A*%
X72250000Y-23200000D03*
%TD*%
D13*
%TO.C,R14*%
X74274000Y-38471666D03*
X76274000Y-38471666D03*
%TD*%
D12*
%TO.C,REF\u002A\u002A*%
X49350000Y-43000000D03*
%TD*%
%TO.C,REF\u002A\u002A*%
X42125000Y-23200000D03*
%TD*%
%TO.C,REF\u002A\u002A*%
X64025000Y-87000000D03*
%TD*%
%TO.C,REF\u002A\u002A*%
X86325000Y-23200000D03*
%TD*%
D13*
%TO.C,R24*%
X23049000Y-84318332D03*
X25049000Y-84318332D03*
%TD*%
D14*
%TO.C,J1*%
X51145000Y-26835000D03*
D15*
X51145000Y-28835000D03*
X51145000Y-30835000D03*
X51145000Y-32835000D03*
X51145000Y-34835000D03*
X51145000Y-36835000D03*
X51145000Y-38835000D03*
X51145000Y-40835000D03*
X51145000Y-42835000D03*
X51145000Y-44835000D03*
X51145000Y-46835000D03*
X51145000Y-48835000D03*
X51145000Y-50835000D03*
X51145000Y-52835000D03*
X51145000Y-54835000D03*
X51145000Y-56835000D03*
X51145000Y-58835000D03*
%TD*%
D12*
%TO.C,REF\u002A\u002A*%
X77275000Y-65200000D03*
%TD*%
%TO.C,REF\u002A\u002A*%
X32275000Y-83000000D03*
%TD*%
D13*
%TO.C,R36*%
X74274000Y-84318332D03*
X76274000Y-84318332D03*
%TD*%
D12*
%TO.C,REF\u002A\u002A*%
X39100000Y-104800000D03*
%TD*%
%TO.C,REF\u002A\u002A*%
X93350000Y-23200000D03*
%TD*%
%TO.C,REF\u002A\u002A*%
X70250000Y-65200000D03*
%TD*%
%TO.C,REF\u002A\u002A*%
X38100000Y-104800000D03*
%TD*%
%TO.C,REF\u002A\u002A*%
X83500000Y-43000000D03*
%TD*%
%TO.C,REF\u002A\u002A*%
X61200000Y-104800000D03*
%TD*%
%TO.C,REF\u002A\u002A*%
X60200000Y-65200000D03*
%TD*%
D13*
%TO.C,R35*%
X74274000Y-80471666D03*
X76274000Y-80471666D03*
%TD*%
%TO.C,R20*%
X91349000Y-42318332D03*
X93349000Y-42318332D03*
%TD*%
%TO.C,R10*%
X57199000Y-38471666D03*
X59199000Y-38471666D03*
%TD*%
%TO.C,R7*%
X40124000Y-42318332D03*
X42124000Y-42318332D03*
%TD*%
%TO.C,R9*%
X57199000Y-34625000D03*
X59199000Y-34625000D03*
%TD*%
%TO.C,R5*%
X40124000Y-34625000D03*
X42124000Y-34625000D03*
%TD*%
D12*
%TO.C,REF\u002A\u002A*%
X52175000Y-23200000D03*
%TD*%
%TO.C,REF\u002A\u002A*%
X88325000Y-104800000D03*
%TD*%
D13*
%TO.C,R12*%
X57199000Y-46165000D03*
X59199000Y-46165000D03*
%TD*%
D12*
%TO.C,REF\u002A\u002A*%
X41125000Y-65200000D03*
%TD*%
%TO.C,REF\u002A\u002A*%
X46950000Y-86000000D03*
%TD*%
D14*
%TO.C,J1*%
X68220000Y-68835000D03*
D15*
X68220000Y-70835000D03*
X68220000Y-72835000D03*
X68220000Y-74835000D03*
X68220000Y-76835000D03*
X68220000Y-78835000D03*
X68220000Y-80835000D03*
X68220000Y-82835000D03*
X68220000Y-84835000D03*
X68220000Y-86835000D03*
X68220000Y-88835000D03*
X68220000Y-90835000D03*
X68220000Y-92835000D03*
X68220000Y-94835000D03*
X68220000Y-96835000D03*
X68220000Y-98835000D03*
X68220000Y-100835000D03*
%TD*%
D12*
%TO.C,REF\u002A\u002A*%
X49350000Y-87000000D03*
%TD*%
%TO.C,REF\u002A\u002A*%
X81100000Y-43000000D03*
%TD*%
%TO.C,REF\u002A\u002A*%
X42125000Y-65200000D03*
%TD*%
%TO.C,REF\u002A\u002A*%
X46950000Y-84000000D03*
%TD*%
%TO.C,REF\u002A\u002A*%
X40125000Y-65200000D03*
%TD*%
D13*
%TO.C,R38*%
X91349000Y-76625000D03*
X93349000Y-76625000D03*
%TD*%
D12*
%TO.C,REF\u002A\u002A*%
X73250000Y-65200000D03*
%TD*%
%TO.C,REF\u002A\u002A*%
X89325000Y-62800000D03*
%TD*%
%TO.C,REF\u002A\u002A*%
X95350000Y-62800000D03*
%TD*%
%TO.C,REF\u002A\u002A*%
X39100000Y-65200000D03*
%TD*%
%TO.C,REF\u002A\u002A*%
X42125000Y-104800000D03*
%TD*%
%TO.C,REF\u002A\u002A*%
X49350000Y-83000000D03*
%TD*%
%TO.C,REF\u002A\u002A*%
X43125000Y-104800000D03*
%TD*%
%TO.C,REF\u002A\u002A*%
X66425000Y-87000000D03*
%TD*%
%TO.C,REF\u002A\u002A*%
X77275000Y-23200000D03*
%TD*%
%TO.C,REF\u002A\u002A*%
X64025000Y-84000000D03*
%TD*%
%TO.C,REF\u002A\u002A*%
X70250000Y-104800000D03*
%TD*%
%TO.C,REF\u002A\u002A*%
X29875000Y-85000000D03*
%TD*%
%TO.C,REF\u002A\u002A*%
X81100000Y-42000000D03*
%TD*%
%TO.C,REF\u002A\u002A*%
X74275000Y-104800000D03*
%TD*%
%TO.C,REF\u002A\u002A*%
X66425000Y-85000000D03*
%TD*%
D13*
%TO.C,R26*%
X40124000Y-76625000D03*
X42124000Y-76625000D03*
%TD*%
D12*
%TO.C,REF\u002A\u002A*%
X49350000Y-85000000D03*
%TD*%
D13*
%TO.C,R21*%
X91349000Y-46165000D03*
X93349000Y-46165000D03*
%TD*%
D16*
%TO.C,C10*%
X91361500Y-71755800D03*
X93436500Y-71755800D03*
%TD*%
%TO.C,C4*%
X74286500Y-29755800D03*
X76361500Y-29755800D03*
%TD*%
D12*
%TO.C,REF\u002A\u002A*%
X44125000Y-23200000D03*
%TD*%
%TO.C,REF\u002A\u002A*%
X77275000Y-104800000D03*
%TD*%
%TO.C,REF\u002A\u002A*%
X64025000Y-85000000D03*
%TD*%
%TO.C,REF\u002A\u002A*%
X27050000Y-104800000D03*
%TD*%
D16*
%TO.C,C2*%
X40136500Y-29755800D03*
X42211500Y-29755800D03*
%TD*%
D12*
%TO.C,REF\u002A\u002A*%
X75275000Y-23200000D03*
%TD*%
%TO.C,REF\u002A\u002A*%
X91350000Y-65200000D03*
%TD*%
%TO.C,REF\u002A\u002A*%
X53175000Y-62800000D03*
%TD*%
%TO.C,REF\u002A\u002A*%
X64025000Y-83000000D03*
%TD*%
%TO.C,REF\u002A\u002A*%
X89325000Y-23200000D03*
%TD*%
%TO.C,REF\u002A\u002A*%
X83500000Y-45000000D03*
%TD*%
%TO.C,REF\u002A\u002A*%
X59200000Y-23200000D03*
%TD*%
D13*
%TO.C,R6*%
X40124000Y-38471666D03*
X42124000Y-38471666D03*
%TD*%
D12*
%TO.C,REF\u002A\u002A*%
X23050000Y-104800000D03*
%TD*%
%TO.C,REF\u002A\u002A*%
X53175000Y-65200000D03*
%TD*%
%TO.C,REF\u002A\u002A*%
X66425000Y-42000000D03*
%TD*%
%TO.C,REF\u002A\u002A*%
X25050000Y-104800000D03*
%TD*%
%TO.C,REF\u002A\u002A*%
X69250000Y-104800000D03*
%TD*%
%TO.C,REF\u002A\u002A*%
X20025000Y-65200000D03*
%TD*%
%TO.C,REF\u002A\u002A*%
X81100000Y-45000000D03*
%TD*%
%TO.C,REF\u002A\u002A*%
X86325000Y-62800000D03*
%TD*%
D13*
%TO.C,R29*%
X40124000Y-88165000D03*
X42124000Y-88165000D03*
%TD*%
D12*
%TO.C,REF\u002A\u002A*%
X43125000Y-23200000D03*
%TD*%
%TO.C,REF\u002A\u002A*%
X64025000Y-42000000D03*
%TD*%
%TO.C,REF\u002A\u002A*%
X59200000Y-62800000D03*
%TD*%
%TO.C,REF\u002A\u002A*%
X75275000Y-104800000D03*
%TD*%
%TO.C,REF\u002A\u002A*%
X58200000Y-104800000D03*
%TD*%
D13*
%TO.C,R33*%
X57199000Y-88165000D03*
X59199000Y-88165000D03*
%TD*%
D12*
%TO.C,REF\u002A\u002A*%
X40125000Y-23200000D03*
%TD*%
%TO.C,REF\u002A\u002A*%
X61200000Y-62800000D03*
%TD*%
D13*
%TO.C,R1*%
X23049000Y-46165000D03*
X25049000Y-46165000D03*
%TD*%
D12*
%TO.C,REF\u002A\u002A*%
X89325000Y-65200000D03*
%TD*%
%TO.C,REF\u002A\u002A*%
X58200000Y-23200000D03*
%TD*%
%TO.C,REF\u002A\u002A*%
X93350000Y-62800000D03*
%TD*%
%TO.C,REF\u002A\u002A*%
X36100000Y-104800000D03*
%TD*%
D13*
%TO.C,R23*%
X23049000Y-80471666D03*
X25049000Y-80471666D03*
%TD*%
D12*
%TO.C,REF\u002A\u002A*%
X66425000Y-44000000D03*
%TD*%
%TO.C,REF\u002A\u002A*%
X43125000Y-62800000D03*
%TD*%
%TO.C,REF\u002A\u002A*%
X32275000Y-43000000D03*
%TD*%
%TO.C,REF\u002A\u002A*%
X25050000Y-65200000D03*
%TD*%
%TO.C,REF\u002A\u002A*%
X71250000Y-65200000D03*
%TD*%
%TO.C,REF\u002A\u002A*%
X72250000Y-65200000D03*
%TD*%
%TO.C,REF\u002A\u002A*%
X55175000Y-65200000D03*
%TD*%
%TO.C,REF\u002A\u002A*%
X91350000Y-62800000D03*
%TD*%
%TO.C,REF\u002A\u002A*%
X70250000Y-62800000D03*
%TD*%
%TO.C,REF\u002A\u002A*%
X37100000Y-65200000D03*
%TD*%
%TO.C,REF\u002A\u002A*%
X78275000Y-62800000D03*
%TD*%
%TO.C,REF\u002A\u002A*%
X73250000Y-104800000D03*
%TD*%
%TO.C,REF\u002A\u002A*%
X41125000Y-23200000D03*
%TD*%
%TO.C,REF\u002A\u002A*%
X94350000Y-65200000D03*
%TD*%
%TO.C,REF\u002A\u002A*%
X75275000Y-65200000D03*
%TD*%
D13*
%TO.C,R17*%
X74274000Y-46165000D03*
X76274000Y-46165000D03*
%TD*%
D12*
%TO.C,REF\u002A\u002A*%
X55175000Y-23200000D03*
%TD*%
%TO.C,REF\u002A\u002A*%
X92350000Y-23200000D03*
%TD*%
%TO.C,REF\u002A\u002A*%
X69250000Y-65200000D03*
%TD*%
%TO.C,REF\u002A\u002A*%
X40125000Y-104800000D03*
%TD*%
%TO.C,REF\u002A\u002A*%
X32275000Y-87000000D03*
%TD*%
%TO.C,REF\u002A\u002A*%
X86325000Y-65200000D03*
%TD*%
%TO.C,REF\u002A\u002A*%
X46950000Y-87000000D03*
%TD*%
%TO.C,REF\u002A\u002A*%
X49350000Y-44000000D03*
%TD*%
%TO.C,REF\u002A\u002A*%
X56175000Y-104800000D03*
%TD*%
D13*
%TO.C,R32*%
X57199000Y-84318332D03*
X59199000Y-84318332D03*
%TD*%
D12*
%TO.C,REF\u002A\u002A*%
X95350000Y-23200000D03*
%TD*%
%TO.C,REF\u002A\u002A*%
X38100000Y-62800000D03*
%TD*%
%TO.C,REF\u002A\u002A*%
X74275000Y-65200000D03*
%TD*%
%TO.C,REF\u002A\u002A*%
X70250000Y-23200000D03*
%TD*%
%TO.C,REF\u002A\u002A*%
X87325000Y-23200000D03*
%TD*%
%TO.C,REF\u002A\u002A*%
X44125000Y-104800000D03*
%TD*%
%TO.C,REF\u002A\u002A*%
X46950000Y-85000000D03*
%TD*%
%TO.C,REF\u002A\u002A*%
X66425000Y-41000000D03*
%TD*%
%TO.C,REF\u002A\u002A*%
X46950000Y-43000000D03*
%TD*%
%TO.C,REF\u002A\u002A*%
X71250000Y-23200000D03*
%TD*%
%TO.C,REF\u002A\u002A*%
X19025000Y-62800000D03*
%TD*%
%TO.C,REF\u002A\u002A*%
X71250000Y-62800000D03*
%TD*%
%TO.C,REF\u002A\u002A*%
X18025000Y-23200000D03*
%TD*%
%TO.C,REF\u002A\u002A*%
X22025000Y-62800000D03*
%TD*%
%TO.C,REF\u002A\u002A*%
X37100000Y-104800000D03*
%TD*%
D13*
%TO.C,R25*%
X23049000Y-88165000D03*
X25049000Y-88165000D03*
%TD*%
%TO.C,R8*%
X40124000Y-46165000D03*
X42124000Y-46165000D03*
%TD*%
D12*
%TO.C,REF\u002A\u002A*%
X20025000Y-23200000D03*
%TD*%
%TO.C,REF\u002A\u002A*%
X83500000Y-87000000D03*
%TD*%
%TO.C,REF\u002A\u002A*%
X94350000Y-23200000D03*
%TD*%
D13*
%TO.C,R13*%
X74274000Y-34625000D03*
X76274000Y-34625000D03*
%TD*%
D12*
%TO.C,REF\u002A\u002A*%
X58200000Y-65200000D03*
%TD*%
%TO.C,REF\u002A\u002A*%
X21025000Y-65200000D03*
%TD*%
%TO.C,REF\u002A\u002A*%
X53175000Y-104800000D03*
%TD*%
%TO.C,REF\u002A\u002A*%
X38100000Y-65200000D03*
%TD*%
%TO.C,REF\u002A\u002A*%
X22025000Y-104800000D03*
%TD*%
%TO.C,REF\u002A\u002A*%
X90325000Y-23200000D03*
%TD*%
%TO.C,REF\u002A\u002A*%
X74275000Y-23200000D03*
%TD*%
%TO.C,REF\u002A\u002A*%
X94350000Y-104800000D03*
%TD*%
%TO.C,REF\u002A\u002A*%
X46950000Y-42000000D03*
%TD*%
%TO.C,REF\u002A\u002A*%
X21025000Y-23200000D03*
%TD*%
%TO.C,REF\u002A\u002A*%
X46950000Y-45000000D03*
%TD*%
%TO.C,REF\u002A\u002A*%
X43125000Y-65200000D03*
%TD*%
D13*
%TO.C,R3*%
X23049000Y-42318332D03*
X25049000Y-42318332D03*
%TD*%
D12*
%TO.C,REF\u002A\u002A*%
X26050000Y-65200000D03*
%TD*%
%TO.C,REF\u002A\u002A*%
X66425000Y-86000000D03*
%TD*%
%TO.C,REF\u002A\u002A*%
X66425000Y-45000000D03*
%TD*%
%TO.C,REF\u002A\u002A*%
X59200000Y-65200000D03*
%TD*%
%TO.C,REF\u002A\u002A*%
X76275000Y-23200000D03*
%TD*%
%TO.C,REF\u002A\u002A*%
X72250000Y-62800000D03*
%TD*%
D13*
%TO.C,R4*%
X23049000Y-34625000D03*
X25049000Y-34625000D03*
%TD*%
D12*
%TO.C,REF\u002A\u002A*%
X20025000Y-62800000D03*
%TD*%
%TO.C,REF\u002A\u002A*%
X87325000Y-62800000D03*
%TD*%
%TO.C,REF\u002A\u002A*%
X54175000Y-104800000D03*
%TD*%
%TO.C,REF\u002A\u002A*%
X76275000Y-104800000D03*
%TD*%
%TO.C,REF\u002A\u002A*%
X81100000Y-44000000D03*
%TD*%
%TO.C,REF\u002A\u002A*%
X25050000Y-23200000D03*
%TD*%
%TO.C,REF\u002A\u002A*%
X54175000Y-23200000D03*
%TD*%
%TO.C,REF\u002A\u002A*%
X92350000Y-62800000D03*
%TD*%
%TO.C,REF\u002A\u002A*%
X22025000Y-65200000D03*
%TD*%
D16*
%TO.C,C3*%
X57211500Y-29755800D03*
X59286500Y-29755800D03*
%TD*%
D12*
%TO.C,REF\u002A\u002A*%
X57200000Y-65200000D03*
%TD*%
D14*
%TO.C,J1*%
X34070000Y-68835000D03*
D15*
X34070000Y-70835000D03*
X34070000Y-72835000D03*
X34070000Y-74835000D03*
X34070000Y-76835000D03*
X34070000Y-78835000D03*
X34070000Y-80835000D03*
X34070000Y-82835000D03*
X34070000Y-84835000D03*
X34070000Y-86835000D03*
X34070000Y-88835000D03*
X34070000Y-90835000D03*
X34070000Y-92835000D03*
X34070000Y-94835000D03*
X34070000Y-96835000D03*
X34070000Y-98835000D03*
X34070000Y-100835000D03*
%TD*%
D12*
%TO.C,REF\u002A\u002A*%
X49350000Y-42000000D03*
%TD*%
%TO.C,REF\u002A\u002A*%
X88325000Y-65200000D03*
%TD*%
%TO.C,REF\u002A\u002A*%
X29875000Y-84000000D03*
%TD*%
%TO.C,REF\u002A\u002A*%
X81100000Y-84000000D03*
%TD*%
%TO.C,REF\u002A\u002A*%
X29875000Y-43000000D03*
%TD*%
D13*
%TO.C,R19*%
X91349000Y-38471666D03*
X93349000Y-38471666D03*
%TD*%
D12*
%TO.C,REF\u002A\u002A*%
X64025000Y-44000000D03*
%TD*%
D13*
%TO.C,R40*%
X91349000Y-84318332D03*
X93349000Y-84318332D03*
%TD*%
D12*
%TO.C,REF\u002A\u002A*%
X89325000Y-104800000D03*
%TD*%
%TO.C,REF\u002A\u002A*%
X24050000Y-65200000D03*
%TD*%
%TO.C,REF\u002A\u002A*%
X66425000Y-84000000D03*
%TD*%
D17*
%TO.C,J2*%
X71080000Y-68835000D03*
D18*
X71080000Y-70835000D03*
X71080000Y-72835000D03*
X71080000Y-74835000D03*
X71080000Y-76835000D03*
X71080000Y-78835000D03*
X71080000Y-80835000D03*
X71080000Y-82835000D03*
X71080000Y-84835000D03*
X71080000Y-86835000D03*
X71080000Y-88835000D03*
X71080000Y-90835000D03*
X71080000Y-92835000D03*
X71080000Y-94835000D03*
X71080000Y-96835000D03*
X71080000Y-98835000D03*
X71080000Y-100835000D03*
%TD*%
D17*
%TO.C,J2*%
X88155000Y-68835000D03*
D18*
X88155000Y-70835000D03*
X88155000Y-72835000D03*
X88155000Y-74835000D03*
X88155000Y-76835000D03*
X88155000Y-78835000D03*
X88155000Y-80835000D03*
X88155000Y-82835000D03*
X88155000Y-84835000D03*
X88155000Y-86835000D03*
X88155000Y-88835000D03*
X88155000Y-90835000D03*
X88155000Y-92835000D03*
X88155000Y-94835000D03*
X88155000Y-96835000D03*
X88155000Y-98835000D03*
X88155000Y-100835000D03*
%TD*%
D17*
%TO.C,J2*%
X36930000Y-26835000D03*
D18*
X36930000Y-28835000D03*
X36930000Y-30835000D03*
X36930000Y-32835000D03*
X36930000Y-34835000D03*
X36930000Y-36835000D03*
X36930000Y-38835000D03*
X36930000Y-40835000D03*
X36930000Y-42835000D03*
X36930000Y-44835000D03*
X36930000Y-46835000D03*
X36930000Y-48835000D03*
X36930000Y-50835000D03*
X36930000Y-52835000D03*
X36930000Y-54835000D03*
X36930000Y-56835000D03*
X36930000Y-58835000D03*
%TD*%
D19*
%TO.C,J3*%
X27815000Y-93825000D03*
D20*
X27815000Y-91825000D03*
X27815000Y-89825000D03*
X27815000Y-87825000D03*
X27815000Y-85825000D03*
X27815000Y-83825000D03*
X27815000Y-81825000D03*
X27815000Y-79825000D03*
X27815000Y-77825000D03*
X27815000Y-75825000D03*
%TD*%
D19*
%TO.C,J3*%
X79040000Y-93825000D03*
D20*
X79040000Y-91825000D03*
X79040000Y-89825000D03*
X79040000Y-87825000D03*
X79040000Y-85825000D03*
X79040000Y-83825000D03*
X79040000Y-81825000D03*
X79040000Y-79825000D03*
X79040000Y-77825000D03*
X79040000Y-75825000D03*
%TD*%
D19*
%TO.C,J3*%
X44890000Y-51825000D03*
D20*
X44890000Y-49825000D03*
X44890000Y-47825000D03*
X44890000Y-45825000D03*
X44890000Y-43825000D03*
X44890000Y-41825000D03*
X44890000Y-39825000D03*
X44890000Y-37825000D03*
X44890000Y-35825000D03*
X44890000Y-33825000D03*
%TD*%
D19*
%TO.C,J3*%
X61965000Y-93825000D03*
D20*
X61965000Y-91825000D03*
X61965000Y-89825000D03*
X61965000Y-87825000D03*
X61965000Y-85825000D03*
X61965000Y-83825000D03*
X61965000Y-81825000D03*
X61965000Y-79825000D03*
X61965000Y-77825000D03*
X61965000Y-75825000D03*
%TD*%
D17*
%TO.C,J2*%
X71080000Y-26835000D03*
D18*
X71080000Y-28835000D03*
X71080000Y-30835000D03*
X71080000Y-32835000D03*
X71080000Y-34835000D03*
X71080000Y-36835000D03*
X71080000Y-38835000D03*
X71080000Y-40835000D03*
X71080000Y-42835000D03*
X71080000Y-44835000D03*
X71080000Y-46835000D03*
X71080000Y-48835000D03*
X71080000Y-50835000D03*
X71080000Y-52835000D03*
X71080000Y-54835000D03*
X71080000Y-56835000D03*
X71080000Y-58835000D03*
%TD*%
D17*
%TO.C,J2*%
X54005000Y-26835000D03*
D18*
X54005000Y-28835000D03*
X54005000Y-30835000D03*
X54005000Y-32835000D03*
X54005000Y-34835000D03*
X54005000Y-36835000D03*
X54005000Y-38835000D03*
X54005000Y-40835000D03*
X54005000Y-42835000D03*
X54005000Y-44835000D03*
X54005000Y-46835000D03*
X54005000Y-48835000D03*
X54005000Y-50835000D03*
X54005000Y-52835000D03*
X54005000Y-54835000D03*
X54005000Y-56835000D03*
X54005000Y-58835000D03*
%TD*%
D19*
%TO.C,J3*%
X61965000Y-51825000D03*
D20*
X61965000Y-49825000D03*
X61965000Y-47825000D03*
X61965000Y-45825000D03*
X61965000Y-43825000D03*
X61965000Y-41825000D03*
X61965000Y-39825000D03*
X61965000Y-37825000D03*
X61965000Y-35825000D03*
X61965000Y-33825000D03*
%TD*%
D19*
%TO.C,J3*%
X44890000Y-93825000D03*
D20*
X44890000Y-91825000D03*
X44890000Y-89825000D03*
X44890000Y-87825000D03*
X44890000Y-85825000D03*
X44890000Y-83825000D03*
X44890000Y-81825000D03*
X44890000Y-79825000D03*
X44890000Y-77825000D03*
X44890000Y-75825000D03*
%TD*%
D19*
%TO.C,J3*%
X27815000Y-51825000D03*
D20*
X27815000Y-49825000D03*
X27815000Y-47825000D03*
X27815000Y-45825000D03*
X27815000Y-43825000D03*
X27815000Y-41825000D03*
X27815000Y-39825000D03*
X27815000Y-37825000D03*
X27815000Y-35825000D03*
X27815000Y-33825000D03*
%TD*%
D19*
%TO.C,J3*%
X96115000Y-93825000D03*
D20*
X96115000Y-91825000D03*
X96115000Y-89825000D03*
X96115000Y-87825000D03*
X96115000Y-85825000D03*
X96115000Y-83825000D03*
X96115000Y-81825000D03*
X96115000Y-79825000D03*
X96115000Y-77825000D03*
X96115000Y-75825000D03*
%TD*%
D19*
%TO.C,J3*%
X96115000Y-51825000D03*
D20*
X96115000Y-49825000D03*
X96115000Y-47825000D03*
X96115000Y-45825000D03*
X96115000Y-43825000D03*
X96115000Y-41825000D03*
X96115000Y-39825000D03*
X96115000Y-37825000D03*
X96115000Y-35825000D03*
X96115000Y-33825000D03*
%TD*%
D17*
%TO.C,J2*%
X19855000Y-68835000D03*
D18*
X19855000Y-70835000D03*
X19855000Y-72835000D03*
X19855000Y-74835000D03*
X19855000Y-76835000D03*
X19855000Y-78835000D03*
X19855000Y-80835000D03*
X19855000Y-82835000D03*
X19855000Y-84835000D03*
X19855000Y-86835000D03*
X19855000Y-88835000D03*
X19855000Y-90835000D03*
X19855000Y-92835000D03*
X19855000Y-94835000D03*
X19855000Y-96835000D03*
X19855000Y-98835000D03*
X19855000Y-100835000D03*
%TD*%
D19*
%TO.C,J3*%
X79040000Y-51825000D03*
D20*
X79040000Y-49825000D03*
X79040000Y-47825000D03*
X79040000Y-45825000D03*
X79040000Y-43825000D03*
X79040000Y-41825000D03*
X79040000Y-39825000D03*
X79040000Y-37825000D03*
X79040000Y-35825000D03*
X79040000Y-33825000D03*
%TD*%
D17*
%TO.C,J2*%
X36930000Y-68835000D03*
D18*
X36930000Y-70835000D03*
X36930000Y-72835000D03*
X36930000Y-74835000D03*
X36930000Y-76835000D03*
X36930000Y-78835000D03*
X36930000Y-80835000D03*
X36930000Y-82835000D03*
X36930000Y-84835000D03*
X36930000Y-86835000D03*
X36930000Y-88835000D03*
X36930000Y-90835000D03*
X36930000Y-92835000D03*
X36930000Y-94835000D03*
X36930000Y-96835000D03*
X36930000Y-98835000D03*
X36930000Y-100835000D03*
%TD*%
D17*
%TO.C,J2*%
X54005000Y-68835000D03*
D18*
X54005000Y-70835000D03*
X54005000Y-72835000D03*
X54005000Y-74835000D03*
X54005000Y-76835000D03*
X54005000Y-78835000D03*
X54005000Y-80835000D03*
X54005000Y-82835000D03*
X54005000Y-84835000D03*
X54005000Y-86835000D03*
X54005000Y-88835000D03*
X54005000Y-90835000D03*
X54005000Y-92835000D03*
X54005000Y-94835000D03*
X54005000Y-96835000D03*
X54005000Y-98835000D03*
X54005000Y-100835000D03*
%TD*%
D17*
%TO.C,J2*%
X19855000Y-26835000D03*
D18*
X19855000Y-28835000D03*
X19855000Y-30835000D03*
X19855000Y-32835000D03*
X19855000Y-34835000D03*
X19855000Y-36835000D03*
X19855000Y-38835000D03*
X19855000Y-40835000D03*
X19855000Y-42835000D03*
X19855000Y-44835000D03*
X19855000Y-46835000D03*
X19855000Y-48835000D03*
X19855000Y-50835000D03*
X19855000Y-52835000D03*
X19855000Y-54835000D03*
X19855000Y-56835000D03*
X19855000Y-58835000D03*
%TD*%
D17*
%TO.C,J2*%
X88155000Y-26835000D03*
D18*
X88155000Y-28835000D03*
X88155000Y-30835000D03*
X88155000Y-32835000D03*
X88155000Y-34835000D03*
X88155000Y-36835000D03*
X88155000Y-38835000D03*
X88155000Y-40835000D03*
X88155000Y-42835000D03*
X88155000Y-44835000D03*
X88155000Y-46835000D03*
X88155000Y-48835000D03*
X88155000Y-50835000D03*
X88155000Y-52835000D03*
X88155000Y-54835000D03*
X88155000Y-56835000D03*
X88155000Y-58835000D03*
%TD*%
D21*
X22220200Y-43903600D03*
X21763000Y-36664600D03*
X29095000Y-31315000D03*
X27065000Y-30525000D03*
X22035000Y-32395000D03*
X23395000Y-32885000D03*
X25075000Y-32945000D03*
X39295200Y-43903600D03*
X38838000Y-36664600D03*
X42150000Y-32945000D03*
X44140000Y-30525000D03*
X39110000Y-32395000D03*
X46170000Y-31315000D03*
X40470000Y-32885000D03*
X56370200Y-43903600D03*
X55913000Y-36664600D03*
X56185000Y-32395000D03*
X61215000Y-30525000D03*
X59225000Y-32945000D03*
X57545000Y-32885000D03*
X63245000Y-31315000D03*
X73445200Y-43903600D03*
X72988000Y-36664600D03*
X80320000Y-31315000D03*
X74620000Y-32885000D03*
X78290000Y-30525000D03*
X76300000Y-32945000D03*
X73260000Y-32395000D03*
X90520200Y-43903600D03*
X90063000Y-36664600D03*
X90335000Y-32395000D03*
X97395000Y-31315000D03*
X95365000Y-30525000D03*
X91695000Y-32885000D03*
X93375000Y-32945000D03*
X22220200Y-85903600D03*
X21763000Y-78664600D03*
X22035000Y-74395000D03*
X29095000Y-73315000D03*
X25075000Y-74945000D03*
X23395000Y-74885000D03*
X27065000Y-72525000D03*
X39295200Y-85903600D03*
X38838000Y-78664600D03*
X42150000Y-74945000D03*
X46170000Y-73315000D03*
X40470000Y-74885000D03*
X39110000Y-74395000D03*
X44140000Y-72525000D03*
X56370200Y-85903600D03*
X55913000Y-78664600D03*
X61215000Y-72525000D03*
X59225000Y-74945000D03*
X57545000Y-74885000D03*
X63245000Y-73315000D03*
X56185000Y-74395000D03*
X73445200Y-85903600D03*
X72988000Y-78664600D03*
X78290000Y-72525000D03*
X80320000Y-73315000D03*
X76300000Y-74945000D03*
X74620000Y-74885000D03*
X73260000Y-74395000D03*
X90520200Y-85903600D03*
X90063000Y-78664600D03*
X90335000Y-74395000D03*
X95365000Y-72525000D03*
X91695000Y-74885000D03*
X93375000Y-74945000D03*
X97395000Y-73315000D03*
M02*
