G04 #@! TF.GenerationSoftware,KiCad,Pcbnew,(6.0.1)*
G04 #@! TF.CreationDate,2022-07-05T00:40:55-07:00*
G04 #@! TF.ProjectId,mu100-dit-connector-board,6d753130-302d-4646-9974-2d636f6e6e65,rev?*
G04 #@! TF.SameCoordinates,PX4a615b8PY2b4db18*
G04 #@! TF.FileFunction,Legend,Top*
G04 #@! TF.FilePolarity,Positive*
%FSLAX46Y46*%
G04 Gerber Fmt 4.6, Leading zero omitted, Abs format (unit mm)*
G04 Created by KiCad (PCBNEW (6.0.1)) date 2022-07-05 00:40:55*
%MOMM*%
%LPD*%
G01*
G04 APERTURE LIST*
%ADD10C,0.125000*%
%ADD11C,0.150000*%
%ADD12C,0.120000*%
G04 APERTURE END LIST*
D10*
X14517714Y-27766657D02*
X14517714Y-27385704D01*
X14708190Y-27576180D02*
X14327238Y-27576180D01*
X14208190Y-26909514D02*
X14208190Y-27147609D01*
X14446285Y-27171419D01*
X14422476Y-27147609D01*
X14398666Y-27099990D01*
X14398666Y-26980942D01*
X14422476Y-26933323D01*
X14446285Y-26909514D01*
X14493904Y-26885704D01*
X14612952Y-26885704D01*
X14660571Y-26909514D01*
X14684380Y-26933323D01*
X14708190Y-26980942D01*
X14708190Y-27099990D01*
X14684380Y-27147609D01*
X14660571Y-27171419D01*
X14208190Y-26742847D02*
X14708190Y-26576180D01*
X14208190Y-26409514D01*
D11*
X7070714Y-37531190D02*
X7880238Y-37531190D01*
X7975476Y-37578809D01*
X8023095Y-37626428D01*
X8070714Y-37721666D01*
X8070714Y-37864523D01*
X8023095Y-37959761D01*
X7689761Y-37531190D02*
X7737380Y-37626428D01*
X7737380Y-37816904D01*
X7689761Y-37912142D01*
X7642142Y-37959761D01*
X7546904Y-38007380D01*
X7261190Y-38007380D01*
X7165952Y-37959761D01*
X7118333Y-37912142D01*
X7070714Y-37816904D01*
X7070714Y-37626428D01*
X7118333Y-37531190D01*
X7737380Y-37055000D02*
X7070714Y-37055000D01*
X6737380Y-37055000D02*
X6785000Y-37102619D01*
X6832619Y-37055000D01*
X6785000Y-37007380D01*
X6737380Y-37055000D01*
X6832619Y-37055000D01*
X7070714Y-36721666D02*
X7070714Y-36340714D01*
X6737380Y-36578809D02*
X7594523Y-36578809D01*
X7689761Y-36531190D01*
X7737380Y-36435952D01*
X7737380Y-36340714D01*
X7737380Y-36007380D02*
X6737380Y-36007380D01*
X7737380Y-35578809D02*
X7213571Y-35578809D01*
X7118333Y-35626428D01*
X7070714Y-35721666D01*
X7070714Y-35864523D01*
X7118333Y-35959761D01*
X7165952Y-36007380D01*
X7070714Y-34674047D02*
X7737380Y-34674047D01*
X7070714Y-35102619D02*
X7594523Y-35102619D01*
X7689761Y-35055000D01*
X7737380Y-34959761D01*
X7737380Y-34816904D01*
X7689761Y-34721666D01*
X7642142Y-34674047D01*
X7737380Y-34197857D02*
X6737380Y-34197857D01*
X7118333Y-34197857D02*
X7070714Y-34102619D01*
X7070714Y-33912142D01*
X7118333Y-33816904D01*
X7165952Y-33769285D01*
X7261190Y-33721666D01*
X7546904Y-33721666D01*
X7642142Y-33769285D01*
X7689761Y-33816904D01*
X7737380Y-33912142D01*
X7737380Y-34102619D01*
X7689761Y-34197857D01*
X7642142Y-33293095D02*
X7689761Y-33245476D01*
X7737380Y-33293095D01*
X7689761Y-33340714D01*
X7642142Y-33293095D01*
X7737380Y-33293095D01*
X7689761Y-32388333D02*
X7737380Y-32483571D01*
X7737380Y-32674047D01*
X7689761Y-32769285D01*
X7642142Y-32816904D01*
X7546904Y-32864523D01*
X7261190Y-32864523D01*
X7165952Y-32816904D01*
X7118333Y-32769285D01*
X7070714Y-32674047D01*
X7070714Y-32483571D01*
X7118333Y-32388333D01*
X7737380Y-31816904D02*
X7689761Y-31912142D01*
X7642142Y-31959761D01*
X7546904Y-32007380D01*
X7261190Y-32007380D01*
X7165952Y-31959761D01*
X7118333Y-31912142D01*
X7070714Y-31816904D01*
X7070714Y-31674047D01*
X7118333Y-31578809D01*
X7165952Y-31531190D01*
X7261190Y-31483571D01*
X7546904Y-31483571D01*
X7642142Y-31531190D01*
X7689761Y-31578809D01*
X7737380Y-31674047D01*
X7737380Y-31816904D01*
X7737380Y-31055000D02*
X7070714Y-31055000D01*
X7165952Y-31055000D02*
X7118333Y-31007380D01*
X7070714Y-30912142D01*
X7070714Y-30769285D01*
X7118333Y-30674047D01*
X7213571Y-30626428D01*
X7737380Y-30626428D01*
X7213571Y-30626428D02*
X7118333Y-30578809D01*
X7070714Y-30483571D01*
X7070714Y-30340714D01*
X7118333Y-30245476D01*
X7213571Y-30197857D01*
X7737380Y-30197857D01*
X6689761Y-29007380D02*
X7975476Y-29864523D01*
X8680714Y-37150238D02*
X9347380Y-37150238D01*
X8775952Y-37150238D02*
X8728333Y-37102619D01*
X8680714Y-37007380D01*
X8680714Y-36864523D01*
X8728333Y-36769285D01*
X8823571Y-36721666D01*
X9347380Y-36721666D01*
X9347380Y-36245476D02*
X8680714Y-36245476D01*
X8347380Y-36245476D02*
X8395000Y-36293095D01*
X8442619Y-36245476D01*
X8395000Y-36197857D01*
X8347380Y-36245476D01*
X8442619Y-36245476D01*
X9347380Y-35769285D02*
X8347380Y-35769285D01*
X8966428Y-35674047D02*
X9347380Y-35388333D01*
X8680714Y-35388333D02*
X9061666Y-35769285D01*
X9347380Y-34959761D02*
X8680714Y-34959761D01*
X8347380Y-34959761D02*
X8395000Y-35007380D01*
X8442619Y-34959761D01*
X8395000Y-34912142D01*
X8347380Y-34959761D01*
X8442619Y-34959761D01*
X8680714Y-34626428D02*
X8680714Y-34245476D01*
X8347380Y-34483571D02*
X9204523Y-34483571D01*
X9299761Y-34435952D01*
X9347380Y-34340714D01*
X9347380Y-34245476D01*
X9347380Y-33483571D02*
X8823571Y-33483571D01*
X8728333Y-33531190D01*
X8680714Y-33626428D01*
X8680714Y-33816904D01*
X8728333Y-33912142D01*
X9299761Y-33483571D02*
X9347380Y-33578809D01*
X9347380Y-33816904D01*
X9299761Y-33912142D01*
X9204523Y-33959761D01*
X9109285Y-33959761D01*
X9014047Y-33912142D01*
X8966428Y-33816904D01*
X8966428Y-33578809D01*
X8918809Y-33483571D01*
X9347380Y-32864523D02*
X9299761Y-32959761D01*
X9204523Y-33007380D01*
X8347380Y-33007380D01*
X9347380Y-32483571D02*
X8680714Y-32483571D01*
X8347380Y-32483571D02*
X8395000Y-32531190D01*
X8442619Y-32483571D01*
X8395000Y-32435952D01*
X8347380Y-32483571D01*
X8442619Y-32483571D01*
X8680714Y-32150238D02*
X8680714Y-31769285D01*
X8347380Y-32007380D02*
X9204523Y-32007380D01*
X9299761Y-31959761D01*
X9347380Y-31864523D01*
X9347380Y-31769285D01*
X9347380Y-31007380D02*
X8823571Y-31007380D01*
X8728333Y-31055000D01*
X8680714Y-31150238D01*
X8680714Y-31340714D01*
X8728333Y-31435952D01*
X9299761Y-31007380D02*
X9347380Y-31102619D01*
X9347380Y-31340714D01*
X9299761Y-31435952D01*
X9204523Y-31483571D01*
X9109285Y-31483571D01*
X9014047Y-31435952D01*
X8966428Y-31340714D01*
X8966428Y-31102619D01*
X8918809Y-31007380D01*
X8299761Y-29816904D02*
X9585476Y-30674047D01*
X10957380Y-37578809D02*
X9957380Y-37578809D01*
X10671666Y-37245476D01*
X9957380Y-36912142D01*
X10957380Y-36912142D01*
X9957380Y-36435952D02*
X10766904Y-36435952D01*
X10862142Y-36388333D01*
X10909761Y-36340714D01*
X10957380Y-36245476D01*
X10957380Y-36055000D01*
X10909761Y-35959761D01*
X10862142Y-35912142D01*
X10766904Y-35864523D01*
X9957380Y-35864523D01*
X10957380Y-34864523D02*
X10957380Y-35435952D01*
X10957380Y-35150238D02*
X9957380Y-35150238D01*
X10100238Y-35245476D01*
X10195476Y-35340714D01*
X10243095Y-35435952D01*
X9957380Y-34245476D02*
X9957380Y-34150238D01*
X10005000Y-34055000D01*
X10052619Y-34007380D01*
X10147857Y-33959761D01*
X10338333Y-33912142D01*
X10576428Y-33912142D01*
X10766904Y-33959761D01*
X10862142Y-34007380D01*
X10909761Y-34055000D01*
X10957380Y-34150238D01*
X10957380Y-34245476D01*
X10909761Y-34340714D01*
X10862142Y-34388333D01*
X10766904Y-34435952D01*
X10576428Y-34483571D01*
X10338333Y-34483571D01*
X10147857Y-34435952D01*
X10052619Y-34388333D01*
X10005000Y-34340714D01*
X9957380Y-34245476D01*
X9957380Y-33293095D02*
X9957380Y-33197857D01*
X10005000Y-33102619D01*
X10052619Y-33055000D01*
X10147857Y-33007380D01*
X10338333Y-32959761D01*
X10576428Y-32959761D01*
X10766904Y-33007380D01*
X10862142Y-33055000D01*
X10909761Y-33102619D01*
X10957380Y-33197857D01*
X10957380Y-33293095D01*
X10909761Y-33388333D01*
X10862142Y-33435952D01*
X10766904Y-33483571D01*
X10576428Y-33531190D01*
X10338333Y-33531190D01*
X10147857Y-33483571D01*
X10052619Y-33435952D01*
X10005000Y-33388333D01*
X9957380Y-33293095D01*
X10576428Y-32531190D02*
X10576428Y-31769285D01*
X10957380Y-31293095D02*
X9957380Y-31293095D01*
X9957380Y-31055000D01*
X10005000Y-30912142D01*
X10100238Y-30816904D01*
X10195476Y-30769285D01*
X10385952Y-30721666D01*
X10528809Y-30721666D01*
X10719285Y-30769285D01*
X10814523Y-30816904D01*
X10909761Y-30912142D01*
X10957380Y-31055000D01*
X10957380Y-31293095D01*
X10957380Y-30293095D02*
X9957380Y-30293095D01*
X9957380Y-29959761D02*
X9957380Y-29388333D01*
X10957380Y-29674047D02*
X9957380Y-29674047D01*
D10*
X14232000Y-25204752D02*
X14208190Y-25252371D01*
X14208190Y-25323800D01*
X14232000Y-25395228D01*
X14279619Y-25442847D01*
X14327238Y-25466657D01*
X14422476Y-25490466D01*
X14493904Y-25490466D01*
X14589142Y-25466657D01*
X14636761Y-25442847D01*
X14684380Y-25395228D01*
X14708190Y-25323800D01*
X14708190Y-25276180D01*
X14684380Y-25204752D01*
X14660571Y-25180942D01*
X14493904Y-25180942D01*
X14493904Y-25276180D01*
X14708190Y-24966657D02*
X14208190Y-24966657D01*
X14708190Y-24680942D01*
X14208190Y-24680942D01*
X14708190Y-24442847D02*
X14208190Y-24442847D01*
X14208190Y-24323800D01*
X14232000Y-24252371D01*
X14279619Y-24204752D01*
X14327238Y-24180942D01*
X14422476Y-24157133D01*
X14493904Y-24157133D01*
X14589142Y-24180942D01*
X14636761Y-24204752D01*
X14684380Y-24252371D01*
X14708190Y-24323800D01*
X14708190Y-24442847D01*
X14232000Y-13204752D02*
X14208190Y-13252371D01*
X14208190Y-13323800D01*
X14232000Y-13395228D01*
X14279619Y-13442847D01*
X14327238Y-13466657D01*
X14422476Y-13490466D01*
X14493904Y-13490466D01*
X14589142Y-13466657D01*
X14636761Y-13442847D01*
X14684380Y-13395228D01*
X14708190Y-13323800D01*
X14708190Y-13276180D01*
X14684380Y-13204752D01*
X14660571Y-13180942D01*
X14493904Y-13180942D01*
X14493904Y-13276180D01*
X14708190Y-12966657D02*
X14208190Y-12966657D01*
X14708190Y-12680942D01*
X14208190Y-12680942D01*
X14708190Y-12442847D02*
X14208190Y-12442847D01*
X14208190Y-12323800D01*
X14232000Y-12252371D01*
X14279619Y-12204752D01*
X14327238Y-12180942D01*
X14422476Y-12157133D01*
X14493904Y-12157133D01*
X14589142Y-12180942D01*
X14636761Y-12204752D01*
X14684380Y-12252371D01*
X14708190Y-12323800D01*
X14708190Y-12442847D01*
X14708190Y-11419038D02*
X14708190Y-11657133D01*
X14208190Y-11657133D01*
X14708190Y-10966657D02*
X14470095Y-11133323D01*
X14708190Y-11252371D02*
X14208190Y-11252371D01*
X14208190Y-11061895D01*
X14232000Y-11014276D01*
X14255809Y-10990466D01*
X14303428Y-10966657D01*
X14374857Y-10966657D01*
X14422476Y-10990466D01*
X14446285Y-11014276D01*
X14470095Y-11061895D01*
X14470095Y-11252371D01*
X14660571Y-10466657D02*
X14684380Y-10490466D01*
X14708190Y-10561895D01*
X14708190Y-10609514D01*
X14684380Y-10680942D01*
X14636761Y-10728561D01*
X14589142Y-10752371D01*
X14493904Y-10776180D01*
X14422476Y-10776180D01*
X14327238Y-10752371D01*
X14279619Y-10728561D01*
X14232000Y-10680942D01*
X14208190Y-10609514D01*
X14208190Y-10561895D01*
X14232000Y-10490466D01*
X14255809Y-10466657D01*
X14708190Y-10252371D02*
X14208190Y-10252371D01*
X14708190Y-9966657D02*
X14422476Y-10180942D01*
X14208190Y-9966657D02*
X14493904Y-10252371D01*
X14232000Y-17204752D02*
X14208190Y-17252371D01*
X14208190Y-17323800D01*
X14232000Y-17395228D01*
X14279619Y-17442847D01*
X14327238Y-17466657D01*
X14422476Y-17490466D01*
X14493904Y-17490466D01*
X14589142Y-17466657D01*
X14636761Y-17442847D01*
X14684380Y-17395228D01*
X14708190Y-17323800D01*
X14708190Y-17276180D01*
X14684380Y-17204752D01*
X14660571Y-17180942D01*
X14493904Y-17180942D01*
X14493904Y-17276180D01*
X14708190Y-16966657D02*
X14208190Y-16966657D01*
X14708190Y-16680942D01*
X14208190Y-16680942D01*
X14708190Y-16442847D02*
X14208190Y-16442847D01*
X14208190Y-16323800D01*
X14232000Y-16252371D01*
X14279619Y-16204752D01*
X14327238Y-16180942D01*
X14422476Y-16157133D01*
X14493904Y-16157133D01*
X14589142Y-16180942D01*
X14636761Y-16204752D01*
X14684380Y-16252371D01*
X14708190Y-16323800D01*
X14708190Y-16442847D01*
X14708190Y-23692847D02*
X14208190Y-23692847D01*
X14565333Y-23526180D01*
X14208190Y-23359514D01*
X14708190Y-23359514D01*
X14660571Y-22835704D02*
X14684380Y-22859514D01*
X14708190Y-22930942D01*
X14708190Y-22978561D01*
X14684380Y-23049990D01*
X14636761Y-23097609D01*
X14589142Y-23121419D01*
X14493904Y-23145228D01*
X14422476Y-23145228D01*
X14327238Y-23121419D01*
X14279619Y-23097609D01*
X14232000Y-23049990D01*
X14208190Y-22978561D01*
X14208190Y-22930942D01*
X14232000Y-22859514D01*
X14255809Y-22835704D01*
X14708190Y-22383323D02*
X14708190Y-22621419D01*
X14208190Y-22621419D01*
X14708190Y-22216657D02*
X14208190Y-22216657D01*
X14708190Y-21930942D02*
X14422476Y-22145228D01*
X14208190Y-21930942D02*
X14493904Y-22216657D01*
X14684380Y-19621419D02*
X14708190Y-19549990D01*
X14708190Y-19430942D01*
X14684380Y-19383323D01*
X14660571Y-19359514D01*
X14612952Y-19335704D01*
X14565333Y-19335704D01*
X14517714Y-19359514D01*
X14493904Y-19383323D01*
X14470095Y-19430942D01*
X14446285Y-19526180D01*
X14422476Y-19573800D01*
X14398666Y-19597609D01*
X14351047Y-19621419D01*
X14303428Y-19621419D01*
X14255809Y-19597609D01*
X14232000Y-19573800D01*
X14208190Y-19526180D01*
X14208190Y-19407133D01*
X14232000Y-19335704D01*
X14708190Y-19121419D02*
X14208190Y-19121419D01*
X14208190Y-19002371D01*
X14232000Y-18930942D01*
X14279619Y-18883323D01*
X14327238Y-18859514D01*
X14422476Y-18835704D01*
X14493904Y-18835704D01*
X14589142Y-18859514D01*
X14636761Y-18883323D01*
X14684380Y-18930942D01*
X14708190Y-19002371D01*
X14708190Y-19121419D01*
X14565333Y-18645228D02*
X14565333Y-18407133D01*
X14708190Y-18692847D02*
X14208190Y-18526180D01*
X14708190Y-18359514D01*
X14208190Y-18264276D02*
X14208190Y-17978561D01*
X14708190Y-18121419D02*
X14208190Y-18121419D01*
X14232000Y-21204752D02*
X14208190Y-21252371D01*
X14208190Y-21323800D01*
X14232000Y-21395228D01*
X14279619Y-21442847D01*
X14327238Y-21466657D01*
X14422476Y-21490466D01*
X14493904Y-21490466D01*
X14589142Y-21466657D01*
X14636761Y-21442847D01*
X14684380Y-21395228D01*
X14708190Y-21323800D01*
X14708190Y-21276180D01*
X14684380Y-21204752D01*
X14660571Y-21180942D01*
X14493904Y-21180942D01*
X14493904Y-21276180D01*
X14708190Y-20966657D02*
X14208190Y-20966657D01*
X14708190Y-20680942D01*
X14208190Y-20680942D01*
X14708190Y-20442847D02*
X14208190Y-20442847D01*
X14208190Y-20323800D01*
X14232000Y-20252371D01*
X14279619Y-20204752D01*
X14327238Y-20180942D01*
X14422476Y-20157133D01*
X14493904Y-20157133D01*
X14589142Y-20180942D01*
X14636761Y-20204752D01*
X14684380Y-20252371D01*
X14708190Y-20323800D01*
X14708190Y-20442847D01*
X14708190Y-29316657D02*
X14208190Y-29316657D01*
X14708190Y-29030942D01*
X14208190Y-29030942D01*
X14660571Y-28507133D02*
X14684380Y-28530942D01*
X14708190Y-28602371D01*
X14708190Y-28649990D01*
X14684380Y-28721419D01*
X14636761Y-28769038D01*
X14589142Y-28792847D01*
X14493904Y-28816657D01*
X14422476Y-28816657D01*
X14327238Y-28792847D01*
X14279619Y-28769038D01*
X14232000Y-28721419D01*
X14208190Y-28649990D01*
X14208190Y-28602371D01*
X14232000Y-28530942D01*
X14255809Y-28507133D01*
X14446285Y-15407133D02*
X14470095Y-15335704D01*
X14493904Y-15311895D01*
X14541523Y-15288085D01*
X14612952Y-15288085D01*
X14660571Y-15311895D01*
X14684380Y-15335704D01*
X14708190Y-15383323D01*
X14708190Y-15573800D01*
X14208190Y-15573800D01*
X14208190Y-15407133D01*
X14232000Y-15359514D01*
X14255809Y-15335704D01*
X14303428Y-15311895D01*
X14351047Y-15311895D01*
X14398666Y-15335704D01*
X14422476Y-15359514D01*
X14446285Y-15407133D01*
X14446285Y-15573800D01*
X14708190Y-15073800D02*
X14208190Y-15073800D01*
X14660571Y-14549990D02*
X14684380Y-14573800D01*
X14708190Y-14645228D01*
X14708190Y-14692847D01*
X14684380Y-14764276D01*
X14636761Y-14811895D01*
X14589142Y-14835704D01*
X14493904Y-14859514D01*
X14422476Y-14859514D01*
X14327238Y-14835704D01*
X14279619Y-14811895D01*
X14232000Y-14764276D01*
X14208190Y-14692847D01*
X14208190Y-14645228D01*
X14232000Y-14573800D01*
X14255809Y-14549990D01*
X14708190Y-14335704D02*
X14208190Y-14335704D01*
X14708190Y-14049990D02*
X14422476Y-14264276D01*
X14208190Y-14049990D02*
X14493904Y-14335704D01*
D11*
X8882333Y-21967380D02*
X8549000Y-21491190D01*
X8310904Y-21967380D02*
X8310904Y-20967380D01*
X8691857Y-20967380D01*
X8787095Y-21015000D01*
X8834714Y-21062619D01*
X8882333Y-21157857D01*
X8882333Y-21300714D01*
X8834714Y-21395952D01*
X8787095Y-21443571D01*
X8691857Y-21491190D01*
X8310904Y-21491190D01*
X9834714Y-21967380D02*
X9263285Y-21967380D01*
X9549000Y-21967380D02*
X9549000Y-20967380D01*
X9453761Y-21110238D01*
X9358523Y-21205476D01*
X9263285Y-21253095D01*
X1661666Y-1227380D02*
X1661666Y-1941666D01*
X1614047Y-2084523D01*
X1518809Y-2179761D01*
X1375952Y-2227380D01*
X1280714Y-2227380D01*
X2661666Y-2227380D02*
X2090238Y-2227380D01*
X2375952Y-2227380D02*
X2375952Y-1227380D01*
X2280714Y-1370238D01*
X2185476Y-1465476D01*
X2090238Y-1513095D01*
X8882333Y-18120712D02*
X8549000Y-17644522D01*
X8310904Y-18120712D02*
X8310904Y-17120712D01*
X8691857Y-17120712D01*
X8787095Y-17168332D01*
X8834714Y-17215951D01*
X8882333Y-17311189D01*
X8882333Y-17454046D01*
X8834714Y-17549284D01*
X8787095Y-17596903D01*
X8691857Y-17644522D01*
X8310904Y-17644522D01*
X9215666Y-17120712D02*
X9834714Y-17120712D01*
X9501380Y-17501665D01*
X9644238Y-17501665D01*
X9739476Y-17549284D01*
X9787095Y-17596903D01*
X9834714Y-17692141D01*
X9834714Y-17930236D01*
X9787095Y-18025474D01*
X9739476Y-18073093D01*
X9644238Y-18120712D01*
X9358523Y-18120712D01*
X9263285Y-18073093D01*
X9215666Y-18025474D01*
X8932333Y-5432942D02*
X8884714Y-5480561D01*
X8741857Y-5528180D01*
X8646619Y-5528180D01*
X8503761Y-5480561D01*
X8408523Y-5385323D01*
X8360904Y-5290085D01*
X8313285Y-5099609D01*
X8313285Y-4956752D01*
X8360904Y-4766276D01*
X8408523Y-4671038D01*
X8503761Y-4575800D01*
X8646619Y-4528180D01*
X8741857Y-4528180D01*
X8884714Y-4575800D01*
X8932333Y-4623419D01*
X9884714Y-5528180D02*
X9313285Y-5528180D01*
X9599000Y-5528180D02*
X9599000Y-4528180D01*
X9503761Y-4671038D01*
X9408523Y-4766276D01*
X9313285Y-4813895D01*
X8882333Y-14274046D02*
X8549000Y-13797856D01*
X8310904Y-14274046D02*
X8310904Y-13274046D01*
X8691857Y-13274046D01*
X8787095Y-13321666D01*
X8834714Y-13369285D01*
X8882333Y-13464523D01*
X8882333Y-13607380D01*
X8834714Y-13702618D01*
X8787095Y-13750237D01*
X8691857Y-13797856D01*
X8310904Y-13797856D01*
X9263285Y-13369285D02*
X9310904Y-13321666D01*
X9406142Y-13274046D01*
X9644238Y-13274046D01*
X9739476Y-13321666D01*
X9787095Y-13369285D01*
X9834714Y-13464523D01*
X9834714Y-13559761D01*
X9787095Y-13702618D01*
X9215666Y-14274046D01*
X9834714Y-14274046D01*
X8882333Y-10427380D02*
X8549000Y-9951190D01*
X8310904Y-10427380D02*
X8310904Y-9427380D01*
X8691857Y-9427380D01*
X8787095Y-9475000D01*
X8834714Y-9522619D01*
X8882333Y-9617857D01*
X8882333Y-9760714D01*
X8834714Y-9855952D01*
X8787095Y-9903571D01*
X8691857Y-9951190D01*
X8310904Y-9951190D01*
X9739476Y-9760714D02*
X9739476Y-10427380D01*
X9501380Y-9379761D02*
X9263285Y-10094047D01*
X9882333Y-10094047D01*
D12*
X8821936Y-23900000D02*
X9276064Y-23900000D01*
X8821936Y-22430000D02*
X9276064Y-22430000D01*
X3055000Y-4835000D02*
X3055000Y-36895000D01*
X935000Y-3835000D02*
X935000Y-2775000D01*
X935000Y-4835000D02*
X935000Y-36895000D01*
X935000Y-36895000D02*
X3055000Y-36895000D01*
X935000Y-2775000D02*
X1995000Y-2775000D01*
X935000Y-4835000D02*
X3055000Y-4835000D01*
X8821936Y-20053332D02*
X9276064Y-20053332D01*
X8821936Y-18583332D02*
X9276064Y-18583332D01*
X8837748Y-6020800D02*
X9360252Y-6020800D01*
X8837748Y-7490800D02*
X9360252Y-7490800D01*
X8821936Y-14736666D02*
X9276064Y-14736666D01*
X8821936Y-16206666D02*
X9276064Y-16206666D01*
X8821936Y-10890000D02*
X9276064Y-10890000D01*
X8821936Y-12360000D02*
X9276064Y-12360000D01*
M02*
