%TF.GenerationSoftware,KiCad,Pcbnew,(6.0.1)*%
%TF.CreationDate,2022-07-27T18:49:27-07:00*%
%TF.ProjectId,mu100-dit-connector-board,6d753130-302d-4646-9974-2d636f6e6e65,rev?*%
%TF.SameCoordinates,PX4a615b8PY2b4db18*%
%TF.FileFunction,Soldermask,Bot*%
%TF.FilePolarity,Negative*%
%FSLAX46Y46*%
G04 Gerber Fmt 4.6, Leading zero omitted, Abs format (unit mm)*
G04 Created by KiCad (PCBNEW (6.0.1)) date 2022-07-27 18:49:27*
%MOMM*%
%LPD*%
G01*
G04 APERTURE LIST*
G04 Aperture macros list*
%AMRoundRect*
0 Rectangle with rounded corners*
0 $1 Rounding radius*
0 $2 $3 $4 $5 $6 $7 $8 $9 X,Y pos of 4 corners*
0 Add a 4 corners polygon primitive as box body*
4,1,4,$2,$3,$4,$5,$6,$7,$8,$9,$2,$3,0*
0 Add four circle primitives for the rounded corners*
1,1,$1+$1,$2,$3*
1,1,$1+$1,$4,$5*
1,1,$1+$1,$6,$7*
1,1,$1+$1,$8,$9*
0 Add four rect primitives between the rounded corners*
20,1,$1+$1,$2,$3,$4,$5,0*
20,1,$1+$1,$4,$5,$6,$7,0*
20,1,$1+$1,$6,$7,$8,$9,0*
20,1,$1+$1,$8,$9,$2,$3,0*%
G04 Aperture macros list end*
%ADD10R,1.350000X1.350000*%
%ADD11O,1.350000X1.350000*%
%ADD12RoundRect,0.250000X0.625000X-0.350000X0.625000X0.350000X-0.625000X0.350000X-0.625000X-0.350000X0*%
%ADD13O,1.750000X1.200000*%
%ADD14RoundRect,0.250000X-0.650000X0.350000X-0.650000X-0.350000X0.650000X-0.350000X0.650000X0.350000X0*%
%ADD15O,1.800000X1.200000*%
%ADD16C,0.800000*%
G04 APERTURE END LIST*
D10*
%TO.C,J1*%
X79988400Y-49242000D03*
D11*
X79988400Y-51242000D03*
X79988400Y-53242000D03*
X79988400Y-55242000D03*
X79988400Y-57242000D03*
X79988400Y-59242000D03*
X79988400Y-61242000D03*
X79988400Y-63242000D03*
X79988400Y-65242000D03*
X79988400Y-67242000D03*
X79988400Y-69242000D03*
X79988400Y-71242000D03*
X79988400Y-73242000D03*
X79988400Y-75242000D03*
X79988400Y-77242000D03*
X79988400Y-79242000D03*
X79988400Y-81242000D03*
%TD*%
D12*
%TO.C,J3*%
X89798400Y-74232000D03*
D13*
X89798400Y-72232000D03*
X89798400Y-70232000D03*
X89798400Y-68232000D03*
X89798400Y-66232000D03*
X89798400Y-64232000D03*
X89798400Y-62232000D03*
X89798400Y-60232000D03*
X89798400Y-58232000D03*
X89798400Y-56232000D03*
%TD*%
D14*
%TO.C,J2*%
X82848400Y-49242000D03*
D15*
X82848400Y-51242000D03*
X82848400Y-53242000D03*
X82848400Y-55242000D03*
X82848400Y-57242000D03*
X82848400Y-59242000D03*
X82848400Y-61242000D03*
X82848400Y-63242000D03*
X82848400Y-65242000D03*
X82848400Y-67242000D03*
X82848400Y-69242000D03*
X82848400Y-71242000D03*
X82848400Y-73242000D03*
X82848400Y-75242000D03*
X82848400Y-77242000D03*
X82848400Y-79242000D03*
X82848400Y-81242000D03*
%TD*%
D16*
X91693400Y-53407000D03*
X85718400Y-57182000D03*
X87893400Y-69357000D03*
X86788400Y-59632000D03*
X89743400Y-52557000D03*
X86043400Y-67707000D03*
X87663400Y-58757000D03*
X87053400Y-69857000D03*
X86793400Y-63657000D03*
X84943400Y-55307000D03*
X86893400Y-66857000D03*
X86593400Y-56307000D03*
X84868400Y-58032000D03*
X85943400Y-64507000D03*
X86143400Y-55307000D03*
X87768400Y-65982000D03*
X87293400Y-55307000D03*
X86043400Y-70357000D03*
X87668400Y-62782000D03*
X85938400Y-60482000D03*
M02*
