%TF.GenerationSoftware,KiCad,Pcbnew,(6.0.1)*%
%TF.CreationDate,2022-07-28T19:16:12-07:00*%
%TF.ProjectId,mu100-dit-connector-board,6d753130-302d-4646-9974-2d636f6e6e65,rev?*%
%TF.SameCoordinates,PX4a615b8PY2b4db18*%
%TF.FileFunction,Copper,L2,Bot*%
%TF.FilePolarity,Positive*%
%FSLAX46Y46*%
G04 Gerber Fmt 4.6, Leading zero omitted, Abs format (unit mm)*
G04 Created by KiCad (PCBNEW (6.0.1)) date 2022-07-28 19:16:12*
%MOMM*%
%LPD*%
G01*
G04 APERTURE LIST*
G04 Aperture macros list*
%AMRoundRect*
0 Rectangle with rounded corners*
0 $1 Rounding radius*
0 $2 $3 $4 $5 $6 $7 $8 $9 X,Y pos of 4 corners*
0 Add a 4 corners polygon primitive as box body*
4,1,4,$2,$3,$4,$5,$6,$7,$8,$9,$2,$3,0*
0 Add four circle primitives for the rounded corners*
1,1,$1+$1,$2,$3*
1,1,$1+$1,$4,$5*
1,1,$1+$1,$6,$7*
1,1,$1+$1,$8,$9*
0 Add four rect primitives between the rounded corners*
20,1,$1+$1,$2,$3,$4,$5,0*
20,1,$1+$1,$4,$5,$6,$7,0*
20,1,$1+$1,$6,$7,$8,$9,0*
20,1,$1+$1,$8,$9,$2,$3,0*%
G04 Aperture macros list end*
%TA.AperFunction,ComponentPad*%
%ADD10R,1.350000X1.350000*%
%TD*%
%TA.AperFunction,ComponentPad*%
%ADD11O,1.350000X1.350000*%
%TD*%
%TA.AperFunction,ComponentPad*%
%ADD12RoundRect,0.250000X0.625000X-0.350000X0.625000X0.350000X-0.625000X0.350000X-0.625000X-0.350000X0*%
%TD*%
%TA.AperFunction,ComponentPad*%
%ADD13O,1.750000X1.200000*%
%TD*%
%TA.AperFunction,ComponentPad*%
%ADD14RoundRect,0.250000X-0.650000X0.350000X-0.650000X-0.350000X0.650000X-0.350000X0.650000X0.350000X0*%
%TD*%
%TA.AperFunction,ComponentPad*%
%ADD15O,1.800000X1.200000*%
%TD*%
%TA.AperFunction,ViaPad*%
%ADD16C,0.800000*%
%TD*%
%TA.AperFunction,Conductor*%
%ADD17C,0.800000*%
%TD*%
%TA.AperFunction,Conductor*%
%ADD18C,0.250000*%
%TD*%
G04 APERTURE END LIST*
D10*
%TO.P,J1,1,Pin_1*%
%TO.N,/RER*%
X79988400Y-49242000D03*
D11*
%TO.P,J1,2,Pin_2*%
%TO.N,+5V*%
X79988400Y-51242000D03*
%TO.P,J1,3,Pin_3*%
X79988400Y-53242000D03*
%TO.P,J1,4,Pin_4*%
%TO.N,GND*%
X79988400Y-55242000D03*
%TO.P,J1,5,Pin_5*%
X79988400Y-57242000D03*
%TO.P,J1,6,Pin_6*%
%TO.N,Net-(J1-Pad6)*%
X79988400Y-59242000D03*
%TO.P,J1,7,Pin_7*%
%TO.N,/MEL00*%
X79988400Y-61242000D03*
%TO.P,J1,8,Pin_8*%
%TO.N,/SYOD*%
X79988400Y-63242000D03*
%TO.P,J1,9,Pin_9*%
%TO.N,/QCLK*%
X79988400Y-65242000D03*
%TO.P,J1,10,Pin_10*%
%TO.N,Net-(J1-Pad10)*%
X79988400Y-67242000D03*
%TO.P,J1,11,Pin_11*%
%TO.N,/CK256*%
X79988400Y-69242000D03*
%TO.P,J1,12,Pin_12*%
%TO.N,/WCLK*%
X79988400Y-71242000D03*
%TO.P,J1,13,Pin_13*%
%TO.N,/DACOL*%
X79988400Y-73242000D03*
%TO.P,J1,14,Pin_14*%
%TO.N,/REA*%
X79988400Y-75242000D03*
%TO.P,J1,15,Pin_15*%
%TO.N,/REB*%
X79988400Y-77242000D03*
%TO.P,J1,16,Pin_16*%
%TO.N,GNDA*%
X79988400Y-79242000D03*
%TO.P,J1,17,Pin_17*%
%TO.N,+9VA*%
X79988400Y-81242000D03*
%TD*%
D12*
%TO.P,J3,1,Pin_1*%
%TO.N,unconnected-(J3-Pad1)*%
X89798400Y-74232000D03*
D13*
%TO.P,J3,2,Pin_2*%
%TO.N,+5V*%
X89798400Y-72232000D03*
%TO.P,J3,3,Pin_3*%
%TO.N,GND*%
X89798400Y-70232000D03*
%TO.P,J3,4,Pin_4*%
%TO.N,/CK256*%
X89798400Y-68232000D03*
%TO.P,J3,5,Pin_5*%
%TO.N,GND*%
X89798400Y-66232000D03*
%TO.P,J3,6,Pin_6*%
%TO.N,/DACOL*%
X89798400Y-64232000D03*
%TO.P,J3,7,Pin_7*%
%TO.N,GND*%
X89798400Y-62232000D03*
%TO.P,J3,8,Pin_8*%
%TO.N,/QCLK*%
X89798400Y-60232000D03*
%TO.P,J3,9,Pin_9*%
%TO.N,GND*%
X89798400Y-58232000D03*
%TO.P,J3,10,Pin_10*%
%TO.N,/WCLK*%
X89798400Y-56232000D03*
%TD*%
D14*
%TO.P,J2,1,Pin_1*%
%TO.N,/RER*%
X82848400Y-49242000D03*
D15*
%TO.P,J2,2,Pin_2*%
%TO.N,+5V*%
X82848400Y-51242000D03*
%TO.P,J2,3,Pin_3*%
X82848400Y-53242000D03*
%TO.P,J2,4,Pin_4*%
%TO.N,GND*%
X82848400Y-55242000D03*
%TO.P,J2,5,Pin_5*%
X82848400Y-57242000D03*
%TO.P,J2,6,Pin_6*%
%TO.N,Net-(J1-Pad6)*%
X82848400Y-59242000D03*
%TO.P,J2,7,Pin_7*%
%TO.N,/MEL00*%
X82848400Y-61242000D03*
%TO.P,J2,8,Pin_8*%
%TO.N,/SYOD*%
X82848400Y-63242000D03*
%TO.P,J2,9,Pin_9*%
%TO.N,/QCLK*%
X82848400Y-65242000D03*
%TO.P,J2,10,Pin_10*%
%TO.N,Net-(J1-Pad10)*%
X82848400Y-67242000D03*
%TO.P,J2,11,Pin_11*%
%TO.N,/CK256*%
X82848400Y-69242000D03*
%TO.P,J2,12,Pin_12*%
%TO.N,/WCLK*%
X82848400Y-71242000D03*
%TO.P,J2,13,Pin_13*%
%TO.N,/DACOL*%
X82848400Y-73242000D03*
%TO.P,J2,14,Pin_14*%
%TO.N,/REA*%
X82848400Y-75242000D03*
%TO.P,J2,15,Pin_15*%
%TO.N,/REB*%
X82848400Y-77242000D03*
%TO.P,J2,16,Pin_16*%
%TO.N,GNDA*%
X82848400Y-79242000D03*
%TO.P,J2,17,Pin_17*%
%TO.N,+9VA*%
X82848400Y-81242000D03*
%TD*%
D16*
%TO.N,GND*%
X91693400Y-53407000D03*
X85718400Y-57182000D03*
X87893400Y-69357000D03*
X86788400Y-59632000D03*
X89743400Y-52557000D03*
X86043400Y-67707000D03*
X87663400Y-58757000D03*
X87053400Y-69857000D03*
X86793400Y-63657000D03*
X84943400Y-55307000D03*
X86893400Y-66857000D03*
X86593400Y-56307000D03*
X84868400Y-58032000D03*
X85943400Y-64507000D03*
X86143400Y-55307000D03*
X87768400Y-65982000D03*
X87293400Y-55307000D03*
X86043400Y-70357000D03*
X87668400Y-62782000D03*
X85938400Y-60482000D03*
%TD*%
D17*
%TO.N,+5V*%
X90668400Y-72232000D02*
X89798400Y-72232000D01*
X87043400Y-54007000D02*
X90243400Y-54007000D01*
X82848400Y-53242000D02*
X86278400Y-53242000D01*
X90243400Y-54007000D02*
X91743400Y-55507000D01*
X91743400Y-71157000D02*
X90668400Y-72232000D01*
X91743400Y-55507000D02*
X91743400Y-71157000D01*
X86278400Y-53242000D02*
X87043400Y-54007000D01*
D18*
%TO.N,/WCLK*%
X88118400Y-56232000D02*
X84443400Y-59907000D01*
X84443400Y-69647000D02*
X82848400Y-71242000D01*
X89798400Y-56232000D02*
X88118400Y-56232000D01*
X84443400Y-59907000D02*
X84443400Y-69647000D01*
%TO.N,/DACOL*%
X85043400Y-67242800D02*
X85043400Y-71383000D01*
X85043400Y-71383000D02*
X83184400Y-73242000D01*
X83184400Y-73242000D02*
X82848400Y-73242000D01*
X89798400Y-64232000D02*
X88054200Y-64232000D01*
X88054200Y-64232000D02*
X85043400Y-67242800D01*
%TD*%
%TA.AperFunction,Conductor*%
%TO.N,GND*%
G36*
X84318400Y-58032000D02*
G01*
X82793431Y-58032000D01*
X82793400Y-58027000D01*
X79593400Y-58027000D01*
X79593353Y-58032000D01*
X78718400Y-58032000D01*
X78718400Y-54732000D01*
X84318400Y-54732000D01*
X84318400Y-58032000D01*
G37*
%TD.AperFunction*%
%TD*%
%TA.AperFunction,Conductor*%
%TO.N,GND*%
G36*
X88620847Y-64877502D02*
G01*
X88655496Y-64910601D01*
X88683067Y-64949469D01*
X88683070Y-64949473D01*
X88686537Y-64954360D01*
X88838231Y-65099575D01*
X88872658Y-65121804D01*
X88919037Y-65175559D01*
X88928991Y-65245854D01*
X88899360Y-65310372D01*
X88882145Y-65326743D01*
X88760543Y-65422262D01*
X88751894Y-65430499D01*
X88621188Y-65581123D01*
X88614253Y-65590847D01*
X88514390Y-65763467D01*
X88509416Y-65774331D01*
X88443993Y-65962727D01*
X88443752Y-65963716D01*
X88445220Y-65974008D01*
X88458785Y-65978000D01*
X89926400Y-65978000D01*
X89994521Y-65998002D01*
X90041014Y-66051658D01*
X90052400Y-66104000D01*
X90052400Y-66360000D01*
X90032398Y-66428121D01*
X89978742Y-66474614D01*
X89926400Y-66486000D01*
X88462998Y-66486000D01*
X88449467Y-66489973D01*
X88448112Y-66499399D01*
X88469594Y-66588537D01*
X88473483Y-66599832D01*
X88556029Y-66781382D01*
X88561976Y-66791724D01*
X88677368Y-66954397D01*
X88685161Y-66963425D01*
X88829231Y-67101342D01*
X88838599Y-67108741D01*
X88873086Y-67131009D01*
X88919463Y-67184765D01*
X88929416Y-67255060D01*
X88899783Y-67319577D01*
X88882570Y-67335946D01*
X88765738Y-67427718D01*
X88765733Y-67427722D01*
X88761021Y-67431424D01*
X88757090Y-67435954D01*
X88757089Y-67435955D01*
X88627321Y-67585498D01*
X88627317Y-67585503D01*
X88623390Y-67590029D01*
X88518234Y-67771799D01*
X88449347Y-67970174D01*
X88419214Y-68177996D01*
X88428923Y-68387767D01*
X88478124Y-68591918D01*
X88565040Y-68783081D01*
X88686537Y-68954360D01*
X88838231Y-69099575D01*
X88872658Y-69121804D01*
X88919037Y-69175559D01*
X88928991Y-69245854D01*
X88899360Y-69310372D01*
X88882145Y-69326743D01*
X88760543Y-69422262D01*
X88751894Y-69430499D01*
X88621188Y-69581123D01*
X88614253Y-69590847D01*
X88514390Y-69763467D01*
X88509416Y-69774331D01*
X88443993Y-69962727D01*
X88443752Y-69963716D01*
X88445220Y-69974008D01*
X88458785Y-69978000D01*
X89926400Y-69978000D01*
X89994521Y-69998002D01*
X90041014Y-70051658D01*
X90052400Y-70104000D01*
X90052400Y-70360000D01*
X90032398Y-70428121D01*
X89978742Y-70474614D01*
X89926400Y-70486000D01*
X88462998Y-70486000D01*
X88449467Y-70489973D01*
X88448112Y-70499399D01*
X88469594Y-70588537D01*
X88473483Y-70599832D01*
X88556029Y-70781382D01*
X88561976Y-70791724D01*
X88677368Y-70954397D01*
X88685161Y-70963425D01*
X88829231Y-71101342D01*
X88838599Y-71108741D01*
X88873086Y-71131009D01*
X88919463Y-71184765D01*
X88929416Y-71255060D01*
X88899783Y-71319577D01*
X88882570Y-71335946D01*
X88765738Y-71427718D01*
X88765733Y-71427722D01*
X88761021Y-71431424D01*
X88757090Y-71435954D01*
X88757089Y-71435955D01*
X88627321Y-71585498D01*
X88627317Y-71585503D01*
X88623390Y-71590029D01*
X88518234Y-71771799D01*
X88449347Y-71970174D01*
X88419214Y-72177996D01*
X88428923Y-72387767D01*
X88478124Y-72591918D01*
X88565040Y-72783081D01*
X88686537Y-72954360D01*
X88757353Y-73022151D01*
X88788714Y-73052173D01*
X88824090Y-73113728D01*
X88820571Y-73184638D01*
X88779275Y-73242388D01*
X88767899Y-73250326D01*
X88704055Y-73289834D01*
X88580416Y-73413689D01*
X88488586Y-73562666D01*
X88433490Y-73728772D01*
X88422900Y-73832134D01*
X88422900Y-74631866D01*
X88423237Y-74635112D01*
X88423237Y-74635116D01*
X88432915Y-74728383D01*
X88433759Y-74736519D01*
X88435940Y-74743055D01*
X88435940Y-74743057D01*
X88453518Y-74795745D01*
X88489144Y-74902529D01*
X88581234Y-75051345D01*
X88705089Y-75174984D01*
X88854066Y-75266814D01*
X88861014Y-75269119D01*
X88861015Y-75269119D01*
X89013641Y-75319744D01*
X89013643Y-75319745D01*
X89020172Y-75321910D01*
X89123534Y-75332500D01*
X90473266Y-75332500D01*
X90476512Y-75332163D01*
X90476516Y-75332163D01*
X90571061Y-75322353D01*
X90571065Y-75322352D01*
X90577919Y-75321641D01*
X90584455Y-75319460D01*
X90584457Y-75319460D01*
X90736981Y-75268574D01*
X90743929Y-75266256D01*
X90892745Y-75174166D01*
X91016384Y-75050311D01*
X91108214Y-74901334D01*
X91114600Y-74882082D01*
X91161144Y-74741759D01*
X91161145Y-74741757D01*
X91163310Y-74735228D01*
X91173900Y-74631866D01*
X91173900Y-73832134D01*
X91173370Y-73827023D01*
X91163753Y-73734339D01*
X91163752Y-73734335D01*
X91163041Y-73727481D01*
X91156341Y-73707397D01*
X91109974Y-73568419D01*
X91107656Y-73561471D01*
X91015566Y-73412655D01*
X90904662Y-73301944D01*
X90900541Y-73297830D01*
X90866462Y-73235547D01*
X90871465Y-73164727D01*
X90913962Y-73107855D01*
X90956947Y-73086950D01*
X90992888Y-73077320D01*
X90998767Y-73074324D01*
X90998771Y-73074323D01*
X91005240Y-73071027D01*
X91023497Y-73063464D01*
X91024853Y-73063023D01*
X91036684Y-73059179D01*
X91048819Y-73052173D01*
X91095371Y-73025297D01*
X91101166Y-73022151D01*
X91155666Y-72994381D01*
X91155669Y-72994379D01*
X91161549Y-72991383D01*
X91172320Y-72982661D01*
X91188609Y-72971466D01*
X91200616Y-72964533D01*
X91250980Y-72919185D01*
X91255996Y-72914901D01*
X91269216Y-72904195D01*
X91271780Y-72902119D01*
X91286129Y-72887770D01*
X91290913Y-72883229D01*
X91336385Y-72842286D01*
X91336386Y-72842284D01*
X91341288Y-72837871D01*
X91349434Y-72826659D01*
X91362275Y-72811624D01*
X91953305Y-72220595D01*
X92015617Y-72186570D01*
X92086433Y-72191635D01*
X92143268Y-72234182D01*
X92168079Y-72300702D01*
X92168400Y-72309691D01*
X92168400Y-84381000D01*
X92148398Y-84449121D01*
X92094742Y-84495614D01*
X92042400Y-84507000D01*
X78619400Y-84507000D01*
X78551279Y-84486998D01*
X78504786Y-84433342D01*
X78493400Y-84381000D01*
X78493400Y-82867400D01*
X78513402Y-82799279D01*
X78567058Y-82752786D01*
X78619400Y-82741400D01*
X85231800Y-82741400D01*
X85231800Y-77632000D01*
X84349455Y-77632000D01*
X84281334Y-77611998D01*
X84234841Y-77558342D01*
X84224759Y-77487920D01*
X84251725Y-77301944D01*
X84251725Y-77301941D01*
X84252586Y-77296004D01*
X84242877Y-77086233D01*
X84193676Y-76882082D01*
X84106760Y-76690919D01*
X83985263Y-76519640D01*
X83833569Y-76374425D01*
X83792477Y-76347892D01*
X83746099Y-76294136D01*
X83736146Y-76223841D01*
X83765778Y-76159323D01*
X83782992Y-76142954D01*
X83906062Y-76046282D01*
X83906067Y-76046278D01*
X83910779Y-76042576D01*
X83914711Y-76038045D01*
X84044479Y-75888502D01*
X84044483Y-75888497D01*
X84048410Y-75883971D01*
X84153566Y-75702201D01*
X84222453Y-75503826D01*
X84233639Y-75426677D01*
X84251725Y-75301944D01*
X84251725Y-75301941D01*
X84252586Y-75296004D01*
X84242877Y-75086233D01*
X84211118Y-74954453D01*
X84195082Y-74887915D01*
X84195081Y-74887913D01*
X84193676Y-74882082D01*
X84106760Y-74690919D01*
X83985263Y-74519640D01*
X83833569Y-74374425D01*
X83792477Y-74347892D01*
X83746099Y-74294136D01*
X83736146Y-74223841D01*
X83765778Y-74159323D01*
X83782992Y-74142954D01*
X83906062Y-74046282D01*
X83906067Y-74046278D01*
X83910779Y-74042576D01*
X83914711Y-74038045D01*
X84044479Y-73888502D01*
X84044483Y-73888497D01*
X84048410Y-73883971D01*
X84153566Y-73702201D01*
X84200023Y-73568419D01*
X84220486Y-73509491D01*
X84220486Y-73509489D01*
X84222453Y-73503826D01*
X84233639Y-73426677D01*
X84251725Y-73301944D01*
X84251725Y-73301941D01*
X84252586Y-73296004D01*
X84247432Y-73184638D01*
X84244648Y-73124492D01*
X84261479Y-73055520D01*
X84281418Y-73029572D01*
X85430749Y-71880242D01*
X85438869Y-71872853D01*
X85445277Y-71868786D01*
X85491285Y-71819793D01*
X85494040Y-71816951D01*
X85513520Y-71797471D01*
X85515948Y-71794341D01*
X85516020Y-71794259D01*
X85523629Y-71785351D01*
X85553462Y-71753582D01*
X85563036Y-71736167D01*
X85573893Y-71719638D01*
X85581214Y-71710200D01*
X85586073Y-71703936D01*
X85603380Y-71663942D01*
X85608602Y-71653282D01*
X85618064Y-71636071D01*
X85629597Y-71615092D01*
X85634541Y-71595836D01*
X85640940Y-71577147D01*
X85648838Y-71558896D01*
X85655657Y-71515841D01*
X85658060Y-71504237D01*
X85668900Y-71462019D01*
X85668900Y-71442144D01*
X85670451Y-71422434D01*
X85672320Y-71410633D01*
X85673560Y-71402804D01*
X85669459Y-71359420D01*
X85668900Y-71347563D01*
X85668900Y-67554080D01*
X85688902Y-67485959D01*
X85705805Y-67464985D01*
X88276386Y-64894405D01*
X88338698Y-64860379D01*
X88365481Y-64857500D01*
X88552726Y-64857500D01*
X88620847Y-64877502D01*
G37*
%TD.AperFunction*%
%TA.AperFunction,Conductor*%
G36*
X78868294Y-54639726D02*
G01*
X78902320Y-54702038D01*
X78895608Y-54777044D01*
X78889055Y-54792864D01*
X78833836Y-54970700D01*
X78833618Y-54984799D01*
X78840350Y-54988000D01*
X81127885Y-54988000D01*
X81141416Y-54984027D01*
X81142585Y-54975892D01*
X81099125Y-54821794D01*
X81095004Y-54811060D01*
X81083992Y-54788729D01*
X81071802Y-54718786D01*
X81099361Y-54653357D01*
X81157919Y-54613213D01*
X81196998Y-54607000D01*
X81419339Y-54607000D01*
X81487460Y-54627002D01*
X81533953Y-54680658D01*
X81544057Y-54750932D01*
X81535943Y-54778510D01*
X81536384Y-54778663D01*
X81468993Y-54972727D01*
X81468752Y-54973716D01*
X81470220Y-54984008D01*
X81483785Y-54988000D01*
X84208802Y-54988000D01*
X84222333Y-54984027D01*
X84223688Y-54974601D01*
X84202206Y-54885463D01*
X84198317Y-54874168D01*
X84157843Y-54785151D01*
X84147857Y-54714861D01*
X84177457Y-54650329D01*
X84237247Y-54612045D01*
X84272544Y-54607000D01*
X86315624Y-54607000D01*
X86383745Y-54627002D01*
X86399934Y-54639363D01*
X86420886Y-54658228D01*
X86425671Y-54662770D01*
X86440020Y-54677119D01*
X86447478Y-54683158D01*
X86455804Y-54689901D01*
X86460820Y-54694185D01*
X86511184Y-54739533D01*
X86523191Y-54746466D01*
X86539480Y-54757661D01*
X86550251Y-54766383D01*
X86556131Y-54769379D01*
X86556134Y-54769381D01*
X86610634Y-54797151D01*
X86616429Y-54800297D01*
X86635072Y-54811060D01*
X86675116Y-54834179D01*
X86686947Y-54838023D01*
X86688303Y-54838464D01*
X86706560Y-54846027D01*
X86713029Y-54849323D01*
X86713033Y-54849324D01*
X86718912Y-54852320D01*
X86784380Y-54869862D01*
X86790681Y-54871729D01*
X86855144Y-54892674D01*
X86868487Y-54894076D01*
X86868933Y-54894123D01*
X86888371Y-54897726D01*
X86889940Y-54898146D01*
X86901754Y-54901312D01*
X86908354Y-54901658D01*
X86908355Y-54901658D01*
X86969411Y-54904858D01*
X86975985Y-54905375D01*
X86992934Y-54907156D01*
X86992936Y-54907156D01*
X86996208Y-54907500D01*
X87016533Y-54907500D01*
X87023127Y-54907673D01*
X87084196Y-54910874D01*
X87084201Y-54910874D01*
X87090788Y-54911219D01*
X87104477Y-54909051D01*
X87124187Y-54907500D01*
X89251731Y-54907500D01*
X89319852Y-54927502D01*
X89366345Y-54981158D01*
X89376449Y-55051432D01*
X89346955Y-55116012D01*
X89287200Y-55154405D01*
X89112851Y-55205553D01*
X89012453Y-55257261D01*
X88931492Y-55298959D01*
X88931489Y-55298961D01*
X88926161Y-55301705D01*
X88921446Y-55305409D01*
X88765738Y-55427718D01*
X88765733Y-55427722D01*
X88761021Y-55431424D01*
X88757090Y-55435954D01*
X88757089Y-55435955D01*
X88646774Y-55563081D01*
X88587021Y-55601422D01*
X88551609Y-55606500D01*
X88196103Y-55606500D01*
X88185143Y-55605983D01*
X88177733Y-55604327D01*
X88169807Y-55604576D01*
X88169806Y-55604576D01*
X88110559Y-55606438D01*
X88106601Y-55606500D01*
X88079050Y-55606500D01*
X88075127Y-55606996D01*
X88075012Y-55607003D01*
X88063332Y-55607923D01*
X88019773Y-55609291D01*
X88000684Y-55614837D01*
X87981338Y-55618844D01*
X87961608Y-55621336D01*
X87921077Y-55637384D01*
X87909876Y-55641219D01*
X87868010Y-55653382D01*
X87850901Y-55663500D01*
X87833155Y-55672195D01*
X87814668Y-55679514D01*
X87786927Y-55699669D01*
X87779412Y-55705129D01*
X87769490Y-55711646D01*
X87738810Y-55729790D01*
X87738806Y-55729793D01*
X87731980Y-55733830D01*
X87717930Y-55747880D01*
X87702896Y-55760721D01*
X87686813Y-55772406D01*
X87681760Y-55778514D01*
X87659031Y-55805989D01*
X87651041Y-55814769D01*
X84428352Y-59037457D01*
X84366040Y-59071483D01*
X84295224Y-59066418D01*
X84238389Y-59023871D01*
X84216764Y-58977883D01*
X84195082Y-58887915D01*
X84195081Y-58887913D01*
X84193676Y-58882082D01*
X84106760Y-58690919D01*
X83985263Y-58519640D01*
X83833569Y-58374425D01*
X83799141Y-58352195D01*
X83752763Y-58298441D01*
X83742809Y-58228146D01*
X83772440Y-58163628D01*
X83789655Y-58147257D01*
X83911257Y-58051738D01*
X83919906Y-58043501D01*
X84050612Y-57892877D01*
X84057547Y-57883153D01*
X84157410Y-57710533D01*
X84162384Y-57699669D01*
X84227807Y-57511273D01*
X84228048Y-57510284D01*
X84226580Y-57499992D01*
X84213015Y-57496000D01*
X81487998Y-57496000D01*
X81474467Y-57499973D01*
X81473112Y-57509399D01*
X81494594Y-57598537D01*
X81498483Y-57609832D01*
X81581029Y-57791382D01*
X81586979Y-57801730D01*
X81605685Y-57828101D01*
X81628783Y-57895235D01*
X81611918Y-57964200D01*
X81560446Y-58013099D01*
X81502915Y-58027000D01*
X81119731Y-58027000D01*
X81051610Y-58006998D01*
X81005117Y-57953342D01*
X80995013Y-57883068D01*
X81009797Y-57839434D01*
X81070931Y-57730272D01*
X81075610Y-57719763D01*
X81141786Y-57524817D01*
X81144417Y-57513857D01*
X81142440Y-57499992D01*
X81128874Y-57496000D01*
X78850381Y-57496000D01*
X78836850Y-57499973D01*
X78835558Y-57508962D01*
X78867056Y-57632985D01*
X78870897Y-57643832D01*
X78957085Y-57830789D01*
X78962836Y-57840750D01*
X79081654Y-58008873D01*
X79089120Y-58017615D01*
X79234266Y-58159010D01*
X79269103Y-58220871D01*
X79264966Y-58291747D01*
X79229422Y-58343995D01*
X79136416Y-58425560D01*
X79136412Y-58425565D01*
X79132069Y-58429373D01*
X78998319Y-58599034D01*
X78897727Y-58790228D01*
X78833662Y-58996553D01*
X78808269Y-59211097D01*
X78822398Y-59426677D01*
X78823820Y-59432275D01*
X78823820Y-59432277D01*
X78874157Y-59630476D01*
X78875578Y-59636071D01*
X78966026Y-59832268D01*
X78969359Y-59836984D01*
X79067684Y-59976111D01*
X79090713Y-60008697D01*
X79094855Y-60012732D01*
X79239922Y-60154049D01*
X79274760Y-60215910D01*
X79270623Y-60286786D01*
X79235079Y-60339035D01*
X79179511Y-60387767D01*
X79132069Y-60429373D01*
X78998319Y-60599034D01*
X78897727Y-60790228D01*
X78833662Y-60996553D01*
X78808269Y-61211097D01*
X78822398Y-61426677D01*
X78875578Y-61636071D01*
X78966026Y-61832268D01*
X78969359Y-61836984D01*
X79083155Y-61998002D01*
X79090713Y-62008697D01*
X79094855Y-62012732D01*
X79239922Y-62154049D01*
X79274760Y-62215910D01*
X79270623Y-62286786D01*
X79235079Y-62339035D01*
X79132069Y-62429373D01*
X78998319Y-62599034D01*
X78897727Y-62790228D01*
X78833662Y-62996553D01*
X78808269Y-63211097D01*
X78822398Y-63426677D01*
X78823820Y-63432275D01*
X78823820Y-63432277D01*
X78857041Y-63563081D01*
X78875578Y-63636071D01*
X78877995Y-63641313D01*
X78877995Y-63641314D01*
X78933044Y-63760724D01*
X78966026Y-63832268D01*
X79090713Y-64008697D01*
X79094855Y-64012732D01*
X79239922Y-64154049D01*
X79274760Y-64215910D01*
X79270623Y-64286786D01*
X79235079Y-64339035D01*
X79132069Y-64429373D01*
X78998319Y-64599034D01*
X78897727Y-64790228D01*
X78833662Y-64996553D01*
X78808269Y-65211097D01*
X78822398Y-65426677D01*
X78875578Y-65636071D01*
X78966026Y-65832268D01*
X78969359Y-65836984D01*
X79083155Y-65998002D01*
X79090713Y-66008697D01*
X79232250Y-66146575D01*
X79239922Y-66154049D01*
X79274760Y-66215910D01*
X79270623Y-66286786D01*
X79235079Y-66339035D01*
X79132069Y-66429373D01*
X78998319Y-66599034D01*
X78897727Y-66790228D01*
X78833662Y-66996553D01*
X78808269Y-67211097D01*
X78822398Y-67426677D01*
X78823820Y-67432275D01*
X78823820Y-67432277D01*
X78874157Y-67630476D01*
X78875578Y-67636071D01*
X78966026Y-67832268D01*
X78969359Y-67836984D01*
X79067684Y-67976111D01*
X79090713Y-68008697D01*
X79094855Y-68012732D01*
X79239922Y-68154049D01*
X79274760Y-68215910D01*
X79270623Y-68286786D01*
X79235079Y-68339035D01*
X79179511Y-68387767D01*
X79132069Y-68429373D01*
X78998319Y-68599034D01*
X78897727Y-68790228D01*
X78833662Y-68996553D01*
X78808269Y-69211097D01*
X78822398Y-69426677D01*
X78875578Y-69636071D01*
X78966026Y-69832268D01*
X78969359Y-69836984D01*
X79083155Y-69998002D01*
X79090713Y-70008697D01*
X79094855Y-70012732D01*
X79239922Y-70154049D01*
X79274760Y-70215910D01*
X79270623Y-70286786D01*
X79235079Y-70339035D01*
X79132069Y-70429373D01*
X78998319Y-70599034D01*
X78897727Y-70790228D01*
X78833662Y-70996553D01*
X78808269Y-71211097D01*
X78822398Y-71426677D01*
X78823820Y-71432275D01*
X78823820Y-71432277D01*
X78868301Y-71607419D01*
X78875578Y-71636071D01*
X78966026Y-71832268D01*
X78969359Y-71836984D01*
X79067684Y-71976111D01*
X79090713Y-72008697D01*
X79094855Y-72012732D01*
X79239922Y-72154049D01*
X79274760Y-72215910D01*
X79270623Y-72286786D01*
X79235079Y-72339035D01*
X79179511Y-72387767D01*
X79132069Y-72429373D01*
X78998319Y-72599034D01*
X78897727Y-72790228D01*
X78896014Y-72795745D01*
X78837976Y-72982661D01*
X78833662Y-72996553D01*
X78808269Y-73211097D01*
X78822398Y-73426677D01*
X78823820Y-73432275D01*
X78823820Y-73432277D01*
X78856632Y-73561471D01*
X78875578Y-73636071D01*
X78877995Y-73641313D01*
X78877995Y-73641314D01*
X78915303Y-73722241D01*
X78966026Y-73832268D01*
X79090713Y-74008697D01*
X79228533Y-74142954D01*
X79239922Y-74154049D01*
X79274760Y-74215910D01*
X79270623Y-74286786D01*
X79235079Y-74339035D01*
X79132069Y-74429373D01*
X78998319Y-74599034D01*
X78995628Y-74604150D01*
X78995626Y-74604152D01*
X78923228Y-74741759D01*
X78897727Y-74790228D01*
X78833662Y-74996553D01*
X78808269Y-75211097D01*
X78822398Y-75426677D01*
X78823820Y-75432275D01*
X78823820Y-75432277D01*
X78843430Y-75509491D01*
X78875578Y-75636071D01*
X78966026Y-75832268D01*
X79090713Y-76008697D01*
X79228533Y-76142954D01*
X79239922Y-76154049D01*
X79274760Y-76215910D01*
X79270623Y-76286786D01*
X79235079Y-76339035D01*
X79132069Y-76429373D01*
X78998319Y-76599034D01*
X78897727Y-76790228D01*
X78833662Y-76996553D01*
X78808269Y-77211097D01*
X78822398Y-77426677D01*
X78834667Y-77474985D01*
X78832049Y-77545932D01*
X78791489Y-77604202D01*
X78725865Y-77631294D01*
X78712544Y-77632000D01*
X78619400Y-77632000D01*
X78551279Y-77611998D01*
X78504786Y-77558342D01*
X78493400Y-77506000D01*
X78493400Y-56984799D01*
X78833618Y-56984799D01*
X78840350Y-56988000D01*
X79716285Y-56988000D01*
X79731524Y-56983525D01*
X79732729Y-56982135D01*
X79734400Y-56974452D01*
X79734400Y-56969885D01*
X80242400Y-56969885D01*
X80246875Y-56985124D01*
X80248265Y-56986329D01*
X80255948Y-56988000D01*
X81127885Y-56988000D01*
X81141416Y-56984027D01*
X81142585Y-56975892D01*
X81141971Y-56973716D01*
X81468752Y-56973716D01*
X81470220Y-56984008D01*
X81483785Y-56988000D01*
X82576285Y-56988000D01*
X82591524Y-56983525D01*
X82592729Y-56982135D01*
X82594400Y-56974452D01*
X82594400Y-56969885D01*
X83102400Y-56969885D01*
X83106875Y-56985124D01*
X83108265Y-56986329D01*
X83115948Y-56988000D01*
X84208802Y-56988000D01*
X84222333Y-56984027D01*
X84223688Y-56974601D01*
X84202206Y-56885463D01*
X84198317Y-56874168D01*
X84115771Y-56692618D01*
X84109824Y-56682276D01*
X83994432Y-56519603D01*
X83986639Y-56510575D01*
X83842569Y-56372658D01*
X83833199Y-56365258D01*
X83805379Y-56347295D01*
X83759001Y-56293540D01*
X83749047Y-56223244D01*
X83778678Y-56158727D01*
X83795893Y-56142357D01*
X83911257Y-56051738D01*
X83919906Y-56043501D01*
X84050612Y-55892877D01*
X84057547Y-55883153D01*
X84157410Y-55710533D01*
X84162384Y-55699669D01*
X84227807Y-55511273D01*
X84228048Y-55510284D01*
X84226580Y-55499992D01*
X84213015Y-55496000D01*
X83120515Y-55496000D01*
X83105276Y-55500475D01*
X83104071Y-55501865D01*
X83102400Y-55509548D01*
X83102400Y-56969885D01*
X82594400Y-56969885D01*
X82594400Y-55514115D01*
X82589925Y-55498876D01*
X82588535Y-55497671D01*
X82580852Y-55496000D01*
X81487998Y-55496000D01*
X81474467Y-55499973D01*
X81473112Y-55509399D01*
X81494594Y-55598537D01*
X81498483Y-55609832D01*
X81581029Y-55791382D01*
X81586976Y-55801724D01*
X81702368Y-55964397D01*
X81710161Y-55973425D01*
X81854231Y-56111342D01*
X81863601Y-56118742D01*
X81891421Y-56136705D01*
X81937799Y-56190460D01*
X81947753Y-56260756D01*
X81918122Y-56325273D01*
X81900907Y-56341643D01*
X81785543Y-56432262D01*
X81776894Y-56440499D01*
X81646188Y-56591123D01*
X81639253Y-56600847D01*
X81539390Y-56773467D01*
X81534416Y-56784331D01*
X81468993Y-56972727D01*
X81468752Y-56973716D01*
X81141971Y-56973716D01*
X81099125Y-56821794D01*
X81095003Y-56811055D01*
X81003949Y-56626417D01*
X80997938Y-56616608D01*
X80874760Y-56451651D01*
X80867071Y-56443111D01*
X80748720Y-56333709D01*
X80712275Y-56272780D01*
X80714556Y-56201820D01*
X80753680Y-56144310D01*
X80824053Y-56085782D01*
X80832182Y-56077653D01*
X80963820Y-55919375D01*
X80970344Y-55909882D01*
X81070931Y-55730272D01*
X81075610Y-55719763D01*
X81141786Y-55524817D01*
X81144417Y-55513857D01*
X81142440Y-55499992D01*
X81128874Y-55496000D01*
X80260515Y-55496000D01*
X80245276Y-55500475D01*
X80244071Y-55501865D01*
X80242400Y-55509548D01*
X80242400Y-56969885D01*
X79734400Y-56969885D01*
X79734400Y-55514115D01*
X79729925Y-55498876D01*
X79728535Y-55497671D01*
X79720852Y-55496000D01*
X78850381Y-55496000D01*
X78836850Y-55499973D01*
X78835558Y-55508962D01*
X78867056Y-55632985D01*
X78870897Y-55643832D01*
X78957085Y-55830789D01*
X78962836Y-55840750D01*
X79081654Y-56008873D01*
X79089120Y-56017615D01*
X79228877Y-56153761D01*
X79263714Y-56215623D01*
X79259577Y-56286499D01*
X79224032Y-56338747D01*
X79130952Y-56420376D01*
X79123030Y-56428724D01*
X78995580Y-56590394D01*
X78989309Y-56600050D01*
X78893460Y-56782229D01*
X78889055Y-56792863D01*
X78833836Y-56970700D01*
X78833618Y-56984799D01*
X78493400Y-56984799D01*
X78493400Y-54607000D01*
X78808358Y-54607000D01*
X78868294Y-54639726D01*
G37*
%TD.AperFunction*%
%TA.AperFunction,Conductor*%
G36*
X88620847Y-56877502D02*
G01*
X88655496Y-56910601D01*
X88683067Y-56949469D01*
X88683070Y-56949473D01*
X88686537Y-56954360D01*
X88838231Y-57099575D01*
X88872658Y-57121804D01*
X88919037Y-57175559D01*
X88928991Y-57245854D01*
X88899360Y-57310372D01*
X88882145Y-57326743D01*
X88760543Y-57422262D01*
X88751894Y-57430499D01*
X88621188Y-57581123D01*
X88614253Y-57590847D01*
X88514390Y-57763467D01*
X88509416Y-57774331D01*
X88443993Y-57962727D01*
X88443752Y-57963716D01*
X88445220Y-57974008D01*
X88458785Y-57978000D01*
X89926400Y-57978000D01*
X89994521Y-57998002D01*
X90041014Y-58051658D01*
X90052400Y-58104000D01*
X90052400Y-58360000D01*
X90032398Y-58428121D01*
X89978742Y-58474614D01*
X89926400Y-58486000D01*
X88462998Y-58486000D01*
X88449467Y-58489973D01*
X88448112Y-58499399D01*
X88469594Y-58588537D01*
X88473483Y-58599832D01*
X88556029Y-58781382D01*
X88561976Y-58791724D01*
X88677368Y-58954397D01*
X88685161Y-58963425D01*
X88829231Y-59101342D01*
X88838599Y-59108741D01*
X88873086Y-59131009D01*
X88919463Y-59184765D01*
X88929416Y-59255060D01*
X88899783Y-59319577D01*
X88882570Y-59335946D01*
X88765738Y-59427718D01*
X88765733Y-59427722D01*
X88761021Y-59431424D01*
X88757090Y-59435954D01*
X88757089Y-59435955D01*
X88627321Y-59585498D01*
X88627317Y-59585503D01*
X88623390Y-59590029D01*
X88518234Y-59771799D01*
X88449347Y-59970174D01*
X88419214Y-60177996D01*
X88428923Y-60387767D01*
X88478124Y-60591918D01*
X88565040Y-60783081D01*
X88686537Y-60954360D01*
X88838231Y-61099575D01*
X88872658Y-61121804D01*
X88919037Y-61175559D01*
X88928991Y-61245854D01*
X88899360Y-61310372D01*
X88882145Y-61326743D01*
X88760543Y-61422262D01*
X88751894Y-61430499D01*
X88621188Y-61581123D01*
X88614253Y-61590847D01*
X88514390Y-61763467D01*
X88509416Y-61774331D01*
X88443993Y-61962727D01*
X88443752Y-61963716D01*
X88445220Y-61974008D01*
X88458785Y-61978000D01*
X89926400Y-61978000D01*
X89994521Y-61998002D01*
X90041014Y-62051658D01*
X90052400Y-62104000D01*
X90052400Y-62360000D01*
X90032398Y-62428121D01*
X89978742Y-62474614D01*
X89926400Y-62486000D01*
X88462998Y-62486000D01*
X88449467Y-62489973D01*
X88448112Y-62499399D01*
X88469594Y-62588537D01*
X88473483Y-62599832D01*
X88556029Y-62781382D01*
X88561976Y-62791724D01*
X88677368Y-62954397D01*
X88685161Y-62963425D01*
X88829231Y-63101342D01*
X88838599Y-63108741D01*
X88873086Y-63131009D01*
X88919463Y-63184765D01*
X88929416Y-63255060D01*
X88899783Y-63319577D01*
X88882570Y-63335946D01*
X88765738Y-63427718D01*
X88765733Y-63427722D01*
X88761021Y-63431424D01*
X88757090Y-63435954D01*
X88757089Y-63435955D01*
X88646774Y-63563081D01*
X88587021Y-63601422D01*
X88551609Y-63606500D01*
X88131898Y-63606500D01*
X88120937Y-63605983D01*
X88113532Y-63604328D01*
X88051673Y-63606272D01*
X88046376Y-63606438D01*
X88042419Y-63606500D01*
X88014850Y-63606500D01*
X88010915Y-63606997D01*
X88010805Y-63607004D01*
X87999134Y-63607922D01*
X87968066Y-63608898D01*
X87955573Y-63609291D01*
X87936484Y-63614837D01*
X87917138Y-63618844D01*
X87897408Y-63621336D01*
X87856877Y-63637384D01*
X87845676Y-63641219D01*
X87803810Y-63653382D01*
X87786697Y-63663502D01*
X87768952Y-63672195D01*
X87750468Y-63679514D01*
X87715203Y-63705136D01*
X87705295Y-63711643D01*
X87674602Y-63729794D01*
X87674597Y-63729798D01*
X87667779Y-63733830D01*
X87653726Y-63747883D01*
X87638693Y-63760723D01*
X87622613Y-63772406D01*
X87617560Y-63778514D01*
X87594835Y-63805984D01*
X87586845Y-63814764D01*
X85283995Y-66117614D01*
X85221683Y-66151640D01*
X85150868Y-66146575D01*
X85094032Y-66104028D01*
X85069221Y-66037508D01*
X85068900Y-66028519D01*
X85068900Y-60218280D01*
X85088902Y-60150159D01*
X85105805Y-60129185D01*
X88340586Y-56894405D01*
X88402898Y-56860379D01*
X88429681Y-56857500D01*
X88552726Y-56857500D01*
X88620847Y-56877502D01*
G37*
%TD.AperFunction*%
%TA.AperFunction,Conductor*%
G36*
X85160086Y-45927002D02*
G01*
X85206579Y-45980658D01*
X85216095Y-46011376D01*
X85724238Y-48928547D01*
X85733033Y-48940391D01*
X85733034Y-48940393D01*
X86247050Y-49632594D01*
X86861484Y-50460024D01*
X86875025Y-50482993D01*
X86878951Y-50491629D01*
X86885397Y-50509150D01*
X86892289Y-50533265D01*
X86907732Y-50557740D01*
X86915866Y-50572816D01*
X86927842Y-50599156D01*
X86933698Y-50605952D01*
X86933700Y-50605955D01*
X86944215Y-50618157D01*
X86955328Y-50633175D01*
X86968715Y-50654393D01*
X86990402Y-50673546D01*
X87002443Y-50685735D01*
X87021332Y-50707657D01*
X87028861Y-50712537D01*
X87028862Y-50712538D01*
X87042391Y-50721307D01*
X87057264Y-50732597D01*
X87069333Y-50743255D01*
X87076066Y-50749201D01*
X87102259Y-50761499D01*
X87117226Y-50769813D01*
X87141517Y-50785557D01*
X87150119Y-50788129D01*
X87150120Y-50788130D01*
X87153539Y-50789152D01*
X87165559Y-50792747D01*
X87182997Y-50799406D01*
X87192111Y-50803685D01*
X87197589Y-50806257D01*
X87197591Y-50806258D01*
X87205711Y-50810070D01*
X87214575Y-50811450D01*
X87214578Y-50811451D01*
X87230825Y-50813980D01*
X87234299Y-50814521D01*
X87251016Y-50818304D01*
X87270135Y-50824022D01*
X87270141Y-50824023D01*
X87278735Y-50826593D01*
X87287704Y-50826648D01*
X87287706Y-50826648D01*
X87297921Y-50826710D01*
X87312616Y-50826800D01*
X87313363Y-50826831D01*
X87314447Y-50827000D01*
X87344910Y-50827000D01*
X87345681Y-50827002D01*
X87421956Y-50827468D01*
X87423283Y-50827089D01*
X87424589Y-50827000D01*
X87544030Y-50827000D01*
X87592099Y-50836530D01*
X92090469Y-52693075D01*
X92145807Y-52737552D01*
X92168400Y-52809545D01*
X92168400Y-54354311D01*
X92148398Y-54422432D01*
X92094742Y-54468925D01*
X92024468Y-54479029D01*
X91959888Y-54449535D01*
X91953305Y-54443406D01*
X90937278Y-53427379D01*
X90924441Y-53412351D01*
X90916288Y-53401129D01*
X90865913Y-53355771D01*
X90861129Y-53351230D01*
X90846780Y-53336881D01*
X90839322Y-53330842D01*
X90830996Y-53324099D01*
X90825980Y-53319815D01*
X90780526Y-53278888D01*
X90775616Y-53274467D01*
X90763609Y-53267534D01*
X90747320Y-53256339D01*
X90741679Y-53251771D01*
X90741678Y-53251771D01*
X90736549Y-53247617D01*
X90730669Y-53244621D01*
X90730666Y-53244619D01*
X90676166Y-53216849D01*
X90670371Y-53213703D01*
X90617400Y-53183121D01*
X90617399Y-53183121D01*
X90611684Y-53179821D01*
X90598497Y-53175536D01*
X90580240Y-53167973D01*
X90573771Y-53164677D01*
X90573767Y-53164676D01*
X90567888Y-53161680D01*
X90561515Y-53159972D01*
X90561509Y-53159970D01*
X90502425Y-53144138D01*
X90496101Y-53142265D01*
X90437935Y-53123366D01*
X90437933Y-53123366D01*
X90431656Y-53121326D01*
X90425095Y-53120636D01*
X90425093Y-53120636D01*
X90417879Y-53119878D01*
X90398437Y-53116275D01*
X90385046Y-53112687D01*
X90378457Y-53112342D01*
X90378452Y-53112341D01*
X90347027Y-53110695D01*
X90317366Y-53109141D01*
X90310800Y-53108624D01*
X90293870Y-53106844D01*
X90293859Y-53106843D01*
X90290592Y-53106500D01*
X90270274Y-53106500D01*
X90263680Y-53106327D01*
X90202604Y-53103126D01*
X90202600Y-53103126D01*
X90196012Y-53102781D01*
X90189496Y-53103813D01*
X90182324Y-53104949D01*
X90162613Y-53106500D01*
X87515564Y-53106500D01*
X87447443Y-53086498D01*
X87400950Y-53032842D01*
X87389821Y-52988547D01*
X87344019Y-52272872D01*
X87342862Y-52254794D01*
X87332337Y-52248400D01*
X87332336Y-52248399D01*
X84092213Y-50279978D01*
X84044379Y-50227515D01*
X84032502Y-50157519D01*
X84060354Y-50092213D01*
X84068460Y-50083275D01*
X84086213Y-50065491D01*
X84091384Y-50060311D01*
X84183214Y-49911334D01*
X84200715Y-49858571D01*
X84236144Y-49751759D01*
X84236145Y-49751757D01*
X84238310Y-49745228D01*
X84248900Y-49641866D01*
X84248900Y-48842134D01*
X84248563Y-48838884D01*
X84238753Y-48744339D01*
X84238752Y-48744335D01*
X84238041Y-48737481D01*
X84182656Y-48571471D01*
X84090566Y-48422655D01*
X83966711Y-48299016D01*
X83817734Y-48207186D01*
X83808346Y-48204072D01*
X83658159Y-48154256D01*
X83658157Y-48154255D01*
X83651628Y-48152090D01*
X83548266Y-48141500D01*
X82148534Y-48141500D01*
X82145288Y-48141837D01*
X82145284Y-48141837D01*
X82050739Y-48151647D01*
X82050735Y-48151648D01*
X82043881Y-48152359D01*
X82037345Y-48154540D01*
X82037343Y-48154540D01*
X81898260Y-48200942D01*
X81877871Y-48207744D01*
X81729055Y-48299834D01*
X81605416Y-48423689D01*
X81513586Y-48572666D01*
X81458490Y-48738772D01*
X81447900Y-48842134D01*
X81447900Y-49641866D01*
X81448237Y-49645112D01*
X81448237Y-49645116D01*
X81457915Y-49738383D01*
X81458759Y-49746519D01*
X81460939Y-49753053D01*
X81460940Y-49753058D01*
X81510846Y-49902645D01*
X81513430Y-49973595D01*
X81477246Y-50034679D01*
X81413782Y-50066503D01*
X81386008Y-50068409D01*
X81284585Y-50064127D01*
X81217369Y-50041269D01*
X81173180Y-49985700D01*
X81163900Y-49938239D01*
X81163899Y-48523042D01*
X81163899Y-48519624D01*
X81157251Y-48458420D01*
X81106926Y-48324176D01*
X81101546Y-48316997D01*
X81101544Y-48316994D01*
X81026328Y-48216635D01*
X81020946Y-48209454D01*
X81013765Y-48204072D01*
X80913406Y-48128856D01*
X80913403Y-48128854D01*
X80906224Y-48123474D01*
X80816839Y-48089966D01*
X80779375Y-48075921D01*
X80779373Y-48075921D01*
X80771980Y-48073149D01*
X80764130Y-48072296D01*
X80764129Y-48072296D01*
X80714174Y-48066869D01*
X80714173Y-48066869D01*
X80710777Y-48066500D01*
X79988506Y-48066500D01*
X79266024Y-48066501D01*
X79262630Y-48066870D01*
X79262624Y-48066870D01*
X79212678Y-48072295D01*
X79212674Y-48072296D01*
X79204820Y-48073149D01*
X79070576Y-48123474D01*
X79063397Y-48128854D01*
X79063394Y-48128856D01*
X78963035Y-48204072D01*
X78955854Y-48209454D01*
X78950472Y-48216635D01*
X78875256Y-48316994D01*
X78875254Y-48316997D01*
X78869874Y-48324176D01*
X78819549Y-48458420D01*
X78812900Y-48519623D01*
X78812900Y-48523040D01*
X78812901Y-49901180D01*
X78804328Y-49930377D01*
X78808624Y-49931407D01*
X78801935Y-49959312D01*
X78493400Y-49946286D01*
X78493400Y-46033000D01*
X78513402Y-45964879D01*
X78567058Y-45918386D01*
X78619400Y-45907000D01*
X85091965Y-45907000D01*
X85160086Y-45927002D01*
G37*
%TD.AperFunction*%
%TD*%
%TA.AperFunction,Conductor*%
%TO.N,+5V*%
G36*
X83331001Y-50720709D02*
G01*
X83344434Y-50730524D01*
X85442200Y-52487000D01*
X86517400Y-52487000D01*
X86585521Y-52507002D01*
X86632014Y-52560658D01*
X86643400Y-52613000D01*
X86643400Y-53781000D01*
X86623398Y-53849121D01*
X86569742Y-53895614D01*
X86517400Y-53907000D01*
X79554178Y-53907000D01*
X79486057Y-53886998D01*
X79439564Y-53833342D01*
X79428178Y-53781222D01*
X79423009Y-50850590D01*
X79442891Y-50782434D01*
X79496465Y-50735847D01*
X79548219Y-50724370D01*
X83262758Y-50701133D01*
X83331001Y-50720709D01*
G37*
%TD.AperFunction*%
%TD*%
%TA.AperFunction,Conductor*%
%TO.N,GND*%
G36*
X78798400Y-54912000D02*
G01*
X78443400Y-54912000D01*
X78443400Y-49632000D01*
X78798400Y-49632000D01*
X78798400Y-54912000D01*
G37*
%TD.AperFunction*%
%TD*%
M02*
