M48
; DRILL file {KiCad (6.0.1)} date Wed Jul 27 18:49:27 2022
; FORMAT={-:-/ absolute / inch / decimal}
; #@! TF.CreationDate,2022-07-27T18:49:27-07:00
; #@! TF.GenerationSoftware,Kicad,Pcbnew,(6.0.1)
; #@! TF.FileFunction,Plated,1,2,PTH
FMAT,2
INCH
; #@! TA.AperFunction,Plated,PTH,ViaDrill
T1C0.0157
; #@! TA.AperFunction,Plated,PTH,ComponentDrill
T2C0.0295
; #@! TA.AperFunction,Plated,PTH,ComponentDrill
T3C0.0315
%
G90
G05
T1
X3.3413Y-2.2847
X3.3442Y-2.1774
X3.3747Y-2.2513
X3.3834Y-2.3812
X3.3836Y-2.5396
X3.3875Y-2.6656
X3.3875Y-2.77
X3.3915Y-2.1774
X3.4092Y-2.2168
X3.4169Y-2.3477
X3.4171Y-2.5062
X3.421Y-2.6322
X3.4273Y-2.7503
X3.4367Y-2.1774
X3.4513Y-2.3133
X3.4515Y-2.4717
X3.4554Y-2.5977
X3.4604Y-2.7306
X3.5332Y-2.0692
X3.61Y-2.1026
T2
X3.5354Y-2.2139
X3.5354Y-2.2926
X3.5354Y-2.3713
X3.5354Y-2.4501
X3.5354Y-2.5288
X3.5354Y-2.6076
X3.5354Y-2.6863
X3.5354Y-2.765
X3.5354Y-2.8438
X3.5354Y-2.9225
T3
X3.1491Y-1.9387
X3.1491Y-2.0174
X3.1491Y-2.0961
X3.1491Y-2.1749
X3.1491Y-2.2536
X3.1491Y-2.3324
X3.1491Y-2.4111
X3.1491Y-2.4898
X3.1491Y-2.5686
X3.1491Y-2.6473
X3.1491Y-2.7261
X3.1491Y-2.8048
X3.1491Y-2.8835
X3.1491Y-2.9623
X3.1491Y-3.041
X3.1491Y-3.1198
X3.1491Y-3.1985
X3.2617Y-1.9387
X3.2617Y-2.0174
X3.2617Y-2.0961
X3.2617Y-2.1749
X3.2617Y-2.2536
X3.2617Y-2.3324
X3.2617Y-2.4111
X3.2617Y-2.4898
X3.2617Y-2.5686
X3.2617Y-2.6473
X3.2617Y-2.7261
X3.2617Y-2.8048
X3.2617Y-2.8835
X3.2617Y-2.9623
X3.2617Y-3.041
X3.2617Y-3.1198
X3.2617Y-3.1985
T0
M30
