%TF.GenerationSoftware,KiCad,Pcbnew,(6.0.1)*%
%TF.CreationDate,2022-07-28T19:16:12-07:00*%
%TF.ProjectId,mu100-dit-connector-board,6d753130-302d-4646-9974-2d636f6e6e65,rev?*%
%TF.SameCoordinates,PX4a615b8PY2b4db18*%
%TF.FileFunction,Copper,L1,Top*%
%TF.FilePolarity,Positive*%
%FSLAX46Y46*%
G04 Gerber Fmt 4.6, Leading zero omitted, Abs format (unit mm)*
G04 Created by KiCad (PCBNEW (6.0.1)) date 2022-07-28 19:16:12*
%MOMM*%
%LPD*%
G01*
G04 APERTURE LIST*
G04 Aperture macros list*
%AMRoundRect*
0 Rectangle with rounded corners*
0 $1 Rounding radius*
0 $2 $3 $4 $5 $6 $7 $8 $9 X,Y pos of 4 corners*
0 Add a 4 corners polygon primitive as box body*
4,1,4,$2,$3,$4,$5,$6,$7,$8,$9,$2,$3,0*
0 Add four circle primitives for the rounded corners*
1,1,$1+$1,$2,$3*
1,1,$1+$1,$4,$5*
1,1,$1+$1,$6,$7*
1,1,$1+$1,$8,$9*
0 Add four rect primitives between the rounded corners*
20,1,$1+$1,$2,$3,$4,$5,0*
20,1,$1+$1,$4,$5,$6,$7,0*
20,1,$1+$1,$6,$7,$8,$9,0*
20,1,$1+$1,$8,$9,$2,$3,0*%
G04 Aperture macros list end*
%TA.AperFunction,ComponentPad*%
%ADD10R,1.350000X1.350000*%
%TD*%
%TA.AperFunction,ComponentPad*%
%ADD11O,1.350000X1.350000*%
%TD*%
%TA.AperFunction,SMDPad,CuDef*%
%ADD12RoundRect,0.250000X-0.337500X-0.475000X0.337500X-0.475000X0.337500X0.475000X-0.337500X0.475000X0*%
%TD*%
%TA.AperFunction,ComponentPad*%
%ADD13RoundRect,0.250000X0.625000X-0.350000X0.625000X0.350000X-0.625000X0.350000X-0.625000X-0.350000X0*%
%TD*%
%TA.AperFunction,ComponentPad*%
%ADD14O,1.750000X1.200000*%
%TD*%
%TA.AperFunction,ComponentPad*%
%ADD15RoundRect,0.250000X-0.650000X0.350000X-0.650000X-0.350000X0.650000X-0.350000X0.650000X0.350000X0*%
%TD*%
%TA.AperFunction,ComponentPad*%
%ADD16O,1.800000X1.200000*%
%TD*%
%TA.AperFunction,ViaPad*%
%ADD17C,0.800000*%
%TD*%
%TA.AperFunction,Conductor*%
%ADD18C,0.400000*%
%TD*%
%TA.AperFunction,Conductor*%
%ADD19C,0.800000*%
%TD*%
%TA.AperFunction,Conductor*%
%ADD20C,0.250000*%
%TD*%
%TA.AperFunction,Conductor*%
%ADD21C,1.000000*%
%TD*%
G04 APERTURE END LIST*
D10*
%TO.P,J1,1,Pin_1*%
%TO.N,/RER*%
X79988400Y-49242000D03*
D11*
%TO.P,J1,2,Pin_2*%
%TO.N,+5V*%
X79988400Y-51242000D03*
%TO.P,J1,3,Pin_3*%
X79988400Y-53242000D03*
%TO.P,J1,4,Pin_4*%
%TO.N,GND*%
X79988400Y-55242000D03*
%TO.P,J1,5,Pin_5*%
X79988400Y-57242000D03*
%TO.P,J1,6,Pin_6*%
%TO.N,Net-(J1-Pad6)*%
X79988400Y-59242000D03*
%TO.P,J1,7,Pin_7*%
%TO.N,/MEL00*%
X79988400Y-61242000D03*
%TO.P,J1,8,Pin_8*%
%TO.N,/SYOD*%
X79988400Y-63242000D03*
%TO.P,J1,9,Pin_9*%
%TO.N,/QCLK*%
X79988400Y-65242000D03*
%TO.P,J1,10,Pin_10*%
%TO.N,Net-(J1-Pad10)*%
X79988400Y-67242000D03*
%TO.P,J1,11,Pin_11*%
%TO.N,/CK256*%
X79988400Y-69242000D03*
%TO.P,J1,12,Pin_12*%
%TO.N,/WCLK*%
X79988400Y-71242000D03*
%TO.P,J1,13,Pin_13*%
%TO.N,/DACOL*%
X79988400Y-73242000D03*
%TO.P,J1,14,Pin_14*%
%TO.N,/REA*%
X79988400Y-75242000D03*
%TO.P,J1,15,Pin_15*%
%TO.N,/REB*%
X79988400Y-77242000D03*
%TO.P,J1,16,Pin_16*%
%TO.N,GNDA*%
X79988400Y-79242000D03*
%TO.P,J1,17,Pin_17*%
%TO.N,+9VA*%
X79988400Y-81242000D03*
%TD*%
D12*
%TO.P,C1,1*%
%TO.N,+5V*%
X86055900Y-53207000D03*
%TO.P,C1,2*%
%TO.N,GND*%
X88130900Y-53207000D03*
%TD*%
D13*
%TO.P,J3,1,Pin_1*%
%TO.N,unconnected-(J3-Pad1)*%
X89798400Y-74232000D03*
D14*
%TO.P,J3,2,Pin_2*%
%TO.N,+5V*%
X89798400Y-72232000D03*
%TO.P,J3,3,Pin_3*%
%TO.N,GND*%
X89798400Y-70232000D03*
%TO.P,J3,4,Pin_4*%
%TO.N,/CK256*%
X89798400Y-68232000D03*
%TO.P,J3,5,Pin_5*%
%TO.N,GND*%
X89798400Y-66232000D03*
%TO.P,J3,6,Pin_6*%
%TO.N,/DACOL*%
X89798400Y-64232000D03*
%TO.P,J3,7,Pin_7*%
%TO.N,GND*%
X89798400Y-62232000D03*
%TO.P,J3,8,Pin_8*%
%TO.N,/QCLK*%
X89798400Y-60232000D03*
%TO.P,J3,9,Pin_9*%
%TO.N,GND*%
X89798400Y-58232000D03*
%TO.P,J3,10,Pin_10*%
%TO.N,/WCLK*%
X89798400Y-56232000D03*
%TD*%
D15*
%TO.P,J2,1,Pin_1*%
%TO.N,/RER*%
X82848400Y-49242000D03*
D16*
%TO.P,J2,2,Pin_2*%
%TO.N,+5V*%
X82848400Y-51242000D03*
%TO.P,J2,3,Pin_3*%
X82848400Y-53242000D03*
%TO.P,J2,4,Pin_4*%
%TO.N,GND*%
X82848400Y-55242000D03*
%TO.P,J2,5,Pin_5*%
X82848400Y-57242000D03*
%TO.P,J2,6,Pin_6*%
%TO.N,Net-(J1-Pad6)*%
X82848400Y-59242000D03*
%TO.P,J2,7,Pin_7*%
%TO.N,/MEL00*%
X82848400Y-61242000D03*
%TO.P,J2,8,Pin_8*%
%TO.N,/SYOD*%
X82848400Y-63242000D03*
%TO.P,J2,9,Pin_9*%
%TO.N,/QCLK*%
X82848400Y-65242000D03*
%TO.P,J2,10,Pin_10*%
%TO.N,Net-(J1-Pad10)*%
X82848400Y-67242000D03*
%TO.P,J2,11,Pin_11*%
%TO.N,/CK256*%
X82848400Y-69242000D03*
%TO.P,J2,12,Pin_12*%
%TO.N,/WCLK*%
X82848400Y-71242000D03*
%TO.P,J2,13,Pin_13*%
%TO.N,/DACOL*%
X82848400Y-73242000D03*
%TO.P,J2,14,Pin_14*%
%TO.N,/REA*%
X82848400Y-75242000D03*
%TO.P,J2,15,Pin_15*%
%TO.N,/REB*%
X82848400Y-77242000D03*
%TO.P,J2,16,Pin_16*%
%TO.N,GNDA*%
X82848400Y-79242000D03*
%TO.P,J2,17,Pin_17*%
%TO.N,+9VA*%
X82848400Y-81242000D03*
%TD*%
D17*
%TO.N,GND*%
X91693400Y-53407000D03*
X85718400Y-57182000D03*
X87893400Y-69357000D03*
X86788400Y-59632000D03*
X89743400Y-52557000D03*
X86043400Y-67707000D03*
X87663400Y-58757000D03*
X87053400Y-69857000D03*
X86793400Y-63657000D03*
X84943400Y-55307000D03*
X86893400Y-66857000D03*
X86593400Y-56307000D03*
X84868400Y-58032000D03*
X85943400Y-64507000D03*
X86143400Y-55307000D03*
X87768400Y-65982000D03*
X87293400Y-55307000D03*
X86043400Y-70357000D03*
X87668400Y-62782000D03*
X85938400Y-60482000D03*
%TD*%
D18*
%TO.N,+5V*%
X85919900Y-53242000D02*
X86054900Y-53107000D01*
D19*
%TO.N,GND*%
X86788400Y-59632000D02*
X87663400Y-58757000D01*
X86893400Y-66857000D02*
X87768400Y-65982000D01*
X85938400Y-60482000D02*
X86788400Y-59632000D01*
X86793400Y-63657000D02*
X87668400Y-62782000D01*
X85943400Y-64507000D02*
X86793400Y-63657000D01*
X86043400Y-67707000D02*
X86893400Y-66857000D01*
X85718400Y-57182000D02*
X86593400Y-56307000D01*
X84868400Y-58032000D02*
X85718400Y-57182000D01*
D20*
%TO.N,/RER*%
X79988400Y-49242000D02*
X82848400Y-49242000D01*
%TO.N,Net-(J1-Pad6)*%
X79988400Y-59242000D02*
X82848400Y-59242000D01*
%TO.N,/MEL00*%
X79988400Y-61242000D02*
X82848400Y-61242000D01*
%TO.N,/SYOD*%
X79988400Y-63242000D02*
X82848400Y-63242000D01*
%TO.N,/QCLK*%
X82848400Y-65242000D02*
X83310400Y-65242000D01*
X88320400Y-60232000D02*
X89798400Y-60232000D01*
X79988400Y-65242000D02*
X82848400Y-65242000D01*
X83310400Y-65242000D02*
X88320400Y-60232000D01*
%TO.N,Net-(J1-Pad10)*%
X79988400Y-67242000D02*
X82848400Y-67242000D01*
%TO.N,/CK256*%
X86968400Y-68232000D02*
X89798400Y-68232000D01*
X79988400Y-69242000D02*
X82848400Y-69242000D01*
X82848400Y-69242000D02*
X85958400Y-69242000D01*
X85958400Y-69242000D02*
X86968400Y-68232000D01*
%TO.N,/WCLK*%
X79988400Y-71242000D02*
X82848400Y-71242000D01*
%TO.N,/DACOL*%
X79988400Y-73242000D02*
X82848400Y-73242000D01*
%TO.N,/REA*%
X79988400Y-75242000D02*
X82848400Y-75242000D01*
%TO.N,/REB*%
X79988400Y-77242000D02*
X82848400Y-77242000D01*
D21*
%TO.N,GNDA*%
X79988400Y-79242000D02*
X82848400Y-79242000D01*
%TO.N,+9VA*%
X79988400Y-81242000D02*
X82848400Y-81242000D01*
%TD*%
%TA.AperFunction,Conductor*%
%TO.N,GND*%
G36*
X84318400Y-58032000D02*
G01*
X82793431Y-58032000D01*
X82793400Y-58027000D01*
X79593400Y-58027000D01*
X79593353Y-58032000D01*
X78718400Y-58032000D01*
X78718400Y-54732000D01*
X84318400Y-54732000D01*
X84318400Y-58032000D01*
G37*
%TD.AperFunction*%
%TD*%
%TA.AperFunction,Conductor*%
%TO.N,GND*%
G36*
X85160086Y-45927002D02*
G01*
X85206579Y-45980658D01*
X85216095Y-46011376D01*
X85724238Y-48928547D01*
X85733033Y-48940391D01*
X85733034Y-48940393D01*
X86247050Y-49632594D01*
X86861484Y-50460024D01*
X86875025Y-50482993D01*
X86878951Y-50491629D01*
X86885397Y-50509150D01*
X86892289Y-50533265D01*
X86907732Y-50557740D01*
X86915866Y-50572816D01*
X86927842Y-50599156D01*
X86933698Y-50605952D01*
X86933700Y-50605955D01*
X86944215Y-50618157D01*
X86955328Y-50633175D01*
X86968715Y-50654393D01*
X86990402Y-50673546D01*
X87002443Y-50685735D01*
X87021332Y-50707657D01*
X87028861Y-50712537D01*
X87028862Y-50712538D01*
X87042391Y-50721307D01*
X87057264Y-50732597D01*
X87069333Y-50743255D01*
X87076066Y-50749201D01*
X87102259Y-50761499D01*
X87117226Y-50769813D01*
X87141517Y-50785557D01*
X87150119Y-50788129D01*
X87150120Y-50788130D01*
X87153539Y-50789152D01*
X87165559Y-50792747D01*
X87182997Y-50799406D01*
X87192111Y-50803685D01*
X87197589Y-50806257D01*
X87197591Y-50806258D01*
X87205711Y-50810070D01*
X87214575Y-50811450D01*
X87214578Y-50811451D01*
X87230825Y-50813980D01*
X87234299Y-50814521D01*
X87251016Y-50818304D01*
X87270135Y-50824022D01*
X87270141Y-50824023D01*
X87278735Y-50826593D01*
X87287704Y-50826648D01*
X87287706Y-50826648D01*
X87297921Y-50826710D01*
X87312616Y-50826800D01*
X87313363Y-50826831D01*
X87314447Y-50827000D01*
X87344910Y-50827000D01*
X87345681Y-50827002D01*
X87421956Y-50827468D01*
X87423283Y-50827089D01*
X87424589Y-50827000D01*
X87544030Y-50827000D01*
X87592099Y-50836530D01*
X92054878Y-52678386D01*
X92090469Y-52693075D01*
X92145807Y-52737552D01*
X92168400Y-52809545D01*
X92168400Y-84381000D01*
X92148398Y-84449121D01*
X92094742Y-84495614D01*
X92042400Y-84507000D01*
X78619400Y-84507000D01*
X78551279Y-84486998D01*
X78504786Y-84433342D01*
X78493400Y-84381000D01*
X78493400Y-82867400D01*
X78513402Y-82799279D01*
X78567058Y-82752786D01*
X78619400Y-82741400D01*
X85231800Y-82741400D01*
X85231800Y-77632000D01*
X84349455Y-77632000D01*
X84281334Y-77611998D01*
X84234841Y-77558342D01*
X84224759Y-77487920D01*
X84251725Y-77301944D01*
X84251725Y-77301941D01*
X84252586Y-77296004D01*
X84242877Y-77086233D01*
X84193676Y-76882082D01*
X84106760Y-76690919D01*
X83985263Y-76519640D01*
X83833569Y-76374425D01*
X83792477Y-76347892D01*
X83746099Y-76294136D01*
X83736146Y-76223841D01*
X83765778Y-76159323D01*
X83782992Y-76142954D01*
X83906062Y-76046282D01*
X83906067Y-76046278D01*
X83910779Y-76042576D01*
X83914711Y-76038045D01*
X84044479Y-75888502D01*
X84044483Y-75888497D01*
X84048410Y-75883971D01*
X84153566Y-75702201D01*
X84222453Y-75503826D01*
X84233639Y-75426677D01*
X84251725Y-75301944D01*
X84251725Y-75301941D01*
X84252586Y-75296004D01*
X84242877Y-75086233D01*
X84211118Y-74954453D01*
X84195082Y-74887915D01*
X84195081Y-74887913D01*
X84193676Y-74882082D01*
X84106760Y-74690919D01*
X83985263Y-74519640D01*
X83833569Y-74374425D01*
X83792477Y-74347892D01*
X83746099Y-74294136D01*
X83736146Y-74223841D01*
X83765778Y-74159323D01*
X83782992Y-74142954D01*
X83906062Y-74046282D01*
X83906067Y-74046278D01*
X83910779Y-74042576D01*
X83914711Y-74038045D01*
X84044479Y-73888502D01*
X84044483Y-73888497D01*
X84048410Y-73883971D01*
X84153566Y-73702201D01*
X84200023Y-73568419D01*
X84220486Y-73509491D01*
X84220486Y-73509489D01*
X84222453Y-73503826D01*
X84233639Y-73426677D01*
X84251725Y-73301944D01*
X84251725Y-73301941D01*
X84252586Y-73296004D01*
X84242877Y-73086233D01*
X84193676Y-72882082D01*
X84189989Y-72873971D01*
X84109240Y-72696374D01*
X84106760Y-72690919D01*
X83985263Y-72519640D01*
X83833569Y-72374425D01*
X83792477Y-72347892D01*
X83746099Y-72294136D01*
X83736146Y-72223841D01*
X83757202Y-72177996D01*
X88419214Y-72177996D01*
X88428923Y-72387767D01*
X88430327Y-72393592D01*
X88430327Y-72393593D01*
X88459707Y-72515498D01*
X88478124Y-72591918D01*
X88480606Y-72597376D01*
X88480607Y-72597380D01*
X88523137Y-72690919D01*
X88565040Y-72783081D01*
X88686537Y-72954360D01*
X88759622Y-73024324D01*
X88788714Y-73052173D01*
X88824090Y-73113728D01*
X88820571Y-73184638D01*
X88779275Y-73242388D01*
X88767899Y-73250326D01*
X88704055Y-73289834D01*
X88580416Y-73413689D01*
X88488586Y-73562666D01*
X88433490Y-73728772D01*
X88422900Y-73832134D01*
X88422900Y-74631866D01*
X88423237Y-74635112D01*
X88423237Y-74635116D01*
X88432915Y-74728383D01*
X88433759Y-74736519D01*
X88435940Y-74743055D01*
X88435940Y-74743057D01*
X88453518Y-74795745D01*
X88489144Y-74902529D01*
X88581234Y-75051345D01*
X88705089Y-75174984D01*
X88854066Y-75266814D01*
X88861014Y-75269119D01*
X88861015Y-75269119D01*
X89013641Y-75319744D01*
X89013643Y-75319745D01*
X89020172Y-75321910D01*
X89123534Y-75332500D01*
X90473266Y-75332500D01*
X90476512Y-75332163D01*
X90476516Y-75332163D01*
X90571061Y-75322353D01*
X90571065Y-75322352D01*
X90577919Y-75321641D01*
X90584455Y-75319460D01*
X90584457Y-75319460D01*
X90736981Y-75268574D01*
X90743929Y-75266256D01*
X90892745Y-75174166D01*
X91016384Y-75050311D01*
X91108214Y-74901334D01*
X91114600Y-74882082D01*
X91161144Y-74741759D01*
X91161145Y-74741757D01*
X91163310Y-74735228D01*
X91173900Y-74631866D01*
X91173900Y-73832134D01*
X91173370Y-73827023D01*
X91163753Y-73734339D01*
X91163752Y-73734335D01*
X91163041Y-73727481D01*
X91156341Y-73707397D01*
X91109974Y-73568419D01*
X91107656Y-73561471D01*
X91015566Y-73412655D01*
X90891711Y-73289016D01*
X90831204Y-73251719D01*
X90783711Y-73198947D01*
X90772287Y-73128875D01*
X90800561Y-73063751D01*
X90819484Y-73045376D01*
X90835779Y-73032576D01*
X90862060Y-73002290D01*
X90969479Y-72878502D01*
X90969483Y-72878497D01*
X90973410Y-72873971D01*
X91078566Y-72692201D01*
X91147453Y-72493826D01*
X91156141Y-72433909D01*
X91176725Y-72291944D01*
X91176725Y-72291941D01*
X91177586Y-72286004D01*
X91167877Y-72076233D01*
X91118676Y-71872082D01*
X91075658Y-71777467D01*
X91034240Y-71686374D01*
X91031760Y-71680919D01*
X90910263Y-71509640D01*
X90758569Y-71364425D01*
X90724141Y-71342195D01*
X90677763Y-71288441D01*
X90667809Y-71218146D01*
X90697440Y-71153628D01*
X90714655Y-71137257D01*
X90836257Y-71041738D01*
X90844906Y-71033501D01*
X90975612Y-70882877D01*
X90982547Y-70873153D01*
X91082410Y-70700533D01*
X91087384Y-70689669D01*
X91152807Y-70501273D01*
X91153048Y-70500284D01*
X91151580Y-70489992D01*
X91138015Y-70486000D01*
X88462998Y-70486000D01*
X88449467Y-70489973D01*
X88448112Y-70499399D01*
X88469594Y-70588537D01*
X88473483Y-70599832D01*
X88556029Y-70781382D01*
X88561976Y-70791724D01*
X88677368Y-70954397D01*
X88685161Y-70963425D01*
X88829231Y-71101342D01*
X88838599Y-71108741D01*
X88873086Y-71131009D01*
X88919463Y-71184765D01*
X88929416Y-71255060D01*
X88899783Y-71319577D01*
X88882570Y-71335946D01*
X88765738Y-71427718D01*
X88765733Y-71427722D01*
X88761021Y-71431424D01*
X88757090Y-71435954D01*
X88757089Y-71435955D01*
X88627321Y-71585498D01*
X88627317Y-71585503D01*
X88623390Y-71590029D01*
X88518234Y-71771799D01*
X88449347Y-71970174D01*
X88448486Y-71976109D01*
X88448486Y-71976111D01*
X88433101Y-72082223D01*
X88419214Y-72177996D01*
X83757202Y-72177996D01*
X83765778Y-72159323D01*
X83782992Y-72142954D01*
X83906062Y-72046282D01*
X83906067Y-72046278D01*
X83910779Y-72042576D01*
X83914711Y-72038045D01*
X84044479Y-71888502D01*
X84044483Y-71888497D01*
X84048410Y-71883971D01*
X84153566Y-71702201D01*
X84194092Y-71585498D01*
X84220486Y-71509491D01*
X84220486Y-71509489D01*
X84222453Y-71503826D01*
X84233639Y-71426677D01*
X84251725Y-71301944D01*
X84251725Y-71301941D01*
X84252586Y-71296004D01*
X84242877Y-71086233D01*
X84193676Y-70882082D01*
X84189617Y-70873153D01*
X84109240Y-70696374D01*
X84106760Y-70690919D01*
X83985263Y-70519640D01*
X83833569Y-70374425D01*
X83792477Y-70347892D01*
X83746099Y-70294136D01*
X83736146Y-70223841D01*
X83765778Y-70159323D01*
X83782992Y-70142954D01*
X83906062Y-70046282D01*
X83906067Y-70046278D01*
X83910779Y-70042576D01*
X83914711Y-70038045D01*
X84025026Y-69910919D01*
X84084779Y-69872578D01*
X84120191Y-69867500D01*
X85880697Y-69867500D01*
X85891657Y-69868017D01*
X85899067Y-69869673D01*
X85906993Y-69869424D01*
X85906994Y-69869424D01*
X85966241Y-69867562D01*
X85970199Y-69867500D01*
X85997750Y-69867500D01*
X86001673Y-69867004D01*
X86001788Y-69866997D01*
X86013468Y-69866077D01*
X86057027Y-69864709D01*
X86076116Y-69859163D01*
X86095462Y-69855156D01*
X86115192Y-69852664D01*
X86155723Y-69836616D01*
X86166924Y-69832781D01*
X86208790Y-69820618D01*
X86225899Y-69810500D01*
X86243645Y-69801805D01*
X86262132Y-69794486D01*
X86297391Y-69768869D01*
X86307310Y-69762354D01*
X86337990Y-69744210D01*
X86337994Y-69744207D01*
X86344820Y-69740170D01*
X86358870Y-69726120D01*
X86373904Y-69713279D01*
X86383573Y-69706254D01*
X86389987Y-69701594D01*
X86417770Y-69668010D01*
X86425759Y-69659231D01*
X87190585Y-68894405D01*
X87252897Y-68860379D01*
X87279680Y-68857500D01*
X88552726Y-68857500D01*
X88620847Y-68877502D01*
X88655496Y-68910601D01*
X88683067Y-68949469D01*
X88683070Y-68949473D01*
X88686537Y-68954360D01*
X88838231Y-69099575D01*
X88872658Y-69121804D01*
X88919037Y-69175559D01*
X88928991Y-69245854D01*
X88899360Y-69310372D01*
X88882145Y-69326743D01*
X88760543Y-69422262D01*
X88751894Y-69430499D01*
X88621188Y-69581123D01*
X88614253Y-69590847D01*
X88514390Y-69763467D01*
X88509416Y-69774331D01*
X88443993Y-69962727D01*
X88443752Y-69963716D01*
X88445220Y-69974008D01*
X88458785Y-69978000D01*
X91133802Y-69978000D01*
X91147333Y-69974027D01*
X91148688Y-69964601D01*
X91127206Y-69875463D01*
X91123317Y-69864168D01*
X91040771Y-69682618D01*
X91034824Y-69672276D01*
X90919432Y-69509603D01*
X90911639Y-69500575D01*
X90767569Y-69362658D01*
X90758201Y-69355259D01*
X90723714Y-69332991D01*
X90677337Y-69279235D01*
X90667384Y-69208940D01*
X90697017Y-69144423D01*
X90714230Y-69128054D01*
X90831062Y-69036282D01*
X90831067Y-69036278D01*
X90835779Y-69032576D01*
X90862060Y-69002290D01*
X90969479Y-68878502D01*
X90969483Y-68878497D01*
X90973410Y-68873971D01*
X91078566Y-68692201D01*
X91123293Y-68563399D01*
X91145486Y-68499491D01*
X91145486Y-68499489D01*
X91147453Y-68493826D01*
X91156141Y-68433909D01*
X91176725Y-68291944D01*
X91176725Y-68291941D01*
X91177586Y-68286004D01*
X91167877Y-68076233D01*
X91118676Y-67872082D01*
X91076134Y-67778514D01*
X91053980Y-67729790D01*
X91031760Y-67680919D01*
X90910263Y-67509640D01*
X90758569Y-67364425D01*
X90724141Y-67342195D01*
X90677763Y-67288441D01*
X90667809Y-67218146D01*
X90697440Y-67153628D01*
X90714655Y-67137257D01*
X90836257Y-67041738D01*
X90844906Y-67033501D01*
X90975612Y-66882877D01*
X90982547Y-66873153D01*
X91082410Y-66700533D01*
X91087384Y-66689669D01*
X91152807Y-66501273D01*
X91153048Y-66500284D01*
X91151580Y-66489992D01*
X91138015Y-66486000D01*
X88462998Y-66486000D01*
X88449467Y-66489973D01*
X88448112Y-66499399D01*
X88469594Y-66588537D01*
X88473483Y-66599832D01*
X88556029Y-66781382D01*
X88561976Y-66791724D01*
X88677368Y-66954397D01*
X88685161Y-66963425D01*
X88829231Y-67101342D01*
X88838599Y-67108741D01*
X88873086Y-67131009D01*
X88919463Y-67184765D01*
X88929416Y-67255060D01*
X88899783Y-67319577D01*
X88882570Y-67335946D01*
X88765738Y-67427718D01*
X88765733Y-67427722D01*
X88761021Y-67431424D01*
X88757090Y-67435954D01*
X88757089Y-67435955D01*
X88646774Y-67563081D01*
X88587021Y-67601422D01*
X88551609Y-67606500D01*
X87046103Y-67606500D01*
X87035143Y-67605983D01*
X87027733Y-67604327D01*
X87019807Y-67604576D01*
X86960545Y-67606438D01*
X86956588Y-67606500D01*
X86929050Y-67606500D01*
X86925119Y-67606997D01*
X86924988Y-67607005D01*
X86913339Y-67607922D01*
X86891759Y-67608599D01*
X86877694Y-67609041D01*
X86877693Y-67609041D01*
X86869773Y-67609290D01*
X86862159Y-67611502D01*
X86862160Y-67611502D01*
X86850687Y-67614835D01*
X86831328Y-67618844D01*
X86819479Y-67620341D01*
X86819473Y-67620343D01*
X86811608Y-67621336D01*
X86804237Y-67624254D01*
X86804235Y-67624255D01*
X86771092Y-67637378D01*
X86759859Y-67641224D01*
X86718010Y-67653382D01*
X86700901Y-67663500D01*
X86683155Y-67672195D01*
X86664668Y-67679514D01*
X86633442Y-67702201D01*
X86629412Y-67705129D01*
X86619490Y-67711646D01*
X86588810Y-67729790D01*
X86588806Y-67729793D01*
X86581980Y-67733830D01*
X86567930Y-67747880D01*
X86552896Y-67760721D01*
X86536813Y-67772406D01*
X86531760Y-67778514D01*
X86509035Y-67805984D01*
X86501045Y-67814765D01*
X85736213Y-68579596D01*
X85673901Y-68613621D01*
X85647118Y-68616500D01*
X84119074Y-68616500D01*
X84050953Y-68596498D01*
X84016304Y-68563399D01*
X83988733Y-68524531D01*
X83988730Y-68524527D01*
X83985263Y-68519640D01*
X83833569Y-68374425D01*
X83792477Y-68347892D01*
X83746099Y-68294136D01*
X83736146Y-68223841D01*
X83765778Y-68159323D01*
X83782992Y-68142954D01*
X83906062Y-68046282D01*
X83906067Y-68046278D01*
X83910779Y-68042576D01*
X83914711Y-68038045D01*
X84044479Y-67888502D01*
X84044483Y-67888497D01*
X84048410Y-67883971D01*
X84153566Y-67702201D01*
X84201876Y-67563081D01*
X84220486Y-67509491D01*
X84220486Y-67509489D01*
X84222453Y-67503826D01*
X84233639Y-67426677D01*
X84251725Y-67301944D01*
X84251725Y-67301941D01*
X84252586Y-67296004D01*
X84242877Y-67086233D01*
X84193676Y-66882082D01*
X84189617Y-66873153D01*
X84109240Y-66696374D01*
X84106760Y-66690919D01*
X83985263Y-66519640D01*
X83833569Y-66374425D01*
X83792477Y-66347892D01*
X83746099Y-66294136D01*
X83736146Y-66223841D01*
X83765778Y-66159323D01*
X83782992Y-66142954D01*
X83906062Y-66046282D01*
X83906067Y-66046278D01*
X83910779Y-66042576D01*
X83914711Y-66038045D01*
X84044479Y-65888502D01*
X84044483Y-65888497D01*
X84048410Y-65883971D01*
X84153566Y-65702201D01*
X84222453Y-65503826D01*
X84233639Y-65426677D01*
X84251725Y-65301944D01*
X84251725Y-65301941D01*
X84252586Y-65296004D01*
X84250265Y-65245854D01*
X84250222Y-65244919D01*
X84267053Y-65175946D01*
X84286992Y-65149999D01*
X85258995Y-64177996D01*
X88419214Y-64177996D01*
X88428923Y-64387767D01*
X88430327Y-64393592D01*
X88430327Y-64393593D01*
X88454484Y-64493826D01*
X88478124Y-64591918D01*
X88480606Y-64597376D01*
X88480607Y-64597380D01*
X88523720Y-64692201D01*
X88565040Y-64783081D01*
X88686537Y-64954360D01*
X88838231Y-65099575D01*
X88872658Y-65121804D01*
X88919037Y-65175559D01*
X88928991Y-65245854D01*
X88899360Y-65310372D01*
X88882145Y-65326743D01*
X88760543Y-65422262D01*
X88751894Y-65430499D01*
X88621188Y-65581123D01*
X88614253Y-65590847D01*
X88514390Y-65763467D01*
X88509416Y-65774331D01*
X88443993Y-65962727D01*
X88443752Y-65963716D01*
X88445220Y-65974008D01*
X88458785Y-65978000D01*
X91133802Y-65978000D01*
X91147333Y-65974027D01*
X91148688Y-65964601D01*
X91127206Y-65875463D01*
X91123317Y-65864168D01*
X91040771Y-65682618D01*
X91034824Y-65672276D01*
X90919432Y-65509603D01*
X90911639Y-65500575D01*
X90767569Y-65362658D01*
X90758201Y-65355259D01*
X90723714Y-65332991D01*
X90677337Y-65279235D01*
X90667384Y-65208940D01*
X90697017Y-65144423D01*
X90714230Y-65128054D01*
X90831062Y-65036282D01*
X90831067Y-65036278D01*
X90835779Y-65032576D01*
X90862060Y-65002290D01*
X90969479Y-64878502D01*
X90969483Y-64878497D01*
X90973410Y-64873971D01*
X91078566Y-64692201D01*
X91147453Y-64493826D01*
X91156141Y-64433909D01*
X91176725Y-64291944D01*
X91176725Y-64291941D01*
X91177586Y-64286004D01*
X91167877Y-64076233D01*
X91118676Y-63872082D01*
X91075658Y-63777467D01*
X91034240Y-63686374D01*
X91031760Y-63680919D01*
X90910263Y-63509640D01*
X90758569Y-63364425D01*
X90724141Y-63342195D01*
X90677763Y-63288441D01*
X90667809Y-63218146D01*
X90697440Y-63153628D01*
X90714655Y-63137257D01*
X90836257Y-63041738D01*
X90844906Y-63033501D01*
X90975612Y-62882877D01*
X90982547Y-62873153D01*
X91082410Y-62700533D01*
X91087384Y-62689669D01*
X91152807Y-62501273D01*
X91153048Y-62500284D01*
X91151580Y-62489992D01*
X91138015Y-62486000D01*
X88462998Y-62486000D01*
X88449467Y-62489973D01*
X88448112Y-62499399D01*
X88469594Y-62588537D01*
X88473483Y-62599832D01*
X88556029Y-62781382D01*
X88561976Y-62791724D01*
X88677368Y-62954397D01*
X88685161Y-62963425D01*
X88829231Y-63101342D01*
X88838599Y-63108741D01*
X88873086Y-63131009D01*
X88919463Y-63184765D01*
X88929416Y-63255060D01*
X88899783Y-63319577D01*
X88882570Y-63335946D01*
X88765738Y-63427718D01*
X88765733Y-63427722D01*
X88761021Y-63431424D01*
X88757090Y-63435954D01*
X88757089Y-63435955D01*
X88627321Y-63585498D01*
X88627317Y-63585503D01*
X88623390Y-63590029D01*
X88518234Y-63771799D01*
X88449347Y-63970174D01*
X88448486Y-63976109D01*
X88448486Y-63976111D01*
X88433101Y-64082223D01*
X88419214Y-64177996D01*
X85258995Y-64177996D01*
X88496596Y-60940395D01*
X88558908Y-60906369D01*
X88629723Y-60911434D01*
X88681070Y-60947156D01*
X88683072Y-60949475D01*
X88686537Y-60954360D01*
X88838231Y-61099575D01*
X88872658Y-61121804D01*
X88919037Y-61175559D01*
X88928991Y-61245854D01*
X88899360Y-61310372D01*
X88882145Y-61326743D01*
X88760543Y-61422262D01*
X88751894Y-61430499D01*
X88621188Y-61581123D01*
X88614253Y-61590847D01*
X88514390Y-61763467D01*
X88509416Y-61774331D01*
X88443993Y-61962727D01*
X88443752Y-61963716D01*
X88445220Y-61974008D01*
X88458785Y-61978000D01*
X91133802Y-61978000D01*
X91147333Y-61974027D01*
X91148688Y-61964601D01*
X91127206Y-61875463D01*
X91123317Y-61864168D01*
X91040771Y-61682618D01*
X91034824Y-61672276D01*
X90919432Y-61509603D01*
X90911639Y-61500575D01*
X90767569Y-61362658D01*
X90758201Y-61355259D01*
X90723714Y-61332991D01*
X90677337Y-61279235D01*
X90667384Y-61208940D01*
X90697017Y-61144423D01*
X90714230Y-61128054D01*
X90831062Y-61036282D01*
X90831067Y-61036278D01*
X90835779Y-61032576D01*
X90862060Y-61002290D01*
X90969479Y-60878502D01*
X90969483Y-60878497D01*
X90973410Y-60873971D01*
X91078566Y-60692201D01*
X91147453Y-60493826D01*
X91156141Y-60433909D01*
X91176725Y-60291944D01*
X91176725Y-60291941D01*
X91177586Y-60286004D01*
X91167877Y-60076233D01*
X91118676Y-59872082D01*
X91076134Y-59778514D01*
X91053980Y-59729790D01*
X91031760Y-59680919D01*
X90910263Y-59509640D01*
X90758569Y-59364425D01*
X90724141Y-59342195D01*
X90677763Y-59288441D01*
X90667809Y-59218146D01*
X90697440Y-59153628D01*
X90714655Y-59137257D01*
X90836257Y-59041738D01*
X90844906Y-59033501D01*
X90975612Y-58882877D01*
X90982547Y-58873153D01*
X91082410Y-58700533D01*
X91087384Y-58689669D01*
X91152807Y-58501273D01*
X91153048Y-58500284D01*
X91151580Y-58489992D01*
X91138015Y-58486000D01*
X88462998Y-58486000D01*
X88449467Y-58489973D01*
X88448112Y-58499399D01*
X88469594Y-58588537D01*
X88473483Y-58599832D01*
X88556029Y-58781382D01*
X88561976Y-58791724D01*
X88677368Y-58954397D01*
X88685161Y-58963425D01*
X88829231Y-59101342D01*
X88838599Y-59108741D01*
X88873086Y-59131009D01*
X88919463Y-59184765D01*
X88929416Y-59255060D01*
X88899783Y-59319577D01*
X88882570Y-59335946D01*
X88765738Y-59427718D01*
X88765733Y-59427722D01*
X88761021Y-59431424D01*
X88757090Y-59435954D01*
X88757089Y-59435955D01*
X88646774Y-59563081D01*
X88587021Y-59601422D01*
X88551609Y-59606500D01*
X88398103Y-59606500D01*
X88387143Y-59605983D01*
X88379733Y-59604327D01*
X88371807Y-59604576D01*
X88371806Y-59604576D01*
X88312559Y-59606438D01*
X88308601Y-59606500D01*
X88281050Y-59606500D01*
X88277127Y-59606996D01*
X88277012Y-59607003D01*
X88265332Y-59607923D01*
X88221773Y-59609291D01*
X88202684Y-59614837D01*
X88183338Y-59618844D01*
X88163608Y-59621336D01*
X88123077Y-59637384D01*
X88111876Y-59641219D01*
X88070010Y-59653382D01*
X88052901Y-59663500D01*
X88035155Y-59672195D01*
X88016668Y-59679514D01*
X87985442Y-59702201D01*
X87981412Y-59705129D01*
X87971490Y-59711646D01*
X87940810Y-59729790D01*
X87940806Y-59729793D01*
X87933980Y-59733830D01*
X87919930Y-59747880D01*
X87904896Y-59760721D01*
X87888813Y-59772406D01*
X87883760Y-59778514D01*
X87861031Y-59805989D01*
X87853041Y-59814769D01*
X84459627Y-63208182D01*
X84397315Y-63242208D01*
X84326499Y-63237143D01*
X84269664Y-63194596D01*
X84244667Y-63124912D01*
X84243154Y-63092223D01*
X84242877Y-63086233D01*
X84193676Y-62882082D01*
X84189617Y-62873153D01*
X84109240Y-62696374D01*
X84106760Y-62690919D01*
X83985263Y-62519640D01*
X83833569Y-62374425D01*
X83792477Y-62347892D01*
X83746099Y-62294136D01*
X83736146Y-62223841D01*
X83765778Y-62159323D01*
X83782992Y-62142954D01*
X83906062Y-62046282D01*
X83906067Y-62046278D01*
X83910779Y-62042576D01*
X83914711Y-62038045D01*
X84044479Y-61888502D01*
X84044483Y-61888497D01*
X84048410Y-61883971D01*
X84153566Y-61702201D01*
X84222453Y-61503826D01*
X84233639Y-61426677D01*
X84251725Y-61301944D01*
X84251725Y-61301941D01*
X84252586Y-61296004D01*
X84242877Y-61086233D01*
X84193676Y-60882082D01*
X84189989Y-60873971D01*
X84109240Y-60696374D01*
X84106760Y-60690919D01*
X83985263Y-60519640D01*
X83833569Y-60374425D01*
X83792477Y-60347892D01*
X83746099Y-60294136D01*
X83736146Y-60223841D01*
X83765778Y-60159323D01*
X83782992Y-60142954D01*
X83906062Y-60046282D01*
X83906067Y-60046278D01*
X83910779Y-60042576D01*
X83914711Y-60038045D01*
X84044479Y-59888502D01*
X84044483Y-59888497D01*
X84048410Y-59883971D01*
X84153566Y-59702201D01*
X84201876Y-59563081D01*
X84220486Y-59509491D01*
X84220486Y-59509489D01*
X84222453Y-59503826D01*
X84233639Y-59426677D01*
X84251725Y-59301944D01*
X84251725Y-59301941D01*
X84252586Y-59296004D01*
X84242877Y-59086233D01*
X84193676Y-58882082D01*
X84189617Y-58873153D01*
X84109240Y-58696374D01*
X84106760Y-58690919D01*
X83985263Y-58519640D01*
X83833569Y-58374425D01*
X83799141Y-58352195D01*
X83752763Y-58298441D01*
X83742809Y-58228146D01*
X83772440Y-58163628D01*
X83789655Y-58147257D01*
X83911257Y-58051738D01*
X83919906Y-58043501D01*
X84050612Y-57892877D01*
X84057547Y-57883153D01*
X84157410Y-57710533D01*
X84162384Y-57699669D01*
X84227807Y-57511273D01*
X84228048Y-57510284D01*
X84226580Y-57499992D01*
X84213015Y-57496000D01*
X81487998Y-57496000D01*
X81474467Y-57499973D01*
X81473112Y-57509399D01*
X81494594Y-57598537D01*
X81498483Y-57609832D01*
X81581029Y-57791382D01*
X81586979Y-57801730D01*
X81605685Y-57828101D01*
X81628783Y-57895235D01*
X81611918Y-57964200D01*
X81560446Y-58013099D01*
X81502915Y-58027000D01*
X81119731Y-58027000D01*
X81051610Y-58006998D01*
X81005117Y-57953342D01*
X80995013Y-57883068D01*
X81009797Y-57839434D01*
X81070931Y-57730272D01*
X81075610Y-57719763D01*
X81141786Y-57524817D01*
X81144417Y-57513857D01*
X81142440Y-57499992D01*
X81128874Y-57496000D01*
X78850381Y-57496000D01*
X78836850Y-57499973D01*
X78835558Y-57508962D01*
X78867056Y-57632985D01*
X78870897Y-57643832D01*
X78957085Y-57830789D01*
X78962836Y-57840750D01*
X79081654Y-58008873D01*
X79089120Y-58017615D01*
X79234266Y-58159010D01*
X79269103Y-58220871D01*
X79264966Y-58291747D01*
X79229422Y-58343995D01*
X79136416Y-58425560D01*
X79136412Y-58425565D01*
X79132069Y-58429373D01*
X79128494Y-58433908D01*
X79128493Y-58433909D01*
X79075388Y-58501273D01*
X78998319Y-58599034D01*
X78995628Y-58604150D01*
X78995626Y-58604152D01*
X78949976Y-58690919D01*
X78897727Y-58790228D01*
X78833662Y-58996553D01*
X78808269Y-59211097D01*
X78822398Y-59426677D01*
X78823820Y-59432275D01*
X78823820Y-59432277D01*
X78842416Y-59505498D01*
X78875578Y-59636071D01*
X78877995Y-59641313D01*
X78877995Y-59641314D01*
X78918783Y-59729790D01*
X78966026Y-59832268D01*
X79090713Y-60008697D01*
X79228533Y-60142954D01*
X79239922Y-60154049D01*
X79274760Y-60215910D01*
X79270623Y-60286786D01*
X79235079Y-60339035D01*
X79132069Y-60429373D01*
X78998319Y-60599034D01*
X78995628Y-60604150D01*
X78995626Y-60604152D01*
X78949976Y-60690919D01*
X78897727Y-60790228D01*
X78833662Y-60996553D01*
X78808269Y-61211097D01*
X78822398Y-61426677D01*
X78823820Y-61432275D01*
X78823820Y-61432277D01*
X78843430Y-61509491D01*
X78875578Y-61636071D01*
X78966026Y-61832268D01*
X78969359Y-61836984D01*
X79069019Y-61978000D01*
X79090713Y-62008697D01*
X79228533Y-62142954D01*
X79239922Y-62154049D01*
X79274760Y-62215910D01*
X79270623Y-62286786D01*
X79235079Y-62339035D01*
X79132069Y-62429373D01*
X79128494Y-62433908D01*
X79128493Y-62433909D01*
X79075388Y-62501273D01*
X78998319Y-62599034D01*
X78995628Y-62604150D01*
X78995626Y-62604152D01*
X78949976Y-62690919D01*
X78897727Y-62790228D01*
X78833662Y-62996553D01*
X78808269Y-63211097D01*
X78822398Y-63426677D01*
X78823820Y-63432275D01*
X78823820Y-63432277D01*
X78874157Y-63630476D01*
X78875578Y-63636071D01*
X78966026Y-63832268D01*
X78969359Y-63836984D01*
X79067684Y-63976111D01*
X79090713Y-64008697D01*
X79094855Y-64012732D01*
X79239922Y-64154049D01*
X79274760Y-64215910D01*
X79270623Y-64286786D01*
X79235079Y-64339035D01*
X79179511Y-64387767D01*
X79132069Y-64429373D01*
X78998319Y-64599034D01*
X78995628Y-64604150D01*
X78995626Y-64604152D01*
X78949301Y-64692201D01*
X78897727Y-64790228D01*
X78833662Y-64996553D01*
X78808269Y-65211097D01*
X78822398Y-65426677D01*
X78823820Y-65432275D01*
X78823820Y-65432277D01*
X78843430Y-65509491D01*
X78875578Y-65636071D01*
X78966026Y-65832268D01*
X78969359Y-65836984D01*
X79069019Y-65978000D01*
X79090713Y-66008697D01*
X79228533Y-66142954D01*
X79239922Y-66154049D01*
X79274760Y-66215910D01*
X79270623Y-66286786D01*
X79235079Y-66339035D01*
X79132069Y-66429373D01*
X79128494Y-66433908D01*
X79128493Y-66433909D01*
X79075388Y-66501273D01*
X78998319Y-66599034D01*
X78995628Y-66604150D01*
X78995626Y-66604152D01*
X78949976Y-66690919D01*
X78897727Y-66790228D01*
X78833662Y-66996553D01*
X78808269Y-67211097D01*
X78822398Y-67426677D01*
X78823820Y-67432275D01*
X78823820Y-67432277D01*
X78842416Y-67505498D01*
X78875578Y-67636071D01*
X78877995Y-67641313D01*
X78877995Y-67641314D01*
X78918783Y-67729790D01*
X78966026Y-67832268D01*
X79090713Y-68008697D01*
X79228533Y-68142954D01*
X79239922Y-68154049D01*
X79274760Y-68215910D01*
X79270623Y-68286786D01*
X79235079Y-68339035D01*
X79132069Y-68429373D01*
X79128494Y-68433908D01*
X79128493Y-68433909D01*
X79013643Y-68579596D01*
X78998319Y-68599034D01*
X78995628Y-68604150D01*
X78995626Y-68604152D01*
X78949301Y-68692201D01*
X78897727Y-68790228D01*
X78833662Y-68996553D01*
X78808269Y-69211097D01*
X78822398Y-69426677D01*
X78875578Y-69636071D01*
X78877995Y-69641313D01*
X78877995Y-69641314D01*
X78892269Y-69672276D01*
X78966026Y-69832268D01*
X78982200Y-69855154D01*
X79069019Y-69978000D01*
X79090713Y-70008697D01*
X79228533Y-70142954D01*
X79239922Y-70154049D01*
X79274760Y-70215910D01*
X79270623Y-70286786D01*
X79235079Y-70339035D01*
X79132069Y-70429373D01*
X79128494Y-70433908D01*
X79128493Y-70433909D01*
X79075388Y-70501273D01*
X78998319Y-70599034D01*
X78995628Y-70604150D01*
X78995626Y-70604152D01*
X78949976Y-70690919D01*
X78897727Y-70790228D01*
X78833662Y-70996553D01*
X78808269Y-71211097D01*
X78822398Y-71426677D01*
X78823820Y-71432275D01*
X78823820Y-71432277D01*
X78874157Y-71630476D01*
X78875578Y-71636071D01*
X78966026Y-71832268D01*
X78969359Y-71836984D01*
X79067684Y-71976111D01*
X79090713Y-72008697D01*
X79228533Y-72142954D01*
X79239922Y-72154049D01*
X79274760Y-72215910D01*
X79270623Y-72286786D01*
X79235079Y-72339035D01*
X79179511Y-72387767D01*
X79132069Y-72429373D01*
X78998319Y-72599034D01*
X78995628Y-72604150D01*
X78995626Y-72604152D01*
X78949976Y-72690919D01*
X78897727Y-72790228D01*
X78833662Y-72996553D01*
X78808269Y-73211097D01*
X78822398Y-73426677D01*
X78823820Y-73432275D01*
X78823820Y-73432277D01*
X78856632Y-73561471D01*
X78875578Y-73636071D01*
X78877995Y-73641313D01*
X78877995Y-73641314D01*
X78915303Y-73722241D01*
X78966026Y-73832268D01*
X79090713Y-74008697D01*
X79228533Y-74142954D01*
X79239922Y-74154049D01*
X79274760Y-74215910D01*
X79270623Y-74286786D01*
X79235079Y-74339035D01*
X79132069Y-74429373D01*
X78998319Y-74599034D01*
X78995628Y-74604150D01*
X78995626Y-74604152D01*
X78923228Y-74741759D01*
X78897727Y-74790228D01*
X78833662Y-74996553D01*
X78808269Y-75211097D01*
X78822398Y-75426677D01*
X78823820Y-75432275D01*
X78823820Y-75432277D01*
X78843430Y-75509491D01*
X78875578Y-75636071D01*
X78966026Y-75832268D01*
X79090713Y-76008697D01*
X79228533Y-76142954D01*
X79239922Y-76154049D01*
X79274760Y-76215910D01*
X79270623Y-76286786D01*
X79235079Y-76339035D01*
X79132069Y-76429373D01*
X78998319Y-76599034D01*
X78897727Y-76790228D01*
X78833662Y-76996553D01*
X78808269Y-77211097D01*
X78822398Y-77426677D01*
X78834667Y-77474985D01*
X78832049Y-77545932D01*
X78791489Y-77604202D01*
X78725865Y-77631294D01*
X78712544Y-77632000D01*
X78619400Y-77632000D01*
X78551279Y-77611998D01*
X78504786Y-77558342D01*
X78493400Y-77506000D01*
X78493400Y-56984799D01*
X78833618Y-56984799D01*
X78840350Y-56988000D01*
X79716285Y-56988000D01*
X79731524Y-56983525D01*
X79732729Y-56982135D01*
X79734400Y-56974452D01*
X79734400Y-56969885D01*
X80242400Y-56969885D01*
X80246875Y-56985124D01*
X80248265Y-56986329D01*
X80255948Y-56988000D01*
X81127885Y-56988000D01*
X81141416Y-56984027D01*
X81142585Y-56975892D01*
X81141971Y-56973716D01*
X81468752Y-56973716D01*
X81470220Y-56984008D01*
X81483785Y-56988000D01*
X82576285Y-56988000D01*
X82591524Y-56983525D01*
X82592729Y-56982135D01*
X82594400Y-56974452D01*
X82594400Y-56969885D01*
X83102400Y-56969885D01*
X83106875Y-56985124D01*
X83108265Y-56986329D01*
X83115948Y-56988000D01*
X84208802Y-56988000D01*
X84222333Y-56984027D01*
X84223688Y-56974601D01*
X84202206Y-56885463D01*
X84198317Y-56874168D01*
X84115771Y-56692618D01*
X84109824Y-56682276D01*
X83994432Y-56519603D01*
X83986639Y-56510575D01*
X83842569Y-56372658D01*
X83833199Y-56365258D01*
X83805379Y-56347295D01*
X83759001Y-56293540D01*
X83749047Y-56223244D01*
X83769828Y-56177996D01*
X88419214Y-56177996D01*
X88428923Y-56387767D01*
X88430327Y-56393592D01*
X88430327Y-56393593D01*
X88454484Y-56493826D01*
X88478124Y-56591918D01*
X88480606Y-56597376D01*
X88480607Y-56597380D01*
X88523720Y-56692201D01*
X88565040Y-56783081D01*
X88686537Y-56954360D01*
X88838231Y-57099575D01*
X88872658Y-57121804D01*
X88919037Y-57175559D01*
X88928991Y-57245854D01*
X88899360Y-57310372D01*
X88882145Y-57326743D01*
X88760543Y-57422262D01*
X88751894Y-57430499D01*
X88621188Y-57581123D01*
X88614253Y-57590847D01*
X88514390Y-57763467D01*
X88509416Y-57774331D01*
X88443993Y-57962727D01*
X88443752Y-57963716D01*
X88445220Y-57974008D01*
X88458785Y-57978000D01*
X91133802Y-57978000D01*
X91147333Y-57974027D01*
X91148688Y-57964601D01*
X91127206Y-57875463D01*
X91123317Y-57864168D01*
X91040771Y-57682618D01*
X91034824Y-57672276D01*
X90919432Y-57509603D01*
X90911639Y-57500575D01*
X90767569Y-57362658D01*
X90758201Y-57355259D01*
X90723714Y-57332991D01*
X90677337Y-57279235D01*
X90667384Y-57208940D01*
X90697017Y-57144423D01*
X90714230Y-57128054D01*
X90831062Y-57036282D01*
X90831067Y-57036278D01*
X90835779Y-57032576D01*
X90839711Y-57028045D01*
X90969479Y-56878502D01*
X90969483Y-56878497D01*
X90973410Y-56873971D01*
X91078566Y-56692201D01*
X91147453Y-56493826D01*
X91153568Y-56451651D01*
X91176725Y-56291944D01*
X91176725Y-56291941D01*
X91177586Y-56286004D01*
X91167877Y-56076233D01*
X91118676Y-55872082D01*
X91104431Y-55840750D01*
X91049421Y-55719763D01*
X91031760Y-55680919D01*
X90910263Y-55509640D01*
X90758569Y-55364425D01*
X90661433Y-55301705D01*
X90587191Y-55253767D01*
X90587188Y-55253766D01*
X90582154Y-55250515D01*
X90576591Y-55248273D01*
X90392945Y-55174261D01*
X90392942Y-55174260D01*
X90387381Y-55172019D01*
X90381500Y-55170871D01*
X90381495Y-55170869D01*
X90185724Y-55132638D01*
X90185721Y-55132638D01*
X90181278Y-55131770D01*
X90175757Y-55131500D01*
X89470931Y-55131500D01*
X89314354Y-55146439D01*
X89308598Y-55148128D01*
X89308596Y-55148128D01*
X89231079Y-55170869D01*
X89112851Y-55205553D01*
X89029905Y-55248273D01*
X88931492Y-55298959D01*
X88931489Y-55298961D01*
X88926161Y-55301705D01*
X88921446Y-55305409D01*
X88765738Y-55427718D01*
X88765733Y-55427722D01*
X88761021Y-55431424D01*
X88757090Y-55435954D01*
X88757089Y-55435955D01*
X88627321Y-55585498D01*
X88627317Y-55585503D01*
X88623390Y-55590029D01*
X88518234Y-55771799D01*
X88449347Y-55970174D01*
X88448486Y-55976109D01*
X88448486Y-55976111D01*
X88432585Y-56085782D01*
X88419214Y-56177996D01*
X83769828Y-56177996D01*
X83778678Y-56158727D01*
X83795893Y-56142357D01*
X83911257Y-56051738D01*
X83919906Y-56043501D01*
X84050612Y-55892877D01*
X84057547Y-55883153D01*
X84157410Y-55710533D01*
X84162384Y-55699669D01*
X84227807Y-55511273D01*
X84228048Y-55510284D01*
X84226580Y-55499992D01*
X84213015Y-55496000D01*
X83120515Y-55496000D01*
X83105276Y-55500475D01*
X83104071Y-55501865D01*
X83102400Y-55509548D01*
X83102400Y-56969885D01*
X82594400Y-56969885D01*
X82594400Y-55514115D01*
X82589925Y-55498876D01*
X82588535Y-55497671D01*
X82580852Y-55496000D01*
X81487998Y-55496000D01*
X81474467Y-55499973D01*
X81473112Y-55509399D01*
X81494594Y-55598537D01*
X81498483Y-55609832D01*
X81581029Y-55791382D01*
X81586976Y-55801724D01*
X81702368Y-55964397D01*
X81710161Y-55973425D01*
X81854231Y-56111342D01*
X81863601Y-56118742D01*
X81891421Y-56136705D01*
X81937799Y-56190460D01*
X81947753Y-56260756D01*
X81918122Y-56325273D01*
X81900907Y-56341643D01*
X81785543Y-56432262D01*
X81776894Y-56440499D01*
X81646188Y-56591123D01*
X81639253Y-56600847D01*
X81539390Y-56773467D01*
X81534416Y-56784331D01*
X81468993Y-56972727D01*
X81468752Y-56973716D01*
X81141971Y-56973716D01*
X81099125Y-56821794D01*
X81095003Y-56811055D01*
X81003949Y-56626417D01*
X80997938Y-56616608D01*
X80874760Y-56451651D01*
X80867071Y-56443111D01*
X80748720Y-56333709D01*
X80712275Y-56272780D01*
X80714556Y-56201820D01*
X80753680Y-56144310D01*
X80824053Y-56085782D01*
X80832182Y-56077653D01*
X80963820Y-55919375D01*
X80970344Y-55909882D01*
X81070931Y-55730272D01*
X81075610Y-55719763D01*
X81141786Y-55524817D01*
X81144417Y-55513857D01*
X81142440Y-55499992D01*
X81128874Y-55496000D01*
X80260515Y-55496000D01*
X80245276Y-55500475D01*
X80244071Y-55501865D01*
X80242400Y-55509548D01*
X80242400Y-56969885D01*
X79734400Y-56969885D01*
X79734400Y-55514115D01*
X79729925Y-55498876D01*
X79728535Y-55497671D01*
X79720852Y-55496000D01*
X78850381Y-55496000D01*
X78836850Y-55499973D01*
X78835558Y-55508962D01*
X78867056Y-55632985D01*
X78870897Y-55643832D01*
X78957085Y-55830789D01*
X78962836Y-55840750D01*
X79081654Y-56008873D01*
X79089120Y-56017615D01*
X79228877Y-56153761D01*
X79263714Y-56215623D01*
X79259577Y-56286499D01*
X79224032Y-56338747D01*
X79130952Y-56420376D01*
X79123030Y-56428724D01*
X78995580Y-56590394D01*
X78989309Y-56600050D01*
X78893460Y-56782229D01*
X78889055Y-56792863D01*
X78833836Y-56970700D01*
X78833618Y-56984799D01*
X78493400Y-56984799D01*
X78493400Y-54607000D01*
X78808358Y-54607000D01*
X78868294Y-54639726D01*
X78902320Y-54702038D01*
X78895608Y-54777044D01*
X78889055Y-54792864D01*
X78833836Y-54970700D01*
X78833618Y-54984799D01*
X78840350Y-54988000D01*
X81127885Y-54988000D01*
X81141416Y-54984027D01*
X81142585Y-54975892D01*
X81099125Y-54821794D01*
X81095004Y-54811060D01*
X81083992Y-54788729D01*
X81071802Y-54718786D01*
X81099361Y-54653357D01*
X81157919Y-54613213D01*
X81196998Y-54607000D01*
X81419339Y-54607000D01*
X81487460Y-54627002D01*
X81533953Y-54680658D01*
X81544057Y-54750932D01*
X81535943Y-54778510D01*
X81536384Y-54778663D01*
X81468993Y-54972727D01*
X81468752Y-54973716D01*
X81470220Y-54984008D01*
X81483785Y-54988000D01*
X84208802Y-54988000D01*
X84222333Y-54984027D01*
X84223688Y-54974601D01*
X84202206Y-54885463D01*
X84198317Y-54874168D01*
X84157843Y-54785151D01*
X84147857Y-54714861D01*
X84177457Y-54650329D01*
X84237247Y-54612045D01*
X84272544Y-54607000D01*
X87493400Y-54607000D01*
X87490432Y-54560632D01*
X87506042Y-54491374D01*
X87556618Y-54441549D01*
X87626103Y-54426977D01*
X87642584Y-54429384D01*
X87645479Y-54430005D01*
X87739838Y-54439672D01*
X87746254Y-54440000D01*
X87858785Y-54440000D01*
X87874024Y-54435525D01*
X87875229Y-54434135D01*
X87876900Y-54426452D01*
X87876900Y-54421884D01*
X88384900Y-54421884D01*
X88389375Y-54437123D01*
X88390765Y-54438328D01*
X88398448Y-54439999D01*
X88515495Y-54439999D01*
X88522014Y-54439662D01*
X88617606Y-54429743D01*
X88631000Y-54426851D01*
X88785184Y-54375412D01*
X88798362Y-54369239D01*
X88936207Y-54283937D01*
X88947608Y-54274901D01*
X89062139Y-54160171D01*
X89071151Y-54148760D01*
X89156216Y-54010757D01*
X89162363Y-53997576D01*
X89213538Y-53843290D01*
X89216405Y-53829914D01*
X89226072Y-53735562D01*
X89226400Y-53729146D01*
X89226400Y-53479115D01*
X89221925Y-53463876D01*
X89220535Y-53462671D01*
X89212852Y-53461000D01*
X88403015Y-53461000D01*
X88387776Y-53465475D01*
X88386571Y-53466865D01*
X88384900Y-53474548D01*
X88384900Y-54421884D01*
X87876900Y-54421884D01*
X87876900Y-52934885D01*
X88384900Y-52934885D01*
X88389375Y-52950124D01*
X88390765Y-52951329D01*
X88398448Y-52953000D01*
X89208284Y-52953000D01*
X89223523Y-52948525D01*
X89224728Y-52947135D01*
X89226399Y-52939452D01*
X89226399Y-52684905D01*
X89226062Y-52678386D01*
X89216143Y-52582794D01*
X89213251Y-52569400D01*
X89161812Y-52415216D01*
X89155639Y-52402038D01*
X89070337Y-52264193D01*
X89061301Y-52252792D01*
X88946571Y-52138261D01*
X88935160Y-52129249D01*
X88797157Y-52044184D01*
X88783976Y-52038037D01*
X88629690Y-51986862D01*
X88616314Y-51983995D01*
X88521962Y-51974328D01*
X88515545Y-51974000D01*
X88403015Y-51974000D01*
X88387776Y-51978475D01*
X88386571Y-51979865D01*
X88384900Y-51987548D01*
X88384900Y-52934885D01*
X87876900Y-52934885D01*
X87876900Y-51992116D01*
X87872425Y-51976877D01*
X87871035Y-51975672D01*
X87863352Y-51974001D01*
X87746305Y-51974001D01*
X87739786Y-51974338D01*
X87644194Y-51984257D01*
X87630800Y-51987149D01*
X87476616Y-52038588D01*
X87463438Y-52044761D01*
X87325588Y-52130066D01*
X87312727Y-52140259D01*
X87246916Y-52166895D01*
X87177152Y-52153723D01*
X87169045Y-52149197D01*
X84092213Y-50279978D01*
X84044379Y-50227515D01*
X84032502Y-50157519D01*
X84060354Y-50092213D01*
X84068460Y-50083275D01*
X84086213Y-50065491D01*
X84091384Y-50060311D01*
X84183214Y-49911334D01*
X84197441Y-49868443D01*
X84236144Y-49751759D01*
X84236145Y-49751757D01*
X84238310Y-49745228D01*
X84248900Y-49641866D01*
X84248900Y-48842134D01*
X84238041Y-48737481D01*
X84182656Y-48571471D01*
X84090566Y-48422655D01*
X83966711Y-48299016D01*
X83817734Y-48207186D01*
X83808346Y-48204072D01*
X83658159Y-48154256D01*
X83658157Y-48154255D01*
X83651628Y-48152090D01*
X83548266Y-48141500D01*
X82148534Y-48141500D01*
X82145288Y-48141837D01*
X82145284Y-48141837D01*
X82050739Y-48151647D01*
X82050735Y-48151648D01*
X82043881Y-48152359D01*
X82037345Y-48154540D01*
X82037343Y-48154540D01*
X81898260Y-48200942D01*
X81877871Y-48207744D01*
X81729055Y-48299834D01*
X81605416Y-48423689D01*
X81601576Y-48429919D01*
X81601575Y-48429920D01*
X81523479Y-48556616D01*
X81470707Y-48604109D01*
X81416219Y-48616500D01*
X81287476Y-48616500D01*
X81219355Y-48596498D01*
X81172862Y-48542842D01*
X81162213Y-48504105D01*
X81158105Y-48466279D01*
X81158104Y-48466276D01*
X81157251Y-48458420D01*
X81106926Y-48324176D01*
X81101546Y-48316997D01*
X81101544Y-48316994D01*
X81026328Y-48216635D01*
X81020946Y-48209454D01*
X81013765Y-48204072D01*
X80913406Y-48128856D01*
X80913403Y-48128854D01*
X80906224Y-48123474D01*
X80816839Y-48089966D01*
X80779375Y-48075921D01*
X80779373Y-48075921D01*
X80771980Y-48073149D01*
X80764130Y-48072296D01*
X80764129Y-48072296D01*
X80714174Y-48066869D01*
X80714173Y-48066869D01*
X80710777Y-48066500D01*
X79988506Y-48066500D01*
X79266024Y-48066501D01*
X79262630Y-48066870D01*
X79262624Y-48066870D01*
X79212678Y-48072295D01*
X79212674Y-48072296D01*
X79204820Y-48073149D01*
X79070576Y-48123474D01*
X79063397Y-48128854D01*
X79063394Y-48128856D01*
X78963035Y-48204072D01*
X78955854Y-48209454D01*
X78950472Y-48216635D01*
X78875256Y-48316994D01*
X78875254Y-48316997D01*
X78869874Y-48324176D01*
X78819549Y-48458420D01*
X78812900Y-48519623D01*
X78812900Y-48523040D01*
X78812901Y-49901180D01*
X78804328Y-49930377D01*
X78808624Y-49931407D01*
X78801935Y-49959312D01*
X78493400Y-49946286D01*
X78493400Y-46033000D01*
X78513402Y-45964879D01*
X78567058Y-45918386D01*
X78619400Y-45907000D01*
X85091965Y-45907000D01*
X85160086Y-45927002D01*
G37*
%TD.AperFunction*%
%TD*%
%TA.AperFunction,Conductor*%
%TO.N,+5V*%
G36*
X83331001Y-50720709D02*
G01*
X83344434Y-50730524D01*
X85442200Y-52487000D01*
X86517400Y-52487000D01*
X86585521Y-52507002D01*
X86632014Y-52560658D01*
X86643400Y-52613000D01*
X86643400Y-53781000D01*
X86623398Y-53849121D01*
X86569742Y-53895614D01*
X86517400Y-53907000D01*
X79554178Y-53907000D01*
X79486057Y-53886998D01*
X79439564Y-53833342D01*
X79428178Y-53781222D01*
X79423009Y-50850590D01*
X79442891Y-50782434D01*
X79496465Y-50735847D01*
X79548219Y-50724370D01*
X83262758Y-50701133D01*
X83331001Y-50720709D01*
G37*
%TD.AperFunction*%
%TD*%
%TA.AperFunction,Conductor*%
%TO.N,GND*%
G36*
X78798400Y-54912000D02*
G01*
X78443400Y-54912000D01*
X78443400Y-49632000D01*
X78798400Y-49632000D01*
X78798400Y-54912000D01*
G37*
%TD.AperFunction*%
%TD*%
M02*
