M48
; DRILL file {KiCad (6.0.1)} date Sun Jul 17 14:08:35 2022
; FORMAT={-:-/ absolute / inch / decimal}
; #@! TF.CreationDate,2022-07-17T14:08:35-07:00
; #@! TF.GenerationSoftware,Kicad,Pcbnew,(6.0.1)
; #@! TF.FileFunction,Plated,1,2,PTH
FMAT,2
INCH
; #@! TA.AperFunction,Plated,PTH,ViaDrill
T1C0.0157
; #@! TA.AperFunction,Plated,PTH,ComponentDrill
T2C0.0295
; #@! TA.AperFunction,Plated,PTH,ComponentDrill
T3C0.0315
%
G90
G05
T1
X3.3369Y-2.3257
X3.3476Y-2.1576
X3.3549Y-2.6107
X3.4011Y-2.1769
X3.4673Y-2.1792
X3.5456Y-2.0839
X3.6255Y-2.115
T2
X3.5751Y-2.2139
X3.5751Y-2.2926
X3.5751Y-2.3713
X3.5751Y-2.4501
X3.5751Y-2.5288
X3.5751Y-2.6076
X3.5751Y-2.6863
X3.5751Y-2.765
X3.5751Y-2.8438
X3.5751Y-2.9225
T3
X3.1491Y-1.9387
X3.1491Y-2.0174
X3.1491Y-2.0961
X3.1491Y-2.1749
X3.1491Y-2.2536
X3.1491Y-2.3324
X3.1491Y-2.4111
X3.1491Y-2.4898
X3.1491Y-2.5686
X3.1491Y-2.6473
X3.1491Y-2.7261
X3.1491Y-2.8048
X3.1491Y-2.8835
X3.1491Y-2.9623
X3.1491Y-3.041
X3.1491Y-3.1198
X3.1491Y-3.1985
X3.2617Y-1.9387
X3.2617Y-2.0174
X3.2617Y-2.0961
X3.2617Y-2.1749
X3.2617Y-2.2536
X3.2617Y-2.3324
X3.2617Y-2.4111
X3.2617Y-2.4898
X3.2617Y-2.5686
X3.2617Y-2.6473
X3.2617Y-2.7261
X3.2617Y-2.8048
X3.2617Y-2.8835
X3.2617Y-2.9623
X3.2617Y-3.041
X3.2617Y-3.1198
X3.2617Y-3.1985
T0
M30
