%TF.GenerationSoftware,KiCad,Pcbnew,(6.0.1)*%
%TF.CreationDate,2022-07-28T19:16:12-07:00*%
%TF.ProjectId,mu100-dit-connector-board,6d753130-302d-4646-9974-2d636f6e6e65,rev?*%
%TF.SameCoordinates,PX4a615b8PY2b4db18*%
%TF.FileFunction,Legend,Bot*%
%TF.FilePolarity,Positive*%
%FSLAX46Y46*%
G04 Gerber Fmt 4.6, Leading zero omitted, Abs format (unit mm)*
G04 Created by KiCad (PCBNEW (6.0.1)) date 2022-07-28 19:16:12*
%MOMM*%
%LPD*%
G01*
G04 APERTURE LIST*
G04 Aperture macros list*
%AMRoundRect*
0 Rectangle with rounded corners*
0 $1 Rounding radius*
0 $2 $3 $4 $5 $6 $7 $8 $9 X,Y pos of 4 corners*
0 Add a 4 corners polygon primitive as box body*
4,1,4,$2,$3,$4,$5,$6,$7,$8,$9,$2,$3,0*
0 Add four circle primitives for the rounded corners*
1,1,$1+$1,$2,$3*
1,1,$1+$1,$4,$5*
1,1,$1+$1,$6,$7*
1,1,$1+$1,$8,$9*
0 Add four rect primitives between the rounded corners*
20,1,$1+$1,$2,$3,$4,$5,0*
20,1,$1+$1,$4,$5,$6,$7,0*
20,1,$1+$1,$6,$7,$8,$9,0*
20,1,$1+$1,$8,$9,$2,$3,0*%
G04 Aperture macros list end*
%ADD10C,0.150000*%
%ADD11C,0.120000*%
%ADD12R,1.350000X1.350000*%
%ADD13O,1.350000X1.350000*%
%ADD14RoundRect,0.250000X0.625000X-0.350000X0.625000X0.350000X-0.625000X0.350000X-0.625000X-0.350000X0*%
%ADD15O,1.750000X1.200000*%
%ADD16RoundRect,0.250000X-0.650000X0.350000X-0.650000X-0.350000X0.650000X-0.350000X0.650000X0.350000X0*%
%ADD17O,1.800000X1.200000*%
%ADD18C,0.800000*%
G04 APERTURE END LIST*
D10*
X79933400Y-46552000D02*
X79103400Y-46552000D01*
X79948400Y-47962000D02*
X80768400Y-46562000D01*
X80778400Y-46552000D02*
X79948400Y-46552000D01*
X88175400Y-82430800D02*
X87875400Y-82430800D01*
X87575400Y-78230800D02*
X78975400Y-78230800D01*
X90994400Y-78018800D02*
X91824400Y-78018800D01*
X90979400Y-76608800D02*
X90159400Y-78008800D01*
X88875400Y-82430800D02*
X88575400Y-82430800D01*
X89575400Y-82430800D02*
X89275400Y-82430800D01*
X82578400Y-46017000D02*
X83398400Y-44617000D01*
X83408400Y-44607000D02*
X82578400Y-44607000D01*
X79103400Y-46552000D02*
X79918400Y-47932000D01*
X90149400Y-78018800D02*
X90979400Y-78018800D01*
X87575400Y-82430800D02*
X78975400Y-82430800D01*
X82563400Y-44607000D02*
X81733400Y-44607000D01*
X81733400Y-44607000D02*
X82548400Y-45987000D01*
X88875400Y-78230800D02*
X88575400Y-78230800D01*
X91824400Y-78018800D02*
X91009400Y-76638800D01*
X89575400Y-78230800D02*
X89275400Y-78230800D01*
X88175400Y-78230800D02*
X87875400Y-78230800D01*
X88207185Y-79109371D02*
X88207185Y-78680800D01*
X88207185Y-78895085D02*
X87457185Y-78895085D01*
X87564328Y-78823657D01*
X87635757Y-78752228D01*
X87671471Y-78680800D01*
X87457185Y-79752228D02*
X87457185Y-79609371D01*
X87492900Y-79537942D01*
X87528614Y-79502228D01*
X87635757Y-79430800D01*
X87778614Y-79395085D01*
X88064328Y-79395085D01*
X88135757Y-79430800D01*
X88171471Y-79466514D01*
X88207185Y-79537942D01*
X88207185Y-79680800D01*
X88171471Y-79752228D01*
X88135757Y-79787942D01*
X88064328Y-79823657D01*
X87885757Y-79823657D01*
X87814328Y-79787942D01*
X87778614Y-79752228D01*
X87742900Y-79680800D01*
X87742900Y-79537942D01*
X87778614Y-79466514D01*
X87814328Y-79430800D01*
X87885757Y-79395085D01*
X87921471Y-80145085D02*
X87921471Y-80716514D01*
X88207185Y-81466514D02*
X88207185Y-81037942D01*
X88207185Y-81252228D02*
X87457185Y-81252228D01*
X87564328Y-81180800D01*
X87635757Y-81109371D01*
X87671471Y-81037942D01*
X87457185Y-81716514D02*
X87457185Y-82216514D01*
X88207185Y-81895085D01*
X89414685Y-79073657D02*
X88664685Y-79073657D01*
X89200400Y-79323657D01*
X88664685Y-79573657D01*
X89414685Y-79573657D01*
X88664685Y-79930800D02*
X89271828Y-79930800D01*
X89343257Y-79966514D01*
X89378971Y-80002228D01*
X89414685Y-80073657D01*
X89414685Y-80216514D01*
X89378971Y-80287942D01*
X89343257Y-80323657D01*
X89271828Y-80359371D01*
X88664685Y-80359371D01*
X89414685Y-80752228D02*
X89414685Y-80895085D01*
X89378971Y-80966514D01*
X89343257Y-81002228D01*
X89236114Y-81073657D01*
X89093257Y-81109371D01*
X88807542Y-81109371D01*
X88736114Y-81073657D01*
X88700400Y-81037942D01*
X88664685Y-80966514D01*
X88664685Y-80823657D01*
X88700400Y-80752228D01*
X88736114Y-80716514D01*
X88807542Y-80680800D01*
X88986114Y-80680800D01*
X89057542Y-80716514D01*
X89093257Y-80752228D01*
X89128971Y-80823657D01*
X89128971Y-80966514D01*
X89093257Y-81037942D01*
X89057542Y-81073657D01*
X88986114Y-81109371D01*
X88664685Y-81573657D02*
X88664685Y-81645085D01*
X88700400Y-81716514D01*
X88736114Y-81752228D01*
X88807542Y-81787942D01*
X88950400Y-81823657D01*
X89128971Y-81823657D01*
X89271828Y-81787942D01*
X89343257Y-81752228D01*
X89378971Y-81716514D01*
X89414685Y-81645085D01*
X89414685Y-81573657D01*
X89378971Y-81502228D01*
X89343257Y-81466514D01*
X89271828Y-81430800D01*
X89128971Y-81395085D01*
X88950400Y-81395085D01*
X88807542Y-81430800D01*
X88736114Y-81466514D01*
X88700400Y-81502228D01*
X88664685Y-81573657D01*
X90622185Y-79555800D02*
X90586471Y-79484371D01*
X90550757Y-79448657D01*
X90479328Y-79412942D01*
X90265042Y-79412942D01*
X90193614Y-79448657D01*
X90157900Y-79484371D01*
X90122185Y-79555800D01*
X90122185Y-79662942D01*
X90157900Y-79734371D01*
X90193614Y-79770085D01*
X90265042Y-79805800D01*
X90479328Y-79805800D01*
X90550757Y-79770085D01*
X90586471Y-79734371D01*
X90622185Y-79662942D01*
X90622185Y-79555800D01*
X90122185Y-80127228D02*
X90622185Y-80127228D01*
X90193614Y-80127228D02*
X90157900Y-80162942D01*
X90122185Y-80234371D01*
X90122185Y-80341514D01*
X90157900Y-80412942D01*
X90229328Y-80448657D01*
X90622185Y-80448657D01*
X90622185Y-80912942D02*
X90586471Y-80841514D01*
X90515042Y-80805800D01*
X89872185Y-80805800D01*
X90122185Y-81127228D02*
X90622185Y-81305800D01*
X90122185Y-81484371D02*
X90622185Y-81305800D01*
X90800757Y-81234371D01*
X90836471Y-81198657D01*
X90872185Y-81127228D01*
%TO.C,J3*%
X88980780Y-52540666D02*
X89695066Y-52540666D01*
X89837923Y-52493047D01*
X89933161Y-52397809D01*
X89980780Y-52254952D01*
X89980780Y-52159714D01*
X88980780Y-52921619D02*
X88980780Y-53540666D01*
X89361733Y-53207333D01*
X89361733Y-53350190D01*
X89409352Y-53445428D01*
X89456971Y-53493047D01*
X89552209Y-53540666D01*
X89790304Y-53540666D01*
X89885542Y-53493047D01*
X89933161Y-53445428D01*
X89980780Y-53350190D01*
X89980780Y-53064476D01*
X89933161Y-52969238D01*
X89885542Y-52921619D01*
%TO.C,J2*%
X85530780Y-47078666D02*
X86245066Y-47078666D01*
X86387923Y-47031047D01*
X86483161Y-46935809D01*
X86530780Y-46792952D01*
X86530780Y-46697714D01*
X85626019Y-47507238D02*
X85578400Y-47554857D01*
X85530780Y-47650095D01*
X85530780Y-47888190D01*
X85578400Y-47983428D01*
X85626019Y-48031047D01*
X85721257Y-48078666D01*
X85816495Y-48078666D01*
X85959352Y-48031047D01*
X86530780Y-47459619D01*
X86530780Y-48078666D01*
D11*
%TO.C,J3*%
X87988400Y-57032000D02*
X88598400Y-57032000D01*
X88598400Y-75982000D02*
X88598400Y-74032000D01*
X88598400Y-74032000D02*
X87988400Y-74032000D01*
X87988400Y-54472000D02*
X91798400Y-54462000D01*
X88598400Y-57032000D02*
X88598400Y-55082000D01*
X89298400Y-76592000D02*
X89298400Y-75982000D01*
X90598400Y-76592000D02*
X90598400Y-75982000D01*
X91798400Y-75982000D02*
X88598400Y-75982000D01*
X89298400Y-54472000D02*
X89298400Y-55082000D01*
X87988400Y-76592000D02*
X87988400Y-54472000D01*
X88598400Y-55082000D02*
X91798400Y-55082000D01*
X90598400Y-54472000D02*
X90598400Y-55082000D01*
X91798400Y-76592000D02*
X87988400Y-76592000D01*
%TO.C,J2*%
X83498400Y-84892000D02*
X83498400Y-84242000D01*
X86998400Y-84892000D02*
X86998400Y-84242000D01*
X86998400Y-45592000D02*
X83498400Y-45592000D01*
X86998400Y-84892000D02*
X83498400Y-84892000D01*
X86998400Y-46242000D02*
X86998400Y-45592000D01*
X83498400Y-45592000D02*
X83498400Y-46242000D01*
X86998400Y-46242000D02*
X81798400Y-46242000D01*
X81798400Y-46242000D02*
X81798400Y-84242000D01*
X81798400Y-84242000D02*
X86998400Y-84242000D01*
X86998400Y-84242000D02*
X86998400Y-46242000D01*
%TD*%
%LPC*%
D12*
%TO.C,J1*%
X79988400Y-49242000D03*
D13*
X79988400Y-51242000D03*
X79988400Y-53242000D03*
X79988400Y-55242000D03*
X79988400Y-57242000D03*
X79988400Y-59242000D03*
X79988400Y-61242000D03*
X79988400Y-63242000D03*
X79988400Y-65242000D03*
X79988400Y-67242000D03*
X79988400Y-69242000D03*
X79988400Y-71242000D03*
X79988400Y-73242000D03*
X79988400Y-75242000D03*
X79988400Y-77242000D03*
X79988400Y-79242000D03*
X79988400Y-81242000D03*
%TD*%
D14*
%TO.C,J3*%
X89798400Y-74232000D03*
D15*
X89798400Y-72232000D03*
X89798400Y-70232000D03*
X89798400Y-68232000D03*
X89798400Y-66232000D03*
X89798400Y-64232000D03*
X89798400Y-62232000D03*
X89798400Y-60232000D03*
X89798400Y-58232000D03*
X89798400Y-56232000D03*
%TD*%
D16*
%TO.C,J2*%
X82848400Y-49242000D03*
D17*
X82848400Y-51242000D03*
X82848400Y-53242000D03*
X82848400Y-55242000D03*
X82848400Y-57242000D03*
X82848400Y-59242000D03*
X82848400Y-61242000D03*
X82848400Y-63242000D03*
X82848400Y-65242000D03*
X82848400Y-67242000D03*
X82848400Y-69242000D03*
X82848400Y-71242000D03*
X82848400Y-73242000D03*
X82848400Y-75242000D03*
X82848400Y-77242000D03*
X82848400Y-79242000D03*
X82848400Y-81242000D03*
%TD*%
D18*
X91693400Y-53407000D03*
X85718400Y-57182000D03*
X87893400Y-69357000D03*
X86788400Y-59632000D03*
X89743400Y-52557000D03*
X86043400Y-67707000D03*
X87663400Y-58757000D03*
X87053400Y-69857000D03*
X86793400Y-63657000D03*
X84943400Y-55307000D03*
X86893400Y-66857000D03*
X86593400Y-56307000D03*
X84868400Y-58032000D03*
X85943400Y-64507000D03*
X86143400Y-55307000D03*
X87768400Y-65982000D03*
X87293400Y-55307000D03*
X86043400Y-70357000D03*
X87668400Y-62782000D03*
X85938400Y-60482000D03*
M02*
